<?xml version="1.0" encoding="UTF-8" standalone="no"?>
<!DOCTYPE svg PUBLIC "-//W3C//DTD SVG 1.1//EN"
 "http://www.w3.org/Graphics/SVG/1.1/DTD/svg11.dtd">
<!-- Generated by graphviz version 2.28.0 (20110507.0327)
 -->
<!-- Title: wpilibC++Devices/src/Vision/BaeUtilities.cpp Pages: 1 -->
<svg width="1197pt" height="432pt"
 viewBox="0.00 0.00 1196.84 432.00" xmlns="http://www.w3.org/2000/svg" xmlns:xlink="http://www.w3.org/1999/xlink">
<g id="graph1" class="graph" transform="scale(1 1) rotate(0) translate(4 428)">
<title>wpilibC++Devices/src/Vision/BaeUtilities.cpp</title>
<polygon fill="white" stroke="white" points="-4,5 -4,-428 1193.84,-428 1193.84,5 -4,5"/>
<!-- Node1 -->
<g id="node1" class="node"><title>Node1</title>
<polygon fill="#bfbfbf" stroke="black" points="713.84,-393 713.84,-423 831.84,-423 831.84,-393 713.84,-393"/>
<text text-anchor="start" x="721.84" y="-411" font-family="Helvetica,sans-Serif" font-size="10.00">wpilibC++Devices/src</text>
<text text-anchor="middle" x="772.84" y="-400" font-family="Helvetica,sans-Serif" font-size="10.00">/Vision/BaeUtilities.cpp</text>
</g>
<!-- Node2 -->
<g id="node3" class="node"><title>Node2</title>
<polygon fill="white" stroke="#bfbfbf" points="243.84,-112.5 243.84,-131.5 289.84,-131.5 289.84,-112.5 243.84,-112.5"/>
<text text-anchor="middle" x="266.84" y="-119.5" font-family="Helvetica,sans-Serif" font-size="10.00">stdio.h</text>
</g>
<!-- Node1&#45;&gt;Node2 -->
<g id="edge2" class="edge"><title>Node1&#45;&gt;Node2</title>
<path fill="none" stroke="midnightblue" d="M713.545,-404.327C532.771,-395.397 0.840381,-363.002 0.840381,-291 0.840381,-291 0.840381,-291 0.840381,-233 0.840381,-202.902 -2.52114,-188.145 19.8404,-168 27.7587,-160.866 167.788,-138.361 233.412,-128.14"/>
<polygon fill="midnightblue" stroke="midnightblue" points="234.3,-131.544 243.645,-126.552 233.226,-124.627 234.3,-131.544"/>
</g>
<!-- Node3 -->
<g id="node5" class="node"><title>Node3</title>
<polygon fill="white" stroke="#bfbfbf" points="582.84,-336.5 582.84,-355.5 650.84,-355.5 650.84,-336.5 582.84,-336.5"/>
<text text-anchor="middle" x="616.84" y="-343.5" font-family="Helvetica,sans-Serif" font-size="10.00">sys/types.h</text>
</g>
<!-- Node1&#45;&gt;Node3 -->
<g id="edge4" class="edge"><title>Node1&#45;&gt;Node3</title>
<path fill="none" stroke="midnightblue" d="M736.265,-392.933C709.711,-382.72 674.134,-369.036 648.733,-359.266"/>
<polygon fill="midnightblue" stroke="midnightblue" points="649.79,-355.923 639.2,-355.6 647.277,-362.457 649.79,-355.923"/>
</g>
<!-- Node4 -->
<g id="node7" class="node"><title>Node4</title>
<polygon fill="white" stroke="#bfbfbf" points="668.84,-336.5 668.84,-355.5 728.84,-355.5 728.84,-336.5 668.84,-336.5"/>
<text text-anchor="middle" x="698.84" y="-343.5" font-family="Helvetica,sans-Serif" font-size="10.00">sys/stat.h</text>
</g>
<!-- Node1&#45;&gt;Node4 -->
<g id="edge6" class="edge"><title>Node1&#45;&gt;Node4</title>
<path fill="none" stroke="midnightblue" d="M755.303,-392.781C743.885,-383.523 729.01,-371.462 717.394,-362.044"/>
<polygon fill="midnightblue" stroke="midnightblue" points="719.58,-359.31 709.608,-355.731 715.171,-364.747 719.58,-359.31"/>
</g>
<!-- Node5 -->
<g id="node9" class="node"><title>Node5</title>
<polygon fill="white" stroke="#bfbfbf" points="747.34,-336.5 747.34,-355.5 798.34,-355.5 798.34,-336.5 747.34,-336.5"/>
<text text-anchor="middle" x="772.84" y="-343.5" font-family="Helvetica,sans-Serif" font-size="10.00">unistd.h</text>
</g>
<!-- Node1&#45;&gt;Node5 -->
<g id="edge8" class="edge"><title>Node1&#45;&gt;Node5</title>
<path fill="none" stroke="midnightblue" d="M772.84,-392.781C772.84,-384.781 772.84,-374.689 772.84,-366.017"/>
<polygon fill="midnightblue" stroke="midnightblue" points="776.34,-365.73 772.84,-355.731 769.34,-365.731 776.34,-365.73"/>
</g>
<!-- Node6 -->
<g id="node11" class="node"><title>Node6</title>
<polygon fill="white" stroke="#bfbfbf" points="816.34,-336.5 816.34,-355.5 865.34,-355.5 865.34,-336.5 816.34,-336.5"/>
<text text-anchor="middle" x="840.84" y="-343.5" font-family="Helvetica,sans-Serif" font-size="10.00">string.h</text>
</g>
<!-- Node1&#45;&gt;Node6 -->
<g id="edge10" class="edge"><title>Node1&#45;&gt;Node6</title>
<path fill="none" stroke="midnightblue" d="M788.955,-392.781C799.244,-383.703 812.587,-371.929 823.166,-362.595"/>
<polygon fill="midnightblue" stroke="midnightblue" points="825.763,-364.971 830.946,-355.731 821.132,-359.722 825.763,-364.971"/>
</g>
<!-- Node7 -->
<g id="node13" class="node"><title>Node7</title>
<polygon fill="white" stroke="#bfbfbf" points="883.34,-336.5 883.34,-355.5 930.34,-355.5 930.34,-336.5 883.34,-336.5"/>
<text text-anchor="middle" x="906.84" y="-343.5" font-family="Helvetica,sans-Serif" font-size="10.00">math.h</text>
</g>
<!-- Node1&#45;&gt;Node7 -->
<g id="edge12" class="edge"><title>Node1&#45;&gt;Node7</title>
<path fill="none" stroke="midnightblue" d="M804.257,-392.933C826.663,-382.9 856.547,-369.519 878.279,-359.789"/>
<polygon fill="midnightblue" stroke="midnightblue" points="879.937,-362.881 887.634,-355.6 877.076,-356.492 879.937,-362.881"/>
</g>
<!-- Node8 -->
<g id="node15" class="node"><title>Node8</title>
<polygon fill="white" stroke="#bfbfbf" points="948.84,-336.5 948.84,-355.5 996.84,-355.5 996.84,-336.5 948.84,-336.5"/>
<text text-anchor="middle" x="972.84" y="-343.5" font-family="Helvetica,sans-Serif" font-size="10.00">stdlib.h</text>
</g>
<!-- Node1&#45;&gt;Node8 -->
<g id="edge14" class="edge"><title>Node1&#45;&gt;Node8</title>
<path fill="none" stroke="midnightblue" d="M819.731,-392.933C856.195,-381.994 905.931,-367.073 938.691,-357.245"/>
<polygon fill="midnightblue" stroke="midnightblue" points="940.12,-360.47 948.692,-354.244 938.108,-353.766 940.12,-360.47"/>
</g>
<!-- Node9 -->
<g id="node17" class="node"><title>Node9</title>
<polygon fill="white" stroke="#bfbfbf" points="1014.84,-336.5 1014.84,-355.5 1066.84,-355.5 1066.84,-336.5 1014.84,-336.5"/>
<text text-anchor="middle" x="1040.84" y="-343.5" font-family="Helvetica,sans-Serif" font-size="10.00">stdarg.h</text>
</g>
<!-- Node1&#45;&gt;Node9 -->
<g id="edge16" class="edge"><title>Node1&#45;&gt;Node9</title>
<path fill="none" stroke="midnightblue" d="M831.867,-394.697C876.745,-385.202 940.254,-371.464 1004.58,-356.24"/>
<polygon fill="midnightblue" stroke="midnightblue" points="1005.57,-359.602 1014.49,-353.884 1003.95,-352.792 1005.57,-359.602"/>
</g>
<!-- Node10 -->
<g id="node19" class="node"><title>Node10</title>
<a xlink:href="_bae_utilities_8h_source.html" target="_top" xlink:title="Vision/BaeUtilities.h">
<polygon fill="white" stroke="black" points="1084.84,-336.5 1084.84,-355.5 1188.84,-355.5 1188.84,-336.5 1084.84,-336.5"/>
<text text-anchor="middle" x="1136.84" y="-343.5" font-family="Helvetica,sans-Serif" font-size="10.00">Vision/BaeUtilities.h</text>
</a>
</g>
<!-- Node1&#45;&gt;Node10 -->
<g id="edge18" class="edge"><title>Node1&#45;&gt;Node10</title>
<path fill="none" stroke="midnightblue" d="M832.133,-397.226C899.007,-386.203 1007.25,-368.36 1075.11,-357.175"/>
<polygon fill="midnightblue" stroke="midnightblue" points="1075.94,-360.587 1085.23,-355.507 1074.8,-353.68 1075.94,-360.587"/>
</g>
<!-- Node11 -->
<g id="node21" class="node"><title>Node11</title>
<a xlink:href="_servo_8h_source.html" target="_top" xlink:title="Servo.h">
<polygon fill="white" stroke="black" points="443.34,-336.5 443.34,-355.5 492.34,-355.5 492.34,-336.5 443.34,-336.5"/>
<text text-anchor="middle" x="467.84" y="-343.5" font-family="Helvetica,sans-Serif" font-size="10.00">Servo.h</text>
</a>
</g>
<!-- Node1&#45;&gt;Node11 -->
<g id="edge20" class="edge"><title>Node1&#45;&gt;Node11</title>
<path fill="none" stroke="midnightblue" d="M713.672,-395.36C650.951,-383.022 554.007,-363.951 502.605,-353.839"/>
<polygon fill="midnightblue" stroke="midnightblue" points="503.143,-350.378 492.656,-351.882 501.792,-357.246 503.143,-350.378"/>
</g>
<!-- Node29 -->
<g id="node62" class="node"><title>Node29</title>
<a xlink:href="_timer_8h_source.html" target="_top" xlink:title="Timer.h">
<polygon fill="white" stroke="black" points="530.34,-112.5 530.34,-131.5 579.34,-131.5 579.34,-112.5 530.34,-112.5"/>
<text text-anchor="middle" x="554.84" y="-119.5" font-family="Helvetica,sans-Serif" font-size="10.00">Timer.h</text>
</a>
</g>
<!-- Node1&#45;&gt;Node29 -->
<g id="edge66" class="edge"><title>Node1&#45;&gt;Node29</title>
<path fill="none" stroke="midnightblue" d="M713.557,-406.792C669.515,-403.457 610.887,-391.826 573.84,-356 552.205,-335.077 554.84,-321.098 554.84,-291 554.84,-291 554.84,-291 554.84,-233 554.84,-200.948 554.84,-163.643 554.84,-141.749"/>
<polygon fill="midnightblue" stroke="midnightblue" points="558.34,-141.558 554.84,-131.558 551.34,-141.558 558.34,-141.558"/>
</g>
<!-- Node12 -->
<g id="node23" class="node"><title>Node12</title>
<a xlink:href="wpilib_c_09_09_devices_2include_2_safe_p_w_m_8h_source.html" target="_top" xlink:title="SafePWM.h">
<polygon fill="white" stroke="black" points="321.34,-280.5 321.34,-299.5 390.34,-299.5 390.34,-280.5 321.34,-280.5"/>
<text text-anchor="middle" x="355.84" y="-287.5" font-family="Helvetica,sans-Serif" font-size="10.00">SafePWM.h</text>
</a>
</g>
<!-- Node11&#45;&gt;Node12 -->
<g id="edge22" class="edge"><title>Node11&#45;&gt;Node12</title>
<path fill="none" stroke="midnightblue" d="M449.846,-336.324C431.803,-327.625 403.793,-314.12 383.038,-304.113"/>
<polygon fill="midnightblue" stroke="midnightblue" points="384.318,-300.845 373.79,-299.655 381.278,-307.15 384.318,-300.845"/>
</g>
<!-- Node26 -->
<g id="node55" class="node"><title>Node26</title>
<a xlink:href="wpilib_c_09_09_devices_2include_2_speed_controller_8h_source.html" target="_top" xlink:title="SpeedController.h">
<polygon fill="white" stroke="black" points="420.84,-280.5 420.84,-299.5 514.84,-299.5 514.84,-280.5 420.84,-280.5"/>
<text text-anchor="middle" x="467.84" y="-287.5" font-family="Helvetica,sans-Serif" font-size="10.00">SpeedController.h</text>
</a>
</g>
<!-- Node11&#45;&gt;Node26 -->
<g id="edge58" class="edge"><title>Node11&#45;&gt;Node26</title>
<path fill="none" stroke="midnightblue" d="M467.84,-336.083C467.84,-329.006 467.84,-318.861 467.84,-309.986"/>
<polygon fill="midnightblue" stroke="midnightblue" points="471.34,-309.751 467.84,-299.751 464.34,-309.751 471.34,-309.751"/>
</g>
<!-- Node13 -->
<g id="node25" class="node"><title>Node13</title>
<a xlink:href="wpilib_c_09_09_devices_2include_2_motor_safety_8h_source.html" target="_top" xlink:title="MotorSafety.h">
<polygon fill="white" stroke="black" points="317.34,-224.5 317.34,-243.5 394.34,-243.5 394.34,-224.5 317.34,-224.5"/>
<text text-anchor="middle" x="355.84" y="-231.5" font-family="Helvetica,sans-Serif" font-size="10.00">MotorSafety.h</text>
</a>
</g>
<!-- Node12&#45;&gt;Node13 -->
<g id="edge24" class="edge"><title>Node12&#45;&gt;Node13</title>
<path fill="none" stroke="midnightblue" d="M355.84,-280.083C355.84,-273.006 355.84,-262.861 355.84,-253.986"/>
<polygon fill="midnightblue" stroke="midnightblue" points="359.34,-253.751 355.84,-243.751 352.34,-253.751 359.34,-253.751"/>
</g>
<!-- Node14 -->
<g id="node27" class="node"><title>Node14</title>
<a xlink:href="wpilib_c_09_09_devices_2include_2_p_w_m_8h_source.html" target="_top" xlink:title="PWM.h">
<polygon fill="white" stroke="black" points="248.84,-224.5 248.84,-243.5 298.84,-243.5 298.84,-224.5 248.84,-224.5"/>
<text text-anchor="middle" x="273.84" y="-231.5" font-family="Helvetica,sans-Serif" font-size="10.00">PWM.h</text>
</a>
</g>
<!-- Node12&#45;&gt;Node14 -->
<g id="edge26" class="edge"><title>Node12&#45;&gt;Node14</title>
<path fill="none" stroke="midnightblue" d="M342.666,-280.324C329.994,-271.979 310.607,-259.212 295.635,-249.352"/>
<polygon fill="midnightblue" stroke="midnightblue" points="297.259,-246.231 286.982,-243.655 293.409,-252.078 297.259,-246.231"/>
</g>
<!-- Node15 -->
<g id="node29" class="node"><title>Node15</title>
<a xlink:href="_sensor_base_8h_source.html" target="_top" xlink:title="SensorBase.h">
<polygon fill="white" stroke="black" points="348.84,-168.5 348.84,-187.5 426.84,-187.5 426.84,-168.5 348.84,-168.5"/>
<text text-anchor="middle" x="387.84" y="-175.5" font-family="Helvetica,sans-Serif" font-size="10.00">SensorBase.h</text>
</a>
</g>
<!-- Node14&#45;&gt;Node15 -->
<g id="edge28" class="edge"><title>Node14&#45;&gt;Node15</title>
<path fill="none" stroke="midnightblue" d="M291.904,-224.444C310.415,-215.675 339.421,-201.935 360.696,-191.858"/>
<polygon fill="midnightblue" stroke="midnightblue" points="362.322,-194.96 369.861,-187.516 359.326,-188.634 362.322,-194.96"/>
</g>
<!-- Node22 -->
<g id="node46" class="node"><title>Node22</title>
<a xlink:href="_live_window_sendable_8h_source.html" target="_top" xlink:title="LiveWindow/LiveWindowSendable.h">
<polygon fill="white" stroke="black" points="28.8404,-168.5 28.8404,-187.5 198.84,-187.5 198.84,-168.5 28.8404,-168.5"/>
<text text-anchor="middle" x="113.84" y="-175.5" font-family="Helvetica,sans-Serif" font-size="10.00">LiveWindow/LiveWindowSendable.h</text>
</a>
</g>
<!-- Node14&#45;&gt;Node22 -->
<g id="edge48" class="edge"><title>Node14&#45;&gt;Node22</title>
<path fill="none" stroke="midnightblue" d="M248.488,-224.444C221.571,-215.359 178.844,-200.939 148.753,-190.783"/>
<polygon fill="midnightblue" stroke="midnightblue" points="149.668,-187.398 139.074,-187.516 147.43,-194.031 149.668,-187.398"/>
</g>
<!-- Node25 -->
<g id="node53" class="node"><title>Node25</title>
<polygon fill="white" stroke="#bfbfbf" points="216.84,-168.5 216.84,-187.5 330.84,-187.5 330.84,-168.5 216.84,-168.5"/>
<text text-anchor="middle" x="273.84" y="-175.5" font-family="Helvetica,sans-Serif" font-size="10.00">tables/ITableListener.h</text>
</g>
<!-- Node14&#45;&gt;Node25 -->
<g id="edge56" class="edge"><title>Node14&#45;&gt;Node25</title>
<path fill="none" stroke="midnightblue" d="M273.84,-224.083C273.84,-217.006 273.84,-206.861 273.84,-197.986"/>
<polygon fill="midnightblue" stroke="midnightblue" points="277.34,-197.751 273.84,-187.751 270.34,-197.751 277.34,-197.751"/>
</g>
<!-- Node15&#45;&gt;Node2 -->
<g id="edge44" class="edge"><title>Node15&#45;&gt;Node2</title>
<path fill="none" stroke="midnightblue" d="M368.668,-168.444C348.931,-159.636 317.955,-145.812 295.347,-135.722"/>
<polygon fill="midnightblue" stroke="midnightblue" points="296.482,-132.396 285.923,-131.516 293.629,-138.788 296.482,-132.396"/>
</g>
<!-- Node16 -->
<g id="node31" class="node"><title>Node16</title>
<a xlink:href="_error_base_8h_source.html" target="_top" xlink:title="ErrorBase.h">
<polygon fill="white" stroke="black" points="364.84,-112.5 364.84,-131.5 432.84,-131.5 432.84,-112.5 364.84,-112.5"/>
<text text-anchor="middle" x="398.84" y="-119.5" font-family="Helvetica,sans-Serif" font-size="10.00">ErrorBase.h</text>
</a>
</g>
<!-- Node15&#45;&gt;Node16 -->
<g id="edge30" class="edge"><title>Node15&#45;&gt;Node16</title>
<path fill="none" stroke="midnightblue" d="M389.657,-168.083C391.114,-160.927 393.211,-150.635 395.033,-141.691"/>
<polygon fill="midnightblue" stroke="midnightblue" points="398.491,-142.248 397.058,-131.751 391.632,-140.851 398.491,-142.248"/>
</g>
<!-- Node17 -->
<g id="node33" class="node"><title>Node17</title>
<a xlink:href="_base_8h_source.html" target="_top" xlink:title="Base.h">
<polygon fill="white" stroke="black" points="375.34,-0.5 375.34,-19.5 422.34,-19.5 422.34,-0.5 375.34,-0.5"/>
<text text-anchor="middle" x="398.84" y="-7.5" font-family="Helvetica,sans-Serif" font-size="10.00">Base.h</text>
</a>
</g>
<!-- Node15&#45;&gt;Node17 -->
<g id="edge46" class="edge"><title>Node15&#45;&gt;Node17</title>
<path fill="none" stroke="midnightblue" d="M379.089,-168.286C371.277,-159.84 360.389,-146.246 355.84,-132 353.137,-123.532 354.064,-120.709 355.84,-112 362.134,-81.1515 378.212,-48.0567 388.825,-28.4615"/>
<polygon fill="midnightblue" stroke="midnightblue" points="391.992,-29.9685 393.796,-19.5284 385.875,-26.5647 391.992,-29.9685"/>
</g>
<!-- Node16&#45;&gt;Node17 -->
<g id="edge32" class="edge"><title>Node16&#45;&gt;Node17</title>
<path fill="none" stroke="midnightblue" d="M398.84,-112.368C398.84,-94.617 398.84,-53.6664 398.84,-29.5974"/>
<polygon fill="midnightblue" stroke="midnightblue" points="402.34,-29.5914 398.84,-19.5914 395.34,-29.5915 402.34,-29.5914"/>
</g>
<!-- Node18 -->
<g id="node35" class="node"><title>Node18</title>
<a xlink:href="_error_8h_source.html" target="_top" xlink:title="Error.h">
<polygon fill="white" stroke="black" points="262.84,-56.5 262.84,-75.5 308.84,-75.5 308.84,-56.5 262.84,-56.5"/>
<text text-anchor="middle" x="285.84" y="-63.5" font-family="Helvetica,sans-Serif" font-size="10.00">Error.h</text>
</a>
</g>
<!-- Node16&#45;&gt;Node18 -->
<g id="edge34" class="edge"><title>Node16&#45;&gt;Node18</title>
<path fill="none" stroke="midnightblue" d="M380.935,-112.444C362.586,-103.675 333.835,-89.9355 312.747,-79.8579"/>
<polygon fill="midnightblue" stroke="midnightblue" points="314.194,-76.6703 303.662,-75.5164 311.175,-82.9862 314.194,-76.6703"/>
</g>
<!-- Node21 -->
<g id="node42" class="node"><title>Node21</title>
<polygon fill="white" stroke="#bfbfbf" points="489.34,-56.5 489.34,-75.5 596.34,-75.5 596.34,-56.5 489.34,-56.5"/>
<text text-anchor="middle" x="542.84" y="-63.5" font-family="Helvetica,sans-Serif" font-size="10.00">HAL/Semaphore.hpp</text>
</g>
<!-- Node16&#45;&gt;Node21 -->
<g id="edge42" class="edge"><title>Node16&#45;&gt;Node21</title>
<path fill="none" stroke="midnightblue" d="M421.658,-112.444C445.672,-103.438 483.669,-89.1891 510.71,-79.049"/>
<polygon fill="midnightblue" stroke="midnightblue" points="511.996,-82.3049 520.13,-75.5164 509.538,-75.7506 511.996,-82.3049"/>
</g>
<!-- Node18&#45;&gt;Node17 -->
<g id="edge36" class="edge"><title>Node18&#45;&gt;Node17</title>
<path fill="none" stroke="midnightblue" d="M303.746,-56.4435C322.094,-47.6751 350.846,-33.9355 371.934,-23.8579"/>
<polygon fill="midnightblue" stroke="midnightblue" points="373.505,-26.9862 381.019,-19.5164 370.487,-20.6703 373.505,-26.9862"/>
</g>
<!-- Node19 -->
<g id="node38" class="node"><title>Node19</title>
<polygon fill="white" stroke="#bfbfbf" points="148.34,-0.5 148.34,-19.5 189.34,-19.5 189.34,-0.5 148.34,-0.5"/>
<text text-anchor="middle" x="168.84" y="-7.5" font-family="Helvetica,sans-Serif" font-size="10.00">string</text>
</g>
<!-- Node18&#45;&gt;Node19 -->
<g id="edge38" class="edge"><title>Node18&#45;&gt;Node19</title>
<path fill="none" stroke="midnightblue" d="M267.301,-56.4435C248.217,-47.6356 218.265,-33.8116 196.405,-23.722"/>
<polygon fill="midnightblue" stroke="midnightblue" points="197.839,-20.5292 187.293,-19.5164 194.906,-26.8849 197.839,-20.5292"/>
</g>
<!-- Node20 -->
<g id="node40" class="node"><title>Node20</title>
<polygon fill="white" stroke="#bfbfbf" points="261.34,-0.5 261.34,-19.5 310.34,-19.5 310.34,-0.5 261.34,-0.5"/>
<text text-anchor="middle" x="285.84" y="-7.5" font-family="Helvetica,sans-Serif" font-size="10.00">stdint.h</text>
</g>
<!-- Node18&#45;&gt;Node20 -->
<g id="edge40" class="edge"><title>Node18&#45;&gt;Node20</title>
<path fill="none" stroke="midnightblue" d="M285.84,-56.083C285.84,-49.0059 285.84,-38.8611 285.84,-29.9865"/>
<polygon fill="midnightblue" stroke="midnightblue" points="289.34,-29.751 285.84,-19.7511 282.34,-29.7511 289.34,-29.751"/>
</g>
<!-- Node23 -->
<g id="node48" class="node"><title>Node23</title>
<a xlink:href="_sendable_8h_source.html" target="_top" xlink:title="SmartDashboard/Sendable.h">
<polygon fill="white" stroke="black" points="54.3404,-112.5 54.3404,-131.5 195.34,-131.5 195.34,-112.5 54.3404,-112.5"/>
<text text-anchor="middle" x="124.84" y="-119.5" font-family="Helvetica,sans-Serif" font-size="10.00">SmartDashboard/Sendable.h</text>
</a>
</g>
<!-- Node22&#45;&gt;Node23 -->
<g id="edge50" class="edge"><title>Node22&#45;&gt;Node23</title>
<path fill="none" stroke="midnightblue" d="M115.657,-168.083C117.114,-160.927 119.211,-150.635 121.033,-141.691"/>
<polygon fill="midnightblue" stroke="midnightblue" points="124.491,-142.248 123.058,-131.751 117.632,-140.851 124.491,-142.248"/>
</g>
<!-- Node23&#45;&gt;Node19 -->
<g id="edge52" class="edge"><title>Node23&#45;&gt;Node19</title>
<path fill="none" stroke="midnightblue" d="M126.713,-112.378C129.603,-99.7291 135.682,-75.5269 143.84,-56 147.802,-46.5166 153.25,-36.4726 158.048,-28.2853"/>
<polygon fill="midnightblue" stroke="midnightblue" points="161.077,-30.0404 163.256,-19.6719 155.087,-26.4188 161.077,-30.0404"/>
</g>
<!-- Node24 -->
<g id="node51" class="node"><title>Node24</title>
<polygon fill="white" stroke="#bfbfbf" points="152.84,-56.5 152.84,-75.5 232.84,-75.5 232.84,-56.5 152.84,-56.5"/>
<text text-anchor="middle" x="192.84" y="-63.5" font-family="Helvetica,sans-Serif" font-size="10.00">tables/ITable.h</text>
</g>
<!-- Node23&#45;&gt;Node24 -->
<g id="edge54" class="edge"><title>Node23&#45;&gt;Node24</title>
<path fill="none" stroke="midnightblue" d="M135.766,-112.324C146.015,-104.185 161.561,-91.8395 173.841,-82.0874"/>
<polygon fill="midnightblue" stroke="midnightblue" points="176.062,-84.7937 181.716,-75.8339 171.708,-79.3119 176.062,-84.7937"/>
</g>
<!-- Node27 -->
<g id="node57" class="node"><title>Node27</title>
<polygon fill="white" stroke="#bfbfbf" points="450.84,-224.5 450.84,-243.5 526.84,-243.5 526.84,-224.5 450.84,-224.5"/>
<text text-anchor="middle" x="488.84" y="-231.5" font-family="Helvetica,sans-Serif" font-size="10.00">HAL/HAL.hpp</text>
</g>
<!-- Node26&#45;&gt;Node27 -->
<g id="edge60" class="edge"><title>Node26&#45;&gt;Node27</title>
<path fill="none" stroke="midnightblue" d="M471.308,-280.083C474.152,-272.77 478.27,-262.181 481.8,-253.103"/>
<polygon fill="midnightblue" stroke="midnightblue" points="485.075,-254.34 485.437,-243.751 478.551,-251.803 485.075,-254.34"/>
</g>
<!-- Node28 -->
<g id="node59" class="node"><title>Node28</title>
<a xlink:href="_p_i_d_output_8h_source.html" target="_top" xlink:title="PIDOutput.h">
<polygon fill="white" stroke="black" points="444.84,-168.5 444.84,-187.5 514.84,-187.5 514.84,-168.5 444.84,-168.5"/>
<text text-anchor="middle" x="479.84" y="-175.5" font-family="Helvetica,sans-Serif" font-size="10.00">PIDOutput.h</text>
</a>
</g>
<!-- Node26&#45;&gt;Node28 -->
<g id="edge62" class="edge"><title>Node26&#45;&gt;Node28</title>
<path fill="none" stroke="midnightblue" d="M460.001,-280.233C449.882,-267.806 434.409,-244.318 441.84,-224 445.897,-212.908 454.028,-202.665 461.732,-194.763"/>
<polygon fill="midnightblue" stroke="midnightblue" points="464.315,-197.135 469.126,-187.695 459.478,-192.075 464.315,-197.135"/>
</g>
<!-- Node28&#45;&gt;Node17 -->
<g id="edge64" class="edge"><title>Node28&#45;&gt;Node17</title>
<path fill="none" stroke="midnightblue" d="M475.485,-168.075C462.625,-141.719 424.642,-63.878 407.458,-28.6608"/>
<polygon fill="midnightblue" stroke="midnightblue" points="410.552,-27.0204 403.021,-19.5681 404.261,-30.0902 410.552,-27.0204"/>
</g>
<!-- Node29&#45;&gt;Node17 -->
<g id="edge70" class="edge"><title>Node29&#45;&gt;Node17</title>
<path fill="none" stroke="midnightblue" d="M569.693,-112.493C589.664,-99.9869 620.912,-75.9612 604.84,-56 583.631,-29.6574 485.725,-17.8987 432.884,-13.3946"/>
<polygon fill="midnightblue" stroke="midnightblue" points="432.894,-9.88401 422.644,-12.5646 432.329,-16.8611 432.894,-9.88401"/>
</g>
<!-- Node29&#45;&gt;Node21 -->
<g id="edge68" class="edge"><title>Node29&#45;&gt;Node21</title>
<path fill="none" stroke="midnightblue" d="M552.859,-112.083C551.269,-104.927 548.982,-94.6353 546.994,-85.6911"/>
<polygon fill="midnightblue" stroke="midnightblue" points="550.371,-84.7537 544.785,-75.7511 543.538,-86.2722 550.371,-84.7537"/>
</g>
</g>
</svg>
