<?xml version="1.0" encoding="UTF-8" standalone="no"?>
<!DOCTYPE svg PUBLIC "-//W3C//DTD SVG 1.1//EN"
 "http://www.w3.org/Graphics/SVG/1.1/DTD/svg11.dtd">
<!-- Generated by graphviz version 2.28.0 (20110507.0327)
 -->
<!-- Title: processFile Pages: 1 -->
<svg width="182pt" height="66pt"
 viewBox="0.00 0.00 182.00 66.00" xmlns="http://www.w3.org/2000/svg" xmlns:xlink="http://www.w3.org/1999/xlink">
<g id="graph1" class="graph" transform="scale(1 1) rotate(0) translate(4 62)">
<title>processFile</title>
<polygon fill="white" stroke="white" points="-4,5 -4,-62 179,-62 179,5 -4,5"/>
<!-- Node1 -->
<g id="node1" class="node"><title>Node1</title>
<polygon fill="#bfbfbf" stroke="black" points="0.5,-19.5 0.5,-38.5 67.5,-38.5 67.5,-19.5 0.5,-19.5"/>
<text text-anchor="middle" x="34" y="-26.5" font-family="Helvetica,sans-Serif" font-size="10.00">processFile</text>
</g>
<!-- Node2 -->
<g id="node3" class="node"><title>Node2</title>
<a xlink:href="_bae_utilities_8cpp.html#a4b840ff4508efc100f495b30d09b0e41" target="_top" xlink:title="emptyString">
<polygon fill="white" stroke="black" points="104.5,-38.5 104.5,-57.5 173.5,-57.5 173.5,-38.5 104.5,-38.5"/>
<text text-anchor="middle" x="139" y="-45.5" font-family="Helvetica,sans-Serif" font-size="10.00">emptyString</text>
</a>
</g>
<!-- Node1&#45;&gt;Node2 -->
<g id="edge2" class="edge"><title>Node1&#45;&gt;Node2</title>
<path fill="none" stroke="midnightblue" d="M67.5898,-35.0117C76.0685,-36.5757 85.3412,-38.2862 94.2925,-39.9374"/>
<polygon fill="midnightblue" stroke="midnightblue" points="93.7336,-43.3933 104.203,-41.7655 95.0035,-36.5095 93.7336,-43.3933"/>
</g>
<!-- Node3 -->
<g id="node5" class="node"><title>Node3</title>
<a xlink:href="_bae_utilities_8cpp.html#a024b36a7dc07faa2b19105735347a390" target="_top" xlink:title="stripString">
<polygon fill="white" stroke="black" points="108.5,-0.5 108.5,-19.5 169.5,-19.5 169.5,-0.5 108.5,-0.5"/>
<text text-anchor="middle" x="139" y="-7.5" font-family="Helvetica,sans-Serif" font-size="10.00">stripString</text>
</a>
</g>
<!-- Node1&#45;&gt;Node3 -->
<g id="edge4" class="edge"><title>Node1&#45;&gt;Node3</title>
<path fill="none" stroke="midnightblue" d="M67.5898,-22.9883C77.4029,-21.1781 88.2796,-19.1717 98.4905,-17.2882"/>
<polygon fill="midnightblue" stroke="midnightblue" points="99.2162,-20.7134 108.415,-15.4574 97.9463,-13.8296 99.2162,-20.7134"/>
</g>
</g>
</svg>
