<?xml version="1.0" encoding="UTF-8" standalone="no"?>
<!DOCTYPE svg PUBLIC "-//W3C//DTD SVG 1.1//EN"
 "http://www.w3.org/Graphics/SVG/1.1/DTD/svg11.dtd">
<!-- Generated by graphviz version 2.28.0 (20110507.0327)
 -->
<!-- Title: wpilibC++/include/Utility.h Pages: 1 -->
<svg width="136pt" height="84pt"
 viewBox="0.00 0.00 136.00 84.00" xmlns="http://www.w3.org/2000/svg" xmlns:xlink="http://www.w3.org/1999/xlink">
<g id="graph1" class="graph" transform="scale(1 1) rotate(0) translate(4 80)">
<title>wpilibC++/include/Utility.h</title>
<polygon fill="white" stroke="white" points="-4,5 -4,-80 133,-80 133,5 -4,5"/>
<!-- Node1 -->
<g id="node1" class="node"><title>Node1</title>
<polygon fill="#bfbfbf" stroke="black" points="-0.5,-56.5 -0.5,-75.5 128.5,-75.5 128.5,-56.5 -0.5,-56.5"/>
<text text-anchor="middle" x="64" y="-63.5" font-family="Helvetica,sans-Serif" font-size="10.00">wpilibC++/include/Utility.h</text>
</g>
<!-- Node2 -->
<g id="node3" class="node"><title>Node2</title>
<polygon fill="white" stroke="#bfbfbf" points="8.5,-0.5 8.5,-19.5 57.5,-19.5 57.5,-0.5 8.5,-0.5"/>
<text text-anchor="middle" x="33" y="-7.5" font-family="Helvetica,sans-Serif" font-size="10.00">stdint.h</text>
</g>
<!-- Node1&#45;&gt;Node2 -->
<g id="edge2" class="edge"><title>Node1&#45;&gt;Node2</title>
<path fill="none" stroke="midnightblue" d="M58.881,-56.083C54.5925,-48.6127 48.3418,-37.7244 43.0577,-28.5199"/>
<polygon fill="midnightblue" stroke="midnightblue" points="46.0379,-26.6811 38.0238,-19.7511 39.9671,-30.1662 46.0379,-26.6811"/>
</g>
<!-- Node3 -->
<g id="node5" class="node"><title>Node3</title>
<polygon fill="white" stroke="#bfbfbf" points="75.5,-0.5 75.5,-19.5 116.5,-19.5 116.5,-0.5 75.5,-0.5"/>
<text text-anchor="middle" x="96" y="-7.5" font-family="Helvetica,sans-Serif" font-size="10.00">string</text>
</g>
<!-- Node1&#45;&gt;Node3 -->
<g id="edge4" class="edge"><title>Node1&#45;&gt;Node3</title>
<path fill="none" stroke="midnightblue" d="M69.2841,-56.083C73.711,-48.6127 80.1633,-37.7244 85.6179,-28.5199"/>
<polygon fill="midnightblue" stroke="midnightblue" points="88.7271,-30.1383 90.8142,-19.7511 82.7051,-26.5697 88.7271,-30.1383"/>
</g>
</g>
</svg>
