<?xml version="1.0" encoding="UTF-8" standalone="no"?>
<!DOCTYPE svg PUBLIC "-//W3C//DTD SVG 1.1//EN"
 "http://www.w3.org/Graphics/SVG/1.1/DTD/svg11.dtd">
<!-- Generated by graphviz version 2.28.0 (20110507.0327)
 -->
<!-- Title: GetFPGATime Pages: 1 -->
<svg width="934pt" height="717pt"
 viewBox="0.00 0.00 934.00 717.00" xmlns="http://www.w3.org/2000/svg" xmlns:xlink="http://www.w3.org/1999/xlink">
<g id="graph1" class="graph" transform="scale(1 1) rotate(0) translate(4 713)">
<title>GetFPGATime</title>
<polygon fill="white" stroke="white" points="-4,5 -4,-713 931,-713 931,5 -4,5"/>
<!-- Node1 -->
<g id="node1" class="node"><title>Node1</title>
<polygon fill="#bfbfbf" stroke="black" points="0,-184.5 0,-203.5 80,-203.5 80,-184.5 0,-184.5"/>
<text text-anchor="middle" x="40" y="-191.5" font-family="Helvetica,sans-Serif" font-size="10.00">GetFPGATime</text>
</g>
<!-- Node2 -->
<g id="node3" class="node"><title>Node2</title>
<a xlink:href="class_timer.html#a7fa6e6dffec055e5104ccd6bcadec9aa" target="_top" xlink:title="Timer::GetFPGATimestamp">
<polygon fill="white" stroke="black" points="116.5,-184.5 116.5,-203.5 253.5,-203.5 253.5,-184.5 116.5,-184.5"/>
<text text-anchor="middle" x="185" y="-191.5" font-family="Helvetica,sans-Serif" font-size="10.00">Timer::GetFPGATimestamp</text>
</a>
</g>
<!-- Node1&#45;&gt;Node2 -->
<g id="edge2" class="edge"><title>Node1&#45;&gt;Node2</title>
<path fill="none" stroke="midnightblue" d="M90.132,-194C98.5956,-194 107.524,-194 116.374,-194"/>
<polygon fill="midnightblue" stroke="midnightblue" points="90.0754,-190.5 80.0754,-194 90.0753,-197.5 90.0754,-190.5"/>
</g>
<!-- Node3 -->
<g id="node5" class="node"><title>Node3</title>
<a xlink:href="class_command.html#a9e73c88648f4bb0f4ea6a4affa72344d" target="_top" xlink:title="Command::TimeSinceInitialized">
<polygon fill="white" stroke="black" points="290.5,-515.5 290.5,-534.5 443.5,-534.5 443.5,-515.5 290.5,-515.5"/>
<text text-anchor="middle" x="367" y="-522.5" font-family="Helvetica,sans-Serif" font-size="10.00">Command::TimeSinceInitialized</text>
</a>
</g>
<!-- Node2&#45;&gt;Node3 -->
<g id="edge4" class="edge"><title>Node2&#45;&gt;Node3</title>
<path fill="none" stroke="midnightblue" d="M196.066,-212.51C229.471,-273.938 335.95,-469.742 360.786,-515.412"/>
<polygon fill="midnightblue" stroke="midnightblue" points="199.045,-210.662 191.193,-203.549 192.896,-214.006 199.045,-210.662"/>
</g>
<!-- Node7 -->
<g id="node13" class="node"><title>Node7</title>
<a xlink:href="class_motor_safety_helper.html#ad125be744ff4ee41557c3bfedcfc8d8f" target="_top" xlink:title="MotorSafetyHelper::\lMotorSafetyHelper">
<polygon fill="white" stroke="black" points="315.5,-314 315.5,-344 418.5,-344 418.5,-314 315.5,-314"/>
<text text-anchor="start" x="323.5" y="-332" font-family="Helvetica,sans-Serif" font-size="10.00">MotorSafetyHelper::</text>
<text text-anchor="middle" x="367" y="-321" font-family="Helvetica,sans-Serif" font-size="10.00">MotorSafetyHelper</text>
</a>
</g>
<!-- Node2&#45;&gt;Node7 -->
<g id="edge12" class="edge"><title>Node2&#45;&gt;Node7</title>
<path fill="none" stroke="midnightblue" d="M198.542,-212.061C216.257,-236.292 250.847,-279.146 290,-304 297.74,-308.913 306.54,-312.955 315.34,-316.247"/>
<polygon fill="midnightblue" stroke="midnightblue" points="201.27,-209.859 192.605,-203.763 195.577,-213.932 201.27,-209.859"/>
</g>
<!-- Node8 -->
<g id="node15" class="node"><title>Node8</title>
<a xlink:href="class_motor_safety_helper.html#a67b80e9817dc725e0678de5e8f0bb39e" target="_top" xlink:title="MotorSafetyHelper::Feed">
<polygon fill="white" stroke="black" points="304.5,-275.5 304.5,-294.5 429.5,-294.5 429.5,-275.5 304.5,-275.5"/>
<text text-anchor="middle" x="367" y="-282.5" font-family="Helvetica,sans-Serif" font-size="10.00">MotorSafetyHelper::Feed</text>
</a>
</g>
<!-- Node2&#45;&gt;Node8 -->
<g id="edge14" class="edge"><title>Node2&#45;&gt;Node8</title>
<path fill="none" stroke="midnightblue" d="M214.164,-208.238C251.209,-226.967 315.315,-259.376 347.061,-275.425"/>
<polygon fill="midnightblue" stroke="midnightblue" points="215.426,-204.955 204.923,-203.567 212.268,-211.202 215.426,-204.955"/>
</g>
<!-- Node33 -->
<g id="node65" class="node"><title>Node33</title>
<a xlink:href="class_motor_safety_helper.html#a3d4d90d4f7bc0d76445a55e5ea1d75e8" target="_top" xlink:title="MotorSafetyHelper::\lIsAlive">
<polygon fill="white" stroke="black" points="315.5,-204 315.5,-234 418.5,-234 418.5,-204 315.5,-204"/>
<text text-anchor="start" x="323.5" y="-222" font-family="Helvetica,sans-Serif" font-size="10.00">MotorSafetyHelper::</text>
<text text-anchor="middle" x="367" y="-211" font-family="Helvetica,sans-Serif" font-size="10.00">IsAlive</text>
</a>
</g>
<!-- Node2&#45;&gt;Node33 -->
<g id="edge64" class="edge"><title>Node2&#45;&gt;Node33</title>
<path fill="none" stroke="midnightblue" d="M263.716,-204.794C281.161,-207.217 299.233,-209.727 315.245,-211.951"/>
<polygon fill="midnightblue" stroke="midnightblue" points="263.924,-201.289 253.537,-203.38 262.961,-208.223 263.924,-201.289"/>
</g>
<!-- Node35 -->
<g id="node70" class="node"><title>Node35</title>
<a xlink:href="class_motor_safety_helper.html#a951390af947b507a299d1175b7e717cf" target="_top" xlink:title="MotorSafetyHelper::\lCheck">
<polygon fill="white" stroke="black" points="315.5,-155 315.5,-185 418.5,-185 418.5,-155 315.5,-155"/>
<text text-anchor="start" x="323.5" y="-173" font-family="Helvetica,sans-Serif" font-size="10.00">MotorSafetyHelper::</text>
<text text-anchor="middle" x="367" y="-162" font-family="Helvetica,sans-Serif" font-size="10.00">Check</text>
</a>
</g>
<!-- Node2&#45;&gt;Node35 -->
<g id="edge70" class="edge"><title>Node2&#45;&gt;Node35</title>
<path fill="none" stroke="midnightblue" d="M263.716,-183.638C281.161,-181.312 299.233,-178.902 315.245,-176.767"/>
<polygon fill="midnightblue" stroke="midnightblue" points="262.987,-180.204 253.537,-184.995 263.912,-187.143 262.987,-180.204"/>
</g>
<!-- Node36 -->
<g id="node72" class="node"><title>Node36</title>
<a xlink:href="class_timer.html#aadc180bcac64bc164f134d9c8076e1a3" target="_top" xlink:title="Timer::Get">
<polygon fill="white" stroke="black" points="336,-116.5 336,-135.5 398,-135.5 398,-116.5 336,-116.5"/>
<text text-anchor="middle" x="367" y="-123.5" font-family="Helvetica,sans-Serif" font-size="10.00">Timer::Get</text>
</a>
</g>
<!-- Node2&#45;&gt;Node36 -->
<g id="edge72" class="edge"><title>Node2&#45;&gt;Node36</title>
<path fill="none" stroke="midnightblue" d="M212.684,-179.652C233.338,-168.987 262.898,-154.668 290,-145 304.731,-139.745 321.564,-135.377 335.638,-132.16"/>
<polygon fill="midnightblue" stroke="midnightblue" points="210.825,-176.675 203.586,-184.411 214.07,-182.877 210.825,-176.675"/>
</g>
<!-- Node40 -->
<g id="node80" class="node"><title>Node40</title>
<a xlink:href="class_timer.html#ae7c0c1e7d12de4b8a6e7c64e451cdd2a" target="_top" xlink:title="Timer::Reset">
<polygon fill="white" stroke="black" points="331,-57.5 331,-76.5 403,-76.5 403,-57.5 331,-57.5"/>
<text text-anchor="middle" x="367" y="-64.5" font-family="Helvetica,sans-Serif" font-size="10.00">Timer::Reset</text>
</a>
</g>
<!-- Node2&#45;&gt;Node40 -->
<g id="edge80" class="edge"><title>Node2&#45;&gt;Node40</title>
<path fill="none" stroke="midnightblue" d="M203.448,-177.408C223.402,-158.921 257.519,-128.774 290,-107 307.711,-95.1276 329.349,-84.0378 345.001,-76.5608"/>
<polygon fill="midnightblue" stroke="midnightblue" points="200.958,-174.944 196.048,-184.332 205.741,-180.055 200.958,-174.944"/>
</g>
<!-- Node42 -->
<g id="node85" class="node"><title>Node42</title>
<a xlink:href="class_timer.html#a4e607b129b392c11adddd9641a320436" target="_top" xlink:title="Timer::Start">
<polygon fill="white" stroke="black" points="333,-0.5 333,-19.5 401,-19.5 401,-0.5 333,-0.5"/>
<text text-anchor="middle" x="367" y="-7.5" font-family="Helvetica,sans-Serif" font-size="10.00">Timer::Start</text>
</a>
</g>
<!-- Node2&#45;&gt;Node42 -->
<g id="edge86" class="edge"><title>Node2&#45;&gt;Node42</title>
<path fill="none" stroke="midnightblue" d="M195.447,-175.214C211.393,-145.058 246.236,-85.4452 290,-48 304.459,-35.6283 323.645,-26.0759 339.121,-19.643"/>
<polygon fill="midnightblue" stroke="midnightblue" points="192.265,-173.747 190.778,-184.237 198.482,-176.964 192.265,-173.747"/>
</g>
<!-- Node4 -->
<g id="node7" class="node"><title>Node4</title>
<a xlink:href="class_command.html#ad1283feb94bb07985eaafe1586ab2ff7" target="_top" xlink:title="Command::IsTimedOut">
<polygon fill="white" stroke="black" points="489,-645.5 489,-664.5 605,-664.5 605,-645.5 489,-645.5"/>
<text text-anchor="middle" x="547" y="-652.5" font-family="Helvetica,sans-Serif" font-size="10.00">Command::IsTimedOut</text>
</a>
</g>
<!-- Node3&#45;&gt;Node4 -->
<g id="edge6" class="edge"><title>Node3&#45;&gt;Node4</title>
<path fill="none" stroke="midnightblue" d="M389.251,-540.52C426.472,-567.704 502.398,-623.156 532.892,-645.427"/>
<polygon fill="midnightblue" stroke="midnightblue" points="391.229,-537.631 381.089,-534.559 387.1,-543.284 391.229,-537.631"/>
</g>
<!-- Node5 -->
<g id="node9" class="node"><title>Node5</title>
<a xlink:href="class_wait_command.html#a118c9fa181b03cd80969a1a2b16508a5" target="_top" xlink:title="WaitCommand::IsFinished">
<polygon fill="white" stroke="black" points="652.5,-689.5 652.5,-708.5 783.5,-708.5 783.5,-689.5 652.5,-689.5"/>
<text text-anchor="middle" x="718" y="-696.5" font-family="Helvetica,sans-Serif" font-size="10.00">WaitCommand::IsFinished</text>
</a>
</g>
<!-- Node4&#45;&gt;Node5 -->
<g id="edge8" class="edge"><title>Node4&#45;&gt;Node5</title>
<path fill="none" stroke="midnightblue" d="M594.685,-667.155C621.728,-674.195 655.281,-682.931 680.401,-689.471"/>
<polygon fill="midnightblue" stroke="midnightblue" points="595.23,-663.68 584.67,-664.547 593.466,-670.454 595.23,-663.68"/>
</g>
<!-- Node6 -->
<g id="node11" class="node"><title>Node6</title>
<a xlink:href="class_modified_mock_command.html#a52cc2a489224ec94d97145870ed3ef8c" target="_top" xlink:title="ModifiedMockCommand\l::IsFinished">
<polygon fill="white" stroke="black" points="657.5,-640 657.5,-670 778.5,-670 778.5,-640 657.5,-640"/>
<text text-anchor="start" x="665.5" y="-658" font-family="Helvetica,sans-Serif" font-size="10.00">ModifiedMockCommand</text>
<text text-anchor="middle" x="718" y="-647" font-family="Helvetica,sans-Serif" font-size="10.00">::IsFinished</text>
</a>
</g>
<!-- Node4&#45;&gt;Node6 -->
<g id="edge10" class="edge"><title>Node4&#45;&gt;Node6</title>
<path fill="none" stroke="midnightblue" d="M615.6,-655C629.373,-655 643.77,-655 657.246,-655"/>
<polygon fill="midnightblue" stroke="midnightblue" points="615.216,-651.5 605.216,-655 615.216,-658.5 615.216,-651.5"/>
</g>
<!-- Node9 -->
<g id="node17" class="node"><title>Node9</title>
<a xlink:href="class_c_a_n_jaguar.html#a3a22b02ece406993619f993b1e09012a" target="_top" xlink:title="CANJaguar::Set">
<polygon fill="white" stroke="black" points="504,-209.5 504,-228.5 590,-228.5 590,-209.5 504,-209.5"/>
<text text-anchor="middle" x="547" y="-216.5" font-family="Helvetica,sans-Serif" font-size="10.00">CANJaguar::Set</text>
</a>
</g>
<!-- Node8&#45;&gt;Node9 -->
<g id="edge16" class="edge"><title>Node8&#45;&gt;Node9</title>
<path fill="none" stroke="midnightblue" d="M398.054,-271.258C420.393,-261.322 451.761,-247.951 480,-238 489.559,-234.631 500.046,-231.405 509.792,-228.598"/>
<polygon fill="midnightblue" stroke="midnightblue" points="396.462,-268.136 388.769,-275.421 399.326,-274.524 396.462,-268.136"/>
</g>
<!-- Node12 -->
<g id="node23" class="node"><title>Node12</title>
<a xlink:href="class_c_a_n_talon.html#ac3549186d2e6fdeeaabbd1648f31e02c" target="_top" xlink:title="CANTalon::Set">
<polygon fill="white" stroke="black" points="506.5,-297.5 506.5,-316.5 587.5,-316.5 587.5,-297.5 506.5,-297.5"/>
<text text-anchor="middle" x="547" y="-304.5" font-family="Helvetica,sans-Serif" font-size="10.00">CANTalon::Set</text>
</a>
</g>
<!-- Node8&#45;&gt;Node12 -->
<g id="edge22" class="edge"><title>Node8&#45;&gt;Node12</title>
<path fill="none" stroke="midnightblue" d="M439.724,-293.865C462.452,-296.674 486.744,-299.676 506.359,-302.101"/>
<polygon fill="midnightblue" stroke="midnightblue" points="440.11,-290.386 429.756,-292.633 439.251,-297.333 440.11,-290.386"/>
</g>
<!-- Node14 -->
<g id="node27" class="node"><title>Node14</title>
<a xlink:href="class_robot_drive.html#a2e7fa1a9713332281012e8aae5d9570e" target="_top" xlink:title="RobotDrive::MecanumDrive\l_Cartesian">
<polygon fill="white" stroke="black" points="480.5,-248 480.5,-278 613.5,-278 613.5,-248 480.5,-248"/>
<text text-anchor="start" x="488.5" y="-266" font-family="Helvetica,sans-Serif" font-size="10.00">RobotDrive::MecanumDrive</text>
<text text-anchor="middle" x="547" y="-255" font-family="Helvetica,sans-Serif" font-size="10.00">_Cartesian</text>
</a>
</g>
<!-- Node8&#45;&gt;Node14 -->
<g id="edge26" class="edge"><title>Node8&#45;&gt;Node14</title>
<path fill="none" stroke="midnightblue" d="M439.877,-276.116C453.277,-274.46 467.215,-272.737 480.414,-271.106"/>
<polygon fill="midnightblue" stroke="midnightblue" points="439.251,-272.667 429.756,-277.367 440.11,-279.614 439.251,-272.667"/>
</g>
<!-- Node15 -->
<g id="node29" class="node"><title>Node15</title>
<a xlink:href="class_robot_drive.html#a3ba6d4ec2c07575543c4f47d348332f1" target="_top" xlink:title="RobotDrive::MecanumDrive\l_Polar">
<polygon fill="white" stroke="black" points="480.5,-564 480.5,-594 613.5,-594 613.5,-564 480.5,-564"/>
<text text-anchor="start" x="488.5" y="-582" font-family="Helvetica,sans-Serif" font-size="10.00">RobotDrive::MecanumDrive</text>
<text text-anchor="middle" x="547" y="-571" font-family="Helvetica,sans-Serif" font-size="10.00">_Polar</text>
</a>
</g>
<!-- Node8&#45;&gt;Node15 -->
<g id="edge28" class="edge"><title>Node8&#45;&gt;Node15</title>
<path fill="none" stroke="midnightblue" d="M438.221,-298.756C440.287,-300.333 442.225,-302.076 444,-304 510.288,-375.857 432.521,-435.541 480,-521 489.853,-538.735 507.282,-553.697 521.756,-563.981"/>
<polygon fill="midnightblue" stroke="midnightblue" points="440.03,-295.76 429.688,-293.46 436.338,-301.708 440.03,-295.76"/>
</g>
<!-- Node17 -->
<g id="node33" class="node"><title>Node17</title>
<a xlink:href="class_robot_drive.html#a6f17b92a6867d512188b497f192f0715" target="_top" xlink:title="RobotDrive::SetLeftRight\lMotorOutputs">
<polygon fill="white" stroke="black" points="486,-482 486,-512 608,-512 608,-482 486,-482"/>
<text text-anchor="start" x="494" y="-500" font-family="Helvetica,sans-Serif" font-size="10.00">RobotDrive::SetLeftRight</text>
<text text-anchor="middle" x="547" y="-489" font-family="Helvetica,sans-Serif" font-size="10.00">MotorOutputs</text>
</a>
</g>
<!-- Node8&#45;&gt;Node17 -->
<g id="edge32" class="edge"><title>Node8&#45;&gt;Node17</title>
<path fill="none" stroke="midnightblue" d="M436.666,-299.067C439.233,-300.552 441.692,-302.191 444,-304 451.867,-310.166 516.058,-437.28 538.382,-481.778"/>
<polygon fill="midnightblue" stroke="midnightblue" points="438.097,-295.87 427.58,-294.589 435.003,-302.149 438.097,-295.87"/>
</g>
<!-- Node22 -->
<g id="node43" class="node"><title>Node22</title>
<a xlink:href="class_safe_p_w_m.html#af1ed936d88f3ee6446b01c17feb24b78" target="_top" xlink:title="SafePWM::SetSpeed">
<polygon fill="white" stroke="black" points="492,-335.5 492,-354.5 602,-354.5 602,-335.5 492,-335.5"/>
<text text-anchor="middle" x="547" y="-342.5" font-family="Helvetica,sans-Serif" font-size="10.00">SafePWM::SetSpeed</text>
</a>
</g>
<!-- Node8&#45;&gt;Node22 -->
<g id="edge42" class="edge"><title>Node8&#45;&gt;Node22</title>
<path fill="none" stroke="midnightblue" d="M425.631,-297.425C431.921,-299.364 438.155,-301.551 444,-304 461.294,-311.246 462.836,-318.45 480,-326 488.295,-329.649 497.482,-332.806 506.299,-335.441"/>
<polygon fill="midnightblue" stroke="midnightblue" points="426.33,-293.984 415.752,-294.58 424.392,-300.711 426.33,-293.984"/>
</g>
<!-- Node10 -->
<g id="node19" class="node"><title>Node10</title>
<a xlink:href="class_c_a_n_jaguar.html#a2355d55f42083ab82870c79f742620e4" target="_top" xlink:title="CANJaguar::PIDWrite">
<polygon fill="white" stroke="black" points="663,-145.5 663,-164.5 773,-164.5 773,-145.5 663,-145.5"/>
<text text-anchor="middle" x="718" y="-152.5" font-family="Helvetica,sans-Serif" font-size="10.00">CANJaguar::PIDWrite</text>
</a>
</g>
<!-- Node9&#45;&gt;Node10 -->
<g id="edge18" class="edge"><title>Node9&#45;&gt;Node10</title>
<path fill="none" stroke="midnightblue" d="M599.159,-206.198C604.266,-204.352 609.296,-202.289 614,-200 631.747,-191.364 632.236,-182.601 650,-174 657.726,-170.259 666.321,-167.132 674.707,-164.565"/>
<polygon fill="midnightblue" stroke="midnightblue" points="597.688,-202.999 589.311,-209.485 599.904,-209.639 597.688,-202.999"/>
</g>
<!-- Node11 -->
<g id="node21" class="node"><title>Node11</title>
<a xlink:href="class_c_a_n_jaguar_test.html#a3c9026e62eb65e2d497bb7bbfaded297" target="_top" xlink:title="CANJaguarTest::SetJaguar">
<polygon fill="white" stroke="black" points="651,-183.5 651,-202.5 785,-202.5 785,-183.5 651,-183.5"/>
<text text-anchor="middle" x="718" y="-190.5" font-family="Helvetica,sans-Serif" font-size="10.00">CANJaguarTest::SetJaguar</text>
</a>
</g>
<!-- Node9&#45;&gt;Node11 -->
<g id="edge20" class="edge"><title>Node9&#45;&gt;Node11</title>
<path fill="none" stroke="midnightblue" d="M600.186,-210.971C617.6,-208.292 637.17,-205.282 655.241,-202.501"/>
<polygon fill="midnightblue" stroke="midnightblue" points="599.561,-207.526 590.21,-212.506 600.626,-214.445 599.561,-207.526"/>
</g>
<!-- Node13 -->
<g id="node25" class="node"><title>Node13</title>
<a xlink:href="class_c_a_n_talon.html#a3e09bf792ecee332f4302c164a080c04" target="_top" xlink:title="CANTalon::PIDWrite">
<polygon fill="white" stroke="black" points="665.5,-221.5 665.5,-240.5 770.5,-240.5 770.5,-221.5 665.5,-221.5"/>
<text text-anchor="middle" x="718" y="-228.5" font-family="Helvetica,sans-Serif" font-size="10.00">CANTalon::PIDWrite</text>
</a>
</g>
<!-- Node12&#45;&gt;Node13 -->
<g id="edge24" class="edge"><title>Node12&#45;&gt;Node13</title>
<path fill="none" stroke="midnightblue" d="M597.507,-295.032C603.259,-292.768 608.889,-290.11 614,-287 633.6,-275.073 630.294,-261.751 650,-250 656.438,-246.161 663.688,-243.067 670.978,-240.582"/>
<polygon fill="midnightblue" stroke="midnightblue" points="596.037,-291.839 587.782,-298.48 598.376,-298.437 596.037,-291.839"/>
</g>
<!-- Node16 -->
<g id="node31" class="node"><title>Node16</title>
<a xlink:href="class_robot_drive.html#ad21b09eed120e95f1b5741a26f2f9084" target="_top" xlink:title="RobotDrive::HolonomicDrive">
<polygon fill="white" stroke="black" points="650,-601.5 650,-620.5 786,-620.5 786,-601.5 650,-601.5"/>
<text text-anchor="middle" x="718" y="-608.5" font-family="Helvetica,sans-Serif" font-size="10.00">RobotDrive::HolonomicDrive</text>
</a>
</g>
<!-- Node15&#45;&gt;Node16 -->
<g id="edge30" class="edge"><title>Node15&#45;&gt;Node16</title>
<path fill="none" stroke="midnightblue" d="M623.828,-593.358C638.389,-596.115 653.297,-598.938 666.798,-601.494"/>
<polygon fill="midnightblue" stroke="midnightblue" points="624.3,-589.885 613.824,-591.464 622.998,-596.763 624.3,-589.885"/>
</g>
<!-- Node18 -->
<g id="node35" class="node"><title>Node18</title>
<a xlink:href="class_robot_drive.html#aae039ef574600e668f8bc03ef47f37a4" target="_top" xlink:title="RobotDrive::RobotDrive">
<polygon fill="white" stroke="black" points="660,-563.5 660,-582.5 776,-582.5 776,-563.5 660,-563.5"/>
<text text-anchor="middle" x="718" y="-570.5" font-family="Helvetica,sans-Serif" font-size="10.00">RobotDrive::RobotDrive</text>
</a>
</g>
<!-- Node17&#45;&gt;Node18 -->
<g id="edge34" class="edge"><title>Node17&#45;&gt;Node18</title>
<path fill="none" stroke="midnightblue" d="M580.065,-517.472C599.685,-529.343 625.624,-543.896 650,-554 658.712,-557.611 668.335,-560.786 677.505,-563.454"/>
<polygon fill="midnightblue" stroke="midnightblue" points="581.877,-514.478 571.523,-512.232 578.217,-520.444 581.877,-514.478"/>
</g>
<!-- Node19 -->
<g id="node37" class="node"><title>Node19</title>
<a xlink:href="class_robot_drive.html#a00f3c6f7906685fe2f98ceaa8bb7e188" target="_top" xlink:title="RobotDrive::Drive">
<polygon fill="white" stroke="black" points="673,-525.5 673,-544.5 763,-544.5 763,-525.5 673,-525.5"/>
<text text-anchor="middle" x="718" y="-532.5" font-family="Helvetica,sans-Serif" font-size="10.00">RobotDrive::Drive</text>
</a>
</g>
<!-- Node17&#45;&gt;Node19 -->
<g id="edge36" class="edge"><title>Node17&#45;&gt;Node19</title>
<path fill="none" stroke="midnightblue" d="M617.999,-512.739C637.228,-517.063 657.491,-521.619 674.64,-525.475"/>
<polygon fill="midnightblue" stroke="midnightblue" points="618.583,-509.283 608.059,-510.504 617.047,-516.113 618.583,-509.283"/>
</g>
<!-- Node20 -->
<g id="node39" class="node"><title>Node20</title>
<a xlink:href="class_robot_drive.html#a3df206fa45bf88254e7cd75adca4e973" target="_top" xlink:title="RobotDrive::TankDrive">
<polygon fill="white" stroke="black" points="662.5,-487.5 662.5,-506.5 773.5,-506.5 773.5,-487.5 662.5,-487.5"/>
<text text-anchor="middle" x="718" y="-494.5" font-family="Helvetica,sans-Serif" font-size="10.00">RobotDrive::TankDrive</text>
</a>
</g>
<!-- Node17&#45;&gt;Node20 -->
<g id="edge38" class="edge"><title>Node17&#45;&gt;Node20</title>
<path fill="none" stroke="midnightblue" d="M618.181,-497C632.975,-497 648.372,-497 662.486,-497"/>
<polygon fill="midnightblue" stroke="midnightblue" points="618.059,-493.5 608.059,-497 618.059,-500.5 618.059,-493.5"/>
</g>
<!-- Node21 -->
<g id="node41" class="node"><title>Node21</title>
<a xlink:href="class_robot_drive.html#ac95118d7b535c4f3fb3d56ba5b041e40" target="_top" xlink:title="RobotDrive::ArcadeDrive">
<polygon fill="white" stroke="black" points="657.5,-449.5 657.5,-468.5 778.5,-468.5 778.5,-449.5 657.5,-449.5"/>
<text text-anchor="middle" x="718" y="-456.5" font-family="Helvetica,sans-Serif" font-size="10.00">RobotDrive::ArcadeDrive</text>
</a>
</g>
<!-- Node17&#45;&gt;Node21 -->
<g id="edge40" class="edge"><title>Node17&#45;&gt;Node21</title>
<path fill="none" stroke="midnightblue" d="M617.999,-481.261C637.228,-476.937 657.491,-472.381 674.64,-468.525"/>
<polygon fill="midnightblue" stroke="midnightblue" points="617.047,-477.887 608.059,-483.496 618.583,-484.717 617.047,-477.887"/>
</g>
<!-- Node23 -->
<g id="node45" class="node"><title>Node23</title>
<a xlink:href="class_jaguar.html#aac394eb2d4f46b29b477a7939cdec2a9" target="_top" xlink:title="Jaguar::Set">
<polygon fill="white" stroke="black" points="685,-373.5 685,-392.5 751,-392.5 751,-373.5 685,-373.5"/>
<text text-anchor="middle" x="718" y="-380.5" font-family="Helvetica,sans-Serif" font-size="10.00">Jaguar::Set</text>
</a>
</g>
<!-- Node22&#45;&gt;Node23 -->
<g id="edge44" class="edge"><title>Node22&#45;&gt;Node23</title>
<path fill="none" stroke="midnightblue" d="M600.534,-356.812C628.098,-363.01 660.985,-370.405 684.771,-375.753"/>
<polygon fill="midnightblue" stroke="midnightblue" points="601.17,-353.368 590.646,-354.589 599.634,-360.198 601.17,-353.368"/>
</g>
<!-- Node25 -->
<g id="node49" class="node"><title>Node25</title>
<a xlink:href="class_talon.html#a139bb330021efa545fd6047fa291dbeb" target="_top" xlink:title="Talon::Set">
<polygon fill="white" stroke="black" points="687.5,-335.5 687.5,-354.5 748.5,-354.5 748.5,-335.5 687.5,-335.5"/>
<text text-anchor="middle" x="718" y="-342.5" font-family="Helvetica,sans-Serif" font-size="10.00">Talon::Set</text>
</a>
</g>
<!-- Node22&#45;&gt;Node25 -->
<g id="edge48" class="edge"><title>Node22&#45;&gt;Node25</title>
<path fill="none" stroke="midnightblue" d="M612.496,-345C638.25,-345 666.635,-345 687.315,-345"/>
<polygon fill="midnightblue" stroke="midnightblue" points="612.403,-341.5 602.403,-345 612.403,-348.5 612.403,-341.5"/>
</g>
<!-- Node27 -->
<g id="node53" class="node"><title>Node27</title>
<a xlink:href="class_talon_s_r_x.html#a9d7dab854708bf4deb2d57da2cbcf9a9" target="_top" xlink:title="TalonSRX::Set">
<polygon fill="white" stroke="black" points="678,-297.5 678,-316.5 758,-316.5 758,-297.5 678,-297.5"/>
<text text-anchor="middle" x="718" y="-304.5" font-family="Helvetica,sans-Serif" font-size="10.00">TalonSRX::Set</text>
</a>
</g>
<!-- Node22&#45;&gt;Node27 -->
<g id="edge52" class="edge"><title>Node22&#45;&gt;Node27</title>
<path fill="none" stroke="midnightblue" d="M600.682,-333.154C625.626,-327.546 654.902,-320.963 677.843,-315.805"/>
<polygon fill="midnightblue" stroke="midnightblue" points="599.634,-329.802 590.646,-335.411 601.17,-336.632 599.634,-329.802"/>
</g>
<!-- Node29 -->
<g id="node57" class="node"><title>Node29</title>
<a xlink:href="class_victor.html#aeb1931d5462dcce004ba9bb5079b501a" target="_top" xlink:title="Victor::Set">
<polygon fill="white" stroke="black" points="686.5,-259.5 686.5,-278.5 749.5,-278.5 749.5,-259.5 686.5,-259.5"/>
<text text-anchor="middle" x="718" y="-266.5" font-family="Helvetica,sans-Serif" font-size="10.00">Victor::Set</text>
</a>
</g>
<!-- Node22&#45;&gt;Node29 -->
<g id="edge56" class="edge"><title>Node22&#45;&gt;Node29</title>
<path fill="none" stroke="midnightblue" d="M602.706,-331.798C606.637,-330.085 610.447,-328.161 614,-326 633.878,-313.912 630.098,-300.048 650,-288 660.964,-281.363 674.335,-276.965 686.24,-274.089"/>
<polygon fill="midnightblue" stroke="midnightblue" points="601.433,-328.538 593.379,-335.421 603.968,-335.063 601.433,-328.538"/>
</g>
<!-- Node31 -->
<g id="node61" class="node"><title>Node31</title>
<a xlink:href="class_victor_s_p.html#a5a776c3577f261f2679f77f5212e9d9c" target="_top" xlink:title="VictorSP::Set">
<polygon fill="white" stroke="black" points="679.5,-411.5 679.5,-430.5 756.5,-430.5 756.5,-411.5 679.5,-411.5"/>
<text text-anchor="middle" x="718" y="-418.5" font-family="Helvetica,sans-Serif" font-size="10.00">VictorSP::Set</text>
</a>
</g>
<!-- Node22&#45;&gt;Node31 -->
<g id="edge60" class="edge"><title>Node22&#45;&gt;Node31</title>
<path fill="none" stroke="midnightblue" d="M571.165,-360.009C591.344,-372.573 621.724,-390.279 650,-402 659.27,-405.843 669.572,-409.191 679.263,-411.961"/>
<polygon fill="midnightblue" stroke="midnightblue" points="572.98,-357.015 562.655,-354.638 569.244,-362.935 572.98,-357.015"/>
</g>
<!-- Node24 -->
<g id="node47" class="node"><title>Node24</title>
<a xlink:href="class_jaguar.html#af03d1c5b19cae7363d9eafdcb9ec354e" target="_top" xlink:title="Jaguar::PIDWrite">
<polygon fill="white" stroke="black" points="829,-373.5 829,-392.5 919,-392.5 919,-373.5 829,-373.5"/>
<text text-anchor="middle" x="874" y="-380.5" font-family="Helvetica,sans-Serif" font-size="10.00">Jaguar::PIDWrite</text>
</a>
</g>
<!-- Node23&#45;&gt;Node24 -->
<g id="edge46" class="edge"><title>Node23&#45;&gt;Node24</title>
<path fill="none" stroke="midnightblue" d="M761.483,-383C782.411,-383 807.628,-383 828.785,-383"/>
<polygon fill="midnightblue" stroke="midnightblue" points="761.283,-379.5 751.283,-383 761.283,-386.5 761.283,-379.5"/>
</g>
<!-- Node26 -->
<g id="node51" class="node"><title>Node26</title>
<a xlink:href="class_talon.html#a8485adbd32b68543d34bb7b2ad4d3ccb" target="_top" xlink:title="Talon::PIDWrite">
<polygon fill="white" stroke="black" points="831.5,-335.5 831.5,-354.5 916.5,-354.5 916.5,-335.5 831.5,-335.5"/>
<text text-anchor="middle" x="874" y="-342.5" font-family="Helvetica,sans-Serif" font-size="10.00">Talon::PIDWrite</text>
</a>
</g>
<!-- Node25&#45;&gt;Node26 -->
<g id="edge50" class="edge"><title>Node25&#45;&gt;Node26</title>
<path fill="none" stroke="midnightblue" d="M758.833,-345C781.13,-345 808.898,-345 831.465,-345"/>
<polygon fill="midnightblue" stroke="midnightblue" points="758.693,-341.5 748.693,-345 758.693,-348.5 758.693,-341.5"/>
</g>
<!-- Node28 -->
<g id="node55" class="node"><title>Node28</title>
<a xlink:href="class_talon_s_r_x.html#acd94bb75b221f4a0c09437731c574869" target="_top" xlink:title="TalonSRX::PIDWrite">
<polygon fill="white" stroke="black" points="822,-297.5 822,-316.5 926,-316.5 926,-297.5 822,-297.5"/>
<text text-anchor="middle" x="874" y="-304.5" font-family="Helvetica,sans-Serif" font-size="10.00">TalonSRX::PIDWrite</text>
</a>
</g>
<!-- Node27&#45;&gt;Node28 -->
<g id="edge54" class="edge"><title>Node27&#45;&gt;Node28</title>
<path fill="none" stroke="midnightblue" d="M768.568,-307C785.611,-307 804.716,-307 821.88,-307"/>
<polygon fill="midnightblue" stroke="midnightblue" points="768.259,-303.5 758.259,-307 768.259,-310.5 768.259,-303.5"/>
</g>
<!-- Node30 -->
<g id="node59" class="node"><title>Node30</title>
<a xlink:href="class_victor.html#a9b0d32b9299b6525d6450ff88c3365a7" target="_top" xlink:title="Victor::PIDWrite">
<polygon fill="white" stroke="black" points="830.5,-259.5 830.5,-278.5 917.5,-278.5 917.5,-259.5 830.5,-259.5"/>
<text text-anchor="middle" x="874" y="-266.5" font-family="Helvetica,sans-Serif" font-size="10.00">Victor::PIDWrite</text>
</a>
</g>
<!-- Node29&#45;&gt;Node30 -->
<g id="edge58" class="edge"><title>Node29&#45;&gt;Node30</title>
<path fill="none" stroke="midnightblue" d="M760.013,-269C781.719,-269 808.349,-269 830.303,-269"/>
<polygon fill="midnightblue" stroke="midnightblue" points="759.794,-265.5 749.794,-269 759.794,-272.5 759.794,-265.5"/>
</g>
<!-- Node32 -->
<g id="node63" class="node"><title>Node32</title>
<a xlink:href="class_victor_s_p.html#a9178b159144029faea02ae32f024ba84" target="_top" xlink:title="VictorSP::PIDWrite">
<polygon fill="white" stroke="black" points="823.5,-411.5 823.5,-430.5 924.5,-430.5 924.5,-411.5 823.5,-411.5"/>
<text text-anchor="middle" x="874" y="-418.5" font-family="Helvetica,sans-Serif" font-size="10.00">VictorSP::PIDWrite</text>
</a>
</g>
<!-- Node31&#45;&gt;Node32 -->
<g id="edge62" class="edge"><title>Node31&#45;&gt;Node32</title>
<path fill="none" stroke="midnightblue" d="M766.685,-421C784.726,-421 805.292,-421 823.497,-421"/>
<polygon fill="midnightblue" stroke="midnightblue" points="766.673,-417.5 756.673,-421 766.673,-424.5 766.673,-417.5"/>
</g>
<!-- Node33&#45;&gt;Node9 -->
<g id="edge66" class="edge"><title>Node33&#45;&gt;Node9</title>
<path fill="none" stroke="midnightblue" d="M428.547,-219C453.286,-219 481.303,-219 503.767,-219"/>
<polygon fill="midnightblue" stroke="midnightblue" points="428.532,-215.5 418.532,-219 428.531,-222.5 428.532,-215.5"/>
</g>
<!-- Node34 -->
<g id="node68" class="node"><title>Node34</title>
<a xlink:href="class_safe_p_w_m.html#aebfc9f69eff62ed8180c2991b25ad043" target="_top" xlink:title="SafePWM::IsAlive">
<polygon fill="white" stroke="black" points="499.5,-171.5 499.5,-190.5 594.5,-190.5 594.5,-171.5 499.5,-171.5"/>
<text text-anchor="middle" x="547" y="-178.5" font-family="Helvetica,sans-Serif" font-size="10.00">SafePWM::IsAlive</text>
</a>
</g>
<!-- Node33&#45;&gt;Node34 -->
<g id="edge68" class="edge"><title>Node33&#45;&gt;Node34</title>
<path fill="none" stroke="midnightblue" d="M428.555,-206.073C452.432,-200.975 479.362,-195.226 501.406,-190.52"/>
<polygon fill="midnightblue" stroke="midnightblue" points="427.58,-202.702 418.532,-208.212 429.042,-209.547 427.58,-202.702"/>
</g>
<!-- Node37 -->
<g id="node74" class="node"><title>Node37</title>
<a xlink:href="class_timer.html#a6379e797f968aaee6ac3bb12dc6b81c5" target="_top" xlink:title="Timer::Stop">
<polygon fill="white" stroke="black" points="513.5,-95.5 513.5,-114.5 580.5,-114.5 580.5,-95.5 513.5,-95.5"/>
<text text-anchor="middle" x="547" y="-102.5" font-family="Helvetica,sans-Serif" font-size="10.00">Timer::Stop</text>
</a>
</g>
<!-- Node36&#45;&gt;Node37 -->
<g id="edge74" class="edge"><title>Node36&#45;&gt;Node37</title>
<path fill="none" stroke="midnightblue" d="M408.455,-121.227C440.157,-117.487 483.699,-112.35 513.239,-108.865"/>
<polygon fill="midnightblue" stroke="midnightblue" points="407.716,-117.79 398.195,-122.438 408.537,-124.742 407.716,-117.79"/>
</g>
<!-- Node39 -->
<g id="node78" class="node"><title>Node39</title>
<a xlink:href="class_timer.html#a044e56cf40905d2f5037745e44cc3881" target="_top" xlink:title="Timer::HasPeriodPassed">
<polygon fill="white" stroke="black" points="484.5,-133.5 484.5,-152.5 609.5,-152.5 609.5,-133.5 484.5,-133.5"/>
<text text-anchor="middle" x="547" y="-140.5" font-family="Helvetica,sans-Serif" font-size="10.00">Timer::HasPeriodPassed</text>
</a>
</g>
<!-- Node36&#45;&gt;Node39 -->
<g id="edge78" class="edge"><title>Node36&#45;&gt;Node39</title>
<path fill="none" stroke="midnightblue" d="M408.356,-129.854C430.759,-131.994 459.098,-134.7 484.23,-137.101"/>
<polygon fill="midnightblue" stroke="midnightblue" points="408.483,-126.35 398.195,-128.884 407.817,-133.319 408.483,-126.35"/>
</g>
<!-- Node38 -->
<g id="node76" class="node"><title>Node38</title>
<a xlink:href="class_iterative_robot.html#a1e49eb27408751ea8ce757bfe38717e2" target="_top" xlink:title="IterativeRobot::SetPeriod">
<polygon fill="white" stroke="black" points="656,-19.5 656,-38.5 780,-38.5 780,-19.5 656,-19.5"/>
<text text-anchor="middle" x="718" y="-26.5" font-family="Helvetica,sans-Serif" font-size="10.00">IterativeRobot::SetPeriod</text>
</a>
</g>
<!-- Node37&#45;&gt;Node38 -->
<g id="edge76" class="edge"><title>Node37&#45;&gt;Node38</title>
<path fill="none" stroke="midnightblue" d="M590.56,-94.2781C598.462,-91.8587 606.565,-89.0813 614,-86 646.852,-72.3856 682.629,-50.9457 702.178,-38.6076"/>
<polygon fill="midnightblue" stroke="midnightblue" points="589.345,-90.9868 580.725,-97.1473 591.305,-97.7067 589.345,-90.9868"/>
</g>
<!-- Node40&#45;&gt;Node38 -->
<g id="edge82" class="edge"><title>Node40&#45;&gt;Node38</title>
<path fill="none" stroke="midnightblue" d="M413.14,-58.4108C433.505,-54.7763 457.9,-50.7549 480,-48 539.598,-40.5705 608.008,-35.4486 655.962,-32.4113"/>
<polygon fill="midnightblue" stroke="midnightblue" points="412.409,-54.9861 403.193,-60.2119 413.656,-61.8741 412.409,-54.9861"/>
</g>
<!-- Node41 -->
<g id="node83" class="node"><title>Node41</title>
<a xlink:href="class_timer.html#a5f16e8da27d2a5a5242dead46de05d97" target="_top" xlink:title="Timer::Timer">
<polygon fill="white" stroke="black" points="511.5,-57.5 511.5,-76.5 582.5,-76.5 582.5,-57.5 511.5,-57.5"/>
<text text-anchor="middle" x="547" y="-64.5" font-family="Helvetica,sans-Serif" font-size="10.00">Timer::Timer</text>
</a>
</g>
<!-- Node40&#45;&gt;Node41 -->
<g id="edge84" class="edge"><title>Node40&#45;&gt;Node41</title>
<path fill="none" stroke="midnightblue" d="M413.514,-67C443.921,-67 483.307,-67 511.209,-67"/>
<polygon fill="midnightblue" stroke="midnightblue" points="413.167,-63.5001 403.167,-67 413.167,-70.5001 413.167,-63.5001"/>
</g>
<!-- Node42&#45;&gt;Node38 -->
<g id="edge88" class="edge"><title>Node42&#45;&gt;Node38</title>
<path fill="none" stroke="midnightblue" d="M411.358,-9.38021C460.56,-9.02542 543.177,-9.48533 614,-15 627.584,-16.0577 642.114,-17.7092 655.851,-19.5123"/>
<polygon fill="midnightblue" stroke="midnightblue" points="411.054,-5.88263 401.084,-9.46979 411.115,-12.8824 411.054,-5.88263"/>
</g>
</g>
</svg>
