<?xml version="1.0" encoding="UTF-8" standalone="no"?>
<!DOCTYPE svg PUBLIC "-//W3C//DTD SVG 1.1//EN"
 "http://www.w3.org/Graphics/SVG/1.1/DTD/svg11.dtd">
<!-- Generated by graphviz version 2.28.0 (20110507.0327)
 -->
<!-- Title: wpilibC++Devices/src/Vision/VisionAPI.cpp Pages: 1 -->
<svg width="472pt" height="208pt"
 viewBox="0.00 0.00 472.00 208.00" xmlns="http://www.w3.org/2000/svg" xmlns:xlink="http://www.w3.org/1999/xlink">
<g id="graph1" class="graph" transform="scale(1 1) rotate(0) translate(4 204)">
<title>wpilibC++Devices/src/Vision/VisionAPI.cpp</title>
<polygon fill="white" stroke="white" points="-4,5 -4,-204 469,-204 469,5 -4,5"/>
<!-- Node1 -->
<g id="node1" class="node"><title>Node1</title>
<polygon fill="#bfbfbf" stroke="black" points="132.5,-169 132.5,-199 243.5,-199 243.5,-169 132.5,-169"/>
<text text-anchor="start" x="140.5" y="-187" font-family="Helvetica,sans-Serif" font-size="10.00">wpilibC++Devices/src</text>
<text text-anchor="middle" x="188" y="-176" font-family="Helvetica,sans-Serif" font-size="10.00">/Vision/VisionAPI.cpp</text>
</g>
<!-- Node2 -->
<g id="node3" class="node"><title>Node2</title>
<polygon fill="white" stroke="#bfbfbf" points="0,-112.5 0,-131.5 48,-131.5 48,-112.5 0,-112.5"/>
<text text-anchor="middle" x="24" y="-119.5" font-family="Helvetica,sans-Serif" font-size="10.00">stdlib.h</text>
</g>
<!-- Node1&#45;&gt;Node2 -->
<g id="edge2" class="edge"><title>Node1&#45;&gt;Node2</title>
<path fill="none" stroke="midnightblue" d="M149.549,-168.933C121.51,-158.674 83.9005,-144.915 57.1743,-135.137"/>
<polygon fill="midnightblue" stroke="midnightblue" points="58.1005,-131.749 47.5067,-131.6 55.6954,-138.323 58.1005,-131.749"/>
</g>
<!-- Node3 -->
<g id="node5" class="node"><title>Node3</title>
<polygon fill="white" stroke="#bfbfbf" points="66,-112.5 66,-131.5 118,-131.5 118,-112.5 66,-112.5"/>
<text text-anchor="middle" x="92" y="-119.5" font-family="Helvetica,sans-Serif" font-size="10.00">stdarg.h</text>
</g>
<!-- Node1&#45;&gt;Node3 -->
<g id="edge4" class="edge"><title>Node1&#45;&gt;Node3</title>
<path fill="none" stroke="midnightblue" d="M165.249,-168.781C149.913,-159.196 129.77,-146.606 114.489,-137.056"/>
<polygon fill="midnightblue" stroke="midnightblue" points="116.024,-133.888 105.689,-131.556 112.314,-139.824 116.024,-133.888"/>
</g>
<!-- Node4 -->
<g id="node7" class="node"><title>Node4</title>
<a xlink:href="_bae_utilities_8h_source.html" target="_top" xlink:title="Vision/BaeUtilities.h">
<polygon fill="white" stroke="black" points="136,-112.5 136,-131.5 240,-131.5 240,-112.5 136,-112.5"/>
<text text-anchor="middle" x="188" y="-119.5" font-family="Helvetica,sans-Serif" font-size="10.00">Vision/BaeUtilities.h</text>
</a>
</g>
<!-- Node1&#45;&gt;Node4 -->
<g id="edge6" class="edge"><title>Node1&#45;&gt;Node4</title>
<path fill="none" stroke="midnightblue" d="M188,-168.781C188,-160.781 188,-150.689 188,-142.017"/>
<polygon fill="midnightblue" stroke="midnightblue" points="191.5,-141.73 188,-131.731 184.5,-141.731 191.5,-141.73"/>
</g>
<!-- Node5 -->
<g id="node9" class="node"><title>Node5</title>
<a xlink:href="_frc_error_8h_source.html" target="_top" xlink:title="Vision/FrcError.h">
<polygon fill="white" stroke="black" points="258,-112.5 258,-131.5 348,-131.5 348,-112.5 258,-112.5"/>
<text text-anchor="middle" x="303" y="-119.5" font-family="Helvetica,sans-Serif" font-size="10.00">Vision/FrcError.h</text>
</a>
</g>
<!-- Node1&#45;&gt;Node5 -->
<g id="edge8" class="edge"><title>Node1&#45;&gt;Node5</title>
<path fill="none" stroke="midnightblue" d="M214.962,-168.933C233.845,-159.081 258.916,-146 277.473,-136.318"/>
<polygon fill="midnightblue" stroke="midnightblue" points="279.27,-139.329 286.517,-131.6 276.032,-133.123 279.27,-139.329"/>
</g>
<!-- Node6 -->
<g id="node11" class="node"><title>Node6</title>
<a xlink:href="_vision_a_p_i_8h_source.html" target="_top" xlink:title="Vision/VisionAPI.h">
<polygon fill="white" stroke="black" points="366,-112.5 366,-131.5 464,-131.5 464,-112.5 366,-112.5"/>
<text text-anchor="middle" x="415" y="-119.5" font-family="Helvetica,sans-Serif" font-size="10.00">Vision/VisionAPI.h</text>
</a>
</g>
<!-- Node1&#45;&gt;Node6 -->
<g id="edge10" class="edge"><title>Node1&#45;&gt;Node6</title>
<path fill="none" stroke="midnightblue" d="M241.221,-168.933C281.348,-158.326 335.636,-143.977 372.794,-134.156"/>
<polygon fill="midnightblue" stroke="midnightblue" points="374.02,-137.452 382.794,-131.513 372.231,-130.684 374.02,-137.452"/>
</g>
<!-- Node7 -->
<g id="node13" class="node"><title>Node7</title>
<a xlink:href="nivision_8h_source.html" target="_top" xlink:title="nivision.h">
<polygon fill="white" stroke="black" points="387,-56.5 387,-75.5 443,-75.5 443,-56.5 387,-56.5"/>
<text text-anchor="middle" x="415" y="-63.5" font-family="Helvetica,sans-Serif" font-size="10.00">nivision.h</text>
</a>
</g>
<!-- Node6&#45;&gt;Node7 -->
<g id="edge12" class="edge"><title>Node6&#45;&gt;Node7</title>
<path fill="none" stroke="midnightblue" d="M415,-112.083C415,-105.006 415,-94.8611 415,-85.9865"/>
<polygon fill="midnightblue" stroke="midnightblue" points="418.5,-85.751 415,-75.7511 411.5,-85.7511 418.5,-85.751"/>
</g>
<!-- Node8 -->
<g id="node15" class="node"><title>Node8</title>
<polygon fill="white" stroke="#bfbfbf" points="389.5,-0.5 389.5,-19.5 440.5,-19.5 440.5,-0.5 389.5,-0.5"/>
<text text-anchor="middle" x="415" y="-7.5" font-family="Helvetica,sans-Serif" font-size="10.00">stddef.h</text>
</g>
<!-- Node7&#45;&gt;Node8 -->
<g id="edge14" class="edge"><title>Node7&#45;&gt;Node8</title>
<path fill="none" stroke="midnightblue" d="M415,-56.083C415,-49.0059 415,-38.8611 415,-29.9865"/>
<polygon fill="midnightblue" stroke="midnightblue" points="418.5,-29.751 415,-19.7511 411.5,-29.7511 418.5,-29.751"/>
</g>
</g>
</svg>
