<?xml version="1.0" encoding="UTF-8" standalone="no"?>
<!DOCTYPE svg PUBLIC "-//W3C//DTD SVG 1.1//EN"
 "http://www.w3.org/Graphics/SVG/1.1/DTD/svg11.dtd">
<!-- Generated by graphviz version 2.28.0 (20110507.0327)
 -->
<!-- Title: LiveWindow::SetEnabled Pages: 1 -->
<svg width="322pt" height="66pt"
 viewBox="0.00 0.00 322.00 66.00" xmlns="http://www.w3.org/2000/svg" xmlns:xlink="http://www.w3.org/1999/xlink">
<g id="graph1" class="graph" transform="scale(1 1) rotate(0) translate(4 62)">
<title>LiveWindow::SetEnabled</title>
<polygon fill="white" stroke="white" points="-4,5 -4,-62 319,-62 319,5 -4,5"/>
<!-- Node1 -->
<g id="node1" class="node"><title>Node1</title>
<polygon fill="#bfbfbf" stroke="black" points="0,-19.5 0,-38.5 124,-38.5 124,-19.5 0,-19.5"/>
<text text-anchor="middle" x="62" y="-26.5" font-family="Helvetica,sans-Serif" font-size="10.00">LiveWindow::SetEnabled</text>
</g>
<!-- Node2 -->
<g id="node3" class="node"><title>Node2</title>
<a xlink:href="class_iterative_robot.html#ab0af04a781b0390981b9f0dd75358515" target="_top" xlink:title="IterativeRobot::StartCompetition">
<polygon fill="white" stroke="black" points="160,-38.5 160,-57.5 314,-57.5 314,-38.5 160,-38.5"/>
<text text-anchor="middle" x="237" y="-45.5" font-family="Helvetica,sans-Serif" font-size="10.00">IterativeRobot::StartCompetition</text>
</a>
</g>
<!-- Node1&#45;&gt;Node2 -->
<g id="edge2" class="edge"><title>Node1&#45;&gt;Node2</title>
<path fill="none" stroke="midnightblue" d="M134.557,-36.8589C142.915,-37.7767 151.464,-38.7157 159.88,-39.64"/>
<polygon fill="midnightblue" stroke="midnightblue" points="134.803,-33.3649 124.48,-35.7522 134.039,-40.3231 134.803,-33.3649"/>
</g>
<!-- Node3 -->
<g id="node5" class="node"><title>Node3</title>
<a xlink:href="class_sample_robot.html#aa9c849963713b505a4e032516c028829" target="_top" xlink:title="SampleRobot::StartCompetition">
<polygon fill="white" stroke="black" points="160,-0.5 160,-19.5 314,-19.5 314,-0.5 160,-0.5"/>
<text text-anchor="middle" x="237" y="-7.5" font-family="Helvetica,sans-Serif" font-size="10.00">SampleRobot::StartCompetition</text>
</a>
</g>
<!-- Node1&#45;&gt;Node3 -->
<g id="edge4" class="edge"><title>Node1&#45;&gt;Node3</title>
<path fill="none" stroke="midnightblue" d="M134.557,-21.1411C142.915,-20.2233 151.464,-19.2843 159.88,-18.36"/>
<polygon fill="midnightblue" stroke="midnightblue" points="134.039,-17.6769 124.48,-22.2478 134.803,-24.6351 134.039,-17.6769"/>
</g>
</g>
</svg>
