<?xml version="1.0" encoding="UTF-8" standalone="no"?>
<!DOCTYPE svg PUBLIC "-//W3C//DTD SVG 1.1//EN"
 "http://www.w3.org/Graphics/SVG/1.1/DTD/svg11.dtd">
<!-- Generated by graphviz version 2.28.0 (20110507.0327)
 -->
<!-- Title: BuiltInAccelerometer::SetRange Pages: 1 -->
<svg width="266pt" height="38pt"
 viewBox="0.00 0.00 266.00 38.00" xmlns="http://www.w3.org/2000/svg" xmlns:xlink="http://www.w3.org/1999/xlink">
<g id="graph1" class="graph" transform="scale(1 1) rotate(0) translate(4 34)">
<title>BuiltInAccelerometer::SetRange</title>
<polygon fill="white" stroke="white" points="-4,5 -4,-34 263,-34 263,5 -4,5"/>
<!-- Node1 -->
<g id="node1" class="node"><title>Node1</title>
<polygon fill="#bfbfbf" stroke="black" points="0.5,-0 0.5,-30 107.5,-30 107.5,-0 0.5,-0"/>
<text text-anchor="start" x="8.5" y="-18" font-family="Helvetica,sans-Serif" font-size="10.00">BuiltInAccelerometer</text>
<text text-anchor="middle" x="54" y="-7" font-family="Helvetica,sans-Serif" font-size="10.00">::SetRange</text>
</g>
<!-- Node2 -->
<g id="node3" class="node"><title>Node2</title>
<a xlink:href="class_built_in_accelerometer.html#ac76efde6517e1483e5ea9597e1c605bd" target="_top" xlink:title="BuiltInAccelerometer\l::BuiltInAccelerometer">
<polygon fill="white" stroke="black" points="144.5,-0 144.5,-30 257.5,-30 257.5,-0 144.5,-0"/>
<text text-anchor="start" x="152.5" y="-18" font-family="Helvetica,sans-Serif" font-size="10.00">BuiltInAccelerometer</text>
<text text-anchor="middle" x="201" y="-7" font-family="Helvetica,sans-Serif" font-size="10.00">::BuiltInAccelerometer</text>
</a>
</g>
<!-- Node1&#45;&gt;Node2 -->
<g id="edge2" class="edge"><title>Node1&#45;&gt;Node2</title>
<path fill="none" stroke="midnightblue" d="M117.882,-15C126.607,-15 135.521,-15 144.106,-15"/>
<polygon fill="midnightblue" stroke="midnightblue" points="117.759,-11.5001 107.759,-15 117.758,-18.5001 117.759,-11.5001"/>
</g>
</g>
</svg>
