<?xml version="1.0" encoding="UTF-8" standalone="no"?>
<!DOCTYPE svg PUBLIC "-//W3C//DTD SVG 1.1//EN"
 "http://www.w3.org/Graphics/SVG/1.1/DTD/svg11.dtd">
<!-- Generated by graphviz version 2.28.0 (20110507.0327)
 -->
<!-- Title: PowerDistributionPanel::GetTotalCurrent Pages: 1 -->
<svg width="434pt" height="38pt"
 viewBox="0.00 0.00 434.00 38.00" xmlns="http://www.w3.org/2000/svg" xmlns:xlink="http://www.w3.org/1999/xlink">
<g id="graph1" class="graph" transform="scale(1 1) rotate(0) translate(4 34)">
<title>PowerDistributionPanel::GetTotalCurrent</title>
<polygon fill="white" stroke="white" points="-4,5 -4,-34 431,-34 431,5 -4,5"/>
<!-- Node1 -->
<g id="node1" class="node"><title>Node1</title>
<polygon fill="#bfbfbf" stroke="black" points="0.5,-0 0.5,-30 117.5,-30 117.5,-0 0.5,-0"/>
<text text-anchor="start" x="8.5" y="-18" font-family="Helvetica,sans-Serif" font-size="10.00">PowerDistributionPanel</text>
<text text-anchor="middle" x="59" y="-7" font-family="Helvetica,sans-Serif" font-size="10.00">::GetTotalCurrent</text>
</g>
<!-- Node2 -->
<g id="node3" class="node"><title>Node2</title>
<a xlink:href="class_power_distribution_panel.html#aa371c1359b1529c45aeece524a94fc3b" target="_top" xlink:title="PowerDistributionPanel\l::UpdateTable">
<polygon fill="white" stroke="black" points="154.5,-0 154.5,-30 271.5,-30 271.5,-0 154.5,-0"/>
<text text-anchor="start" x="162.5" y="-18" font-family="Helvetica,sans-Serif" font-size="10.00">PowerDistributionPanel</text>
<text text-anchor="middle" x="213" y="-7" font-family="Helvetica,sans-Serif" font-size="10.00">::UpdateTable</text>
</a>
</g>
<!-- Node1&#45;&gt;Node2 -->
<g id="edge2" class="edge"><title>Node1&#45;&gt;Node2</title>
<path fill="none" stroke="midnightblue" d="M128.072,-15C136.817,-15 145.704,-15 154.263,-15"/>
<polygon fill="midnightblue" stroke="midnightblue" points="127.898,-11.5001 117.898,-15 127.898,-18.5001 127.898,-11.5001"/>
</g>
<!-- Node3 -->
<g id="node5" class="node"><title>Node3</title>
<a xlink:href="class_power_distribution_panel.html#a6f97703d4efb9d8c28e0b7bce7f0ec7a" target="_top" xlink:title="PowerDistributionPanel\l::InitTable">
<polygon fill="white" stroke="black" points="308.5,-0 308.5,-30 425.5,-30 425.5,-0 308.5,-0"/>
<text text-anchor="start" x="316.5" y="-18" font-family="Helvetica,sans-Serif" font-size="10.00">PowerDistributionPanel</text>
<text text-anchor="middle" x="367" y="-7" font-family="Helvetica,sans-Serif" font-size="10.00">::InitTable</text>
</a>
</g>
<!-- Node2&#45;&gt;Node3 -->
<g id="edge4" class="edge"><title>Node2&#45;&gt;Node3</title>
<path fill="none" stroke="midnightblue" d="M282.072,-15C290.817,-15 299.704,-15 308.263,-15"/>
<polygon fill="midnightblue" stroke="midnightblue" points="281.898,-11.5001 271.898,-15 281.898,-18.5001 281.898,-11.5001"/>
</g>
</g>
</svg>
