<?xml version="1.0" encoding="UTF-8" standalone="no"?>
<!DOCTYPE svg PUBLIC "-//W3C//DTD SVG 1.1//EN"
 "http://www.w3.org/Graphics/SVG/1.1/DTD/svg11.dtd">
<!-- Generated by graphviz version 2.28.0 (20110507.0327)
 -->
<!-- Title: DoubleSolenoid::StartLiveWindowMode Pages: 1 -->
<svg width="438pt" height="66pt"
 viewBox="0.00 0.00 438.00 66.00" xmlns="http://www.w3.org/2000/svg" xmlns:xlink="http://www.w3.org/1999/xlink">
<g id="graph1" class="graph" transform="scale(1 1) rotate(0) translate(4 62)">
<title>DoubleSolenoid::StartLiveWindowMode</title>
<polygon fill="white" stroke="white" points="-4,5 -4,-62 435,-62 435,5 -4,5"/>
<!-- Node1 -->
<g id="node1" class="node"><title>Node1</title>
<polygon fill="#bfbfbf" stroke="black" points="0,-14 0,-44 128,-44 128,-14 0,-14"/>
<text text-anchor="start" x="8" y="-32" font-family="Helvetica,sans-Serif" font-size="10.00">DoubleSolenoid::StartLive</text>
<text text-anchor="middle" x="64" y="-21" font-family="Helvetica,sans-Serif" font-size="10.00">WindowMode</text>
</g>
<!-- Node2 -->
<g id="node3" class="node"><title>Node2</title>
<a xlink:href="class_double_solenoid.html#a538ae9e357b7c97e01f213f8fe0a7c20" target="_top" xlink:title="DoubleSolenoid::Set">
<polygon fill="white" stroke="black" points="164.5,-19.5 164.5,-38.5 269.5,-38.5 269.5,-19.5 164.5,-19.5"/>
<text text-anchor="middle" x="217" y="-26.5" font-family="Helvetica,sans-Serif" font-size="10.00">DoubleSolenoid::Set</text>
</a>
</g>
<!-- Node1&#45;&gt;Node2 -->
<g id="edge2" class="edge"><title>Node1&#45;&gt;Node2</title>
<path fill="none" stroke="midnightblue" d="M128.163,-29C136.666,-29 145.384,-29 153.869,-29"/>
<polygon fill="midnightblue" stroke="midnightblue" points="154.074,-32.5001 164.074,-29 154.074,-25.5001 154.074,-32.5001"/>
</g>
<!-- Node3 -->
<g id="node5" class="node"><title>Node3</title>
<a xlink:href="class_error_base.html#a05790f219c9e436a09752f73f7344024" target="_top" xlink:title="Check if the current error code represents a fatal error. ">
<polygon fill="white" stroke="black" points="306,-38.5 306,-57.5 430,-57.5 430,-38.5 306,-38.5"/>
<text text-anchor="middle" x="368" y="-45.5" font-family="Helvetica,sans-Serif" font-size="10.00">ErrorBase::StatusIsFatal</text>
</a>
</g>
<!-- Node2&#45;&gt;Node3 -->
<g id="edge4" class="edge"><title>Node2&#45;&gt;Node3</title>
<path fill="none" stroke="midnightblue" d="M269.695,-35.592C278.183,-36.6744 287.109,-37.8126 295.969,-38.9424"/>
<polygon fill="midnightblue" stroke="midnightblue" points="295.556,-42.4179 305.918,-40.211 296.441,-35.4741 295.556,-42.4179"/>
</g>
<!-- Node4 -->
<g id="node7" class="node"><title>Node4</title>
<a xlink:href="class_solenoid_base.html#a28d8153c8d7d758f910807537c53963c" target="_top" xlink:title="SolenoidBase::Set">
<polygon fill="white" stroke="black" points="319,-0.5 319,-19.5 417,-19.5 417,-0.5 319,-0.5"/>
<text text-anchor="middle" x="368" y="-7.5" font-family="Helvetica,sans-Serif" font-size="10.00">SolenoidBase::Set</text>
</a>
</g>
<!-- Node2&#45;&gt;Node4 -->
<g id="edge6" class="edge"><title>Node2&#45;&gt;Node4</title>
<path fill="none" stroke="midnightblue" d="M269.695,-22.408C282.296,-20.8012 295.861,-19.0715 308.744,-17.4286"/>
<polygon fill="midnightblue" stroke="midnightblue" points="309.422,-20.8706 318.899,-16.1337 308.536,-13.9268 309.422,-20.8706"/>
</g>
</g>
</svg>
