<?xml version="1.0" encoding="UTF-8" standalone="no"?>
<!DOCTYPE svg PUBLIC "-//W3C//DTD SVG 1.1//EN"
 "http://www.w3.org/Graphics/SVG/1.1/DTD/svg11.dtd">
<!-- Generated by graphviz version 2.28.0 (20110507.0327)
 -->
<!-- Title: CANJaguar::SetI Pages: 1 -->
<svg width="588pt" height="161pt"
 viewBox="0.00 0.00 588.00 161.00" xmlns="http://www.w3.org/2000/svg" xmlns:xlink="http://www.w3.org/1999/xlink">
<g id="graph1" class="graph" transform="scale(1 1) rotate(0) translate(4 157)">
<title>CANJaguar::SetI</title>
<polygon fill="white" stroke="white" points="-4,5 -4,-157 585,-157 585,5 -4,5"/>
<!-- Node1 -->
<g id="node1" class="node"><title>Node1</title>
<polygon fill="#bfbfbf" stroke="black" points="0.5,-75.5 0.5,-94.5 89.5,-94.5 89.5,-75.5 0.5,-75.5"/>
<text text-anchor="middle" x="45" y="-82.5" font-family="Helvetica,sans-Serif" font-size="10.00">CANJaguar::SetI</text>
</g>
<!-- Node2 -->
<g id="node3" class="node"><title>Node2</title>
<a xlink:href="class_c_a_n_jaguar.html#a97fe9cb246f90060495c808e31070650" target="_top" xlink:title="CANJaguar::verify">
<polygon fill="white" stroke="black" points="130.5,-104.5 130.5,-123.5 223.5,-123.5 223.5,-104.5 130.5,-104.5"/>
<text text-anchor="middle" x="177" y="-111.5" font-family="Helvetica,sans-Serif" font-size="10.00">CANJaguar::verify</text>
</a>
</g>
<!-- Node1&#45;&gt;Node2 -->
<g id="edge2" class="edge"><title>Node1&#45;&gt;Node2</title>
<path fill="none" stroke="midnightblue" d="M98.787,-96.7756C110.202,-99.3219 122.138,-101.985 133.118,-104.434"/>
<polygon fill="midnightblue" stroke="midnightblue" points="99.4493,-93.3374 88.9271,-94.5761 97.9252,-100.169 99.4493,-93.3374"/>
</g>
<!-- Node6 -->
<g id="node11" class="node"><title>Node6</title>
<a xlink:href="class_c_a_n_jaguar.html#a27a017dfbfbb580251b4dd342ccbfd6d" target="_top" xlink:title="CANJaguar::SetPID">
<polygon fill="white" stroke="black" points="126,-47.5 126,-66.5 228,-66.5 228,-47.5 126,-47.5"/>
<text text-anchor="middle" x="177" y="-54.5" font-family="Helvetica,sans-Serif" font-size="10.00">CANJaguar::SetPID</text>
</a>
</g>
<!-- Node1&#45;&gt;Node6 -->
<g id="edge10" class="edge"><title>Node1&#45;&gt;Node6</title>
<path fill="none" stroke="midnightblue" d="M99.7176,-73.4301C110.393,-71.1307 121.487,-68.7412 131.801,-66.5198"/>
<polygon fill="midnightblue" stroke="midnightblue" points="98.6886,-70.0713 89.6498,-75.5985 100.163,-76.9144 98.6886,-70.0713"/>
</g>
<!-- Node3 -->
<g id="node5" class="node"><title>Node3</title>
<a xlink:href="class_c_a_n_jaguar.html#a3a22b02ece406993619f993b1e09012a" target="_top" xlink:title="CANJaguar::Set">
<polygon fill="white" stroke="black" points="294,-114.5 294,-133.5 380,-133.5 380,-114.5 294,-114.5"/>
<text text-anchor="middle" x="337" y="-121.5" font-family="Helvetica,sans-Serif" font-size="10.00">CANJaguar::Set</text>
</a>
</g>
<!-- Node2&#45;&gt;Node3 -->
<g id="edge4" class="edge"><title>Node2&#45;&gt;Node3</title>
<path fill="none" stroke="midnightblue" d="M233.815,-117.533C253.586,-118.784 275.481,-120.17 293.917,-121.336"/>
<polygon fill="midnightblue" stroke="midnightblue" points="233.901,-114.031 223.7,-116.892 233.459,-121.017 233.901,-114.031"/>
</g>
<!-- Node4 -->
<g id="node7" class="node"><title>Node4</title>
<a xlink:href="class_c_a_n_jaguar.html#a2355d55f42083ab82870c79f742620e4" target="_top" xlink:title="CANJaguar::PIDWrite">
<polygon fill="white" stroke="black" points="458,-133.5 458,-152.5 568,-152.5 568,-133.5 458,-133.5"/>
<text text-anchor="middle" x="513" y="-140.5" font-family="Helvetica,sans-Serif" font-size="10.00">CANJaguar::PIDWrite</text>
</a>
</g>
<!-- Node3&#45;&gt;Node4 -->
<g id="edge6" class="edge"><title>Node3&#45;&gt;Node4</title>
<path fill="none" stroke="midnightblue" d="M390.288,-129.71C411.602,-132.037 436.24,-134.727 457.75,-137.076"/>
<polygon fill="midnightblue" stroke="midnightblue" points="390.441,-126.206 380.121,-128.599 389.682,-133.164 390.441,-126.206"/>
</g>
<!-- Node5 -->
<g id="node9" class="node"><title>Node5</title>
<a xlink:href="class_c_a_n_jaguar_test.html#a3c9026e62eb65e2d497bb7bbfaded297" target="_top" xlink:title="CANJaguarTest::SetJaguar">
<polygon fill="white" stroke="black" points="446,-95.5 446,-114.5 580,-114.5 580,-95.5 446,-95.5"/>
<text text-anchor="middle" x="513" y="-102.5" font-family="Helvetica,sans-Serif" font-size="10.00">CANJaguarTest::SetJaguar</text>
</a>
</g>
<!-- Node3&#45;&gt;Node5 -->
<g id="edge8" class="edge"><title>Node3&#45;&gt;Node5</title>
<path fill="none" stroke="midnightblue" d="M390.138,-118.307C407.64,-116.396 427.398,-114.238 445.83,-112.225"/>
<polygon fill="midnightblue" stroke="midnightblue" points="389.682,-114.836 380.121,-119.401 390.441,-121.794 389.682,-114.836"/>
</g>
<!-- Node7 -->
<g id="node13" class="node"><title>Node7</title>
<a xlink:href="class_c_a_n_jaguar.html#ae0b07bf7199611ea8e2e04109b08a3ad" target="_top" xlink:title="CANJaguar::SetCurrentMode">
<polygon fill="white" stroke="black" points="266,-76.5 266,-95.5 408,-95.5 408,-76.5 266,-76.5"/>
<text text-anchor="middle" x="337" y="-83.5" font-family="Helvetica,sans-Serif" font-size="10.00">CANJaguar::SetCurrentMode</text>
</a>
</g>
<!-- Node6&#45;&gt;Node7 -->
<g id="edge12" class="edge"><title>Node6&#45;&gt;Node7</title>
<path fill="none" stroke="midnightblue" d="M238.641,-68.1304C253.653,-70.8857 269.602,-73.813 284.151,-76.4835"/>
<polygon fill="midnightblue" stroke="midnightblue" points="238.894,-64.6184 228.427,-66.2555 237.63,-71.5034 238.894,-64.6184"/>
</g>
<!-- Node8 -->
<g id="node15" class="node"><title>Node8</title>
<a xlink:href="class_c_a_n_jaguar.html#aa02549873d5551b00d3f2bdb08709e5a" target="_top" xlink:title="CANJaguar::SetSpeedMode">
<polygon fill="white" stroke="black" points="268,-38.5 268,-57.5 406,-57.5 406,-38.5 268,-38.5"/>
<text text-anchor="middle" x="337" y="-45.5" font-family="Helvetica,sans-Serif" font-size="10.00">CANJaguar::SetSpeedMode</text>
</a>
</g>
<!-- Node6&#45;&gt;Node8 -->
<g id="edge14" class="edge"><title>Node6&#45;&gt;Node8</title>
<path fill="none" stroke="midnightblue" d="M238.637,-53.546C248.211,-53.0007 258.165,-52.4336 267.895,-51.8794"/>
<polygon fill="midnightblue" stroke="midnightblue" points="238.211,-50.0645 228.427,-54.1276 238.609,-57.0531 238.211,-50.0645"/>
</g>
<!-- Node9 -->
<g id="node17" class="node"><title>Node9</title>
<a xlink:href="class_c_a_n_jaguar.html#a870f456a238bb9c55552b94cd86faad0" target="_top" xlink:title="CANJaguar::SetPositionMode">
<polygon fill="white" stroke="black" points="264,-0.5 264,-19.5 410,-19.5 410,-0.5 264,-0.5"/>
<text text-anchor="middle" x="337" y="-7.5" font-family="Helvetica,sans-Serif" font-size="10.00">CANJaguar::SetPositionMode</text>
</a>
</g>
<!-- Node6&#45;&gt;Node9 -->
<g id="edge16" class="edge"><title>Node6&#45;&gt;Node9</title>
<path fill="none" stroke="midnightblue" d="M216.038,-44.1019C230.937,-39.1848 248.213,-33.649 264,-29 275.037,-25.7498 287.102,-22.4631 298.147,-19.558"/>
<polygon fill="midnightblue" stroke="midnightblue" points="214.535,-40.9128 206.15,-47.3887 216.744,-47.5555 214.535,-40.9128"/>
</g>
</g>
</svg>
