<?xml version="1.0" encoding="UTF-8" standalone="no"?>
<!DOCTYPE svg PUBLIC "-//W3C//DTD SVG 1.1//EN"
 "http://www.w3.org/Graphics/SVG/1.1/DTD/svg11.dtd">
<!-- Generated by graphviz version 2.28.0 (20110507.0327)
 -->
<!-- Title: TalonSRX::PIDWrite Pages: 1 -->
<svg width="870pt" height="85pt"
 viewBox="0.00 0.00 870.00 85.00" xmlns="http://www.w3.org/2000/svg" xmlns:xlink="http://www.w3.org/1999/xlink">
<g id="graph1" class="graph" transform="scale(1 1) rotate(0) translate(4 81)">
<title>TalonSRX::PIDWrite</title>
<polygon fill="white" stroke="white" points="-4,5 -4,-81 867,-81 867,5 -4,5"/>
<!-- Node1 -->
<g id="node1" class="node"><title>Node1</title>
<polygon fill="#bfbfbf" stroke="black" points="0,-19.5 0,-38.5 104,-38.5 104,-19.5 0,-19.5"/>
<text text-anchor="middle" x="52" y="-26.5" font-family="Helvetica,sans-Serif" font-size="10.00">TalonSRX::PIDWrite</text>
</g>
<!-- Node2 -->
<g id="node3" class="node"><title>Node2</title>
<a xlink:href="class_talon_s_r_x.html#a9d7dab854708bf4deb2d57da2cbcf9a9" target="_top" xlink:title="TalonSRX::Set">
<polygon fill="white" stroke="black" points="140,-19.5 140,-38.5 220,-38.5 220,-19.5 140,-19.5"/>
<text text-anchor="middle" x="180" y="-26.5" font-family="Helvetica,sans-Serif" font-size="10.00">TalonSRX::Set</text>
</a>
</g>
<!-- Node1&#45;&gt;Node2 -->
<g id="edge2" class="edge"><title>Node1&#45;&gt;Node2</title>
<path fill="none" stroke="midnightblue" d="M104.249,-29C112.677,-29 121.396,-29 129.774,-29"/>
<polygon fill="midnightblue" stroke="midnightblue" points="129.78,-32.5001 139.78,-29 129.78,-25.5001 129.78,-32.5001"/>
</g>
<!-- Node3 -->
<g id="node5" class="node"><title>Node3</title>
<a xlink:href="class_safe_p_w_m.html#af1ed936d88f3ee6446b01c17feb24b78" target="_top" xlink:title="SafePWM::SetSpeed">
<polygon fill="white" stroke="black" points="256,-19.5 256,-38.5 366,-38.5 366,-19.5 256,-19.5"/>
<text text-anchor="middle" x="311" y="-26.5" font-family="Helvetica,sans-Serif" font-size="10.00">SafePWM::SetSpeed</text>
</a>
</g>
<!-- Node2&#45;&gt;Node3 -->
<g id="edge4" class="edge"><title>Node2&#45;&gt;Node3</title>
<path fill="none" stroke="midnightblue" d="M220.054,-29C228.156,-29 236.895,-29 245.632,-29"/>
<polygon fill="midnightblue" stroke="midnightblue" points="245.847,-32.5001 255.847,-29 245.847,-25.5001 245.847,-32.5001"/>
</g>
<!-- Node4 -->
<g id="node7" class="node"><title>Node4</title>
<a xlink:href="class_p_w_m.html#a947e5f6073da9e4d1b60db0c7791ca9c" target="_top" xlink:title="PWM::SetSpeed">
<polygon fill="white" stroke="black" points="420,-38.5 420,-57.5 510,-57.5 510,-38.5 420,-38.5"/>
<text text-anchor="middle" x="465" y="-45.5" font-family="Helvetica,sans-Serif" font-size="10.00">PWM::SetSpeed</text>
</a>
</g>
<!-- Node3&#45;&gt;Node4 -->
<g id="edge6" class="edge"><title>Node3&#45;&gt;Node4</title>
<path fill="none" stroke="midnightblue" d="M366.017,-35.7522C380.162,-37.5203 395.419,-39.4273 409.584,-41.198"/>
<polygon fill="midnightblue" stroke="midnightblue" points="409.318,-44.6919 419.675,-42.4593 410.186,-37.7459 409.318,-44.6919"/>
</g>
<!-- Node7 -->
<g id="node14" class="node"><title>Node7</title>
<a xlink:href="class_motor_safety_helper.html#a67b80e9817dc725e0678de5e8f0bb39e" target="_top" xlink:title="MotorSafetyHelper::Feed">
<polygon fill="white" stroke="black" points="402.5,-0.5 402.5,-19.5 527.5,-19.5 527.5,-0.5 402.5,-0.5"/>
<text text-anchor="middle" x="465" y="-7.5" font-family="Helvetica,sans-Serif" font-size="10.00">MotorSafetyHelper::Feed</text>
</a>
</g>
<!-- Node3&#45;&gt;Node7 -->
<g id="edge14" class="edge"><title>Node3&#45;&gt;Node7</title>
<path fill="none" stroke="midnightblue" d="M366.017,-22.2478C374.573,-21.1783 383.536,-20.0581 392.417,-18.9478"/>
<polygon fill="midnightblue" stroke="midnightblue" points="392.896,-22.4153 402.385,-17.7019 392.028,-15.4694 392.896,-22.4153"/>
</g>
<!-- Node5 -->
<g id="node9" class="node"><title>Node5</title>
<a xlink:href="class_error_base.html#a05790f219c9e436a09752f73f7344024" target="_top" xlink:title="Check if the current error code represents a fatal error. ">
<polygon fill="white" stroke="black" points="738,-57.5 738,-76.5 862,-76.5 862,-57.5 738,-57.5"/>
<text text-anchor="middle" x="800" y="-64.5" font-family="Helvetica,sans-Serif" font-size="10.00">ErrorBase::StatusIsFatal</text>
</a>
</g>
<!-- Node4&#45;&gt;Node5 -->
<g id="edge8" class="edge"><title>Node4&#45;&gt;Node5</title>
<path fill="none" stroke="midnightblue" d="M505.799,-57.5105C523.506,-61.2756 544.679,-65.1443 564,-67 618.862,-72.2692 681.26,-71.9774 727.965,-70.5263"/>
<polygon fill="midnightblue" stroke="midnightblue" points="728.107,-74.0236 737.983,-70.1899 727.872,-67.0276 728.107,-74.0236"/>
</g>
<!-- Node6 -->
<g id="node11" class="node"><title>Node6</title>
<a xlink:href="class_p_w_m.html#a0c546e1aa7d5d091447a819e50fae9ca" target="_top" xlink:title="PWM::SetRaw">
<polygon fill="white" stroke="black" points="592.5,-38.5 592.5,-57.5 673.5,-57.5 673.5,-38.5 592.5,-38.5"/>
<text text-anchor="middle" x="633" y="-45.5" font-family="Helvetica,sans-Serif" font-size="10.00">PWM::SetRaw</text>
</a>
</g>
<!-- Node4&#45;&gt;Node6 -->
<g id="edge10" class="edge"><title>Node4&#45;&gt;Node6</title>
<path fill="none" stroke="midnightblue" d="M510.049,-48C532.205,-48 559.151,-48 582.073,-48"/>
<polygon fill="midnightblue" stroke="midnightblue" points="582.29,-51.5001 592.29,-48 582.29,-44.5001 582.29,-51.5001"/>
</g>
<!-- Node6&#45;&gt;Node5 -->
<g id="edge12" class="edge"><title>Node6&#45;&gt;Node5</title>
<path fill="none" stroke="midnightblue" d="M673.522,-52.551C689.846,-54.4308 709.286,-56.6693 727.931,-58.8163"/>
<polygon fill="midnightblue" stroke="midnightblue" points="727.55,-62.2954 737.884,-59.9624 728.35,-55.3414 727.55,-62.2954"/>
</g>
<!-- Node8 -->
<g id="node16" class="node"><title>Node8</title>
<a xlink:href="class_timer.html#a7fa6e6dffec055e5104ccd6bcadec9aa" target="_top" xlink:title="Timer::GetFPGATimestamp">
<polygon fill="white" stroke="black" points="564.5,-0.5 564.5,-19.5 701.5,-19.5 701.5,-0.5 564.5,-0.5"/>
<text text-anchor="middle" x="633" y="-7.5" font-family="Helvetica,sans-Serif" font-size="10.00">Timer::GetFPGATimestamp</text>
</a>
</g>
<!-- Node7&#45;&gt;Node8 -->
<g id="edge16" class="edge"><title>Node7&#45;&gt;Node8</title>
<path fill="none" stroke="midnightblue" d="M527.812,-10C536.359,-10 545.227,-10 554.02,-10"/>
<polygon fill="midnightblue" stroke="midnightblue" points="554.283,-13.5001 564.283,-10 554.283,-6.5001 554.283,-13.5001"/>
</g>
<!-- Node9 -->
<g id="node18" class="node"><title>Node9</title>
<a xlink:href="_utility_8h.html#ababf055d95368485d48bd9a0231853f3" target="_top" xlink:title="GetFPGATime">
<polygon fill="white" stroke="black" points="760,-0.5 760,-19.5 840,-19.5 840,-0.5 760,-0.5"/>
<text text-anchor="middle" x="800" y="-7.5" font-family="Helvetica,sans-Serif" font-size="10.00">GetFPGATime</text>
</a>
</g>
<!-- Node8&#45;&gt;Node9 -->
<g id="edge18" class="edge"><title>Node8&#45;&gt;Node9</title>
<path fill="none" stroke="midnightblue" d="M701.588,-10C717.641,-10 734.473,-10 749.543,-10"/>
<polygon fill="midnightblue" stroke="midnightblue" points="749.664,-13.5001 759.663,-10 749.663,-6.5001 749.664,-13.5001"/>
</g>
</g>
</svg>
