<?xml version="1.0" encoding="UTF-8" standalone="no"?>
<!DOCTYPE svg PUBLIC "-//W3C//DTD SVG 1.1//EN"
 "http://www.w3.org/Graphics/SVG/1.1/DTD/svg11.dtd">
<!-- Generated by graphviz version 2.28.0 (20110507.0327)
 -->
<!-- Title: Command::Start Pages: 1 -->
<svg width="260pt" height="66pt"
 viewBox="0.00 0.00 260.00 66.00" xmlns="http://www.w3.org/2000/svg" xmlns:xlink="http://www.w3.org/1999/xlink">
<g id="graph1" class="graph" transform="scale(1 1) rotate(0) translate(4 62)">
<title>Command::Start</title>
<polygon fill="white" stroke="white" points="-4,5 -4,-62 257,-62 257,5 -4,5"/>
<!-- Node1 -->
<g id="node1" class="node"><title>Node1</title>
<polygon fill="#bfbfbf" stroke="black" points="0,-19.5 0,-38.5 88,-38.5 88,-19.5 0,-19.5"/>
<text text-anchor="middle" x="44" y="-26.5" font-family="Helvetica,sans-Serif" font-size="10.00">Command::Start</text>
</g>
<!-- Node2 -->
<g id="node3" class="node"><title>Node2</title>
<a xlink:href="class_scheduler.html#a5cc7ff43cb79880d28586b07ec967070" target="_top" xlink:title="Scheduler::GetInstance">
<polygon fill="white" stroke="black" points="128.5,-38.5 128.5,-57.5 247.5,-57.5 247.5,-38.5 128.5,-38.5"/>
<text text-anchor="middle" x="188" y="-45.5" font-family="Helvetica,sans-Serif" font-size="10.00">Scheduler::GetInstance</text>
</a>
</g>
<!-- Node1&#45;&gt;Node2 -->
<g id="edge2" class="edge"><title>Node1&#45;&gt;Node2</title>
<path fill="none" stroke="midnightblue" d="M88.3763,-34.8039C97.8578,-36.0725 108.118,-37.4454 118.315,-38.8097"/>
<polygon fill="midnightblue" stroke="midnightblue" points="118.083,-42.3098 128.459,-40.167 119.011,-35.3716 118.083,-42.3098"/>
</g>
<!-- Node3 -->
<g id="node5" class="node"><title>Node3</title>
<a xlink:href="class_scheduler.html#a748d4035dafc39002b7f03a4504d3150" target="_top" xlink:title="Scheduler::AddCommand">
<polygon fill="white" stroke="black" points="124,-0.5 124,-19.5 252,-19.5 252,-0.5 124,-0.5"/>
<text text-anchor="middle" x="188" y="-7.5" font-family="Helvetica,sans-Serif" font-size="10.00">Scheduler::AddCommand</text>
</a>
</g>
<!-- Node1&#45;&gt;Node3 -->
<g id="edge4" class="edge"><title>Node1&#45;&gt;Node3</title>
<path fill="none" stroke="midnightblue" d="M88.3763,-23.1961C96.4075,-22.1215 104.998,-20.9722 113.634,-19.8166"/>
<polygon fill="midnightblue" stroke="midnightblue" points="114.316,-23.2566 123.764,-18.4612 113.388,-16.3184 114.316,-23.2566"/>
</g>
</g>
</svg>
