<?xml version="1.0" encoding="UTF-8" standalone="no"?>
<!DOCTYPE svg PUBLIC "-//W3C//DTD SVG 1.1//EN"
 "http://www.w3.org/Graphics/SVG/1.1/DTD/svg11.dtd">
<!-- Generated by graphviz version 2.28.0 (20110507.0327)
 -->
<!-- Title: Subsystem Pages: 1 -->
<svg width="182pt" height="196pt"
 viewBox="0.00 0.00 182.00 196.00" xmlns="http://www.w3.org/2000/svg" xmlns:xlink="http://www.w3.org/1999/xlink">
<g id="graph1" class="graph" transform="scale(1 1) rotate(0) translate(4 192)">
<title>Subsystem</title>
<polygon fill="white" stroke="white" points="-4,5 -4,-192 179,-192 179,5 -4,5"/>
<!-- Node1 -->
<g id="node1" class="node"><title>Node1</title>
<polygon fill="#bfbfbf" stroke="black" points="51,-56.5 51,-75.5 117,-75.5 117,-56.5 51,-56.5"/>
<text text-anchor="middle" x="84" y="-63.5" font-family="Helvetica,sans-Serif" font-size="10.00">Subsystem</text>
</g>
<!-- Node5 -->
<g id="node9" class="node"><title>Node5</title>
<a xlink:href="class_a_subsystem.html" target="_top" xlink:title="ASubsystem">
<polygon fill="white" stroke="black" points="-0.5,-0.5 -0.5,-19.5 72.5,-19.5 72.5,-0.5 -0.5,-0.5"/>
<text text-anchor="middle" x="36" y="-7.5" font-family="Helvetica,sans-Serif" font-size="10.00">ASubsystem</text>
</a>
</g>
<!-- Node1&#45;&gt;Node5 -->
<g id="edge8" class="edge"><title>Node1&#45;&gt;Node5</title>
<path fill="none" stroke="midnightblue" d="M69.2723,-48.4314C60.8599,-38.9673 50.6513,-27.4827 43.7787,-19.7511"/>
<polygon fill="midnightblue" stroke="midnightblue" points="66.8142,-50.9342 76.0738,-56.083 72.046,-46.2836 66.8142,-50.9342"/>
</g>
<!-- Node6 -->
<g id="node11" class="node"><title>Node6</title>
<a xlink:href="class_p_i_d_subsystem.html" target="_top" xlink:title="PIDSubsystem">
<polygon fill="white" stroke="black" points="91,-0.5 91,-19.5 173,-19.5 173,-0.5 91,-0.5"/>
<text text-anchor="middle" x="132" y="-7.5" font-family="Helvetica,sans-Serif" font-size="10.00">PIDSubsystem</text>
</a>
</g>
<!-- Node1&#45;&gt;Node6 -->
<g id="edge10" class="edge"><title>Node1&#45;&gt;Node6</title>
<path fill="none" stroke="midnightblue" d="M98.7277,-48.4314C107.14,-38.9673 117.349,-27.4827 124.221,-19.7511"/>
<polygon fill="midnightblue" stroke="midnightblue" points="95.954,-46.2836 91.9262,-56.083 101.186,-50.9342 95.954,-46.2836"/>
</g>
<!-- Node2 -->
<g id="node2" class="node"><title>Node2</title>
<a xlink:href="class_error_base.html" target="_top" xlink:title="ErrorBase">
<polygon fill="white" stroke="black" points="8,-112.5 8,-131.5 68,-131.5 68,-112.5 8,-112.5"/>
<text text-anchor="middle" x="38" y="-119.5" font-family="Helvetica,sans-Serif" font-size="10.00">ErrorBase</text>
</a>
</g>
<!-- Node2&#45;&gt;Node1 -->
<g id="edge2" class="edge"><title>Node2&#45;&gt;Node1</title>
<path fill="none" stroke="midnightblue" d="M52.114,-104.431C60.176,-94.9673 69.9592,-83.4827 76.5454,-75.7511"/>
<polygon fill="midnightblue" stroke="midnightblue" points="49.4163,-102.201 45.596,-112.083 54.745,-106.74 49.4163,-102.201"/>
</g>
<!-- Node3 -->
<g id="node4" class="node"><title>Node3</title>
<a xlink:href="class_named_sendable.html" target="_top" xlink:title="NamedSendable">
<polygon fill="white" stroke="black" points="86,-112.5 86,-131.5 174,-131.5 174,-112.5 86,-112.5"/>
<text text-anchor="middle" x="130" y="-119.5" font-family="Helvetica,sans-Serif" font-size="10.00">NamedSendable</text>
</a>
</g>
<!-- Node3&#45;&gt;Node1 -->
<g id="edge4" class="edge"><title>Node3&#45;&gt;Node1</title>
<path fill="none" stroke="midnightblue" d="M115.886,-104.431C107.824,-94.9673 98.0408,-83.4827 91.4546,-75.7511"/>
<polygon fill="midnightblue" stroke="midnightblue" points="113.255,-106.74 122.404,-112.083 118.584,-102.201 113.255,-106.74"/>
</g>
<!-- Node4 -->
<g id="node6" class="node"><title>Node4</title>
<a xlink:href="class_sendable.html" target="_top" xlink:title="Sendable">
<polygon fill="white" stroke="black" points="101.5,-168.5 101.5,-187.5 158.5,-187.5 158.5,-168.5 101.5,-168.5"/>
<text text-anchor="middle" x="130" y="-175.5" font-family="Helvetica,sans-Serif" font-size="10.00">Sendable</text>
</a>
</g>
<!-- Node4&#45;&gt;Node3 -->
<g id="edge6" class="edge"><title>Node4&#45;&gt;Node3</title>
<path fill="none" stroke="midnightblue" d="M130,-157.805C130,-148.91 130,-138.78 130,-131.751"/>
<polygon fill="midnightblue" stroke="midnightblue" points="126.5,-158.083 130,-168.083 133.5,-158.083 126.5,-158.083"/>
</g>
</g>
</svg>
