<?xml version="1.0" encoding="UTF-8" standalone="no"?>
<!DOCTYPE svg PUBLIC "-//W3C//DTD SVG 1.1//EN"
 "http://www.w3.org/Graphics/SVG/1.1/DTD/svg11.dtd">
<!-- Generated by graphviz version 2.28.0 (20110507.0327)
 -->
<!-- Title: SensorBase::CheckSolenoidModule Pages: 1 -->
<svg width="350pt" height="66pt"
 viewBox="0.00 0.00 350.00 66.00" xmlns="http://www.w3.org/2000/svg" xmlns:xlink="http://www.w3.org/1999/xlink">
<g id="graph1" class="graph" transform="scale(1 1) rotate(0) translate(4 62)">
<title>SensorBase::CheckSolenoidModule</title>
<polygon fill="white" stroke="white" points="-4,5 -4,-62 347,-62 347,5 -4,5"/>
<!-- Node1 -->
<g id="node1" class="node"><title>Node1</title>
<polygon fill="#bfbfbf" stroke="black" points="0.5,-14 0.5,-44 141.5,-44 141.5,-14 0.5,-14"/>
<text text-anchor="start" x="8.5" y="-32" font-family="Helvetica,sans-Serif" font-size="10.00">SensorBase::CheckSolenoid</text>
<text text-anchor="middle" x="71" y="-21" font-family="Helvetica,sans-Serif" font-size="10.00">Module</text>
</g>
<!-- Node2 -->
<g id="node3" class="node"><title>Node2</title>
<a xlink:href="class_double_solenoid.html#a6bb0815514cc362a87def521fd544508" target="_top" xlink:title="DoubleSolenoid::~DoubleSolenoid">
<polygon fill="white" stroke="black" points="178,-38.5 178,-57.5 342,-57.5 342,-38.5 178,-38.5"/>
<text text-anchor="middle" x="260" y="-45.5" font-family="Helvetica,sans-Serif" font-size="10.00">DoubleSolenoid::~DoubleSolenoid</text>
</a>
</g>
<!-- Node1&#45;&gt;Node2 -->
<g id="edge2" class="edge"><title>Node1&#45;&gt;Node2</title>
<path fill="none" stroke="midnightblue" d="M151.731,-37.1011C160.414,-37.9832 169.258,-38.8819 177.956,-39.7656"/>
<polygon fill="midnightblue" stroke="midnightblue" points="151.935,-33.6038 141.632,-36.0749 151.227,-40.5679 151.935,-33.6038"/>
</g>
<!-- Node3 -->
<g id="node5" class="node"><title>Node3</title>
<a xlink:href="class_solenoid.html#a34907a41f61848e199967e0319154d13" target="_top" xlink:title="Solenoid::~Solenoid">
<polygon fill="white" stroke="black" points="208,-0.5 208,-19.5 312,-19.5 312,-0.5 208,-0.5"/>
<text text-anchor="middle" x="260" y="-7.5" font-family="Helvetica,sans-Serif" font-size="10.00">Solenoid::~Solenoid</text>
</a>
</g>
<!-- Node1&#45;&gt;Node3 -->
<g id="edge4" class="edge"><title>Node1&#45;&gt;Node3</title>
<path fill="none" stroke="midnightblue" d="M151.758,-20.8963C170.711,-18.9706 190.434,-16.9666 207.72,-15.2103"/>
<polygon fill="midnightblue" stroke="midnightblue" points="151.227,-17.4321 141.632,-21.9251 151.935,-24.3962 151.227,-17.4321"/>
</g>
</g>
</svg>
