<?xml version="1.0" encoding="UTF-8" standalone="no"?>
<!DOCTYPE svg PUBLIC "-//W3C//DTD SVG 1.1//EN"
 "http://www.w3.org/Graphics/SVG/1.1/DTD/svg11.dtd">
<!-- Generated by graphviz version 2.28.0 (20110507.0327)
 -->
<!-- Title: Joystick::GetTwist Pages: 1 -->
<svg width="428pt" height="28pt"
 viewBox="0.00 0.00 428.00 28.00" xmlns="http://www.w3.org/2000/svg" xmlns:xlink="http://www.w3.org/1999/xlink">
<g id="graph1" class="graph" transform="scale(1 1) rotate(0) translate(4 24)">
<title>Joystick::GetTwist</title>
<polygon fill="white" stroke="white" points="-4,5 -4,-24 425,-24 425,5 -4,5"/>
<!-- Node1 -->
<g id="node1" class="node"><title>Node1</title>
<polygon fill="#bfbfbf" stroke="black" points="0.5,-0.5 0.5,-19.5 97.5,-19.5 97.5,-0.5 0.5,-0.5"/>
<text text-anchor="middle" x="49" y="-7.5" font-family="Helvetica,sans-Serif" font-size="10.00">Joystick::GetTwist</text>
</g>
<!-- Node2 -->
<g id="node3" class="node"><title>Node2</title>
<a xlink:href="class_joystick.html#a1011135df443771aa07e3afa4a839b05" target="_top" xlink:title="Joystick::GetRawAxis">
<polygon fill="white" stroke="black" points="134.5,-0.5 134.5,-19.5 247.5,-19.5 247.5,-0.5 134.5,-0.5"/>
<text text-anchor="middle" x="191" y="-7.5" font-family="Helvetica,sans-Serif" font-size="10.00">Joystick::GetRawAxis</text>
</a>
</g>
<!-- Node1&#45;&gt;Node2 -->
<g id="edge2" class="edge"><title>Node1&#45;&gt;Node2</title>
<path fill="none" stroke="midnightblue" d="M97.7885,-10C106.215,-10 115.12,-10 123.942,-10"/>
<polygon fill="midnightblue" stroke="midnightblue" points="124.225,-13.5001 134.225,-10 124.225,-6.5001 124.225,-13.5001"/>
</g>
<!-- Node3 -->
<g id="node5" class="node"><title>Node3</title>
<a xlink:href="class_driver_station.html#a3d0f8b9b6dd45cd071773a47d35059ac" target="_top" xlink:title="DriverStation::GetStickAxis">
<polygon fill="white" stroke="black" points="284.5,-0.5 284.5,-19.5 419.5,-19.5 419.5,-0.5 284.5,-0.5"/>
<text text-anchor="middle" x="352" y="-7.5" font-family="Helvetica,sans-Serif" font-size="10.00">DriverStation::GetStickAxis</text>
</a>
</g>
<!-- Node2&#45;&gt;Node3 -->
<g id="edge4" class="edge"><title>Node2&#45;&gt;Node3</title>
<path fill="none" stroke="midnightblue" d="M247.61,-10C256.264,-10 265.334,-10 274.355,-10"/>
<polygon fill="midnightblue" stroke="midnightblue" points="274.495,-13.5001 284.495,-10 274.495,-6.5001 274.495,-13.5001"/>
</g>
</g>
</svg>
