<?xml version="1.0" encoding="UTF-8" standalone="no"?>
<!DOCTYPE svg PUBLIC "-//W3C//DTD SVG 1.1//EN"
 "http://www.w3.org/Graphics/SVG/1.1/DTD/svg11.dtd">
<!-- Generated by graphviz version 2.28.0 (20110507.0327)
 -->
<!-- Title: Counter::SetDownSource Pages: 1 -->
<svg width="296pt" height="66pt"
 viewBox="0.00 0.00 296.00 66.00" xmlns="http://www.w3.org/2000/svg" xmlns:xlink="http://www.w3.org/1999/xlink">
<g id="graph1" class="graph" transform="scale(1 1) rotate(0) translate(4 62)">
<title>Counter::SetDownSource</title>
<polygon fill="white" stroke="white" points="-4,5 -4,-62 293,-62 293,5 -4,5"/>
<!-- Node1 -->
<g id="node1" class="node"><title>Node1</title>
<polygon fill="#bfbfbf" stroke="black" points="0,-19.5 0,-38.5 126,-38.5 126,-19.5 0,-19.5"/>
<text text-anchor="middle" x="63" y="-26.5" font-family="Helvetica,sans-Serif" font-size="10.00">Counter::SetDownSource</text>
</g>
<!-- Node2 -->
<g id="node3" class="node"><title>Node2</title>
<a xlink:href="class_counter.html#a37eface38998556665b5f88e35db7d16" target="_top" xlink:title="Counter::Counter">
<polygon fill="white" stroke="black" points="180,-38.5 180,-57.5 270,-57.5 270,-38.5 180,-38.5"/>
<text text-anchor="middle" x="225" y="-45.5" font-family="Helvetica,sans-Serif" font-size="10.00">Counter::Counter</text>
</a>
</g>
<!-- Node1&#45;&gt;Node2 -->
<g id="edge2" class="edge"><title>Node1&#45;&gt;Node2</title>
<path fill="none" stroke="midnightblue" d="M136.493,-37.6085C151.306,-39.3676 166.465,-41.1677 179.915,-42.765"/>
<polygon fill="midnightblue" stroke="midnightblue" points="136.661,-34.104 126.318,-36.4003 135.836,-41.0552 136.661,-34.104"/>
</g>
<!-- Node3 -->
<g id="node5" class="node"><title>Node3</title>
<a xlink:href="class_counter.html#af8ed8904ff88de6e059c4592f299d7e9" target="_top" xlink:title="Counter::SetDownSource">
<polygon fill="white" stroke="black" points="162,-0.5 162,-19.5 288,-19.5 288,-0.5 162,-0.5"/>
<text text-anchor="middle" x="225" y="-7.5" font-family="Helvetica,sans-Serif" font-size="10.00">Counter::SetDownSource</text>
</a>
</g>
<!-- Node1&#45;&gt;Node3 -->
<g id="edge4" class="edge"><title>Node1&#45;&gt;Node3</title>
<path fill="none" stroke="midnightblue" d="M136.267,-20.4183C144.808,-19.4041 153.468,-18.3757 161.852,-17.3801"/>
<polygon fill="midnightblue" stroke="midnightblue" points="135.836,-16.9448 126.318,-21.5997 136.661,-23.896 135.836,-16.9448"/>
</g>
</g>
</svg>
