<?xml version="1.0" encoding="UTF-8" standalone="no"?>
<!DOCTYPE svg PUBLIC "-//W3C//DTD SVG 1.1//EN"
 "http://www.w3.org/Graphics/SVG/1.1/DTD/svg11.dtd">
<!-- Generated by graphviz version 2.28.0 (20110507.0327)
 -->
<!-- Title: I2C::Write Pages: 1 -->
<svg width="408pt" height="47pt"
 viewBox="0.00 0.00 408.00 47.00" xmlns="http://www.w3.org/2000/svg" xmlns:xlink="http://www.w3.org/1999/xlink">
<g id="graph1" class="graph" transform="scale(1 1) rotate(0) translate(4 43)">
<title>I2C::Write</title>
<polygon fill="white" stroke="white" points="-4,5 -4,-43 405,-43 405,5 -4,5"/>
<!-- Node1 -->
<g id="node1" class="node"><title>Node1</title>
<polygon fill="#bfbfbf" stroke="black" points="0,-19.5 0,-38.5 60,-38.5 60,-19.5 0,-19.5"/>
<text text-anchor="middle" x="30" y="-26.5" font-family="Helvetica,sans-Serif" font-size="10.00">I2C::Write</text>
</g>
<!-- Node2 -->
<g id="node3" class="node"><title>Node2</title>
<a xlink:href="class_a_d_x_l345___i2_c.html#ace28299f55450a560f959cf72613489a" target="_top" xlink:title="ADXL345_I2C::ADXL345_I2C">
<polygon fill="white" stroke="black" points="258.5,-19.5 258.5,-38.5 399.5,-38.5 399.5,-19.5 258.5,-19.5"/>
<text text-anchor="middle" x="329" y="-26.5" font-family="Helvetica,sans-Serif" font-size="10.00">ADXL345_I2C::ADXL345_I2C</text>
</a>
</g>
<!-- Node1&#45;&gt;Node2 -->
<g id="edge2" class="edge"><title>Node1&#45;&gt;Node2</title>
<path fill="none" stroke="midnightblue" d="M70.2701,-29C118.123,-29 199.827,-29 258.423,-29"/>
<polygon fill="midnightblue" stroke="midnightblue" points="70.0184,-25.5001 60.0184,-29 70.0183,-32.5001 70.0184,-25.5001"/>
</g>
<!-- Node3 -->
<g id="node5" class="node"><title>Node3</title>
<a xlink:href="class_a_d_x_l345___i2_c.html#a1c123bbc51aa59863643f1d513969bc4" target="_top" xlink:title="ADXL345_I2C::SetRange">
<polygon fill="white" stroke="black" points="96.5,-0.5 96.5,-19.5 221.5,-19.5 221.5,-0.5 96.5,-0.5"/>
<text text-anchor="middle" x="159" y="-7.5" font-family="Helvetica,sans-Serif" font-size="10.00">ADXL345_I2C::SetRange</text>
</a>
</g>
<!-- Node1&#45;&gt;Node3 -->
<g id="edge4" class="edge"><title>Node1&#45;&gt;Node3</title>
<path fill="none" stroke="midnightblue" d="M70.242,-23.1292C78.536,-21.8883 87.4799,-20.5503 96.3746,-19.2195"/>
<polygon fill="midnightblue" stroke="midnightblue" points="69.5084,-19.6999 60.1364,-24.641 70.5442,-26.6228 69.5084,-19.6999"/>
</g>
<!-- Node3&#45;&gt;Node2 -->
<g id="edge6" class="edge"><title>Node3&#45;&gt;Node2</title>
<path fill="none" stroke="midnightblue" d="M231.561,-18.0932C240.473,-19.1011 249.575,-20.1305 258.455,-21.1348"/>
<polygon fill="midnightblue" stroke="midnightblue" points="231.933,-14.6131 221.603,-16.967 231.146,-21.5687 231.933,-14.6131"/>
</g>
</g>
</svg>
