<?xml version="1.0" encoding="UTF-8" standalone="no"?>
<!DOCTYPE svg PUBLIC "-//W3C//DTD SVG 1.1//EN"
 "http://www.w3.org/Graphics/SVG/1.1/DTD/svg11.dtd">
<!-- Generated by graphviz version 2.28.0 (20110507.0327)
 -->
<!-- Title: Command::TimeSinceInitialized Pages: 1 -->
<svg width="482pt" height="77pt"
 viewBox="0.00 0.00 482.00 77.00" xmlns="http://www.w3.org/2000/svg" xmlns:xlink="http://www.w3.org/1999/xlink">
<g id="graph1" class="graph" transform="scale(1 1) rotate(0) translate(4 73)">
<title>Command::TimeSinceInitialized</title>
<polygon fill="white" stroke="white" points="-4,5 -4,-73 479,-73 479,5 -4,5"/>
<!-- Node1 -->
<g id="node1" class="node"><title>Node1</title>
<polygon fill="#bfbfbf" stroke="black" points="0.5,-27.5 0.5,-46.5 153.5,-46.5 153.5,-27.5 0.5,-27.5"/>
<text text-anchor="middle" x="77" y="-34.5" font-family="Helvetica,sans-Serif" font-size="10.00">Command::TimeSinceInitialized</text>
</g>
<!-- Node2 -->
<g id="node3" class="node"><title>Node2</title>
<a xlink:href="class_command.html#ad1283feb94bb07985eaafe1586ab2ff7" target="_top" xlink:title="Command::IsTimedOut">
<polygon fill="white" stroke="black" points="190,-27.5 190,-46.5 306,-46.5 306,-27.5 190,-27.5"/>
<text text-anchor="middle" x="248" y="-34.5" font-family="Helvetica,sans-Serif" font-size="10.00">Command::IsTimedOut</text>
</a>
</g>
<!-- Node1&#45;&gt;Node2 -->
<g id="edge2" class="edge"><title>Node1&#45;&gt;Node2</title>
<path fill="none" stroke="midnightblue" d="M163.659,-37C172.578,-37 181.479,-37 189.967,-37"/>
<polygon fill="midnightblue" stroke="midnightblue" points="163.603,-33.5001 153.603,-37 163.603,-40.5001 163.603,-33.5001"/>
</g>
<!-- Node3 -->
<g id="node5" class="node"><title>Node3</title>
<a xlink:href="class_wait_command.html#a118c9fa181b03cd80969a1a2b16508a5" target="_top" xlink:title="WaitCommand::IsFinished">
<polygon fill="white" stroke="black" points="342.5,-49.5 342.5,-68.5 473.5,-68.5 473.5,-49.5 342.5,-49.5"/>
<text text-anchor="middle" x="408" y="-56.5" font-family="Helvetica,sans-Serif" font-size="10.00">WaitCommand::IsFinished</text>
</a>
</g>
<!-- Node2&#45;&gt;Node3 -->
<g id="edge4" class="edge"><title>Node2&#45;&gt;Node3</title>
<path fill="none" stroke="midnightblue" d="M316.102,-46.3434C324.771,-47.5504 333.636,-48.7847 342.265,-49.9863"/>
<polygon fill="midnightblue" stroke="midnightblue" points="316.429,-42.8551 306.042,-44.9425 315.463,-49.7882 316.429,-42.8551"/>
</g>
<!-- Node4 -->
<g id="node7" class="node"><title>Node4</title>
<a xlink:href="class_modified_mock_command.html#a52cc2a489224ec94d97145870ed3ef8c" target="_top" xlink:title="ModifiedMockCommand\l::IsFinished">
<polygon fill="white" stroke="black" points="347.5,-0 347.5,-30 468.5,-30 468.5,-0 347.5,-0"/>
<text text-anchor="start" x="355.5" y="-18" font-family="Helvetica,sans-Serif" font-size="10.00">ModifiedMockCommand</text>
<text text-anchor="middle" x="408" y="-7" font-family="Helvetica,sans-Serif" font-size="10.00">::IsFinished</text>
</a>
</g>
<!-- Node2&#45;&gt;Node4 -->
<g id="edge6" class="edge"><title>Node2&#45;&gt;Node4</title>
<path fill="none" stroke="midnightblue" d="M316.264,-27.6341C326.605,-26.1943 337.22,-24.7162 347.38,-23.3016"/>
<polygon fill="midnightblue" stroke="midnightblue" points="315.463,-24.2118 306.042,-29.0575 316.429,-31.1449 315.463,-24.2118"/>
</g>
</g>
</svg>
