<?xml version="1.0" encoding="UTF-8" standalone="no"?>
<!DOCTYPE svg PUBLIC "-//W3C//DTD SVG 1.1//EN"
 "http://www.w3.org/Graphics/SVG/1.1/DTD/svg11.dtd">
<!-- Generated by graphviz version 2.28.0 (20110507.0327)
 -->
<!-- Title: RobotBase::RobotBase Pages: 1 -->
<svg width="658pt" height="66pt"
 viewBox="0.00 0.00 658.00 66.00" xmlns="http://www.w3.org/2000/svg" xmlns:xlink="http://www.w3.org/1999/xlink">
<g id="graph1" class="graph" transform="scale(1 1) rotate(0) translate(4 62)">
<title>RobotBase::RobotBase</title>
<polygon fill="white" stroke="white" points="-4,5 -4,-62 655,-62 655,5 -4,5"/>
<!-- Node1 -->
<g id="node1" class="node"><title>Node1</title>
<polygon fill="#bfbfbf" stroke="black" points="0.5,-19.5 0.5,-38.5 119.5,-38.5 119.5,-19.5 0.5,-19.5"/>
<text text-anchor="middle" x="60" y="-26.5" font-family="Helvetica,sans-Serif" font-size="10.00">RobotBase::RobotBase</text>
</g>
<!-- Node2 -->
<g id="node3" class="node"><title>Node2</title>
<a xlink:href="class_driver_station.html#ab0995c2d3f0b40cb13ac5aff656e46d0" target="_top" xlink:title="DriverStation::GetInstance">
<polygon fill="white" stroke="black" points="156,-19.5 156,-38.5 286,-38.5 286,-19.5 156,-19.5"/>
<text text-anchor="middle" x="221" y="-26.5" font-family="Helvetica,sans-Serif" font-size="10.00">DriverStation::GetInstance</text>
</a>
</g>
<!-- Node1&#45;&gt;Node2 -->
<g id="edge2" class="edge"><title>Node1&#45;&gt;Node2</title>
<path fill="none" stroke="midnightblue" d="M119.754,-29C128.211,-29 137.004,-29 145.713,-29"/>
<polygon fill="midnightblue" stroke="midnightblue" points="145.874,-32.5001 155.874,-29 145.874,-25.5001 145.874,-32.5001"/>
</g>
<!-- Node3 -->
<g id="node5" class="node"><title>Node3</title>
<a xlink:href="class_driver_station.html#a343945cc9bbf870e0ada94b47f3fec92" target="_top" xlink:title="DriverStation::DriverStation">
<polygon fill="white" stroke="black" points="322,-19.5 322,-38.5 454,-38.5 454,-19.5 322,-19.5"/>
<text text-anchor="middle" x="388" y="-26.5" font-family="Helvetica,sans-Serif" font-size="10.00">DriverStation::DriverStation</text>
</a>
</g>
<!-- Node2&#45;&gt;Node3 -->
<g id="edge4" class="edge"><title>Node2&#45;&gt;Node3</title>
<path fill="none" stroke="midnightblue" d="M286.266,-29C294.564,-29 303.122,-29 311.58,-29"/>
<polygon fill="midnightblue" stroke="midnightblue" points="311.823,-32.5001 321.823,-29 311.823,-25.5001 311.823,-32.5001"/>
</g>
<!-- Node4 -->
<g id="node7" class="node"><title>Node4</title>
<a xlink:href="class_sensor_base.html#a97a6a31683483f3fe3f6f1d971ca9615" target="_top" xlink:title="SensorBase::AddToSingletonList">
<polygon fill="white" stroke="black" points="490,-38.5 490,-57.5 650,-57.5 650,-38.5 490,-38.5"/>
<text text-anchor="middle" x="570" y="-45.5" font-family="Helvetica,sans-Serif" font-size="10.00">SensorBase::AddToSingletonList</text>
</a>
</g>
<!-- Node3&#45;&gt;Node4 -->
<g id="edge6" class="edge"><title>Node3&#45;&gt;Node4</title>
<path fill="none" stroke="midnightblue" d="M454.239,-35.8863C462.555,-36.7641 471.177,-37.6742 479.789,-38.5833"/>
<polygon fill="midnightblue" stroke="midnightblue" points="479.564,-42.0789 489.876,-39.648 480.299,-35.1175 479.564,-42.0789"/>
</g>
<!-- Node5 -->
<g id="node9" class="node"><title>Node5</title>
<a xlink:href="class_task.html#a6e8e638dd9a8faad92e259b587ca82f8" target="_top" xlink:title="Task::Start">
<polygon fill="white" stroke="black" points="537.5,-0.5 537.5,-19.5 602.5,-19.5 602.5,-0.5 537.5,-0.5"/>
<text text-anchor="middle" x="570" y="-7.5" font-family="Helvetica,sans-Serif" font-size="10.00">Task::Start</text>
</a>
</g>
<!-- Node3&#45;&gt;Node5 -->
<g id="edge8" class="edge"><title>Node3&#45;&gt;Node5</title>
<path fill="none" stroke="midnightblue" d="M454.239,-22.1137C478.448,-19.5582 505.25,-16.7292 526.86,-14.4481"/>
<polygon fill="midnightblue" stroke="midnightblue" points="527.44,-17.9064 537.017,-13.376 526.705,-10.9451 527.44,-17.9064"/>
</g>
</g>
</svg>
