<?xml version="1.0" encoding="UTF-8" standalone="no"?>
<!DOCTYPE svg PUBLIC "-//W3C//DTD SVG 1.1//EN"
 "http://www.w3.org/Graphics/SVG/1.1/DTD/svg11.dtd">
<!-- Generated by graphviz version 2.28.0 (20110507.0327)
 -->
<!-- Title: I2C::Transaction Pages: 1 -->
<svg width="886pt" height="142pt"
 viewBox="0.00 0.00 886.00 142.00" xmlns="http://www.w3.org/2000/svg" xmlns:xlink="http://www.w3.org/1999/xlink">
<g id="graph1" class="graph" transform="scale(1 1) rotate(0) translate(4 138)">
<title>I2C::Transaction</title>
<polygon fill="white" stroke="white" points="-4,5 -4,-138 883,-138 883,5 -4,5"/>
<!-- Node1 -->
<g id="node1" class="node"><title>Node1</title>
<polygon fill="#bfbfbf" stroke="black" points="0.5,-57.5 0.5,-76.5 87.5,-76.5 87.5,-57.5 0.5,-57.5"/>
<text text-anchor="middle" x="44" y="-64.5" font-family="Helvetica,sans-Serif" font-size="10.00">I2C::Transaction</text>
</g>
<!-- Node2 -->
<g id="node3" class="node"><title>Node2</title>
<a xlink:href="class_i2_c.html#a8aaad56f53bdbc0817a6d70ce0361fcd" target="_top" xlink:title="I2C::AddressOnly">
<polygon fill="white" stroke="black" points="124.5,-76.5 124.5,-95.5 217.5,-95.5 217.5,-76.5 124.5,-76.5"/>
<text text-anchor="middle" x="171" y="-83.5" font-family="Helvetica,sans-Serif" font-size="10.00">I2C::AddressOnly</text>
</a>
</g>
<!-- Node1&#45;&gt;Node2 -->
<g id="edge2" class="edge"><title>Node1&#45;&gt;Node2</title>
<path fill="none" stroke="midnightblue" d="M97.779,-75.0224C106.53,-76.3526 115.542,-77.7223 124.105,-79.0239"/>
<polygon fill="midnightblue" stroke="midnightblue" points="98.0807,-71.5281 87.6683,-73.4856 97.0288,-78.4487 98.0807,-71.5281"/>
</g>
<!-- Node3 -->
<g id="node5" class="node"><title>Node3</title>
<a xlink:href="class_i2_c.html#a4115857de2e0675f0483787933be0552" target="_top" xlink:title="I2C::Read">
<polygon fill="white" stroke="black" points="141.5,-38.5 141.5,-57.5 200.5,-57.5 200.5,-38.5 141.5,-38.5"/>
<text text-anchor="middle" x="171" y="-45.5" font-family="Helvetica,sans-Serif" font-size="10.00">I2C::Read</text>
</a>
</g>
<!-- Node1&#45;&gt;Node3 -->
<g id="edge4" class="edge"><title>Node1&#45;&gt;Node3</title>
<path fill="none" stroke="midnightblue" d="M97.8203,-58.9713C112.72,-56.7066 128.372,-54.3275 141.277,-52.3659"/>
<polygon fill="midnightblue" stroke="midnightblue" points="97.0288,-55.5513 87.6683,-60.5144 98.0807,-62.4719 97.0288,-55.5513"/>
</g>
<!-- Node4 -->
<g id="node7" class="node"><title>Node4</title>
<a xlink:href="class_a_d_x_l345___i2_c.html#abc3a0bb889882e01cee781e3ab33af84" target="_top" xlink:title="ADXL345_I2C::GetAcceleration">
<polygon fill="white" stroke="black" points="257,-76.5 257,-95.5 409,-95.5 409,-76.5 257,-76.5"/>
<text text-anchor="middle" x="333" y="-83.5" font-family="Helvetica,sans-Serif" font-size="10.00">ADXL345_I2C::GetAcceleration</text>
</a>
</g>
<!-- Node3&#45;&gt;Node4 -->
<g id="edge6" class="edge"><title>Node3&#45;&gt;Node4</title>
<path fill="none" stroke="midnightblue" d="M210.337,-57.1051C234.982,-62.9583 266.944,-70.5493 291.924,-76.4819"/>
<polygon fill="midnightblue" stroke="midnightblue" points="211.143,-53.6992 200.605,-54.7936 209.525,-60.5097 211.143,-53.6992"/>
</g>
<!-- Node10 -->
<g id="node21" class="node"><title>Node10</title>
<a xlink:href="class_a_d_x_l345___i2_c.html#a6c36866e36c57e3aefd9ddc5685bcb2a" target="_top" xlink:title="ADXL345_I2C::GetAccelerations">
<polygon fill="white" stroke="black" points="254.5,-38.5 254.5,-57.5 411.5,-57.5 411.5,-38.5 254.5,-38.5"/>
<text text-anchor="middle" x="333" y="-45.5" font-family="Helvetica,sans-Serif" font-size="10.00">ADXL345_I2C::GetAccelerations</text>
</a>
</g>
<!-- Node3&#45;&gt;Node10 -->
<g id="edge22" class="edge"><title>Node3&#45;&gt;Node10</title>
<path fill="none" stroke="midnightblue" d="M210.685,-48C223.856,-48 239.087,-48 254.212,-48"/>
<polygon fill="midnightblue" stroke="midnightblue" points="210.605,-44.5001 200.605,-48 210.605,-51.5001 210.605,-44.5001"/>
</g>
<!-- Node11 -->
<g id="node23" class="node"><title>Node11</title>
<a xlink:href="class_i2_c.html#a80a28dc253e11a347bc735212ea4cf00" target="_top" xlink:title="I2C::VerifySensor">
<polygon fill="white" stroke="black" points="287,-0.5 287,-19.5 379,-19.5 379,-0.5 287,-0.5"/>
<text text-anchor="middle" x="333" y="-7.5" font-family="Helvetica,sans-Serif" font-size="10.00">I2C::VerifySensor</text>
</a>
</g>
<!-- Node3&#45;&gt;Node11 -->
<g id="edge24" class="edge"><title>Node3&#45;&gt;Node11</title>
<path fill="none" stroke="midnightblue" d="M210.337,-38.8949C234.982,-33.0417 266.944,-25.4507 291.924,-19.5181"/>
<polygon fill="midnightblue" stroke="midnightblue" points="209.525,-35.4903 200.605,-41.2064 211.143,-42.3008 209.525,-35.4903"/>
</g>
<!-- Node5 -->
<g id="node9" class="node"><title>Node5</title>
<a xlink:href="class_a_d_x_l345___i2_c.html#a4606027648ba713e43482308b01f54fa" target="_top" xlink:title="ADXL345_I2C::GetX">
<polygon fill="white" stroke="black" points="448.5,-114.5 448.5,-133.5 551.5,-133.5 551.5,-114.5 448.5,-114.5"/>
<text text-anchor="middle" x="500" y="-121.5" font-family="Helvetica,sans-Serif" font-size="10.00">ADXL345_I2C::GetX</text>
</a>
</g>
<!-- Node4&#45;&gt;Node5 -->
<g id="edge8" class="edge"><title>Node4&#45;&gt;Node5</title>
<path fill="none" stroke="midnightblue" d="M385.654,-97.8961C408.846,-103.237 435.838,-109.454 457.663,-114.48"/>
<polygon fill="midnightblue" stroke="midnightblue" points="386.167,-94.4226 375.636,-95.589 384.596,-101.244 386.167,-94.4226"/>
</g>
<!-- Node8 -->
<g id="node15" class="node"><title>Node8</title>
<a xlink:href="class_a_d_x_l345___i2_c.html#aa42d83f295dcc41a7ba3b510ba6ad594" target="_top" xlink:title="ADXL345_I2C::GetY">
<polygon fill="white" stroke="black" points="448,-76.5 448,-95.5 552,-95.5 552,-76.5 448,-76.5"/>
<text text-anchor="middle" x="500" y="-83.5" font-family="Helvetica,sans-Serif" font-size="10.00">ADXL345_I2C::GetY</text>
</a>
</g>
<!-- Node4&#45;&gt;Node8 -->
<g id="edge14" class="edge"><title>Node4&#45;&gt;Node8</title>
<path fill="none" stroke="midnightblue" d="M419.407,-86C429.15,-86 438.838,-86 447.928,-86"/>
<polygon fill="midnightblue" stroke="midnightblue" points="419.257,-82.5001 409.257,-86 419.257,-89.5001 419.257,-82.5001"/>
</g>
<!-- Node9 -->
<g id="node18" class="node"><title>Node9</title>
<a xlink:href="class_a_d_x_l345___i2_c.html#a772d16004a9f5e67ed391426b88f6d43" target="_top" xlink:title="ADXL345_I2C::GetZ">
<polygon fill="white" stroke="black" points="448.5,-38.5 448.5,-57.5 551.5,-57.5 551.5,-38.5 448.5,-38.5"/>
<text text-anchor="middle" x="500" y="-45.5" font-family="Helvetica,sans-Serif" font-size="10.00">ADXL345_I2C::GetZ</text>
</a>
</g>
<!-- Node4&#45;&gt;Node9 -->
<g id="edge18" class="edge"><title>Node4&#45;&gt;Node9</title>
<path fill="none" stroke="midnightblue" d="M385.654,-74.1039C408.846,-68.7626 435.838,-62.5463 457.663,-57.5201"/>
<polygon fill="midnightblue" stroke="midnightblue" points="384.596,-70.7559 375.636,-76.411 386.167,-77.5774 384.596,-70.7559"/>
</g>
<!-- Node6 -->
<g id="node11" class="node"><title>Node6</title>
<a xlink:href="class_a_d_x_l345___i2_c.html#ab52c386de90495ec8f825262281daeaf" target="_top" xlink:title="ADXL345_I2C::UpdateTable">
<polygon fill="white" stroke="black" points="588,-76.5 588,-95.5 724,-95.5 724,-76.5 588,-76.5"/>
<text text-anchor="middle" x="656" y="-83.5" font-family="Helvetica,sans-Serif" font-size="10.00">ADXL345_I2C::UpdateTable</text>
</a>
</g>
<!-- Node5&#45;&gt;Node6 -->
<g id="edge10" class="edge"><title>Node5&#45;&gt;Node6</title>
<path fill="none" stroke="midnightblue" d="M549.794,-111.96C571.308,-106.651 596.232,-100.501 616.419,-95.5201"/>
<polygon fill="midnightblue" stroke="midnightblue" points="548.731,-108.617 539.861,-114.411 550.408,-115.413 548.731,-108.617"/>
</g>
<!-- Node7 -->
<g id="node13" class="node"><title>Node7</title>
<a xlink:href="class_a_d_x_l345___i2_c.html#ac215d496f38ea298a9c6d7a226dfcd0c" target="_top" xlink:title="ADXL345_I2C::InitTable">
<polygon fill="white" stroke="black" points="760,-76.5 760,-95.5 878,-95.5 878,-76.5 760,-76.5"/>
<text text-anchor="middle" x="819" y="-83.5" font-family="Helvetica,sans-Serif" font-size="10.00">ADXL345_I2C::InitTable</text>
</a>
</g>
<!-- Node6&#45;&gt;Node7 -->
<g id="edge12" class="edge"><title>Node6&#45;&gt;Node7</title>
<path fill="none" stroke="midnightblue" d="M734.375,-86C742.957,-86 751.586,-86 759.872,-86"/>
<polygon fill="midnightblue" stroke="midnightblue" points="734.346,-82.5001 724.346,-86 734.346,-89.5001 734.346,-82.5001"/>
</g>
<!-- Node8&#45;&gt;Node6 -->
<g id="edge16" class="edge"><title>Node8&#45;&gt;Node6</title>
<path fill="none" stroke="midnightblue" d="M562.328,-86C570.693,-86 579.316,-86 587.779,-86"/>
<polygon fill="midnightblue" stroke="midnightblue" points="562.28,-82.5001 552.28,-86 562.28,-89.5001 562.28,-82.5001"/>
</g>
<!-- Node9&#45;&gt;Node6 -->
<g id="edge20" class="edge"><title>Node9&#45;&gt;Node6</title>
<path fill="none" stroke="midnightblue" d="M549.794,-60.04C571.308,-65.3488 596.232,-71.4988 616.419,-76.4799"/>
<polygon fill="midnightblue" stroke="midnightblue" points="550.408,-56.5867 539.861,-57.589 548.731,-63.3828 550.408,-56.5867"/>
</g>
</g>
</svg>
