<?xml version="1.0" encoding="UTF-8" standalone="no"?>
<!DOCTYPE svg PUBLIC "-//W3C//DTD SVG 1.1//EN"
 "http://www.w3.org/Graphics/SVG/1.1/DTD/svg11.dtd">
<!-- Generated by graphviz version 2.28.0 (20110507.0327)
 -->
<!-- Title: SafePWM Pages: 1 -->
<svg width="300pt" height="280pt"
 viewBox="0.00 0.00 300.00 280.00" xmlns="http://www.w3.org/2000/svg" xmlns:xlink="http://www.w3.org/1999/xlink">
<g id="graph1" class="graph" transform="scale(1 1) rotate(0) translate(4 276)">
<title>SafePWM</title>
<polygon fill="white" stroke="white" points="-4,5 -4,-276 297,-276 297,5 -4,5"/>
<!-- Node1 -->
<g id="node1" class="node"><title>Node1</title>
<polygon fill="#bfbfbf" stroke="black" points="132.5,-0.5 132.5,-19.5 193.5,-19.5 193.5,-0.5 132.5,-0.5"/>
<text text-anchor="middle" x="163" y="-7.5" font-family="Helvetica,sans-Serif" font-size="10.00">SafePWM</text>
</g>
<!-- Node2 -->
<g id="node2" class="node"><title>Node2</title>
<a xlink:href="class_p_w_m.html" target="_top" xlink:title="PWM">
<polygon fill="white" stroke="black" points="106.5,-58.5 106.5,-77.5 147.5,-77.5 147.5,-58.5 106.5,-58.5"/>
<text text-anchor="middle" x="127" y="-65.5" font-family="Helvetica,sans-Serif" font-size="10.00">PWM</text>
</a>
</g>
<!-- Node2&#45;&gt;Node1 -->
<g id="edge2" class="edge"><title>Node2&#45;&gt;Node1</title>
<path fill="none" stroke="midnightblue" d="M132.105,-49.2043C137.646,-39.2734 145.747,-27.3584 152.523,-19.5052"/>
<polygon fill="midnightblue" stroke="midnightblue" points="128.923,-47.7428 127.563,-58.25 135.178,-50.8845 128.923,-47.7428"/>
</g>
<!-- Node2&#45;&gt;Node1 -->
<g id="edge24" class="edge"><title>Node2&#45;&gt;Node1</title>
<path fill="none" stroke="midnightblue" d="M144.097,-50.1293C151.548,-40.022 159.117,-27.6038 162.542,-19.5052"/>
<polygon fill="midnightblue" stroke="midnightblue" points="141.136,-48.232 137.688,-58.25 146.631,-52.569 141.136,-48.232"/>
</g>
<!-- Node3 -->
<g id="node4" class="node"><title>Node3</title>
<a xlink:href="class_sensor_base.html" target="_top" xlink:title="SensorBase">
<polygon fill="white" stroke="black" points="0,-116.5 0,-135.5 70,-135.5 70,-116.5 0,-116.5"/>
<text text-anchor="middle" x="35" y="-123.5" font-family="Helvetica,sans-Serif" font-size="10.00">SensorBase</text>
</a>
</g>
<!-- Node3&#45;&gt;Node2 -->
<g id="edge4" class="edge"><title>Node3&#45;&gt;Node2</title>
<path fill="none" stroke="midnightblue" d="M52.3837,-110.789C68.2866,-100.317 91.4379,-86.4147 107.869,-77.5852"/>
<polygon fill="midnightblue" stroke="midnightblue" points="50.2787,-107.988 43.9635,-116.495 54.2053,-113.783 50.2787,-107.988"/>
</g>
<!-- Node3&#45;&gt;Node2 -->
<g id="edge16" class="edge"><title>Node3&#45;&gt;Node2</title>
<path fill="none" stroke="midnightblue" d="M62.7615,-111.662C81.5438,-101.101 104.99,-86.6622 117.923,-77.5852"/>
<polygon fill="midnightblue" stroke="midnightblue" points="61.0547,-108.606 53.9822,-116.495 64.4304,-114.738 61.0547,-108.606"/>
</g>
<!-- Node4 -->
<g id="node6" class="node"><title>Node4</title>
<a xlink:href="class_error_base.html" target="_top" xlink:title="ErrorBase">
<polygon fill="white" stroke="black" points="5,-174.5 5,-193.5 65,-193.5 65,-174.5 5,-174.5"/>
<text text-anchor="middle" x="35" y="-181.5" font-family="Helvetica,sans-Serif" font-size="10.00">ErrorBase</text>
</a>
</g>
<!-- Node4&#45;&gt;Node3 -->
<g id="edge6" class="edge"><title>Node4&#45;&gt;Node3</title>
<path fill="none" stroke="midnightblue" d="M35,-163.953C35,-154.287 35,-143.031 35,-135.505"/>
<polygon fill="midnightblue" stroke="midnightblue" points="31.5001,-164.25 35,-174.25 38.5001,-164.25 31.5001,-164.25"/>
</g>
<!-- Node5 -->
<g id="node8" class="node"><title>Node5</title>
<a xlink:href="class_error.html" target="_top" xlink:title="Error">
<polygon fill="white" stroke="black" points="16,-252.5 16,-271.5 54,-271.5 54,-252.5 16,-252.5"/>
<text text-anchor="middle" x="35" y="-259.5" font-family="Helvetica,sans-Serif" font-size="10.00">Error</text>
</a>
</g>
<!-- Node5&#45;&gt;Node4 -->
<g id="edge8" class="edge"><title>Node5&#45;&gt;Node4</title>
<path fill="none" stroke="#9a32cd" stroke-dasharray="5,2" d="M35,-242.224C35,-226.697 35,-205.358 35,-193.616"/>
<polygon fill="#9a32cd" stroke="#9a32cd" points="31.5001,-242.282 35,-252.282 38.5001,-242.282 31.5001,-242.282"/>
<text text-anchor="middle" x="62.5" y="-226" font-family="Helvetica,sans-Serif" font-size="10.00"> _globalError</text>
<text text-anchor="middle" x="62.5" y="-215" font-family="Helvetica,sans-Serif" font-size="10.00">m_error</text>
</g>
<!-- Node6 -->
<g id="node10" class="node"><title>Node6</title>
<polygon fill="white" stroke="#bfbfbf" points="88.5,-116.5 88.5,-135.5 165.5,-135.5 165.5,-116.5 88.5,-116.5"/>
<text text-anchor="middle" x="127" y="-123.5" font-family="Helvetica,sans-Serif" font-size="10.00">ITableListener</text>
</g>
<!-- Node6&#45;&gt;Node2 -->
<g id="edge10" class="edge"><title>Node6&#45;&gt;Node2</title>
<path fill="none" stroke="midnightblue" d="M120.59,-106.268C119.85,-96.5326 120.317,-85.113 121.991,-77.5052"/>
<polygon fill="midnightblue" stroke="midnightblue" points="117.131,-106.808 121.938,-116.25 124.068,-105.872 117.131,-106.808"/>
</g>
<!-- Node6&#45;&gt;Node2 -->
<g id="edge18" class="edge"><title>Node6&#45;&gt;Node2</title>
<path fill="none" stroke="midnightblue" d="M133.41,-106.268C134.15,-96.5326 133.683,-85.113 132.009,-77.5052"/>
<polygon fill="midnightblue" stroke="midnightblue" points="129.932,-105.872 132.063,-116.25 136.869,-106.808 129.932,-105.872"/>
</g>
<!-- Node7 -->
<g id="node12" class="node"><title>Node7</title>
<a xlink:href="class_live_window_sendable.html" target="_top" xlink:title="LiveWindowSendable">
<polygon fill="white" stroke="black" points="184,-116.5 184,-135.5 292,-135.5 292,-116.5 184,-116.5"/>
<text text-anchor="middle" x="238" y="-123.5" font-family="Helvetica,sans-Serif" font-size="10.00">LiveWindowSendable</text>
</a>
</g>
<!-- Node7&#45;&gt;Node2 -->
<g id="edge12" class="edge"><title>Node7&#45;&gt;Node2</title>
<path fill="none" stroke="midnightblue" d="M206.927,-112.234C184.382,-101.627 155.294,-86.8273 138.99,-77.5852"/>
<polygon fill="midnightblue" stroke="midnightblue" points="205.587,-115.471 216.132,-116.495 208.527,-109.118 205.587,-115.471"/>
</g>
<!-- Node7&#45;&gt;Node2 -->
<g id="edge20" class="edge"><title>Node7&#45;&gt;Node2</title>
<path fill="none" stroke="midnightblue" d="M217.244,-111.571C197.346,-100.803 167.783,-86.0493 147.839,-77.0393"/>
<polygon fill="midnightblue" stroke="midnightblue" points="215.706,-114.72 226.151,-116.495 219.092,-108.594 215.706,-114.72"/>
</g>
<!-- Node8 -->
<g id="node14" class="node"><title>Node8</title>
<a xlink:href="class_sendable.html" target="_top" xlink:title="Sendable">
<polygon fill="white" stroke="black" points="209.5,-174.5 209.5,-193.5 266.5,-193.5 266.5,-174.5 209.5,-174.5"/>
<text text-anchor="middle" x="238" y="-181.5" font-family="Helvetica,sans-Serif" font-size="10.00">Sendable</text>
</a>
</g>
<!-- Node8&#45;&gt;Node7 -->
<g id="edge14" class="edge"><title>Node8&#45;&gt;Node7</title>
<path fill="none" stroke="midnightblue" d="M238,-163.953C238,-154.287 238,-143.031 238,-135.505"/>
<polygon fill="midnightblue" stroke="midnightblue" points="234.5,-164.25 238,-174.25 241.5,-164.25 234.5,-164.25"/>
</g>
<!-- Node9 -->
<g id="node19" class="node"><title>Node9</title>
<a xlink:href="class_motor_safety.html" target="_top" xlink:title="MotorSafety">
<polygon fill="white" stroke="black" points="165.5,-58.5 165.5,-77.5 234.5,-77.5 234.5,-58.5 165.5,-58.5"/>
<text text-anchor="middle" x="200" y="-65.5" font-family="Helvetica,sans-Serif" font-size="10.00">MotorSafety</text>
</a>
</g>
<!-- Node9&#45;&gt;Node1 -->
<g id="edge22" class="edge"><title>Node9&#45;&gt;Node1</title>
<path fill="none" stroke="midnightblue" d="M182.833,-50.4349C175.128,-40.2733 167.216,-27.6856 163.61,-19.5052"/>
<polygon fill="midnightblue" stroke="midnightblue" points="180.145,-52.6777 189.156,-58.25 185.587,-48.2745 180.145,-52.6777"/>
</g>
<!-- Node9&#45;&gt;Node1 -->
<g id="edge26" class="edge"><title>Node9&#45;&gt;Node1</title>
<path fill="none" stroke="midnightblue" d="M194.577,-49.2043C188.859,-39.2734 180.545,-27.3584 173.629,-19.5052"/>
<polygon fill="midnightblue" stroke="midnightblue" points="191.562,-50.993 199.281,-58.25 197.772,-47.7632 191.562,-50.993"/>
</g>
</g>
</svg>
