<?xml version="1.0" encoding="UTF-8" standalone="no"?>
<!DOCTYPE svg PUBLIC "-//W3C//DTD SVG 1.1//EN"
 "http://www.w3.org/Graphics/SVG/1.1/DTD/svg11.dtd">
<!-- Generated by graphviz version 2.28.0 (20110507.0327)
 -->
<!-- Title: AnalogInput::GetLSBWeight Pages: 1 -->
<svg width="536pt" height="104pt"
 viewBox="0.00 0.00 536.00 104.00" xmlns="http://www.w3.org/2000/svg" xmlns:xlink="http://www.w3.org/1999/xlink">
<g id="graph1" class="graph" transform="scale(1 1) rotate(0) translate(4 100)">
<title>AnalogInput::GetLSBWeight</title>
<polygon fill="white" stroke="white" points="-4,5 -4,-100 533,-100 533,5 -4,5"/>
<!-- Node1 -->
<g id="node1" class="node"><title>Node1</title>
<polygon fill="#bfbfbf" stroke="black" points="0.5,-38.5 0.5,-57.5 139.5,-57.5 139.5,-38.5 0.5,-38.5"/>
<text text-anchor="middle" x="70" y="-45.5" font-family="Helvetica,sans-Serif" font-size="10.00">AnalogInput::GetLSBWeight</text>
</g>
<!-- Node2 -->
<g id="node3" class="node"><title>Node2</title>
<a xlink:href="class_gyro.html#a37c29b42b58b90fe1ed11f04c2635d4f" target="_top" xlink:title="Gyro::GetAngle">
<polygon fill="white" stroke="black" points="185,-38.5 185,-57.5 269,-57.5 269,-38.5 185,-38.5"/>
<text text-anchor="middle" x="227" y="-45.5" font-family="Helvetica,sans-Serif" font-size="10.00">Gyro::GetAngle</text>
</a>
</g>
<!-- Node1&#45;&gt;Node2 -->
<g id="edge2" class="edge"><title>Node1&#45;&gt;Node2</title>
<path fill="none" stroke="midnightblue" d="M150.009,-48C162.075,-48 174.092,-48 184.89,-48"/>
<polygon fill="midnightblue" stroke="midnightblue" points="149.888,-44.5001 139.888,-48 149.888,-51.5001 149.888,-44.5001"/>
</g>
<!-- Node6 -->
<g id="node11" class="node"><title>Node6</title>
<a xlink:href="class_gyro.html#ae5da50d9e7d6cf3ddd87744f4b797e7a" target="_top" xlink:title="Gyro::GetRate">
<polygon fill="white" stroke="black" points="187,-76.5 187,-95.5 267,-95.5 267,-76.5 187,-76.5"/>
<text text-anchor="middle" x="227" y="-83.5" font-family="Helvetica,sans-Serif" font-size="10.00">Gyro::GetRate</text>
</a>
</g>
<!-- Node1&#45;&gt;Node6 -->
<g id="edge10" class="edge"><title>Node1&#45;&gt;Node6</title>
<path fill="none" stroke="midnightblue" d="M120.111,-60.04C141.765,-65.3488 166.85,-71.4988 187.168,-76.4799"/>
<polygon fill="midnightblue" stroke="midnightblue" points="120.659,-56.5708 110.113,-57.589 118.992,-63.3695 120.659,-56.5708"/>
</g>
<!-- Node7 -->
<g id="node14" class="node"><title>Node7</title>
<a xlink:href="class_gyro.html#a579957af7a1f693cde4b85c48e85ef7a" target="_top" xlink:title="Gyro::SetDeadband">
<polygon fill="white" stroke="black" points="176,-0.5 176,-19.5 278,-19.5 278,-0.5 176,-0.5"/>
<text text-anchor="middle" x="227" y="-7.5" font-family="Helvetica,sans-Serif" font-size="10.00">Gyro::SetDeadband</text>
</a>
</g>
<!-- Node1&#45;&gt;Node7 -->
<g id="edge14" class="edge"><title>Node1&#45;&gt;Node7</title>
<path fill="none" stroke="midnightblue" d="M120.111,-35.96C141.765,-30.6512 166.85,-24.5012 187.168,-19.5201"/>
<polygon fill="midnightblue" stroke="midnightblue" points="118.992,-32.6305 110.113,-38.411 120.659,-39.4292 118.992,-32.6305"/>
</g>
<!-- Node3 -->
<g id="node5" class="node"><title>Node3</title>
<a xlink:href="class_gyro.html#aca619c0201c5fb85e2bbaeef0f39e8e6" target="_top" xlink:title="Gyro::PIDGet">
<polygon fill="white" stroke="black" points="325.5,-76.5 325.5,-95.5 400.5,-95.5 400.5,-76.5 325.5,-76.5"/>
<text text-anchor="middle" x="363" y="-83.5" font-family="Helvetica,sans-Serif" font-size="10.00">Gyro::PIDGet</text>
</a>
</g>
<!-- Node2&#45;&gt;Node3 -->
<g id="edge4" class="edge"><title>Node2&#45;&gt;Node3</title>
<path fill="none" stroke="midnightblue" d="M271.438,-60.3183C289.849,-65.5393 310.98,-71.5316 328.197,-76.4141"/>
<polygon fill="midnightblue" stroke="midnightblue" points="272.389,-56.9501 261.814,-57.589 270.48,-63.6845 272.389,-56.9501"/>
</g>
<!-- Node4 -->
<g id="node7" class="node"><title>Node4</title>
<a xlink:href="class_gyro.html#ad0113532a29eccdbe514eaae2002012c" target="_top" xlink:title="Gyro::UpdateTable">
<polygon fill="white" stroke="black" points="314,-38.5 314,-57.5 412,-57.5 412,-38.5 314,-38.5"/>
<text text-anchor="middle" x="363" y="-45.5" font-family="Helvetica,sans-Serif" font-size="10.00">Gyro::UpdateTable</text>
</a>
</g>
<!-- Node2&#45;&gt;Node4 -->
<g id="edge6" class="edge"><title>Node2&#45;&gt;Node4</title>
<path fill="none" stroke="midnightblue" d="M279.39,-48C290.611,-48 302.451,-48 313.553,-48"/>
<polygon fill="midnightblue" stroke="midnightblue" points="279.298,-44.5001 269.298,-48 279.298,-51.5001 279.298,-44.5001"/>
</g>
<!-- Node5 -->
<g id="node9" class="node"><title>Node5</title>
<a xlink:href="class_gyro.html#ae00778b633c9c62f6a54039f544125d3" target="_top" xlink:title="Gyro::InitTable">
<polygon fill="white" stroke="black" points="448,-38.5 448,-57.5 528,-57.5 528,-38.5 448,-38.5"/>
<text text-anchor="middle" x="488" y="-45.5" font-family="Helvetica,sans-Serif" font-size="10.00">Gyro::InitTable</text>
</a>
</g>
<!-- Node4&#45;&gt;Node5 -->
<g id="edge8" class="edge"><title>Node4&#45;&gt;Node5</title>
<path fill="none" stroke="midnightblue" d="M422.376,-48C431.061,-48 439.83,-48 447.987,-48"/>
<polygon fill="midnightblue" stroke="midnightblue" points="422.26,-44.5001 412.26,-48 422.26,-51.5001 422.26,-44.5001"/>
</g>
<!-- Node6&#45;&gt;Node3 -->
<g id="edge12" class="edge"><title>Node6&#45;&gt;Node3</title>
<path fill="none" stroke="midnightblue" d="M277.318,-86C293.216,-86 310.544,-86 325.36,-86"/>
<polygon fill="midnightblue" stroke="midnightblue" points="277.119,-82.5001 267.119,-86 277.119,-89.5001 277.119,-82.5001"/>
</g>
<!-- Node8 -->
<g id="node16" class="node"><title>Node8</title>
<a xlink:href="class_gyro.html#ae26b1bacc0c5a4e1f9d85836fcb90736" target="_top" xlink:title="Gyro::InitGyro">
<polygon fill="white" stroke="black" points="324.5,-0.5 324.5,-19.5 401.5,-19.5 401.5,-0.5 324.5,-0.5"/>
<text text-anchor="middle" x="363" y="-7.5" font-family="Helvetica,sans-Serif" font-size="10.00">Gyro::InitGyro</text>
</a>
</g>
<!-- Node7&#45;&gt;Node8 -->
<g id="edge16" class="edge"><title>Node7&#45;&gt;Node8</title>
<path fill="none" stroke="midnightblue" d="M288.459,-10C300.706,-10 313.247,-10 324.424,-10"/>
<polygon fill="midnightblue" stroke="midnightblue" points="288.278,-6.5001 278.278,-10 288.278,-13.5001 288.278,-6.5001"/>
</g>
<!-- Node9 -->
<g id="node18" class="node"><title>Node9</title>
<a xlink:href="class_gyro.html#a06521f58180be9e342d941643f9b2491" target="_top" xlink:title="Gyro::Gyro">
<polygon fill="white" stroke="black" points="455.5,-0.5 455.5,-19.5 520.5,-19.5 520.5,-0.5 455.5,-0.5"/>
<text text-anchor="middle" x="488" y="-7.5" font-family="Helvetica,sans-Serif" font-size="10.00">Gyro::Gyro</text>
</a>
</g>
<!-- Node8&#45;&gt;Node9 -->
<g id="edge18" class="edge"><title>Node8&#45;&gt;Node9</title>
<path fill="none" stroke="midnightblue" d="M411.963,-10C426.561,-10 442.23,-10 455.454,-10"/>
<polygon fill="midnightblue" stroke="midnightblue" points="411.572,-6.5001 401.572,-10 411.572,-13.5001 411.572,-6.5001"/>
</g>
</g>
</svg>
