<?xml version="1.0" encoding="UTF-8" standalone="no"?>
<!DOCTYPE svg PUBLIC "-//W3C//DTD SVG 1.1//EN"
 "http://www.w3.org/Graphics/SVG/1.1/DTD/svg11.dtd">
<!-- Generated by graphviz version 2.28.0 (20110507.0327)
 -->
<!-- Title: PWM::SetPosition Pages: 1 -->
<svg width="228pt" height="66pt"
 viewBox="0.00 0.00 228.00 66.00" xmlns="http://www.w3.org/2000/svg" xmlns:xlink="http://www.w3.org/1999/xlink">
<g id="graph1" class="graph" transform="scale(1 1) rotate(0) translate(4 62)">
<title>PWM::SetPosition</title>
<polygon fill="white" stroke="white" points="-4,5 -4,-62 225,-62 225,5 -4,5"/>
<!-- Node1 -->
<g id="node1" class="node"><title>Node1</title>
<polygon fill="#bfbfbf" stroke="black" points="0,-19.5 0,-38.5 98,-38.5 98,-19.5 0,-19.5"/>
<text text-anchor="middle" x="49" y="-26.5" font-family="Helvetica,sans-Serif" font-size="10.00">PWM::SetPosition</text>
</g>
<!-- Node2 -->
<g id="node3" class="node"><title>Node2</title>
<a xlink:href="class_servo.html#a9ab93d2e70c8be9d2599aa225a6f8610" target="_top" xlink:title="Servo::Set">
<polygon fill="white" stroke="black" points="146,-38.5 146,-57.5 208,-57.5 208,-38.5 146,-38.5"/>
<text text-anchor="middle" x="177" y="-45.5" font-family="Helvetica,sans-Serif" font-size="10.00">Servo::Set</text>
</a>
</g>
<!-- Node1&#45;&gt;Node2 -->
<g id="edge2" class="edge"><title>Node1&#45;&gt;Node2</title>
<path fill="none" stroke="midnightblue" d="M108.591,-37.8352C121.473,-39.7777 134.602,-41.7575 145.81,-43.4475"/>
<polygon fill="midnightblue" stroke="midnightblue" points="108.765,-34.3218 98.3545,-36.2916 107.721,-41.2436 108.765,-34.3218"/>
</g>
<!-- Node3 -->
<g id="node5" class="node"><title>Node3</title>
<a xlink:href="class_servo.html#a0046f9431e42de3fe63f8ce1b3995eb5" target="_top" xlink:title="Servo::SetAngle">
<polygon fill="white" stroke="black" points="134,-0.5 134,-19.5 220,-19.5 220,-0.5 134,-0.5"/>
<text text-anchor="middle" x="177" y="-7.5" font-family="Helvetica,sans-Serif" font-size="10.00">Servo::SetAngle</text>
</a>
</g>
<!-- Node1&#45;&gt;Node3 -->
<g id="edge4" class="edge"><title>Node1&#45;&gt;Node3</title>
<path fill="none" stroke="midnightblue" d="M108.322,-20.2054C116.89,-18.9133 125.575,-17.6037 133.737,-16.373"/>
<polygon fill="midnightblue" stroke="midnightblue" points="107.721,-16.7564 98.3545,-21.7084 108.765,-23.6782 107.721,-16.7564"/>
</g>
</g>
</svg>
