<?xml version="1.0" encoding="UTF-8" standalone="no"?>
<!DOCTYPE svg PUBLIC "-//W3C//DTD SVG 1.1//EN"
 "http://www.w3.org/Graphics/SVG/1.1/DTD/svg11.dtd">
<!-- Generated by graphviz version 2.28.0 (20110507.0327)
 -->
<!-- Title: Joystick Pages: 1 -->
<svg width="152pt" height="84pt"
 viewBox="0.00 0.00 152.00 84.00" xmlns="http://www.w3.org/2000/svg" xmlns:xlink="http://www.w3.org/1999/xlink">
<g id="graph1" class="graph" transform="scale(1 1) rotate(0) translate(4 80)">
<title>Joystick</title>
<polygon fill="white" stroke="white" points="-4,5 -4,-80 149,-80 149,5 -4,5"/>
<!-- Node1 -->
<g id="node1" class="node"><title>Node1</title>
<polygon fill="#bfbfbf" stroke="black" points="46.5,-0.5 46.5,-19.5 99.5,-19.5 99.5,-0.5 46.5,-0.5"/>
<text text-anchor="middle" x="73" y="-7.5" font-family="Helvetica,sans-Serif" font-size="10.00">Joystick</text>
</g>
<!-- Node2 -->
<g id="node2" class="node"><title>Node2</title>
<a xlink:href="class_generic_h_i_d.html" target="_top" xlink:title="GenericHID">
<polygon fill="white" stroke="black" points="0,-56.5 0,-75.5 66,-75.5 66,-56.5 0,-56.5"/>
<text text-anchor="middle" x="33" y="-63.5" font-family="Helvetica,sans-Serif" font-size="10.00">GenericHID</text>
</a>
</g>
<!-- Node2&#45;&gt;Node1 -->
<g id="edge2" class="edge"><title>Node2&#45;&gt;Node1</title>
<path fill="none" stroke="midnightblue" d="M39.747,-47.2747C45.8247,-38.0454 54.2976,-27.1703 61.3867,-19.7511"/>
<polygon fill="midnightblue" stroke="midnightblue" points="36.6027,-45.7115 34.4389,-56.083 42.5982,-49.3246 36.6027,-45.7115"/>
</g>
<!-- Node2&#45;&gt;Node1 -->
<g id="edge6" class="edge"><title>Node2&#45;&gt;Node1</title>
<path fill="none" stroke="midnightblue" d="M51.5538,-48.4314C59.4581,-38.9673 67.582,-27.4827 71.6487,-19.7511"/>
<polygon fill="midnightblue" stroke="midnightblue" points="48.7855,-46.278 44.7715,-56.083 54.0239,-50.9212 48.7855,-46.278"/>
</g>
<!-- Node3 -->
<g id="node4" class="node"><title>Node3</title>
<a xlink:href="class_error_base.html" target="_top" xlink:title="ErrorBase">
<polygon fill="white" stroke="black" points="84,-56.5 84,-75.5 144,-75.5 144,-56.5 84,-56.5"/>
<text text-anchor="middle" x="114" y="-63.5" font-family="Helvetica,sans-Serif" font-size="10.00">ErrorBase</text>
</a>
</g>
<!-- Node3&#45;&gt;Node1 -->
<g id="edge4" class="edge"><title>Node3&#45;&gt;Node1</title>
<path fill="none" stroke="midnightblue" d="M95.1394,-48.4314C87.0598,-38.9673 78.7232,-27.4827 74.5133,-19.7511"/>
<polygon fill="midnightblue" stroke="midnightblue" points="92.7584,-51.0165 102.063,-56.083 97.9488,-46.3197 92.7584,-51.0165"/>
</g>
<!-- Node3&#45;&gt;Node1 -->
<g id="edge8" class="edge"><title>Node3&#45;&gt;Node1</title>
<path fill="none" stroke="midnightblue" d="M107.121,-47.5656C100.859,-38.2747 92.0779,-27.2484 84.7753,-19.7511"/>
<polygon fill="midnightblue" stroke="midnightblue" points="104.155,-49.4241 112.396,-56.083 110.107,-45.7385 104.155,-49.4241"/>
</g>
</g>
</svg>
