<?xml version="1.0" encoding="UTF-8" standalone="no"?>
<!DOCTYPE svg PUBLIC "-//W3C//DTD SVG 1.1//EN"
 "http://www.w3.org/Graphics/SVG/1.1/DTD/svg11.dtd">
<!-- Generated by graphviz version 2.28.0 (20110507.0327)
 -->
<!-- Title: AnalogTrigger::CreateOutput Pages: 1 -->
<svg width="310pt" height="104pt"
 viewBox="0.00 0.00 310.00 104.00" xmlns="http://www.w3.org/2000/svg" xmlns:xlink="http://www.w3.org/1999/xlink">
<g id="graph1" class="graph" transform="scale(1 1) rotate(0) translate(4 100)">
<title>AnalogTrigger::CreateOutput</title>
<polygon fill="white" stroke="white" points="-4,5 -4,-100 307,-100 307,5 -4,5"/>
<!-- Node1 -->
<g id="node1" class="node"><title>Node1</title>
<polygon fill="#bfbfbf" stroke="black" points="0,-38.5 0,-57.5 140,-57.5 140,-38.5 0,-38.5"/>
<text text-anchor="middle" x="70" y="-45.5" font-family="Helvetica,sans-Serif" font-size="10.00">AnalogTrigger::CreateOutput</text>
</g>
<!-- Node2 -->
<g id="node3" class="node"><title>Node2</title>
<a xlink:href="class_counter.html#a51efc97323b6d5c42de11fa827655118" target="_top" xlink:title="Counter::Counter">
<polygon fill="white" stroke="black" points="194,-76.5 194,-95.5 284,-95.5 284,-76.5 194,-76.5"/>
<text text-anchor="middle" x="239" y="-83.5" font-family="Helvetica,sans-Serif" font-size="10.00">Counter::Counter</text>
</a>
</g>
<!-- Node1&#45;&gt;Node2 -->
<g id="edge2" class="edge"><title>Node1&#45;&gt;Node2</title>
<path fill="none" stroke="midnightblue" d="M122.965,-59.8243C146.509,-65.1816 173.974,-71.4311 196.162,-76.4799"/>
<polygon fill="midnightblue" stroke="midnightblue" points="123.668,-56.3951 113.141,-57.589 122.115,-63.2206 123.668,-56.3951"/>
</g>
<!-- Node3 -->
<g id="node5" class="node"><title>Node3</title>
<a xlink:href="class_counter.html#ad7660cd2787f0d0b37a99f15a2332340" target="_top" xlink:title="Counter::SetUpSource">
<polygon fill="white" stroke="black" points="182,-38.5 182,-57.5 296,-57.5 296,-38.5 182,-38.5"/>
<text text-anchor="middle" x="239" y="-45.5" font-family="Helvetica,sans-Serif" font-size="10.00">Counter::SetUpSource</text>
</a>
</g>
<!-- Node1&#45;&gt;Node3 -->
<g id="edge4" class="edge"><title>Node1&#45;&gt;Node3</title>
<path fill="none" stroke="midnightblue" d="M150.47,-48C161.054,-48 171.724,-48 181.798,-48"/>
<polygon fill="midnightblue" stroke="midnightblue" points="150.372,-44.5001 140.372,-48 150.372,-51.5001 150.372,-44.5001"/>
</g>
<!-- Node4 -->
<g id="node7" class="node"><title>Node4</title>
<a xlink:href="class_counter.html#af8ed8904ff88de6e059c4592f299d7e9" target="_top" xlink:title="Counter::SetDownSource">
<polygon fill="white" stroke="black" points="176,-0.5 176,-19.5 302,-19.5 302,-0.5 176,-0.5"/>
<text text-anchor="middle" x="239" y="-7.5" font-family="Helvetica,sans-Serif" font-size="10.00">Counter::SetDownSource</text>
</a>
</g>
<!-- Node1&#45;&gt;Node4 -->
<g id="edge6" class="edge"><title>Node1&#45;&gt;Node4</title>
<path fill="none" stroke="midnightblue" d="M122.965,-36.1757C146.509,-30.8184 173.974,-24.5689 196.162,-19.5201"/>
<polygon fill="midnightblue" stroke="midnightblue" points="122.115,-32.7794 113.141,-38.411 123.668,-39.6049 122.115,-32.7794"/>
</g>
</g>
</svg>
