<?xml version="1.0" encoding="UTF-8" standalone="no"?>
<!DOCTYPE svg PUBLIC "-//W3C//DTD SVG 1.1//EN"
 "http://www.w3.org/Graphics/SVG/1.1/DTD/svg11.dtd">
<!-- Generated by graphviz version 2.28.0 (20110507.0327)
 -->
<!-- Title: PIDController::InitTable Pages: 1 -->
<svg width="284pt" height="66pt"
 viewBox="0.00 0.00 284.00 66.00" xmlns="http://www.w3.org/2000/svg" xmlns:xlink="http://www.w3.org/1999/xlink">
<g id="graph1" class="graph" transform="scale(1 1) rotate(0) translate(4 62)">
<title>PIDController::InitTable</title>
<polygon fill="white" stroke="white" points="-4,5 -4,-62 281,-62 281,5 -4,5"/>
<!-- Node1 -->
<g id="node1" class="node"><title>Node1</title>
<polygon fill="#bfbfbf" stroke="black" points="0,-19.5 0,-38.5 116,-38.5 116,-19.5 0,-19.5"/>
<text text-anchor="middle" x="58" y="-26.5" font-family="Helvetica,sans-Serif" font-size="10.00">PIDController::InitTable</text>
</g>
<!-- Node2 -->
<g id="node3" class="node"><title>Node2</title>
<a xlink:href="class_p_i_d_command.html#aca89a102a75fc9fc9d8eaa4472a8af35" target="_top" xlink:title="PIDCommand::InitTable">
<polygon fill="white" stroke="black" points="154.5,-38.5 154.5,-57.5 273.5,-57.5 273.5,-38.5 154.5,-38.5"/>
<text text-anchor="middle" x="214" y="-45.5" font-family="Helvetica,sans-Serif" font-size="10.00">PIDCommand::InitTable</text>
</a>
</g>
<!-- Node1&#45;&gt;Node2 -->
<g id="edge2" class="edge"><title>Node1&#45;&gt;Node2</title>
<path fill="none" stroke="midnightblue" d="M126.353,-37.3098C135.671,-38.4594 145.18,-39.6325 154.323,-40.7606"/>
<polygon fill="midnightblue" stroke="midnightblue" points="126.697,-33.8258 116.344,-36.0749 125.84,-40.7731 126.697,-33.8258"/>
</g>
<!-- Node3 -->
<g id="node5" class="node"><title>Node3</title>
<a xlink:href="class_p_i_d_subsystem.html#a0fbee3092f4cdc044d5f1fd96dfbd7d4" target="_top" xlink:title="PIDSubsystem::InitTable">
<polygon fill="white" stroke="black" points="152,-0.5 152,-19.5 276,-19.5 276,-0.5 152,-0.5"/>
<text text-anchor="middle" x="214" y="-7.5" font-family="Helvetica,sans-Serif" font-size="10.00">PIDSubsystem::InitTable</text>
</a>
</g>
<!-- Node1&#45;&gt;Node3 -->
<g id="edge4" class="edge"><title>Node1&#45;&gt;Node3</title>
<path fill="none" stroke="midnightblue" d="M126.283,-20.6988C134.836,-19.6437 143.551,-18.5684 151.997,-17.5264"/>
<polygon fill="midnightblue" stroke="midnightblue" points="125.84,-17.2269 116.344,-21.9251 126.697,-24.1742 125.84,-17.2269"/>
</g>
</g>
</svg>
