<?xml version="1.0" encoding="UTF-8" standalone="no"?>
<!DOCTYPE svg PUBLIC "-//W3C//DTD SVG 1.1//EN"
 "http://www.w3.org/Graphics/SVG/1.1/DTD/svg11.dtd">
<!-- Generated by graphviz version 2.28.0 (20110507.0327)
 -->
<!-- Title: ADXL345_I2C Pages: 1 -->
<svg width="264pt" height="196pt"
 viewBox="0.00 0.00 264.00 196.00" xmlns="http://www.w3.org/2000/svg" xmlns:xlink="http://www.w3.org/1999/xlink">
<g id="graph1" class="graph" transform="scale(1 1) rotate(0) translate(4 192)">
<title>ADXL345_I2C</title>
<polygon fill="white" stroke="white" points="-4,5 -4,-192 261,-192 261,5 -4,5"/>
<!-- Node1 -->
<g id="node1" class="node"><title>Node1</title>
<polygon fill="#bfbfbf" stroke="black" points="76,-0.5 76,-19.5 152,-19.5 152,-0.5 76,-0.5"/>
<text text-anchor="middle" x="114" y="-7.5" font-family="Helvetica,sans-Serif" font-size="10.00">ADXL345_I2C</text>
</g>
<!-- Node2 -->
<g id="node2" class="node"><title>Node2</title>
<a xlink:href="class_accelerometer.html" target="_top" xlink:title="Accelerometer">
<polygon fill="white" stroke="black" points="0,-56.5 0,-75.5 80,-75.5 80,-56.5 0,-56.5"/>
<text text-anchor="middle" x="40" y="-63.5" font-family="Helvetica,sans-Serif" font-size="10.00">Accelerometer</text>
</a>
</g>
<!-- Node2&#45;&gt;Node1 -->
<g id="edge2" class="edge"><title>Node2&#45;&gt;Node1</title>
<path fill="none" stroke="midnightblue" d="M60.0343,-50.3804C73.4091,-40.6204 90.5588,-28.1057 101.894,-19.8339"/>
<polygon fill="midnightblue" stroke="midnightblue" points="57.9042,-47.602 51.8894,-56.324 62.0305,-53.2565 57.9042,-47.602"/>
</g>
<!-- Node3 -->
<g id="node4" class="node"><title>Node3</title>
<a xlink:href="class_i2_c.html" target="_top" xlink:title="I2C">
<polygon fill="white" stroke="black" points="98.5,-56.5 98.5,-75.5 129.5,-75.5 129.5,-56.5 98.5,-56.5"/>
<text text-anchor="middle" x="114" y="-63.5" font-family="Helvetica,sans-Serif" font-size="10.00">I2C</text>
</a>
</g>
<!-- Node3&#45;&gt;Node1 -->
<g id="edge4" class="edge"><title>Node3&#45;&gt;Node1</title>
<path fill="none" stroke="midnightblue" d="M114,-45.8045C114,-36.9102 114,-26.7798 114,-19.7511"/>
<polygon fill="midnightblue" stroke="midnightblue" points="110.5,-46.083 114,-56.083 117.5,-46.083 110.5,-46.083"/>
</g>
<!-- Node4 -->
<g id="node6" class="node"><title>Node4</title>
<a xlink:href="class_sensor_base.html" target="_top" xlink:title="SensorBase">
<polygon fill="white" stroke="black" points="79,-112.5 79,-131.5 149,-131.5 149,-112.5 79,-112.5"/>
<text text-anchor="middle" x="114" y="-119.5" font-family="Helvetica,sans-Serif" font-size="10.00">SensorBase</text>
</a>
</g>
<!-- Node4&#45;&gt;Node3 -->
<g id="edge6" class="edge"><title>Node4&#45;&gt;Node3</title>
<path fill="none" stroke="#8b1a1a" d="M114,-101.805C114,-92.9102 114,-82.7798 114,-75.7511"/>
<polygon fill="#8b1a1a" stroke="#8b1a1a" points="110.5,-102.083 114,-112.083 117.5,-102.083 110.5,-102.083"/>
</g>
<!-- Node5 -->
<g id="node8" class="node"><title>Node5</title>
<a xlink:href="class_error_base.html" target="_top" xlink:title="ErrorBase">
<polygon fill="white" stroke="black" points="84,-168.5 84,-187.5 144,-187.5 144,-168.5 84,-168.5"/>
<text text-anchor="middle" x="114" y="-175.5" font-family="Helvetica,sans-Serif" font-size="10.00">ErrorBase</text>
</a>
</g>
<!-- Node5&#45;&gt;Node4 -->
<g id="edge8" class="edge"><title>Node5&#45;&gt;Node4</title>
<path fill="none" stroke="midnightblue" d="M114,-157.805C114,-148.91 114,-138.78 114,-131.751"/>
<polygon fill="midnightblue" stroke="midnightblue" points="110.5,-158.083 114,-168.083 117.5,-158.083 110.5,-158.083"/>
</g>
<!-- Node6 -->
<g id="node10" class="node"><title>Node6</title>
<a xlink:href="class_live_window_sendable.html" target="_top" xlink:title="LiveWindowSendable">
<polygon fill="white" stroke="black" points="148,-56.5 148,-75.5 256,-75.5 256,-56.5 148,-56.5"/>
<text text-anchor="middle" x="202" y="-63.5" font-family="Helvetica,sans-Serif" font-size="10.00">LiveWindowSendable</text>
</a>
</g>
<!-- Node6&#45;&gt;Node1 -->
<g id="edge10" class="edge"><title>Node6&#45;&gt;Node1</title>
<path fill="none" stroke="midnightblue" d="M179.023,-50.9005C162.887,-40.9986 141.819,-28.0705 128.104,-19.6545"/>
<polygon fill="midnightblue" stroke="midnightblue" points="177.507,-54.0769 187.861,-56.324 181.169,-48.1106 177.507,-54.0769"/>
</g>
<!-- Node7 -->
<g id="node12" class="node"><title>Node7</title>
<a xlink:href="class_sendable.html" target="_top" xlink:title="Sendable">
<polygon fill="white" stroke="black" points="173.5,-112.5 173.5,-131.5 230.5,-131.5 230.5,-112.5 173.5,-112.5"/>
<text text-anchor="middle" x="202" y="-119.5" font-family="Helvetica,sans-Serif" font-size="10.00">Sendable</text>
</a>
</g>
<!-- Node7&#45;&gt;Node6 -->
<g id="edge12" class="edge"><title>Node7&#45;&gt;Node6</title>
<path fill="none" stroke="midnightblue" d="M202,-101.805C202,-92.9102 202,-82.7798 202,-75.7511"/>
<polygon fill="midnightblue" stroke="midnightblue" points="198.5,-102.083 202,-112.083 205.5,-102.083 198.5,-102.083"/>
</g>
</g>
</svg>
