<?xml version="1.0" encoding="UTF-8" standalone="no"?>
<!DOCTYPE svg PUBLIC "-//W3C//DTD SVG 1.1//EN"
 "http://www.w3.org/Graphics/SVG/1.1/DTD/svg11.dtd">
<!-- Generated by graphviz version 2.28.0 (20110507.0327)
 -->
<!-- Title: RobotDrive Pages: 1 -->
<svg width="329pt" height="264pt"
 viewBox="0.00 0.00 329.00 264.00" xmlns="http://www.w3.org/2000/svg" xmlns:xlink="http://www.w3.org/1999/xlink">
<g id="graph1" class="graph" transform="scale(1 1) rotate(0) translate(4 260)">
<title>RobotDrive</title>
<polygon fill="white" stroke="white" points="-4,5 -4,-260 326,-260 326,5 -4,5"/>
<!-- Node1 -->
<g id="node1" class="node"><title>Node1</title>
<polygon fill="#bfbfbf" stroke="black" points="41.5,-0.5 41.5,-19.5 104.5,-19.5 104.5,-0.5 41.5,-0.5"/>
<text text-anchor="middle" x="73" y="-7.5" font-family="Helvetica,sans-Serif" font-size="10.00">RobotDrive</text>
</g>
<!-- Node2 -->
<g id="node2" class="node"><title>Node2</title>
<a xlink:href="class_error_base.html" target="_top" xlink:title="ErrorBase">
<polygon fill="white" stroke="black" points="0,-158.5 0,-177.5 60,-177.5 60,-158.5 0,-158.5"/>
<text text-anchor="middle" x="30" y="-165.5" font-family="Helvetica,sans-Serif" font-size="10.00">ErrorBase</text>
</a>
</g>
<!-- Node2&#45;&gt;Node1 -->
<g id="edge2" class="edge"><title>Node2&#45;&gt;Node1</title>
<path fill="none" stroke="midnightblue" d="M13.821,-149.435C6.53206,-135.821 1.08317,-116.55 6,-100 15.8216,-66.9399 42.2424,-34.6895 59.2792,-19.7063"/>
<polygon fill="midnightblue" stroke="midnightblue" points="11.0559,-151.614 19.3318,-158.229 16.9875,-147.897 11.0559,-151.614"/>
</g>
<!-- Node2&#45;&gt;Node1 -->
<g id="edge8" class="edge"><title>Node2&#45;&gt;Node1</title>
<path fill="none" stroke="midnightblue" d="M28.2054,-148.231C24.2234,-134.701 19.2264,-116.068 24,-100 33.7691,-67.1167 59.9603,-35.0345 70.1012,-19.9481"/>
<polygon fill="midnightblue" stroke="midnightblue" points="24.9519,-149.583 31.0748,-158.229 31.6803,-147.652 24.9519,-149.583"/>
</g>
<!-- Node7 -->
<g id="node14" class="node"><title>Node7</title>
<a xlink:href="class_motor_safety_helper.html" target="_top" xlink:title="MotorSafetyHelper">
<polygon fill="white" stroke="black" points="24.5,-100.5 24.5,-119.5 121.5,-119.5 121.5,-100.5 24.5,-100.5"/>
<text text-anchor="middle" x="73" y="-107.5" font-family="Helvetica,sans-Serif" font-size="10.00">MotorSafetyHelper</text>
</a>
</g>
<!-- Node2&#45;&gt;Node7 -->
<g id="edge18" class="edge"><title>Node2&#45;&gt;Node7</title>
<path fill="none" stroke="midnightblue" d="M37.1188,-149.514C43.9117,-139.522 53.6217,-127.44 61.4599,-119.505"/>
<polygon fill="midnightblue" stroke="midnightblue" points="33.9905,-147.915 31.6563,-158.25 39.9257,-151.627 33.9905,-147.915"/>
</g>
<!-- Node2&#45;&gt;Node7 -->
<g id="edge20" class="edge"><title>Node2&#45;&gt;Node7</title>
<path fill="none" stroke="midnightblue" d="M48.6785,-150.739C57.5495,-140.526 66.9516,-127.767 71.4786,-119.505"/>
<polygon fill="midnightblue" stroke="midnightblue" points="45.9671,-148.517 41.7813,-158.25 51.123,-153.252 45.9671,-148.517"/>
</g>
<!-- Node3 -->
<g id="node4" class="node"><title>Node3</title>
<a xlink:href="class_error.html" target="_top" xlink:title="Error">
<polygon fill="white" stroke="black" points="11,-236.5 11,-255.5 49,-255.5 49,-236.5 11,-236.5"/>
<text text-anchor="middle" x="30" y="-243.5" font-family="Helvetica,sans-Serif" font-size="10.00">Error</text>
</a>
</g>
<!-- Node3&#45;&gt;Node2 -->
<g id="edge4" class="edge"><title>Node3&#45;&gt;Node2</title>
<path fill="none" stroke="#9a32cd" stroke-dasharray="5,2" d="M30,-226.224C30,-210.697 30,-189.358 30,-177.616"/>
<polygon fill="#9a32cd" stroke="#9a32cd" points="26.5001,-226.282 30,-236.282 33.5001,-226.282 26.5001,-226.282"/>
<text text-anchor="middle" x="57.5" y="-210" font-family="Helvetica,sans-Serif" font-size="10.00"> _globalError</text>
<text text-anchor="middle" x="57.5" y="-199" font-family="Helvetica,sans-Serif" font-size="10.00">m_error</text>
</g>
<!-- Node4 -->
<g id="node6" class="node"><title>Node4</title>
<a xlink:href="class_motor_safety.html" target="_top" xlink:title="MotorSafety">
<polygon fill="white" stroke="black" points="139.5,-100.5 139.5,-119.5 208.5,-119.5 208.5,-100.5 139.5,-100.5"/>
<text text-anchor="middle" x="174" y="-107.5" font-family="Helvetica,sans-Serif" font-size="10.00">MotorSafety</text>
</a>
</g>
<!-- Node4&#45;&gt;Node1 -->
<g id="edge6" class="edge"><title>Node4&#45;&gt;Node1</title>
<path fill="none" stroke="midnightblue" d="M171.576,-90.1081C168.599,-74.2507 162.08,-52.0036 148,-38 136.421,-26.4847 119.582,-19.8485 104.792,-16.0402"/>
<polygon fill="midnightblue" stroke="midnightblue" points="168.169,-90.9785 173.175,-100.316 175.085,-89.8951 168.169,-90.9785"/>
</g>
<!-- Node5 -->
<g id="node9" class="node"><title>Node5</title>
<a xlink:href="class_speed_controller.html" target="_top" xlink:title="SpeedController">
<polygon fill="white" stroke="black" points="227,-100.5 227,-119.5 313,-119.5 313,-100.5 227,-100.5"/>
<text text-anchor="middle" x="270" y="-107.5" font-family="Helvetica,sans-Serif" font-size="10.00">SpeedController</text>
</a>
</g>
<!-- Node5&#45;&gt;Node1 -->
<g id="edge10" class="edge"><title>Node5&#45;&gt;Node1</title>
<path fill="none" stroke="#9a32cd" stroke-dasharray="5,2" d="M253.341,-93.7934C234.945,-77.7585 203.832,-52.8096 173,-38 151.279,-27.5668 124.898,-20.6582 104.688,-16.443"/>
<polygon fill="#9a32cd" stroke="#9a32cd" points="251.051,-96.4406 260.851,-100.465 255.699,-91.2072 251.051,-96.4406"/>
<text text-anchor="middle" x="279.5" y="-74" font-family="Helvetica,sans-Serif" font-size="10.00"> m_frontRightMotor</text>
<text text-anchor="middle" x="279.5" y="-63" font-family="Helvetica,sans-Serif" font-size="10.00">m_rearLeftMotor</text>
<text text-anchor="middle" x="279.5" y="-52" font-family="Helvetica,sans-Serif" font-size="10.00">m_rearRightMotor</text>
<text text-anchor="middle" x="279.5" y="-41" font-family="Helvetica,sans-Serif" font-size="10.00">m_frontLeftMotor</text>
</g>
<!-- Node6 -->
<g id="node11" class="node"><title>Node6</title>
<a xlink:href="class_p_i_d_output.html" target="_top" xlink:title="PIDOutput">
<polygon fill="white" stroke="black" points="239,-158.5 239,-177.5 301,-177.5 301,-158.5 239,-158.5"/>
<text text-anchor="middle" x="270" y="-165.5" font-family="Helvetica,sans-Serif" font-size="10.00">PIDOutput</text>
</a>
</g>
<!-- Node6&#45;&gt;Node5 -->
<g id="edge12" class="edge"><title>Node6&#45;&gt;Node5</title>
<path fill="none" stroke="midnightblue" d="M263.59,-148.268C262.85,-138.533 263.317,-127.113 264.991,-119.505"/>
<polygon fill="midnightblue" stroke="midnightblue" points="260.131,-148.808 264.938,-158.25 267.068,-147.872 260.131,-148.808"/>
</g>
<!-- Node6&#45;&gt;Node5 -->
<g id="edge14" class="edge"><title>Node6&#45;&gt;Node5</title>
<path fill="none" stroke="midnightblue" d="M276.41,-148.268C277.15,-138.533 276.683,-127.113 275.009,-119.505"/>
<polygon fill="midnightblue" stroke="midnightblue" points="272.932,-147.872 275.063,-158.25 279.869,-148.808 272.932,-147.872"/>
</g>
<!-- Node7&#45;&gt;Node1 -->
<g id="edge16" class="edge"><title>Node7&#45;&gt;Node1</title>
<path fill="none" stroke="#9a32cd" stroke-dasharray="5,2" d="M73,-90.2203C73,-68.9514 73,-35.2197 73,-19.5374"/>
<polygon fill="#9a32cd" stroke="#9a32cd" points="69.5001,-90.3031 73,-100.303 76.5001,-90.3032 69.5001,-90.3031"/>
<text text-anchor="middle" x="108.5" y="-57.5" font-family="Helvetica,sans-Serif" font-size="10.00"> m_safetyHelper</text>
</g>
</g>
</svg>
