<?xml version="1.0" encoding="UTF-8" standalone="no"?>
<!DOCTYPE svg PUBLIC "-//W3C//DTD SVG 1.1//EN"
 "http://www.w3.org/Graphics/SVG/1.1/DTD/svg11.dtd">
<!-- Generated by graphviz version 2.28.0 (20110507.0327)
 -->
<!-- Title: VictorSP::PIDWrite Pages: 1 -->
<svg width="866pt" height="85pt"
 viewBox="0.00 0.00 866.00 85.00" xmlns="http://www.w3.org/2000/svg" xmlns:xlink="http://www.w3.org/1999/xlink">
<g id="graph1" class="graph" transform="scale(1 1) rotate(0) translate(4 81)">
<title>VictorSP::PIDWrite</title>
<polygon fill="white" stroke="white" points="-4,5 -4,-81 863,-81 863,5 -4,5"/>
<!-- Node1 -->
<g id="node1" class="node"><title>Node1</title>
<polygon fill="#bfbfbf" stroke="black" points="0.5,-19.5 0.5,-38.5 101.5,-38.5 101.5,-19.5 0.5,-19.5"/>
<text text-anchor="middle" x="51" y="-26.5" font-family="Helvetica,sans-Serif" font-size="10.00">VictorSP::PIDWrite</text>
</g>
<!-- Node2 -->
<g id="node3" class="node"><title>Node2</title>
<a xlink:href="class_victor_s_p.html#a5a776c3577f261f2679f77f5212e9d9c" target="_top" xlink:title="VictorSP::Set">
<polygon fill="white" stroke="black" points="138.5,-19.5 138.5,-38.5 215.5,-38.5 215.5,-19.5 138.5,-19.5"/>
<text text-anchor="middle" x="177" y="-26.5" font-family="Helvetica,sans-Serif" font-size="10.00">VictorSP::Set</text>
</a>
</g>
<!-- Node1&#45;&gt;Node2 -->
<g id="edge2" class="edge"><title>Node1&#45;&gt;Node2</title>
<path fill="none" stroke="midnightblue" d="M101.721,-29C110.535,-29 119.694,-29 128.446,-29"/>
<polygon fill="midnightblue" stroke="midnightblue" points="128.488,-32.5001 138.488,-29 128.488,-25.5001 128.488,-32.5001"/>
</g>
<!-- Node3 -->
<g id="node5" class="node"><title>Node3</title>
<a xlink:href="class_safe_p_w_m.html#af1ed936d88f3ee6446b01c17feb24b78" target="_top" xlink:title="SafePWM::SetSpeed">
<polygon fill="white" stroke="black" points="252,-19.5 252,-38.5 362,-38.5 362,-19.5 252,-19.5"/>
<text text-anchor="middle" x="307" y="-26.5" font-family="Helvetica,sans-Serif" font-size="10.00">SafePWM::SetSpeed</text>
</a>
</g>
<!-- Node2&#45;&gt;Node3 -->
<g id="edge4" class="edge"><title>Node2&#45;&gt;Node3</title>
<path fill="none" stroke="midnightblue" d="M215.712,-29C223.963,-29 232.92,-29 241.88,-29"/>
<polygon fill="midnightblue" stroke="midnightblue" points="241.96,-32.5001 251.96,-29 241.96,-25.5001 241.96,-32.5001"/>
</g>
<!-- Node4 -->
<g id="node7" class="node"><title>Node4</title>
<a xlink:href="class_p_w_m.html#a947e5f6073da9e4d1b60db0c7791ca9c" target="_top" xlink:title="PWM::SetSpeed">
<polygon fill="white" stroke="black" points="416,-38.5 416,-57.5 506,-57.5 506,-38.5 416,-38.5"/>
<text text-anchor="middle" x="461" y="-45.5" font-family="Helvetica,sans-Serif" font-size="10.00">PWM::SetSpeed</text>
</a>
</g>
<!-- Node3&#45;&gt;Node4 -->
<g id="edge6" class="edge"><title>Node3&#45;&gt;Node4</title>
<path fill="none" stroke="midnightblue" d="M362.017,-35.7522C376.162,-37.5203 391.419,-39.4273 405.584,-41.198"/>
<polygon fill="midnightblue" stroke="midnightblue" points="405.318,-44.6919 415.675,-42.4593 406.186,-37.7459 405.318,-44.6919"/>
</g>
<!-- Node7 -->
<g id="node14" class="node"><title>Node7</title>
<a xlink:href="class_motor_safety_helper.html#a67b80e9817dc725e0678de5e8f0bb39e" target="_top" xlink:title="MotorSafetyHelper::Feed">
<polygon fill="white" stroke="black" points="398.5,-0.5 398.5,-19.5 523.5,-19.5 523.5,-0.5 398.5,-0.5"/>
<text text-anchor="middle" x="461" y="-7.5" font-family="Helvetica,sans-Serif" font-size="10.00">MotorSafetyHelper::Feed</text>
</a>
</g>
<!-- Node3&#45;&gt;Node7 -->
<g id="edge14" class="edge"><title>Node3&#45;&gt;Node7</title>
<path fill="none" stroke="midnightblue" d="M362.017,-22.2478C370.573,-21.1783 379.536,-20.0581 388.417,-18.9478"/>
<polygon fill="midnightblue" stroke="midnightblue" points="388.896,-22.4153 398.385,-17.7019 388.028,-15.4694 388.896,-22.4153"/>
</g>
<!-- Node5 -->
<g id="node9" class="node"><title>Node5</title>
<a xlink:href="class_error_base.html#a05790f219c9e436a09752f73f7344024" target="_top" xlink:title="Check if the current error code represents a fatal error. ">
<polygon fill="white" stroke="black" points="734,-57.5 734,-76.5 858,-76.5 858,-57.5 734,-57.5"/>
<text text-anchor="middle" x="796" y="-64.5" font-family="Helvetica,sans-Serif" font-size="10.00">ErrorBase::StatusIsFatal</text>
</a>
</g>
<!-- Node4&#45;&gt;Node5 -->
<g id="edge8" class="edge"><title>Node4&#45;&gt;Node5</title>
<path fill="none" stroke="midnightblue" d="M501.799,-57.5105C519.506,-61.2756 540.679,-65.1443 560,-67 614.862,-72.2692 677.26,-71.9774 723.965,-70.5263"/>
<polygon fill="midnightblue" stroke="midnightblue" points="724.107,-74.0236 733.983,-70.1899 723.872,-67.0276 724.107,-74.0236"/>
</g>
<!-- Node6 -->
<g id="node11" class="node"><title>Node6</title>
<a xlink:href="class_p_w_m.html#a0c546e1aa7d5d091447a819e50fae9ca" target="_top" xlink:title="PWM::SetRaw">
<polygon fill="white" stroke="black" points="588.5,-38.5 588.5,-57.5 669.5,-57.5 669.5,-38.5 588.5,-38.5"/>
<text text-anchor="middle" x="629" y="-45.5" font-family="Helvetica,sans-Serif" font-size="10.00">PWM::SetRaw</text>
</a>
</g>
<!-- Node4&#45;&gt;Node6 -->
<g id="edge10" class="edge"><title>Node4&#45;&gt;Node6</title>
<path fill="none" stroke="midnightblue" d="M506.049,-48C528.205,-48 555.151,-48 578.073,-48"/>
<polygon fill="midnightblue" stroke="midnightblue" points="578.29,-51.5001 588.29,-48 578.29,-44.5001 578.29,-51.5001"/>
</g>
<!-- Node6&#45;&gt;Node5 -->
<g id="edge12" class="edge"><title>Node6&#45;&gt;Node5</title>
<path fill="none" stroke="midnightblue" d="M669.522,-52.551C685.846,-54.4308 705.286,-56.6693 723.931,-58.8163"/>
<polygon fill="midnightblue" stroke="midnightblue" points="723.55,-62.2954 733.884,-59.9624 724.35,-55.3414 723.55,-62.2954"/>
</g>
<!-- Node8 -->
<g id="node16" class="node"><title>Node8</title>
<a xlink:href="class_timer.html#a7fa6e6dffec055e5104ccd6bcadec9aa" target="_top" xlink:title="Timer::GetFPGATimestamp">
<polygon fill="white" stroke="black" points="560.5,-0.5 560.5,-19.5 697.5,-19.5 697.5,-0.5 560.5,-0.5"/>
<text text-anchor="middle" x="629" y="-7.5" font-family="Helvetica,sans-Serif" font-size="10.00">Timer::GetFPGATimestamp</text>
</a>
</g>
<!-- Node7&#45;&gt;Node8 -->
<g id="edge16" class="edge"><title>Node7&#45;&gt;Node8</title>
<path fill="none" stroke="midnightblue" d="M523.812,-10C532.359,-10 541.227,-10 550.02,-10"/>
<polygon fill="midnightblue" stroke="midnightblue" points="550.283,-13.5001 560.283,-10 550.283,-6.5001 550.283,-13.5001"/>
</g>
<!-- Node9 -->
<g id="node18" class="node"><title>Node9</title>
<a xlink:href="_utility_8h.html#ababf055d95368485d48bd9a0231853f3" target="_top" xlink:title="GetFPGATime">
<polygon fill="white" stroke="black" points="756,-0.5 756,-19.5 836,-19.5 836,-0.5 756,-0.5"/>
<text text-anchor="middle" x="796" y="-7.5" font-family="Helvetica,sans-Serif" font-size="10.00">GetFPGATime</text>
</a>
</g>
<!-- Node8&#45;&gt;Node9 -->
<g id="edge18" class="edge"><title>Node8&#45;&gt;Node9</title>
<path fill="none" stroke="midnightblue" d="M697.588,-10C713.641,-10 730.473,-10 745.543,-10"/>
<polygon fill="midnightblue" stroke="midnightblue" points="745.664,-13.5001 755.663,-10 745.663,-6.5001 745.664,-13.5001"/>
</g>
</g>
</svg>
