<?xml version="1.0" encoding="UTF-8" standalone="no"?>
<!DOCTYPE svg PUBLIC "-//W3C//DTD SVG 1.1//EN"
 "http://www.w3.org/Graphics/SVG/1.1/DTD/svg11.dtd">
<!-- Generated by graphviz version 2.28.0 (20110507.0327)
 -->
<!-- Title: CANJaguar::DisableSoftPositionLimits Pages: 1 -->
<svg width="512pt" height="38pt"
 viewBox="0.00 0.00 512.00 38.00" xmlns="http://www.w3.org/2000/svg" xmlns:xlink="http://www.w3.org/1999/xlink">
<g id="graph1" class="graph" transform="scale(1 1) rotate(0) translate(4 34)">
<title>CANJaguar::DisableSoftPositionLimits</title>
<polygon fill="white" stroke="white" points="-4,5 -4,-34 509,-34 509,5 -4,5"/>
<!-- Node1 -->
<g id="node1" class="node"><title>Node1</title>
<polygon fill="#bfbfbf" stroke="black" points="0,-0 0,-30 156,-30 156,-0 0,-0"/>
<text text-anchor="start" x="8" y="-18" font-family="Helvetica,sans-Serif" font-size="10.00">CANJaguar::DisableSoftPosition</text>
<text text-anchor="middle" x="78" y="-7" font-family="Helvetica,sans-Serif" font-size="10.00">Limits</text>
</g>
<!-- Node2 -->
<g id="node3" class="node"><title>Node2</title>
<a xlink:href="class_c_a_n_jaguar.html#aeb878aff41701ed6d2bb0732a0beb07a" target="_top" xlink:title="CANJaguar::ConfigLimitMode">
<polygon fill="white" stroke="black" points="192.5,-5.5 192.5,-24.5 335.5,-24.5 335.5,-5.5 192.5,-5.5"/>
<text text-anchor="middle" x="264" y="-12.5" font-family="Helvetica,sans-Serif" font-size="10.00">CANJaguar::ConfigLimitMode</text>
</a>
</g>
<!-- Node1&#45;&gt;Node2 -->
<g id="edge2" class="edge"><title>Node1&#45;&gt;Node2</title>
<path fill="none" stroke="midnightblue" d="M156.233,-15C164.857,-15 173.658,-15 182.324,-15"/>
<polygon fill="midnightblue" stroke="midnightblue" points="182.415,-18.5001 192.415,-15 182.415,-11.5001 182.415,-18.5001"/>
</g>
<!-- Node3 -->
<g id="node5" class="node"><title>Node3</title>
<a xlink:href="class_c_a_n_jaguar.html#a6b82b54cc4033c3c5218ab04fb6c8282" target="_top" xlink:title="CANJaguar::sendMessage">
<polygon fill="white" stroke="black" points="372,-5.5 372,-24.5 504,-24.5 504,-5.5 372,-5.5"/>
<text text-anchor="middle" x="438" y="-12.5" font-family="Helvetica,sans-Serif" font-size="10.00">CANJaguar::sendMessage</text>
</a>
</g>
<!-- Node2&#45;&gt;Node3 -->
<g id="edge4" class="edge"><title>Node2&#45;&gt;Node3</title>
<path fill="none" stroke="midnightblue" d="M335.952,-15C344.373,-15 352.993,-15 361.474,-15"/>
<polygon fill="midnightblue" stroke="midnightblue" points="361.729,-18.5001 371.729,-15 361.729,-11.5001 361.729,-18.5001"/>
</g>
</g>
</svg>
