<?xml version="1.0" encoding="UTF-8" standalone="no"?>
<!DOCTYPE svg PUBLIC "-//W3C//DTD SVG 1.1//EN"
 "http://www.w3.org/Graphics/SVG/1.1/DTD/svg11.dtd">
<!-- Generated by graphviz version 2.28.0 (20110507.0327)
 -->
<!-- Title: AnalogInput::ResetAccumulator Pages: 1 -->
<svg width="516pt" height="120pt"
 viewBox="0.00 0.00 516.00 120.12" xmlns="http://www.w3.org/2000/svg" xmlns:xlink="http://www.w3.org/1999/xlink">
<g id="graph1" class="graph" transform="scale(1 1) rotate(0) translate(4 116.121)">
<title>AnalogInput::ResetAccumulator</title>
<polygon fill="white" stroke="white" points="-4,5 -4,-116.121 513,-116.121 513,5 -4,5"/>
<!-- Node1 -->
<g id="node1" class="node"><title>Node1</title>
<polygon fill="#bfbfbf" stroke="black" points="0,-57.5 0,-76.5 154,-76.5 154,-57.5 0,-57.5"/>
<text text-anchor="middle" x="77" y="-64.5" font-family="Helvetica,sans-Serif" font-size="10.00">AnalogInput::ResetAccumulator</text>
</g>
<!-- Node2 -->
<g id="node3" class="node"><title>Node2</title>
<a xlink:href="class_error_base.html#a05790f219c9e436a09752f73f7344024" target="_top" xlink:title="Check if the current error code represents a fatal error. ">
<polygon fill="white" stroke="black" points="384,-76.5 384,-95.5 508,-95.5 508,-76.5 384,-76.5"/>
<text text-anchor="middle" x="446" y="-83.5" font-family="Helvetica,sans-Serif" font-size="10.00">ErrorBase::StatusIsFatal</text>
</a>
</g>
<!-- Node1&#45;&gt;Node2 -->
<g id="edge2" class="edge"><title>Node1&#45;&gt;Node2</title>
<path fill="none" stroke="midnightblue" d="M99.3484,-76.5914C121.493,-85.9752 157.383,-99.6174 190,-105 259.285,-116.434 278.106,-111.781 348,-105 363.543,-103.492 380.292,-100.655 395.427,-97.6252"/>
<polygon fill="midnightblue" stroke="midnightblue" points="396.532,-100.97 405.612,-95.5103 395.109,-94.1166 396.532,-100.97"/>
</g>
<!-- Node3 -->
<g id="node5" class="node"><title>Node3</title>
<a xlink:href="class_analog_input.html#a3e81e6477668b15b1da6965972987596" target="_top" xlink:title="AnalogInput::GetSampleRate">
<polygon fill="white" stroke="black" points="197.5,-76.5 197.5,-95.5 340.5,-95.5 340.5,-76.5 197.5,-76.5"/>
<text text-anchor="middle" x="269" y="-83.5" font-family="Helvetica,sans-Serif" font-size="10.00">AnalogInput::GetSampleRate</text>
</a>
</g>
<!-- Node1&#45;&gt;Node3 -->
<g id="edge4" class="edge"><title>Node1&#45;&gt;Node3</title>
<path fill="none" stroke="midnightblue" d="M154.185,-74.6185C165.094,-75.7094 176.346,-76.8346 187.337,-77.9337"/>
<polygon fill="midnightblue" stroke="midnightblue" points="187.041,-81.4215 197.34,-78.934 187.738,-74.4562 187.041,-81.4215"/>
</g>
<!-- Node4 -->
<g id="node7" class="node"><title>Node4</title>
<a xlink:href="class_analog_input.html#a713786ced6451b57fbcec31cf7cb1340" target="_top" xlink:title="AnalogInput::GetOversampleBits">
<polygon fill="white" stroke="black" points="190,-38.5 190,-57.5 348,-57.5 348,-38.5 190,-38.5"/>
<text text-anchor="middle" x="269" y="-45.5" font-family="Helvetica,sans-Serif" font-size="10.00">AnalogInput::GetOversampleBits</text>
</a>
</g>
<!-- Node1&#45;&gt;Node4 -->
<g id="edge6" class="edge"><title>Node1&#45;&gt;Node4</title>
<path fill="none" stroke="midnightblue" d="M154.185,-59.3815C162.645,-58.5355 171.311,-57.6689 179.902,-56.8098"/>
<polygon fill="midnightblue" stroke="midnightblue" points="180.334,-60.2842 189.936,-55.8064 179.637,-53.3189 180.334,-60.2842"/>
</g>
<!-- Node5 -->
<g id="node10" class="node"><title>Node5</title>
<a xlink:href="class_analog_input.html#a24193ed1cb0260e7626aecabcf812ef2" target="_top" xlink:title="AnalogInput::GetAverageBits">
<polygon fill="white" stroke="black" points="198.5,-0.5 198.5,-19.5 339.5,-19.5 339.5,-0.5 198.5,-0.5"/>
<text text-anchor="middle" x="269" y="-7.5" font-family="Helvetica,sans-Serif" font-size="10.00">AnalogInput::GetAverageBits</text>
</a>
</g>
<!-- Node1&#45;&gt;Node5 -->
<g id="edge10" class="edge"><title>Node1&#45;&gt;Node5</title>
<path fill="none" stroke="midnightblue" d="M104.043,-57.4357C126.611,-49.3233 160.228,-37.6583 190,-29 198.362,-26.568 207.289,-24.1913 216.007,-21.9878"/>
<polygon fill="midnightblue" stroke="midnightblue" points="216.856,-25.3834 225.72,-19.5798 215.172,-18.5891 216.856,-25.3834"/>
</g>
<!-- Node4&#45;&gt;Node2 -->
<g id="edge8" class="edge"><title>Node4&#45;&gt;Node2</title>
<path fill="none" stroke="midnightblue" d="M314.16,-57.589C337.565,-62.6713 366.505,-68.9554 391.212,-74.3203"/>
<polygon fill="midnightblue" stroke="midnightblue" points="390.643,-77.7782 401.158,-76.4799 392.128,-70.9376 390.643,-77.7782"/>
</g>
</g>
</svg>
