<?xml version="1.0" encoding="UTF-8" standalone="no"?>
<!DOCTYPE svg PUBLIC "-//W3C//DTD SVG 1.1//EN"
 "http://www.w3.org/Graphics/SVG/1.1/DTD/svg11.dtd">
<!-- Generated by graphviz version 2.28.0 (20110507.0327)
 -->
<!-- Title: ASubsystem::InitDefaultCommand Pages: 1 -->
<svg width="552pt" height="66pt"
 viewBox="0.00 0.00 552.00 66.00" xmlns="http://www.w3.org/2000/svg" xmlns:xlink="http://www.w3.org/1999/xlink">
<g id="graph1" class="graph" transform="scale(1 1) rotate(0) translate(4 62)">
<title>ASubsystem::InitDefaultCommand</title>
<polygon fill="white" stroke="white" points="-4,5 -4,-62 549,-62 549,5 -4,5"/>
<!-- Node1 -->
<g id="node1" class="node"><title>Node1</title>
<polygon fill="#bfbfbf" stroke="black" points="0,-19.5 0,-38.5 166,-38.5 166,-19.5 0,-19.5"/>
<text text-anchor="middle" x="83" y="-26.5" font-family="Helvetica,sans-Serif" font-size="10.00">ASubsystem::InitDefaultCommand</text>
</g>
<!-- Node2 -->
<g id="node3" class="node"><title>Node2</title>
<a xlink:href="class_subsystem.html#aeb73b1829ac913e95035064d1b46c6f2" target="_top" xlink:title="Subsystem::SetDefaultCommand">
<polygon fill="white" stroke="black" points="202.5,-19.5 202.5,-38.5 363.5,-38.5 363.5,-19.5 202.5,-19.5"/>
<text text-anchor="middle" x="283" y="-26.5" font-family="Helvetica,sans-Serif" font-size="10.00">Subsystem::SetDefaultCommand</text>
</a>
</g>
<!-- Node1&#45;&gt;Node2 -->
<g id="edge2" class="edge"><title>Node1&#45;&gt;Node2</title>
<path fill="none" stroke="midnightblue" d="M166.25,-29C174.803,-29 183.528,-29 192.159,-29"/>
<polygon fill="midnightblue" stroke="midnightblue" points="192.233,-32.5001 202.233,-29 192.233,-25.5001 192.233,-32.5001"/>
</g>
<!-- Node3 -->
<g id="node5" class="node"><title>Node3</title>
<a xlink:href="class_command.html#afb520de2e4173f9342a94dd98d76dc0f" target="_top" xlink:title="Command::GetRequirements">
<polygon fill="white" stroke="black" points="400.5,-38.5 400.5,-57.5 543.5,-57.5 543.5,-38.5 400.5,-38.5"/>
<text text-anchor="middle" x="472" y="-45.5" font-family="Helvetica,sans-Serif" font-size="10.00">Command::GetRequirements</text>
</a>
</g>
<!-- Node2&#45;&gt;Node3 -->
<g id="edge4" class="edge"><title>Node2&#45;&gt;Node3</title>
<path fill="none" stroke="midnightblue" d="M363.576,-37.0853C372.46,-37.9879 381.515,-38.9079 390.411,-39.8119"/>
<polygon fill="midnightblue" stroke="midnightblue" points="390.068,-43.2949 400.37,-40.8237 390.776,-36.3307 390.068,-43.2949"/>
</g>
<!-- Node4 -->
<g id="node7" class="node"><title>Node4</title>
<a xlink:href="class_command.html#a68535903fc61c641f4ab2fdbd11d4257" target="_top" xlink:title="Command::GetName">
<polygon fill="white" stroke="black" points="418,-0.5 418,-19.5 526,-19.5 526,-0.5 418,-0.5"/>
<text text-anchor="middle" x="472" y="-7.5" font-family="Helvetica,sans-Serif" font-size="10.00">Command::GetName</text>
</a>
</g>
<!-- Node2&#45;&gt;Node4 -->
<g id="edge6" class="edge"><title>Node2&#45;&gt;Node4</title>
<path fill="none" stroke="midnightblue" d="M363.576,-20.9147C378.295,-19.4193 393.484,-17.876 407.641,-16.4375"/>
<polygon fill="midnightblue" stroke="midnightblue" points="408.151,-19.9039 417.746,-15.4109 407.443,-12.9397 408.151,-19.9039"/>
</g>
</g>
</svg>
