<?xml version="1.0" encoding="UTF-8" standalone="no"?>
<!DOCTYPE svg PUBLIC "-//W3C//DTD SVG 1.1//EN"
 "http://www.w3.org/Graphics/SVG/1.1/DTD/svg11.dtd">
<!-- Generated by graphviz version 2.28.0 (20110507.0327)
 -->
<!-- Title: AnalogInput::SetAccumulatorDeadband Pages: 1 -->
<svg width="506pt" height="38pt"
 viewBox="0.00 0.00 506.00 38.00" xmlns="http://www.w3.org/2000/svg" xmlns:xlink="http://www.w3.org/1999/xlink">
<g id="graph1" class="graph" transform="scale(1 1) rotate(0) translate(4 34)">
<title>AnalogInput::SetAccumulatorDeadband</title>
<polygon fill="white" stroke="white" points="-4,5 -4,-34 503,-34 503,5 -4,5"/>
<!-- Node1 -->
<g id="node1" class="node"><title>Node1</title>
<polygon fill="#bfbfbf" stroke="black" points="0.5,-0 0.5,-30 143.5,-30 143.5,-0 0.5,-0"/>
<text text-anchor="start" x="8.5" y="-18" font-family="Helvetica,sans-Serif" font-size="10.00">AnalogInput::SetAccumulator</text>
<text text-anchor="middle" x="72" y="-7" font-family="Helvetica,sans-Serif" font-size="10.00">Deadband</text>
</g>
<!-- Node2 -->
<g id="node3" class="node"><title>Node2</title>
<a xlink:href="class_gyro.html#a579957af7a1f693cde4b85c48e85ef7a" target="_top" xlink:title="Gyro::SetDeadband">
<polygon fill="white" stroke="black" points="180,-5.5 180,-24.5 282,-24.5 282,-5.5 180,-5.5"/>
<text text-anchor="middle" x="231" y="-12.5" font-family="Helvetica,sans-Serif" font-size="10.00">Gyro::SetDeadband</text>
</a>
</g>
<!-- Node1&#45;&gt;Node2 -->
<g id="edge2" class="edge"><title>Node1&#45;&gt;Node2</title>
<path fill="none" stroke="midnightblue" d="M153.74,-15C162.646,-15 171.514,-15 179.884,-15"/>
<polygon fill="midnightblue" stroke="midnightblue" points="153.692,-11.5001 143.692,-15 153.692,-18.5001 153.692,-11.5001"/>
</g>
<!-- Node3 -->
<g id="node5" class="node"><title>Node3</title>
<a xlink:href="class_gyro.html#ae26b1bacc0c5a4e1f9d85836fcb90736" target="_top" xlink:title="Gyro::InitGyro">
<polygon fill="white" stroke="black" points="318.5,-5.5 318.5,-24.5 395.5,-24.5 395.5,-5.5 318.5,-5.5"/>
<text text-anchor="middle" x="357" y="-12.5" font-family="Helvetica,sans-Serif" font-size="10.00">Gyro::InitGyro</text>
</a>
</g>
<!-- Node2&#45;&gt;Node3 -->
<g id="edge4" class="edge"><title>Node2&#45;&gt;Node3</title>
<path fill="none" stroke="midnightblue" d="M292.105,-15C301.04,-15 310.028,-15 318.325,-15"/>
<polygon fill="midnightblue" stroke="midnightblue" points="292.078,-11.5001 282.078,-15 292.078,-18.5001 292.078,-11.5001"/>
</g>
<!-- Node4 -->
<g id="node7" class="node"><title>Node4</title>
<a xlink:href="class_gyro.html#a06521f58180be9e342d941643f9b2491" target="_top" xlink:title="Gyro::Gyro">
<polygon fill="white" stroke="black" points="432.5,-5.5 432.5,-24.5 497.5,-24.5 497.5,-5.5 432.5,-5.5"/>
<text text-anchor="middle" x="465" y="-12.5" font-family="Helvetica,sans-Serif" font-size="10.00">Gyro::Gyro</text>
</a>
</g>
<!-- Node3&#45;&gt;Node4 -->
<g id="edge6" class="edge"><title>Node3&#45;&gt;Node4</title>
<path fill="none" stroke="midnightblue" d="M405.732,-15C414.772,-15 424.018,-15 432.405,-15"/>
<polygon fill="midnightblue" stroke="midnightblue" points="405.67,-11.5001 395.67,-15 405.67,-18.5001 405.67,-11.5001"/>
</g>
</g>
</svg>
