<?xml version="1.0" encoding="UTF-8" standalone="no"?>
<!DOCTYPE svg PUBLIC "-//W3C//DTD SVG 1.1//EN"
 "http://www.w3.org/Graphics/SVG/1.1/DTD/svg11.dtd">
<!-- Generated by graphviz version 2.28.0 (20110507.0327)
 -->
<!-- Title: Joystick::GetMagnitude Pages: 1 -->
<svg width="568pt" height="66pt"
 viewBox="0.00 0.00 568.00 66.00" xmlns="http://www.w3.org/2000/svg" xmlns:xlink="http://www.w3.org/1999/xlink">
<g id="graph1" class="graph" transform="scale(1 1) rotate(0) translate(4 62)">
<title>Joystick::GetMagnitude</title>
<polygon fill="white" stroke="white" points="-4,5 -4,-62 565,-62 565,5 -4,5"/>
<!-- Node1 -->
<g id="node1" class="node"><title>Node1</title>
<polygon fill="#bfbfbf" stroke="black" points="0.5,-19.5 0.5,-38.5 119.5,-38.5 119.5,-19.5 0.5,-19.5"/>
<text text-anchor="middle" x="60" y="-26.5" font-family="Helvetica,sans-Serif" font-size="10.00">Joystick::GetMagnitude</text>
</g>
<!-- Node2 -->
<g id="node3" class="node"><title>Node2</title>
<a xlink:href="class_joystick.html#a684f7ef395e7cf4d1137e816554446c9" target="_top" xlink:title="Joystick::GetX">
<polygon fill="white" stroke="black" points="157,-38.5 157,-57.5 237,-57.5 237,-38.5 157,-38.5"/>
<text text-anchor="middle" x="197" y="-45.5" font-family="Helvetica,sans-Serif" font-size="10.00">Joystick::GetX</text>
</a>
</g>
<!-- Node1&#45;&gt;Node2 -->
<g id="edge2" class="edge"><title>Node1&#45;&gt;Node2</title>
<path fill="none" stroke="midnightblue" d="M119.82,-37.2784C128.809,-38.5434 138.006,-39.8378 146.76,-41.0699"/>
<polygon fill="midnightblue" stroke="midnightblue" points="146.404,-44.5542 156.794,-42.4821 147.379,-37.6225 146.404,-44.5542"/>
</g>
<!-- Node5 -->
<g id="node9" class="node"><title>Node5</title>
<a xlink:href="class_joystick.html#a6f413b0da6c62d848113409acc9cb971" target="_top" xlink:title="Joystick::GetY">
<polygon fill="white" stroke="black" points="156.5,-0.5 156.5,-19.5 237.5,-19.5 237.5,-0.5 156.5,-0.5"/>
<text text-anchor="middle" x="197" y="-7.5" font-family="Helvetica,sans-Serif" font-size="10.00">Joystick::GetY</text>
</a>
</g>
<!-- Node1&#45;&gt;Node5 -->
<g id="edge8" class="edge"><title>Node1&#45;&gt;Node5</title>
<path fill="none" stroke="midnightblue" d="M119.82,-20.7216C128.706,-19.4709 137.797,-18.1916 146.461,-16.9721"/>
<polygon fill="midnightblue" stroke="midnightblue" points="146.985,-20.433 156.399,-15.5734 146.009,-13.5014 146.985,-20.433"/>
</g>
<!-- Node3 -->
<g id="node5" class="node"><title>Node3</title>
<a xlink:href="class_joystick.html#a1011135df443771aa07e3afa4a839b05" target="_top" xlink:title="Joystick::GetRawAxis">
<polygon fill="white" stroke="black" points="274.5,-19.5 274.5,-38.5 387.5,-38.5 387.5,-19.5 274.5,-19.5"/>
<text text-anchor="middle" x="331" y="-26.5" font-family="Helvetica,sans-Serif" font-size="10.00">Joystick::GetRawAxis</text>
</a>
</g>
<!-- Node2&#45;&gt;Node3 -->
<g id="edge4" class="edge"><title>Node2&#45;&gt;Node3</title>
<path fill="none" stroke="midnightblue" d="M237.247,-42.3508C245.73,-41.1298 254.923,-39.8066 264.113,-38.4838"/>
<polygon fill="midnightblue" stroke="midnightblue" points="264.651,-41.9425 274.05,-37.0534 263.653,-35.0139 264.651,-41.9425"/>
</g>
<!-- Node4 -->
<g id="node7" class="node"><title>Node4</title>
<a xlink:href="class_driver_station.html#a3d0f8b9b6dd45cd071773a47d35059ac" target="_top" xlink:title="DriverStation::GetStickAxis">
<polygon fill="white" stroke="black" points="424.5,-19.5 424.5,-38.5 559.5,-38.5 559.5,-19.5 424.5,-19.5"/>
<text text-anchor="middle" x="492" y="-26.5" font-family="Helvetica,sans-Serif" font-size="10.00">DriverStation::GetStickAxis</text>
</a>
</g>
<!-- Node3&#45;&gt;Node4 -->
<g id="edge6" class="edge"><title>Node3&#45;&gt;Node4</title>
<path fill="none" stroke="midnightblue" d="M387.61,-29C396.264,-29 405.334,-29 414.355,-29"/>
<polygon fill="midnightblue" stroke="midnightblue" points="414.495,-32.5001 424.495,-29 414.495,-25.5001 414.495,-32.5001"/>
</g>
<!-- Node5&#45;&gt;Node3 -->
<g id="edge10" class="edge"><title>Node5&#45;&gt;Node3</title>
<path fill="none" stroke="midnightblue" d="M237.604,-15.7006C246.081,-16.9208 255.254,-18.241 264.415,-19.5598"/>
<polygon fill="midnightblue" stroke="midnightblue" points="263.922,-23.0248 274.319,-20.9853 264.92,-16.0962 263.922,-23.0248"/>
</g>
</g>
</svg>
