<?xml version="1.0" encoding="UTF-8" standalone="no"?>
<!DOCTYPE svg PUBLIC "-//W3C//DTD SVG 1.1//EN"
 "http://www.w3.org/Graphics/SVG/1.1/DTD/svg11.dtd">
<!-- Generated by graphviz version 2.28.0 (20110507.0327)
 -->
<!-- Title: CANJaguar::ConfigPotentiometerTurns Pages: 1 -->
<svg width="642pt" height="199pt"
 viewBox="0.00 0.00 642.00 199.00" xmlns="http://www.w3.org/2000/svg" xmlns:xlink="http://www.w3.org/1999/xlink">
<g id="graph1" class="graph" transform="scale(1 1) rotate(0) translate(4 195)">
<title>CANJaguar::ConfigPotentiometerTurns</title>
<polygon fill="white" stroke="white" points="-4,5 -4,-195 639,-195 639,5 -4,5"/>
<!-- Node1 -->
<g id="node1" class="node"><title>Node1</title>
<polygon fill="#bfbfbf" stroke="black" points="0.5,-71 0.5,-101 159.5,-101 159.5,-71 0.5,-71"/>
<text text-anchor="start" x="8.5" y="-89" font-family="Helvetica,sans-Serif" font-size="10.00">CANJaguar::ConfigPotentiometer</text>
<text text-anchor="middle" x="80" y="-78" font-family="Helvetica,sans-Serif" font-size="10.00">Turns</text>
</g>
<!-- Node2 -->
<g id="node3" class="node"><title>Node2</title>
<a xlink:href="class_c_a_n_jaguar.html#a97fe9cb246f90060495c808e31070650" target="_top" xlink:title="CANJaguar::verify">
<polygon fill="white" stroke="black" points="222.5,-152.5 222.5,-171.5 315.5,-171.5 315.5,-152.5 222.5,-152.5"/>
<text text-anchor="middle" x="269" y="-159.5" font-family="Helvetica,sans-Serif" font-size="10.00">CANJaguar::verify</text>
</a>
</g>
<!-- Node1&#45;&gt;Node2 -->
<g id="edge2" class="edge"><title>Node1&#45;&gt;Node2</title>
<path fill="none" stroke="midnightblue" d="M116.804,-106.093C139.085,-118 168.619,-132.722 196,-143 205.562,-146.589 216.079,-149.772 226.051,-152.459"/>
<polygon fill="midnightblue" stroke="midnightblue" points="118.187,-102.862 107.726,-101.183 114.857,-109.019 118.187,-102.862"/>
</g>
<!-- Node6 -->
<g id="node11" class="node"><title>Node6</title>
<a xlink:href="class_c_a_n_jaguar.html#a179186b1241b539377e61d1fdc43d3a1" target="_top" xlink:title="CANJaguar::SetPercentMode">
<polygon fill="white" stroke="black" points="197,-114.5 197,-133.5 341,-133.5 341,-114.5 197,-114.5"/>
<text text-anchor="middle" x="269" y="-121.5" font-family="Helvetica,sans-Serif" font-size="10.00">CANJaguar::SetPercentMode</text>
</a>
</g>
<!-- Node1&#45;&gt;Node6 -->
<g id="edge10" class="edge"><title>Node1&#45;&gt;Node6</title>
<path fill="none" stroke="midnightblue" d="M164.949,-103.059C184.282,-106.988 204.165,-111.028 221.245,-114.499"/>
<polygon fill="midnightblue" stroke="midnightblue" points="165.404,-99.5802 154.907,-101.019 164.01,-106.44 165.404,-99.5802"/>
</g>
<!-- Node7 -->
<g id="node13" class="node"><title>Node7</title>
<a xlink:href="class_c_a_n_jaguar.html#aaf192c1ec9d25507218665b47d1c3845" target="_top" xlink:title="CANJaguar::SetCurrentMode">
<polygon fill="white" stroke="black" points="198,-76.5 198,-95.5 340,-95.5 340,-76.5 198,-76.5"/>
<text text-anchor="middle" x="269" y="-83.5" font-family="Helvetica,sans-Serif" font-size="10.00">CANJaguar::SetCurrentMode</text>
</a>
</g>
<!-- Node1&#45;&gt;Node7 -->
<g id="edge12" class="edge"><title>Node1&#45;&gt;Node7</title>
<path fill="none" stroke="midnightblue" d="M169.925,-86C179.329,-86 188.795,-86 197.941,-86"/>
<polygon fill="midnightblue" stroke="midnightblue" points="169.763,-82.5001 159.763,-86 169.763,-89.5001 169.763,-82.5001"/>
</g>
<!-- Node8 -->
<g id="node15" class="node"><title>Node8</title>
<a xlink:href="class_c_a_n_jaguar.html#a1b464ad2f6c282d0bed5a012fcc61fa8" target="_top" xlink:title="CANJaguar::SetPositionMode">
<polygon fill="white" stroke="black" points="196,-38.5 196,-57.5 342,-57.5 342,-38.5 196,-38.5"/>
<text text-anchor="middle" x="269" y="-45.5" font-family="Helvetica,sans-Serif" font-size="10.00">CANJaguar::SetPositionMode</text>
</a>
</g>
<!-- Node1&#45;&gt;Node8 -->
<g id="edge14" class="edge"><title>Node1&#45;&gt;Node8</title>
<path fill="none" stroke="midnightblue" d="M164.949,-68.9408C184.282,-65.0123 204.165,-60.9719 221.245,-57.5009"/>
<polygon fill="midnightblue" stroke="midnightblue" points="164.01,-65.56 154.907,-70.9814 165.404,-72.4198 164.01,-65.56"/>
</g>
<!-- Node9 -->
<g id="node17" class="node"><title>Node9</title>
<a xlink:href="class_c_a_n_jaguar.html#a7c41e6c0020498a3eaca4e67002d193e" target="_top" xlink:title="CANJaguar::SetVoltageMode">
<polygon fill="white" stroke="black" points="197.5,-0.5 197.5,-19.5 340.5,-19.5 340.5,-0.5 197.5,-0.5"/>
<text text-anchor="middle" x="269" y="-7.5" font-family="Helvetica,sans-Serif" font-size="10.00">CANJaguar::SetVoltageMode</text>
</a>
</g>
<!-- Node1&#45;&gt;Node9 -->
<g id="edge16" class="edge"><title>Node1&#45;&gt;Node9</title>
<path fill="none" stroke="midnightblue" d="M116.804,-65.9071C139.085,-53.9997 168.619,-39.2778 196,-29 205.562,-25.411 216.079,-22.2276 226.051,-19.5415"/>
<polygon fill="midnightblue" stroke="midnightblue" points="114.857,-62.9809 107.726,-70.8168 118.187,-69.138 114.857,-62.9809"/>
</g>
<!-- Node3 -->
<g id="node5" class="node"><title>Node3</title>
<a xlink:href="class_c_a_n_jaguar.html#a3a22b02ece406993619f993b1e09012a" target="_top" xlink:title="CANJaguar::Set">
<polygon fill="white" stroke="black" points="378,-152.5 378,-171.5 464,-171.5 464,-152.5 378,-152.5"/>
<text text-anchor="middle" x="421" y="-159.5" font-family="Helvetica,sans-Serif" font-size="10.00">CANJaguar::Set</text>
</a>
</g>
<!-- Node2&#45;&gt;Node3 -->
<g id="edge4" class="edge"><title>Node2&#45;&gt;Node3</title>
<path fill="none" stroke="midnightblue" d="M326.242,-162C343.323,-162 361.791,-162 377.783,-162"/>
<polygon fill="midnightblue" stroke="midnightblue" points="325.82,-158.5 315.82,-162 325.82,-165.5 325.82,-158.5"/>
</g>
<!-- Node4 -->
<g id="node7" class="node"><title>Node4</title>
<a xlink:href="class_c_a_n_jaguar.html#a2355d55f42083ab82870c79f742620e4" target="_top" xlink:title="CANJaguar::PIDWrite">
<polygon fill="white" stroke="black" points="512,-171.5 512,-190.5 622,-190.5 622,-171.5 512,-171.5"/>
<text text-anchor="middle" x="567" y="-178.5" font-family="Helvetica,sans-Serif" font-size="10.00">CANJaguar::PIDWrite</text>
</a>
</g>
<!-- Node3&#45;&gt;Node4 -->
<g id="edge6" class="edge"><title>Node3&#45;&gt;Node4</title>
<path fill="none" stroke="midnightblue" d="M474.11,-168.876C486.376,-170.494 499.478,-172.223 511.832,-173.853"/>
<polygon fill="midnightblue" stroke="midnightblue" points="474.41,-165.385 464.038,-167.547 473.494,-172.325 474.41,-165.385"/>
</g>
<!-- Node5 -->
<g id="node9" class="node"><title>Node5</title>
<a xlink:href="class_c_a_n_jaguar_test.html#a3c9026e62eb65e2d497bb7bbfaded297" target="_top" xlink:title="CANJaguarTest::SetJaguar">
<polygon fill="white" stroke="black" points="500,-133.5 500,-152.5 634,-152.5 634,-133.5 500,-133.5"/>
<text text-anchor="middle" x="567" y="-140.5" font-family="Helvetica,sans-Serif" font-size="10.00">CANJaguarTest::SetJaguar</text>
</a>
</g>
<!-- Node3&#45;&gt;Node5 -->
<g id="edge8" class="edge"><title>Node3&#45;&gt;Node5</title>
<path fill="none" stroke="midnightblue" d="M474.018,-155.137C482.387,-154.032 491.147,-152.876 499.794,-151.735"/>
<polygon fill="midnightblue" stroke="midnightblue" points="473.494,-151.675 464.038,-156.453 474.41,-158.615 473.494,-151.675"/>
</g>
</g>
</svg>
