<?xml version="1.0" encoding="UTF-8" standalone="no"?>
<!DOCTYPE svg PUBLIC "-//W3C//DTD SVG 1.1//EN"
 "http://www.w3.org/Graphics/SVG/1.1/DTD/svg11.dtd">
<!-- Generated by graphviz version 2.28.0 (20110507.0327)
 -->
<!-- Title: Command::GetName Pages: 1 -->
<svg width="516pt" height="142pt"
 viewBox="0.00 0.00 516.00 142.00" xmlns="http://www.w3.org/2000/svg" xmlns:xlink="http://www.w3.org/1999/xlink">
<g id="graph1" class="graph" transform="scale(1 1) rotate(0) translate(4 138)">
<title>Command::GetName</title>
<polygon fill="white" stroke="white" points="-4,5 -4,-138 513,-138 513,5 -4,5"/>
<!-- Node1 -->
<g id="node1" class="node"><title>Node1</title>
<polygon fill="#bfbfbf" stroke="black" points="0,-57.5 0,-76.5 108,-76.5 108,-57.5 0,-57.5"/>
<text text-anchor="middle" x="54" y="-64.5" font-family="Helvetica,sans-Serif" font-size="10.00">Command::GetName</text>
</g>
<!-- Node2 -->
<g id="node3" class="node"><title>Node2</title>
<a xlink:href="class_command.html#a0d4248ecf28f82d7e35ee177eeac8d31" target="_top" xlink:title="Command::InitTable">
<polygon fill="white" stroke="black" points="173.5,-114.5 173.5,-133.5 276.5,-133.5 276.5,-114.5 173.5,-114.5"/>
<text text-anchor="middle" x="225" y="-121.5" font-family="Helvetica,sans-Serif" font-size="10.00">Command::InitTable</text>
</a>
</g>
<!-- Node1&#45;&gt;Node2 -->
<g id="edge2" class="edge"><title>Node1&#45;&gt;Node2</title>
<path fill="none" stroke="midnightblue" d="M84.2225,-80.9702C101.361,-88.7838 123.592,-98.2741 144,-105 154.846,-108.575 166.726,-111.771 177.934,-114.475"/>
<polygon fill="midnightblue" stroke="midnightblue" points="85.3177,-77.6204 74.7724,-76.5969 82.3778,-83.9732 85.3177,-77.6204"/>
</g>
<!-- Node4 -->
<g id="node7" class="node"><title>Node4</title>
<a xlink:href="class_scheduler.html#af1c349ae113be36ad0026d1a82951693" target="_top" xlink:title="Scheduler::UpdateTable">
<polygon fill="white" stroke="black" points="165,-76.5 165,-95.5 285,-95.5 285,-76.5 165,-76.5"/>
<text text-anchor="middle" x="225" y="-83.5" font-family="Helvetica,sans-Serif" font-size="10.00">Scheduler::UpdateTable</text>
</a>
</g>
<!-- Node1&#45;&gt;Node4 -->
<g id="edge6" class="edge"><title>Node1&#45;&gt;Node4</title>
<path fill="none" stroke="midnightblue" d="M118.345,-74.1217C133.538,-75.8298 149.707,-77.6475 164.708,-79.3341"/>
<polygon fill="midnightblue" stroke="midnightblue" points="118.337,-70.5988 108.009,-72.9596 117.555,-77.555 118.337,-70.5988"/>
</g>
<!-- Node6 -->
<g id="node11" class="node"><title>Node6</title>
<a xlink:href="class_subsystem.html#aeb73b1829ac913e95035064d1b46c6f2" target="_top" xlink:title="Subsystem::SetDefaultCommand">
<polygon fill="white" stroke="black" points="144.5,-38.5 144.5,-57.5 305.5,-57.5 305.5,-38.5 144.5,-38.5"/>
<text text-anchor="middle" x="225" y="-45.5" font-family="Helvetica,sans-Serif" font-size="10.00">Subsystem::SetDefaultCommand</text>
</a>
</g>
<!-- Node1&#45;&gt;Node6 -->
<g id="edge10" class="edge"><title>Node1&#45;&gt;Node6</title>
<path fill="none" stroke="midnightblue" d="M118.202,-59.8945C126.703,-58.9387 135.513,-57.9482 144.255,-56.9655"/>
<polygon fill="midnightblue" stroke="midnightblue" points="117.555,-56.445 108.009,-61.0404 118.337,-63.4012 117.555,-56.445"/>
</g>
<!-- Node8 -->
<g id="node15" class="node"><title>Node8</title>
<a xlink:href="class_subsystem.html#a86ea4b4ef924e2e90841f08d42e1d309" target="_top" xlink:title="Subsystem::InitTable">
<polygon fill="white" stroke="black" points="171,-0.5 171,-19.5 279,-19.5 279,-0.5 171,-0.5"/>
<text text-anchor="middle" x="225" y="-7.5" font-family="Helvetica,sans-Serif" font-size="10.00">Subsystem::InitTable</text>
</a>
</g>
<!-- Node1&#45;&gt;Node8 -->
<g id="edge14" class="edge"><title>Node1&#45;&gt;Node8</title>
<path fill="none" stroke="midnightblue" d="M84.2225,-53.0298C101.361,-45.2162 123.592,-35.7259 144,-29 154.846,-25.4254 166.726,-22.2295 177.934,-19.5246"/>
<polygon fill="midnightblue" stroke="midnightblue" points="82.3778,-50.0268 74.7724,-57.4031 85.3177,-56.3796 82.3778,-50.0268"/>
</g>
<!-- Node3 -->
<g id="node5" class="node"><title>Node3</title>
<a xlink:href="class_p_i_d_command.html#aca89a102a75fc9fc9d8eaa4472a8af35" target="_top" xlink:title="PIDCommand::InitTable">
<polygon fill="white" stroke="black" points="365.5,-114.5 365.5,-133.5 484.5,-133.5 484.5,-114.5 365.5,-114.5"/>
<text text-anchor="middle" x="425" y="-121.5" font-family="Helvetica,sans-Serif" font-size="10.00">PIDCommand::InitTable</text>
</a>
</g>
<!-- Node2&#45;&gt;Node3 -->
<g id="edge4" class="edge"><title>Node2&#45;&gt;Node3</title>
<path fill="none" stroke="midnightblue" d="M286.815,-124C311.786,-124 340.584,-124 365.328,-124"/>
<polygon fill="midnightblue" stroke="midnightblue" points="286.733,-120.5 276.733,-124 286.733,-127.5 286.733,-120.5"/>
</g>
<!-- Node5 -->
<g id="node9" class="node"><title>Node5</title>
<a xlink:href="class_scheduler.html#a6e17233143754873d7f29860047de2c1" target="_top" xlink:title="Scheduler::Run">
<polygon fill="white" stroke="black" points="383.5,-76.5 383.5,-95.5 466.5,-95.5 466.5,-76.5 383.5,-76.5"/>
<text text-anchor="middle" x="425" y="-83.5" font-family="Helvetica,sans-Serif" font-size="10.00">Scheduler::Run</text>
</a>
</g>
<!-- Node4&#45;&gt;Node5 -->
<g id="edge8" class="edge"><title>Node4&#45;&gt;Node5</title>
<path fill="none" stroke="midnightblue" d="M295.361,-86C324.768,-86 358.02,-86 383.348,-86"/>
<polygon fill="midnightblue" stroke="midnightblue" points="295.138,-82.5001 285.138,-86 295.138,-89.5001 295.138,-82.5001"/>
</g>
<!-- Node7 -->
<g id="node13" class="node"><title>Node7</title>
<a xlink:href="class_a_subsystem.html#addb38299b48c9b74c55932971c539b1a" target="_top" xlink:title="ASubsystem::InitDefaultCommand">
<polygon fill="white" stroke="black" points="342,-38.5 342,-57.5 508,-57.5 508,-38.5 342,-38.5"/>
<text text-anchor="middle" x="425" y="-45.5" font-family="Helvetica,sans-Serif" font-size="10.00">ASubsystem::InitDefaultCommand</text>
</a>
</g>
<!-- Node6&#45;&gt;Node7 -->
<g id="edge12" class="edge"><title>Node6&#45;&gt;Node7</title>
<path fill="none" stroke="midnightblue" d="M315.819,-48C324.508,-48 333.292,-48 341.901,-48"/>
<polygon fill="midnightblue" stroke="midnightblue" points="315.678,-44.5001 305.678,-48 315.678,-51.5001 315.678,-44.5001"/>
</g>
<!-- Node9 -->
<g id="node17" class="node"><title>Node9</title>
<a xlink:href="class_p_i_d_subsystem.html#a0fbee3092f4cdc044d5f1fd96dfbd7d4" target="_top" xlink:title="PIDSubsystem::InitTable">
<polygon fill="white" stroke="black" points="363,-0.5 363,-19.5 487,-19.5 487,-0.5 363,-0.5"/>
<text text-anchor="middle" x="425" y="-7.5" font-family="Helvetica,sans-Serif" font-size="10.00">PIDSubsystem::InitTable</text>
</a>
</g>
<!-- Node8&#45;&gt;Node9 -->
<g id="edge16" class="edge"><title>Node8&#45;&gt;Node9</title>
<path fill="none" stroke="midnightblue" d="M289.273,-10C312.783,-10 339.398,-10 362.727,-10"/>
<polygon fill="midnightblue" stroke="midnightblue" points="289.06,-6.5001 279.06,-10 289.06,-13.5001 289.06,-6.5001"/>
</g>
</g>
</svg>
