<?xml version="1.0" encoding="UTF-8" standalone="no"?>
<!DOCTYPE svg PUBLIC "-//W3C//DTD SVG 1.1//EN"
 "http://www.w3.org/Graphics/SVG/1.1/DTD/svg11.dtd">
<!-- Generated by graphviz version 2.28.0 (20110507.0327)
 -->
<!-- Title: RobotDrive::RobotDrive Pages: 1 -->
<svg width="766pt" height="191pt"
 viewBox="0.00 0.00 766.00 191.00" xmlns="http://www.w3.org/2000/svg" xmlns:xlink="http://www.w3.org/1999/xlink">
<g id="graph1" class="graph" transform="scale(1 1) rotate(0) translate(4 187)">
<title>RobotDrive::RobotDrive</title>
<polygon fill="white" stroke="white" points="-4,5 -4,-187 763,-187 763,5 -4,5"/>
<!-- Node1 -->
<g id="node1" class="node"><title>Node1</title>
<polygon fill="#bfbfbf" stroke="black" points="0,-107.5 0,-126.5 116,-126.5 116,-107.5 0,-107.5"/>
<text text-anchor="middle" x="58" y="-114.5" font-family="Helvetica,sans-Serif" font-size="10.00">RobotDrive::RobotDrive</text>
</g>
<!-- Node2 -->
<g id="node3" class="node"><title>Node2</title>
<a xlink:href="class_robot_drive.html#ae57d5bb728428fac6cbd7eade67c569d" target="_top" xlink:title="RobotDrive::InitRobotDrive">
<polygon fill="white" stroke="black" points="152,-139.5 152,-158.5 280,-158.5 280,-139.5 152,-139.5"/>
<text text-anchor="middle" x="216" y="-146.5" font-family="Helvetica,sans-Serif" font-size="10.00">RobotDrive::InitRobotDrive</text>
</a>
</g>
<!-- Node1&#45;&gt;Node2 -->
<g id="edge2" class="edge"><title>Node1&#45;&gt;Node2</title>
<path fill="none" stroke="midnightblue" d="M105.383,-126.514C122.05,-129.933 141.036,-133.828 158.47,-137.404"/>
<polygon fill="midnightblue" stroke="midnightblue" points="158.027,-140.886 168.527,-139.467 159.434,-134.029 158.027,-140.886"/>
</g>
<!-- Node4 -->
<g id="node7" class="node"><title>Node4</title>
<a xlink:href="class_robot_drive.html#a6f17b92a6867d512188b497f192f0715" target="_top" xlink:title="RobotDrive::SetLeftRight\lMotorOutputs">
<polygon fill="white" stroke="black" points="155,-71 155,-101 277,-101 277,-71 155,-71"/>
<text text-anchor="start" x="163" y="-89" font-family="Helvetica,sans-Serif" font-size="10.00">RobotDrive::SetLeftRight</text>
<text text-anchor="middle" x="216" y="-78" font-family="Helvetica,sans-Serif" font-size="10.00">MotorOutputs</text>
</a>
</g>
<!-- Node1&#45;&gt;Node4 -->
<g id="edge6" class="edge"><title>Node1&#45;&gt;Node4</title>
<path fill="none" stroke="midnightblue" d="M107.078,-107.446C119.016,-105.074 132.057,-102.482 144.815,-99.9469"/>
<polygon fill="midnightblue" stroke="midnightblue" points="145.835,-103.313 154.961,-97.9309 144.47,-96.4471 145.835,-103.313"/>
</g>
<!-- Node3 -->
<g id="node5" class="node"><title>Node3</title>
<a xlink:href="class_motor_safety_helper.html#ad3904b781b0d4e88aba0e9a93995b122" target="_top" xlink:title="MotorSafetyHelper::\lSetSafetyEnabled">
<polygon fill="white" stroke="black" points="340.5,-153 340.5,-183 443.5,-183 443.5,-153 340.5,-153"/>
<text text-anchor="start" x="348.5" y="-171" font-family="Helvetica,sans-Serif" font-size="10.00">MotorSafetyHelper::</text>
<text text-anchor="middle" x="392" y="-160" font-family="Helvetica,sans-Serif" font-size="10.00">SetSafetyEnabled</text>
</a>
</g>
<!-- Node2&#45;&gt;Node3 -->
<g id="edge4" class="edge"><title>Node2&#45;&gt;Node3</title>
<path fill="none" stroke="midnightblue" d="M280.31,-155.913C296.491,-157.68 313.856,-159.576 329.922,-161.331"/>
<polygon fill="midnightblue" stroke="midnightblue" points="329.946,-164.854 340.267,-162.46 330.706,-157.895 329.946,-164.854"/>
</g>
<!-- Node5 -->
<g id="node9" class="node"><title>Node5</title>
<a xlink:href="class_speed_controller.html#adc3d0010c1c684979261b98d438f8db5" target="_top" xlink:title="SpeedController::Set">
<polygon fill="white" stroke="black" points="338.5,-114.5 338.5,-133.5 445.5,-133.5 445.5,-114.5 338.5,-114.5"/>
<text text-anchor="middle" x="392" y="-121.5" font-family="Helvetica,sans-Serif" font-size="10.00">SpeedController::Set</text>
</a>
</g>
<!-- Node4&#45;&gt;Node5 -->
<g id="edge8" class="edge"><title>Node4&#45;&gt;Node5</title>
<path fill="none" stroke="midnightblue" d="M277.368,-99.1839C296.921,-103.454 318.459,-108.158 337.479,-112.311"/>
<polygon fill="midnightblue" stroke="midnightblue" points="336.947,-115.778 347.463,-114.492 338.44,-108.939 336.947,-115.778"/>
</g>
<!-- Node6 -->
<g id="node11" class="node"><title>Node6</title>
<a xlink:href="class_robot_drive.html#aa7d99fd794c6f8c0b5486603f508a3a7" target="_top" xlink:title="RobotDrive::Limit">
<polygon fill="white" stroke="black" points="347,-76.5 347,-95.5 437,-95.5 437,-76.5 347,-76.5"/>
<text text-anchor="middle" x="392" y="-83.5" font-family="Helvetica,sans-Serif" font-size="10.00">RobotDrive::Limit</text>
</a>
</g>
<!-- Node4&#45;&gt;Node6 -->
<g id="edge10" class="edge"><title>Node4&#45;&gt;Node6</title>
<path fill="none" stroke="midnightblue" d="M277.368,-86C296.665,-86 317.896,-86 336.731,-86"/>
<polygon fill="midnightblue" stroke="midnightblue" points="336.921,-89.5001 346.921,-86 336.921,-82.5001 336.921,-89.5001"/>
</g>
<!-- Node7 -->
<g id="node13" class="node"><title>Node7</title>
<a xlink:href="class_c_a_n_jaguar.html#a225e0588b0955681a24da6ab0d2c8bc0" target="_top" xlink:title="CANJaguar::UpdateSyncGroup">
<polygon fill="white" stroke="black" points="316.5,-38.5 316.5,-57.5 467.5,-57.5 467.5,-38.5 316.5,-38.5"/>
<text text-anchor="middle" x="392" y="-45.5" font-family="Helvetica,sans-Serif" font-size="10.00">CANJaguar::UpdateSyncGroup</text>
</a>
</g>
<!-- Node4&#45;&gt;Node7 -->
<g id="edge12" class="edge"><title>Node4&#45;&gt;Node7</title>
<path fill="none" stroke="midnightblue" d="M277.368,-72.8161C296.921,-68.546 318.459,-63.8422 337.479,-59.6885"/>
<polygon fill="midnightblue" stroke="midnightblue" points="338.44,-63.0611 347.463,-57.508 336.947,-56.2223 338.44,-63.0611"/>
</g>
<!-- Node8 -->
<g id="node15" class="node"><title>Node8</title>
<a xlink:href="class_motor_safety_helper.html#a67b80e9817dc725e0678de5e8f0bb39e" target="_top" xlink:title="MotorSafetyHelper::Feed">
<polygon fill="white" stroke="black" points="329.5,-0.5 329.5,-19.5 454.5,-19.5 454.5,-0.5 329.5,-0.5"/>
<text text-anchor="middle" x="392" y="-7.5" font-family="Helvetica,sans-Serif" font-size="10.00">MotorSafetyHelper::Feed</text>
</a>
</g>
<!-- Node4&#45;&gt;Node8 -->
<g id="edge14" class="edge"><title>Node4&#45;&gt;Node8</title>
<path fill="none" stroke="midnightblue" d="M239.296,-70.7788C258.791,-58.0632 288.248,-40.2542 316,-29 321.963,-26.5818 328.321,-24.4033 334.717,-22.4594"/>
<polygon fill="midnightblue" stroke="midnightblue" points="336.092,-25.7069 344.748,-19.5973 334.171,-18.9755 336.092,-25.7069"/>
</g>
<!-- Node9 -->
<g id="node17" class="node"><title>Node9</title>
<a xlink:href="class_timer.html#a7fa6e6dffec055e5104ccd6bcadec9aa" target="_top" xlink:title="Timer::GetFPGATimestamp">
<polygon fill="white" stroke="black" points="504.5,-0.5 504.5,-19.5 641.5,-19.5 641.5,-0.5 504.5,-0.5"/>
<text text-anchor="middle" x="573" y="-7.5" font-family="Helvetica,sans-Serif" font-size="10.00">Timer::GetFPGATimestamp</text>
</a>
</g>
<!-- Node8&#45;&gt;Node9 -->
<g id="edge16" class="edge"><title>Node8&#45;&gt;Node9</title>
<path fill="none" stroke="midnightblue" d="M454.602,-10C467.415,-10 481.076,-10 494.381,-10"/>
<polygon fill="midnightblue" stroke="midnightblue" points="494.465,-13.5001 504.465,-10 494.465,-6.5001 494.465,-13.5001"/>
</g>
<!-- Node10 -->
<g id="node19" class="node"><title>Node10</title>
<a xlink:href="_utility_8h.html#ababf055d95368485d48bd9a0231853f3" target="_top" xlink:title="GetFPGATime">
<polygon fill="white" stroke="black" points="678,-0.5 678,-19.5 758,-19.5 758,-0.5 678,-0.5"/>
<text text-anchor="middle" x="718" y="-7.5" font-family="Helvetica,sans-Serif" font-size="10.00">GetFPGATime</text>
</a>
</g>
<!-- Node9&#45;&gt;Node10 -->
<g id="edge18" class="edge"><title>Node9&#45;&gt;Node10</title>
<path fill="none" stroke="midnightblue" d="M641.731,-10C650.558,-10 659.463,-10 667.904,-10"/>
<polygon fill="midnightblue" stroke="midnightblue" points="667.934,-13.5001 677.933,-10 667.933,-6.5001 667.934,-13.5001"/>
</g>
</g>
</svg>
