<?xml version="1.0" encoding="UTF-8" standalone="no"?>
<!DOCTYPE svg PUBLIC "-//W3C//DTD SVG 1.1//EN"
 "http://www.w3.org/Graphics/SVG/1.1/DTD/svg11.dtd">
<!-- Generated by graphviz version 2.28.0 (20110507.0327)
 -->
<!-- Title: Solenoid::UpdateTable Pages: 1 -->
<svg width="394pt" height="66pt"
 viewBox="0.00 0.00 394.00 66.00" xmlns="http://www.w3.org/2000/svg" xmlns:xlink="http://www.w3.org/1999/xlink">
<g id="graph1" class="graph" transform="scale(1 1) rotate(0) translate(4 62)">
<title>Solenoid::UpdateTable</title>
<polygon fill="white" stroke="white" points="-4,5 -4,-62 391,-62 391,5 -4,5"/>
<!-- Node1 -->
<g id="node1" class="node"><title>Node1</title>
<polygon fill="#bfbfbf" stroke="black" points="0,-19.5 0,-38.5 114,-38.5 114,-19.5 0,-19.5"/>
<text text-anchor="middle" x="57" y="-26.5" font-family="Helvetica,sans-Serif" font-size="10.00">Solenoid::UpdateTable</text>
</g>
<!-- Node2 -->
<g id="node3" class="node"><title>Node2</title>
<a xlink:href="class_solenoid.html#ab9eda95dc5f78d2f808a053d33e40814" target="_top" xlink:title="Solenoid::Get">
<polygon fill="white" stroke="black" points="150,-19.5 150,-38.5 226,-38.5 226,-19.5 150,-19.5"/>
<text text-anchor="middle" x="188" y="-26.5" font-family="Helvetica,sans-Serif" font-size="10.00">Solenoid::Get</text>
</a>
</g>
<!-- Node1&#45;&gt;Node2 -->
<g id="edge2" class="edge"><title>Node1&#45;&gt;Node2</title>
<path fill="none" stroke="midnightblue" d="M114.206,-29C122.704,-29 131.397,-29 139.682,-29"/>
<polygon fill="midnightblue" stroke="midnightblue" points="139.912,-32.5001 149.912,-29 139.912,-25.5001 139.912,-32.5001"/>
</g>
<!-- Node3 -->
<g id="node5" class="node"><title>Node3</title>
<a xlink:href="class_error_base.html#a05790f219c9e436a09752f73f7344024" target="_top" xlink:title="Check if the current error code represents a fatal error. ">
<polygon fill="white" stroke="black" points="262,-38.5 262,-57.5 386,-57.5 386,-38.5 262,-38.5"/>
<text text-anchor="middle" x="324" y="-45.5" font-family="Helvetica,sans-Serif" font-size="10.00">ErrorBase::StatusIsFatal</text>
</a>
</g>
<!-- Node2&#45;&gt;Node3 -->
<g id="edge4" class="edge"><title>Node2&#45;&gt;Node3</title>
<path fill="none" stroke="midnightblue" d="M226.326,-34.2926C234.372,-35.4334 243.134,-36.6757 251.989,-37.9313"/>
<polygon fill="midnightblue" stroke="midnightblue" points="251.601,-41.4112 261.993,-39.3498 252.584,-34.4805 251.601,-41.4112"/>
</g>
<!-- Node4 -->
<g id="node7" class="node"><title>Node4</title>
<a xlink:href="class_solenoid_base.html#a2357cb3d45699c560f8892de139bedbd" target="_top" xlink:title="SolenoidBase::GetAll">
<polygon fill="white" stroke="black" points="269,-0.5 269,-19.5 379,-19.5 379,-0.5 269,-0.5"/>
<text text-anchor="middle" x="324" y="-7.5" font-family="Helvetica,sans-Serif" font-size="10.00">SolenoidBase::GetAll</text>
</a>
</g>
<!-- Node2&#45;&gt;Node4 -->
<g id="edge6" class="edge"><title>Node2&#45;&gt;Node4</title>
<path fill="none" stroke="midnightblue" d="M226.326,-23.7074C236.406,-22.2783 247.608,-20.6899 258.711,-19.1156"/>
<polygon fill="midnightblue" stroke="midnightblue" points="259.435,-22.5481 268.844,-17.6788 258.452,-15.6174 259.435,-22.5481"/>
</g>
</g>
</svg>
