<?xml version="1.0" encoding="UTF-8" standalone="no"?>
<!DOCTYPE svg PUBLIC "-//W3C//DTD SVG 1.1//EN"
 "http://www.w3.org/Graphics/SVG/1.1/DTD/svg11.dtd">
<!-- Generated by graphviz version 2.28.0 (20110507.0327)
 -->
<!-- Title: InterruptableSensorBase::SetUpSourceEdge Pages: 1 -->
<svg width="292pt" height="38pt"
 viewBox="0.00 0.00 292.00 38.00" xmlns="http://www.w3.org/2000/svg" xmlns:xlink="http://www.w3.org/1999/xlink">
<g id="graph1" class="graph" transform="scale(1 1) rotate(0) translate(4 34)">
<title>InterruptableSensorBase::SetUpSourceEdge</title>
<polygon fill="white" stroke="white" points="-4,5 -4,-34 289,-34 289,5 -4,5"/>
<!-- Node1 -->
<g id="node1" class="node"><title>Node1</title>
<polygon fill="#bfbfbf" stroke="black" points="0.5,-0 0.5,-30 123.5,-30 123.5,-0 0.5,-0"/>
<text text-anchor="start" x="8.5" y="-18" font-family="Helvetica,sans-Serif" font-size="10.00">InterruptableSensorBase</text>
<text text-anchor="middle" x="62" y="-7" font-family="Helvetica,sans-Serif" font-size="10.00">::SetUpSourceEdge</text>
</g>
<!-- Node2 -->
<g id="node3" class="node"><title>Node2</title>
<a xlink:href="class_interruptable_sensor_base.html#a0d1ca3708875a9cb8e0031c8f99b157b" target="_top" xlink:title="Asynchronus handler version. ">
<polygon fill="white" stroke="black" points="160.5,-0 160.5,-30 283.5,-30 283.5,-0 160.5,-0"/>
<text text-anchor="start" x="168.5" y="-18" font-family="Helvetica,sans-Serif" font-size="10.00">InterruptableSensorBase</text>
<text text-anchor="middle" x="222" y="-7" font-family="Helvetica,sans-Serif" font-size="10.00">::RequestInterrupts</text>
</a>
</g>
<!-- Node1&#45;&gt;Node2 -->
<g id="edge2" class="edge"><title>Node1&#45;&gt;Node2</title>
<path fill="none" stroke="midnightblue" d="M133.884,-15C142.69,-15 151.632,-15 160.266,-15"/>
<polygon fill="midnightblue" stroke="midnightblue" points="133.635,-11.5001 123.635,-15 133.635,-18.5001 133.635,-11.5001"/>
</g>
</g>
</svg>
