<?xml version="1.0" encoding="UTF-8" standalone="no"?>
<!DOCTYPE svg PUBLIC "-//W3C//DTD SVG 1.1//EN"
 "http://www.w3.org/Graphics/SVG/1.1/DTD/svg11.dtd">
<!-- Generated by graphviz version 2.28.0 (20110507.0327)
 -->
<!-- Title: Joystick::GetButton Pages: 1 -->
<svg width="590pt" height="66pt"
 viewBox="0.00 0.00 590.00 66.00" xmlns="http://www.w3.org/2000/svg" xmlns:xlink="http://www.w3.org/1999/xlink">
<g id="graph1" class="graph" transform="scale(1 1) rotate(0) translate(4 62)">
<title>Joystick::GetButton</title>
<polygon fill="white" stroke="white" points="-4,5 -4,-62 587,-62 587,5 -4,5"/>
<!-- Node1 -->
<g id="node1" class="node"><title>Node1</title>
<polygon fill="#bfbfbf" stroke="black" points="0.5,-19.5 0.5,-38.5 103.5,-38.5 103.5,-19.5 0.5,-19.5"/>
<text text-anchor="middle" x="52" y="-26.5" font-family="Helvetica,sans-Serif" font-size="10.00">Joystick::GetButton</text>
</g>
<!-- Node2 -->
<g id="node3" class="node"><title>Node2</title>
<a xlink:href="class_joystick.html#a17c9682c8bbfd77d9377d2352fb836dd" target="_top" xlink:title="Joystick::GetTrigger">
<polygon fill="white" stroke="black" points="140,-38.5 140,-57.5 244,-57.5 244,-38.5 140,-38.5"/>
<text text-anchor="middle" x="192" y="-45.5" font-family="Helvetica,sans-Serif" font-size="10.00">Joystick::GetTrigger</text>
</a>
</g>
<!-- Node1&#45;&gt;Node2 -->
<g id="edge2" class="edge"><title>Node1&#45;&gt;Node2</title>
<path fill="none" stroke="midnightblue" d="M103.603,-35.967C112.117,-37.1393 121.035,-38.3671 129.783,-39.5716"/>
<polygon fill="midnightblue" stroke="midnightblue" points="129.558,-43.0735 139.942,-40.9702 130.513,-36.1389 129.558,-43.0735"/>
</g>
<!-- Node5 -->
<g id="node9" class="node"><title>Node5</title>
<a xlink:href="class_joystick.html#a451c9a35875271e7918af8843e39f3cc" target="_top" xlink:title="Joystick::GetTop">
<polygon fill="white" stroke="black" points="147,-0.5 147,-19.5 237,-19.5 237,-0.5 147,-0.5"/>
<text text-anchor="middle" x="192" y="-7.5" font-family="Helvetica,sans-Serif" font-size="10.00">Joystick::GetTop</text>
</a>
</g>
<!-- Node1&#45;&gt;Node5 -->
<g id="edge8" class="edge"><title>Node1&#45;&gt;Node5</title>
<path fill="none" stroke="midnightblue" d="M103.603,-22.033C114.329,-20.5562 125.695,-18.9913 136.556,-17.4959"/>
<polygon fill="midnightblue" stroke="midnightblue" points="137.349,-20.9198 146.778,-16.0885 136.394,-13.9852 137.349,-20.9198"/>
</g>
<!-- Node3 -->
<g id="node5" class="node"><title>Node3</title>
<a xlink:href="class_joystick.html#ab090aadee2aaf077f0674eacdd3dd45e" target="_top" xlink:title="Joystick::GetRawButton">
<polygon fill="white" stroke="black" points="280,-19.5 280,-38.5 402,-38.5 402,-19.5 280,-19.5"/>
<text text-anchor="middle" x="341" y="-26.5" font-family="Helvetica,sans-Serif" font-size="10.00">Joystick::GetRawButton</text>
</a>
</g>
<!-- Node2&#45;&gt;Node3 -->
<g id="edge4" class="edge"><title>Node2&#45;&gt;Node3</title>
<path fill="none" stroke="midnightblue" d="M244.001,-41.408C252.345,-40.3295 261.118,-39.1957 269.827,-38.0699"/>
<polygon fill="midnightblue" stroke="midnightblue" points="270.525,-41.5089 279.994,-36.7559 269.628,-34.5667 270.525,-41.5089"/>
</g>
<!-- Node4 -->
<g id="node7" class="node"><title>Node4</title>
<a xlink:href="class_driver_station.html#a7778d9c78f3d918a4338f62662604cf1" target="_top" xlink:title="DriverStation::GetStickButton">
<polygon fill="white" stroke="black" points="438,-19.5 438,-38.5 582,-38.5 582,-19.5 438,-19.5"/>
<text text-anchor="middle" x="510" y="-26.5" font-family="Helvetica,sans-Serif" font-size="10.00">DriverStation::GetStickButton</text>
</a>
</g>
<!-- Node3&#45;&gt;Node4 -->
<g id="edge6" class="edge"><title>Node3&#45;&gt;Node4</title>
<path fill="none" stroke="midnightblue" d="M402.291,-29C410.618,-29 419.279,-29 427.906,-29"/>
<polygon fill="midnightblue" stroke="midnightblue" points="427.995,-32.5001 437.995,-29 427.995,-25.5001 427.995,-32.5001"/>
</g>
<!-- Node5&#45;&gt;Node3 -->
<g id="edge10" class="edge"><title>Node5&#45;&gt;Node3</title>
<path fill="none" stroke="midnightblue" d="M237.105,-15.7006C247.4,-17.0313 258.616,-18.481 269.734,-19.9179"/>
<polygon fill="midnightblue" stroke="midnightblue" points="269.52,-23.4194 279.886,-21.2302 270.418,-16.4772 269.52,-23.4194"/>
</g>
</g>
</svg>
