<?xml version="1.0" encoding="UTF-8" standalone="no"?>
<!DOCTYPE svg PUBLIC "-//W3C//DTD SVG 1.1//EN"
 "http://www.w3.org/Graphics/SVG/1.1/DTD/svg11.dtd">
<!-- Generated by graphviz version 2.28.0 (20110507.0327)
 -->
<!-- Title: Counter::SetUpSource Pages: 1 -->
<svg width="458pt" height="80pt"
 viewBox="0.00 0.00 458.00 79.66" xmlns="http://www.w3.org/2000/svg" xmlns:xlink="http://www.w3.org/1999/xlink">
<g id="graph1" class="graph" transform="scale(1 1) rotate(0) translate(4 75.6646)">
<title>Counter::SetUpSource</title>
<polygon fill="white" stroke="white" points="-4,5 -4,-75.6646 455,-75.6646 455,5 -4,5"/>
<!-- Node1 -->
<g id="node1" class="node"><title>Node1</title>
<polygon fill="#bfbfbf" stroke="black" points="0,-38.5 0,-57.5 114,-57.5 114,-38.5 0,-38.5"/>
<text text-anchor="middle" x="57" y="-45.5" font-family="Helvetica,sans-Serif" font-size="10.00">Counter::SetUpSource</text>
</g>
<!-- Node2 -->
<g id="node3" class="node"><title>Node2</title>
<a xlink:href="class_error_base.html#a05790f219c9e436a09752f73f7344024" target="_top" xlink:title="Check if the current error code represents a fatal error. ">
<polygon fill="white" stroke="black" points="326,-38.5 326,-57.5 450,-57.5 450,-38.5 326,-38.5"/>
<text text-anchor="middle" x="388" y="-45.5" font-family="Helvetica,sans-Serif" font-size="10.00">ErrorBase::StatusIsFatal</text>
</a>
</g>
<!-- Node1&#45;&gt;Node2 -->
<g id="edge2" class="edge"><title>Node1&#45;&gt;Node2</title>
<path fill="none" stroke="midnightblue" d="M95.3311,-57.5094C111.947,-61.2743 131.828,-65.1432 150,-67 211.9,-73.3251 228.069,-73.0084 290,-67 305.543,-65.4921 322.292,-62.6554 337.427,-59.6252"/>
<polygon fill="midnightblue" stroke="midnightblue" points="338.532,-62.9704 347.612,-57.5103 337.109,-56.1166 338.532,-62.9704"/>
</g>
<!-- Node3 -->
<g id="node5" class="node"><title>Node3</title>
<a xlink:href="class_counter.html#a8abf01f2594d96b85ac3f76ab8f1257e" target="_top" xlink:title="Counter::SetUpSource">
<polygon fill="white" stroke="black" points="163,-38.5 163,-57.5 277,-57.5 277,-38.5 163,-38.5"/>
<text text-anchor="middle" x="220" y="-45.5" font-family="Helvetica,sans-Serif" font-size="10.00">Counter::SetUpSource</text>
</a>
</g>
<!-- Node1&#45;&gt;Node3 -->
<g id="edge4" class="edge"><title>Node1&#45;&gt;Node3</title>
<path fill="none" stroke="midnightblue" d="M114.31,-48C126.76,-48 140.061,-48 152.861,-48"/>
<polygon fill="midnightblue" stroke="midnightblue" points="152.994,-51.5001 162.994,-48 152.994,-44.5001 152.994,-51.5001"/>
</g>
<!-- Node4 -->
<g id="node8" class="node"><title>Node4</title>
<a xlink:href="class_analog_trigger.html#a78d5a8093c65e4a204716b8b6af41bfe" target="_top" xlink:title="AnalogTrigger::CreateOutput">
<polygon fill="white" stroke="black" points="150,-0.5 150,-19.5 290,-19.5 290,-0.5 150,-0.5"/>
<text text-anchor="middle" x="220" y="-7.5" font-family="Helvetica,sans-Serif" font-size="10.00">AnalogTrigger::CreateOutput</text>
</a>
</g>
<!-- Node1&#45;&gt;Node4 -->
<g id="edge8" class="edge"><title>Node1&#45;&gt;Node4</title>
<path fill="none" stroke="midnightblue" d="M98.6271,-38.411C119.968,-33.3739 146.312,-27.1562 168.908,-21.8229"/>
<polygon fill="midnightblue" stroke="midnightblue" points="169.736,-25.2237 178.665,-19.5201 168.128,-18.4109 169.736,-25.2237"/>
</g>
<!-- Node3&#45;&gt;Node2 -->
<g id="edge6" class="edge"><title>Node3&#45;&gt;Node2</title>
<path fill="none" stroke="midnightblue" d="M277.2,-48C289.52,-48 302.723,-48 315.55,-48"/>
<polygon fill="midnightblue" stroke="midnightblue" points="315.733,-51.5001 325.733,-48 315.733,-44.5001 315.733,-51.5001"/>
</g>
<!-- Node4&#45;&gt;Node2 -->
<g id="edge10" class="edge"><title>Node4&#45;&gt;Node2</title>
<path fill="none" stroke="midnightblue" d="M262.889,-19.589C284.893,-24.6261 312.055,-30.8438 335.352,-36.1771"/>
<polygon fill="midnightblue" stroke="midnightblue" points="334.884,-39.6602 345.412,-38.4799 336.446,-32.8367 334.884,-39.6602"/>
</g>
</g>
</svg>
