<?xml version="1.0" encoding="UTF-8" standalone="no"?>
<!DOCTYPE svg PUBLIC "-//W3C//DTD SVG 1.1//EN"
 "http://www.w3.org/Graphics/SVG/1.1/DTD/svg11.dtd">
<!-- Generated by graphviz version 2.28.0 (20110507.0327)
 -->
<!-- Title: CANTalon::SetPID Pages: 1 -->
<svg width="230pt" height="142pt"
 viewBox="0.00 0.00 230.00 142.00" xmlns="http://www.w3.org/2000/svg" xmlns:xlink="http://www.w3.org/1999/xlink">
<g id="graph1" class="graph" transform="scale(1 1) rotate(0) translate(4 138)">
<title>CANTalon::SetPID</title>
<polygon fill="white" stroke="white" points="-4,5 -4,-138 227,-138 227,5 -4,5"/>
<!-- Node1 -->
<g id="node1" class="node"><title>Node1</title>
<polygon fill="#bfbfbf" stroke="black" points="0.5,-57.5 0.5,-76.5 97.5,-76.5 97.5,-57.5 0.5,-57.5"/>
<text text-anchor="middle" x="49" y="-64.5" font-family="Helvetica,sans-Serif" font-size="10.00">CANTalon::SetPID</text>
</g>
<!-- Node2 -->
<g id="node3" class="node"><title>Node2</title>
<a xlink:href="class_c_a_n_talon.html#a6a8c44252d104634d6a0c580088cbf98" target="_top" xlink:title="CANTalon::SetP">
<polygon fill="white" stroke="black" points="134,-114.5 134,-133.5 222,-133.5 222,-114.5 134,-114.5"/>
<text text-anchor="middle" x="178" y="-121.5" font-family="Helvetica,sans-Serif" font-size="10.00">CANTalon::SetP</text>
</a>
</g>
<!-- Node1&#45;&gt;Node2 -->
<g id="edge2" class="edge"><title>Node1&#45;&gt;Node2</title>
<path fill="none" stroke="midnightblue" d="M71.0349,-76.5774C88.0115,-84.2921 112.52,-95.3962 134,-105 137.856,-106.724 141.91,-108.527 145.924,-110.308"/>
<polygon fill="midnightblue" stroke="midnightblue" points="144.547,-113.526 155.108,-114.371 147.38,-107.124 144.547,-113.526"/>
</g>
<!-- Node3 -->
<g id="node5" class="node"><title>Node3</title>
<a xlink:href="class_c_a_n_talon.html#ac72349fb7837dff1a27c5288416eb1ac" target="_top" xlink:title="CANTalon::SetI">
<polygon fill="white" stroke="black" points="136.5,-76.5 136.5,-95.5 219.5,-95.5 219.5,-76.5 136.5,-76.5"/>
<text text-anchor="middle" x="178" y="-83.5" font-family="Helvetica,sans-Serif" font-size="10.00">CANTalon::SetI</text>
</a>
</g>
<!-- Node1&#45;&gt;Node3 -->
<g id="edge4" class="edge"><title>Node1&#45;&gt;Node3</title>
<path fill="none" stroke="midnightblue" d="M97.6514,-74.129C106.955,-75.5209 116.744,-76.9854 126.147,-78.3921"/>
<polygon fill="midnightblue" stroke="midnightblue" points="125.751,-81.8716 136.158,-79.8898 126.786,-74.9487 125.751,-81.8716"/>
</g>
<!-- Node4 -->
<g id="node7" class="node"><title>Node4</title>
<a xlink:href="class_c_a_n_talon.html#ad1d9dc5cb06e4efbf57ed10d91f2ee80" target="_top" xlink:title="CANTalon::SetD">
<polygon fill="white" stroke="black" points="134,-38.5 134,-57.5 222,-57.5 222,-38.5 134,-38.5"/>
<text text-anchor="middle" x="178" y="-45.5" font-family="Helvetica,sans-Serif" font-size="10.00">CANTalon::SetD</text>
</a>
</g>
<!-- Node1&#45;&gt;Node4 -->
<g id="edge6" class="edge"><title>Node1&#45;&gt;Node4</title>
<path fill="none" stroke="midnightblue" d="M97.6514,-59.871C106.15,-58.5996 115.054,-57.2675 123.699,-55.9742"/>
<polygon fill="midnightblue" stroke="midnightblue" points="124.316,-59.4209 133.688,-54.4798 123.28,-52.498 124.316,-59.4209"/>
</g>
<!-- Node5 -->
<g id="node9" class="node"><title>Node5</title>
<a xlink:href="class_c_a_n_talon.html#ac147cdb9096848beac85a25d04489d60" target="_top" xlink:title="CANTalon::SetF">
<polygon fill="white" stroke="black" points="134.5,-0.5 134.5,-19.5 221.5,-19.5 221.5,-0.5 134.5,-0.5"/>
<text text-anchor="middle" x="178" y="-7.5" font-family="Helvetica,sans-Serif" font-size="10.00">CANTalon::SetF</text>
</a>
</g>
<!-- Node1&#45;&gt;Node5 -->
<g id="edge8" class="edge"><title>Node1&#45;&gt;Node5</title>
<path fill="none" stroke="midnightblue" d="M71.0349,-57.4226C88.0115,-49.7079 112.52,-38.6038 134,-29 137.856,-27.276 141.91,-25.4727 145.924,-23.6924"/>
<polygon fill="midnightblue" stroke="midnightblue" points="147.38,-26.8758 155.108,-19.6288 144.547,-20.4745 147.38,-26.8758"/>
</g>
</g>
</svg>
