<?xml version="1.0" encoding="UTF-8" standalone="no"?>
<!DOCTYPE svg PUBLIC "-//W3C//DTD SVG 1.1//EN"
 "http://www.w3.org/Graphics/SVG/1.1/DTD/svg11.dtd">
<!-- Generated by graphviz version 2.28.0 (20110507.0327)
 -->
<!-- Title: AnalogAccelerometer::GetAcceleration Pages: 1 -->
<svg width="472pt" height="38pt"
 viewBox="0.00 0.00 472.00 38.00" xmlns="http://www.w3.org/2000/svg" xmlns:xlink="http://www.w3.org/1999/xlink">
<g id="graph1" class="graph" transform="scale(1 1) rotate(0) translate(4 34)">
<title>AnalogAccelerometer::GetAcceleration</title>
<polygon fill="white" stroke="white" points="-4,5 -4,-34 469,-34 469,5 -4,5"/>
<!-- Node1 -->
<g id="node1" class="node"><title>Node1</title>
<polygon fill="#bfbfbf" stroke="black" points="0,-0 0,-30 110,-30 110,-0 0,-0"/>
<text text-anchor="start" x="8" y="-18" font-family="Helvetica,sans-Serif" font-size="10.00">AnalogAccelerometer</text>
<text text-anchor="middle" x="55" y="-7" font-family="Helvetica,sans-Serif" font-size="10.00">::GetAcceleration</text>
</g>
<!-- Node2 -->
<g id="node3" class="node"><title>Node2</title>
<a xlink:href="class_analog_input.html#a48743112f8b15e3b2cea8a64ed541308" target="_top" xlink:title="AnalogInput::GetAverageVoltage">
<polygon fill="white" stroke="black" points="146.5,-5.5 146.5,-24.5 303.5,-24.5 303.5,-5.5 146.5,-5.5"/>
<text text-anchor="middle" x="225" y="-12.5" font-family="Helvetica,sans-Serif" font-size="10.00">AnalogInput::GetAverageVoltage</text>
</a>
</g>
<!-- Node1&#45;&gt;Node2 -->
<g id="edge2" class="edge"><title>Node1&#45;&gt;Node2</title>
<path fill="none" stroke="midnightblue" d="M110.081,-15C118.514,-15 127.409,-15 136.36,-15"/>
<polygon fill="midnightblue" stroke="midnightblue" points="136.468,-18.5001 146.468,-15 136.468,-11.5001 136.468,-18.5001"/>
</g>
<!-- Node3 -->
<g id="node5" class="node"><title>Node3</title>
<a xlink:href="class_error_base.html#a05790f219c9e436a09752f73f7344024" target="_top" xlink:title="Check if the current error code represents a fatal error. ">
<polygon fill="white" stroke="black" points="340,-5.5 340,-24.5 464,-24.5 464,-5.5 340,-5.5"/>
<text text-anchor="middle" x="402" y="-12.5" font-family="Helvetica,sans-Serif" font-size="10.00">ErrorBase::StatusIsFatal</text>
</a>
</g>
<!-- Node2&#45;&gt;Node3 -->
<g id="edge4" class="edge"><title>Node2&#45;&gt;Node3</title>
<path fill="none" stroke="midnightblue" d="M303.522,-15C312.261,-15 321.136,-15 329.789,-15"/>
<polygon fill="midnightblue" stroke="midnightblue" points="329.826,-18.5001 339.826,-15 329.826,-11.5001 329.826,-18.5001"/>
</g>
</g>
</svg>
