<?xml version="1.0" encoding="UTF-8" standalone="no"?>
<!DOCTYPE svg PUBLIC "-//W3C//DTD SVG 1.1//EN"
 "http://www.w3.org/Graphics/SVG/1.1/DTD/svg11.dtd">
<!-- Generated by graphviz version 2.28.0 (20110507.0327)
 -->
<!-- Title: Scheduler::AddCommand Pages: 1 -->
<svg width="420pt" height="28pt"
 viewBox="0.00 0.00 420.00 28.00" xmlns="http://www.w3.org/2000/svg" xmlns:xlink="http://www.w3.org/1999/xlink">
<g id="graph1" class="graph" transform="scale(1 1) rotate(0) translate(4 24)">
<title>Scheduler::AddCommand</title>
<polygon fill="white" stroke="white" points="-4,5 -4,-24 417,-24 417,5 -4,5"/>
<!-- Node1 -->
<g id="node1" class="node"><title>Node1</title>
<polygon fill="#bfbfbf" stroke="black" points="0,-0.5 0,-19.5 128,-19.5 128,-0.5 0,-0.5"/>
<text text-anchor="middle" x="64" y="-7.5" font-family="Helvetica,sans-Serif" font-size="10.00">Scheduler::AddCommand</text>
</g>
<!-- Node2 -->
<g id="node3" class="node"><title>Node2</title>
<a xlink:href="class_command.html#ad61704023f2e6acfcfda4bc88c0b77fc" target="_top" xlink:title="Command::Start">
<polygon fill="white" stroke="black" points="164,-0.5 164,-19.5 252,-19.5 252,-0.5 164,-0.5"/>
<text text-anchor="middle" x="208" y="-7.5" font-family="Helvetica,sans-Serif" font-size="10.00">Command::Start</text>
</a>
</g>
<!-- Node1&#45;&gt;Node2 -->
<g id="edge2" class="edge"><title>Node1&#45;&gt;Node2</title>
<path fill="none" stroke="midnightblue" d="M138.276,-10C146.945,-10 155.568,-10 163.628,-10"/>
<polygon fill="midnightblue" stroke="midnightblue" points="138.11,-6.5001 128.11,-10 138.11,-13.5001 138.11,-6.5001"/>
</g>
<!-- Node3 -->
<g id="node5" class="node"><title>Node3</title>
<a xlink:href="class_start_command.html#a7e0382765f67e6c31e1786f43c6d4c4d" target="_top" xlink:title="StartCommand::Initialize">
<polygon fill="white" stroke="black" points="288.5,-0.5 288.5,-19.5 411.5,-19.5 411.5,-0.5 288.5,-0.5"/>
<text text-anchor="middle" x="350" y="-7.5" font-family="Helvetica,sans-Serif" font-size="10.00">StartCommand::Initialize</text>
</a>
</g>
<!-- Node2&#45;&gt;Node3 -->
<g id="edge4" class="edge"><title>Node2&#45;&gt;Node3</title>
<path fill="none" stroke="midnightblue" d="M262.358,-10C270.903,-10 279.798,-10 288.495,-10"/>
<polygon fill="midnightblue" stroke="midnightblue" points="262.147,-6.5001 252.147,-10 262.147,-13.5001 262.147,-6.5001"/>
</g>
</g>
</svg>
