<?xml version="1.0" encoding="UTF-8" standalone="no"?>
<!DOCTYPE svg PUBLIC "-//W3C//DTD SVG 1.1//EN"
 "http://www.w3.org/Graphics/SVG/1.1/DTD/svg11.dtd">
<!-- Generated by graphviz version 2.28.0 (20110507.0327)
 -->
<!-- Title: AnalogInput::GetOversampleBits Pages: 1 -->
<svg width="572pt" height="104pt"
 viewBox="0.00 0.00 572.00 104.00" xmlns="http://www.w3.org/2000/svg" xmlns:xlink="http://www.w3.org/1999/xlink">
<g id="graph1" class="graph" transform="scale(1 1) rotate(0) translate(4 100)">
<title>AnalogInput::GetOversampleBits</title>
<polygon fill="white" stroke="white" points="-4,5 -4,-100 569,-100 569,5 -4,5"/>
<!-- Node1 -->
<g id="node1" class="node"><title>Node1</title>
<polygon fill="#bfbfbf" stroke="black" points="0,-38.5 0,-57.5 158,-57.5 158,-38.5 0,-38.5"/>
<text text-anchor="middle" x="79" y="-45.5" font-family="Helvetica,sans-Serif" font-size="10.00">AnalogInput::GetOversampleBits</text>
</g>
<!-- Node2 -->
<g id="node3" class="node"><title>Node2</title>
<a xlink:href="class_analog_input.html#a0c6b4387695c1522860a2fb1e5fbee82" target="_top" xlink:title="AnalogInput::ResetAccumulator">
<polygon fill="white" stroke="black" points="194,-38.5 194,-57.5 348,-57.5 348,-38.5 194,-38.5"/>
<text text-anchor="middle" x="271" y="-45.5" font-family="Helvetica,sans-Serif" font-size="10.00">AnalogInput::ResetAccumulator</text>
</a>
</g>
<!-- Node1&#45;&gt;Node2 -->
<g id="edge2" class="edge"><title>Node1&#45;&gt;Node2</title>
<path fill="none" stroke="midnightblue" d="M168.381,-48C176.852,-48 185.393,-48 193.733,-48"/>
<polygon fill="midnightblue" stroke="midnightblue" points="168.103,-44.5001 158.103,-48 168.103,-51.5001 168.103,-44.5001"/>
</g>
<!-- Node6 -->
<g id="node11" class="node"><title>Node6</title>
<a xlink:href="class_gyro.html#ae5da50d9e7d6cf3ddd87744f4b797e7a" target="_top" xlink:title="Gyro::GetRate">
<polygon fill="white" stroke="black" points="231,-0.5 231,-19.5 311,-19.5 311,-0.5 231,-0.5"/>
<text text-anchor="middle" x="271" y="-7.5" font-family="Helvetica,sans-Serif" font-size="10.00">Gyro::GetRate</text>
</a>
</g>
<!-- Node1&#45;&gt;Node6 -->
<g id="edge10" class="edge"><title>Node1&#45;&gt;Node6</title>
<path fill="none" stroke="midnightblue" d="M137.894,-36.4212C167.96,-30.4079 203.91,-23.218 230.711,-17.8578"/>
<polygon fill="midnightblue" stroke="midnightblue" points="137.064,-33.0177 127.945,-38.411 138.437,-39.8818 137.064,-33.0177"/>
</g>
<!-- Node8 -->
<g id="node15" class="node"><title>Node8</title>
<a xlink:href="class_gyro.html#a579957af7a1f693cde4b85c48e85ef7a" target="_top" xlink:title="Gyro::SetDeadband">
<polygon fill="white" stroke="black" points="220,-76.5 220,-95.5 322,-95.5 322,-76.5 220,-76.5"/>
<text text-anchor="middle" x="271" y="-83.5" font-family="Helvetica,sans-Serif" font-size="10.00">Gyro::SetDeadband</text>
</a>
</g>
<!-- Node1&#45;&gt;Node8 -->
<g id="edge14" class="edge"><title>Node1&#45;&gt;Node8</title>
<path fill="none" stroke="midnightblue" d="M138.048,-59.6095C165.07,-65.014 196.818,-71.3635 222.4,-76.4799"/>
<polygon fill="midnightblue" stroke="midnightblue" points="138.437,-56.1182 127.945,-57.589 137.064,-62.9823 138.437,-56.1182"/>
</g>
<!-- Node3 -->
<g id="node5" class="node"><title>Node3</title>
<a xlink:href="class_gyro.html#ae26b1bacc0c5a4e1f9d85836fcb90736" target="_top" xlink:title="Gyro::InitGyro">
<polygon fill="white" stroke="black" points="384.5,-76.5 384.5,-95.5 461.5,-95.5 461.5,-76.5 384.5,-76.5"/>
<text text-anchor="middle" x="423" y="-83.5" font-family="Helvetica,sans-Serif" font-size="10.00">Gyro::InitGyro</text>
</a>
</g>
<!-- Node2&#45;&gt;Node3 -->
<g id="edge4" class="edge"><title>Node2&#45;&gt;Node3</title>
<path fill="none" stroke="midnightblue" d="M320.136,-59.9851C329.387,-62.3021 338.996,-64.7186 348,-67 360.086,-70.0623 373.274,-73.4375 385.124,-76.4828"/>
<polygon fill="midnightblue" stroke="midnightblue" points="320.836,-56.5522 310.285,-57.521 319.137,-63.343 320.836,-56.5522"/>
</g>
<!-- Node5 -->
<g id="node9" class="node"><title>Node5</title>
<a xlink:href="class_gyro.html#ae13fc1c339cb0267740b86c0585ceac7" target="_top" xlink:title="Gyro::Reset">
<polygon fill="white" stroke="black" points="388.5,-38.5 388.5,-57.5 457.5,-57.5 457.5,-38.5 388.5,-38.5"/>
<text text-anchor="middle" x="423" y="-45.5" font-family="Helvetica,sans-Serif" font-size="10.00">Gyro::Reset</text>
</a>
</g>
<!-- Node2&#45;&gt;Node5 -->
<g id="edge8" class="edge"><title>Node2&#45;&gt;Node5</title>
<path fill="none" stroke="midnightblue" d="M358.481,-48C369.011,-48 379.231,-48 388.286,-48"/>
<polygon fill="midnightblue" stroke="midnightblue" points="358.318,-44.5001 348.318,-48 358.318,-51.5001 358.318,-44.5001"/>
</g>
<!-- Node4 -->
<g id="node7" class="node"><title>Node4</title>
<a xlink:href="class_gyro.html#a06521f58180be9e342d941643f9b2491" target="_top" xlink:title="Gyro::Gyro">
<polygon fill="white" stroke="black" points="498.5,-76.5 498.5,-95.5 563.5,-95.5 563.5,-76.5 498.5,-76.5"/>
<text text-anchor="middle" x="531" y="-83.5" font-family="Helvetica,sans-Serif" font-size="10.00">Gyro::Gyro</text>
</a>
</g>
<!-- Node3&#45;&gt;Node4 -->
<g id="edge6" class="edge"><title>Node3&#45;&gt;Node4</title>
<path fill="none" stroke="midnightblue" d="M471.732,-86C480.772,-86 490.018,-86 498.405,-86"/>
<polygon fill="midnightblue" stroke="midnightblue" points="471.67,-82.5001 461.67,-86 471.67,-89.5001 471.67,-82.5001"/>
</g>
<!-- Node7 -->
<g id="node13" class="node"><title>Node7</title>
<a xlink:href="class_gyro.html#aca619c0201c5fb85e2bbaeef0f39e8e6" target="_top" xlink:title="Gyro::PIDGet">
<polygon fill="white" stroke="black" points="385.5,-0.5 385.5,-19.5 460.5,-19.5 460.5,-0.5 385.5,-0.5"/>
<text text-anchor="middle" x="423" y="-7.5" font-family="Helvetica,sans-Serif" font-size="10.00">Gyro::PIDGet</text>
</a>
</g>
<!-- Node6&#45;&gt;Node7 -->
<g id="edge12" class="edge"><title>Node6&#45;&gt;Node7</title>
<path fill="none" stroke="midnightblue" d="M321.041,-10C342.031,-10 366.115,-10 385.495,-10"/>
<polygon fill="midnightblue" stroke="midnightblue" points="321.019,-6.5001 311.019,-10 321.019,-13.5001 321.019,-6.5001"/>
</g>
<!-- Node8&#45;&gt;Node3 -->
<g id="edge16" class="edge"><title>Node8&#45;&gt;Node3</title>
<path fill="none" stroke="midnightblue" d="M332.522,-86C350.04,-86 368.654,-86 384.341,-86"/>
<polygon fill="midnightblue" stroke="midnightblue" points="332.365,-82.5001 322.365,-86 332.365,-89.5001 332.365,-82.5001"/>
</g>
</g>
</svg>
