<?xml version="1.0" encoding="UTF-8" standalone="no"?>
<!DOCTYPE svg PUBLIC "-//W3C//DTD SVG 1.1//EN"
 "http://www.w3.org/Graphics/SVG/1.1/DTD/svg11.dtd">
<!-- Generated by graphviz version 2.28.0 (20110507.0327)
 -->
<!-- Title: HSLImage Pages: 1 -->
<svg width="72pt" height="196pt"
 viewBox="0.00 0.00 72.00 196.00" xmlns="http://www.w3.org/2000/svg" xmlns:xlink="http://www.w3.org/1999/xlink">
<g id="graph1" class="graph" transform="scale(1 1) rotate(0) translate(4 192)">
<title>HSLImage</title>
<polygon fill="white" stroke="white" points="-4,5 -4,-192 69,-192 69,5 -4,5"/>
<!-- Node1 -->
<g id="node1" class="node"><title>Node1</title>
<polygon fill="#bfbfbf" stroke="black" points="1,-0.5 1,-19.5 63,-19.5 63,-0.5 1,-0.5"/>
<text text-anchor="middle" x="32" y="-7.5" font-family="Helvetica,sans-Serif" font-size="10.00">HSLImage</text>
</g>
<!-- Node2 -->
<g id="node2" class="node"><title>Node2</title>
<a xlink:href="class_color_image.html" target="_top" xlink:title="ColorImage">
<polygon fill="white" stroke="black" points="-0.5,-56.5 -0.5,-75.5 64.5,-75.5 64.5,-56.5 -0.5,-56.5"/>
<text text-anchor="middle" x="32" y="-63.5" font-family="Helvetica,sans-Serif" font-size="10.00">ColorImage</text>
</a>
</g>
<!-- Node2&#45;&gt;Node1 -->
<g id="edge2" class="edge"><title>Node2&#45;&gt;Node1</title>
<path fill="none" stroke="midnightblue" d="M32,-45.8045C32,-36.9102 32,-26.7798 32,-19.7511"/>
<polygon fill="midnightblue" stroke="midnightblue" points="28.5001,-46.083 32,-56.083 35.5001,-46.083 28.5001,-46.083"/>
</g>
<!-- Node3 -->
<g id="node4" class="node"><title>Node3</title>
<a xlink:href="class_image_base.html" target="_top" xlink:title="ImageBase">
<polygon fill="white" stroke="black" points="-0.5,-112.5 -0.5,-131.5 64.5,-131.5 64.5,-112.5 -0.5,-112.5"/>
<text text-anchor="middle" x="32" y="-119.5" font-family="Helvetica,sans-Serif" font-size="10.00">ImageBase</text>
</a>
</g>
<!-- Node3&#45;&gt;Node2 -->
<g id="edge4" class="edge"><title>Node3&#45;&gt;Node2</title>
<path fill="none" stroke="midnightblue" d="M32,-101.805C32,-92.9102 32,-82.7798 32,-75.7511"/>
<polygon fill="midnightblue" stroke="midnightblue" points="28.5001,-102.083 32,-112.083 35.5001,-102.083 28.5001,-102.083"/>
</g>
<!-- Node4 -->
<g id="node6" class="node"><title>Node4</title>
<a xlink:href="class_error_base.html" target="_top" xlink:title="ErrorBase">
<polygon fill="white" stroke="black" points="2,-168.5 2,-187.5 62,-187.5 62,-168.5 2,-168.5"/>
<text text-anchor="middle" x="32" y="-175.5" font-family="Helvetica,sans-Serif" font-size="10.00">ErrorBase</text>
</a>
</g>
<!-- Node4&#45;&gt;Node3 -->
<g id="edge6" class="edge"><title>Node4&#45;&gt;Node3</title>
<path fill="none" stroke="midnightblue" d="M32,-157.805C32,-148.91 32,-138.78 32,-131.751"/>
<polygon fill="midnightblue" stroke="midnightblue" points="28.5001,-158.083 32,-168.083 35.5001,-158.083 28.5001,-158.083"/>
</g>
</g>
</svg>
