<?xml version="1.0" encoding="UTF-8" standalone="no"?>
<!DOCTYPE svg PUBLIC "-//W3C//DTD SVG 1.1//EN"
 "http://www.w3.org/Graphics/SVG/1.1/DTD/svg11.dtd">
<!-- Generated by graphviz version 2.28.0 (20110507.0327)
 -->
<!-- Title: Scheduler::Remove Pages: 1 -->
<svg width="310pt" height="66pt"
 viewBox="0.00 0.00 310.00 66.00" xmlns="http://www.w3.org/2000/svg" xmlns:xlink="http://www.w3.org/1999/xlink">
<g id="graph1" class="graph" transform="scale(1 1) rotate(0) translate(4 62)">
<title>Scheduler::Remove</title>
<polygon fill="white" stroke="white" points="-4,5 -4,-62 307,-62 307,5 -4,5"/>
<!-- Node1 -->
<g id="node1" class="node"><title>Node1</title>
<polygon fill="#bfbfbf" stroke="black" points="0.5,-19.5 0.5,-38.5 101.5,-38.5 101.5,-19.5 0.5,-19.5"/>
<text text-anchor="middle" x="51" y="-26.5" font-family="Helvetica,sans-Serif" font-size="10.00">Scheduler::Remove</text>
</g>
<!-- Node2 -->
<g id="node3" class="node"><title>Node2</title>
<a xlink:href="class_command.html#afb520de2e4173f9342a94dd98d76dc0f" target="_top" xlink:title="Command::GetRequirements">
<polygon fill="white" stroke="black" points="148.5,-38.5 148.5,-57.5 291.5,-57.5 291.5,-38.5 148.5,-38.5"/>
<text text-anchor="middle" x="220" y="-45.5" font-family="Helvetica,sans-Serif" font-size="10.00">Command::GetRequirements</text>
</a>
</g>
<!-- Node1&#45;&gt;Node2 -->
<g id="edge2" class="edge"><title>Node1&#45;&gt;Node2</title>
<path fill="none" stroke="midnightblue" d="M101.653,-34.6492C113.185,-35.9612 125.753,-37.3911 138.24,-38.8117"/>
<polygon fill="midnightblue" stroke="midnightblue" points="137.883,-42.2936 148.215,-39.9466 138.675,-35.3385 137.883,-42.2936"/>
</g>
<!-- Node3 -->
<g id="node5" class="node"><title>Node3</title>
<a xlink:href="class_subsystem.html#a5caed10655c42424ef731c2a12681d9a" target="_top" xlink:title="Subsystem::SetCurrentCommand">
<polygon fill="white" stroke="black" points="138.5,-0.5 138.5,-19.5 301.5,-19.5 301.5,-0.5 138.5,-0.5"/>
<text text-anchor="middle" x="220" y="-7.5" font-family="Helvetica,sans-Serif" font-size="10.00">Subsystem::SetCurrentCommand</text>
</a>
</g>
<!-- Node1&#45;&gt;Node3 -->
<g id="edge4" class="edge"><title>Node1&#45;&gt;Node3</title>
<path fill="none" stroke="midnightblue" d="M101.653,-23.3508C110.126,-22.3868 119.159,-21.3592 128.308,-20.3183"/>
<polygon fill="midnightblue" stroke="midnightblue" points="128.719,-23.7942 138.259,-19.1861 127.928,-16.839 128.719,-23.7942"/>
</g>
</g>
</svg>
