<?xml version="1.0" encoding="UTF-8" standalone="no"?>
<!DOCTYPE svg PUBLIC "-//W3C//DTD SVG 1.1//EN"
 "http://www.w3.org/Graphics/SVG/1.1/DTD/svg11.dtd">
<!-- Generated by graphviz version 2.28.0 (20110507.0327)
 -->
<!-- Title: CANJaguar::SetControlMode Pages: 1 -->
<svg width="488pt" height="28pt"
 viewBox="0.00 0.00 488.00 28.00" xmlns="http://www.w3.org/2000/svg" xmlns:xlink="http://www.w3.org/1999/xlink">
<g id="graph1" class="graph" transform="scale(1 1) rotate(0) translate(4 24)">
<title>CANJaguar::SetControlMode</title>
<polygon fill="white" stroke="white" points="-4,5 -4,-24 485,-24 485,5 -4,5"/>
<!-- Node1 -->
<g id="node1" class="node"><title>Node1</title>
<polygon fill="#bfbfbf" stroke="black" points="0.5,-0.5 0.5,-19.5 141.5,-19.5 141.5,-0.5 0.5,-0.5"/>
<text text-anchor="middle" x="71" y="-7.5" font-family="Helvetica,sans-Serif" font-size="10.00">CANJaguar::SetControlMode</text>
</g>
<!-- Node2 -->
<g id="node3" class="node"><title>Node2</title>
<a xlink:href="class_c_a_n_jaguar.html#a6bbbf784a74cf95f7b4a5660a3d53cc2" target="_top" xlink:title="CANJaguar::DisableControl">
<polygon fill="white" stroke="black" points="178,-0.5 178,-19.5 312,-19.5 312,-0.5 178,-0.5"/>
<text text-anchor="middle" x="245" y="-7.5" font-family="Helvetica,sans-Serif" font-size="10.00">CANJaguar::DisableControl</text>
</a>
</g>
<!-- Node1&#45;&gt;Node2 -->
<g id="edge2" class="edge"><title>Node1&#45;&gt;Node2</title>
<path fill="none" stroke="midnightblue" d="M141.959,-10C150.516,-10 159.292,-10 167.932,-10"/>
<polygon fill="midnightblue" stroke="midnightblue" points="167.992,-13.5001 177.992,-10 167.992,-6.5001 167.992,-13.5001"/>
</g>
<!-- Node3 -->
<g id="node5" class="node"><title>Node3</title>
<a xlink:href="class_c_a_n_jaguar.html#a6b82b54cc4033c3c5218ab04fb6c8282" target="_top" xlink:title="CANJaguar::sendMessage">
<polygon fill="white" stroke="black" points="348,-0.5 348,-19.5 480,-19.5 480,-0.5 348,-0.5"/>
<text text-anchor="middle" x="414" y="-7.5" font-family="Helvetica,sans-Serif" font-size="10.00">CANJaguar::sendMessage</text>
</a>
</g>
<!-- Node2&#45;&gt;Node3 -->
<g id="edge4" class="edge"><title>Node2&#45;&gt;Node3</title>
<path fill="none" stroke="midnightblue" d="M312.003,-10C320.456,-10 329.16,-10 337.746,-10"/>
<polygon fill="midnightblue" stroke="midnightblue" points="337.75,-13.5001 347.75,-10 337.75,-6.5001 337.75,-13.5001"/>
</g>
</g>
</svg>
