<?xml version="1.0" encoding="UTF-8" standalone="no"?>
<!DOCTYPE svg PUBLIC "-//W3C//DTD SVG 1.1//EN"
 "http://www.w3.org/Graphics/SVG/1.1/DTD/svg11.dtd">
<!-- Generated by graphviz version 2.28.0 (20110507.0327)
 -->
<!-- Title: Counter::Get Pages: 1 -->
<svg width="714pt" height="218pt"
 viewBox="0.00 0.00 714.00 218.00" xmlns="http://www.w3.org/2000/svg" xmlns:xlink="http://www.w3.org/1999/xlink">
<g id="graph1" class="graph" transform="scale(1 1) rotate(0) translate(4 214)">
<title>Counter::Get</title>
<polygon fill="white" stroke="white" points="-4,5 -4,-214 711,-214 711,5 -4,5"/>
<!-- Node1 -->
<g id="node1" class="node"><title>Node1</title>
<polygon fill="#bfbfbf" stroke="black" points="0,-133.5 0,-152.5 72,-152.5 72,-133.5 0,-133.5"/>
<text text-anchor="middle" x="36" y="-140.5" font-family="Helvetica,sans-Serif" font-size="10.00">Counter::Get</text>
</g>
<!-- Node2 -->
<g id="node3" class="node"><title>Node2</title>
<a xlink:href="class_counter.html#ad12237795429a020d8a924348204ec79" target="_top" xlink:title="Counter::UpdateTable">
<polygon fill="white" stroke="black" points="115,-180.5 115,-199.5 225,-199.5 225,-180.5 115,-180.5"/>
<text text-anchor="middle" x="170" y="-187.5" font-family="Helvetica,sans-Serif" font-size="10.00">Counter::UpdateTable</text>
</a>
</g>
<!-- Node1&#45;&gt;Node2 -->
<g id="edge2" class="edge"><title>Node1&#45;&gt;Node2</title>
<path fill="none" stroke="midnightblue" d="M73.2495,-155.907C94.9366,-163.629 122.043,-173.281 141.874,-180.342"/>
<polygon fill="midnightblue" stroke="midnightblue" points="74.3069,-152.568 63.7122,-152.511 71.9588,-159.163 74.3069,-152.568"/>
</g>
<!-- Node4 -->
<g id="node7" class="node"><title>Node4</title>
<a xlink:href="class_encoder.html#a0fd1cdb3939029d070c0663a96c3ae6d" target="_top" xlink:title="Encoder::GetRaw">
<polygon fill="white" stroke="black" points="123.5,-133.5 123.5,-152.5 216.5,-152.5 216.5,-133.5 123.5,-133.5"/>
<text text-anchor="middle" x="170" y="-140.5" font-family="Helvetica,sans-Serif" font-size="10.00">Encoder::GetRaw</text>
</a>
</g>
<!-- Node1&#45;&gt;Node4 -->
<g id="edge6" class="edge"><title>Node1&#45;&gt;Node4</title>
<path fill="none" stroke="midnightblue" d="M82.3422,-143C95.593,-143 110.079,-143 123.349,-143"/>
<polygon fill="midnightblue" stroke="midnightblue" points="82.0271,-139.5 72.027,-143 82.027,-146.5 82.0271,-139.5"/>
</g>
<!-- Node10 -->
<g id="node19" class="node"><title>Node10</title>
<a xlink:href="class_ultrasonic.html#a765c830f4ff4c68e83de2f14d43fa54c" target="_top" xlink:title="Ultrasonic::IsRangeValid">
<polygon fill="white" stroke="black" points="108.5,-80.5 108.5,-99.5 231.5,-99.5 231.5,-80.5 108.5,-80.5"/>
<text text-anchor="middle" x="170" y="-87.5" font-family="Helvetica,sans-Serif" font-size="10.00">Ultrasonic::IsRangeValid</text>
</a>
</g>
<!-- Node1&#45;&gt;Node10 -->
<g id="edge18" class="edge"><title>Node1&#45;&gt;Node10</title>
<path fill="none" stroke="midnightblue" d="M70.4193,-129.582C93.7749,-120.204 124.396,-107.909 145.274,-99.5265"/>
<polygon fill="midnightblue" stroke="midnightblue" points="68.88,-126.428 60.9042,-133.402 71.4883,-132.924 68.88,-126.428"/>
</g>
<!-- Node3 -->
<g id="node5" class="node"><title>Node3</title>
<a xlink:href="class_counter.html#a76e51c41573f8f28e3126bc84163191e" target="_top" xlink:title="Counter::InitTable">
<polygon fill="white" stroke="black" points="291,-190.5 291,-209.5 383,-209.5 383,-190.5 291,-190.5"/>
<text text-anchor="middle" x="337" y="-197.5" font-family="Helvetica,sans-Serif" font-size="10.00">Counter::InitTable</text>
</a>
</g>
<!-- Node2&#45;&gt;Node3 -->
<g id="edge4" class="edge"><title>Node2&#45;&gt;Node3</title>
<path fill="none" stroke="midnightblue" d="M235.214,-193.892C253.84,-195.021 273.775,-196.229 290.957,-197.27"/>
<polygon fill="midnightblue" stroke="midnightblue" points="235.221,-190.386 225.027,-193.274 234.797,-197.373 235.221,-190.386"/>
</g>
<!-- Node5 -->
<g id="node9" class="node"><title>Node5</title>
<a xlink:href="class_encoder.html#ae2f56d8ab8994835bd954cad75f5a670" target="_top" xlink:title="Encoder::Get">
<polygon fill="white" stroke="black" points="300,-152.5 300,-171.5 374,-171.5 374,-152.5 300,-152.5"/>
<text text-anchor="middle" x="337" y="-159.5" font-family="Helvetica,sans-Serif" font-size="10.00">Encoder::Get</text>
</a>
</g>
<!-- Node4&#45;&gt;Node5 -->
<g id="edge8" class="edge"><title>Node4&#45;&gt;Node5</title>
<path fill="none" stroke="midnightblue" d="M226.628,-149.406C250.76,-152.185 278.337,-155.36 299.762,-157.827"/>
<polygon fill="midnightblue" stroke="midnightblue" points="226.859,-145.909 216.524,-148.242 226.058,-152.863 226.859,-145.909"/>
</g>
<!-- Node6 -->
<g id="node11" class="node"><title>Node6</title>
<a xlink:href="class_encoder.html#a523cc5a0cbd52f937f2a25a14185bc22" target="_top" xlink:title="Encoder::GetDistance">
<polygon fill="white" stroke="black" points="280.5,-114.5 280.5,-133.5 393.5,-133.5 393.5,-114.5 280.5,-114.5"/>
<text text-anchor="middle" x="337" y="-121.5" font-family="Helvetica,sans-Serif" font-size="10.00">Encoder::GetDistance</text>
</a>
</g>
<!-- Node4&#45;&gt;Node6 -->
<g id="edge10" class="edge"><title>Node4&#45;&gt;Node6</title>
<path fill="none" stroke="midnightblue" d="M226.503,-136.609C243.849,-134.611 262.984,-132.408 280.341,-130.409"/>
<polygon fill="midnightblue" stroke="midnightblue" points="226.058,-133.137 216.524,-137.758 226.859,-140.091 226.058,-133.137"/>
</g>
<!-- Node7 -->
<g id="node13" class="node"><title>Node7</title>
<a xlink:href="class_encoder.html#a08665d9e47c9fa77606dfe8611612e73" target="_top" xlink:title="Encoder::PIDGet">
<polygon fill="white" stroke="black" points="460,-152.5 460,-171.5 550,-171.5 550,-152.5 460,-152.5"/>
<text text-anchor="middle" x="505" y="-159.5" font-family="Helvetica,sans-Serif" font-size="10.00">Encoder::PIDGet</text>
</a>
</g>
<!-- Node6&#45;&gt;Node7 -->
<g id="edge12" class="edge"><title>Node6&#45;&gt;Node7</title>
<path fill="none" stroke="midnightblue" d="M389.653,-135.824C413.056,-141.182 440.357,-147.431 462.412,-152.48"/>
<polygon fill="midnightblue" stroke="midnightblue" points="390.418,-132.409 379.889,-133.589 388.856,-139.232 390.418,-132.409"/>
</g>
<!-- Node8 -->
<g id="node15" class="node"><title>Node8</title>
<a xlink:href="class_encoder.html#a2f6a1ab80e3590e2687551b22d8669e4" target="_top" xlink:title="Encoder::UpdateTable">
<polygon fill="white" stroke="black" points="448.5,-114.5 448.5,-133.5 561.5,-133.5 561.5,-114.5 448.5,-114.5"/>
<text text-anchor="middle" x="505" y="-121.5" font-family="Helvetica,sans-Serif" font-size="10.00">Encoder::UpdateTable</text>
</a>
</g>
<!-- Node6&#45;&gt;Node8 -->
<g id="edge14" class="edge"><title>Node6&#45;&gt;Node8</title>
<path fill="none" stroke="midnightblue" d="M403.815,-124C418.582,-124 434.107,-124 448.41,-124"/>
<polygon fill="midnightblue" stroke="midnightblue" points="403.737,-120.5 393.737,-124 403.737,-127.5 403.737,-120.5"/>
</g>
<!-- Node9 -->
<g id="node17" class="node"><title>Node9</title>
<a xlink:href="class_encoder.html#a9e1ff7a1231b13de80a6b8ec06cc6886" target="_top" xlink:title="Encoder::InitTable">
<polygon fill="white" stroke="black" points="607.5,-114.5 607.5,-133.5 702.5,-133.5 702.5,-114.5 607.5,-114.5"/>
<text text-anchor="middle" x="655" y="-121.5" font-family="Helvetica,sans-Serif" font-size="10.00">Encoder::InitTable</text>
</a>
</g>
<!-- Node8&#45;&gt;Node9 -->
<g id="edge16" class="edge"><title>Node8&#45;&gt;Node9</title>
<path fill="none" stroke="midnightblue" d="M571.564,-124C583.626,-124 595.992,-124 607.356,-124"/>
<polygon fill="midnightblue" stroke="midnightblue" points="571.531,-120.5 561.531,-124 571.531,-127.5 571.531,-120.5"/>
</g>
<!-- Node11 -->
<g id="node21" class="node"><title>Node11</title>
<a xlink:href="class_ultrasonic.html#a73c80fe92b2085107714c6a110d90d70" target="_top" xlink:title="Ultrasonic::GetRangeInches">
<polygon fill="white" stroke="black" points="268,-52.5 268,-71.5 406,-71.5 406,-52.5 268,-52.5"/>
<text text-anchor="middle" x="337" y="-59.5" font-family="Helvetica,sans-Serif" font-size="10.00">Ultrasonic::GetRangeInches</text>
</a>
</g>
<!-- Node10&#45;&gt;Node11 -->
<g id="edge20" class="edge"><title>Node10&#45;&gt;Node11</title>
<path fill="none" stroke="midnightblue" d="M237.442,-78.7249C251.532,-76.3339 266.272,-73.8326 279.932,-71.5146"/>
<polygon fill="midnightblue" stroke="midnightblue" points="236.596,-75.3185 227.322,-80.4423 237.767,-82.2198 236.596,-75.3185"/>
</g>
<!-- Node12 -->
<g id="node23" class="node"><title>Node12</title>
<a xlink:href="class_ultrasonic.html#af35c9a3273f1ffcf0eb17308d986d7c0" target="_top" xlink:title="Ultrasonic::GetRangeMM">
<polygon fill="white" stroke="black" points="442,-76.5 442,-95.5 568,-95.5 568,-76.5 442,-76.5"/>
<text text-anchor="middle" x="505" y="-83.5" font-family="Helvetica,sans-Serif" font-size="10.00">Ultrasonic::GetRangeMM</text>
</a>
</g>
<!-- Node11&#45;&gt;Node12 -->
<g id="edge22" class="edge"><title>Node11&#45;&gt;Node12</title>
<path fill="none" stroke="midnightblue" d="M414.118,-73.005C423.427,-74.3508 432.852,-75.7135 441.92,-77.0246"/>
<polygon fill="midnightblue" stroke="midnightblue" points="414.483,-69.5214 404.085,-71.5544 413.481,-76.4494 414.483,-69.5214"/>
</g>
<!-- Node13 -->
<g id="node25" class="node"><title>Node13</title>
<a xlink:href="class_ultrasonic.html#a8ec6de749ccd7e93b28735e9cc6d0b22" target="_top" xlink:title="Ultrasonic::PIDGet">
<polygon fill="white" stroke="black" points="606,-57.5 606,-76.5 704,-76.5 704,-57.5 606,-57.5"/>
<text text-anchor="middle" x="655" y="-64.5" font-family="Helvetica,sans-Serif" font-size="10.00">Ultrasonic::PIDGet</text>
</a>
</g>
<!-- Node11&#45;&gt;Node13 -->
<g id="edge26" class="edge"><title>Node11&#45;&gt;Node13</title>
<path fill="none" stroke="midnightblue" d="M416.285,-63.2387C475.757,-64.1797 555.646,-65.4438 605.982,-66.2402"/>
<polygon fill="midnightblue" stroke="midnightblue" points="416.232,-59.7375 406.178,-63.0788 416.122,-66.7366 416.232,-59.7375"/>
</g>
<!-- Node14 -->
<g id="node28" class="node"><title>Node14</title>
<a xlink:href="class_ultrasonic.html#aa91dcad8c1595bd3c4bdd3e798afb736" target="_top" xlink:title="Ultrasonic::UpdateTable">
<polygon fill="white" stroke="black" points="445,-0.5 445,-19.5 565,-19.5 565,-0.5 445,-0.5"/>
<text text-anchor="middle" x="505" y="-7.5" font-family="Helvetica,sans-Serif" font-size="10.00">Ultrasonic::UpdateTable</text>
</a>
</g>
<!-- Node11&#45;&gt;Node14 -->
<g id="edge28" class="edge"><title>Node11&#45;&gt;Node14</title>
<path fill="none" stroke="midnightblue" d="M378.373,-49.3532C407.684,-40.1714 446.729,-27.9402 473.465,-19.565"/>
<polygon fill="midnightblue" stroke="midnightblue" points="376.943,-46.1331 368.447,-52.4624 379.036,-52.813 376.943,-46.1331"/>
</g>
<!-- Node12&#45;&gt;Node13 -->
<g id="edge24" class="edge"><title>Node12&#45;&gt;Node13</title>
<path fill="none" stroke="midnightblue" d="M578.351,-76.7116C587.619,-75.5219 596.921,-74.3278 605.675,-73.2038"/>
<polygon fill="midnightblue" stroke="midnightblue" points="577.809,-73.2524 568.336,-77.9974 578.701,-80.1954 577.809,-73.2524"/>
</g>
<!-- Node15 -->
<g id="node30" class="node"><title>Node15</title>
<a xlink:href="class_ultrasonic.html#a63320495a2d314cbc09cc9e4b6d1569d" target="_top" xlink:title="Ultrasonic::InitTable">
<polygon fill="white" stroke="black" points="604,-0.5 604,-19.5 706,-19.5 706,-0.5 604,-0.5"/>
<text text-anchor="middle" x="655" y="-7.5" font-family="Helvetica,sans-Serif" font-size="10.00">Ultrasonic::InitTable</text>
</a>
</g>
<!-- Node14&#45;&gt;Node15 -->
<g id="edge30" class="edge"><title>Node14&#45;&gt;Node15</title>
<path fill="none" stroke="midnightblue" d="M575.567,-10C585.051,-10 594.632,-10 603.684,-10"/>
<polygon fill="midnightblue" stroke="midnightblue" points="575.345,-6.5001 565.344,-10 575.344,-13.5001 575.345,-6.5001"/>
</g>
</g>
</svg>
