<?xml version="1.0" encoding="UTF-8" standalone="no"?>
<!DOCTYPE svg PUBLIC "-//W3C//DTD SVG 1.1//EN"
 "http://www.w3.org/Graphics/SVG/1.1/DTD/svg11.dtd">
<!-- Generated by graphviz version 2.28.0 (20110507.0327)
 -->
<!-- Title: BuiltInAccelerometer::InitTable Pages: 1 -->
<svg width="404pt" height="136pt"
 viewBox="0.00 0.00 404.00 136.00" xmlns="http://www.w3.org/2000/svg" xmlns:xlink="http://www.w3.org/1999/xlink">
<g id="graph1" class="graph" transform="scale(1 1) rotate(0) translate(4 132)">
<title>BuiltInAccelerometer::InitTable</title>
<polygon fill="white" stroke="white" points="-4,5 -4,-132 401,-132 401,5 -4,5"/>
<!-- Node1 -->
<g id="node1" class="node"><title>Node1</title>
<polygon fill="#bfbfbf" stroke="black" points="0.5,-49 0.5,-79 107.5,-79 107.5,-49 0.5,-49"/>
<text text-anchor="start" x="8.5" y="-67" font-family="Helvetica,sans-Serif" font-size="10.00">BuiltInAccelerometer</text>
<text text-anchor="middle" x="54" y="-56" font-family="Helvetica,sans-Serif" font-size="10.00">::InitTable</text>
</g>
<!-- Node2 -->
<g id="node3" class="node"><title>Node2</title>
<a xlink:href="class_built_in_accelerometer.html#a86843cf635b772e231611e4c93ad991e" target="_top" xlink:title="BuiltInAccelerometer\l::UpdateTable">
<polygon fill="white" stroke="black" points="144.5,-49 144.5,-79 251.5,-79 251.5,-49 144.5,-49"/>
<text text-anchor="start" x="152.5" y="-67" font-family="Helvetica,sans-Serif" font-size="10.00">BuiltInAccelerometer</text>
<text text-anchor="middle" x="198" y="-56" font-family="Helvetica,sans-Serif" font-size="10.00">::UpdateTable</text>
</a>
</g>
<!-- Node1&#45;&gt;Node2 -->
<g id="edge2" class="edge"><title>Node1&#45;&gt;Node2</title>
<path fill="none" stroke="midnightblue" d="M107.876,-64C116.377,-64 125.25,-64 133.961,-64"/>
<polygon fill="midnightblue" stroke="midnightblue" points="134.08,-67.5001 144.08,-64 134.08,-60.5001 134.08,-67.5001"/>
</g>
<!-- Node3 -->
<g id="node5" class="node"><title>Node3</title>
<a xlink:href="class_built_in_accelerometer.html#a05f80f912490b330fe793323056c6db2" target="_top" xlink:title="BuiltInAccelerometer\l::GetX">
<polygon fill="white" stroke="black" points="288.5,-98 288.5,-128 395.5,-128 395.5,-98 288.5,-98"/>
<text text-anchor="start" x="296.5" y="-116" font-family="Helvetica,sans-Serif" font-size="10.00">BuiltInAccelerometer</text>
<text text-anchor="middle" x="342" y="-105" font-family="Helvetica,sans-Serif" font-size="10.00">::GetX</text>
</a>
</g>
<!-- Node2&#45;&gt;Node3 -->
<g id="edge4" class="edge"><title>Node2&#45;&gt;Node3</title>
<path fill="none" stroke="midnightblue" d="M242.763,-79.1014C256.935,-83.9917 272.813,-89.4707 287.603,-94.5744"/>
<polygon fill="midnightblue" stroke="midnightblue" points="286.542,-97.9106 297.137,-97.8641 288.825,-91.2935 286.542,-97.9106"/>
</g>
<!-- Node4 -->
<g id="node7" class="node"><title>Node4</title>
<a xlink:href="class_built_in_accelerometer.html#a0cdca550a2a13d3f8f3cccca1cc37577" target="_top" xlink:title="BuiltInAccelerometer\l::GetY">
<polygon fill="white" stroke="black" points="288.5,-49 288.5,-79 395.5,-79 395.5,-49 288.5,-49"/>
<text text-anchor="start" x="296.5" y="-67" font-family="Helvetica,sans-Serif" font-size="10.00">BuiltInAccelerometer</text>
<text text-anchor="middle" x="342" y="-56" font-family="Helvetica,sans-Serif" font-size="10.00">::GetY</text>
</a>
</g>
<!-- Node2&#45;&gt;Node4 -->
<g id="edge6" class="edge"><title>Node2&#45;&gt;Node4</title>
<path fill="none" stroke="midnightblue" d="M251.876,-64C260.377,-64 269.25,-64 277.961,-64"/>
<polygon fill="midnightblue" stroke="midnightblue" points="278.08,-67.5001 288.08,-64 278.08,-60.5001 278.08,-67.5001"/>
</g>
<!-- Node5 -->
<g id="node9" class="node"><title>Node5</title>
<a xlink:href="class_built_in_accelerometer.html#a84d7e5908d08fd7c7fef2bd6e87761a7" target="_top" xlink:title="BuiltInAccelerometer\l::GetZ">
<polygon fill="white" stroke="black" points="288.5,-0 288.5,-30 395.5,-30 395.5,-0 288.5,-0"/>
<text text-anchor="start" x="296.5" y="-18" font-family="Helvetica,sans-Serif" font-size="10.00">BuiltInAccelerometer</text>
<text text-anchor="middle" x="342" y="-7" font-family="Helvetica,sans-Serif" font-size="10.00">::GetZ</text>
</a>
</g>
<!-- Node2&#45;&gt;Node5 -->
<g id="edge8" class="edge"><title>Node2&#45;&gt;Node5</title>
<path fill="none" stroke="midnightblue" d="M242.763,-48.8986C256.935,-44.0083 272.813,-38.5293 287.603,-33.4256"/>
<polygon fill="midnightblue" stroke="midnightblue" points="288.825,-36.7065 297.137,-30.1359 286.542,-30.0894 288.825,-36.7065"/>
</g>
</g>
</svg>
