<?xml version="1.0" encoding="UTF-8" standalone="no"?>
<!DOCTYPE svg PUBLIC "-//W3C//DTD SVG 1.1//EN"
 "http://www.w3.org/Graphics/SVG/1.1/DTD/svg11.dtd">
<!-- Generated by graphviz version 2.28.0 (20110507.0327)
 -->
<!-- Title: Joystick::GetTrigger Pages: 1 -->
<svg width="450pt" height="28pt"
 viewBox="0.00 0.00 450.00 28.00" xmlns="http://www.w3.org/2000/svg" xmlns:xlink="http://www.w3.org/1999/xlink">
<g id="graph1" class="graph" transform="scale(1 1) rotate(0) translate(4 24)">
<title>Joystick::GetTrigger</title>
<polygon fill="white" stroke="white" points="-4,5 -4,-24 447,-24 447,5 -4,5"/>
<!-- Node1 -->
<g id="node1" class="node"><title>Node1</title>
<polygon fill="#bfbfbf" stroke="black" points="0,-0.5 0,-19.5 104,-19.5 104,-0.5 0,-0.5"/>
<text text-anchor="middle" x="52" y="-7.5" font-family="Helvetica,sans-Serif" font-size="10.00">Joystick::GetTrigger</text>
</g>
<!-- Node2 -->
<g id="node3" class="node"><title>Node2</title>
<a xlink:href="class_joystick.html#ab090aadee2aaf077f0674eacdd3dd45e" target="_top" xlink:title="Joystick::GetRawButton">
<polygon fill="white" stroke="black" points="140,-0.5 140,-19.5 262,-19.5 262,-0.5 140,-0.5"/>
<text text-anchor="middle" x="201" y="-7.5" font-family="Helvetica,sans-Serif" font-size="10.00">Joystick::GetRawButton</text>
</a>
</g>
<!-- Node1&#45;&gt;Node2 -->
<g id="edge2" class="edge"><title>Node1&#45;&gt;Node2</title>
<path fill="none" stroke="midnightblue" d="M104.001,-10C112.345,-10 121.118,-10 129.827,-10"/>
<polygon fill="midnightblue" stroke="midnightblue" points="129.994,-13.5001 139.994,-10 129.994,-6.5001 129.994,-13.5001"/>
</g>
<!-- Node3 -->
<g id="node5" class="node"><title>Node3</title>
<a xlink:href="class_driver_station.html#a7778d9c78f3d918a4338f62662604cf1" target="_top" xlink:title="DriverStation::GetStickButton">
<polygon fill="white" stroke="black" points="298,-0.5 298,-19.5 442,-19.5 442,-0.5 298,-0.5"/>
<text text-anchor="middle" x="370" y="-7.5" font-family="Helvetica,sans-Serif" font-size="10.00">DriverStation::GetStickButton</text>
</a>
</g>
<!-- Node2&#45;&gt;Node3 -->
<g id="edge4" class="edge"><title>Node2&#45;&gt;Node3</title>
<path fill="none" stroke="midnightblue" d="M262.291,-10C270.618,-10 279.279,-10 287.906,-10"/>
<polygon fill="midnightblue" stroke="midnightblue" points="287.995,-13.5001 297.995,-10 287.995,-6.5001 287.995,-13.5001"/>
</g>
</g>
</svg>
