<?xml version="1.0" encoding="UTF-8" standalone="no"?>
<!DOCTYPE svg PUBLIC "-//W3C//DTD SVG 1.1//EN"
 "http://www.w3.org/Graphics/SVG/1.1/DTD/svg11.dtd">
<!-- Generated by graphviz version 2.28.0 (20110507.0327)
 -->
<!-- Title: Joystick::GetY Pages: 1 -->
<svg width="412pt" height="28pt"
 viewBox="0.00 0.00 412.00 28.00" xmlns="http://www.w3.org/2000/svg" xmlns:xlink="http://www.w3.org/1999/xlink">
<g id="graph1" class="graph" transform="scale(1 1) rotate(0) translate(4 24)">
<title>Joystick::GetY</title>
<polygon fill="white" stroke="white" points="-4,5 -4,-24 409,-24 409,5 -4,5"/>
<!-- Node1 -->
<g id="node1" class="node"><title>Node1</title>
<polygon fill="#bfbfbf" stroke="black" points="0.5,-0.5 0.5,-19.5 81.5,-19.5 81.5,-0.5 0.5,-0.5"/>
<text text-anchor="middle" x="41" y="-7.5" font-family="Helvetica,sans-Serif" font-size="10.00">Joystick::GetY</text>
</g>
<!-- Node2 -->
<g id="node3" class="node"><title>Node2</title>
<a xlink:href="class_joystick.html#a1011135df443771aa07e3afa4a839b05" target="_top" xlink:title="Joystick::GetRawAxis">
<polygon fill="white" stroke="black" points="118.5,-0.5 118.5,-19.5 231.5,-19.5 231.5,-0.5 118.5,-0.5"/>
<text text-anchor="middle" x="175" y="-7.5" font-family="Helvetica,sans-Serif" font-size="10.00">Joystick::GetRawAxis</text>
</a>
</g>
<!-- Node1&#45;&gt;Node2 -->
<g id="edge2" class="edge"><title>Node1&#45;&gt;Node2</title>
<path fill="none" stroke="midnightblue" d="M81.6044,-10C89.991,-10 99.0585,-10 108.123,-10"/>
<polygon fill="midnightblue" stroke="midnightblue" points="108.319,-13.5001 118.319,-10 108.319,-6.5001 108.319,-13.5001"/>
</g>
<!-- Node3 -->
<g id="node5" class="node"><title>Node3</title>
<a xlink:href="class_driver_station.html#a3d0f8b9b6dd45cd071773a47d35059ac" target="_top" xlink:title="DriverStation::GetStickAxis">
<polygon fill="white" stroke="black" points="268.5,-0.5 268.5,-19.5 403.5,-19.5 403.5,-0.5 268.5,-0.5"/>
<text text-anchor="middle" x="336" y="-7.5" font-family="Helvetica,sans-Serif" font-size="10.00">DriverStation::GetStickAxis</text>
</a>
</g>
<!-- Node2&#45;&gt;Node3 -->
<g id="edge4" class="edge"><title>Node2&#45;&gt;Node3</title>
<path fill="none" stroke="midnightblue" d="M231.61,-10C240.264,-10 249.334,-10 258.355,-10"/>
<polygon fill="midnightblue" stroke="midnightblue" points="258.495,-13.5001 268.495,-10 258.495,-6.5001 258.495,-13.5001"/>
</g>
</g>
</svg>
