<?xml version="1.0" encoding="UTF-8" standalone="no"?>
<!DOCTYPE svg PUBLIC "-//W3C//DTD SVG 1.1//EN"
 "http://www.w3.org/Graphics/SVG/1.1/DTD/svg11.dtd">
<!-- Generated by graphviz version 2.28.0 (20110507.0327)
 -->
<!-- Title: Gyro Pages: 1 -->
<svg width="288pt" height="290pt"
 viewBox="0.00 0.00 288.00 290.00" xmlns="http://www.w3.org/2000/svg" xmlns:xlink="http://www.w3.org/1999/xlink">
<g id="graph1" class="graph" transform="scale(1 1) rotate(0) translate(4 286)">
<title>Gyro</title>
<polygon fill="white" stroke="white" points="-4,5 -4,-286 285,-286 285,5 -4,5"/>
<!-- Node1 -->
<g id="node1" class="node"><title>Node1</title>
<polygon fill="#bfbfbf" stroke="black" points="158,-0.5 158,-19.5 196,-19.5 196,-0.5 158,-0.5"/>
<text text-anchor="middle" x="177" y="-7.5" font-family="Helvetica,sans-Serif" font-size="10.00">Gyro</text>
</g>
<!-- Node2 -->
<g id="node2" class="node"><title>Node2</title>
<a xlink:href="class_sensor_base.html" target="_top" xlink:title="SensorBase">
<polygon fill="white" stroke="black" points="0,-126.5 0,-145.5 70,-145.5 70,-126.5 0,-126.5"/>
<text text-anchor="middle" x="35" y="-133.5" font-family="Helvetica,sans-Serif" font-size="10.00">SensorBase</text>
</a>
</g>
<!-- Node2&#45;&gt;Node1 -->
<g id="edge2" class="edge"><title>Node2&#45;&gt;Node1</title>
<path fill="none" stroke="midnightblue" d="M32.6726,-116.443C35.4969,-102.235 43.03,-82.6519 54,-68 79.1978,-34.345 129.789,-19.2486 157.879,-13.7015"/>
<polygon fill="midnightblue" stroke="midnightblue" points="29.184,-116.137 31.4413,-126.488 36.132,-116.988 29.184,-116.137"/>
</g>
<!-- Node2&#45;&gt;Node1 -->
<g id="edge14" class="edge"><title>Node2&#45;&gt;Node1</title>
<path fill="none" stroke="midnightblue" d="M47.0279,-117.28C53.1999,-103.012 60.8127,-82.9421 72,-68 93.4845,-39.3047 133.429,-24.1011 157.586,-16.8049"/>
<polygon fill="midnightblue" stroke="midnightblue" points="43.7898,-115.944 42.7578,-126.488 50.1401,-118.889 43.7898,-115.944"/>
</g>
<!-- Node8 -->
<g id="node17" class="node"><title>Node8</title>
<a xlink:href="class_analog_input.html" target="_top" xlink:title="AnalogInput">
<polygon fill="white" stroke="black" points="72,-68.5 72,-87.5 140,-87.5 140,-68.5 72,-68.5"/>
<text text-anchor="middle" x="106" y="-75.5" font-family="Helvetica,sans-Serif" font-size="10.00">AnalogInput</text>
</a>
</g>
<!-- Node2&#45;&gt;Node8 -->
<g id="edge22" class="edge"><title>Node2&#45;&gt;Node8</title>
<path fill="none" stroke="midnightblue" d="M48.7216,-119.343C60.687,-109.033 77.6713,-95.931 90.2073,-87.5052"/>
<polygon fill="midnightblue" stroke="midnightblue" points="46.1322,-116.964 41.0313,-126.25 50.8097,-122.172 46.1322,-116.964"/>
</g>
<!-- Node2&#45;&gt;Node8 -->
<g id="edge28" class="edge"><title>Node2&#45;&gt;Node8</title>
<path fill="none" stroke="midnightblue" d="M59.3888,-120.495C73.8816,-110.058 90.9596,-96.3321 100.142,-87.5852"/>
<polygon fill="midnightblue" stroke="midnightblue" points="56.9896,-117.901 50.7927,-126.495 60.9961,-123.641 56.9896,-117.901"/>
</g>
<!-- Node3 -->
<g id="node4" class="node"><title>Node3</title>
<a xlink:href="class_error_base.html" target="_top" xlink:title="ErrorBase">
<polygon fill="white" stroke="black" points="5,-184.5 5,-203.5 65,-203.5 65,-184.5 5,-184.5"/>
<text text-anchor="middle" x="35" y="-191.5" font-family="Helvetica,sans-Serif" font-size="10.00">ErrorBase</text>
</a>
</g>
<!-- Node3&#45;&gt;Node2 -->
<g id="edge4" class="edge"><title>Node3&#45;&gt;Node2</title>
<path fill="none" stroke="midnightblue" d="M35,-173.953C35,-164.287 35,-153.031 35,-145.505"/>
<polygon fill="midnightblue" stroke="midnightblue" points="31.5001,-174.25 35,-184.25 38.5001,-174.25 31.5001,-174.25"/>
</g>
<!-- Node4 -->
<g id="node6" class="node"><title>Node4</title>
<a xlink:href="class_error.html" target="_top" xlink:title="Error">
<polygon fill="white" stroke="black" points="16,-262.5 16,-281.5 54,-281.5 54,-262.5 16,-262.5"/>
<text text-anchor="middle" x="35" y="-269.5" font-family="Helvetica,sans-Serif" font-size="10.00">Error</text>
</a>
</g>
<!-- Node4&#45;&gt;Node3 -->
<g id="edge6" class="edge"><title>Node4&#45;&gt;Node3</title>
<path fill="none" stroke="#9a32cd" stroke-dasharray="5,2" d="M35,-252.224C35,-236.697 35,-215.358 35,-203.616"/>
<polygon fill="#9a32cd" stroke="#9a32cd" points="31.5001,-252.282 35,-262.282 38.5001,-252.282 31.5001,-252.282"/>
<text text-anchor="middle" x="62.5" y="-236" font-family="Helvetica,sans-Serif" font-size="10.00"> _globalError</text>
<text text-anchor="middle" x="62.5" y="-225" font-family="Helvetica,sans-Serif" font-size="10.00">m_error</text>
</g>
<!-- Node5 -->
<g id="node8" class="node"><title>Node5</title>
<a xlink:href="class_p_i_d_source.html" target="_top" xlink:title="PIDSource">
<polygon fill="white" stroke="black" points="217.5,-126.5 217.5,-145.5 280.5,-145.5 280.5,-126.5 217.5,-126.5"/>
<text text-anchor="middle" x="249" y="-133.5" font-family="Helvetica,sans-Serif" font-size="10.00">PIDSource</text>
</a>
</g>
<!-- Node5&#45;&gt;Node1 -->
<g id="edge8" class="edge"><title>Node5&#45;&gt;Node1</title>
<path fill="none" stroke="midnightblue" d="M234.382,-118.104C215.873,-91.2787 186.433,-39.9072 178.341,-19.5827"/>
<polygon fill="midnightblue" stroke="midnightblue" points="231.732,-120.413 240.419,-126.477 237.41,-116.319 231.732,-120.413"/>
</g>
<!-- Node5&#45;&gt;Node1 -->
<g id="edge16" class="edge"><title>Node5&#45;&gt;Node1</title>
<path fill="none" stroke="midnightblue" d="M243.491,-117.037C230.565,-89.9381 200.934,-39.641 185.626,-19.5827"/>
<polygon fill="midnightblue" stroke="midnightblue" points="240.426,-118.758 247.683,-126.477 246.823,-115.917 240.426,-118.758"/>
</g>
<!-- Node5&#45;&gt;Node8 -->
<g id="edge24" class="edge"><title>Node5&#45;&gt;Node8</title>
<path fill="none" stroke="midnightblue" d="M212.534,-122.938C183.711,-112.291 144.963,-97.0336 122.896,-87.5852"/>
<polygon fill="midnightblue" stroke="midnightblue" points="211.678,-126.351 222.272,-126.495 214.08,-119.776 211.678,-126.351"/>
</g>
<!-- Node5&#45;&gt;Node8 -->
<g id="edge30" class="edge"><title>Node5&#45;&gt;Node8</title>
<path fill="none" stroke="midnightblue" d="M222.853,-122.517C197.286,-111.892 158.794,-96.9098 132.95,-87.5852"/>
<polygon fill="midnightblue" stroke="midnightblue" points="221.716,-125.837 232.291,-126.495 224.435,-119.386 221.716,-125.837"/>
</g>
<!-- Node6 -->
<g id="node10" class="node"><title>Node6</title>
<a xlink:href="class_live_window_sendable.html" target="_top" xlink:title="LiveWindowSendable">
<polygon fill="white" stroke="black" points="90,-126.5 90,-145.5 198,-145.5 198,-126.5 90,-126.5"/>
<text text-anchor="middle" x="144" y="-133.5" font-family="Helvetica,sans-Serif" font-size="10.00">LiveWindowSendable</text>
</a>
</g>
<!-- Node6&#45;&gt;Node1 -->
<g id="edge10" class="edge"><title>Node6&#45;&gt;Node1</title>
<path fill="none" stroke="midnightblue" d="M143.979,-116.312C148.507,-89.0502 162.154,-39.4635 171.073,-19.5827"/>
<polygon fill="midnightblue" stroke="midnightblue" points="140.476,-116.105 142.637,-126.477 147.415,-117.021 140.476,-116.105"/>
</g>
<!-- Node6&#45;&gt;Node1 -->
<g id="edge18" class="edge"><title>Node6&#45;&gt;Node1</title>
<path fill="none" stroke="midnightblue" d="M153.702,-117.037C163.722,-89.9381 176.681,-39.641 178.358,-19.5827"/>
<polygon fill="midnightblue" stroke="midnightblue" points="150.389,-115.893 149.9,-126.477 156.882,-118.508 150.389,-115.893"/>
</g>
<!-- Node6&#45;&gt;Node8 -->
<g id="edge26" class="edge"><title>Node6&#45;&gt;Node8</title>
<path fill="none" stroke="midnightblue" d="M126.537,-118.435C118.651,-108.273 110.514,-95.6856 106.762,-87.5052"/>
<polygon fill="midnightblue" stroke="midnightblue" points="123.93,-120.774 133,-126.25 129.324,-116.313 123.93,-120.774"/>
</g>
<!-- Node6&#45;&gt;Node8 -->
<g id="edge32" class="edge"><title>Node6&#45;&gt;Node8</title>
<path fill="none" stroke="midnightblue" d="M138.259,-117.204C132.364,-107.273 123.837,-95.3584 116.781,-87.5052"/>
<polygon fill="midnightblue" stroke="midnightblue" points="135.305,-119.101 143.125,-126.25 141.47,-115.785 135.305,-119.101"/>
</g>
<!-- Node7 -->
<g id="node12" class="node"><title>Node7</title>
<a xlink:href="class_sendable.html" target="_top" xlink:title="Sendable">
<polygon fill="white" stroke="black" points="115.5,-184.5 115.5,-203.5 172.5,-203.5 172.5,-184.5 115.5,-184.5"/>
<text text-anchor="middle" x="144" y="-191.5" font-family="Helvetica,sans-Serif" font-size="10.00">Sendable</text>
</a>
</g>
<!-- Node7&#45;&gt;Node6 -->
<g id="edge12" class="edge"><title>Node7&#45;&gt;Node6</title>
<path fill="none" stroke="midnightblue" d="M144,-173.953C144,-164.287 144,-153.031 144,-145.505"/>
<polygon fill="midnightblue" stroke="midnightblue" points="140.5,-174.25 144,-184.25 147.5,-174.25 140.5,-174.25"/>
</g>
<!-- Node8&#45;&gt;Node1 -->
<g id="edge20" class="edge"><title>Node8&#45;&gt;Node1</title>
<path fill="none" stroke="#9a32cd" stroke-dasharray="5,2" d="M102.922,-58.3283C102.753,-51.3736 103.838,-43.775 108,-38 119.433,-22.138 141.614,-15.5936 157.75,-12.8941"/>
<polygon fill="#9a32cd" stroke="#9a32cd" points="99.4505,-58.784 103.957,-68.3727 106.414,-58.0666 99.4505,-58.784"/>
<text text-anchor="middle" x="131" y="-41.5" font-family="Helvetica,sans-Serif" font-size="10.00"> m_analog</text>
</g>
</g>
</svg>
