<?xml version="1.0" encoding="UTF-8" standalone="no"?>
<!DOCTYPE svg PUBLIC "-//W3C//DTD SVG 1.1//EN"
 "http://www.w3.org/Graphics/SVG/1.1/DTD/svg11.dtd">
<!-- Generated by graphviz version 2.28.0 (20110507.0327)
 -->
<!-- Title: GearTooth::GearTooth Pages: 1 -->
<svg width="640pt" height="115pt"
 viewBox="0.00 0.00 640.00 115.00" xmlns="http://www.w3.org/2000/svg" xmlns:xlink="http://www.w3.org/1999/xlink">
<g id="graph1" class="graph" transform="scale(1 1) rotate(0) translate(4 111)">
<title>GearTooth::GearTooth</title>
<polygon fill="white" stroke="white" points="-4,5 -4,-111 637,-111 637,5 -4,5"/>
<!-- Node1 -->
<g id="node1" class="node"><title>Node1</title>
<polygon fill="#bfbfbf" stroke="black" points="0.5,-38.5 0.5,-57.5 113.5,-57.5 113.5,-38.5 0.5,-38.5"/>
<text text-anchor="middle" x="57" y="-45.5" font-family="Helvetica,sans-Serif" font-size="10.00">GearTooth::GearTooth</text>
</g>
<!-- Node2 -->
<g id="node3" class="node"><title>Node2</title>
<a xlink:href="class_gear_tooth.html#a0bec962d2920dc28f8d4ef53b5fa2c65" target="_top" xlink:title="GearTooth::EnableDirection\lSensing">
<polygon fill="white" stroke="black" points="150,-77 150,-107 286,-107 286,-77 150,-77"/>
<text text-anchor="start" x="158" y="-95" font-family="Helvetica,sans-Serif" font-size="10.00">GearTooth::EnableDirection</text>
<text text-anchor="middle" x="218" y="-84" font-family="Helvetica,sans-Serif" font-size="10.00">Sensing</text>
</a>
</g>
<!-- Node1&#45;&gt;Node2 -->
<g id="edge2" class="edge"><title>Node1&#45;&gt;Node2</title>
<path fill="none" stroke="midnightblue" d="M92.5006,-57.5473C110.162,-62.4349 132.242,-68.5451 152.884,-74.2571"/>
<polygon fill="midnightblue" stroke="midnightblue" points="151.988,-77.6407 162.559,-76.9346 153.855,-70.8943 151.988,-77.6407"/>
</g>
<!-- Node5 -->
<g id="node9" class="node"><title>Node5</title>
<a xlink:href="class_live_window.html#a329c07efec22a0e0644d70279688aa35" target="_top" xlink:title="LiveWindow::GetInstance">
<polygon fill="white" stroke="black" points="155,-38.5 155,-57.5 281,-57.5 281,-38.5 155,-38.5"/>
<text text-anchor="middle" x="218" y="-45.5" font-family="Helvetica,sans-Serif" font-size="10.00">LiveWindow::GetInstance</text>
</a>
</g>
<!-- Node1&#45;&gt;Node5 -->
<g id="edge8" class="edge"><title>Node1&#45;&gt;Node5</title>
<path fill="none" stroke="midnightblue" d="M113.61,-48C123.618,-48 134.182,-48 144.584,-48"/>
<polygon fill="midnightblue" stroke="midnightblue" points="144.904,-51.5001 154.904,-48 144.904,-44.5001 144.904,-51.5001"/>
</g>
<!-- Node8 -->
<g id="node15" class="node"><title>Node8</title>
<a xlink:href="class_live_window.html#a5dc37b1651d0bced92127dd2c69a94ce" target="_top" xlink:title="LiveWindow::AddSensor">
<polygon fill="white" stroke="black" points="157,-0.5 157,-19.5 279,-19.5 279,-0.5 157,-0.5"/>
<text text-anchor="middle" x="218" y="-7.5" font-family="Helvetica,sans-Serif" font-size="10.00">LiveWindow::AddSensor</text>
</a>
</g>
<!-- Node1&#45;&gt;Node8 -->
<g id="edge14" class="edge"><title>Node1&#45;&gt;Node8</title>
<path fill="none" stroke="midnightblue" d="M98.1224,-38.411C119.104,-33.3965 144.982,-27.2119 167.23,-21.8947"/>
<polygon fill="midnightblue" stroke="midnightblue" points="168.254,-25.2487 177.166,-19.5201 166.626,-18.4405 168.254,-25.2487"/>
</g>
<!-- Node3 -->
<g id="node5" class="node"><title>Node3</title>
<a xlink:href="class_counter.html#adc8d4c41b26c8654fe3775afdb6439f5" target="_top" xlink:title="Counter::SetPulseLengthMode">
<polygon fill="white" stroke="black" points="322.5,-82.5 322.5,-101.5 471.5,-101.5 471.5,-82.5 322.5,-82.5"/>
<text text-anchor="middle" x="397" y="-89.5" font-family="Helvetica,sans-Serif" font-size="10.00">Counter::SetPulseLengthMode</text>
</a>
</g>
<!-- Node2&#45;&gt;Node3 -->
<g id="edge4" class="edge"><title>Node2&#45;&gt;Node3</title>
<path fill="none" stroke="midnightblue" d="M286.168,-92C294.674,-92 303.459,-92 312.182,-92"/>
<polygon fill="midnightblue" stroke="midnightblue" points="312.375,-95.5001 322.375,-92 312.375,-88.5001 312.375,-95.5001"/>
</g>
<!-- Node4 -->
<g id="node7" class="node"><title>Node4</title>
<a xlink:href="class_error_base.html#a05790f219c9e436a09752f73f7344024" target="_top" xlink:title="Check if the current error code represents a fatal error. ">
<polygon fill="white" stroke="black" points="508,-82.5 508,-101.5 632,-101.5 632,-82.5 508,-82.5"/>
<text text-anchor="middle" x="570" y="-89.5" font-family="Helvetica,sans-Serif" font-size="10.00">ErrorBase::StatusIsFatal</text>
</a>
</g>
<!-- Node3&#45;&gt;Node4 -->
<g id="edge6" class="edge"><title>Node3&#45;&gt;Node4</title>
<path fill="none" stroke="midnightblue" d="M471.512,-92C480.23,-92 489.118,-92 497.803,-92"/>
<polygon fill="midnightblue" stroke="midnightblue" points="497.884,-95.5001 507.884,-92 497.884,-88.5001 497.884,-95.5001"/>
</g>
<!-- Node6 -->
<g id="node11" class="node"><title>Node6</title>
<a xlink:href="class_live_window.html#ac33cec031b5990d91e5c68efb3340b68" target="_top" xlink:title="LiveWindow::LiveWindow">
<polygon fill="white" stroke="black" points="334.5,-38.5 334.5,-57.5 459.5,-57.5 459.5,-38.5 334.5,-38.5"/>
<text text-anchor="middle" x="397" y="-45.5" font-family="Helvetica,sans-Serif" font-size="10.00">LiveWindow::LiveWindow</text>
</a>
</g>
<!-- Node5&#45;&gt;Node6 -->
<g id="edge10" class="edge"><title>Node5&#45;&gt;Node6</title>
<path fill="none" stroke="midnightblue" d="M281.404,-48C295.259,-48 310.052,-48 324.248,-48"/>
<polygon fill="midnightblue" stroke="midnightblue" points="324.458,-51.5001 334.458,-48 324.458,-44.5001 324.458,-51.5001"/>
</g>
<!-- Node7 -->
<g id="node13" class="node"><title>Node7</title>
<a xlink:href="class_scheduler.html#a5cc7ff43cb79880d28586b07ec967070" target="_top" xlink:title="Scheduler::GetInstance">
<polygon fill="white" stroke="black" points="510.5,-38.5 510.5,-57.5 629.5,-57.5 629.5,-38.5 510.5,-38.5"/>
<text text-anchor="middle" x="570" y="-45.5" font-family="Helvetica,sans-Serif" font-size="10.00">Scheduler::GetInstance</text>
</a>
</g>
<!-- Node6&#45;&gt;Node7 -->
<g id="edge12" class="edge"><title>Node6&#45;&gt;Node7</title>
<path fill="none" stroke="midnightblue" d="M459.735,-48C472.923,-48 486.931,-48 500.361,-48"/>
<polygon fill="midnightblue" stroke="midnightblue" points="500.495,-51.5001 510.495,-48 500.495,-44.5001 500.495,-51.5001"/>
</g>
</g>
</svg>
