<?xml version="1.0" encoding="UTF-8" standalone="no"?>
<!DOCTYPE svg PUBLIC "-//W3C//DTD SVG 1.1//EN"
 "http://www.w3.org/Graphics/SVG/1.1/DTD/svg11.dtd">
<!-- Generated by graphviz version 2.28.0 (20110507.0327)
 -->
<!-- Title: AnalogInput::UpdateTable Pages: 1 -->
<svg width="490pt" height="28pt"
 viewBox="0.00 0.00 490.00 28.00" xmlns="http://www.w3.org/2000/svg" xmlns:xlink="http://www.w3.org/1999/xlink">
<g id="graph1" class="graph" transform="scale(1 1) rotate(0) translate(4 24)">
<title>AnalogInput::UpdateTable</title>
<polygon fill="white" stroke="white" points="-4,5 -4,-24 487,-24 487,5 -4,5"/>
<!-- Node1 -->
<g id="node1" class="node"><title>Node1</title>
<polygon fill="#bfbfbf" stroke="black" points="0,-0.5 0,-19.5 128,-19.5 128,-0.5 0,-0.5"/>
<text text-anchor="middle" x="64" y="-7.5" font-family="Helvetica,sans-Serif" font-size="10.00">AnalogInput::UpdateTable</text>
</g>
<!-- Node2 -->
<g id="node3" class="node"><title>Node2</title>
<a xlink:href="class_analog_input.html#a48743112f8b15e3b2cea8a64ed541308" target="_top" xlink:title="AnalogInput::GetAverageVoltage">
<polygon fill="white" stroke="black" points="164.5,-0.5 164.5,-19.5 321.5,-19.5 321.5,-0.5 164.5,-0.5"/>
<text text-anchor="middle" x="243" y="-7.5" font-family="Helvetica,sans-Serif" font-size="10.00">AnalogInput::GetAverageVoltage</text>
</a>
</g>
<!-- Node1&#45;&gt;Node2 -->
<g id="edge2" class="edge"><title>Node1&#45;&gt;Node2</title>
<path fill="none" stroke="midnightblue" d="M128.401,-10C136.743,-10 145.409,-10 154.068,-10"/>
<polygon fill="midnightblue" stroke="midnightblue" points="154.209,-13.5001 164.209,-10 154.209,-6.5001 154.209,-13.5001"/>
</g>
<!-- Node3 -->
<g id="node5" class="node"><title>Node3</title>
<a xlink:href="class_error_base.html#a05790f219c9e436a09752f73f7344024" target="_top" xlink:title="Check if the current error code represents a fatal error. ">
<polygon fill="white" stroke="black" points="358,-0.5 358,-19.5 482,-19.5 482,-0.5 358,-0.5"/>
<text text-anchor="middle" x="420" y="-7.5" font-family="Helvetica,sans-Serif" font-size="10.00">ErrorBase::StatusIsFatal</text>
</a>
</g>
<!-- Node2&#45;&gt;Node3 -->
<g id="edge4" class="edge"><title>Node2&#45;&gt;Node3</title>
<path fill="none" stroke="midnightblue" d="M321.522,-10C330.261,-10 339.136,-10 347.789,-10"/>
<polygon fill="midnightblue" stroke="midnightblue" points="347.826,-13.5001 357.826,-10 347.826,-6.5001 347.826,-13.5001"/>
</g>
</g>
</svg>
