<?xml version="1.0" encoding="UTF-8" standalone="no"?>
<!DOCTYPE svg PUBLIC "-//W3C//DTD SVG 1.1//EN"
 "http://www.w3.org/Graphics/SVG/1.1/DTD/svg11.dtd">
<!-- Generated by graphviz version 2.28.0 (20110507.0327)
 -->
<!-- Title: ADXL345_SPI Pages: 1 -->
<svg width="302pt" height="140pt"
 viewBox="0.00 0.00 302.00 140.00" xmlns="http://www.w3.org/2000/svg" xmlns:xlink="http://www.w3.org/1999/xlink">
<g id="graph1" class="graph" transform="scale(1 1) rotate(0) translate(4 136)">
<title>ADXL345_SPI</title>
<polygon fill="white" stroke="white" points="-4,5 -4,-136 299,-136 299,5 -4,5"/>
<!-- Node1 -->
<g id="node1" class="node"><title>Node1</title>
<polygon fill="#bfbfbf" stroke="black" points="94.5,-0.5 94.5,-19.5 171.5,-19.5 171.5,-0.5 94.5,-0.5"/>
<text text-anchor="middle" x="133" y="-7.5" font-family="Helvetica,sans-Serif" font-size="10.00">ADXL345_SPI</text>
</g>
<!-- Node2 -->
<g id="node2" class="node"><title>Node2</title>
<a xlink:href="class_accelerometer.html" target="_top" xlink:title="Accelerometer">
<polygon fill="white" stroke="black" points="0,-56.5 0,-75.5 80,-75.5 80,-56.5 0,-56.5"/>
<text text-anchor="middle" x="40" y="-63.5" font-family="Helvetica,sans-Serif" font-size="10.00">Accelerometer</text>
</a>
</g>
<!-- Node2&#45;&gt;Node1 -->
<g id="edge2" class="edge"><title>Node2&#45;&gt;Node1</title>
<path fill="none" stroke="midnightblue" d="M63.8057,-51.1774C80.9189,-41.2407 103.465,-28.1492 118.095,-19.6545"/>
<polygon fill="midnightblue" stroke="midnightblue" points="61.8325,-48.2758 54.9421,-56.324 65.3475,-54.3293 61.8325,-48.2758"/>
</g>
<!-- Node3 -->
<g id="node4" class="node"><title>Node3</title>
<a xlink:href="class_sensor_base.html" target="_top" xlink:title="SensorBase">
<polygon fill="white" stroke="black" points="98,-56.5 98,-75.5 168,-75.5 168,-56.5 98,-56.5"/>
<text text-anchor="middle" x="133" y="-63.5" font-family="Helvetica,sans-Serif" font-size="10.00">SensorBase</text>
</a>
</g>
<!-- Node3&#45;&gt;Node1 -->
<g id="edge4" class="edge"><title>Node3&#45;&gt;Node1</title>
<path fill="none" stroke="midnightblue" d="M133,-45.8045C133,-36.9102 133,-26.7798 133,-19.7511"/>
<polygon fill="midnightblue" stroke="midnightblue" points="129.5,-46.083 133,-56.083 136.5,-46.083 129.5,-46.083"/>
</g>
<!-- Node4 -->
<g id="node6" class="node"><title>Node4</title>
<a xlink:href="class_error_base.html" target="_top" xlink:title="ErrorBase">
<polygon fill="white" stroke="black" points="103,-112.5 103,-131.5 163,-131.5 163,-112.5 103,-112.5"/>
<text text-anchor="middle" x="133" y="-119.5" font-family="Helvetica,sans-Serif" font-size="10.00">ErrorBase</text>
</a>
</g>
<!-- Node4&#45;&gt;Node3 -->
<g id="edge6" class="edge"><title>Node4&#45;&gt;Node3</title>
<path fill="none" stroke="midnightblue" d="M133,-101.805C133,-92.9102 133,-82.7798 133,-75.7511"/>
<polygon fill="midnightblue" stroke="midnightblue" points="129.5,-102.083 133,-112.083 136.5,-102.083 129.5,-102.083"/>
</g>
<!-- Node5 -->
<g id="node8" class="node"><title>Node5</title>
<a xlink:href="class_live_window_sendable.html" target="_top" xlink:title="LiveWindowSendable">
<polygon fill="white" stroke="black" points="186,-56.5 186,-75.5 294,-75.5 294,-56.5 186,-56.5"/>
<text text-anchor="middle" x="240" y="-63.5" font-family="Helvetica,sans-Serif" font-size="10.00">LiveWindowSendable</text>
</a>
</g>
<!-- Node5&#45;&gt;Node1 -->
<g id="edge8" class="edge"><title>Node5&#45;&gt;Node1</title>
<path fill="none" stroke="midnightblue" d="M213.698,-51.7261C193.885,-41.7271 167.293,-28.3065 150.149,-19.6545"/>
<polygon fill="midnightblue" stroke="midnightblue" points="212.304,-54.9431 222.809,-56.324 215.458,-48.6938 212.304,-54.9431"/>
</g>
<!-- Node6 -->
<g id="node10" class="node"><title>Node6</title>
<a xlink:href="class_sendable.html" target="_top" xlink:title="Sendable">
<polygon fill="white" stroke="black" points="211.5,-112.5 211.5,-131.5 268.5,-131.5 268.5,-112.5 211.5,-112.5"/>
<text text-anchor="middle" x="240" y="-119.5" font-family="Helvetica,sans-Serif" font-size="10.00">Sendable</text>
</a>
</g>
<!-- Node6&#45;&gt;Node5 -->
<g id="edge10" class="edge"><title>Node6&#45;&gt;Node5</title>
<path fill="none" stroke="midnightblue" d="M240,-101.805C240,-92.9102 240,-82.7798 240,-75.7511"/>
<polygon fill="midnightblue" stroke="midnightblue" points="236.5,-102.083 240,-112.083 243.5,-102.083 236.5,-102.083"/>
</g>
</g>
</svg>
