<?xml version="1.0" encoding="UTF-8" standalone="no"?>
<!DOCTYPE svg PUBLIC "-//W3C//DTD SVG 1.1//EN"
 "http://www.w3.org/Graphics/SVG/1.1/DTD/svg11.dtd">
<!-- Generated by graphviz version 2.28.0 (20110507.0327)
 -->
<!-- Title: SampleRobot Pages: 1 -->
<svg width="265pt" height="366pt"
 viewBox="0.00 0.00 265.00 366.00" xmlns="http://www.w3.org/2000/svg" xmlns:xlink="http://www.w3.org/1999/xlink">
<g id="graph1" class="graph" transform="scale(1 1) rotate(0) translate(4 362)">
<title>SampleRobot</title>
<polygon fill="white" stroke="white" points="-4,5 -4,-362 262,-362 262,5 -4,5"/>
<!-- Node1 -->
<g id="node1" class="node"><title>Node1</title>
<polygon fill="#bfbfbf" stroke="black" points="151.5,-0.5 151.5,-19.5 226.5,-19.5 226.5,-0.5 151.5,-0.5"/>
<text text-anchor="middle" x="189" y="-7.5" font-family="Helvetica,sans-Serif" font-size="10.00">SampleRobot</text>
</g>
<!-- Node2 -->
<g id="node2" class="node"><title>Node2</title>
<a xlink:href="class_robot_base.html" target="_top" xlink:title="RobotBase">
<polygon fill="white" stroke="black" points="156.5,-58.5 156.5,-77.5 221.5,-77.5 221.5,-58.5 156.5,-58.5"/>
<text text-anchor="middle" x="189" y="-65.5" font-family="Helvetica,sans-Serif" font-size="10.00">RobotBase</text>
</a>
</g>
<!-- Node2&#45;&gt;Node1 -->
<g id="edge2" class="edge"><title>Node2&#45;&gt;Node1</title>
<path fill="none" stroke="midnightblue" d="M182.59,-48.2677C181.85,-38.5326 182.317,-27.113 183.991,-19.5052"/>
<polygon fill="midnightblue" stroke="midnightblue" points="179.131,-48.8081 183.938,-58.25 186.068,-47.8716 179.131,-48.8081"/>
</g>
<!-- Node2&#45;&gt;Node1 -->
<g id="edge22" class="edge"><title>Node2&#45;&gt;Node1</title>
<path fill="none" stroke="midnightblue" d="M195.41,-48.2677C196.15,-38.5326 195.683,-27.113 194.009,-19.5052"/>
<polygon fill="midnightblue" stroke="midnightblue" points="191.932,-47.8716 194.063,-58.25 198.869,-48.8081 191.932,-47.8716"/>
</g>
<!-- Node3 -->
<g id="node4" class="node"><title>Node3</title>
<a xlink:href="class_task.html" target="_top" xlink:title="Task">
<polygon fill="white" stroke="black" points="199,-164.5 199,-183.5 237,-183.5 237,-164.5 199,-164.5"/>
<text text-anchor="middle" x="218" y="-171.5" font-family="Helvetica,sans-Serif" font-size="10.00">Task</text>
</a>
</g>
<!-- Node3&#45;&gt;Node2 -->
<g id="edge4" class="edge"><title>Node3&#45;&gt;Node2</title>
<path fill="none" stroke="#9a32cd" stroke-dasharray="5,2" d="M216.305,-154.094C214.474,-138.227 210.848,-115.148 204,-96 201.689,-89.5372 197.939,-82.7872 194.766,-77.6529"/>
<polygon fill="#9a32cd" stroke="#9a32cd" points="212.841,-154.623 217.341,-164.215 219.804,-153.91 212.841,-154.623"/>
<text text-anchor="middle" x="233" y="-133.5" font-family="Helvetica,sans-Serif" font-size="10.00"> m_task</text>
</g>
<!-- Node4 -->
<g id="node6" class="node"><title>Node4</title>
<a xlink:href="class_error_base.html" target="_top" xlink:title="ErrorBase">
<polygon fill="white" stroke="black" points="172,-260.5 172,-279.5 232,-279.5 232,-260.5 172,-260.5"/>
<text text-anchor="middle" x="202" y="-267.5" font-family="Helvetica,sans-Serif" font-size="10.00">ErrorBase</text>
</a>
</g>
<!-- Node4&#45;&gt;Node3 -->
<g id="edge6" class="edge"><title>Node4&#45;&gt;Node3</title>
<path fill="none" stroke="midnightblue" d="M205.162,-250.424C208.603,-230.206 213.958,-198.748 216.527,-183.654"/>
<polygon fill="midnightblue" stroke="midnightblue" points="201.704,-249.88 203.477,-260.325 208.605,-251.054 201.704,-249.88"/>
</g>
<!-- Node7 -->
<g id="node12" class="node"><title>Node7</title>
<a xlink:href="class_sensor_base.html" target="_top" xlink:title="SensorBase">
<polygon fill="white" stroke="black" points="120,-202.5 120,-221.5 190,-221.5 190,-202.5 120,-202.5"/>
<text text-anchor="middle" x="155" y="-209.5" font-family="Helvetica,sans-Serif" font-size="10.00">SensorBase</text>
</a>
</g>
<!-- Node4&#45;&gt;Node7 -->
<g id="edge14" class="edge"><title>Node4&#45;&gt;Node7</title>
<path fill="none" stroke="midnightblue" d="M188.097,-252.435C179.569,-242.273 169.004,-229.686 162.138,-221.505"/>
<polygon fill="midnightblue" stroke="midnightblue" points="185.547,-254.84 194.656,-260.25 190.908,-250.34 185.547,-254.84"/>
</g>
<!-- Node5 -->
<g id="node8" class="node"><title>Node5</title>
<a xlink:href="class_error.html" target="_top" xlink:title="Error">
<polygon fill="white" stroke="black" points="183,-338.5 183,-357.5 221,-357.5 221,-338.5 183,-338.5"/>
<text text-anchor="middle" x="202" y="-345.5" font-family="Helvetica,sans-Serif" font-size="10.00">Error</text>
</a>
</g>
<!-- Node5&#45;&gt;Node4 -->
<g id="edge8" class="edge"><title>Node5&#45;&gt;Node4</title>
<path fill="none" stroke="#9a32cd" stroke-dasharray="5,2" d="M202,-328.224C202,-312.697 202,-291.358 202,-279.616"/>
<polygon fill="#9a32cd" stroke="#9a32cd" points="198.5,-328.282 202,-338.282 205.5,-328.282 198.5,-328.282"/>
<text text-anchor="middle" x="229.5" y="-312" font-family="Helvetica,sans-Serif" font-size="10.00"> _globalError</text>
<text text-anchor="middle" x="229.5" y="-301" font-family="Helvetica,sans-Serif" font-size="10.00">m_error</text>
</g>
<!-- Node6 -->
<g id="node10" class="node"><title>Node6</title>
<a xlink:href="class_driver_station.html" target="_top" xlink:title="DriverStation">
<polygon fill="white" stroke="black" points="110.5,-126.5 110.5,-145.5 181.5,-145.5 181.5,-126.5 110.5,-126.5"/>
<text text-anchor="middle" x="146" y="-133.5" font-family="Helvetica,sans-Serif" font-size="10.00">DriverStation</text>
</a>
</g>
<!-- Node6&#45;&gt;Node2 -->
<g id="edge10" class="edge"><title>Node6&#45;&gt;Node2</title>
<path fill="none" stroke="#9a32cd" stroke-dasharray="5,2" d="M157.116,-117.938C165.473,-105.112 176.583,-88.0591 183.24,-77.8411"/>
<polygon fill="#9a32cd" stroke="#9a32cd" points="154.148,-116.082 151.621,-126.372 160.013,-119.904 154.148,-116.082"/>
<text text-anchor="middle" x="186" y="-99.5" font-family="Helvetica,sans-Serif" font-size="10.00"> m_ds</text>
</g>
<!-- Node7&#45;&gt;Node6 -->
<g id="edge12" class="edge"><title>Node7&#45;&gt;Node6</title>
<path fill="none" stroke="midnightblue" d="M146.816,-192.509C143.564,-177.575 141.55,-157.222 142.514,-145.768"/>
<polygon fill="midnightblue" stroke="midnightblue" points="143.443,-193.444 149.378,-202.221 150.211,-191.659 143.443,-193.444"/>
</g>
<!-- Node7&#45;&gt;Node6 -->
<g id="edge18" class="edge"><title>Node7&#45;&gt;Node6</title>
<path fill="none" stroke="midnightblue" d="M158.674,-192.072C158.248,-177.18 155.333,-157.111 151.619,-145.768"/>
<polygon fill="midnightblue" stroke="midnightblue" points="155.172,-192.158 158.487,-202.221 162.171,-192.287 155.172,-192.158"/>
</g>
<!-- Node8 -->
<g id="node15" class="node"><title>Node8</title>
<a xlink:href="class_robot_state_interface.html" target="_top" xlink:title="RobotStateInterface">
<polygon fill="white" stroke="black" points="0,-202.5 0,-221.5 102,-221.5 102,-202.5 0,-202.5"/>
<text text-anchor="middle" x="51" y="-209.5" font-family="Helvetica,sans-Serif" font-size="10.00">RobotStateInterface</text>
</a>
</g>
<!-- Node8&#45;&gt;Node6 -->
<g id="edge16" class="edge"><title>Node8&#45;&gt;Node6</title>
<path fill="none" stroke="midnightblue" d="M65.3625,-195.434C83.0434,-180.248 112.35,-157.71 130.532,-145.54"/>
<polygon fill="midnightblue" stroke="midnightblue" points="62.8719,-192.965 57.7163,-202.221 67.5186,-198.2 62.8719,-192.965"/>
</g>
<!-- Node8&#45;&gt;Node6 -->
<g id="edge20" class="edge"><title>Node8&#45;&gt;Node6</title>
<path fill="none" stroke="midnightblue" d="M75.1153,-196.491C96.4334,-181.405 125.81,-158.279 139.296,-145.768"/>
<polygon fill="midnightblue" stroke="midnightblue" points="73.062,-193.656 66.8253,-202.221 77.0418,-199.414 73.062,-193.656"/>
</g>
</g>
</svg>
