<?xml version="1.0" encoding="UTF-8" standalone="no"?>
<!DOCTYPE svg PUBLIC "-//W3C//DTD SVG 1.1//EN"
 "http://www.w3.org/Graphics/SVG/1.1/DTD/svg11.dtd">
<!-- Generated by graphviz version 2.28.0 (20110507.0327)
 -->
<!-- Title: RobotDrive::Limit Pages: 1 -->
<svg width="440pt" height="180pt"
 viewBox="0.00 0.00 440.00 180.00" xmlns="http://www.w3.org/2000/svg" xmlns:xlink="http://www.w3.org/1999/xlink">
<g id="graph1" class="graph" transform="scale(1 1) rotate(0) translate(4 176)">
<title>RobotDrive::Limit</title>
<polygon fill="white" stroke="white" points="-4,5 -4,-176 437,-176 437,5 -4,5"/>
<!-- Node1 -->
<g id="node1" class="node"><title>Node1</title>
<polygon fill="#bfbfbf" stroke="black" points="0,-92.5 0,-111.5 90,-111.5 90,-92.5 0,-92.5"/>
<text text-anchor="middle" x="45" y="-99.5" font-family="Helvetica,sans-Serif" font-size="10.00">RobotDrive::Limit</text>
</g>
<!-- Node2 -->
<g id="node3" class="node"><title>Node2</title>
<a xlink:href="class_robot_drive.html#a3df206fa45bf88254e7cd75adca4e973" target="_top" xlink:title="RobotDrive::TankDrive">
<polygon fill="white" stroke="black" points="308.5,-152.5 308.5,-171.5 419.5,-171.5 419.5,-152.5 308.5,-152.5"/>
<text text-anchor="middle" x="364" y="-159.5" font-family="Helvetica,sans-Serif" font-size="10.00">RobotDrive::TankDrive</text>
</a>
</g>
<!-- Node1&#45;&gt;Node2 -->
<g id="edge2" class="edge"><title>Node1&#45;&gt;Node2</title>
<path fill="none" stroke="midnightblue" d="M82.6305,-114.768C96.1361,-119.124 111.644,-123.718 126,-127 187.833,-141.136 260.1,-150.85 308.428,-156.395"/>
<polygon fill="midnightblue" stroke="midnightblue" points="83.3384,-111.316 72.7453,-111.509 81.1467,-117.964 83.3384,-111.316"/>
</g>
<!-- Node3 -->
<g id="node5" class="node"><title>Node3</title>
<a xlink:href="class_robot_drive.html#ac95118d7b535c4f3fb3d56ba5b041e40" target="_top" xlink:title="RobotDrive::ArcadeDrive">
<polygon fill="white" stroke="black" points="303.5,-114.5 303.5,-133.5 424.5,-133.5 424.5,-114.5 303.5,-114.5"/>
<text text-anchor="middle" x="364" y="-121.5" font-family="Helvetica,sans-Serif" font-size="10.00">RobotDrive::ArcadeDrive</text>
</a>
</g>
<!-- Node1&#45;&gt;Node3 -->
<g id="edge4" class="edge"><title>Node1&#45;&gt;Node3</title>
<path fill="none" stroke="midnightblue" d="M100.24,-105.764C156.721,-109.684 244.947,-115.807 303.357,-119.861"/>
<polygon fill="midnightblue" stroke="midnightblue" points="100.296,-102.26 90.0775,-105.059 99.8111,-109.243 100.296,-102.26"/>
</g>
<!-- Node4 -->
<g id="node7" class="node"><title>Node4</title>
<a xlink:href="class_robot_drive.html#a3ba6d4ec2c07575543c4f47d348332f1" target="_top" xlink:title="RobotDrive::MecanumDrive\l_Polar">
<polygon fill="white" stroke="black" points="126.5,-6 126.5,-36 259.5,-36 259.5,-6 126.5,-6"/>
<text text-anchor="start" x="134.5" y="-24" font-family="Helvetica,sans-Serif" font-size="10.00">RobotDrive::MecanumDrive</text>
<text text-anchor="middle" x="193" y="-13" font-family="Helvetica,sans-Serif" font-size="10.00">_Polar</text>
</a>
</g>
<!-- Node1&#45;&gt;Node4 -->
<g id="edge6" class="edge"><title>Node1&#45;&gt;Node4</title>
<path fill="none" stroke="midnightblue" d="M70.3956,-87.1934C86.1386,-77.7566 107.128,-65.3942 126,-55 137.629,-48.5951 150.584,-41.8402 161.916,-36.0538"/>
<polygon fill="midnightblue" stroke="midnightblue" points="68.5508,-84.2186 61.7883,-92.3746 72.1609,-90.2159 68.5508,-84.2186"/>
</g>
<!-- Node6 -->
<g id="node11" class="node"><title>Node6</title>
<a xlink:href="class_robot_drive.html#a6f17b92a6867d512188b497f192f0715" target="_top" xlink:title="RobotDrive::SetLeftRight\lMotorOutputs">
<polygon fill="white" stroke="black" points="132,-65 132,-95 254,-95 254,-65 132,-65"/>
<text text-anchor="start" x="140" y="-83" font-family="Helvetica,sans-Serif" font-size="10.00">RobotDrive::SetLeftRight</text>
<text text-anchor="middle" x="193" y="-72" font-family="Helvetica,sans-Serif" font-size="10.00">MotorOutputs</text>
</a>
</g>
<!-- Node1&#45;&gt;Node6 -->
<g id="edge10" class="edge"><title>Node1&#45;&gt;Node6</title>
<path fill="none" stroke="midnightblue" d="M100.264,-93.8233C110.536,-92.2753 121.34,-90.6474 131.783,-89.0738"/>
<polygon fill="midnightblue" stroke="midnightblue" points="99.5679,-90.3885 90.201,-95.3396 100.611,-97.3104 99.5679,-90.3885"/>
</g>
<!-- Node5 -->
<g id="node9" class="node"><title>Node5</title>
<a xlink:href="class_robot_drive.html#ad21b09eed120e95f1b5741a26f2f9084" target="_top" xlink:title="RobotDrive::HolonomicDrive">
<polygon fill="white" stroke="black" points="296,-0.5 296,-19.5 432,-19.5 432,-0.5 296,-0.5"/>
<text text-anchor="middle" x="364" y="-7.5" font-family="Helvetica,sans-Serif" font-size="10.00">RobotDrive::HolonomicDrive</text>
</a>
</g>
<!-- Node4&#45;&gt;Node5 -->
<g id="edge8" class="edge"><title>Node4&#45;&gt;Node5</title>
<path fill="none" stroke="midnightblue" d="M269.934,-16.0576C278.612,-15.4927 287.413,-14.9199 295.964,-14.3633"/>
<polygon fill="midnightblue" stroke="midnightblue" points="269.575,-12.5734 259.824,-16.7156 270.03,-19.5586 269.575,-12.5734"/>
</g>
<!-- Node6&#45;&gt;Node2 -->
<g id="edge16" class="edge"><title>Node6&#45;&gt;Node2</title>
<path fill="none" stroke="midnightblue" d="M222.817,-100.804C242.622,-114.333 269.949,-131.528 296,-143 304.299,-146.655 313.486,-149.799 322.328,-152.417"/>
<polygon fill="midnightblue" stroke="midnightblue" points="224.759,-97.8921 214.547,-95.0695 220.77,-103.644 224.759,-97.8921"/>
</g>
<!-- Node6&#45;&gt;Node3 -->
<g id="edge18" class="edge"><title>Node6&#45;&gt;Node3</title>
<path fill="none" stroke="midnightblue" d="M261.415,-97.5518C283.616,-103.332 307.46,-109.54 326.464,-114.488"/>
<polygon fill="midnightblue" stroke="midnightblue" points="262.247,-94.1518 251.688,-95.0192 260.483,-100.926 262.247,-94.1518"/>
</g>
<!-- Node7 -->
<g id="node13" class="node"><title>Node7</title>
<a xlink:href="class_robot_drive.html#aae039ef574600e668f8bc03ef47f37a4" target="_top" xlink:title="RobotDrive::RobotDrive">
<polygon fill="white" stroke="black" points="306,-38.5 306,-57.5 422,-57.5 422,-38.5 306,-38.5"/>
<text text-anchor="middle" x="364" y="-45.5" font-family="Helvetica,sans-Serif" font-size="10.00">RobotDrive::RobotDrive</text>
</a>
</g>
<!-- Node6&#45;&gt;Node7 -->
<g id="edge12" class="edge"><title>Node6&#45;&gt;Node7</title>
<path fill="none" stroke="midnightblue" d="M264.081,-66.7303C280.365,-63.6468 297.386,-60.4239 312.627,-57.5381"/>
<polygon fill="midnightblue" stroke="midnightblue" points="263.233,-63.3285 254.059,-68.6279 264.536,-70.2063 263.233,-63.3285"/>
</g>
<!-- Node8 -->
<g id="node15" class="node"><title>Node8</title>
<a xlink:href="class_robot_drive.html#a00f3c6f7906685fe2f98ceaa8bb7e188" target="_top" xlink:title="RobotDrive::Drive">
<polygon fill="white" stroke="black" points="319,-76.5 319,-95.5 409,-95.5 409,-76.5 319,-76.5"/>
<text text-anchor="middle" x="364" y="-83.5" font-family="Helvetica,sans-Serif" font-size="10.00">RobotDrive::Drive</text>
</a>
</g>
<!-- Node6&#45;&gt;Node8 -->
<g id="edge14" class="edge"><title>Node6&#45;&gt;Node8</title>
<path fill="none" stroke="midnightblue" d="M264.209,-82.4926C282.694,-83.1489 302.119,-83.8386 318.806,-84.431"/>
<polygon fill="midnightblue" stroke="midnightblue" points="264.177,-78.9894 254.059,-82.1323 263.928,-85.985 264.177,-78.9894"/>
</g>
</g>
</svg>
