<?xml version="1.0" encoding="UTF-8" standalone="no"?>
<!DOCTYPE svg PUBLIC "-//W3C//DTD SVG 1.1//EN"
 "http://www.w3.org/Graphics/SVG/1.1/DTD/svg11.dtd">
<!-- Generated by graphviz version 2.28.0 (20110507.0327)
 -->
<!-- Title: DriverStation::GetInstance Pages: 1 -->
<svg width="294pt" height="77pt"
 viewBox="0.00 0.00 294.00 77.00" xmlns="http://www.w3.org/2000/svg" xmlns:xlink="http://www.w3.org/1999/xlink">
<g id="graph1" class="graph" transform="scale(1 1) rotate(0) translate(4 73)">
<title>DriverStation::GetInstance</title>
<polygon fill="white" stroke="white" points="-4,5 -4,-73 291,-73 291,5 -4,5"/>
<!-- Node1 -->
<g id="node1" class="node"><title>Node1</title>
<polygon fill="#bfbfbf" stroke="black" points="0,-22.5 0,-41.5 130,-41.5 130,-22.5 0,-22.5"/>
<text text-anchor="middle" x="65" y="-29.5" font-family="Helvetica,sans-Serif" font-size="10.00">DriverStation::GetInstance</text>
</g>
<!-- Node2 -->
<g id="node3" class="node"><title>Node2</title>
<a xlink:href="class_motor_safety_helper.html#a951390af947b507a299d1175b7e717cf" target="_top" xlink:title="MotorSafetyHelper::\lCheck">
<polygon fill="white" stroke="black" points="174.5,-39 174.5,-69 277.5,-69 277.5,-39 174.5,-39"/>
<text text-anchor="start" x="182.5" y="-57" font-family="Helvetica,sans-Serif" font-size="10.00">MotorSafetyHelper::</text>
<text text-anchor="middle" x="226" y="-46" font-family="Helvetica,sans-Serif" font-size="10.00">Check</text>
</a>
</g>
<!-- Node1&#45;&gt;Node2 -->
<g id="edge2" class="edge"><title>Node1&#45;&gt;Node2</title>
<path fill="none" stroke="midnightblue" d="M140.258,-42.2747C151.76,-43.8662 163.409,-45.4779 174.235,-46.976"/>
<polygon fill="midnightblue" stroke="midnightblue" points="140.598,-38.7885 130.213,-40.8848 139.639,-45.7225 140.598,-38.7885"/>
</g>
<!-- Node3 -->
<g id="node5" class="node"><title>Node3</title>
<a xlink:href="class_robot_base.html#a3043a0a78f4ec0e1e449eeed0a5db6e5" target="_top" xlink:title="RobotBase::RobotBase">
<polygon fill="white" stroke="black" points="166.5,-0.5 166.5,-19.5 285.5,-19.5 285.5,-0.5 166.5,-0.5"/>
<text text-anchor="middle" x="226" y="-7.5" font-family="Helvetica,sans-Serif" font-size="10.00">RobotBase::RobotBase</text>
</a>
</g>
<!-- Node1&#45;&gt;Node3 -->
<g id="edge4" class="edge"><title>Node1&#45;&gt;Node3</title>
<path fill="none" stroke="midnightblue" d="M140.125,-21.7437C148.959,-20.5215 157.881,-19.2869 166.453,-18.1008"/>
<polygon fill="midnightblue" stroke="midnightblue" points="139.639,-18.2775 130.213,-23.1152 140.598,-25.2115 139.639,-18.2775"/>
</g>
</g>
</svg>
