<?xml version="1.0" encoding="UTF-8" standalone="no"?>
<!DOCTYPE svg PUBLIC "-//W3C//DTD SVG 1.1//EN"
 "http://www.w3.org/Graphics/SVG/1.1/DTD/svg11.dtd">
<!-- Generated by graphviz version 2.28.0 (20110507.0327)
 -->
<!-- Title: SolenoidBase Pages: 1 -->
<svg width="164pt" height="196pt"
 viewBox="0.00 0.00 164.00 196.00" xmlns="http://www.w3.org/2000/svg" xmlns:xlink="http://www.w3.org/1999/xlink">
<g id="graph1" class="graph" transform="scale(1 1) rotate(0) translate(4 192)">
<title>SolenoidBase</title>
<polygon fill="white" stroke="white" points="-4,5 -4,-192 161,-192 161,5 -4,5"/>
<!-- Node1 -->
<g id="node1" class="node"><title>Node1</title>
<polygon fill="#bfbfbf" stroke="black" points="46.5,-56.5 46.5,-75.5 123.5,-75.5 123.5,-56.5 46.5,-56.5"/>
<text text-anchor="middle" x="85" y="-63.5" font-family="Helvetica,sans-Serif" font-size="10.00">SolenoidBase</text>
</g>
<!-- Node4 -->
<g id="node7" class="node"><title>Node4</title>
<a xlink:href="class_double_solenoid.html" target="_top" xlink:title="DoubleSolenoid">
<polygon fill="white" stroke="black" points="0,-0.5 0,-19.5 84,-19.5 84,-0.5 0,-0.5"/>
<text text-anchor="middle" x="42" y="-7.5" font-family="Helvetica,sans-Serif" font-size="10.00">DoubleSolenoid</text>
</a>
</g>
<!-- Node1&#45;&gt;Node4 -->
<g id="edge6" class="edge"><title>Node1&#45;&gt;Node4</title>
<path fill="none" stroke="midnightblue" d="M71.5776,-48.144C64.0858,-38.7357 55.0629,-27.4046 48.9685,-19.7511"/>
<polygon fill="midnightblue" stroke="midnightblue" points="68.9321,-50.4404 77.8994,-56.083 74.4081,-46.0799 68.9321,-50.4404"/>
</g>
<!-- Node5 -->
<g id="node9" class="node"><title>Node5</title>
<a xlink:href="class_solenoid.html" target="_top" xlink:title="Solenoid">
<polygon fill="white" stroke="black" points="102,-0.5 102,-19.5 156,-19.5 156,-0.5 102,-0.5"/>
<text text-anchor="middle" x="129" y="-7.5" font-family="Helvetica,sans-Serif" font-size="10.00">Solenoid</text>
</a>
</g>
<!-- Node1&#45;&gt;Node5 -->
<g id="edge8" class="edge"><title>Node1&#45;&gt;Node5</title>
<path fill="none" stroke="midnightblue" d="M98.7345,-48.144C106.401,-38.7357 115.633,-27.4046 121.869,-19.7511"/>
<polygon fill="midnightblue" stroke="midnightblue" points="95.8691,-46.1198 92.2657,-56.083 101.296,-50.5415 95.8691,-46.1198"/>
</g>
<!-- Node2 -->
<g id="node2" class="node"><title>Node2</title>
<a xlink:href="class_sensor_base.html" target="_top" xlink:title="SensorBase">
<polygon fill="white" stroke="black" points="50,-112.5 50,-131.5 120,-131.5 120,-112.5 50,-112.5"/>
<text text-anchor="middle" x="85" y="-119.5" font-family="Helvetica,sans-Serif" font-size="10.00">SensorBase</text>
</a>
</g>
<!-- Node2&#45;&gt;Node1 -->
<g id="edge2" class="edge"><title>Node2&#45;&gt;Node1</title>
<path fill="none" stroke="midnightblue" d="M85,-101.805C85,-92.9102 85,-82.7798 85,-75.7511"/>
<polygon fill="midnightblue" stroke="midnightblue" points="81.5001,-102.083 85,-112.083 88.5001,-102.083 81.5001,-102.083"/>
</g>
<!-- Node3 -->
<g id="node4" class="node"><title>Node3</title>
<a xlink:href="class_error_base.html" target="_top" xlink:title="ErrorBase">
<polygon fill="white" stroke="black" points="55,-168.5 55,-187.5 115,-187.5 115,-168.5 55,-168.5"/>
<text text-anchor="middle" x="85" y="-175.5" font-family="Helvetica,sans-Serif" font-size="10.00">ErrorBase</text>
</a>
</g>
<!-- Node3&#45;&gt;Node2 -->
<g id="edge4" class="edge"><title>Node3&#45;&gt;Node2</title>
<path fill="none" stroke="midnightblue" d="M85,-157.805C85,-148.91 85,-138.78 85,-131.751"/>
<polygon fill="midnightblue" stroke="midnightblue" points="81.5001,-158.083 85,-168.083 88.5001,-158.083 81.5001,-158.083"/>
</g>
</g>
</svg>
