<?xml version="1.0" encoding="UTF-8" standalone="no"?>
<!DOCTYPE svg PUBLIC "-//W3C//DTD SVG 1.1//EN"
 "http://www.w3.org/Graphics/SVG/1.1/DTD/svg11.dtd">
<!-- Generated by graphviz version 2.28.0 (20110507.0327)
 -->
<!-- Title: LiveWindow::GetInstance Pages: 1 -->
<svg width="426pt" height="268pt"
 viewBox="0.00 0.00 426.00 268.00" xmlns="http://www.w3.org/2000/svg" xmlns:xlink="http://www.w3.org/1999/xlink">
<g id="graph1" class="graph" transform="scale(1 1) rotate(0) translate(4 264)">
<title>LiveWindow::GetInstance</title>
<polygon fill="white" stroke="white" points="-4,5 -4,-264 423,-264 423,5 -4,5"/>
<!-- Node1 -->
<g id="node1" class="node"><title>Node1</title>
<polygon fill="#bfbfbf" stroke="black" points="0,-114.5 0,-133.5 126,-133.5 126,-114.5 0,-114.5"/>
<text text-anchor="middle" x="63" y="-121.5" font-family="Helvetica,sans-Serif" font-size="10.00">LiveWindow::GetInstance</text>
</g>
<!-- Node2 -->
<g id="node3" class="node"><title>Node2</title>
<a xlink:href="class_a_d_x_l345___i2_c.html#ace28299f55450a560f959cf72613489a" target="_top" xlink:title="ADXL345_I2C::ADXL345_I2C">
<polygon fill="white" stroke="black" points="168.5,-240.5 168.5,-259.5 309.5,-259.5 309.5,-240.5 168.5,-240.5"/>
<text text-anchor="middle" x="239" y="-247.5" font-family="Helvetica,sans-Serif" font-size="10.00">ADXL345_I2C::ADXL345_I2C</text>
</a>
</g>
<!-- Node1&#45;&gt;Node2 -->
<g id="edge2" class="edge"><title>Node1&#45;&gt;Node2</title>
<path fill="none" stroke="midnightblue" d="M75.6589,-142.303C91.9889,-166.401 123.977,-208.356 162,-231 168.544,-234.897 175.861,-237.998 183.301,-240.465"/>
<polygon fill="midnightblue" stroke="midnightblue" points="78.4354,-140.155 70.0061,-133.737 72.593,-144.011 78.4354,-140.155"/>
</g>
<!-- Node3 -->
<g id="node5" class="node"><title>Node3</title>
<a xlink:href="class_a_d_x_l345___s_p_i.html#afd6ce38c4905606f32ae96342b2d29ca" target="_top" xlink:title="ADXL345_SPI::ADXL345_SPI">
<polygon fill="white" stroke="black" points="167,-202.5 167,-221.5 311,-221.5 311,-202.5 167,-202.5"/>
<text text-anchor="middle" x="239" y="-209.5" font-family="Helvetica,sans-Serif" font-size="10.00">ADXL345_SPI::ADXL345_SPI</text>
</a>
</g>
<!-- Node1&#45;&gt;Node3 -->
<g id="edge4" class="edge"><title>Node1&#45;&gt;Node3</title>
<path fill="none" stroke="midnightblue" d="M82.7767,-140.041C101.653,-155.41 132.155,-178.242 162,-192 171.169,-196.227 181.387,-199.681 191.283,-202.456"/>
<polygon fill="midnightblue" stroke="midnightblue" points="84.8981,-137.253 74.9662,-133.564 80.4298,-142.642 84.8981,-137.253"/>
</g>
<!-- Node4 -->
<g id="node7" class="node"><title>Node4</title>
<a xlink:href="class_built_in_accelerometer.html#ac76efde6517e1483e5ea9597e1c605bd" target="_top" xlink:title="BuiltInAccelerometer\l::BuiltInAccelerometer">
<polygon fill="white" stroke="black" points="182.5,-153 182.5,-183 295.5,-183 295.5,-153 182.5,-153"/>
<text text-anchor="start" x="190.5" y="-171" font-family="Helvetica,sans-Serif" font-size="10.00">BuiltInAccelerometer</text>
<text text-anchor="middle" x="239" y="-160" font-family="Helvetica,sans-Serif" font-size="10.00">::BuiltInAccelerometer</text>
</a>
</g>
<!-- Node1&#45;&gt;Node4 -->
<g id="edge6" class="edge"><title>Node1&#45;&gt;Node4</title>
<path fill="none" stroke="midnightblue" d="M111.508,-136.013C133.444,-141.561 159.632,-148.183 182.474,-153.959"/>
<polygon fill="midnightblue" stroke="midnightblue" points="112.308,-132.606 101.755,-133.547 110.592,-139.392 112.308,-132.606"/>
</g>
<!-- Node5 -->
<g id="node9" class="node"><title>Node5</title>
<a xlink:href="class_gear_tooth.html#abc7cf72d7856aaf50b8eff53d461a979" target="_top" xlink:title="GearTooth::GearTooth">
<polygon fill="white" stroke="black" points="182.5,-114.5 182.5,-133.5 295.5,-133.5 295.5,-114.5 182.5,-114.5"/>
<text text-anchor="middle" x="239" y="-121.5" font-family="Helvetica,sans-Serif" font-size="10.00">GearTooth::GearTooth</text>
</a>
</g>
<!-- Node1&#45;&gt;Node5 -->
<g id="edge8" class="edge"><title>Node1&#45;&gt;Node5</title>
<path fill="none" stroke="midnightblue" d="M136.342,-124C151.754,-124 167.798,-124 182.463,-124"/>
<polygon fill="midnightblue" stroke="midnightblue" points="136.327,-120.5 126.327,-124 136.326,-127.5 136.327,-120.5"/>
</g>
<!-- Node6 -->
<g id="node11" class="node"><title>Node6</title>
<a xlink:href="class_gyro.html#ae26b1bacc0c5a4e1f9d85836fcb90736" target="_top" xlink:title="Gyro::InitGyro">
<polygon fill="white" stroke="black" points="200.5,-76.5 200.5,-95.5 277.5,-95.5 277.5,-76.5 200.5,-76.5"/>
<text text-anchor="middle" x="239" y="-83.5" font-family="Helvetica,sans-Serif" font-size="10.00">Gyro::InitGyro</text>
</a>
</g>
<!-- Node1&#45;&gt;Node6 -->
<g id="edge10" class="edge"><title>Node1&#45;&gt;Node6</title>
<path fill="none" stroke="midnightblue" d="M117.882,-112.233C144.6,-106.398 176.216,-99.4929 200.305,-94.2323"/>
<polygon fill="midnightblue" stroke="midnightblue" points="116.93,-108.858 107.908,-114.411 118.424,-115.697 116.93,-108.858"/>
</g>
<!-- Node8 -->
<g id="node15" class="node"><title>Node8</title>
<a xlink:href="class_iterative_robot.html#ab0af04a781b0390981b9f0dd75358515" target="_top" xlink:title="IterativeRobot::StartCompetition">
<polygon fill="white" stroke="black" points="162,-38.5 162,-57.5 316,-57.5 316,-38.5 162,-38.5"/>
<text text-anchor="middle" x="239" y="-45.5" font-family="Helvetica,sans-Serif" font-size="10.00">IterativeRobot::StartCompetition</text>
</a>
</g>
<!-- Node1&#45;&gt;Node8 -->
<g id="edge14" class="edge"><title>Node1&#45;&gt;Node8</title>
<path fill="none" stroke="midnightblue" d="M86.0102,-108.763C105.288,-96.025 134.451,-78.1919 162,-67 171.198,-63.2631 181.331,-60.1124 191.116,-57.5175"/>
<polygon fill="midnightblue" stroke="midnightblue" points="83.9899,-105.904 77.6404,-114.385 87.8931,-111.715 83.9899,-105.904"/>
</g>
<!-- Node9 -->
<g id="node17" class="node"><title>Node9</title>
<a xlink:href="class_sample_robot.html#aa9c849963713b505a4e032516c028829" target="_top" xlink:title="SampleRobot::StartCompetition">
<polygon fill="white" stroke="black" points="162,-0.5 162,-19.5 316,-19.5 316,-0.5 162,-0.5"/>
<text text-anchor="middle" x="239" y="-7.5" font-family="Helvetica,sans-Serif" font-size="10.00">SampleRobot::StartCompetition</text>
</a>
</g>
<!-- Node1&#45;&gt;Node9 -->
<g id="edge16" class="edge"><title>Node1&#45;&gt;Node9</title>
<path fill="none" stroke="midnightblue" d="M77.408,-106.193C94.6128,-84.6242 126.505,-48.734 162,-29 169.013,-25.1008 176.831,-21.9897 184.709,-19.5105"/>
<polygon fill="midnightblue" stroke="midnightblue" points="74.5451,-104.173 71.1621,-114.213 80.0679,-108.474 74.5451,-104.173"/>
</g>
<!-- Node7 -->
<g id="node13" class="node"><title>Node7</title>
<a xlink:href="class_gyro.html#a06521f58180be9e342d941643f9b2491" target="_top" xlink:title="Gyro::Gyro">
<polygon fill="white" stroke="black" points="352.5,-76.5 352.5,-95.5 417.5,-95.5 417.5,-76.5 352.5,-76.5"/>
<text text-anchor="middle" x="385" y="-83.5" font-family="Helvetica,sans-Serif" font-size="10.00">Gyro::Gyro</text>
</a>
</g>
<!-- Node6&#45;&gt;Node7 -->
<g id="edge12" class="edge"><title>Node6&#45;&gt;Node7</title>
<path fill="none" stroke="midnightblue" d="M287.934,-86C309.097,-86 333.395,-86 352.259,-86"/>
<polygon fill="midnightblue" stroke="midnightblue" points="287.834,-82.5001 277.834,-86 287.834,-89.5001 287.834,-82.5001"/>
</g>
</g>
</svg>
