<?xml version="1.0" encoding="UTF-8" standalone="no"?>
<!DOCTYPE svg PUBLIC "-//W3C//DTD SVG 1.1//EN"
 "http://www.w3.org/Graphics/SVG/1.1/DTD/svg11.dtd">
<!-- Generated by graphviz version 2.28.0 (20110507.0327)
 -->
<!-- Title: MonoImage Pages: 1 -->
<svg width="96pt" height="222pt"
 viewBox="0.00 0.00 96.00 222.00" xmlns="http://www.w3.org/2000/svg" xmlns:xlink="http://www.w3.org/1999/xlink">
<g id="graph1" class="graph" transform="scale(1 1) rotate(0) translate(4 218)">
<title>MonoImage</title>
<polygon fill="white" stroke="white" points="-4,5 -4,-218 93,-218 93,5 -4,5"/>
<!-- Node1 -->
<g id="node1" class="node"><title>Node1</title>
<polygon fill="#bfbfbf" stroke="black" points="-0.5,-0.5 -0.5,-19.5 66.5,-19.5 66.5,-0.5 -0.5,-0.5"/>
<text text-anchor="middle" x="33" y="-7.5" font-family="Helvetica,sans-Serif" font-size="10.00">MonoImage</text>
</g>
<!-- Node2 -->
<g id="node2" class="node"><title>Node2</title>
<a xlink:href="class_image_base.html" target="_top" xlink:title="ImageBase">
<polygon fill="white" stroke="black" points="0.5,-58.5 0.5,-77.5 65.5,-77.5 65.5,-58.5 0.5,-58.5"/>
<text text-anchor="middle" x="33" y="-65.5" font-family="Helvetica,sans-Serif" font-size="10.00">ImageBase</text>
</a>
</g>
<!-- Node2&#45;&gt;Node1 -->
<g id="edge2" class="edge"><title>Node2&#45;&gt;Node1</title>
<path fill="none" stroke="midnightblue" d="M33,-47.953C33,-38.2875 33,-27.0312 33,-19.5052"/>
<polygon fill="midnightblue" stroke="midnightblue" points="29.5001,-48.25 33,-58.25 36.5001,-48.25 29.5001,-48.25"/>
</g>
<!-- Node3 -->
<g id="node4" class="node"><title>Node3</title>
<a xlink:href="class_error_base.html" target="_top" xlink:title="ErrorBase">
<polygon fill="white" stroke="black" points="3,-116.5 3,-135.5 63,-135.5 63,-116.5 3,-116.5"/>
<text text-anchor="middle" x="33" y="-123.5" font-family="Helvetica,sans-Serif" font-size="10.00">ErrorBase</text>
</a>
</g>
<!-- Node3&#45;&gt;Node2 -->
<g id="edge4" class="edge"><title>Node3&#45;&gt;Node2</title>
<path fill="none" stroke="midnightblue" d="M33,-105.953C33,-96.2875 33,-85.0312 33,-77.5052"/>
<polygon fill="midnightblue" stroke="midnightblue" points="29.5001,-106.25 33,-116.25 36.5001,-106.25 29.5001,-106.25"/>
</g>
<!-- Node4 -->
<g id="node6" class="node"><title>Node4</title>
<a xlink:href="class_error.html" target="_top" xlink:title="Error">
<polygon fill="white" stroke="black" points="14,-194.5 14,-213.5 52,-213.5 52,-194.5 14,-194.5"/>
<text text-anchor="middle" x="33" y="-201.5" font-family="Helvetica,sans-Serif" font-size="10.00">Error</text>
</a>
</g>
<!-- Node4&#45;&gt;Node3 -->
<g id="edge6" class="edge"><title>Node4&#45;&gt;Node3</title>
<path fill="none" stroke="#9a32cd" stroke-dasharray="5,2" d="M33,-184.224C33,-168.697 33,-147.358 33,-135.616"/>
<polygon fill="#9a32cd" stroke="#9a32cd" points="29.5001,-184.282 33,-194.282 36.5001,-184.282 29.5001,-184.282"/>
<text text-anchor="middle" x="60.5" y="-168" font-family="Helvetica,sans-Serif" font-size="10.00"> _globalError</text>
<text text-anchor="middle" x="60.5" y="-157" font-family="Helvetica,sans-Serif" font-size="10.00">m_error</text>
</g>
</g>
</svg>
