<?xml version="1.0" encoding="UTF-8" standalone="no"?>
<!DOCTYPE svg PUBLIC "-//W3C//DTD SVG 1.1//EN"
 "http://www.w3.org/Graphics/SVG/1.1/DTD/svg11.dtd">
<!-- Generated by graphviz version 2.28.0 (20110507.0327)
 -->
<!-- Title: Encoder::SetMinRate Pages: 1 -->
<svg width="588pt" height="85pt"
 viewBox="0.00 0.00 588.00 85.00" xmlns="http://www.w3.org/2000/svg" xmlns:xlink="http://www.w3.org/1999/xlink">
<g id="graph1" class="graph" transform="scale(1 1) rotate(0) translate(4 81)">
<title>Encoder::SetMinRate</title>
<polygon fill="white" stroke="white" points="-4,5 -4,-81 585,-81 585,5 -4,5"/>
<!-- Node1 -->
<g id="node1" class="node"><title>Node1</title>
<polygon fill="#bfbfbf" stroke="black" points="0,-57.5 0,-76.5 110,-76.5 110,-57.5 0,-57.5"/>
<text text-anchor="middle" x="55" y="-64.5" font-family="Helvetica,sans-Serif" font-size="10.00">Encoder::SetMinRate</text>
</g>
<!-- Node2 -->
<g id="node3" class="node"><title>Node2</title>
<a xlink:href="class_error_base.html#a05790f219c9e436a09752f73f7344024" target="_top" xlink:title="Check if the current error code represents a fatal error. ">
<polygon fill="white" stroke="black" points="456,-38.5 456,-57.5 580,-57.5 580,-38.5 456,-38.5"/>
<text text-anchor="middle" x="518" y="-45.5" font-family="Helvetica,sans-Serif" font-size="10.00">ErrorBase::StatusIsFatal</text>
</a>
</g>
<!-- Node1&#45;&gt;Node2 -->
<g id="edge2" class="edge"><title>Node1&#45;&gt;Node2</title>
<path fill="none" stroke="midnightblue" d="M110.09,-68.7535C181.294,-70.4909 310.298,-71.6675 420,-62 429.149,-61.1938 438.751,-60.1052 448.21,-58.8891"/>
<polygon fill="midnightblue" stroke="midnightblue" points="448.942,-62.3224 458.39,-57.5268 448.014,-55.3843 448.942,-62.3224"/>
</g>
<!-- Node3 -->
<g id="node5" class="node"><title>Node3</title>
<a xlink:href="class_encoder.html#a53e9481bd248b04a00809a3ea69d97c1" target="_top" xlink:title="Encoder::SetMaxPeriod">
<polygon fill="white" stroke="black" points="146,-38.5 146,-57.5 266,-57.5 266,-38.5 146,-38.5"/>
<text text-anchor="middle" x="206" y="-45.5" font-family="Helvetica,sans-Serif" font-size="10.00">Encoder::SetMaxPeriod</text>
</a>
</g>
<!-- Node1&#45;&gt;Node3 -->
<g id="edge4" class="edge"><title>Node1&#45;&gt;Node3</title>
<path fill="none" stroke="midnightblue" d="M110.214,-60.0868C118.527,-59.0268 127.205,-57.9202 135.789,-56.8256"/>
<polygon fill="midnightblue" stroke="midnightblue" points="136.317,-60.2866 145.794,-55.5497 135.432,-53.3428 136.317,-60.2866"/>
</g>
<!-- Node3&#45;&gt;Node2 -->
<g id="edge6" class="edge"><title>Node3&#45;&gt;Node2</title>
<path fill="none" stroke="midnightblue" d="M266.038,-48C317.117,-48 391.116,-48 445.531,-48"/>
<polygon fill="midnightblue" stroke="midnightblue" points="445.797,-51.5001 455.797,-48 445.797,-44.5001 445.797,-51.5001"/>
</g>
<!-- Node4 -->
<g id="node8" class="node"><title>Node4</title>
<a xlink:href="class_counter.html#a8496d29a6b9424f76075396e9c729bca" target="_top" xlink:title="Counter::SetMaxPeriod">
<polygon fill="white" stroke="black" points="302,-0.5 302,-19.5 420,-19.5 420,-0.5 302,-0.5"/>
<text text-anchor="middle" x="361" y="-7.5" font-family="Helvetica,sans-Serif" font-size="10.00">Counter::SetMaxPeriod</text>
</a>
</g>
<!-- Node3&#45;&gt;Node4 -->
<g id="edge8" class="edge"><title>Node3&#45;&gt;Node4</title>
<path fill="none" stroke="midnightblue" d="M245.608,-38.411C265.707,-33.4191 290.475,-27.2676 311.819,-21.9666"/>
<polygon fill="midnightblue" stroke="midnightblue" points="312.808,-25.3274 321.669,-19.5201 311.12,-18.5338 312.808,-25.3274"/>
</g>
<!-- Node4&#45;&gt;Node2 -->
<g id="edge10" class="edge"><title>Node4&#45;&gt;Node2</title>
<path fill="none" stroke="midnightblue" d="M401.113,-19.589C421.475,-24.5809 446.566,-30.7324 468.189,-36.0334"/>
<polygon fill="midnightblue" stroke="midnightblue" points="467.622,-39.4981 478.168,-38.4799 469.289,-32.6994 467.622,-39.4981"/>
</g>
</g>
</svg>
