<?xml version="1.0" encoding="UTF-8" standalone="no"?>
<!DOCTYPE svg PUBLIC "-//W3C//DTD SVG 1.1//EN"
 "http://www.w3.org/Graphics/SVG/1.1/DTD/svg11.dtd">
<!-- Generated by graphviz version 2.28.0 (20110507.0327)
 -->
<!-- Title: Counter::Counter Pages: 1 -->
<svg width="428pt" height="66pt"
 viewBox="0.00 0.00 428.00 66.00" xmlns="http://www.w3.org/2000/svg" xmlns:xlink="http://www.w3.org/1999/xlink">
<g id="graph1" class="graph" transform="scale(1 1) rotate(0) translate(4 62)">
<title>Counter::Counter</title>
<polygon fill="white" stroke="white" points="-4,5 -4,-62 425,-62 425,5 -4,5"/>
<!-- Node1 -->
<g id="node1" class="node"><title>Node1</title>
<polygon fill="#bfbfbf" stroke="black" points="0,-19.5 0,-38.5 90,-38.5 90,-19.5 0,-19.5"/>
<text text-anchor="middle" x="45" y="-26.5" font-family="Helvetica,sans-Serif" font-size="10.00">Counter::Counter</text>
</g>
<!-- Node2 -->
<g id="node3" class="node"><title>Node2</title>
<a xlink:href="class_counter.html#a8abf01f2594d96b85ac3f76ab8f1257e" target="_top" xlink:title="Counter::SetUpSource">
<polygon fill="white" stroke="black" points="136,-38.5 136,-57.5 250,-57.5 250,-38.5 136,-38.5"/>
<text text-anchor="middle" x="193" y="-45.5" font-family="Helvetica,sans-Serif" font-size="10.00">Counter::SetUpSource</text>
</a>
</g>
<!-- Node1&#45;&gt;Node2 -->
<g id="edge2" class="edge"><title>Node1&#45;&gt;Node2</title>
<path fill="none" stroke="midnightblue" d="M90.201,-34.7522C101.413,-36.2113 113.705,-37.811 125.75,-39.3784"/>
<polygon fill="midnightblue" stroke="midnightblue" points="125.412,-42.8639 135.78,-40.6837 126.316,-35.9224 125.412,-42.8639"/>
</g>
<!-- Node4 -->
<g id="node7" class="node"><title>Node4</title>
<a xlink:href="class_counter.html#a14f57c89d5e20d5ca590877dcc6be50f" target="_top" xlink:title="Counter::ClearDownSource">
<polygon fill="white" stroke="black" points="126,-0.5 126,-19.5 260,-19.5 260,-0.5 126,-0.5"/>
<text text-anchor="middle" x="193" y="-7.5" font-family="Helvetica,sans-Serif" font-size="10.00">Counter::ClearDownSource</text>
</a>
</g>
<!-- Node1&#45;&gt;Node4 -->
<g id="edge6" class="edge"><title>Node1&#45;&gt;Node4</title>
<path fill="none" stroke="midnightblue" d="M90.201,-23.2478C98.3723,-22.1844 107.117,-21.0464 115.921,-19.9007"/>
<polygon fill="midnightblue" stroke="midnightblue" points="116.395,-23.3686 125.86,-18.6073 115.492,-16.4271 116.395,-23.3686"/>
</g>
<!-- Node3 -->
<g id="node5" class="node"><title>Node3</title>
<a xlink:href="class_error_base.html#a05790f219c9e436a09752f73f7344024" target="_top" xlink:title="Check if the current error code represents a fatal error. ">
<polygon fill="white" stroke="black" points="296,-19.5 296,-38.5 420,-38.5 420,-19.5 296,-19.5"/>
<text text-anchor="middle" x="358" y="-26.5" font-family="Helvetica,sans-Serif" font-size="10.00">ErrorBase::StatusIsFatal</text>
</a>
</g>
<!-- Node2&#45;&gt;Node3 -->
<g id="edge4" class="edge"><title>Node2&#45;&gt;Node3</title>
<path fill="none" stroke="midnightblue" d="M250.095,-41.4613C261.607,-40.1195 273.869,-38.6901 285.83,-37.2959"/>
<polygon fill="midnightblue" stroke="midnightblue" points="286.256,-40.7701 295.783,-36.1357 285.445,-33.8171 286.256,-40.7701"/>
</g>
<!-- Node4&#45;&gt;Node3 -->
<g id="edge8" class="edge"><title>Node4&#45;&gt;Node3</title>
<path fill="none" stroke="midnightblue" d="M260.298,-17.728C268.632,-18.6995 277.186,-19.6966 285.595,-20.6767"/>
<polygon fill="midnightblue" stroke="midnightblue" points="285.416,-24.1795 295.754,-21.8609 286.227,-17.2265 285.416,-24.1795"/>
</g>
</g>
</svg>
