<?xml version="1.0" encoding="UTF-8" standalone="no"?>
<!DOCTYPE svg PUBLIC "-//W3C//DTD SVG 1.1//EN"
 "http://www.w3.org/Graphics/SVG/1.1/DTD/svg11.dtd">
<!-- Generated by graphviz version 2.28.0 (20110507.0327)
 -->
<!-- Title: ADXL345_SPI::InitTable Pages: 1 -->
<svg width="760pt" height="104pt"
 viewBox="0.00 0.00 760.00 104.00" xmlns="http://www.w3.org/2000/svg" xmlns:xlink="http://www.w3.org/1999/xlink">
<g id="graph1" class="graph" transform="scale(1 1) rotate(0) translate(4 100)">
<title>ADXL345_SPI::InitTable</title>
<polygon fill="white" stroke="white" points="-4,5 -4,-100 757,-100 757,5 -4,5"/>
<!-- Node1 -->
<g id="node1" class="node"><title>Node1</title>
<polygon fill="#bfbfbf" stroke="black" points="0.5,-38.5 0.5,-57.5 119.5,-57.5 119.5,-38.5 0.5,-38.5"/>
<text text-anchor="middle" x="60" y="-45.5" font-family="Helvetica,sans-Serif" font-size="10.00">ADXL345_SPI::InitTable</text>
</g>
<!-- Node2 -->
<g id="node3" class="node"><title>Node2</title>
<a xlink:href="class_a_d_x_l345___s_p_i.html#a9cb14691ba1afa6bf3676222936d8c19" target="_top" xlink:title="ADXL345_SPI::UpdateTable">
<polygon fill="white" stroke="black" points="156.5,-38.5 156.5,-57.5 293.5,-57.5 293.5,-38.5 156.5,-38.5"/>
<text text-anchor="middle" x="225" y="-45.5" font-family="Helvetica,sans-Serif" font-size="10.00">ADXL345_SPI::UpdateTable</text>
</a>
</g>
<!-- Node1&#45;&gt;Node2 -->
<g id="edge2" class="edge"><title>Node1&#45;&gt;Node2</title>
<path fill="none" stroke="midnightblue" d="M119.847,-48C128.46,-48 137.44,-48 146.358,-48"/>
<polygon fill="midnightblue" stroke="midnightblue" points="146.378,-51.5001 156.378,-48 146.378,-44.5001 146.378,-51.5001"/>
</g>
<!-- Node3 -->
<g id="node5" class="node"><title>Node3</title>
<a xlink:href="class_a_d_x_l345___s_p_i.html#ae91bd240c7ce0715d79e12644a67bcf1" target="_top" xlink:title="ADXL345_SPI::GetX">
<polygon fill="white" stroke="black" points="331,-76.5 331,-95.5 435,-95.5 435,-76.5 331,-76.5"/>
<text text-anchor="middle" x="383" y="-83.5" font-family="Helvetica,sans-Serif" font-size="10.00">ADXL345_SPI::GetX</text>
</a>
</g>
<!-- Node2&#45;&gt;Node3 -->
<g id="edge4" class="edge"><title>Node2&#45;&gt;Node3</title>
<path fill="none" stroke="midnightblue" d="M265.365,-57.589C285.951,-62.6035 311.34,-68.7881 333.169,-74.1053"/>
<polygon fill="midnightblue" stroke="midnightblue" points="332.373,-77.5137 342.918,-76.4799 334.03,-70.7126 332.373,-77.5137"/>
</g>
<!-- Node6 -->
<g id="node11" class="node"><title>Node6</title>
<a xlink:href="class_a_d_x_l345___s_p_i.html#a1a6e48ce4713239f7cade3e9a7335c70" target="_top" xlink:title="ADXL345_SPI::GetY">
<polygon fill="white" stroke="black" points="330,-38.5 330,-57.5 436,-57.5 436,-38.5 330,-38.5"/>
<text text-anchor="middle" x="383" y="-45.5" font-family="Helvetica,sans-Serif" font-size="10.00">ADXL345_SPI::GetY</text>
</a>
</g>
<!-- Node2&#45;&gt;Node6 -->
<g id="edge10" class="edge"><title>Node2&#45;&gt;Node6</title>
<path fill="none" stroke="midnightblue" d="M293.517,-48C302.276,-48 311.215,-48 319.881,-48"/>
<polygon fill="midnightblue" stroke="midnightblue" points="319.902,-51.5001 329.902,-48 319.902,-44.5001 319.902,-51.5001"/>
</g>
<!-- Node7 -->
<g id="node14" class="node"><title>Node7</title>
<a xlink:href="class_a_d_x_l345___s_p_i.html#a54306b7ba6ea3227444ed8705cf0b9bf" target="_top" xlink:title="ADXL345_SPI::GetZ">
<polygon fill="white" stroke="black" points="331,-0.5 331,-19.5 435,-19.5 435,-0.5 331,-0.5"/>
<text text-anchor="middle" x="383" y="-7.5" font-family="Helvetica,sans-Serif" font-size="10.00">ADXL345_SPI::GetZ</text>
</a>
</g>
<!-- Node2&#45;&gt;Node7 -->
<g id="edge14" class="edge"><title>Node2&#45;&gt;Node7</title>
<path fill="none" stroke="midnightblue" d="M265.365,-38.411C285.951,-33.3965 311.34,-27.2119 333.169,-21.8947"/>
<polygon fill="midnightblue" stroke="midnightblue" points="334.03,-25.2874 342.918,-19.5201 332.373,-18.4863 334.03,-25.2874"/>
</g>
<!-- Node4 -->
<g id="node7" class="node"><title>Node4</title>
<a xlink:href="class_a_d_x_l345___s_p_i.html#acae8aee7785e91d4efe1e695478ca727" target="_top" xlink:title="ADXL345_SPI::GetAcceleration">
<polygon fill="white" stroke="black" points="472.5,-38.5 472.5,-57.5 625.5,-57.5 625.5,-38.5 472.5,-38.5"/>
<text text-anchor="middle" x="549" y="-45.5" font-family="Helvetica,sans-Serif" font-size="10.00">ADXL345_SPI::GetAcceleration</text>
</a>
</g>
<!-- Node3&#45;&gt;Node4 -->
<g id="edge6" class="edge"><title>Node3&#45;&gt;Node4</title>
<path fill="none" stroke="midnightblue" d="M425.384,-76.411C447.123,-71.3739 473.957,-65.1562 496.975,-59.8229"/>
<polygon fill="midnightblue" stroke="midnightblue" points="497.962,-63.1871 506.913,-57.5201 496.381,-56.3677 497.962,-63.1871"/>
</g>
<!-- Node5 -->
<g id="node9" class="node"><title>Node5</title>
<a xlink:href="class_s_p_i.html#a57e9c8cac374878879b32f43667e1e09" target="_top" xlink:title="SPI::Transaction">
<polygon fill="white" stroke="black" points="662.5,-38.5 662.5,-57.5 751.5,-57.5 751.5,-38.5 662.5,-38.5"/>
<text text-anchor="middle" x="707" y="-45.5" font-family="Helvetica,sans-Serif" font-size="10.00">SPI::Transaction</text>
</a>
</g>
<!-- Node4&#45;&gt;Node5 -->
<g id="edge8" class="edge"><title>Node4&#45;&gt;Node5</title>
<path fill="none" stroke="midnightblue" d="M625.715,-48C634.656,-48 643.637,-48 652.187,-48"/>
<polygon fill="midnightblue" stroke="midnightblue" points="652.372,-51.5001 662.372,-48 652.372,-44.5001 652.372,-51.5001"/>
</g>
<!-- Node6&#45;&gt;Node4 -->
<g id="edge12" class="edge"><title>Node6&#45;&gt;Node4</title>
<path fill="none" stroke="midnightblue" d="M436.342,-48C444.562,-48 453.241,-48 461.982,-48"/>
<polygon fill="midnightblue" stroke="midnightblue" points="462.246,-51.5001 472.246,-48 462.246,-44.5001 462.246,-51.5001"/>
</g>
<!-- Node7&#45;&gt;Node4 -->
<g id="edge16" class="edge"><title>Node7&#45;&gt;Node4</title>
<path fill="none" stroke="midnightblue" d="M425.384,-19.589C447.123,-24.6261 473.957,-30.8438 496.975,-36.1771"/>
<polygon fill="midnightblue" stroke="midnightblue" points="496.381,-39.6323 506.913,-38.4799 497.962,-32.8129 496.381,-39.6323"/>
</g>
</g>
</svg>
