<?xml version="1.0" encoding="UTF-8" standalone="no"?>
<!DOCTYPE svg PUBLIC "-//W3C//DTD SVG 1.1//EN"
 "http://www.w3.org/Graphics/SVG/1.1/DTD/svg11.dtd">
<!-- Generated by graphviz version 2.28.0 (20110507.0327)
 -->
<!-- Title: PWM Pages: 1 -->
<svg width="382pt" height="252pt"
 viewBox="0.00 0.00 382.00 252.00" xmlns="http://www.w3.org/2000/svg" xmlns:xlink="http://www.w3.org/1999/xlink">
<g id="graph1" class="graph" transform="scale(1 1) rotate(0) translate(4 248)">
<title>PWM</title>
<polygon fill="white" stroke="white" points="-4,5 -4,-248 379,-248 379,5 -4,5"/>
<!-- Node1 -->
<g id="node1" class="node"><title>Node1</title>
<polygon fill="#bfbfbf" stroke="black" points="121.5,-112.5 121.5,-131.5 162.5,-131.5 162.5,-112.5 121.5,-112.5"/>
<text text-anchor="middle" x="142" y="-119.5" font-family="Helvetica,sans-Serif" font-size="10.00">PWM</text>
</g>
<!-- Node7 -->
<g id="node16" class="node"><title>Node7</title>
<a xlink:href="class_safe_p_w_m.html" target="_top" xlink:title="SafePWM">
<polygon fill="white" stroke="black" points="111.5,-56.5 111.5,-75.5 172.5,-75.5 172.5,-56.5 111.5,-56.5"/>
<text text-anchor="middle" x="142" y="-63.5" font-family="Helvetica,sans-Serif" font-size="10.00">SafePWM</text>
</a>
</g>
<!-- Node1&#45;&gt;Node7 -->
<g id="edge38" class="edge"><title>Node1&#45;&gt;Node7</title>
<path fill="none" stroke="midnightblue" d="M135.528,-102.101C134.896,-93.1357 135.343,-82.8579 136.869,-75.7511"/>
<polygon fill="midnightblue" stroke="midnightblue" points="132.066,-102.622 136.834,-112.083 139.007,-101.713 132.066,-102.622"/>
</g>
<!-- Node1&#45;&gt;Node7 -->
<g id="edge18" class="edge"><title>Node1&#45;&gt;Node7</title>
<path fill="none" stroke="midnightblue" d="M148.472,-102.101C149.104,-93.1357 148.657,-82.8579 147.131,-75.7511"/>
<polygon fill="midnightblue" stroke="midnightblue" points="144.993,-101.713 147.166,-112.083 151.934,-102.622 144.993,-101.713"/>
</g>
<!-- Node2 -->
<g id="node2" class="node"><title>Node2</title>
<a xlink:href="class_sensor_base.html" target="_top" xlink:title="SensorBase">
<polygon fill="white" stroke="black" points="15,-168.5 15,-187.5 85,-187.5 85,-168.5 15,-168.5"/>
<text text-anchor="middle" x="50" y="-175.5" font-family="Helvetica,sans-Serif" font-size="10.00">SensorBase</text>
</a>
</g>
<!-- Node2&#45;&gt;Node1 -->
<g id="edge2" class="edge"><title>Node2&#45;&gt;Node1</title>
<path fill="none" stroke="midnightblue" d="M68.4493,-162.622C84.0707,-152.757 106.131,-139.992 122.145,-131.655"/>
<polygon fill="midnightblue" stroke="midnightblue" points="66.1482,-159.943 59.6666,-168.324 69.9599,-165.814 66.1482,-159.943"/>
</g>
<!-- Node2&#45;&gt;Node1 -->
<g id="edge12" class="edge"><title>Node2&#45;&gt;Node1</title>
<path fill="none" stroke="midnightblue" d="M78.7714,-163.59C97.1084,-153.605 119.561,-140.267 132.365,-131.655"/>
<polygon fill="midnightblue" stroke="midnightblue" points="77.072,-160.529 69.8962,-168.324 80.3667,-166.705 77.072,-160.529"/>
</g>
<!-- Node3 -->
<g id="node4" class="node"><title>Node3</title>
<a xlink:href="class_error_base.html" target="_top" xlink:title="ErrorBase">
<polygon fill="white" stroke="black" points="20,-224.5 20,-243.5 80,-243.5 80,-224.5 20,-224.5"/>
<text text-anchor="middle" x="50" y="-231.5" font-family="Helvetica,sans-Serif" font-size="10.00">ErrorBase</text>
</a>
</g>
<!-- Node3&#45;&gt;Node2 -->
<g id="edge4" class="edge"><title>Node3&#45;&gt;Node2</title>
<path fill="none" stroke="midnightblue" d="M50,-213.805C50,-204.91 50,-194.78 50,-187.751"/>
<polygon fill="midnightblue" stroke="midnightblue" points="46.5001,-214.083 50,-224.083 53.5001,-214.083 46.5001,-214.083"/>
</g>
<!-- Node4 -->
<g id="node6" class="node"><title>Node4</title>
<polygon fill="white" stroke="#bfbfbf" points="103.5,-168.5 103.5,-187.5 180.5,-187.5 180.5,-168.5 103.5,-168.5"/>
<text text-anchor="middle" x="142" y="-175.5" font-family="Helvetica,sans-Serif" font-size="10.00">ITableListener</text>
</g>
<!-- Node4&#45;&gt;Node1 -->
<g id="edge6" class="edge"><title>Node4&#45;&gt;Node1</title>
<path fill="none" stroke="midnightblue" d="M135.528,-158.101C134.896,-149.136 135.343,-138.858 136.869,-131.751"/>
<polygon fill="midnightblue" stroke="midnightblue" points="132.066,-158.622 136.834,-168.083 139.007,-157.713 132.066,-158.622"/>
</g>
<!-- Node4&#45;&gt;Node1 -->
<g id="edge14" class="edge"><title>Node4&#45;&gt;Node1</title>
<path fill="none" stroke="midnightblue" d="M148.472,-158.101C149.104,-149.136 148.657,-138.858 147.131,-131.751"/>
<polygon fill="midnightblue" stroke="midnightblue" points="144.993,-157.713 147.166,-168.083 151.934,-158.622 144.993,-157.713"/>
</g>
<!-- Node5 -->
<g id="node8" class="node"><title>Node5</title>
<a xlink:href="class_live_window_sendable.html" target="_top" xlink:title="LiveWindowSendable">
<polygon fill="white" stroke="black" points="199,-168.5 199,-187.5 307,-187.5 307,-168.5 199,-168.5"/>
<text text-anchor="middle" x="253" y="-175.5" font-family="Helvetica,sans-Serif" font-size="10.00">LiveWindowSendable</text>
</a>
</g>
<!-- Node5&#45;&gt;Node1 -->
<g id="edge8" class="edge"><title>Node5&#45;&gt;Node1</title>
<path fill="none" stroke="midnightblue" d="M220.919,-164.232C198.723,-154.131 170.563,-140.309 154.426,-131.516"/>
<polygon fill="midnightblue" stroke="midnightblue" points="219.766,-167.551 230.323,-168.444 222.627,-161.162 219.766,-167.551"/>
</g>
<!-- Node5&#45;&gt;Node1 -->
<g id="edge16" class="edge"><title>Node5&#45;&gt;Node1</title>
<path fill="none" stroke="midnightblue" d="M231.285,-163.551C211.293,-153.157 182.136,-139.144 162.506,-130.607"/>
<polygon fill="midnightblue" stroke="midnightblue" points="229.807,-166.729 240.281,-168.324 233.087,-160.546 229.807,-166.729"/>
</g>
<!-- Node6 -->
<g id="node10" class="node"><title>Node6</title>
<a xlink:href="class_sendable.html" target="_top" xlink:title="Sendable">
<polygon fill="white" stroke="black" points="224.5,-224.5 224.5,-243.5 281.5,-243.5 281.5,-224.5 224.5,-224.5"/>
<text text-anchor="middle" x="253" y="-231.5" font-family="Helvetica,sans-Serif" font-size="10.00">Sendable</text>
</a>
</g>
<!-- Node6&#45;&gt;Node5 -->
<g id="edge10" class="edge"><title>Node6&#45;&gt;Node5</title>
<path fill="none" stroke="midnightblue" d="M253,-213.805C253,-204.91 253,-194.78 253,-187.751"/>
<polygon fill="midnightblue" stroke="midnightblue" points="249.5,-214.083 253,-224.083 256.5,-214.083 249.5,-214.083"/>
</g>
<!-- Node8 -->
<g id="node18" class="node"><title>Node8</title>
<a xlink:href="class_jaguar.html" target="_top" xlink:title="Jaguar">
<polygon fill="white" stroke="black" points="-0.5,-0.5 -0.5,-19.5 44.5,-19.5 44.5,-0.5 -0.5,-0.5"/>
<text text-anchor="middle" x="22" y="-7.5" font-family="Helvetica,sans-Serif" font-size="10.00">Jaguar</text>
</a>
</g>
<!-- Node7&#45;&gt;Node8 -->
<g id="edge22" class="edge"><title>Node7&#45;&gt;Node8</title>
<path fill="none" stroke="midnightblue" d="M108.432,-52.503C84.4589,-42.3795 53.6056,-28.388 35.8454,-19.5164"/>
<polygon fill="midnightblue" stroke="midnightblue" points="107.32,-55.8311 117.897,-56.4435 110.01,-49.3688 107.32,-55.8311"/>
</g>
<!-- Node7&#45;&gt;Node8 -->
<g id="edge20" class="edge"><title>Node7&#45;&gt;Node8</title>
<path fill="none" stroke="midnightblue" d="M118.748,-51.8888C97.2906,-41.5987 65.8942,-27.6102 44.6195,-18.9507"/>
<polygon fill="midnightblue" stroke="midnightblue" points="117.313,-55.0831 127.835,-56.324 120.383,-48.7924 117.313,-55.0831"/>
</g>
<!-- Node9 -->
<g id="node21" class="node"><title>Node9</title>
<a xlink:href="class_servo.html" target="_top" xlink:title="Servo">
<polygon fill="white" stroke="black" points="62.5,-0.5 62.5,-19.5 103.5,-19.5 103.5,-0.5 62.5,-0.5"/>
<text text-anchor="middle" x="83" y="-7.5" font-family="Helvetica,sans-Serif" font-size="10.00">Servo</text>
</a>
</g>
<!-- Node7&#45;&gt;Node9 -->
<g id="edge24" class="edge"><title>Node7&#45;&gt;Node9</title>
<path fill="none" stroke="midnightblue" d="M125.105,-49.5372C114.585,-39.9087 101.431,-27.8694 92.6519,-19.8339"/>
<polygon fill="midnightblue" stroke="midnightblue" points="122.781,-52.1542 132.521,-56.324 127.507,-46.9905 122.781,-52.1542"/>
</g>
<!-- Node10 -->
<g id="node23" class="node"><title>Node10</title>
<a xlink:href="class_talon.html" target="_top" xlink:title="Talon">
<polygon fill="white" stroke="black" points="122,-0.5 122,-19.5 162,-19.5 162,-0.5 122,-0.5"/>
<text text-anchor="middle" x="142" y="-7.5" font-family="Helvetica,sans-Serif" font-size="10.00">Talon</text>
</a>
</g>
<!-- Node7&#45;&gt;Node10 -->
<g id="edge26" class="edge"><title>Node7&#45;&gt;Node10</title>
<path fill="none" stroke="midnightblue" d="M135.528,-46.1005C134.896,-37.1357 135.343,-26.8579 136.869,-19.7511"/>
<polygon fill="midnightblue" stroke="midnightblue" points="132.066,-46.6216 136.834,-56.083 139.007,-45.7134 132.066,-46.6216"/>
</g>
<!-- Node7&#45;&gt;Node10 -->
<g id="edge28" class="edge"><title>Node7&#45;&gt;Node10</title>
<path fill="none" stroke="midnightblue" d="M148.472,-46.1005C149.104,-37.1357 148.657,-26.8579 147.131,-19.7511"/>
<polygon fill="midnightblue" stroke="midnightblue" points="144.993,-45.7134 147.166,-56.083 151.934,-46.6216 144.993,-45.7134"/>
</g>
<!-- Node11 -->
<g id="node26" class="node"><title>Node11</title>
<a xlink:href="class_talon_s_r_x.html" target="_top" xlink:title="TalonSRX">
<polygon fill="white" stroke="black" points="180.5,-0.5 180.5,-19.5 239.5,-19.5 239.5,-0.5 180.5,-0.5"/>
<text text-anchor="middle" x="210" y="-7.5" font-family="Helvetica,sans-Serif" font-size="10.00">TalonSRX</text>
</a>
</g>
<!-- Node7&#45;&gt;Node11 -->
<g id="edge30" class="edge"><title>Node7&#45;&gt;Node11</title>
<path fill="none" stroke="midnightblue" d="M160.762,-50.1008C173,-40.3824 188.559,-28.0269 198.876,-19.8339"/>
<polygon fill="midnightblue" stroke="midnightblue" points="158.58,-47.3642 152.925,-56.324 162.933,-52.846 158.58,-47.3642"/>
</g>
<!-- Node12 -->
<g id="node28" class="node"><title>Node12</title>
<a xlink:href="class_victor.html" target="_top" xlink:title="Victor">
<polygon fill="white" stroke="black" points="258,-0.5 258,-19.5 300,-19.5 300,-0.5 258,-0.5"/>
<text text-anchor="middle" x="279" y="-7.5" font-family="Helvetica,sans-Serif" font-size="10.00">Victor</text>
</a>
</g>
<!-- Node7&#45;&gt;Node12 -->
<g id="edge32" class="edge"><title>Node7&#45;&gt;Node12</title>
<path fill="none" stroke="midnightblue" d="M167.924,-52.4966C194.075,-41.5605 233.671,-26.114 257.977,-17.4826"/>
<polygon fill="midnightblue" stroke="midnightblue" points="166.458,-49.3163 158.619,-56.4435 169.192,-55.7605 166.458,-49.3163"/>
</g>
<!-- Node7&#45;&gt;Node12 -->
<g id="edge34" class="edge"><title>Node7&#45;&gt;Node12</title>
<path fill="none" stroke="midnightblue" d="M178.42,-52.9058C205.72,-42.7536 241.646,-28.5063 262.473,-19.5164"/>
<polygon fill="midnightblue" stroke="midnightblue" points="176.975,-49.708 168.797,-56.4435 179.39,-56.2781 176.975,-49.708"/>
</g>
<!-- Node13 -->
<g id="node31" class="node"><title>Node13</title>
<a xlink:href="class_victor_s_p.html" target="_top" xlink:title="VictorSP">
<polygon fill="white" stroke="black" points="318,-0.5 318,-19.5 374,-19.5 374,-0.5 318,-0.5"/>
<text text-anchor="middle" x="346" y="-7.5" font-family="Helvetica,sans-Serif" font-size="10.00">VictorSP</text>
</a>
</g>
<!-- Node7&#45;&gt;Node13 -->
<g id="edge36" class="edge"><title>Node7&#45;&gt;Node13</title>
<path fill="none" stroke="midnightblue" d="M182.257,-54.3437C222.31,-43.7416 282.726,-27.7491 317.881,-18.4434"/>
<polygon fill="midnightblue" stroke="midnightblue" points="181.312,-50.9732 172.541,-56.9157 183.104,-57.7401 181.312,-50.9732"/>
</g>
</g>
</svg>
