<?xml version="1.0" encoding="UTF-8" standalone="no"?>
<!DOCTYPE svg PUBLIC "-//W3C//DTD SVG 1.1//EN"
 "http://www.w3.org/Graphics/SVG/1.1/DTD/svg11.dtd">
<!-- Generated by graphviz version 2.28.0 (20110507.0327)
 -->
<!-- Title: testing::internal::OsStackTraceGetterInterface Pages: 1 -->
<svg width="150pt" height="108pt"
 viewBox="0.00 0.00 150.00 108.00" xmlns="http://www.w3.org/2000/svg" xmlns:xlink="http://www.w3.org/1999/xlink">
<g id="graph1" class="graph" transform="scale(1 1) rotate(0) translate(4 104)">
<title>testing::internal::OsStackTraceGetterInterface</title>
<polygon fill="white" stroke="white" points="-4,5 -4,-104 147,-104 147,5 -4,5"/>
<!-- Node1 -->
<g id="node1" class="node"><title>Node1</title>
<polygon fill="#bfbfbf" stroke="black" points="-0.5,-69 -0.5,-99 142.5,-99 142.5,-69 -0.5,-69"/>
<text text-anchor="start" x="7.5" y="-87" font-family="Helvetica,sans-Serif" font-size="10.00">testing::internal::</text>
<text text-anchor="middle" x="71" y="-76" font-family="Helvetica,sans-Serif" font-size="10.00">OsStackTraceGetterInterface</text>
</g>
<!-- Node2 -->
<g id="node3" class="node"><title>Node2</title>
<a xlink:href="classtesting_1_1internal_1_1_os_stack_trace_getter.html" target="_top" xlink:title="testing::internal::\lOsStackTraceGetter">
<polygon fill="white" stroke="black" points="18,-1 18,-31 124,-31 124,-1 18,-1"/>
<text text-anchor="start" x="26" y="-19" font-family="Helvetica,sans-Serif" font-size="10.00">testing::internal::</text>
<text text-anchor="middle" x="71" y="-8" font-family="Helvetica,sans-Serif" font-size="10.00">OsStackTraceGetter</text>
</a>
</g>
<!-- Node1&#45;&gt;Node2 -->
<g id="edge2" class="edge"><title>Node1&#45;&gt;Node2</title>
<path fill="none" stroke="midnightblue" d="M71,-58.5322C71,-49.3606 71,-39.2449 71,-31.2931"/>
<polygon fill="midnightblue" stroke="midnightblue" points="67.5001,-58.6789 71,-68.679 74.5001,-58.679 67.5001,-58.6789"/>
</g>
</g>
</svg>
