<?xml version="1.0" encoding="UTF-8" standalone="no"?>
<!DOCTYPE svg PUBLIC "-//W3C//DTD SVG 1.1//EN"
 "http://www.w3.org/Graphics/SVG/1.1/DTD/svg11.dtd">
<!-- Generated by graphviz version 2.28.0 (20110507.0327)
 -->
<!-- Title: Sendable::InitTable Pages: 1 -->
<svg width="444pt" height="28pt"
 viewBox="0.00 0.00 444.00 28.00" xmlns="http://www.w3.org/2000/svg" xmlns:xlink="http://www.w3.org/1999/xlink">
<g id="graph1" class="graph" transform="scale(1 1) rotate(0) translate(4 24)">
<title>Sendable::InitTable</title>
<polygon fill="white" stroke="white" points="-4,5 -4,-24 441,-24 441,5 -4,5"/>
<!-- Node1 -->
<g id="node1" class="node"><title>Node1</title>
<polygon fill="#bfbfbf" stroke="black" points="0.5,-0.5 0.5,-19.5 99.5,-19.5 99.5,-0.5 0.5,-0.5"/>
<text text-anchor="middle" x="50" y="-7.5" font-family="Helvetica,sans-Serif" font-size="10.00">Sendable::InitTable</text>
</g>
<!-- Node2 -->
<g id="node3" class="node"><title>Node2</title>
<a xlink:href="class_smart_dashboard.html#a8d59e5321699ba6746c80374687818d9" target="_top" xlink:title="SmartDashboard::PutData">
<polygon fill="white" stroke="black" points="136.5,-0.5 136.5,-19.5 267.5,-19.5 267.5,-0.5 136.5,-0.5"/>
<text text-anchor="middle" x="202" y="-7.5" font-family="Helvetica,sans-Serif" font-size="10.00">SmartDashboard::PutData</text>
</a>
</g>
<!-- Node1&#45;&gt;Node2 -->
<g id="edge2" class="edge"><title>Node1&#45;&gt;Node2</title>
<path fill="none" stroke="midnightblue" d="M109.792,-10C118.534,-10 127.585,-10 136.439,-10"/>
<polygon fill="midnightblue" stroke="midnightblue" points="109.701,-6.5001 99.7007,-10 109.701,-13.5001 109.701,-6.5001"/>
</g>
<!-- Node3 -->
<g id="node5" class="node"><title>Node3</title>
<a xlink:href="class_smart_dashboard.html#aeca88b06d1e56f457365f742d029c06c" target="_top" xlink:title="SmartDashboard::PutData">
<polygon fill="white" stroke="black" points="304.5,-0.5 304.5,-19.5 435.5,-19.5 435.5,-0.5 304.5,-0.5"/>
<text text-anchor="middle" x="370" y="-7.5" font-family="Helvetica,sans-Serif" font-size="10.00">SmartDashboard::PutData</text>
</a>
</g>
<!-- Node2&#45;&gt;Node3 -->
<g id="edge4" class="edge"><title>Node2&#45;&gt;Node3</title>
<path fill="none" stroke="midnightblue" d="M277.898,-10C286.693,-10 295.609,-10 304.248,-10"/>
<polygon fill="midnightblue" stroke="midnightblue" points="277.655,-6.5001 267.655,-10 277.655,-13.5001 277.655,-6.5001"/>
</g>
</g>
</svg>
