<?xml version="1.0" encoding="UTF-8" standalone="no"?>
<!DOCTYPE svg PUBLIC "-//W3C//DTD SVG 1.1//EN"
 "http://www.w3.org/Graphics/SVG/1.1/DTD/svg11.dtd">
<!-- Generated by graphviz version 2.28.0 (20110507.0327)
 -->
<!-- Title: Timer::Timer Pages: 1 -->
<svg width="478pt" height="28pt"
 viewBox="0.00 0.00 478.00 28.00" xmlns="http://www.w3.org/2000/svg" xmlns:xlink="http://www.w3.org/1999/xlink">
<g id="graph1" class="graph" transform="scale(1 1) rotate(0) translate(4 24)">
<title>Timer::Timer</title>
<polygon fill="white" stroke="white" points="-4,5 -4,-24 475,-24 475,5 -4,5"/>
<!-- Node1 -->
<g id="node1" class="node"><title>Node1</title>
<polygon fill="#bfbfbf" stroke="black" points="0.5,-0.5 0.5,-19.5 71.5,-19.5 71.5,-0.5 0.5,-0.5"/>
<text text-anchor="middle" x="36" y="-7.5" font-family="Helvetica,sans-Serif" font-size="10.00">Timer::Timer</text>
</g>
<!-- Node2 -->
<g id="node3" class="node"><title>Node2</title>
<a xlink:href="class_timer.html#ae7c0c1e7d12de4b8a6e7c64e451cdd2a" target="_top" xlink:title="Timer::Reset">
<polygon fill="white" stroke="black" points="108,-0.5 108,-19.5 180,-19.5 180,-0.5 108,-0.5"/>
<text text-anchor="middle" x="144" y="-7.5" font-family="Helvetica,sans-Serif" font-size="10.00">Timer::Reset</text>
</a>
</g>
<!-- Node1&#45;&gt;Node2 -->
<g id="edge2" class="edge"><title>Node1&#45;&gt;Node2</title>
<path fill="none" stroke="midnightblue" d="M71.7084,-10C80.0407,-10 89.0605,-10 97.7919,-10"/>
<polygon fill="midnightblue" stroke="midnightblue" points="97.8508,-13.5001 107.851,-10 97.8507,-6.5001 97.8508,-13.5001"/>
</g>
<!-- Node3 -->
<g id="node5" class="node"><title>Node3</title>
<a xlink:href="class_timer.html#a7fa6e6dffec055e5104ccd6bcadec9aa" target="_top" xlink:title="Timer::GetFPGATimestamp">
<polygon fill="white" stroke="black" points="216.5,-0.5 216.5,-19.5 353.5,-19.5 353.5,-0.5 216.5,-0.5"/>
<text text-anchor="middle" x="285" y="-7.5" font-family="Helvetica,sans-Serif" font-size="10.00">Timer::GetFPGATimestamp</text>
</a>
</g>
<!-- Node2&#45;&gt;Node3 -->
<g id="edge4" class="edge"><title>Node2&#45;&gt;Node3</title>
<path fill="none" stroke="midnightblue" d="M180.076,-10C188.226,-10 197.222,-10 206.409,-10"/>
<polygon fill="midnightblue" stroke="midnightblue" points="206.421,-13.5001 216.421,-10 206.421,-6.5001 206.421,-13.5001"/>
</g>
<!-- Node4 -->
<g id="node7" class="node"><title>Node4</title>
<a xlink:href="_utility_8h.html#ababf055d95368485d48bd9a0231853f3" target="_top" xlink:title="GetFPGATime">
<polygon fill="white" stroke="black" points="390,-0.5 390,-19.5 470,-19.5 470,-0.5 390,-0.5"/>
<text text-anchor="middle" x="430" y="-7.5" font-family="Helvetica,sans-Serif" font-size="10.00">GetFPGATime</text>
</a>
</g>
<!-- Node3&#45;&gt;Node4 -->
<g id="edge6" class="edge"><title>Node3&#45;&gt;Node4</title>
<path fill="none" stroke="midnightblue" d="M353.731,-10C362.558,-10 371.463,-10 379.904,-10"/>
<polygon fill="midnightblue" stroke="midnightblue" points="379.934,-13.5001 389.933,-10 379.933,-6.5001 379.934,-13.5001"/>
</g>
</g>
</svg>
