<?xml version="1.0" encoding="UTF-8" standalone="no"?>
<!DOCTYPE svg PUBLIC "-//W3C//DTD SVG 1.1//EN"
 "http://www.w3.org/Graphics/SVG/1.1/DTD/svg11.dtd">
<!-- Generated by graphviz version 2.28.0 (20110507.0327)
 -->
<!-- Title: Counter::Reset Pages: 1 -->
<svg width="428pt" height="104pt"
 viewBox="0.00 0.00 428.00 104.00" xmlns="http://www.w3.org/2000/svg" xmlns:xlink="http://www.w3.org/1999/xlink">
<g id="graph1" class="graph" transform="scale(1 1) rotate(0) translate(4 100)">
<title>Counter::Reset</title>
<polygon fill="white" stroke="white" points="-4,5 -4,-100 425,-100 425,5 -4,5"/>
<!-- Node1 -->
<g id="node1" class="node"><title>Node1</title>
<polygon fill="#bfbfbf" stroke="black" points="0,-38.5 0,-57.5 82,-57.5 82,-38.5 0,-38.5"/>
<text text-anchor="middle" x="41" y="-45.5" font-family="Helvetica,sans-Serif" font-size="10.00">Counter::Reset</text>
</g>
<!-- Node2 -->
<g id="node3" class="node"><title>Node2</title>
<a xlink:href="class_encoder.html#a4375bf4d88d56f5f5d09860f9062d691" target="_top" xlink:title="Encoder::Reset">
<polygon fill="white" stroke="black" points="151,-76.5 151,-95.5 235,-95.5 235,-76.5 151,-76.5"/>
<text text-anchor="middle" x="193" y="-83.5" font-family="Helvetica,sans-Serif" font-size="10.00">Encoder::Reset</text>
</a>
</g>
<!-- Node1&#45;&gt;Node2 -->
<g id="edge2" class="edge"><title>Node1&#45;&gt;Node2</title>
<path fill="none" stroke="midnightblue" d="M89.811,-60.1121C110.702,-65.4044 134.847,-71.5213 154.421,-76.4799"/>
<polygon fill="midnightblue" stroke="midnightblue" points="90.4047,-56.652 79.8513,-57.589 88.6856,-63.4377 90.4047,-56.652"/>
</g>
<!-- Node3 -->
<g id="node5" class="node"><title>Node3</title>
<a xlink:href="class_ultrasonic.html#a16105fb0a316d780b8ea1554e3109825" target="_top" xlink:title="Ultrasonic::SetAutomaticMode">
<polygon fill="white" stroke="black" points="118.5,-38.5 118.5,-57.5 267.5,-57.5 267.5,-38.5 118.5,-38.5"/>
<text text-anchor="middle" x="193" y="-45.5" font-family="Helvetica,sans-Serif" font-size="10.00">Ultrasonic::SetAutomaticMode</text>
</a>
</g>
<!-- Node1&#45;&gt;Node3 -->
<g id="edge4" class="edge"><title>Node1&#45;&gt;Node3</title>
<path fill="none" stroke="midnightblue" d="M92.205,-48C100.628,-48 109.521,-48 118.389,-48"/>
<polygon fill="midnightblue" stroke="midnightblue" points="92.1973,-44.5001 82.1972,-48 92.1972,-51.5001 92.1973,-44.5001"/>
</g>
<!-- Node5 -->
<g id="node9" class="node"><title>Node5</title>
<a xlink:href="class_ultrasonic.html#aff9a83272ddaf8579ce2434e20f0b965" target="_top" xlink:title="Ultrasonic::Ping">
<polygon fill="white" stroke="black" points="150,-0.5 150,-19.5 236,-19.5 236,-0.5 150,-0.5"/>
<text text-anchor="middle" x="193" y="-7.5" font-family="Helvetica,sans-Serif" font-size="10.00">Ultrasonic::Ping</text>
</a>
</g>
<!-- Node1&#45;&gt;Node5 -->
<g id="edge8" class="edge"><title>Node1&#45;&gt;Node5</title>
<path fill="none" stroke="midnightblue" d="M89.811,-35.8879C110.702,-30.5956 134.847,-24.4787 154.421,-19.5201"/>
<polygon fill="midnightblue" stroke="midnightblue" points="88.6856,-32.5623 79.8513,-38.411 90.4047,-39.348 88.6856,-32.5623"/>
</g>
<!-- Node4 -->
<g id="node7" class="node"><title>Node4</title>
<a xlink:href="class_ultrasonic.html#ab5066b2bfeac723140c18b9f8340abad" target="_top" xlink:title="Ultrasonic::~Ultrasonic">
<polygon fill="white" stroke="black" points="304,-38.5 304,-57.5 420,-57.5 420,-38.5 304,-38.5"/>
<text text-anchor="middle" x="362" y="-45.5" font-family="Helvetica,sans-Serif" font-size="10.00">Ultrasonic::~Ultrasonic</text>
</a>
</g>
<!-- Node3&#45;&gt;Node4 -->
<g id="edge6" class="edge"><title>Node3&#45;&gt;Node4</title>
<path fill="none" stroke="midnightblue" d="M277.739,-48C286.618,-48 295.493,-48 303.962,-48"/>
<polygon fill="midnightblue" stroke="midnightblue" points="277.735,-44.5001 267.735,-48 277.735,-51.5001 277.735,-44.5001"/>
</g>
</g>
</svg>
