<?xml version="1.0" encoding="UTF-8" standalone="no"?>
<!DOCTYPE svg PUBLIC "-//W3C//DTD SVG 1.1//EN"
 "http://www.w3.org/Graphics/SVG/1.1/DTD/svg11.dtd">
<!-- Generated by graphviz version 2.28.0 (20110507.0327)
 -->
<!-- Title: PWM::StopLiveWindowMode Pages: 1 -->
<svg width="556pt" height="47pt"
 viewBox="0.00 0.00 556.00 47.00" xmlns="http://www.w3.org/2000/svg" xmlns:xlink="http://www.w3.org/1999/xlink">
<g id="graph1" class="graph" transform="scale(1 1) rotate(0) translate(4 43)">
<title>PWM::StopLiveWindowMode</title>
<polygon fill="white" stroke="white" points="-4,5 -4,-43 553,-43 553,5 -4,5"/>
<!-- Node1 -->
<g id="node1" class="node"><title>Node1</title>
<polygon fill="#bfbfbf" stroke="black" points="0.5,-19.5 0.5,-38.5 143.5,-38.5 143.5,-19.5 0.5,-19.5"/>
<text text-anchor="middle" x="72" y="-26.5" font-family="Helvetica,sans-Serif" font-size="10.00">PWM::StopLiveWindowMode</text>
</g>
<!-- Node2 -->
<g id="node3" class="node"><title>Node2</title>
<a xlink:href="class_p_w_m.html#a947e5f6073da9e4d1b60db0c7791ca9c" target="_top" xlink:title="PWM::SetSpeed">
<polygon fill="white" stroke="black" points="180,-19.5 180,-38.5 270,-38.5 270,-19.5 180,-19.5"/>
<text text-anchor="middle" x="225" y="-26.5" font-family="Helvetica,sans-Serif" font-size="10.00">PWM::SetSpeed</text>
</a>
</g>
<!-- Node1&#45;&gt;Node2 -->
<g id="edge2" class="edge"><title>Node1&#45;&gt;Node2</title>
<path fill="none" stroke="midnightblue" d="M143.637,-29C152.368,-29 161.186,-29 169.622,-29"/>
<polygon fill="midnightblue" stroke="midnightblue" points="169.69,-32.5001 179.69,-29 169.69,-25.5001 169.69,-32.5001"/>
</g>
<!-- Node3 -->
<g id="node5" class="node"><title>Node3</title>
<a xlink:href="class_error_base.html#a05790f219c9e436a09752f73f7344024" target="_top" xlink:title="Check if the current error code represents a fatal error. ">
<polygon fill="white" stroke="black" points="424,-19.5 424,-38.5 548,-38.5 548,-19.5 424,-19.5"/>
<text text-anchor="middle" x="486" y="-26.5" font-family="Helvetica,sans-Serif" font-size="10.00">ErrorBase::StatusIsFatal</text>
</a>
</g>
<!-- Node2&#45;&gt;Node3 -->
<g id="edge4" class="edge"><title>Node2&#45;&gt;Node3</title>
<path fill="none" stroke="midnightblue" d="M270.229,-29C309.585,-29 367.856,-29 413.775,-29"/>
<polygon fill="midnightblue" stroke="midnightblue" points="413.968,-32.5001 423.968,-29 413.968,-25.5001 413.968,-32.5001"/>
</g>
<!-- Node4 -->
<g id="node7" class="node"><title>Node4</title>
<a xlink:href="class_p_w_m.html#a0c546e1aa7d5d091447a819e50fae9ca" target="_top" xlink:title="PWM::SetRaw">
<polygon fill="white" stroke="black" points="306.5,-0.5 306.5,-19.5 387.5,-19.5 387.5,-0.5 306.5,-0.5"/>
<text text-anchor="middle" x="347" y="-7.5" font-family="Helvetica,sans-Serif" font-size="10.00">PWM::SetRaw</text>
</a>
</g>
<!-- Node2&#45;&gt;Node4 -->
<g id="edge6" class="edge"><title>Node2&#45;&gt;Node4</title>
<path fill="none" stroke="midnightblue" d="M270.002,-22.033C278.56,-20.678 287.586,-19.2489 296.312,-17.8672"/>
<polygon fill="midnightblue" stroke="midnightblue" points="297.043,-21.2953 306.372,-16.2744 295.948,-14.3814 297.043,-21.2953"/>
</g>
<!-- Node4&#45;&gt;Node3 -->
<g id="edge8" class="edge"><title>Node4&#45;&gt;Node3</title>
<path fill="none" stroke="midnightblue" d="M387.626,-15.4956C395.837,-16.6343 404.725,-17.867 413.677,-19.1085"/>
<polygon fill="midnightblue" stroke="midnightblue" points="413.394,-22.6026 423.78,-20.5096 414.355,-15.669 413.394,-22.6026"/>
</g>
</g>
</svg>
