<?xml version="1.0" encoding="UTF-8" standalone="no"?>
<!DOCTYPE svg PUBLIC "-//W3C//DTD SVG 1.1//EN"
 "http://www.w3.org/Graphics/SVG/1.1/DTD/svg11.dtd">
<!-- Generated by graphviz version 2.28.0 (20110507.0327)
 -->
<!-- Title: Joystick::GetRawAxis Pages: 1 -->
<svg width="636pt" height="180pt"
 viewBox="0.00 0.00 636.00 180.00" xmlns="http://www.w3.org/2000/svg" xmlns:xlink="http://www.w3.org/1999/xlink">
<g id="graph1" class="graph" transform="scale(1 1) rotate(0) translate(4 176)">
<title>Joystick::GetRawAxis</title>
<polygon fill="white" stroke="white" points="-4,5 -4,-176 633,-176 633,5 -4,5"/>
<!-- Node1 -->
<g id="node1" class="node"><title>Node1</title>
<polygon fill="#bfbfbf" stroke="black" points="0.5,-76.5 0.5,-95.5 113.5,-95.5 113.5,-76.5 0.5,-76.5"/>
<text text-anchor="middle" x="57" y="-83.5" font-family="Helvetica,sans-Serif" font-size="10.00">Joystick::GetRawAxis</text>
</g>
<!-- Node2 -->
<g id="node3" class="node"><title>Node2</title>
<a xlink:href="class_joystick.html#a684f7ef395e7cf4d1137e816554446c9" target="_top" xlink:title="Joystick::GetX">
<polygon fill="white" stroke="black" points="164,-114.5 164,-133.5 244,-133.5 244,-114.5 164,-114.5"/>
<text text-anchor="middle" x="204" y="-121.5" font-family="Helvetica,sans-Serif" font-size="10.00">Joystick::GetX</text>
</a>
</g>
<!-- Node1&#45;&gt;Node2 -->
<g id="edge2" class="edge"><title>Node1&#45;&gt;Node2</title>
<path fill="none" stroke="midnightblue" d="M104.493,-98.1843C124.624,-103.46 147.838,-109.544 166.673,-114.48"/>
<polygon fill="midnightblue" stroke="midnightblue" points="105.15,-94.7385 94.5896,-95.589 103.376,-101.51 105.15,-94.7385"/>
</g>
<!-- Node7 -->
<g id="node13" class="node"><title>Node7</title>
<a xlink:href="class_joystick.html#a6f413b0da6c62d848113409acc9cb971" target="_top" xlink:title="Joystick::GetY">
<polygon fill="white" stroke="black" points="163.5,-152.5 163.5,-171.5 244.5,-171.5 244.5,-152.5 163.5,-152.5"/>
<text text-anchor="middle" x="204" y="-159.5" font-family="Helvetica,sans-Serif" font-size="10.00">Joystick::GetY</text>
</a>
</g>
<!-- Node1&#45;&gt;Node7 -->
<g id="edge12" class="edge"><title>Node1&#45;&gt;Node7</title>
<path fill="none" stroke="midnightblue" d="M80.1844,-101.594C98.3645,-113.912 125.069,-130.974 150,-143 157.219,-146.482 165.252,-149.683 172.835,-152.426"/>
<polygon fill="midnightblue" stroke="midnightblue" points="81.7336,-98.4121 71.5089,-95.6362 77.7709,-104.182 81.7336,-98.4121"/>
</g>
<!-- Node8 -->
<g id="node18" class="node"><title>Node8</title>
<a xlink:href="class_joystick.html#a4e8c04b243729f58bf360a6584eac775" target="_top" xlink:title="Joystick::GetZ">
<polygon fill="white" stroke="black" points="164,-76.5 164,-95.5 244,-95.5 244,-76.5 164,-76.5"/>
<text text-anchor="middle" x="204" y="-83.5" font-family="Helvetica,sans-Serif" font-size="10.00">Joystick::GetZ</text>
</a>
</g>
<!-- Node1&#45;&gt;Node8 -->
<g id="edge20" class="edge"><title>Node1&#45;&gt;Node8</title>
<path fill="none" stroke="midnightblue" d="M123.992,-86C137.642,-86 151.602,-86 163.916,-86"/>
<polygon fill="midnightblue" stroke="midnightblue" points="123.646,-82.5001 113.646,-86 123.646,-89.5001 123.646,-82.5001"/>
</g>
<!-- Node9 -->
<g id="node21" class="node"><title>Node9</title>
<a xlink:href="class_joystick.html#a3b29a1a8121657bd3ba4aa95db050a5f" target="_top" xlink:title="Joystick::GetTwist">
<polygon fill="white" stroke="black" points="155.5,-38.5 155.5,-57.5 252.5,-57.5 252.5,-38.5 155.5,-38.5"/>
<text text-anchor="middle" x="204" y="-45.5" font-family="Helvetica,sans-Serif" font-size="10.00">Joystick::GetTwist</text>
</a>
</g>
<!-- Node1&#45;&gt;Node9 -->
<g id="edge24" class="edge"><title>Node1&#45;&gt;Node9</title>
<path fill="none" stroke="midnightblue" d="M104.493,-73.8157C124.624,-68.54 147.838,-62.4562 166.673,-57.5201"/>
<polygon fill="midnightblue" stroke="midnightblue" points="103.376,-70.4902 94.5896,-76.411 105.15,-77.2615 103.376,-70.4902"/>
</g>
<!-- Node10 -->
<g id="node24" class="node"><title>Node10</title>
<a xlink:href="class_joystick.html#a3330cc651d36c58bffea669ff0b77161" target="_top" xlink:title="Joystick::GetThrottle">
<polygon fill="white" stroke="black" points="150.5,-0.5 150.5,-19.5 257.5,-19.5 257.5,-0.5 150.5,-0.5"/>
<text text-anchor="middle" x="204" y="-7.5" font-family="Helvetica,sans-Serif" font-size="10.00">Joystick::GetThrottle</text>
</a>
</g>
<!-- Node1&#45;&gt;Node10 -->
<g id="edge28" class="edge"><title>Node1&#45;&gt;Node10</title>
<path fill="none" stroke="midnightblue" d="M80.1844,-70.4061C98.3645,-58.0876 125.069,-41.0264 150,-29 157.219,-25.5176 165.252,-22.3167 172.835,-19.5743"/>
<polygon fill="midnightblue" stroke="midnightblue" points="77.7709,-67.8176 71.5089,-76.3638 81.7336,-73.5879 77.7709,-67.8176"/>
</g>
<!-- Node3 -->
<g id="node5" class="node"><title>Node3</title>
<a xlink:href="class_joystick.html#a5f55e80b1399c3a04c5108488382dbc8" target="_top" xlink:title="Joystick::GetAxis">
<polygon fill="white" stroke="black" points="321,-76.5 321,-95.5 415,-95.5 415,-76.5 321,-76.5"/>
<text text-anchor="middle" x="368" y="-83.5" font-family="Helvetica,sans-Serif" font-size="10.00">Joystick::GetAxis</text>
</a>
</g>
<!-- Node2&#45;&gt;Node3 -->
<g id="edge4" class="edge"><title>Node2&#45;&gt;Node3</title>
<path fill="none" stroke="midnightblue" d="M254.18,-112.464C277.301,-107.04 304.536,-100.652 326.454,-95.5109"/>
<polygon fill="midnightblue" stroke="midnightblue" points="253.152,-109.11 244.216,-114.801 254.751,-115.925 253.152,-109.11"/>
</g>
<!-- Node4 -->
<g id="node7" class="node"><title>Node4</title>
<a xlink:href="class_joystick.html#a98ca6faf135eed78d1401f779ea862c2" target="_top" xlink:title="Joystick::GetMagnitude">
<polygon fill="white" stroke="black" points="308.5,-114.5 308.5,-133.5 427.5,-133.5 427.5,-114.5 308.5,-114.5"/>
<text text-anchor="middle" x="368" y="-121.5" font-family="Helvetica,sans-Serif" font-size="10.00">Joystick::GetMagnitude</text>
</a>
</g>
<!-- Node2&#45;&gt;Node4 -->
<g id="edge6" class="edge"><title>Node2&#45;&gt;Node4</title>
<path fill="none" stroke="midnightblue" d="M254.463,-124C271.428,-124 290.579,-124 308.21,-124"/>
<polygon fill="midnightblue" stroke="midnightblue" points="254.216,-120.5 244.216,-124 254.216,-127.5 254.216,-120.5"/>
</g>
<!-- Node5 -->
<g id="node9" class="node"><title>Node5</title>
<a xlink:href="class_joystick.html#a1ffd1a1d97440eb1a611361bdcac33fc" target="_top" xlink:title="Joystick::GetDirectionRadians">
<polygon fill="white" stroke="black" points="294,-152.5 294,-171.5 442,-171.5 442,-152.5 294,-152.5"/>
<text text-anchor="middle" x="368" y="-159.5" font-family="Helvetica,sans-Serif" font-size="10.00">Joystick::GetDirectionRadians</text>
</a>
</g>
<!-- Node2&#45;&gt;Node5 -->
<g id="edge8" class="edge"><title>Node2&#45;&gt;Node5</title>
<path fill="none" stroke="midnightblue" d="M254.18,-135.536C277.301,-140.96 304.536,-147.348 326.454,-152.489"/>
<polygon fill="midnightblue" stroke="midnightblue" points="254.751,-132.075 244.216,-133.199 253.152,-138.89 254.751,-132.075"/>
</g>
<!-- Node6 -->
<g id="node11" class="node"><title>Node6</title>
<a xlink:href="class_joystick.html#a0f49244825f4ce57aafde3830eba8e7f" target="_top" xlink:title="Joystick::GetDirectionDegrees">
<polygon fill="white" stroke="black" points="478.5,-152.5 478.5,-171.5 627.5,-171.5 627.5,-152.5 478.5,-152.5"/>
<text text-anchor="middle" x="553" y="-159.5" font-family="Helvetica,sans-Serif" font-size="10.00">Joystick::GetDirectionDegrees</text>
</a>
</g>
<!-- Node5&#45;&gt;Node6 -->
<g id="edge10" class="edge"><title>Node5&#45;&gt;Node6</title>
<path fill="none" stroke="midnightblue" d="M452.28,-162C460.994,-162 469.808,-162 478.403,-162"/>
<polygon fill="midnightblue" stroke="midnightblue" points="452.115,-158.5 442.115,-162 452.115,-165.5 452.115,-158.5"/>
</g>
<!-- Node7&#45;&gt;Node3 -->
<g id="edge14" class="edge"><title>Node7&#45;&gt;Node3</title>
<path fill="none" stroke="midnightblue" d="M248.596,-148.296C251.871,-146.691 255.046,-144.929 258,-143 277.481,-130.283 273.969,-116.832 294,-105 302.119,-100.205 311.445,-96.6038 320.657,-93.9048"/>
<polygon fill="midnightblue" stroke="midnightblue" points="246.961,-145.191 239.205,-152.408 249.769,-151.603 246.961,-145.191"/>
</g>
<!-- Node7&#45;&gt;Node4 -->
<g id="edge16" class="edge"><title>Node7&#45;&gt;Node4</title>
<path fill="none" stroke="midnightblue" d="M254.552,-150.377C277.564,-144.979 304.585,-138.64 326.371,-133.53"/>
<polygon fill="midnightblue" stroke="midnightblue" points="253.566,-147.013 244.63,-152.704 255.165,-153.828 253.566,-147.013"/>
</g>
<!-- Node7&#45;&gt;Node5 -->
<g id="edge18" class="edge"><title>Node7&#45;&gt;Node5</title>
<path fill="none" stroke="midnightblue" d="M254.738,-162C267.133,-162 280.681,-162 293.943,-162"/>
<polygon fill="midnightblue" stroke="midnightblue" points="254.63,-158.5 244.63,-162 254.63,-165.5 254.63,-158.5"/>
</g>
<!-- Node8&#45;&gt;Node3 -->
<g id="edge22" class="edge"><title>Node8&#45;&gt;Node3</title>
<path fill="none" stroke="midnightblue" d="M254.313,-86C275.509,-86 300.141,-86 320.96,-86"/>
<polygon fill="midnightblue" stroke="midnightblue" points="254.216,-82.5001 244.216,-86 254.216,-89.5001 254.216,-82.5001"/>
</g>
<!-- Node9&#45;&gt;Node3 -->
<g id="edge26" class="edge"><title>Node9&#45;&gt;Node3</title>
<path fill="none" stroke="midnightblue" d="M255.715,-59.8961C278.486,-65.2374 304.987,-71.4537 326.415,-76.4799"/>
<polygon fill="midnightblue" stroke="midnightblue" points="256.415,-56.4653 245.879,-57.589 254.816,-63.2803 256.415,-56.4653"/>
</g>
<!-- Node10&#45;&gt;Node3 -->
<g id="edge30" class="edge"><title>Node10&#45;&gt;Node3</title>
<path fill="none" stroke="midnightblue" d="M243.344,-23.0359C248.316,-24.9334 253.308,-26.9439 258,-29 291.642,-43.7428 329.282,-64.4057 350.361,-76.3784"/>
<polygon fill="midnightblue" stroke="midnightblue" points="244.482,-19.7255 233.889,-19.5442 242.057,-26.292 244.482,-19.7255"/>
</g>
</g>
</svg>
