<?xml version="1.0" encoding="UTF-8" standalone="no"?>
<!DOCTYPE svg PUBLIC "-//W3C//DTD SVG 1.1//EN"
 "http://www.w3.org/Graphics/SVG/1.1/DTD/svg11.dtd">
<!-- Generated by graphviz version 2.28.0 (20110507.0327)
 -->
<!-- Title: Encoder::GetDistance Pages: 1 -->
<svg width="520pt" height="85pt"
 viewBox="0.00 0.00 520.00 85.00" xmlns="http://www.w3.org/2000/svg" xmlns:xlink="http://www.w3.org/1999/xlink">
<g id="graph1" class="graph" transform="scale(1 1) rotate(0) translate(4 81)">
<title>Encoder::GetDistance</title>
<polygon fill="white" stroke="white" points="-4,5 -4,-81 517,-81 517,5 -4,5"/>
<!-- Node1 -->
<g id="node1" class="node"><title>Node1</title>
<polygon fill="#bfbfbf" stroke="black" points="0.5,-57.5 0.5,-76.5 113.5,-76.5 113.5,-57.5 0.5,-57.5"/>
<text text-anchor="middle" x="57" y="-64.5" font-family="Helvetica,sans-Serif" font-size="10.00">Encoder::GetDistance</text>
</g>
<!-- Node2 -->
<g id="node3" class="node"><title>Node2</title>
<a xlink:href="class_error_base.html#a05790f219c9e436a09752f73f7344024" target="_top" xlink:title="Check if the current error code represents a fatal error. ">
<polygon fill="white" stroke="black" points="388,-38.5 388,-57.5 512,-57.5 512,-38.5 388,-38.5"/>
<text text-anchor="middle" x="450" y="-45.5" font-family="Helvetica,sans-Serif" font-size="10.00">ErrorBase::StatusIsFatal</text>
</a>
</g>
<!-- Node1&#45;&gt;Node2 -->
<g id="edge2" class="edge"><title>Node1&#45;&gt;Node2</title>
<path fill="none" stroke="midnightblue" d="M113.686,-68.6235C172.92,-69.7503 269.291,-69.8645 352,-62 360.956,-61.1484 370.351,-60.0513 379.62,-58.8465"/>
<polygon fill="midnightblue" stroke="midnightblue" points="380.159,-62.3056 389.603,-57.5034 379.226,-55.3681 380.159,-62.3056"/>
</g>
<!-- Node3 -->
<g id="node5" class="node"><title>Node3</title>
<a xlink:href="class_encoder.html#a0fd1cdb3939029d070c0663a96c3ae6d" target="_top" xlink:title="Encoder::GetRaw">
<polygon fill="white" stroke="black" points="150.5,-38.5 150.5,-57.5 243.5,-57.5 243.5,-38.5 150.5,-38.5"/>
<text text-anchor="middle" x="197" y="-45.5" font-family="Helvetica,sans-Serif" font-size="10.00">Encoder::GetRaw</text>
</a>
</g>
<!-- Node1&#45;&gt;Node3 -->
<g id="edge4" class="edge"><title>Node1&#45;&gt;Node3</title>
<path fill="none" stroke="midnightblue" d="M113.732,-59.3267C122.442,-58.1275 131.445,-56.888 140.158,-55.6884"/>
<polygon fill="midnightblue" stroke="midnightblue" points="140.788,-59.1347 150.217,-54.3034 139.833,-52.2002 140.788,-59.1347"/>
</g>
<!-- Node3&#45;&gt;Node2 -->
<g id="edge6" class="edge"><title>Node3&#45;&gt;Node2</title>
<path fill="none" stroke="midnightblue" d="M243.745,-48C281.184,-48 334.792,-48 377.834,-48"/>
<polygon fill="midnightblue" stroke="midnightblue" points="377.968,-51.5001 387.968,-48 377.968,-44.5001 377.968,-51.5001"/>
</g>
<!-- Node4 -->
<g id="node8" class="node"><title>Node4</title>
<a xlink:href="class_counter.html#a72086dbd17d7baf28bacfb13562af6b6" target="_top" xlink:title="Counter::Get">
<polygon fill="white" stroke="black" points="280,-0.5 280,-19.5 352,-19.5 352,-0.5 280,-0.5"/>
<text text-anchor="middle" x="316" y="-7.5" font-family="Helvetica,sans-Serif" font-size="10.00">Counter::Get</text>
</a>
</g>
<!-- Node3&#45;&gt;Node4 -->
<g id="edge8" class="edge"><title>Node3&#45;&gt;Node4</title>
<path fill="none" stroke="midnightblue" d="M227.524,-38.411C242.212,-33.6406 260.16,-27.8112 275.968,-22.6771"/>
<polygon fill="midnightblue" stroke="midnightblue" points="277.056,-26.0039 285.485,-19.5859 274.893,-19.3462 277.056,-26.0039"/>
</g>
<!-- Node4&#45;&gt;Node2 -->
<g id="edge10" class="edge"><title>Node4&#45;&gt;Node2</title>
<path fill="none" stroke="midnightblue" d="M350.309,-19.589C367.193,-24.4494 387.895,-30.4091 405.971,-35.6127"/>
<polygon fill="midnightblue" stroke="midnightblue" points="405.123,-39.011 415.701,-38.4141 407.06,-32.2842 405.123,-39.011"/>
</g>
</g>
</svg>
