<?xml version="1.0" encoding="UTF-8" standalone="no"?>
<!DOCTYPE svg PUBLIC "-//W3C//DTD SVG 1.1//EN"
 "http://www.w3.org/Graphics/SVG/1.1/DTD/svg11.dtd">
<!-- Generated by graphviz version 2.28.0 (20110507.0327)
 -->
<!-- Title: CANJaguar::Set Pages: 1 -->
<svg width="792pt" height="1020pt"
 viewBox="0.00 0.00 792.00 1020.00" xmlns="http://www.w3.org/2000/svg" xmlns:xlink="http://www.w3.org/1999/xlink">
<g id="graph1" class="graph" transform="scale(1 1) rotate(0) translate(4 1016)">
<title>CANJaguar::Set</title>
<polygon fill="white" stroke="white" points="-4,5 -4,-1016 789,-1016 789,5 -4,5"/>
<!-- Node1 -->
<g id="node1" class="node"><title>Node1</title>
<polygon fill="#bfbfbf" stroke="black" points="0,-905.5 0,-924.5 86,-924.5 86,-905.5 0,-905.5"/>
<text text-anchor="middle" x="43" y="-912.5" font-family="Helvetica,sans-Serif" font-size="10.00">CANJaguar::Set</text>
</g>
<!-- Node2 -->
<g id="node3" class="node"><title>Node2</title>
<a xlink:href="class_motor_safety_helper.html#a3d4d90d4f7bc0d76445a55e5ea1d75e8" target="_top" xlink:title="MotorSafetyHelper::\lIsAlive">
<polygon fill="white" stroke="black" points="133.5,-982 133.5,-1012 236.5,-1012 236.5,-982 133.5,-982"/>
<text text-anchor="start" x="141.5" y="-1000" font-family="Helvetica,sans-Serif" font-size="10.00">MotorSafetyHelper::</text>
<text text-anchor="middle" x="185" y="-989" font-family="Helvetica,sans-Serif" font-size="10.00">IsAlive</text>
</a>
</g>
<!-- Node1&#45;&gt;Node2 -->
<g id="edge2" class="edge"><title>Node1&#45;&gt;Node2</title>
<path fill="none" stroke="midnightblue" d="M55.2825,-924.645C69.9325,-936.831 96.6368,-957.907 122,-972 125.652,-974.029 129.503,-975.982 133.425,-977.84"/>
<polygon fill="midnightblue" stroke="midnightblue" points="132.089,-981.077 142.644,-981.994 134.965,-974.695 132.089,-981.077"/>
</g>
<!-- Node5 -->
<g id="node9" class="node"><title>Node5</title>
<a xlink:href="class_c_a_n_jaguar.html#af25bed87c7d97429b0472b52f92b186e" target="_top" xlink:title="CANJaguar::EnableControl">
<polygon fill="white" stroke="black" points="301,-867.5 301,-886.5 433,-886.5 433,-867.5 301,-867.5"/>
<text text-anchor="middle" x="367" y="-874.5" font-family="Helvetica,sans-Serif" font-size="10.00">CANJaguar::EnableControl</text>
</a>
</g>
<!-- Node1&#45;&gt;Node5 -->
<g id="edge8" class="edge"><title>Node1&#45;&gt;Node5</title>
<path fill="none" stroke="midnightblue" d="M86.0019,-906.829C97.6321,-904.739 110.28,-902.626 122,-901 178.386,-893.179 242.45,-886.98 290.781,-882.842"/>
<polygon fill="midnightblue" stroke="midnightblue" points="291.177,-886.321 300.847,-881.991 290.587,-879.346 291.177,-886.321"/>
</g>
<!-- Node6 -->
<g id="node11" class="node"><title>Node6</title>
<a xlink:href="class_c_a_n_jaguar.html#a6b82b54cc4033c3c5218ab04fb6c8282" target="_top" xlink:title="CANJaguar::sendMessage">
<polygon fill="white" stroke="black" points="488,-579.5 488,-598.5 620,-598.5 620,-579.5 488,-579.5"/>
<text text-anchor="middle" x="554" y="-586.5" font-family="Helvetica,sans-Serif" font-size="10.00">CANJaguar::sendMessage</text>
</a>
</g>
<!-- Node1&#45;&gt;Node6 -->
<g id="edge12" class="edge"><title>Node1&#45;&gt;Node6</title>
<path fill="none" stroke="midnightblue" d="M86.0458,-918.804C178.104,-926.235 393.765,-938.478 450,-896 543.811,-825.138 553.088,-665.183 553.34,-608.982"/>
<polygon fill="midnightblue" stroke="midnightblue" points="556.839,-608.614 553.284,-598.633 549.839,-608.652 556.839,-608.614"/>
</g>
<!-- Node7 -->
<g id="node14" class="node"><title>Node7</title>
<a xlink:href="class_motor_safety_helper.html#a67b80e9817dc725e0678de5e8f0bb39e" target="_top" xlink:title="MotorSafetyHelper::Feed">
<polygon fill="white" stroke="black" points="122.5,-943.5 122.5,-962.5 247.5,-962.5 247.5,-943.5 122.5,-943.5"/>
<text text-anchor="middle" x="185" y="-950.5" font-family="Helvetica,sans-Serif" font-size="10.00">MotorSafetyHelper::Feed</text>
</a>
</g>
<!-- Node1&#45;&gt;Node7 -->
<g id="edge14" class="edge"><title>Node1&#45;&gt;Node7</title>
<path fill="none" stroke="midnightblue" d="M79.3279,-924.589C97.4006,-929.494 119.598,-935.52 138.895,-940.757"/>
<polygon fill="midnightblue" stroke="midnightblue" points="138.116,-944.172 148.683,-943.414 139.949,-937.417 138.116,-944.172"/>
</g>
<!-- Node8 -->
<g id="node17" class="node"><title>Node8</title>
<a xlink:href="class_c_a_n_jaguar.html#a97fe9cb246f90060495c808e31070650" target="_top" xlink:title="CANJaguar::verify">
<polygon fill="white" stroke="black" points="138.5,-464.5 138.5,-483.5 231.5,-483.5 231.5,-464.5 138.5,-464.5"/>
<text text-anchor="middle" x="185" y="-471.5" font-family="Helvetica,sans-Serif" font-size="10.00">CANJaguar::verify</text>
</a>
</g>
<!-- Node1&#45;&gt;Node8 -->
<g id="edge18" class="edge"><title>Node1&#45;&gt;Node8</title>
<path fill="none" stroke="midnightblue" d="M47.0543,-905.379C64.6626,-849.913 153.279,-570.771 177.738,-493.724"/>
<polygon fill="midnightblue" stroke="midnightblue" points="181.176,-494.464 180.866,-483.873 174.504,-492.346 181.176,-494.464"/>
</g>
<!-- Node3 -->
<g id="node5" class="node"><title>Node3</title>
<a xlink:href="class_timer.html#a7fa6e6dffec055e5104ccd6bcadec9aa" target="_top" xlink:title="Timer::GetFPGATimestamp">
<polygon fill="white" stroke="black" points="298.5,-965.5 298.5,-984.5 435.5,-984.5 435.5,-965.5 298.5,-965.5"/>
<text text-anchor="middle" x="367" y="-972.5" font-family="Helvetica,sans-Serif" font-size="10.00">Timer::GetFPGATimestamp</text>
</a>
</g>
<!-- Node2&#45;&gt;Node3 -->
<g id="edge4" class="edge"><title>Node2&#45;&gt;Node3</title>
<path fill="none" stroke="midnightblue" d="M236.619,-990.813C252.613,-988.858 270.674,-986.651 288.116,-984.519"/>
<polygon fill="midnightblue" stroke="midnightblue" points="288.793,-987.963 298.294,-983.275 287.944,-981.014 288.793,-987.963"/>
</g>
<!-- Node4 -->
<g id="node7" class="node"><title>Node4</title>
<a xlink:href="_utility_8h.html#ababf055d95368485d48bd9a0231853f3" target="_top" xlink:title="GetFPGATime">
<polygon fill="white" stroke="black" points="514,-965.5 514,-984.5 594,-984.5 594,-965.5 514,-965.5"/>
<text text-anchor="middle" x="554" y="-972.5" font-family="Helvetica,sans-Serif" font-size="10.00">GetFPGATime</text>
</a>
</g>
<!-- Node3&#45;&gt;Node4 -->
<g id="edge6" class="edge"><title>Node3&#45;&gt;Node4</title>
<path fill="none" stroke="midnightblue" d="M435.575,-975C458.091,-975 482.737,-975 503.61,-975"/>
<polygon fill="midnightblue" stroke="midnightblue" points="503.838,-978.5 513.838,-975 503.838,-971.5 503.838,-978.5"/>
</g>
<!-- Node5&#45;&gt;Node6 -->
<g id="edge10" class="edge"><title>Node5&#45;&gt;Node6</title>
<path fill="none" stroke="midnightblue" d="M425.798,-867.41C434.645,-863.973 443.11,-859.313 450,-853 524.045,-785.15 545.495,-657.643 551.148,-608.763"/>
<polygon fill="midnightblue" stroke="midnightblue" points="554.652,-608.906 552.221,-598.594 547.691,-608.171 554.652,-608.906"/>
</g>
<!-- Node7&#45;&gt;Node3 -->
<g id="edge16" class="edge"><title>Node7&#45;&gt;Node3</title>
<path fill="none" stroke="midnightblue" d="M247.694,-960.54C260.67,-962.126 274.519,-963.819 288.003,-965.467"/>
<polygon fill="midnightblue" stroke="midnightblue" points="287.871,-968.977 298.222,-966.716 288.721,-962.029 287.871,-968.977"/>
</g>
<!-- Node8&#45;&gt;Node5 -->
<g id="edge26" class="edge"><title>Node8&#45;&gt;Node5</title>
<path fill="none" stroke="midnightblue" d="M187.189,-483.542C194.005,-536.807 229.736,-796.988 284,-853 287.711,-856.83 291.997,-860.058 296.623,-862.777"/>
<polygon fill="midnightblue" stroke="midnightblue" points="295.367,-866.063 305.877,-867.403 298.498,-859.801 295.367,-866.063"/>
</g>
<!-- Node8&#45;&gt;Node6 -->
<g id="edge22" class="edge"><title>Node8&#45;&gt;Node6</title>
<path fill="none" stroke="midnightblue" d="M187.18,-483.631C193.7,-535.101 227.104,-776.981 284,-820 342.849,-864.496 388.114,-860.165 450,-820 524.69,-771.525 545.681,-654.907 551.18,-608.514"/>
<polygon fill="midnightblue" stroke="midnightblue" points="554.663,-608.864 552.246,-598.549 547.702,-608.12 554.663,-608.864"/>
</g>
<!-- Node9 -->
<g id="node19" class="node"><title>Node9</title>
<a xlink:href="class_c_a_n_jaguar.html#a6bf10ae6a799ca57c6bf165e36ff91d1" target="_top" xlink:title="CANJaguar::getMessage">
<polygon fill="white" stroke="black" points="658.5,-130.5 658.5,-149.5 783.5,-149.5 783.5,-130.5 658.5,-130.5"/>
<text text-anchor="middle" x="721" y="-137.5" font-family="Helvetica,sans-Serif" font-size="10.00">CANJaguar::getMessage</text>
</a>
</g>
<!-- Node8&#45;&gt;Node9 -->
<g id="edge20" class="edge"><title>Node8&#45;&gt;Node9</title>
<path fill="none" stroke="midnightblue" d="M185.795,-464.356C185.483,-422.501 190.311,-255.361 284,-181 311.819,-158.92 531.322,-147.229 647.858,-142.525"/>
<polygon fill="midnightblue" stroke="midnightblue" points="648.267,-146.011 658.12,-142.118 647.99,-139.017 648.267,-146.011"/>
</g>
<!-- Node10 -->
<g id="node22" class="node"><title>Node10</title>
<a xlink:href="class_c_a_n_jaguar.html#a1ead0b3695a9db3ce94c3b5047ed6f73" target="_top" xlink:title="CANJaguar::requestMessage">
<polygon fill="white" stroke="black" points="295.5,-0.5 295.5,-19.5 438.5,-19.5 438.5,-0.5 295.5,-0.5"/>
<text text-anchor="middle" x="367" y="-7.5" font-family="Helvetica,sans-Serif" font-size="10.00">CANJaguar::requestMessage</text>
</a>
</g>
<!-- Node8&#45;&gt;Node10 -->
<g id="edge24" class="edge"><title>Node8&#45;&gt;Node10</title>
<path fill="none" stroke="midnightblue" d="M186.752,-464.342C191.535,-405.361 219.606,-94.1009 284,-29 285.272,-27.7143 286.612,-26.5085 288.012,-25.3779"/>
<polygon fill="midnightblue" stroke="midnightblue" points="290.197,-28.1288 296.605,-19.6918 286.334,-22.291 290.197,-28.1288"/>
</g>
<!-- Node11 -->
<g id="node25" class="node"><title>Node11</title>
<a xlink:href="class_c_a_n_jaguar.html#ac6780a940570ec0386d234b309fb260d" target="_top" xlink:title="CANJaguar::SetSpeedReference">
<polygon fill="white" stroke="black" points="288,-791.5 288,-810.5 446,-810.5 446,-791.5 288,-791.5"/>
<text text-anchor="middle" x="367" y="-798.5" font-family="Helvetica,sans-Serif" font-size="10.00">CANJaguar::SetSpeedReference</text>
</a>
</g>
<!-- Node8&#45;&gt;Node11 -->
<g id="edge28" class="edge"><title>Node8&#45;&gt;Node11</title>
<path fill="none" stroke="midnightblue" d="M185.881,-483.52C185.9,-525.645 191.828,-696.953 284,-782 285.53,-783.412 287.145,-784.726 288.828,-785.948"/>
<polygon fill="midnightblue" stroke="midnightblue" points="287.389,-789.167 297.762,-791.324 290.999,-783.169 287.389,-789.167"/>
</g>
<!-- Node12 -->
<g id="node28" class="node"><title>Node12</title>
<a xlink:href="class_c_a_n_jaguar.html#a4ea009bbaaa337eeb10efba61203ee38" target="_top" xlink:title="CANJaguar::SetPositionReference">
<polygon fill="white" stroke="black" points="284.5,-753.5 284.5,-772.5 449.5,-772.5 449.5,-753.5 284.5,-753.5"/>
<text text-anchor="middle" x="367" y="-760.5" font-family="Helvetica,sans-Serif" font-size="10.00">CANJaguar::SetPositionReference</text>
</a>
</g>
<!-- Node8&#45;&gt;Node12 -->
<g id="edge32" class="edge"><title>Node8&#45;&gt;Node12</title>
<path fill="none" stroke="midnightblue" d="M186.37,-483.662C188.412,-522.794 201.522,-670.905 284,-744 285.733,-745.536 287.565,-746.954 289.478,-748.264"/>
<polygon fill="midnightblue" stroke="midnightblue" points="287.908,-751.398 298.323,-753.337 291.39,-745.325 287.908,-751.398"/>
</g>
<!-- Node13 -->
<g id="node31" class="node"><title>Node13</title>
<a xlink:href="class_c_a_n_jaguar.html#a22a1787a38fd35abc2cdf15bb7d81da5" target="_top" xlink:title="CANJaguar::SetP">
<polygon fill="white" stroke="black" points="320.5,-715.5 320.5,-734.5 413.5,-734.5 413.5,-715.5 320.5,-715.5"/>
<text text-anchor="middle" x="367" y="-722.5" font-family="Helvetica,sans-Serif" font-size="10.00">CANJaguar::SetP</text>
</a>
</g>
<!-- Node8&#45;&gt;Node13 -->
<g id="edge36" class="edge"><title>Node8&#45;&gt;Node13</title>
<path fill="none" stroke="midnightblue" d="M187.015,-483.762C191.28,-519.546 211.06,-644.638 284,-706 291.632,-712.421 301.023,-716.768 310.692,-719.692"/>
<polygon fill="midnightblue" stroke="midnightblue" points="309.845,-723.088 320.4,-722.165 311.573,-716.304 309.845,-723.088"/>
</g>
<!-- Node14 -->
<g id="node34" class="node"><title>Node14</title>
<a xlink:href="class_c_a_n_jaguar.html#a99abdf41fc6ce39d51f0c9d2fbbcfcb0" target="_top" xlink:title="CANJaguar::SetI">
<polygon fill="white" stroke="black" points="322.5,-677.5 322.5,-696.5 411.5,-696.5 411.5,-677.5 322.5,-677.5"/>
<text text-anchor="middle" x="367" y="-684.5" font-family="Helvetica,sans-Serif" font-size="10.00">CANJaguar::SetI</text>
</a>
</g>
<!-- Node8&#45;&gt;Node14 -->
<g id="edge40" class="edge"><title>Node8&#45;&gt;Node14</title>
<path fill="none" stroke="midnightblue" d="M187.918,-483.927C194.674,-516.077 220.474,-618.149 284,-668 292.276,-674.495 302.383,-678.839 312.635,-681.729"/>
<polygon fill="midnightblue" stroke="midnightblue" points="311.915,-685.155 322.455,-684.077 313.543,-678.347 311.915,-685.155"/>
</g>
<!-- Node15 -->
<g id="node37" class="node"><title>Node15</title>
<a xlink:href="class_c_a_n_jaguar.html#a5c5228b40626981bcb5009044edc28d7" target="_top" xlink:title="CANJaguar::SetD">
<polygon fill="white" stroke="black" points="320.5,-639.5 320.5,-658.5 413.5,-658.5 413.5,-639.5 320.5,-639.5"/>
<text text-anchor="middle" x="367" y="-646.5" font-family="Helvetica,sans-Serif" font-size="10.00">CANJaguar::SetD</text>
</a>
</g>
<!-- Node8&#45;&gt;Node15 -->
<g id="edge44" class="edge"><title>Node8&#45;&gt;Node15</title>
<path fill="none" stroke="midnightblue" d="M189.056,-483.527C198.392,-511.024 229.288,-591.04 284,-630 291.863,-635.599 301.128,-639.574 310.547,-642.389"/>
<polygon fill="midnightblue" stroke="midnightblue" points="309.809,-645.814 320.367,-644.924 311.559,-639.036 309.809,-645.814"/>
</g>
<!-- Node16 -->
<g id="node40" class="node"><title>Node16</title>
<a xlink:href="class_c_a_n_jaguar.html#a66762a840c7c030b74b60652bcb4004f" target="_top" xlink:title="CANJaguar::ConfigNeutralMode">
<polygon fill="white" stroke="black" points="290.5,-601.5 290.5,-620.5 443.5,-620.5 443.5,-601.5 290.5,-601.5"/>
<text text-anchor="middle" x="367" y="-608.5" font-family="Helvetica,sans-Serif" font-size="10.00">CANJaguar::ConfigNeutralMode</text>
</a>
</g>
<!-- Node8&#45;&gt;Node16 -->
<g id="edge48" class="edge"><title>Node8&#45;&gt;Node16</title>
<path fill="none" stroke="midnightblue" d="M191.175,-483.648C203.809,-506.228 238.55,-562.733 284,-591 288.137,-593.573 292.583,-595.815 297.188,-597.769"/>
<polygon fill="midnightblue" stroke="midnightblue" points="296.222,-601.145 306.814,-601.388 298.685,-594.593 296.222,-601.145"/>
</g>
<!-- Node17 -->
<g id="node43" class="node"><title>Node17</title>
<a xlink:href="class_c_a_n_jaguar.html#a24bce09f963f2f7f0c38000197551e2d" target="_top" xlink:title="CANJaguar::ConfigEncoder\lCodesPerRev">
<polygon fill="white" stroke="black" points="300,-552 300,-582 434,-582 434,-552 300,-552"/>
<text text-anchor="start" x="308" y="-570" font-family="Helvetica,sans-Serif" font-size="10.00">CANJaguar::ConfigEncoder</text>
<text text-anchor="middle" x="367" y="-559" font-family="Helvetica,sans-Serif" font-size="10.00">CodesPerRev</text>
</a>
</g>
<!-- Node8&#45;&gt;Node17 -->
<g id="edge52" class="edge"><title>Node8&#45;&gt;Node17</title>
<path fill="none" stroke="midnightblue" d="M197.33,-483.641C214.86,-498.128 250.083,-525.563 284,-542 288.652,-544.254 293.551,-546.357 298.545,-548.308"/>
<polygon fill="midnightblue" stroke="midnightblue" points="297.631,-551.702 308.224,-551.873 300.05,-545.133 297.631,-551.702"/>
</g>
<!-- Node18 -->
<g id="node46" class="node"><title>Node18</title>
<a xlink:href="class_c_a_n_jaguar.html#aefcfcbee61541f69cae47ea1ef405f17" target="_top" xlink:title="CANJaguar::ConfigPotentiometer\lTurns">
<polygon fill="white" stroke="black" points="287.5,-503 287.5,-533 446.5,-533 446.5,-503 287.5,-503"/>
<text text-anchor="start" x="295.5" y="-521" font-family="Helvetica,sans-Serif" font-size="10.00">CANJaguar::ConfigPotentiometer</text>
<text text-anchor="middle" x="367" y="-510" font-family="Helvetica,sans-Serif" font-size="10.00">Turns</text>
</a>
</g>
<!-- Node8&#45;&gt;Node18 -->
<g id="edge56" class="edge"><title>Node8&#45;&gt;Node18</title>
<path fill="none" stroke="midnightblue" d="M225.057,-483.547C245.323,-488.501 270.728,-494.711 294.366,-500.49"/>
<polygon fill="midnightblue" stroke="midnightblue" points="293.824,-503.96 304.369,-502.935 295.486,-497.16 293.824,-503.96"/>
</g>
<!-- Node19 -->
<g id="node49" class="node"><title>Node19</title>
<a xlink:href="class_c_a_n_jaguar.html#aeb878aff41701ed6d2bb0732a0beb07a" target="_top" xlink:title="CANJaguar::ConfigLimitMode">
<polygon fill="white" stroke="black" points="295.5,-464.5 295.5,-483.5 438.5,-483.5 438.5,-464.5 295.5,-464.5"/>
<text text-anchor="middle" x="367" y="-471.5" font-family="Helvetica,sans-Serif" font-size="10.00">CANJaguar::ConfigLimitMode</text>
</a>
</g>
<!-- Node8&#45;&gt;Node19 -->
<g id="edge60" class="edge"><title>Node8&#45;&gt;Node19</title>
<path fill="none" stroke="midnightblue" d="M231.887,-474C248.146,-474 266.956,-474 285.251,-474"/>
<polygon fill="midnightblue" stroke="midnightblue" points="285.343,-477.5 295.343,-474 285.343,-470.5 285.343,-477.5"/>
</g>
<!-- Node20 -->
<g id="node52" class="node"><title>Node20</title>
<a xlink:href="class_c_a_n_jaguar.html#a99204e2c841e2088d5b42dff35a8212e" target="_top" xlink:title="CANJaguar::ConfigForward\lLimit">
<polygon fill="white" stroke="black" points="300.5,-415 300.5,-445 433.5,-445 433.5,-415 300.5,-415"/>
<text text-anchor="start" x="308.5" y="-433" font-family="Helvetica,sans-Serif" font-size="10.00">CANJaguar::ConfigForward</text>
<text text-anchor="middle" x="367" y="-422" font-family="Helvetica,sans-Serif" font-size="10.00">Limit</text>
</a>
</g>
<!-- Node8&#45;&gt;Node20 -->
<g id="edge64" class="edge"><title>Node8&#45;&gt;Node20</title>
<path fill="none" stroke="midnightblue" d="M225.057,-464.453C245.323,-459.499 270.728,-453.289 294.366,-447.51"/>
<polygon fill="midnightblue" stroke="midnightblue" points="295.486,-450.84 304.369,-445.065 293.824,-444.04 295.486,-450.84"/>
</g>
<!-- Node21 -->
<g id="node55" class="node"><title>Node21</title>
<a xlink:href="class_c_a_n_jaguar.html#a67c5f0698f1faa97629bd1b31aa7880b" target="_top" xlink:title="CANJaguar::ConfigReverse\lLimit">
<polygon fill="white" stroke="black" points="300.5,-366 300.5,-396 433.5,-396 433.5,-366 300.5,-366"/>
<text text-anchor="start" x="308.5" y="-384" font-family="Helvetica,sans-Serif" font-size="10.00">CANJaguar::ConfigReverse</text>
<text text-anchor="middle" x="367" y="-373" font-family="Helvetica,sans-Serif" font-size="10.00">Limit</text>
</a>
</g>
<!-- Node8&#45;&gt;Node21 -->
<g id="edge68" class="edge"><title>Node8&#45;&gt;Node21</title>
<path fill="none" stroke="midnightblue" d="M197.33,-464.359C214.86,-449.872 250.083,-422.437 284,-406 288.652,-403.746 293.551,-401.643 298.545,-399.692"/>
<polygon fill="midnightblue" stroke="midnightblue" points="300.05,-402.867 308.224,-396.127 297.631,-396.298 300.05,-402.867"/>
</g>
<!-- Node22 -->
<g id="node58" class="node"><title>Node22</title>
<a xlink:href="class_c_a_n_jaguar.html#a44ea3760f054da59612cb0c3972c0696" target="_top" xlink:title="CANJaguar::ConfigMaxOutput\lVoltage">
<polygon fill="white" stroke="black" points="294,-317 294,-347 440,-347 440,-317 294,-317"/>
<text text-anchor="start" x="302" y="-335" font-family="Helvetica,sans-Serif" font-size="10.00">CANJaguar::ConfigMaxOutput</text>
<text text-anchor="middle" x="367" y="-324" font-family="Helvetica,sans-Serif" font-size="10.00">Voltage</text>
</a>
</g>
<!-- Node8&#45;&gt;Node22 -->
<g id="edge72" class="edge"><title>Node8&#45;&gt;Node22</title>
<path fill="none" stroke="midnightblue" d="M191.477,-464.19C204.504,-441.759 239.59,-386.397 284,-357 287.099,-354.949 290.373,-353.06 293.759,-351.321"/>
<polygon fill="midnightblue" stroke="midnightblue" points="295.342,-354.445 302.94,-347.061 292.396,-348.095 295.342,-354.445"/>
</g>
<!-- Node23 -->
<g id="node61" class="node"><title>Node23</title>
<a xlink:href="class_c_a_n_jaguar.html#aa9b1c6a444e51e830812fd4484964388" target="_top" xlink:title="CANJaguar::SetVoltageRampRate">
<polygon fill="white" stroke="black" points="284.5,-278.5 284.5,-297.5 449.5,-297.5 449.5,-278.5 284.5,-278.5"/>
<text text-anchor="middle" x="367" y="-285.5" font-family="Helvetica,sans-Serif" font-size="10.00">CANJaguar::SetVoltageRampRate</text>
</a>
</g>
<!-- Node8&#45;&gt;Node23 -->
<g id="edge76" class="edge"><title>Node8&#45;&gt;Node23</title>
<path fill="none" stroke="midnightblue" d="M188.763,-464.316C197.488,-435.563 227.291,-350.078 284,-308 287.218,-305.612 290.684,-303.507 294.308,-301.65"/>
<polygon fill="midnightblue" stroke="midnightblue" points="295.872,-304.785 303.592,-297.528 293.032,-298.387 295.872,-304.785"/>
</g>
<!-- Node24 -->
<g id="node64" class="node"><title>Node24</title>
<a xlink:href="class_c_a_n_jaguar.html#acf67e7f7a57b6d8d657897bed2d21b98" target="_top" xlink:title="CANJaguar::ConfigFaultTime">
<polygon fill="white" stroke="black" points="296.5,-240.5 296.5,-259.5 437.5,-259.5 437.5,-240.5 296.5,-240.5"/>
<text text-anchor="middle" x="367" y="-247.5" font-family="Helvetica,sans-Serif" font-size="10.00">CANJaguar::ConfigFaultTime</text>
</a>
</g>
<!-- Node8&#45;&gt;Node24 -->
<g id="edge80" class="edge"><title>Node8&#45;&gt;Node24</title>
<path fill="none" stroke="midnightblue" d="M187.563,-464.455C193.466,-431.608 217.546,-322.331 284,-269 286.094,-267.319 288.31,-265.782 290.62,-264.376"/>
<polygon fill="midnightblue" stroke="midnightblue" points="292.644,-267.271 299.932,-259.58 289.439,-261.047 292.644,-267.271"/>
</g>
<!-- Node25 -->
<g id="node67" class="node"><title>Node25</title>
<a xlink:href="class_c_a_n_jaguar.html#a1515a39fbac1a3b7e9e8cc79fe2233ec" target="_top" xlink:title="CANJaguar::setupPeriodic\lStatus">
<polygon fill="white" stroke="black" points="301.5,-191 301.5,-221 432.5,-221 432.5,-191 301.5,-191"/>
<text text-anchor="start" x="309.5" y="-209" font-family="Helvetica,sans-Serif" font-size="10.00">CANJaguar::setupPeriodic</text>
<text text-anchor="middle" x="367" y="-198" font-family="Helvetica,sans-Serif" font-size="10.00">Status</text>
</a>
</g>
<!-- Node8&#45;&gt;Node25 -->
<g id="edge84" class="edge"><title>Node8&#45;&gt;Node25</title>
<path fill="none" stroke="midnightblue" d="M186.947,-464.456C191.048,-428.287 210.547,-298.298 284,-231 286.603,-228.615 289.427,-226.458 292.41,-224.506"/>
<polygon fill="midnightblue" stroke="midnightblue" points="294.209,-227.509 301.182,-219.532 290.756,-221.42 294.209,-227.509"/>
</g>
<!-- Node26 -->
<g id="node70" class="node"><title>Node26</title>
<a xlink:href="class_c_a_n_jaguar.html#a22612130552d75e71b80f65f0013b9dc" target="_top" xlink:title="CANJaguar::GetTemperature">
<polygon fill="white" stroke="black" points="296.5,-114.5 296.5,-133.5 437.5,-133.5 437.5,-114.5 296.5,-114.5"/>
<text text-anchor="middle" x="367" y="-121.5" font-family="Helvetica,sans-Serif" font-size="10.00">CANJaguar::GetTemperature</text>
</a>
</g>
<!-- Node8&#45;&gt;Node26 -->
<g id="edge88" class="edge"><title>Node8&#45;&gt;Node26</title>
<path fill="none" stroke="midnightblue" d="M185.807,-464.364C185.482,-420.91 190.051,-241.267 284,-148 287.948,-144.081 292.498,-140.795 297.39,-138.041"/>
<polygon fill="midnightblue" stroke="midnightblue" points="299.027,-141.138 306.509,-133.636 295.982,-134.835 299.027,-141.138"/>
</g>
<!-- Node28 -->
<g id="node75" class="node"><title>Node28</title>
<a xlink:href="class_c_a_n_jaguar.html#a7b2f80fccf8ca7bb7413c9f25e12f99a" target="_top" xlink:title="CANJaguar::GetPosition">
<polygon fill="white" stroke="black" points="306,-76.5 306,-95.5 428,-95.5 428,-76.5 306,-76.5"/>
<text text-anchor="middle" x="367" y="-83.5" font-family="Helvetica,sans-Serif" font-size="10.00">CANJaguar::GetPosition</text>
</a>
</g>
<!-- Node8&#45;&gt;Node28 -->
<g id="edge94" class="edge"><title>Node8&#45;&gt;Node28</title>
<path fill="none" stroke="midnightblue" d="M187.221,-464.314C194.083,-411.407 229.485,-157.803 284,-105 287.615,-101.499 291.741,-98.5956 296.175,-96.1931"/>
<polygon fill="midnightblue" stroke="midnightblue" points="297.962,-99.2275 305.646,-91.9335 295.09,-92.8436 297.962,-99.2275"/>
</g>
<!-- Node29 -->
<g id="node78" class="node"><title>Node29</title>
<a xlink:href="class_c_a_n_jaguar.html#aa64fd18ae27ff40b16add78ffa38c23d" target="_top" xlink:title="CANJaguar::GetFaults">
<polygon fill="white" stroke="black" points="310,-38.5 310,-57.5 424,-57.5 424,-38.5 310,-38.5"/>
<text text-anchor="middle" x="367" y="-45.5" font-family="Helvetica,sans-Serif" font-size="10.00">CANJaguar::GetFaults</text>
</a>
</g>
<!-- Node8&#45;&gt;Node29 -->
<g id="edge98" class="edge"><title>Node8&#45;&gt;Node29</title>
<path fill="none" stroke="midnightblue" d="M186.953,-464.445C192.701,-408.705 224.517,-125.974 284,-67 288.631,-62.4087 294.139,-58.8407 300.078,-56.0789"/>
<polygon fill="midnightblue" stroke="midnightblue" points="301.628,-59.2326 309.7,-52.3711 299.111,-52.7007 301.628,-59.2326"/>
</g>
<!-- Node11&#45;&gt;Node6 -->
<g id="edge30" class="edge"><title>Node11&#45;&gt;Node6</title>
<path fill="none" stroke="midnightblue" d="M433.48,-791.369C439.388,-788.898 445.013,-785.823 450,-782 508.957,-736.795 537.952,-647.99 548.351,-608.607"/>
<polygon fill="midnightblue" stroke="midnightblue" points="551.751,-609.439 550.801,-598.887 544.963,-607.728 551.751,-609.439"/>
</g>
<!-- Node12&#45;&gt;Node6 -->
<g id="edge34" class="edge"><title>Node12&#45;&gt;Node6</title>
<path fill="none" stroke="midnightblue" d="M431.855,-753.349C438.288,-750.895 444.475,-747.829 450,-744 500.083,-709.295 532.273,-641.605 545.754,-608.363"/>
<polygon fill="midnightblue" stroke="midnightblue" points="549.085,-609.454 549.472,-598.866 542.567,-606.902 549.085,-609.454"/>
</g>
<!-- Node13&#45;&gt;Node6 -->
<g id="edge38" class="edge"><title>Node13&#45;&gt;Node6</title>
<path fill="none" stroke="midnightblue" d="M413.754,-719.614C426.118,-716.8 439.085,-712.518 450,-706 491.801,-681.039 525.718,-633.378 542.189,-607.25"/>
<polygon fill="midnightblue" stroke="midnightblue" points="545.201,-609.034 547.45,-598.68 539.235,-605.372 545.201,-609.034"/>
</g>
<!-- Node14&#45;&gt;Node6 -->
<g id="edge42" class="edge"><title>Node14&#45;&gt;Node6</title>
<path fill="none" stroke="midnightblue" d="M411.719,-680.475C424.44,-677.629 438.106,-673.614 450,-668 483.703,-652.092 516.845,-623.77 536.086,-605.711"/>
<polygon fill="midnightblue" stroke="midnightblue" points="538.641,-608.11 543.443,-598.665 533.8,-603.054 538.641,-608.11"/>
</g>
<!-- Node15&#45;&gt;Node6 -->
<g id="edge46" class="edge"><title>Node15&#45;&gt;Node6</title>
<path fill="none" stroke="midnightblue" d="M413.871,-639.659C425.735,-636.893 438.424,-633.622 450,-630 474.783,-622.245 502.053,-611.276 522.305,-602.635"/>
<polygon fill="midnightblue" stroke="midnightblue" points="523.847,-605.781 531.641,-598.604 521.073,-599.354 523.847,-605.781"/>
</g>
<!-- Node16&#45;&gt;Node6 -->
<g id="edge50" class="edge"><title>Node16&#45;&gt;Node6</title>
<path fill="none" stroke="midnightblue" d="M443.513,-602.02C454.758,-600.683 466.35,-599.304 477.592,-597.967"/>
<polygon fill="midnightblue" stroke="midnightblue" points="478.282,-601.41 487.799,-596.754 477.455,-594.459 478.282,-601.41"/>
</g>
<!-- Node17&#45;&gt;Node6 -->
<g id="edge54" class="edge"><title>Node17&#45;&gt;Node6</title>
<path fill="none" stroke="midnightblue" d="M434.006,-574.849C448.254,-576.544 463.419,-578.347 477.984,-580.079"/>
<polygon fill="midnightblue" stroke="midnightblue" points="477.609,-583.559 487.952,-581.265 478.436,-576.608 477.609,-583.559"/>
</g>
<!-- Node18&#45;&gt;Node6 -->
<g id="edge58" class="edge"><title>Node18&#45;&gt;Node6</title>
<path fill="none" stroke="midnightblue" d="M420.818,-533.046C430.593,-536.129 440.66,-539.506 450,-543 475.653,-552.596 504.017,-565.436 524.474,-575.111"/>
<polygon fill="midnightblue" stroke="midnightblue" points="523.024,-578.298 533.556,-579.445 526.038,-571.98 523.024,-578.298"/>
</g>
<!-- Node19&#45;&gt;Node6 -->
<g id="edge62" class="edge"><title>Node19&#45;&gt;Node6</title>
<path fill="none" stroke="midnightblue" d="M423.673,-483.525C432.766,-486.212 441.864,-489.638 450,-494 486.908,-513.787 520.754,-549.921 538.967,-571.469"/>
<polygon fill="midnightblue" stroke="midnightblue" points="536.295,-573.73 545.364,-579.207 541.69,-569.269 536.295,-573.73"/>
</g>
<!-- Node20&#45;&gt;Node6 -->
<g id="edge66" class="edge"><title>Node20&#45;&gt;Node6</title>
<path fill="none" stroke="midnightblue" d="M432.068,-445.183C438.39,-447.942 444.494,-451.187 450,-455 494.236,-485.634 527.949,-541.139 543.516,-570.164"/>
<polygon fill="midnightblue" stroke="midnightblue" points="540.524,-571.995 548.253,-579.242 546.73,-568.757 540.524,-571.995"/>
</g>
<!-- Node21&#45;&gt;Node6 -->
<g id="edge70" class="edge"><title>Node21&#45;&gt;Node6</title>
<path fill="none" stroke="midnightblue" d="M433.889,-395.992C439.647,-398.78 445.128,-402.084 450,-406 505.089,-450.279 535.81,-532.44 547.478,-569.716"/>
<polygon fill="midnightblue" stroke="midnightblue" points="544.148,-570.796 550.381,-579.363 550.851,-568.779 544.148,-570.796"/>
</g>
<!-- Node22&#45;&gt;Node6 -->
<g id="edge74" class="edge"><title>Node22&#45;&gt;Node6</title>
<path fill="none" stroke="midnightblue" d="M435.501,-347.144C440.728,-349.898 445.653,-353.153 450,-357 516.182,-415.569 541.882,-524.747 549.911,-569.301"/>
<polygon fill="midnightblue" stroke="midnightblue" points="546.499,-570.116 551.621,-579.391 553.401,-568.946 546.499,-570.116"/>
</g>
<!-- Node23&#45;&gt;Node6 -->
<g id="edge78" class="edge"><title>Node23&#45;&gt;Node6</title>
<path fill="none" stroke="midnightblue" d="M433.675,-297.591C439.615,-300.293 445.193,-303.704 450,-308 529.778,-379.3 547.856,-517.716 551.876,-569.136"/>
<polygon fill="midnightblue" stroke="midnightblue" points="548.393,-569.506 552.568,-579.244 555.377,-569.028 548.393,-569.506"/>
</g>
<!-- Node24&#45;&gt;Node6 -->
<g id="edge82" class="edge"><title>Node24&#45;&gt;Node6</title>
<path fill="none" stroke="midnightblue" d="M436.224,-259.691C441.232,-262.18 445.913,-265.241 450,-269 539.839,-351.616 551.633,-512.796 552.941,-569.052"/>
<polygon fill="midnightblue" stroke="midnightblue" points="549.446,-569.448 553.085,-579.398 556.445,-569.35 549.446,-569.448"/>
</g>
<!-- Node25&#45;&gt;Node6 -->
<g id="edge86" class="edge"><title>Node25&#45;&gt;Node6</title>
<path fill="none" stroke="midnightblue" d="M432.508,-218.61C438.974,-221.848 444.989,-225.909 450,-231 545.913,-328.439 553.656,-509.087 553.444,-569.065"/>
<polygon fill="midnightblue" stroke="midnightblue" points="549.94,-569.35 553.319,-579.392 556.94,-569.435 549.94,-569.35"/>
</g>
<!-- Node27 -->
<g id="node72" class="node"><title>Node27</title>
<a xlink:href="class_c_a_n_jaguar.html#a9436c9b85c0b008bb3276e7283176603" target="_top" xlink:title="CANJaguar::updatePeriodic\lStatus">
<polygon fill="white" stroke="black" points="486,-87 486,-117 622,-117 622,-87 486,-87"/>
<text text-anchor="start" x="494" y="-105" font-family="Helvetica,sans-Serif" font-size="10.00">CANJaguar::updatePeriodic</text>
<text text-anchor="middle" x="554" y="-94" font-family="Helvetica,sans-Serif" font-size="10.00">Status</text>
</a>
</g>
<!-- Node26&#45;&gt;Node27 -->
<g id="edge90" class="edge"><title>Node26&#45;&gt;Node27</title>
<path fill="none" stroke="midnightblue" d="M437.677,-115.714C450.123,-114.234 463.158,-112.684 475.8,-111.181"/>
<polygon fill="midnightblue" stroke="midnightblue" points="476.319,-114.644 485.836,-109.987 475.492,-107.693 476.319,-114.644"/>
</g>
<!-- Node27&#45;&gt;Node9 -->
<g id="edge92" class="edge"><title>Node27&#45;&gt;Node9</title>
<path fill="none" stroke="midnightblue" d="M620.212,-117.019C636.321,-120.728 653.35,-124.65 668.692,-128.184"/>
<polygon fill="midnightblue" stroke="midnightblue" points="667.973,-131.61 678.503,-130.443 669.544,-124.788 667.973,-131.61"/>
</g>
<!-- Node28&#45;&gt;Node27 -->
<g id="edge96" class="edge"><title>Node28&#45;&gt;Node27</title>
<path fill="none" stroke="midnightblue" d="M428.064,-91.1947C443.21,-92.5046 459.684,-93.9294 475.551,-95.3017"/>
<polygon fill="midnightblue" stroke="midnightblue" points="475.606,-98.8194 485.87,-96.1942 476.209,-91.8455 475.606,-98.8194"/>
</g>
<!-- Node29&#45;&gt;Node27 -->
<g id="edge100" class="edge"><title>Node29&#45;&gt;Node27</title>
<path fill="none" stroke="midnightblue" d="M412.893,-57.5501C425.001,-60.3573 438.054,-63.5956 450,-67 467.157,-71.8895 485.676,-77.936 502.216,-83.6199"/>
<polygon fill="midnightblue" stroke="midnightblue" points="501.106,-86.9394 511.701,-86.9132 503.402,-80.3267 501.106,-86.9394"/>
</g>
</g>
</svg>
