<?xml version="1.0" encoding="UTF-8" standalone="no"?>
<!DOCTYPE svg PUBLIC "-//W3C//DTD SVG 1.1//EN"
 "http://www.w3.org/Graphics/SVG/1.1/DTD/svg11.dtd">
<!-- Generated by graphviz version 2.28.0 (20110507.0327)
 -->
<!-- Title: DigitalInput::~DigitalInput Pages: 1 -->
<svg width="294pt" height="66pt"
 viewBox="0.00 0.00 294.00 66.00" xmlns="http://www.w3.org/2000/svg" xmlns:xlink="http://www.w3.org/1999/xlink">
<g id="graph1" class="graph" transform="scale(1 1) rotate(0) translate(4 62)">
<title>DigitalInput::~DigitalInput</title>
<polygon fill="white" stroke="white" points="-4,5 -4,-62 291,-62 291,5 -4,5"/>
<!-- Node1 -->
<g id="node1" class="node"><title>Node1</title>
<polygon fill="#bfbfbf" stroke="black" points="0.5,-19.5 0.5,-38.5 125.5,-38.5 125.5,-19.5 0.5,-19.5"/>
<text text-anchor="middle" x="63" y="-26.5" font-family="Helvetica,sans-Serif" font-size="10.00">DigitalInput::~DigitalInput</text>
</g>
<!-- Node2 -->
<g id="node3" class="node"><title>Node2</title>
<a xlink:href="class_error_base.html#a05790f219c9e436a09752f73f7344024" target="_top" xlink:title="Check if the current error code represents a fatal error. ">
<polygon fill="white" stroke="black" points="162,-38.5 162,-57.5 286,-57.5 286,-38.5 162,-38.5"/>
<text text-anchor="middle" x="224" y="-45.5" font-family="Helvetica,sans-Serif" font-size="10.00">ErrorBase::StatusIsFatal</text>
</a>
</g>
<!-- Node1&#45;&gt;Node2 -->
<g id="edge2" class="edge"><title>Node1&#45;&gt;Node2</title>
<path fill="none" stroke="midnightblue" d="M125.929,-36.4003C134.39,-37.4113 143.13,-38.4558 151.74,-39.4846"/>
<polygon fill="midnightblue" stroke="midnightblue" points="151.418,-42.971 161.763,-40.6823 152.249,-36.0205 151.418,-42.971"/>
</g>
<!-- Node3 -->
<g id="node5" class="node"><title>Node3</title>
<a xlink:href="class_resource.html#acb86b8c2fc22b8f5ba324db1a9ef4f17" target="_top" xlink:title="Resource::Free">
<polygon fill="white" stroke="black" points="182.5,-0.5 182.5,-19.5 265.5,-19.5 265.5,-0.5 182.5,-0.5"/>
<text text-anchor="middle" x="224" y="-7.5" font-family="Helvetica,sans-Serif" font-size="10.00">Resource::Free</text>
</a>
</g>
<!-- Node1&#45;&gt;Node3 -->
<g id="edge4" class="edge"><title>Node1&#45;&gt;Node3</title>
<path fill="none" stroke="midnightblue" d="M125.929,-21.5997C141.085,-19.7886 157.137,-17.8704 171.731,-16.1265"/>
<polygon fill="midnightblue" stroke="midnightblue" points="172.552,-19.5533 182.066,-14.8914 171.722,-12.6028 172.552,-19.5533"/>
</g>
</g>
</svg>
