<?xml version="1.0" encoding="UTF-8" standalone="no"?>
<!DOCTYPE svg PUBLIC "-//W3C//DTD SVG 1.1//EN"
 "http://www.w3.org/Graphics/SVG/1.1/DTD/svg11.dtd">
<!-- Generated by graphviz version 2.28.0 (20110507.0327)
 -->
<!-- Title: RobotDrive Pages: 1 -->
<svg width="156pt" height="84pt"
 viewBox="0.00 0.00 156.00 84.00" xmlns="http://www.w3.org/2000/svg" xmlns:xlink="http://www.w3.org/1999/xlink">
<g id="graph1" class="graph" transform="scale(1 1) rotate(0) translate(4 80)">
<title>RobotDrive</title>
<polygon fill="white" stroke="white" points="-4,5 -4,-80 153,-80 153,5 -4,5"/>
<!-- Node1 -->
<g id="node1" class="node"><title>Node1</title>
<polygon fill="#bfbfbf" stroke="black" points="-0.5,-0.5 -0.5,-19.5 62.5,-19.5 62.5,-0.5 -0.5,-0.5"/>
<text text-anchor="middle" x="31" y="-7.5" font-family="Helvetica,sans-Serif" font-size="10.00">RobotDrive</text>
</g>
<!-- Node2 -->
<g id="node2" class="node"><title>Node2</title>
<a xlink:href="class_error_base.html" target="_top" xlink:title="ErrorBase">
<polygon fill="white" stroke="black" points="1,-56.5 1,-75.5 61,-75.5 61,-56.5 1,-56.5"/>
<text text-anchor="middle" x="31" y="-63.5" font-family="Helvetica,sans-Serif" font-size="10.00">ErrorBase</text>
</a>
</g>
<!-- Node2&#45;&gt;Node1 -->
<g id="edge2" class="edge"><title>Node2&#45;&gt;Node1</title>
<path fill="none" stroke="midnightblue" d="M24.5276,-46.1005C23.8956,-37.1357 24.3427,-26.8579 25.869,-19.7511"/>
<polygon fill="midnightblue" stroke="midnightblue" points="21.0658,-46.6216 25.8337,-56.083 28.0067,-45.7134 21.0658,-46.6216"/>
</g>
<!-- Node2&#45;&gt;Node1 -->
<g id="edge6" class="edge"><title>Node2&#45;&gt;Node1</title>
<path fill="none" stroke="midnightblue" d="M37.4724,-46.1005C38.1044,-37.1357 37.6573,-26.8579 36.131,-19.7511"/>
<polygon fill="midnightblue" stroke="midnightblue" points="33.9933,-45.7134 36.1663,-56.083 40.9342,-46.6216 33.9933,-45.7134"/>
</g>
<!-- Node3 -->
<g id="node4" class="node"><title>Node3</title>
<a xlink:href="class_motor_safety.html" target="_top" xlink:title="MotorSafety">
<polygon fill="white" stroke="black" points="79.5,-56.5 79.5,-75.5 148.5,-75.5 148.5,-56.5 79.5,-56.5"/>
<text text-anchor="middle" x="114" y="-63.5" font-family="Helvetica,sans-Serif" font-size="10.00">MotorSafety</text>
</a>
</g>
<!-- Node3&#45;&gt;Node1 -->
<g id="edge4" class="edge"><title>Node3&#45;&gt;Node1</title>
<path fill="none" stroke="midnightblue" d="M91.9007,-50.6221C76.7382,-40.7574 57.1172,-27.9919 44.3023,-19.6545"/>
<polygon fill="midnightblue" stroke="midnightblue" points="90.3738,-53.8042 100.665,-56.324 94.1912,-47.9367 90.3738,-53.8042"/>
</g>
</g>
</svg>
