<?xml version="1.0" encoding="UTF-8" standalone="no"?>
<!DOCTYPE svg PUBLIC "-//W3C//DTD SVG 1.1//EN"
 "http://www.w3.org/Graphics/SVG/1.1/DTD/svg11.dtd">
<!-- Generated by graphviz version 2.28.0 (20110507.0327)
 -->
<!-- Title: MotorSafetyHelper::IsAlive Pages: 1 -->
<svg width="402pt" height="38pt"
 viewBox="0.00 0.00 402.00 38.00" xmlns="http://www.w3.org/2000/svg" xmlns:xlink="http://www.w3.org/1999/xlink">
<g id="graph1" class="graph" transform="scale(1 1) rotate(0) translate(4 34)">
<title>MotorSafetyHelper::IsAlive</title>
<polygon fill="white" stroke="white" points="-4,5 -4,-34 399,-34 399,5 -4,5"/>
<!-- Node1 -->
<g id="node1" class="node"><title>Node1</title>
<polygon fill="#bfbfbf" stroke="black" points="0.5,-0 0.5,-30 103.5,-30 103.5,-0 0.5,-0"/>
<text text-anchor="start" x="8.5" y="-18" font-family="Helvetica,sans-Serif" font-size="10.00">MotorSafetyHelper::</text>
<text text-anchor="middle" x="52" y="-7" font-family="Helvetica,sans-Serif" font-size="10.00">IsAlive</text>
</g>
<!-- Node2 -->
<g id="node3" class="node"><title>Node2</title>
<a xlink:href="class_timer.html#a7fa6e6dffec055e5104ccd6bcadec9aa" target="_top" xlink:title="Timer::GetFPGATimestamp">
<polygon fill="white" stroke="black" points="140.5,-5.5 140.5,-24.5 277.5,-24.5 277.5,-5.5 140.5,-5.5"/>
<text text-anchor="middle" x="209" y="-12.5" font-family="Helvetica,sans-Serif" font-size="10.00">Timer::GetFPGATimestamp</text>
</a>
</g>
<!-- Node1&#45;&gt;Node2 -->
<g id="edge2" class="edge"><title>Node1&#45;&gt;Node2</title>
<path fill="none" stroke="midnightblue" d="M103.753,-15C112.22,-15 121.173,-15 130.133,-15"/>
<polygon fill="midnightblue" stroke="midnightblue" points="130.226,-18.5001 140.226,-15 130.226,-11.5001 130.226,-18.5001"/>
</g>
<!-- Node3 -->
<g id="node5" class="node"><title>Node3</title>
<a xlink:href="_utility_8h.html#ababf055d95368485d48bd9a0231853f3" target="_top" xlink:title="GetFPGATime">
<polygon fill="white" stroke="black" points="314,-5.5 314,-24.5 394,-24.5 394,-5.5 314,-5.5"/>
<text text-anchor="middle" x="354" y="-12.5" font-family="Helvetica,sans-Serif" font-size="10.00">GetFPGATime</text>
</a>
</g>
<!-- Node2&#45;&gt;Node3 -->
<g id="edge4" class="edge"><title>Node2&#45;&gt;Node3</title>
<path fill="none" stroke="midnightblue" d="M277.731,-15C286.558,-15 295.463,-15 303.904,-15"/>
<polygon fill="midnightblue" stroke="midnightblue" points="303.934,-18.5001 313.933,-15 303.933,-11.5001 303.934,-18.5001"/>
</g>
</g>
</svg>
