<?xml version="1.0" encoding="UTF-8" standalone="no"?>
<!DOCTYPE svg PUBLIC "-//W3C//DTD SVG 1.1//EN"
 "http://www.w3.org/Graphics/SVG/1.1/DTD/svg11.dtd">
<!-- Generated by graphviz version 2.28.0 (20110507.0327)
 -->
<!-- Title: CANJaguar Pages: 1 -->
<svg width="618pt" height="344pt"
 viewBox="0.00 0.00 618.00 344.00" xmlns="http://www.w3.org/2000/svg" xmlns:xlink="http://www.w3.org/1999/xlink">
<g id="graph1" class="graph" transform="scale(1 1) rotate(0) translate(4 340)">
<title>CANJaguar</title>
<polygon fill="white" stroke="white" points="-4,5 -4,-340 615,-340 615,5 -4,5"/>
<!-- Node1 -->
<g id="node1" class="node"><title>Node1</title>
<polygon fill="#bfbfbf" stroke="black" points="544.5,-164.5 544.5,-183.5 609.5,-183.5 609.5,-164.5 544.5,-164.5"/>
<text text-anchor="middle" x="577" y="-171.5" font-family="Helvetica,sans-Serif" font-size="10.00">CANJaguar</text>
</g>
<!-- Node2 -->
<g id="node2" class="node"><title>Node2</title>
<a xlink:href="class_motor_safety.html" target="_top" xlink:title="MotorSafety">
<polygon fill="white" stroke="black" points="322.5,-316.5 322.5,-335.5 391.5,-335.5 391.5,-316.5 322.5,-316.5"/>
<text text-anchor="middle" x="357" y="-323.5" font-family="Helvetica,sans-Serif" font-size="10.00">MotorSafety</text>
</a>
</g>
<!-- Node2&#45;&gt;Node1 -->
<g id="edge2" class="edge"><title>Node2&#45;&gt;Node1</title>
<path fill="none" stroke="midnightblue" d="M401.971,-327.226C438.935,-325.98 491.169,-318.598 526,-290 560.237,-261.889 571.575,-205.917 574.834,-183.554"/>
<polygon fill="midnightblue" stroke="midnightblue" points="401.433,-323.736 391.503,-327.431 401.569,-330.735 401.433,-323.736"/>
</g>
<!-- Node3 -->
<g id="node4" class="node"><title>Node3</title>
<a xlink:href="class_c_a_n_speed_controller.html" target="_top" xlink:title="CANSpeedController">
<polygon fill="white" stroke="black" points="304,-278.5 304,-297.5 410,-297.5 410,-278.5 304,-278.5"/>
<text text-anchor="middle" x="357" y="-285.5" font-family="Helvetica,sans-Serif" font-size="10.00">CANSpeedController</text>
</a>
</g>
<!-- Node3&#45;&gt;Node1 -->
<g id="edge4" class="edge"><title>Node3&#45;&gt;Node1</title>
<path fill="none" stroke="midnightblue" d="M420.336,-292C454.265,-291.187 495.427,-285.042 526,-264 554.712,-244.239 568.694,-202.363 573.727,-183.529"/>
<polygon fill="midnightblue" stroke="midnightblue" points="420.027,-288.503 410.059,-292.092 420.09,-295.503 420.027,-288.503"/>
</g>
<!-- Node4 -->
<g id="node6" class="node"><title>Node4</title>
<a xlink:href="class_speed_controller.html" target="_top" xlink:title="SpeedController">
<polygon fill="white" stroke="black" points="154,-278.5 154,-297.5 240,-297.5 240,-278.5 154,-278.5"/>
<text text-anchor="middle" x="197" y="-285.5" font-family="Helvetica,sans-Serif" font-size="10.00">SpeedController</text>
</a>
</g>
<!-- Node4&#45;&gt;Node3 -->
<g id="edge6" class="edge"><title>Node4&#45;&gt;Node3</title>
<path fill="none" stroke="midnightblue" d="M250.735,-288C267.869,-288 286.863,-288 303.947,-288"/>
<polygon fill="midnightblue" stroke="midnightblue" points="250.341,-284.5 240.341,-288 250.341,-291.5 250.341,-284.5"/>
</g>
<!-- Node5 -->
<g id="node8" class="node"><title>Node5</title>
<a xlink:href="class_p_i_d_output.html" target="_top" xlink:title="PIDOutput">
<polygon fill="white" stroke="black" points="0,-278.5 0,-297.5 62,-297.5 62,-278.5 0,-278.5"/>
<text text-anchor="middle" x="31" y="-285.5" font-family="Helvetica,sans-Serif" font-size="10.00">PIDOutput</text>
</a>
</g>
<!-- Node5&#45;&gt;Node4 -->
<g id="edge8" class="edge"><title>Node5&#45;&gt;Node4</title>
<path fill="none" stroke="midnightblue" d="M72.2231,-282.098C96.9714,-280.997 128.647,-280.968 153.759,-282.011"/>
<polygon fill="midnightblue" stroke="midnightblue" points="71.8808,-278.611 62.0801,-282.636 72.2514,-285.602 71.8808,-278.611"/>
</g>
<!-- Node5&#45;&gt;Node4 -->
<g id="edge10" class="edge"><title>Node5&#45;&gt;Node4</title>
<path fill="none" stroke="midnightblue" d="M72.2231,-293.902C96.9714,-295.003 128.647,-295.032 153.759,-293.989"/>
<polygon fill="midnightblue" stroke="midnightblue" points="72.2514,-290.398 62.0801,-293.364 71.8808,-297.389 72.2514,-290.398"/>
</g>
<!-- Node6 -->
<g id="node11" class="node"><title>Node6</title>
<a xlink:href="class_error_base.html" target="_top" xlink:title="ErrorBase">
<polygon fill="white" stroke="black" points="167,-202.5 167,-221.5 227,-221.5 227,-202.5 167,-202.5"/>
<text text-anchor="middle" x="197" y="-209.5" font-family="Helvetica,sans-Serif" font-size="10.00">ErrorBase</text>
</a>
</g>
<!-- Node6&#45;&gt;Node1 -->
<g id="edge12" class="edge"><title>Node6&#45;&gt;Node1</title>
<path fill="none" stroke="midnightblue" d="M226.979,-225.56C236.63,-229.406 247.579,-233.071 258,-235 258.874,-235.162 259.111,-235.01 260,-235 378.516,-233.653 418.361,-265.614 526,-216 542.679,-208.312 558.271,-193.535 567.473,-183.72"/>
<polygon fill="midnightblue" stroke="midnightblue" points="228.044,-222.21 217.469,-221.551 225.324,-228.661 228.044,-222.21"/>
</g>
<!-- Node12 -->
<g id="node23" class="node"><title>Node12</title>
<a xlink:href="class_motor_safety_helper.html" target="_top" xlink:title="MotorSafetyHelper">
<polygon fill="white" stroke="black" points="308.5,-202.5 308.5,-221.5 405.5,-221.5 405.5,-202.5 308.5,-202.5"/>
<text text-anchor="middle" x="357" y="-209.5" font-family="Helvetica,sans-Serif" font-size="10.00">MotorSafetyHelper</text>
</a>
</g>
<!-- Node6&#45;&gt;Node12 -->
<g id="edge26" class="edge"><title>Node6&#45;&gt;Node12</title>
<path fill="none" stroke="midnightblue" d="M237.456,-206.066C258.995,-205.096 285.818,-204.991 308.499,-205.751"/>
<polygon fill="midnightblue" stroke="midnightblue" points="237.145,-202.578 227.348,-206.612 237.523,-209.568 237.145,-202.578"/>
</g>
<!-- Node6&#45;&gt;Node12 -->
<g id="edge28" class="edge"><title>Node6&#45;&gt;Node12</title>
<path fill="none" stroke="midnightblue" d="M237.456,-217.934C258.995,-218.904 285.818,-219.009 308.499,-218.249"/>
<polygon fill="midnightblue" stroke="midnightblue" points="237.523,-214.432 227.348,-217.388 237.145,-221.422 237.523,-214.432"/>
</g>
<!-- Node7 -->
<g id="node13" class="node"><title>Node7</title>
<a xlink:href="class_error.html" target="_top" xlink:title="Error">
<polygon fill="white" stroke="black" points="12,-202.5 12,-221.5 50,-221.5 50,-202.5 12,-202.5"/>
<text text-anchor="middle" x="31" y="-209.5" font-family="Helvetica,sans-Serif" font-size="10.00">Error</text>
</a>
</g>
<!-- Node7&#45;&gt;Node6 -->
<g id="edge14" class="edge"><title>Node7&#45;&gt;Node6</title>
<path fill="none" stroke="#9a32cd" stroke-dasharray="5,2" d="M60.3427,-212C90.1771,-212 136.904,-212 166.988,-212"/>
<polygon fill="#9a32cd" stroke="#9a32cd" points="60.1775,-208.5 50.1775,-212 60.1774,-215.5 60.1775,-208.5"/>
<text text-anchor="middle" x="108" y="-226" font-family="Helvetica,sans-Serif" font-size="10.00"> _globalError</text>
<text text-anchor="middle" x="108" y="-215" font-family="Helvetica,sans-Serif" font-size="10.00">m_error</text>
</g>
<!-- Node8 -->
<g id="node15" class="node"><title>Node8</title>
<a xlink:href="class_live_window_sendable.html" target="_top" xlink:title="LiveWindowSendable">
<polygon fill="white" stroke="black" points="303,-164.5 303,-183.5 411,-183.5 411,-164.5 303,-164.5"/>
<text text-anchor="middle" x="357" y="-171.5" font-family="Helvetica,sans-Serif" font-size="10.00">LiveWindowSendable</text>
</a>
</g>
<!-- Node8&#45;&gt;Node1 -->
<g id="edge16" class="edge"><title>Node8&#45;&gt;Node1</title>
<path fill="none" stroke="midnightblue" d="M421.085,-174C461.496,-174 512.21,-174 544.372,-174"/>
<polygon fill="midnightblue" stroke="midnightblue" points="421.05,-170.5 411.05,-174 421.05,-177.5 421.05,-170.5"/>
</g>
<!-- Node9 -->
<g id="node17" class="node"><title>Node9</title>
<a xlink:href="class_sendable.html" target="_top" xlink:title="Sendable">
<polygon fill="white" stroke="black" points="168.5,-164.5 168.5,-183.5 225.5,-183.5 225.5,-164.5 168.5,-164.5"/>
<text text-anchor="middle" x="197" y="-171.5" font-family="Helvetica,sans-Serif" font-size="10.00">Sendable</text>
</a>
</g>
<!-- Node9&#45;&gt;Node8 -->
<g id="edge18" class="edge"><title>Node9&#45;&gt;Node8</title>
<path fill="none" stroke="midnightblue" d="M235.552,-174C255.69,-174 280.84,-174 302.942,-174"/>
<polygon fill="midnightblue" stroke="midnightblue" points="235.522,-170.5 225.521,-174 235.521,-177.5 235.522,-170.5"/>
</g>
<!-- Node10 -->
<g id="node19" class="node"><title>Node10</title>
<polygon fill="white" stroke="#bfbfbf" points="318.5,-126.5 318.5,-145.5 395.5,-145.5 395.5,-126.5 318.5,-126.5"/>
<text text-anchor="middle" x="357" y="-133.5" font-family="Helvetica,sans-Serif" font-size="10.00">ITableListener</text>
</g>
<!-- Node10&#45;&gt;Node1 -->
<g id="edge20" class="edge"><title>Node10&#45;&gt;Node1</title>
<path fill="none" stroke="midnightblue" d="M406.002,-144.367C448.121,-151.709 508.161,-162.175 544.468,-168.504"/>
<polygon fill="midnightblue" stroke="midnightblue" points="406.425,-140.888 395.973,-142.619 405.223,-147.784 406.425,-140.888"/>
</g>
<!-- Node11 -->
<g id="node21" class="node"><title>Node11</title>
<polygon fill="white" stroke="#bfbfbf" points="291,-77 291,-107 423,-107 423,-77 291,-77"/>
<text text-anchor="start" x="299" y="-95" font-family="Helvetica,sans-Serif" font-size="10.00">CANJaguar::Potentiometer</text>
<text text-anchor="middle" x="357" y="-84" font-family="Helvetica,sans-Serif" font-size="10.00">Struct</text>
</g>
<!-- Node11&#45;&gt;Node1 -->
<g id="edge22" class="edge"><title>Node11&#45;&gt;Node1</title>
<path fill="none" stroke="#9a32cd" stroke-dasharray="5,2" d="M433.162,-107.264C462.89,-114.766 496.851,-125.215 526,-139 540.368,-145.795 555.065,-156.644 564.772,-164.462"/>
<polygon fill="#9a32cd" stroke="#9a32cd" points="433.801,-103.817 423.255,-104.832 432.132,-110.615 433.801,-103.817"/>
<text text-anchor="middle" x="490" y="-142" font-family="Helvetica,sans-Serif" font-size="10.00"> Potentiometer</text>
</g>
<!-- Node12&#45;&gt;Node1 -->
<g id="edge24" class="edge"><title>Node12&#45;&gt;Node1</title>
<path fill="none" stroke="#9a32cd" stroke-dasharray="5,2" d="M415.961,-205.622C448.488,-201.568 489.708,-195.639 526,-188 531.998,-186.737 538.338,-185.158 544.414,-183.519"/>
<polygon fill="#9a32cd" stroke="#9a32cd" points="415.224,-202.186 405.722,-206.872 416.073,-209.134 415.224,-202.186"/>
<text text-anchor="middle" x="490" y="-204" font-family="Helvetica,sans-Serif" font-size="10.00"> m_safetyHelper</text>
</g>
<!-- Node13 -->
<g id="node27" class="node"><title>Node13</title>
<polygon fill="white" stroke="#bfbfbf" points="278.5,-38.5 278.5,-57.5 435.5,-57.5 435.5,-38.5 278.5,-38.5"/>
<text text-anchor="middle" x="357" y="-45.5" font-family="Helvetica,sans-Serif" font-size="10.00">CANJaguar::QuadEncoderStruct</text>
</g>
<!-- Node13&#45;&gt;Node1 -->
<g id="edge30" class="edge"><title>Node13&#45;&gt;Node1</title>
<path fill="none" stroke="#9a32cd" stroke-dasharray="5,2" d="M440.651,-59.8496C469.852,-67.1632 501.491,-78.9667 526,-98 549.327,-116.115 565.254,-148.318 572.145,-164.361"/>
<polygon fill="#9a32cd" stroke="#9a32cd" points="441.392,-56.4284 430.855,-57.5376 439.784,-63.2412 441.392,-56.4284"/>
<text text-anchor="middle" x="490" y="-101" font-family="Helvetica,sans-Serif" font-size="10.00"> QuadEncoder</text>
</g>
<!-- Node14 -->
<g id="node29" class="node"><title>Node14</title>
<polygon fill="white" stroke="#bfbfbf" points="290,-0.5 290,-19.5 424,-19.5 424,-0.5 290,-0.5"/>
<text text-anchor="middle" x="357" y="-7.5" font-family="Helvetica,sans-Serif" font-size="10.00">CANJaguar::EncoderStruct</text>
</g>
<!-- Node14&#45;&gt;Node1 -->
<g id="edge32" class="edge"><title>Node14&#45;&gt;Node1</title>
<path fill="none" stroke="#9a32cd" stroke-dasharray="5,2" d="M434.369,-13.0688C465.848,-17.89 500.778,-28.2934 526,-50 561.715,-80.7371 572.228,-140.698 575.051,-164.208"/>
<polygon fill="#9a32cd" stroke="#9a32cd" points="434.667,-9.57723 424.286,-11.6924 433.721,-16.5129 434.667,-9.57723"/>
<text text-anchor="middle" x="490" y="-53" font-family="Helvetica,sans-Serif" font-size="10.00"> Encoder</text>
</g>
</g>
</svg>
