<?xml version="1.0" encoding="UTF-8" standalone="no"?>
<!DOCTYPE svg PUBLIC "-//W3C//DTD SVG 1.1//EN"
 "http://www.w3.org/Graphics/SVG/1.1/DTD/svg11.dtd">
<!-- Generated by graphviz version 2.28.0 (20110507.0327)
 -->
<!-- Title: Servo::Get Pages: 1 -->
<svg width="328pt" height="28pt"
 viewBox="0.00 0.00 328.00 28.00" xmlns="http://www.w3.org/2000/svg" xmlns:xlink="http://www.w3.org/1999/xlink">
<g id="graph1" class="graph" transform="scale(1 1) rotate(0) translate(4 24)">
<title>Servo::Get</title>
<polygon fill="white" stroke="white" points="-4,5 -4,-24 325,-24 325,5 -4,5"/>
<!-- Node1 -->
<g id="node1" class="node"><title>Node1</title>
<polygon fill="#bfbfbf" stroke="black" points="0,-0.5 0,-19.5 62,-19.5 62,-0.5 0,-0.5"/>
<text text-anchor="middle" x="31" y="-7.5" font-family="Helvetica,sans-Serif" font-size="10.00">Servo::Get</text>
</g>
<!-- Node2 -->
<g id="node3" class="node"><title>Node2</title>
<a xlink:href="class_servo.html#a76cca4c9e061ad6b36bcf8282e6bb9d2" target="_top" xlink:title="Servo::UpdateTable">
<polygon fill="white" stroke="black" points="98.5,-0.5 98.5,-19.5 199.5,-19.5 199.5,-0.5 98.5,-0.5"/>
<text text-anchor="middle" x="149" y="-7.5" font-family="Helvetica,sans-Serif" font-size="10.00">Servo::UpdateTable</text>
</a>
</g>
<!-- Node1&#45;&gt;Node2 -->
<g id="edge2" class="edge"><title>Node1&#45;&gt;Node2</title>
<path fill="none" stroke="midnightblue" d="M72.3844,-10C80.7175,-10 89.5866,-10 98.2087,-10"/>
<polygon fill="midnightblue" stroke="midnightblue" points="72.1749,-6.5001 62.1748,-10 72.1748,-13.5001 72.1749,-6.5001"/>
</g>
<!-- Node3 -->
<g id="node5" class="node"><title>Node3</title>
<a xlink:href="class_servo.html#ae429a4197d8868503fbecb24a2935220" target="_top" xlink:title="Servo::InitTable">
<polygon fill="white" stroke="black" points="236.5,-0.5 236.5,-19.5 319.5,-19.5 319.5,-0.5 236.5,-0.5"/>
<text text-anchor="middle" x="278" y="-7.5" font-family="Helvetica,sans-Serif" font-size="10.00">Servo::InitTable</text>
</a>
</g>
<!-- Node2&#45;&gt;Node3 -->
<g id="edge4" class="edge"><title>Node2&#45;&gt;Node3</title>
<path fill="none" stroke="midnightblue" d="M209.866,-10C218.825,-10 227.882,-10 236.318,-10"/>
<polygon fill="midnightblue" stroke="midnightblue" points="209.829,-6.5001 199.829,-10 209.829,-13.5001 209.829,-6.5001"/>
</g>
</g>
</svg>
