<?xml version="1.0" encoding="UTF-8" standalone="no"?>
<!DOCTYPE svg PUBLIC "-//W3C//DTD SVG 1.1//EN"
 "http://www.w3.org/Graphics/SVG/1.1/DTD/svg11.dtd">
<!-- Generated by graphviz version 2.28.0 (20110507.0327)
 -->
<!-- Title: Solenoid::StartLiveWindowMode Pages: 1 -->
<svg width="436pt" height="66pt"
 viewBox="0.00 0.00 436.00 66.00" xmlns="http://www.w3.org/2000/svg" xmlns:xlink="http://www.w3.org/1999/xlink">
<g id="graph1" class="graph" transform="scale(1 1) rotate(0) translate(4 62)">
<title>Solenoid::StartLiveWindowMode</title>
<polygon fill="white" stroke="white" points="-4,5 -4,-62 433,-62 433,5 -4,5"/>
<!-- Node1 -->
<g id="node1" class="node"><title>Node1</title>
<polygon fill="#bfbfbf" stroke="black" points="0,-19.5 0,-38.5 156,-38.5 156,-19.5 0,-19.5"/>
<text text-anchor="middle" x="78" y="-26.5" font-family="Helvetica,sans-Serif" font-size="10.00">Solenoid::StartLiveWindowMode</text>
</g>
<!-- Node2 -->
<g id="node3" class="node"><title>Node2</title>
<a xlink:href="class_solenoid.html#a913e4530ea804c7c0e3baf2458b4dee3" target="_top" xlink:title="Solenoid::Set">
<polygon fill="white" stroke="black" points="192.5,-19.5 192.5,-38.5 267.5,-38.5 267.5,-19.5 192.5,-19.5"/>
<text text-anchor="middle" x="230" y="-26.5" font-family="Helvetica,sans-Serif" font-size="10.00">Solenoid::Set</text>
</a>
</g>
<!-- Node1&#45;&gt;Node2 -->
<g id="edge2" class="edge"><title>Node1&#45;&gt;Node2</title>
<path fill="none" stroke="midnightblue" d="M156.197,-29C165.08,-29 173.922,-29 182.224,-29"/>
<polygon fill="midnightblue" stroke="midnightblue" points="182.414,-32.5001 192.414,-29 182.414,-25.5001 182.414,-32.5001"/>
</g>
<!-- Node3 -->
<g id="node5" class="node"><title>Node3</title>
<a xlink:href="class_error_base.html#a05790f219c9e436a09752f73f7344024" target="_top" xlink:title="Check if the current error code represents a fatal error. ">
<polygon fill="white" stroke="black" points="304,-38.5 304,-57.5 428,-57.5 428,-38.5 304,-38.5"/>
<text text-anchor="middle" x="366" y="-45.5" font-family="Helvetica,sans-Serif" font-size="10.00">ErrorBase::StatusIsFatal</text>
</a>
</g>
<!-- Node2&#45;&gt;Node3 -->
<g id="edge4" class="edge"><title>Node2&#45;&gt;Node3</title>
<path fill="none" stroke="midnightblue" d="M267.616,-34.1918C275.868,-35.3618 284.899,-36.6424 294.029,-37.937"/>
<polygon fill="midnightblue" stroke="midnightblue" points="293.551,-41.4041 303.943,-39.3427 294.533,-34.4734 293.551,-41.4041"/>
</g>
<!-- Node4 -->
<g id="node7" class="node"><title>Node4</title>
<a xlink:href="class_solenoid_base.html#a28d8153c8d7d758f910807537c53963c" target="_top" xlink:title="SolenoidBase::Set">
<polygon fill="white" stroke="black" points="317,-0.5 317,-19.5 415,-19.5 415,-0.5 317,-0.5"/>
<text text-anchor="middle" x="366" y="-7.5" font-family="Helvetica,sans-Serif" font-size="10.00">SolenoidBase::Set</text>
</a>
</g>
<!-- Node2&#45;&gt;Node4 -->
<g id="edge6" class="edge"><title>Node2&#45;&gt;Node4</title>
<path fill="none" stroke="midnightblue" d="M267.616,-23.8082C279.719,-22.0921 293.5,-20.138 306.81,-18.2509"/>
<polygon fill="midnightblue" stroke="midnightblue" points="307.45,-21.6952 316.86,-16.8259 306.467,-14.7645 307.45,-21.6952"/>
</g>
</g>
</svg>
