<?xml version="1.0" encoding="UTF-8" standalone="no"?>
<!DOCTYPE svg PUBLIC "-//W3C//DTD SVG 1.1//EN"
 "http://www.w3.org/Graphics/SVG/1.1/DTD/svg11.dtd">
<!-- Generated by graphviz version 2.28.0 (20110507.0327)
 -->
<!-- Title: ADXL345_I2C::GetAcceleration Pages: 1 -->
<svg width="380pt" height="28pt"
 viewBox="0.00 0.00 380.00 28.00" xmlns="http://www.w3.org/2000/svg" xmlns:xlink="http://www.w3.org/1999/xlink">
<g id="graph1" class="graph" transform="scale(1 1) rotate(0) translate(4 24)">
<title>ADXL345_I2C::GetAcceleration</title>
<polygon fill="white" stroke="white" points="-4,5 -4,-24 377,-24 377,5 -4,5"/>
<!-- Node1 -->
<g id="node1" class="node"><title>Node1</title>
<polygon fill="#bfbfbf" stroke="black" points="0,-0.5 0,-19.5 152,-19.5 152,-0.5 0,-0.5"/>
<text text-anchor="middle" x="76" y="-7.5" font-family="Helvetica,sans-Serif" font-size="10.00">ADXL345_I2C::GetAcceleration</text>
</g>
<!-- Node2 -->
<g id="node3" class="node"><title>Node2</title>
<a xlink:href="class_i2_c.html#a4115857de2e0675f0483787933be0552" target="_top" xlink:title="I2C::Read">
<polygon fill="white" stroke="black" points="188.5,-0.5 188.5,-19.5 247.5,-19.5 247.5,-0.5 188.5,-0.5"/>
<text text-anchor="middle" x="218" y="-7.5" font-family="Helvetica,sans-Serif" font-size="10.00">I2C::Read</text>
</a>
</g>
<!-- Node1&#45;&gt;Node2 -->
<g id="edge2" class="edge"><title>Node1&#45;&gt;Node2</title>
<path fill="none" stroke="midnightblue" d="M152.327,-10C161.238,-10 170.032,-10 178.129,-10"/>
<polygon fill="midnightblue" stroke="midnightblue" points="178.322,-13.5001 188.322,-10 178.322,-6.5001 178.322,-13.5001"/>
</g>
<!-- Node3 -->
<g id="node5" class="node"><title>Node3</title>
<a xlink:href="class_i2_c.html#aefe3a40857733f5ec164dbe1fb82b299" target="_top" xlink:title="I2C::Transaction">
<polygon fill="white" stroke="black" points="284.5,-0.5 284.5,-19.5 371.5,-19.5 371.5,-0.5 284.5,-0.5"/>
<text text-anchor="middle" x="328" y="-7.5" font-family="Helvetica,sans-Serif" font-size="10.00">I2C::Transaction</text>
</a>
</g>
<!-- Node2&#45;&gt;Node3 -->
<g id="edge4" class="edge"><title>Node2&#45;&gt;Node3</title>
<path fill="none" stroke="midnightblue" d="M247.658,-10C255.831,-10 265.005,-10 274.136,-10"/>
<polygon fill="midnightblue" stroke="midnightblue" points="274.371,-13.5001 284.371,-10 274.371,-6.5001 274.371,-13.5001"/>
</g>
</g>
</svg>
