<?xml version="1.0" encoding="UTF-8" standalone="no"?>
<!DOCTYPE svg PUBLIC "-//W3C//DTD SVG 1.1//EN"
 "http://www.w3.org/Graphics/SVG/1.1/DTD/svg11.dtd">
<!-- Generated by graphviz version 2.28.0 (20110507.0327)
 -->
<!-- Title: SpeedController Pages: 1 -->
<svg width="94pt" height="84pt"
 viewBox="0.00 0.00 94.00 84.00" xmlns="http://www.w3.org/2000/svg" xmlns:xlink="http://www.w3.org/1999/xlink">
<g id="graph1" class="graph" transform="scale(1 1) rotate(0) translate(4 80)">
<title>SpeedController</title>
<polygon fill="white" stroke="white" points="-4,5 -4,-80 91,-80 91,5 -4,5"/>
<!-- Node1 -->
<g id="node1" class="node"><title>Node1</title>
<polygon fill="#bfbfbf" stroke="black" points="0,-0.5 0,-19.5 86,-19.5 86,-0.5 0,-0.5"/>
<text text-anchor="middle" x="43" y="-7.5" font-family="Helvetica,sans-Serif" font-size="10.00">SpeedController</text>
</g>
<!-- Node2 -->
<g id="node2" class="node"><title>Node2</title>
<a xlink:href="class_p_i_d_output.html" target="_top" xlink:title="PIDOutput">
<polygon fill="white" stroke="black" points="12,-56.5 12,-75.5 74,-75.5 74,-56.5 12,-56.5"/>
<text text-anchor="middle" x="43" y="-63.5" font-family="Helvetica,sans-Serif" font-size="10.00">PIDOutput</text>
</a>
</g>
<!-- Node2&#45;&gt;Node1 -->
<g id="edge2" class="edge"><title>Node2&#45;&gt;Node1</title>
<path fill="none" stroke="midnightblue" d="M36.5276,-46.1005C35.8956,-37.1357 36.3427,-26.8579 37.869,-19.7511"/>
<polygon fill="midnightblue" stroke="midnightblue" points="33.0658,-46.6216 37.8337,-56.083 40.0067,-45.7134 33.0658,-46.6216"/>
</g>
<!-- Node2&#45;&gt;Node1 -->
<g id="edge4" class="edge"><title>Node2&#45;&gt;Node1</title>
<path fill="none" stroke="midnightblue" d="M49.4724,-46.1005C50.1044,-37.1357 49.6573,-26.8579 48.131,-19.7511"/>
<polygon fill="midnightblue" stroke="midnightblue" points="45.9933,-45.7134 48.1663,-56.083 52.9342,-46.6216 45.9933,-45.7134"/>
</g>
</g>
</svg>
