<?xml version="1.0" encoding="UTF-8" standalone="no"?>
<!DOCTYPE svg PUBLIC "-//W3C//DTD SVG 1.1//EN"
 "http://www.w3.org/Graphics/SVG/1.1/DTD/svg11.dtd">
<!-- Generated by graphviz version 2.28.0 (20110507.0327)
 -->
<!-- Title: PWM::SetRaw Pages: 1 -->
<svg width="674pt" height="332pt"
 viewBox="0.00 0.00 674.00 332.00" xmlns="http://www.w3.org/2000/svg" xmlns:xlink="http://www.w3.org/1999/xlink">
<g id="graph1" class="graph" transform="scale(1 1) rotate(0) translate(4 328)">
<title>PWM::SetRaw</title>
<polygon fill="white" stroke="white" points="-4,5 -4,-328 671,-328 671,5 -4,5"/>
<!-- Node1 -->
<g id="node1" class="node"><title>Node1</title>
<polygon fill="#bfbfbf" stroke="black" points="0.5,-152.5 0.5,-171.5 81.5,-171.5 81.5,-152.5 0.5,-152.5"/>
<text text-anchor="middle" x="41" y="-159.5" font-family="Helvetica,sans-Serif" font-size="10.00">PWM::SetRaw</text>
</g>
<!-- Node2 -->
<g id="node3" class="node"><title>Node2</title>
<a xlink:href="class_jaguar.html#a59b1a6772a482f810134a4c623416b44" target="_top" xlink:title="Jaguar::Disable">
<polygon fill="white" stroke="black" points="132.5,-304.5 132.5,-323.5 215.5,-323.5 215.5,-304.5 132.5,-304.5"/>
<text text-anchor="middle" x="174" y="-311.5" font-family="Helvetica,sans-Serif" font-size="10.00">Jaguar::Disable</text>
</a>
</g>
<!-- Node1&#45;&gt;Node2 -->
<g id="edge2" class="edge"><title>Node1&#45;&gt;Node2</title>
<path fill="none" stroke="midnightblue" d="M48.0756,-181.277C58.0997,-210.052 80.782,-264.149 118,-295 122.667,-298.868 128.167,-301.967 133.854,-304.444"/>
<polygon fill="midnightblue" stroke="midnightblue" points="51.3299,-179.972 44.8496,-171.59 44.6885,-182.183 51.3299,-179.972"/>
</g>
<!-- Node3 -->
<g id="node5" class="node"><title>Node3</title>
<a xlink:href="class_p_w_m.html#a93e43862c48e9a06d95bd916b77c183a" target="_top" xlink:title="PWM::SetPosition">
<polygon fill="white" stroke="black" points="125,-266.5 125,-285.5 223,-285.5 223,-266.5 125,-266.5"/>
<text text-anchor="middle" x="174" y="-273.5" font-family="Helvetica,sans-Serif" font-size="10.00">PWM::SetPosition</text>
</a>
</g>
<!-- Node1&#45;&gt;Node3 -->
<g id="edge4" class="edge"><title>Node1&#45;&gt;Node3</title>
<path fill="none" stroke="midnightblue" d="M52.2372,-180.291C65.0247,-201.572 88.8139,-236.412 118,-257 123.448,-260.843 129.743,-263.968 136.086,-266.489"/>
<polygon fill="midnightblue" stroke="midnightblue" points="55.2136,-178.447 47.1562,-171.567 49.1648,-181.97 55.2136,-178.447"/>
</g>
<!-- Node6 -->
<g id="node11" class="node"><title>Node6</title>
<a xlink:href="class_p_w_m.html#a947e5f6073da9e4d1b60db0c7791ca9c" target="_top" xlink:title="PWM::SetSpeed">
<polygon fill="white" stroke="black" points="129,-228.5 129,-247.5 219,-247.5 219,-228.5 129,-228.5"/>
<text text-anchor="middle" x="174" y="-235.5" font-family="Helvetica,sans-Serif" font-size="10.00">PWM::SetSpeed</text>
</a>
</g>
<!-- Node1&#45;&gt;Node6 -->
<g id="edge10" class="edge"><title>Node1&#45;&gt;Node6</title>
<path fill="none" stroke="midnightblue" d="M60.4228,-178.414C75.1658,-190.884 96.8113,-207.751 118,-219 124.871,-222.648 132.584,-225.82 140.011,-228.473"/>
<polygon fill="midnightblue" stroke="midnightblue" points="62.452,-175.542 52.5956,-171.656 57.8774,-180.841 62.452,-175.542"/>
</g>
<!-- Node20 -->
<g id="node39" class="node"><title>Node20</title>
<a xlink:href="class_safe_p_w_m.html#a66a27761982521795879b6067d81a6dc" target="_top" xlink:title="SafePWM::StopMotor">
<polygon fill="white" stroke="black" points="118,-190.5 118,-209.5 230,-209.5 230,-190.5 118,-190.5"/>
<text text-anchor="middle" x="174" y="-197.5" font-family="Helvetica,sans-Serif" font-size="10.00">SafePWM::StopMotor</text>
</a>
</g>
<!-- Node1&#45;&gt;Node20 -->
<g id="edge38" class="edge"><title>Node1&#45;&gt;Node20</title>
<path fill="none" stroke="midnightblue" d="M84.7148,-174.391C102.655,-179.594 123.2,-185.554 139.954,-190.414"/>
<polygon fill="midnightblue" stroke="midnightblue" points="85.636,-171.014 75.0568,-171.589 83.6858,-177.736 85.636,-171.014"/>
</g>
<!-- Node21 -->
<g id="node41" class="node"><title>Node21</title>
<a xlink:href="class_servo.html#ab151adcbbabc49c1bbe41ec349f17c23" target="_top" xlink:title="Servo::SetOffline">
<polygon fill="white" stroke="black" points="129.5,-152.5 129.5,-171.5 218.5,-171.5 218.5,-152.5 129.5,-152.5"/>
<text text-anchor="middle" x="174" y="-159.5" font-family="Helvetica,sans-Serif" font-size="10.00">Servo::SetOffline</text>
</a>
</g>
<!-- Node1&#45;&gt;Node21 -->
<g id="edge40" class="edge"><title>Node1&#45;&gt;Node21</title>
<path fill="none" stroke="midnightblue" d="M91.8136,-162C104.173,-162 117.324,-162 129.362,-162"/>
<polygon fill="midnightblue" stroke="midnightblue" points="91.6599,-158.5 81.6598,-162 91.6598,-165.5 91.6599,-158.5"/>
</g>
<!-- Node22 -->
<g id="node43" class="node"><title>Node22</title>
<a xlink:href="class_talon.html#a5c6bd68a2d5329bd164ce961cbbad6a8" target="_top" xlink:title="Talon::Disable">
<polygon fill="white" stroke="black" points="135,-114.5 135,-133.5 213,-133.5 213,-114.5 135,-114.5"/>
<text text-anchor="middle" x="174" y="-121.5" font-family="Helvetica,sans-Serif" font-size="10.00">Talon::Disable</text>
</a>
</g>
<!-- Node1&#45;&gt;Node22 -->
<g id="edge42" class="edge"><title>Node1&#45;&gt;Node22</title>
<path fill="none" stroke="midnightblue" d="M84.7148,-149.609C102.655,-144.406 123.2,-138.446 139.954,-133.586"/>
<polygon fill="midnightblue" stroke="midnightblue" points="83.6858,-146.264 75.0568,-152.411 85.636,-152.986 83.6858,-146.264"/>
</g>
<!-- Node23 -->
<g id="node45" class="node"><title>Node23</title>
<a xlink:href="class_talon_s_r_x.html#a672477993faafdc2bcf8d9937cd5ee08" target="_top" xlink:title="TalonSRX::Disable">
<polygon fill="white" stroke="black" points="125.5,-76.5 125.5,-95.5 222.5,-95.5 222.5,-76.5 125.5,-76.5"/>
<text text-anchor="middle" x="174" y="-83.5" font-family="Helvetica,sans-Serif" font-size="10.00">TalonSRX::Disable</text>
</a>
</g>
<!-- Node1&#45;&gt;Node23 -->
<g id="edge44" class="edge"><title>Node1&#45;&gt;Node23</title>
<path fill="none" stroke="midnightblue" d="M60.4228,-145.586C75.1658,-133.116 96.8113,-116.249 118,-105 124.871,-101.352 132.584,-98.1802 140.011,-95.5273"/>
<polygon fill="midnightblue" stroke="midnightblue" points="57.8774,-143.159 52.5956,-152.344 62.452,-148.458 57.8774,-143.159"/>
</g>
<!-- Node24 -->
<g id="node47" class="node"><title>Node24</title>
<a xlink:href="class_victor.html#a62b0d4aef3b9b749e326532164924a06" target="_top" xlink:title="Victor::Disable">
<polygon fill="white" stroke="black" points="134,-38.5 134,-57.5 214,-57.5 214,-38.5 134,-38.5"/>
<text text-anchor="middle" x="174" y="-45.5" font-family="Helvetica,sans-Serif" font-size="10.00">Victor::Disable</text>
</a>
</g>
<!-- Node1&#45;&gt;Node24 -->
<g id="edge46" class="edge"><title>Node1&#45;&gt;Node24</title>
<path fill="none" stroke="midnightblue" d="M52.2372,-143.709C65.0247,-122.428 88.8139,-87.5877 118,-67 123.448,-63.1567 129.743,-60.0323 136.086,-57.5114"/>
<polygon fill="midnightblue" stroke="midnightblue" points="49.1648,-142.03 47.1562,-152.433 55.2136,-145.553 49.1648,-142.03"/>
</g>
<!-- Node25 -->
<g id="node49" class="node"><title>Node25</title>
<a xlink:href="class_victor_s_p.html#a25312c5cf7d89b703b2084c66c206e9e" target="_top" xlink:title="VictorSP::Disable">
<polygon fill="white" stroke="black" points="127,-0.5 127,-19.5 221,-19.5 221,-0.5 127,-0.5"/>
<text text-anchor="middle" x="174" y="-7.5" font-family="Helvetica,sans-Serif" font-size="10.00">VictorSP::Disable</text>
</a>
</g>
<!-- Node1&#45;&gt;Node25 -->
<g id="edge48" class="edge"><title>Node1&#45;&gt;Node25</title>
<path fill="none" stroke="midnightblue" d="M48.0756,-142.723C58.0997,-113.948 80.782,-59.8512 118,-29 122.667,-25.1317 128.167,-22.033 133.854,-19.5556"/>
<polygon fill="midnightblue" stroke="midnightblue" points="44.6885,-141.817 44.8496,-152.41 51.3299,-144.028 44.6885,-141.817"/>
</g>
<!-- Node4 -->
<g id="node7" class="node"><title>Node4</title>
<a xlink:href="class_servo.html#a9ab93d2e70c8be9d2599aa225a6f8610" target="_top" xlink:title="Servo::Set">
<polygon fill="white" stroke="black" points="307,-304.5 307,-323.5 369,-323.5 369,-304.5 307,-304.5"/>
<text text-anchor="middle" x="338" y="-311.5" font-family="Helvetica,sans-Serif" font-size="10.00">Servo::Set</text>
</a>
</g>
<!-- Node3&#45;&gt;Node4 -->
<g id="edge6" class="edge"><title>Node3&#45;&gt;Node4</title>
<path fill="none" stroke="midnightblue" d="M225.807,-287.918C252.435,-294.164 284.144,-301.602 306.873,-306.933"/>
<polygon fill="midnightblue" stroke="midnightblue" points="226.415,-284.465 215.879,-285.589 224.816,-291.28 226.415,-284.465"/>
</g>
<!-- Node5 -->
<g id="node9" class="node"><title>Node5</title>
<a xlink:href="class_servo.html#a0046f9431e42de3fe63f8ce1b3995eb5" target="_top" xlink:title="Servo::SetAngle">
<polygon fill="white" stroke="black" points="295,-266.5 295,-285.5 381,-285.5 381,-266.5 295,-266.5"/>
<text text-anchor="middle" x="338" y="-273.5" font-family="Helvetica,sans-Serif" font-size="10.00">Servo::SetAngle</text>
</a>
</g>
<!-- Node3&#45;&gt;Node5 -->
<g id="edge8" class="edge"><title>Node3&#45;&gt;Node5</title>
<path fill="none" stroke="midnightblue" d="M233.267,-276C253.602,-276 276.016,-276 294.79,-276"/>
<polygon fill="midnightblue" stroke="midnightblue" points="233.167,-272.5 223.167,-276 233.167,-279.5 233.167,-272.5"/>
</g>
<!-- Node7 -->
<g id="node13" class="node"><title>Node7</title>
<a xlink:href="class_p_w_m.html#a77860064d7e686edd5717262cf4069d1" target="_top" xlink:title="PWM::StartLiveWindowMode">
<polygon fill="white" stroke="black" points="266.5,-228.5 266.5,-247.5 409.5,-247.5 409.5,-228.5 266.5,-228.5"/>
<text text-anchor="middle" x="338" y="-235.5" font-family="Helvetica,sans-Serif" font-size="10.00">PWM::StartLiveWindowMode</text>
</a>
</g>
<!-- Node6&#45;&gt;Node7 -->
<g id="edge12" class="edge"><title>Node6&#45;&gt;Node7</title>
<path fill="none" stroke="midnightblue" d="M229.415,-238C241.245,-238 253.926,-238 266.283,-238"/>
<polygon fill="midnightblue" stroke="midnightblue" points="229.267,-234.5 219.267,-238 229.267,-241.5 229.267,-234.5"/>
</g>
<!-- Node8 -->
<g id="node15" class="node"><title>Node8</title>
<a xlink:href="class_p_w_m.html#aee799b354e8d3e51c0f9f84db89463e3" target="_top" xlink:title="PWM::StopLiveWindowMode">
<polygon fill="white" stroke="black" points="266.5,-190.5 266.5,-209.5 409.5,-209.5 409.5,-190.5 266.5,-190.5"/>
<text text-anchor="middle" x="338" y="-197.5" font-family="Helvetica,sans-Serif" font-size="10.00">PWM::StopLiveWindowMode</text>
</a>
</g>
<!-- Node6&#45;&gt;Node8 -->
<g id="edge14" class="edge"><title>Node6&#45;&gt;Node8</title>
<path fill="none" stroke="midnightblue" d="M225.715,-226.104C248.486,-220.763 274.987,-214.546 296.415,-209.52"/>
<polygon fill="midnightblue" stroke="midnightblue" points="224.816,-222.72 215.879,-228.411 226.415,-229.535 224.816,-222.72"/>
</g>
<!-- Node9 -->
<g id="node17" class="node"><title>Node9</title>
<a xlink:href="class_safe_p_w_m.html#af1ed936d88f3ee6446b01c17feb24b78" target="_top" xlink:title="SafePWM::SetSpeed">
<polygon fill="white" stroke="black" points="283,-152.5 283,-171.5 393,-171.5 393,-152.5 283,-152.5"/>
<text text-anchor="middle" x="338" y="-159.5" font-family="Helvetica,sans-Serif" font-size="10.00">SafePWM::SetSpeed</text>
</a>
</g>
<!-- Node6&#45;&gt;Node9 -->
<g id="edge16" class="edge"><title>Node6&#45;&gt;Node9</title>
<path fill="none" stroke="midnightblue" d="M220.085,-224.475C223.538,-222.827 226.887,-221.006 230,-219 249.555,-206.396 246.009,-192.9 266,-181 272.469,-177.149 279.727,-174.064 287.068,-171.596"/>
<polygon fill="midnightblue" stroke="midnightblue" points="218.613,-221.298 210.788,-228.442 221.36,-227.737 218.613,-221.298"/>
</g>
<!-- Node10 -->
<g id="node19" class="node"><title>Node10</title>
<a xlink:href="class_jaguar.html#aac394eb2d4f46b29b477a7939cdec2a9" target="_top" xlink:title="Jaguar::Set">
<polygon fill="white" stroke="black" points="453,-228.5 453,-247.5 519,-247.5 519,-228.5 453,-228.5"/>
<text text-anchor="middle" x="486" y="-235.5" font-family="Helvetica,sans-Serif" font-size="10.00">Jaguar::Set</text>
</a>
</g>
<!-- Node9&#45;&gt;Node10 -->
<g id="edge18" class="edge"><title>Node9&#45;&gt;Node10</title>
<path fill="none" stroke="midnightblue" d="M398.46,-175.202C402.473,-176.91 406.361,-178.834 410,-181 429.991,-192.9 427.241,-205.24 446,-219 450.858,-222.564 456.489,-225.756 461.934,-228.46"/>
<polygon fill="midnightblue" stroke="midnightblue" points="399.524,-171.862 388.932,-171.596 397.046,-178.409 399.524,-171.862"/>
</g>
<!-- Node12 -->
<g id="node23" class="node"><title>Node12</title>
<a xlink:href="class_talon.html#a139bb330021efa545fd6047fa291dbeb" target="_top" xlink:title="Talon::Set">
<polygon fill="white" stroke="black" points="455.5,-190.5 455.5,-209.5 516.5,-209.5 516.5,-190.5 455.5,-190.5"/>
<text text-anchor="middle" x="486" y="-197.5" font-family="Helvetica,sans-Serif" font-size="10.00">Talon::Set</text>
</a>
</g>
<!-- Node9&#45;&gt;Node12 -->
<g id="edge22" class="edge"><title>Node9&#45;&gt;Node12</title>
<path fill="none" stroke="midnightblue" d="M385.644,-174.14C408.383,-180.059 435.063,-187.003 455.047,-192.204"/>
<polygon fill="midnightblue" stroke="midnightblue" points="386.401,-170.721 375.842,-171.589 384.638,-177.495 386.401,-170.721"/>
</g>
<!-- Node14 -->
<g id="node27" class="node"><title>Node14</title>
<a xlink:href="class_talon_s_r_x.html#a9d7dab854708bf4deb2d57da2cbcf9a9" target="_top" xlink:title="TalonSRX::Set">
<polygon fill="white" stroke="black" points="446,-152.5 446,-171.5 526,-171.5 526,-152.5 446,-152.5"/>
<text text-anchor="middle" x="486" y="-159.5" font-family="Helvetica,sans-Serif" font-size="10.00">TalonSRX::Set</text>
</a>
</g>
<!-- Node9&#45;&gt;Node14 -->
<g id="edge26" class="edge"><title>Node9&#45;&gt;Node14</title>
<path fill="none" stroke="midnightblue" d="M403.671,-162C417.974,-162 432.709,-162 445.641,-162"/>
<polygon fill="midnightblue" stroke="midnightblue" points="403.365,-158.5 393.365,-162 403.365,-165.5 403.365,-158.5"/>
</g>
<!-- Node16 -->
<g id="node31" class="node"><title>Node16</title>
<a xlink:href="class_victor.html#aeb1931d5462dcce004ba9bb5079b501a" target="_top" xlink:title="Victor::Set">
<polygon fill="white" stroke="black" points="454.5,-114.5 454.5,-133.5 517.5,-133.5 517.5,-114.5 454.5,-114.5"/>
<text text-anchor="middle" x="486" y="-121.5" font-family="Helvetica,sans-Serif" font-size="10.00">Victor::Set</text>
</a>
</g>
<!-- Node9&#45;&gt;Node16 -->
<g id="edge30" class="edge"><title>Node9&#45;&gt;Node16</title>
<path fill="none" stroke="midnightblue" d="M385.806,-149.818C408.149,-144.002 434.267,-137.204 454.093,-132.044"/>
<polygon fill="midnightblue" stroke="midnightblue" points="384.638,-146.505 375.842,-152.411 386.401,-153.279 384.638,-146.505"/>
</g>
<!-- Node18 -->
<g id="node35" class="node"><title>Node18</title>
<a xlink:href="class_victor_s_p.html#a5a776c3577f261f2679f77f5212e9d9c" target="_top" xlink:title="VictorSP::Set">
<polygon fill="white" stroke="black" points="447.5,-76.5 447.5,-95.5 524.5,-95.5 524.5,-76.5 447.5,-76.5"/>
<text text-anchor="middle" x="486" y="-83.5" font-family="Helvetica,sans-Serif" font-size="10.00">VictorSP::Set</text>
</a>
</g>
<!-- Node9&#45;&gt;Node18 -->
<g id="edge34" class="edge"><title>Node9&#45;&gt;Node18</title>
<path fill="none" stroke="midnightblue" d="M365.589,-147.492C387.154,-135.809 418.394,-119.072 446,-105 452.173,-101.853 458.946,-98.5144 465.091,-95.5278"/>
<polygon fill="midnightblue" stroke="midnightblue" points="363.812,-144.475 356.694,-152.322 367.152,-150.626 363.812,-144.475"/>
</g>
<!-- Node11 -->
<g id="node21" class="node"><title>Node11</title>
<a xlink:href="class_jaguar.html#af03d1c5b19cae7363d9eafdcb9ec354e" target="_top" xlink:title="Jaguar::PIDWrite">
<polygon fill="white" stroke="black" points="569,-228.5 569,-247.5 659,-247.5 659,-228.5 569,-228.5"/>
<text text-anchor="middle" x="614" y="-235.5" font-family="Helvetica,sans-Serif" font-size="10.00">Jaguar::PIDWrite</text>
</a>
</g>
<!-- Node10&#45;&gt;Node11 -->
<g id="edge20" class="edge"><title>Node10&#45;&gt;Node11</title>
<path fill="none" stroke="midnightblue" d="M529.373,-238C541.986,-238 555.839,-238 568.578,-238"/>
<polygon fill="midnightblue" stroke="midnightblue" points="529.121,-234.5 519.121,-238 529.121,-241.5 529.121,-234.5"/>
</g>
<!-- Node13 -->
<g id="node25" class="node"><title>Node13</title>
<a xlink:href="class_talon.html#a8485adbd32b68543d34bb7b2ad4d3ccb" target="_top" xlink:title="Talon::PIDWrite">
<polygon fill="white" stroke="black" points="571.5,-190.5 571.5,-209.5 656.5,-209.5 656.5,-190.5 571.5,-190.5"/>
<text text-anchor="middle" x="614" y="-197.5" font-family="Helvetica,sans-Serif" font-size="10.00">Talon::PIDWrite</text>
</a>
</g>
<!-- Node12&#45;&gt;Node13 -->
<g id="edge24" class="edge"><title>Node12&#45;&gt;Node13</title>
<path fill="none" stroke="midnightblue" d="M526.934,-200C541.056,-200 556.971,-200 571.241,-200"/>
<polygon fill="midnightblue" stroke="midnightblue" points="526.541,-196.5 516.541,-200 526.541,-203.5 526.541,-196.5"/>
</g>
<!-- Node15 -->
<g id="node29" class="node"><title>Node15</title>
<a xlink:href="class_talon_s_r_x.html#acd94bb75b221f4a0c09437731c574869" target="_top" xlink:title="TalonSRX::PIDWrite">
<polygon fill="white" stroke="black" points="562,-152.5 562,-171.5 666,-171.5 666,-152.5 562,-152.5"/>
<text text-anchor="middle" x="614" y="-159.5" font-family="Helvetica,sans-Serif" font-size="10.00">TalonSRX::PIDWrite</text>
</a>
</g>
<!-- Node14&#45;&gt;Node15 -->
<g id="edge28" class="edge"><title>Node14&#45;&gt;Node15</title>
<path fill="none" stroke="midnightblue" d="M536.206,-162C544.603,-162 553.343,-162 561.791,-162"/>
<polygon fill="midnightblue" stroke="midnightblue" points="536.177,-158.5 526.177,-162 536.176,-165.5 536.177,-158.5"/>
</g>
<!-- Node17 -->
<g id="node33" class="node"><title>Node17</title>
<a xlink:href="class_victor.html#a9b0d32b9299b6525d6450ff88c3365a7" target="_top" xlink:title="Victor::PIDWrite">
<polygon fill="white" stroke="black" points="570.5,-114.5 570.5,-133.5 657.5,-133.5 657.5,-114.5 570.5,-114.5"/>
<text text-anchor="middle" x="614" y="-121.5" font-family="Helvetica,sans-Serif" font-size="10.00">Victor::PIDWrite</text>
</a>
</g>
<!-- Node16&#45;&gt;Node17 -->
<g id="edge32" class="edge"><title>Node16&#45;&gt;Node17</title>
<path fill="none" stroke="midnightblue" d="M527.595,-124C541.274,-124 556.573,-124 570.403,-124"/>
<polygon fill="midnightblue" stroke="midnightblue" points="527.501,-120.5 517.501,-124 527.501,-127.5 527.501,-120.5"/>
</g>
<!-- Node19 -->
<g id="node37" class="node"><title>Node19</title>
<a xlink:href="class_victor_s_p.html#a9178b159144029faea02ae32f024ba84" target="_top" xlink:title="VictorSP::PIDWrite">
<polygon fill="white" stroke="black" points="563.5,-76.5 563.5,-95.5 664.5,-95.5 664.5,-76.5 563.5,-76.5"/>
<text text-anchor="middle" x="614" y="-83.5" font-family="Helvetica,sans-Serif" font-size="10.00">VictorSP::PIDWrite</text>
</a>
</g>
<!-- Node18&#45;&gt;Node19 -->
<g id="edge36" class="edge"><title>Node18&#45;&gt;Node19</title>
<path fill="none" stroke="midnightblue" d="M534.959,-86C544.165,-86 553.826,-86 563.091,-86"/>
<polygon fill="midnightblue" stroke="midnightblue" points="534.804,-82.5001 524.804,-86 534.804,-89.5001 534.804,-82.5001"/>
</g>
</g>
</svg>
