<?xml version="1.0" encoding="UTF-8" standalone="no"?>
<!DOCTYPE svg PUBLIC "-//W3C//DTD SVG 1.1//EN"
 "http://www.w3.org/Graphics/SVG/1.1/DTD/svg11.dtd">
<!-- Generated by graphviz version 2.28.0 (20110507.0327)
 -->
<!-- Title: Scheduler::Run Pages: 1 -->
<svg width="776pt" height="370pt"
 viewBox="0.00 0.00 776.00 370.00" xmlns="http://www.w3.org/2000/svg" xmlns:xlink="http://www.w3.org/1999/xlink">
<g id="graph1" class="graph" transform="scale(1 1) rotate(0) translate(4 366)">
<title>Scheduler::Run</title>
<polygon fill="white" stroke="white" points="-4,5 -4,-366 773,-366 773,5 -4,5"/>
<!-- Node1 -->
<g id="node1" class="node"><title>Node1</title>
<polygon fill="#bfbfbf" stroke="black" points="0.5,-76.5 0.5,-95.5 83.5,-95.5 83.5,-76.5 0.5,-76.5"/>
<text text-anchor="middle" x="42" y="-83.5" font-family="Helvetica,sans-Serif" font-size="10.00">Scheduler::Run</text>
</g>
<!-- Node2 -->
<g id="node3" class="node"><title>Node2</title>
<a xlink:href="class_command.html#ae10d99a6cec39f82aa9cb3dc289a45eb" target="_top" xlink:title="Command::Run">
<polygon fill="white" stroke="black" points="160,-171.5 160,-190.5 244,-190.5 244,-171.5 160,-171.5"/>
<text text-anchor="middle" x="202" y="-178.5" font-family="Helvetica,sans-Serif" font-size="10.00">Command::Run</text>
</a>
</g>
<!-- Node1&#45;&gt;Node2 -->
<g id="edge2" class="edge"><title>Node1&#45;&gt;Node2</title>
<path fill="none" stroke="midnightblue" d="M59.0194,-95.6319C86.5817,-112.204 143.168,-146.228 175.97,-165.951"/>
<polygon fill="midnightblue" stroke="midnightblue" points="174.565,-169.189 184.938,-171.343 178.172,-163.19 174.565,-169.189"/>
</g>
<!-- Node10 -->
<g id="node19" class="node"><title>Node10</title>
<a xlink:href="class_scheduler.html#a5fd987a5f7a9ba180207a1289a7bd477" target="_top" xlink:title="Scheduler::Remove">
<polygon fill="white" stroke="black" points="151.5,-76.5 151.5,-95.5 252.5,-95.5 252.5,-76.5 151.5,-76.5"/>
<text text-anchor="middle" x="202" y="-83.5" font-family="Helvetica,sans-Serif" font-size="10.00">Scheduler::Remove</text>
</a>
</g>
<!-- Node1&#45;&gt;Node10 -->
<g id="edge18" class="edge"><title>Node1&#45;&gt;Node10</title>
<path fill="none" stroke="midnightblue" d="M83.6889,-86C101.205,-86 122.037,-86 141.25,-86"/>
<polygon fill="midnightblue" stroke="midnightblue" points="141.424,-89.5001 151.424,-86 141.424,-82.5001 141.424,-89.5001"/>
</g>
<!-- Node13 -->
<g id="node25" class="node"><title>Node13</title>
<a xlink:href="class_subsystem.html#a3acb9f816199df44fd1dc5f452a2a6c8" target="_top" xlink:title="Subsystem::GetCurrentCommand">
<polygon fill="white" stroke="black" points="120,-38.5 120,-57.5 284,-57.5 284,-38.5 120,-38.5"/>
<text text-anchor="middle" x="202" y="-45.5" font-family="Helvetica,sans-Serif" font-size="10.00">Subsystem::GetCurrentCommand</text>
</a>
</g>
<!-- Node1&#45;&gt;Node13 -->
<g id="edge24" class="edge"><title>Node1&#45;&gt;Node13</title>
<path fill="none" stroke="midnightblue" d="M81.3617,-76.4419C93.6922,-73.3944 107.416,-70.0283 120,-67 129.69,-64.6681 140.041,-62.213 149.992,-59.8704"/>
<polygon fill="midnightblue" stroke="midnightblue" points="150.836,-63.2675 159.771,-57.5741 149.236,-56.4528 150.836,-63.2675"/>
</g>
<!-- Node14 -->
<g id="node27" class="node"><title>Node14</title>
<a xlink:href="class_subsystem.html#a50f7f4a6bb9befcd222e629b0c2c18b7" target="_top" xlink:title="Subsystem::GetDefaultCommand">
<polygon fill="white" stroke="black" points="121,-0.5 121,-19.5 283,-19.5 283,-0.5 121,-0.5"/>
<text text-anchor="middle" x="202" y="-7.5" font-family="Helvetica,sans-Serif" font-size="10.00">Subsystem::GetDefaultCommand</text>
</a>
</g>
<!-- Node1&#45;&gt;Node14 -->
<g id="edge26" class="edge"><title>Node1&#45;&gt;Node14</title>
<path fill="none" stroke="midnightblue" d="M53.0773,-76.3846C67.0047,-63.6317 93.4388,-41.3045 120,-29 125.29,-26.5496 130.925,-24.3996 136.665,-22.5161"/>
<polygon fill="midnightblue" stroke="midnightblue" points="137.814,-25.8254 146.381,-19.5922 135.797,-19.1223 137.814,-25.8254"/>
</g>
<!-- Node16 -->
<g id="node31" class="node"><title>Node16</title>
<a xlink:href="class_scheduler.html#af1c349ae113be36ad0026d1a82951693" target="_top" xlink:title="Scheduler::UpdateTable">
<polygon fill="white" stroke="black" points="142,-285.5 142,-304.5 262,-304.5 262,-285.5 142,-285.5"/>
<text text-anchor="middle" x="202" y="-292.5" font-family="Helvetica,sans-Serif" font-size="10.00">Scheduler::UpdateTable</text>
</a>
</g>
<!-- Node1&#45;&gt;Node16 -->
<g id="edge30" class="edge"><title>Node1&#45;&gt;Node16</title>
<path fill="none" stroke="midnightblue" d="M49.0377,-95.7102C61.5839,-115.707 91.6691,-162.735 120,-200 141.482,-228.256 168.627,-259.238 185.399,-277.894"/>
<polygon fill="midnightblue" stroke="midnightblue" points="182.808,-280.248 192.111,-285.318 188.001,-275.553 182.808,-280.248"/>
</g>
<!-- Node3 -->
<g id="node5" class="node"><title>Node3</title>
<a xlink:href="class_command.html#af566114c4b517ef22d8c7820c171b8b2" target="_top" xlink:title="Command::Cancel">
<polygon fill="white" stroke="black" points="353.5,-266.5 353.5,-285.5 450.5,-285.5 450.5,-266.5 353.5,-266.5"/>
<text text-anchor="middle" x="402" y="-273.5" font-family="Helvetica,sans-Serif" font-size="10.00">Command::Cancel</text>
</a>
</g>
<!-- Node2&#45;&gt;Node3 -->
<g id="edge4" class="edge"><title>Node2&#45;&gt;Node3</title>
<path fill="none" stroke="midnightblue" d="M214.837,-190.714C235.112,-206.867 278.338,-239.226 320,-257 327.462,-260.183 335.548,-262.884 343.626,-265.162"/>
<polygon fill="midnightblue" stroke="midnightblue" points="342.872,-268.582 353.432,-267.733 344.647,-261.811 342.872,-268.582"/>
</g>
<!-- Node6 -->
<g id="node11" class="node"><title>Node6</title>
<a xlink:href="class_command.html#aa8b9db0daa4b2bcc77f17a6aed08ed18" target="_top" xlink:title="Command::IsCanceled">
<polygon fill="white" stroke="black" points="344.5,-228.5 344.5,-247.5 459.5,-247.5 459.5,-228.5 344.5,-228.5"/>
<text text-anchor="middle" x="402" y="-235.5" font-family="Helvetica,sans-Serif" font-size="10.00">Command::IsCanceled</text>
</a>
</g>
<!-- Node2&#45;&gt;Node6 -->
<g id="edge10" class="edge"><title>Node2&#45;&gt;Node6</title>
<path fill="none" stroke="midnightblue" d="M230.226,-190.558C253.814,-198.666 288.938,-210.329 320,-219 328.786,-221.453 338.168,-223.852 347.315,-226.074"/>
<polygon fill="midnightblue" stroke="midnightblue" points="346.571,-229.495 357.11,-228.411 348.195,-222.686 346.571,-229.495"/>
</g>
<!-- Node7 -->
<g id="node13" class="node"><title>Node7</title>
<a xlink:href="class_command.html#a35b4c5ab42d8190791863cc8f1224231" target="_top" xlink:title="Command::Initialize">
<polygon fill="white" stroke="black" points="351,-190.5 351,-209.5 453,-209.5 453,-190.5 351,-190.5"/>
<text text-anchor="middle" x="402" y="-197.5" font-family="Helvetica,sans-Serif" font-size="10.00">Command::Initialize</text>
</a>
</g>
<!-- Node2&#45;&gt;Node7 -->
<g id="edge12" class="edge"><title>Node2&#45;&gt;Node7</title>
<path fill="none" stroke="midnightblue" d="M244.026,-184.937C271.91,-187.613 309.269,-191.198 340.545,-194.199"/>
<polygon fill="midnightblue" stroke="midnightblue" points="340.608,-197.721 350.896,-195.192 341.276,-190.753 340.608,-197.721"/>
</g>
<!-- Node8 -->
<g id="node15" class="node"><title>Node8</title>
<a xlink:href="class_command.html#a484c34647660fcfc8ee46b04ad5b32b6" target="_top" xlink:title="Command::Execute">
<polygon fill="white" stroke="black" points="350.5,-152.5 350.5,-171.5 453.5,-171.5 453.5,-152.5 350.5,-152.5"/>
<text text-anchor="middle" x="402" y="-159.5" font-family="Helvetica,sans-Serif" font-size="10.00">Command::Execute</text>
</a>
</g>
<!-- Node2&#45;&gt;Node8 -->
<g id="edge14" class="edge"><title>Node2&#45;&gt;Node8</title>
<path fill="none" stroke="midnightblue" d="M244.026,-177.063C271.707,-174.407 308.724,-170.855 339.859,-167.867"/>
<polygon fill="midnightblue" stroke="midnightblue" points="340.551,-171.317 350.171,-166.878 339.882,-164.349 340.551,-171.317"/>
</g>
<!-- Node9 -->
<g id="node17" class="node"><title>Node9</title>
<a xlink:href="class_command.html#a350a1e6657cd59f177f55e8451e60aa9" target="_top" xlink:title="Command::IsFinished">
<polygon fill="white" stroke="black" points="346.5,-114.5 346.5,-133.5 457.5,-133.5 457.5,-114.5 346.5,-114.5"/>
<text text-anchor="middle" x="402" y="-121.5" font-family="Helvetica,sans-Serif" font-size="10.00">Command::IsFinished</text>
</a>
</g>
<!-- Node2&#45;&gt;Node9 -->
<g id="edge16" class="edge"><title>Node2&#45;&gt;Node9</title>
<path fill="none" stroke="midnightblue" d="M230.226,-171.442C253.814,-163.334 288.938,-151.671 320,-143 328.786,-140.547 338.168,-138.148 347.315,-135.926"/>
<polygon fill="midnightblue" stroke="midnightblue" points="348.195,-139.314 357.11,-133.589 346.571,-132.505 348.195,-139.314"/>
</g>
<!-- Node4 -->
<g id="node7" class="node"><title>Node4</title>
<a xlink:href="class_command.html#a2e36a819254da2bb9badb3227bdfe336" target="_top" xlink:title="Command::_Cancel">
<polygon fill="white" stroke="black" points="520,-266.5 520,-285.5 622,-285.5 622,-266.5 520,-266.5"/>
<text text-anchor="middle" x="571" y="-273.5" font-family="Helvetica,sans-Serif" font-size="10.00">Command::_Cancel</text>
</a>
</g>
<!-- Node3&#45;&gt;Node4 -->
<g id="edge6" class="edge"><title>Node3&#45;&gt;Node4</title>
<path fill="none" stroke="midnightblue" d="M450.855,-276C469.156,-276 490.269,-276 509.592,-276"/>
<polygon fill="midnightblue" stroke="midnightblue" points="509.81,-279.5 519.81,-276 509.81,-272.5 509.81,-279.5"/>
</g>
<!-- Node5 -->
<g id="node9" class="node"><title>Node5</title>
<a xlink:href="class_command.html#a2885369af7a278b59c6941b1df23ac86" target="_top" xlink:title="Command::IsRunning">
<polygon fill="white" stroke="black" points="658,-266.5 658,-285.5 768,-285.5 768,-266.5 658,-266.5"/>
<text text-anchor="middle" x="713" y="-273.5" font-family="Helvetica,sans-Serif" font-size="10.00">Command::IsRunning</text>
</a>
</g>
<!-- Node4&#45;&gt;Node5 -->
<g id="edge8" class="edge"><title>Node4&#45;&gt;Node5</title>
<path fill="none" stroke="midnightblue" d="M622.148,-276C630.494,-276 639.251,-276 647.887,-276"/>
<polygon fill="midnightblue" stroke="midnightblue" points="647.938,-279.5 657.938,-276 647.938,-272.5 647.938,-279.5"/>
</g>
<!-- Node11 -->
<g id="node21" class="node"><title>Node11</title>
<a xlink:href="class_command.html#afb520de2e4173f9342a94dd98d76dc0f" target="_top" xlink:title="Command::GetRequirements">
<polygon fill="white" stroke="black" points="330.5,-76.5 330.5,-95.5 473.5,-95.5 473.5,-76.5 330.5,-76.5"/>
<text text-anchor="middle" x="402" y="-83.5" font-family="Helvetica,sans-Serif" font-size="10.00">Command::GetRequirements</text>
</a>
</g>
<!-- Node10&#45;&gt;Node11 -->
<g id="edge20" class="edge"><title>Node10&#45;&gt;Node11</title>
<path fill="none" stroke="midnightblue" d="M252.708,-86C273.165,-86 297.39,-86 320.268,-86"/>
<polygon fill="midnightblue" stroke="midnightblue" points="320.32,-89.5001 330.319,-86 320.319,-82.5001 320.32,-89.5001"/>
</g>
<!-- Node12 -->
<g id="node23" class="node"><title>Node12</title>
<a xlink:href="class_subsystem.html#a5caed10655c42424ef731c2a12681d9a" target="_top" xlink:title="Subsystem::SetCurrentCommand">
<polygon fill="white" stroke="black" points="320.5,-38.5 320.5,-57.5 483.5,-57.5 483.5,-38.5 320.5,-38.5"/>
<text text-anchor="middle" x="402" y="-45.5" font-family="Helvetica,sans-Serif" font-size="10.00">Subsystem::SetCurrentCommand</text>
</a>
</g>
<!-- Node10&#45;&gt;Node12 -->
<g id="edge22" class="edge"><title>Node10&#45;&gt;Node12</title>
<path fill="none" stroke="midnightblue" d="M252.708,-76.46C279.541,-71.3104 312.859,-64.916 341.113,-59.4935"/>
<polygon fill="midnightblue" stroke="midnightblue" points="342.11,-62.866 351.271,-57.5439 340.791,-55.9915 342.11,-62.866"/>
</g>
<!-- Node15 -->
<g id="node29" class="node"><title>Node15</title>
<a xlink:href="class_subsystem.html#a3e459cd7c50c21fad4dfa640b8b5bf65" target="_top" xlink:title="Subsystem::InitDefaultCommand">
<polygon fill="white" stroke="black" points="322.5,-0.5 322.5,-19.5 481.5,-19.5 481.5,-0.5 322.5,-0.5"/>
<text text-anchor="middle" x="402" y="-7.5" font-family="Helvetica,sans-Serif" font-size="10.00">Subsystem::InitDefaultCommand</text>
</a>
</g>
<!-- Node14&#45;&gt;Node15 -->
<g id="edge28" class="edge"><title>Node14&#45;&gt;Node15</title>
<path fill="none" stroke="midnightblue" d="M283.249,-10C292.796,-10 302.585,-10 312.242,-10"/>
<polygon fill="midnightblue" stroke="midnightblue" points="312.243,-13.5001 322.243,-10 312.243,-6.5001 312.243,-13.5001"/>
</g>
<!-- Node16&#45;&gt;Node3 -->
<g id="edge34" class="edge"><title>Node16&#45;&gt;Node3</title>
<path fill="none" stroke="midnightblue" d="M262.138,-289.325C287.778,-286.865 317.699,-283.993 343.188,-281.548"/>
<polygon fill="midnightblue" stroke="midnightblue" points="343.828,-285.002 353.448,-280.563 343.16,-278.034 343.828,-285.002"/>
</g>
<!-- Node17 -->
<g id="node33" class="node"><title>Node17</title>
<a xlink:href="class_command.html#add6db88d2165d59821032ea975fa4468" target="_top" xlink:title="Command::GetID">
<polygon fill="white" stroke="black" points="356,-342.5 356,-361.5 448,-361.5 448,-342.5 356,-342.5"/>
<text text-anchor="middle" x="402" y="-349.5" font-family="Helvetica,sans-Serif" font-size="10.00">Command::GetID</text>
</a>
</g>
<!-- Node16&#45;&gt;Node17 -->
<g id="edge32" class="edge"><title>Node16&#45;&gt;Node17</title>
<path fill="none" stroke="midnightblue" d="M230.226,-304.558C253.814,-312.666 288.938,-324.329 320,-333 328.786,-335.453 338.168,-337.852 347.315,-340.074"/>
<polygon fill="midnightblue" stroke="midnightblue" points="346.571,-343.495 357.11,-342.411 348.195,-336.686 346.571,-343.495"/>
</g>
<!-- Node18 -->
<g id="node36" class="node"><title>Node18</title>
<a xlink:href="class_command.html#a68535903fc61c641f4ab2fdbd11d4257" target="_top" xlink:title="Command::GetName">
<polygon fill="white" stroke="black" points="348,-304.5 348,-323.5 456,-323.5 456,-304.5 348,-304.5"/>
<text text-anchor="middle" x="402" y="-311.5" font-family="Helvetica,sans-Serif" font-size="10.00">Command::GetName</text>
</a>
</g>
<!-- Node16&#45;&gt;Node18 -->
<g id="edge36" class="edge"><title>Node16&#45;&gt;Node18</title>
<path fill="none" stroke="midnightblue" d="M262.138,-300.675C285.969,-302.962 313.498,-305.603 337.73,-307.929"/>
<polygon fill="midnightblue" stroke="midnightblue" points="337.604,-311.433 347.892,-308.904 338.272,-304.465 337.604,-311.433"/>
</g>
</g>
</svg>
