<?xml version="1.0" encoding="UTF-8" standalone="no"?>
<!DOCTYPE svg PUBLIC "-//W3C//DTD SVG 1.1//EN"
 "http://www.w3.org/Graphics/SVG/1.1/DTD/svg11.dtd">
<!-- Generated by graphviz version 2.28.0 (20110507.0327)
 -->
<!-- Title: SPI::SetClockRate Pages: 1 -->
<svg width="418pt" height="28pt"
 viewBox="0.00 0.00 418.00 28.00" xmlns="http://www.w3.org/2000/svg" xmlns:xlink="http://www.w3.org/1999/xlink">
<g id="graph1" class="graph" transform="scale(1 1) rotate(0) translate(4 24)">
<title>SPI::SetClockRate</title>
<polygon fill="white" stroke="white" points="-4,5 -4,-24 415,-24 415,5 -4,5"/>
<!-- Node1 -->
<g id="node1" class="node"><title>Node1</title>
<polygon fill="#bfbfbf" stroke="black" points="0,-0.5 0,-19.5 98,-19.5 98,-0.5 0,-0.5"/>
<text text-anchor="middle" x="49" y="-7.5" font-family="Helvetica,sans-Serif" font-size="10.00">SPI::SetClockRate</text>
</g>
<!-- Node2 -->
<g id="node3" class="node"><title>Node2</title>
<a xlink:href="class_a_d_x_l345___s_p_i.html#a4fc291813cfeba26060014221a0ba156" target="_top" xlink:title="ADXL345_SPI::Init">
<polygon fill="white" stroke="black" points="134,-0.5 134,-19.5 230,-19.5 230,-0.5 134,-0.5"/>
<text text-anchor="middle" x="182" y="-7.5" font-family="Helvetica,sans-Serif" font-size="10.00">ADXL345_SPI::Init</text>
</a>
</g>
<!-- Node1&#45;&gt;Node2 -->
<g id="edge2" class="edge"><title>Node1&#45;&gt;Node2</title>
<path fill="none" stroke="midnightblue" d="M108.047,-10C116.675,-10 125.477,-10 133.845,-10"/>
<polygon fill="midnightblue" stroke="midnightblue" points="108.036,-6.5001 98.0357,-10 108.036,-13.5001 108.036,-6.5001"/>
</g>
<!-- Node3 -->
<g id="node5" class="node"><title>Node3</title>
<a xlink:href="class_a_d_x_l345___s_p_i.html#afd6ce38c4905606f32ae96342b2d29ca" target="_top" xlink:title="ADXL345_SPI::ADXL345_SPI">
<polygon fill="white" stroke="black" points="266,-0.5 266,-19.5 410,-19.5 410,-0.5 266,-0.5"/>
<text text-anchor="middle" x="338" y="-7.5" font-family="Helvetica,sans-Serif" font-size="10.00">ADXL345_SPI::ADXL345_SPI</text>
</a>
</g>
<!-- Node2&#45;&gt;Node3 -->
<g id="edge4" class="edge"><title>Node2&#45;&gt;Node3</title>
<path fill="none" stroke="midnightblue" d="M240.087,-10C248.485,-10 257.222,-10 265.86,-10"/>
<polygon fill="midnightblue" stroke="midnightblue" points="240.042,-6.5001 230.042,-10 240.042,-13.5001 240.042,-6.5001"/>
</g>
</g>
</svg>
