<?xml version="1.0" encoding="UTF-8" standalone="no"?>
<!DOCTYPE svg PUBLIC "-//W3C//DTD SVG 1.1//EN"
 "http://www.w3.org/Graphics/SVG/1.1/DTD/svg11.dtd">
<!-- Generated by graphviz version 2.28.0 (20110507.0327)
 -->
<!-- Title: CommandGroupEntry Pages: 1 -->
<svg width="269pt" height="232pt"
 viewBox="0.00 0.00 269.00 232.00" xmlns="http://www.w3.org/2000/svg" xmlns:xlink="http://www.w3.org/1999/xlink">
<g id="graph1" class="graph" transform="scale(1 1) rotate(0) translate(4 228)">
<title>CommandGroupEntry</title>
<polygon fill="white" stroke="white" points="-4,5 -4,-228 266,-228 266,5 -4,5"/>
<!-- Node1 -->
<g id="node1" class="node"><title>Node1</title>
<polygon fill="#bfbfbf" stroke="black" points="67,-0.5 67,-19.5 177,-19.5 177,-0.5 67,-0.5"/>
<text text-anchor="middle" x="122" y="-7.5" font-family="Helvetica,sans-Serif" font-size="10.00">CommandGroupEntry</text>
</g>
<!-- Node2 -->
<g id="node2" class="node"><title>Node2</title>
<a xlink:href="class_command.html" target="_top" xlink:title="Command">
<polygon fill="white" stroke="black" points="91.5,-68.5 91.5,-87.5 152.5,-87.5 152.5,-68.5 91.5,-68.5"/>
<text text-anchor="middle" x="122" y="-75.5" font-family="Helvetica,sans-Serif" font-size="10.00">Command</text>
</a>
</g>
<!-- Node2&#45;&gt;Node1 -->
<g id="edge2" class="edge"><title>Node2&#45;&gt;Node1</title>
<path fill="none" stroke="#9a32cd" stroke-dasharray="5,2" d="M122,-58.0413C122,-45.4724 122,-29.5631 122,-19.8411"/>
<polygon fill="#9a32cd" stroke="#9a32cd" points="118.5,-58.3716 122,-68.3717 125.5,-58.3717 118.5,-58.3716"/>
<text text-anchor="middle" x="152" y="-41.5" font-family="Helvetica,sans-Serif" font-size="10.00"> m_command</text>
</g>
<!-- Node3 -->
<g id="node4" class="node"><title>Node3</title>
<a xlink:href="class_error_base.html" target="_top" xlink:title="ErrorBase">
<polygon fill="white" stroke="black" points="0,-126.5 0,-145.5 60,-145.5 60,-126.5 0,-126.5"/>
<text text-anchor="middle" x="30" y="-133.5" font-family="Helvetica,sans-Serif" font-size="10.00">ErrorBase</text>
</a>
</g>
<!-- Node3&#45;&gt;Node2 -->
<g id="edge4" class="edge"><title>Node3&#45;&gt;Node2</title>
<path fill="none" stroke="midnightblue" d="M52.8651,-121.082C70.1231,-110.577 93.2546,-96.4972 107.896,-87.5852"/>
<polygon fill="midnightblue" stroke="midnightblue" points="50.695,-118.306 43.9728,-126.495 54.3346,-124.285 50.695,-118.306"/>
</g>
<!-- Node4 -->
<g id="node6" class="node"><title>Node4</title>
<a xlink:href="class_error.html" target="_top" xlink:title="Error">
<polygon fill="white" stroke="black" points="11,-204.5 11,-223.5 49,-223.5 49,-204.5 11,-204.5"/>
<text text-anchor="middle" x="30" y="-211.5" font-family="Helvetica,sans-Serif" font-size="10.00">Error</text>
</a>
</g>
<!-- Node4&#45;&gt;Node3 -->
<g id="edge6" class="edge"><title>Node4&#45;&gt;Node3</title>
<path fill="none" stroke="#9a32cd" stroke-dasharray="5,2" d="M30,-194.224C30,-178.697 30,-157.358 30,-145.616"/>
<polygon fill="#9a32cd" stroke="#9a32cd" points="26.5001,-194.282 30,-204.282 33.5001,-194.282 26.5001,-194.282"/>
<text text-anchor="middle" x="57.5" y="-178" font-family="Helvetica,sans-Serif" font-size="10.00"> _globalError</text>
<text text-anchor="middle" x="57.5" y="-167" font-family="Helvetica,sans-Serif" font-size="10.00">m_error</text>
</g>
<!-- Node5 -->
<g id="node8" class="node"><title>Node5</title>
<a xlink:href="class_named_sendable.html" target="_top" xlink:title="NamedSendable">
<polygon fill="white" stroke="black" points="78,-126.5 78,-145.5 166,-145.5 166,-126.5 78,-126.5"/>
<text text-anchor="middle" x="122" y="-133.5" font-family="Helvetica,sans-Serif" font-size="10.00">NamedSendable</text>
</a>
</g>
<!-- Node5&#45;&gt;Node2 -->
<g id="edge8" class="edge"><title>Node5&#45;&gt;Node2</title>
<path fill="none" stroke="midnightblue" d="M122,-115.953C122,-106.287 122,-95.0312 122,-87.5052"/>
<polygon fill="midnightblue" stroke="midnightblue" points="118.5,-116.25 122,-126.25 125.5,-116.25 118.5,-116.25"/>
</g>
<!-- Node6 -->
<g id="node10" class="node"><title>Node6</title>
<a xlink:href="class_sendable.html" target="_top" xlink:title="Sendable">
<polygon fill="white" stroke="black" points="93.5,-204.5 93.5,-223.5 150.5,-223.5 150.5,-204.5 93.5,-204.5"/>
<text text-anchor="middle" x="122" y="-211.5" font-family="Helvetica,sans-Serif" font-size="10.00">Sendable</text>
</a>
</g>
<!-- Node6&#45;&gt;Node5 -->
<g id="edge10" class="edge"><title>Node6&#45;&gt;Node5</title>
<path fill="none" stroke="midnightblue" d="M122,-194.224C122,-178.697 122,-157.358 122,-145.616"/>
<polygon fill="midnightblue" stroke="midnightblue" points="118.5,-194.282 122,-204.282 125.5,-194.282 118.5,-194.282"/>
</g>
<!-- Node7 -->
<g id="node12" class="node"><title>Node7</title>
<polygon fill="white" stroke="#bfbfbf" points="184.5,-126.5 184.5,-145.5 261.5,-145.5 261.5,-126.5 184.5,-126.5"/>
<text text-anchor="middle" x="223" y="-133.5" font-family="Helvetica,sans-Serif" font-size="10.00">ITableListener</text>
</g>
<!-- Node7&#45;&gt;Node2 -->
<g id="edge12" class="edge"><title>Node7&#45;&gt;Node2</title>
<path fill="none" stroke="midnightblue" d="M198.684,-121.518C179.659,-110.969 153.781,-96.621 137.484,-87.5852"/>
<polygon fill="midnightblue" stroke="midnightblue" points="197.217,-124.707 207.66,-126.495 200.612,-118.585 197.217,-124.707"/>
</g>
</g>
</svg>
