<?xml version="1.0" encoding="UTF-8" standalone="no"?>
<!DOCTYPE svg PUBLIC "-//W3C//DTD SVG 1.1//EN"
 "http://www.w3.org/Graphics/SVG/1.1/DTD/svg11.dtd">
<!-- Generated by graphviz version 2.28.0 (20110507.0327)
 -->
<!-- Title: CANJaguar::verify Pages: 1 -->
<svg width="638pt" height="889pt"
 viewBox="0.00 0.00 638.00 888.60" xmlns="http://www.w3.org/2000/svg" xmlns:xlink="http://www.w3.org/1999/xlink">
<g id="graph1" class="graph" transform="scale(1 1) rotate(0) translate(4 884.601)">
<title>CANJaguar::verify</title>
<polygon fill="white" stroke="white" points="-4,5 -4,-884.601 635,-884.601 635,5 -4,5"/>
<!-- Node1 -->
<g id="node1" class="node"><title>Node1</title>
<polygon fill="#bfbfbf" stroke="black" points="0.5,-456.5 0.5,-475.5 93.5,-475.5 93.5,-456.5 0.5,-456.5"/>
<text text-anchor="middle" x="47" y="-463.5" font-family="Helvetica,sans-Serif" font-size="10.00">CANJaguar::verify</text>
</g>
<!-- Node2 -->
<g id="node3" class="node"><title>Node2</title>
<a xlink:href="class_c_a_n_jaguar.html#a6bf10ae6a799ca57c6bf165e36ff91d1" target="_top" xlink:title="CANJaguar::getMessage">
<polygon fill="white" stroke="black" points="504.5,-471.5 504.5,-490.5 629.5,-490.5 629.5,-471.5 504.5,-471.5"/>
<text text-anchor="middle" x="567" y="-478.5" font-family="Helvetica,sans-Serif" font-size="10.00">CANJaguar::getMessage</text>
</a>
</g>
<!-- Node1&#45;&gt;Node2 -->
<g id="edge2" class="edge"><title>Node1&#45;&gt;Node2</title>
<path fill="none" stroke="midnightblue" d="M48.4797,-475.552C51.4304,-530.024 69.0523,-800.693 130,-850 304.998,-991.574 512.446,-591.976 557.214,-499.595"/>
<polygon fill="midnightblue" stroke="midnightblue" points="560.386,-501.076 561.553,-490.545 554.074,-498.049 560.386,-501.076"/>
</g>
<!-- Node3 -->
<g id="node5" class="node"><title>Node3</title>
<a xlink:href="class_c_a_n_jaguar.html#a6b82b54cc4033c3c5218ab04fb6c8282" target="_top" xlink:title="CANJaguar::sendMessage">
<polygon fill="white" stroke="black" points="334,-481.5 334,-500.5 466,-500.5 466,-481.5 334,-481.5"/>
<text text-anchor="middle" x="400" y="-488.5" font-family="Helvetica,sans-Serif" font-size="10.00">CANJaguar::sendMessage</text>
</a>
</g>
<!-- Node1&#45;&gt;Node3 -->
<g id="edge4" class="edge"><title>Node1&#45;&gt;Node3</title>
<path fill="none" stroke="midnightblue" d="M48.6821,-475.825C52.5488,-528.335 73.5769,-775.153 130,-820 187.756,-865.907 236.547,-863.686 296,-820 347.756,-781.97 385.123,-576.48 395.853,-511.033"/>
<polygon fill="midnightblue" stroke="midnightblue" points="399.362,-511.255 397.494,-500.826 392.451,-510.143 399.362,-511.255"/>
</g>
<!-- Node4 -->
<g id="node7" class="node"><title>Node4</title>
<a xlink:href="class_c_a_n_jaguar.html#a1ead0b3695a9db3ce94c3b5047ed6f73" target="_top" xlink:title="CANJaguar::requestMessage">
<polygon fill="white" stroke="black" points="141.5,-791.5 141.5,-810.5 284.5,-810.5 284.5,-791.5 141.5,-791.5"/>
<text text-anchor="middle" x="213" y="-798.5" font-family="Helvetica,sans-Serif" font-size="10.00">CANJaguar::requestMessage</text>
</a>
</g>
<!-- Node1&#45;&gt;Node4 -->
<g id="edge6" class="edge"><title>Node1&#45;&gt;Node4</title>
<path fill="none" stroke="midnightblue" d="M49.1444,-475.519C55.0858,-523.369 83.92,-737.112 130,-782 131.452,-783.415 132.988,-784.732 134.594,-785.958"/>
<polygon fill="midnightblue" stroke="midnightblue" points="132.823,-788.979 143.147,-791.359 136.56,-783.06 132.823,-788.979"/>
</g>
<!-- Node5 -->
<g id="node9" class="node"><title>Node5</title>
<a xlink:href="class_c_a_n_jaguar.html#af25bed87c7d97429b0472b52f92b186e" target="_top" xlink:title="CANJaguar::EnableControl">
<polygon fill="white" stroke="black" points="147,-753.5 147,-772.5 279,-772.5 279,-753.5 147,-753.5"/>
<text text-anchor="middle" x="213" y="-760.5" font-family="Helvetica,sans-Serif" font-size="10.00">CANJaguar::EnableControl</text>
</a>
</g>
<!-- Node1&#45;&gt;Node5 -->
<g id="edge8" class="edge"><title>Node1&#45;&gt;Node5</title>
<path fill="none" stroke="midnightblue" d="M47.6472,-475.621C46.751,-515.276 48.8915,-667.552 130,-744 132.446,-746.305 135.114,-748.35 137.945,-750.162"/>
<polygon fill="midnightblue" stroke="midnightblue" points="136.397,-753.303 146.866,-754.928 139.695,-747.128 136.397,-753.303"/>
</g>
<!-- Node6 -->
<g id="node12" class="node"><title>Node6</title>
<a xlink:href="class_c_a_n_jaguar.html#ac6780a940570ec0386d234b309fb260d" target="_top" xlink:title="CANJaguar::SetSpeedReference">
<polygon fill="white" stroke="black" points="134,-715.5 134,-734.5 292,-734.5 292,-715.5 134,-715.5"/>
<text text-anchor="middle" x="213" y="-722.5" font-family="Helvetica,sans-Serif" font-size="10.00">CANJaguar::SetSpeedReference</text>
</a>
</g>
<!-- Node1&#45;&gt;Node6 -->
<g id="edge12" class="edge"><title>Node1&#45;&gt;Node6</title>
<path fill="none" stroke="midnightblue" d="M48.1592,-475.54C49.3054,-511.677 58.4418,-641.363 130,-706 131.718,-707.552 133.538,-708.985 135.44,-710.307"/>
<polygon fill="midnightblue" stroke="midnightblue" points="133.841,-713.426 144.246,-715.423 137.358,-707.373 133.841,-713.426"/>
</g>
<!-- Node7 -->
<g id="node15" class="node"><title>Node7</title>
<a xlink:href="class_c_a_n_jaguar.html#a4ea009bbaaa337eeb10efba61203ee38" target="_top" xlink:title="CANJaguar::SetPositionReference">
<polygon fill="white" stroke="black" points="130.5,-677.5 130.5,-696.5 295.5,-696.5 295.5,-677.5 130.5,-677.5"/>
<text text-anchor="middle" x="213" y="-684.5" font-family="Helvetica,sans-Serif" font-size="10.00">CANJaguar::SetPositionReference</text>
</a>
</g>
<!-- Node1&#45;&gt;Node7 -->
<g id="edge16" class="edge"><title>Node1&#45;&gt;Node7</title>
<path fill="none" stroke="midnightblue" d="M48.873,-475.82C52.3348,-508.602 68.0996,-615.177 130,-668 131.806,-669.541 133.714,-670.964 135.702,-672.276"/>
<polygon fill="midnightblue" stroke="midnightblue" points="134.432,-675.573 144.877,-677.35 137.82,-669.448 134.432,-675.573"/>
</g>
<!-- Node8 -->
<g id="node18" class="node"><title>Node8</title>
<a xlink:href="class_c_a_n_jaguar.html#a22a1787a38fd35abc2cdf15bb7d81da5" target="_top" xlink:title="CANJaguar::SetP">
<polygon fill="white" stroke="black" points="166.5,-639.5 166.5,-658.5 259.5,-658.5 259.5,-639.5 166.5,-639.5"/>
<text text-anchor="middle" x="213" y="-646.5" font-family="Helvetica,sans-Serif" font-size="10.00">CANJaguar::SetP</text>
</a>
</g>
<!-- Node1&#45;&gt;Node8 -->
<g id="edge20" class="edge"><title>Node1&#45;&gt;Node8</title>
<path fill="none" stroke="midnightblue" d="M49.8202,-475.567C55.7478,-503.973 77.2452,-588.426 130,-630 137.667,-636.042 146.915,-640.224 156.398,-643.106"/>
<polygon fill="midnightblue" stroke="midnightblue" points="155.751,-646.554 166.309,-645.662 157.5,-639.776 155.751,-646.554"/>
</g>
<!-- Node9 -->
<g id="node21" class="node"><title>Node9</title>
<a xlink:href="class_c_a_n_jaguar.html#a99abdf41fc6ce39d51f0c9d2fbbcfcb0" target="_top" xlink:title="CANJaguar::SetI">
<polygon fill="white" stroke="black" points="168.5,-601.5 168.5,-620.5 257.5,-620.5 257.5,-601.5 168.5,-601.5"/>
<text text-anchor="middle" x="213" y="-608.5" font-family="Helvetica,sans-Serif" font-size="10.00">CANJaguar::SetI</text>
</a>
</g>
<!-- Node1&#45;&gt;Node9 -->
<g id="edge24" class="edge"><title>Node1&#45;&gt;Node9</title>
<path fill="none" stroke="midnightblue" d="M51.3766,-475.705C60.2099,-499.584 86.3832,-561.465 130,-592 138.35,-597.846 148.237,-601.916 158.204,-604.745"/>
<polygon fill="midnightblue" stroke="midnightblue" points="157.598,-608.2 168.143,-607.18 159.263,-601.401 157.598,-608.2"/>
</g>
<!-- Node10 -->
<g id="node24" class="node"><title>Node10</title>
<a xlink:href="class_c_a_n_jaguar.html#a5c5228b40626981bcb5009044edc28d7" target="_top" xlink:title="CANJaguar::SetD">
<polygon fill="white" stroke="black" points="166.5,-563.5 166.5,-582.5 259.5,-582.5 259.5,-563.5 166.5,-563.5"/>
<text text-anchor="middle" x="213" y="-570.5" font-family="Helvetica,sans-Serif" font-size="10.00">CANJaguar::SetD</text>
</a>
</g>
<!-- Node1&#45;&gt;Node10 -->
<g id="edge28" class="edge"><title>Node1&#45;&gt;Node10</title>
<path fill="none" stroke="midnightblue" d="M54.1147,-475.7C66.22,-494.055 95.1082,-533.828 130,-554 138.083,-558.673 147.239,-562.197 156.429,-564.854"/>
<polygon fill="midnightblue" stroke="midnightblue" points="155.808,-568.309 166.365,-567.411 157.552,-561.529 155.808,-568.309"/>
</g>
<!-- Node11 -->
<g id="node27" class="node"><title>Node11</title>
<a xlink:href="class_c_a_n_jaguar.html#a66762a840c7c030b74b60652bcb4004f" target="_top" xlink:title="CANJaguar::ConfigNeutralMode">
<polygon fill="white" stroke="black" points="136.5,-525.5 136.5,-544.5 289.5,-544.5 289.5,-525.5 136.5,-525.5"/>
<text text-anchor="middle" x="213" y="-532.5" font-family="Helvetica,sans-Serif" font-size="10.00">CANJaguar::ConfigNeutralMode</text>
</a>
</g>
<!-- Node1&#45;&gt;Node11 -->
<g id="edge32" class="edge"><title>Node1&#45;&gt;Node11</title>
<path fill="none" stroke="midnightblue" d="M61.2678,-475.644C76.9614,-486.634 104.219,-504.435 130,-515 137.15,-517.93 144.834,-520.502 152.529,-522.738"/>
<polygon fill="midnightblue" stroke="midnightblue" points="151.672,-526.133 162.241,-525.394 153.518,-519.38 151.672,-526.133"/>
</g>
<!-- Node12 -->
<g id="node30" class="node"><title>Node12</title>
<a xlink:href="class_c_a_n_jaguar.html#a24bce09f963f2f7f0c38000197551e2d" target="_top" xlink:title="CANJaguar::ConfigEncoder\lCodesPerRev">
<polygon fill="white" stroke="black" points="146,-476 146,-506 280,-506 280,-476 146,-476"/>
<text text-anchor="start" x="154" y="-494" font-family="Helvetica,sans-Serif" font-size="10.00">CANJaguar::ConfigEncoder</text>
<text text-anchor="middle" x="213" y="-483" font-family="Helvetica,sans-Serif" font-size="10.00">CodesPerRev</text>
</a>
</g>
<!-- Node1&#45;&gt;Node12 -->
<g id="edge36" class="edge"><title>Node1&#45;&gt;Node12</title>
<path fill="none" stroke="midnightblue" d="M93.6831,-472.964C106.774,-474.96 121.413,-477.191 135.812,-479.386"/>
<polygon fill="midnightblue" stroke="midnightblue" points="135.306,-482.849 145.72,-480.896 136.361,-475.929 135.306,-482.849"/>
</g>
<!-- Node13 -->
<g id="node33" class="node"><title>Node13</title>
<a xlink:href="class_c_a_n_jaguar.html#aefcfcbee61541f69cae47ea1ef405f17" target="_top" xlink:title="CANJaguar::ConfigPotentiometer\lTurns">
<polygon fill="white" stroke="black" points="133.5,-427 133.5,-457 292.5,-457 292.5,-427 133.5,-427"/>
<text text-anchor="start" x="141.5" y="-445" font-family="Helvetica,sans-Serif" font-size="10.00">CANJaguar::ConfigPotentiometer</text>
<text text-anchor="middle" x="213" y="-434" font-family="Helvetica,sans-Serif" font-size="10.00">Turns</text>
</a>
</g>
<!-- Node1&#45;&gt;Node13 -->
<g id="edge40" class="edge"><title>Node1&#45;&gt;Node13</title>
<path fill="none" stroke="midnightblue" d="M93.6831,-459.315C102.924,-457.962 112.936,-456.497 123.09,-455.011"/>
<polygon fill="midnightblue" stroke="midnightblue" points="123.881,-458.433 133.269,-453.522 122.867,-451.507 123.881,-458.433"/>
</g>
<!-- Node14 -->
<g id="node36" class="node"><title>Node14</title>
<a xlink:href="class_c_a_n_jaguar.html#aeb878aff41701ed6d2bb0732a0beb07a" target="_top" xlink:title="CANJaguar::ConfigLimitMode">
<polygon fill="white" stroke="black" points="141.5,-388.5 141.5,-407.5 284.5,-407.5 284.5,-388.5 141.5,-388.5"/>
<text text-anchor="middle" x="213" y="-395.5" font-family="Helvetica,sans-Serif" font-size="10.00">CANJaguar::ConfigLimitMode</text>
</a>
</g>
<!-- Node1&#45;&gt;Node14 -->
<g id="edge44" class="edge"><title>Node1&#45;&gt;Node14</title>
<path fill="none" stroke="midnightblue" d="M61.5818,-456.375C77.3482,-445.61 104.462,-428.331 130,-418 137.259,-415.063 145.06,-412.481 152.862,-410.234"/>
<polygon fill="midnightblue" stroke="midnightblue" points="153.967,-413.561 162.702,-407.564 152.134,-406.805 153.967,-413.561"/>
</g>
<!-- Node15 -->
<g id="node39" class="node"><title>Node15</title>
<a xlink:href="class_c_a_n_jaguar.html#a99204e2c841e2088d5b42dff35a8212e" target="_top" xlink:title="CANJaguar::ConfigForward\lLimit">
<polygon fill="white" stroke="black" points="146.5,-339 146.5,-369 279.5,-369 279.5,-339 146.5,-339"/>
<text text-anchor="start" x="154.5" y="-357" font-family="Helvetica,sans-Serif" font-size="10.00">CANJaguar::ConfigForward</text>
<text text-anchor="middle" x="213" y="-346" font-family="Helvetica,sans-Serif" font-size="10.00">Limit</text>
</a>
</g>
<!-- Node1&#45;&gt;Node15 -->
<g id="edge48" class="edge"><title>Node1&#45;&gt;Node15</title>
<path fill="none" stroke="midnightblue" d="M54.4637,-456.346C66.945,-438.445 96.14,-400.015 130,-379 133.389,-376.897 136.966,-374.96 140.656,-373.178"/>
<polygon fill="midnightblue" stroke="midnightblue" points="142.273,-376.291 150.016,-369.06 139.454,-369.883 142.273,-376.291"/>
</g>
<!-- Node16 -->
<g id="node42" class="node"><title>Node16</title>
<a xlink:href="class_c_a_n_jaguar.html#a67c5f0698f1faa97629bd1b31aa7880b" target="_top" xlink:title="CANJaguar::ConfigReverse\lLimit">
<polygon fill="white" stroke="black" points="146.5,-290 146.5,-320 279.5,-320 279.5,-290 146.5,-290"/>
<text text-anchor="start" x="154.5" y="-308" font-family="Helvetica,sans-Serif" font-size="10.00">CANJaguar::ConfigReverse</text>
<text text-anchor="middle" x="213" y="-297" font-family="Helvetica,sans-Serif" font-size="10.00">Limit</text>
</a>
</g>
<!-- Node1&#45;&gt;Node16 -->
<g id="edge52" class="edge"><title>Node1&#45;&gt;Node16</title>
<path fill="none" stroke="midnightblue" d="M51.0358,-456.458C59.4047,-431.702 85.2039,-364.915 130,-330 132.311,-328.199 134.752,-326.527 137.288,-324.975"/>
<polygon fill="midnightblue" stroke="midnightblue" points="139.095,-327.976 146.233,-320.146 135.77,-321.816 139.095,-327.976"/>
</g>
<!-- Node17 -->
<g id="node45" class="node"><title>Node17</title>
<a xlink:href="class_c_a_n_jaguar.html#a44ea3760f054da59612cb0c3972c0696" target="_top" xlink:title="CANJaguar::ConfigMaxOutput\lVoltage">
<polygon fill="white" stroke="black" points="140,-241 140,-271 286,-271 286,-241 140,-241"/>
<text text-anchor="start" x="148" y="-259" font-family="Helvetica,sans-Serif" font-size="10.00">CANJaguar::ConfigMaxOutput</text>
<text text-anchor="middle" x="213" y="-248" font-family="Helvetica,sans-Serif" font-size="10.00">Voltage</text>
</a>
</g>
<!-- Node1&#45;&gt;Node17 -->
<g id="edge56" class="edge"><title>Node1&#45;&gt;Node17</title>
<path fill="none" stroke="midnightblue" d="M49.4215,-456.294C54.4132,-425.737 73.977,-330.609 130,-281 131.765,-279.437 133.626,-277.971 135.564,-276.597"/>
<polygon fill="midnightblue" stroke="midnightblue" points="137.787,-279.341 144.497,-271.142 134.138,-273.367 137.787,-279.341"/>
</g>
<!-- Node18 -->
<g id="node48" class="node"><title>Node18</title>
<a xlink:href="class_c_a_n_jaguar.html#aa9b1c6a444e51e830812fd4484964388" target="_top" xlink:title="CANJaguar::SetVoltageRampRate">
<polygon fill="white" stroke="black" points="130.5,-202.5 130.5,-221.5 295.5,-221.5 295.5,-202.5 130.5,-202.5"/>
<text text-anchor="middle" x="213" y="-209.5" font-family="Helvetica,sans-Serif" font-size="10.00">CANJaguar::SetVoltageRampRate</text>
</a>
</g>
<!-- Node1&#45;&gt;Node18 -->
<g id="edge60" class="edge"><title>Node1&#45;&gt;Node18</title>
<path fill="none" stroke="midnightblue" d="M48.2884,-456.23C49.8977,-420.4 60.4781,-295.033 130,-232 132.314,-229.902 134.81,-228.015 137.444,-226.318"/>
<polygon fill="midnightblue" stroke="midnightblue" points="139.15,-229.374 146.262,-221.521 135.805,-223.226 139.15,-229.374"/>
</g>
<!-- Node19 -->
<g id="node51" class="node"><title>Node19</title>
<a xlink:href="class_c_a_n_jaguar.html#acf67e7f7a57b6d8d657897bed2d21b98" target="_top" xlink:title="CANJaguar::ConfigFaultTime">
<polygon fill="white" stroke="black" points="142.5,-164.5 142.5,-183.5 283.5,-183.5 283.5,-164.5 142.5,-164.5"/>
<text text-anchor="middle" x="213" y="-171.5" font-family="Helvetica,sans-Serif" font-size="10.00">CANJaguar::ConfigFaultTime</text>
</a>
</g>
<!-- Node1&#45;&gt;Node19 -->
<g id="edge64" class="edge"><title>Node1&#45;&gt;Node19</title>
<path fill="none" stroke="midnightblue" d="M47.7058,-456.282C47.0761,-416.912 50.2267,-267.817 130,-193 131.519,-191.575 133.123,-190.251 134.797,-189.019"/>
<polygon fill="midnightblue" stroke="midnightblue" points="136.972,-191.793 143.695,-183.604 133.333,-185.813 136.972,-191.793"/>
</g>
<!-- Node20 -->
<g id="node54" class="node"><title>Node20</title>
<a xlink:href="class_c_a_n_jaguar.html#a1515a39fbac1a3b7e9e8cc79fe2233ec" target="_top" xlink:title="CANJaguar::setupPeriodic\lStatus">
<polygon fill="white" stroke="black" points="147.5,-115 147.5,-145 278.5,-145 278.5,-115 147.5,-115"/>
<text text-anchor="start" x="155.5" y="-133" font-family="Helvetica,sans-Serif" font-size="10.00">CANJaguar::setupPeriodic</text>
<text text-anchor="middle" x="213" y="-122" font-family="Helvetica,sans-Serif" font-size="10.00">Status</text>
</a>
</g>
<!-- Node1&#45;&gt;Node20 -->
<g id="edge68" class="edge"><title>Node1&#45;&gt;Node20</title>
<path fill="none" stroke="midnightblue" d="M49.2686,-456.377C55.7024,-408.954 86.1453,-200.559 130,-155 132.632,-152.266 135.553,-149.828 138.68,-147.655"/>
<polygon fill="midnightblue" stroke="midnightblue" points="140.561,-150.609 147.379,-142.5 136.992,-144.587 140.561,-150.609"/>
</g>
<!-- Node21 -->
<g id="node57" class="node"><title>Node21</title>
<a xlink:href="class_c_a_n_jaguar.html#a22612130552d75e71b80f65f0013b9dc" target="_top" xlink:title="CANJaguar::GetTemperature">
<polygon fill="white" stroke="black" points="142.5,-76.5 142.5,-95.5 283.5,-95.5 283.5,-76.5 142.5,-76.5"/>
<text text-anchor="middle" x="213" y="-83.5" font-family="Helvetica,sans-Serif" font-size="10.00">CANJaguar::GetTemperature</text>
</a>
</g>
<!-- Node1&#45;&gt;Node21 -->
<g id="edge72" class="edge"><title>Node1&#45;&gt;Node21</title>
<path fill="none" stroke="midnightblue" d="M48.8419,-456.199C53.5401,-403.786 78.1907,-157.034 130,-105 131.431,-103.563 132.947,-102.226 134.536,-100.983"/>
<polygon fill="midnightblue" stroke="midnightblue" points="136.512,-103.873 143.019,-95.512 132.718,-97.9901 136.512,-103.873"/>
</g>
<!-- Node23 -->
<g id="node62" class="node"><title>Node23</title>
<a xlink:href="class_c_a_n_jaguar.html#a7b2f80fccf8ca7bb7413c9f25e12f99a" target="_top" xlink:title="CANJaguar::GetPosition">
<polygon fill="white" stroke="black" points="152,-38.5 152,-57.5 274,-57.5 274,-38.5 152,-38.5"/>
<text text-anchor="middle" x="213" y="-45.5" font-family="Helvetica,sans-Serif" font-size="10.00">CANJaguar::GetPosition</text>
</a>
</g>
<!-- Node1&#45;&gt;Node23 -->
<g id="edge78" class="edge"><title>Node1&#45;&gt;Node23</title>
<path fill="none" stroke="midnightblue" d="M48.6085,-456.291C52.2763,-400.895 73.2168,-125.221 130,-67 133.668,-63.2388 137.924,-60.1593 142.529,-57.6442"/>
<polygon fill="midnightblue" stroke="midnightblue" points="144.084,-60.7821 151.753,-53.4723 141.2,-54.404 144.084,-60.7821"/>
</g>
<!-- Node24 -->
<g id="node65" class="node"><title>Node24</title>
<a xlink:href="class_c_a_n_jaguar.html#aa64fd18ae27ff40b16add78ffa38c23d" target="_top" xlink:title="CANJaguar::GetFaults">
<polygon fill="white" stroke="black" points="156,-0.5 156,-19.5 270,-19.5 270,-0.5 156,-0.5"/>
<text text-anchor="middle" x="213" y="-7.5" font-family="Helvetica,sans-Serif" font-size="10.00">CANJaguar::GetFaults</text>
</a>
</g>
<!-- Node1&#45;&gt;Node24 -->
<g id="edge82" class="edge"><title>Node1&#45;&gt;Node24</title>
<path fill="none" stroke="midnightblue" d="M48.4281,-456.153C51.183,-397.386 68.3008,-93.3597 130,-29 134.579,-24.2233 140.104,-20.542 146.097,-17.718"/>
<polygon fill="midnightblue" stroke="midnightblue" points="147.767,-20.8247 155.83,-13.9517 145.241,-14.2964 147.767,-20.8247"/>
</g>
<!-- Node5&#45;&gt;Node3 -->
<g id="edge10" class="edge"><title>Node5&#45;&gt;Node3</title>
<path fill="none" stroke="midnightblue" d="M279.091,-754.249C285.217,-751.619 290.996,-748.266 296,-744 369.505,-681.338 391.246,-558.242 397.062,-510.537"/>
<polygon fill="midnightblue" stroke="midnightblue" points="400.542,-510.913 398.173,-500.587 393.585,-510.137 400.542,-510.913"/>
</g>
<!-- Node6&#45;&gt;Node3 -->
<g id="edge14" class="edge"><title>Node6&#45;&gt;Node3</title>
<path fill="none" stroke="midnightblue" d="M280.065,-715.415C285.787,-712.931 291.212,-709.839 296,-706 360.322,-654.424 386.907,-552.936 395.538,-510.439"/>
<polygon fill="midnightblue" stroke="midnightblue" points="398.991,-511.017 397.436,-500.537 392.116,-509.7 398.991,-511.017"/>
</g>
<!-- Node7&#45;&gt;Node3 -->
<g id="edge18" class="edge"><title>Node7&#45;&gt;Node3</title>
<path fill="none" stroke="midnightblue" d="M278.921,-677.346C285.009,-674.885 290.826,-671.818 296,-668 351.199,-627.267 381.703,-547.383 393.379,-510.507"/>
<polygon fill="midnightblue" stroke="midnightblue" points="396.733,-511.508 396.293,-500.923 390.036,-509.473 396.733,-511.508"/>
</g>
<!-- Node8&#45;&gt;Node3 -->
<g id="edge22" class="edge"><title>Node8&#45;&gt;Node3</title>
<path fill="none" stroke="midnightblue" d="M259.699,-644.302C272.196,-641.5 285.246,-637.052 296,-630 342.712,-599.37 375.913,-539.885 390.582,-509.635"/>
<polygon fill="midnightblue" stroke="midnightblue" points="393.751,-511.12 394.838,-500.581 387.416,-508.141 393.751,-511.12"/>
</g>
<!-- Node9&#45;&gt;Node3 -->
<g id="edge26" class="edge"><title>Node9&#45;&gt;Node3</title>
<path fill="none" stroke="midnightblue" d="M257.751,-605.465C270.609,-602.644 284.34,-598.395 296,-592 334.384,-570.949 368.371,-531.557 386.07,-508.686"/>
<polygon fill="midnightblue" stroke="midnightblue" points="388.995,-510.621 392.23,-500.532 383.409,-506.401 388.995,-510.621"/>
</g>
<!-- Node10&#45;&gt;Node3 -->
<g id="edge30" class="edge"><title>Node10&#45;&gt;Node3</title>
<path fill="none" stroke="midnightblue" d="M259.922,-565.089C271.905,-562.291 284.639,-558.648 296,-554 326.284,-541.611 357.931,-520.908 378.02,-506.635"/>
<polygon fill="midnightblue" stroke="midnightblue" points="380.337,-509.279 386.39,-500.583 376.235,-503.606 380.337,-509.279"/>
</g>
<!-- Node11&#45;&gt;Node3 -->
<g id="edge34" class="edge"><title>Node11&#45;&gt;Node3</title>
<path fill="none" stroke="midnightblue" d="M254.142,-525.453C282.021,-518.822 319.362,-509.941 349.149,-502.857"/>
<polygon fill="midnightblue" stroke="midnightblue" points="350.017,-506.248 358.936,-500.529 348.398,-499.438 350.017,-506.248"/>
</g>
<!-- Node12&#45;&gt;Node3 -->
<g id="edge38" class="edge"><title>Node12&#45;&gt;Node3</title>
<path fill="none" stroke="midnightblue" d="M280.006,-491C294.117,-491 309.128,-491 323.563,-491"/>
<polygon fill="midnightblue" stroke="midnightblue" points="323.952,-494.5 333.952,-491 323.952,-487.5 323.952,-494.5"/>
</g>
<!-- Node13&#45;&gt;Node3 -->
<g id="edge42" class="edge"><title>Node13&#45;&gt;Node3</title>
<path fill="none" stroke="midnightblue" d="M270.763,-457.035C297.182,-464.032 328.196,-472.247 353.107,-478.844"/>
<polygon fill="midnightblue" stroke="midnightblue" points="352.464,-482.295 363.027,-481.472 354.257,-475.528 352.464,-482.295"/>
</g>
<!-- Node14&#45;&gt;Node3 -->
<g id="edge46" class="edge"><title>Node14&#45;&gt;Node3</title>
<path fill="none" stroke="midnightblue" d="M266.18,-407.591C276.308,-410.32 286.667,-413.744 296,-418 328.31,-432.736 360.98,-458.06 380.612,-474.668"/>
<polygon fill="midnightblue" stroke="midnightblue" points="378.568,-477.527 388.428,-481.405 383.139,-472.225 378.568,-477.527"/>
</g>
<!-- Node15&#45;&gt;Node3 -->
<g id="edge50" class="edge"><title>Node15&#45;&gt;Node3</title>
<path fill="none" stroke="midnightblue" d="M276.457,-369.159C283.291,-371.939 289.953,-375.196 296,-379 335.653,-403.948 369.797,-448.08 387.035,-472.843"/>
<polygon fill="midnightblue" stroke="midnightblue" points="384.272,-475.005 392.79,-481.306 390.06,-471.068 384.272,-475.005"/>
</g>
<!-- Node16&#45;&gt;Node3 -->
<g id="edge54" class="edge"><title>Node16&#45;&gt;Node3</title>
<path fill="none" stroke="midnightblue" d="M279.246,-320.09C285.201,-322.86 290.901,-326.133 296,-330 346.101,-367.992 378.466,-437.953 391.901,-471.739"/>
<polygon fill="midnightblue" stroke="midnightblue" points="388.741,-473.273 395.596,-481.352 395.275,-470.762 388.741,-473.273"/>
</g>
<!-- Node17&#45;&gt;Node3 -->
<g id="edge58" class="edge"><title>Node17&#45;&gt;Node3</title>
<path fill="none" stroke="midnightblue" d="M280.939,-271.117C286.349,-273.877 291.467,-277.14 296,-281 357.174,-333.089 385.314,-430.105 394.941,-471.485"/>
<polygon fill="midnightblue" stroke="midnightblue" points="391.554,-472.379 397.133,-481.386 398.389,-470.866 391.554,-472.379"/>
</g>
<!-- Node18&#45;&gt;Node3 -->
<g id="edge62" class="edge"><title>Node18&#45;&gt;Node3</title>
<path fill="none" stroke="midnightblue" d="M279.149,-221.545C285.264,-224.249 291.024,-227.673 296,-232 370.54,-296.82 391.696,-422.95 397.209,-471.397"/>
<polygon fill="midnightblue" stroke="midnightblue" points="393.741,-471.892 398.252,-481.479 400.704,-471.172 393.741,-471.892"/>
</g>
<!-- Node19&#45;&gt;Node3 -->
<g id="edge66" class="edge"><title>Node19&#45;&gt;Node3</title>
<path fill="none" stroke="midnightblue" d="M281.74,-183.593C286.916,-186.095 291.764,-189.187 296,-193 380.528,-269.08 395.696,-417.94 398.411,-471.345"/>
<polygon fill="midnightblue" stroke="midnightblue" points="394.92,-471.645 398.83,-481.492 401.914,-471.356 394.92,-471.645"/>
</g>
<!-- Node20&#45;&gt;Node3 -->
<g id="edge70" class="edge"><title>Node20&#45;&gt;Node3</title>
<path fill="none" stroke="midnightblue" d="M278.825,-142.899C285.154,-146.087 291.05,-150.058 296,-155 386.681,-245.543 397.897,-413.681 399.001,-471.147"/>
<polygon fill="midnightblue" stroke="midnightblue" points="395.504,-471.423 399.108,-481.386 402.503,-471.35 395.504,-471.423"/>
</g>
<!-- Node22 -->
<g id="node59" class="node"><title>Node22</title>
<a xlink:href="class_c_a_n_jaguar.html#a9436c9b85c0b008bb3276e7283176603" target="_top" xlink:title="CANJaguar::updatePeriodic\lStatus">
<polygon fill="white" stroke="black" points="332,-52 332,-82 468,-82 468,-52 332,-52"/>
<text text-anchor="start" x="340" y="-70" font-family="Helvetica,sans-Serif" font-size="10.00">CANJaguar::updatePeriodic</text>
<text text-anchor="middle" x="400" y="-59" font-family="Helvetica,sans-Serif" font-size="10.00">Status</text>
</a>
</g>
<!-- Node21&#45;&gt;Node22 -->
<g id="edge74" class="edge"><title>Node21&#45;&gt;Node22</title>
<path fill="none" stroke="midnightblue" d="M283.677,-78.844C296.123,-77.5657 309.158,-76.2271 321.8,-74.9287"/>
<polygon fill="midnightblue" stroke="midnightblue" points="322.246,-78.4014 331.836,-73.898 321.53,-71.438 322.246,-78.4014"/>
</g>
<!-- Node22&#45;&gt;Node2 -->
<g id="edge76" class="edge"><title>Node22&#45;&gt;Node2</title>
<path fill="none" stroke="midnightblue" d="M407.068,-82.2255C432.452,-145.915 530.107,-390.942 558.324,-461.74"/>
<polygon fill="midnightblue" stroke="midnightblue" points="555.148,-463.224 562.101,-471.218 561.65,-460.633 555.148,-463.224"/>
</g>
<!-- Node23&#45;&gt;Node22 -->
<g id="edge80" class="edge"><title>Node23&#45;&gt;Node22</title>
<path fill="none" stroke="midnightblue" d="M274.064,-54.1688C289.21,-55.7243 305.684,-57.4162 321.551,-59.0458"/>
<polygon fill="midnightblue" stroke="midnightblue" points="321.565,-62.5656 331.87,-60.1056 322.28,-55.6022 321.565,-62.5656"/>
</g>
<!-- Node24&#45;&gt;Node22 -->
<g id="edge84" class="edge"><title>Node24&#45;&gt;Node22</title>
<path fill="none" stroke="midnightblue" d="M259.81,-19.5426C271.674,-22.3062 284.379,-25.5251 296,-29 314.643,-34.5749 334.798,-41.7469 352.294,-48.3555"/>
<polygon fill="midnightblue" stroke="midnightblue" points="351.123,-51.6549 361.714,-51.9553 353.622,-45.1161 351.123,-51.6549"/>
</g>
</g>
</svg>
