<?xml version="1.0" encoding="UTF-8" standalone="no"?>
<!DOCTYPE svg PUBLIC "-//W3C//DTD SVG 1.1//EN"
 "http://www.w3.org/Graphics/SVG/1.1/DTD/svg11.dtd">
<!-- Generated by graphviz version 2.28.0 (20110507.0327)
 -->
<!-- Title: Solenoid::~Solenoid Pages: 1 -->
<svg width="290pt" height="77pt"
 viewBox="0.00 0.00 290.00 77.00" xmlns="http://www.w3.org/2000/svg" xmlns:xlink="http://www.w3.org/1999/xlink">
<g id="graph1" class="graph" transform="scale(1 1) rotate(0) translate(4 73)">
<title>Solenoid::~Solenoid</title>
<polygon fill="white" stroke="white" points="-4,5 -4,-73 287,-73 287,5 -4,5"/>
<!-- Node1 -->
<g id="node1" class="node"><title>Node1</title>
<polygon fill="#bfbfbf" stroke="black" points="0,-22.5 0,-41.5 104,-41.5 104,-22.5 0,-22.5"/>
<text text-anchor="middle" x="52" y="-29.5" font-family="Helvetica,sans-Serif" font-size="10.00">Solenoid::~Solenoid</text>
</g>
<!-- Node2 -->
<g id="node3" class="node"><title>Node2</title>
<a xlink:href="class_sensor_base.html#aacc7c789e0b8dd975aad71c78be4f308" target="_top" xlink:title="SensorBase::CheckSolenoid\lModule">
<polygon fill="white" stroke="black" points="140.5,-39 140.5,-69 281.5,-69 281.5,-39 140.5,-39"/>
<text text-anchor="start" x="148.5" y="-57" font-family="Helvetica,sans-Serif" font-size="10.00">SensorBase::CheckSolenoid</text>
<text text-anchor="middle" x="211" y="-46" font-family="Helvetica,sans-Serif" font-size="10.00">Module</text>
</a>
</g>
<!-- Node1&#45;&gt;Node2 -->
<g id="edge2" class="edge"><title>Node1&#45;&gt;Node2</title>
<path fill="none" stroke="midnightblue" d="M104.408,-39.2036C112.725,-40.3691 121.504,-41.5993 130.303,-42.8323"/>
<polygon fill="midnightblue" stroke="midnightblue" points="129.834,-46.3007 140.223,-44.2224 130.806,-39.3684 129.834,-46.3007"/>
</g>
<!-- Node3 -->
<g id="node5" class="node"><title>Node3</title>
<a xlink:href="class_resource.html#acb86b8c2fc22b8f5ba324db1a9ef4f17" target="_top" xlink:title="Resource::Free">
<polygon fill="white" stroke="black" points="169.5,-0.5 169.5,-19.5 252.5,-19.5 252.5,-0.5 169.5,-0.5"/>
<text text-anchor="middle" x="211" y="-7.5" font-family="Helvetica,sans-Serif" font-size="10.00">Resource::Free</text>
</a>
</g>
<!-- Node1&#45;&gt;Node3 -->
<g id="edge4" class="edge"><title>Node1&#45;&gt;Node3</title>
<path fill="none" stroke="midnightblue" d="M104.408,-24.7964C122.05,-22.3241 141.774,-19.5603 159.356,-17.0966"/>
<polygon fill="midnightblue" stroke="midnightblue" points="160.011,-20.5391 169.428,-15.6852 159.039,-13.6069 160.011,-20.5391"/>
</g>
</g>
</svg>
