<?xml version="1.0" encoding="UTF-8" standalone="no"?>
<!DOCTYPE svg PUBLIC "-//W3C//DTD SVG 1.1//EN"
 "http://www.w3.org/Graphics/SVG/1.1/DTD/svg11.dtd">
<!-- Generated by graphviz version 2.28.0 (20110507.0327)
 -->
<!-- Title: Preferences Pages: 1 -->
<svg width="163pt" height="164pt"
 viewBox="0.00 0.00 163.00 164.00" xmlns="http://www.w3.org/2000/svg" xmlns:xlink="http://www.w3.org/1999/xlink">
<g id="graph1" class="graph" transform="scale(1 1) rotate(0) translate(4 160)">
<title>Preferences</title>
<polygon fill="white" stroke="white" points="-4,5 -4,-160 160,-160 160,5 -4,5"/>
<!-- Node1 -->
<g id="node1" class="node"><title>Node1</title>
<polygon fill="#bfbfbf" stroke="black" points="61,-0.5 61,-19.5 129,-19.5 129,-0.5 61,-0.5"/>
<text text-anchor="middle" x="95" y="-7.5" font-family="Helvetica,sans-Serif" font-size="10.00">Preferences</text>
</g>
<!-- Node2 -->
<g id="node2" class="node"><title>Node2</title>
<a xlink:href="class_error_base.html" target="_top" xlink:title="ErrorBase">
<polygon fill="white" stroke="black" points="0,-58.5 0,-77.5 60,-77.5 60,-58.5 0,-58.5"/>
<text text-anchor="middle" x="30" y="-65.5" font-family="Helvetica,sans-Serif" font-size="10.00">ErrorBase</text>
</a>
</g>
<!-- Node2&#45;&gt;Node1 -->
<g id="edge2" class="edge"><title>Node2&#45;&gt;Node1</title>
<path fill="none" stroke="midnightblue" d="M47.526,-51.9006C59.5502,-41.5414 75.0739,-28.1671 85.035,-19.5852"/>
<polygon fill="midnightblue" stroke="midnightblue" points="45.1637,-49.316 39.8721,-58.4948 49.7327,-54.6193 45.1637,-49.316"/>
</g>
<!-- Node3 -->
<g id="node4" class="node"><title>Node3</title>
<a xlink:href="class_error.html" target="_top" xlink:title="Error">
<polygon fill="white" stroke="black" points="11,-136.5 11,-155.5 49,-155.5 49,-136.5 11,-136.5"/>
<text text-anchor="middle" x="30" y="-143.5" font-family="Helvetica,sans-Serif" font-size="10.00">Error</text>
</a>
</g>
<!-- Node3&#45;&gt;Node2 -->
<g id="edge4" class="edge"><title>Node3&#45;&gt;Node2</title>
<path fill="none" stroke="#9a32cd" stroke-dasharray="5,2" d="M30,-126.224C30,-110.697 30,-89.3582 30,-77.6165"/>
<polygon fill="#9a32cd" stroke="#9a32cd" points="26.5001,-126.282 30,-136.282 33.5001,-126.282 26.5001,-126.282"/>
<text text-anchor="middle" x="57.5" y="-110" font-family="Helvetica,sans-Serif" font-size="10.00"> _globalError</text>
<text text-anchor="middle" x="57.5" y="-99" font-family="Helvetica,sans-Serif" font-size="10.00">m_error</text>
</g>
<!-- Node4 -->
<g id="node6" class="node"><title>Node4</title>
<polygon fill="white" stroke="#bfbfbf" points="78.5,-58.5 78.5,-77.5 155.5,-77.5 155.5,-58.5 78.5,-58.5"/>
<text text-anchor="middle" x="117" y="-65.5" font-family="Helvetica,sans-Serif" font-size="10.00">ITableListener</text>
</g>
<!-- Node4&#45;&gt;Node1 -->
<g id="edge6" class="edge"><title>Node4&#45;&gt;Node1</title>
<path fill="none" stroke="midnightblue" d="M109.887,-48.8933C106.01,-39.0256 101.394,-27.2766 98.3413,-19.5052"/>
<polygon fill="midnightblue" stroke="midnightblue" points="106.648,-50.2223 113.563,-58.25 113.164,-47.6627 106.648,-50.2223"/>
</g>
</g>
</svg>
