<?xml version="1.0" encoding="UTF-8" standalone="no"?>
<!DOCTYPE svg PUBLIC "-//W3C//DTD SVG 1.1//EN"
 "http://www.w3.org/Graphics/SVG/1.1/DTD/svg11.dtd">
<!-- Generated by graphviz version 2.28.0 (20110507.0327)
 -->
<!-- Title: Servo::SetAngle Pages: 1 -->
<svg width="506pt" height="47pt"
 viewBox="0.00 0.00 506.00 47.00" xmlns="http://www.w3.org/2000/svg" xmlns:xlink="http://www.w3.org/1999/xlink">
<g id="graph1" class="graph" transform="scale(1 1) rotate(0) translate(4 43)">
<title>Servo::SetAngle</title>
<polygon fill="white" stroke="white" points="-4,5 -4,-43 503,-43 503,5 -4,5"/>
<!-- Node1 -->
<g id="node1" class="node"><title>Node1</title>
<polygon fill="#bfbfbf" stroke="black" points="0,-19.5 0,-38.5 86,-38.5 86,-19.5 0,-19.5"/>
<text text-anchor="middle" x="43" y="-26.5" font-family="Helvetica,sans-Serif" font-size="10.00">Servo::SetAngle</text>
</g>
<!-- Node2 -->
<g id="node3" class="node"><title>Node2</title>
<a xlink:href="class_p_w_m.html#a93e43862c48e9a06d95bd916b77c183a" target="_top" xlink:title="PWM::SetPosition">
<polygon fill="white" stroke="black" points="122,-19.5 122,-38.5 220,-38.5 220,-19.5 122,-19.5"/>
<text text-anchor="middle" x="171" y="-26.5" font-family="Helvetica,sans-Serif" font-size="10.00">PWM::SetPosition</text>
</a>
</g>
<!-- Node1&#45;&gt;Node2 -->
<g id="edge2" class="edge"><title>Node1&#45;&gt;Node2</title>
<path fill="none" stroke="midnightblue" d="M86.3067,-29C94.5284,-29 103.279,-29 111.906,-29"/>
<polygon fill="midnightblue" stroke="midnightblue" points="111.938,-32.5001 121.938,-29 111.938,-25.5001 111.938,-32.5001"/>
</g>
<!-- Node3 -->
<g id="node5" class="node"><title>Node3</title>
<a xlink:href="class_error_base.html#a05790f219c9e436a09752f73f7344024" target="_top" xlink:title="Check if the current error code represents a fatal error. ">
<polygon fill="white" stroke="black" points="374,-19.5 374,-38.5 498,-38.5 498,-19.5 374,-19.5"/>
<text text-anchor="middle" x="436" y="-26.5" font-family="Helvetica,sans-Serif" font-size="10.00">ErrorBase::StatusIsFatal</text>
</a>
</g>
<!-- Node2&#45;&gt;Node3 -->
<g id="edge4" class="edge"><title>Node2&#45;&gt;Node3</title>
<path fill="none" stroke="midnightblue" d="M220.238,-29C260.357,-29 318.041,-29 363.526,-29"/>
<polygon fill="midnightblue" stroke="midnightblue" points="363.623,-32.5001 373.623,-29 363.623,-25.5001 363.623,-32.5001"/>
</g>
<!-- Node4 -->
<g id="node7" class="node"><title>Node4</title>
<a xlink:href="class_p_w_m.html#a0c546e1aa7d5d091447a819e50fae9ca" target="_top" xlink:title="PWM::SetRaw">
<polygon fill="white" stroke="black" points="256.5,-0.5 256.5,-19.5 337.5,-19.5 337.5,-0.5 256.5,-0.5"/>
<text text-anchor="middle" x="297" y="-7.5" font-family="Helvetica,sans-Serif" font-size="10.00">PWM::SetRaw</text>
</a>
</g>
<!-- Node2&#45;&gt;Node4 -->
<g id="edge6" class="edge"><title>Node2&#45;&gt;Node4</title>
<path fill="none" stroke="midnightblue" d="M220.297,-21.5997C228.899,-20.2816 237.872,-18.9068 246.507,-17.5836"/>
<polygon fill="midnightblue" stroke="midnightblue" points="247.092,-21.035 256.446,-16.0607 246.031,-14.1157 247.092,-21.035"/>
</g>
<!-- Node4&#45;&gt;Node3 -->
<g id="edge8" class="edge"><title>Node4&#45;&gt;Node3</title>
<path fill="none" stroke="midnightblue" d="M337.626,-15.4956C345.837,-16.6343 354.725,-17.867 363.677,-19.1085"/>
<polygon fill="midnightblue" stroke="midnightblue" points="363.394,-22.6026 373.78,-20.5096 364.355,-15.669 363.394,-22.6026"/>
</g>
</g>
</svg>
