<?xml version="1.0" encoding="UTF-8" standalone="no"?>
<!DOCTYPE svg PUBLIC "-//W3C//DTD SVG 1.1//EN"
 "http://www.w3.org/Graphics/SVG/1.1/DTD/svg11.dtd">
<!-- Generated by graphviz version 2.28.0 (20110507.0327)
 -->
<!-- Title: Button Pages: 1 -->
<svg width="282pt" height="196pt"
 viewBox="0.00 0.00 282.00 196.00" xmlns="http://www.w3.org/2000/svg" xmlns:xlink="http://www.w3.org/1999/xlink">
<g id="graph1" class="graph" transform="scale(1 1) rotate(0) translate(4 192)">
<title>Button</title>
<polygon fill="white" stroke="white" points="-4,5 -4,-192 279,-192 279,5 -4,5"/>
<!-- Node1 -->
<g id="node1" class="node"><title>Node1</title>
<polygon fill="#bfbfbf" stroke="black" points="112.5,-56.5 112.5,-75.5 157.5,-75.5 157.5,-56.5 112.5,-56.5"/>
<text text-anchor="middle" x="135" y="-63.5" font-family="Helvetica,sans-Serif" font-size="10.00">Button</text>
</g>
<!-- Node4 -->
<g id="node7" class="node"><title>Node4</title>
<a xlink:href="class_internal_button.html" target="_top" xlink:title="InternalButton">
<polygon fill="white" stroke="black" points="-0.5,-0.5 -0.5,-19.5 76.5,-19.5 76.5,-0.5 -0.5,-0.5"/>
<text text-anchor="middle" x="38" y="-7.5" font-family="Helvetica,sans-Serif" font-size="10.00">InternalButton</text>
</a>
</g>
<!-- Node1&#45;&gt;Node4 -->
<g id="edge6" class="edge"><title>Node1&#45;&gt;Node4</title>
<path fill="none" stroke="midnightblue" d="M110.665,-51.4526C92.7574,-41.4835 68.9463,-28.2279 53.5461,-19.6545"/>
<polygon fill="midnightblue" stroke="midnightblue" points="108.975,-54.5179 119.415,-56.324 112.38,-48.4018 108.975,-54.5179"/>
</g>
<!-- Node5 -->
<g id="node9" class="node"><title>Node5</title>
<a xlink:href="class_joystick_button.html" target="_top" xlink:title="JoystickButton">
<polygon fill="white" stroke="black" points="94.5,-0.5 94.5,-19.5 175.5,-19.5 175.5,-0.5 94.5,-0.5"/>
<text text-anchor="middle" x="135" y="-7.5" font-family="Helvetica,sans-Serif" font-size="10.00">JoystickButton</text>
</a>
</g>
<!-- Node1&#45;&gt;Node5 -->
<g id="edge8" class="edge"><title>Node1&#45;&gt;Node5</title>
<path fill="none" stroke="midnightblue" d="M135,-45.8045C135,-36.9102 135,-26.7798 135,-19.7511"/>
<polygon fill="midnightblue" stroke="midnightblue" points="131.5,-46.083 135,-56.083 138.5,-46.083 131.5,-46.083"/>
</g>
<!-- Node6 -->
<g id="node11" class="node"><title>Node6</title>
<a xlink:href="class_network_button.html" target="_top" xlink:title="NetworkButton">
<polygon fill="white" stroke="black" points="194,-0.5 194,-19.5 274,-19.5 274,-0.5 194,-0.5"/>
<text text-anchor="middle" x="234" y="-7.5" font-family="Helvetica,sans-Serif" font-size="10.00">NetworkButton</text>
</a>
</g>
<!-- Node1&#45;&gt;Node6 -->
<g id="edge10" class="edge"><title>Node1&#45;&gt;Node6</title>
<path fill="none" stroke="midnightblue" d="M159.837,-51.4526C178.114,-41.4835 202.416,-28.2279 218.133,-19.6545"/>
<polygon fill="midnightblue" stroke="midnightblue" points="158.009,-48.4628 150.906,-56.324 161.361,-54.608 158.009,-48.4628"/>
</g>
<!-- Node2 -->
<g id="node2" class="node"><title>Node2</title>
<a xlink:href="class_trigger.html" target="_top" xlink:title="Trigger">
<polygon fill="white" stroke="black" points="112,-112.5 112,-131.5 158,-131.5 158,-112.5 112,-112.5"/>
<text text-anchor="middle" x="135" y="-119.5" font-family="Helvetica,sans-Serif" font-size="10.00">Trigger</text>
</a>
</g>
<!-- Node2&#45;&gt;Node1 -->
<g id="edge2" class="edge"><title>Node2&#45;&gt;Node1</title>
<path fill="none" stroke="midnightblue" d="M135,-101.805C135,-92.9102 135,-82.7798 135,-75.7511"/>
<polygon fill="midnightblue" stroke="midnightblue" points="131.5,-102.083 135,-112.083 138.5,-102.083 131.5,-102.083"/>
</g>
<!-- Node3 -->
<g id="node4" class="node"><title>Node3</title>
<a xlink:href="class_sendable.html" target="_top" xlink:title="Sendable">
<polygon fill="white" stroke="black" points="106.5,-168.5 106.5,-187.5 163.5,-187.5 163.5,-168.5 106.5,-168.5"/>
<text text-anchor="middle" x="135" y="-175.5" font-family="Helvetica,sans-Serif" font-size="10.00">Sendable</text>
</a>
</g>
<!-- Node3&#45;&gt;Node2 -->
<g id="edge4" class="edge"><title>Node3&#45;&gt;Node2</title>
<path fill="none" stroke="midnightblue" d="M135,-157.805C135,-148.91 135,-138.78 135,-131.751"/>
<polygon fill="midnightblue" stroke="midnightblue" points="131.5,-158.083 135,-168.083 138.5,-158.083 131.5,-158.083"/>
</g>
</g>
</svg>
