<?xml version="1.0" encoding="UTF-8" standalone="no"?>
<!DOCTYPE svg PUBLIC "-//W3C//DTD SVG 1.1//EN"
 "http://www.w3.org/Graphics/SVG/1.1/DTD/svg11.dtd">
<!-- Generated by graphviz version 2.28.0 (20110507.0327)
 -->
<!-- Title: ADXL345_SPI::GetX Pages: 1 -->
<svg width="428pt" height="28pt"
 viewBox="0.00 0.00 428.00 28.00" xmlns="http://www.w3.org/2000/svg" xmlns:xlink="http://www.w3.org/1999/xlink">
<g id="graph1" class="graph" transform="scale(1 1) rotate(0) translate(4 24)">
<title>ADXL345_SPI::GetX</title>
<polygon fill="white" stroke="white" points="-4,5 -4,-24 425,-24 425,5 -4,5"/>
<!-- Node1 -->
<g id="node1" class="node"><title>Node1</title>
<polygon fill="#bfbfbf" stroke="black" points="0,-0.5 0,-19.5 104,-19.5 104,-0.5 0,-0.5"/>
<text text-anchor="middle" x="52" y="-7.5" font-family="Helvetica,sans-Serif" font-size="10.00">ADXL345_SPI::GetX</text>
</g>
<!-- Node2 -->
<g id="node3" class="node"><title>Node2</title>
<a xlink:href="class_a_d_x_l345___s_p_i.html#acae8aee7785e91d4efe1e695478ca727" target="_top" xlink:title="ADXL345_SPI::GetAcceleration">
<polygon fill="white" stroke="black" points="140.5,-0.5 140.5,-19.5 293.5,-19.5 293.5,-0.5 140.5,-0.5"/>
<text text-anchor="middle" x="217" y="-7.5" font-family="Helvetica,sans-Serif" font-size="10.00">ADXL345_SPI::GetAcceleration</text>
</a>
</g>
<!-- Node1&#45;&gt;Node2 -->
<g id="edge2" class="edge"><title>Node1&#45;&gt;Node2</title>
<path fill="none" stroke="midnightblue" d="M104.127,-10C112.471,-10 121.31,-10 130.218,-10"/>
<polygon fill="midnightblue" stroke="midnightblue" points="130.281,-13.5001 140.281,-10 130.281,-6.5001 130.281,-13.5001"/>
</g>
<!-- Node3 -->
<g id="node5" class="node"><title>Node3</title>
<a xlink:href="class_s_p_i.html#a57e9c8cac374878879b32f43667e1e09" target="_top" xlink:title="SPI::Transaction">
<polygon fill="white" stroke="black" points="330.5,-0.5 330.5,-19.5 419.5,-19.5 419.5,-0.5 330.5,-0.5"/>
<text text-anchor="middle" x="375" y="-7.5" font-family="Helvetica,sans-Serif" font-size="10.00">SPI::Transaction</text>
</a>
</g>
<!-- Node2&#45;&gt;Node3 -->
<g id="edge4" class="edge"><title>Node2&#45;&gt;Node3</title>
<path fill="none" stroke="midnightblue" d="M293.715,-10C302.656,-10 311.637,-10 320.187,-10"/>
<polygon fill="midnightblue" stroke="midnightblue" points="320.372,-13.5001 330.372,-10 320.372,-6.5001 320.372,-13.5001"/>
</g>
</g>
</svg>
