<?xml version="1.0" encoding="UTF-8" standalone="no"?>
<!DOCTYPE svg PUBLIC "-//W3C//DTD SVG 1.1//EN"
 "http://www.w3.org/Graphics/SVG/1.1/DTD/svg11.dtd">
<!-- Generated by graphviz version 2.28.0 (20110507.0327)
 -->
<!-- Title: I2C::Read Pages: 1 -->
<svg width="728pt" height="142pt"
 viewBox="0.00 0.00 728.00 142.00" xmlns="http://www.w3.org/2000/svg" xmlns:xlink="http://www.w3.org/1999/xlink">
<g id="graph1" class="graph" transform="scale(1 1) rotate(0) translate(4 138)">
<title>I2C::Read</title>
<polygon fill="white" stroke="white" points="-4,5 -4,-138 725,-138 725,5 -4,5"/>
<!-- Node1 -->
<g id="node1" class="node"><title>Node1</title>
<polygon fill="#bfbfbf" stroke="black" points="0.5,-38.5 0.5,-57.5 59.5,-57.5 59.5,-38.5 0.5,-38.5"/>
<text text-anchor="middle" x="30" y="-45.5" font-family="Helvetica,sans-Serif" font-size="10.00">I2C::Read</text>
</g>
<!-- Node2 -->
<g id="node3" class="node"><title>Node2</title>
<a xlink:href="class_a_d_x_l345___i2_c.html#abc3a0bb889882e01cee781e3ab33af84" target="_top" xlink:title="ADXL345_I2C::GetAcceleration">
<polygon fill="white" stroke="black" points="99,-76.5 99,-95.5 251,-95.5 251,-76.5 99,-76.5"/>
<text text-anchor="middle" x="175" y="-83.5" font-family="Helvetica,sans-Serif" font-size="10.00">ADXL345_I2C::GetAcceleration</text>
</a>
</g>
<!-- Node1&#45;&gt;Node2 -->
<g id="edge2" class="edge"><title>Node1&#45;&gt;Node2</title>
<path fill="none" stroke="midnightblue" d="M69.5968,-59.5955C78.2628,-62.1115 87.4292,-64.7047 96,-67 108.117,-70.2449 121.355,-73.5566 133.427,-76.487"/>
<polygon fill="midnightblue" stroke="midnightblue" points="70.3,-56.1544 59.7192,-56.6999 68.3308,-62.8717 70.3,-56.1544"/>
</g>
<!-- Node8 -->
<g id="node17" class="node"><title>Node8</title>
<a xlink:href="class_a_d_x_l345___i2_c.html#a6c36866e36c57e3aefd9ddc5685bcb2a" target="_top" xlink:title="ADXL345_I2C::GetAccelerations">
<polygon fill="white" stroke="black" points="96.5,-38.5 96.5,-57.5 253.5,-57.5 253.5,-38.5 96.5,-38.5"/>
<text text-anchor="middle" x="175" y="-45.5" font-family="Helvetica,sans-Serif" font-size="10.00">ADXL345_I2C::GetAccelerations</text>
</a>
</g>
<!-- Node1&#45;&gt;Node8 -->
<g id="edge18" class="edge"><title>Node1&#45;&gt;Node8</title>
<path fill="none" stroke="midnightblue" d="M69.6739,-48C77.9873,-48 87.0568,-48 96.2654,-48"/>
<polygon fill="midnightblue" stroke="midnightblue" points="69.5945,-44.5001 59.5945,-48 69.5945,-51.5001 69.5945,-44.5001"/>
</g>
<!-- Node9 -->
<g id="node19" class="node"><title>Node9</title>
<a xlink:href="class_i2_c.html#a80a28dc253e11a347bc735212ea4cf00" target="_top" xlink:title="I2C::VerifySensor">
<polygon fill="white" stroke="black" points="129,-0.5 129,-19.5 221,-19.5 221,-0.5 129,-0.5"/>
<text text-anchor="middle" x="175" y="-7.5" font-family="Helvetica,sans-Serif" font-size="10.00">I2C::VerifySensor</text>
</a>
</g>
<!-- Node1&#45;&gt;Node9 -->
<g id="edge20" class="edge"><title>Node1&#45;&gt;Node9</title>
<path fill="none" stroke="midnightblue" d="M69.5968,-36.4045C78.2628,-33.8885 87.4292,-31.2953 96,-29 108.117,-25.7551 121.355,-22.4434 133.427,-19.513"/>
<polygon fill="midnightblue" stroke="midnightblue" points="68.3308,-33.1283 59.7192,-39.3001 70.3,-39.8456 68.3308,-33.1283"/>
</g>
<!-- Node3 -->
<g id="node5" class="node"><title>Node3</title>
<a xlink:href="class_a_d_x_l345___i2_c.html#a4606027648ba713e43482308b01f54fa" target="_top" xlink:title="ADXL345_I2C::GetX">
<polygon fill="white" stroke="black" points="290.5,-114.5 290.5,-133.5 393.5,-133.5 393.5,-114.5 290.5,-114.5"/>
<text text-anchor="middle" x="342" y="-121.5" font-family="Helvetica,sans-Serif" font-size="10.00">ADXL345_I2C::GetX</text>
</a>
</g>
<!-- Node2&#45;&gt;Node3 -->
<g id="edge4" class="edge"><title>Node2&#45;&gt;Node3</title>
<path fill="none" stroke="midnightblue" d="M227.654,-97.8961C250.846,-103.237 277.838,-109.454 299.663,-114.48"/>
<polygon fill="midnightblue" stroke="midnightblue" points="228.167,-94.4226 217.636,-95.589 226.596,-101.244 228.167,-94.4226"/>
</g>
<!-- Node6 -->
<g id="node11" class="node"><title>Node6</title>
<a xlink:href="class_a_d_x_l345___i2_c.html#aa42d83f295dcc41a7ba3b510ba6ad594" target="_top" xlink:title="ADXL345_I2C::GetY">
<polygon fill="white" stroke="black" points="290,-76.5 290,-95.5 394,-95.5 394,-76.5 290,-76.5"/>
<text text-anchor="middle" x="342" y="-83.5" font-family="Helvetica,sans-Serif" font-size="10.00">ADXL345_I2C::GetY</text>
</a>
</g>
<!-- Node2&#45;&gt;Node6 -->
<g id="edge10" class="edge"><title>Node2&#45;&gt;Node6</title>
<path fill="none" stroke="midnightblue" d="M261.407,-86C271.15,-86 280.838,-86 289.928,-86"/>
<polygon fill="midnightblue" stroke="midnightblue" points="261.257,-82.5001 251.257,-86 261.257,-89.5001 261.257,-82.5001"/>
</g>
<!-- Node7 -->
<g id="node14" class="node"><title>Node7</title>
<a xlink:href="class_a_d_x_l345___i2_c.html#a772d16004a9f5e67ed391426b88f6d43" target="_top" xlink:title="ADXL345_I2C::GetZ">
<polygon fill="white" stroke="black" points="290.5,-38.5 290.5,-57.5 393.5,-57.5 393.5,-38.5 290.5,-38.5"/>
<text text-anchor="middle" x="342" y="-45.5" font-family="Helvetica,sans-Serif" font-size="10.00">ADXL345_I2C::GetZ</text>
</a>
</g>
<!-- Node2&#45;&gt;Node7 -->
<g id="edge14" class="edge"><title>Node2&#45;&gt;Node7</title>
<path fill="none" stroke="midnightblue" d="M227.654,-74.1039C250.846,-68.7626 277.838,-62.5463 299.663,-57.5201"/>
<polygon fill="midnightblue" stroke="midnightblue" points="226.596,-70.7559 217.636,-76.411 228.167,-77.5774 226.596,-70.7559"/>
</g>
<!-- Node4 -->
<g id="node7" class="node"><title>Node4</title>
<a xlink:href="class_a_d_x_l345___i2_c.html#ab52c386de90495ec8f825262281daeaf" target="_top" xlink:title="ADXL345_I2C::UpdateTable">
<polygon fill="white" stroke="black" points="430,-76.5 430,-95.5 566,-95.5 566,-76.5 430,-76.5"/>
<text text-anchor="middle" x="498" y="-83.5" font-family="Helvetica,sans-Serif" font-size="10.00">ADXL345_I2C::UpdateTable</text>
</a>
</g>
<!-- Node3&#45;&gt;Node4 -->
<g id="edge6" class="edge"><title>Node3&#45;&gt;Node4</title>
<path fill="none" stroke="midnightblue" d="M391.794,-111.96C413.308,-106.651 438.232,-100.501 458.419,-95.5201"/>
<polygon fill="midnightblue" stroke="midnightblue" points="390.731,-108.617 381.861,-114.411 392.408,-115.413 390.731,-108.617"/>
</g>
<!-- Node5 -->
<g id="node9" class="node"><title>Node5</title>
<a xlink:href="class_a_d_x_l345___i2_c.html#ac215d496f38ea298a9c6d7a226dfcd0c" target="_top" xlink:title="ADXL345_I2C::InitTable">
<polygon fill="white" stroke="black" points="602,-76.5 602,-95.5 720,-95.5 720,-76.5 602,-76.5"/>
<text text-anchor="middle" x="661" y="-83.5" font-family="Helvetica,sans-Serif" font-size="10.00">ADXL345_I2C::InitTable</text>
</a>
</g>
<!-- Node4&#45;&gt;Node5 -->
<g id="edge8" class="edge"><title>Node4&#45;&gt;Node5</title>
<path fill="none" stroke="midnightblue" d="M576.375,-86C584.957,-86 593.586,-86 601.872,-86"/>
<polygon fill="midnightblue" stroke="midnightblue" points="576.346,-82.5001 566.346,-86 576.346,-89.5001 576.346,-82.5001"/>
</g>
<!-- Node6&#45;&gt;Node4 -->
<g id="edge12" class="edge"><title>Node6&#45;&gt;Node4</title>
<path fill="none" stroke="midnightblue" d="M404.328,-86C412.693,-86 421.316,-86 429.779,-86"/>
<polygon fill="midnightblue" stroke="midnightblue" points="404.28,-82.5001 394.28,-86 404.28,-89.5001 404.28,-82.5001"/>
</g>
<!-- Node7&#45;&gt;Node4 -->
<g id="edge16" class="edge"><title>Node7&#45;&gt;Node4</title>
<path fill="none" stroke="midnightblue" d="M391.794,-60.04C413.308,-65.3488 438.232,-71.4988 458.419,-76.4799"/>
<polygon fill="midnightblue" stroke="midnightblue" points="392.408,-56.5867 381.861,-57.589 390.731,-63.3828 392.408,-56.5867"/>
</g>
</g>
</svg>
