<?xml version="1.0" encoding="UTF-8" standalone="no"?>
<!DOCTYPE svg PUBLIC "-//W3C//DTD SVG 1.1//EN"
 "http://www.w3.org/Graphics/SVG/1.1/DTD/svg11.dtd">
<!-- Generated by graphviz version 2.28.0 (20110507.0327)
 -->
<!-- Title: DigitalSource Pages: 1 -->
<svg width="168pt" height="290pt"
 viewBox="0.00 0.00 168.00 290.00" xmlns="http://www.w3.org/2000/svg" xmlns:xlink="http://www.w3.org/1999/xlink">
<g id="graph1" class="graph" transform="scale(1 1) rotate(0) translate(4 286)">
<title>DigitalSource</title>
<polygon fill="white" stroke="white" points="-4,5 -4,-286 165,-286 165,5 -4,5"/>
<!-- Node1 -->
<g id="node1" class="node"><title>Node1</title>
<polygon fill="#bfbfbf" stroke="black" points="44,-0.5 44,-19.5 118,-19.5 118,-0.5 44,-0.5"/>
<text text-anchor="middle" x="81" y="-7.5" font-family="Helvetica,sans-Serif" font-size="10.00">DigitalSource</text>
</g>
<!-- Node2 -->
<g id="node2" class="node"><title>Node2</title>
<a xlink:href="class_interruptable_sensor_base.html" target="_top" xlink:title="InterruptableSensorBase">
<polygon fill="white" stroke="black" points="19.5,-58.5 19.5,-77.5 142.5,-77.5 142.5,-58.5 19.5,-58.5"/>
<text text-anchor="middle" x="81" y="-65.5" font-family="Helvetica,sans-Serif" font-size="10.00">InterruptableSensorBase</text>
</a>
</g>
<!-- Node2&#45;&gt;Node1 -->
<g id="edge2" class="edge"><title>Node2&#45;&gt;Node1</title>
<path fill="none" stroke="midnightblue" d="M81,-47.953C81,-38.2875 81,-27.0312 81,-19.5052"/>
<polygon fill="midnightblue" stroke="midnightblue" points="77.5001,-48.25 81,-58.25 84.5001,-48.25 77.5001,-48.25"/>
</g>
<!-- Node3 -->
<g id="node4" class="node"><title>Node3</title>
<a xlink:href="class_sensor_base.html" target="_top" xlink:title="SensorBase">
<polygon fill="white" stroke="black" points="0,-126.5 0,-145.5 70,-145.5 70,-126.5 0,-126.5"/>
<text text-anchor="middle" x="35" y="-133.5" font-family="Helvetica,sans-Serif" font-size="10.00">SensorBase</text>
</a>
</g>
<!-- Node3&#45;&gt;Node2 -->
<g id="edge4" class="edge"><title>Node3&#45;&gt;Node2</title>
<path fill="none" stroke="midnightblue" d="M46.8919,-117.938C55.8311,-105.112 67.7164,-88.0591 74.838,-77.8411"/>
<polygon fill="midnightblue" stroke="midnightblue" points="43.8603,-116.166 41.0137,-126.372 49.6031,-120.169 43.8603,-116.166"/>
</g>
<!-- Node4 -->
<g id="node6" class="node"><title>Node4</title>
<a xlink:href="class_error_base.html" target="_top" xlink:title="ErrorBase">
<polygon fill="white" stroke="black" points="31,-184.5 31,-203.5 91,-203.5 91,-184.5 31,-184.5"/>
<text text-anchor="middle" x="61" y="-191.5" font-family="Helvetica,sans-Serif" font-size="10.00">ErrorBase</text>
</a>
</g>
<!-- Node4&#45;&gt;Node3 -->
<g id="edge6" class="edge"><title>Node4&#45;&gt;Node3</title>
<path fill="none" stroke="midnightblue" d="M52.5933,-174.893C48.0119,-165.026 42.557,-153.277 38.9488,-145.505"/>
<polygon fill="midnightblue" stroke="midnightblue" points="49.5518,-176.654 56.9375,-184.25 55.9009,-173.706 49.5518,-176.654"/>
</g>
<!-- Node6 -->
<g id="node10" class="node"><title>Node6</title>
<a xlink:href="class_resource.html" target="_top" xlink:title="Resource">
<polygon fill="white" stroke="black" points="88,-126.5 88,-145.5 146,-145.5 146,-126.5 88,-126.5"/>
<text text-anchor="middle" x="117" y="-133.5" font-family="Helvetica,sans-Serif" font-size="10.00">Resource</text>
</a>
</g>
<!-- Node4&#45;&gt;Node6 -->
<g id="edge12" class="edge"><title>Node4&#45;&gt;Node6</title>
<path fill="none" stroke="midnightblue" d="M76.9584,-177.042C87.2214,-166.779 100.151,-153.849 108.495,-145.505"/>
<polygon fill="midnightblue" stroke="midnightblue" points="74.3462,-174.704 69.75,-184.25 79.296,-179.654 74.3462,-174.704"/>
</g>
<!-- Node5 -->
<g id="node8" class="node"><title>Node5</title>
<a xlink:href="class_error.html" target="_top" xlink:title="Error">
<polygon fill="white" stroke="black" points="42,-262.5 42,-281.5 80,-281.5 80,-262.5 42,-262.5"/>
<text text-anchor="middle" x="61" y="-269.5" font-family="Helvetica,sans-Serif" font-size="10.00">Error</text>
</a>
</g>
<!-- Node5&#45;&gt;Node4 -->
<g id="edge8" class="edge"><title>Node5&#45;&gt;Node4</title>
<path fill="none" stroke="#9a32cd" stroke-dasharray="5,2" d="M61,-252.224C61,-236.697 61,-215.358 61,-203.616"/>
<polygon fill="#9a32cd" stroke="#9a32cd" points="57.5001,-252.282 61,-262.282 64.5001,-252.282 57.5001,-252.282"/>
<text text-anchor="middle" x="88.5" y="-236" font-family="Helvetica,sans-Serif" font-size="10.00"> _globalError</text>
<text text-anchor="middle" x="88.5" y="-225" font-family="Helvetica,sans-Serif" font-size="10.00">m_error</text>
</g>
<!-- Node6&#45;&gt;Node2 -->
<g id="edge10" class="edge"><title>Node6&#45;&gt;Node2</title>
<path fill="none" stroke="#9a32cd" stroke-dasharray="5,2" d="M107.489,-117.563C100.517,-104.781 91.3418,-87.9599 85.8224,-77.8411"/>
<polygon fill="#9a32cd" stroke="#9a32cd" points="104.432,-119.269 112.294,-126.372 110.578,-115.917 104.432,-119.269"/>
<text text-anchor="middle" x="131" y="-99.5" font-family="Helvetica,sans-Serif" font-size="10.00"> m_interrupts</text>
</g>
</g>
</svg>
