<?xml version="1.0" encoding="UTF-8" standalone="no"?>
<!DOCTYPE svg PUBLIC "-//W3C//DTD SVG 1.1//EN"
 "http://www.w3.org/Graphics/SVG/1.1/DTD/svg11.dtd">
<!-- Generated by graphviz version 2.28.0 (20110507.0327)
 -->
<!-- Title: Joystick::GetY Pages: 1 -->
<svg width="460pt" height="104pt"
 viewBox="0.00 0.00 460.00 104.00" xmlns="http://www.w3.org/2000/svg" xmlns:xlink="http://www.w3.org/1999/xlink">
<g id="graph1" class="graph" transform="scale(1 1) rotate(0) translate(4 100)">
<title>Joystick::GetY</title>
<polygon fill="white" stroke="white" points="-4,5 -4,-100 457,-100 457,5 -4,5"/>
<!-- Node1 -->
<g id="node1" class="node"><title>Node1</title>
<polygon fill="#bfbfbf" stroke="black" points="0.5,-38.5 0.5,-57.5 81.5,-57.5 81.5,-38.5 0.5,-38.5"/>
<text text-anchor="middle" x="41" y="-45.5" font-family="Helvetica,sans-Serif" font-size="10.00">Joystick::GetY</text>
</g>
<!-- Node2 -->
<g id="node3" class="node"><title>Node2</title>
<a xlink:href="class_joystick.html#a5f55e80b1399c3a04c5108488382dbc8" target="_top" xlink:title="Joystick::GetAxis">
<polygon fill="white" stroke="black" points="145,-76.5 145,-95.5 239,-95.5 239,-76.5 145,-76.5"/>
<text text-anchor="middle" x="192" y="-83.5" font-family="Helvetica,sans-Serif" font-size="10.00">Joystick::GetAxis</text>
</a>
</g>
<!-- Node1&#45;&gt;Node2 -->
<g id="edge2" class="edge"><title>Node1&#45;&gt;Node2</title>
<path fill="none" stroke="midnightblue" d="M89.4922,-60.1121C110.244,-65.4044 134.228,-71.5213 153.671,-76.4799"/>
<polygon fill="midnightblue" stroke="midnightblue" points="90.1538,-56.6689 79.599,-57.589 88.4239,-63.4518 90.1538,-56.6689"/>
</g>
<!-- Node3 -->
<g id="node5" class="node"><title>Node3</title>
<a xlink:href="class_joystick.html#a98ca6faf135eed78d1401f779ea862c2" target="_top" xlink:title="Joystick::GetMagnitude">
<polygon fill="white" stroke="black" points="132.5,-38.5 132.5,-57.5 251.5,-57.5 251.5,-38.5 132.5,-38.5"/>
<text text-anchor="middle" x="192" y="-45.5" font-family="Helvetica,sans-Serif" font-size="10.00">Joystick::GetMagnitude</text>
</a>
</g>
<!-- Node1&#45;&gt;Node3 -->
<g id="edge4" class="edge"><title>Node1&#45;&gt;Node3</title>
<path fill="none" stroke="midnightblue" d="M91.7305,-48C104.791,-48 118.997,-48 132.471,-48"/>
<polygon fill="midnightblue" stroke="midnightblue" points="91.5381,-44.5001 81.5381,-48 91.538,-51.5001 91.5381,-44.5001"/>
</g>
<!-- Node4 -->
<g id="node7" class="node"><title>Node4</title>
<a xlink:href="class_joystick.html#a1ffd1a1d97440eb1a611361bdcac33fc" target="_top" xlink:title="Joystick::GetDirectionRadians">
<polygon fill="white" stroke="black" points="118,-0.5 118,-19.5 266,-19.5 266,-0.5 118,-0.5"/>
<text text-anchor="middle" x="192" y="-7.5" font-family="Helvetica,sans-Serif" font-size="10.00">Joystick::GetDirectionRadians</text>
</a>
</g>
<!-- Node1&#45;&gt;Node4 -->
<g id="edge6" class="edge"><title>Node1&#45;&gt;Node4</title>
<path fill="none" stroke="midnightblue" d="M89.4922,-35.8879C110.244,-30.5956 134.228,-24.4787 153.671,-19.5201"/>
<polygon fill="midnightblue" stroke="midnightblue" points="88.4239,-32.5482 79.599,-38.411 90.1538,-39.3311 88.4239,-32.5482"/>
</g>
<!-- Node5 -->
<g id="node9" class="node"><title>Node5</title>
<a xlink:href="class_joystick.html#a0f49244825f4ce57aafde3830eba8e7f" target="_top" xlink:title="Joystick::GetDirectionDegrees">
<polygon fill="white" stroke="black" points="302.5,-0.5 302.5,-19.5 451.5,-19.5 451.5,-0.5 302.5,-0.5"/>
<text text-anchor="middle" x="377" y="-7.5" font-family="Helvetica,sans-Serif" font-size="10.00">Joystick::GetDirectionDegrees</text>
</a>
</g>
<!-- Node4&#45;&gt;Node5 -->
<g id="edge8" class="edge"><title>Node4&#45;&gt;Node5</title>
<path fill="none" stroke="midnightblue" d="M276.28,-10C284.994,-10 293.808,-10 302.403,-10"/>
<polygon fill="midnightblue" stroke="midnightblue" points="276.115,-6.5001 266.115,-10 276.115,-13.5001 276.115,-6.5001"/>
</g>
</g>
</svg>
