<?xml version="1.0" encoding="UTF-8" standalone="no"?>
<!DOCTYPE svg PUBLIC "-//W3C//DTD SVG 1.1//EN"
 "http://www.w3.org/Graphics/SVG/1.1/DTD/svg11.dtd">
<!-- Generated by graphviz version 2.28.0 (20110507.0327)
 -->
<!-- Title: ADXL345_SPI::SetRange Pages: 1 -->
<svg width="446pt" height="28pt"
 viewBox="0.00 0.00 446.00 28.00" xmlns="http://www.w3.org/2000/svg" xmlns:xlink="http://www.w3.org/1999/xlink">
<g id="graph1" class="graph" transform="scale(1 1) rotate(0) translate(4 24)">
<title>ADXL345_SPI::SetRange</title>
<polygon fill="white" stroke="white" points="-4,5 -4,-24 443,-24 443,5 -4,5"/>
<!-- Node1 -->
<g id="node1" class="node"><title>Node1</title>
<polygon fill="#bfbfbf" stroke="black" points="0,-0.5 0,-19.5 126,-19.5 126,-0.5 0,-0.5"/>
<text text-anchor="middle" x="63" y="-7.5" font-family="Helvetica,sans-Serif" font-size="10.00">ADXL345_SPI::SetRange</text>
</g>
<!-- Node2 -->
<g id="node3" class="node"><title>Node2</title>
<a xlink:href="class_a_d_x_l345___s_p_i.html#a4fc291813cfeba26060014221a0ba156" target="_top" xlink:title="ADXL345_SPI::Init">
<polygon fill="white" stroke="black" points="162,-0.5 162,-19.5 258,-19.5 258,-0.5 162,-0.5"/>
<text text-anchor="middle" x="210" y="-7.5" font-family="Helvetica,sans-Serif" font-size="10.00">ADXL345_SPI::Init</text>
</a>
</g>
<!-- Node1&#45;&gt;Node2 -->
<g id="edge2" class="edge"><title>Node1&#45;&gt;Node2</title>
<path fill="none" stroke="midnightblue" d="M136.367,-10C144.938,-10 153.512,-10 161.609,-10"/>
<polygon fill="midnightblue" stroke="midnightblue" points="136.335,-6.5001 126.335,-10 136.335,-13.5001 136.335,-6.5001"/>
</g>
<!-- Node3 -->
<g id="node5" class="node"><title>Node3</title>
<a xlink:href="class_a_d_x_l345___s_p_i.html#afd6ce38c4905606f32ae96342b2d29ca" target="_top" xlink:title="ADXL345_SPI::ADXL345_SPI">
<polygon fill="white" stroke="black" points="294,-0.5 294,-19.5 438,-19.5 438,-0.5 294,-0.5"/>
<text text-anchor="middle" x="366" y="-7.5" font-family="Helvetica,sans-Serif" font-size="10.00">ADXL345_SPI::ADXL345_SPI</text>
</a>
</g>
<!-- Node2&#45;&gt;Node3 -->
<g id="edge4" class="edge"><title>Node2&#45;&gt;Node3</title>
<path fill="none" stroke="midnightblue" d="M268.087,-10C276.485,-10 285.222,-10 293.86,-10"/>
<polygon fill="midnightblue" stroke="midnightblue" points="268.042,-6.5001 258.042,-10 268.042,-13.5001 268.042,-6.5001"/>
</g>
</g>
</svg>
