<?xml version="1.0" encoding="UTF-8" standalone="no"?>
<!DOCTYPE svg PUBLIC "-//W3C//DTD SVG 1.1//EN"
 "http://www.w3.org/Graphics/SVG/1.1/DTD/svg11.dtd">
<!-- Generated by graphviz version 2.28.0 (20110507.0327)
 -->
<!-- Title: AnalogAccelerometer::InitTable Pages: 1 -->
<svg width="764pt" height="38pt"
 viewBox="0.00 0.00 764.00 38.00" xmlns="http://www.w3.org/2000/svg" xmlns:xlink="http://www.w3.org/1999/xlink">
<g id="graph1" class="graph" transform="scale(1 1) rotate(0) translate(4 34)">
<title>AnalogAccelerometer::InitTable</title>
<polygon fill="white" stroke="white" points="-4,5 -4,-34 761,-34 761,5 -4,5"/>
<!-- Node1 -->
<g id="node1" class="node"><title>Node1</title>
<polygon fill="#bfbfbf" stroke="black" points="0,-0 0,-30 110,-30 110,-0 0,-0"/>
<text text-anchor="start" x="8" y="-18" font-family="Helvetica,sans-Serif" font-size="10.00">AnalogAccelerometer</text>
<text text-anchor="middle" x="55" y="-7" font-family="Helvetica,sans-Serif" font-size="10.00">::InitTable</text>
</g>
<!-- Node2 -->
<g id="node3" class="node"><title>Node2</title>
<a xlink:href="class_analog_accelerometer.html#a4506c2606a6a840ed32b9e9c0ff96a9b" target="_top" xlink:title="AnalogAccelerometer\l::UpdateTable">
<polygon fill="white" stroke="black" points="146,-0 146,-30 256,-30 256,-0 146,-0"/>
<text text-anchor="start" x="154" y="-18" font-family="Helvetica,sans-Serif" font-size="10.00">AnalogAccelerometer</text>
<text text-anchor="middle" x="201" y="-7" font-family="Helvetica,sans-Serif" font-size="10.00">::UpdateTable</text>
</a>
</g>
<!-- Node1&#45;&gt;Node2 -->
<g id="edge2" class="edge"><title>Node1&#45;&gt;Node2</title>
<path fill="none" stroke="midnightblue" d="M110.03,-15C118.314,-15 126.936,-15 135.42,-15"/>
<polygon fill="midnightblue" stroke="midnightblue" points="135.667,-18.5001 145.667,-15 135.667,-11.5001 135.667,-18.5001"/>
</g>
<!-- Node3 -->
<g id="node5" class="node"><title>Node3</title>
<a xlink:href="class_analog_accelerometer.html#aa21aff5e668d132c48be8789e693cfb5" target="_top" xlink:title="AnalogAccelerometer\l::GetAcceleration">
<polygon fill="white" stroke="black" points="292,-0 292,-30 402,-30 402,-0 292,-0"/>
<text text-anchor="start" x="300" y="-18" font-family="Helvetica,sans-Serif" font-size="10.00">AnalogAccelerometer</text>
<text text-anchor="middle" x="347" y="-7" font-family="Helvetica,sans-Serif" font-size="10.00">::GetAcceleration</text>
</a>
</g>
<!-- Node2&#45;&gt;Node3 -->
<g id="edge4" class="edge"><title>Node2&#45;&gt;Node3</title>
<path fill="none" stroke="midnightblue" d="M256.03,-15C264.314,-15 272.936,-15 281.42,-15"/>
<polygon fill="midnightblue" stroke="midnightblue" points="281.667,-18.5001 291.667,-15 281.667,-11.5001 281.667,-18.5001"/>
</g>
<!-- Node4 -->
<g id="node7" class="node"><title>Node4</title>
<a xlink:href="class_analog_input.html#a48743112f8b15e3b2cea8a64ed541308" target="_top" xlink:title="AnalogInput::GetAverageVoltage">
<polygon fill="white" stroke="black" points="438.5,-5.5 438.5,-24.5 595.5,-24.5 595.5,-5.5 438.5,-5.5"/>
<text text-anchor="middle" x="517" y="-12.5" font-family="Helvetica,sans-Serif" font-size="10.00">AnalogInput::GetAverageVoltage</text>
</a>
</g>
<!-- Node3&#45;&gt;Node4 -->
<g id="edge6" class="edge"><title>Node3&#45;&gt;Node4</title>
<path fill="none" stroke="midnightblue" d="M402.081,-15C410.514,-15 419.409,-15 428.36,-15"/>
<polygon fill="midnightblue" stroke="midnightblue" points="428.468,-18.5001 438.468,-15 428.468,-11.5001 428.468,-18.5001"/>
</g>
<!-- Node5 -->
<g id="node9" class="node"><title>Node5</title>
<a xlink:href="class_error_base.html#a05790f219c9e436a09752f73f7344024" target="_top" xlink:title="Check if the current error code represents a fatal error. ">
<polygon fill="white" stroke="black" points="632,-5.5 632,-24.5 756,-24.5 756,-5.5 632,-5.5"/>
<text text-anchor="middle" x="694" y="-12.5" font-family="Helvetica,sans-Serif" font-size="10.00">ErrorBase::StatusIsFatal</text>
</a>
</g>
<!-- Node4&#45;&gt;Node5 -->
<g id="edge8" class="edge"><title>Node4&#45;&gt;Node5</title>
<path fill="none" stroke="midnightblue" d="M595.522,-15C604.261,-15 613.136,-15 621.789,-15"/>
<polygon fill="midnightblue" stroke="midnightblue" points="621.826,-18.5001 631.826,-15 621.826,-11.5001 621.826,-18.5001"/>
</g>
</g>
</svg>
