<?xml version="1.0" encoding="UTF-8" standalone="no"?>
<!DOCTYPE svg PUBLIC "-//W3C//DTD SVG 1.1//EN"
 "http://www.w3.org/Graphics/SVG/1.1/DTD/svg11.dtd">
<!-- Generated by graphviz version 2.28.0 (20110507.0327)
 -->
<!-- Title: CANJaguar::ConfigSoftPositionLimits Pages: 1 -->
<svg width="508pt" height="126pt"
 viewBox="0.00 0.00 508.00 126.00" xmlns="http://www.w3.org/2000/svg" xmlns:xlink="http://www.w3.org/1999/xlink">
<g id="graph1" class="graph" transform="scale(1 1) rotate(0) translate(4 122)">
<title>CANJaguar::ConfigSoftPositionLimits</title>
<polygon fill="white" stroke="white" points="-4,5 -4,-122 505,-122 505,5 -4,5"/>
<!-- Node1 -->
<g id="node1" class="node"><title>Node1</title>
<polygon fill="#bfbfbf" stroke="black" points="0.5,-49 0.5,-79 151.5,-79 151.5,-49 0.5,-49"/>
<text text-anchor="start" x="8.5" y="-67" font-family="Helvetica,sans-Serif" font-size="10.00">CANJaguar::ConfigSoftPosition</text>
<text text-anchor="middle" x="76" y="-56" font-family="Helvetica,sans-Serif" font-size="10.00">Limits</text>
</g>
<!-- Node2 -->
<g id="node3" class="node"><title>Node2</title>
<a xlink:href="class_c_a_n_jaguar.html#aeb878aff41701ed6d2bb0732a0beb07a" target="_top" xlink:title="CANJaguar::ConfigLimitMode">
<polygon fill="white" stroke="black" points="188.5,-98.5 188.5,-117.5 331.5,-117.5 331.5,-98.5 188.5,-98.5"/>
<text text-anchor="middle" x="260" y="-105.5" font-family="Helvetica,sans-Serif" font-size="10.00">CANJaguar::ConfigLimitMode</text>
</a>
</g>
<!-- Node1&#45;&gt;Node2 -->
<g id="edge2" class="edge"><title>Node1&#45;&gt;Node2</title>
<path fill="none" stroke="midnightblue" d="M139.125,-79.0192C162.15,-84.5856 187.925,-90.8171 209.659,-96.0713"/>
<polygon fill="midnightblue" stroke="midnightblue" points="209.111,-99.5396 219.653,-98.4876 210.756,-92.7356 209.111,-99.5396"/>
</g>
<!-- Node4 -->
<g id="node7" class="node"><title>Node4</title>
<a xlink:href="class_c_a_n_jaguar.html#a99204e2c841e2088d5b42dff35a8212e" target="_top" xlink:title="CANJaguar::ConfigForward\lLimit">
<polygon fill="white" stroke="black" points="193.5,-49 193.5,-79 326.5,-79 326.5,-49 193.5,-49"/>
<text text-anchor="start" x="201.5" y="-67" font-family="Helvetica,sans-Serif" font-size="10.00">CANJaguar::ConfigForward</text>
<text text-anchor="middle" x="260" y="-56" font-family="Helvetica,sans-Serif" font-size="10.00">Limit</text>
</a>
</g>
<!-- Node1&#45;&gt;Node4 -->
<g id="edge6" class="edge"><title>Node1&#45;&gt;Node4</title>
<path fill="none" stroke="midnightblue" d="M151.551,-64C161.933,-64 172.609,-64 183.017,-64"/>
<polygon fill="midnightblue" stroke="midnightblue" points="183.313,-67.5001 193.313,-64 183.313,-60.5001 183.313,-67.5001"/>
</g>
<!-- Node5 -->
<g id="node10" class="node"><title>Node5</title>
<a xlink:href="class_c_a_n_jaguar.html#a67c5f0698f1faa97629bd1b31aa7880b" target="_top" xlink:title="CANJaguar::ConfigReverse\lLimit">
<polygon fill="white" stroke="black" points="193.5,-0 193.5,-30 326.5,-30 326.5,-0 193.5,-0"/>
<text text-anchor="start" x="201.5" y="-18" font-family="Helvetica,sans-Serif" font-size="10.00">CANJaguar::ConfigReverse</text>
<text text-anchor="middle" x="260" y="-7" font-family="Helvetica,sans-Serif" font-size="10.00">Limit</text>
</a>
</g>
<!-- Node1&#45;&gt;Node5 -->
<g id="edge10" class="edge"><title>Node1&#45;&gt;Node5</title>
<path fill="none" stroke="midnightblue" d="M133.091,-48.8986C152.123,-43.7747 173.555,-38.0044 193.269,-32.6968"/>
<polygon fill="midnightblue" stroke="midnightblue" points="194.348,-36.031 203.094,-30.0516 192.528,-29.2717 194.348,-36.031"/>
</g>
<!-- Node3 -->
<g id="node5" class="node"><title>Node3</title>
<a xlink:href="class_c_a_n_jaguar.html#a6b82b54cc4033c3c5218ab04fb6c8282" target="_top" xlink:title="CANJaguar::sendMessage">
<polygon fill="white" stroke="black" points="368,-54.5 368,-73.5 500,-73.5 500,-54.5 368,-54.5"/>
<text text-anchor="middle" x="434" y="-61.5" font-family="Helvetica,sans-Serif" font-size="10.00">CANJaguar::sendMessage</text>
</a>
</g>
<!-- Node2&#45;&gt;Node3 -->
<g id="edge4" class="edge"><title>Node2&#45;&gt;Node3</title>
<path fill="none" stroke="midnightblue" d="M298.321,-98.4527C324.016,-91.8796 358.355,-83.0952 385.928,-76.0417"/>
<polygon fill="midnightblue" stroke="midnightblue" points="386.931,-79.3979 395.751,-73.5287 385.196,-72.6163 386.931,-79.3979"/>
</g>
<!-- Node4&#45;&gt;Node3 -->
<g id="edge8" class="edge"><title>Node4&#45;&gt;Node3</title>
<path fill="none" stroke="midnightblue" d="M326.516,-64C336.698,-64 347.287,-64 357.665,-64"/>
<polygon fill="midnightblue" stroke="midnightblue" points="357.95,-67.5001 367.95,-64 357.95,-60.5001 357.95,-67.5001"/>
</g>
<!-- Node5&#45;&gt;Node3 -->
<g id="edge12" class="edge"><title>Node5&#45;&gt;Node3</title>
<path fill="none" stroke="midnightblue" d="M314.009,-30.1014C338.342,-37.0335 366.829,-45.1488 389.828,-51.7009"/>
<polygon fill="midnightblue" stroke="midnightblue" points="389.07,-55.1242 399.646,-54.4981 390.988,-48.3921 389.07,-55.1242"/>
</g>
</g>
</svg>
