<?xml version="1.0" encoding="UTF-8" standalone="no"?>
<!DOCTYPE svg PUBLIC "-//W3C//DTD SVG 1.1//EN"
 "http://www.w3.org/Graphics/SVG/1.1/DTD/svg11.dtd">
<!-- Generated by graphviz version 2.28.0 (20110507.0327)
 -->
<!-- Title: GearTooth Pages: 1 -->
<svg width="296pt" height="196pt"
 viewBox="0.00 0.00 296.00 196.00" xmlns="http://www.w3.org/2000/svg" xmlns:xlink="http://www.w3.org/1999/xlink">
<g id="graph1" class="graph" transform="scale(1 1) rotate(0) translate(4 192)">
<title>GearTooth</title>
<polygon fill="white" stroke="white" points="-4,5 -4,-192 293,-192 293,5 -4,5"/>
<!-- Node1 -->
<g id="node1" class="node"><title>Node1</title>
<polygon fill="#bfbfbf" stroke="black" points="94,-0.5 94,-19.5 156,-19.5 156,-0.5 94,-0.5"/>
<text text-anchor="middle" x="125" y="-7.5" font-family="Helvetica,sans-Serif" font-size="10.00">GearTooth</text>
</g>
<!-- Node2 -->
<g id="node2" class="node"><title>Node2</title>
<a xlink:href="class_counter.html" target="_top" xlink:title="Counter">
<polygon fill="white" stroke="black" points="100,-56.5 100,-75.5 150,-75.5 150,-56.5 100,-56.5"/>
<text text-anchor="middle" x="125" y="-63.5" font-family="Helvetica,sans-Serif" font-size="10.00">Counter</text>
</a>
</g>
<!-- Node2&#45;&gt;Node1 -->
<g id="edge2" class="edge"><title>Node2&#45;&gt;Node1</title>
<path fill="none" stroke="midnightblue" d="M125,-45.8045C125,-36.9102 125,-26.7798 125,-19.7511"/>
<polygon fill="midnightblue" stroke="midnightblue" points="121.5,-46.083 125,-56.083 128.5,-46.083 121.5,-46.083"/>
</g>
<!-- Node3 -->
<g id="node4" class="node"><title>Node3</title>
<a xlink:href="class_sensor_base.html" target="_top" xlink:title="SensorBase">
<polygon fill="white" stroke="black" points="0,-112.5 0,-131.5 70,-131.5 70,-112.5 0,-112.5"/>
<text text-anchor="middle" x="35" y="-119.5" font-family="Helvetica,sans-Serif" font-size="10.00">SensorBase</text>
</a>
</g>
<!-- Node3&#45;&gt;Node2 -->
<g id="edge4" class="edge"><title>Node3&#45;&gt;Node2</title>
<path fill="none" stroke="midnightblue" d="M52.9168,-106.622C68.1728,-96.7574 89.7606,-83.9919 105.466,-75.6545"/>
<polygon fill="midnightblue" stroke="midnightblue" points="50.7329,-103.871 44.3452,-112.324 54.6099,-109.7 50.7329,-103.871"/>
</g>
<!-- Node3&#45;&gt;Node2 -->
<g id="edge14" class="edge"><title>Node3&#45;&gt;Node2</title>
<path fill="none" stroke="midnightblue" d="M63.5211,-107.453C81.4422,-97.4835 103.258,-84.2279 115.686,-75.6545"/>
<polygon fill="midnightblue" stroke="midnightblue" points="61.6835,-104.468 54.5749,-112.324 65.0311,-110.616 61.6835,-104.468"/>
</g>
<!-- Node4 -->
<g id="node6" class="node"><title>Node4</title>
<a xlink:href="class_error_base.html" target="_top" xlink:title="ErrorBase">
<polygon fill="white" stroke="black" points="5,-168.5 5,-187.5 65,-187.5 65,-168.5 5,-168.5"/>
<text text-anchor="middle" x="35" y="-175.5" font-family="Helvetica,sans-Serif" font-size="10.00">ErrorBase</text>
</a>
</g>
<!-- Node4&#45;&gt;Node3 -->
<g id="edge6" class="edge"><title>Node4&#45;&gt;Node3</title>
<path fill="none" stroke="midnightblue" d="M35,-157.805C35,-148.91 35,-138.78 35,-131.751"/>
<polygon fill="midnightblue" stroke="midnightblue" points="31.5001,-158.083 35,-168.083 38.5001,-158.083 31.5001,-158.083"/>
</g>
<!-- Node5 -->
<g id="node8" class="node"><title>Node5</title>
<a xlink:href="class_counter_base.html" target="_top" xlink:title="CounterBase">
<polygon fill="white" stroke="black" points="88.5,-112.5 88.5,-131.5 161.5,-131.5 161.5,-112.5 88.5,-112.5"/>
<text text-anchor="middle" x="125" y="-119.5" font-family="Helvetica,sans-Serif" font-size="10.00">CounterBase</text>
</a>
</g>
<!-- Node5&#45;&gt;Node2 -->
<g id="edge8" class="edge"><title>Node5&#45;&gt;Node2</title>
<path fill="none" stroke="midnightblue" d="M118.528,-102.101C117.896,-93.1357 118.343,-82.8579 119.869,-75.7511"/>
<polygon fill="midnightblue" stroke="midnightblue" points="115.066,-102.622 119.834,-112.083 122.007,-101.713 115.066,-102.622"/>
</g>
<!-- Node5&#45;&gt;Node2 -->
<g id="edge16" class="edge"><title>Node5&#45;&gt;Node2</title>
<path fill="none" stroke="midnightblue" d="M131.472,-102.101C132.104,-93.1357 131.657,-82.8579 130.131,-75.7511"/>
<polygon fill="midnightblue" stroke="midnightblue" points="127.993,-101.713 130.166,-112.083 134.934,-102.622 127.993,-101.713"/>
</g>
<!-- Node6 -->
<g id="node10" class="node"><title>Node6</title>
<a xlink:href="class_live_window_sendable.html" target="_top" xlink:title="LiveWindowSendable">
<polygon fill="white" stroke="black" points="180,-112.5 180,-131.5 288,-131.5 288,-112.5 180,-112.5"/>
<text text-anchor="middle" x="234" y="-119.5" font-family="Helvetica,sans-Serif" font-size="10.00">LiveWindowSendable</text>
</a>
</g>
<!-- Node6&#45;&gt;Node2 -->
<g id="edge10" class="edge"><title>Node6&#45;&gt;Node2</title>
<path fill="none" stroke="midnightblue" d="M202.392,-108.232C180.57,-98.1312 152.922,-84.3091 137.111,-75.5164"/>
<polygon fill="midnightblue" stroke="midnightblue" points="201.089,-111.484 211.64,-112.444 203.99,-105.114 201.089,-111.484"/>
</g>
<!-- Node6&#45;&gt;Node2 -->
<g id="edge18" class="edge"><title>Node6&#45;&gt;Node2</title>
<path fill="none" stroke="midnightblue" d="M212.596,-107.453C193.78,-97.4835 166.745,-84.2279 147.579,-75.6545"/>
<polygon fill="midnightblue" stroke="midnightblue" points="211.141,-110.645 221.602,-112.324 214.472,-104.488 211.141,-110.645"/>
</g>
<!-- Node7 -->
<g id="node12" class="node"><title>Node7</title>
<a xlink:href="class_sendable.html" target="_top" xlink:title="Sendable">
<polygon fill="white" stroke="black" points="205.5,-168.5 205.5,-187.5 262.5,-187.5 262.5,-168.5 205.5,-168.5"/>
<text text-anchor="middle" x="234" y="-175.5" font-family="Helvetica,sans-Serif" font-size="10.00">Sendable</text>
</a>
</g>
<!-- Node7&#45;&gt;Node6 -->
<g id="edge12" class="edge"><title>Node7&#45;&gt;Node6</title>
<path fill="none" stroke="midnightblue" d="M234,-157.805C234,-148.91 234,-138.78 234,-131.751"/>
<polygon fill="midnightblue" stroke="midnightblue" points="230.5,-158.083 234,-168.083 237.5,-158.083 230.5,-158.083"/>
</g>
</g>
</svg>
