<?xml version="1.0" encoding="UTF-8" standalone="no"?>
<!DOCTYPE svg PUBLIC "-//W3C//DTD SVG 1.1//EN"
 "http://www.w3.org/Graphics/SVG/1.1/DTD/svg11.dtd">
<!-- Generated by graphviz version 2.28.0 (20110507.0327)
 -->
<!-- Title: ADXL345_I2C::GetY Pages: 1 -->
<svg width="438pt" height="28pt"
 viewBox="0.00 0.00 438.00 28.00" xmlns="http://www.w3.org/2000/svg" xmlns:xlink="http://www.w3.org/1999/xlink">
<g id="graph1" class="graph" transform="scale(1 1) rotate(0) translate(4 24)">
<title>ADXL345_I2C::GetY</title>
<polygon fill="white" stroke="white" points="-4,5 -4,-24 435,-24 435,5 -4,5"/>
<!-- Node1 -->
<g id="node1" class="node"><title>Node1</title>
<polygon fill="#bfbfbf" stroke="black" points="0,-0.5 0,-19.5 104,-19.5 104,-0.5 0,-0.5"/>
<text text-anchor="middle" x="52" y="-7.5" font-family="Helvetica,sans-Serif" font-size="10.00">ADXL345_I2C::GetY</text>
</g>
<!-- Node2 -->
<g id="node3" class="node"><title>Node2</title>
<a xlink:href="class_a_d_x_l345___i2_c.html#ab52c386de90495ec8f825262281daeaf" target="_top" xlink:title="ADXL345_I2C::UpdateTable">
<polygon fill="white" stroke="black" points="140,-0.5 140,-19.5 276,-19.5 276,-0.5 140,-0.5"/>
<text text-anchor="middle" x="208" y="-7.5" font-family="Helvetica,sans-Serif" font-size="10.00">ADXL345_I2C::UpdateTable</text>
</a>
</g>
<!-- Node1&#45;&gt;Node2 -->
<g id="edge2" class="edge"><title>Node1&#45;&gt;Node2</title>
<path fill="none" stroke="midnightblue" d="M114.328,-10C122.693,-10 131.316,-10 139.779,-10"/>
<polygon fill="midnightblue" stroke="midnightblue" points="114.28,-6.5001 104.28,-10 114.28,-13.5001 114.28,-6.5001"/>
</g>
<!-- Node3 -->
<g id="node5" class="node"><title>Node3</title>
<a xlink:href="class_a_d_x_l345___i2_c.html#ac215d496f38ea298a9c6d7a226dfcd0c" target="_top" xlink:title="ADXL345_I2C::InitTable">
<polygon fill="white" stroke="black" points="312,-0.5 312,-19.5 430,-19.5 430,-0.5 312,-0.5"/>
<text text-anchor="middle" x="371" y="-7.5" font-family="Helvetica,sans-Serif" font-size="10.00">ADXL345_I2C::InitTable</text>
</a>
</g>
<!-- Node2&#45;&gt;Node3 -->
<g id="edge4" class="edge"><title>Node2&#45;&gt;Node3</title>
<path fill="none" stroke="midnightblue" d="M286.375,-10C294.957,-10 303.586,-10 311.872,-10"/>
<polygon fill="midnightblue" stroke="midnightblue" points="286.346,-6.5001 276.346,-10 286.346,-13.5001 286.346,-6.5001"/>
</g>
</g>
</svg>
