<?xml version="1.0" encoding="UTF-8" standalone="no"?>
<!DOCTYPE svg PUBLIC "-//W3C//DTD SVG 1.1//EN"
 "http://www.w3.org/Graphics/SVG/1.1/DTD/svg11.dtd">
<!-- Generated by graphviz version 2.28.0 (20110507.0327)
 -->
<!-- Title: AnalogInput::GetAccumulatorOutput Pages: 1 -->
<svg width="522pt" height="104pt"
 viewBox="0.00 0.00 522.00 104.00" xmlns="http://www.w3.org/2000/svg" xmlns:xlink="http://www.w3.org/1999/xlink">
<g id="graph1" class="graph" transform="scale(1 1) rotate(0) translate(4 100)">
<title>AnalogInput::GetAccumulatorOutput</title>
<polygon fill="white" stroke="white" points="-4,5 -4,-100 519,-100 519,5 -4,5"/>
<!-- Node1 -->
<g id="node1" class="node"><title>Node1</title>
<polygon fill="#bfbfbf" stroke="black" points="0,-52 0,-82 144,-82 144,-52 0,-52"/>
<text text-anchor="start" x="8" y="-70" font-family="Helvetica,sans-Serif" font-size="10.00">AnalogInput::GetAccumulator</text>
<text text-anchor="middle" x="72" y="-59" font-family="Helvetica,sans-Serif" font-size="10.00">Output</text>
</g>
<!-- Node2 -->
<g id="node3" class="node"><title>Node2</title>
<a xlink:href="class_gyro.html#ae26b1bacc0c5a4e1f9d85836fcb90736" target="_top" xlink:title="Gyro::InitGyro">
<polygon fill="white" stroke="black" points="183.5,-76.5 183.5,-95.5 260.5,-95.5 260.5,-76.5 183.5,-76.5"/>
<text text-anchor="middle" x="222" y="-83.5" font-family="Helvetica,sans-Serif" font-size="10.00">Gyro::InitGyro</text>
</a>
</g>
<!-- Node1&#45;&gt;Node2 -->
<g id="edge2" class="edge"><title>Node1&#45;&gt;Node2</title>
<path fill="none" stroke="midnightblue" d="M154.483,-77.4606C164.532,-78.7507 174.395,-80.017 183.321,-81.1629"/>
<polygon fill="midnightblue" stroke="midnightblue" points="154.763,-73.968 144.399,-76.1661 153.872,-80.911 154.763,-73.968"/>
</g>
<!-- Node4 -->
<g id="node7" class="node"><title>Node4</title>
<a xlink:href="class_gyro.html#a37c29b42b58b90fe1ed11f04c2635d4f" target="_top" xlink:title="Gyro::GetAngle">
<polygon fill="white" stroke="black" points="180,-38.5 180,-57.5 264,-57.5 264,-38.5 180,-38.5"/>
<text text-anchor="middle" x="222" y="-45.5" font-family="Helvetica,sans-Serif" font-size="10.00">Gyro::GetAngle</text>
</a>
</g>
<!-- Node1&#45;&gt;Node4 -->
<g id="edge6" class="edge"><title>Node1&#45;&gt;Node4</title>
<path fill="none" stroke="midnightblue" d="M154.338,-56.558C163.112,-55.4316 171.747,-54.323 179.743,-53.2965"/>
<polygon fill="midnightblue" stroke="midnightblue" points="153.872,-53.089 144.399,-57.8339 154.763,-60.032 153.872,-53.089"/>
</g>
<!-- Node3 -->
<g id="node5" class="node"><title>Node3</title>
<a xlink:href="class_gyro.html#a06521f58180be9e342d941643f9b2491" target="_top" xlink:title="Gyro::Gyro">
<polygon fill="white" stroke="black" points="316.5,-76.5 316.5,-95.5 381.5,-95.5 381.5,-76.5 316.5,-76.5"/>
<text text-anchor="middle" x="349" y="-83.5" font-family="Helvetica,sans-Serif" font-size="10.00">Gyro::Gyro</text>
</a>
</g>
<!-- Node2&#45;&gt;Node3 -->
<g id="edge4" class="edge"><title>Node2&#45;&gt;Node3</title>
<path fill="none" stroke="midnightblue" d="M270.831,-86C286.102,-86 302.612,-86 316.427,-86"/>
<polygon fill="midnightblue" stroke="midnightblue" points="270.504,-82.5001 260.504,-86 270.504,-89.5001 270.504,-82.5001"/>
</g>
<!-- Node5 -->
<g id="node9" class="node"><title>Node5</title>
<a xlink:href="class_gyro.html#aca619c0201c5fb85e2bbaeef0f39e8e6" target="_top" xlink:title="Gyro::PIDGet">
<polygon fill="white" stroke="black" points="311.5,-38.5 311.5,-57.5 386.5,-57.5 386.5,-38.5 311.5,-38.5"/>
<text text-anchor="middle" x="349" y="-45.5" font-family="Helvetica,sans-Serif" font-size="10.00">Gyro::PIDGet</text>
</a>
</g>
<!-- Node4&#45;&gt;Node5 -->
<g id="edge8" class="edge"><title>Node4&#45;&gt;Node5</title>
<path fill="none" stroke="midnightblue" d="M274.492,-48C286.873,-48 299.85,-48 311.394,-48"/>
<polygon fill="midnightblue" stroke="midnightblue" points="274.276,-44.5001 264.276,-48 274.276,-51.5001 274.276,-44.5001"/>
</g>
<!-- Node6 -->
<g id="node11" class="node"><title>Node6</title>
<a xlink:href="class_gyro.html#ad0113532a29eccdbe514eaae2002012c" target="_top" xlink:title="Gyro::UpdateTable">
<polygon fill="white" stroke="black" points="300,-0.5 300,-19.5 398,-19.5 398,-0.5 300,-0.5"/>
<text text-anchor="middle" x="349" y="-7.5" font-family="Helvetica,sans-Serif" font-size="10.00">Gyro::UpdateTable</text>
</a>
</g>
<!-- Node4&#45;&gt;Node6 -->
<g id="edge10" class="edge"><title>Node4&#45;&gt;Node6</title>
<path fill="none" stroke="midnightblue" d="M264.235,-35.4647C281.239,-30.2952 300.629,-24.4009 316.467,-19.5859"/>
<polygon fill="midnightblue" stroke="midnightblue" points="263.092,-32.1537 254.543,-38.411 265.128,-38.851 263.092,-32.1537"/>
</g>
<!-- Node7 -->
<g id="node13" class="node"><title>Node7</title>
<a xlink:href="class_gyro.html#ae00778b633c9c62f6a54039f544125d3" target="_top" xlink:title="Gyro::InitTable">
<polygon fill="white" stroke="black" points="434,-0.5 434,-19.5 514,-19.5 514,-0.5 434,-0.5"/>
<text text-anchor="middle" x="474" y="-7.5" font-family="Helvetica,sans-Serif" font-size="10.00">Gyro::InitTable</text>
</a>
</g>
<!-- Node6&#45;&gt;Node7 -->
<g id="edge12" class="edge"><title>Node6&#45;&gt;Node7</title>
<path fill="none" stroke="midnightblue" d="M408.376,-10C417.061,-10 425.83,-10 433.987,-10"/>
<polygon fill="midnightblue" stroke="midnightblue" points="408.26,-6.5001 398.26,-10 408.26,-13.5001 408.26,-6.5001"/>
</g>
</g>
</svg>
