<?xml version="1.0" encoding="UTF-8" standalone="no"?>
<!DOCTYPE svg PUBLIC "-//W3C//DTD SVG 1.1//EN"
 "http://www.w3.org/Graphics/SVG/1.1/DTD/svg11.dtd">
<!-- Generated by graphviz version 2.28.0 (20110507.0327)
 -->
<!-- Title: CANTalon::SetPID Pages: 1 -->
<svg width="230pt" height="104pt"
 viewBox="0.00 0.00 230.00 104.00" xmlns="http://www.w3.org/2000/svg" xmlns:xlink="http://www.w3.org/1999/xlink">
<g id="graph1" class="graph" transform="scale(1 1) rotate(0) translate(4 100)">
<title>CANTalon::SetPID</title>
<polygon fill="white" stroke="white" points="-4,5 -4,-100 227,-100 227,5 -4,5"/>
<!-- Node1 -->
<g id="node1" class="node"><title>Node1</title>
<polygon fill="#bfbfbf" stroke="black" points="0.5,-38.5 0.5,-57.5 97.5,-57.5 97.5,-38.5 0.5,-38.5"/>
<text text-anchor="middle" x="49" y="-45.5" font-family="Helvetica,sans-Serif" font-size="10.00">CANTalon::SetPID</text>
</g>
<!-- Node2 -->
<g id="node3" class="node"><title>Node2</title>
<a xlink:href="class_c_a_n_talon.html#a6a8c44252d104634d6a0c580088cbf98" target="_top" xlink:title="CANTalon::SetP">
<polygon fill="white" stroke="black" points="134,-76.5 134,-95.5 222,-95.5 222,-76.5 134,-76.5"/>
<text text-anchor="middle" x="178" y="-83.5" font-family="Helvetica,sans-Serif" font-size="10.00">CANTalon::SetP</text>
</a>
</g>
<!-- Node1&#45;&gt;Node2 -->
<g id="edge2" class="edge"><title>Node1&#45;&gt;Node2</title>
<path fill="none" stroke="midnightblue" d="M82.0475,-57.589C98.1411,-62.4044 117.841,-68.2988 135.117,-73.468"/>
<polygon fill="midnightblue" stroke="midnightblue" points="134.379,-76.9006 144.963,-76.4141 136.386,-70.1943 134.379,-76.9006"/>
</g>
<!-- Node3 -->
<g id="node5" class="node"><title>Node3</title>
<a xlink:href="class_c_a_n_talon.html#ac72349fb7837dff1a27c5288416eb1ac" target="_top" xlink:title="CANTalon::SetI">
<polygon fill="white" stroke="black" points="136.5,-38.5 136.5,-57.5 219.5,-57.5 219.5,-38.5 136.5,-38.5"/>
<text text-anchor="middle" x="178" y="-45.5" font-family="Helvetica,sans-Serif" font-size="10.00">CANTalon::SetI</text>
</a>
</g>
<!-- Node1&#45;&gt;Node3 -->
<g id="edge4" class="edge"><title>Node1&#45;&gt;Node3</title>
<path fill="none" stroke="midnightblue" d="M97.6514,-48C106.955,-48 116.744,-48 126.147,-48"/>
<polygon fill="midnightblue" stroke="midnightblue" points="126.158,-51.5001 136.158,-48 126.158,-44.5001 126.158,-51.5001"/>
</g>
<!-- Node4 -->
<g id="node7" class="node"><title>Node4</title>
<a xlink:href="class_c_a_n_talon.html#ad1d9dc5cb06e4efbf57ed10d91f2ee80" target="_top" xlink:title="CANTalon::SetD">
<polygon fill="white" stroke="black" points="134,-0.5 134,-19.5 222,-19.5 222,-0.5 134,-0.5"/>
<text text-anchor="middle" x="178" y="-7.5" font-family="Helvetica,sans-Serif" font-size="10.00">CANTalon::SetD</text>
</a>
</g>
<!-- Node1&#45;&gt;Node4 -->
<g id="edge6" class="edge"><title>Node1&#45;&gt;Node4</title>
<path fill="none" stroke="midnightblue" d="M82.0475,-38.411C98.1411,-33.5956 117.841,-27.7012 135.117,-22.532"/>
<polygon fill="midnightblue" stroke="midnightblue" points="136.386,-25.8057 144.963,-19.5859 134.379,-19.0994 136.386,-25.8057"/>
</g>
</g>
</svg>
