<?xml version="1.0" encoding="UTF-8" standalone="no"?>
<!DOCTYPE svg PUBLIC "-//W3C//DTD SVG 1.1//EN"
 "http://www.w3.org/Graphics/SVG/1.1/DTD/svg11.dtd">
<!-- Generated by graphviz version 2.28.0 (20110507.0327)
 -->
<!-- Title: LiveWindow::AddSensor Pages: 1 -->
<svg width="412pt" height="230pt"
 viewBox="0.00 0.00 412.00 230.00" xmlns="http://www.w3.org/2000/svg" xmlns:xlink="http://www.w3.org/1999/xlink">
<g id="graph1" class="graph" transform="scale(1 1) rotate(0) translate(4 226)">
<title>LiveWindow::AddSensor</title>
<polygon fill="white" stroke="white" points="-4,5 -4,-226 409,-226 409,5 -4,5"/>
<!-- Node1 -->
<g id="node1" class="node"><title>Node1</title>
<polygon fill="#bfbfbf" stroke="black" points="0,-104.5 0,-123.5 122,-123.5 122,-104.5 0,-104.5"/>
<text text-anchor="middle" x="61" y="-111.5" font-family="Helvetica,sans-Serif" font-size="10.00">LiveWindow::AddSensor</text>
</g>
<!-- Node2 -->
<g id="node3" class="node"><title>Node2</title>
<a xlink:href="class_live_window.html#a9eb9ac4b7d33ff0fc9ffc5899639febb" target="_top" xlink:title="LiveWindow::AddSensor">
<polygon fill="white" stroke="black" points="169,-202.5 169,-221.5 291,-221.5 291,-202.5 169,-202.5"/>
<text text-anchor="middle" x="230" y="-209.5" font-family="Helvetica,sans-Serif" font-size="10.00">LiveWindow::AddSensor</text>
</a>
</g>
<!-- Node1&#45;&gt;Node2 -->
<g id="edge2" class="edge"><title>Node1&#45;&gt;Node2</title>
<path fill="none" stroke="midnightblue" d="M78.1205,-131.036C96.0137,-148.977 126.54,-176.82 158,-193 165.376,-196.793 173.583,-199.885 181.725,-202.387"/>
<polygon fill="midnightblue" stroke="midnightblue" points="80.32,-128.279 70.8303,-123.567 75.3108,-133.168 80.32,-128.279"/>
</g>
<!-- Node3 -->
<g id="node5" class="node"><title>Node3</title>
<a xlink:href="class_a_d_x_l345___i2_c.html#ace28299f55450a560f959cf72613489a" target="_top" xlink:title="ADXL345_I2C::ADXL345_I2C">
<polygon fill="white" stroke="black" points="159.5,-164.5 159.5,-183.5 300.5,-183.5 300.5,-164.5 159.5,-164.5"/>
<text text-anchor="middle" x="230" y="-171.5" font-family="Helvetica,sans-Serif" font-size="10.00">ADXL345_I2C::ADXL345_I2C</text>
</a>
</g>
<!-- Node1&#45;&gt;Node3 -->
<g id="edge4" class="edge"><title>Node1&#45;&gt;Node3</title>
<path fill="none" stroke="midnightblue" d="M91.4768,-127.88C110.254,-136.397 135.244,-147.14 158,-155 168.011,-158.458 178.993,-161.67 189.266,-164.434"/>
<polygon fill="midnightblue" stroke="midnightblue" points="92.8171,-124.644 82.2684,-123.656 89.8984,-131.007 92.8171,-124.644"/>
</g>
<!-- Node4 -->
<g id="node7" class="node"><title>Node4</title>
<a xlink:href="class_a_d_x_l345___s_p_i.html#afd6ce38c4905606f32ae96342b2d29ca" target="_top" xlink:title="ADXL345_SPI::ADXL345_SPI">
<polygon fill="white" stroke="black" points="158,-126.5 158,-145.5 302,-145.5 302,-126.5 158,-126.5"/>
<text text-anchor="middle" x="230" y="-133.5" font-family="Helvetica,sans-Serif" font-size="10.00">ADXL345_SPI::ADXL345_SPI</text>
</a>
</g>
<!-- Node1&#45;&gt;Node4 -->
<g id="edge6" class="edge"><title>Node1&#45;&gt;Node4</title>
<path fill="none" stroke="midnightblue" d="M132.476,-123.284C140.919,-124.397 149.545,-125.533 157.995,-126.646"/>
<polygon fill="midnightblue" stroke="midnightblue" points="132.662,-119.779 122.291,-121.943 131.748,-126.719 132.662,-119.779"/>
</g>
<!-- Node5 -->
<g id="node9" class="node"><title>Node5</title>
<a xlink:href="class_built_in_accelerometer.html#ac76efde6517e1483e5ea9597e1c605bd" target="_top" xlink:title="BuiltInAccelerometer\l::BuiltInAccelerometer">
<polygon fill="white" stroke="black" points="173.5,-77 173.5,-107 286.5,-107 286.5,-77 173.5,-77"/>
<text text-anchor="start" x="181.5" y="-95" font-family="Helvetica,sans-Serif" font-size="10.00">BuiltInAccelerometer</text>
<text text-anchor="middle" x="230" y="-84" font-family="Helvetica,sans-Serif" font-size="10.00">::BuiltInAccelerometer</text>
</a>
</g>
<!-- Node1&#45;&gt;Node5 -->
<g id="edge8" class="edge"><title>Node1&#45;&gt;Node5</title>
<path fill="none" stroke="midnightblue" d="M132.565,-104.704C146.153,-102.914 160.209,-101.062 173.246,-99.3448"/>
<polygon fill="midnightblue" stroke="midnightblue" points="131.748,-101.281 122.291,-106.057 132.662,-108.221 131.748,-101.281"/>
</g>
<!-- Node6 -->
<g id="node11" class="node"><title>Node6</title>
<a xlink:href="class_gear_tooth.html#abc7cf72d7856aaf50b8eff53d461a979" target="_top" xlink:title="GearTooth::GearTooth">
<polygon fill="white" stroke="black" points="173.5,-38.5 173.5,-57.5 286.5,-57.5 286.5,-38.5 173.5,-38.5"/>
<text text-anchor="middle" x="230" y="-45.5" font-family="Helvetica,sans-Serif" font-size="10.00">GearTooth::GearTooth</text>
</a>
</g>
<!-- Node1&#45;&gt;Node6 -->
<g id="edge10" class="edge"><title>Node1&#45;&gt;Node6</title>
<path fill="none" stroke="midnightblue" d="M88.5857,-99.7321C107.561,-89.9301 133.888,-77.0954 158,-68 168.305,-64.113 179.698,-60.5805 190.287,-57.603"/>
<polygon fill="midnightblue" stroke="midnightblue" points="86.8836,-96.6725 79.6438,-104.408 90.1273,-102.876 86.8836,-96.6725"/>
</g>
<!-- Node7 -->
<g id="node13" class="node"><title>Node7</title>
<a xlink:href="class_gyro.html#ae26b1bacc0c5a4e1f9d85836fcb90736" target="_top" xlink:title="Gyro::InitGyro">
<polygon fill="white" stroke="black" points="191.5,-0.5 191.5,-19.5 268.5,-19.5 268.5,-0.5 191.5,-0.5"/>
<text text-anchor="middle" x="230" y="-7.5" font-family="Helvetica,sans-Serif" font-size="10.00">Gyro::InitGyro</text>
</a>
</g>
<!-- Node1&#45;&gt;Node7 -->
<g id="edge12" class="edge"><title>Node1&#45;&gt;Node7</title>
<path fill="none" stroke="midnightblue" d="M76.8281,-96.7467C94.3313,-77.4535 125.228,-46.6102 158,-29 168.228,-23.5036 180.157,-19.514 191.283,-16.6545"/>
<polygon fill="midnightblue" stroke="midnightblue" points="74.2014,-94.4336 70.1804,-104.236 79.4365,-99.0805 74.2014,-94.4336"/>
</g>
<!-- Node8 -->
<g id="node15" class="node"><title>Node8</title>
<a xlink:href="class_gyro.html#a06521f58180be9e342d941643f9b2491" target="_top" xlink:title="Gyro::Gyro">
<polygon fill="white" stroke="black" points="338.5,-0.5 338.5,-19.5 403.5,-19.5 403.5,-0.5 338.5,-0.5"/>
<text text-anchor="middle" x="371" y="-7.5" font-family="Helvetica,sans-Serif" font-size="10.00">Gyro::Gyro</text>
</a>
</g>
<!-- Node7&#45;&gt;Node8 -->
<g id="edge14" class="edge"><title>Node7&#45;&gt;Node8</title>
<path fill="none" stroke="midnightblue" d="M278.671,-10C298.43,-10 320.81,-10 338.47,-10"/>
<polygon fill="midnightblue" stroke="midnightblue" points="278.615,-6.5001 268.615,-10 278.615,-13.5001 278.615,-6.5001"/>
</g>
</g>
</svg>
