<?xml version="1.0" encoding="UTF-8" standalone="no"?>
<!DOCTYPE svg PUBLIC "-//W3C//DTD SVG 1.1//EN"
 "http://www.w3.org/Graphics/SVG/1.1/DTD/svg11.dtd">
<!-- Generated by graphviz version 2.28.0 (20110507.0327)
 -->
<!-- Title: DriverStation::DriverStation Pages: 1 -->
<svg width="462pt" height="77pt"
 viewBox="0.00 0.00 462.00 77.00" xmlns="http://www.w3.org/2000/svg" xmlns:xlink="http://www.w3.org/1999/xlink">
<g id="graph1" class="graph" transform="scale(1 1) rotate(0) translate(4 73)">
<title>DriverStation::DriverStation</title>
<polygon fill="white" stroke="white" points="-4,5 -4,-73 459,-73 459,5 -4,5"/>
<!-- Node1 -->
<g id="node1" class="node"><title>Node1</title>
<polygon fill="#bfbfbf" stroke="black" points="0,-22.5 0,-41.5 132,-41.5 132,-22.5 0,-22.5"/>
<text text-anchor="middle" x="66" y="-29.5" font-family="Helvetica,sans-Serif" font-size="10.00">DriverStation::DriverStation</text>
</g>
<!-- Node2 -->
<g id="node3" class="node"><title>Node2</title>
<a xlink:href="class_driver_station.html#ab0995c2d3f0b40cb13ac5aff656e46d0" target="_top" xlink:title="DriverStation::GetInstance">
<polygon fill="white" stroke="black" points="168,-22.5 168,-41.5 298,-41.5 298,-22.5 168,-22.5"/>
<text text-anchor="middle" x="233" y="-29.5" font-family="Helvetica,sans-Serif" font-size="10.00">DriverStation::GetInstance</text>
</a>
</g>
<!-- Node1&#45;&gt;Node2 -->
<g id="edge2" class="edge"><title>Node1&#45;&gt;Node2</title>
<path fill="none" stroke="midnightblue" d="M142.465,-32C150.931,-32 159.496,-32 167.801,-32"/>
<polygon fill="midnightblue" stroke="midnightblue" points="142.212,-28.5001 132.212,-32 142.212,-35.5001 142.212,-28.5001"/>
</g>
<!-- Node3 -->
<g id="node5" class="node"><title>Node3</title>
<a xlink:href="class_motor_safety_helper.html#a951390af947b507a299d1175b7e717cf" target="_top" xlink:title="MotorSafetyHelper::\lCheck">
<polygon fill="white" stroke="black" points="342.5,-39 342.5,-69 445.5,-69 445.5,-39 342.5,-39"/>
<text text-anchor="start" x="350.5" y="-57" font-family="Helvetica,sans-Serif" font-size="10.00">MotorSafetyHelper::</text>
<text text-anchor="middle" x="394" y="-46" font-family="Helvetica,sans-Serif" font-size="10.00">Check</text>
</a>
</g>
<!-- Node2&#45;&gt;Node3 -->
<g id="edge4" class="edge"><title>Node2&#45;&gt;Node3</title>
<path fill="none" stroke="midnightblue" d="M308.258,-42.2747C319.76,-43.8662 331.409,-45.4779 342.235,-46.976"/>
<polygon fill="midnightblue" stroke="midnightblue" points="308.598,-38.7885 298.213,-40.8848 307.639,-45.7225 308.598,-38.7885"/>
</g>
<!-- Node4 -->
<g id="node7" class="node"><title>Node4</title>
<a xlink:href="class_robot_base.html#a3043a0a78f4ec0e1e449eeed0a5db6e5" target="_top" xlink:title="RobotBase::RobotBase">
<polygon fill="white" stroke="black" points="334.5,-0.5 334.5,-19.5 453.5,-19.5 453.5,-0.5 334.5,-0.5"/>
<text text-anchor="middle" x="394" y="-7.5" font-family="Helvetica,sans-Serif" font-size="10.00">RobotBase::RobotBase</text>
</a>
</g>
<!-- Node2&#45;&gt;Node4 -->
<g id="edge6" class="edge"><title>Node2&#45;&gt;Node4</title>
<path fill="none" stroke="midnightblue" d="M308.125,-21.7437C316.959,-20.5215 325.881,-19.2869 334.453,-18.1008"/>
<polygon fill="midnightblue" stroke="midnightblue" points="307.639,-18.2775 298.213,-23.1152 308.598,-25.2115 307.639,-18.2775"/>
</g>
</g>
</svg>
