<?xml version="1.0" encoding="UTF-8" standalone="no"?>
<!DOCTYPE svg PUBLIC "-//W3C//DTD SVG 1.1//EN"
 "http://www.w3.org/Graphics/SVG/1.1/DTD/svg11.dtd">
<!-- Generated by graphviz version 2.28.0 (20110507.0327)
 -->
<!-- Title: ModifiedMockCommand::IsFinished Pages: 1 -->
<svg width="782pt" height="66pt"
 viewBox="0.00 0.00 782.00 66.00" xmlns="http://www.w3.org/2000/svg" xmlns:xlink="http://www.w3.org/1999/xlink">
<g id="graph1" class="graph" transform="scale(1 1) rotate(0) translate(4 62)">
<title>ModifiedMockCommand::IsFinished</title>
<polygon fill="white" stroke="white" points="-4,5 -4,-62 779,-62 779,5 -4,5"/>
<!-- Node1 -->
<g id="node1" class="node"><title>Node1</title>
<polygon fill="#bfbfbf" stroke="black" points="0.5,-14 0.5,-44 121.5,-44 121.5,-14 0.5,-14"/>
<text text-anchor="start" x="8.5" y="-32" font-family="Helvetica,sans-Serif" font-size="10.00">ModifiedMockCommand</text>
<text text-anchor="middle" x="61" y="-21" font-family="Helvetica,sans-Serif" font-size="10.00">::IsFinished</text>
</g>
<!-- Node2 -->
<g id="node3" class="node"><title>Node2</title>
<a xlink:href="class_mock_command.html#abd97fe11a55425333c06b764884174e4" target="_top" xlink:title="MockCommand::IsFinished">
<polygon fill="white" stroke="black" points="158.5,-38.5 158.5,-57.5 293.5,-57.5 293.5,-38.5 158.5,-38.5"/>
<text text-anchor="middle" x="226" y="-45.5" font-family="Helvetica,sans-Serif" font-size="10.00">MockCommand::IsFinished</text>
</a>
</g>
<!-- Node1&#45;&gt;Node2 -->
<g id="edge2" class="edge"><title>Node1&#45;&gt;Node2</title>
<path fill="none" stroke="midnightblue" d="M121.77,-35.967C130.418,-36.9751 139.418,-38.0242 148.34,-39.0642"/>
<polygon fill="midnightblue" stroke="midnightblue" points="148.02,-42.5505 158.358,-40.2319 148.831,-35.5976 148.02,-42.5505"/>
</g>
<!-- Node3 -->
<g id="node5" class="node"><title>Node3</title>
<a xlink:href="class_command.html#ad1283feb94bb07985eaafe1586ab2ff7" target="_top" xlink:title="Command::IsTimedOut">
<polygon fill="white" stroke="black" points="168,-0.5 168,-19.5 284,-19.5 284,-0.5 168,-0.5"/>
<text text-anchor="middle" x="226" y="-7.5" font-family="Helvetica,sans-Serif" font-size="10.00">Command::IsTimedOut</text>
</a>
</g>
<!-- Node1&#45;&gt;Node3 -->
<g id="edge4" class="edge"><title>Node1&#45;&gt;Node3</title>
<path fill="none" stroke="midnightblue" d="M121.77,-22.033C133.553,-20.6595 145.99,-19.2097 157.994,-17.8105"/>
<polygon fill="midnightblue" stroke="midnightblue" points="158.424,-21.2842 167.951,-16.6499 157.613,-14.3313 158.424,-21.2842"/>
</g>
<!-- Node4 -->
<g id="node7" class="node"><title>Node4</title>
<a xlink:href="class_command.html#a9e73c88648f4bb0f4ea6a4affa72344d" target="_top" xlink:title="Command::TimeSinceInitialized">
<polygon fill="white" stroke="black" points="330.5,-0.5 330.5,-19.5 483.5,-19.5 483.5,-0.5 330.5,-0.5"/>
<text text-anchor="middle" x="407" y="-7.5" font-family="Helvetica,sans-Serif" font-size="10.00">Command::TimeSinceInitialized</text>
</a>
</g>
<!-- Node3&#45;&gt;Node4 -->
<g id="edge6" class="edge"><title>Node3&#45;&gt;Node4</title>
<path fill="none" stroke="midnightblue" d="M284.129,-10C295.639,-10 307.975,-10 320.219,-10"/>
<polygon fill="midnightblue" stroke="midnightblue" points="320.461,-13.5001 330.461,-10 320.461,-6.5001 320.461,-13.5001"/>
</g>
<!-- Node5 -->
<g id="node9" class="node"><title>Node5</title>
<a xlink:href="class_timer.html#a7fa6e6dffec055e5104ccd6bcadec9aa" target="_top" xlink:title="Timer::GetFPGATimestamp">
<polygon fill="white" stroke="black" points="520.5,-0.5 520.5,-19.5 657.5,-19.5 657.5,-0.5 520.5,-0.5"/>
<text text-anchor="middle" x="589" y="-7.5" font-family="Helvetica,sans-Serif" font-size="10.00">Timer::GetFPGATimestamp</text>
</a>
</g>
<!-- Node4&#45;&gt;Node5 -->
<g id="edge8" class="edge"><title>Node4&#45;&gt;Node5</title>
<path fill="none" stroke="midnightblue" d="M483.554,-10C492.336,-10 501.306,-10 510.119,-10"/>
<polygon fill="midnightblue" stroke="midnightblue" points="510.371,-13.5001 520.371,-10 510.371,-6.5001 510.371,-13.5001"/>
</g>
<!-- Node6 -->
<g id="node11" class="node"><title>Node6</title>
<a xlink:href="_utility_8h.html#ababf055d95368485d48bd9a0231853f3" target="_top" xlink:title="GetFPGATime">
<polygon fill="white" stroke="black" points="694,-0.5 694,-19.5 774,-19.5 774,-0.5 694,-0.5"/>
<text text-anchor="middle" x="734" y="-7.5" font-family="Helvetica,sans-Serif" font-size="10.00">GetFPGATime</text>
</a>
</g>
<!-- Node5&#45;&gt;Node6 -->
<g id="edge10" class="edge"><title>Node5&#45;&gt;Node6</title>
<path fill="none" stroke="midnightblue" d="M657.731,-10C666.558,-10 675.463,-10 683.904,-10"/>
<polygon fill="midnightblue" stroke="midnightblue" points="683.934,-13.5001 693.933,-10 683.933,-6.5001 683.934,-13.5001"/>
</g>
</g>
</svg>
