<?xml version="1.0" encoding="UTF-8" standalone="no"?>
<!DOCTYPE svg PUBLIC "-//W3C//DTD SVG 1.1//EN"
 "http://www.w3.org/Graphics/SVG/1.1/DTD/svg11.dtd">
<!-- Generated by graphviz version 2.28.0 (20110507.0327)
 -->
<!-- Title: DriverStation Pages: 1 -->
<svg width="198pt" height="222pt"
 viewBox="0.00 0.00 198.00 222.00" xmlns="http://www.w3.org/2000/svg" xmlns:xlink="http://www.w3.org/1999/xlink">
<g id="graph1" class="graph" transform="scale(1 1) rotate(0) translate(4 218)">
<title>DriverStation</title>
<polygon fill="white" stroke="white" points="-4,5 -4,-218 195,-218 195,5 -4,5"/>
<!-- Node1 -->
<g id="node1" class="node"><title>Node1</title>
<polygon fill="#bfbfbf" stroke="black" points="50.5,-0.5 50.5,-19.5 121.5,-19.5 121.5,-0.5 50.5,-0.5"/>
<text text-anchor="middle" x="86" y="-7.5" font-family="Helvetica,sans-Serif" font-size="10.00">DriverStation</text>
</g>
<!-- Node2 -->
<g id="node2" class="node"><title>Node2</title>
<a xlink:href="class_sensor_base.html" target="_top" xlink:title="SensorBase">
<polygon fill="white" stroke="black" points="0,-58.5 0,-77.5 70,-77.5 70,-58.5 0,-58.5"/>
<text text-anchor="middle" x="35" y="-65.5" font-family="Helvetica,sans-Serif" font-size="10.00">SensorBase</text>
</a>
</g>
<!-- Node2&#45;&gt;Node1 -->
<g id="edge2" class="edge"><title>Node2&#45;&gt;Node1</title>
<path fill="none" stroke="midnightblue" d="M44.1125,-50.1293C52.3645,-40.022 64.0881,-27.6038 73.2448,-19.5052"/>
<polygon fill="midnightblue" stroke="midnightblue" points="41.1977,-48.1794 37.9063,-58.25 46.7594,-52.43 41.1977,-48.1794"/>
</g>
<!-- Node2&#45;&gt;Node1 -->
<g id="edge10" class="edge"><title>Node2&#45;&gt;Node1</title>
<path fill="none" stroke="midnightblue" d="M55.1256,-51.601C65.6579,-41.2846 77.3211,-28.0846 83.2082,-19.5852"/>
<polygon fill="midnightblue" stroke="midnightblue" points="52.6676,-49.1077 47.7552,-58.4948 57.4493,-54.22 52.6676,-49.1077"/>
</g>
<!-- Node3 -->
<g id="node4" class="node"><title>Node3</title>
<a xlink:href="class_error_base.html" target="_top" xlink:title="ErrorBase">
<polygon fill="white" stroke="black" points="5,-116.5 5,-135.5 65,-135.5 65,-116.5 5,-116.5"/>
<text text-anchor="middle" x="35" y="-123.5" font-family="Helvetica,sans-Serif" font-size="10.00">ErrorBase</text>
</a>
</g>
<!-- Node3&#45;&gt;Node2 -->
<g id="edge4" class="edge"><title>Node3&#45;&gt;Node2</title>
<path fill="none" stroke="midnightblue" d="M35,-105.953C35,-96.2875 35,-85.0312 35,-77.5052"/>
<polygon fill="midnightblue" stroke="midnightblue" points="31.5001,-106.25 35,-116.25 38.5001,-106.25 31.5001,-106.25"/>
</g>
<!-- Node4 -->
<g id="node6" class="node"><title>Node4</title>
<a xlink:href="class_error.html" target="_top" xlink:title="Error">
<polygon fill="white" stroke="black" points="16,-194.5 16,-213.5 54,-213.5 54,-194.5 16,-194.5"/>
<text text-anchor="middle" x="35" y="-201.5" font-family="Helvetica,sans-Serif" font-size="10.00">Error</text>
</a>
</g>
<!-- Node4&#45;&gt;Node3 -->
<g id="edge6" class="edge"><title>Node4&#45;&gt;Node3</title>
<path fill="none" stroke="#9a32cd" stroke-dasharray="5,2" d="M35,-184.224C35,-168.697 35,-147.358 35,-135.616"/>
<polygon fill="#9a32cd" stroke="#9a32cd" points="31.5001,-184.282 35,-194.282 38.5001,-184.282 31.5001,-184.282"/>
<text text-anchor="middle" x="62.5" y="-168" font-family="Helvetica,sans-Serif" font-size="10.00"> _globalError</text>
<text text-anchor="middle" x="62.5" y="-157" font-family="Helvetica,sans-Serif" font-size="10.00">m_error</text>
</g>
<!-- Node5 -->
<g id="node8" class="node"><title>Node5</title>
<a xlink:href="class_robot_state_interface.html" target="_top" xlink:title="RobotStateInterface">
<polygon fill="white" stroke="black" points="88,-58.5 88,-77.5 190,-77.5 190,-58.5 88,-58.5"/>
<text text-anchor="middle" x="139" y="-65.5" font-family="Helvetica,sans-Serif" font-size="10.00">RobotStateInterface</text>
</a>
</g>
<!-- Node5&#45;&gt;Node1 -->
<g id="edge8" class="edge"><title>Node5&#45;&gt;Node1</title>
<path fill="none" stroke="midnightblue" d="M118.324,-51.601C107.424,-41.2846 95.289,-28.0846 89.0984,-19.5852"/>
<polygon fill="midnightblue" stroke="midnightblue" points="116.178,-54.3792 125.941,-58.4948 120.876,-49.1893 116.178,-54.3792"/>
</g>
<!-- Node5&#45;&gt;Node1 -->
<g id="edge12" class="edge"><title>Node5&#45;&gt;Node1</title>
<path fill="none" stroke="midnightblue" d="M129.285,-50.1293C120.672,-40.022 108.505,-27.6038 99.0589,-19.5052"/>
<polygon fill="midnightblue" stroke="midnightblue" points="126.801,-52.6276 135.781,-58.25 132.267,-48.2548 126.801,-52.6276"/>
</g>
</g>
</svg>
