<?xml version="1.0" encoding="UTF-8" standalone="no"?>
<!DOCTYPE svg PUBLIC "-//W3C//DTD SVG 1.1//EN"
 "http://www.w3.org/Graphics/SVG/1.1/DTD/svg11.dtd">
<!-- Generated by graphviz version 2.28.0 (20110507.0327)
 -->
<!-- Title: Joystick::GetAxis Pages: 1 -->
<svg width="568pt" height="180pt"
 viewBox="0.00 0.00 568.00 180.00" xmlns="http://www.w3.org/2000/svg" xmlns:xlink="http://www.w3.org/1999/xlink">
<g id="graph1" class="graph" transform="scale(1 1) rotate(0) translate(4 176)">
<title>Joystick::GetAxis</title>
<polygon fill="white" stroke="white" points="-4,5 -4,-176 565,-176 565,5 -4,5"/>
<!-- Node1 -->
<g id="node1" class="node"><title>Node1</title>
<polygon fill="#bfbfbf" stroke="black" points="0,-76.5 0,-95.5 94,-95.5 94,-76.5 0,-76.5"/>
<text text-anchor="middle" x="47" y="-83.5" font-family="Helvetica,sans-Serif" font-size="10.00">Joystick::GetAxis</text>
</g>
<!-- Node2 -->
<g id="node3" class="node"><title>Node2</title>
<a xlink:href="class_joystick.html#a684f7ef395e7cf4d1137e816554446c9" target="_top" xlink:title="Joystick::GetX">
<polygon fill="white" stroke="black" points="144,-152.5 144,-171.5 224,-171.5 224,-152.5 144,-152.5"/>
<text text-anchor="middle" x="184" y="-159.5" font-family="Helvetica,sans-Serif" font-size="10.00">Joystick::GetX</text>
</a>
</g>
<!-- Node1&#45;&gt;Node2 -->
<g id="edge2" class="edge"><title>Node1&#45;&gt;Node2</title>
<path fill="none" stroke="midnightblue" d="M59.5959,-95.5446C74.9389,-107.815 103.184,-129.181 130,-143 134.019,-145.071 138.315,-147.014 142.658,-148.807"/>
<polygon fill="midnightblue" stroke="midnightblue" points="141.56,-152.135 152.149,-152.486 144.09,-145.608 141.56,-152.135"/>
</g>
<!-- Node5 -->
<g id="node9" class="node"><title>Node5</title>
<a xlink:href="class_joystick.html#a6f413b0da6c62d848113409acc9cb971" target="_top" xlink:title="Joystick::GetY">
<polygon fill="white" stroke="black" points="143.5,-114.5 143.5,-133.5 224.5,-133.5 224.5,-114.5 143.5,-114.5"/>
<text text-anchor="middle" x="184" y="-121.5" font-family="Helvetica,sans-Serif" font-size="10.00">Joystick::GetY</text>
</a>
</g>
<!-- Node1&#45;&gt;Node5 -->
<g id="edge8" class="edge"><title>Node1&#45;&gt;Node5</title>
<path fill="none" stroke="midnightblue" d="M82.0662,-95.589C99.4135,-100.472 120.702,-106.464 139.249,-111.685"/>
<polygon fill="midnightblue" stroke="midnightblue" points="138.37,-115.074 148.945,-114.414 140.267,-108.335 138.37,-115.074"/>
</g>
<!-- Node6 -->
<g id="node12" class="node"><title>Node6</title>
<a xlink:href="class_joystick.html#a4e8c04b243729f58bf360a6584eac775" target="_top" xlink:title="Joystick::GetZ">
<polygon fill="white" stroke="black" points="144,-76.5 144,-95.5 224,-95.5 224,-76.5 144,-76.5"/>
<text text-anchor="middle" x="184" y="-83.5" font-family="Helvetica,sans-Serif" font-size="10.00">Joystick::GetZ</text>
</a>
</g>
<!-- Node1&#45;&gt;Node6 -->
<g id="edge12" class="edge"><title>Node1&#45;&gt;Node6</title>
<path fill="none" stroke="midnightblue" d="M94.0818,-86C106.859,-86 120.779,-86 133.731,-86"/>
<polygon fill="midnightblue" stroke="midnightblue" points="133.87,-89.5001 143.87,-86 133.87,-82.5001 133.87,-89.5001"/>
</g>
<!-- Node7 -->
<g id="node15" class="node"><title>Node7</title>
<a xlink:href="class_joystick.html#a3b29a1a8121657bd3ba4aa95db050a5f" target="_top" xlink:title="Joystick::GetTwist">
<polygon fill="white" stroke="black" points="135.5,-38.5 135.5,-57.5 232.5,-57.5 232.5,-38.5 135.5,-38.5"/>
<text text-anchor="middle" x="184" y="-45.5" font-family="Helvetica,sans-Serif" font-size="10.00">Joystick::GetTwist</text>
</a>
</g>
<!-- Node1&#45;&gt;Node7 -->
<g id="edge16" class="edge"><title>Node1&#45;&gt;Node7</title>
<path fill="none" stroke="midnightblue" d="M82.0662,-76.411C99.4135,-71.5281 120.702,-65.5357 139.249,-60.315"/>
<polygon fill="midnightblue" stroke="midnightblue" points="140.267,-63.6646 148.945,-57.5859 138.37,-56.9265 140.267,-63.6646"/>
</g>
<!-- Node8 -->
<g id="node18" class="node"><title>Node8</title>
<a xlink:href="class_joystick.html#a3330cc651d36c58bffea669ff0b77161" target="_top" xlink:title="Joystick::GetThrottle">
<polygon fill="white" stroke="black" points="130.5,-0.5 130.5,-19.5 237.5,-19.5 237.5,-0.5 130.5,-0.5"/>
<text text-anchor="middle" x="184" y="-7.5" font-family="Helvetica,sans-Serif" font-size="10.00">Joystick::GetThrottle</text>
</a>
</g>
<!-- Node1&#45;&gt;Node8 -->
<g id="edge20" class="edge"><title>Node1&#45;&gt;Node8</title>
<path fill="none" stroke="midnightblue" d="M59.5959,-76.4554C74.9389,-64.1854 103.184,-42.8191 130,-29 134.019,-26.9291 138.315,-24.9863 142.658,-23.193"/>
<polygon fill="midnightblue" stroke="midnightblue" points="144.09,-26.3917 152.149,-19.514 141.56,-19.8649 144.09,-26.3917"/>
</g>
<!-- Node3 -->
<g id="node5" class="node"><title>Node3</title>
<a xlink:href="class_joystick.html#a1011135df443771aa07e3afa4a839b05" target="_top" xlink:title="Joystick::GetRawAxis">
<polygon fill="white" stroke="black" points="274.5,-76.5 274.5,-95.5 387.5,-95.5 387.5,-76.5 274.5,-76.5"/>
<text text-anchor="middle" x="331" y="-83.5" font-family="Helvetica,sans-Serif" font-size="10.00">Joystick::GetRawAxis</text>
</a>
</g>
<!-- Node2&#45;&gt;Node3 -->
<g id="edge4" class="edge"><title>Node2&#45;&gt;Node3</title>
<path fill="none" stroke="midnightblue" d="M215.165,-152.426C222.748,-149.683 230.781,-146.482 238,-143 262.931,-130.974 289.636,-113.912 307.816,-101.594"/>
<polygon fill="midnightblue" stroke="midnightblue" points="310.229,-104.182 316.491,-95.6362 306.266,-98.4121 310.229,-104.182"/>
</g>
<!-- Node4 -->
<g id="node7" class="node"><title>Node4</title>
<a xlink:href="class_driver_station.html#a3d0f8b9b6dd45cd071773a47d35059ac" target="_top" xlink:title="DriverStation::GetStickAxis">
<polygon fill="white" stroke="black" points="424.5,-76.5 424.5,-95.5 559.5,-95.5 559.5,-76.5 424.5,-76.5"/>
<text text-anchor="middle" x="492" y="-83.5" font-family="Helvetica,sans-Serif" font-size="10.00">DriverStation::GetStickAxis</text>
</a>
</g>
<!-- Node3&#45;&gt;Node4 -->
<g id="edge6" class="edge"><title>Node3&#45;&gt;Node4</title>
<path fill="none" stroke="midnightblue" d="M387.61,-86C396.264,-86 405.334,-86 414.355,-86"/>
<polygon fill="midnightblue" stroke="midnightblue" points="414.495,-89.5001 424.495,-86 414.495,-82.5001 414.495,-89.5001"/>
</g>
<!-- Node5&#45;&gt;Node3 -->
<g id="edge10" class="edge"><title>Node5&#45;&gt;Node3</title>
<path fill="none" stroke="midnightblue" d="M221.59,-114.411C240.465,-109.464 263.686,-103.379 283.788,-98.1108"/>
<polygon fill="midnightblue" stroke="midnightblue" points="284.887,-101.441 293.673,-95.5201 283.113,-94.6695 284.887,-101.441"/>
</g>
<!-- Node6&#45;&gt;Node3 -->
<g id="edge14" class="edge"><title>Node6&#45;&gt;Node3</title>
<path fill="none" stroke="midnightblue" d="M224.239,-86C236.537,-86 250.465,-86 264.08,-86"/>
<polygon fill="midnightblue" stroke="midnightblue" points="264.399,-89.5001 274.399,-86 264.399,-82.5001 264.399,-89.5001"/>
</g>
<!-- Node7&#45;&gt;Node3 -->
<g id="edge18" class="edge"><title>Node7&#45;&gt;Node3</title>
<path fill="none" stroke="midnightblue" d="M221.59,-57.589C240.465,-62.5358 263.686,-68.6211 283.788,-73.8892"/>
<polygon fill="midnightblue" stroke="midnightblue" points="283.113,-77.3305 293.673,-76.4799 284.887,-70.5591 283.113,-77.3305"/>
</g>
<!-- Node8&#45;&gt;Node3 -->
<g id="edge22" class="edge"><title>Node8&#45;&gt;Node3</title>
<path fill="none" stroke="midnightblue" d="M215.165,-19.5743C222.748,-22.3167 230.781,-25.5176 238,-29 262.931,-41.0264 289.636,-58.0876 307.816,-70.4061"/>
<polygon fill="midnightblue" stroke="midnightblue" points="306.266,-73.5879 316.491,-76.3638 310.229,-67.8176 306.266,-73.5879"/>
</g>
</g>
</svg>
