<?xml version="1.0" encoding="UTF-8" standalone="no"?>
<!DOCTYPE svg PUBLIC "-//W3C//DTD SVG 1.1//EN"
 "http://www.w3.org/Graphics/SVG/1.1/DTD/svg11.dtd">
<!-- Generated by graphviz version 2.28.0 (20110507.0327)
 -->
<!-- Title: PIDCommand Pages: 1 -->
<svg width="322pt" height="196pt"
 viewBox="0.00 0.00 322.00 196.00" xmlns="http://www.w3.org/2000/svg" xmlns:xlink="http://www.w3.org/1999/xlink">
<g id="graph1" class="graph" transform="scale(1 1) rotate(0) translate(4 192)">
<title>PIDCommand</title>
<polygon fill="white" stroke="white" points="-4,5 -4,-192 319,-192 319,5 -4,5"/>
<!-- Node1 -->
<g id="node1" class="node"><title>Node1</title>
<polygon fill="#bfbfbf" stroke="black" points="163.5,-0.5 163.5,-19.5 240.5,-19.5 240.5,-0.5 163.5,-0.5"/>
<text text-anchor="middle" x="202" y="-7.5" font-family="Helvetica,sans-Serif" font-size="10.00">PIDCommand</text>
</g>
<!-- Node2 -->
<g id="node2" class="node"><title>Node2</title>
<a xlink:href="class_command.html" target="_top" xlink:title="Command">
<polygon fill="white" stroke="black" points="91.5,-56.5 91.5,-75.5 152.5,-75.5 152.5,-56.5 91.5,-56.5"/>
<text text-anchor="middle" x="122" y="-63.5" font-family="Helvetica,sans-Serif" font-size="10.00">Command</text>
</a>
</g>
<!-- Node2&#45;&gt;Node1 -->
<g id="edge2" class="edge"><title>Node2&#45;&gt;Node1</title>
<path fill="none" stroke="midnightblue" d="M143.301,-50.6221C157.915,-40.7574 176.827,-27.9919 189.179,-19.6545"/>
<polygon fill="midnightblue" stroke="midnightblue" points="141.184,-47.8282 134.853,-56.324 145.1,-53.6302 141.184,-47.8282"/>
</g>
<!-- Node3 -->
<g id="node4" class="node"><title>Node3</title>
<a xlink:href="class_error_base.html" target="_top" xlink:title="ErrorBase">
<polygon fill="white" stroke="black" points="0,-112.5 0,-131.5 60,-131.5 60,-112.5 0,-112.5"/>
<text text-anchor="middle" x="30" y="-119.5" font-family="Helvetica,sans-Serif" font-size="10.00">ErrorBase</text>
</a>
</g>
<!-- Node3&#45;&gt;Node2 -->
<g id="edge4" class="edge"><title>Node3&#45;&gt;Node2</title>
<path fill="none" stroke="midnightblue" d="M53.5497,-107.177C70.4789,-97.2407 92.7828,-84.1492 107.255,-75.6545"/>
<polygon fill="midnightblue" stroke="midnightblue" points="51.6338,-104.243 44.7814,-112.324 55.1773,-110.28 51.6338,-104.243"/>
</g>
<!-- Node4 -->
<g id="node6" class="node"><title>Node4</title>
<a xlink:href="class_named_sendable.html" target="_top" xlink:title="NamedSendable">
<polygon fill="white" stroke="black" points="78,-112.5 78,-131.5 166,-131.5 166,-112.5 78,-112.5"/>
<text text-anchor="middle" x="122" y="-119.5" font-family="Helvetica,sans-Serif" font-size="10.00">NamedSendable</text>
</a>
</g>
<!-- Node4&#45;&gt;Node2 -->
<g id="edge6" class="edge"><title>Node4&#45;&gt;Node2</title>
<path fill="none" stroke="midnightblue" d="M122,-101.805C122,-92.9102 122,-82.7798 122,-75.7511"/>
<polygon fill="midnightblue" stroke="midnightblue" points="118.5,-102.083 122,-112.083 125.5,-102.083 118.5,-102.083"/>
</g>
<!-- Node5 -->
<g id="node8" class="node"><title>Node5</title>
<a xlink:href="class_sendable.html" target="_top" xlink:title="Sendable">
<polygon fill="white" stroke="black" points="93.5,-168.5 93.5,-187.5 150.5,-187.5 150.5,-168.5 93.5,-168.5"/>
<text text-anchor="middle" x="122" y="-175.5" font-family="Helvetica,sans-Serif" font-size="10.00">Sendable</text>
</a>
</g>
<!-- Node5&#45;&gt;Node4 -->
<g id="edge8" class="edge"><title>Node5&#45;&gt;Node4</title>
<path fill="none" stroke="midnightblue" d="M122,-157.805C122,-148.91 122,-138.78 122,-131.751"/>
<polygon fill="midnightblue" stroke="midnightblue" points="118.5,-158.083 122,-168.083 125.5,-158.083 118.5,-158.083"/>
</g>
<!-- Node6 -->
<g id="node10" class="node"><title>Node6</title>
<polygon fill="white" stroke="#bfbfbf" points="184.5,-112.5 184.5,-131.5 261.5,-131.5 261.5,-112.5 184.5,-112.5"/>
<text text-anchor="middle" x="223" y="-119.5" font-family="Helvetica,sans-Serif" font-size="10.00">ITableListener</text>
</g>
<!-- Node6&#45;&gt;Node2 -->
<g id="edge10" class="edge"><title>Node6&#45;&gt;Node2</title>
<path fill="none" stroke="midnightblue" d="M197.917,-107.59C179.243,-97.6052 154.296,-84.2672 138.187,-75.6545"/>
<polygon fill="midnightblue" stroke="midnightblue" points="196.304,-110.696 206.773,-112.324 199.604,-104.522 196.304,-110.696"/>
</g>
<!-- Node7 -->
<g id="node12" class="node"><title>Node7</title>
<a xlink:href="class_p_i_d_output.html" target="_top" xlink:title="PIDOutput">
<polygon fill="white" stroke="black" points="171,-56.5 171,-75.5 233,-75.5 233,-56.5 171,-56.5"/>
<text text-anchor="middle" x="202" y="-63.5" font-family="Helvetica,sans-Serif" font-size="10.00">PIDOutput</text>
</a>
</g>
<!-- Node7&#45;&gt;Node1 -->
<g id="edge12" class="edge"><title>Node7&#45;&gt;Node1</title>
<path fill="none" stroke="midnightblue" d="M202,-45.8045C202,-36.9102 202,-26.7798 202,-19.7511"/>
<polygon fill="midnightblue" stroke="midnightblue" points="198.5,-46.083 202,-56.083 205.5,-46.083 198.5,-46.083"/>
</g>
<!-- Node8 -->
<g id="node14" class="node"><title>Node8</title>
<a xlink:href="class_p_i_d_source.html" target="_top" xlink:title="PIDSource">
<polygon fill="white" stroke="black" points="251.5,-56.5 251.5,-75.5 314.5,-75.5 314.5,-56.5 251.5,-56.5"/>
<text text-anchor="middle" x="283" y="-63.5" font-family="Helvetica,sans-Serif" font-size="10.00">PIDSource</text>
</a>
</g>
<!-- Node8&#45;&gt;Node1 -->
<g id="edge14" class="edge"><title>Node8&#45;&gt;Node1</title>
<path fill="none" stroke="midnightblue" d="M261.433,-50.6221C246.636,-40.7574 227.488,-27.9919 214.982,-19.6545"/>
<polygon fill="midnightblue" stroke="midnightblue" points="259.724,-53.6891 269.986,-56.324 263.607,-47.8647 259.724,-53.6891"/>
</g>
</g>
</svg>
