<?xml version="1.0" encoding="UTF-8" standalone="no"?>
<!DOCTYPE svg PUBLIC "-//W3C//DTD SVG 1.1//EN"
 "http://www.w3.org/Graphics/SVG/1.1/DTD/svg11.dtd">
<!-- Generated by graphviz version 2.28.0 (20110507.0327)
 -->
<!-- Title: Command::GetRequirements Pages: 1 -->
<svg width="552pt" height="142pt"
 viewBox="0.00 0.00 552.00 142.00" xmlns="http://www.w3.org/2000/svg" xmlns:xlink="http://www.w3.org/1999/xlink">
<g id="graph1" class="graph" transform="scale(1 1) rotate(0) translate(4 138)">
<title>Command::GetRequirements</title>
<polygon fill="white" stroke="white" points="-4,5 -4,-138 549,-138 549,5 -4,5"/>
<!-- Node1 -->
<g id="node1" class="node"><title>Node1</title>
<polygon fill="#bfbfbf" stroke="black" points="0.5,-57.5 0.5,-76.5 143.5,-76.5 143.5,-57.5 0.5,-57.5"/>
<text text-anchor="middle" x="72" y="-64.5" font-family="Helvetica,sans-Serif" font-size="10.00">Command::GetRequirements</text>
</g>
<!-- Node2 -->
<g id="node3" class="node"><title>Node2</title>
<a xlink:href="class_command_group.html#a37206a473a9a01ba8098d73f452de71b" target="_top" xlink:title="CommandGroup::AddSequential">
<polygon fill="white" stroke="black" points="183,-114.5 183,-133.5 339,-133.5 339,-114.5 183,-114.5"/>
<text text-anchor="middle" x="261" y="-121.5" font-family="Helvetica,sans-Serif" font-size="10.00">CommandGroup::AddSequential</text>
</a>
</g>
<!-- Node1&#45;&gt;Node2 -->
<g id="edge2" class="edge"><title>Node1&#45;&gt;Node2</title>
<path fill="none" stroke="midnightblue" d="M106.801,-80.0606C127.704,-87.8728 155.192,-97.6723 180,-105 191.637,-108.437 204.366,-111.687 216.179,-114.494"/>
<polygon fill="midnightblue" stroke="midnightblue" points="107.993,-76.7699 97.4015,-76.5162 105.523,-83.3196 107.993,-76.7699"/>
</g>
<!-- Node3 -->
<g id="node5" class="node"><title>Node3</title>
<a xlink:href="class_command_group.html#a3c7e096849f7586389769454b3148be3" target="_top" xlink:title="CommandGroup::AddParallel">
<polygon fill="white" stroke="black" points="189.5,-76.5 189.5,-95.5 332.5,-95.5 332.5,-76.5 189.5,-76.5"/>
<text text-anchor="middle" x="261" y="-83.5" font-family="Helvetica,sans-Serif" font-size="10.00">CommandGroup::AddParallel</text>
</a>
</g>
<!-- Node1&#45;&gt;Node3 -->
<g id="edge4" class="edge"><title>Node1&#45;&gt;Node3</title>
<path fill="none" stroke="midnightblue" d="M153.927,-75.2226C165.669,-76.4156 177.681,-77.6361 189.203,-78.8068"/>
<polygon fill="midnightblue" stroke="midnightblue" points="153.999,-71.7119 143.697,-74.1831 153.292,-78.6761 153.999,-71.7119"/>
</g>
<!-- Node4 -->
<g id="node7" class="node"><title>Node4</title>
<a xlink:href="class_scheduler.html#a5fd987a5f7a9ba180207a1289a7bd477" target="_top" xlink:title="Scheduler::Remove">
<polygon fill="white" stroke="black" points="210.5,-38.5 210.5,-57.5 311.5,-57.5 311.5,-38.5 210.5,-38.5"/>
<text text-anchor="middle" x="261" y="-45.5" font-family="Helvetica,sans-Serif" font-size="10.00">Scheduler::Remove</text>
</a>
</g>
<!-- Node1&#45;&gt;Node4 -->
<g id="edge6" class="edge"><title>Node1&#45;&gt;Node4</title>
<path fill="none" stroke="midnightblue" d="M153.702,-58.8003C172.999,-56.8396 193.038,-54.8037 210.445,-53.035"/>
<polygon fill="midnightblue" stroke="midnightblue" points="153.292,-55.3239 143.697,-59.8169 153.999,-62.2881 153.292,-55.3239"/>
</g>
<!-- Node6 -->
<g id="node11" class="node"><title>Node6</title>
<a xlink:href="class_subsystem.html#aeb73b1829ac913e95035064d1b46c6f2" target="_top" xlink:title="Subsystem::SetDefaultCommand">
<polygon fill="white" stroke="black" points="180.5,-0.5 180.5,-19.5 341.5,-19.5 341.5,-0.5 180.5,-0.5"/>
<text text-anchor="middle" x="261" y="-7.5" font-family="Helvetica,sans-Serif" font-size="10.00">Subsystem::SetDefaultCommand</text>
</a>
</g>
<!-- Node1&#45;&gt;Node6 -->
<g id="edge10" class="edge"><title>Node1&#45;&gt;Node6</title>
<path fill="none" stroke="midnightblue" d="M106.801,-53.9394C127.704,-46.1272 155.192,-36.3277 180,-29 191.637,-25.5627 204.366,-22.3133 216.179,-19.506"/>
<polygon fill="midnightblue" stroke="midnightblue" points="105.523,-50.6804 97.4015,-57.4838 107.993,-57.2301 105.523,-50.6804"/>
</g>
<!-- Node5 -->
<g id="node9" class="node"><title>Node5</title>
<a xlink:href="class_scheduler.html#a6e17233143754873d7f29860047de2c1" target="_top" xlink:title="Scheduler::Run">
<polygon fill="white" stroke="black" points="419.5,-38.5 419.5,-57.5 502.5,-57.5 502.5,-38.5 419.5,-38.5"/>
<text text-anchor="middle" x="461" y="-45.5" font-family="Helvetica,sans-Serif" font-size="10.00">Scheduler::Run</text>
</a>
</g>
<!-- Node4&#45;&gt;Node5 -->
<g id="edge8" class="edge"><title>Node4&#45;&gt;Node5</title>
<path fill="none" stroke="midnightblue" d="M322.115,-48C353.573,-48 391.258,-48 419.275,-48"/>
<polygon fill="midnightblue" stroke="midnightblue" points="321.708,-44.5001 311.708,-48 321.708,-51.5001 321.708,-44.5001"/>
</g>
<!-- Node7 -->
<g id="node13" class="node"><title>Node7</title>
<a xlink:href="class_a_subsystem.html#addb38299b48c9b74c55932971c539b1a" target="_top" xlink:title="ASubsystem::InitDefaultCommand">
<polygon fill="white" stroke="black" points="378,-0.5 378,-19.5 544,-19.5 544,-0.5 378,-0.5"/>
<text text-anchor="middle" x="461" y="-7.5" font-family="Helvetica,sans-Serif" font-size="10.00">ASubsystem::InitDefaultCommand</text>
</a>
</g>
<!-- Node6&#45;&gt;Node7 -->
<g id="edge12" class="edge"><title>Node6&#45;&gt;Node7</title>
<path fill="none" stroke="midnightblue" d="M351.819,-10C360.508,-10 369.292,-10 377.901,-10"/>
<polygon fill="midnightblue" stroke="midnightblue" points="351.678,-6.5001 341.678,-10 351.678,-13.5001 351.678,-6.5001"/>
</g>
</g>
</svg>
