<?xml version="1.0" encoding="UTF-8" standalone="no"?>
<!DOCTYPE svg PUBLIC "-//W3C//DTD SVG 1.1//EN"
 "http://www.w3.org/Graphics/SVG/1.1/DTD/svg11.dtd">
<!-- Generated by graphviz version 2.28.0 (20110507.0327)
 -->
<!-- Title: ImageBase Pages: 1 -->
<svg width="242pt" height="196pt"
 viewBox="0.00 0.00 242.00 196.00" xmlns="http://www.w3.org/2000/svg" xmlns:xlink="http://www.w3.org/1999/xlink">
<g id="graph1" class="graph" transform="scale(1 1) rotate(0) translate(4 192)">
<title>ImageBase</title>
<polygon fill="white" stroke="white" points="-4,5 -4,-192 239,-192 239,5 -4,5"/>
<!-- Node1 -->
<g id="node1" class="node"><title>Node1</title>
<polygon fill="#bfbfbf" stroke="black" points="121.5,-112.5 121.5,-131.5 186.5,-131.5 186.5,-112.5 121.5,-112.5"/>
<text text-anchor="middle" x="154" y="-119.5" font-family="Helvetica,sans-Serif" font-size="10.00">ImageBase</text>
</g>
<!-- Node3 -->
<g id="node5" class="node"><title>Node3</title>
<a xlink:href="class_color_image.html" target="_top" xlink:title="ColorImage">
<polygon fill="white" stroke="black" points="79.5,-56.5 79.5,-75.5 144.5,-75.5 144.5,-56.5 79.5,-56.5"/>
<text text-anchor="middle" x="112" y="-63.5" font-family="Helvetica,sans-Serif" font-size="10.00">ColorImage</text>
</a>
</g>
<!-- Node1&#45;&gt;Node3 -->
<g id="edge4" class="edge"><title>Node1&#45;&gt;Node3</title>
<path fill="none" stroke="midnightblue" d="M140.89,-104.144C133.572,-94.7357 124.759,-83.4046 118.806,-75.7511"/>
<polygon fill="midnightblue" stroke="midnightblue" points="138.162,-106.338 147.065,-112.083 143.688,-102.041 138.162,-106.338"/>
</g>
<!-- Node6 -->
<g id="node11" class="node"><title>Node6</title>
<a xlink:href="class_mono_image.html" target="_top" xlink:title="MonoImage">
<polygon fill="white" stroke="black" points="163.5,-56.5 163.5,-75.5 230.5,-75.5 230.5,-56.5 163.5,-56.5"/>
<text text-anchor="middle" x="197" y="-63.5" font-family="Helvetica,sans-Serif" font-size="10.00">MonoImage</text>
</a>
</g>
<!-- Node1&#45;&gt;Node6 -->
<g id="edge10" class="edge"><title>Node1&#45;&gt;Node6</title>
<path fill="none" stroke="midnightblue" d="M167.422,-104.144C174.914,-94.7357 183.937,-83.4046 190.032,-75.7511"/>
<polygon fill="midnightblue" stroke="midnightblue" points="164.592,-102.08 161.101,-112.083 170.068,-106.44 164.592,-102.08"/>
</g>
<!-- Node2 -->
<g id="node2" class="node"><title>Node2</title>
<a xlink:href="class_error_base.html" target="_top" xlink:title="ErrorBase">
<polygon fill="white" stroke="black" points="124,-168.5 124,-187.5 184,-187.5 184,-168.5 124,-168.5"/>
<text text-anchor="middle" x="154" y="-175.5" font-family="Helvetica,sans-Serif" font-size="10.00">ErrorBase</text>
</a>
</g>
<!-- Node2&#45;&gt;Node1 -->
<g id="edge2" class="edge"><title>Node2&#45;&gt;Node1</title>
<path fill="none" stroke="midnightblue" d="M154,-157.805C154,-148.91 154,-138.78 154,-131.751"/>
<polygon fill="midnightblue" stroke="midnightblue" points="150.5,-158.083 154,-168.083 157.5,-158.083 150.5,-158.083"/>
</g>
<!-- Node4 -->
<g id="node7" class="node"><title>Node4</title>
<a xlink:href="class_h_s_l_image.html" target="_top" xlink:title="HSLImage">
<polygon fill="white" stroke="black" points="0,-0.5 0,-19.5 62,-19.5 62,-0.5 0,-0.5"/>
<text text-anchor="middle" x="31" y="-7.5" font-family="Helvetica,sans-Serif" font-size="10.00">HSLImage</text>
</a>
</g>
<!-- Node3&#45;&gt;Node4 -->
<g id="edge6" class="edge"><title>Node3&#45;&gt;Node4</title>
<path fill="none" stroke="midnightblue" d="M90.4332,-50.6221C75.636,-40.7574 56.4878,-27.9919 43.9818,-19.6545"/>
<polygon fill="midnightblue" stroke="midnightblue" points="88.724,-53.6891 98.9859,-56.324 92.6069,-47.8647 88.724,-53.6891"/>
</g>
<!-- Node5 -->
<g id="node9" class="node"><title>Node5</title>
<a xlink:href="class_r_g_b_image.html" target="_top" xlink:title="RGBImage">
<polygon fill="white" stroke="black" points="80,-0.5 80,-19.5 144,-19.5 144,-0.5 80,-0.5"/>
<text text-anchor="middle" x="112" y="-7.5" font-family="Helvetica,sans-Serif" font-size="10.00">RGBImage</text>
</a>
</g>
<!-- Node3&#45;&gt;Node5 -->
<g id="edge8" class="edge"><title>Node3&#45;&gt;Node5</title>
<path fill="none" stroke="midnightblue" d="M112,-45.8045C112,-36.9102 112,-26.7798 112,-19.7511"/>
<polygon fill="midnightblue" stroke="midnightblue" points="108.5,-46.083 112,-56.083 115.5,-46.083 108.5,-46.083"/>
</g>
<!-- Node7 -->
<g id="node13" class="node"><title>Node7</title>
<a xlink:href="class_binary_image.html" target="_top" xlink:title="BinaryImage">
<polygon fill="white" stroke="black" points="162.5,-0.5 162.5,-19.5 233.5,-19.5 233.5,-0.5 162.5,-0.5"/>
<text text-anchor="middle" x="198" y="-7.5" font-family="Helvetica,sans-Serif" font-size="10.00">BinaryImage</text>
</a>
</g>
<!-- Node6&#45;&gt;Node7 -->
<g id="edge12" class="edge"><title>Node6&#45;&gt;Node7</title>
<path fill="none" stroke="midnightblue" d="M197.355,-45.8045C197.52,-36.9102 197.708,-26.7798 197.838,-19.7511"/>
<polygon fill="midnightblue" stroke="midnightblue" points="193.851,-46.0199 197.165,-56.083 200.85,-46.1495 193.851,-46.0199"/>
</g>
</g>
</svg>
