<?xml version="1.0" encoding="UTF-8" standalone="no"?>
<!DOCTYPE svg PUBLIC "-//W3C//DTD SVG 1.1//EN"
 "http://www.w3.org/Graphics/SVG/1.1/DTD/svg11.dtd">
<!-- Generated by graphviz version 2.28.0 (20110507.0327)
 -->
<!-- Title: DoubleSolenoid::IsFwdSolenoidBlackListed Pages: 1 -->
<svg width="356pt" height="38pt"
 viewBox="0.00 0.00 356.00 38.00" xmlns="http://www.w3.org/2000/svg" xmlns:xlink="http://www.w3.org/1999/xlink">
<g id="graph1" class="graph" transform="scale(1 1) rotate(0) translate(4 34)">
<title>DoubleSolenoid::IsFwdSolenoidBlackListed</title>
<polygon fill="white" stroke="white" points="-4,5 -4,-34 353,-34 353,5 -4,5"/>
<!-- Node1 -->
<g id="node1" class="node"><title>Node1</title>
<polygon fill="#bfbfbf" stroke="black" points="0.5,-0 0.5,-30 153.5,-30 153.5,-0 0.5,-0"/>
<text text-anchor="start" x="8.5" y="-18" font-family="Helvetica,sans-Serif" font-size="10.00">DoubleSolenoid::IsFwdSolenoid</text>
<text text-anchor="middle" x="77" y="-7" font-family="Helvetica,sans-Serif" font-size="10.00">BlackListed</text>
</g>
<!-- Node2 -->
<g id="node3" class="node"><title>Node2</title>
<a xlink:href="class_solenoid_base.html#a664eef2a8c51bca7f30c1c8fdf0f3476" target="_top" xlink:title="SolenoidBase::GetPCMSolenoid\lBlackList">
<polygon fill="white" stroke="black" points="190,-0 190,-30 348,-30 348,-0 190,-0"/>
<text text-anchor="start" x="198" y="-18" font-family="Helvetica,sans-Serif" font-size="10.00">SolenoidBase::GetPCMSolenoid</text>
<text text-anchor="middle" x="269" y="-7" font-family="Helvetica,sans-Serif" font-size="10.00">BlackList</text>
</a>
</g>
<!-- Node1&#45;&gt;Node2 -->
<g id="edge2" class="edge"><title>Node1&#45;&gt;Node2</title>
<path fill="none" stroke="midnightblue" d="M153.639,-15C162.193,-15 170.965,-15 179.663,-15"/>
<polygon fill="midnightblue" stroke="midnightblue" points="179.821,-18.5001 189.821,-15 179.821,-11.5001 179.821,-18.5001"/>
</g>
</g>
</svg>
