<?xml version="1.0" encoding="UTF-8" standalone="no"?>
<!DOCTYPE svg PUBLIC "-//W3C//DTD SVG 1.1//EN"
 "http://www.w3.org/Graphics/SVG/1.1/DTD/svg11.dtd">
<!-- Generated by graphviz version 2.28.0 (20110507.0327)
 -->
<!-- Title: SmartDashboard::PutData Pages: 1 -->
<svg width="522pt" height="85pt"
 viewBox="0.00 0.00 522.00 85.00" xmlns="http://www.w3.org/2000/svg" xmlns:xlink="http://www.w3.org/1999/xlink">
<g id="graph1" class="graph" transform="scale(1 1) rotate(0) translate(4 81)">
<title>SmartDashboard::PutData</title>
<polygon fill="white" stroke="white" points="-4,5 -4,-81 519,-81 519,5 -4,5"/>
<!-- Node1 -->
<g id="node1" class="node"><title>Node1</title>
<polygon fill="#bfbfbf" stroke="black" points="0.5,-19.5 0.5,-38.5 131.5,-38.5 131.5,-19.5 0.5,-19.5"/>
<text text-anchor="middle" x="66" y="-26.5" font-family="Helvetica,sans-Serif" font-size="10.00">SmartDashboard::PutData</text>
</g>
<!-- Node2 -->
<g id="node3" class="node"><title>Node2</title>
<a xlink:href="class_smart_dashboard.html#a8d59e5321699ba6746c80374687818d9" target="_top" xlink:title="SmartDashboard::PutData">
<polygon fill="white" stroke="black" points="170.5,-38.5 170.5,-57.5 301.5,-57.5 301.5,-38.5 170.5,-38.5"/>
<text text-anchor="middle" x="236" y="-45.5" font-family="Helvetica,sans-Serif" font-size="10.00">SmartDashboard::PutData</text>
</a>
</g>
<!-- Node1&#45;&gt;Node2 -->
<g id="edge2" class="edge"><title>Node1&#45;&gt;Node2</title>
<path fill="none" stroke="midnightblue" d="M131.953,-36.3459C141.243,-37.3965 150.861,-38.4842 160.319,-39.5539"/>
<polygon fill="midnightblue" stroke="midnightblue" points="160.166,-43.0589 170.496,-40.7049 160.953,-36.1032 160.166,-43.0589"/>
</g>
<!-- Node5 -->
<g id="node9" class="node"><title>Node5</title>
<a xlink:href="class_named_sendable.html#a0ddd4f42fe7e22c72d16d3a72fa165fb" target="_top" xlink:title="NamedSendable::GetName">
<polygon fill="white" stroke="black" points="168.5,-0.5 168.5,-19.5 303.5,-19.5 303.5,-0.5 168.5,-0.5"/>
<text text-anchor="middle" x="236" y="-7.5" font-family="Helvetica,sans-Serif" font-size="10.00">NamedSendable::GetName</text>
</a>
</g>
<!-- Node1&#45;&gt;Node5 -->
<g id="edge8" class="edge"><title>Node1&#45;&gt;Node5</title>
<path fill="none" stroke="midnightblue" d="M131.953,-21.6541C140.514,-20.6859 149.354,-19.6861 158.091,-18.6981"/>
<polygon fill="midnightblue" stroke="midnightblue" points="158.733,-22.1478 168.277,-17.5461 157.947,-15.1921 158.733,-22.1478"/>
</g>
<!-- Node3 -->
<g id="node5" class="node"><title>Node3</title>
<a xlink:href="class_sendable.html#a51bd7fbeacbe87da45824a9cfbdcbbfe" target="_top" xlink:title="Sendable::GetSmartDashboardType">
<polygon fill="white" stroke="black" points="340.5,-57.5 340.5,-76.5 513.5,-76.5 513.5,-57.5 340.5,-57.5"/>
<text text-anchor="middle" x="427" y="-64.5" font-family="Helvetica,sans-Serif" font-size="10.00">Sendable::GetSmartDashboardType</text>
</a>
</g>
<!-- Node2&#45;&gt;Node3 -->
<g id="edge4" class="edge"><title>Node2&#45;&gt;Node3</title>
<path fill="none" stroke="midnightblue" d="M301.514,-54.4856C310.8,-55.4191 320.517,-56.3959 330.252,-57.3745"/>
<polygon fill="midnightblue" stroke="midnightblue" points="330.086,-60.8754 340.386,-58.3933 330.786,-53.9105 330.086,-60.8754"/>
</g>
<!-- Node4 -->
<g id="node7" class="node"><title>Node4</title>
<a xlink:href="class_sendable.html#a24fa428549e4d20f56f1c027c6fa7bd0" target="_top" xlink:title="Sendable::InitTable">
<polygon fill="white" stroke="black" points="377.5,-19.5 377.5,-38.5 476.5,-38.5 476.5,-19.5 377.5,-19.5"/>
<text text-anchor="middle" x="427" y="-26.5" font-family="Helvetica,sans-Serif" font-size="10.00">Sendable::InitTable</text>
</a>
</g>
<!-- Node2&#45;&gt;Node4 -->
<g id="edge6" class="edge"><title>Node2&#45;&gt;Node4</title>
<path fill="none" stroke="midnightblue" d="M301.514,-41.5144C322.835,-39.3711 346.427,-36.9994 367.289,-34.9021"/>
<polygon fill="midnightblue" stroke="midnightblue" points="367.69,-38.3796 377.289,-33.8968 366.989,-31.4147 367.69,-38.3796"/>
</g>
</g>
</svg>
