<?xml version="1.0" encoding="UTF-8" standalone="no"?>
<!DOCTYPE svg PUBLIC "-//W3C//DTD SVG 1.1//EN"
 "http://www.w3.org/Graphics/SVG/1.1/DTD/svg11.dtd">
<!-- Generated by graphviz version 2.28.0 (20110507.0327)
 -->
<!-- Title: Jaguar::PIDWrite Pages: 1 -->
<svg width="842pt" height="85pt"
 viewBox="0.00 0.00 842.00 85.00" xmlns="http://www.w3.org/2000/svg" xmlns:xlink="http://www.w3.org/1999/xlink">
<g id="graph1" class="graph" transform="scale(1 1) rotate(0) translate(4 81)">
<title>Jaguar::PIDWrite</title>
<polygon fill="white" stroke="white" points="-4,5 -4,-81 839,-81 839,5 -4,5"/>
<!-- Node1 -->
<g id="node1" class="node"><title>Node1</title>
<polygon fill="#bfbfbf" stroke="black" points="0,-19.5 0,-38.5 90,-38.5 90,-19.5 0,-19.5"/>
<text text-anchor="middle" x="45" y="-26.5" font-family="Helvetica,sans-Serif" font-size="10.00">Jaguar::PIDWrite</text>
</g>
<!-- Node2 -->
<g id="node3" class="node"><title>Node2</title>
<a xlink:href="class_jaguar.html#aac394eb2d4f46b29b477a7939cdec2a9" target="_top" xlink:title="Jaguar::Set">
<polygon fill="white" stroke="black" points="126,-19.5 126,-38.5 192,-38.5 192,-19.5 126,-19.5"/>
<text text-anchor="middle" x="159" y="-26.5" font-family="Helvetica,sans-Serif" font-size="10.00">Jaguar::Set</text>
</a>
</g>
<!-- Node1&#45;&gt;Node2 -->
<g id="edge2" class="edge"><title>Node1&#45;&gt;Node2</title>
<path fill="none" stroke="midnightblue" d="M90.2654,-29C98.6058,-29 107.31,-29 115.592,-29"/>
<polygon fill="midnightblue" stroke="midnightblue" points="115.797,-32.5001 125.797,-29 115.797,-25.5001 115.797,-32.5001"/>
</g>
<!-- Node3 -->
<g id="node5" class="node"><title>Node3</title>
<a xlink:href="class_safe_p_w_m.html#af1ed936d88f3ee6446b01c17feb24b78" target="_top" xlink:title="SafePWM::SetSpeed">
<polygon fill="white" stroke="black" points="228,-19.5 228,-38.5 338,-38.5 338,-19.5 228,-19.5"/>
<text text-anchor="middle" x="283" y="-26.5" font-family="Helvetica,sans-Serif" font-size="10.00">SafePWM::SetSpeed</text>
</a>
</g>
<!-- Node2&#45;&gt;Node3 -->
<g id="edge4" class="edge"><title>Node2&#45;&gt;Node3</title>
<path fill="none" stroke="midnightblue" d="M192.054,-29C200.056,-29 208.923,-29 217.88,-29"/>
<polygon fill="midnightblue" stroke="midnightblue" points="217.99,-32.5001 227.99,-29 217.99,-25.5001 217.99,-32.5001"/>
</g>
<!-- Node4 -->
<g id="node7" class="node"><title>Node4</title>
<a xlink:href="class_p_w_m.html#a947e5f6073da9e4d1b60db0c7791ca9c" target="_top" xlink:title="PWM::SetSpeed">
<polygon fill="white" stroke="black" points="392,-38.5 392,-57.5 482,-57.5 482,-38.5 392,-38.5"/>
<text text-anchor="middle" x="437" y="-45.5" font-family="Helvetica,sans-Serif" font-size="10.00">PWM::SetSpeed</text>
</a>
</g>
<!-- Node3&#45;&gt;Node4 -->
<g id="edge6" class="edge"><title>Node3&#45;&gt;Node4</title>
<path fill="none" stroke="midnightblue" d="M338.017,-35.7522C352.162,-37.5203 367.419,-39.4273 381.584,-41.198"/>
<polygon fill="midnightblue" stroke="midnightblue" points="381.318,-44.6919 391.675,-42.4593 382.186,-37.7459 381.318,-44.6919"/>
</g>
<!-- Node7 -->
<g id="node14" class="node"><title>Node7</title>
<a xlink:href="class_motor_safety_helper.html#a67b80e9817dc725e0678de5e8f0bb39e" target="_top" xlink:title="MotorSafetyHelper::Feed">
<polygon fill="white" stroke="black" points="374.5,-0.5 374.5,-19.5 499.5,-19.5 499.5,-0.5 374.5,-0.5"/>
<text text-anchor="middle" x="437" y="-7.5" font-family="Helvetica,sans-Serif" font-size="10.00">MotorSafetyHelper::Feed</text>
</a>
</g>
<!-- Node3&#45;&gt;Node7 -->
<g id="edge14" class="edge"><title>Node3&#45;&gt;Node7</title>
<path fill="none" stroke="midnightblue" d="M338.017,-22.2478C346.573,-21.1783 355.536,-20.0581 364.417,-18.9478"/>
<polygon fill="midnightblue" stroke="midnightblue" points="364.896,-22.4153 374.385,-17.7019 364.028,-15.4694 364.896,-22.4153"/>
</g>
<!-- Node5 -->
<g id="node9" class="node"><title>Node5</title>
<a xlink:href="class_error_base.html#a05790f219c9e436a09752f73f7344024" target="_top" xlink:title="Check if the current error code represents a fatal error. ">
<polygon fill="white" stroke="black" points="710,-57.5 710,-76.5 834,-76.5 834,-57.5 710,-57.5"/>
<text text-anchor="middle" x="772" y="-64.5" font-family="Helvetica,sans-Serif" font-size="10.00">ErrorBase::StatusIsFatal</text>
</a>
</g>
<!-- Node4&#45;&gt;Node5 -->
<g id="edge8" class="edge"><title>Node4&#45;&gt;Node5</title>
<path fill="none" stroke="midnightblue" d="M477.799,-57.5105C495.506,-61.2756 516.679,-65.1443 536,-67 590.862,-72.2692 653.26,-71.9774 699.965,-70.5263"/>
<polygon fill="midnightblue" stroke="midnightblue" points="700.107,-74.0236 709.983,-70.1899 699.872,-67.0276 700.107,-74.0236"/>
</g>
<!-- Node6 -->
<g id="node11" class="node"><title>Node6</title>
<a xlink:href="class_p_w_m.html#a0c546e1aa7d5d091447a819e50fae9ca" target="_top" xlink:title="PWM::SetRaw">
<polygon fill="white" stroke="black" points="564.5,-38.5 564.5,-57.5 645.5,-57.5 645.5,-38.5 564.5,-38.5"/>
<text text-anchor="middle" x="605" y="-45.5" font-family="Helvetica,sans-Serif" font-size="10.00">PWM::SetRaw</text>
</a>
</g>
<!-- Node4&#45;&gt;Node6 -->
<g id="edge10" class="edge"><title>Node4&#45;&gt;Node6</title>
<path fill="none" stroke="midnightblue" d="M482.049,-48C504.205,-48 531.151,-48 554.073,-48"/>
<polygon fill="midnightblue" stroke="midnightblue" points="554.29,-51.5001 564.29,-48 554.29,-44.5001 554.29,-51.5001"/>
</g>
<!-- Node6&#45;&gt;Node5 -->
<g id="edge12" class="edge"><title>Node6&#45;&gt;Node5</title>
<path fill="none" stroke="midnightblue" d="M645.522,-52.551C661.846,-54.4308 681.286,-56.6693 699.931,-58.8163"/>
<polygon fill="midnightblue" stroke="midnightblue" points="699.55,-62.2954 709.884,-59.9624 700.35,-55.3414 699.55,-62.2954"/>
</g>
<!-- Node8 -->
<g id="node16" class="node"><title>Node8</title>
<a xlink:href="class_timer.html#a7fa6e6dffec055e5104ccd6bcadec9aa" target="_top" xlink:title="Timer::GetFPGATimestamp">
<polygon fill="white" stroke="black" points="536.5,-0.5 536.5,-19.5 673.5,-19.5 673.5,-0.5 536.5,-0.5"/>
<text text-anchor="middle" x="605" y="-7.5" font-family="Helvetica,sans-Serif" font-size="10.00">Timer::GetFPGATimestamp</text>
</a>
</g>
<!-- Node7&#45;&gt;Node8 -->
<g id="edge16" class="edge"><title>Node7&#45;&gt;Node8</title>
<path fill="none" stroke="midnightblue" d="M499.812,-10C508.359,-10 517.227,-10 526.02,-10"/>
<polygon fill="midnightblue" stroke="midnightblue" points="526.283,-13.5001 536.283,-10 526.283,-6.5001 526.283,-13.5001"/>
</g>
<!-- Node9 -->
<g id="node18" class="node"><title>Node9</title>
<a xlink:href="_utility_8h.html#ababf055d95368485d48bd9a0231853f3" target="_top" xlink:title="GetFPGATime">
<polygon fill="white" stroke="black" points="732,-0.5 732,-19.5 812,-19.5 812,-0.5 732,-0.5"/>
<text text-anchor="middle" x="772" y="-7.5" font-family="Helvetica,sans-Serif" font-size="10.00">GetFPGATime</text>
</a>
</g>
<!-- Node8&#45;&gt;Node9 -->
<g id="edge18" class="edge"><title>Node8&#45;&gt;Node9</title>
<path fill="none" stroke="midnightblue" d="M673.588,-10C689.641,-10 706.473,-10 721.543,-10"/>
<polygon fill="midnightblue" stroke="midnightblue" points="721.664,-13.5001 731.663,-10 721.663,-6.5001 721.664,-13.5001"/>
</g>
</g>
</svg>
