<?xml version="1.0" encoding="UTF-8" standalone="no"?>
<!DOCTYPE svg PUBLIC "-//W3C//DTD SVG 1.1//EN"
 "http://www.w3.org/Graphics/SVG/1.1/DTD/svg11.dtd">
<!-- Generated by graphviz version 2.28.0 (20110507.0327)
 -->
<!-- Title: AxisCamera::GetImage Pages: 1 -->
<svg width="296pt" height="66pt"
 viewBox="0.00 0.00 296.00 66.00" xmlns="http://www.w3.org/2000/svg" xmlns:xlink="http://www.w3.org/1999/xlink">
<g id="graph1" class="graph" transform="scale(1 1) rotate(0) translate(4 62)">
<title>AxisCamera::GetImage</title>
<polygon fill="white" stroke="white" points="-4,5 -4,-62 293,-62 293,5 -4,5"/>
<!-- Node1 -->
<g id="node1" class="node"><title>Node1</title>
<polygon fill="#bfbfbf" stroke="black" points="0,-19.5 0,-38.5 118,-38.5 118,-19.5 0,-19.5"/>
<text text-anchor="middle" x="59" y="-26.5" font-family="Helvetica,sans-Serif" font-size="10.00">AxisCamera::GetImage</text>
</g>
<!-- Node2 -->
<g id="node3" class="node"><title>Node2</title>
<a xlink:href="class_axis_camera.html#a471281984345a79176e4920d5e6dea8a" target="_top" xlink:title="AxisCamera::GetImage">
<polygon fill="white" stroke="black" points="162,-38.5 162,-57.5 280,-57.5 280,-38.5 162,-38.5"/>
<text text-anchor="middle" x="221" y="-45.5" font-family="Helvetica,sans-Serif" font-size="10.00">AxisCamera::GetImage</text>
</a>
</g>
<!-- Node1&#45;&gt;Node2 -->
<g id="edge2" class="edge"><title>Node1&#45;&gt;Node2</title>
<path fill="none" stroke="midnightblue" d="M118.216,-35.9132C129.093,-37.2048 140.552,-38.5656 151.701,-39.8895"/>
<polygon fill="midnightblue" stroke="midnightblue" points="151.484,-43.3882 161.827,-41.092 152.31,-36.4371 151.484,-43.3882"/>
</g>
<!-- Node3 -->
<g id="node5" class="node"><title>Node3</title>
<a xlink:href="class_image_base.html#a938fe24b9e96b1cb95e3d93f9ac9f492" target="_top" xlink:title="ImageBase::GetImaqImage">
<polygon fill="white" stroke="black" points="154,-0.5 154,-19.5 288,-19.5 288,-0.5 154,-0.5"/>
<text text-anchor="middle" x="221" y="-7.5" font-family="Helvetica,sans-Serif" font-size="10.00">ImageBase::GetImaqImage</text>
</a>
</g>
<!-- Node1&#45;&gt;Node3 -->
<g id="edge4" class="edge"><title>Node1&#45;&gt;Node3</title>
<path fill="none" stroke="midnightblue" d="M118.216,-22.0868C126.565,-21.0954 135.256,-20.0633 143.887,-19.0384"/>
<polygon fill="midnightblue" stroke="midnightblue" points="144.45,-22.4963 153.967,-17.8414 143.624,-15.5451 144.45,-22.4963"/>
</g>
</g>
</svg>
