<?xml version="1.0" encoding="UTF-8" standalone="no"?>
<!DOCTYPE svg PUBLIC "-//W3C//DTD SVG 1.1//EN"
 "http://www.w3.org/Graphics/SVG/1.1/DTD/svg11.dtd">
<!-- Generated by graphviz version 2.28.0 (20110507.0327)
 -->
<!-- Title: MotorSafety Pages: 1 -->
<svg width="513pt" height="140pt"
 viewBox="0.00 0.00 513.00 140.00" xmlns="http://www.w3.org/2000/svg" xmlns:xlink="http://www.w3.org/1999/xlink">
<g id="graph1" class="graph" transform="scale(1 1) rotate(0) translate(4 136)">
<title>MotorSafety</title>
<polygon fill="white" stroke="white" points="-4,5 -4,-136 510,-136 510,5 -4,5"/>
<!-- Node1 -->
<g id="node1" class="node"><title>Node1</title>
<polygon fill="#bfbfbf" stroke="black" points="158.5,-112.5 158.5,-131.5 227.5,-131.5 227.5,-112.5 158.5,-112.5"/>
<text text-anchor="middle" x="193" y="-119.5" font-family="Helvetica,sans-Serif" font-size="10.00">MotorSafety</text>
</g>
<!-- Node2 -->
<g id="node3" class="node"><title>Node2</title>
<a xlink:href="class_c_a_n_jaguar.html" target="_top" xlink:title="CANJaguar">
<polygon fill="white" stroke="black" points="-0.5,-56.5 -0.5,-75.5 64.5,-75.5 64.5,-56.5 -0.5,-56.5"/>
<text text-anchor="middle" x="32" y="-63.5" font-family="Helvetica,sans-Serif" font-size="10.00">CANJaguar</text>
</a>
</g>
<!-- Node1&#45;&gt;Node2 -->
<g id="edge2" class="edge"><title>Node1&#45;&gt;Node2</title>
<path fill="none" stroke="midnightblue" d="M157.735,-109.172C127.419,-99.0039 84.4298,-84.5852 57.3916,-75.5164"/>
<polygon fill="midnightblue" stroke="midnightblue" points="156.895,-112.582 167.489,-112.444 159.121,-105.945 156.895,-112.582"/>
</g>
<!-- Node3 -->
<g id="node5" class="node"><title>Node3</title>
<a xlink:href="class_c_a_n_talon.html" target="_top" xlink:title="CANTalon">
<polygon fill="white" stroke="black" points="83,-56.5 83,-75.5 143,-75.5 143,-56.5 83,-56.5"/>
<text text-anchor="middle" x="113" y="-63.5" font-family="Helvetica,sans-Serif" font-size="10.00">CANTalon</text>
</a>
</g>
<!-- Node1&#45;&gt;Node3 -->
<g id="edge4" class="edge"><title>Node1&#45;&gt;Node3</title>
<path fill="none" stroke="midnightblue" d="M171.699,-106.622C157.085,-96.7574 138.173,-83.9919 125.821,-75.6545"/>
<polygon fill="midnightblue" stroke="midnightblue" points="169.9,-109.63 180.147,-112.324 173.816,-103.828 169.9,-109.63"/>
</g>
<!-- Node4 -->
<g id="node7" class="node"><title>Node4</title>
<a xlink:href="class_robot_drive.html" target="_top" xlink:title="RobotDrive">
<polygon fill="white" stroke="black" points="161.5,-56.5 161.5,-75.5 224.5,-75.5 224.5,-56.5 161.5,-56.5"/>
<text text-anchor="middle" x="193" y="-63.5" font-family="Helvetica,sans-Serif" font-size="10.00">RobotDrive</text>
</a>
</g>
<!-- Node1&#45;&gt;Node4 -->
<g id="edge6" class="edge"><title>Node1&#45;&gt;Node4</title>
<path fill="none" stroke="midnightblue" d="M193,-101.805C193,-92.9102 193,-82.7798 193,-75.7511"/>
<polygon fill="midnightblue" stroke="midnightblue" points="189.5,-102.083 193,-112.083 196.5,-102.083 189.5,-102.083"/>
</g>
<!-- Node5 -->
<g id="node9" class="node"><title>Node5</title>
<a xlink:href="class_safe_p_w_m.html" target="_top" xlink:title="SafePWM">
<polygon fill="white" stroke="black" points="242.5,-56.5 242.5,-75.5 303.5,-75.5 303.5,-56.5 242.5,-56.5"/>
<text text-anchor="middle" x="273" y="-63.5" font-family="Helvetica,sans-Serif" font-size="10.00">SafePWM</text>
</a>
</g>
<!-- Node1&#45;&gt;Node5 -->
<g id="edge28" class="edge"><title>Node1&#45;&gt;Node5</title>
<path fill="none" stroke="midnightblue" d="M209.02,-106.061C222.407,-96.2772 241.174,-83.8346 255.068,-75.6545"/>
<polygon fill="midnightblue" stroke="midnightblue" points="206.603,-103.5 200.739,-112.324 210.826,-109.084 206.603,-103.5"/>
</g>
<!-- Node1&#45;&gt;Node5 -->
<g id="edge8" class="edge"><title>Node1&#45;&gt;Node5</title>
<path fill="none" stroke="midnightblue" d="M219.845,-106.935C235.639,-97.0987 254.368,-84.2633 265.061,-75.8339"/>
<polygon fill="midnightblue" stroke="midnightblue" points="217.7,-104.143 210.968,-112.324 221.333,-110.126 217.7,-104.143"/>
</g>
<!-- Node6 -->
<g id="node11" class="node"><title>Node6</title>
<a xlink:href="class_jaguar.html" target="_top" xlink:title="Jaguar">
<polygon fill="white" stroke="black" points="130.5,-0.5 130.5,-19.5 175.5,-19.5 175.5,-0.5 130.5,-0.5"/>
<text text-anchor="middle" x="153" y="-7.5" font-family="Helvetica,sans-Serif" font-size="10.00">Jaguar</text>
</a>
</g>
<!-- Node5&#45;&gt;Node6 -->
<g id="edge10" class="edge"><title>Node5&#45;&gt;Node6</title>
<path fill="none" stroke="midnightblue" d="M239.432,-52.503C215.459,-42.3795 184.606,-28.388 166.845,-19.5164"/>
<polygon fill="midnightblue" stroke="midnightblue" points="238.32,-55.8311 248.897,-56.4435 241.01,-49.3688 238.32,-55.8311"/>
</g>
<!-- Node5&#45;&gt;Node6 -->
<g id="edge12" class="edge"><title>Node5&#45;&gt;Node6</title>
<path fill="none" stroke="midnightblue" d="M249.748,-51.8888C228.291,-41.5987 196.894,-27.6102 175.619,-18.9507"/>
<polygon fill="midnightblue" stroke="midnightblue" points="248.313,-55.0831 258.835,-56.324 251.383,-48.7924 248.313,-55.0831"/>
</g>
<!-- Node7 -->
<g id="node14" class="node"><title>Node7</title>
<a xlink:href="class_servo.html" target="_top" xlink:title="Servo">
<polygon fill="white" stroke="black" points="193.5,-0.5 193.5,-19.5 234.5,-19.5 234.5,-0.5 193.5,-0.5"/>
<text text-anchor="middle" x="214" y="-7.5" font-family="Helvetica,sans-Serif" font-size="10.00">Servo</text>
</a>
</g>
<!-- Node5&#45;&gt;Node7 -->
<g id="edge14" class="edge"><title>Node5&#45;&gt;Node7</title>
<path fill="none" stroke="midnightblue" d="M256.105,-49.5372C245.585,-39.9087 232.431,-27.8694 223.652,-19.8339"/>
<polygon fill="midnightblue" stroke="midnightblue" points="253.781,-52.1542 263.521,-56.324 258.507,-46.9905 253.781,-52.1542"/>
</g>
<!-- Node8 -->
<g id="node16" class="node"><title>Node8</title>
<a xlink:href="class_talon.html" target="_top" xlink:title="Talon">
<polygon fill="white" stroke="black" points="253,-0.5 253,-19.5 293,-19.5 293,-0.5 253,-0.5"/>
<text text-anchor="middle" x="273" y="-7.5" font-family="Helvetica,sans-Serif" font-size="10.00">Talon</text>
</a>
</g>
<!-- Node5&#45;&gt;Node8 -->
<g id="edge16" class="edge"><title>Node5&#45;&gt;Node8</title>
<path fill="none" stroke="midnightblue" d="M266.528,-46.1005C265.896,-37.1357 266.343,-26.8579 267.869,-19.7511"/>
<polygon fill="midnightblue" stroke="midnightblue" points="263.066,-46.6216 267.834,-56.083 270.007,-45.7134 263.066,-46.6216"/>
</g>
<!-- Node5&#45;&gt;Node8 -->
<g id="edge18" class="edge"><title>Node5&#45;&gt;Node8</title>
<path fill="none" stroke="midnightblue" d="M279.472,-46.1005C280.104,-37.1357 279.657,-26.8579 278.131,-19.7511"/>
<polygon fill="midnightblue" stroke="midnightblue" points="275.993,-45.7134 278.166,-56.083 282.934,-46.6216 275.993,-45.7134"/>
</g>
<!-- Node9 -->
<g id="node19" class="node"><title>Node9</title>
<a xlink:href="class_talon_s_r_x.html" target="_top" xlink:title="TalonSRX">
<polygon fill="white" stroke="black" points="311.5,-0.5 311.5,-19.5 370.5,-19.5 370.5,-0.5 311.5,-0.5"/>
<text text-anchor="middle" x="341" y="-7.5" font-family="Helvetica,sans-Serif" font-size="10.00">TalonSRX</text>
</a>
</g>
<!-- Node5&#45;&gt;Node9 -->
<g id="edge20" class="edge"><title>Node5&#45;&gt;Node9</title>
<path fill="none" stroke="midnightblue" d="M291.762,-50.1008C304,-40.3824 319.559,-28.0269 329.876,-19.8339"/>
<polygon fill="midnightblue" stroke="midnightblue" points="289.58,-47.3642 283.925,-56.324 293.933,-52.846 289.58,-47.3642"/>
</g>
<!-- Node10 -->
<g id="node21" class="node"><title>Node10</title>
<a xlink:href="class_victor.html" target="_top" xlink:title="Victor">
<polygon fill="white" stroke="black" points="389,-0.5 389,-19.5 431,-19.5 431,-0.5 389,-0.5"/>
<text text-anchor="middle" x="410" y="-7.5" font-family="Helvetica,sans-Serif" font-size="10.00">Victor</text>
</a>
</g>
<!-- Node5&#45;&gt;Node10 -->
<g id="edge22" class="edge"><title>Node5&#45;&gt;Node10</title>
<path fill="none" stroke="midnightblue" d="M298.924,-52.4966C325.075,-41.5605 364.671,-26.114 388.977,-17.4826"/>
<polygon fill="midnightblue" stroke="midnightblue" points="297.458,-49.3163 289.619,-56.4435 300.192,-55.7605 297.458,-49.3163"/>
</g>
<!-- Node5&#45;&gt;Node10 -->
<g id="edge24" class="edge"><title>Node5&#45;&gt;Node10</title>
<path fill="none" stroke="midnightblue" d="M309.42,-52.9058C336.72,-42.7536 372.646,-28.5063 393.473,-19.5164"/>
<polygon fill="midnightblue" stroke="midnightblue" points="307.975,-49.708 299.797,-56.4435 310.39,-56.2781 307.975,-49.708"/>
</g>
<!-- Node11 -->
<g id="node24" class="node"><title>Node11</title>
<a xlink:href="class_victor_s_p.html" target="_top" xlink:title="VictorSP">
<polygon fill="white" stroke="black" points="449,-0.5 449,-19.5 505,-19.5 505,-0.5 449,-0.5"/>
<text text-anchor="middle" x="477" y="-7.5" font-family="Helvetica,sans-Serif" font-size="10.00">VictorSP</text>
</a>
</g>
<!-- Node5&#45;&gt;Node11 -->
<g id="edge26" class="edge"><title>Node5&#45;&gt;Node11</title>
<path fill="none" stroke="midnightblue" d="M313.257,-54.3437C353.31,-43.7416 413.726,-27.7491 448.881,-18.4434"/>
<polygon fill="midnightblue" stroke="midnightblue" points="312.312,-50.9732 303.541,-56.9157 314.104,-57.7401 312.312,-50.9732"/>
</g>
</g>
</svg>
