<?xml version="1.0" encoding="UTF-8" standalone="no"?>
<!DOCTYPE svg PUBLIC "-//W3C//DTD SVG 1.1//EN"
 "http://www.w3.org/Graphics/SVG/1.1/DTD/svg11.dtd">
<!-- Generated by graphviz version 2.28.0 (20110507.0327)
 -->
<!-- Title: DriverStation::DriverStation Pages: 1 -->
<svg width="336pt" height="66pt"
 viewBox="0.00 0.00 336.00 66.00" xmlns="http://www.w3.org/2000/svg" xmlns:xlink="http://www.w3.org/1999/xlink">
<g id="graph1" class="graph" transform="scale(1 1) rotate(0) translate(4 62)">
<title>DriverStation::DriverStation</title>
<polygon fill="white" stroke="white" points="-4,5 -4,-62 333,-62 333,5 -4,5"/>
<!-- Node1 -->
<g id="node1" class="node"><title>Node1</title>
<polygon fill="#bfbfbf" stroke="black" points="0,-19.5 0,-38.5 132,-38.5 132,-19.5 0,-19.5"/>
<text text-anchor="middle" x="66" y="-26.5" font-family="Helvetica,sans-Serif" font-size="10.00">DriverStation::DriverStation</text>
</g>
<!-- Node2 -->
<g id="node3" class="node"><title>Node2</title>
<a xlink:href="class_sensor_base.html#a97a6a31683483f3fe3f6f1d971ca9615" target="_top" xlink:title="SensorBase::AddToSingletonList">
<polygon fill="white" stroke="black" points="168,-38.5 168,-57.5 328,-57.5 328,-38.5 168,-38.5"/>
<text text-anchor="middle" x="248" y="-45.5" font-family="Helvetica,sans-Serif" font-size="10.00">SensorBase::AddToSingletonList</text>
</a>
</g>
<!-- Node1&#45;&gt;Node2 -->
<g id="edge2" class="edge"><title>Node1&#45;&gt;Node2</title>
<path fill="none" stroke="midnightblue" d="M132.239,-35.8863C140.555,-36.7641 149.177,-37.6742 157.789,-38.5833"/>
<polygon fill="midnightblue" stroke="midnightblue" points="157.564,-42.0789 167.876,-39.648 158.299,-35.1175 157.564,-42.0789"/>
</g>
<!-- Node3 -->
<g id="node5" class="node"><title>Node3</title>
<a xlink:href="class_task.html#a6e8e638dd9a8faad92e259b587ca82f8" target="_top" xlink:title="Task::Start">
<polygon fill="white" stroke="black" points="215.5,-0.5 215.5,-19.5 280.5,-19.5 280.5,-0.5 215.5,-0.5"/>
<text text-anchor="middle" x="248" y="-7.5" font-family="Helvetica,sans-Serif" font-size="10.00">Task::Start</text>
</a>
</g>
<!-- Node1&#45;&gt;Node3 -->
<g id="edge4" class="edge"><title>Node1&#45;&gt;Node3</title>
<path fill="none" stroke="midnightblue" d="M132.239,-22.1137C156.448,-19.5582 183.25,-16.7292 204.86,-14.4481"/>
<polygon fill="midnightblue" stroke="midnightblue" points="205.44,-17.9064 215.017,-13.376 204.705,-10.9451 205.44,-17.9064"/>
</g>
</g>
</svg>
