<?xml version="1.0" encoding="UTF-8" standalone="no"?>
<!DOCTYPE svg PUBLIC "-//W3C//DTD SVG 1.1//EN"
 "http://www.w3.org/Graphics/SVG/1.1/DTD/svg11.dtd">
<!-- Generated by graphviz version 2.28.0 (20110507.0327)
 -->
<!-- Title: Counter::SetMaxPeriod Pages: 1 -->
<svg width="428pt" height="28pt"
 viewBox="0.00 0.00 428.00 28.00" xmlns="http://www.w3.org/2000/svg" xmlns:xlink="http://www.w3.org/1999/xlink">
<g id="graph1" class="graph" transform="scale(1 1) rotate(0) translate(4 24)">
<title>Counter::SetMaxPeriod</title>
<polygon fill="white" stroke="white" points="-4,5 -4,-24 425,-24 425,5 -4,5"/>
<!-- Node1 -->
<g id="node1" class="node"><title>Node1</title>
<polygon fill="#bfbfbf" stroke="black" points="0,-0.5 0,-19.5 118,-19.5 118,-0.5 0,-0.5"/>
<text text-anchor="middle" x="59" y="-7.5" font-family="Helvetica,sans-Serif" font-size="10.00">Counter::SetMaxPeriod</text>
</g>
<!-- Node2 -->
<g id="node3" class="node"><title>Node2</title>
<a xlink:href="class_encoder.html#a53e9481bd248b04a00809a3ea69d97c1" target="_top" xlink:title="Encoder::SetMaxPeriod">
<polygon fill="white" stroke="black" points="154,-0.5 154,-19.5 274,-19.5 274,-0.5 154,-0.5"/>
<text text-anchor="middle" x="214" y="-7.5" font-family="Helvetica,sans-Serif" font-size="10.00">Encoder::SetMaxPeriod</text>
</a>
</g>
<!-- Node1&#45;&gt;Node2 -->
<g id="edge2" class="edge"><title>Node1&#45;&gt;Node2</title>
<path fill="none" stroke="midnightblue" d="M128.507,-10C136.969,-10 145.563,-10 153.868,-10"/>
<polygon fill="midnightblue" stroke="midnightblue" points="128.279,-6.5001 118.279,-10 128.279,-13.5001 128.279,-6.5001"/>
</g>
<!-- Node3 -->
<g id="node5" class="node"><title>Node3</title>
<a xlink:href="class_encoder.html#aed57d1224b55a28c666f2888102efbec" target="_top" xlink:title="Encoder::SetMinRate">
<polygon fill="white" stroke="black" points="310,-0.5 310,-19.5 420,-19.5 420,-0.5 310,-0.5"/>
<text text-anchor="middle" x="365" y="-7.5" font-family="Helvetica,sans-Serif" font-size="10.00">Encoder::SetMinRate</text>
</a>
</g>
<!-- Node2&#45;&gt;Node3 -->
<g id="edge4" class="edge"><title>Node2&#45;&gt;Node3</title>
<path fill="none" stroke="midnightblue" d="M284.552,-10C293.002,-10 301.537,-10 309.72,-10"/>
<polygon fill="midnightblue" stroke="midnightblue" points="284.317,-6.5001 274.317,-10 284.317,-13.5001 284.317,-6.5001"/>
</g>
</g>
</svg>
