<?xml version="1.0" encoding="UTF-8" standalone="no"?>
<!DOCTYPE svg PUBLIC "-//W3C//DTD SVG 1.1//EN"
 "http://www.w3.org/Graphics/SVG/1.1/DTD/svg11.dtd">
<!-- Generated by graphviz version 2.28.0 (20110507.0327)
 -->
<!-- Title: Task::Verify Pages: 1 -->
<svg width="518pt" height="104pt"
 viewBox="0.00 0.00 518.00 104.00" xmlns="http://www.w3.org/2000/svg" xmlns:xlink="http://www.w3.org/1999/xlink">
<g id="graph1" class="graph" transform="scale(1 1) rotate(0) translate(4 100)">
<title>Task::Verify</title>
<polygon fill="white" stroke="white" points="-4,5 -4,-100 515,-100 515,5 -4,5"/>
<!-- Node1 -->
<g id="node1" class="node"><title>Node1</title>
<polygon fill="#bfbfbf" stroke="black" points="0,-38.5 0,-57.5 68,-57.5 68,-38.5 0,-38.5"/>
<text text-anchor="middle" x="34" y="-45.5" font-family="Helvetica,sans-Serif" font-size="10.00">Task::Verify</text>
</g>
<!-- Node2 -->
<g id="node3" class="node"><title>Node2</title>
<a xlink:href="class_task.html#a552b56dc92a117812a9ae3f24320eede" target="_top" xlink:title="Task::Stop">
<polygon fill="white" stroke="black" points="106,-76.5 106,-95.5 170,-95.5 170,-76.5 106,-76.5"/>
<text text-anchor="middle" x="138" y="-83.5" font-family="Helvetica,sans-Serif" font-size="10.00">Task::Stop</text>
</a>
</g>
<!-- Node1&#45;&gt;Node2 -->
<g id="edge2" class="edge"><title>Node1&#45;&gt;Node2</title>
<path fill="none" stroke="midnightblue" d="M70.2115,-61.118C83.7022,-66.1439 98.8281,-71.7791 111.269,-76.4141"/>
<polygon fill="midnightblue" stroke="midnightblue" points="71.3316,-57.8004 60.7389,-57.589 68.8878,-64.3599 71.3316,-57.8004"/>
</g>
<!-- Node3 -->
<g id="node5" class="node"><title>Node3</title>
<a xlink:href="class_ultrasonic.html#a16105fb0a316d780b8ea1554e3109825" target="_top" xlink:title="Ultrasonic::SetAutomaticMode">
<polygon fill="white" stroke="black" points="208.5,-57.5 208.5,-76.5 357.5,-76.5 357.5,-57.5 208.5,-57.5"/>
<text text-anchor="middle" x="283" y="-64.5" font-family="Helvetica,sans-Serif" font-size="10.00">Ultrasonic::SetAutomaticMode</text>
</a>
</g>
<!-- Node1&#45;&gt;Node3 -->
<g id="edge10" class="edge"><title>Node1&#45;&gt;Node3</title>
<path fill="none" stroke="midnightblue" d="M78.1906,-51.3224C114.075,-54.0827 165.931,-58.0716 208.355,-61.335"/>
<polygon fill="midnightblue" stroke="midnightblue" points="78.2942,-47.8201 68.0552,-50.5427 77.7573,-54.7995 78.2942,-47.8201"/>
</g>
<!-- Node5 -->
<g id="node9" class="node"><title>Node5</title>
<a xlink:href="class_task.html#a436552d685339615f68e3071a914a0e0" target="_top" xlink:title="Task::GetID">
<polygon fill="white" stroke="black" points="104,-0.5 104,-19.5 172,-19.5 172,-0.5 104,-0.5"/>
<text text-anchor="middle" x="138" y="-7.5" font-family="Helvetica,sans-Serif" font-size="10.00">Task::GetID</text>
</a>
</g>
<!-- Node1&#45;&gt;Node5 -->
<g id="edge8" class="edge"><title>Node1&#45;&gt;Node5</title>
<path fill="none" stroke="midnightblue" d="M70.2115,-34.882C83.7022,-29.8561 98.8281,-24.2209 111.269,-19.5859"/>
<polygon fill="midnightblue" stroke="midnightblue" points="68.8878,-31.6401 60.7389,-38.411 71.3316,-38.1996 68.8878,-31.6401"/>
</g>
<!-- Node2&#45;&gt;Node3 -->
<g id="edge4" class="edge"><title>Node2&#45;&gt;Node3</title>
<path fill="none" stroke="midnightblue" d="M179.952,-80.5589C189.455,-79.2962 199.845,-77.9156 210.243,-76.5341"/>
<polygon fill="midnightblue" stroke="midnightblue" points="179.481,-77.0906 170.029,-81.8773 180.403,-84.0296 179.481,-77.0906"/>
</g>
<!-- Node4 -->
<g id="node7" class="node"><title>Node4</title>
<a xlink:href="class_ultrasonic.html#ab5066b2bfeac723140c18b9f8340abad" target="_top" xlink:title="Ultrasonic::~Ultrasonic">
<polygon fill="white" stroke="black" points="394,-57.5 394,-76.5 510,-76.5 510,-57.5 394,-57.5"/>
<text text-anchor="middle" x="452" y="-64.5" font-family="Helvetica,sans-Serif" font-size="10.00">Ultrasonic::~Ultrasonic</text>
</a>
</g>
<!-- Node3&#45;&gt;Node4 -->
<g id="edge6" class="edge"><title>Node3&#45;&gt;Node4</title>
<path fill="none" stroke="midnightblue" d="M367.739,-67C376.618,-67 385.493,-67 393.962,-67"/>
<polygon fill="midnightblue" stroke="midnightblue" points="367.735,-63.5001 357.735,-67 367.735,-70.5001 367.735,-63.5001"/>
</g>
</g>
</svg>
