<?xml version="1.0" encoding="UTF-8" standalone="no"?>
<!DOCTYPE svg PUBLIC "-//W3C//DTD SVG 1.1//EN"
 "http://www.w3.org/Graphics/SVG/1.1/DTD/svg11.dtd">
<!-- Generated by graphviz version 2.28.0 (20110507.0327)
 -->
<!-- Title: MotorSafetyHelper::Check Pages: 1 -->
<svg width="650pt" height="161pt"
 viewBox="0.00 0.00 650.00 161.00" xmlns="http://www.w3.org/2000/svg" xmlns:xlink="http://www.w3.org/1999/xlink">
<g id="graph1" class="graph" transform="scale(1 1) rotate(0) translate(4 157)">
<title>MotorSafetyHelper::Check</title>
<polygon fill="white" stroke="white" points="-4,5 -4,-157 647,-157 647,5 -4,5"/>
<!-- Node1 -->
<g id="node1" class="node"><title>Node1</title>
<polygon fill="#bfbfbf" stroke="black" points="0.5,-52 0.5,-82 103.5,-82 103.5,-52 0.5,-52"/>
<text text-anchor="start" x="8.5" y="-70" font-family="Helvetica,sans-Serif" font-size="10.00">MotorSafetyHelper::</text>
<text text-anchor="middle" x="52" y="-59" font-family="Helvetica,sans-Serif" font-size="10.00">Check</text>
</g>
<!-- Node2 -->
<g id="node3" class="node"><title>Node2</title>
<a xlink:href="class_driver_station.html#ab0995c2d3f0b40cb13ac5aff656e46d0" target="_top" xlink:title="DriverStation::GetInstance">
<polygon fill="white" stroke="black" points="144,-114.5 144,-133.5 274,-133.5 274,-114.5 144,-114.5"/>
<text text-anchor="middle" x="209" y="-121.5" font-family="Helvetica,sans-Serif" font-size="10.00">DriverStation::GetInstance</text>
</a>
</g>
<!-- Node1&#45;&gt;Node2 -->
<g id="edge2" class="edge"><title>Node1&#45;&gt;Node2</title>
<path fill="none" stroke="midnightblue" d="M84.7974,-82.1606C101.087,-89.6 121.368,-98.3643 140,-105 146.517,-107.321 153.465,-109.542 160.338,-111.594"/>
<polygon fill="midnightblue" stroke="midnightblue" points="159.716,-115.058 170.295,-114.473 161.66,-108.333 159.716,-115.058"/>
</g>
<!-- Node6 -->
<g id="node11" class="node"><title>Node6</title>
<a xlink:href="class_driver_station.html#afcccb82207e0342596133e81dc7a047f" target="_top" xlink:title="DriverStation::IsDisabled">
<polygon fill="white" stroke="black" points="148,-76.5 148,-95.5 270,-95.5 270,-76.5 148,-76.5"/>
<text text-anchor="middle" x="209" y="-83.5" font-family="Helvetica,sans-Serif" font-size="10.00">DriverStation::IsDisabled</text>
</a>
</g>
<!-- Node1&#45;&gt;Node6 -->
<g id="edge10" class="edge"><title>Node1&#45;&gt;Node6</title>
<path fill="none" stroke="midnightblue" d="M103.753,-73.2213C114.679,-74.5606 126.413,-75.999 137.927,-77.4104"/>
<polygon fill="midnightblue" stroke="midnightblue" points="137.61,-80.8977 147.962,-78.6405 138.462,-73.9497 137.61,-80.8977"/>
</g>
<!-- Node7 -->
<g id="node13" class="node"><title>Node7</title>
<a xlink:href="class_driver_station.html#af3ae56342fb009434d06f7cd66528a64" target="_top" xlink:title="DriverStation::IsTest">
<polygon fill="white" stroke="black" points="157,-38.5 157,-57.5 261,-57.5 261,-38.5 157,-38.5"/>
<text text-anchor="middle" x="209" y="-45.5" font-family="Helvetica,sans-Serif" font-size="10.00">DriverStation::IsTest</text>
</a>
</g>
<!-- Node1&#45;&gt;Node7 -->
<g id="edge12" class="edge"><title>Node1&#45;&gt;Node7</title>
<path fill="none" stroke="midnightblue" d="M103.753,-60.7787C117.465,-59.0979 132.45,-57.261 146.674,-55.5174"/>
<polygon fill="midnightblue" stroke="midnightblue" points="147.368,-58.9586 156.868,-54.2678 146.516,-52.0106 147.368,-58.9586"/>
</g>
<!-- Node8 -->
<g id="node15" class="node"><title>Node8</title>
<a xlink:href="class_timer.html#a7fa6e6dffec055e5104ccd6bcadec9aa" target="_top" xlink:title="Timer::GetFPGATimestamp">
<polygon fill="white" stroke="black" points="140.5,-0.5 140.5,-19.5 277.5,-19.5 277.5,-0.5 140.5,-0.5"/>
<text text-anchor="middle" x="209" y="-7.5" font-family="Helvetica,sans-Serif" font-size="10.00">Timer::GetFPGATimestamp</text>
</a>
</g>
<!-- Node1&#45;&gt;Node8 -->
<g id="edge14" class="edge"><title>Node1&#45;&gt;Node8</title>
<path fill="none" stroke="midnightblue" d="M84.7974,-51.8394C101.087,-44.4 121.368,-35.6357 140,-29 146.517,-26.679 153.465,-24.458 160.338,-22.4056"/>
<polygon fill="midnightblue" stroke="midnightblue" points="161.66,-25.6668 170.295,-19.5273 159.716,-18.9422 161.66,-25.6668"/>
</g>
<!-- Node3 -->
<g id="node5" class="node"><title>Node3</title>
<a xlink:href="class_driver_station.html#a343945cc9bbf870e0ada94b47f3fec92" target="_top" xlink:title="DriverStation::DriverStation">
<polygon fill="white" stroke="black" points="314,-114.5 314,-133.5 446,-133.5 446,-114.5 314,-114.5"/>
<text text-anchor="middle" x="380" y="-121.5" font-family="Helvetica,sans-Serif" font-size="10.00">DriverStation::DriverStation</text>
</a>
</g>
<!-- Node2&#45;&gt;Node3 -->
<g id="edge4" class="edge"><title>Node2&#45;&gt;Node3</title>
<path fill="none" stroke="midnightblue" d="M274.374,-124C283.997,-124 293.99,-124 303.813,-124"/>
<polygon fill="midnightblue" stroke="midnightblue" points="303.965,-127.5 313.965,-124 303.965,-120.5 303.965,-127.5"/>
</g>
<!-- Node4 -->
<g id="node7" class="node"><title>Node4</title>
<a xlink:href="class_sensor_base.html#a97a6a31683483f3fe3f6f1d971ca9615" target="_top" xlink:title="SensorBase::AddToSingletonList">
<polygon fill="white" stroke="black" points="482,-133.5 482,-152.5 642,-152.5 642,-133.5 482,-133.5"/>
<text text-anchor="middle" x="562" y="-140.5" font-family="Helvetica,sans-Serif" font-size="10.00">SensorBase::AddToSingletonList</text>
</a>
</g>
<!-- Node3&#45;&gt;Node4 -->
<g id="edge6" class="edge"><title>Node3&#45;&gt;Node4</title>
<path fill="none" stroke="midnightblue" d="M446.239,-130.886C454.555,-131.764 463.177,-132.674 471.789,-133.583"/>
<polygon fill="midnightblue" stroke="midnightblue" points="471.564,-137.079 481.876,-134.648 472.299,-130.118 471.564,-137.079"/>
</g>
<!-- Node5 -->
<g id="node9" class="node"><title>Node5</title>
<a xlink:href="class_task.html#a6e8e638dd9a8faad92e259b587ca82f8" target="_top" xlink:title="Task::Start">
<polygon fill="white" stroke="black" points="529.5,-95.5 529.5,-114.5 594.5,-114.5 594.5,-95.5 529.5,-95.5"/>
<text text-anchor="middle" x="562" y="-102.5" font-family="Helvetica,sans-Serif" font-size="10.00">Task::Start</text>
</a>
</g>
<!-- Node3&#45;&gt;Node5 -->
<g id="edge8" class="edge"><title>Node3&#45;&gt;Node5</title>
<path fill="none" stroke="midnightblue" d="M446.239,-117.114C470.448,-114.558 497.25,-111.729 518.86,-109.448"/>
<polygon fill="midnightblue" stroke="midnightblue" points="519.44,-112.906 529.017,-108.376 518.705,-105.945 519.44,-112.906"/>
</g>
<!-- Node9 -->
<g id="node17" class="node"><title>Node9</title>
<a xlink:href="_utility_8h.html#ababf055d95368485d48bd9a0231853f3" target="_top" xlink:title="GetFPGATime">
<polygon fill="white" stroke="black" points="340,-0.5 340,-19.5 420,-19.5 420,-0.5 340,-0.5"/>
<text text-anchor="middle" x="380" y="-7.5" font-family="Helvetica,sans-Serif" font-size="10.00">GetFPGATime</text>
</a>
</g>
<!-- Node8&#45;&gt;Node9 -->
<g id="edge16" class="edge"><title>Node8&#45;&gt;Node9</title>
<path fill="none" stroke="midnightblue" d="M277.765,-10C295.091,-10 313.394,-10 329.602,-10"/>
<polygon fill="midnightblue" stroke="midnightblue" points="329.92,-13.5001 339.92,-10 329.919,-6.5001 329.92,-13.5001"/>
</g>
</g>
</svg>
