<?xml version="1.0" encoding="UTF-8" standalone="no"?>
<!DOCTYPE svg PUBLIC "-//W3C//DTD SVG 1.1//EN"
 "http://www.w3.org/Graphics/SVG/1.1/DTD/svg11.dtd">
<!-- Generated by graphviz version 2.28.0 (20110507.0327)
 -->
<!-- Title: Talon::Set Pages: 1 -->
<svg width="712pt" height="85pt"
 viewBox="0.00 0.00 712.00 85.00" xmlns="http://www.w3.org/2000/svg" xmlns:xlink="http://www.w3.org/1999/xlink">
<g id="graph1" class="graph" transform="scale(1 1) rotate(0) translate(4 81)">
<title>Talon::Set</title>
<polygon fill="white" stroke="white" points="-4,5 -4,-81 709,-81 709,5 -4,5"/>
<!-- Node1 -->
<g id="node1" class="node"><title>Node1</title>
<polygon fill="#bfbfbf" stroke="black" points="0.5,-19.5 0.5,-38.5 61.5,-38.5 61.5,-19.5 0.5,-19.5"/>
<text text-anchor="middle" x="31" y="-26.5" font-family="Helvetica,sans-Serif" font-size="10.00">Talon::Set</text>
</g>
<!-- Node2 -->
<g id="node3" class="node"><title>Node2</title>
<a xlink:href="class_safe_p_w_m.html#af1ed936d88f3ee6446b01c17feb24b78" target="_top" xlink:title="SafePWM::SetSpeed">
<polygon fill="white" stroke="black" points="98,-19.5 98,-38.5 208,-38.5 208,-19.5 98,-19.5"/>
<text text-anchor="middle" x="153" y="-26.5" font-family="Helvetica,sans-Serif" font-size="10.00">SafePWM::SetSpeed</text>
</a>
</g>
<!-- Node1&#45;&gt;Node2 -->
<g id="edge2" class="edge"><title>Node1&#45;&gt;Node2</title>
<path fill="none" stroke="midnightblue" d="M61.6629,-29C69.6304,-29 78.5665,-29 87.6362,-29"/>
<polygon fill="midnightblue" stroke="midnightblue" points="87.8885,-32.5001 97.8885,-29 87.8884,-25.5001 87.8885,-32.5001"/>
</g>
<!-- Node3 -->
<g id="node5" class="node"><title>Node3</title>
<a xlink:href="class_p_w_m.html#a947e5f6073da9e4d1b60db0c7791ca9c" target="_top" xlink:title="PWM::SetSpeed">
<polygon fill="white" stroke="black" points="262,-38.5 262,-57.5 352,-57.5 352,-38.5 262,-38.5"/>
<text text-anchor="middle" x="307" y="-45.5" font-family="Helvetica,sans-Serif" font-size="10.00">PWM::SetSpeed</text>
</a>
</g>
<!-- Node2&#45;&gt;Node3 -->
<g id="edge4" class="edge"><title>Node2&#45;&gt;Node3</title>
<path fill="none" stroke="midnightblue" d="M208.017,-35.7522C222.162,-37.5203 237.419,-39.4273 251.584,-41.198"/>
<polygon fill="midnightblue" stroke="midnightblue" points="251.318,-44.6919 261.675,-42.4593 252.186,-37.7459 251.318,-44.6919"/>
</g>
<!-- Node6 -->
<g id="node12" class="node"><title>Node6</title>
<a xlink:href="class_motor_safety_helper.html#a67b80e9817dc725e0678de5e8f0bb39e" target="_top" xlink:title="MotorSafetyHelper::Feed">
<polygon fill="white" stroke="black" points="244.5,-0.5 244.5,-19.5 369.5,-19.5 369.5,-0.5 244.5,-0.5"/>
<text text-anchor="middle" x="307" y="-7.5" font-family="Helvetica,sans-Serif" font-size="10.00">MotorSafetyHelper::Feed</text>
</a>
</g>
<!-- Node2&#45;&gt;Node6 -->
<g id="edge12" class="edge"><title>Node2&#45;&gt;Node6</title>
<path fill="none" stroke="midnightblue" d="M208.017,-22.2478C216.573,-21.1783 225.536,-20.0581 234.417,-18.9478"/>
<polygon fill="midnightblue" stroke="midnightblue" points="234.896,-22.4153 244.385,-17.7019 234.028,-15.4694 234.896,-22.4153"/>
</g>
<!-- Node4 -->
<g id="node7" class="node"><title>Node4</title>
<a xlink:href="class_error_base.html#a05790f219c9e436a09752f73f7344024" target="_top" xlink:title="Check if the current error code represents a fatal error. ">
<polygon fill="white" stroke="black" points="580,-57.5 580,-76.5 704,-76.5 704,-57.5 580,-57.5"/>
<text text-anchor="middle" x="642" y="-64.5" font-family="Helvetica,sans-Serif" font-size="10.00">ErrorBase::StatusIsFatal</text>
</a>
</g>
<!-- Node3&#45;&gt;Node4 -->
<g id="edge6" class="edge"><title>Node3&#45;&gt;Node4</title>
<path fill="none" stroke="midnightblue" d="M347.799,-57.5105C365.506,-61.2756 386.679,-65.1443 406,-67 460.862,-72.2692 523.26,-71.9774 569.965,-70.5263"/>
<polygon fill="midnightblue" stroke="midnightblue" points="570.107,-74.0236 579.983,-70.1899 569.872,-67.0276 570.107,-74.0236"/>
</g>
<!-- Node5 -->
<g id="node9" class="node"><title>Node5</title>
<a xlink:href="class_p_w_m.html#a0c546e1aa7d5d091447a819e50fae9ca" target="_top" xlink:title="PWM::SetRaw">
<polygon fill="white" stroke="black" points="434.5,-38.5 434.5,-57.5 515.5,-57.5 515.5,-38.5 434.5,-38.5"/>
<text text-anchor="middle" x="475" y="-45.5" font-family="Helvetica,sans-Serif" font-size="10.00">PWM::SetRaw</text>
</a>
</g>
<!-- Node3&#45;&gt;Node5 -->
<g id="edge8" class="edge"><title>Node3&#45;&gt;Node5</title>
<path fill="none" stroke="midnightblue" d="M352.049,-48C374.205,-48 401.151,-48 424.073,-48"/>
<polygon fill="midnightblue" stroke="midnightblue" points="424.29,-51.5001 434.29,-48 424.29,-44.5001 424.29,-51.5001"/>
</g>
<!-- Node5&#45;&gt;Node4 -->
<g id="edge10" class="edge"><title>Node5&#45;&gt;Node4</title>
<path fill="none" stroke="midnightblue" d="M515.522,-52.551C531.846,-54.4308 551.286,-56.6693 569.931,-58.8163"/>
<polygon fill="midnightblue" stroke="midnightblue" points="569.55,-62.2954 579.884,-59.9624 570.35,-55.3414 569.55,-62.2954"/>
</g>
<!-- Node7 -->
<g id="node14" class="node"><title>Node7</title>
<a xlink:href="class_timer.html#a7fa6e6dffec055e5104ccd6bcadec9aa" target="_top" xlink:title="Timer::GetFPGATimestamp">
<polygon fill="white" stroke="black" points="406.5,-0.5 406.5,-19.5 543.5,-19.5 543.5,-0.5 406.5,-0.5"/>
<text text-anchor="middle" x="475" y="-7.5" font-family="Helvetica,sans-Serif" font-size="10.00">Timer::GetFPGATimestamp</text>
</a>
</g>
<!-- Node6&#45;&gt;Node7 -->
<g id="edge14" class="edge"><title>Node6&#45;&gt;Node7</title>
<path fill="none" stroke="midnightblue" d="M369.812,-10C378.359,-10 387.227,-10 396.02,-10"/>
<polygon fill="midnightblue" stroke="midnightblue" points="396.283,-13.5001 406.283,-10 396.283,-6.5001 396.283,-13.5001"/>
</g>
<!-- Node8 -->
<g id="node16" class="node"><title>Node8</title>
<a xlink:href="_utility_8h.html#ababf055d95368485d48bd9a0231853f3" target="_top" xlink:title="GetFPGATime">
<polygon fill="white" stroke="black" points="602,-0.5 602,-19.5 682,-19.5 682,-0.5 602,-0.5"/>
<text text-anchor="middle" x="642" y="-7.5" font-family="Helvetica,sans-Serif" font-size="10.00">GetFPGATime</text>
</a>
</g>
<!-- Node7&#45;&gt;Node8 -->
<g id="edge16" class="edge"><title>Node7&#45;&gt;Node8</title>
<path fill="none" stroke="midnightblue" d="M543.588,-10C559.641,-10 576.473,-10 591.543,-10"/>
<polygon fill="midnightblue" stroke="midnightblue" points="591.664,-13.5001 601.663,-10 591.663,-6.5001 591.664,-13.5001"/>
</g>
</g>
</svg>
