<?xml version="1.0" encoding="UTF-8" standalone="no"?>
<!DOCTYPE svg PUBLIC "-//W3C//DTD SVG 1.1//EN"
 "http://www.w3.org/Graphics/SVG/1.1/DTD/svg11.dtd">
<!-- Generated by graphviz version 2.28.0 (20110507.0327)
 -->
<!-- Title: Servo::GetAngle Pages: 1 -->
<svg width="508pt" height="47pt"
 viewBox="0.00 0.00 508.00 47.00" xmlns="http://www.w3.org/2000/svg" xmlns:xlink="http://www.w3.org/1999/xlink">
<g id="graph1" class="graph" transform="scale(1 1) rotate(0) translate(4 43)">
<title>Servo::GetAngle</title>
<polygon fill="white" stroke="white" points="-4,5 -4,-43 505,-43 505,5 -4,5"/>
<!-- Node1 -->
<g id="node1" class="node"><title>Node1</title>
<polygon fill="#bfbfbf" stroke="black" points="0.5,-19.5 0.5,-38.5 87.5,-38.5 87.5,-19.5 0.5,-19.5"/>
<text text-anchor="middle" x="44" y="-26.5" font-family="Helvetica,sans-Serif" font-size="10.00">Servo::GetAngle</text>
</g>
<!-- Node2 -->
<g id="node3" class="node"><title>Node2</title>
<a xlink:href="class_p_w_m.html#a2f5dcbf84dc82c4b19098c4cc99d0390" target="_top" xlink:title="PWM::GetPosition">
<polygon fill="white" stroke="black" points="124,-19.5 124,-38.5 222,-38.5 222,-19.5 124,-19.5"/>
<text text-anchor="middle" x="173" y="-26.5" font-family="Helvetica,sans-Serif" font-size="10.00">PWM::GetPosition</text>
</a>
</g>
<!-- Node1&#45;&gt;Node2 -->
<g id="edge2" class="edge"><title>Node1&#45;&gt;Node2</title>
<path fill="none" stroke="midnightblue" d="M87.6425,-29C96.033,-29 104.97,-29 113.771,-29"/>
<polygon fill="midnightblue" stroke="midnightblue" points="114,-32.5001 123.999,-29 113.999,-25.5001 114,-32.5001"/>
</g>
<!-- Node3 -->
<g id="node5" class="node"><title>Node3</title>
<a xlink:href="class_error_base.html#a05790f219c9e436a09752f73f7344024" target="_top" xlink:title="Check if the current error code represents a fatal error. ">
<polygon fill="white" stroke="black" points="376,-19.5 376,-38.5 500,-38.5 500,-19.5 376,-19.5"/>
<text text-anchor="middle" x="438" y="-26.5" font-family="Helvetica,sans-Serif" font-size="10.00">ErrorBase::StatusIsFatal</text>
</a>
</g>
<!-- Node2&#45;&gt;Node3 -->
<g id="edge4" class="edge"><title>Node2&#45;&gt;Node3</title>
<path fill="none" stroke="midnightblue" d="M222.238,-29C262.357,-29 320.041,-29 365.526,-29"/>
<polygon fill="midnightblue" stroke="midnightblue" points="365.623,-32.5001 375.623,-29 365.623,-25.5001 365.623,-32.5001"/>
</g>
<!-- Node4 -->
<g id="node7" class="node"><title>Node4</title>
<a xlink:href="class_p_w_m.html#afe21d7814cd2c51c0652fbf9f58af958" target="_top" xlink:title="PWM::GetRaw">
<polygon fill="white" stroke="black" points="258,-0.5 258,-19.5 340,-19.5 340,-0.5 258,-0.5"/>
<text text-anchor="middle" x="299" y="-7.5" font-family="Helvetica,sans-Serif" font-size="10.00">PWM::GetRaw</text>
</a>
</g>
<!-- Node2&#45;&gt;Node4 -->
<g id="edge6" class="edge"><title>Node2&#45;&gt;Node4</title>
<path fill="none" stroke="midnightblue" d="M222.297,-21.5997C230.612,-20.3256 239.274,-18.9984 247.642,-17.7162"/>
<polygon fill="midnightblue" stroke="midnightblue" points="248.306,-21.1554 257.66,-16.1811 247.246,-14.2361 248.306,-21.1554"/>
</g>
<!-- Node4&#45;&gt;Node3 -->
<g id="edge8" class="edge"><title>Node4&#45;&gt;Node3</title>
<path fill="none" stroke="midnightblue" d="M340.364,-15.5979C348.362,-16.7072 356.981,-17.9025 365.66,-19.1062"/>
<polygon fill="midnightblue" stroke="midnightblue" points="365.458,-22.6115 375.844,-20.5185 366.419,-15.6779 365.458,-22.6115"/>
</g>
</g>
</svg>
