<?xml version="1.0" encoding="UTF-8" standalone="no"?>
<!DOCTYPE svg PUBLIC "-//W3C//DTD SVG 1.1//EN"
 "http://www.w3.org/Graphics/SVG/1.1/DTD/svg11.dtd">
<!-- Generated by graphviz version 2.28.0 (20110507.0327)
 -->
<!-- Title: Sendable Pages: 1 -->
<svg width="598pt" height="1168pt"
 viewBox="0.00 0.00 598.00 1168.00" xmlns="http://www.w3.org/2000/svg" xmlns:xlink="http://www.w3.org/1999/xlink">
<g id="graph1" class="graph" transform="scale(1 1) rotate(0) translate(4 1164)">
<title>Sendable</title>
<polygon fill="white" stroke="white" points="-4,5 -4,-1164 595,-1164 595,5 -4,5"/>
<!-- Node1 -->
<g id="node1" class="node"><title>Node1</title>
<polygon fill="#bfbfbf" stroke="black" points="0.5,-209.5 0.5,-228.5 57.5,-228.5 57.5,-209.5 0.5,-209.5"/>
<text text-anchor="middle" x="29" y="-216.5" font-family="Helvetica,sans-Serif" font-size="10.00">Sendable</text>
</g>
<!-- Node2 -->
<g id="node3" class="node"><title>Node2</title>
<a xlink:href="class_live_window_sendable.html" target="_top" xlink:title="LiveWindowSendable">
<polygon fill="white" stroke="black" points="94,-703.5 94,-722.5 202,-722.5 202,-703.5 94,-703.5"/>
<text text-anchor="middle" x="148" y="-710.5" font-family="Helvetica,sans-Serif" font-size="10.00">LiveWindowSendable</text>
</a>
</g>
<!-- Node1&#45;&gt;Node2 -->
<g id="edge2" class="edge"><title>Node1&#45;&gt;Node2</title>
<path fill="none" stroke="midnightblue" d="M34.6904,-238.804C54.4212,-322.112 130.323,-642.587 144.657,-703.109"/>
<polygon fill="midnightblue" stroke="midnightblue" points="38.0476,-237.792 32.3371,-228.868 31.2361,-239.405 38.0476,-237.792"/>
</g>
<!-- Node30 -->
<g id="node72" class="node"><title>Node30</title>
<a xlink:href="class_named_sendable.html" target="_top" xlink:title="NamedSendable">
<polygon fill="white" stroke="black" points="104,-228.5 104,-247.5 192,-247.5 192,-228.5 104,-228.5"/>
<text text-anchor="middle" x="148" y="-235.5" font-family="Helvetica,sans-Serif" font-size="10.00">NamedSendable</text>
</a>
</g>
<!-- Node1&#45;&gt;Node30 -->
<g id="edge84" class="edge"><title>Node1&#45;&gt;Node30</title>
<path fill="none" stroke="midnightblue" d="M67.8845,-225.152C79.3839,-227.02 92.1018,-229.085 103.916,-231.004"/>
<polygon fill="midnightblue" stroke="midnightblue" points="68.1591,-221.651 57.7274,-223.503 67.037,-228.56 68.1591,-221.651"/>
</g>
<!-- Node44 -->
<g id="node100" class="node"><title>Node44</title>
<a xlink:href="class_sendable_chooser.html" target="_top" xlink:title="SendableChooser">
<polygon fill="white" stroke="black" points="101.5,-190.5 101.5,-209.5 194.5,-209.5 194.5,-190.5 101.5,-190.5"/>
<text text-anchor="middle" x="148" y="-197.5" font-family="Helvetica,sans-Serif" font-size="10.00">SendableChooser</text>
</a>
</g>
<!-- Node1&#45;&gt;Node44 -->
<g id="edge112" class="edge"><title>Node1&#45;&gt;Node44</title>
<path fill="none" stroke="midnightblue" d="M67.9259,-212.841C78.5307,-211.119 90.1691,-209.229 101.178,-207.441"/>
<polygon fill="midnightblue" stroke="midnightblue" points="67.037,-209.44 57.7274,-214.497 68.1591,-216.349 67.037,-209.44"/>
</g>
<!-- Node45 -->
<g id="node102" class="node"><title>Node45</title>
<a xlink:href="class_trigger.html" target="_top" xlink:title="Trigger">
<polygon fill="white" stroke="black" points="125,-95.5 125,-114.5 171,-114.5 171,-95.5 125,-95.5"/>
<text text-anchor="middle" x="148" y="-102.5" font-family="Helvetica,sans-Serif" font-size="10.00">Trigger</text>
</a>
</g>
<!-- Node1&#45;&gt;Node45 -->
<g id="edge114" class="edge"><title>Node1&#45;&gt;Node45</title>
<path fill="none" stroke="midnightblue" d="M47.2747,-202.168C72.116,-177.964 117.125,-134.109 137.05,-114.695"/>
<polygon fill="midnightblue" stroke="midnightblue" points="44.6951,-199.795 39.9754,-209.28 49.5802,-204.809 44.6951,-199.795"/>
</g>
<!-- Node3 -->
<g id="node5" class="node"><title>Node3</title>
<a xlink:href="class_a_d_x_l345___i2_c.html" target="_top" xlink:title="ADXL345_I2C">
<polygon fill="white" stroke="black" points="259,-1140.5 259,-1159.5 335,-1159.5 335,-1140.5 259,-1140.5"/>
<text text-anchor="middle" x="297" y="-1147.5" font-family="Helvetica,sans-Serif" font-size="10.00">ADXL345_I2C</text>
</a>
</g>
<!-- Node2&#45;&gt;Node3 -->
<g id="edge4" class="edge"><title>Node2&#45;&gt;Node3</title>
<path fill="none" stroke="midnightblue" d="M150.656,-733.094C157.221,-808.12 183.75,-1070.62 238,-1131 243.524,-1137.15 251.066,-1141.31 258.884,-1144.13"/>
<polygon fill="midnightblue" stroke="midnightblue" points="154.108,-732.39 149.772,-722.723 147.133,-732.984 154.108,-732.39"/>
</g>
<!-- Node4 -->
<g id="node7" class="node"><title>Node4</title>
<a xlink:href="class_a_d_x_l345___s_p_i.html" target="_top" xlink:title="ADXL345_SPI">
<polygon fill="white" stroke="black" points="258.5,-1102.5 258.5,-1121.5 335.5,-1121.5 335.5,-1102.5 258.5,-1102.5"/>
<text text-anchor="middle" x="297" y="-1109.5" font-family="Helvetica,sans-Serif" font-size="10.00">ADXL345_SPI</text>
</a>
</g>
<!-- Node2&#45;&gt;Node4 -->
<g id="edge6" class="edge"><title>Node2&#45;&gt;Node4</title>
<path fill="none" stroke="midnightblue" d="M151.065,-732.613C158.805,-802.59 188.221,-1038.72 238,-1093 243.443,-1098.94 250.766,-1103.02 258.373,-1105.83"/>
<polygon fill="midnightblue" stroke="midnightblue" points="154.53,-732.096 149.974,-722.531 147.57,-732.849 154.53,-732.096"/>
</g>
<!-- Node5 -->
<g id="node9" class="node"><title>Node5</title>
<a xlink:href="class_analog_accelerometer.html" target="_top" xlink:title="AnalogAccelerometer">
<polygon fill="white" stroke="black" points="242,-1064.5 242,-1083.5 352,-1083.5 352,-1064.5 242,-1064.5"/>
<text text-anchor="middle" x="297" y="-1071.5" font-family="Helvetica,sans-Serif" font-size="10.00">AnalogAccelerometer</text>
</a>
</g>
<!-- Node2&#45;&gt;Node5 -->
<g id="edge8" class="edge"><title>Node2&#45;&gt;Node5</title>
<path fill="none" stroke="midnightblue" d="M151.631,-732.73C160.731,-798.214 192.813,-1006.92 238,-1055 241.628,-1058.86 246.052,-1061.94 250.822,-1064.39"/>
<polygon fill="midnightblue" stroke="midnightblue" points="155.062,-731.985 150.242,-722.55 148.126,-732.931 155.062,-731.985"/>
</g>
<!-- Node6 -->
<g id="node11" class="node"><title>Node6</title>
<a xlink:href="class_analog_input.html" target="_top" xlink:title="AnalogInput">
<polygon fill="white" stroke="black" points="263,-1026.5 263,-1045.5 331,-1045.5 331,-1026.5 263,-1026.5"/>
<text text-anchor="middle" x="297" y="-1033.5" font-family="Helvetica,sans-Serif" font-size="10.00">AnalogInput</text>
</a>
</g>
<!-- Node2&#45;&gt;Node6 -->
<g id="edge10" class="edge"><title>Node2&#45;&gt;Node6</title>
<path fill="none" stroke="midnightblue" d="M148.896,-732.845C150.007,-785.429 160.806,-928.315 238,-1008 247.953,-1018.27 263.538,-1023 276.047,-1026.48"/>
<polygon fill="midnightblue" stroke="midnightblue" points="152.393,-732.492 148.786,-722.53 145.393,-732.567 152.393,-732.492"/>
</g>
<!-- Node2&#45;&gt;Node6 -->
<g id="edge12" class="edge"><title>Node2&#45;&gt;Node6</title>
<path fill="none" stroke="midnightblue" d="M148.792,-732.653C149.018,-787.489 156.553,-941.923 238,-1026 244.635,-1032.85 253.774,-1037.23 262.835,-1039.64"/>
<polygon fill="midnightblue" stroke="midnightblue" points="152.292,-732.538 148.83,-722.525 145.292,-732.511 152.292,-732.538"/>
</g>
<!-- Node7 -->
<g id="node14" class="node"><title>Node7</title>
<a xlink:href="class_analog_output.html" target="_top" xlink:title="AnalogOutput">
<polygon fill="white" stroke="black" points="259,-988.5 259,-1007.5 335,-1007.5 335,-988.5 259,-988.5"/>
<text text-anchor="middle" x="297" y="-995.5" font-family="Helvetica,sans-Serif" font-size="10.00">AnalogOutput</text>
</a>
</g>
<!-- Node2&#45;&gt;Node7 -->
<g id="edge14" class="edge"><title>Node2&#45;&gt;Node7</title>
<path fill="none" stroke="midnightblue" d="M149.796,-732.703C152.838,-781.472 167.487,-908.93 238,-979 243.712,-984.676 251.145,-988.657 258.772,-991.448"/>
<polygon fill="midnightblue" stroke="midnightblue" points="153.283,-732.364 149.266,-722.56 146.293,-732.73 153.283,-732.364"/>
</g>
<!-- Node8 -->
<g id="node16" class="node"><title>Node8</title>
<a xlink:href="class_analog_potentiometer.html" target="_top" xlink:title="AnalogPotentiometer">
<polygon fill="white" stroke="black" points="243.5,-950.5 243.5,-969.5 350.5,-969.5 350.5,-950.5 243.5,-950.5"/>
<text text-anchor="middle" x="297" y="-957.5" font-family="Helvetica,sans-Serif" font-size="10.00">AnalogPotentiometer</text>
</a>
</g>
<!-- Node2&#45;&gt;Node8 -->
<g id="edge16" class="edge"><title>Node2&#45;&gt;Node8</title>
<path fill="none" stroke="midnightblue" d="M151.808,-733.007C158.333,-775.869 178.774,-875.978 238,-932 248.623,-942.048 264.647,-946.784 277.163,-950.425"/>
<polygon fill="midnightblue" stroke="midnightblue" points="155.252,-732.365 150.374,-722.96 148.322,-733.354 155.252,-732.365"/>
</g>
<!-- Node2&#45;&gt;Node8 -->
<g id="edge18" class="edge"><title>Node2&#45;&gt;Node8</title>
<path fill="none" stroke="midnightblue" d="M150.546,-732.79C155.438,-778.329 174.254,-889.702 238,-950 239.694,-951.602 241.524,-953.069 243.456,-954.406"/>
<polygon fill="midnightblue" stroke="midnightblue" points="154.017,-732.324 149.583,-722.702 147.049,-732.989 154.017,-732.324"/>
</g>
<!-- Node9 -->
<g id="node19" class="node"><title>Node9</title>
<a xlink:href="class_built_in_accelerometer.html" target="_top" xlink:title="BuiltInAccelerometer">
<polygon fill="white" stroke="black" points="243.5,-912.5 243.5,-931.5 350.5,-931.5 350.5,-912.5 243.5,-912.5"/>
<text text-anchor="middle" x="297" y="-919.5" font-family="Helvetica,sans-Serif" font-size="10.00">BuiltInAccelerometer</text>
</a>
</g>
<!-- Node2&#45;&gt;Node9 -->
<g id="edge20" class="edge"><title>Node2&#45;&gt;Node9</title>
<path fill="none" stroke="midnightblue" d="M152.84,-732.874C161.295,-771.317 185.128,-856.191 238,-903 242.363,-906.863 247.529,-909.943 252.951,-912.399"/>
<polygon fill="midnightblue" stroke="midnightblue" points="156.234,-732.006 150.773,-722.928 149.381,-733.431 156.234,-732.006"/>
</g>
<!-- Node10 -->
<g id="node21" class="node"><title>Node10</title>
<a xlink:href="class_c_a_n_jaguar.html" target="_top" xlink:title="CANJaguar">
<polygon fill="white" stroke="black" points="264.5,-874.5 264.5,-893.5 329.5,-893.5 329.5,-874.5 264.5,-874.5"/>
<text text-anchor="middle" x="297" y="-881.5" font-family="Helvetica,sans-Serif" font-size="10.00">CANJaguar</text>
</a>
</g>
<!-- Node2&#45;&gt;Node10 -->
<g id="edge22" class="edge"><title>Node2&#45;&gt;Node10</title>
<path fill="none" stroke="midnightblue" d="M155.234,-732.414C166.555,-764.626 193.523,-829.119 238,-865 245.587,-871.121 255.212,-875.296 264.43,-878.134"/>
<polygon fill="midnightblue" stroke="midnightblue" points="158.508,-731.169 151.992,-722.815 151.876,-733.409 158.508,-731.169"/>
</g>
<!-- Node11 -->
<g id="node23" class="node"><title>Node11</title>
<a xlink:href="class_compressor.html" target="_top" xlink:title="Compressor">
<polygon fill="white" stroke="black" points="262.5,-836.5 262.5,-855.5 331.5,-855.5 331.5,-836.5 262.5,-836.5"/>
<text text-anchor="middle" x="297" y="-843.5" font-family="Helvetica,sans-Serif" font-size="10.00">Compressor</text>
</a>
</g>
<!-- Node2&#45;&gt;Node11 -->
<g id="edge24" class="edge"><title>Node2&#45;&gt;Node11</title>
<path fill="none" stroke="midnightblue" d="M158.698,-731.382C172.863,-756.514 201.539,-801.394 238,-827 245.197,-832.054 253.824,-835.829 262.197,-838.621"/>
<polygon fill="midnightblue" stroke="midnightblue" points="161.712,-729.599 153.84,-722.509 155.572,-732.961 161.712,-729.599"/>
</g>
<!-- Node12 -->
<g id="node25" class="node"><title>Node12</title>
<a xlink:href="class_counter.html" target="_top" xlink:title="Counter">
<polygon fill="white" stroke="black" points="272,-798.5 272,-817.5 322,-817.5 322,-798.5 272,-798.5"/>
<text text-anchor="middle" x="297" y="-805.5" font-family="Helvetica,sans-Serif" font-size="10.00">Counter</text>
</a>
</g>
<!-- Node2&#45;&gt;Node12 -->
<g id="edge26" class="edge"><title>Node2&#45;&gt;Node12</title>
<path fill="none" stroke="midnightblue" d="M171.955,-729.539C188.878,-744.624 213.183,-766.064 238,-780 252.597,-788.197 271.27,-793.514 283.426,-798.498"/>
<polygon fill="midnightblue" stroke="midnightblue" points="174.068,-726.735 164.27,-722.705 169.417,-731.966 174.068,-726.735"/>
</g>
<!-- Node2&#45;&gt;Node12 -->
<g id="edge30" class="edge"><title>Node2&#45;&gt;Node12</title>
<path fill="none" stroke="midnightblue" d="M159.8,-730.699C175.535,-750.251 206.352,-780.228 238,-798 248.532,-803.914 261.186,-808.329 271.983,-810.612"/>
<polygon fill="midnightblue" stroke="midnightblue" points="162.478,-728.437 153.682,-722.53 156.875,-732.633 162.478,-728.437"/>
</g>
<!-- Node14 -->
<g id="node30" class="node"><title>Node14</title>
<a xlink:href="class_digital_input.html" target="_top" xlink:title="DigitalInput">
<polygon fill="white" stroke="black" points="264.5,-760.5 264.5,-779.5 329.5,-779.5 329.5,-760.5 264.5,-760.5"/>
<text text-anchor="middle" x="297" y="-767.5" font-family="Helvetica,sans-Serif" font-size="10.00">DigitalInput</text>
</a>
</g>
<!-- Node2&#45;&gt;Node14 -->
<g id="edge32" class="edge"><title>Node2&#45;&gt;Node14</title>
<path fill="none" stroke="midnightblue" d="M198.55,-726.355C211.316,-731.492 225.094,-737.142 238,-742 254.461,-748.197 273.962,-754.346 285.638,-760.358"/>
<polygon fill="midnightblue" stroke="midnightblue" points="199.602,-723.007 189.017,-722.548 197.006,-729.507 199.602,-723.007"/>
</g>
<!-- Node2&#45;&gt;Node14 -->
<g id="edge34" class="edge"><title>Node2&#45;&gt;Node14</title>
<path fill="none" stroke="midnightblue" d="M166.725,-727.933C184.555,-738.136 212.926,-750.561 238,-760 246.429,-763.173 255.655,-766.334 264.219,-768.811"/>
<polygon fill="midnightblue" stroke="midnightblue" points="168.336,-724.814 157.991,-722.526 164.651,-730.765 168.336,-724.814"/>
</g>
<!-- Node15 -->
<g id="node33" class="node"><title>Node15</title>
<a xlink:href="class_digital_output.html" target="_top" xlink:title="DigitalOutput">
<polygon fill="white" stroke="black" points="260.5,-722.5 260.5,-741.5 333.5,-741.5 333.5,-722.5 260.5,-722.5"/>
<text text-anchor="middle" x="297" y="-729.5" font-family="Helvetica,sans-Serif" font-size="10.00">DigitalOutput</text>
</a>
</g>
<!-- Node2&#45;&gt;Node15 -->
<g id="edge36" class="edge"><title>Node2&#45;&gt;Node15</title>
<path fill="none" stroke="midnightblue" d="M212.23,-721.173C228.743,-723.307 245.961,-725.532 260.462,-727.407"/>
<polygon fill="midnightblue" stroke="midnightblue" points="212.437,-717.67 202.07,-719.859 211.539,-724.613 212.437,-717.67"/>
</g>
<!-- Node16 -->
<g id="node35" class="node"><title>Node16</title>
<a xlink:href="class_double_solenoid.html" target="_top" xlink:title="DoubleSolenoid">
<polygon fill="white" stroke="black" points="255,-684.5 255,-703.5 339,-703.5 339,-684.5 255,-684.5"/>
<text text-anchor="middle" x="297" y="-691.5" font-family="Helvetica,sans-Serif" font-size="10.00">DoubleSolenoid</text>
</a>
</g>
<!-- Node2&#45;&gt;Node16 -->
<g id="edge38" class="edge"><title>Node2&#45;&gt;Node16</title>
<path fill="none" stroke="midnightblue" d="M189.39,-701.679C209.792,-698.185 234.496,-694.983 254.985,-693.175"/>
<polygon fill="midnightblue" stroke="midnightblue" points="188.679,-698.251 179.458,-703.47 189.921,-705.14 188.679,-698.251"/>
</g>
<!-- Node2&#45;&gt;Node16 -->
<g id="edge40" class="edge"><title>Node2&#45;&gt;Node16</title>
<path fill="none" stroke="midnightblue" d="M212.246,-711.517C230.782,-709.334 250.205,-706.455 265.675,-703.504"/>
<polygon fill="midnightblue" stroke="midnightblue" points="211.62,-708.065 202.07,-712.653 212.397,-715.021 211.62,-708.065"/>
</g>
<!-- Node17 -->
<g id="node38" class="node"><title>Node17</title>
<a xlink:href="class_encoder.html" target="_top" xlink:title="Encoder">
<polygon fill="white" stroke="black" points="270.5,-646.5 270.5,-665.5 323.5,-665.5 323.5,-646.5 270.5,-646.5"/>
<text text-anchor="middle" x="297" y="-653.5" font-family="Helvetica,sans-Serif" font-size="10.00">Encoder</text>
</a>
</g>
<!-- Node2&#45;&gt;Node17 -->
<g id="edge42" class="edge"><title>Node2&#45;&gt;Node17</title>
<path fill="none" stroke="midnightblue" d="M166.725,-698.067C184.555,-687.864 212.926,-675.439 238,-666 248.512,-662.043 260.262,-658.105 270.424,-655.488"/>
<polygon fill="midnightblue" stroke="midnightblue" points="164.651,-695.235 157.991,-703.474 168.336,-701.186 164.651,-695.235"/>
</g>
<!-- Node2&#45;&gt;Node17 -->
<g id="edge44" class="edge"><title>Node2&#45;&gt;Node17</title>
<path fill="none" stroke="midnightblue" d="M198.55,-699.645C211.316,-694.508 225.094,-688.858 238,-684 254.461,-677.803 273.962,-671.654 285.638,-665.642"/>
<polygon fill="midnightblue" stroke="midnightblue" points="197.006,-696.493 189.017,-703.452 199.602,-702.993 197.006,-696.493"/>
</g>
<!-- Node18 -->
<g id="node41" class="node"><title>Node18</title>
<a xlink:href="class_gyro.html" target="_top" xlink:title="Gyro">
<polygon fill="white" stroke="black" points="278,-608.5 278,-627.5 316,-627.5 316,-608.5 278,-608.5"/>
<text text-anchor="middle" x="297" y="-615.5" font-family="Helvetica,sans-Serif" font-size="10.00">Gyro</text>
</a>
</g>
<!-- Node2&#45;&gt;Node18 -->
<g id="edge46" class="edge"><title>Node2&#45;&gt;Node18</title>
<path fill="none" stroke="midnightblue" d="M159.8,-695.301C175.535,-675.749 206.352,-645.772 238,-628 250.565,-620.944 266.149,-616.023 277.998,-614.309"/>
<polygon fill="midnightblue" stroke="midnightblue" points="156.875,-693.367 153.682,-703.47 162.478,-697.563 156.875,-693.367"/>
</g>
<!-- Node2&#45;&gt;Node18 -->
<g id="edge48" class="edge"><title>Node2&#45;&gt;Node18</title>
<path fill="none" stroke="midnightblue" d="M171.955,-696.461C188.878,-681.376 213.183,-659.936 238,-646 252.597,-637.803 271.27,-632.486 283.426,-627.502"/>
<polygon fill="midnightblue" stroke="midnightblue" points="169.417,-694.034 164.27,-703.295 174.068,-699.265 169.417,-694.034"/>
</g>
<!-- Node19 -->
<g id="node44" class="node"><title>Node19</title>
<a xlink:href="class_p_i_d_controller.html" target="_top" xlink:title="PIDController">
<polygon fill="white" stroke="black" points="260,-570.5 260,-589.5 334,-589.5 334,-570.5 260,-570.5"/>
<text text-anchor="middle" x="297" y="-577.5" font-family="Helvetica,sans-Serif" font-size="10.00">PIDController</text>
</a>
</g>
<!-- Node2&#45;&gt;Node19 -->
<g id="edge50" class="edge"><title>Node2&#45;&gt;Node19</title>
<path fill="none" stroke="midnightblue" d="M158.698,-694.618C172.863,-669.486 201.539,-624.606 238,-599 244.503,-594.433 252.174,-590.911 259.771,-588.214"/>
<polygon fill="midnightblue" stroke="midnightblue" points="155.572,-693.039 153.84,-703.491 161.712,-696.401 155.572,-693.039"/>
</g>
<!-- Node20 -->
<g id="node46" class="node"><title>Node20</title>
<a xlink:href="class_power_distribution_panel.html" target="_top" xlink:title="PowerDistributionPanel">
<polygon fill="white" stroke="black" points="238.5,-532.5 238.5,-551.5 355.5,-551.5 355.5,-532.5 238.5,-532.5"/>
<text text-anchor="middle" x="297" y="-539.5" font-family="Helvetica,sans-Serif" font-size="10.00">PowerDistributionPanel</text>
</a>
</g>
<!-- Node2&#45;&gt;Node20 -->
<g id="edge52" class="edge"><title>Node2&#45;&gt;Node20</title>
<path fill="none" stroke="midnightblue" d="M155.234,-693.586C166.555,-661.374 193.523,-596.881 238,-561 242.783,-557.141 248.376,-554.056 254.167,-551.591"/>
<polygon fill="midnightblue" stroke="midnightblue" points="151.876,-692.591 151.992,-703.185 158.508,-694.831 151.876,-692.591"/>
</g>
<!-- Node21 -->
<g id="node48" class="node"><title>Node21</title>
<a xlink:href="class_p_w_m.html" target="_top" xlink:title="PWM">
<polygon fill="white" stroke="black" points="276.5,-494.5 276.5,-513.5 317.5,-513.5 317.5,-494.5 276.5,-494.5"/>
<text text-anchor="middle" x="297" y="-501.5" font-family="Helvetica,sans-Serif" font-size="10.00">PWM</text>
</a>
</g>
<!-- Node2&#45;&gt;Node21 -->
<g id="edge54" class="edge"><title>Node2&#45;&gt;Node21</title>
<path fill="none" stroke="midnightblue" d="M151.855,-693.141C159.343,-652.881 182.906,-562.776 238,-514 248.631,-504.588 264.024,-499.824 276.281,-498.711"/>
<polygon fill="midnightblue" stroke="midnightblue" points="148.388,-692.653 150.156,-703.099 155.288,-693.83 148.388,-692.653"/>
</g>
<!-- Node2&#45;&gt;Node21 -->
<g id="edge72" class="edge"><title>Node2&#45;&gt;Node21</title>
<path fill="none" stroke="midnightblue" d="M154.116,-693.098C163.567,-655.894 187.579,-576.639 238,-532 249.186,-522.096 265.645,-517.338 278.175,-513.558"/>
<polygon fill="midnightblue" stroke="midnightblue" points="150.619,-692.664 151.638,-703.209 157.418,-694.33 150.619,-692.664"/>
</g>
<!-- Node27 -->
<g id="node64" class="node"><title>Node27</title>
<a xlink:href="class_relay.html" target="_top" xlink:title="Relay">
<polygon fill="white" stroke="black" points="276.5,-456.5 276.5,-475.5 317.5,-475.5 317.5,-456.5 276.5,-456.5"/>
<text text-anchor="middle" x="297" y="-463.5" font-family="Helvetica,sans-Serif" font-size="10.00">Relay</text>
</a>
</g>
<!-- Node2&#45;&gt;Node27 -->
<g id="edge74" class="edge"><title>Node2&#45;&gt;Node27</title>
<path fill="none" stroke="midnightblue" d="M150.546,-693.21C155.438,-647.671 174.254,-536.298 238,-476 248.392,-466.17 263.953,-461.424 276.341,-460.453"/>
<polygon fill="midnightblue" stroke="midnightblue" points="147.049,-693.011 149.583,-703.298 154.017,-693.676 147.049,-693.011"/>
</g>
<!-- Node2&#45;&gt;Node27 -->
<g id="edge76" class="edge"><title>Node2&#45;&gt;Node27</title>
<path fill="none" stroke="midnightblue" d="M151.808,-692.993C158.333,-650.131 178.774,-550.022 238,-494 248.623,-483.952 264.647,-479.216 277.163,-475.575"/>
<polygon fill="midnightblue" stroke="midnightblue" points="148.322,-692.646 150.374,-703.04 155.252,-693.635 148.322,-692.646"/>
</g>
<!-- Node28 -->
<g id="node67" class="node"><title>Node28</title>
<a xlink:href="class_solenoid.html" target="_top" xlink:title="Solenoid">
<polygon fill="white" stroke="black" points="270,-418.5 270,-437.5 324,-437.5 324,-418.5 270,-418.5"/>
<text text-anchor="middle" x="297" y="-425.5" font-family="Helvetica,sans-Serif" font-size="10.00">Solenoid</text>
</a>
</g>
<!-- Node2&#45;&gt;Node28 -->
<g id="edge78" class="edge"><title>Node2&#45;&gt;Node28</title>
<path fill="none" stroke="midnightblue" d="M149.574,-693.032C152.085,-642.48 165.576,-509.969 238,-438 246.493,-429.56 258.789,-424.869 269.876,-423.036"/>
<polygon fill="midnightblue" stroke="midnightblue" points="146.066,-693.154 149.164,-703.286 153.06,-693.433 146.066,-693.154"/>
</g>
<!-- Node2&#45;&gt;Node28 -->
<g id="edge80" class="edge"><title>Node2&#45;&gt;Node28</title>
<path fill="none" stroke="midnightblue" d="M150.122,-693.277C153.824,-645.493 169.726,-523.845 238,-456 248.222,-445.842 263.952,-441.115 276.453,-437.565"/>
<polygon fill="midnightblue" stroke="midnightblue" points="146.629,-693.066 149.447,-703.279 153.613,-693.538 146.629,-693.066"/>
</g>
<!-- Node29 -->
<g id="node70" class="node"><title>Node29</title>
<a xlink:href="class_ultrasonic.html" target="_top" xlink:title="Ultrasonic">
<polygon fill="white" stroke="black" points="267,-380.5 267,-399.5 327,-399.5 327,-380.5 267,-380.5"/>
<text text-anchor="middle" x="297" y="-387.5" font-family="Helvetica,sans-Serif" font-size="10.00">Ultrasonic</text>
</a>
</g>
<!-- Node2&#45;&gt;Node29 -->
<g id="edge82" class="edge"><title>Node2&#45;&gt;Node29</title>
<path fill="none" stroke="midnightblue" d="M148.826,-693.063C149.463,-639.478 158.684,-490.877 238,-409 245.594,-401.161 256.466,-396.554 266.749,-393.848"/>
<polygon fill="midnightblue" stroke="midnightblue" points="145.325,-693.251 148.8,-703.26 152.325,-693.269 145.325,-693.251"/>
</g>
<!-- Node13 -->
<g id="node27" class="node"><title>Node13</title>
<a xlink:href="class_gear_tooth.html" target="_top" xlink:title="GearTooth">
<polygon fill="white" stroke="black" points="412,-798.5 412,-817.5 474,-817.5 474,-798.5 412,-798.5"/>
<text text-anchor="middle" x="443" y="-805.5" font-family="Helvetica,sans-Serif" font-size="10.00">GearTooth</text>
</a>
</g>
<!-- Node12&#45;&gt;Node13 -->
<g id="edge28" class="edge"><title>Node12&#45;&gt;Node13</title>
<path fill="none" stroke="midnightblue" d="M332.268,-808C356.462,-808 388.579,-808 411.81,-808"/>
<polygon fill="midnightblue" stroke="midnightblue" points="332.102,-804.5 322.102,-808 332.102,-811.5 332.102,-804.5"/>
</g>
<!-- Node22 -->
<g id="node50" class="node"><title>Node22</title>
<a xlink:href="class_safe_p_w_m.html" target="_top" xlink:title="SafePWM">
<polygon fill="white" stroke="red" points="412.5,-494.5 412.5,-513.5 473.5,-513.5 473.5,-494.5 412.5,-494.5"/>
<text text-anchor="middle" x="443" y="-501.5" font-family="Helvetica,sans-Serif" font-size="10.00">SafePWM</text>
</a>
</g>
<!-- Node21&#45;&gt;Node22 -->
<g id="edge56" class="edge"><title>Node21&#45;&gt;Node22</title>
<path fill="none" stroke="midnightblue" d="M327.965,-498.399C352.696,-496.862 387.611,-496.867 412.276,-498.414"/>
<polygon fill="midnightblue" stroke="midnightblue" points="327.424,-494.93 317.721,-499.183 327.959,-501.91 327.424,-494.93"/>
</g>
<!-- Node21&#45;&gt;Node22 -->
<g id="edge70" class="edge"><title>Node21&#45;&gt;Node22</title>
<path fill="none" stroke="midnightblue" d="M327.965,-509.601C352.696,-511.138 387.611,-511.133 412.276,-509.586"/>
<polygon fill="midnightblue" stroke="midnightblue" points="327.959,-506.09 317.721,-508.817 327.424,-513.07 327.959,-506.09"/>
</g>
<!-- Node23 -->
<g id="node52" class="node"><title>Node23</title>
<a xlink:href="class_jaguar.html" target="_top" xlink:title="Jaguar">
<polygon fill="white" stroke="black" points="537.5,-551.5 537.5,-570.5 582.5,-570.5 582.5,-551.5 537.5,-551.5"/>
<text text-anchor="middle" x="560" y="-558.5" font-family="Helvetica,sans-Serif" font-size="10.00">Jaguar</text>
</a>
</g>
<!-- Node22&#45;&gt;Node23 -->
<g id="edge58" class="edge"><title>Node22&#45;&gt;Node23</title>
<path fill="none" stroke="midnightblue" d="M482.807,-516.812C505.767,-527.36 533.189,-541.705 548.073,-551.421"/>
<polygon fill="midnightblue" stroke="midnightblue" points="484.172,-513.589 473.615,-512.691 481.308,-519.976 484.172,-513.589"/>
</g>
<!-- Node22&#45;&gt;Node23 -->
<g id="edge60" class="edge"><title>Node22&#45;&gt;Node23</title>
<path fill="none" stroke="midnightblue" d="M463.807,-519.063C484.277,-531.155 516.139,-547.006 537.285,-555.656"/>
<polygon fill="midnightblue" stroke="midnightblue" points="465.375,-515.918 455.027,-513.644 461.698,-521.875 465.375,-515.918"/>
</g>
<!-- Node24 -->
<g id="node55" class="node"><title>Node24</title>
<a xlink:href="class_servo.html" target="_top" xlink:title="Servo">
<polygon fill="white" stroke="black" points="539.5,-513.5 539.5,-532.5 580.5,-532.5 580.5,-513.5 539.5,-513.5"/>
<text text-anchor="middle" x="560" y="-520.5" font-family="Helvetica,sans-Serif" font-size="10.00">Servo</text>
</a>
</g>
<!-- Node22&#45;&gt;Node24 -->
<g id="edge62" class="edge"><title>Node22&#45;&gt;Node24</title>
<path fill="none" stroke="midnightblue" d="M483.691,-510.558C502.45,-513.657 524.016,-517.22 539.249,-519.737"/>
<polygon fill="midnightblue" stroke="midnightblue" points="484.052,-507.07 473.615,-508.893 482.911,-513.976 484.052,-507.07"/>
</g>
<!-- Node25 -->
<g id="node57" class="node"><title>Node25</title>
<a xlink:href="class_talon.html" target="_top" xlink:title="Talon">
<polygon fill="white" stroke="black" points="540,-475.5 540,-494.5 580,-494.5 580,-475.5 540,-475.5"/>
<text text-anchor="middle" x="560" y="-482.5" font-family="Helvetica,sans-Serif" font-size="10.00">Talon</text>
</a>
</g>
<!-- Node22&#45;&gt;Node25 -->
<g id="edge64" class="edge"><title>Node22&#45;&gt;Node25</title>
<path fill="none" stroke="midnightblue" d="M477.606,-492.245C497.83,-487.923 522.851,-484.127 539.772,-482.987"/>
<polygon fill="midnightblue" stroke="midnightblue" points="476.802,-488.838 467.828,-494.47 478.355,-495.664 476.802,-488.838"/>
</g>
<!-- Node22&#45;&gt;Node25 -->
<g id="edge66" class="edge"><title>Node22&#45;&gt;Node25</title>
<path fill="none" stroke="midnightblue" d="M483.561,-503.913C502.638,-501.421 524.642,-497.36 539.944,-493.321"/>
<polygon fill="midnightblue" stroke="midnightblue" points="483.132,-500.439 473.615,-505.095 483.959,-507.39 483.132,-500.439"/>
</g>
<!-- Node26 -->
<g id="node60" class="node"><title>Node26</title>
<a xlink:href="class_talon_s_r_x.html" target="_top" xlink:title="TalonSRX">
<polygon fill="white" stroke="black" points="530.5,-437.5 530.5,-456.5 589.5,-456.5 589.5,-437.5 530.5,-437.5"/>
<text text-anchor="middle" x="560" y="-444.5" font-family="Helvetica,sans-Serif" font-size="10.00">TalonSRX</text>
</a>
</g>
<!-- Node22&#45;&gt;Node26 -->
<g id="edge68" class="edge"><title>Node22&#45;&gt;Node26</title>
<path fill="none" stroke="midnightblue" d="M481.116,-490.688C485.505,-488.882 489.883,-486.969 494,-485 511.807,-476.484 531.222,-464.794 544.152,-456.636"/>
<polygon fill="midnightblue" stroke="midnightblue" points="479.606,-487.521 471.592,-494.451 482.179,-494.031 479.606,-487.521"/>
</g>
<!-- Node31 -->
<g id="node74" class="node"><title>Node31</title>
<a xlink:href="class_command.html" target="_top" xlink:title="Command">
<polygon fill="white" stroke="black" points="266.5,-304.5 266.5,-323.5 327.5,-323.5 327.5,-304.5 266.5,-304.5"/>
<text text-anchor="middle" x="297" y="-311.5" font-family="Helvetica,sans-Serif" font-size="10.00">Command</text>
</a>
</g>
<!-- Node30&#45;&gt;Node31 -->
<g id="edge86" class="edge"><title>Node30&#45;&gt;Node31</title>
<path fill="none" stroke="midnightblue" d="M176.575,-252.256C206.093,-267.517 252.1,-291.303 277.534,-304.453"/>
<polygon fill="midnightblue" stroke="midnightblue" points="178.108,-249.109 167.618,-247.625 174.893,-255.327 178.108,-249.109"/>
</g>
<!-- Node40 -->
<g id="node92" class="node"><title>Node40</title>
<a xlink:href="class_scheduler.html" target="_top" xlink:title="Scheduler">
<polygon fill="white" stroke="black" points="267,-228.5 267,-247.5 327,-247.5 327,-228.5 267,-228.5"/>
<text text-anchor="middle" x="297" y="-235.5" font-family="Helvetica,sans-Serif" font-size="10.00">Scheduler</text>
</a>
</g>
<!-- Node30&#45;&gt;Node40 -->
<g id="edge104" class="edge"><title>Node30&#45;&gt;Node40</title>
<path fill="none" stroke="midnightblue" d="M202.434,-238C224.217,-238 248.547,-238 266.936,-238"/>
<polygon fill="midnightblue" stroke="midnightblue" points="202.31,-234.5 192.31,-238 202.31,-241.5 202.31,-234.5"/>
</g>
<!-- Node41 -->
<g id="node94" class="node"><title>Node41</title>
<a xlink:href="class_subsystem.html" target="_top" xlink:title="Subsystem">
<polygon fill="white" stroke="black" points="264,-152.5 264,-171.5 330,-171.5 330,-152.5 264,-152.5"/>
<text text-anchor="middle" x="297" y="-159.5" font-family="Helvetica,sans-Serif" font-size="10.00">Subsystem</text>
</a>
</g>
<!-- Node30&#45;&gt;Node41 -->
<g id="edge106" class="edge"><title>Node30&#45;&gt;Node41</title>
<path fill="none" stroke="midnightblue" d="M188.357,-224.895C193.013,-223.051 197.651,-221.072 202,-219 231.807,-204.797 264.256,-183.76 282.164,-171.611"/>
<polygon fill="midnightblue" stroke="midnightblue" points="186.984,-221.672 178.865,-228.478 189.456,-228.221 186.984,-221.672"/>
</g>
<!-- Node32 -->
<g id="node76" class="node"><title>Node32</title>
<a xlink:href="class_command_group.html" target="_top" xlink:title="CommandGroup">
<polygon fill="white" stroke="black" points="399.5,-456.5 399.5,-475.5 486.5,-475.5 486.5,-456.5 399.5,-456.5"/>
<text text-anchor="middle" x="443" y="-463.5" font-family="Helvetica,sans-Serif" font-size="10.00">CommandGroup</text>
</a>
</g>
<!-- Node31&#45;&gt;Node32 -->
<g id="edge88" class="edge"><title>Node31&#45;&gt;Node32</title>
<path fill="none" stroke="midnightblue" d="M318.141,-330.566C330.201,-341.217 345.229,-355.857 356,-371 377.663,-401.458 364.546,-421.639 392,-447 396.161,-450.844 401.178,-453.934 406.406,-456.413"/>
<polygon fill="midnightblue" stroke="midnightblue" points="320.22,-327.738 310.355,-323.873 315.657,-333.046 320.22,-327.738"/>
</g>
<!-- Node33 -->
<g id="node78" class="node"><title>Node33</title>
<a xlink:href="class_mock_command.html" target="_top" xlink:title="MockCommand">
<polygon fill="white" stroke="red" points="400.5,-418.5 400.5,-437.5 485.5,-437.5 485.5,-418.5 400.5,-418.5"/>
<text text-anchor="middle" x="443" y="-425.5" font-family="Helvetica,sans-Serif" font-size="10.00">MockCommand</text>
</a>
</g>
<!-- Node31&#45;&gt;Node33 -->
<g id="edge90" class="edge"><title>Node31&#45;&gt;Node33</title>
<path fill="none" stroke="midnightblue" d="M315.29,-330.676C326.905,-341.957 342.499,-357.249 356,-371 372.299,-387.6 372.64,-396.099 392,-409 397.564,-412.708 403.953,-415.832 410.264,-418.409"/>
<polygon fill="midnightblue" stroke="midnightblue" points="317.577,-328.019 307.958,-323.576 312.707,-333.047 317.577,-328.019"/>
</g>
<!-- Node34 -->
<g id="node80" class="node"><title>Node34</title>
<a xlink:href="class_p_i_d_command.html" target="_top" xlink:title="PIDCommand">
<polygon fill="white" stroke="black" points="404.5,-380.5 404.5,-399.5 481.5,-399.5 481.5,-380.5 404.5,-380.5"/>
<text text-anchor="middle" x="443" y="-387.5" font-family="Helvetica,sans-Serif" font-size="10.00">PIDCommand</text>
</a>
</g>
<!-- Node31&#45;&gt;Node34 -->
<g id="edge92" class="edge"><title>Node31&#45;&gt;Node34</title>
<path fill="none" stroke="midnightblue" d="M320.268,-329.092C338.916,-341.339 366.501,-358.553 392,-371 399.01,-374.422 406.803,-377.644 414.11,-380.429"/>
<polygon fill="midnightblue" stroke="midnightblue" points="322.146,-326.138 311.879,-323.522 318.274,-331.97 322.146,-326.138"/>
</g>
<!-- Node35 -->
<g id="node82" class="node"><title>Node35</title>
<a xlink:href="class_print_command.html" target="_top" xlink:title="PrintCommand">
<polygon fill="white" stroke="black" points="402.5,-342.5 402.5,-361.5 483.5,-361.5 483.5,-342.5 402.5,-342.5"/>
<text text-anchor="middle" x="443" y="-349.5" font-family="Helvetica,sans-Serif" font-size="10.00">PrintCommand</text>
</a>
</g>
<!-- Node31&#45;&gt;Node35 -->
<g id="edge94" class="edge"><title>Node31&#45;&gt;Node35</title>
<path fill="none" stroke="midnightblue" d="M337.571,-324.442C358.903,-330.072 385.037,-336.968 405.824,-342.454"/>
<polygon fill="midnightblue" stroke="midnightblue" points="338.399,-321.041 327.837,-321.874 336.613,-327.809 338.399,-321.041"/>
</g>
<!-- Node36 -->
<g id="node84" class="node"><title>Node36</title>
<a xlink:href="class_start_command.html" target="_top" xlink:title="StartCommand">
<polygon fill="white" stroke="black" points="402,-304.5 402,-323.5 484,-323.5 484,-304.5 402,-304.5"/>
<text text-anchor="middle" x="443" y="-311.5" font-family="Helvetica,sans-Serif" font-size="10.00">StartCommand</text>
</a>
</g>
<!-- Node31&#45;&gt;Node36 -->
<g id="edge96" class="edge"><title>Node31&#45;&gt;Node36</title>
<path fill="none" stroke="midnightblue" d="M337.839,-314C357.772,-314 381.843,-314 401.822,-314"/>
<polygon fill="midnightblue" stroke="midnightblue" points="337.837,-310.5 327.837,-314 337.837,-317.5 337.837,-310.5"/>
</g>
<!-- Node37 -->
<g id="node86" class="node"><title>Node37</title>
<a xlink:href="class_wait_command.html" target="_top" xlink:title="WaitCommand">
<polygon fill="white" stroke="black" points="402.5,-266.5 402.5,-285.5 483.5,-285.5 483.5,-266.5 402.5,-266.5"/>
<text text-anchor="middle" x="443" y="-273.5" font-family="Helvetica,sans-Serif" font-size="10.00">WaitCommand</text>
</a>
</g>
<!-- Node31&#45;&gt;Node37 -->
<g id="edge98" class="edge"><title>Node31&#45;&gt;Node37</title>
<path fill="none" stroke="midnightblue" d="M337.571,-303.558C358.903,-297.928 385.037,-291.032 405.824,-285.546"/>
<polygon fill="midnightblue" stroke="midnightblue" points="336.613,-300.191 327.837,-306.126 338.399,-306.959 336.613,-300.191"/>
</g>
<!-- Node38 -->
<g id="node88" class="node"><title>Node38</title>
<a xlink:href="class_wait_for_children.html" target="_top" xlink:title="WaitForChildren">
<polygon fill="white" stroke="black" points="400,-228.5 400,-247.5 486,-247.5 486,-228.5 400,-228.5"/>
<text text-anchor="middle" x="443" y="-235.5" font-family="Helvetica,sans-Serif" font-size="10.00">WaitForChildren</text>
</a>
</g>
<!-- Node31&#45;&gt;Node38 -->
<g id="edge100" class="edge"><title>Node31&#45;&gt;Node38</title>
<path fill="none" stroke="midnightblue" d="M320.268,-298.908C338.916,-286.661 366.501,-269.447 392,-257 399.01,-253.578 406.803,-250.356 414.11,-247.571"/>
<polygon fill="midnightblue" stroke="midnightblue" points="318.274,-296.03 311.879,-304.478 322.146,-301.862 318.274,-296.03"/>
</g>
<!-- Node39 -->
<g id="node90" class="node"><title>Node39</title>
<a xlink:href="class_wait_until_command.html" target="_top" xlink:title="WaitUntilCommand">
<polygon fill="white" stroke="black" points="392.5,-190.5 392.5,-209.5 493.5,-209.5 493.5,-190.5 392.5,-190.5"/>
<text text-anchor="middle" x="443" y="-197.5" font-family="Helvetica,sans-Serif" font-size="10.00">WaitUntilCommand</text>
</a>
</g>
<!-- Node31&#45;&gt;Node39 -->
<g id="edge102" class="edge"><title>Node31&#45;&gt;Node39</title>
<path fill="none" stroke="midnightblue" d="M315.29,-297.324C326.905,-286.043 342.499,-270.751 356,-257 372.299,-240.4 372.64,-231.901 392,-219 397.564,-215.292 403.953,-212.168 410.264,-209.591"/>
<polygon fill="midnightblue" stroke="midnightblue" points="312.707,-294.953 307.958,-304.424 317.577,-299.981 312.707,-294.953"/>
</g>
<!-- Node42 -->
<g id="node96" class="node"><title>Node42</title>
<a xlink:href="class_a_subsystem.html" target="_top" xlink:title="ASubsystem">
<polygon fill="white" stroke="black" points="406.5,-152.5 406.5,-171.5 479.5,-171.5 479.5,-152.5 406.5,-152.5"/>
<text text-anchor="middle" x="443" y="-159.5" font-family="Helvetica,sans-Serif" font-size="10.00">ASubsystem</text>
</a>
</g>
<!-- Node41&#45;&gt;Node42 -->
<g id="edge108" class="edge"><title>Node41&#45;&gt;Node42</title>
<path fill="none" stroke="midnightblue" d="M340.526,-162C361.432,-162 386.345,-162 406.254,-162"/>
<polygon fill="midnightblue" stroke="midnightblue" points="340.316,-158.5 330.316,-162 340.316,-165.5 340.316,-158.5"/>
</g>
<!-- Node43 -->
<g id="node98" class="node"><title>Node43</title>
<a xlink:href="class_p_i_d_subsystem.html" target="_top" xlink:title="PIDSubsystem">
<polygon fill="white" stroke="black" points="402,-114.5 402,-133.5 484,-133.5 484,-114.5 402,-114.5"/>
<text text-anchor="middle" x="443" y="-121.5" font-family="Helvetica,sans-Serif" font-size="10.00">PIDSubsystem</text>
</a>
</g>
<!-- Node41&#45;&gt;Node43 -->
<g id="edge110" class="edge"><title>Node41&#45;&gt;Node43</title>
<path fill="none" stroke="midnightblue" d="M340.202,-150.863C361.085,-145.353 386.028,-138.77 405.997,-133.501"/>
<polygon fill="midnightblue" stroke="midnightblue" points="339.092,-147.536 330.316,-153.472 340.878,-154.305 339.092,-147.536"/>
</g>
<!-- Node46 -->
<g id="node104" class="node"><title>Node46</title>
<a xlink:href="class_button.html" target="_top" xlink:title="Button">
<polygon fill="white" stroke="black" points="274.5,-57.5 274.5,-76.5 319.5,-76.5 319.5,-57.5 274.5,-57.5"/>
<text text-anchor="middle" x="297" y="-64.5" font-family="Helvetica,sans-Serif" font-size="10.00">Button</text>
</a>
</g>
<!-- Node45&#45;&gt;Node46 -->
<g id="edge116" class="edge"><title>Node45&#45;&gt;Node46</title>
<path fill="none" stroke="midnightblue" d="M180.813,-96.7761C209.081,-89.4689 249.638,-78.9847 274.322,-72.6038"/>
<polygon fill="midnightblue" stroke="midnightblue" points="179.813,-93.4196 171.007,-99.311 181.565,-100.197 179.813,-93.4196"/>
</g>
<!-- Node47 -->
<g id="node106" class="node"><title>Node47</title>
<a xlink:href="class_internal_button.html" target="_top" xlink:title="InternalButton">
<polygon fill="white" stroke="black" points="404.5,-76.5 404.5,-95.5 481.5,-95.5 481.5,-76.5 404.5,-76.5"/>
<text text-anchor="middle" x="443" y="-83.5" font-family="Helvetica,sans-Serif" font-size="10.00">InternalButton</text>
</a>
</g>
<!-- Node46&#45;&gt;Node47 -->
<g id="edge118" class="edge"><title>Node46&#45;&gt;Node47</title>
<path fill="none" stroke="midnightblue" d="M329.706,-71.1834C351.711,-74.0868 381.121,-77.9674 404.324,-81.0288"/>
<polygon fill="midnightblue" stroke="midnightblue" points="329.93,-67.6828 319.558,-69.8445 329.014,-74.6226 329.93,-67.6828"/>
</g>
<!-- Node48 -->
<g id="node108" class="node"><title>Node48</title>
<a xlink:href="class_joystick_button.html" target="_top" xlink:title="JoystickButton">
<polygon fill="white" stroke="black" points="402.5,-38.5 402.5,-57.5 483.5,-57.5 483.5,-38.5 402.5,-38.5"/>
<text text-anchor="middle" x="443" y="-45.5" font-family="Helvetica,sans-Serif" font-size="10.00">JoystickButton</text>
</a>
</g>
<!-- Node46&#45;&gt;Node48 -->
<g id="edge120" class="edge"><title>Node46&#45;&gt;Node48</title>
<path fill="none" stroke="midnightblue" d="M329.733,-62.813C351.106,-59.993 379.456,-56.2523 402.319,-53.2356"/>
<polygon fill="midnightblue" stroke="midnightblue" points="329.014,-59.3774 319.558,-64.1555 329.93,-66.3172 329.014,-59.3774"/>
</g>
<!-- Node49 -->
<g id="node110" class="node"><title>Node49</title>
<a xlink:href="class_network_button.html" target="_top" xlink:title="NetworkButton">
<polygon fill="white" stroke="black" points="403,-0.5 403,-19.5 483,-19.5 483,-0.5 403,-0.5"/>
<text text-anchor="middle" x="443" y="-7.5" font-family="Helvetica,sans-Serif" font-size="10.00">NetworkButton</text>
</a>
</g>
<!-- Node46&#45;&gt;Node49 -->
<g id="edge122" class="edge"><title>Node46&#45;&gt;Node49</title>
<path fill="none" stroke="midnightblue" d="M328.907,-54.3152C347.214,-46.8497 370.885,-37.2786 392,-29 399.954,-25.8815 408.648,-22.5506 416.524,-19.5626"/>
<polygon fill="midnightblue" stroke="midnightblue" points="327.536,-51.0944 319.603,-58.1167 330.184,-57.5745 327.536,-51.0944"/>
</g>
</g>
</svg>
