<?xml version="1.0" encoding="UTF-8" standalone="no"?>
<!DOCTYPE svg PUBLIC "-//W3C//DTD SVG 1.1//EN"
 "http://www.w3.org/Graphics/SVG/1.1/DTD/svg11.dtd">
<!-- Generated by graphviz version 2.28.0 (20110507.0327)
 -->
<!-- Title: MotorSafetyHelper Pages: 1 -->
<svg width="104pt" height="84pt"
 viewBox="0.00 0.00 104.00 84.00" xmlns="http://www.w3.org/2000/svg" xmlns:xlink="http://www.w3.org/1999/xlink">
<g id="graph1" class="graph" transform="scale(1 1) rotate(0) translate(4 80)">
<title>MotorSafetyHelper</title>
<polygon fill="white" stroke="white" points="-4,5 -4,-80 101,-80 101,5 -4,5"/>
<!-- Node1 -->
<g id="node1" class="node"><title>Node1</title>
<polygon fill="#bfbfbf" stroke="black" points="-0.5,-0.5 -0.5,-19.5 96.5,-19.5 96.5,-0.5 -0.5,-0.5"/>
<text text-anchor="middle" x="48" y="-7.5" font-family="Helvetica,sans-Serif" font-size="10.00">MotorSafetyHelper</text>
</g>
<!-- Node2 -->
<g id="node2" class="node"><title>Node2</title>
<a xlink:href="class_error_base.html" target="_top" xlink:title="ErrorBase">
<polygon fill="white" stroke="black" points="18,-56.5 18,-75.5 78,-75.5 78,-56.5 18,-56.5"/>
<text text-anchor="middle" x="48" y="-63.5" font-family="Helvetica,sans-Serif" font-size="10.00">ErrorBase</text>
</a>
</g>
<!-- Node2&#45;&gt;Node1 -->
<g id="edge2" class="edge"><title>Node2&#45;&gt;Node1</title>
<path fill="none" stroke="midnightblue" d="M41.5276,-46.1005C40.8956,-37.1357 41.3427,-26.8579 42.869,-19.7511"/>
<polygon fill="midnightblue" stroke="midnightblue" points="38.0658,-46.6216 42.8337,-56.083 45.0067,-45.7134 38.0658,-46.6216"/>
</g>
<!-- Node2&#45;&gt;Node1 -->
<g id="edge4" class="edge"><title>Node2&#45;&gt;Node1</title>
<path fill="none" stroke="midnightblue" d="M54.4724,-46.1005C55.1044,-37.1357 54.6573,-26.8579 53.131,-19.7511"/>
<polygon fill="midnightblue" stroke="midnightblue" points="50.9933,-45.7134 53.1663,-56.083 57.9342,-46.6216 50.9933,-45.7134"/>
</g>
</g>
</svg>
