<?xml version="1.0" encoding="UTF-8" standalone="no"?>
<!DOCTYPE svg PUBLIC "-//W3C//DTD SVG 1.1//EN"
 "http://www.w3.org/Graphics/SVG/1.1/DTD/svg11.dtd">
<!-- Generated by graphviz version 2.28.0 (20110507.0327)
 -->
<!-- Title: DriverStation::IsAutonomous Pages: 1 -->
<svg width="508pt" height="66pt"
 viewBox="0.00 0.00 508.00 66.00" xmlns="http://www.w3.org/2000/svg" xmlns:xlink="http://www.w3.org/1999/xlink">
<g id="graph1" class="graph" transform="scale(1 1) rotate(0) translate(4 62)">
<title>DriverStation::IsAutonomous</title>
<polygon fill="white" stroke="white" points="-4,5 -4,-62 505,-62 505,5 -4,5"/>
<!-- Node1 -->
<g id="node1" class="node"><title>Node1</title>
<polygon fill="#bfbfbf" stroke="black" points="0,-19.5 0,-38.5 140,-38.5 140,-19.5 0,-19.5"/>
<text text-anchor="middle" x="70" y="-26.5" font-family="Helvetica,sans-Serif" font-size="10.00">DriverStation::IsAutonomous</text>
</g>
<!-- Node2 -->
<g id="node3" class="node"><title>Node2</title>
<a xlink:href="class_robot_base.html#a9eac80c5e53650e1e3e26e7b5f8cb5aa" target="_top" xlink:title="RobotBase::IsAutonomous">
<polygon fill="white" stroke="black" points="176.5,-19.5 176.5,-38.5 309.5,-38.5 309.5,-19.5 176.5,-19.5"/>
<text text-anchor="middle" x="243" y="-26.5" font-family="Helvetica,sans-Serif" font-size="10.00">RobotBase::IsAutonomous</text>
</a>
</g>
<!-- Node1&#45;&gt;Node2 -->
<g id="edge2" class="edge"><title>Node1&#45;&gt;Node2</title>
<path fill="none" stroke="midnightblue" d="M150.232,-29C158.951,-29 167.757,-29 176.285,-29"/>
<polygon fill="midnightblue" stroke="midnightblue" points="150.059,-25.5001 140.059,-29 150.059,-32.5001 150.059,-25.5001"/>
</g>
<!-- Node3 -->
<g id="node5" class="node"><title>Node3</title>
<a xlink:href="class_iterative_robot.html#ab0af04a781b0390981b9f0dd75358515" target="_top" xlink:title="IterativeRobot::StartCompetition">
<polygon fill="white" stroke="black" points="346,-38.5 346,-57.5 500,-57.5 500,-38.5 346,-38.5"/>
<text text-anchor="middle" x="423" y="-45.5" font-family="Helvetica,sans-Serif" font-size="10.00">IterativeRobot::StartCompetition</text>
</a>
</g>
<!-- Node2&#45;&gt;Node3 -->
<g id="edge4" class="edge"><title>Node2&#45;&gt;Node3</title>
<path fill="none" stroke="midnightblue" d="M319.596,-37.0692C328.262,-37.9943 337.102,-38.9378 345.776,-39.8638"/>
<polygon fill="midnightblue" stroke="midnightblue" points="319.837,-33.5752 309.522,-35.994 319.094,-40.5357 319.837,-33.5752"/>
</g>
<!-- Node4 -->
<g id="node7" class="node"><title>Node4</title>
<a xlink:href="class_sample_robot.html#aa9c849963713b505a4e032516c028829" target="_top" xlink:title="SampleRobot::StartCompetition">
<polygon fill="white" stroke="black" points="346,-0.5 346,-19.5 500,-19.5 500,-0.5 346,-0.5"/>
<text text-anchor="middle" x="423" y="-7.5" font-family="Helvetica,sans-Serif" font-size="10.00">SampleRobot::StartCompetition</text>
</a>
</g>
<!-- Node2&#45;&gt;Node4 -->
<g id="edge6" class="edge"><title>Node2&#45;&gt;Node4</title>
<path fill="none" stroke="midnightblue" d="M319.596,-20.9308C328.262,-20.0057 337.102,-19.0622 345.776,-18.1362"/>
<polygon fill="midnightblue" stroke="midnightblue" points="319.094,-17.4643 309.522,-22.006 319.837,-24.4248 319.094,-17.4643"/>
</g>
</g>
</svg>
