<?xml version="1.0" encoding="UTF-8" standalone="no"?>
<!DOCTYPE svg PUBLIC "-//W3C//DTD SVG 1.1//EN"
 "http://www.w3.org/Graphics/SVG/1.1/DTD/svg11.dtd">
<!-- Generated by graphviz version 2.28.0 (20110507.0327)
 -->
<!-- Title: GearTooth Pages: 1 -->
<svg width="368pt" height="426pt"
 viewBox="0.00 0.00 368.00 426.00" xmlns="http://www.w3.org/2000/svg" xmlns:xlink="http://www.w3.org/1999/xlink">
<g id="graph1" class="graph" transform="scale(1 1) rotate(0) translate(4 422)">
<title>GearTooth</title>
<polygon fill="white" stroke="white" points="-4,5 -4,-422 365,-422 365,5 -4,5"/>
<!-- Node1 -->
<g id="node1" class="node"><title>Node1</title>
<polygon fill="#bfbfbf" stroke="black" points="166,-0.5 166,-19.5 228,-19.5 228,-0.5 166,-0.5"/>
<text text-anchor="middle" x="197" y="-7.5" font-family="Helvetica,sans-Serif" font-size="10.00">GearTooth</text>
</g>
<!-- Node2 -->
<g id="node2" class="node"><title>Node2</title>
<a xlink:href="class_counter.html" target="_top" xlink:title="Counter">
<polygon fill="white" stroke="black" points="172,-58.5 172,-77.5 222,-77.5 222,-58.5 172,-58.5"/>
<text text-anchor="middle" x="197" y="-65.5" font-family="Helvetica,sans-Serif" font-size="10.00">Counter</text>
</a>
</g>
<!-- Node2&#45;&gt;Node1 -->
<g id="edge2" class="edge"><title>Node2&#45;&gt;Node1</title>
<path fill="none" stroke="midnightblue" d="M197,-47.953C197,-38.2875 197,-27.0312 197,-19.5052"/>
<polygon fill="midnightblue" stroke="midnightblue" points="193.5,-48.25 197,-58.25 200.5,-48.25 193.5,-48.25"/>
</g>
<!-- Node3 -->
<g id="node4" class="node"><title>Node3</title>
<a xlink:href="class_sensor_base.html" target="_top" xlink:title="SensorBase">
<polygon fill="white" stroke="black" points="0,-262.5 0,-281.5 70,-281.5 70,-262.5 0,-262.5"/>
<text text-anchor="middle" x="35" y="-269.5" font-family="Helvetica,sans-Serif" font-size="10.00">SensorBase</text>
</a>
</g>
<!-- Node3&#45;&gt;Node2 -->
<g id="edge4" class="edge"><title>Node3&#45;&gt;Node2</title>
<path fill="none" stroke="midnightblue" d="M28.5433,-252.282C25.3525,-224.888 28.4566,-173.108 50,-136 74.8714,-93.1593 136.451,-77.2027 171.719,-71.6795"/>
<polygon fill="midnightblue" stroke="midnightblue" points="25.1389,-253.141 30.2608,-262.416 32.0404,-251.971 25.1389,-253.141"/>
</g>
<!-- Node3&#45;&gt;Node2 -->
<g id="edge16" class="edge"><title>Node3&#45;&gt;Node2</title>
<path fill="none" stroke="midnightblue" d="M40.2601,-252.282C43.3525,-224.888 46.4566,-173.108 68,-136 89.9964,-98.1113 140.705,-81.2508 171.756,-74.0384"/>
<polygon fill="midnightblue" stroke="midnightblue" points="36.7616,-252.035 38.8818,-262.416 43.6977,-252.978 36.7616,-252.035"/>
</g>
<!-- Node10 -->
<g id="node21" class="node"><title>Node10</title>
<a xlink:href="class_interruptable_sensor_base.html" target="_top" xlink:title="InterruptableSensorBase">
<polygon fill="white" stroke="black" points="68.5,-194.5 68.5,-213.5 191.5,-213.5 191.5,-194.5 68.5,-194.5"/>
<text text-anchor="middle" x="130" y="-201.5" font-family="Helvetica,sans-Serif" font-size="10.00">InterruptableSensorBase</text>
</a>
</g>
<!-- Node3&#45;&gt;Node10 -->
<g id="edge26" class="edge"><title>Node3&#45;&gt;Node10</title>
<path fill="none" stroke="midnightblue" d="M55.679,-256.634C74.5624,-243.515 101.858,-224.551 117.577,-213.63"/>
<polygon fill="midnightblue" stroke="midnightblue" points="53.6352,-253.792 47.4196,-262.372 57.6292,-259.54 53.6352,-253.792"/>
</g>
<!-- Node4 -->
<g id="node6" class="node"><title>Node4</title>
<a xlink:href="class_error_base.html" target="_top" xlink:title="ErrorBase">
<polygon fill="white" stroke="black" points="54,-320.5 54,-339.5 114,-339.5 114,-320.5 54,-320.5"/>
<text text-anchor="middle" x="84" y="-327.5" font-family="Helvetica,sans-Serif" font-size="10.00">ErrorBase</text>
</a>
</g>
<!-- Node4&#45;&gt;Node3 -->
<g id="edge6" class="edge"><title>Node4&#45;&gt;Node3</title>
<path fill="none" stroke="midnightblue" d="M69.5055,-312.435C60.6142,-302.273 49.5999,-289.686 42.442,-281.505"/>
<polygon fill="midnightblue" stroke="midnightblue" points="67.1246,-315.029 76.3438,-320.25 72.3927,-310.419 67.1246,-315.029"/>
</g>
<!-- Node11 -->
<g id="node24" class="node"><title>Node11</title>
<a xlink:href="class_resource.html" target="_top" xlink:title="Resource">
<polygon fill="white" stroke="black" points="90,-262.5 90,-281.5 148,-281.5 148,-262.5 90,-262.5"/>
<text text-anchor="middle" x="119" y="-269.5" font-family="Helvetica,sans-Serif" font-size="10.00">Resource</text>
</a>
</g>
<!-- Node4&#45;&gt;Node11 -->
<g id="edge30" class="edge"><title>Node4&#45;&gt;Node11</title>
<path fill="none" stroke="midnightblue" d="M94.9288,-311.514C101.174,-301.522 108.725,-289.44 113.684,-281.505"/>
<polygon fill="midnightblue" stroke="midnightblue" points="91.8008,-309.915 89.4688,-320.25 97.7368,-313.625 91.8008,-309.915"/>
</g>
<!-- Node5 -->
<g id="node8" class="node"><title>Node5</title>
<a xlink:href="class_error.html" target="_top" xlink:title="Error">
<polygon fill="white" stroke="black" points="65,-398.5 65,-417.5 103,-417.5 103,-398.5 65,-398.5"/>
<text text-anchor="middle" x="84" y="-405.5" font-family="Helvetica,sans-Serif" font-size="10.00">Error</text>
</a>
</g>
<!-- Node5&#45;&gt;Node4 -->
<g id="edge8" class="edge"><title>Node5&#45;&gt;Node4</title>
<path fill="none" stroke="#9a32cd" stroke-dasharray="5,2" d="M84,-388.224C84,-372.697 84,-351.358 84,-339.616"/>
<polygon fill="#9a32cd" stroke="#9a32cd" points="80.5001,-388.282 84,-398.282 87.5001,-388.282 80.5001,-388.282"/>
<text text-anchor="middle" x="111.5" y="-372" font-family="Helvetica,sans-Serif" font-size="10.00"> _globalError</text>
<text text-anchor="middle" x="111.5" y="-361" font-family="Helvetica,sans-Serif" font-size="10.00">m_error</text>
</g>
<!-- Node6 -->
<g id="node10" class="node"><title>Node6</title>
<a xlink:href="class_counter_base.html" target="_top" xlink:title="CounterBase">
<polygon fill="white" stroke="black" points="160.5,-136.5 160.5,-155.5 233.5,-155.5 233.5,-136.5 160.5,-136.5"/>
<text text-anchor="middle" x="197" y="-143.5" font-family="Helvetica,sans-Serif" font-size="10.00">CounterBase</text>
</a>
</g>
<!-- Node6&#45;&gt;Node2 -->
<g id="edge10" class="edge"><title>Node6&#45;&gt;Node2</title>
<path fill="none" stroke="midnightblue" d="M191.085,-126.224C189.609,-110.697 190.09,-89.3582 192.527,-77.6165"/>
<polygon fill="midnightblue" stroke="midnightblue" points="187.642,-126.87 192.506,-136.282 194.573,-125.891 187.642,-126.87"/>
</g>
<!-- Node6&#45;&gt;Node2 -->
<g id="edge18" class="edge"><title>Node6&#45;&gt;Node2</title>
<path fill="none" stroke="midnightblue" d="M202.915,-126.224C204.391,-110.697 203.91,-89.3582 201.473,-77.6165"/>
<polygon fill="midnightblue" stroke="midnightblue" points="199.427,-125.891 201.494,-136.282 206.358,-126.87 199.427,-125.891"/>
</g>
<!-- Node7 -->
<g id="node12" class="node"><title>Node7</title>
<a xlink:href="class_live_window_sendable.html" target="_top" xlink:title="LiveWindowSendable">
<polygon fill="white" stroke="black" points="252,-136.5 252,-155.5 360,-155.5 360,-136.5 252,-136.5"/>
<text text-anchor="middle" x="306" y="-143.5" font-family="Helvetica,sans-Serif" font-size="10.00">LiveWindowSendable</text>
</a>
</g>
<!-- Node7&#45;&gt;Node2 -->
<g id="edge12" class="edge"><title>Node7&#45;&gt;Node2</title>
<path fill="none" stroke="midnightblue" d="M280.519,-130.981C256.026,-115.365 220.826,-90.6121 204.885,-77.6165"/>
<polygon fill="midnightblue" stroke="midnightblue" points="278.667,-133.951 289.002,-136.282 282.377,-128.014 278.667,-133.951"/>
</g>
<!-- Node7&#45;&gt;Node2 -->
<g id="edge20" class="edge"><title>Node7&#45;&gt;Node2</title>
<path fill="none" stroke="midnightblue" d="M289.911,-129.94C269.405,-114.285 234.699,-90.3271 213.831,-77.6165"/>
<polygon fill="midnightblue" stroke="midnightblue" points="287.963,-132.861 297.99,-136.282 292.285,-127.354 287.963,-132.861"/>
</g>
<!-- Node8 -->
<g id="node14" class="node"><title>Node8</title>
<a xlink:href="class_sendable.html" target="_top" xlink:title="Sendable">
<polygon fill="white" stroke="black" points="277.5,-194.5 277.5,-213.5 334.5,-213.5 334.5,-194.5 277.5,-194.5"/>
<text text-anchor="middle" x="306" y="-201.5" font-family="Helvetica,sans-Serif" font-size="10.00">Sendable</text>
</a>
</g>
<!-- Node8&#45;&gt;Node7 -->
<g id="edge14" class="edge"><title>Node8&#45;&gt;Node7</title>
<path fill="none" stroke="midnightblue" d="M306,-183.953C306,-174.287 306,-163.031 306,-155.505"/>
<polygon fill="midnightblue" stroke="midnightblue" points="302.5,-184.25 306,-194.25 309.5,-184.25 302.5,-184.25"/>
</g>
<!-- Node9 -->
<g id="node19" class="node"><title>Node9</title>
<a xlink:href="class_digital_source.html" target="_top" xlink:title="DigitalSource">
<polygon fill="white" stroke="black" points="68,-136.5 68,-155.5 142,-155.5 142,-136.5 68,-136.5"/>
<text text-anchor="middle" x="105" y="-143.5" font-family="Helvetica,sans-Serif" font-size="10.00">DigitalSource</text>
</a>
</g>
<!-- Node9&#45;&gt;Node2 -->
<g id="edge22" class="edge"><title>Node9&#45;&gt;Node2</title>
<path fill="none" stroke="#9a32cd" stroke-dasharray="5,2" d="M107.939,-126.241C110.408,-116.121 114.897,-104.086 123,-96 136.069,-82.9596 155.933,-76.1643 171.791,-72.6538"/>
<polygon fill="#9a32cd" stroke="#9a32cd" points="104.478,-125.703 105.978,-136.192 111.346,-127.057 104.478,-125.703"/>
<text text-anchor="middle" x="158" y="-110" font-family="Helvetica,sans-Serif" font-size="10.00"> m_downSource</text>
<text text-anchor="middle" x="158" y="-99" font-family="Helvetica,sans-Serif" font-size="10.00">m_upSource</text>
</g>
<!-- Node10&#45;&gt;Node9 -->
<g id="edge24" class="edge"><title>Node10&#45;&gt;Node9</title>
<path fill="none" stroke="midnightblue" d="M121.917,-184.893C117.511,-175.026 112.266,-163.277 108.797,-155.505"/>
<polygon fill="midnightblue" stroke="midnightblue" points="118.821,-186.545 126.094,-194.25 125.213,-183.692 118.821,-186.545"/>
</g>
<!-- Node11&#45;&gt;Node10 -->
<g id="edge28" class="edge"><title>Node11&#45;&gt;Node10</title>
<path fill="none" stroke="#9a32cd" stroke-dasharray="5,2" d="M122.096,-252.425C124.2,-239.798 126.89,-223.662 128.526,-213.841"/>
<polygon fill="#9a32cd" stroke="#9a32cd" points="118.63,-251.932 120.438,-262.372 125.535,-253.083 118.63,-251.932"/>
<text text-anchor="middle" x="155" y="-235.5" font-family="Helvetica,sans-Serif" font-size="10.00"> m_interrupts</text>
</g>
</g>
</svg>
