<?xml version="1.0" encoding="UTF-8" standalone="no"?>
<!DOCTYPE svg PUBLIC "-//W3C//DTD SVG 1.1//EN"
 "http://www.w3.org/Graphics/SVG/1.1/DTD/svg11.dtd">
<!-- Generated by graphviz version 2.28.0 (20110507.0327)
 -->
<!-- Title: BinaryImage::GetParticleAnalysisReport Pages: 1 -->
<svg width="330pt" height="38pt"
 viewBox="0.00 0.00 330.00 38.00" xmlns="http://www.w3.org/2000/svg" xmlns:xlink="http://www.w3.org/1999/xlink">
<g id="graph1" class="graph" transform="scale(1 1) rotate(0) translate(4 34)">
<title>BinaryImage::GetParticleAnalysisReport</title>
<polygon fill="white" stroke="white" points="-4,5 -4,-34 327,-34 327,5 -4,5"/>
<!-- Node1 -->
<g id="node1" class="node"><title>Node1</title>
<polygon fill="#bfbfbf" stroke="black" points="0.5,-0 0.5,-30 125.5,-30 125.5,-0 0.5,-0"/>
<text text-anchor="start" x="8.5" y="-18" font-family="Helvetica,sans-Serif" font-size="10.00">BinaryImage::GetParticle</text>
<text text-anchor="middle" x="63" y="-7" font-family="Helvetica,sans-Serif" font-size="10.00">AnalysisReport</text>
</g>
<!-- Node2 -->
<g id="node3" class="node"><title>Node2</title>
<a xlink:href="class_binary_image.html#acbb38776ca7e84365b0fe6a84d81bd08" target="_top" xlink:title="BinaryImage::GetOrderedParticle\lAnalysisReports">
<polygon fill="white" stroke="black" points="162,-0 162,-30 322,-30 322,-0 162,-0"/>
<text text-anchor="start" x="170" y="-18" font-family="Helvetica,sans-Serif" font-size="10.00">BinaryImage::GetOrderedParticle</text>
<text text-anchor="middle" x="242" y="-7" font-family="Helvetica,sans-Serif" font-size="10.00">AnalysisReports</text>
</a>
</g>
<!-- Node1&#45;&gt;Node2 -->
<g id="edge2" class="edge"><title>Node1&#45;&gt;Node2</title>
<path fill="none" stroke="midnightblue" d="M136.08,-15C144.523,-15 153.172,-15 161.706,-15"/>
<polygon fill="midnightblue" stroke="midnightblue" points="135.906,-11.5001 125.906,-15 135.906,-18.5001 135.906,-11.5001"/>
</g>
</g>
</svg>
