<?xml version="1.0" encoding="UTF-8" standalone="no"?>
<!DOCTYPE svg PUBLIC "-//W3C//DTD SVG 1.1//EN"
 "http://www.w3.org/Graphics/SVG/1.1/DTD/svg11.dtd">
<!-- Generated by graphviz version 2.28.0 (20110507.0327)
 -->
<!-- Title: Ultrasonic::GetRangeInches Pages: 1 -->
<svg width="602pt" height="66pt"
 viewBox="0.00 0.00 602.00 66.00" xmlns="http://www.w3.org/2000/svg" xmlns:xlink="http://www.w3.org/1999/xlink">
<g id="graph1" class="graph" transform="scale(1 1) rotate(0) translate(4 62)">
<title>Ultrasonic::GetRangeInches</title>
<polygon fill="white" stroke="white" points="-4,5 -4,-62 599,-62 599,5 -4,5"/>
<!-- Node1 -->
<g id="node1" class="node"><title>Node1</title>
<polygon fill="#bfbfbf" stroke="black" points="0,-19.5 0,-38.5 138,-38.5 138,-19.5 0,-19.5"/>
<text text-anchor="middle" x="69" y="-26.5" font-family="Helvetica,sans-Serif" font-size="10.00">Ultrasonic::GetRangeInches</text>
</g>
<!-- Node2 -->
<g id="node3" class="node"><title>Node2</title>
<a xlink:href="class_ultrasonic.html#a765c830f4ff4c68e83de2f14d43fa54c" target="_top" xlink:title="Ultrasonic::IsRangeValid">
<polygon fill="white" stroke="black" points="174.5,-38.5 174.5,-57.5 297.5,-57.5 297.5,-38.5 174.5,-38.5"/>
<text text-anchor="middle" x="236" y="-45.5" font-family="Helvetica,sans-Serif" font-size="10.00">Ultrasonic::IsRangeValid</text>
</a>
</g>
<!-- Node1&#45;&gt;Node2 -->
<g id="edge2" class="edge"><title>Node1&#45;&gt;Node2</title>
<path fill="none" stroke="midnightblue" d="M138.064,-36.8377C146.742,-37.8369 155.639,-38.8615 164.356,-39.8653"/>
<polygon fill="midnightblue" stroke="midnightblue" points="164.148,-43.3643 174.482,-41.0313 164.948,-36.4102 164.148,-43.3643"/>
</g>
<!-- Node5 -->
<g id="node9" class="node"><title>Node5</title>
<a xlink:href="class_counter.html#a51030989a5ee306beaf40ac28ab362c0" target="_top" xlink:title="Counter::GetPeriod">
<polygon fill="white" stroke="black" points="334,-0.5 334,-19.5 434,-19.5 434,-0.5 334,-0.5"/>
<text text-anchor="middle" x="384" y="-7.5" font-family="Helvetica,sans-Serif" font-size="10.00">Counter::GetPeriod</text>
</a>
</g>
<!-- Node1&#45;&gt;Node5 -->
<g id="edge8" class="edge"><title>Node1&#45;&gt;Node5</title>
<path fill="none" stroke="midnightblue" d="M138.302,-24.8538C193.615,-21.4962 270.751,-16.8139 323.545,-13.6091"/>
<polygon fill="midnightblue" stroke="midnightblue" points="323.996,-17.0882 333.766,-12.9887 323.572,-10.1011 323.996,-17.0882"/>
</g>
<!-- Node3 -->
<g id="node5" class="node"><title>Node3</title>
<a xlink:href="class_counter.html#a72086dbd17d7baf28bacfb13562af6b6" target="_top" xlink:title="Counter::Get">
<polygon fill="white" stroke="black" points="348,-38.5 348,-57.5 420,-57.5 420,-38.5 348,-38.5"/>
<text text-anchor="middle" x="384" y="-45.5" font-family="Helvetica,sans-Serif" font-size="10.00">Counter::Get</text>
</a>
</g>
<!-- Node2&#45;&gt;Node3 -->
<g id="edge4" class="edge"><title>Node2&#45;&gt;Node3</title>
<path fill="none" stroke="midnightblue" d="M297.649,-48C310.992,-48 324.903,-48 337.526,-48"/>
<polygon fill="midnightblue" stroke="midnightblue" points="337.787,-51.5001 347.787,-48 337.787,-44.5001 337.787,-51.5001"/>
</g>
<!-- Node4 -->
<g id="node7" class="node"><title>Node4</title>
<a xlink:href="class_error_base.html#a05790f219c9e436a09752f73f7344024" target="_top" xlink:title="Check if the current error code represents a fatal error. ">
<polygon fill="white" stroke="black" points="470,-19.5 470,-38.5 594,-38.5 594,-19.5 470,-19.5"/>
<text text-anchor="middle" x="532" y="-26.5" font-family="Helvetica,sans-Serif" font-size="10.00">ErrorBase::StatusIsFatal</text>
</a>
</g>
<!-- Node3&#45;&gt;Node4 -->
<g id="edge6" class="edge"><title>Node3&#45;&gt;Node4</title>
<path fill="none" stroke="midnightblue" d="M420.343,-43.4006C432.295,-41.8452 446.101,-40.0484 459.822,-38.2629"/>
<polygon fill="midnightblue" stroke="midnightblue" points="460.306,-41.7296 469.77,-36.9682 459.402,-34.7881 460.306,-41.7296"/>
</g>
<!-- Node5&#45;&gt;Node4 -->
<g id="edge10" class="edge"><title>Node5&#45;&gt;Node4</title>
<path fill="none" stroke="midnightblue" d="M434.022,-16.3796C442.298,-17.4566 451.037,-18.5939 459.743,-19.7268"/>
<polygon fill="midnightblue" stroke="midnightblue" points="459.55,-23.2311 469.918,-21.051 460.453,-16.2897 459.55,-23.2311"/>
</g>
</g>
</svg>
