<?xml version="1.0" encoding="UTF-8" standalone="no"?>
<!DOCTYPE svg PUBLIC "-//W3C//DTD SVG 1.1//EN"
 "http://www.w3.org/Graphics/SVG/1.1/DTD/svg11.dtd">
<!-- Generated by graphviz version 2.28.0 (20110507.0327)
 -->
<!-- Title: CANTalon Pages: 1 -->
<svg width="304pt" height="222pt"
 viewBox="0.00 0.00 304.00 222.00" xmlns="http://www.w3.org/2000/svg" xmlns:xlink="http://www.w3.org/1999/xlink">
<g id="graph1" class="graph" transform="scale(1 1) rotate(0) translate(4 218)">
<title>CANTalon</title>
<polygon fill="white" stroke="white" points="-4,5 -4,-218 301,-218 301,5 -4,5"/>
<!-- Node1 -->
<g id="node1" class="node"><title>Node1</title>
<polygon fill="#bfbfbf" stroke="black" points="110,-0.5 110,-19.5 170,-19.5 170,-0.5 110,-0.5"/>
<text text-anchor="middle" x="140" y="-7.5" font-family="Helvetica,sans-Serif" font-size="10.00">CANTalon</text>
</g>
<!-- Node2 -->
<g id="node2" class="node"><title>Node2</title>
<a xlink:href="class_motor_safety.html" target="_top" xlink:title="MotorSafety">
<polygon fill="white" stroke="black" points="-0.5,-58.5 -0.5,-77.5 68.5,-77.5 68.5,-58.5 -0.5,-58.5"/>
<text text-anchor="middle" x="34" y="-65.5" font-family="Helvetica,sans-Serif" font-size="10.00">MotorSafety</text>
</a>
</g>
<!-- Node2&#45;&gt;Node1 -->
<g id="edge2" class="edge"><title>Node2&#45;&gt;Node1</title>
<path fill="none" stroke="midnightblue" d="M58.9748,-53.8058C78.9897,-43.2319 106.49,-28.7035 123.749,-19.5852"/>
<polygon fill="midnightblue" stroke="midnightblue" points="57.3061,-50.7289 50.0991,-58.4948 60.576,-56.9182 57.3061,-50.7289"/>
</g>
<!-- Node3 -->
<g id="node4" class="node"><title>Node3</title>
<a xlink:href="class_c_a_n_speed_controller.html" target="_top" xlink:title="CANSpeedController">
<polygon fill="white" stroke="black" points="87,-58.5 87,-77.5 193,-77.5 193,-58.5 87,-58.5"/>
<text text-anchor="middle" x="140" y="-65.5" font-family="Helvetica,sans-Serif" font-size="10.00">CANSpeedController</text>
</a>
</g>
<!-- Node3&#45;&gt;Node1 -->
<g id="edge4" class="edge"><title>Node3&#45;&gt;Node1</title>
<path fill="none" stroke="midnightblue" d="M140,-47.953C140,-38.2875 140,-27.0312 140,-19.5052"/>
<polygon fill="midnightblue" stroke="midnightblue" points="136.5,-48.25 140,-58.25 143.5,-48.25 136.5,-48.25"/>
</g>
<!-- Node4 -->
<g id="node6" class="node"><title>Node4</title>
<a xlink:href="class_speed_controller.html" target="_top" xlink:title="SpeedController">
<polygon fill="white" stroke="black" points="97,-136.5 97,-155.5 183,-155.5 183,-136.5 97,-136.5"/>
<text text-anchor="middle" x="140" y="-143.5" font-family="Helvetica,sans-Serif" font-size="10.00">SpeedController</text>
</a>
</g>
<!-- Node4&#45;&gt;Node3 -->
<g id="edge6" class="edge"><title>Node4&#45;&gt;Node3</title>
<path fill="none" stroke="midnightblue" d="M140,-126.224C140,-110.697 140,-89.3582 140,-77.6165"/>
<polygon fill="midnightblue" stroke="midnightblue" points="136.5,-126.282 140,-136.282 143.5,-126.282 136.5,-126.282"/>
</g>
<!-- Node5 -->
<g id="node8" class="node"><title>Node5</title>
<a xlink:href="class_p_i_d_output.html" target="_top" xlink:title="PIDOutput">
<polygon fill="white" stroke="black" points="109,-194.5 109,-213.5 171,-213.5 171,-194.5 109,-194.5"/>
<text text-anchor="middle" x="140" y="-201.5" font-family="Helvetica,sans-Serif" font-size="10.00">PIDOutput</text>
</a>
</g>
<!-- Node5&#45;&gt;Node4 -->
<g id="edge8" class="edge"><title>Node5&#45;&gt;Node4</title>
<path fill="none" stroke="midnightblue" d="M133.59,-184.268C132.85,-174.533 133.317,-163.113 134.991,-155.505"/>
<polygon fill="midnightblue" stroke="midnightblue" points="130.131,-184.808 134.938,-194.25 137.068,-183.872 130.131,-184.808"/>
</g>
<!-- Node5&#45;&gt;Node4 -->
<g id="edge10" class="edge"><title>Node5&#45;&gt;Node4</title>
<path fill="none" stroke="midnightblue" d="M146.41,-184.268C147.15,-174.533 146.683,-163.113 145.009,-155.505"/>
<polygon fill="midnightblue" stroke="midnightblue" points="142.932,-183.872 145.063,-194.25 149.869,-184.808 142.932,-183.872"/>
</g>
<!-- Node6 -->
<g id="node11" class="node"><title>Node6</title>
<a xlink:href="class_error_base.html" target="_top" xlink:title="ErrorBase">
<polygon fill="white" stroke="black" points="211,-58.5 211,-77.5 271,-77.5 271,-58.5 211,-58.5"/>
<text text-anchor="middle" x="241" y="-65.5" font-family="Helvetica,sans-Serif" font-size="10.00">ErrorBase</text>
</a>
</g>
<!-- Node6&#45;&gt;Node1 -->
<g id="edge12" class="edge"><title>Node6&#45;&gt;Node1</title>
<path fill="none" stroke="midnightblue" d="M216.684,-53.5177C197.659,-42.9694 171.781,-28.621 155.484,-19.5852"/>
<polygon fill="midnightblue" stroke="midnightblue" points="215.217,-56.7067 225.66,-58.4948 218.612,-50.5847 215.217,-56.7067"/>
</g>
<!-- Node7 -->
<g id="node13" class="node"><title>Node7</title>
<a xlink:href="class_error.html" target="_top" xlink:title="Error">
<polygon fill="white" stroke="black" points="222,-136.5 222,-155.5 260,-155.5 260,-136.5 222,-136.5"/>
<text text-anchor="middle" x="241" y="-143.5" font-family="Helvetica,sans-Serif" font-size="10.00">Error</text>
</a>
</g>
<!-- Node7&#45;&gt;Node6 -->
<g id="edge14" class="edge"><title>Node7&#45;&gt;Node6</title>
<path fill="none" stroke="#9a32cd" stroke-dasharray="5,2" d="M241,-126.224C241,-110.697 241,-89.3582 241,-77.6165"/>
<polygon fill="#9a32cd" stroke="#9a32cd" points="237.5,-126.282 241,-136.282 244.5,-126.282 237.5,-126.282"/>
<text text-anchor="middle" x="268.5" y="-110" font-family="Helvetica,sans-Serif" font-size="10.00"> _globalError</text>
<text text-anchor="middle" x="268.5" y="-99" font-family="Helvetica,sans-Serif" font-size="10.00">m_error</text>
</g>
</g>
</svg>
