<?xml version="1.0" encoding="UTF-8" standalone="no"?>
<!DOCTYPE svg PUBLIC "-//W3C//DTD SVG 1.1//EN"
 "http://www.w3.org/Graphics/SVG/1.1/DTD/svg11.dtd">
<!-- Generated by graphviz version 2.28.0 (20110507.0327)
 -->
<!-- Title: AnalogAccelerometer::PIDGet Pages: 1 -->
<svg width="618pt" height="38pt"
 viewBox="0.00 0.00 618.00 38.00" xmlns="http://www.w3.org/2000/svg" xmlns:xlink="http://www.w3.org/1999/xlink">
<g id="graph1" class="graph" transform="scale(1 1) rotate(0) translate(4 34)">
<title>AnalogAccelerometer::PIDGet</title>
<polygon fill="white" stroke="white" points="-4,5 -4,-34 615,-34 615,5 -4,5"/>
<!-- Node1 -->
<g id="node1" class="node"><title>Node1</title>
<polygon fill="#bfbfbf" stroke="black" points="0,-0 0,-30 110,-30 110,-0 0,-0"/>
<text text-anchor="start" x="8" y="-18" font-family="Helvetica,sans-Serif" font-size="10.00">AnalogAccelerometer</text>
<text text-anchor="middle" x="55" y="-7" font-family="Helvetica,sans-Serif" font-size="10.00">::PIDGet</text>
</g>
<!-- Node2 -->
<g id="node3" class="node"><title>Node2</title>
<a xlink:href="class_analog_accelerometer.html#aa21aff5e668d132c48be8789e693cfb5" target="_top" xlink:title="AnalogAccelerometer\l::GetAcceleration">
<polygon fill="white" stroke="black" points="146,-0 146,-30 256,-30 256,-0 146,-0"/>
<text text-anchor="start" x="154" y="-18" font-family="Helvetica,sans-Serif" font-size="10.00">AnalogAccelerometer</text>
<text text-anchor="middle" x="201" y="-7" font-family="Helvetica,sans-Serif" font-size="10.00">::GetAcceleration</text>
</a>
</g>
<!-- Node1&#45;&gt;Node2 -->
<g id="edge2" class="edge"><title>Node1&#45;&gt;Node2</title>
<path fill="none" stroke="midnightblue" d="M110.03,-15C118.314,-15 126.936,-15 135.42,-15"/>
<polygon fill="midnightblue" stroke="midnightblue" points="135.667,-18.5001 145.667,-15 135.667,-11.5001 135.667,-18.5001"/>
</g>
<!-- Node3 -->
<g id="node5" class="node"><title>Node3</title>
<a xlink:href="class_analog_input.html#a48743112f8b15e3b2cea8a64ed541308" target="_top" xlink:title="AnalogInput::GetAverageVoltage">
<polygon fill="white" stroke="black" points="292.5,-5.5 292.5,-24.5 449.5,-24.5 449.5,-5.5 292.5,-5.5"/>
<text text-anchor="middle" x="371" y="-12.5" font-family="Helvetica,sans-Serif" font-size="10.00">AnalogInput::GetAverageVoltage</text>
</a>
</g>
<!-- Node2&#45;&gt;Node3 -->
<g id="edge4" class="edge"><title>Node2&#45;&gt;Node3</title>
<path fill="none" stroke="midnightblue" d="M256.081,-15C264.514,-15 273.409,-15 282.36,-15"/>
<polygon fill="midnightblue" stroke="midnightblue" points="282.468,-18.5001 292.468,-15 282.468,-11.5001 282.468,-18.5001"/>
</g>
<!-- Node4 -->
<g id="node7" class="node"><title>Node4</title>
<a xlink:href="class_error_base.html#a05790f219c9e436a09752f73f7344024" target="_top" xlink:title="Check if the current error code represents a fatal error. ">
<polygon fill="white" stroke="black" points="486,-5.5 486,-24.5 610,-24.5 610,-5.5 486,-5.5"/>
<text text-anchor="middle" x="548" y="-12.5" font-family="Helvetica,sans-Serif" font-size="10.00">ErrorBase::StatusIsFatal</text>
</a>
</g>
<!-- Node3&#45;&gt;Node4 -->
<g id="edge6" class="edge"><title>Node3&#45;&gt;Node4</title>
<path fill="none" stroke="midnightblue" d="M449.522,-15C458.261,-15 467.136,-15 475.789,-15"/>
<polygon fill="midnightblue" stroke="midnightblue" points="475.826,-18.5001 485.826,-15 475.826,-11.5001 475.826,-18.5001"/>
</g>
</g>
</svg>
