<?xml version="1.0" encoding="UTF-8" standalone="no"?>
<!DOCTYPE svg PUBLIC "-//W3C//DTD SVG 1.1//EN"
 "http://www.w3.org/Graphics/SVG/1.1/DTD/svg11.dtd">
<!-- Generated by graphviz version 2.28.0 (20110507.0327)
 -->
<!-- Title: CANTalon::GetBusVoltage Pages: 1 -->
<svg width="438pt" height="28pt"
 viewBox="0.00 0.00 438.00 28.00" xmlns="http://www.w3.org/2000/svg" xmlns:xlink="http://www.w3.org/1999/xlink">
<g id="graph1" class="graph" transform="scale(1 1) rotate(0) translate(4 24)">
<title>CANTalon::GetBusVoltage</title>
<polygon fill="white" stroke="white" points="-4,5 -4,-24 435,-24 435,5 -4,5"/>
<!-- Node1 -->
<g id="node1" class="node"><title>Node1</title>
<polygon fill="#bfbfbf" stroke="black" points="0,-0.5 0,-19.5 132,-19.5 132,-0.5 0,-0.5"/>
<text text-anchor="middle" x="66" y="-7.5" font-family="Helvetica,sans-Serif" font-size="10.00">CANTalon::GetBusVoltage</text>
</g>
<!-- Node2 -->
<g id="node3" class="node"><title>Node2</title>
<a xlink:href="class_c_a_n_talon.html#a1179c6e26aacdead84ba16c3894efe00" target="_top" xlink:title="CANTalon::GetOutputVoltage">
<polygon fill="white" stroke="black" points="168,-0.5 168,-19.5 312,-19.5 312,-0.5 168,-0.5"/>
<text text-anchor="middle" x="240" y="-7.5" font-family="Helvetica,sans-Serif" font-size="10.00">CANTalon::GetOutputVoltage</text>
</a>
</g>
<!-- Node1&#45;&gt;Node2 -->
<g id="edge2" class="edge"><title>Node1&#45;&gt;Node2</title>
<path fill="none" stroke="midnightblue" d="M142.289,-10C150.778,-10 159.409,-10 167.844,-10"/>
<polygon fill="midnightblue" stroke="midnightblue" points="142.026,-6.5001 132.026,-10 142.026,-13.5001 142.026,-6.5001"/>
</g>
<!-- Node3 -->
<g id="node5" class="node"><title>Node3</title>
<a xlink:href="class_c_a_n_talon.html#a865c356d54cd491350efefc6cf0cd362" target="_top" xlink:title="CANTalon::Get">
<polygon fill="white" stroke="black" points="348,-0.5 348,-19.5 430,-19.5 430,-0.5 348,-0.5"/>
<text text-anchor="middle" x="389" y="-7.5" font-family="Helvetica,sans-Serif" font-size="10.00">CANTalon::Get</text>
</a>
</g>
<!-- Node2&#45;&gt;Node3 -->
<g id="edge4" class="edge"><title>Node2&#45;&gt;Node3</title>
<path fill="none" stroke="midnightblue" d="M322.582,-10C331.266,-10 339.798,-10 347.684,-10"/>
<polygon fill="midnightblue" stroke="midnightblue" points="322.347,-6.5001 312.347,-10 322.347,-13.5001 322.347,-6.5001"/>
</g>
</g>
</svg>
