<?xml version="1.0" encoding="UTF-8" standalone="no"?>
<!DOCTYPE svg PUBLIC "-//W3C//DTD SVG 1.1//EN"
 "http://www.w3.org/Graphics/SVG/1.1/DTD/svg11.dtd">
<!-- Generated by graphviz version 2.28.0 (20110507.0327)
 -->
<!-- Title: CANJaguar::SetPositionReference Pages: 1 -->
<svg width="682pt" height="237pt"
 viewBox="0.00 0.00 682.00 237.00" xmlns="http://www.w3.org/2000/svg" xmlns:xlink="http://www.w3.org/1999/xlink">
<g id="graph1" class="graph" transform="scale(1 1) rotate(0) translate(4 233)">
<title>CANJaguar::SetPositionReference</title>
<polygon fill="white" stroke="white" points="-4,5 -4,-233 679,-233 679,5 -4,5"/>
<!-- Node1 -->
<g id="node1" class="node"><title>Node1</title>
<polygon fill="#bfbfbf" stroke="black" points="0.5,-95.5 0.5,-114.5 165.5,-114.5 165.5,-95.5 0.5,-95.5"/>
<text text-anchor="middle" x="83" y="-102.5" font-family="Helvetica,sans-Serif" font-size="10.00">CANJaguar::SetPositionReference</text>
</g>
<!-- Node2 -->
<g id="node3" class="node"><title>Node2</title>
<a xlink:href="class_c_a_n_jaguar.html#a97fe9cb246f90060495c808e31070650" target="_top" xlink:title="CANJaguar::verify">
<polygon fill="white" stroke="black" points="228.5,-190.5 228.5,-209.5 321.5,-209.5 321.5,-190.5 228.5,-190.5"/>
<text text-anchor="middle" x="275" y="-197.5" font-family="Helvetica,sans-Serif" font-size="10.00">CANJaguar::verify</text>
</a>
</g>
<!-- Node1&#45;&gt;Node2 -->
<g id="edge2" class="edge"><title>Node1&#45;&gt;Node2</title>
<path fill="none" stroke="midnightblue" d="M104.148,-120.809C126.784,-137.873 165.189,-164.777 202,-181 210.518,-184.754 219.939,-187.899 229.083,-190.481"/>
<polygon fill="midnightblue" stroke="midnightblue" points="106.078,-117.878 96.0084,-114.582 101.824,-123.438 106.078,-117.878"/>
</g>
<!-- Node6 -->
<g id="node11" class="node"><title>Node6</title>
<a xlink:href="class_c_a_n_jaguar.html#ac2d2c69ce26f0ccbf4191349e4eba055" target="_top" xlink:title="CANJaguar::SetPercentMode">
<polygon fill="white" stroke="black" points="203,-152.5 203,-171.5 347,-171.5 347,-152.5 203,-152.5"/>
<text text-anchor="middle" x="275" y="-159.5" font-family="Helvetica,sans-Serif" font-size="10.00">CANJaguar::SetPercentMode</text>
</a>
</g>
<!-- Node1&#45;&gt;Node6 -->
<g id="edge10" class="edge"><title>Node1&#45;&gt;Node6</title>
<path fill="none" stroke="midnightblue" d="M122.213,-117.879C145.234,-125.494 175.191,-135.152 202,-143 213.042,-146.232 225.109,-149.514 236.153,-152.419"/>
<polygon fill="midnightblue" stroke="midnightblue" points="123.074,-114.477 112.481,-114.644 120.867,-121.12 123.074,-114.477"/>
</g>
<!-- Node8 -->
<g id="node15" class="node"><title>Node8</title>
<a xlink:href="class_c_a_n_jaguar.html#ae0b07bf7199611ea8e2e04109b08a3ad" target="_top" xlink:title="CANJaguar::SetCurrentMode">
<polygon fill="white" stroke="black" points="204,-114.5 204,-133.5 346,-133.5 346,-114.5 204,-114.5"/>
<text text-anchor="middle" x="275" y="-121.5" font-family="Helvetica,sans-Serif" font-size="10.00">CANJaguar::SetCurrentMode</text>
</a>
</g>
<!-- Node1&#45;&gt;Node8 -->
<g id="edge14" class="edge"><title>Node1&#45;&gt;Node8</title>
<path fill="none" stroke="midnightblue" d="M175.829,-114.183C185.214,-115.121 194.64,-116.064 203.74,-116.974"/>
<polygon fill="midnightblue" stroke="midnightblue" points="175.978,-110.68 165.68,-113.168 175.282,-117.646 175.978,-110.68"/>
</g>
<!-- Node9 -->
<g id="node17" class="node"><title>Node9</title>
<a xlink:href="class_c_a_n_jaguar.html#aa02549873d5551b00d3f2bdb08709e5a" target="_top" xlink:title="CANJaguar::SetSpeedMode">
<polygon fill="white" stroke="black" points="206,-76.5 206,-95.5 344,-95.5 344,-76.5 206,-76.5"/>
<text text-anchor="middle" x="275" y="-83.5" font-family="Helvetica,sans-Serif" font-size="10.00">CANJaguar::SetSpeedMode</text>
</a>
</g>
<!-- Node1&#45;&gt;Node9 -->
<g id="edge16" class="edge"><title>Node1&#45;&gt;Node9</title>
<path fill="none" stroke="midnightblue" d="M175.763,-95.8237C185.879,-94.8121 196.045,-93.7955 205.8,-92.82"/>
<polygon fill="midnightblue" stroke="midnightblue" points="175.282,-92.3543 165.68,-96.832 175.978,-99.3195 175.282,-92.3543"/>
</g>
<!-- Node10 -->
<g id="node19" class="node"><title>Node10</title>
<a xlink:href="class_c_a_n_jaguar.html#a870f456a238bb9c55552b94cd86faad0" target="_top" xlink:title="CANJaguar::SetPositionMode">
<polygon fill="white" stroke="black" points="202,-38.5 202,-57.5 348,-57.5 348,-38.5 202,-38.5"/>
<text text-anchor="middle" x="275" y="-45.5" font-family="Helvetica,sans-Serif" font-size="10.00">CANJaguar::SetPositionMode</text>
</a>
</g>
<!-- Node1&#45;&gt;Node10 -->
<g id="edge18" class="edge"><title>Node1&#45;&gt;Node10</title>
<path fill="none" stroke="midnightblue" d="M122.213,-92.1214C145.234,-84.506 175.191,-74.848 202,-67 213.042,-63.7675 225.109,-60.4862 236.153,-57.5807"/>
<polygon fill="midnightblue" stroke="midnightblue" points="120.867,-88.8804 112.481,-95.3555 123.074,-95.5232 120.867,-88.8804"/>
</g>
<!-- Node11 -->
<g id="node21" class="node"><title>Node11</title>
<a xlink:href="class_c_a_n_jaguar.html#a75fc8ed9ed60a38e2932155f958cdf34" target="_top" xlink:title="CANJaguar::SetVoltageMode">
<polygon fill="white" stroke="black" points="203.5,-0.5 203.5,-19.5 346.5,-19.5 346.5,-0.5 203.5,-0.5"/>
<text text-anchor="middle" x="275" y="-7.5" font-family="Helvetica,sans-Serif" font-size="10.00">CANJaguar::SetVoltageMode</text>
</a>
</g>
<!-- Node1&#45;&gt;Node11 -->
<g id="edge20" class="edge"><title>Node1&#45;&gt;Node11</title>
<path fill="none" stroke="midnightblue" d="M104.148,-89.1908C126.784,-72.1275 165.189,-45.2229 202,-29 210.518,-25.2462 219.939,-22.101 229.083,-19.519"/>
<polygon fill="midnightblue" stroke="midnightblue" points="101.824,-86.5619 96.0084,-95.4177 106.078,-92.1216 101.824,-86.5619"/>
</g>
<!-- Node3 -->
<g id="node5" class="node"><title>Node3</title>
<a xlink:href="class_c_a_n_jaguar.html#a3a22b02ece406993619f993b1e09012a" target="_top" xlink:title="CANJaguar::Set">
<polygon fill="white" stroke="black" points="401,-190.5 401,-209.5 487,-209.5 487,-190.5 401,-190.5"/>
<text text-anchor="middle" x="444" y="-197.5" font-family="Helvetica,sans-Serif" font-size="10.00">CANJaguar::Set</text>
</a>
</g>
<!-- Node2&#45;&gt;Node3 -->
<g id="edge4" class="edge"><title>Node2&#45;&gt;Node3</title>
<path fill="none" stroke="midnightblue" d="M331.754,-200C354.307,-200 379.907,-200 400.859,-200"/>
<polygon fill="midnightblue" stroke="midnightblue" points="331.634,-196.5 321.633,-200 331.633,-203.5 331.634,-196.5"/>
</g>
<!-- Node4 -->
<g id="node7" class="node"><title>Node4</title>
<a xlink:href="class_c_a_n_jaguar.html#a2355d55f42083ab82870c79f742620e4" target="_top" xlink:title="CANJaguar::PIDWrite">
<polygon fill="white" stroke="black" points="552,-209.5 552,-228.5 662,-228.5 662,-209.5 552,-209.5"/>
<text text-anchor="middle" x="607" y="-216.5" font-family="Helvetica,sans-Serif" font-size="10.00">CANJaguar::PIDWrite</text>
</a>
</g>
<!-- Node3&#45;&gt;Node4 -->
<g id="edge6" class="edge"><title>Node3&#45;&gt;Node4</title>
<path fill="none" stroke="midnightblue" d="M497.315,-206.174C514.771,-208.234 534.251,-210.533 551.843,-212.609"/>
<polygon fill="midnightblue" stroke="midnightblue" points="497.642,-202.688 487.301,-204.992 496.822,-209.64 497.642,-202.688"/>
</g>
<!-- Node5 -->
<g id="node9" class="node"><title>Node5</title>
<a xlink:href="class_c_a_n_jaguar_test.html#a3c9026e62eb65e2d497bb7bbfaded297" target="_top" xlink:title="CANJaguarTest::SetJaguar">
<polygon fill="white" stroke="black" points="540,-171.5 540,-190.5 674,-190.5 674,-171.5 540,-171.5"/>
<text text-anchor="middle" x="607" y="-178.5" font-family="Helvetica,sans-Serif" font-size="10.00">CANJaguarTest::SetJaguar</text>
</a>
</g>
<!-- Node3&#45;&gt;Node5 -->
<g id="edge8" class="edge"><title>Node3&#45;&gt;Node5</title>
<path fill="none" stroke="midnightblue" d="M497.421,-193.814C511.007,-192.21 525.812,-190.463 539.996,-188.789"/>
<polygon fill="midnightblue" stroke="midnightblue" points="496.822,-190.36 487.301,-195.008 497.642,-197.312 496.822,-190.36"/>
</g>
<!-- Node7 -->
<g id="node13" class="node"><title>Node7</title>
<a xlink:href="class_c_a_n_jaguar.html#aec1593556141870268f5e48e38537390" target="_top" xlink:title="CANJaguar::CANJaguar">
<polygon fill="white" stroke="black" points="384,-152.5 384,-171.5 504,-171.5 504,-152.5 384,-152.5"/>
<text text-anchor="middle" x="444" y="-159.5" font-family="Helvetica,sans-Serif" font-size="10.00">CANJaguar::CANJaguar</text>
</a>
</g>
<!-- Node6&#45;&gt;Node7 -->
<g id="edge12" class="edge"><title>Node6&#45;&gt;Node7</title>
<path fill="none" stroke="midnightblue" d="M357.401,-162C366.373,-162 375.377,-162 383.999,-162"/>
<polygon fill="midnightblue" stroke="midnightblue" points="357.307,-158.5 347.307,-162 357.307,-165.5 357.307,-158.5"/>
</g>
</g>
</svg>
