<?xml version="1.0" encoding="UTF-8" standalone="no"?>
<!DOCTYPE svg PUBLIC "-//W3C//DTD SVG 1.1//EN"
 "http://www.w3.org/Graphics/SVG/1.1/DTD/svg11.dtd">
<!-- Generated by graphviz version 2.28.0 (20110507.0327)
 -->
<!-- Title: CommandGroup::AddParallel Pages: 1 -->
<svg width="504pt" height="121pt"
 viewBox="0.00 0.00 504.00 121.32" xmlns="http://www.w3.org/2000/svg" xmlns:xlink="http://www.w3.org/1999/xlink">
<g id="graph1" class="graph" transform="scale(1 1) rotate(0) translate(4 117.318)">
<title>CommandGroup::AddParallel</title>
<polygon fill="white" stroke="white" points="-4,5 -4,-117.318 501,-117.318 501,5 -4,5"/>
<!-- Node1 -->
<g id="node1" class="node"><title>Node1</title>
<polygon fill="#bfbfbf" stroke="black" points="0.5,-57.5 0.5,-76.5 143.5,-76.5 143.5,-57.5 0.5,-57.5"/>
<text text-anchor="middle" x="72" y="-64.5" font-family="Helvetica,sans-Serif" font-size="10.00">CommandGroup::AddParallel</text>
</g>
<!-- Node2 -->
<g id="node3" class="node"><title>Node2</title>
<a xlink:href="class_command.html#a51e42d83c96de891fc5f9b7b40be52bd" target="_top" xlink:title="Command::AssertUnlocked">
<polygon fill="white" stroke="black" points="360,-57.5 360,-76.5 496,-76.5 496,-57.5 360,-57.5"/>
<text text-anchor="middle" x="428" y="-64.5" font-family="Helvetica,sans-Serif" font-size="10.00">Command::AssertUnlocked</text>
</a>
</g>
<!-- Node1&#45;&gt;Node2 -->
<g id="edge2" class="edge"><title>Node1&#45;&gt;Node2</title>
<path fill="none" stroke="midnightblue" d="M93.3473,-76.5888C114.465,-85.9705 148.723,-99.611 180,-105 243.071,-115.867 260.997,-116.251 324,-105 349.961,-100.364 377.946,-89.6391 398.185,-80.7614"/>
<polygon fill="midnightblue" stroke="midnightblue" points="399.774,-83.8842 407.455,-76.5864 396.9,-77.5016 399.774,-83.8842"/>
</g>
<!-- Node3 -->
<g id="node5" class="node"><title>Node3</title>
<a xlink:href="class_command.html#a5992f2282e4132517e933cc39cb3c774" target="_top" xlink:title="Command::SetParent">
<polygon fill="white" stroke="black" points="197,-76.5 197,-95.5 307,-95.5 307,-76.5 197,-76.5"/>
<text text-anchor="middle" x="252" y="-83.5" font-family="Helvetica,sans-Serif" font-size="10.00">Command::SetParent</text>
</a>
</g>
<!-- Node1&#45;&gt;Node3 -->
<g id="edge4" class="edge"><title>Node1&#45;&gt;Node3</title>
<path fill="none" stroke="midnightblue" d="M143.606,-74.5366C157.899,-76.0623 172.855,-77.6586 186.909,-79.1588"/>
<polygon fill="midnightblue" stroke="midnightblue" points="186.645,-82.6505 196.96,-80.2317 187.388,-75.69 186.645,-82.6505"/>
</g>
<!-- Node4 -->
<g id="node7" class="node"><title>Node4</title>
<a xlink:href="class_command.html#afb520de2e4173f9342a94dd98d76dc0f" target="_top" xlink:title="Command::GetRequirements">
<polygon fill="white" stroke="black" points="180.5,-38.5 180.5,-57.5 323.5,-57.5 323.5,-38.5 180.5,-38.5"/>
<text text-anchor="middle" x="252" y="-45.5" font-family="Helvetica,sans-Serif" font-size="10.00">Command::GetRequirements</text>
</a>
</g>
<!-- Node1&#45;&gt;Node4 -->
<g id="edge6" class="edge"><title>Node1&#45;&gt;Node4</title>
<path fill="none" stroke="midnightblue" d="M143.606,-59.4634C152.421,-58.5224 161.488,-57.5546 170.441,-56.599"/>
<polygon fill="midnightblue" stroke="midnightblue" points="170.907,-60.0692 180.479,-55.5275 170.164,-53.1087 170.907,-60.0692"/>
</g>
<!-- Node5 -->
<g id="node9" class="node"><title>Node5</title>
<a xlink:href="class_command.html#abd1739c4b238ca209d98552276247969" target="_top" xlink:title="Command::Requires">
<polygon fill="white" stroke="black" points="199.5,-0.5 199.5,-19.5 304.5,-19.5 304.5,-0.5 199.5,-0.5"/>
<text text-anchor="middle" x="252" y="-7.5" font-family="Helvetica,sans-Serif" font-size="10.00">Command::Requires</text>
</a>
</g>
<!-- Node1&#45;&gt;Node5 -->
<g id="edge8" class="edge"><title>Node1&#45;&gt;Node5</title>
<path fill="none" stroke="midnightblue" d="M98.3193,-57.3645C119.881,-49.3146 151.763,-37.7769 180,-29 187.54,-26.6565 195.582,-24.3359 203.444,-22.164"/>
<polygon fill="midnightblue" stroke="midnightblue" points="204.52,-25.4986 213.255,-19.502 202.687,-18.7429 204.52,-25.4986"/>
</g>
<!-- Node5&#45;&gt;Node2 -->
<g id="edge10" class="edge"><title>Node5&#45;&gt;Node2</title>
<path fill="none" stroke="midnightblue" d="M291.14,-19.5158C301.83,-22.3698 313.419,-25.6403 324,-29 347.466,-36.4513 373.476,-46.0582 393.488,-53.748"/>
<polygon fill="midnightblue" stroke="midnightblue" points="392.486,-57.1136 403.076,-57.4619 395.015,-50.5861 392.486,-57.1136"/>
</g>
</g>
</svg>
