<?xml version="1.0" encoding="UTF-8" standalone="no"?>
<!DOCTYPE svg PUBLIC "-//W3C//DTD SVG 1.1//EN"
 "http://www.w3.org/Graphics/SVG/1.1/DTD/svg11.dtd">
<!-- Generated by graphviz version 2.28.0 (20110507.0327)
 -->
<!-- Title: DoubleSolenoid::IsRevSolenoidBlackListed Pages: 1 -->
<svg width="354pt" height="38pt"
 viewBox="0.00 0.00 354.00 38.00" xmlns="http://www.w3.org/2000/svg" xmlns:xlink="http://www.w3.org/1999/xlink">
<g id="graph1" class="graph" transform="scale(1 1) rotate(0) translate(4 34)">
<title>DoubleSolenoid::IsRevSolenoidBlackListed</title>
<polygon fill="white" stroke="white" points="-4,5 -4,-34 351,-34 351,5 -4,5"/>
<!-- Node1 -->
<g id="node1" class="node"><title>Node1</title>
<polygon fill="#bfbfbf" stroke="black" points="0.5,-0 0.5,-30 151.5,-30 151.5,-0 0.5,-0"/>
<text text-anchor="start" x="8.5" y="-18" font-family="Helvetica,sans-Serif" font-size="10.00">DoubleSolenoid::IsRevSolenoid</text>
<text text-anchor="middle" x="76" y="-7" font-family="Helvetica,sans-Serif" font-size="10.00">BlackListed</text>
</g>
<!-- Node2 -->
<g id="node3" class="node"><title>Node2</title>
<a xlink:href="class_solenoid_base.html#a664eef2a8c51bca7f30c1c8fdf0f3476" target="_top" xlink:title="SolenoidBase::GetPCMSolenoid\lBlackList">
<polygon fill="white" stroke="black" points="188,-0 188,-30 346,-30 346,-0 188,-0"/>
<text text-anchor="start" x="196" y="-18" font-family="Helvetica,sans-Serif" font-size="10.00">SolenoidBase::GetPCMSolenoid</text>
<text text-anchor="middle" x="267" y="-7" font-family="Helvetica,sans-Serif" font-size="10.00">BlackList</text>
</a>
</g>
<!-- Node1&#45;&gt;Node2 -->
<g id="edge2" class="edge"><title>Node1&#45;&gt;Node2</title>
<path fill="none" stroke="midnightblue" d="M151.698,-15C160.226,-15 168.98,-15 177.664,-15"/>
<polygon fill="midnightblue" stroke="midnightblue" points="177.809,-18.5001 187.809,-15 177.809,-11.5001 177.809,-18.5001"/>
</g>
</g>
</svg>
