<?xml version="1.0" encoding="UTF-8" standalone="no"?>
<!DOCTYPE svg PUBLIC "-//W3C//DTD SVG 1.1//EN"
 "http://www.w3.org/Graphics/SVG/1.1/DTD/svg11.dtd">
<!-- Generated by graphviz version 2.28.0 (20110507.0327)
 -->
<!-- Title: Servo::InitTable Pages: 1 -->
<svg width="740pt" height="47pt"
 viewBox="0.00 0.00 740.00 47.00" xmlns="http://www.w3.org/2000/svg" xmlns:xlink="http://www.w3.org/1999/xlink">
<g id="graph1" class="graph" transform="scale(1 1) rotate(0) translate(4 43)">
<title>Servo::InitTable</title>
<polygon fill="white" stroke="white" points="-4,5 -4,-43 737,-43 737,5 -4,5"/>
<!-- Node1 -->
<g id="node1" class="node"><title>Node1</title>
<polygon fill="#bfbfbf" stroke="black" points="0.5,-19.5 0.5,-38.5 83.5,-38.5 83.5,-19.5 0.5,-19.5"/>
<text text-anchor="middle" x="42" y="-26.5" font-family="Helvetica,sans-Serif" font-size="10.00">Servo::InitTable</text>
</g>
<!-- Node2 -->
<g id="node3" class="node"><title>Node2</title>
<a xlink:href="class_servo.html#a76cca4c9e061ad6b36bcf8282e6bb9d2" target="_top" xlink:title="Servo::UpdateTable">
<polygon fill="white" stroke="black" points="120.5,-19.5 120.5,-38.5 221.5,-38.5 221.5,-19.5 120.5,-19.5"/>
<text text-anchor="middle" x="171" y="-26.5" font-family="Helvetica,sans-Serif" font-size="10.00">Servo::UpdateTable</text>
</a>
</g>
<!-- Node1&#45;&gt;Node2 -->
<g id="edge2" class="edge"><title>Node1&#45;&gt;Node2</title>
<path fill="none" stroke="midnightblue" d="M83.5328,-29C91.9717,-29 101.036,-29 110.007,-29"/>
<polygon fill="midnightblue" stroke="midnightblue" points="110.057,-32.5001 120.057,-29 110.057,-25.5001 110.057,-32.5001"/>
</g>
<!-- Node3 -->
<g id="node5" class="node"><title>Node3</title>
<a xlink:href="class_servo.html#a5ecdde666455fa3c20d4ae1b6184a047" target="_top" xlink:title="Servo::Get">
<polygon fill="white" stroke="black" points="258,-19.5 258,-38.5 320,-38.5 320,-19.5 258,-19.5"/>
<text text-anchor="middle" x="289" y="-26.5" font-family="Helvetica,sans-Serif" font-size="10.00">Servo::Get</text>
</a>
</g>
<!-- Node2&#45;&gt;Node3 -->
<g id="edge4" class="edge"><title>Node2&#45;&gt;Node3</title>
<path fill="none" stroke="midnightblue" d="M221.531,-29C230.19,-29 239.107,-29 247.487,-29"/>
<polygon fill="midnightblue" stroke="midnightblue" points="247.754,-32.5001 257.754,-29 247.754,-25.5001 247.754,-32.5001"/>
</g>
<!-- Node4 -->
<g id="node7" class="node"><title>Node4</title>
<a xlink:href="class_p_w_m.html#a2f5dcbf84dc82c4b19098c4cc99d0390" target="_top" xlink:title="PWM::GetPosition">
<polygon fill="white" stroke="black" points="356,-19.5 356,-38.5 454,-38.5 454,-19.5 356,-19.5"/>
<text text-anchor="middle" x="405" y="-26.5" font-family="Helvetica,sans-Serif" font-size="10.00">PWM::GetPosition</text>
</a>
</g>
<!-- Node3&#45;&gt;Node4 -->
<g id="edge6" class="edge"><title>Node3&#45;&gt;Node4</title>
<path fill="none" stroke="midnightblue" d="M320.251,-29C328.206,-29 337.061,-29 345.95,-29"/>
<polygon fill="midnightblue" stroke="midnightblue" points="345.955,-32.5001 355.954,-29 345.954,-25.5001 345.955,-32.5001"/>
</g>
<!-- Node5 -->
<g id="node9" class="node"><title>Node5</title>
<a xlink:href="class_error_base.html#a05790f219c9e436a09752f73f7344024" target="_top" xlink:title="Check if the current error code represents a fatal error. ">
<polygon fill="white" stroke="black" points="608,-19.5 608,-38.5 732,-38.5 732,-19.5 608,-19.5"/>
<text text-anchor="middle" x="670" y="-26.5" font-family="Helvetica,sans-Serif" font-size="10.00">ErrorBase::StatusIsFatal</text>
</a>
</g>
<!-- Node4&#45;&gt;Node5 -->
<g id="edge8" class="edge"><title>Node4&#45;&gt;Node5</title>
<path fill="none" stroke="midnightblue" d="M454.238,-29C494.357,-29 552.041,-29 597.526,-29"/>
<polygon fill="midnightblue" stroke="midnightblue" points="597.623,-32.5001 607.623,-29 597.623,-25.5001 597.623,-32.5001"/>
</g>
<!-- Node6 -->
<g id="node11" class="node"><title>Node6</title>
<a xlink:href="class_p_w_m.html#afe21d7814cd2c51c0652fbf9f58af958" target="_top" xlink:title="PWM::GetRaw">
<polygon fill="white" stroke="black" points="490,-0.5 490,-19.5 572,-19.5 572,-0.5 490,-0.5"/>
<text text-anchor="middle" x="531" y="-7.5" font-family="Helvetica,sans-Serif" font-size="10.00">PWM::GetRaw</text>
</a>
</g>
<!-- Node4&#45;&gt;Node6 -->
<g id="edge10" class="edge"><title>Node4&#45;&gt;Node6</title>
<path fill="none" stroke="midnightblue" d="M454.297,-21.5997C462.612,-20.3256 471.274,-18.9984 479.642,-17.7162"/>
<polygon fill="midnightblue" stroke="midnightblue" points="480.306,-21.1554 489.66,-16.1811 479.246,-14.2361 480.306,-21.1554"/>
</g>
<!-- Node6&#45;&gt;Node5 -->
<g id="edge12" class="edge"><title>Node6&#45;&gt;Node5</title>
<path fill="none" stroke="midnightblue" d="M572.364,-15.5979C580.362,-16.7072 588.981,-17.9025 597.66,-19.1062"/>
<polygon fill="midnightblue" stroke="midnightblue" points="597.458,-22.6115 607.844,-20.5185 598.419,-15.6779 597.458,-22.6115"/>
</g>
</g>
</svg>
