<?xml version="1.0" encoding="UTF-8" standalone="no"?>
<!DOCTYPE svg PUBLIC "-//W3C//DTD SVG 1.1//EN"
 "http://www.w3.org/Graphics/SVG/1.1/DTD/svg11.dtd">
<!-- Generated by graphviz version 2.28.0 (20110507.0327)
 -->
<!-- Title: SPI::SetMSBFirst Pages: 1 -->
<svg width="416pt" height="28pt"
 viewBox="0.00 0.00 416.00 28.00" xmlns="http://www.w3.org/2000/svg" xmlns:xlink="http://www.w3.org/1999/xlink">
<g id="graph1" class="graph" transform="scale(1 1) rotate(0) translate(4 24)">
<title>SPI::SetMSBFirst</title>
<polygon fill="white" stroke="white" points="-4,5 -4,-24 413,-24 413,5 -4,5"/>
<!-- Node1 -->
<g id="node1" class="node"><title>Node1</title>
<polygon fill="#bfbfbf" stroke="black" points="0.5,-0.5 0.5,-19.5 95.5,-19.5 95.5,-0.5 0.5,-0.5"/>
<text text-anchor="middle" x="48" y="-7.5" font-family="Helvetica,sans-Serif" font-size="10.00">SPI::SetMSBFirst</text>
</g>
<!-- Node2 -->
<g id="node3" class="node"><title>Node2</title>
<a xlink:href="class_a_d_x_l345___s_p_i.html#a4fc291813cfeba26060014221a0ba156" target="_top" xlink:title="ADXL345_SPI::Init">
<polygon fill="white" stroke="black" points="132,-0.5 132,-19.5 228,-19.5 228,-0.5 132,-0.5"/>
<text text-anchor="middle" x="180" y="-7.5" font-family="Helvetica,sans-Serif" font-size="10.00">ADXL345_SPI::Init</text>
</a>
</g>
<!-- Node1&#45;&gt;Node2 -->
<g id="edge2" class="edge"><title>Node1&#45;&gt;Node2</title>
<path fill="none" stroke="midnightblue" d="M105.695,-10C114.437,-10 123.382,-10 131.885,-10"/>
<polygon fill="midnightblue" stroke="midnightblue" points="105.566,-6.5001 95.5658,-10 105.566,-13.5001 105.566,-6.5001"/>
</g>
<!-- Node3 -->
<g id="node5" class="node"><title>Node3</title>
<a xlink:href="class_a_d_x_l345___s_p_i.html#afd6ce38c4905606f32ae96342b2d29ca" target="_top" xlink:title="ADXL345_SPI::ADXL345_SPI">
<polygon fill="white" stroke="black" points="264,-0.5 264,-19.5 408,-19.5 408,-0.5 264,-0.5"/>
<text text-anchor="middle" x="336" y="-7.5" font-family="Helvetica,sans-Serif" font-size="10.00">ADXL345_SPI::ADXL345_SPI</text>
</a>
</g>
<!-- Node2&#45;&gt;Node3 -->
<g id="edge4" class="edge"><title>Node2&#45;&gt;Node3</title>
<path fill="none" stroke="midnightblue" d="M238.087,-10C246.485,-10 255.222,-10 263.86,-10"/>
<polygon fill="midnightblue" stroke="midnightblue" points="238.042,-6.5001 228.042,-10 238.042,-13.5001 238.042,-6.5001"/>
</g>
</g>
</svg>
