<?xml version="1.0" encoding="UTF-8" standalone="no"?>
<!DOCTYPE svg PUBLIC "-//W3C//DTD SVG 1.1//EN"
 "http://www.w3.org/Graphics/SVG/1.1/DTD/svg11.dtd">
<!-- Generated by graphviz version 2.28.0 (20110507.0327)
 -->
<!-- Title: PIDController Pages: 1 -->
<svg width="287pt" height="140pt"
 viewBox="0.00 0.00 287.00 140.00" xmlns="http://www.w3.org/2000/svg" xmlns:xlink="http://www.w3.org/1999/xlink">
<g id="graph1" class="graph" transform="scale(1 1) rotate(0) translate(4 136)">
<title>PIDController</title>
<polygon fill="white" stroke="white" points="-4,5 -4,-136 284,-136 284,5 -4,5"/>
<!-- Node1 -->
<g id="node1" class="node"><title>Node1</title>
<polygon fill="#bfbfbf" stroke="black" points="118,-0.5 118,-19.5 192,-19.5 192,-0.5 118,-0.5"/>
<text text-anchor="middle" x="155" y="-7.5" font-family="Helvetica,sans-Serif" font-size="10.00">PIDController</text>
</g>
<!-- Node2 -->
<g id="node2" class="node"><title>Node2</title>
<a xlink:href="class_live_window_sendable.html" target="_top" xlink:title="LiveWindowSendable">
<polygon fill="white" stroke="black" points="0,-56.5 0,-75.5 108,-75.5 108,-56.5 0,-56.5"/>
<text text-anchor="middle" x="54" y="-63.5" font-family="Helvetica,sans-Serif" font-size="10.00">LiveWindowSendable</text>
</a>
</g>
<!-- Node2&#45;&gt;Node1 -->
<g id="edge2" class="edge"><title>Node2&#45;&gt;Node1</title>
<path fill="none" stroke="midnightblue" d="M79.0825,-51.5895C97.757,-41.6052 122.704,-28.2672 138.813,-19.6545"/>
<polygon fill="midnightblue" stroke="midnightblue" points="77.3959,-48.5224 70.2274,-56.324 80.6963,-54.6955 77.3959,-48.5224"/>
</g>
<!-- Node3 -->
<g id="node4" class="node"><title>Node3</title>
<a xlink:href="class_sendable.html" target="_top" xlink:title="Sendable">
<polygon fill="white" stroke="black" points="25.5,-112.5 25.5,-131.5 82.5,-131.5 82.5,-112.5 25.5,-112.5"/>
<text text-anchor="middle" x="54" y="-119.5" font-family="Helvetica,sans-Serif" font-size="10.00">Sendable</text>
</a>
</g>
<!-- Node3&#45;&gt;Node2 -->
<g id="edge4" class="edge"><title>Node3&#45;&gt;Node2</title>
<path fill="none" stroke="midnightblue" d="M54,-101.805C54,-92.9102 54,-82.7798 54,-75.7511"/>
<polygon fill="midnightblue" stroke="midnightblue" points="50.5001,-102.083 54,-112.083 57.5001,-102.083 50.5001,-102.083"/>
</g>
<!-- Node4 -->
<g id="node6" class="node"><title>Node4</title>
<a xlink:href="class_controller.html" target="_top" xlink:title="Controller">
<polygon fill="white" stroke="black" points="126,-56.5 126,-75.5 184,-75.5 184,-56.5 126,-56.5"/>
<text text-anchor="middle" x="155" y="-63.5" font-family="Helvetica,sans-Serif" font-size="10.00">Controller</text>
</a>
</g>
<!-- Node4&#45;&gt;Node1 -->
<g id="edge6" class="edge"><title>Node4&#45;&gt;Node1</title>
<path fill="none" stroke="midnightblue" d="M155,-45.8045C155,-36.9102 155,-26.7798 155,-19.7511"/>
<polygon fill="midnightblue" stroke="midnightblue" points="151.5,-46.083 155,-56.083 158.5,-46.083 151.5,-46.083"/>
</g>
<!-- Node5 -->
<g id="node8" class="node"><title>Node5</title>
<polygon fill="white" stroke="#bfbfbf" points="202.5,-56.5 202.5,-75.5 279.5,-75.5 279.5,-56.5 202.5,-56.5"/>
<text text-anchor="middle" x="241" y="-63.5" font-family="Helvetica,sans-Serif" font-size="10.00">ITableListener</text>
</g>
<!-- Node5&#45;&gt;Node1 -->
<g id="edge8" class="edge"><title>Node5&#45;&gt;Node1</title>
<path fill="none" stroke="midnightblue" d="M218.545,-50.9005C202.776,-40.9986 182.186,-28.0705 168.783,-19.6545"/>
<polygon fill="midnightblue" stroke="midnightblue" points="216.852,-53.9704 227.183,-56.324 220.575,-48.0421 216.852,-53.9704"/>
</g>
</g>
</svg>
