<?xml version="1.0" encoding="UTF-8" standalone="no"?>
<!DOCTYPE svg PUBLIC "-//W3C//DTD SVG 1.1//EN"
 "http://www.w3.org/Graphics/SVG/1.1/DTD/svg11.dtd">
<!-- Generated by graphviz version 2.28.0 (20110507.0327)
 -->
<!-- Title: ADXL345_I2C::GetZ Pages: 1 -->
<svg width="520pt" height="28pt"
 viewBox="0.00 0.00 520.00 28.00" xmlns="http://www.w3.org/2000/svg" xmlns:xlink="http://www.w3.org/1999/xlink">
<g id="graph1" class="graph" transform="scale(1 1) rotate(0) translate(4 24)">
<title>ADXL345_I2C::GetZ</title>
<polygon fill="white" stroke="white" points="-4,5 -4,-24 517,-24 517,5 -4,5"/>
<!-- Node1 -->
<g id="node1" class="node"><title>Node1</title>
<polygon fill="#bfbfbf" stroke="black" points="0.5,-0.5 0.5,-19.5 103.5,-19.5 103.5,-0.5 0.5,-0.5"/>
<text text-anchor="middle" x="52" y="-7.5" font-family="Helvetica,sans-Serif" font-size="10.00">ADXL345_I2C::GetZ</text>
</g>
<!-- Node2 -->
<g id="node3" class="node"><title>Node2</title>
<a xlink:href="class_a_d_x_l345___i2_c.html#abc3a0bb889882e01cee781e3ab33af84" target="_top" xlink:title="ADXL345_I2C::GetAcceleration">
<polygon fill="white" stroke="black" points="140,-0.5 140,-19.5 292,-19.5 292,-0.5 140,-0.5"/>
<text text-anchor="middle" x="216" y="-7.5" font-family="Helvetica,sans-Serif" font-size="10.00">ADXL345_I2C::GetAcceleration</text>
</a>
</g>
<!-- Node1&#45;&gt;Node2 -->
<g id="edge2" class="edge"><title>Node1&#45;&gt;Node2</title>
<path fill="none" stroke="midnightblue" d="M103.813,-10C112.106,-10 120.891,-10 129.744,-10"/>
<polygon fill="midnightblue" stroke="midnightblue" points="129.746,-13.5001 139.746,-10 129.746,-6.5001 129.746,-13.5001"/>
</g>
<!-- Node3 -->
<g id="node5" class="node"><title>Node3</title>
<a xlink:href="class_i2_c.html#a4115857de2e0675f0483787933be0552" target="_top" xlink:title="I2C::Read">
<polygon fill="white" stroke="black" points="328.5,-0.5 328.5,-19.5 387.5,-19.5 387.5,-0.5 328.5,-0.5"/>
<text text-anchor="middle" x="358" y="-7.5" font-family="Helvetica,sans-Serif" font-size="10.00">I2C::Read</text>
</a>
</g>
<!-- Node2&#45;&gt;Node3 -->
<g id="edge4" class="edge"><title>Node2&#45;&gt;Node3</title>
<path fill="none" stroke="midnightblue" d="M292.327,-10C301.238,-10 310.032,-10 318.129,-10"/>
<polygon fill="midnightblue" stroke="midnightblue" points="318.322,-13.5001 328.322,-10 318.322,-6.5001 318.322,-13.5001"/>
</g>
<!-- Node4 -->
<g id="node7" class="node"><title>Node4</title>
<a xlink:href="class_i2_c.html#aefe3a40857733f5ec164dbe1fb82b299" target="_top" xlink:title="I2C::Transaction">
<polygon fill="white" stroke="black" points="424.5,-0.5 424.5,-19.5 511.5,-19.5 511.5,-0.5 424.5,-0.5"/>
<text text-anchor="middle" x="468" y="-7.5" font-family="Helvetica,sans-Serif" font-size="10.00">I2C::Transaction</text>
</a>
</g>
<!-- Node3&#45;&gt;Node4 -->
<g id="edge6" class="edge"><title>Node3&#45;&gt;Node4</title>
<path fill="none" stroke="midnightblue" d="M387.658,-10C395.831,-10 405.005,-10 414.136,-10"/>
<polygon fill="midnightblue" stroke="midnightblue" points="414.371,-13.5001 424.371,-10 414.371,-6.5001 414.371,-13.5001"/>
</g>
</g>
</svg>
