<?xml version="1.0" encoding="UTF-8" standalone="no"?>
<!DOCTYPE svg PUBLIC "-//W3C//DTD SVG 1.1//EN"
 "http://www.w3.org/Graphics/SVG/1.1/DTD/svg11.dtd">
<!-- Generated by graphviz version 2.28.0 (20110507.0327)
 -->
<!-- Title: RobotDrive::Normalize Pages: 1 -->
<svg width="464pt" height="87pt"
 viewBox="0.00 0.00 464.00 87.00" xmlns="http://www.w3.org/2000/svg" xmlns:xlink="http://www.w3.org/1999/xlink">
<g id="graph1" class="graph" transform="scale(1 1) rotate(0) translate(4 83)">
<title>RobotDrive::Normalize</title>
<polygon fill="white" stroke="white" points="-4,5 -4,-83 461,-83 461,5 -4,5"/>
<!-- Node1 -->
<g id="node1" class="node"><title>Node1</title>
<polygon fill="#bfbfbf" stroke="black" points="0.5,-29.5 0.5,-48.5 113.5,-48.5 113.5,-29.5 0.5,-29.5"/>
<text text-anchor="middle" x="57" y="-36.5" font-family="Helvetica,sans-Serif" font-size="10.00">RobotDrive::Normalize</text>
</g>
<!-- Node2 -->
<g id="node3" class="node"><title>Node2</title>
<a xlink:href="class_robot_drive.html#a2e7fa1a9713332281012e8aae5d9570e" target="_top" xlink:title="RobotDrive::MecanumDrive\l_Cartesian">
<polygon fill="white" stroke="black" points="150.5,-49 150.5,-79 283.5,-79 283.5,-49 150.5,-49"/>
<text text-anchor="start" x="158.5" y="-67" font-family="Helvetica,sans-Serif" font-size="10.00">RobotDrive::MecanumDrive</text>
<text text-anchor="middle" x="217" y="-56" font-family="Helvetica,sans-Serif" font-size="10.00">_Cartesian</text>
</a>
</g>
<!-- Node1&#45;&gt;Node2 -->
<g id="edge2" class="edge"><title>Node1&#45;&gt;Node2</title>
<path fill="none" stroke="midnightblue" d="M123.83,-49.4161C132.564,-50.7981 141.519,-52.215 150.251,-53.5967"/>
<polygon fill="midnightblue" stroke="midnightblue" points="124.129,-45.92 113.705,-47.8141 123.035,-52.834 124.129,-45.92"/>
</g>
<!-- Node3 -->
<g id="node5" class="node"><title>Node3</title>
<a xlink:href="class_robot_drive.html#a3ba6d4ec2c07575543c4f47d348332f1" target="_top" xlink:title="RobotDrive::MecanumDrive\l_Polar">
<polygon fill="white" stroke="black" points="150.5,-0 150.5,-30 283.5,-30 283.5,-0 150.5,-0"/>
<text text-anchor="start" x="158.5" y="-18" font-family="Helvetica,sans-Serif" font-size="10.00">RobotDrive::MecanumDrive</text>
<text text-anchor="middle" x="217" y="-7" font-family="Helvetica,sans-Serif" font-size="10.00">_Polar</text>
</a>
</g>
<!-- Node1&#45;&gt;Node3 -->
<g id="edge4" class="edge"><title>Node1&#45;&gt;Node3</title>
<path fill="none" stroke="midnightblue" d="M123.83,-29.0005C132.564,-27.6739 141.519,-26.3136 150.251,-24.9871"/>
<polygon fill="midnightblue" stroke="midnightblue" points="123.066,-25.5763 113.705,-30.5385 124.117,-32.497 123.066,-25.5763"/>
</g>
<!-- Node4 -->
<g id="node7" class="node"><title>Node4</title>
<a xlink:href="class_robot_drive.html#ad21b09eed120e95f1b5741a26f2f9084" target="_top" xlink:title="RobotDrive::HolonomicDrive">
<polygon fill="white" stroke="black" points="320,-5.5 320,-24.5 456,-24.5 456,-5.5 320,-5.5"/>
<text text-anchor="middle" x="388" y="-12.5" font-family="Helvetica,sans-Serif" font-size="10.00">RobotDrive::HolonomicDrive</text>
</a>
</g>
<!-- Node3&#45;&gt;Node4 -->
<g id="edge6" class="edge"><title>Node3&#45;&gt;Node4</title>
<path fill="none" stroke="midnightblue" d="M293.934,-15C302.612,-15 311.413,-15 319.964,-15"/>
<polygon fill="midnightblue" stroke="midnightblue" points="293.824,-11.5001 283.824,-15 293.824,-18.5001 293.824,-11.5001"/>
</g>
</g>
</svg>
