<?xml version="1.0" encoding="UTF-8" standalone="no"?>
<!DOCTYPE svg PUBLIC "-//W3C//DTD SVG 1.1//EN"
 "http://www.w3.org/Graphics/SVG/1.1/DTD/svg11.dtd">
<!-- Generated by graphviz version 2.28.0 (20110507.0327)
 -->
<!-- Title: CANSpeedController Pages: 1 -->
<svg width="114pt" height="140pt"
 viewBox="0.00 0.00 114.00 140.00" xmlns="http://www.w3.org/2000/svg" xmlns:xlink="http://www.w3.org/1999/xlink">
<g id="graph1" class="graph" transform="scale(1 1) rotate(0) translate(4 136)">
<title>CANSpeedController</title>
<polygon fill="white" stroke="white" points="-4,5 -4,-136 111,-136 111,5 -4,5"/>
<!-- Node1 -->
<g id="node1" class="node"><title>Node1</title>
<polygon fill="#bfbfbf" stroke="black" points="0,-0.5 0,-19.5 106,-19.5 106,-0.5 0,-0.5"/>
<text text-anchor="middle" x="53" y="-7.5" font-family="Helvetica,sans-Serif" font-size="10.00">CANSpeedController</text>
</g>
<!-- Node2 -->
<g id="node2" class="node"><title>Node2</title>
<a xlink:href="class_speed_controller.html" target="_top" xlink:title="SpeedController">
<polygon fill="white" stroke="black" points="10,-56.5 10,-75.5 96,-75.5 96,-56.5 10,-56.5"/>
<text text-anchor="middle" x="53" y="-63.5" font-family="Helvetica,sans-Serif" font-size="10.00">SpeedController</text>
</a>
</g>
<!-- Node2&#45;&gt;Node1 -->
<g id="edge2" class="edge"><title>Node2&#45;&gt;Node1</title>
<path fill="none" stroke="midnightblue" d="M53,-45.8045C53,-36.9102 53,-26.7798 53,-19.7511"/>
<polygon fill="midnightblue" stroke="midnightblue" points="49.5001,-46.083 53,-56.083 56.5001,-46.083 49.5001,-46.083"/>
</g>
<!-- Node3 -->
<g id="node4" class="node"><title>Node3</title>
<a xlink:href="class_p_i_d_output.html" target="_top" xlink:title="PIDOutput">
<polygon fill="white" stroke="black" points="22,-112.5 22,-131.5 84,-131.5 84,-112.5 22,-112.5"/>
<text text-anchor="middle" x="53" y="-119.5" font-family="Helvetica,sans-Serif" font-size="10.00">PIDOutput</text>
</a>
</g>
<!-- Node3&#45;&gt;Node2 -->
<g id="edge4" class="edge"><title>Node3&#45;&gt;Node2</title>
<path fill="none" stroke="midnightblue" d="M46.5276,-102.101C45.8956,-93.1357 46.3427,-82.8579 47.869,-75.7511"/>
<polygon fill="midnightblue" stroke="midnightblue" points="43.0658,-102.622 47.8337,-112.083 50.0067,-101.713 43.0658,-102.622"/>
</g>
<!-- Node3&#45;&gt;Node2 -->
<g id="edge6" class="edge"><title>Node3&#45;&gt;Node2</title>
<path fill="none" stroke="midnightblue" d="M59.4724,-102.101C60.1044,-93.1357 59.6573,-82.8579 58.131,-75.7511"/>
<polygon fill="midnightblue" stroke="midnightblue" points="55.9933,-101.713 58.1663,-112.083 62.9342,-102.622 55.9933,-101.713"/>
</g>
</g>
</svg>
