<?xml version="1.0" encoding="UTF-8" standalone="no"?>
<!DOCTYPE svg PUBLIC "-//W3C//DTD SVG 1.1//EN"
 "http://www.w3.org/Graphics/SVG/1.1/DTD/svg11.dtd">
<!-- Generated by graphviz version 2.28.0 (20110507.0327)
 -->
<!-- Title: Encoder::GetPeriod Pages: 1 -->
<svg width="524pt" height="66pt"
 viewBox="0.00 0.00 524.00 66.00" xmlns="http://www.w3.org/2000/svg" xmlns:xlink="http://www.w3.org/1999/xlink">
<g id="graph1" class="graph" transform="scale(1 1) rotate(0) translate(4 62)">
<title>Encoder::GetPeriod</title>
<polygon fill="white" stroke="white" points="-4,5 -4,-62 521,-62 521,5 -4,5"/>
<!-- Node1 -->
<g id="node1" class="node"><title>Node1</title>
<polygon fill="#bfbfbf" stroke="black" points="0,-19.5 0,-38.5 102,-38.5 102,-19.5 0,-19.5"/>
<text text-anchor="middle" x="51" y="-26.5" font-family="Helvetica,sans-Serif" font-size="10.00">Encoder::GetPeriod</text>
</g>
<!-- Node2 -->
<g id="node3" class="node"><title>Node2</title>
<a xlink:href="class_encoder.html#a72423acddb85ee347fc213b8600843f7" target="_top" xlink:title="Encoder::GetRate">
<polygon fill="white" stroke="black" points="138.5,-19.5 138.5,-38.5 233.5,-38.5 233.5,-19.5 138.5,-19.5"/>
<text text-anchor="middle" x="186" y="-26.5" font-family="Helvetica,sans-Serif" font-size="10.00">Encoder::GetRate</text>
</a>
</g>
<!-- Node1&#45;&gt;Node2 -->
<g id="edge2" class="edge"><title>Node1&#45;&gt;Node2</title>
<path fill="none" stroke="midnightblue" d="M112.348,-29C121.008,-29 129.809,-29 138.156,-29"/>
<polygon fill="midnightblue" stroke="midnightblue" points="112.282,-25.5001 102.282,-29 112.282,-32.5001 112.282,-25.5001"/>
</g>
<!-- Node3 -->
<g id="node5" class="node"><title>Node3</title>
<a xlink:href="class_encoder.html#a08665d9e47c9fa77606dfe8611612e73" target="_top" xlink:title="Encoder::PIDGet">
<polygon fill="white" stroke="black" points="282,-38.5 282,-57.5 372,-57.5 372,-38.5 282,-38.5"/>
<text text-anchor="middle" x="327" y="-45.5" font-family="Helvetica,sans-Serif" font-size="10.00">Encoder::PIDGet</text>
</a>
</g>
<!-- Node2&#45;&gt;Node3 -->
<g id="edge4" class="edge"><title>Node2&#45;&gt;Node3</title>
<path fill="none" stroke="midnightblue" d="M243.647,-36.7431C256.283,-38.4704 269.508,-40.278 281.569,-41.9266"/>
<polygon fill="midnightblue" stroke="midnightblue" points="244.054,-33.2662 233.672,-35.3796 243.105,-40.2017 244.054,-33.2662"/>
</g>
<!-- Node4 -->
<g id="node7" class="node"><title>Node4</title>
<a xlink:href="class_encoder.html#a2f6a1ab80e3590e2687551b22d8669e4" target="_top" xlink:title="Encoder::UpdateTable">
<polygon fill="white" stroke="black" points="270.5,-0.5 270.5,-19.5 383.5,-19.5 383.5,-0.5 270.5,-0.5"/>
<text text-anchor="middle" x="327" y="-7.5" font-family="Helvetica,sans-Serif" font-size="10.00">Encoder::UpdateTable</text>
</a>
</g>
<!-- Node2&#45;&gt;Node4 -->
<g id="edge6" class="edge"><title>Node2&#45;&gt;Node4</title>
<path fill="none" stroke="midnightblue" d="M243.716,-21.2475C252.409,-20.0592 261.378,-18.8332 270.055,-17.6472"/>
<polygon fill="midnightblue" stroke="midnightblue" points="243.105,-17.7983 233.672,-22.6204 244.054,-24.7338 243.105,-17.7983"/>
</g>
<!-- Node5 -->
<g id="node9" class="node"><title>Node5</title>
<a xlink:href="class_encoder.html#a9e1ff7a1231b13de80a6b8ec06cc6886" target="_top" xlink:title="Encoder::InitTable">
<polygon fill="white" stroke="black" points="420.5,-0.5 420.5,-19.5 515.5,-19.5 515.5,-0.5 420.5,-0.5"/>
<text text-anchor="middle" x="468" y="-7.5" font-family="Helvetica,sans-Serif" font-size="10.00">Encoder::InitTable</text>
</a>
</g>
<!-- Node4&#45;&gt;Node5 -->
<g id="edge8" class="edge"><title>Node4&#45;&gt;Node5</title>
<path fill="none" stroke="midnightblue" d="M393.747,-10C402.673,-10 411.683,-10 420.183,-10"/>
<polygon fill="midnightblue" stroke="midnightblue" points="393.736,-6.5001 383.736,-10 393.736,-13.5001 393.736,-6.5001"/>
</g>
</g>
</svg>
