<?xml version="1.0" encoding="UTF-8" standalone="no"?>
<!DOCTYPE svg PUBLIC "-//W3C//DTD SVG 1.1//EN"
 "http://www.w3.org/Graphics/SVG/1.1/DTD/svg11.dtd">
<!-- Generated by graphviz version 2.28.0 (20110507.0327)
 -->
<!-- Title: DriverStation::IsOperatorControl Pages: 1 -->
<svg width="502pt" height="38pt"
 viewBox="0.00 0.00 502.00 38.00" xmlns="http://www.w3.org/2000/svg" xmlns:xlink="http://www.w3.org/1999/xlink">
<g id="graph1" class="graph" transform="scale(1 1) rotate(0) translate(4 34)">
<title>DriverStation::IsOperatorControl</title>
<polygon fill="white" stroke="white" points="-4,5 -4,-34 499,-34 499,5 -4,5"/>
<!-- Node1 -->
<g id="node1" class="node"><title>Node1</title>
<polygon fill="#bfbfbf" stroke="black" points="0,-0 0,-30 122,-30 122,-0 0,-0"/>
<text text-anchor="start" x="8" y="-18" font-family="Helvetica,sans-Serif" font-size="10.00">DriverStation::IsOperator</text>
<text text-anchor="middle" x="61" y="-7" font-family="Helvetica,sans-Serif" font-size="10.00">Control</text>
</g>
<!-- Node2 -->
<g id="node3" class="node"><title>Node2</title>
<a xlink:href="class_robot_base.html#a05c699856acfe35b0ffb2172c39e23de" target="_top" xlink:title="RobotBase::IsOperatorControl">
<polygon fill="white" stroke="black" points="158,-5.5 158,-24.5 304,-24.5 304,-5.5 158,-5.5"/>
<text text-anchor="middle" x="231" y="-12.5" font-family="Helvetica,sans-Serif" font-size="10.00">RobotBase::IsOperatorControl</text>
</a>
</g>
<!-- Node1&#45;&gt;Node2 -->
<g id="edge2" class="edge"><title>Node1&#45;&gt;Node2</title>
<path fill="none" stroke="midnightblue" d="M132.361,-15C140.807,-15 149.441,-15 157.91,-15"/>
<polygon fill="midnightblue" stroke="midnightblue" points="132.177,-11.5001 122.177,-15 132.177,-18.5001 132.177,-11.5001"/>
</g>
<!-- Node3 -->
<g id="node5" class="node"><title>Node3</title>
<a xlink:href="class_sample_robot.html#aa9c849963713b505a4e032516c028829" target="_top" xlink:title="SampleRobot::StartCompetition">
<polygon fill="white" stroke="black" points="340,-5.5 340,-24.5 494,-24.5 494,-5.5 340,-5.5"/>
<text text-anchor="middle" x="417" y="-12.5" font-family="Helvetica,sans-Serif" font-size="10.00">SampleRobot::StartCompetition</text>
</a>
</g>
<!-- Node2&#45;&gt;Node3 -->
<g id="edge4" class="edge"><title>Node2&#45;&gt;Node3</title>
<path fill="none" stroke="midnightblue" d="M314.414,-15C322.853,-15 331.401,-15 339.77,-15"/>
<polygon fill="midnightblue" stroke="midnightblue" points="314.194,-11.5001 304.194,-15 314.194,-18.5001 314.194,-11.5001"/>
</g>
</g>
</svg>
