<?xml version="1.0" encoding="UTF-8" standalone="no"?>
<!DOCTYPE svg PUBLIC "-//W3C//DTD SVG 1.1//EN"
 "http://www.w3.org/Graphics/SVG/1.1/DTD/svg11.dtd">
<!-- Generated by graphviz version 2.28.0 (20110507.0327)
 -->
<!-- Title: Servo::Get Pages: 1 -->
<svg width="482pt" height="47pt"
 viewBox="0.00 0.00 482.00 47.00" xmlns="http://www.w3.org/2000/svg" xmlns:xlink="http://www.w3.org/1999/xlink">
<g id="graph1" class="graph" transform="scale(1 1) rotate(0) translate(4 43)">
<title>Servo::Get</title>
<polygon fill="white" stroke="white" points="-4,5 -4,-43 479,-43 479,5 -4,5"/>
<!-- Node1 -->
<g id="node1" class="node"><title>Node1</title>
<polygon fill="#bfbfbf" stroke="black" points="0,-19.5 0,-38.5 62,-38.5 62,-19.5 0,-19.5"/>
<text text-anchor="middle" x="31" y="-26.5" font-family="Helvetica,sans-Serif" font-size="10.00">Servo::Get</text>
</g>
<!-- Node2 -->
<g id="node3" class="node"><title>Node2</title>
<a xlink:href="class_p_w_m.html#a2f5dcbf84dc82c4b19098c4cc99d0390" target="_top" xlink:title="PWM::GetPosition">
<polygon fill="white" stroke="black" points="98,-19.5 98,-38.5 196,-38.5 196,-19.5 98,-19.5"/>
<text text-anchor="middle" x="147" y="-26.5" font-family="Helvetica,sans-Serif" font-size="10.00">PWM::GetPosition</text>
</a>
</g>
<!-- Node1&#45;&gt;Node2 -->
<g id="edge2" class="edge"><title>Node1&#45;&gt;Node2</title>
<path fill="none" stroke="midnightblue" d="M62.2506,-29C70.2064,-29 79.0613,-29 87.9502,-29"/>
<polygon fill="midnightblue" stroke="midnightblue" points="87.9545,-32.5001 97.9545,-29 87.9544,-25.5001 87.9545,-32.5001"/>
</g>
<!-- Node3 -->
<g id="node5" class="node"><title>Node3</title>
<a xlink:href="class_error_base.html#a05790f219c9e436a09752f73f7344024" target="_top" xlink:title="Check if the current error code represents a fatal error. ">
<polygon fill="white" stroke="black" points="350,-19.5 350,-38.5 474,-38.5 474,-19.5 350,-19.5"/>
<text text-anchor="middle" x="412" y="-26.5" font-family="Helvetica,sans-Serif" font-size="10.00">ErrorBase::StatusIsFatal</text>
</a>
</g>
<!-- Node2&#45;&gt;Node3 -->
<g id="edge4" class="edge"><title>Node2&#45;&gt;Node3</title>
<path fill="none" stroke="midnightblue" d="M196.238,-29C236.357,-29 294.041,-29 339.526,-29"/>
<polygon fill="midnightblue" stroke="midnightblue" points="339.623,-32.5001 349.623,-29 339.623,-25.5001 339.623,-32.5001"/>
</g>
<!-- Node4 -->
<g id="node7" class="node"><title>Node4</title>
<a xlink:href="class_p_w_m.html#afe21d7814cd2c51c0652fbf9f58af958" target="_top" xlink:title="PWM::GetRaw">
<polygon fill="white" stroke="black" points="232,-0.5 232,-19.5 314,-19.5 314,-0.5 232,-0.5"/>
<text text-anchor="middle" x="273" y="-7.5" font-family="Helvetica,sans-Serif" font-size="10.00">PWM::GetRaw</text>
</a>
</g>
<!-- Node2&#45;&gt;Node4 -->
<g id="edge6" class="edge"><title>Node2&#45;&gt;Node4</title>
<path fill="none" stroke="midnightblue" d="M196.297,-21.5997C204.612,-20.3256 213.274,-18.9984 221.642,-17.7162"/>
<polygon fill="midnightblue" stroke="midnightblue" points="222.306,-21.1554 231.66,-16.1811 221.246,-14.2361 222.306,-21.1554"/>
</g>
<!-- Node4&#45;&gt;Node3 -->
<g id="edge8" class="edge"><title>Node4&#45;&gt;Node3</title>
<path fill="none" stroke="midnightblue" d="M314.364,-15.5979C322.362,-16.7072 330.981,-17.9025 339.66,-19.1062"/>
<polygon fill="midnightblue" stroke="midnightblue" points="339.458,-22.6115 349.844,-20.5185 340.419,-15.6779 339.458,-22.6115"/>
</g>
</g>
</svg>
