<?xml version="1.0" encoding="UTF-8" standalone="no"?>
<!DOCTYPE svg PUBLIC "-//W3C//DTD SVG 1.1//EN"
 "http://www.w3.org/Graphics/SVG/1.1/DTD/svg11.dtd">
<!-- Generated by graphviz version 2.28.0 (20110507.0327)
 -->
<!-- Title: Encoder::GetRate Pages: 1 -->
<svg width="386pt" height="66pt"
 viewBox="0.00 0.00 386.00 66.00" xmlns="http://www.w3.org/2000/svg" xmlns:xlink="http://www.w3.org/1999/xlink">
<g id="graph1" class="graph" transform="scale(1 1) rotate(0) translate(4 62)">
<title>Encoder::GetRate</title>
<polygon fill="white" stroke="white" points="-4,5 -4,-62 383,-62 383,5 -4,5"/>
<!-- Node1 -->
<g id="node1" class="node"><title>Node1</title>
<polygon fill="#bfbfbf" stroke="black" points="0.5,-19.5 0.5,-38.5 95.5,-38.5 95.5,-19.5 0.5,-19.5"/>
<text text-anchor="middle" x="48" y="-26.5" font-family="Helvetica,sans-Serif" font-size="10.00">Encoder::GetRate</text>
</g>
<!-- Node2 -->
<g id="node3" class="node"><title>Node2</title>
<a xlink:href="class_encoder.html#a08665d9e47c9fa77606dfe8611612e73" target="_top" xlink:title="Encoder::PIDGet">
<polygon fill="white" stroke="black" points="144,-38.5 144,-57.5 234,-57.5 234,-38.5 144,-38.5"/>
<text text-anchor="middle" x="189" y="-45.5" font-family="Helvetica,sans-Serif" font-size="10.00">Encoder::PIDGet</text>
</a>
</g>
<!-- Node1&#45;&gt;Node2 -->
<g id="edge2" class="edge"><title>Node1&#45;&gt;Node2</title>
<path fill="none" stroke="midnightblue" d="M105.647,-36.7431C118.283,-38.4704 131.508,-40.278 143.569,-41.9266"/>
<polygon fill="midnightblue" stroke="midnightblue" points="106.054,-33.2662 95.6717,-35.3796 105.105,-40.2017 106.054,-33.2662"/>
</g>
<!-- Node3 -->
<g id="node5" class="node"><title>Node3</title>
<a xlink:href="class_encoder.html#a2f6a1ab80e3590e2687551b22d8669e4" target="_top" xlink:title="Encoder::UpdateTable">
<polygon fill="white" stroke="black" points="132.5,-0.5 132.5,-19.5 245.5,-19.5 245.5,-0.5 132.5,-0.5"/>
<text text-anchor="middle" x="189" y="-7.5" font-family="Helvetica,sans-Serif" font-size="10.00">Encoder::UpdateTable</text>
</a>
</g>
<!-- Node1&#45;&gt;Node3 -->
<g id="edge4" class="edge"><title>Node1&#45;&gt;Node3</title>
<path fill="none" stroke="midnightblue" d="M105.716,-21.2475C114.409,-20.0592 123.378,-18.8332 132.055,-17.6472"/>
<polygon fill="midnightblue" stroke="midnightblue" points="105.105,-17.7983 95.6717,-22.6204 106.054,-24.7338 105.105,-17.7983"/>
</g>
<!-- Node4 -->
<g id="node7" class="node"><title>Node4</title>
<a xlink:href="class_encoder.html#a9e1ff7a1231b13de80a6b8ec06cc6886" target="_top" xlink:title="Encoder::InitTable">
<polygon fill="white" stroke="black" points="282.5,-0.5 282.5,-19.5 377.5,-19.5 377.5,-0.5 282.5,-0.5"/>
<text text-anchor="middle" x="330" y="-7.5" font-family="Helvetica,sans-Serif" font-size="10.00">Encoder::InitTable</text>
</a>
</g>
<!-- Node3&#45;&gt;Node4 -->
<g id="edge6" class="edge"><title>Node3&#45;&gt;Node4</title>
<path fill="none" stroke="midnightblue" d="M255.747,-10C264.673,-10 273.683,-10 282.183,-10"/>
<polygon fill="midnightblue" stroke="midnightblue" points="255.736,-6.5001 245.736,-10 255.736,-13.5001 255.736,-6.5001"/>
</g>
</g>
</svg>
