<?xml version="1.0" encoding="UTF-8" standalone="no"?>
<!DOCTYPE svg PUBLIC "-//W3C//DTD SVG 1.1//EN"
 "http://www.w3.org/Graphics/SVG/1.1/DTD/svg11.dtd">
<!-- Generated by graphviz version 2.28.0 (20110507.0327)
 -->
<!-- Title: Command::Requires Pages: 1 -->
<svg width="306pt" height="66pt"
 viewBox="0.00 0.00 306.00 66.00" xmlns="http://www.w3.org/2000/svg" xmlns:xlink="http://www.w3.org/1999/xlink">
<g id="graph1" class="graph" transform="scale(1 1) rotate(0) translate(4 62)">
<title>Command::Requires</title>
<polygon fill="white" stroke="white" points="-4,5 -4,-62 303,-62 303,5 -4,5"/>
<!-- Node1 -->
<g id="node1" class="node"><title>Node1</title>
<polygon fill="#bfbfbf" stroke="black" points="0.5,-19.5 0.5,-38.5 105.5,-38.5 105.5,-19.5 0.5,-19.5"/>
<text text-anchor="middle" x="53" y="-26.5" font-family="Helvetica,sans-Serif" font-size="10.00">Command::Requires</text>
</g>
<!-- Node2 -->
<g id="node3" class="node"><title>Node2</title>
<a xlink:href="class_command_group.html#a37206a473a9a01ba8098d73f452de71b" target="_top" xlink:title="CommandGroup::AddSequential">
<polygon fill="white" stroke="black" points="142,-38.5 142,-57.5 298,-57.5 298,-38.5 142,-38.5"/>
<text text-anchor="middle" x="220" y="-45.5" font-family="Helvetica,sans-Serif" font-size="10.00">CommandGroup::AddSequential</text>
</a>
</g>
<!-- Node1&#45;&gt;Node2 -->
<g id="edge2" class="edge"><title>Node1&#45;&gt;Node2</title>
<path fill="none" stroke="midnightblue" d="M115.876,-36.1251C124.32,-37.0975 133.073,-38.1053 141.747,-39.1042"/>
<polygon fill="midnightblue" stroke="midnightblue" points="116.089,-32.6266 105.754,-34.9596 115.288,-39.5807 116.089,-32.6266"/>
</g>
<!-- Node3 -->
<g id="node5" class="node"><title>Node3</title>
<a xlink:href="class_command_group.html#a3c7e096849f7586389769454b3148be3" target="_top" xlink:title="CommandGroup::AddParallel">
<polygon fill="white" stroke="black" points="148.5,-0.5 148.5,-19.5 291.5,-19.5 291.5,-0.5 148.5,-0.5"/>
<text text-anchor="middle" x="220" y="-7.5" font-family="Helvetica,sans-Serif" font-size="10.00">CommandGroup::AddParallel</text>
</a>
</g>
<!-- Node1&#45;&gt;Node3 -->
<g id="edge4" class="edge"><title>Node1&#45;&gt;Node3</title>
<path fill="none" stroke="midnightblue" d="M115.775,-21.8866C126.409,-20.662 137.535,-19.3808 148.381,-18.1319"/>
<polygon fill="midnightblue" stroke="midnightblue" points="115.288,-18.4193 105.754,-23.0404 116.089,-25.3734 115.288,-18.4193"/>
</g>
</g>
</svg>
