<?xml version="1.0" encoding="UTF-8" standalone="no"?>
<!DOCTYPE svg PUBLIC "-//W3C//DTD SVG 1.1//EN"
 "http://www.w3.org/Graphics/SVG/1.1/DTD/svg11.dtd">
<!-- Generated by graphviz version 2.28.0 (20110507.0327)
 -->
<!-- Title: AnalogTriggerOutput Pages: 1 -->
<svg width="168pt" height="348pt"
 viewBox="0.00 0.00 168.00 348.00" xmlns="http://www.w3.org/2000/svg" xmlns:xlink="http://www.w3.org/1999/xlink">
<g id="graph1" class="graph" transform="scale(1 1) rotate(0) translate(4 344)">
<title>AnalogTriggerOutput</title>
<polygon fill="white" stroke="white" points="-4,5 -4,-344 165,-344 165,5 -4,5"/>
<!-- Node1 -->
<g id="node1" class="node"><title>Node1</title>
<polygon fill="#bfbfbf" stroke="black" points="28.5,-0.5 28.5,-19.5 133.5,-19.5 133.5,-0.5 28.5,-0.5"/>
<text text-anchor="middle" x="81" y="-7.5" font-family="Helvetica,sans-Serif" font-size="10.00">AnalogTriggerOutput</text>
</g>
<!-- Node2 -->
<g id="node2" class="node"><title>Node2</title>
<a xlink:href="class_digital_source.html" target="_top" xlink:title="DigitalSource">
<polygon fill="white" stroke="black" points="44,-58.5 44,-77.5 118,-77.5 118,-58.5 44,-58.5"/>
<text text-anchor="middle" x="81" y="-65.5" font-family="Helvetica,sans-Serif" font-size="10.00">DigitalSource</text>
</a>
</g>
<!-- Node2&#45;&gt;Node1 -->
<g id="edge2" class="edge"><title>Node2&#45;&gt;Node1</title>
<path fill="none" stroke="midnightblue" d="M81,-47.953C81,-38.2875 81,-27.0312 81,-19.5052"/>
<polygon fill="midnightblue" stroke="midnightblue" points="77.5001,-48.25 81,-58.25 84.5001,-48.25 77.5001,-48.25"/>
</g>
<!-- Node3 -->
<g id="node4" class="node"><title>Node3</title>
<a xlink:href="class_interruptable_sensor_base.html" target="_top" xlink:title="InterruptableSensorBase">
<polygon fill="white" stroke="black" points="19.5,-116.5 19.5,-135.5 142.5,-135.5 142.5,-116.5 19.5,-116.5"/>
<text text-anchor="middle" x="81" y="-123.5" font-family="Helvetica,sans-Serif" font-size="10.00">InterruptableSensorBase</text>
</a>
</g>
<!-- Node3&#45;&gt;Node2 -->
<g id="edge4" class="edge"><title>Node3&#45;&gt;Node2</title>
<path fill="none" stroke="midnightblue" d="M81,-105.953C81,-96.2875 81,-85.0312 81,-77.5052"/>
<polygon fill="midnightblue" stroke="midnightblue" points="77.5001,-106.25 81,-116.25 84.5001,-106.25 77.5001,-106.25"/>
</g>
<!-- Node4 -->
<g id="node6" class="node"><title>Node4</title>
<a xlink:href="class_sensor_base.html" target="_top" xlink:title="SensorBase">
<polygon fill="white" stroke="black" points="0,-184.5 0,-203.5 70,-203.5 70,-184.5 0,-184.5"/>
<text text-anchor="middle" x="35" y="-191.5" font-family="Helvetica,sans-Serif" font-size="10.00">SensorBase</text>
</a>
</g>
<!-- Node4&#45;&gt;Node3 -->
<g id="edge6" class="edge"><title>Node4&#45;&gt;Node3</title>
<path fill="none" stroke="midnightblue" d="M46.8919,-175.938C55.8311,-163.112 67.7164,-146.059 74.838,-135.841"/>
<polygon fill="midnightblue" stroke="midnightblue" points="43.8603,-174.166 41.0137,-184.372 49.6031,-178.169 43.8603,-174.166"/>
</g>
<!-- Node5 -->
<g id="node8" class="node"><title>Node5</title>
<a xlink:href="class_error_base.html" target="_top" xlink:title="ErrorBase">
<polygon fill="white" stroke="black" points="31,-242.5 31,-261.5 91,-261.5 91,-242.5 31,-242.5"/>
<text text-anchor="middle" x="61" y="-249.5" font-family="Helvetica,sans-Serif" font-size="10.00">ErrorBase</text>
</a>
</g>
<!-- Node5&#45;&gt;Node4 -->
<g id="edge8" class="edge"><title>Node5&#45;&gt;Node4</title>
<path fill="none" stroke="midnightblue" d="M52.5933,-232.893C48.0119,-223.026 42.557,-211.277 38.9488,-203.505"/>
<polygon fill="midnightblue" stroke="midnightblue" points="49.5518,-234.654 56.9375,-242.25 55.9009,-231.706 49.5518,-234.654"/>
</g>
<!-- Node7 -->
<g id="node12" class="node"><title>Node7</title>
<a xlink:href="class_resource.html" target="_top" xlink:title="Resource">
<polygon fill="white" stroke="black" points="88,-184.5 88,-203.5 146,-203.5 146,-184.5 88,-184.5"/>
<text text-anchor="middle" x="117" y="-191.5" font-family="Helvetica,sans-Serif" font-size="10.00">Resource</text>
</a>
</g>
<!-- Node5&#45;&gt;Node7 -->
<g id="edge14" class="edge"><title>Node5&#45;&gt;Node7</title>
<path fill="none" stroke="midnightblue" d="M76.9584,-235.042C87.2214,-224.779 100.151,-211.849 108.495,-203.505"/>
<polygon fill="midnightblue" stroke="midnightblue" points="74.3462,-232.704 69.75,-242.25 79.296,-237.654 74.3462,-232.704"/>
</g>
<!-- Node6 -->
<g id="node10" class="node"><title>Node6</title>
<a xlink:href="class_error.html" target="_top" xlink:title="Error">
<polygon fill="white" stroke="black" points="42,-320.5 42,-339.5 80,-339.5 80,-320.5 42,-320.5"/>
<text text-anchor="middle" x="61" y="-327.5" font-family="Helvetica,sans-Serif" font-size="10.00">Error</text>
</a>
</g>
<!-- Node6&#45;&gt;Node5 -->
<g id="edge10" class="edge"><title>Node6&#45;&gt;Node5</title>
<path fill="none" stroke="#9a32cd" stroke-dasharray="5,2" d="M61,-310.224C61,-294.697 61,-273.358 61,-261.616"/>
<polygon fill="#9a32cd" stroke="#9a32cd" points="57.5001,-310.282 61,-320.282 64.5001,-310.282 57.5001,-310.282"/>
<text text-anchor="middle" x="88.5" y="-294" font-family="Helvetica,sans-Serif" font-size="10.00"> _globalError</text>
<text text-anchor="middle" x="88.5" y="-283" font-family="Helvetica,sans-Serif" font-size="10.00">m_error</text>
</g>
<!-- Node7&#45;&gt;Node3 -->
<g id="edge12" class="edge"><title>Node7&#45;&gt;Node3</title>
<path fill="none" stroke="#9a32cd" stroke-dasharray="5,2" d="M107.489,-175.563C100.517,-162.781 91.3418,-145.96 85.8224,-135.841"/>
<polygon fill="#9a32cd" stroke="#9a32cd" points="104.432,-177.269 112.294,-184.372 110.578,-173.917 104.432,-177.269"/>
<text text-anchor="middle" x="131" y="-157.5" font-family="Helvetica,sans-Serif" font-size="10.00"> m_interrupts</text>
</g>
</g>
</svg>
