<?xml version="1.0" encoding="UTF-8" standalone="no"?>
<!DOCTYPE svg PUBLIC "-//W3C//DTD SVG 1.1//EN"
 "http://www.w3.org/Graphics/SVG/1.1/DTD/svg11.dtd">
<!-- Generated by graphviz version 2.28.0 (20110507.0327)
 -->
<!-- Title: ADXL345_SPI::GetAcceleration Pages: 1 -->
<svg width="634pt" height="104pt"
 viewBox="0.00 0.00 634.00 104.00" xmlns="http://www.w3.org/2000/svg" xmlns:xlink="http://www.w3.org/1999/xlink">
<g id="graph1" class="graph" transform="scale(1 1) rotate(0) translate(4 100)">
<title>ADXL345_SPI::GetAcceleration</title>
<polygon fill="white" stroke="white" points="-4,5 -4,-100 631,-100 631,5 -4,5"/>
<!-- Node1 -->
<g id="node1" class="node"><title>Node1</title>
<polygon fill="#bfbfbf" stroke="black" points="0.5,-38.5 0.5,-57.5 153.5,-57.5 153.5,-38.5 0.5,-38.5"/>
<text text-anchor="middle" x="77" y="-45.5" font-family="Helvetica,sans-Serif" font-size="10.00">ADXL345_SPI::GetAcceleration</text>
</g>
<!-- Node2 -->
<g id="node3" class="node"><title>Node2</title>
<a xlink:href="class_a_d_x_l345___s_p_i.html#ae91bd240c7ce0715d79e12644a67bcf1" target="_top" xlink:title="ADXL345_SPI::GetX">
<polygon fill="white" stroke="black" points="191,-76.5 191,-95.5 295,-95.5 295,-76.5 191,-76.5"/>
<text text-anchor="middle" x="243" y="-83.5" font-family="Helvetica,sans-Serif" font-size="10.00">ADXL345_SPI::GetX</text>
</a>
</g>
<!-- Node1&#45;&gt;Node2 -->
<g id="edge2" class="edge"><title>Node1&#45;&gt;Node2</title>
<path fill="none" stroke="midnightblue" d="M129.341,-59.8961C152.393,-65.2374 179.221,-71.4537 200.913,-76.4799"/>
<polygon fill="midnightblue" stroke="midnightblue" points="129.916,-56.4367 119.384,-57.589 128.336,-63.256 129.916,-56.4367"/>
</g>
<!-- Node5 -->
<g id="node9" class="node"><title>Node5</title>
<a xlink:href="class_a_d_x_l345___s_p_i.html#a1a6e48ce4713239f7cade3e9a7335c70" target="_top" xlink:title="ADXL345_SPI::GetY">
<polygon fill="white" stroke="black" points="190,-38.5 190,-57.5 296,-57.5 296,-38.5 190,-38.5"/>
<text text-anchor="middle" x="243" y="-45.5" font-family="Helvetica,sans-Serif" font-size="10.00">ADXL345_SPI::GetY</text>
</a>
</g>
<!-- Node1&#45;&gt;Node5 -->
<g id="edge8" class="edge"><title>Node1&#45;&gt;Node5</title>
<path fill="none" stroke="midnightblue" d="M163.83,-48C172.748,-48 181.604,-48 189.977,-48"/>
<polygon fill="midnightblue" stroke="midnightblue" points="163.759,-44.5001 153.759,-48 163.759,-51.5001 163.759,-44.5001"/>
</g>
<!-- Node6 -->
<g id="node12" class="node"><title>Node6</title>
<a xlink:href="class_a_d_x_l345___s_p_i.html#a54306b7ba6ea3227444ed8705cf0b9bf" target="_top" xlink:title="ADXL345_SPI::GetZ">
<polygon fill="white" stroke="black" points="191,-0.5 191,-19.5 295,-19.5 295,-0.5 191,-0.5"/>
<text text-anchor="middle" x="243" y="-7.5" font-family="Helvetica,sans-Serif" font-size="10.00">ADXL345_SPI::GetZ</text>
</a>
</g>
<!-- Node1&#45;&gt;Node6 -->
<g id="edge12" class="edge"><title>Node1&#45;&gt;Node6</title>
<path fill="none" stroke="midnightblue" d="M129.341,-36.1039C152.393,-30.7626 179.221,-24.5463 200.913,-19.5201"/>
<polygon fill="midnightblue" stroke="midnightblue" points="128.336,-32.744 119.384,-38.411 129.916,-39.5633 128.336,-32.744"/>
</g>
<!-- Node3 -->
<g id="node5" class="node"><title>Node3</title>
<a xlink:href="class_a_d_x_l345___s_p_i.html#a9cb14691ba1afa6bf3676222936d8c19" target="_top" xlink:title="ADXL345_SPI::UpdateTable">
<polygon fill="white" stroke="black" points="332.5,-38.5 332.5,-57.5 469.5,-57.5 469.5,-38.5 332.5,-38.5"/>
<text text-anchor="middle" x="401" y="-45.5" font-family="Helvetica,sans-Serif" font-size="10.00">ADXL345_SPI::UpdateTable</text>
</a>
</g>
<!-- Node2&#45;&gt;Node3 -->
<g id="edge4" class="edge"><title>Node2&#45;&gt;Node3</title>
<path fill="none" stroke="midnightblue" d="M293.132,-74.032C314.993,-68.7069 340.376,-62.5238 360.918,-57.5201"/>
<polygon fill="midnightblue" stroke="midnightblue" points="292.253,-70.6437 283.365,-76.411 293.91,-77.4448 292.253,-70.6437"/>
</g>
<!-- Node4 -->
<g id="node7" class="node"><title>Node4</title>
<a xlink:href="class_a_d_x_l345___s_p_i.html#a44f5e096d12a7e9770cda58fd4f6b95c" target="_top" xlink:title="ADXL345_SPI::InitTable">
<polygon fill="white" stroke="black" points="506.5,-38.5 506.5,-57.5 625.5,-57.5 625.5,-38.5 506.5,-38.5"/>
<text text-anchor="middle" x="566" y="-45.5" font-family="Helvetica,sans-Serif" font-size="10.00">ADXL345_SPI::InitTable</text>
</a>
</g>
<!-- Node3&#45;&gt;Node4 -->
<g id="edge6" class="edge"><title>Node3&#45;&gt;Node4</title>
<path fill="none" stroke="midnightblue" d="M479.756,-48C488.696,-48 497.696,-48 506.325,-48"/>
<polygon fill="midnightblue" stroke="midnightblue" points="479.711,-44.5001 469.711,-48 479.711,-51.5001 479.711,-44.5001"/>
</g>
<!-- Node5&#45;&gt;Node3 -->
<g id="edge10" class="edge"><title>Node5&#45;&gt;Node3</title>
<path fill="none" stroke="midnightblue" d="M306.54,-48C314.995,-48 323.703,-48 332.244,-48"/>
<polygon fill="midnightblue" stroke="midnightblue" points="306.38,-44.5001 296.38,-48 306.38,-51.5001 306.38,-44.5001"/>
</g>
<!-- Node6&#45;&gt;Node3 -->
<g id="edge14" class="edge"><title>Node6&#45;&gt;Node3</title>
<path fill="none" stroke="midnightblue" d="M293.132,-21.968C314.993,-27.2931 340.376,-33.4762 360.918,-38.4799"/>
<polygon fill="midnightblue" stroke="midnightblue" points="293.91,-18.5552 283.365,-19.589 292.253,-25.3563 293.91,-18.5552"/>
</g>
</g>
</svg>
