<?xml version="1.0" encoding="UTF-8" standalone="no"?>
<!DOCTYPE svg PUBLIC "-//W3C//DTD SVG 1.1//EN"
 "http://www.w3.org/Graphics/SVG/1.1/DTD/svg11.dtd">
<!-- Generated by graphviz version 2.28.0 (20110507.0327)
 -->
<!-- Title: AnalogAccelerometer Pages: 1 -->
<svg width="286pt" height="222pt"
 viewBox="0.00 0.00 286.00 222.00" xmlns="http://www.w3.org/2000/svg" xmlns:xlink="http://www.w3.org/1999/xlink">
<g id="graph1" class="graph" transform="scale(1 1) rotate(0) translate(4 218)">
<title>AnalogAccelerometer</title>
<polygon fill="white" stroke="white" points="-4,5 -4,-218 283,-218 283,5 -4,5"/>
<!-- Node1 -->
<g id="node1" class="node"><title>Node1</title>
<polygon fill="#bfbfbf" stroke="black" points="65,-0.5 65,-19.5 175,-19.5 175,-0.5 65,-0.5"/>
<text text-anchor="middle" x="120" y="-7.5" font-family="Helvetica,sans-Serif" font-size="10.00">AnalogAccelerometer</text>
</g>
<!-- Node2 -->
<g id="node2" class="node"><title>Node2</title>
<a xlink:href="class_sensor_base.html" target="_top" xlink:title="SensorBase">
<polygon fill="white" stroke="black" points="0,-58.5 0,-77.5 70,-77.5 70,-58.5 0,-58.5"/>
<text text-anchor="middle" x="35" y="-65.5" font-family="Helvetica,sans-Serif" font-size="10.00">SensorBase</text>
</a>
</g>
<!-- Node2&#45;&gt;Node1 -->
<g id="edge2" class="edge"><title>Node2&#45;&gt;Node1</title>
<path fill="none" stroke="midnightblue" d="M56.5697,-52.7894C72.4653,-42.317 93.567,-28.4147 106.969,-19.5852"/>
<polygon fill="midnightblue" stroke="midnightblue" points="54.3347,-50.0705 47.9097,-58.4948 58.1859,-55.9159 54.3347,-50.0705"/>
</g>
<!-- Node3 -->
<g id="node4" class="node"><title>Node3</title>
<a xlink:href="class_error_base.html" target="_top" xlink:title="ErrorBase">
<polygon fill="white" stroke="black" points="5,-116.5 5,-135.5 65,-135.5 65,-116.5 5,-116.5"/>
<text text-anchor="middle" x="35" y="-123.5" font-family="Helvetica,sans-Serif" font-size="10.00">ErrorBase</text>
</a>
</g>
<!-- Node3&#45;&gt;Node2 -->
<g id="edge4" class="edge"><title>Node3&#45;&gt;Node2</title>
<path fill="none" stroke="midnightblue" d="M35,-105.953C35,-96.2875 35,-85.0312 35,-77.5052"/>
<polygon fill="midnightblue" stroke="midnightblue" points="31.5001,-106.25 35,-116.25 38.5001,-106.25 31.5001,-106.25"/>
</g>
<!-- Node4 -->
<g id="node6" class="node"><title>Node4</title>
<a xlink:href="class_error.html" target="_top" xlink:title="Error">
<polygon fill="white" stroke="black" points="16,-194.5 16,-213.5 54,-213.5 54,-194.5 16,-194.5"/>
<text text-anchor="middle" x="35" y="-201.5" font-family="Helvetica,sans-Serif" font-size="10.00">Error</text>
</a>
</g>
<!-- Node4&#45;&gt;Node3 -->
<g id="edge6" class="edge"><title>Node4&#45;&gt;Node3</title>
<path fill="none" stroke="#9a32cd" stroke-dasharray="5,2" d="M35,-184.224C35,-168.697 35,-147.358 35,-135.616"/>
<polygon fill="#9a32cd" stroke="#9a32cd" points="31.5001,-184.282 35,-194.282 38.5001,-184.282 31.5001,-184.282"/>
<text text-anchor="middle" x="62.5" y="-168" font-family="Helvetica,sans-Serif" font-size="10.00"> _globalError</text>
<text text-anchor="middle" x="62.5" y="-157" font-family="Helvetica,sans-Serif" font-size="10.00">m_error</text>
</g>
<!-- Node5 -->
<g id="node8" class="node"><title>Node5</title>
<a xlink:href="class_p_i_d_source.html" target="_top" xlink:title="PIDSource">
<polygon fill="white" stroke="black" points="88.5,-58.5 88.5,-77.5 151.5,-77.5 151.5,-58.5 88.5,-58.5"/>
<text text-anchor="middle" x="120" y="-65.5" font-family="Helvetica,sans-Serif" font-size="10.00">PIDSource</text>
</a>
</g>
<!-- Node5&#45;&gt;Node1 -->
<g id="edge8" class="edge"><title>Node5&#45;&gt;Node1</title>
<path fill="none" stroke="midnightblue" d="M120,-47.953C120,-38.2875 120,-27.0312 120,-19.5052"/>
<polygon fill="midnightblue" stroke="midnightblue" points="116.5,-48.25 120,-58.25 123.5,-48.25 116.5,-48.25"/>
</g>
<!-- Node6 -->
<g id="node10" class="node"><title>Node6</title>
<a xlink:href="class_live_window_sendable.html" target="_top" xlink:title="LiveWindowSendable">
<polygon fill="white" stroke="black" points="170,-58.5 170,-77.5 278,-77.5 278,-58.5 170,-58.5"/>
<text text-anchor="middle" x="224" y="-65.5" font-family="Helvetica,sans-Serif" font-size="10.00">LiveWindowSendable</text>
</a>
</g>
<!-- Node6&#45;&gt;Node1 -->
<g id="edge10" class="edge"><title>Node6&#45;&gt;Node1</title>
<path fill="none" stroke="midnightblue" d="M199.229,-53.662C179.615,-43.1005 152.801,-28.6622 135.944,-19.5852"/>
<polygon fill="midnightblue" stroke="midnightblue" points="197.741,-56.8354 208.205,-58.4948 201.059,-50.6721 197.741,-56.8354"/>
</g>
<!-- Node7 -->
<g id="node12" class="node"><title>Node7</title>
<a xlink:href="class_sendable.html" target="_top" xlink:title="Sendable">
<polygon fill="white" stroke="black" points="195.5,-116.5 195.5,-135.5 252.5,-135.5 252.5,-116.5 195.5,-116.5"/>
<text text-anchor="middle" x="224" y="-123.5" font-family="Helvetica,sans-Serif" font-size="10.00">Sendable</text>
</a>
</g>
<!-- Node7&#45;&gt;Node6 -->
<g id="edge12" class="edge"><title>Node7&#45;&gt;Node6</title>
<path fill="none" stroke="midnightblue" d="M224,-105.953C224,-96.2875 224,-85.0312 224,-77.5052"/>
<polygon fill="midnightblue" stroke="midnightblue" points="220.5,-106.25 224,-116.25 227.5,-106.25 220.5,-106.25"/>
</g>
</g>
</svg>
