<?xml version="1.0" encoding="UTF-8" standalone="no"?>
<!DOCTYPE svg PUBLIC "-//W3C//DTD SVG 1.1//EN"
 "http://www.w3.org/Graphics/SVG/1.1/DTD/svg11.dtd">
<!-- Generated by graphviz version 2.28.0 (20110507.0327)
 -->
<!-- Title: SolenoidBase Pages: 1 -->
<svg width="166pt" height="232pt"
 viewBox="0.00 0.00 166.00 232.00" xmlns="http://www.w3.org/2000/svg" xmlns:xlink="http://www.w3.org/1999/xlink">
<g id="graph1" class="graph" transform="scale(1 1) rotate(0) translate(4 228)">
<title>SolenoidBase</title>
<polygon fill="white" stroke="white" points="-4,5 -4,-228 163,-228 163,5 -4,5"/>
<!-- Node1 -->
<g id="node1" class="node"><title>Node1</title>
<polygon fill="#bfbfbf" stroke="black" points="42.5,-0.5 42.5,-19.5 119.5,-19.5 119.5,-0.5 42.5,-0.5"/>
<text text-anchor="middle" x="81" y="-7.5" font-family="Helvetica,sans-Serif" font-size="10.00">SolenoidBase</text>
</g>
<!-- Node2 -->
<g id="node2" class="node"><title>Node2</title>
<a xlink:href="class_sensor_base.html" target="_top" xlink:title="SensorBase">
<polygon fill="white" stroke="black" points="0,-68.5 0,-87.5 70,-87.5 70,-68.5 0,-68.5"/>
<text text-anchor="middle" x="35" y="-75.5" font-family="Helvetica,sans-Serif" font-size="10.00">SensorBase</text>
</a>
</g>
<!-- Node2&#45;&gt;Node1 -->
<g id="edge2" class="edge"><title>Node2&#45;&gt;Node1</title>
<path fill="none" stroke="midnightblue" d="M46.8919,-59.9377C55.8311,-47.112 67.7164,-30.0591 74.838,-19.8411"/>
<polygon fill="midnightblue" stroke="midnightblue" points="43.8603,-58.1664 41.0137,-68.3717 49.6031,-62.1689 43.8603,-58.1664"/>
</g>
<!-- Node3 -->
<g id="node4" class="node"><title>Node3</title>
<a xlink:href="class_error_base.html" target="_top" xlink:title="ErrorBase">
<polygon fill="white" stroke="black" points="31,-126.5 31,-145.5 91,-145.5 91,-126.5 31,-126.5"/>
<text text-anchor="middle" x="61" y="-133.5" font-family="Helvetica,sans-Serif" font-size="10.00">ErrorBase</text>
</a>
</g>
<!-- Node3&#45;&gt;Node2 -->
<g id="edge4" class="edge"><title>Node3&#45;&gt;Node2</title>
<path fill="none" stroke="midnightblue" d="M52.5933,-116.893C48.0119,-107.026 42.557,-95.2766 38.9488,-87.5052"/>
<polygon fill="midnightblue" stroke="midnightblue" points="49.5518,-118.654 56.9375,-126.25 55.9009,-115.706 49.5518,-118.654"/>
</g>
<!-- Node5 -->
<g id="node8" class="node"><title>Node5</title>
<a xlink:href="class_resource.html" target="_top" xlink:title="Resource">
<polygon fill="white" stroke="black" points="88,-68.5 88,-87.5 146,-87.5 146,-68.5 88,-68.5"/>
<text text-anchor="middle" x="117" y="-75.5" font-family="Helvetica,sans-Serif" font-size="10.00">Resource</text>
</a>
</g>
<!-- Node3&#45;&gt;Node5 -->
<g id="edge10" class="edge"><title>Node3&#45;&gt;Node5</title>
<path fill="none" stroke="midnightblue" d="M76.9584,-119.042C87.2214,-108.779 100.151,-95.8492 108.495,-87.5052"/>
<polygon fill="midnightblue" stroke="midnightblue" points="74.3462,-116.704 69.75,-126.25 79.296,-121.654 74.3462,-116.704"/>
</g>
<!-- Node4 -->
<g id="node6" class="node"><title>Node4</title>
<a xlink:href="class_error.html" target="_top" xlink:title="Error">
<polygon fill="white" stroke="black" points="42,-204.5 42,-223.5 80,-223.5 80,-204.5 42,-204.5"/>
<text text-anchor="middle" x="61" y="-211.5" font-family="Helvetica,sans-Serif" font-size="10.00">Error</text>
</a>
</g>
<!-- Node4&#45;&gt;Node3 -->
<g id="edge6" class="edge"><title>Node4&#45;&gt;Node3</title>
<path fill="none" stroke="#9a32cd" stroke-dasharray="5,2" d="M61,-194.224C61,-178.697 61,-157.358 61,-145.616"/>
<polygon fill="#9a32cd" stroke="#9a32cd" points="57.5001,-194.282 61,-204.282 64.5001,-194.282 57.5001,-194.282"/>
<text text-anchor="middle" x="88.5" y="-178" font-family="Helvetica,sans-Serif" font-size="10.00"> _globalError</text>
<text text-anchor="middle" x="88.5" y="-167" font-family="Helvetica,sans-Serif" font-size="10.00">m_error</text>
</g>
<!-- Node5&#45;&gt;Node1 -->
<g id="edge8" class="edge"><title>Node5&#45;&gt;Node1</title>
<path fill="none" stroke="#9a32cd" stroke-dasharray="5,2" d="M107.489,-59.563C100.517,-46.7815 91.3418,-29.9599 85.8224,-19.8411"/>
<polygon fill="#9a32cd" stroke="#9a32cd" points="104.432,-61.2687 112.294,-68.3717 110.578,-57.9167 104.432,-61.2687"/>
<text text-anchor="middle" x="130" y="-41.5" font-family="Helvetica,sans-Serif" font-size="10.00"> m_allocated</text>
</g>
</g>
</svg>
