<?xml version="1.0" encoding="UTF-8" standalone="no"?>
<!DOCTYPE svg PUBLIC "-//W3C//DTD SVG 1.1//EN"
 "http://www.w3.org/Graphics/SVG/1.1/DTD/svg11.dtd">
<!-- Generated by graphviz version 2.28.0 (20110507.0327)
 -->
<!-- Title: Talon::PIDWrite Pages: 1 -->
<svg width="834pt" height="85pt"
 viewBox="0.00 0.00 834.00 85.00" xmlns="http://www.w3.org/2000/svg" xmlns:xlink="http://www.w3.org/1999/xlink">
<g id="graph1" class="graph" transform="scale(1 1) rotate(0) translate(4 81)">
<title>Talon::PIDWrite</title>
<polygon fill="white" stroke="white" points="-4,5 -4,-81 831,-81 831,5 -4,5"/>
<!-- Node1 -->
<g id="node1" class="node"><title>Node1</title>
<polygon fill="#bfbfbf" stroke="black" points="0.5,-19.5 0.5,-38.5 85.5,-38.5 85.5,-19.5 0.5,-19.5"/>
<text text-anchor="middle" x="43" y="-26.5" font-family="Helvetica,sans-Serif" font-size="10.00">Talon::PIDWrite</text>
</g>
<!-- Node2 -->
<g id="node3" class="node"><title>Node2</title>
<a xlink:href="class_talon.html#a139bb330021efa545fd6047fa291dbeb" target="_top" xlink:title="Talon::Set">
<polygon fill="white" stroke="black" points="122.5,-19.5 122.5,-38.5 183.5,-38.5 183.5,-19.5 122.5,-19.5"/>
<text text-anchor="middle" x="153" y="-26.5" font-family="Helvetica,sans-Serif" font-size="10.00">Talon::Set</text>
</a>
</g>
<!-- Node1&#45;&gt;Node2 -->
<g id="edge2" class="edge"><title>Node1&#45;&gt;Node2</title>
<path fill="none" stroke="midnightblue" d="M85.7556,-29C94.4488,-29 103.589,-29 112.209,-29"/>
<polygon fill="midnightblue" stroke="midnightblue" points="112.4,-32.5001 122.4,-29 112.4,-25.5001 112.4,-32.5001"/>
</g>
<!-- Node3 -->
<g id="node5" class="node"><title>Node3</title>
<a xlink:href="class_safe_p_w_m.html#af1ed936d88f3ee6446b01c17feb24b78" target="_top" xlink:title="SafePWM::SetSpeed">
<polygon fill="white" stroke="black" points="220,-19.5 220,-38.5 330,-38.5 330,-19.5 220,-19.5"/>
<text text-anchor="middle" x="275" y="-26.5" font-family="Helvetica,sans-Serif" font-size="10.00">SafePWM::SetSpeed</text>
</a>
</g>
<!-- Node2&#45;&gt;Node3 -->
<g id="edge4" class="edge"><title>Node2&#45;&gt;Node3</title>
<path fill="none" stroke="midnightblue" d="M183.663,-29C191.63,-29 200.566,-29 209.636,-29"/>
<polygon fill="midnightblue" stroke="midnightblue" points="209.889,-32.5001 219.888,-29 209.888,-25.5001 209.889,-32.5001"/>
</g>
<!-- Node4 -->
<g id="node7" class="node"><title>Node4</title>
<a xlink:href="class_p_w_m.html#a947e5f6073da9e4d1b60db0c7791ca9c" target="_top" xlink:title="PWM::SetSpeed">
<polygon fill="white" stroke="black" points="384,-38.5 384,-57.5 474,-57.5 474,-38.5 384,-38.5"/>
<text text-anchor="middle" x="429" y="-45.5" font-family="Helvetica,sans-Serif" font-size="10.00">PWM::SetSpeed</text>
</a>
</g>
<!-- Node3&#45;&gt;Node4 -->
<g id="edge6" class="edge"><title>Node3&#45;&gt;Node4</title>
<path fill="none" stroke="midnightblue" d="M330.017,-35.7522C344.162,-37.5203 359.419,-39.4273 373.584,-41.198"/>
<polygon fill="midnightblue" stroke="midnightblue" points="373.318,-44.6919 383.675,-42.4593 374.186,-37.7459 373.318,-44.6919"/>
</g>
<!-- Node7 -->
<g id="node14" class="node"><title>Node7</title>
<a xlink:href="class_motor_safety_helper.html#a67b80e9817dc725e0678de5e8f0bb39e" target="_top" xlink:title="MotorSafetyHelper::Feed">
<polygon fill="white" stroke="black" points="366.5,-0.5 366.5,-19.5 491.5,-19.5 491.5,-0.5 366.5,-0.5"/>
<text text-anchor="middle" x="429" y="-7.5" font-family="Helvetica,sans-Serif" font-size="10.00">MotorSafetyHelper::Feed</text>
</a>
</g>
<!-- Node3&#45;&gt;Node7 -->
<g id="edge14" class="edge"><title>Node3&#45;&gt;Node7</title>
<path fill="none" stroke="midnightblue" d="M330.017,-22.2478C338.573,-21.1783 347.536,-20.0581 356.417,-18.9478"/>
<polygon fill="midnightblue" stroke="midnightblue" points="356.896,-22.4153 366.385,-17.7019 356.028,-15.4694 356.896,-22.4153"/>
</g>
<!-- Node5 -->
<g id="node9" class="node"><title>Node5</title>
<a xlink:href="class_error_base.html#a05790f219c9e436a09752f73f7344024" target="_top" xlink:title="Check if the current error code represents a fatal error. ">
<polygon fill="white" stroke="black" points="702,-57.5 702,-76.5 826,-76.5 826,-57.5 702,-57.5"/>
<text text-anchor="middle" x="764" y="-64.5" font-family="Helvetica,sans-Serif" font-size="10.00">ErrorBase::StatusIsFatal</text>
</a>
</g>
<!-- Node4&#45;&gt;Node5 -->
<g id="edge8" class="edge"><title>Node4&#45;&gt;Node5</title>
<path fill="none" stroke="midnightblue" d="M469.799,-57.5105C487.506,-61.2756 508.679,-65.1443 528,-67 582.862,-72.2692 645.26,-71.9774 691.965,-70.5263"/>
<polygon fill="midnightblue" stroke="midnightblue" points="692.107,-74.0236 701.983,-70.1899 691.872,-67.0276 692.107,-74.0236"/>
</g>
<!-- Node6 -->
<g id="node11" class="node"><title>Node6</title>
<a xlink:href="class_p_w_m.html#a0c546e1aa7d5d091447a819e50fae9ca" target="_top" xlink:title="PWM::SetRaw">
<polygon fill="white" stroke="black" points="556.5,-38.5 556.5,-57.5 637.5,-57.5 637.5,-38.5 556.5,-38.5"/>
<text text-anchor="middle" x="597" y="-45.5" font-family="Helvetica,sans-Serif" font-size="10.00">PWM::SetRaw</text>
</a>
</g>
<!-- Node4&#45;&gt;Node6 -->
<g id="edge10" class="edge"><title>Node4&#45;&gt;Node6</title>
<path fill="none" stroke="midnightblue" d="M474.049,-48C496.205,-48 523.151,-48 546.073,-48"/>
<polygon fill="midnightblue" stroke="midnightblue" points="546.29,-51.5001 556.29,-48 546.29,-44.5001 546.29,-51.5001"/>
</g>
<!-- Node6&#45;&gt;Node5 -->
<g id="edge12" class="edge"><title>Node6&#45;&gt;Node5</title>
<path fill="none" stroke="midnightblue" d="M637.522,-52.551C653.846,-54.4308 673.286,-56.6693 691.931,-58.8163"/>
<polygon fill="midnightblue" stroke="midnightblue" points="691.55,-62.2954 701.884,-59.9624 692.35,-55.3414 691.55,-62.2954"/>
</g>
<!-- Node8 -->
<g id="node16" class="node"><title>Node8</title>
<a xlink:href="class_timer.html#a7fa6e6dffec055e5104ccd6bcadec9aa" target="_top" xlink:title="Timer::GetFPGATimestamp">
<polygon fill="white" stroke="black" points="528.5,-0.5 528.5,-19.5 665.5,-19.5 665.5,-0.5 528.5,-0.5"/>
<text text-anchor="middle" x="597" y="-7.5" font-family="Helvetica,sans-Serif" font-size="10.00">Timer::GetFPGATimestamp</text>
</a>
</g>
<!-- Node7&#45;&gt;Node8 -->
<g id="edge16" class="edge"><title>Node7&#45;&gt;Node8</title>
<path fill="none" stroke="midnightblue" d="M491.812,-10C500.359,-10 509.227,-10 518.02,-10"/>
<polygon fill="midnightblue" stroke="midnightblue" points="518.283,-13.5001 528.283,-10 518.283,-6.5001 518.283,-13.5001"/>
</g>
<!-- Node9 -->
<g id="node18" class="node"><title>Node9</title>
<a xlink:href="_utility_8h.html#ababf055d95368485d48bd9a0231853f3" target="_top" xlink:title="GetFPGATime">
<polygon fill="white" stroke="black" points="724,-0.5 724,-19.5 804,-19.5 804,-0.5 724,-0.5"/>
<text text-anchor="middle" x="764" y="-7.5" font-family="Helvetica,sans-Serif" font-size="10.00">GetFPGATime</text>
</a>
</g>
<!-- Node8&#45;&gt;Node9 -->
<g id="edge18" class="edge"><title>Node8&#45;&gt;Node9</title>
<path fill="none" stroke="midnightblue" d="M665.588,-10C681.641,-10 698.473,-10 713.543,-10"/>
<polygon fill="midnightblue" stroke="midnightblue" points="713.664,-13.5001 723.663,-10 713.663,-6.5001 713.664,-13.5001"/>
</g>
</g>
</svg>
