<?xml version="1.0" encoding="UTF-8" standalone="no"?>
<!DOCTYPE svg PUBLIC "-//W3C//DTD SVG 1.1//EN"
 "http://www.w3.org/Graphics/SVG/1.1/DTD/svg11.dtd">
<!-- Generated by graphviz version 2.28.0 (20110507.0327)
 -->
<!-- Title: Subsystem::InitDefaultCommand Pages: 1 -->
<svg width="486pt" height="28pt"
 viewBox="0.00 0.00 486.00 28.00" xmlns="http://www.w3.org/2000/svg" xmlns:xlink="http://www.w3.org/1999/xlink">
<g id="graph1" class="graph" transform="scale(1 1) rotate(0) translate(4 24)">
<title>Subsystem::InitDefaultCommand</title>
<polygon fill="white" stroke="white" points="-4,5 -4,-24 483,-24 483,5 -4,5"/>
<!-- Node1 -->
<g id="node1" class="node"><title>Node1</title>
<polygon fill="#bfbfbf" stroke="black" points="0.5,-0.5 0.5,-19.5 159.5,-19.5 159.5,-0.5 0.5,-0.5"/>
<text text-anchor="middle" x="80" y="-7.5" font-family="Helvetica,sans-Serif" font-size="10.00">Subsystem::InitDefaultCommand</text>
</g>
<!-- Node2 -->
<g id="node3" class="node"><title>Node2</title>
<a xlink:href="class_subsystem.html#a50f7f4a6bb9befcd222e629b0c2c18b7" target="_top" xlink:title="Subsystem::GetDefaultCommand">
<polygon fill="white" stroke="black" points="196,-0.5 196,-19.5 358,-19.5 358,-0.5 196,-0.5"/>
<text text-anchor="middle" x="277" y="-7.5" font-family="Helvetica,sans-Serif" font-size="10.00">Subsystem::GetDefaultCommand</text>
</a>
</g>
<!-- Node1&#45;&gt;Node2 -->
<g id="edge2" class="edge"><title>Node1&#45;&gt;Node2</title>
<path fill="none" stroke="midnightblue" d="M169.815,-10C178.438,-10 187.151,-10 195.683,-10"/>
<polygon fill="midnightblue" stroke="midnightblue" points="169.752,-6.5001 159.752,-10 169.752,-13.5001 169.752,-6.5001"/>
</g>
<!-- Node3 -->
<g id="node5" class="node"><title>Node3</title>
<a xlink:href="class_scheduler.html#a6e17233143754873d7f29860047de2c1" target="_top" xlink:title="Scheduler::Run">
<polygon fill="white" stroke="black" points="394.5,-0.5 394.5,-19.5 477.5,-19.5 477.5,-0.5 394.5,-0.5"/>
<text text-anchor="middle" x="436" y="-7.5" font-family="Helvetica,sans-Serif" font-size="10.00">Scheduler::Run</text>
</a>
</g>
<!-- Node2&#45;&gt;Node3 -->
<g id="edge4" class="edge"><title>Node2&#45;&gt;Node3</title>
<path fill="none" stroke="midnightblue" d="M368.573,-10C377.578,-10 386.366,-10 394.447,-10"/>
<polygon fill="midnightblue" stroke="midnightblue" points="368.34,-6.5001 358.34,-10 368.34,-13.5001 368.34,-6.5001"/>
</g>
</g>
</svg>
