<?xml version="1.0" encoding="UTF-8" standalone="no"?>
<!DOCTYPE svg PUBLIC "-//W3C//DTD SVG 1.1//EN"
 "http://www.w3.org/Graphics/SVG/1.1/DTD/svg11.dtd">
<!-- Generated by graphviz version 2.28.0 (20110507.0327)
 -->
<!-- Title: AnalogPotentiometer::PIDGet Pages: 1 -->
<svg width="630pt" height="66pt"
 viewBox="0.00 0.00 630.00 66.00" xmlns="http://www.w3.org/2000/svg" xmlns:xlink="http://www.w3.org/1999/xlink">
<g id="graph1" class="graph" transform="scale(1 1) rotate(0) translate(4 62)">
<title>AnalogPotentiometer::PIDGet</title>
<polygon fill="white" stroke="white" points="-4,5 -4,-62 627,-62 627,5 -4,5"/>
<!-- Node1 -->
<g id="node1" class="node"><title>Node1</title>
<polygon fill="#bfbfbf" stroke="black" points="0.5,-14 0.5,-44 107.5,-44 107.5,-14 0.5,-14"/>
<text text-anchor="start" x="8.5" y="-32" font-family="Helvetica,sans-Serif" font-size="10.00">AnalogPotentiometer</text>
<text text-anchor="middle" x="54" y="-21" font-family="Helvetica,sans-Serif" font-size="10.00">::PIDGet</text>
</g>
<!-- Node2 -->
<g id="node3" class="node"><title>Node2</title>
<a xlink:href="class_analog_potentiometer.html#a7803d490e15d2aa9811559505828be17" target="_top" xlink:title="AnalogPotentiometer::Get">
<polygon fill="white" stroke="black" points="144.5,-19.5 144.5,-38.5 273.5,-38.5 273.5,-19.5 144.5,-19.5"/>
<text text-anchor="middle" x="209" y="-26.5" font-family="Helvetica,sans-Serif" font-size="10.00">AnalogPotentiometer::Get</text>
</a>
</g>
<!-- Node1&#45;&gt;Node2 -->
<g id="edge2" class="edge"><title>Node1&#45;&gt;Node2</title>
<path fill="none" stroke="midnightblue" d="M107.654,-29C116.258,-29 125.309,-29 134.309,-29"/>
<polygon fill="midnightblue" stroke="midnightblue" points="134.421,-32.5001 144.421,-29 134.421,-25.5001 134.421,-32.5001"/>
</g>
<!-- Node3 -->
<g id="node5" class="node"><title>Node3</title>
<a xlink:href="class_analog_input.html#a1da927d1b5784b66cf99f921bbfbe36b" target="_top" xlink:title="AnalogInput::GetVoltage">
<polygon fill="white" stroke="black" points="325,-38.5 325,-57.5 447,-57.5 447,-38.5 325,-38.5"/>
<text text-anchor="middle" x="386" y="-45.5" font-family="Helvetica,sans-Serif" font-size="10.00">AnalogInput::GetVoltage</text>
</a>
</g>
<!-- Node2&#45;&gt;Node3 -->
<g id="edge4" class="edge"><title>Node2&#45;&gt;Node3</title>
<path fill="none" stroke="midnightblue" d="M273.674,-35.9132C286.991,-37.359 301.105,-38.8914 314.649,-40.3618"/>
<polygon fill="midnightblue" stroke="midnightblue" points="314.552,-43.8719 324.872,-41.4718 315.308,-36.9128 314.552,-43.8719"/>
</g>
<!-- Node5 -->
<g id="node9" class="node"><title>Node5</title>
<a xlink:href="class_controller_power.html#a407d69acf87b0689659160746c75f331" target="_top" xlink:title="ControllerPower::GetVoltage5V">
<polygon fill="white" stroke="black" points="310,-0.5 310,-19.5 462,-19.5 462,-0.5 310,-0.5"/>
<text text-anchor="middle" x="386" y="-7.5" font-family="Helvetica,sans-Serif" font-size="10.00">ControllerPower::GetVoltage5V</text>
</a>
</g>
<!-- Node2&#45;&gt;Node5 -->
<g id="edge8" class="edge"><title>Node2&#45;&gt;Node5</title>
<path fill="none" stroke="midnightblue" d="M273.674,-22.0868C282.103,-21.1717 290.851,-20.2218 299.572,-19.275"/>
<polygon fill="midnightblue" stroke="midnightblue" points="300.213,-22.7261 309.777,-18.1671 299.457,-15.767 300.213,-22.7261"/>
</g>
<!-- Node4 -->
<g id="node7" class="node"><title>Node4</title>
<a xlink:href="class_error_base.html#a05790f219c9e436a09752f73f7344024" target="_top" xlink:title="Check if the current error code represents a fatal error. ">
<polygon fill="white" stroke="black" points="498,-38.5 498,-57.5 622,-57.5 622,-38.5 498,-38.5"/>
<text text-anchor="middle" x="560" y="-45.5" font-family="Helvetica,sans-Serif" font-size="10.00">ErrorBase::StatusIsFatal</text>
</a>
</g>
<!-- Node3&#45;&gt;Node4 -->
<g id="edge6" class="edge"><title>Node3&#45;&gt;Node4</title>
<path fill="none" stroke="midnightblue" d="M447.157,-48C460.204,-48 474.125,-48 487.558,-48"/>
<polygon fill="midnightblue" stroke="midnightblue" points="487.712,-51.5001 497.712,-48 487.712,-44.5001 487.712,-51.5001"/>
</g>
</g>
</svg>
