<?xml version="1.0" encoding="UTF-8" standalone="no"?>
<!DOCTYPE svg PUBLIC "-//W3C//DTD SVG 1.1//EN"
 "http://www.w3.org/Graphics/SVG/1.1/DTD/svg11.dtd">
<!-- Generated by graphviz version 2.28.0 (20110507.0327)
 -->
<!-- Title: SafePWM::SetSpeed Pages: 1 -->
<svg width="374pt" height="180pt"
 viewBox="0.00 0.00 374.00 180.00" xmlns="http://www.w3.org/2000/svg" xmlns:xlink="http://www.w3.org/1999/xlink">
<g id="graph1" class="graph" transform="scale(1 1) rotate(0) translate(4 176)">
<title>SafePWM::SetSpeed</title>
<polygon fill="white" stroke="white" points="-4,5 -4,-176 371,-176 371,5 -4,5"/>
<!-- Node1 -->
<g id="node1" class="node"><title>Node1</title>
<polygon fill="#bfbfbf" stroke="black" points="0,-76.5 0,-95.5 110,-95.5 110,-76.5 0,-76.5"/>
<text text-anchor="middle" x="55" y="-83.5" font-family="Helvetica,sans-Serif" font-size="10.00">SafePWM::SetSpeed</text>
</g>
<!-- Node2 -->
<g id="node3" class="node"><title>Node2</title>
<a xlink:href="class_jaguar.html#aac394eb2d4f46b29b477a7939cdec2a9" target="_top" xlink:title="Jaguar::Set">
<polygon fill="white" stroke="black" points="153,-152.5 153,-171.5 219,-171.5 219,-152.5 153,-152.5"/>
<text text-anchor="middle" x="186" y="-159.5" font-family="Helvetica,sans-Serif" font-size="10.00">Jaguar::Set</text>
</a>
</g>
<!-- Node1&#45;&gt;Node2 -->
<g id="edge2" class="edge"><title>Node1&#45;&gt;Node2</title>
<path fill="none" stroke="midnightblue" d="M78.6508,-101.334C96.5987,-113.241 122.481,-129.877 146,-143 151.788,-146.229 158.205,-149.484 164.135,-152.364"/>
<polygon fill="midnightblue" stroke="midnightblue" points="80.3022,-98.2279 70.043,-95.5821 76.4131,-104.048 80.3022,-98.2279"/>
</g>
<!-- Node4 -->
<g id="node7" class="node"><title>Node4</title>
<a xlink:href="class_talon.html#a139bb330021efa545fd6047fa291dbeb" target="_top" xlink:title="Talon::Set">
<polygon fill="white" stroke="black" points="155.5,-114.5 155.5,-133.5 216.5,-133.5 216.5,-114.5 155.5,-114.5"/>
<text text-anchor="middle" x="186" y="-121.5" font-family="Helvetica,sans-Serif" font-size="10.00">Talon::Set</text>
</a>
</g>
<!-- Node1&#45;&gt;Node4 -->
<g id="edge6" class="edge"><title>Node1&#45;&gt;Node4</title>
<path fill="none" stroke="midnightblue" d="M98.2557,-98.4474C116.836,-103.921 138.222,-110.221 155.111,-115.195"/>
<polygon fill="midnightblue" stroke="midnightblue" points="99.1336,-95.0574 88.5521,-95.589 97.1556,-101.772 99.1336,-95.0574"/>
</g>
<!-- Node6 -->
<g id="node11" class="node"><title>Node6</title>
<a xlink:href="class_talon_s_r_x.html#a9d7dab854708bf4deb2d57da2cbcf9a9" target="_top" xlink:title="TalonSRX::Set">
<polygon fill="white" stroke="black" points="146,-76.5 146,-95.5 226,-95.5 226,-76.5 146,-76.5"/>
<text text-anchor="middle" x="186" y="-83.5" font-family="Helvetica,sans-Serif" font-size="10.00">TalonSRX::Set</text>
</a>
</g>
<!-- Node1&#45;&gt;Node6 -->
<g id="edge10" class="edge"><title>Node1&#45;&gt;Node6</title>
<path fill="none" stroke="midnightblue" d="M120.401,-86C129.009,-86 137.62,-86 145.619,-86"/>
<polygon fill="midnightblue" stroke="midnightblue" points="120.334,-82.5001 110.334,-86 120.334,-89.5001 120.334,-82.5001"/>
</g>
<!-- Node8 -->
<g id="node15" class="node"><title>Node8</title>
<a xlink:href="class_victor.html#aeb1931d5462dcce004ba9bb5079b501a" target="_top" xlink:title="Victor::Set">
<polygon fill="white" stroke="black" points="154.5,-38.5 154.5,-57.5 217.5,-57.5 217.5,-38.5 154.5,-38.5"/>
<text text-anchor="middle" x="186" y="-45.5" font-family="Helvetica,sans-Serif" font-size="10.00">Victor::Set</text>
</a>
</g>
<!-- Node1&#45;&gt;Node8 -->
<g id="edge14" class="edge"><title>Node1&#45;&gt;Node8</title>
<path fill="none" stroke="midnightblue" d="M98.3626,-73.5211C116.598,-68.1495 137.519,-61.9866 154.234,-57.0627"/>
<polygon fill="midnightblue" stroke="midnightblue" points="97.1556,-70.2279 88.5521,-76.411 99.1336,-76.9426 97.1556,-70.2279"/>
</g>
<!-- Node10 -->
<g id="node19" class="node"><title>Node10</title>
<a xlink:href="class_victor_s_p.html#a5a776c3577f261f2679f77f5212e9d9c" target="_top" xlink:title="VictorSP::Set">
<polygon fill="white" stroke="black" points="147.5,-0.5 147.5,-19.5 224.5,-19.5 224.5,-0.5 147.5,-0.5"/>
<text text-anchor="middle" x="186" y="-7.5" font-family="Helvetica,sans-Serif" font-size="10.00">VictorSP::Set</text>
</a>
</g>
<!-- Node1&#45;&gt;Node10 -->
<g id="edge18" class="edge"><title>Node1&#45;&gt;Node10</title>
<path fill="none" stroke="midnightblue" d="M78.6508,-70.6661C96.5987,-58.7593 122.481,-42.123 146,-29 151.788,-25.7705 158.205,-22.5162 164.135,-19.6357"/>
<polygon fill="midnightblue" stroke="midnightblue" points="76.4131,-67.9519 70.043,-76.4179 80.3022,-73.7721 76.4131,-67.9519"/>
</g>
<!-- Node3 -->
<g id="node5" class="node"><title>Node3</title>
<a xlink:href="class_jaguar.html#af03d1c5b19cae7363d9eafdcb9ec354e" target="_top" xlink:title="Jaguar::PIDWrite">
<polygon fill="white" stroke="black" points="269,-152.5 269,-171.5 359,-171.5 359,-152.5 269,-152.5"/>
<text text-anchor="middle" x="314" y="-159.5" font-family="Helvetica,sans-Serif" font-size="10.00">Jaguar::PIDWrite</text>
</a>
</g>
<!-- Node2&#45;&gt;Node3 -->
<g id="edge4" class="edge"><title>Node2&#45;&gt;Node3</title>
<path fill="none" stroke="midnightblue" d="M229.373,-162C241.986,-162 255.839,-162 268.578,-162"/>
<polygon fill="midnightblue" stroke="midnightblue" points="229.121,-158.5 219.121,-162 229.121,-165.5 229.121,-158.5"/>
</g>
<!-- Node5 -->
<g id="node9" class="node"><title>Node5</title>
<a xlink:href="class_talon.html#a8485adbd32b68543d34bb7b2ad4d3ccb" target="_top" xlink:title="Talon::PIDWrite">
<polygon fill="white" stroke="black" points="271.5,-114.5 271.5,-133.5 356.5,-133.5 356.5,-114.5 271.5,-114.5"/>
<text text-anchor="middle" x="314" y="-121.5" font-family="Helvetica,sans-Serif" font-size="10.00">Talon::PIDWrite</text>
</a>
</g>
<!-- Node4&#45;&gt;Node5 -->
<g id="edge8" class="edge"><title>Node4&#45;&gt;Node5</title>
<path fill="none" stroke="midnightblue" d="M226.934,-124C241.056,-124 256.971,-124 271.241,-124"/>
<polygon fill="midnightblue" stroke="midnightblue" points="226.541,-120.5 216.541,-124 226.541,-127.5 226.541,-120.5"/>
</g>
<!-- Node7 -->
<g id="node13" class="node"><title>Node7</title>
<a xlink:href="class_talon_s_r_x.html#acd94bb75b221f4a0c09437731c574869" target="_top" xlink:title="TalonSRX::PIDWrite">
<polygon fill="white" stroke="black" points="262,-76.5 262,-95.5 366,-95.5 366,-76.5 262,-76.5"/>
<text text-anchor="middle" x="314" y="-83.5" font-family="Helvetica,sans-Serif" font-size="10.00">TalonSRX::PIDWrite</text>
</a>
</g>
<!-- Node6&#45;&gt;Node7 -->
<g id="edge12" class="edge"><title>Node6&#45;&gt;Node7</title>
<path fill="none" stroke="midnightblue" d="M236.206,-86C244.603,-86 253.343,-86 261.791,-86"/>
<polygon fill="midnightblue" stroke="midnightblue" points="236.177,-82.5001 226.177,-86 236.176,-89.5001 236.177,-82.5001"/>
</g>
<!-- Node9 -->
<g id="node17" class="node"><title>Node9</title>
<a xlink:href="class_victor.html#a9b0d32b9299b6525d6450ff88c3365a7" target="_top" xlink:title="Victor::PIDWrite">
<polygon fill="white" stroke="black" points="270.5,-38.5 270.5,-57.5 357.5,-57.5 357.5,-38.5 270.5,-38.5"/>
<text text-anchor="middle" x="314" y="-45.5" font-family="Helvetica,sans-Serif" font-size="10.00">Victor::PIDWrite</text>
</a>
</g>
<!-- Node8&#45;&gt;Node9 -->
<g id="edge16" class="edge"><title>Node8&#45;&gt;Node9</title>
<path fill="none" stroke="midnightblue" d="M227.595,-48C241.274,-48 256.573,-48 270.403,-48"/>
<polygon fill="midnightblue" stroke="midnightblue" points="227.501,-44.5001 217.501,-48 227.501,-51.5001 227.501,-44.5001"/>
</g>
<!-- Node11 -->
<g id="node21" class="node"><title>Node11</title>
<a xlink:href="class_victor_s_p.html#a9178b159144029faea02ae32f024ba84" target="_top" xlink:title="VictorSP::PIDWrite">
<polygon fill="white" stroke="black" points="263.5,-0.5 263.5,-19.5 364.5,-19.5 364.5,-0.5 263.5,-0.5"/>
<text text-anchor="middle" x="314" y="-7.5" font-family="Helvetica,sans-Serif" font-size="10.00">VictorSP::PIDWrite</text>
</a>
</g>
<!-- Node10&#45;&gt;Node11 -->
<g id="edge20" class="edge"><title>Node10&#45;&gt;Node11</title>
<path fill="none" stroke="midnightblue" d="M234.959,-10C244.165,-10 253.826,-10 263.091,-10"/>
<polygon fill="midnightblue" stroke="midnightblue" points="234.804,-6.5001 224.804,-10 234.804,-13.5001 234.804,-6.5001"/>
</g>
</g>
</svg>
