<?xml version="1.0" encoding="UTF-8" standalone="no"?>
<!DOCTYPE svg PUBLIC "-//W3C//DTD SVG 1.1//EN"
 "http://www.w3.org/Graphics/SVG/1.1/DTD/svg11.dtd">
<!-- Generated by graphviz version 2.28.0 (20110507.0327)
 -->
<!-- Title: Relay::Get Pages: 1 -->
<svg width="330pt" height="28pt"
 viewBox="0.00 0.00 330.00 28.00" xmlns="http://www.w3.org/2000/svg" xmlns:xlink="http://www.w3.org/1999/xlink">
<g id="graph1" class="graph" transform="scale(1 1) rotate(0) translate(4 24)">
<title>Relay::Get</title>
<polygon fill="white" stroke="white" points="-4,5 -4,-24 327,-24 327,5 -4,5"/>
<!-- Node1 -->
<g id="node1" class="node"><title>Node1</title>
<polygon fill="#bfbfbf" stroke="black" points="0.5,-0.5 0.5,-19.5 63.5,-19.5 63.5,-0.5 0.5,-0.5"/>
<text text-anchor="middle" x="32" y="-7.5" font-family="Helvetica,sans-Serif" font-size="10.00">Relay::Get</text>
</g>
<!-- Node2 -->
<g id="node3" class="node"><title>Node2</title>
<a xlink:href="class_relay.html#a1d74890aaee4e09442103d8587c89273" target="_top" xlink:title="Relay::UpdateTable">
<polygon fill="white" stroke="black" points="100.5,-0.5 100.5,-19.5 201.5,-19.5 201.5,-0.5 100.5,-0.5"/>
<text text-anchor="middle" x="151" y="-7.5" font-family="Helvetica,sans-Serif" font-size="10.00">Relay::UpdateTable</text>
</a>
</g>
<!-- Node1&#45;&gt;Node2 -->
<g id="edge2" class="edge"><title>Node1&#45;&gt;Node2</title>
<path fill="none" stroke="midnightblue" d="M73.8764,-10C82.4594,-10 91.6006,-10 100.461,-10"/>
<polygon fill="midnightblue" stroke="midnightblue" points="73.7404,-6.5001 63.7404,-10 73.7403,-13.5001 73.7404,-6.5001"/>
</g>
<!-- Node3 -->
<g id="node5" class="node"><title>Node3</title>
<a xlink:href="class_relay.html#aff1d69abbdc1df23a702dde56c33c170" target="_top" xlink:title="Relay::InitTable">
<polygon fill="white" stroke="black" points="238.5,-0.5 238.5,-19.5 321.5,-19.5 321.5,-0.5 238.5,-0.5"/>
<text text-anchor="middle" x="280" y="-7.5" font-family="Helvetica,sans-Serif" font-size="10.00">Relay::InitTable</text>
</a>
</g>
<!-- Node2&#45;&gt;Node3 -->
<g id="edge4" class="edge"><title>Node2&#45;&gt;Node3</title>
<path fill="none" stroke="midnightblue" d="M211.866,-10C220.825,-10 229.882,-10 238.318,-10"/>
<polygon fill="midnightblue" stroke="midnightblue" points="211.829,-6.5001 201.829,-10 211.829,-13.5001 211.829,-6.5001"/>
</g>
</g>
</svg>
