<?xml version="1.0" encoding="UTF-8" standalone="no"?>
<!DOCTYPE svg PUBLIC "-//W3C//DTD SVG 1.1//EN"
 "http://www.w3.org/Graphics/SVG/1.1/DTD/svg11.dtd">
<!-- Generated by graphviz version 2.28.0 (20110507.0327)
 -->
<!-- Title: Compressor::UpdateTable Pages: 1 -->
<svg width="334pt" height="77pt"
 viewBox="0.00 0.00 334.00 77.00" xmlns="http://www.w3.org/2000/svg" xmlns:xlink="http://www.w3.org/1999/xlink">
<g id="graph1" class="graph" transform="scale(1 1) rotate(0) translate(4 73)">
<title>Compressor::UpdateTable</title>
<polygon fill="white" stroke="white" points="-4,5 -4,-73 331,-73 331,5 -4,5"/>
<!-- Node1 -->
<g id="node1" class="node"><title>Node1</title>
<polygon fill="#bfbfbf" stroke="black" points="0.5,-27.5 0.5,-46.5 129.5,-46.5 129.5,-27.5 0.5,-27.5"/>
<text text-anchor="middle" x="65" y="-34.5" font-family="Helvetica,sans-Serif" font-size="10.00">Compressor::UpdateTable</text>
</g>
<!-- Node2 -->
<g id="node3" class="node"><title>Node2</title>
<a xlink:href="class_compressor.html#a951cf9c276faa926510bf7b368efdef8" target="_top" xlink:title="Compressor::Enabled">
<polygon fill="white" stroke="black" points="191,-49.5 191,-68.5 301,-68.5 301,-49.5 191,-49.5"/>
<text text-anchor="middle" x="246" y="-56.5" font-family="Helvetica,sans-Serif" font-size="10.00">Compressor::Enabled</text>
</a>
</g>
<!-- Node1&#45;&gt;Node2 -->
<g id="edge2" class="edge"><title>Node1&#45;&gt;Node2</title>
<path fill="none" stroke="midnightblue" d="M129.613,-44.8183C146.173,-46.8536 164.027,-49.048 180.626,-51.0881"/>
<polygon fill="midnightblue" stroke="midnightblue" points="180.424,-54.5895 190.776,-52.3356 181.278,-47.6418 180.424,-54.5895"/>
</g>
<!-- Node3 -->
<g id="node5" class="node"><title>Node3</title>
<a xlink:href="class_compressor.html#a7ea914d2c9402f8bf732b47d2a98c210" target="_top" xlink:title="Compressor::GetPressureSwitch\lValue">
<polygon fill="white" stroke="black" points="166.5,-0 166.5,-30 325.5,-30 325.5,-0 166.5,-0"/>
<text text-anchor="start" x="174.5" y="-18" font-family="Helvetica,sans-Serif" font-size="10.00">Compressor::GetPressureSwitch</text>
<text text-anchor="middle" x="246" y="-7" font-family="Helvetica,sans-Serif" font-size="10.00">Value</text>
</a>
</g>
<!-- Node1&#45;&gt;Node3 -->
<g id="edge4" class="edge"><title>Node1&#45;&gt;Node3</title>
<path fill="none" stroke="midnightblue" d="M129.613,-29.1817C138.228,-28.1228 147.193,-27.0209 156.15,-25.9201"/>
<polygon fill="midnightblue" stroke="midnightblue" points="156.741,-29.3739 166.24,-24.68 155.887,-22.4261 156.741,-29.3739"/>
</g>
</g>
</svg>
