<?xml version="1.0" encoding="UTF-8" standalone="no"?>
<!DOCTYPE svg PUBLIC "-//W3C//DTD SVG 1.1//EN"
 "http://www.w3.org/Graphics/SVG/1.1/DTD/svg11.dtd">
<!-- Generated by graphviz version 2.28.0 (20110507.0327)
 -->
<!-- Title: Command::IsTimedOut Pages: 1 -->
<svg width="292pt" height="77pt"
 viewBox="0.00 0.00 292.00 77.00" xmlns="http://www.w3.org/2000/svg" xmlns:xlink="http://www.w3.org/1999/xlink">
<g id="graph1" class="graph" transform="scale(1 1) rotate(0) translate(4 73)">
<title>Command::IsTimedOut</title>
<polygon fill="white" stroke="white" points="-4,5 -4,-73 289,-73 289,5 -4,5"/>
<!-- Node1 -->
<g id="node1" class="node"><title>Node1</title>
<polygon fill="#bfbfbf" stroke="black" points="0,-27.5 0,-46.5 116,-46.5 116,-27.5 0,-27.5"/>
<text text-anchor="middle" x="58" y="-34.5" font-family="Helvetica,sans-Serif" font-size="10.00">Command::IsTimedOut</text>
</g>
<!-- Node2 -->
<g id="node3" class="node"><title>Node2</title>
<a xlink:href="class_wait_command.html#a118c9fa181b03cd80969a1a2b16508a5" target="_top" xlink:title="WaitCommand::IsFinished">
<polygon fill="white" stroke="black" points="152.5,-49.5 152.5,-68.5 283.5,-68.5 283.5,-49.5 152.5,-49.5"/>
<text text-anchor="middle" x="218" y="-56.5" font-family="Helvetica,sans-Serif" font-size="10.00">WaitCommand::IsFinished</text>
</a>
</g>
<!-- Node1&#45;&gt;Node2 -->
<g id="edge2" class="edge"><title>Node1&#45;&gt;Node2</title>
<path fill="none" stroke="midnightblue" d="M126.102,-46.3434C134.771,-47.5504 143.636,-48.7847 152.265,-49.9863"/>
<polygon fill="midnightblue" stroke="midnightblue" points="126.429,-42.8551 116.042,-44.9425 125.463,-49.7882 126.429,-42.8551"/>
</g>
<!-- Node3 -->
<g id="node5" class="node"><title>Node3</title>
<a xlink:href="class_modified_mock_command.html#a52cc2a489224ec94d97145870ed3ef8c" target="_top" xlink:title="ModifiedMockCommand\l::IsFinished">
<polygon fill="white" stroke="black" points="157.5,-0 157.5,-30 278.5,-30 278.5,-0 157.5,-0"/>
<text text-anchor="start" x="165.5" y="-18" font-family="Helvetica,sans-Serif" font-size="10.00">ModifiedMockCommand</text>
<text text-anchor="middle" x="218" y="-7" font-family="Helvetica,sans-Serif" font-size="10.00">::IsFinished</text>
</a>
</g>
<!-- Node1&#45;&gt;Node3 -->
<g id="edge4" class="edge"><title>Node1&#45;&gt;Node3</title>
<path fill="none" stroke="midnightblue" d="M126.264,-27.6341C136.605,-26.1943 147.22,-24.7162 157.38,-23.3016"/>
<polygon fill="midnightblue" stroke="midnightblue" points="125.463,-24.2118 116.042,-29.0575 126.429,-31.1449 125.463,-24.2118"/>
</g>
</g>
</svg>
