<?xml version="1.0" encoding="UTF-8" standalone="no"?>
<!DOCTYPE svg PUBLIC "-//W3C//DTD SVG 1.1//EN"
 "http://www.w3.org/Graphics/SVG/1.1/DTD/svg11.dtd">
<!-- Generated by graphviz version 2.28.0 (20110507.0327)
 -->
<!-- Title: CANJaguar::ConfigForwardLimit Pages: 1 -->
<svg width="622pt" height="97pt"
 viewBox="0.00 0.00 622.00 97.00" xmlns="http://www.w3.org/2000/svg" xmlns:xlink="http://www.w3.org/1999/xlink">
<g id="graph1" class="graph" transform="scale(1 1) rotate(0) translate(4 93)">
<title>CANJaguar::ConfigForwardLimit</title>
<polygon fill="white" stroke="white" points="-4,5 -4,-93 619,-93 619,5 -4,5"/>
<!-- Node1 -->
<g id="node1" class="node"><title>Node1</title>
<polygon fill="#bfbfbf" stroke="black" points="0.5,-23 0.5,-53 133.5,-53 133.5,-23 0.5,-23"/>
<text text-anchor="start" x="8.5" y="-41" font-family="Helvetica,sans-Serif" font-size="10.00">CANJaguar::ConfigForward</text>
<text text-anchor="middle" x="67" y="-30" font-family="Helvetica,sans-Serif" font-size="10.00">Limit</text>
</g>
<!-- Node2 -->
<g id="node3" class="node"><title>Node2</title>
<a xlink:href="class_c_a_n_jaguar.html#a97fe9cb246f90060495c808e31070650" target="_top" xlink:title="CANJaguar::verify">
<polygon fill="white" stroke="black" points="199.5,-50.5 199.5,-69.5 292.5,-69.5 292.5,-50.5 199.5,-50.5"/>
<text text-anchor="middle" x="246" y="-57.5" font-family="Helvetica,sans-Serif" font-size="10.00">CANJaguar::verify</text>
</a>
</g>
<!-- Node1&#45;&gt;Node2 -->
<g id="edge2" class="edge"><title>Node1&#45;&gt;Node2</title>
<path fill="none" stroke="midnightblue" d="M143.757,-47.4161C162.671,-49.767 182.377,-52.2164 199.324,-54.3227"/>
<polygon fill="midnightblue" stroke="midnightblue" points="144.012,-43.921 133.657,-46.1607 143.149,-50.8675 144.012,-43.921"/>
</g>
<!-- Node6 -->
<g id="node11" class="node"><title>Node6</title>
<a xlink:href="class_c_a_n_jaguar.html#a01b8ad2facc7971becbd08b84266f6e2" target="_top" xlink:title="CANJaguar::ConfigSoftPosition\lLimits">
<polygon fill="white" stroke="black" points="170.5,-1 170.5,-31 321.5,-31 321.5,-1 170.5,-1"/>
<text text-anchor="start" x="178.5" y="-19" font-family="Helvetica,sans-Serif" font-size="10.00">CANJaguar::ConfigSoftPosition</text>
<text text-anchor="middle" x="246" y="-8" font-family="Helvetica,sans-Serif" font-size="10.00">Limits</text>
</a>
</g>
<!-- Node1&#45;&gt;Node6 -->
<g id="edge10" class="edge"><title>Node1&#45;&gt;Node6</title>
<path fill="none" stroke="midnightblue" d="M143.821,-28.576C152.562,-27.4894 161.473,-26.3819 170.201,-25.297"/>
<polygon fill="midnightblue" stroke="midnightblue" points="143.149,-25.1325 133.657,-29.8393 144.012,-32.079 143.149,-25.1325"/>
</g>
<!-- Node3 -->
<g id="node5" class="node"><title>Node3</title>
<a xlink:href="class_c_a_n_jaguar.html#a3a22b02ece406993619f993b1e09012a" target="_top" xlink:title="CANJaguar::Set">
<polygon fill="white" stroke="black" points="358,-50.5 358,-69.5 444,-69.5 444,-50.5 358,-50.5"/>
<text text-anchor="middle" x="401" y="-57.5" font-family="Helvetica,sans-Serif" font-size="10.00">CANJaguar::Set</text>
</a>
</g>
<!-- Node2&#45;&gt;Node3 -->
<g id="edge4" class="edge"><title>Node2&#45;&gt;Node3</title>
<path fill="none" stroke="midnightblue" d="M303.043,-60C321.132,-60 340.868,-60 357.784,-60"/>
<polygon fill="midnightblue" stroke="midnightblue" points="302.905,-56.5001 292.905,-60 302.905,-63.5001 302.905,-56.5001"/>
</g>
<!-- Node4 -->
<g id="node7" class="node"><title>Node4</title>
<a xlink:href="class_c_a_n_jaguar.html#a2355d55f42083ab82870c79f742620e4" target="_top" xlink:title="CANJaguar::PIDWrite">
<polygon fill="white" stroke="black" points="492,-69.5 492,-88.5 602,-88.5 602,-69.5 492,-69.5"/>
<text text-anchor="middle" x="547" y="-76.5" font-family="Helvetica,sans-Serif" font-size="10.00">CANJaguar::PIDWrite</text>
</a>
</g>
<!-- Node3&#45;&gt;Node4 -->
<g id="edge6" class="edge"><title>Node3&#45;&gt;Node4</title>
<path fill="none" stroke="midnightblue" d="M454.11,-66.8756C466.376,-68.4941 479.478,-70.2228 491.832,-71.8529"/>
<polygon fill="midnightblue" stroke="midnightblue" points="454.41,-63.3849 444.038,-65.5467 453.494,-70.3248 454.41,-63.3849"/>
</g>
<!-- Node5 -->
<g id="node9" class="node"><title>Node5</title>
<a xlink:href="class_c_a_n_jaguar_test.html#a3c9026e62eb65e2d497bb7bbfaded297" target="_top" xlink:title="CANJaguarTest::SetJaguar">
<polygon fill="white" stroke="black" points="480,-31.5 480,-50.5 614,-50.5 614,-31.5 480,-31.5"/>
<text text-anchor="middle" x="547" y="-38.5" font-family="Helvetica,sans-Serif" font-size="10.00">CANJaguarTest::SetJaguar</text>
</a>
</g>
<!-- Node3&#45;&gt;Node5 -->
<g id="edge8" class="edge"><title>Node3&#45;&gt;Node5</title>
<path fill="none" stroke="midnightblue" d="M454.018,-53.1365C462.387,-52.0323 471.147,-50.8765 479.794,-49.7355"/>
<polygon fill="midnightblue" stroke="midnightblue" points="453.494,-49.6752 444.038,-54.4533 454.41,-56.6151 453.494,-49.6752"/>
</g>
</g>
</svg>
