<?xml version="1.0" encoding="UTF-8" standalone="no"?>
<!DOCTYPE svg PUBLIC "-//W3C//DTD SVG 1.1//EN"
 "http://www.w3.org/Graphics/SVG/1.1/DTD/svg11.dtd">
<!-- Generated by graphviz version 2.28.0 (20110507.0327)
 -->
<!-- Title: Counter Pages: 1 -->
<svg width="368pt" height="368pt"
 viewBox="0.00 0.00 368.00 368.00" xmlns="http://www.w3.org/2000/svg" xmlns:xlink="http://www.w3.org/1999/xlink">
<g id="graph1" class="graph" transform="scale(1 1) rotate(0) translate(4 364)">
<title>Counter</title>
<polygon fill="white" stroke="white" points="-4,5 -4,-364 365,-364 365,5 -4,5"/>
<!-- Node1 -->
<g id="node1" class="node"><title>Node1</title>
<polygon fill="#bfbfbf" stroke="black" points="172,-0.5 172,-19.5 222,-19.5 222,-0.5 172,-0.5"/>
<text text-anchor="middle" x="197" y="-7.5" font-family="Helvetica,sans-Serif" font-size="10.00">Counter</text>
</g>
<!-- Node2 -->
<g id="node2" class="node"><title>Node2</title>
<a xlink:href="class_sensor_base.html" target="_top" xlink:title="SensorBase">
<polygon fill="white" stroke="black" points="0,-204.5 0,-223.5 70,-223.5 70,-204.5 0,-204.5"/>
<text text-anchor="middle" x="35" y="-211.5" font-family="Helvetica,sans-Serif" font-size="10.00">SensorBase</text>
</a>
</g>
<!-- Node2&#45;&gt;Node1 -->
<g id="edge2" class="edge"><title>Node2&#45;&gt;Node1</title>
<path fill="none" stroke="midnightblue" d="M28.5433,-194.282C25.3525,-166.888 28.4566,-115.108 50,-78 74.8714,-35.1593 136.451,-19.2027 171.719,-13.6795"/>
<polygon fill="midnightblue" stroke="midnightblue" points="25.1389,-195.141 30.2608,-204.416 32.0404,-193.971 25.1389,-195.141"/>
</g>
<!-- Node2&#45;&gt;Node1 -->
<g id="edge14" class="edge"><title>Node2&#45;&gt;Node1</title>
<path fill="none" stroke="midnightblue" d="M40.2601,-194.282C43.3525,-166.888 46.4566,-115.108 68,-78 89.9964,-40.1113 140.705,-23.2508 171.756,-16.0384"/>
<polygon fill="midnightblue" stroke="midnightblue" points="36.7616,-194.035 38.8818,-204.416 43.6977,-194.978 36.7616,-194.035"/>
</g>
<!-- Node9 -->
<g id="node19" class="node"><title>Node9</title>
<a xlink:href="class_interruptable_sensor_base.html" target="_top" xlink:title="InterruptableSensorBase">
<polygon fill="white" stroke="black" points="68.5,-136.5 68.5,-155.5 191.5,-155.5 191.5,-136.5 68.5,-136.5"/>
<text text-anchor="middle" x="130" y="-143.5" font-family="Helvetica,sans-Serif" font-size="10.00">InterruptableSensorBase</text>
</a>
</g>
<!-- Node2&#45;&gt;Node9 -->
<g id="edge24" class="edge"><title>Node2&#45;&gt;Node9</title>
<path fill="none" stroke="midnightblue" d="M55.679,-198.634C74.5624,-185.515 101.858,-166.551 117.577,-155.63"/>
<polygon fill="midnightblue" stroke="midnightblue" points="53.6352,-195.792 47.4196,-204.372 57.6292,-201.54 53.6352,-195.792"/>
</g>
<!-- Node3 -->
<g id="node4" class="node"><title>Node3</title>
<a xlink:href="class_error_base.html" target="_top" xlink:title="ErrorBase">
<polygon fill="white" stroke="black" points="54,-262.5 54,-281.5 114,-281.5 114,-262.5 54,-262.5"/>
<text text-anchor="middle" x="84" y="-269.5" font-family="Helvetica,sans-Serif" font-size="10.00">ErrorBase</text>
</a>
</g>
<!-- Node3&#45;&gt;Node2 -->
<g id="edge4" class="edge"><title>Node3&#45;&gt;Node2</title>
<path fill="none" stroke="midnightblue" d="M69.5055,-254.435C60.6142,-244.273 49.5999,-231.686 42.442,-223.505"/>
<polygon fill="midnightblue" stroke="midnightblue" points="67.1246,-257.029 76.3438,-262.25 72.3927,-252.419 67.1246,-257.029"/>
</g>
<!-- Node10 -->
<g id="node22" class="node"><title>Node10</title>
<a xlink:href="class_resource.html" target="_top" xlink:title="Resource">
<polygon fill="white" stroke="black" points="90,-204.5 90,-223.5 148,-223.5 148,-204.5 90,-204.5"/>
<text text-anchor="middle" x="119" y="-211.5" font-family="Helvetica,sans-Serif" font-size="10.00">Resource</text>
</a>
</g>
<!-- Node3&#45;&gt;Node10 -->
<g id="edge28" class="edge"><title>Node3&#45;&gt;Node10</title>
<path fill="none" stroke="midnightblue" d="M94.9288,-253.514C101.174,-243.522 108.725,-231.44 113.684,-223.505"/>
<polygon fill="midnightblue" stroke="midnightblue" points="91.8008,-251.915 89.4688,-262.25 97.7368,-255.625 91.8008,-251.915"/>
</g>
<!-- Node4 -->
<g id="node6" class="node"><title>Node4</title>
<a xlink:href="class_error.html" target="_top" xlink:title="Error">
<polygon fill="white" stroke="black" points="65,-340.5 65,-359.5 103,-359.5 103,-340.5 65,-340.5"/>
<text text-anchor="middle" x="84" y="-347.5" font-family="Helvetica,sans-Serif" font-size="10.00">Error</text>
</a>
</g>
<!-- Node4&#45;&gt;Node3 -->
<g id="edge6" class="edge"><title>Node4&#45;&gt;Node3</title>
<path fill="none" stroke="#9a32cd" stroke-dasharray="5,2" d="M84,-330.224C84,-314.697 84,-293.358 84,-281.616"/>
<polygon fill="#9a32cd" stroke="#9a32cd" points="80.5001,-330.282 84,-340.282 87.5001,-330.282 80.5001,-330.282"/>
<text text-anchor="middle" x="111.5" y="-314" font-family="Helvetica,sans-Serif" font-size="10.00"> _globalError</text>
<text text-anchor="middle" x="111.5" y="-303" font-family="Helvetica,sans-Serif" font-size="10.00">m_error</text>
</g>
<!-- Node5 -->
<g id="node8" class="node"><title>Node5</title>
<a xlink:href="class_counter_base.html" target="_top" xlink:title="CounterBase">
<polygon fill="white" stroke="black" points="160.5,-78.5 160.5,-97.5 233.5,-97.5 233.5,-78.5 160.5,-78.5"/>
<text text-anchor="middle" x="197" y="-85.5" font-family="Helvetica,sans-Serif" font-size="10.00">CounterBase</text>
</a>
</g>
<!-- Node5&#45;&gt;Node1 -->
<g id="edge8" class="edge"><title>Node5&#45;&gt;Node1</title>
<path fill="none" stroke="midnightblue" d="M191.085,-68.2239C189.609,-52.6974 190.09,-31.3582 192.527,-19.6165"/>
<polygon fill="midnightblue" stroke="midnightblue" points="187.642,-68.8697 192.506,-78.2818 194.573,-67.8906 187.642,-68.8697"/>
</g>
<!-- Node5&#45;&gt;Node1 -->
<g id="edge16" class="edge"><title>Node5&#45;&gt;Node1</title>
<path fill="none" stroke="midnightblue" d="M202.915,-68.2239C204.391,-52.6974 203.91,-31.3582 201.473,-19.6165"/>
<polygon fill="midnightblue" stroke="midnightblue" points="199.427,-67.8906 201.494,-78.2818 206.358,-68.8697 199.427,-67.8906"/>
</g>
<!-- Node6 -->
<g id="node10" class="node"><title>Node6</title>
<a xlink:href="class_live_window_sendable.html" target="_top" xlink:title="LiveWindowSendable">
<polygon fill="white" stroke="black" points="252,-78.5 252,-97.5 360,-97.5 360,-78.5 252,-78.5"/>
<text text-anchor="middle" x="306" y="-85.5" font-family="Helvetica,sans-Serif" font-size="10.00">LiveWindowSendable</text>
</a>
</g>
<!-- Node6&#45;&gt;Node1 -->
<g id="edge10" class="edge"><title>Node6&#45;&gt;Node1</title>
<path fill="none" stroke="midnightblue" d="M280.519,-72.9807C256.026,-57.3648 220.826,-32.6121 204.885,-19.6165"/>
<polygon fill="midnightblue" stroke="midnightblue" points="278.667,-75.9509 289.002,-78.2818 282.377,-70.0145 278.667,-75.9509"/>
</g>
<!-- Node6&#45;&gt;Node1 -->
<g id="edge18" class="edge"><title>Node6&#45;&gt;Node1</title>
<path fill="none" stroke="midnightblue" d="M289.911,-71.9404C269.405,-56.2848 234.699,-32.3271 213.831,-19.6165"/>
<polygon fill="midnightblue" stroke="midnightblue" points="287.963,-74.861 297.99,-78.2818 292.285,-69.3544 287.963,-74.861"/>
</g>
<!-- Node7 -->
<g id="node12" class="node"><title>Node7</title>
<a xlink:href="class_sendable.html" target="_top" xlink:title="Sendable">
<polygon fill="white" stroke="black" points="277.5,-136.5 277.5,-155.5 334.5,-155.5 334.5,-136.5 277.5,-136.5"/>
<text text-anchor="middle" x="306" y="-143.5" font-family="Helvetica,sans-Serif" font-size="10.00">Sendable</text>
</a>
</g>
<!-- Node7&#45;&gt;Node6 -->
<g id="edge12" class="edge"><title>Node7&#45;&gt;Node6</title>
<path fill="none" stroke="midnightblue" d="M306,-125.953C306,-116.287 306,-105.031 306,-97.5052"/>
<polygon fill="midnightblue" stroke="midnightblue" points="302.5,-126.25 306,-136.25 309.5,-126.25 302.5,-126.25"/>
</g>
<!-- Node8 -->
<g id="node17" class="node"><title>Node8</title>
<a xlink:href="class_digital_source.html" target="_top" xlink:title="DigitalSource">
<polygon fill="white" stroke="black" points="68,-78.5 68,-97.5 142,-97.5 142,-78.5 68,-78.5"/>
<text text-anchor="middle" x="105" y="-85.5" font-family="Helvetica,sans-Serif" font-size="10.00">DigitalSource</text>
</a>
</g>
<!-- Node8&#45;&gt;Node1 -->
<g id="edge20" class="edge"><title>Node8&#45;&gt;Node1</title>
<path fill="none" stroke="#9a32cd" stroke-dasharray="5,2" d="M107.939,-68.2407C110.408,-58.1214 114.897,-46.0857 123,-38 136.069,-24.9596 155.933,-18.1643 171.791,-14.6538"/>
<polygon fill="#9a32cd" stroke="#9a32cd" points="104.478,-67.7035 105.978,-78.1915 111.346,-69.057 104.478,-67.7035"/>
<text text-anchor="middle" x="158" y="-52" font-family="Helvetica,sans-Serif" font-size="10.00"> m_downSource</text>
<text text-anchor="middle" x="158" y="-41" font-family="Helvetica,sans-Serif" font-size="10.00">m_upSource</text>
</g>
<!-- Node9&#45;&gt;Node8 -->
<g id="edge22" class="edge"><title>Node9&#45;&gt;Node8</title>
<path fill="none" stroke="midnightblue" d="M121.917,-126.893C117.511,-117.026 112.266,-105.277 108.797,-97.5052"/>
<polygon fill="midnightblue" stroke="midnightblue" points="118.821,-128.545 126.094,-136.25 125.213,-125.692 118.821,-128.545"/>
</g>
<!-- Node10&#45;&gt;Node9 -->
<g id="edge26" class="edge"><title>Node10&#45;&gt;Node9</title>
<path fill="none" stroke="#9a32cd" stroke-dasharray="5,2" d="M122.096,-194.425C124.2,-181.798 126.89,-165.662 128.526,-155.841"/>
<polygon fill="#9a32cd" stroke="#9a32cd" points="118.63,-193.932 120.438,-204.372 125.535,-195.083 118.63,-193.932"/>
<text text-anchor="middle" x="155" y="-177.5" font-family="Helvetica,sans-Serif" font-size="10.00"> m_interrupts</text>
</g>
</g>
</svg>
