<?xml version="1.0" encoding="UTF-8" standalone="no"?>
<!DOCTYPE svg PUBLIC "-//W3C//DTD SVG 1.1//EN"
 "http://www.w3.org/Graphics/SVG/1.1/DTD/svg11.dtd">
<!-- Generated by graphviz version 2.28.0 (20110507.0327)
 -->
<!-- Title: PWM::SetSpeed Pages: 1 -->
<svg width="376pt" height="47pt"
 viewBox="0.00 0.00 376.00 47.00" xmlns="http://www.w3.org/2000/svg" xmlns:xlink="http://www.w3.org/1999/xlink">
<g id="graph1" class="graph" transform="scale(1 1) rotate(0) translate(4 43)">
<title>PWM::SetSpeed</title>
<polygon fill="white" stroke="white" points="-4,5 -4,-43 373,-43 373,5 -4,5"/>
<!-- Node1 -->
<g id="node1" class="node"><title>Node1</title>
<polygon fill="#bfbfbf" stroke="black" points="0,-19.5 0,-38.5 90,-38.5 90,-19.5 0,-19.5"/>
<text text-anchor="middle" x="45" y="-26.5" font-family="Helvetica,sans-Serif" font-size="10.00">PWM::SetSpeed</text>
</g>
<!-- Node2 -->
<g id="node3" class="node"><title>Node2</title>
<a xlink:href="class_error_base.html#a05790f219c9e436a09752f73f7344024" target="_top" xlink:title="Check if the current error code represents a fatal error. ">
<polygon fill="white" stroke="black" points="244,-19.5 244,-38.5 368,-38.5 368,-19.5 244,-19.5"/>
<text text-anchor="middle" x="306" y="-26.5" font-family="Helvetica,sans-Serif" font-size="10.00">ErrorBase::StatusIsFatal</text>
</a>
</g>
<!-- Node1&#45;&gt;Node2 -->
<g id="edge2" class="edge"><title>Node1&#45;&gt;Node2</title>
<path fill="none" stroke="midnightblue" d="M90.2294,-29C129.585,-29 187.856,-29 233.775,-29"/>
<polygon fill="midnightblue" stroke="midnightblue" points="233.968,-32.5001 243.968,-29 233.968,-25.5001 233.968,-32.5001"/>
</g>
<!-- Node3 -->
<g id="node5" class="node"><title>Node3</title>
<a xlink:href="class_p_w_m.html#a0c546e1aa7d5d091447a819e50fae9ca" target="_top" xlink:title="PWM::SetRaw">
<polygon fill="white" stroke="black" points="126.5,-0.5 126.5,-19.5 207.5,-19.5 207.5,-0.5 126.5,-0.5"/>
<text text-anchor="middle" x="167" y="-7.5" font-family="Helvetica,sans-Serif" font-size="10.00">PWM::SetRaw</text>
</a>
</g>
<!-- Node1&#45;&gt;Node3 -->
<g id="edge4" class="edge"><title>Node1&#45;&gt;Node3</title>
<path fill="none" stroke="midnightblue" d="M90.0022,-22.033C98.56,-20.678 107.586,-19.2489 116.312,-17.8672"/>
<polygon fill="midnightblue" stroke="midnightblue" points="117.043,-21.2953 126.372,-16.2744 115.948,-14.3814 117.043,-21.2953"/>
</g>
<!-- Node3&#45;&gt;Node2 -->
<g id="edge6" class="edge"><title>Node3&#45;&gt;Node2</title>
<path fill="none" stroke="midnightblue" d="M207.626,-15.4956C215.837,-16.6343 224.725,-17.867 233.677,-19.1085"/>
<polygon fill="midnightblue" stroke="midnightblue" points="233.394,-22.6026 243.78,-20.5096 234.355,-15.669 233.394,-22.6026"/>
</g>
</g>
</svg>
