<?xml version="1.0" encoding="UTF-8" standalone="no"?>
<!DOCTYPE svg PUBLIC "-//W3C//DTD SVG 1.1//EN"
 "http://www.w3.org/Graphics/SVG/1.1/DTD/svg11.dtd">
<!-- Generated by graphviz version 2.28.0 (20110507.0327)
 -->
<!-- Title: Encoder::InitTable Pages: 1 -->
<svg width="838pt" height="182pt"
 viewBox="0.00 0.00 838.00 182.25" xmlns="http://www.w3.org/2000/svg" xmlns:xlink="http://www.w3.org/1999/xlink">
<g id="graph1" class="graph" transform="scale(1 1) rotate(0) translate(4 178.252)">
<title>Encoder::InitTable</title>
<polygon fill="white" stroke="white" points="-4,5 -4,-178.252 835,-178.252 835,5 -4,5"/>
<!-- Node1 -->
<g id="node1" class="node"><title>Node1</title>
<polygon fill="#bfbfbf" stroke="black" points="0.5,-104.5 0.5,-123.5 95.5,-123.5 95.5,-104.5 0.5,-104.5"/>
<text text-anchor="middle" x="48" y="-111.5" font-family="Helvetica,sans-Serif" font-size="10.00">Encoder::InitTable</text>
</g>
<!-- Node2 -->
<g id="node3" class="node"><title>Node2</title>
<a xlink:href="class_encoder.html#a2f6a1ab80e3590e2687551b22d8669e4" target="_top" xlink:title="Encoder::UpdateTable">
<polygon fill="white" stroke="black" points="132.5,-104.5 132.5,-123.5 245.5,-123.5 245.5,-104.5 132.5,-104.5"/>
<text text-anchor="middle" x="189" y="-111.5" font-family="Helvetica,sans-Serif" font-size="10.00">Encoder::UpdateTable</text>
</a>
</g>
<!-- Node1&#45;&gt;Node2 -->
<g id="edge2" class="edge"><title>Node1&#45;&gt;Node2</title>
<path fill="none" stroke="midnightblue" d="M95.6717,-114C104.061,-114 112.95,-114 121.769,-114"/>
<polygon fill="midnightblue" stroke="midnightblue" points="122.055,-117.5 132.055,-114 122.055,-110.5 122.055,-117.5"/>
</g>
<!-- Node3 -->
<g id="node5" class="node"><title>Node3</title>
<a xlink:href="class_encoder.html#a72423acddb85ee347fc213b8600843f7" target="_top" xlink:title="Encoder::GetRate">
<polygon fill="white" stroke="black" points="291.5,-133.5 291.5,-152.5 386.5,-152.5 386.5,-133.5 291.5,-133.5"/>
<text text-anchor="middle" x="339" y="-140.5" font-family="Helvetica,sans-Serif" font-size="10.00">Encoder::GetRate</text>
</a>
</g>
<!-- Node2&#45;&gt;Node3 -->
<g id="edge4" class="edge"><title>Node2&#45;&gt;Node3</title>
<path fill="none" stroke="midnightblue" d="M238.871,-123.576C252.421,-126.231 267.248,-129.136 281.209,-131.872"/>
<polygon fill="midnightblue" stroke="midnightblue" points="280.705,-135.34 291.191,-133.828 282.051,-128.47 280.705,-135.34"/>
</g>
<!-- Node7 -->
<g id="node15" class="node"><title>Node7</title>
<a xlink:href="class_encoder.html#a523cc5a0cbd52f937f2a25a14185bc22" target="_top" xlink:title="Encoder::GetDistance">
<polygon fill="white" stroke="black" points="282.5,-76.5 282.5,-95.5 395.5,-95.5 395.5,-76.5 282.5,-76.5"/>
<text text-anchor="middle" x="339" y="-83.5" font-family="Helvetica,sans-Serif" font-size="10.00">Encoder::GetDistance</text>
</a>
</g>
<!-- Node2&#45;&gt;Node7 -->
<g id="edge16" class="edge"><title>Node2&#45;&gt;Node7</title>
<path fill="none" stroke="midnightblue" d="M240.519,-104.442C252.426,-102.19 265.237,-99.7659 277.533,-97.4397"/>
<polygon fill="midnightblue" stroke="midnightblue" points="278.533,-100.813 287.708,-95.5146 277.232,-93.9346 278.533,-100.813"/>
</g>
<!-- Node4 -->
<g id="node7" class="node"><title>Node4</title>
<a xlink:href="class_error_base.html#a05790f219c9e436a09752f73f7344024" target="_top" xlink:title="Check if the current error code represents a fatal error. ">
<polygon fill="white" stroke="black" points="706,-95.5 706,-114.5 830,-114.5 830,-95.5 706,-95.5"/>
<text text-anchor="middle" x="768" y="-102.5" font-family="Helvetica,sans-Serif" font-size="10.00">ErrorBase::StatusIsFatal</text>
</a>
</g>
<!-- Node3&#45;&gt;Node4 -->
<g id="edge6" class="edge"><title>Node3&#45;&gt;Node4</title>
<path fill="none" stroke="midnightblue" d="M377.932,-152.505C440.168,-166.44 567.305,-187.898 670,-160 698.707,-152.201 727.901,-133.948 746.653,-120.602"/>
<polygon fill="midnightblue" stroke="midnightblue" points="748.729,-123.419 754.734,-114.69 744.596,-117.77 748.729,-123.419"/>
</g>
<!-- Node5 -->
<g id="node9" class="node"><title>Node5</title>
<a xlink:href="class_encoder.html#a9825883787337876f6d62951d7eaac24" target="_top" xlink:title="Encoder::GetPeriod">
<polygon fill="white" stroke="black" points="432,-133.5 432,-152.5 534,-152.5 534,-133.5 432,-133.5"/>
<text text-anchor="middle" x="483" y="-140.5" font-family="Helvetica,sans-Serif" font-size="10.00">Encoder::GetPeriod</text>
</a>
</g>
<!-- Node3&#45;&gt;Node5 -->
<g id="edge8" class="edge"><title>Node3&#45;&gt;Node5</title>
<path fill="none" stroke="midnightblue" d="M386.89,-143C398.011,-143 410.029,-143 421.656,-143"/>
<polygon fill="midnightblue" stroke="midnightblue" points="421.741,-146.5 431.741,-143 421.741,-139.5 421.741,-146.5"/>
</g>
<!-- Node5&#45;&gt;Node4 -->
<g id="edge10" class="edge"><title>Node5&#45;&gt;Node4</title>
<path fill="none" stroke="midnightblue" d="M534.205,-148.01C571.906,-150.566 624.625,-151.571 670,-143 694.366,-138.398 720.455,-127.826 739.432,-118.999"/>
<polygon fill="midnightblue" stroke="midnightblue" points="741.152,-122.056 748.661,-114.582 738.13,-115.742 741.152,-122.056"/>
</g>
<!-- Node6 -->
<g id="node12" class="node"><title>Node6</title>
<a xlink:href="class_counter.html#a51030989a5ee306beaf40ac28ab362c0" target="_top" xlink:title="Counter::GetPeriod">
<polygon fill="white" stroke="black" points="570,-114.5 570,-133.5 670,-133.5 670,-114.5 570,-114.5"/>
<text text-anchor="middle" x="620" y="-121.5" font-family="Helvetica,sans-Serif" font-size="10.00">Counter::GetPeriod</text>
</a>
</g>
<!-- Node5&#45;&gt;Node6 -->
<g id="edge12" class="edge"><title>Node5&#45;&gt;Node6</title>
<path fill="none" stroke="midnightblue" d="M534.269,-135.925C542.477,-134.77 551.048,-133.564 559.453,-132.381"/>
<polygon fill="midnightblue" stroke="midnightblue" points="560.173,-135.814 569.587,-130.954 559.197,-128.882 560.173,-135.814"/>
</g>
<!-- Node6&#45;&gt;Node4 -->
<g id="edge14" class="edge"><title>Node6&#45;&gt;Node4</title>
<path fill="none" stroke="midnightblue" d="M670.022,-117.62C678.298,-116.543 687.037,-115.406 695.743,-114.273"/>
<polygon fill="midnightblue" stroke="midnightblue" points="696.453,-117.71 705.918,-112.949 695.55,-110.769 696.453,-117.71"/>
</g>
<!-- Node7&#45;&gt;Node4 -->
<g id="edge18" class="edge"><title>Node7&#45;&gt;Node4</title>
<path fill="none" stroke="midnightblue" d="M395.823,-88.4839C472.831,-91.9105 611.677,-98.0887 695.985,-101.84"/>
<polygon fill="midnightblue" stroke="midnightblue" points="695.842,-105.337 705.988,-102.285 696.153,-98.344 695.842,-105.337"/>
</g>
<!-- Node8 -->
<g id="node18" class="node"><title>Node8</title>
<a xlink:href="class_encoder.html#a0fd1cdb3939029d070c0663a96c3ae6d" target="_top" xlink:title="Encoder::GetRaw">
<polygon fill="white" stroke="black" points="436.5,-38.5 436.5,-57.5 529.5,-57.5 529.5,-38.5 436.5,-38.5"/>
<text text-anchor="middle" x="483" y="-45.5" font-family="Helvetica,sans-Serif" font-size="10.00">Encoder::GetRaw</text>
</a>
</g>
<!-- Node7&#45;&gt;Node8 -->
<g id="edge20" class="edge"><title>Node7&#45;&gt;Node8</title>
<path fill="none" stroke="midnightblue" d="M375.833,-76.411C394.163,-71.5056 416.678,-65.4804 436.25,-60.2429"/>
<polygon fill="midnightblue" stroke="midnightblue" points="437.424,-63.5521 446.179,-57.5859 435.614,-56.7901 437.424,-63.5521"/>
</g>
<!-- Node8&#45;&gt;Node4 -->
<g id="edge22" class="edge"><title>Node8&#45;&gt;Node4</title>
<path fill="none" stroke="midnightblue" d="M529.552,-51.3234C567.487,-54.6984 622.743,-61.0287 670,-72 691.591,-77.0126 715.144,-84.9638 733.634,-91.8053"/>
<polygon fill="midnightblue" stroke="midnightblue" points="732.481,-95.1107 743.072,-95.363 734.95,-88.5606 732.481,-95.1107"/>
</g>
<!-- Node9 -->
<g id="node21" class="node"><title>Node9</title>
<a xlink:href="class_counter.html#a72086dbd17d7baf28bacfb13562af6b6" target="_top" xlink:title="Counter::Get">
<polygon fill="white" stroke="black" points="584,-0.5 584,-19.5 656,-19.5 656,-0.5 584,-0.5"/>
<text text-anchor="middle" x="620" y="-7.5" font-family="Helvetica,sans-Serif" font-size="10.00">Counter::Get</text>
</a>
</g>
<!-- Node8&#45;&gt;Node9 -->
<g id="edge24" class="edge"><title>Node8&#45;&gt;Node9</title>
<path fill="none" stroke="midnightblue" d="M518.066,-38.411C535.413,-33.5281 556.702,-27.5357 575.249,-22.315"/>
<polygon fill="midnightblue" stroke="midnightblue" points="576.267,-25.6646 584.945,-19.5859 574.37,-18.9265 576.267,-25.6646"/>
</g>
<!-- Node9&#45;&gt;Node4 -->
<g id="edge26" class="edge"><title>Node9&#45;&gt;Node4</title>
<path fill="none" stroke="midnightblue" d="M642.903,-19.7138C651.529,-23.7988 661.407,-28.8062 670,-34 698.034,-50.944 728.156,-73.8011 747.267,-88.9506"/>
<polygon fill="midnightblue" stroke="midnightblue" points="745.231,-91.8042 755.226,-95.3199 749.605,-86.3389 745.231,-91.8042"/>
</g>
</g>
</svg>
