<?xml version="1.0" encoding="UTF-8" standalone="no"?>
<!DOCTYPE svg PUBLIC "-//W3C//DTD SVG 1.1//EN"
 "http://www.w3.org/Graphics/SVG/1.1/DTD/svg11.dtd">
<!-- Generated by graphviz version 2.28.0 (20110507.0327)
 -->
<!-- Title: CanTalonSRX::SetParam Pages: 1 -->
<svg width="302pt" height="126pt"
 viewBox="0.00 0.00 302.00 126.00" xmlns="http://www.w3.org/2000/svg" xmlns:xlink="http://www.w3.org/1999/xlink">
<g id="graph1" class="graph" transform="scale(1 1) rotate(0) translate(4 122)">
<title>CanTalonSRX::SetParam</title>
<polygon fill="white" stroke="white" points="-4,5 -4,-122 299,-122 299,5 -4,5"/>
<!-- Node1 -->
<g id="node1" class="node"><title>Node1</title>
<polygon fill="#bfbfbf" stroke="black" points="0.5,-54.5 0.5,-73.5 125.5,-73.5 125.5,-54.5 0.5,-54.5"/>
<text text-anchor="middle" x="63" y="-61.5" font-family="Helvetica,sans-Serif" font-size="10.00">CanTalonSRX::SetParam</text>
</g>
<!-- Node2 -->
<g id="node3" class="node"><title>Node2</title>
<a xlink:href="class_c_a_n_talon.html#aee51ab1fb48c625361d77e73d3c158a0" target="_top" xlink:title="CANTalon::ClearIaccum">
<polygon fill="white" stroke="black" points="168,-98.5 168,-117.5 288,-117.5 288,-98.5 168,-98.5"/>
<text text-anchor="middle" x="228" y="-105.5" font-family="Helvetica,sans-Serif" font-size="10.00">CANTalon::ClearIaccum</text>
</a>
</g>
<!-- Node1&#45;&gt;Node2 -->
<g id="edge2" class="edge"><title>Node1&#45;&gt;Node2</title>
<path fill="none" stroke="midnightblue" d="M109.028,-76.1547C135.111,-83.1955 167.472,-91.9312 191.7,-98.4713"/>
<polygon fill="midnightblue" stroke="midnightblue" points="109.935,-72.7745 99.3686,-73.5473 108.111,-79.5326 109.935,-72.7745"/>
</g>
<!-- Node3 -->
<g id="node5" class="node"><title>Node3</title>
<a xlink:href="class_c_a_n_talon.html#a5da34dc5d266817f0a666868f20429d8" target="_top" xlink:title="CANTalon::ConfigFwdLimit\lSwitchNormallyOpen">
<polygon fill="white" stroke="black" points="162,-49 162,-79 294,-79 294,-49 162,-49"/>
<text text-anchor="start" x="170" y="-67" font-family="Helvetica,sans-Serif" font-size="10.00">CANTalon::ConfigFwdLimit</text>
<text text-anchor="middle" x="228" y="-56" font-family="Helvetica,sans-Serif" font-size="10.00">SwitchNormallyOpen</text>
</a>
</g>
<!-- Node1&#45;&gt;Node3 -->
<g id="edge4" class="edge"><title>Node1&#45;&gt;Node3</title>
<path fill="none" stroke="midnightblue" d="M135.705,-64C144.372,-64 153.189,-64 161.756,-64"/>
<polygon fill="midnightblue" stroke="midnightblue" points="135.623,-60.5001 125.623,-64 135.623,-67.5001 135.623,-60.5001"/>
</g>
<!-- Node4 -->
<g id="node7" class="node"><title>Node4</title>
<a xlink:href="class_c_a_n_talon.html#a247a8434375eb32171058d61f366e7be" target="_top" xlink:title="CANTalon::ConfigRevLimit\lSwitchNormallyOpen">
<polygon fill="white" stroke="black" points="163,-0 163,-30 293,-30 293,-0 163,-0"/>
<text text-anchor="start" x="171" y="-18" font-family="Helvetica,sans-Serif" font-size="10.00">CANTalon::ConfigRevLimit</text>
<text text-anchor="middle" x="228" y="-7" font-family="Helvetica,sans-Serif" font-size="10.00">SwitchNormallyOpen</text>
</a>
</g>
<!-- Node1&#45;&gt;Node4 -->
<g id="edge6" class="edge"><title>Node1&#45;&gt;Node4</title>
<path fill="none" stroke="midnightblue" d="M105.429,-51.5459C127.202,-45.0008 154.054,-36.9287 176.979,-30.037"/>
<polygon fill="midnightblue" stroke="midnightblue" points="104.384,-48.2052 95.815,-54.436 106.399,-54.9089 104.384,-48.2052"/>
</g>
</g>
</svg>
