<?xml version="1.0" encoding="UTF-8" standalone="no"?>
<!DOCTYPE svg PUBLIC "-//W3C//DTD SVG 1.1//EN"
 "http://www.w3.org/Graphics/SVG/1.1/DTD/svg11.dtd">
<!-- Generated by graphviz version 2.28.0 (20110507.0327)
 -->
<!-- Title: AnalogPotentiometer::Get Pages: 1 -->
<svg width="426pt" height="87pt"
 viewBox="0.00 0.00 426.00 87.00" xmlns="http://www.w3.org/2000/svg" xmlns:xlink="http://www.w3.org/1999/xlink">
<g id="graph1" class="graph" transform="scale(1 1) rotate(0) translate(4 83)">
<title>AnalogPotentiometer::Get</title>
<polygon fill="white" stroke="white" points="-4,5 -4,-83 423,-83 423,5 -4,5"/>
<!-- Node1 -->
<g id="node1" class="node"><title>Node1</title>
<polygon fill="#bfbfbf" stroke="black" points="0.5,-29.5 0.5,-48.5 129.5,-48.5 129.5,-29.5 0.5,-29.5"/>
<text text-anchor="middle" x="65" y="-36.5" font-family="Helvetica,sans-Serif" font-size="10.00">AnalogPotentiometer::Get</text>
</g>
<!-- Node2 -->
<g id="node3" class="node"><title>Node2</title>
<a xlink:href="class_analog_potentiometer.html#a28436ae080febab11235680e3181390d" target="_top" xlink:title="AnalogPotentiometer\l::PIDGet">
<polygon fill="white" stroke="black" points="166.5,-49 166.5,-79 273.5,-79 273.5,-49 166.5,-49"/>
<text text-anchor="start" x="174.5" y="-67" font-family="Helvetica,sans-Serif" font-size="10.00">AnalogPotentiometer</text>
<text text-anchor="middle" x="220" y="-56" font-family="Helvetica,sans-Serif" font-size="10.00">::PIDGet</text>
</a>
</g>
<!-- Node1&#45;&gt;Node2 -->
<g id="edge2" class="edge"><title>Node1&#45;&gt;Node2</title>
<path fill="none" stroke="midnightblue" d="M134.463,-50.1867C145.181,-51.9381 156.113,-53.7243 166.403,-55.4057"/>
<polygon fill="midnightblue" stroke="midnightblue" points="134.713,-46.6812 124.279,-48.5227 133.584,-53.5896 134.713,-46.6812"/>
</g>
<!-- Node3 -->
<g id="node5" class="node"><title>Node3</title>
<a xlink:href="class_analog_potentiometer.html#a66cead815a94e4d0bbac7637def36ce9" target="_top" xlink:title="AnalogPotentiometer\l::UpdateTable">
<polygon fill="white" stroke="black" points="166.5,-0 166.5,-30 273.5,-30 273.5,-0 166.5,-0"/>
<text text-anchor="start" x="174.5" y="-18" font-family="Helvetica,sans-Serif" font-size="10.00">AnalogPotentiometer</text>
<text text-anchor="middle" x="220" y="-7" font-family="Helvetica,sans-Serif" font-size="10.00">::UpdateTable</text>
</a>
</g>
<!-- Node1&#45;&gt;Node3 -->
<g id="edge4" class="edge"><title>Node1&#45;&gt;Node3</title>
<path fill="none" stroke="midnightblue" d="M137.062,-27.853C146.872,-26.3142 156.802,-24.7566 166.202,-23.282"/>
<polygon fill="midnightblue" stroke="midnightblue" points="136.246,-24.4381 126.909,-29.4456 137.331,-31.3536 136.246,-24.4381"/>
</g>
<!-- Node4 -->
<g id="node7" class="node"><title>Node4</title>
<a xlink:href="class_analog_potentiometer.html#a3ccaf0866c56b0a1c79e12419b683e77" target="_top" xlink:title="AnalogPotentiometer\l::InitTable">
<polygon fill="white" stroke="black" points="310.5,-0 310.5,-30 417.5,-30 417.5,-0 310.5,-0"/>
<text text-anchor="start" x="318.5" y="-18" font-family="Helvetica,sans-Serif" font-size="10.00">AnalogPotentiometer</text>
<text text-anchor="middle" x="364" y="-7" font-family="Helvetica,sans-Serif" font-size="10.00">::InitTable</text>
</a>
</g>
<!-- Node3&#45;&gt;Node4 -->
<g id="edge6" class="edge"><title>Node3&#45;&gt;Node4</title>
<path fill="none" stroke="midnightblue" d="M283.994,-15C292.704,-15 301.578,-15 310.08,-15"/>
<polygon fill="midnightblue" stroke="midnightblue" points="283.876,-11.5001 273.876,-15 283.876,-18.5001 283.876,-11.5001"/>
</g>
</g>
</svg>
