<?xml version="1.0" encoding="UTF-8" standalone="no"?>
<!DOCTYPE svg PUBLIC "-//W3C//DTD SVG 1.1//EN"
 "http://www.w3.org/Graphics/SVG/1.1/DTD/svg11.dtd">
<!-- Generated by graphviz version 2.28.0 (20110507.0327)
 -->
<!-- Title: CANJaguar::UpdateSyncGroup Pages: 1 -->
<svg width="502pt" height="220pt"
 viewBox="0.00 0.00 502.00 220.00" xmlns="http://www.w3.org/2000/svg" xmlns:xlink="http://www.w3.org/1999/xlink">
<g id="graph1" class="graph" transform="scale(1 1) rotate(0) translate(4 216)">
<title>CANJaguar::UpdateSyncGroup</title>
<polygon fill="white" stroke="white" points="-4,5 -4,-216 499,-216 499,5 -4,5"/>
<!-- Node1 -->
<g id="node1" class="node"><title>Node1</title>
<polygon fill="#bfbfbf" stroke="black" points="0.5,-138.5 0.5,-157.5 151.5,-157.5 151.5,-138.5 0.5,-138.5"/>
<text text-anchor="middle" x="76" y="-145.5" font-family="Helvetica,sans-Serif" font-size="10.00">CANJaguar::UpdateSyncGroup</text>
</g>
<!-- Node2 -->
<g id="node3" class="node"><title>Node2</title>
<a xlink:href="class_robot_drive.html#a2e7fa1a9713332281012e8aae5d9570e" target="_top" xlink:title="RobotDrive::MecanumDrive\l_Cartesian">
<polygon fill="white" stroke="black" points="188.5,-182 188.5,-212 321.5,-212 321.5,-182 188.5,-182"/>
<text text-anchor="start" x="196.5" y="-200" font-family="Helvetica,sans-Serif" font-size="10.00">RobotDrive::MecanumDrive</text>
<text text-anchor="middle" x="255" y="-189" font-family="Helvetica,sans-Serif" font-size="10.00">_Cartesian</text>
</a>
</g>
<!-- Node1&#45;&gt;Node2 -->
<g id="edge2" class="edge"><title>Node1&#45;&gt;Node2</title>
<path fill="none" stroke="midnightblue" d="M121.35,-160.278C145.104,-166.854 174.564,-175.009 199.683,-181.963"/>
<polygon fill="midnightblue" stroke="midnightblue" points="122.119,-156.859 111.548,-157.564 120.251,-163.605 122.119,-156.859"/>
</g>
<!-- Node3 -->
<g id="node5" class="node"><title>Node3</title>
<a xlink:href="class_robot_drive.html#a3ba6d4ec2c07575543c4f47d348332f1" target="_top" xlink:title="RobotDrive::MecanumDrive\l_Polar">
<polygon fill="white" stroke="black" points="188.5,-133 188.5,-163 321.5,-163 321.5,-133 188.5,-133"/>
<text text-anchor="start" x="196.5" y="-151" font-family="Helvetica,sans-Serif" font-size="10.00">RobotDrive::MecanumDrive</text>
<text text-anchor="middle" x="255" y="-140" font-family="Helvetica,sans-Serif" font-size="10.00">_Polar</text>
</a>
</g>
<!-- Node1&#45;&gt;Node3 -->
<g id="edge4" class="edge"><title>Node1&#45;&gt;Node3</title>
<path fill="none" stroke="midnightblue" d="M161.61,-148C170.557,-148 179.558,-148 188.244,-148"/>
<polygon fill="midnightblue" stroke="midnightblue" points="161.551,-144.5 151.551,-148 161.551,-151.5 161.551,-144.5"/>
</g>
<!-- Node5 -->
<g id="node9" class="node"><title>Node5</title>
<a xlink:href="class_robot_drive.html#a6f17b92a6867d512188b497f192f0715" target="_top" xlink:title="RobotDrive::SetLeftRight\lMotorOutputs">
<polygon fill="white" stroke="black" points="194,-71 194,-101 316,-101 316,-71 194,-71"/>
<text text-anchor="start" x="202" y="-89" font-family="Helvetica,sans-Serif" font-size="10.00">RobotDrive::SetLeftRight</text>
<text text-anchor="middle" x="255" y="-78" font-family="Helvetica,sans-Serif" font-size="10.00">MotorOutputs</text>
</a>
</g>
<!-- Node1&#45;&gt;Node5 -->
<g id="edge8" class="edge"><title>Node1&#45;&gt;Node5</title>
<path fill="none" stroke="midnightblue" d="M113.776,-135.118C142.028,-125.222 181.115,-111.53 210.847,-101.116"/>
<polygon fill="midnightblue" stroke="midnightblue" points="112.549,-131.839 104.268,-138.448 114.863,-138.446 112.549,-131.839"/>
</g>
<!-- Node4 -->
<g id="node7" class="node"><title>Node4</title>
<a xlink:href="class_robot_drive.html#ad21b09eed120e95f1b5741a26f2f9084" target="_top" xlink:title="RobotDrive::HolonomicDrive">
<polygon fill="white" stroke="black" points="358,-152.5 358,-171.5 494,-171.5 494,-152.5 358,-152.5"/>
<text text-anchor="middle" x="426" y="-159.5" font-family="Helvetica,sans-Serif" font-size="10.00">RobotDrive::HolonomicDrive</text>
</a>
</g>
<!-- Node3&#45;&gt;Node4 -->
<g id="edge6" class="edge"><title>Node3&#45;&gt;Node4</title>
<path fill="none" stroke="midnightblue" d="M331.934,-154.29C340.612,-155.009 349.413,-155.738 357.964,-156.447"/>
<polygon fill="midnightblue" stroke="midnightblue" points="332.079,-150.79 321.824,-153.453 331.501,-157.767 332.079,-150.79"/>
</g>
<!-- Node6 -->
<g id="node11" class="node"><title>Node6</title>
<a xlink:href="class_robot_drive.html#aae039ef574600e668f8bc03ef47f37a4" target="_top" xlink:title="RobotDrive::RobotDrive">
<polygon fill="white" stroke="black" points="368,-114.5 368,-133.5 484,-133.5 484,-114.5 368,-114.5"/>
<text text-anchor="middle" x="426" y="-121.5" font-family="Helvetica,sans-Serif" font-size="10.00">RobotDrive::RobotDrive</text>
</a>
</g>
<!-- Node5&#45;&gt;Node6 -->
<g id="edge10" class="edge"><title>Node5&#45;&gt;Node6</title>
<path fill="none" stroke="midnightblue" d="M325.999,-101.739C345.228,-106.063 365.491,-110.619 382.64,-114.475"/>
<polygon fill="midnightblue" stroke="midnightblue" points="326.583,-98.2835 316.059,-99.5044 325.047,-105.113 326.583,-98.2835"/>
</g>
<!-- Node7 -->
<g id="node13" class="node"><title>Node7</title>
<a xlink:href="class_robot_drive.html#a00f3c6f7906685fe2f98ceaa8bb7e188" target="_top" xlink:title="RobotDrive::Drive">
<polygon fill="white" stroke="black" points="381,-76.5 381,-95.5 471,-95.5 471,-76.5 381,-76.5"/>
<text text-anchor="middle" x="426" y="-83.5" font-family="Helvetica,sans-Serif" font-size="10.00">RobotDrive::Drive</text>
</a>
</g>
<!-- Node5&#45;&gt;Node7 -->
<g id="edge12" class="edge"><title>Node5&#45;&gt;Node7</title>
<path fill="none" stroke="midnightblue" d="M326.209,-86C344.694,-86 364.119,-86 380.806,-86"/>
<polygon fill="midnightblue" stroke="midnightblue" points="326.059,-82.5001 316.059,-86 326.059,-89.5001 326.059,-82.5001"/>
</g>
<!-- Node8 -->
<g id="node15" class="node"><title>Node8</title>
<a xlink:href="class_robot_drive.html#a3df206fa45bf88254e7cd75adca4e973" target="_top" xlink:title="RobotDrive::TankDrive">
<polygon fill="white" stroke="black" points="370.5,-38.5 370.5,-57.5 481.5,-57.5 481.5,-38.5 370.5,-38.5"/>
<text text-anchor="middle" x="426" y="-45.5" font-family="Helvetica,sans-Serif" font-size="10.00">RobotDrive::TankDrive</text>
</a>
</g>
<!-- Node5&#45;&gt;Node8 -->
<g id="edge14" class="edge"><title>Node5&#45;&gt;Node8</title>
<path fill="none" stroke="midnightblue" d="M325.999,-70.2607C345.228,-65.9369 365.491,-61.3808 382.64,-57.5246"/>
<polygon fill="midnightblue" stroke="midnightblue" points="325.047,-66.8871 316.059,-72.4956 326.583,-73.7165 325.047,-66.8871"/>
</g>
<!-- Node9 -->
<g id="node17" class="node"><title>Node9</title>
<a xlink:href="class_robot_drive.html#ac95118d7b535c4f3fb3d56ba5b041e40" target="_top" xlink:title="RobotDrive::ArcadeDrive">
<polygon fill="white" stroke="black" points="365.5,-0.5 365.5,-19.5 486.5,-19.5 486.5,-0.5 365.5,-0.5"/>
<text text-anchor="middle" x="426" y="-7.5" font-family="Helvetica,sans-Serif" font-size="10.00">RobotDrive::ArcadeDrive</text>
</a>
</g>
<!-- Node5&#45;&gt;Node9 -->
<g id="edge16" class="edge"><title>Node5&#45;&gt;Node9</title>
<path fill="none" stroke="midnightblue" d="M288.065,-65.5282C307.685,-53.6568 333.624,-39.1044 358,-29 366.712,-25.3888 376.335,-22.2143 385.505,-19.5456"/>
<polygon fill="midnightblue" stroke="midnightblue" points="286.217,-62.5558 279.523,-70.7684 289.877,-68.5224 286.217,-62.5558"/>
</g>
</g>
</svg>
