<?xml version="1.0" encoding="UTF-8" standalone="no"?>
<!DOCTYPE svg PUBLIC "-//W3C//DTD SVG 1.1//EN"
 "http://www.w3.org/Graphics/SVG/1.1/DTD/svg11.dtd">
<!-- Generated by graphviz version 2.28.0 (20110507.0327)
 -->
<!-- Title: Encoder::SetMaxPeriod Pages: 1 -->
<svg width="442pt" height="47pt"
 viewBox="0.00 0.00 442.00 47.00" xmlns="http://www.w3.org/2000/svg" xmlns:xlink="http://www.w3.org/1999/xlink">
<g id="graph1" class="graph" transform="scale(1 1) rotate(0) translate(4 43)">
<title>Encoder::SetMaxPeriod</title>
<polygon fill="white" stroke="white" points="-4,5 -4,-43 439,-43 439,5 -4,5"/>
<!-- Node1 -->
<g id="node1" class="node"><title>Node1</title>
<polygon fill="#bfbfbf" stroke="black" points="0,-19.5 0,-38.5 120,-38.5 120,-19.5 0,-19.5"/>
<text text-anchor="middle" x="60" y="-26.5" font-family="Helvetica,sans-Serif" font-size="10.00">Encoder::SetMaxPeriod</text>
</g>
<!-- Node2 -->
<g id="node3" class="node"><title>Node2</title>
<a xlink:href="class_error_base.html#a05790f219c9e436a09752f73f7344024" target="_top" xlink:title="Check if the current error code represents a fatal error. ">
<polygon fill="white" stroke="black" points="310,-19.5 310,-38.5 434,-38.5 434,-19.5 310,-19.5"/>
<text text-anchor="middle" x="372" y="-26.5" font-family="Helvetica,sans-Serif" font-size="10.00">ErrorBase::StatusIsFatal</text>
</a>
</g>
<!-- Node1&#45;&gt;Node2 -->
<g id="edge2" class="edge"><title>Node1&#45;&gt;Node2</title>
<path fill="none" stroke="midnightblue" d="M120.038,-29C171.117,-29 245.116,-29 299.531,-29"/>
<polygon fill="midnightblue" stroke="midnightblue" points="299.797,-32.5001 309.797,-29 299.797,-25.5001 299.797,-32.5001"/>
</g>
<!-- Node3 -->
<g id="node5" class="node"><title>Node3</title>
<a xlink:href="class_counter.html#a8496d29a6b9424f76075396e9c729bca" target="_top" xlink:title="Counter::SetMaxPeriod">
<polygon fill="white" stroke="black" points="156,-0.5 156,-19.5 274,-19.5 274,-0.5 156,-0.5"/>
<text text-anchor="middle" x="215" y="-7.5" font-family="Helvetica,sans-Serif" font-size="10.00">Counter::SetMaxPeriod</text>
</a>
</g>
<!-- Node1&#45;&gt;Node3 -->
<g id="edge4" class="edge"><title>Node1&#45;&gt;Node3</title>
<path fill="none" stroke="midnightblue" d="M120.154,-21.6541C128.555,-20.6108 137.251,-19.531 145.806,-18.4685"/>
<polygon fill="midnightblue" stroke="midnightblue" points="146.267,-21.9383 155.759,-17.2325 145.404,-14.9917 146.267,-21.9383"/>
</g>
<!-- Node3&#45;&gt;Node2 -->
<g id="edge6" class="edge"><title>Node3&#45;&gt;Node2</title>
<path fill="none" stroke="midnightblue" d="M274.157,-17.129C282.554,-18.1583 291.275,-19.2272 299.889,-20.2832"/>
<polygon fill="midnightblue" stroke="midnightblue" points="299.576,-23.7709 309.928,-21.5137 300.428,-16.8229 299.576,-23.7709"/>
</g>
</g>
</svg>
