<?xml version="1.0" encoding="UTF-8" standalone="no"?>
<!DOCTYPE svg PUBLIC "-//W3C//DTD SVG 1.1//EN"
 "http://www.w3.org/Graphics/SVG/1.1/DTD/svg11.dtd">
<!-- Generated by graphviz version 2.28.0 (20110507.0327)
 -->
<!-- Title: Solenoid::Set Pages: 1 -->
<svg width="244pt" height="66pt"
 viewBox="0.00 0.00 244.00 66.00" xmlns="http://www.w3.org/2000/svg" xmlns:xlink="http://www.w3.org/1999/xlink">
<g id="graph1" class="graph" transform="scale(1 1) rotate(0) translate(4 62)">
<title>Solenoid::Set</title>
<polygon fill="white" stroke="white" points="-4,5 -4,-62 241,-62 241,5 -4,5"/>
<!-- Node1 -->
<g id="node1" class="node"><title>Node1</title>
<polygon fill="#bfbfbf" stroke="black" points="0.5,-19.5 0.5,-38.5 75.5,-38.5 75.5,-19.5 0.5,-19.5"/>
<text text-anchor="middle" x="38" y="-26.5" font-family="Helvetica,sans-Serif" font-size="10.00">Solenoid::Set</text>
</g>
<!-- Node2 -->
<g id="node3" class="node"><title>Node2</title>
<a xlink:href="class_error_base.html#a05790f219c9e436a09752f73f7344024" target="_top" xlink:title="Check if the current error code represents a fatal error. ">
<polygon fill="white" stroke="black" points="112,-38.5 112,-57.5 236,-57.5 236,-38.5 112,-38.5"/>
<text text-anchor="middle" x="174" y="-45.5" font-family="Helvetica,sans-Serif" font-size="10.00">ErrorBase::StatusIsFatal</text>
</a>
</g>
<!-- Node1&#45;&gt;Node2 -->
<g id="edge2" class="edge"><title>Node1&#45;&gt;Node2</title>
<path fill="none" stroke="midnightblue" d="M75.6161,-34.1918C83.8676,-35.3618 92.8991,-36.6424 102.029,-37.937"/>
<polygon fill="midnightblue" stroke="midnightblue" points="101.551,-41.4041 111.943,-39.3427 102.533,-34.4734 101.551,-41.4041"/>
</g>
<!-- Node3 -->
<g id="node5" class="node"><title>Node3</title>
<a xlink:href="class_solenoid_base.html#a28d8153c8d7d758f910807537c53963c" target="_top" xlink:title="SolenoidBase::Set">
<polygon fill="white" stroke="black" points="125,-0.5 125,-19.5 223,-19.5 223,-0.5 125,-0.5"/>
<text text-anchor="middle" x="174" y="-7.5" font-family="Helvetica,sans-Serif" font-size="10.00">SolenoidBase::Set</text>
</a>
</g>
<!-- Node1&#45;&gt;Node3 -->
<g id="edge4" class="edge"><title>Node1&#45;&gt;Node3</title>
<path fill="none" stroke="midnightblue" d="M75.6161,-23.8082C87.7191,-22.0921 101.5,-20.138 114.81,-18.2509"/>
<polygon fill="midnightblue" stroke="midnightblue" points="115.45,-21.6952 124.86,-16.8259 114.467,-14.7645 115.45,-21.6952"/>
</g>
</g>
</svg>
