<?xml version="1.0" encoding="UTF-8" standalone="no"?>
<!DOCTYPE svg PUBLIC "-//W3C//DTD SVG 1.1//EN"
 "http://www.w3.org/Graphics/SVG/1.1/DTD/svg11.dtd">
<!-- Generated by graphviz version 2.28.0 (20110507.0327)
 -->
<!-- Title: ADXL345_SPI::UpdateTable Pages: 1 -->
<svg width="604pt" height="104pt"
 viewBox="0.00 0.00 604.00 104.00" xmlns="http://www.w3.org/2000/svg" xmlns:xlink="http://www.w3.org/1999/xlink">
<g id="graph1" class="graph" transform="scale(1 1) rotate(0) translate(4 100)">
<title>ADXL345_SPI::UpdateTable</title>
<polygon fill="white" stroke="white" points="-4,5 -4,-100 601,-100 601,5 -4,5"/>
<!-- Node1 -->
<g id="node1" class="node"><title>Node1</title>
<polygon fill="#bfbfbf" stroke="black" points="0.5,-38.5 0.5,-57.5 137.5,-57.5 137.5,-38.5 0.5,-38.5"/>
<text text-anchor="middle" x="69" y="-45.5" font-family="Helvetica,sans-Serif" font-size="10.00">ADXL345_SPI::UpdateTable</text>
</g>
<!-- Node2 -->
<g id="node3" class="node"><title>Node2</title>
<a xlink:href="class_a_d_x_l345___s_p_i.html#ae91bd240c7ce0715d79e12644a67bcf1" target="_top" xlink:title="ADXL345_SPI::GetX">
<polygon fill="white" stroke="black" points="175,-76.5 175,-95.5 279,-95.5 279,-76.5 175,-76.5"/>
<text text-anchor="middle" x="227" y="-83.5" font-family="Helvetica,sans-Serif" font-size="10.00">ADXL345_SPI::GetX</text>
</a>
</g>
<!-- Node1&#45;&gt;Node2 -->
<g id="edge2" class="edge"><title>Node1&#45;&gt;Node2</title>
<path fill="none" stroke="midnightblue" d="M109.365,-57.589C129.951,-62.6035 155.34,-68.7881 177.169,-74.1053"/>
<polygon fill="midnightblue" stroke="midnightblue" points="176.373,-77.5137 186.918,-76.4799 178.03,-70.7126 176.373,-77.5137"/>
</g>
<!-- Node5 -->
<g id="node9" class="node"><title>Node5</title>
<a xlink:href="class_a_d_x_l345___s_p_i.html#a1a6e48ce4713239f7cade3e9a7335c70" target="_top" xlink:title="ADXL345_SPI::GetY">
<polygon fill="white" stroke="black" points="174,-38.5 174,-57.5 280,-57.5 280,-38.5 174,-38.5"/>
<text text-anchor="middle" x="227" y="-45.5" font-family="Helvetica,sans-Serif" font-size="10.00">ADXL345_SPI::GetY</text>
</a>
</g>
<!-- Node1&#45;&gt;Node5 -->
<g id="edge8" class="edge"><title>Node1&#45;&gt;Node5</title>
<path fill="none" stroke="midnightblue" d="M137.517,-48C146.276,-48 155.215,-48 163.881,-48"/>
<polygon fill="midnightblue" stroke="midnightblue" points="163.902,-51.5001 173.902,-48 163.902,-44.5001 163.902,-51.5001"/>
</g>
<!-- Node6 -->
<g id="node12" class="node"><title>Node6</title>
<a xlink:href="class_a_d_x_l345___s_p_i.html#a54306b7ba6ea3227444ed8705cf0b9bf" target="_top" xlink:title="ADXL345_SPI::GetZ">
<polygon fill="white" stroke="black" points="175,-0.5 175,-19.5 279,-19.5 279,-0.5 175,-0.5"/>
<text text-anchor="middle" x="227" y="-7.5" font-family="Helvetica,sans-Serif" font-size="10.00">ADXL345_SPI::GetZ</text>
</a>
</g>
<!-- Node1&#45;&gt;Node6 -->
<g id="edge12" class="edge"><title>Node1&#45;&gt;Node6</title>
<path fill="none" stroke="midnightblue" d="M109.365,-38.411C129.951,-33.3965 155.34,-27.2119 177.169,-21.8947"/>
<polygon fill="midnightblue" stroke="midnightblue" points="178.03,-25.2874 186.918,-19.5201 176.373,-18.4863 178.03,-25.2874"/>
</g>
<!-- Node3 -->
<g id="node5" class="node"><title>Node3</title>
<a xlink:href="class_a_d_x_l345___s_p_i.html#acae8aee7785e91d4efe1e695478ca727" target="_top" xlink:title="ADXL345_SPI::GetAcceleration">
<polygon fill="white" stroke="black" points="316.5,-38.5 316.5,-57.5 469.5,-57.5 469.5,-38.5 316.5,-38.5"/>
<text text-anchor="middle" x="393" y="-45.5" font-family="Helvetica,sans-Serif" font-size="10.00">ADXL345_SPI::GetAcceleration</text>
</a>
</g>
<!-- Node2&#45;&gt;Node3 -->
<g id="edge4" class="edge"><title>Node2&#45;&gt;Node3</title>
<path fill="none" stroke="midnightblue" d="M269.384,-76.411C291.123,-71.3739 317.957,-65.1562 340.975,-59.8229"/>
<polygon fill="midnightblue" stroke="midnightblue" points="341.962,-63.1871 350.913,-57.5201 340.381,-56.3677 341.962,-63.1871"/>
</g>
<!-- Node4 -->
<g id="node7" class="node"><title>Node4</title>
<a xlink:href="class_s_p_i.html#a57e9c8cac374878879b32f43667e1e09" target="_top" xlink:title="SPI::Transaction">
<polygon fill="white" stroke="black" points="506.5,-38.5 506.5,-57.5 595.5,-57.5 595.5,-38.5 506.5,-38.5"/>
<text text-anchor="middle" x="551" y="-45.5" font-family="Helvetica,sans-Serif" font-size="10.00">SPI::Transaction</text>
</a>
</g>
<!-- Node3&#45;&gt;Node4 -->
<g id="edge6" class="edge"><title>Node3&#45;&gt;Node4</title>
<path fill="none" stroke="midnightblue" d="M469.715,-48C478.656,-48 487.637,-48 496.187,-48"/>
<polygon fill="midnightblue" stroke="midnightblue" points="496.372,-51.5001 506.372,-48 496.372,-44.5001 496.372,-51.5001"/>
</g>
<!-- Node5&#45;&gt;Node3 -->
<g id="edge10" class="edge"><title>Node5&#45;&gt;Node3</title>
<path fill="none" stroke="midnightblue" d="M280.342,-48C288.562,-48 297.241,-48 305.982,-48"/>
<polygon fill="midnightblue" stroke="midnightblue" points="306.246,-51.5001 316.246,-48 306.246,-44.5001 306.246,-51.5001"/>
</g>
<!-- Node6&#45;&gt;Node3 -->
<g id="edge14" class="edge"><title>Node6&#45;&gt;Node3</title>
<path fill="none" stroke="midnightblue" d="M269.384,-19.589C291.123,-24.6261 317.957,-30.8438 340.975,-36.1771"/>
<polygon fill="midnightblue" stroke="midnightblue" points="340.381,-39.6323 350.913,-38.4799 341.962,-32.8129 340.381,-39.6323"/>
</g>
</g>
</svg>
