<?xml version="1.0" encoding="UTF-8" standalone="no"?>
<!DOCTYPE svg PUBLIC "-//W3C//DTD SVG 1.1//EN"
 "http://www.w3.org/Graphics/SVG/1.1/DTD/svg11.dtd">
<!-- Generated by graphviz version 2.28.0 (20110507.0327)
 -->
<!-- Title: Command::GetID Pages: 1 -->
<svg width="376pt" height="28pt"
 viewBox="0.00 0.00 376.00 28.00" xmlns="http://www.w3.org/2000/svg" xmlns:xlink="http://www.w3.org/1999/xlink">
<g id="graph1" class="graph" transform="scale(1 1) rotate(0) translate(4 24)">
<title>Command::GetID</title>
<polygon fill="white" stroke="white" points="-4,5 -4,-24 373,-24 373,5 -4,5"/>
<!-- Node1 -->
<g id="node1" class="node"><title>Node1</title>
<polygon fill="#bfbfbf" stroke="black" points="0,-0.5 0,-19.5 92,-19.5 92,-0.5 0,-0.5"/>
<text text-anchor="middle" x="46" y="-7.5" font-family="Helvetica,sans-Serif" font-size="10.00">Command::GetID</text>
</g>
<!-- Node2 -->
<g id="node3" class="node"><title>Node2</title>
<a xlink:href="class_scheduler.html#af1c349ae113be36ad0026d1a82951693" target="_top" xlink:title="Scheduler::UpdateTable">
<polygon fill="white" stroke="black" points="128,-0.5 128,-19.5 248,-19.5 248,-0.5 128,-0.5"/>
<text text-anchor="middle" x="188" y="-7.5" font-family="Helvetica,sans-Serif" font-size="10.00">Scheduler::UpdateTable</text>
</a>
</g>
<!-- Node1&#45;&gt;Node2 -->
<g id="edge2" class="edge"><title>Node1&#45;&gt;Node2</title>
<path fill="none" stroke="midnightblue" d="M102.2,-10C110.659,-10 119.421,-10 127.959,-10"/>
<polygon fill="midnightblue" stroke="midnightblue" points="102.068,-6.5001 92.0675,-10 102.067,-13.5001 102.068,-6.5001"/>
</g>
<!-- Node3 -->
<g id="node5" class="node"><title>Node3</title>
<a xlink:href="class_scheduler.html#a6e17233143754873d7f29860047de2c1" target="_top" xlink:title="Scheduler::Run">
<polygon fill="white" stroke="black" points="284.5,-0.5 284.5,-19.5 367.5,-19.5 367.5,-0.5 284.5,-0.5"/>
<text text-anchor="middle" x="326" y="-7.5" font-family="Helvetica,sans-Serif" font-size="10.00">Scheduler::Run</text>
</a>
</g>
<!-- Node2&#45;&gt;Node3 -->
<g id="edge4" class="edge"><title>Node2&#45;&gt;Node3</title>
<path fill="none" stroke="midnightblue" d="M258.291,-10C267.196,-10 276.072,-10 284.308,-10"/>
<polygon fill="midnightblue" stroke="midnightblue" points="258.256,-6.5001 248.256,-10 258.256,-13.5001 258.256,-6.5001"/>
</g>
</g>
</svg>
