<?xml version="1.0" encoding="UTF-8" standalone="no"?>
<!DOCTYPE svg PUBLIC "-//W3C//DTD SVG 1.1//EN"
 "http://www.w3.org/Graphics/SVG/1.1/DTD/svg11.dtd">
<!-- Generated by graphviz version 2.28.0 (20110507.0327)
 -->
<!-- Title: MotorSafetyHelper::IsAlive Pages: 1 -->
<svg width="414pt" height="85pt"
 viewBox="0.00 0.00 414.00 85.00" xmlns="http://www.w3.org/2000/svg" xmlns:xlink="http://www.w3.org/1999/xlink">
<g id="graph1" class="graph" transform="scale(1 1) rotate(0) translate(4 81)">
<title>MotorSafetyHelper::IsAlive</title>
<polygon fill="white" stroke="white" points="-4,5 -4,-81 411,-81 411,5 -4,5"/>
<!-- Node1 -->
<g id="node1" class="node"><title>Node1</title>
<polygon fill="#bfbfbf" stroke="black" points="0.5,-14 0.5,-44 103.5,-44 103.5,-14 0.5,-14"/>
<text text-anchor="start" x="8.5" y="-32" font-family="Helvetica,sans-Serif" font-size="10.00">MotorSafetyHelper::</text>
<text text-anchor="middle" x="52" y="-21" font-family="Helvetica,sans-Serif" font-size="10.00">IsAlive</text>
</g>
<!-- Node2 -->
<g id="node3" class="node"><title>Node2</title>
<a xlink:href="class_c_a_n_jaguar.html#a3a22b02ece406993619f993b1e09012a" target="_top" xlink:title="CANJaguar::Set">
<polygon fill="white" stroke="black" points="145,-38.5 145,-57.5 231,-57.5 231,-38.5 145,-38.5"/>
<text text-anchor="middle" x="188" y="-45.5" font-family="Helvetica,sans-Serif" font-size="10.00">CANJaguar::Set</text>
</a>
</g>
<!-- Node1&#45;&gt;Node2 -->
<g id="edge2" class="edge"><title>Node1&#45;&gt;Node2</title>
<path fill="none" stroke="midnightblue" d="M113.592,-37.5914C124.054,-39.0748 134.726,-40.588 144.576,-41.9846"/>
<polygon fill="midnightblue" stroke="midnightblue" points="114.052,-34.1217 103.66,-36.1831 113.069,-41.0524 114.052,-34.1217"/>
</g>
<!-- Node5 -->
<g id="node9" class="node"><title>Node5</title>
<a xlink:href="class_safe_p_w_m.html#aebfc9f69eff62ed8180c2991b25ad043" target="_top" xlink:title="SafePWM::IsAlive">
<polygon fill="white" stroke="black" points="140.5,-0.5 140.5,-19.5 235.5,-19.5 235.5,-0.5 140.5,-0.5"/>
<text text-anchor="middle" x="188" y="-7.5" font-family="Helvetica,sans-Serif" font-size="10.00">SafePWM::IsAlive</text>
</a>
</g>
<!-- Node1&#45;&gt;Node5 -->
<g id="edge8" class="edge"><title>Node1&#45;&gt;Node5</title>
<path fill="none" stroke="midnightblue" d="M113.642,-20.4015C122.571,-19.1355 131.651,-17.8479 140.242,-16.6299"/>
<polygon fill="midnightblue" stroke="midnightblue" points="113.069,-16.9476 103.66,-21.8169 114.052,-23.8783 113.069,-16.9476"/>
</g>
<!-- Node3 -->
<g id="node5" class="node"><title>Node3</title>
<a xlink:href="class_c_a_n_jaguar.html#a2355d55f42083ab82870c79f742620e4" target="_top" xlink:title="CANJaguar::PIDWrite">
<polygon fill="white" stroke="black" points="284,-57.5 284,-76.5 394,-76.5 394,-57.5 284,-57.5"/>
<text text-anchor="middle" x="339" y="-64.5" font-family="Helvetica,sans-Serif" font-size="10.00">CANJaguar::PIDWrite</text>
</a>
</g>
<!-- Node2&#45;&gt;Node3 -->
<g id="edge4" class="edge"><title>Node2&#45;&gt;Node3</title>
<path fill="none" stroke="midnightblue" d="M241.543,-54.7001C255.262,-56.4495 270.072,-58.338 283.872,-60.0977"/>
<polygon fill="midnightblue" stroke="midnightblue" points="241.661,-51.1869 231.299,-53.3938 240.776,-58.1307 241.661,-51.1869"/>
</g>
<!-- Node4 -->
<g id="node7" class="node"><title>Node4</title>
<a xlink:href="class_c_a_n_jaguar_test.html#a3c9026e62eb65e2d497bb7bbfaded297" target="_top" xlink:title="CANJaguarTest::SetJaguar">
<polygon fill="white" stroke="black" points="272,-19.5 272,-38.5 406,-38.5 406,-19.5 272,-19.5"/>
<text text-anchor="middle" x="339" y="-26.5" font-family="Helvetica,sans-Serif" font-size="10.00">CANJaguarTest::SetJaguar</text>
</a>
</g>
<!-- Node2&#45;&gt;Node4 -->
<g id="edge6" class="edge"><title>Node2&#45;&gt;Node4</title>
<path fill="none" stroke="midnightblue" d="M241.354,-41.324C251.232,-40.0643 261.682,-38.7318 271.918,-37.4266"/>
<polygon fill="midnightblue" stroke="midnightblue" points="240.776,-37.8693 231.299,-42.6062 241.661,-44.8131 240.776,-37.8693"/>
</g>
</g>
</svg>
