<?xml version="1.0" encoding="UTF-8" standalone="no"?>
<!DOCTYPE svg PUBLIC "-//W3C//DTD SVG 1.1//EN"
 "http://www.w3.org/Graphics/SVG/1.1/DTD/svg11.dtd">
<!-- Generated by graphviz version 2.28.0 (20110507.0327)
 -->
<!-- Title: Servo::UpdateTable Pages: 1 -->
<svg width="620pt" height="47pt"
 viewBox="0.00 0.00 620.00 47.00" xmlns="http://www.w3.org/2000/svg" xmlns:xlink="http://www.w3.org/1999/xlink">
<g id="graph1" class="graph" transform="scale(1 1) rotate(0) translate(4 43)">
<title>Servo::UpdateTable</title>
<polygon fill="white" stroke="white" points="-4,5 -4,-43 617,-43 617,5 -4,5"/>
<!-- Node1 -->
<g id="node1" class="node"><title>Node1</title>
<polygon fill="#bfbfbf" stroke="black" points="0.5,-19.5 0.5,-38.5 101.5,-38.5 101.5,-19.5 0.5,-19.5"/>
<text text-anchor="middle" x="51" y="-26.5" font-family="Helvetica,sans-Serif" font-size="10.00">Servo::UpdateTable</text>
</g>
<!-- Node2 -->
<g id="node3" class="node"><title>Node2</title>
<a xlink:href="class_servo.html#a5ecdde666455fa3c20d4ae1b6184a047" target="_top" xlink:title="Servo::Get">
<polygon fill="white" stroke="black" points="138,-19.5 138,-38.5 200,-38.5 200,-19.5 138,-19.5"/>
<text text-anchor="middle" x="169" y="-26.5" font-family="Helvetica,sans-Serif" font-size="10.00">Servo::Get</text>
</a>
</g>
<!-- Node1&#45;&gt;Node2 -->
<g id="edge2" class="edge"><title>Node1&#45;&gt;Node2</title>
<path fill="none" stroke="midnightblue" d="M101.531,-29C110.19,-29 119.107,-29 127.487,-29"/>
<polygon fill="midnightblue" stroke="midnightblue" points="127.754,-32.5001 137.754,-29 127.754,-25.5001 127.754,-32.5001"/>
</g>
<!-- Node3 -->
<g id="node5" class="node"><title>Node3</title>
<a xlink:href="class_p_w_m.html#a2f5dcbf84dc82c4b19098c4cc99d0390" target="_top" xlink:title="PWM::GetPosition">
<polygon fill="white" stroke="black" points="236,-19.5 236,-38.5 334,-38.5 334,-19.5 236,-19.5"/>
<text text-anchor="middle" x="285" y="-26.5" font-family="Helvetica,sans-Serif" font-size="10.00">PWM::GetPosition</text>
</a>
</g>
<!-- Node2&#45;&gt;Node3 -->
<g id="edge4" class="edge"><title>Node2&#45;&gt;Node3</title>
<path fill="none" stroke="midnightblue" d="M200.251,-29C208.206,-29 217.061,-29 225.95,-29"/>
<polygon fill="midnightblue" stroke="midnightblue" points="225.955,-32.5001 235.954,-29 225.954,-25.5001 225.955,-32.5001"/>
</g>
<!-- Node4 -->
<g id="node7" class="node"><title>Node4</title>
<a xlink:href="class_error_base.html#a05790f219c9e436a09752f73f7344024" target="_top" xlink:title="Check if the current error code represents a fatal error. ">
<polygon fill="white" stroke="black" points="488,-19.5 488,-38.5 612,-38.5 612,-19.5 488,-19.5"/>
<text text-anchor="middle" x="550" y="-26.5" font-family="Helvetica,sans-Serif" font-size="10.00">ErrorBase::StatusIsFatal</text>
</a>
</g>
<!-- Node3&#45;&gt;Node4 -->
<g id="edge6" class="edge"><title>Node3&#45;&gt;Node4</title>
<path fill="none" stroke="midnightblue" d="M334.238,-29C374.357,-29 432.041,-29 477.526,-29"/>
<polygon fill="midnightblue" stroke="midnightblue" points="477.623,-32.5001 487.623,-29 477.623,-25.5001 477.623,-32.5001"/>
</g>
<!-- Node5 -->
<g id="node9" class="node"><title>Node5</title>
<a xlink:href="class_p_w_m.html#afe21d7814cd2c51c0652fbf9f58af958" target="_top" xlink:title="PWM::GetRaw">
<polygon fill="white" stroke="black" points="370,-0.5 370,-19.5 452,-19.5 452,-0.5 370,-0.5"/>
<text text-anchor="middle" x="411" y="-7.5" font-family="Helvetica,sans-Serif" font-size="10.00">PWM::GetRaw</text>
</a>
</g>
<!-- Node3&#45;&gt;Node5 -->
<g id="edge8" class="edge"><title>Node3&#45;&gt;Node5</title>
<path fill="none" stroke="midnightblue" d="M334.297,-21.5997C342.612,-20.3256 351.274,-18.9984 359.642,-17.7162"/>
<polygon fill="midnightblue" stroke="midnightblue" points="360.306,-21.1554 369.66,-16.1811 359.246,-14.2361 360.306,-21.1554"/>
</g>
<!-- Node5&#45;&gt;Node4 -->
<g id="edge10" class="edge"><title>Node5&#45;&gt;Node4</title>
<path fill="none" stroke="midnightblue" d="M452.364,-15.5979C460.362,-16.7072 468.981,-17.9025 477.66,-19.1062"/>
<polygon fill="midnightblue" stroke="midnightblue" points="477.458,-22.6115 487.844,-20.5185 478.419,-15.6779 477.458,-22.6115"/>
</g>
</g>
</svg>
