<?xml version="1.0" encoding="UTF-8" standalone="no"?>
<!DOCTYPE svg PUBLIC "-//W3C//DTD SVG 1.1//EN"
 "http://www.w3.org/Graphics/SVG/1.1/DTD/svg11.dtd">
<!-- Generated by graphviz version 2.28.0 (20110507.0327)
 -->
<!-- Title: Command Pages: 1 -->
<svg width="269pt" height="164pt"
 viewBox="0.00 0.00 269.00 164.00" xmlns="http://www.w3.org/2000/svg" xmlns:xlink="http://www.w3.org/1999/xlink">
<g id="graph1" class="graph" transform="scale(1 1) rotate(0) translate(4 160)">
<title>Command</title>
<polygon fill="white" stroke="white" points="-4,5 -4,-160 266,-160 266,5 -4,5"/>
<!-- Node1 -->
<g id="node1" class="node"><title>Node1</title>
<polygon fill="#bfbfbf" stroke="black" points="91.5,-0.5 91.5,-19.5 152.5,-19.5 152.5,-0.5 91.5,-0.5"/>
<text text-anchor="middle" x="122" y="-7.5" font-family="Helvetica,sans-Serif" font-size="10.00">Command</text>
</g>
<!-- Node2 -->
<g id="node2" class="node"><title>Node2</title>
<a xlink:href="class_error_base.html" target="_top" xlink:title="ErrorBase">
<polygon fill="white" stroke="black" points="0,-58.5 0,-77.5 60,-77.5 60,-58.5 0,-58.5"/>
<text text-anchor="middle" x="30" y="-65.5" font-family="Helvetica,sans-Serif" font-size="10.00">ErrorBase</text>
</a>
</g>
<!-- Node2&#45;&gt;Node1 -->
<g id="edge2" class="edge"><title>Node2&#45;&gt;Node1</title>
<path fill="none" stroke="midnightblue" d="M52.8651,-53.0821C70.1231,-42.5773 93.2546,-28.4972 107.896,-19.5852"/>
<polygon fill="midnightblue" stroke="midnightblue" points="50.695,-50.3056 43.9728,-58.4948 54.3346,-56.285 50.695,-50.3056"/>
</g>
<!-- Node3 -->
<g id="node4" class="node"><title>Node3</title>
<a xlink:href="class_error.html" target="_top" xlink:title="Error">
<polygon fill="white" stroke="black" points="11,-136.5 11,-155.5 49,-155.5 49,-136.5 11,-136.5"/>
<text text-anchor="middle" x="30" y="-143.5" font-family="Helvetica,sans-Serif" font-size="10.00">Error</text>
</a>
</g>
<!-- Node3&#45;&gt;Node2 -->
<g id="edge4" class="edge"><title>Node3&#45;&gt;Node2</title>
<path fill="none" stroke="#9a32cd" stroke-dasharray="5,2" d="M30,-126.224C30,-110.697 30,-89.3582 30,-77.6165"/>
<polygon fill="#9a32cd" stroke="#9a32cd" points="26.5001,-126.282 30,-136.282 33.5001,-126.282 26.5001,-126.282"/>
<text text-anchor="middle" x="57.5" y="-110" font-family="Helvetica,sans-Serif" font-size="10.00"> _globalError</text>
<text text-anchor="middle" x="57.5" y="-99" font-family="Helvetica,sans-Serif" font-size="10.00">m_error</text>
</g>
<!-- Node4 -->
<g id="node6" class="node"><title>Node4</title>
<a xlink:href="class_named_sendable.html" target="_top" xlink:title="NamedSendable">
<polygon fill="white" stroke="black" points="78,-58.5 78,-77.5 166,-77.5 166,-58.5 78,-58.5"/>
<text text-anchor="middle" x="122" y="-65.5" font-family="Helvetica,sans-Serif" font-size="10.00">NamedSendable</text>
</a>
</g>
<!-- Node4&#45;&gt;Node1 -->
<g id="edge6" class="edge"><title>Node4&#45;&gt;Node1</title>
<path fill="none" stroke="midnightblue" d="M122,-47.953C122,-38.2875 122,-27.0312 122,-19.5052"/>
<polygon fill="midnightblue" stroke="midnightblue" points="118.5,-48.25 122,-58.25 125.5,-48.25 118.5,-48.25"/>
</g>
<!-- Node5 -->
<g id="node8" class="node"><title>Node5</title>
<a xlink:href="class_sendable.html" target="_top" xlink:title="Sendable">
<polygon fill="white" stroke="black" points="93.5,-136.5 93.5,-155.5 150.5,-155.5 150.5,-136.5 93.5,-136.5"/>
<text text-anchor="middle" x="122" y="-143.5" font-family="Helvetica,sans-Serif" font-size="10.00">Sendable</text>
</a>
</g>
<!-- Node5&#45;&gt;Node4 -->
<g id="edge8" class="edge"><title>Node5&#45;&gt;Node4</title>
<path fill="none" stroke="midnightblue" d="M122,-126.224C122,-110.697 122,-89.3582 122,-77.6165"/>
<polygon fill="midnightblue" stroke="midnightblue" points="118.5,-126.282 122,-136.282 125.5,-126.282 118.5,-126.282"/>
</g>
<!-- Node6 -->
<g id="node10" class="node"><title>Node6</title>
<polygon fill="white" stroke="#bfbfbf" points="184.5,-58.5 184.5,-77.5 261.5,-77.5 261.5,-58.5 184.5,-58.5"/>
<text text-anchor="middle" x="223" y="-65.5" font-family="Helvetica,sans-Serif" font-size="10.00">ITableListener</text>
</g>
<!-- Node6&#45;&gt;Node1 -->
<g id="edge10" class="edge"><title>Node6&#45;&gt;Node1</title>
<path fill="none" stroke="midnightblue" d="M198.684,-53.5177C179.659,-42.9694 153.781,-28.621 137.484,-19.5852"/>
<polygon fill="midnightblue" stroke="midnightblue" points="197.217,-56.7067 207.66,-58.4948 200.612,-50.5847 197.217,-56.7067"/>
</g>
</g>
</svg>
