<?xml version="1.0" encoding="UTF-8" standalone="no"?>
<!DOCTYPE svg PUBLIC "-//W3C//DTD SVG 1.1//EN"
 "http://www.w3.org/Graphics/SVG/1.1/DTD/svg11.dtd">
<!-- Generated by graphviz version 2.28.0 (20110507.0327)
 -->
<!-- Title: RobotBase Pages: 1 -->
<svg width="175pt" height="84pt"
 viewBox="0.00 0.00 175.00 84.00" xmlns="http://www.w3.org/2000/svg" xmlns:xlink="http://www.w3.org/1999/xlink">
<g id="graph1" class="graph" transform="scale(1 1) rotate(0) translate(4 80)">
<title>RobotBase</title>
<polygon fill="white" stroke="white" points="-4,5 -4,-80 172,-80 172,5 -4,5"/>
<!-- Node1 -->
<g id="node1" class="node"><title>Node1</title>
<polygon fill="#bfbfbf" stroke="black" points="50.5,-56.5 50.5,-75.5 115.5,-75.5 115.5,-56.5 50.5,-56.5"/>
<text text-anchor="middle" x="83" y="-63.5" font-family="Helvetica,sans-Serif" font-size="10.00">RobotBase</text>
</g>
<!-- Node2 -->
<g id="node3" class="node"><title>Node2</title>
<a xlink:href="class_iterative_robot.html" target="_top" xlink:title="IterativeRobot">
<polygon fill="white" stroke="black" points="-0.5,-0.5 -0.5,-19.5 74.5,-19.5 74.5,-0.5 -0.5,-0.5"/>
<text text-anchor="middle" x="37" y="-7.5" font-family="Helvetica,sans-Serif" font-size="10.00">IterativeRobot</text>
</a>
</g>
<!-- Node1&#45;&gt;Node2 -->
<g id="edge2" class="edge"><title>Node1&#45;&gt;Node2</title>
<path fill="none" stroke="midnightblue" d="M63.3869,-49.2533C54.2327,-39.6731 44.4608,-27.7906 39.3765,-19.8339"/>
<polygon fill="midnightblue" stroke="midnightblue" points="60.9365,-51.7527 70.4945,-56.324 65.8734,-46.79 60.9365,-51.7527"/>
</g>
<!-- Node1&#45;&gt;Node2 -->
<g id="edge4" class="edge"><title>Node1&#45;&gt;Node2</title>
<path fill="none" stroke="midnightblue" d="M74.7286,-47.8554C67.5887,-38.5048 57.6657,-27.3265 49.5856,-19.7511"/>
<polygon fill="midnightblue" stroke="midnightblue" points="71.9272,-49.9555 80.5704,-56.083 77.6349,-45.9029 71.9272,-49.9555"/>
</g>
<!-- Node3 -->
<g id="node6" class="node"><title>Node3</title>
<a xlink:href="class_sample_robot.html" target="_top" xlink:title="SampleRobot">
<polygon fill="white" stroke="black" points="92.5,-0.5 92.5,-19.5 167.5,-19.5 167.5,-0.5 92.5,-0.5"/>
<text text-anchor="middle" x="130" y="-7.5" font-family="Helvetica,sans-Serif" font-size="10.00">SampleRobot</text>
</a>
</g>
<!-- Node1&#45;&gt;Node3 -->
<g id="edge6" class="edge"><title>Node1&#45;&gt;Node3</title>
<path fill="none" stroke="midnightblue" d="M91.5888,-47.8554C98.9019,-38.5048 109.032,-27.3265 117.252,-19.7511"/>
<polygon fill="midnightblue" stroke="midnightblue" points="88.6543,-45.9395 85.5948,-56.083 94.3121,-50.0614 88.6543,-45.9395"/>
</g>
<!-- Node1&#45;&gt;Node3 -->
<g id="edge8" class="edge"><title>Node1&#45;&gt;Node3</title>
<path fill="none" stroke="midnightblue" d="M102.905,-49.2533C112.236,-39.6731 122.228,-27.7906 127.46,-19.8339"/>
<polygon fill="midnightblue" stroke="midnightblue" points="100.374,-46.8326 95.6662,-56.324 105.265,-51.8401 100.374,-46.8326"/>
</g>
</g>
</svg>
