<?xml version="1.0" encoding="UTF-8" standalone="no"?>
<!DOCTYPE svg PUBLIC "-//W3C//DTD SVG 1.1//EN"
 "http://www.w3.org/Graphics/SVG/1.1/DTD/svg11.dtd">
<!-- Generated by graphviz version 2.28.0 (20110507.0327)
 -->
<!-- Title: SolenoidBase::Set Pages: 1 -->
<svg width="440pt" height="164pt"
 viewBox="0.00 0.00 440.00 164.00" xmlns="http://www.w3.org/2000/svg" xmlns:xlink="http://www.w3.org/1999/xlink">
<g id="graph1" class="graph" transform="scale(1 1) rotate(0) translate(4 160)">
<title>SolenoidBase::Set</title>
<polygon fill="white" stroke="white" points="-4,5 -4,-160 437,-160 437,5 -4,5"/>
<!-- Node1 -->
<g id="node1" class="node"><title>Node1</title>
<polygon fill="#bfbfbf" stroke="black" points="0,-60.5 0,-79.5 98,-79.5 98,-60.5 0,-60.5"/>
<text text-anchor="middle" x="49" y="-67.5" font-family="Helvetica,sans-Serif" font-size="10.00">SolenoidBase::Set</text>
</g>
<!-- Node2 -->
<g id="node3" class="node"><title>Node2</title>
<a xlink:href="class_double_solenoid.html#a538ae9e357b7c97e01f213f8fe0a7c20" target="_top" xlink:title="DoubleSolenoid::Set">
<polygon fill="white" stroke="black" points="134.5,-82.5 134.5,-101.5 239.5,-101.5 239.5,-82.5 134.5,-82.5"/>
<text text-anchor="middle" x="187" y="-89.5" font-family="Helvetica,sans-Serif" font-size="10.00">DoubleSolenoid::Set</text>
</a>
</g>
<!-- Node1&#45;&gt;Node2 -->
<g id="edge2" class="edge"><title>Node1&#45;&gt;Node2</title>
<path fill="none" stroke="midnightblue" d="M108.288,-79.4289C116.88,-80.8189 125.684,-82.2431 134.136,-83.6102"/>
<polygon fill="midnightblue" stroke="midnightblue" points="108.762,-75.9602 98.3314,-77.8183 107.644,-82.8704 108.762,-75.9602"/>
</g>
<!-- Node5 -->
<g id="node9" class="node"><title>Node5</title>
<a xlink:href="class_solenoid.html#a913e4530ea804c7c0e3baf2458b4dee3" target="_top" xlink:title="Solenoid::Set">
<polygon fill="white" stroke="black" points="149.5,-38.5 149.5,-57.5 224.5,-57.5 224.5,-38.5 149.5,-38.5"/>
<text text-anchor="middle" x="187" y="-45.5" font-family="Helvetica,sans-Serif" font-size="10.00">Solenoid::Set</text>
</a>
</g>
<!-- Node1&#45;&gt;Node5 -->
<g id="edge8" class="edge"><title>Node1&#45;&gt;Node5</title>
<path fill="none" stroke="midnightblue" d="M108.339,-60.5627C122.265,-58.3101 136.742,-55.9683 149.37,-53.9254"/>
<polygon fill="midnightblue" stroke="midnightblue" points="107.644,-57.1296 98.3314,-62.1817 108.762,-64.0398 107.644,-57.1296"/>
</g>
<!-- Node3 -->
<g id="node5" class="node"><title>Node3</title>
<a xlink:href="class_double_solenoid.html#aeab409cef80470519fbe54ac9b9facb2" target="_top" xlink:title="DoubleSolenoid::StartLive\lWindowMode">
<polygon fill="white" stroke="black" points="290,-126 290,-156 418,-156 418,-126 290,-126"/>
<text text-anchor="start" x="298" y="-144" font-family="Helvetica,sans-Serif" font-size="10.00">DoubleSolenoid::StartLive</text>
<text text-anchor="middle" x="354" y="-133" font-family="Helvetica,sans-Serif" font-size="10.00">WindowMode</text>
</a>
</g>
<!-- Node2&#45;&gt;Node3 -->
<g id="edge4" class="edge"><title>Node2&#45;&gt;Node3</title>
<path fill="none" stroke="midnightblue" d="M229.937,-104.454C251.977,-110.999 279.159,-119.071 302.365,-125.963"/>
<polygon fill="midnightblue" stroke="midnightblue" points="230.788,-101.056 220.205,-101.564 228.795,-107.766 230.788,-101.056"/>
</g>
<!-- Node4 -->
<g id="node7" class="node"><title>Node4</title>
<a xlink:href="class_double_solenoid.html#a991a18f242f93a0c8474bc95fa13a0a2" target="_top" xlink:title="DoubleSolenoid::StopLive\lWindowMode">
<polygon fill="white" stroke="black" points="290.5,-77 290.5,-107 417.5,-107 417.5,-77 290.5,-77"/>
<text text-anchor="start" x="298.5" y="-95" font-family="Helvetica,sans-Serif" font-size="10.00">DoubleSolenoid::StopLive</text>
<text text-anchor="middle" x="354" y="-84" font-family="Helvetica,sans-Serif" font-size="10.00">WindowMode</text>
</a>
</g>
<!-- Node2&#45;&gt;Node4 -->
<g id="edge6" class="edge"><title>Node2&#45;&gt;Node4</title>
<path fill="none" stroke="midnightblue" d="M250.136,-92C263.313,-92 277.23,-92 290.424,-92"/>
<polygon fill="midnightblue" stroke="midnightblue" points="249.754,-88.5001 239.754,-92 249.754,-95.5001 249.754,-88.5001"/>
</g>
<!-- Node6 -->
<g id="node11" class="node"><title>Node6</title>
<a xlink:href="class_solenoid.html#aa412316a159139255355193c5f9c221a" target="_top" xlink:title="Solenoid::StartLiveWindowMode">
<polygon fill="white" stroke="black" points="276,-38.5 276,-57.5 432,-57.5 432,-38.5 276,-38.5"/>
<text text-anchor="middle" x="354" y="-45.5" font-family="Helvetica,sans-Serif" font-size="10.00">Solenoid::StartLiveWindowMode</text>
</a>
</g>
<!-- Node5&#45;&gt;Node6 -->
<g id="edge10" class="edge"><title>Node5&#45;&gt;Node6</title>
<path fill="none" stroke="midnightblue" d="M234.989,-48C247.77,-48 261.957,-48 275.935,-48"/>
<polygon fill="midnightblue" stroke="midnightblue" points="234.619,-44.5001 224.619,-48 234.619,-51.5001 234.619,-44.5001"/>
</g>
<!-- Node7 -->
<g id="node13" class="node"><title>Node7</title>
<a xlink:href="class_solenoid.html#a4d286eec49ba8c5a1486addc10812ce3" target="_top" xlink:title="Solenoid::StopLiveWindowMode">
<polygon fill="white" stroke="black" points="276.5,-0.5 276.5,-19.5 431.5,-19.5 431.5,-0.5 276.5,-0.5"/>
<text text-anchor="middle" x="354" y="-7.5" font-family="Helvetica,sans-Serif" font-size="10.00">Solenoid::StopLiveWindowMode</text>
</a>
</g>
<!-- Node5&#45;&gt;Node7 -->
<g id="edge12" class="edge"><title>Node5&#45;&gt;Node7</title>
<path fill="none" stroke="midnightblue" d="M234.644,-37.2576C258.842,-31.6848 288.15,-24.9352 311.547,-19.5468"/>
<polygon fill="midnightblue" stroke="midnightblue" points="233.578,-33.9115 224.619,-39.5666 235.149,-40.7329 233.578,-33.9115"/>
</g>
</g>
</svg>
