<?xml version="1.0" encoding="UTF-8" standalone="no"?>
<!DOCTYPE svg PUBLIC "-//W3C//DTD SVG 1.1//EN"
 "http://www.w3.org/Graphics/SVG/1.1/DTD/svg11.dtd">
<!-- Generated by graphviz version 2.28.0 (20110507.0327)
 -->
<!-- Title: PIDCommand::InitTable Pages: 1 -->
<svg width="448pt" height="294pt"
 viewBox="0.00 0.00 448.00 294.00" xmlns="http://www.w3.org/2000/svg" xmlns:xlink="http://www.w3.org/1999/xlink">
<g id="graph1" class="graph" transform="scale(1 1) rotate(0) translate(4 290)">
<title>PIDCommand::InitTable</title>
<polygon fill="white" stroke="white" points="-4,5 -4,-290 445,-290 445,5 -4,5"/>
<!-- Node1 -->
<g id="node1" class="node"><title>Node1</title>
<polygon fill="#bfbfbf" stroke="black" points="0.5,-95.5 0.5,-114.5 119.5,-114.5 119.5,-95.5 0.5,-95.5"/>
<text text-anchor="middle" x="60" y="-102.5" font-family="Helvetica,sans-Serif" font-size="10.00">PIDCommand::InitTable</text>
</g>
<!-- Node2 -->
<g id="node3" class="node"><title>Node2</title>
<a xlink:href="class_p_i_d_controller.html#af6e51e6973aad270d6e9320b65d363d2" target="_top" xlink:title="PIDController::InitTable">
<polygon fill="white" stroke="black" points="156,-152.5 156,-171.5 272,-171.5 272,-152.5 156,-152.5"/>
<text text-anchor="middle" x="214" y="-159.5" font-family="Helvetica,sans-Serif" font-size="10.00">PIDController::InitTable</text>
</a>
</g>
<!-- Node1&#45;&gt;Node2 -->
<g id="edge2" class="edge"><title>Node1&#45;&gt;Node2</title>
<path fill="none" stroke="midnightblue" d="M86.4414,-114.541C111.54,-123.953 150.104,-138.414 178.066,-148.9"/>
<polygon fill="midnightblue" stroke="midnightblue" points="176.883,-152.194 187.476,-152.428 179.341,-145.64 176.883,-152.194"/>
</g>
<!-- Node9 -->
<g id="node17" class="node"><title>Node9</title>
<a xlink:href="class_command.html#a0d4248ecf28f82d7e35ee177eeac8d31" target="_top" xlink:title="Command::InitTable">
<polygon fill="white" stroke="black" points="162.5,-38.5 162.5,-57.5 265.5,-57.5 265.5,-38.5 162.5,-38.5"/>
<text text-anchor="middle" x="214" y="-45.5" font-family="Helvetica,sans-Serif" font-size="10.00">Command::InitTable</text>
</a>
</g>
<!-- Node1&#45;&gt;Node9 -->
<g id="edge16" class="edge"><title>Node1&#45;&gt;Node9</title>
<path fill="none" stroke="midnightblue" d="M86.4414,-95.4595C111.54,-86.0473 150.104,-71.5862 178.066,-61.1001"/>
<polygon fill="midnightblue" stroke="midnightblue" points="179.341,-64.3601 187.476,-57.5716 176.883,-57.8058 179.341,-64.3601"/>
</g>
<!-- Node3 -->
<g id="node5" class="node"><title>Node3</title>
<a xlink:href="class_p_i_d_controller.html#a9572c875b0fee00189e7e22250db3831" target="_top" xlink:title="PIDController::GetP">
<polygon fill="white" stroke="black" points="323,-266.5 323,-285.5 425,-285.5 425,-266.5 323,-266.5"/>
<text text-anchor="middle" x="374" y="-273.5" font-family="Helvetica,sans-Serif" font-size="10.00">PIDController::GetP</text>
</a>
</g>
<!-- Node2&#45;&gt;Node3 -->
<g id="edge4" class="edge"><title>Node2&#45;&gt;Node3</title>
<path fill="none" stroke="midnightblue" d="M221.75,-171.668C235.646,-190.848 269.402,-233.852 308,-257 311.63,-259.177 315.524,-261.117 319.537,-262.844"/>
<polygon fill="midnightblue" stroke="midnightblue" points="318.456,-266.179 329.046,-266.499 320.967,-259.645 318.456,-266.179"/>
</g>
<!-- Node4 -->
<g id="node7" class="node"><title>Node4</title>
<a xlink:href="class_p_i_d_controller.html#aad4c914184a37b8ceb85401d59ff163b" target="_top" xlink:title="PIDController::GetI">
<polygon fill="white" stroke="black" points="325,-228.5 325,-247.5 423,-247.5 423,-228.5 325,-228.5"/>
<text text-anchor="middle" x="374" y="-235.5" font-family="Helvetica,sans-Serif" font-size="10.00">PIDController::GetI</text>
</a>
</g>
<!-- Node2&#45;&gt;Node4 -->
<g id="edge6" class="edge"><title>Node2&#45;&gt;Node4</title>
<path fill="none" stroke="midnightblue" d="M228.24,-171.689C245.737,-184.116 277.875,-205.651 308,-219 313.106,-221.262 318.555,-223.339 324.043,-225.222"/>
<polygon fill="midnightblue" stroke="midnightblue" points="323.309,-228.663 333.901,-228.398 325.456,-222 323.309,-228.663"/>
</g>
<!-- Node5 -->
<g id="node9" class="node"><title>Node5</title>
<a xlink:href="class_p_i_d_controller.html#a003738f4df587babc119131cdfada553" target="_top" xlink:title="PIDController::GetD">
<polygon fill="white" stroke="black" points="323,-190.5 323,-209.5 425,-209.5 425,-190.5 323,-190.5"/>
<text text-anchor="middle" x="374" y="-197.5" font-family="Helvetica,sans-Serif" font-size="10.00">PIDController::GetD</text>
</a>
</g>
<!-- Node2&#45;&gt;Node5 -->
<g id="edge8" class="edge"><title>Node2&#45;&gt;Node5</title>
<path fill="none" stroke="midnightblue" d="M254.87,-171.589C275.72,-176.604 301.435,-182.788 323.543,-188.105"/>
<polygon fill="midnightblue" stroke="midnightblue" points="322.875,-191.544 333.417,-190.48 324.512,-184.739 322.875,-191.544"/>
</g>
<!-- Node6 -->
<g id="node11" class="node"><title>Node6</title>
<a xlink:href="class_p_i_d_controller.html#a0b194d1597e208603f7efb3c0064f0aa" target="_top" xlink:title="PIDController::GetF">
<polygon fill="white" stroke="black" points="323.5,-152.5 323.5,-171.5 424.5,-171.5 424.5,-152.5 323.5,-152.5"/>
<text text-anchor="middle" x="374" y="-159.5" font-family="Helvetica,sans-Serif" font-size="10.00">PIDController::GetF</text>
</a>
</g>
<!-- Node2&#45;&gt;Node6 -->
<g id="edge10" class="edge"><title>Node2&#45;&gt;Node6</title>
<path fill="none" stroke="midnightblue" d="M272.042,-162C285.425,-162 299.721,-162 313.221,-162"/>
<polygon fill="midnightblue" stroke="midnightblue" points="313.36,-165.5 323.36,-162 313.36,-158.5 313.36,-165.5"/>
</g>
<!-- Node7 -->
<g id="node13" class="node"><title>Node7</title>
<a xlink:href="class_p_i_d_controller.html#ac25eb01ba2a0118f692bae207de62d63" target="_top" xlink:title="PIDController::GetSetpoint">
<polygon fill="white" stroke="black" points="308.5,-114.5 308.5,-133.5 439.5,-133.5 439.5,-114.5 308.5,-114.5"/>
<text text-anchor="middle" x="374" y="-121.5" font-family="Helvetica,sans-Serif" font-size="10.00">PIDController::GetSetpoint</text>
</a>
</g>
<!-- Node2&#45;&gt;Node7 -->
<g id="edge12" class="edge"><title>Node2&#45;&gt;Node7</title>
<path fill="none" stroke="midnightblue" d="M254.87,-152.411C275.72,-147.396 301.435,-141.212 323.543,-135.895"/>
<polygon fill="midnightblue" stroke="midnightblue" points="324.512,-139.261 333.417,-133.52 322.875,-132.456 324.512,-139.261"/>
</g>
<!-- Node8 -->
<g id="node15" class="node"><title>Node8</title>
<a xlink:href="class_p_i_d_controller.html#a55f228ba275cac683e82bbc48a298842" target="_top" xlink:title="PIDController::IsEnabled">
<polygon fill="white" stroke="black" points="313,-76.5 313,-95.5 435,-95.5 435,-76.5 313,-76.5"/>
<text text-anchor="middle" x="374" y="-83.5" font-family="Helvetica,sans-Serif" font-size="10.00">PIDController::IsEnabled</text>
</a>
</g>
<!-- Node2&#45;&gt;Node8 -->
<g id="edge14" class="edge"><title>Node2&#45;&gt;Node8</title>
<path fill="none" stroke="midnightblue" d="M228.24,-152.311C245.737,-139.884 277.875,-118.349 308,-105 313.106,-102.738 318.555,-100.661 324.043,-98.7781"/>
<polygon fill="midnightblue" stroke="midnightblue" points="325.456,-102 333.901,-95.6017 323.309,-95.3374 325.456,-102"/>
</g>
<!-- Node10 -->
<g id="node19" class="node"><title>Node10</title>
<a xlink:href="class_command.html#a68535903fc61c641f4ab2fdbd11d4257" target="_top" xlink:title="Command::GetName">
<polygon fill="white" stroke="black" points="320,-38.5 320,-57.5 428,-57.5 428,-38.5 320,-38.5"/>
<text text-anchor="middle" x="374" y="-45.5" font-family="Helvetica,sans-Serif" font-size="10.00">Command::GetName</text>
</a>
</g>
<!-- Node9&#45;&gt;Node10 -->
<g id="edge18" class="edge"><title>Node9&#45;&gt;Node10</title>
<path fill="none" stroke="midnightblue" d="M265.862,-48C279.727,-48 294.922,-48 309.4,-48"/>
<polygon fill="midnightblue" stroke="midnightblue" points="309.785,-51.5001 319.785,-48 309.785,-44.5001 309.785,-51.5001"/>
</g>
<!-- Node11 -->
<g id="node21" class="node"><title>Node11</title>
<a xlink:href="class_command.html#a2885369af7a278b59c6941b1df23ac86" target="_top" xlink:title="Command::IsRunning">
<polygon fill="white" stroke="black" points="319,-0.5 319,-19.5 429,-19.5 429,-0.5 319,-0.5"/>
<text text-anchor="middle" x="374" y="-7.5" font-family="Helvetica,sans-Serif" font-size="10.00">Command::IsRunning</text>
</a>
</g>
<!-- Node9&#45;&gt;Node11 -->
<g id="edge20" class="edge"><title>Node9&#45;&gt;Node11</title>
<path fill="none" stroke="midnightblue" d="M254.87,-38.411C275.72,-33.3965 301.435,-27.2119 323.543,-21.8947"/>
<polygon fill="midnightblue" stroke="midnightblue" points="324.512,-25.2615 333.417,-19.5201 322.875,-18.4555 324.512,-25.2615"/>
</g>
</g>
</svg>
