<?xml version="1.0" encoding="UTF-8" standalone="no"?>
<!DOCTYPE svg PUBLIC "-//W3C//DTD SVG 1.1//EN"
 "http://www.w3.org/Graphics/SVG/1.1/DTD/svg11.dtd">
<!-- Generated by graphviz version 2.28.0 (20110507.0327)
 -->
<!-- Title: CANJaguar::SetPID Pages: 1 -->
<svg width="408pt" height="104pt"
 viewBox="0.00 0.00 408.00 104.00" xmlns="http://www.w3.org/2000/svg" xmlns:xlink="http://www.w3.org/1999/xlink">
<g id="graph1" class="graph" transform="scale(1 1) rotate(0) translate(4 100)">
<title>CANJaguar::SetPID</title>
<polygon fill="white" stroke="white" points="-4,5 -4,-100 405,-100 405,5 -4,5"/>
<!-- Node1 -->
<g id="node1" class="node"><title>Node1</title>
<polygon fill="#bfbfbf" stroke="black" points="0,-38.5 0,-57.5 102,-57.5 102,-38.5 0,-38.5"/>
<text text-anchor="middle" x="51" y="-45.5" font-family="Helvetica,sans-Serif" font-size="10.00">CANJaguar::SetPID</text>
</g>
<!-- Node2 -->
<g id="node3" class="node"><title>Node2</title>
<a xlink:href="class_c_a_n_jaguar.html#a22a1787a38fd35abc2cdf15bb7d81da5" target="_top" xlink:title="CANJaguar::SetP">
<polygon fill="white" stroke="black" points="138.5,-76.5 138.5,-95.5 231.5,-95.5 231.5,-76.5 138.5,-76.5"/>
<text text-anchor="middle" x="185" y="-83.5" font-family="Helvetica,sans-Serif" font-size="10.00">CANJaguar::SetP</text>
</a>
</g>
<!-- Node1&#45;&gt;Node2 -->
<g id="edge2" class="edge"><title>Node1&#45;&gt;Node2</title>
<path fill="none" stroke="midnightblue" d="M85.3092,-57.589C102.193,-62.4494 122.895,-68.4091 140.971,-73.6127"/>
<polygon fill="midnightblue" stroke="midnightblue" points="140.123,-77.011 150.701,-76.4141 142.06,-70.2842 140.123,-77.011"/>
</g>
<!-- Node4 -->
<g id="node7" class="node"><title>Node4</title>
<a xlink:href="class_c_a_n_jaguar.html#a99abdf41fc6ce39d51f0c9d2fbbcfcb0" target="_top" xlink:title="CANJaguar::SetI">
<polygon fill="white" stroke="black" points="140.5,-38.5 140.5,-57.5 229.5,-57.5 229.5,-38.5 140.5,-38.5"/>
<text text-anchor="middle" x="185" y="-45.5" font-family="Helvetica,sans-Serif" font-size="10.00">CANJaguar::SetI</text>
</a>
</g>
<!-- Node1&#45;&gt;Node4 -->
<g id="edge6" class="edge"><title>Node1&#45;&gt;Node4</title>
<path fill="none" stroke="midnightblue" d="M102.28,-48C111.385,-48 120.914,-48 130.117,-48"/>
<polygon fill="midnightblue" stroke="midnightblue" points="130.329,-51.5001 140.329,-48 130.329,-44.5001 130.329,-51.5001"/>
</g>
<!-- Node5 -->
<g id="node10" class="node"><title>Node5</title>
<a xlink:href="class_c_a_n_jaguar.html#a5c5228b40626981bcb5009044edc28d7" target="_top" xlink:title="CANJaguar::SetD">
<polygon fill="white" stroke="black" points="138.5,-0.5 138.5,-19.5 231.5,-19.5 231.5,-0.5 138.5,-0.5"/>
<text text-anchor="middle" x="185" y="-7.5" font-family="Helvetica,sans-Serif" font-size="10.00">CANJaguar::SetD</text>
</a>
</g>
<!-- Node1&#45;&gt;Node5 -->
<g id="edge10" class="edge"><title>Node1&#45;&gt;Node5</title>
<path fill="none" stroke="midnightblue" d="M85.3092,-38.411C102.193,-33.5506 122.895,-27.5909 140.971,-22.3873"/>
<polygon fill="midnightblue" stroke="midnightblue" points="142.06,-25.7158 150.701,-19.5859 140.123,-18.989 142.06,-25.7158"/>
</g>
<!-- Node3 -->
<g id="node5" class="node"><title>Node3</title>
<a xlink:href="class_c_a_n_jaguar.html#a6b82b54cc4033c3c5218ab04fb6c8282" target="_top" xlink:title="CANJaguar::sendMessage">
<polygon fill="white" stroke="black" points="268,-38.5 268,-57.5 400,-57.5 400,-38.5 268,-38.5"/>
<text text-anchor="middle" x="334" y="-45.5" font-family="Helvetica,sans-Serif" font-size="10.00">CANJaguar::sendMessage</text>
</a>
</g>
<!-- Node2&#45;&gt;Node3 -->
<g id="edge4" class="edge"><title>Node2&#45;&gt;Node3</title>
<path fill="none" stroke="midnightblue" d="M223.094,-76.411C242.318,-71.4417 265.986,-65.3233 286.429,-60.0387"/>
<polygon fill="midnightblue" stroke="midnightblue" points="287.367,-63.4115 296.172,-57.5201 285.615,-56.6343 287.367,-63.4115"/>
</g>
<!-- Node4&#45;&gt;Node3 -->
<g id="edge8" class="edge"><title>Node4&#45;&gt;Node3</title>
<path fill="none" stroke="midnightblue" d="M229.707,-48C238.626,-48 248.25,-48 257.911,-48"/>
<polygon fill="midnightblue" stroke="midnightblue" points="257.964,-51.5001 267.964,-48 257.964,-44.5001 257.964,-51.5001"/>
</g>
<!-- Node5&#45;&gt;Node3 -->
<g id="edge12" class="edge"><title>Node5&#45;&gt;Node3</title>
<path fill="none" stroke="midnightblue" d="M223.094,-19.589C242.318,-24.5583 265.986,-30.6767 286.429,-35.9613"/>
<polygon fill="midnightblue" stroke="midnightblue" points="285.615,-39.3657 296.172,-38.4799 287.367,-32.5885 285.615,-39.3657"/>
</g>
</g>
</svg>
