<?xml version="1.0" encoding="UTF-8" standalone="no"?>
<!DOCTYPE svg PUBLIC "-//W3C//DTD SVG 1.1//EN"
 "http://www.w3.org/Graphics/SVG/1.1/DTD/svg11.dtd">
<!-- Generated by graphviz version 2.28.0 (20110507.0327)
 -->
<!-- Title: CANJaguar::SetPercentMode Pages: 1 -->
<svg width="718pt" height="153pt"
 viewBox="0.00 0.00 718.00 153.00" xmlns="http://www.w3.org/2000/svg" xmlns:xlink="http://www.w3.org/1999/xlink">
<g id="graph1" class="graph" transform="scale(1 1) rotate(0) translate(4 149)">
<title>CANJaguar::SetPercentMode</title>
<polygon fill="white" stroke="white" points="-4,5 -4,-149 715,-149 715,5 -4,5"/>
<!-- Node1 -->
<g id="node1" class="node"><title>Node1</title>
<polygon fill="#bfbfbf" stroke="black" points="0,-68.5 0,-87.5 144,-87.5 144,-68.5 0,-68.5"/>
<text text-anchor="middle" x="72" y="-75.5" font-family="Helvetica,sans-Serif" font-size="10.00">CANJaguar::SetPercentMode</text>
</g>
<!-- Node2 -->
<g id="node3" class="node"><title>Node2</title>
<a xlink:href="class_c_a_n_jaguar.html#ad359943907bf802075474a3753f7fb02" target="_top" xlink:title="CANJaguar::SetControlMode">
<polygon fill="white" stroke="black" points="189.5,-125.5 189.5,-144.5 330.5,-144.5 330.5,-125.5 189.5,-125.5"/>
<text text-anchor="middle" x="260" y="-132.5" font-family="Helvetica,sans-Serif" font-size="10.00">CANJaguar::SetControlMode</text>
</a>
</g>
<!-- Node1&#45;&gt;Node2 -->
<g id="edge2" class="edge"><title>Node1&#45;&gt;Node2</title>
<path fill="none" stroke="midnightblue" d="M103.893,-87.5654C125.259,-94.1719 154.348,-103.148 180,-111 192.207,-114.737 205.483,-118.778 217.605,-122.46"/>
<polygon fill="midnightblue" stroke="midnightblue" points="216.883,-125.899 227.468,-125.454 218.916,-119.2 216.883,-125.899"/>
</g>
<!-- Node5 -->
<g id="node9" class="node"><title>Node5</title>
<a xlink:href="class_c_a_n_jaguar.html#a4ea009bbaaa337eeb10efba61203ee38" target="_top" xlink:title="CANJaguar::SetPositionReference">
<polygon fill="white" stroke="black" points="376.5,-87.5 376.5,-106.5 541.5,-106.5 541.5,-87.5 376.5,-87.5"/>
<text text-anchor="middle" x="459" y="-94.5" font-family="Helvetica,sans-Serif" font-size="10.00">CANJaguar::SetPositionReference</text>
</a>
</g>
<!-- Node1&#45;&gt;Node5 -->
<g id="edge8" class="edge"><title>Node1&#45;&gt;Node5</title>
<path fill="none" stroke="midnightblue" d="M144.064,-81.507C206.579,-84.5922 297.976,-89.1027 366.05,-92.4622"/>
<polygon fill="midnightblue" stroke="midnightblue" points="366.181,-95.9729 376.342,-92.9701 366.526,-88.9814 366.181,-95.9729"/>
</g>
<!-- Node6 -->
<g id="node12" class="node"><title>Node6</title>
<a xlink:href="class_c_a_n_jaguar.html#ac6780a940570ec0386d234b309fb260d" target="_top" xlink:title="CANJaguar::SetSpeedReference">
<polygon fill="white" stroke="black" points="380,-49.5 380,-68.5 538,-68.5 538,-49.5 380,-49.5"/>
<text text-anchor="middle" x="459" y="-56.5" font-family="Helvetica,sans-Serif" font-size="10.00">CANJaguar::SetSpeedReference</text>
</a>
</g>
<!-- Node1&#45;&gt;Node6 -->
<g id="edge12" class="edge"><title>Node1&#45;&gt;Node6</title>
<path fill="none" stroke="midnightblue" d="M144.064,-74.493C207.613,-71.3568 301.005,-66.7478 369.406,-63.3722"/>
<polygon fill="midnightblue" stroke="midnightblue" points="369.919,-66.8512 379.735,-62.8624 369.574,-59.8597 369.919,-66.8512"/>
</g>
<!-- Node7 -->
<g id="node15" class="node"><title>Node7</title>
<a xlink:href="class_c_a_n_jaguar.html#aefcfcbee61541f69cae47ea1ef405f17" target="_top" xlink:title="CANJaguar::ConfigPotentiometer\lTurns">
<polygon fill="white" stroke="black" points="180.5,-0 180.5,-30 339.5,-30 339.5,-0 180.5,-0"/>
<text text-anchor="start" x="188.5" y="-18" font-family="Helvetica,sans-Serif" font-size="10.00">CANJaguar::ConfigPotentiometer</text>
<text text-anchor="middle" x="260" y="-7" font-family="Helvetica,sans-Serif" font-size="10.00">Turns</text>
</a>
</g>
<!-- Node1&#45;&gt;Node7 -->
<g id="edge16" class="edge"><title>Node1&#45;&gt;Node7</title>
<path fill="none" stroke="midnightblue" d="M101.249,-68.4317C128.628,-59.1582 170.871,-44.8502 204.755,-33.3734"/>
<polygon fill="midnightblue" stroke="midnightblue" points="206.174,-36.5882 214.522,-30.065 203.928,-29.9582 206.174,-36.5882"/>
</g>
<!-- Node3 -->
<g id="node5" class="node"><title>Node3</title>
<a xlink:href="class_c_a_n_jaguar.html#a6bbbf784a74cf95f7b4a5660a3d53cc2" target="_top" xlink:title="CANJaguar::DisableControl">
<polygon fill="white" stroke="black" points="392,-125.5 392,-144.5 526,-144.5 526,-125.5 392,-125.5"/>
<text text-anchor="middle" x="459" y="-132.5" font-family="Helvetica,sans-Serif" font-size="10.00">CANJaguar::DisableControl</text>
</a>
</g>
<!-- Node2&#45;&gt;Node3 -->
<g id="edge4" class="edge"><title>Node2&#45;&gt;Node3</title>
<path fill="none" stroke="midnightblue" d="M330.732,-135C347.231,-135 364.91,-135 381.685,-135"/>
<polygon fill="midnightblue" stroke="midnightblue" points="381.993,-138.5 391.993,-135 381.993,-131.5 381.993,-138.5"/>
</g>
<!-- Node4 -->
<g id="node7" class="node"><title>Node4</title>
<a xlink:href="class_c_a_n_jaguar.html#a6b82b54cc4033c3c5218ab04fb6c8282" target="_top" xlink:title="CANJaguar::sendMessage">
<polygon fill="white" stroke="black" points="578,-68.5 578,-87.5 710,-87.5 710,-68.5 578,-68.5"/>
<text text-anchor="middle" x="644" y="-75.5" font-family="Helvetica,sans-Serif" font-size="10.00">CANJaguar::sendMessage</text>
</a>
</g>
<!-- Node3&#45;&gt;Node4 -->
<g id="edge6" class="edge"><title>Node3&#45;&gt;Node4</title>
<path fill="none" stroke="midnightblue" d="M506.254,-125.408C517.995,-122.666 530.53,-119.47 542,-116 565.317,-108.946 591.005,-99.2539 610.639,-91.4238"/>
<polygon fill="midnightblue" stroke="midnightblue" points="612.067,-94.6222 620.032,-87.6362 609.449,-88.1301 612.067,-94.6222"/>
</g>
<!-- Node5&#45;&gt;Node4 -->
<g id="edge10" class="edge"><title>Node5&#45;&gt;Node4</title>
<path fill="none" stroke="midnightblue" d="M541.599,-88.528C550.299,-87.6247 559.12,-86.7088 567.742,-85.8136"/>
<polygon fill="midnightblue" stroke="midnightblue" points="568.169,-89.2883 577.754,-84.7742 567.446,-82.3257 568.169,-89.2883"/>
</g>
<!-- Node6&#45;&gt;Node4 -->
<g id="edge14" class="edge"><title>Node6&#45;&gt;Node4</title>
<path fill="none" stroke="midnightblue" d="M538.139,-67.1128C547.945,-68.1309 557.96,-69.1707 567.72,-70.1841"/>
<polygon fill="midnightblue" stroke="midnightblue" points="567.472,-73.6771 577.78,-71.2286 568.195,-66.7145 567.472,-73.6771"/>
</g>
<!-- Node7&#45;&gt;Node4 -->
<g id="edge18" class="edge"><title>Node7&#45;&gt;Node4</title>
<path fill="none" stroke="midnightblue" d="M339.712,-16.3159C396.544,-18.6375 474.791,-24.6674 542,-40 566.688,-45.6322 593.462,-55.9102 613.237,-64.358"/>
<polygon fill="midnightblue" stroke="midnightblue" points="612.051,-67.6594 622.616,-68.4519 614.851,-61.2438 612.051,-67.6594"/>
</g>
</g>
</svg>
