<?xml version="1.0" encoding="UTF-8" standalone="no"?>
<!DOCTYPE svg PUBLIC "-//W3C//DTD SVG 1.1//EN"
 "http://www.w3.org/Graphics/SVG/1.1/DTD/svg11.dtd">
<!-- Generated by graphviz version 2.28.0 (20110507.0327)
 -->
<!-- Title: Command::IsRunning Pages: 1 -->
<svg width="690pt" height="85pt"
 viewBox="0.00 0.00 690.00 85.00" xmlns="http://www.w3.org/2000/svg" xmlns:xlink="http://www.w3.org/1999/xlink">
<g id="graph1" class="graph" transform="scale(1 1) rotate(0) translate(4 81)">
<title>Command::IsRunning</title>
<polygon fill="white" stroke="white" points="-4,5 -4,-81 687,-81 687,5 -4,5"/>
<!-- Node1 -->
<g id="node1" class="node"><title>Node1</title>
<polygon fill="#bfbfbf" stroke="black" points="0,-19.5 0,-38.5 110,-38.5 110,-19.5 0,-19.5"/>
<text text-anchor="middle" x="55" y="-26.5" font-family="Helvetica,sans-Serif" font-size="10.00">Command::IsRunning</text>
</g>
<!-- Node2 -->
<g id="node3" class="node"><title>Node2</title>
<a xlink:href="class_command.html#a2e36a819254da2bb9badb3227bdfe336" target="_top" xlink:title="Command::_Cancel">
<polygon fill="white" stroke="black" points="147,-38.5 147,-57.5 249,-57.5 249,-38.5 147,-38.5"/>
<text text-anchor="middle" x="198" y="-45.5" font-family="Helvetica,sans-Serif" font-size="10.00">Command::_Cancel</text>
</a>
</g>
<!-- Node1&#45;&gt;Node2 -->
<g id="edge2" class="edge"><title>Node1&#45;&gt;Node2</title>
<path fill="none" stroke="midnightblue" d="M120.171,-37.6472C129.161,-38.8586 138.29,-40.0887 146.966,-41.2579"/>
<polygon fill="midnightblue" stroke="midnightblue" points="120.489,-34.1584 110.111,-36.2916 119.554,-41.0957 120.489,-34.1584"/>
</g>
<!-- Node7 -->
<g id="node14" class="node"><title>Node7</title>
<a xlink:href="class_command.html#a0d4248ecf28f82d7e35ee177eeac8d31" target="_top" xlink:title="Command::InitTable">
<polygon fill="white" stroke="black" points="146.5,-0.5 146.5,-19.5 249.5,-19.5 249.5,-0.5 146.5,-0.5"/>
<text text-anchor="middle" x="198" y="-7.5" font-family="Helvetica,sans-Serif" font-size="10.00">Command::InitTable</text>
</a>
</g>
<!-- Node1&#45;&gt;Node7 -->
<g id="edge14" class="edge"><title>Node1&#45;&gt;Node7</title>
<path fill="none" stroke="midnightblue" d="M120.193,-20.3498C128.859,-19.1821 137.653,-17.9971 146.046,-16.8662"/>
<polygon fill="midnightblue" stroke="midnightblue" points="119.554,-16.9043 110.111,-21.7084 120.489,-23.8416 119.554,-16.9043"/>
</g>
<!-- Node3 -->
<g id="node5" class="node"><title>Node3</title>
<a xlink:href="class_command.html#af566114c4b517ef22d8c7820c171b8b2" target="_top" xlink:title="Command::Cancel">
<polygon fill="white" stroke="black" points="297.5,-38.5 297.5,-57.5 394.5,-57.5 394.5,-38.5 297.5,-38.5"/>
<text text-anchor="middle" x="346" y="-45.5" font-family="Helvetica,sans-Serif" font-size="10.00">Command::Cancel</text>
</a>
</g>
<!-- Node2&#45;&gt;Node3 -->
<g id="edge4" class="edge"><title>Node2&#45;&gt;Node3</title>
<path fill="none" stroke="midnightblue" d="M259.606,-48C272.122,-48 285.138,-48 297.125,-48"/>
<polygon fill="midnightblue" stroke="midnightblue" points="259.245,-44.5001 249.245,-48 259.245,-51.5001 259.245,-44.5001"/>
</g>
<!-- Node4 -->
<g id="node7" class="node"><title>Node4</title>
<a xlink:href="class_command.html#ae10d99a6cec39f82aa9cb3dc289a45eb" target="_top" xlink:title="Command::Run">
<polygon fill="white" stroke="black" points="460,-57.5 460,-76.5 544,-76.5 544,-57.5 460,-57.5"/>
<text text-anchor="middle" x="502" y="-64.5" font-family="Helvetica,sans-Serif" font-size="10.00">Command::Run</text>
</a>
</g>
<!-- Node3&#45;&gt;Node4 -->
<g id="edge6" class="edge"><title>Node3&#45;&gt;Node4</title>
<path fill="none" stroke="midnightblue" d="M404.866,-55.1393C423.173,-57.3979 443.02,-59.8467 459.902,-61.9294"/>
<polygon fill="midnightblue" stroke="midnightblue" points="405.236,-51.6585 394.882,-53.9076 404.379,-58.6058 405.236,-51.6585"/>
</g>
<!-- Node6 -->
<g id="node11" class="node"><title>Node6</title>
<a xlink:href="class_scheduler.html#af1c349ae113be36ad0026d1a82951693" target="_top" xlink:title="Scheduler::UpdateTable">
<polygon fill="white" stroke="black" points="442,-19.5 442,-38.5 562,-38.5 562,-19.5 442,-19.5"/>
<text text-anchor="middle" x="502" y="-26.5" font-family="Helvetica,sans-Serif" font-size="10.00">Scheduler::UpdateTable</text>
</a>
</g>
<!-- Node3&#45;&gt;Node6 -->
<g id="edge10" class="edge"><title>Node3&#45;&gt;Node6</title>
<path fill="none" stroke="midnightblue" d="M404.831,-40.865C416.897,-39.3764 429.633,-37.8051 441.749,-36.3102"/>
<polygon fill="midnightblue" stroke="midnightblue" points="404.379,-37.3942 394.882,-42.0924 405.236,-44.3415 404.379,-37.3942"/>
</g>
<!-- Node5 -->
<g id="node9" class="node"><title>Node5</title>
<a xlink:href="class_scheduler.html#a6e17233143754873d7f29860047de2c1" target="_top" xlink:title="Scheduler::Run">
<polygon fill="white" stroke="black" points="598.5,-38.5 598.5,-57.5 681.5,-57.5 681.5,-38.5 598.5,-38.5"/>
<text text-anchor="middle" x="640" y="-45.5" font-family="Helvetica,sans-Serif" font-size="10.00">Scheduler::Run</text>
</a>
</g>
<!-- Node4&#45;&gt;Node5 -->
<g id="edge8" class="edge"><title>Node4&#45;&gt;Node5</title>
<path fill="none" stroke="midnightblue" d="M554.1,-59.8611C568.748,-57.8147 584.513,-55.6122 598.434,-53.6673"/>
<polygon fill="midnightblue" stroke="midnightblue" points="553.593,-56.3978 544.174,-61.2478 554.562,-63.3304 553.593,-56.3978"/>
</g>
<!-- Node6&#45;&gt;Node5 -->
<g id="edge12" class="edge"><title>Node6&#45;&gt;Node5</title>
<path fill="none" stroke="midnightblue" d="M572.291,-38.6803C581.196,-39.9245 590.072,-41.1645 598.308,-42.3151"/>
<polygon fill="midnightblue" stroke="midnightblue" points="572.644,-35.1958 562.256,-37.2784 571.675,-42.1284 572.644,-35.1958"/>
</g>
<!-- Node8 -->
<g id="node16" class="node"><title>Node8</title>
<a xlink:href="class_p_i_d_command.html#aca89a102a75fc9fc9d8eaa4472a8af35" target="_top" xlink:title="PIDCommand::InitTable">
<polygon fill="white" stroke="black" points="286.5,-0.5 286.5,-19.5 405.5,-19.5 405.5,-0.5 286.5,-0.5"/>
<text text-anchor="middle" x="346" y="-7.5" font-family="Helvetica,sans-Serif" font-size="10.00">PIDCommand::InitTable</text>
</a>
</g>
<!-- Node7&#45;&gt;Node8 -->
<g id="edge16" class="edge"><title>Node7&#45;&gt;Node8</title>
<path fill="none" stroke="midnightblue" d="M259.836,-10C268.631,-10 277.668,-10 286.418,-10"/>
<polygon fill="midnightblue" stroke="midnightblue" points="259.654,-6.5001 249.654,-10 259.654,-13.5001 259.654,-6.5001"/>
</g>
</g>
</svg>
