<?xml version="1.0" encoding="UTF-8" standalone="no"?>
<!DOCTYPE svg PUBLIC "-//W3C//DTD SVG 1.1//EN"
 "http://www.w3.org/Graphics/SVG/1.1/DTD/svg11.dtd">
<!-- Generated by graphviz version 2.28.0 (20110507.0327)
 -->
<!-- Title: CANJaguar::EnableControl Pages: 1 -->
<svg width="562pt" height="66pt"
 viewBox="0.00 0.00 562.00 66.00" xmlns="http://www.w3.org/2000/svg" xmlns:xlink="http://www.w3.org/1999/xlink">
<g id="graph1" class="graph" transform="scale(1 1) rotate(0) translate(4 62)">
<title>CANJaguar::EnableControl</title>
<polygon fill="white" stroke="white" points="-4,5 -4,-62 559,-62 559,5 -4,5"/>
<!-- Node1 -->
<g id="node1" class="node"><title>Node1</title>
<polygon fill="#bfbfbf" stroke="black" points="0,-19.5 0,-38.5 132,-38.5 132,-19.5 0,-19.5"/>
<text text-anchor="middle" x="66" y="-26.5" font-family="Helvetica,sans-Serif" font-size="10.00">CANJaguar::EnableControl</text>
</g>
<!-- Node2 -->
<g id="node3" class="node"><title>Node2</title>
<a xlink:href="class_c_a_n_jaguar.html#a3a22b02ece406993619f993b1e09012a" target="_top" xlink:title="CANJaguar::Set">
<polygon fill="white" stroke="black" points="298,-19.5 298,-38.5 384,-38.5 384,-19.5 298,-19.5"/>
<text text-anchor="middle" x="341" y="-26.5" font-family="Helvetica,sans-Serif" font-size="10.00">CANJaguar::Set</text>
</a>
</g>
<!-- Node1&#45;&gt;Node2 -->
<g id="edge2" class="edge"><title>Node1&#45;&gt;Node2</title>
<path fill="none" stroke="midnightblue" d="M142.208,-29C192.405,-29 256.559,-29 297.962,-29"/>
<polygon fill="midnightblue" stroke="midnightblue" points="142.043,-25.5001 132.043,-29 142.043,-32.5001 142.043,-25.5001"/>
</g>
<!-- Node5 -->
<g id="node9" class="node"><title>Node5</title>
<a xlink:href="class_c_a_n_jaguar.html#a97fe9cb246f90060495c808e31070650" target="_top" xlink:title="CANJaguar::verify">
<polygon fill="white" stroke="black" points="168.5,-0.5 168.5,-19.5 261.5,-19.5 261.5,-0.5 168.5,-0.5"/>
<text text-anchor="middle" x="215" y="-7.5" font-family="Helvetica,sans-Serif" font-size="10.00">CANJaguar::verify</text>
</a>
</g>
<!-- Node1&#45;&gt;Node5 -->
<g id="edge8" class="edge"><title>Node1&#45;&gt;Node5</title>
<path fill="none" stroke="midnightblue" d="M142.311,-19.266C151.16,-18.1222 159.974,-16.983 168.239,-15.9147"/>
<polygon fill="midnightblue" stroke="midnightblue" points="141.801,-15.8026 132.332,-20.5557 142.699,-22.7449 141.801,-15.8026"/>
</g>
<!-- Node3 -->
<g id="node5" class="node"><title>Node3</title>
<a xlink:href="class_c_a_n_jaguar.html#a2355d55f42083ab82870c79f742620e4" target="_top" xlink:title="CANJaguar::PIDWrite">
<polygon fill="white" stroke="black" points="432,-38.5 432,-57.5 542,-57.5 542,-38.5 432,-38.5"/>
<text text-anchor="middle" x="487" y="-45.5" font-family="Helvetica,sans-Serif" font-size="10.00">CANJaguar::PIDWrite</text>
</a>
</g>
<!-- Node2&#45;&gt;Node3 -->
<g id="edge4" class="edge"><title>Node2&#45;&gt;Node3</title>
<path fill="none" stroke="midnightblue" d="M394.11,-35.8756C406.376,-37.4941 419.478,-39.2228 431.832,-40.8529"/>
<polygon fill="midnightblue" stroke="midnightblue" points="394.41,-32.3849 384.038,-34.5467 393.494,-39.3248 394.41,-32.3849"/>
</g>
<!-- Node4 -->
<g id="node7" class="node"><title>Node4</title>
<a xlink:href="class_c_a_n_jaguar_test.html#a3c9026e62eb65e2d497bb7bbfaded297" target="_top" xlink:title="CANJaguarTest::SetJaguar">
<polygon fill="white" stroke="black" points="420,-0.5 420,-19.5 554,-19.5 554,-0.5 420,-0.5"/>
<text text-anchor="middle" x="487" y="-7.5" font-family="Helvetica,sans-Serif" font-size="10.00">CANJaguarTest::SetJaguar</text>
</a>
</g>
<!-- Node2&#45;&gt;Node4 -->
<g id="edge6" class="edge"><title>Node2&#45;&gt;Node4</title>
<path fill="none" stroke="midnightblue" d="M394.018,-22.1365C402.387,-21.0323 411.147,-19.8765 419.794,-18.7355"/>
<polygon fill="midnightblue" stroke="midnightblue" points="393.494,-18.6752 384.038,-23.4533 394.41,-25.6151 393.494,-18.6752"/>
</g>
<!-- Node5&#45;&gt;Node2 -->
<g id="edge10" class="edge"><title>Node5&#45;&gt;Node2</title>
<path fill="none" stroke="midnightblue" d="M271.873,-18.5611C280.533,-19.8882 289.355,-21.2399 297.653,-22.5113"/>
<polygon fill="midnightblue" stroke="midnightblue" points="272.235,-15.076 261.821,-17.0209 271.175,-21.9952 272.235,-15.076"/>
</g>
</g>
</svg>
