<?xml version="1.0" encoding="UTF-8" standalone="no"?>
<!DOCTYPE svg PUBLIC "-//W3C//DTD SVG 1.1//EN"
 "http://www.w3.org/Graphics/SVG/1.1/DTD/svg11.dtd">
<!-- Generated by graphviz version 2.28.0 (20110507.0327)
 -->
<!-- Title: PWM::UpdateTable Pages: 1 -->
<svg width="516pt" height="47pt"
 viewBox="0.00 0.00 516.00 47.00" xmlns="http://www.w3.org/2000/svg" xmlns:xlink="http://www.w3.org/1999/xlink">
<g id="graph1" class="graph" transform="scale(1 1) rotate(0) translate(4 43)">
<title>PWM::UpdateTable</title>
<polygon fill="white" stroke="white" points="-4,5 -4,-43 513,-43 513,5 -4,5"/>
<!-- Node1 -->
<g id="node1" class="node"><title>Node1</title>
<polygon fill="#bfbfbf" stroke="black" points="0.5,-19.5 0.5,-38.5 101.5,-38.5 101.5,-19.5 0.5,-19.5"/>
<text text-anchor="middle" x="51" y="-26.5" font-family="Helvetica,sans-Serif" font-size="10.00">PWM::UpdateTable</text>
</g>
<!-- Node2 -->
<g id="node3" class="node"><title>Node2</title>
<a xlink:href="class_p_w_m.html#a42b209cbe7e63732918cbbcb55bfaac7" target="_top" xlink:title="PWM::GetSpeed">
<polygon fill="white" stroke="black" points="138.5,-19.5 138.5,-38.5 229.5,-38.5 229.5,-19.5 138.5,-19.5"/>
<text text-anchor="middle" x="184" y="-26.5" font-family="Helvetica,sans-Serif" font-size="10.00">PWM::GetSpeed</text>
</a>
</g>
<!-- Node1&#45;&gt;Node2 -->
<g id="edge2" class="edge"><title>Node1&#45;&gt;Node2</title>
<path fill="none" stroke="midnightblue" d="M101.525,-29C110.17,-29 119.21,-29 127.992,-29"/>
<polygon fill="midnightblue" stroke="midnightblue" points="128.143,-32.5001 138.143,-29 128.143,-25.5001 128.143,-32.5001"/>
</g>
<!-- Node3 -->
<g id="node5" class="node"><title>Node3</title>
<a xlink:href="class_error_base.html#a05790f219c9e436a09752f73f7344024" target="_top" xlink:title="Check if the current error code represents a fatal error. ">
<polygon fill="white" stroke="black" points="384,-19.5 384,-38.5 508,-38.5 508,-19.5 384,-19.5"/>
<text text-anchor="middle" x="446" y="-26.5" font-family="Helvetica,sans-Serif" font-size="10.00">ErrorBase::StatusIsFatal</text>
</a>
</g>
<!-- Node2&#45;&gt;Node3 -->
<g id="edge4" class="edge"><title>Node2&#45;&gt;Node3</title>
<path fill="none" stroke="midnightblue" d="M229.696,-29C269.245,-29 327.655,-29 373.661,-29"/>
<polygon fill="midnightblue" stroke="midnightblue" points="373.873,-32.5001 383.873,-29 373.873,-25.5001 373.873,-32.5001"/>
</g>
<!-- Node4 -->
<g id="node7" class="node"><title>Node4</title>
<a xlink:href="class_p_w_m.html#afe21d7814cd2c51c0652fbf9f58af958" target="_top" xlink:title="PWM::GetRaw">
<polygon fill="white" stroke="black" points="266,-0.5 266,-19.5 348,-19.5 348,-0.5 266,-0.5"/>
<text text-anchor="middle" x="307" y="-7.5" font-family="Helvetica,sans-Serif" font-size="10.00">PWM::GetRaw</text>
</a>
</g>
<!-- Node2&#45;&gt;Node4 -->
<g id="edge6" class="edge"><title>Node2&#45;&gt;Node4</title>
<path fill="none" stroke="midnightblue" d="M229.712,-21.9791C238.228,-20.6418 247.193,-19.2341 255.865,-17.8724"/>
<polygon fill="midnightblue" stroke="midnightblue" points="256.53,-21.3109 265.866,-16.302 255.444,-14.3957 256.53,-21.3109"/>
</g>
<!-- Node4&#45;&gt;Node3 -->
<g id="edge8" class="edge"><title>Node4&#45;&gt;Node3</title>
<path fill="none" stroke="midnightblue" d="M348.364,-15.5979C356.362,-16.7072 364.981,-17.9025 373.66,-19.1062"/>
<polygon fill="midnightblue" stroke="midnightblue" points="373.458,-22.6115 383.844,-20.5185 374.419,-15.6779 373.458,-22.6115"/>
</g>
</g>
</svg>
