<?xml version="1.0" encoding="UTF-8" standalone="no"?>
<!DOCTYPE svg PUBLIC "-//W3C//DTD SVG 1.1//EN"
 "http://www.w3.org/Graphics/SVG/1.1/DTD/svg11.dtd">
<!-- Generated by graphviz version 2.28.0 (20110507.0327)
 -->
<!-- Title: SPI::Transaction Pages: 1 -->
<svg width="770pt" height="142pt"
 viewBox="0.00 0.00 770.00 142.00" xmlns="http://www.w3.org/2000/svg" xmlns:xlink="http://www.w3.org/1999/xlink">
<g id="graph1" class="graph" transform="scale(1 1) rotate(0) translate(4 138)">
<title>SPI::Transaction</title>
<polygon fill="white" stroke="white" points="-4,5 -4,-138 767,-138 767,5 -4,5"/>
<!-- Node1 -->
<g id="node1" class="node"><title>Node1</title>
<polygon fill="#bfbfbf" stroke="black" points="0.5,-57.5 0.5,-76.5 89.5,-76.5 89.5,-57.5 0.5,-57.5"/>
<text text-anchor="middle" x="45" y="-64.5" font-family="Helvetica,sans-Serif" font-size="10.00">SPI::Transaction</text>
</g>
<!-- Node2 -->
<g id="node3" class="node"><title>Node2</title>
<a xlink:href="class_a_d_x_l345___s_p_i.html#a4fc291813cfeba26060014221a0ba156" target="_top" xlink:title="ADXL345_SPI::Init">
<polygon fill="white" stroke="black" points="325,-114.5 325,-133.5 421,-133.5 421,-114.5 325,-114.5"/>
<text text-anchor="middle" x="373" y="-121.5" font-family="Helvetica,sans-Serif" font-size="10.00">ADXL345_SPI::Init</text>
</a>
</g>
<!-- Node1&#45;&gt;Node2 -->
<g id="edge2" class="edge"><title>Node1&#45;&gt;Node2</title>
<path fill="none" stroke="midnightblue" d="M70.4359,-81.4961C85.8332,-89.8865 106.436,-99.79 126,-105 193.47,-122.968 274.753,-125.758 324.905,-125.413"/>
<polygon fill="midnightblue" stroke="midnightblue" points="72.0107,-78.3664 61.5775,-76.5228 68.5839,-84.4702 72.0107,-78.3664"/>
</g>
<!-- Node4 -->
<g id="node7" class="node"><title>Node4</title>
<a xlink:href="class_a_d_x_l345___s_p_i.html#addf684facb418bba3b282cefb9f4df0f" target="_top" xlink:title="ADXL345_SPI::SetRange">
<polygon fill="white" stroke="black" points="142,-76.5 142,-95.5 268,-95.5 268,-76.5 142,-76.5"/>
<text text-anchor="middle" x="205" y="-83.5" font-family="Helvetica,sans-Serif" font-size="10.00">ADXL345_SPI::SetRange</text>
</a>
</g>
<!-- Node1&#45;&gt;Node4 -->
<g id="edge6" class="edge"><title>Node1&#45;&gt;Node4</title>
<path fill="none" stroke="midnightblue" d="M99.7227,-73.4603C113.293,-75.0923 127.977,-76.858 141.922,-78.5349"/>
<polygon fill="midnightblue" stroke="midnightblue" points="99.9388,-69.9612 89.5924,-72.2421 99.103,-76.9111 99.9388,-69.9612"/>
</g>
<!-- Node5 -->
<g id="node10" class="node"><title>Node5</title>
<a xlink:href="class_a_d_x_l345___s_p_i.html#acae8aee7785e91d4efe1e695478ca727" target="_top" xlink:title="ADXL345_SPI::GetAcceleration">
<polygon fill="white" stroke="black" points="128.5,-38.5 128.5,-57.5 281.5,-57.5 281.5,-38.5 128.5,-38.5"/>
<text text-anchor="middle" x="205" y="-45.5" font-family="Helvetica,sans-Serif" font-size="10.00">ADXL345_SPI::GetAcceleration</text>
</a>
</g>
<!-- Node1&#45;&gt;Node5 -->
<g id="edge10" class="edge"><title>Node1&#45;&gt;Node5</title>
<path fill="none" stroke="midnightblue" d="M99.7633,-60.5348C108.992,-59.425 118.735,-58.2534 128.409,-57.09"/>
<polygon fill="midnightblue" stroke="midnightblue" points="99.103,-57.0889 89.5924,-61.7579 99.9388,-64.0388 99.103,-57.0889"/>
</g>
<!-- Node11 -->
<g id="node24" class="node"><title>Node11</title>
<a xlink:href="class_a_d_x_l345___s_p_i.html#abbd9ef138325c23402189fde28aa61c3" target="_top" xlink:title="ADXL345_SPI::GetAccelerations">
<polygon fill="white" stroke="black" points="126,-0.5 126,-19.5 284,-19.5 284,-0.5 126,-0.5"/>
<text text-anchor="middle" x="205" y="-7.5" font-family="Helvetica,sans-Serif" font-size="10.00">ADXL345_SPI::GetAccelerations</text>
</a>
</g>
<!-- Node1&#45;&gt;Node11 -->
<g id="edge26" class="edge"><title>Node1&#45;&gt;Node11</title>
<path fill="none" stroke="midnightblue" d="M72.2588,-52.8529C87.5996,-45.0161 107.521,-35.5615 126,-29 136.245,-25.3623 147.488,-22.1775 158.169,-19.5073"/>
<polygon fill="midnightblue" stroke="midnightblue" points="70.6109,-49.7648 63.3528,-57.483 73.8399,-55.9756 70.6109,-49.7648"/>
</g>
<!-- Node3 -->
<g id="node5" class="node"><title>Node3</title>
<a xlink:href="class_a_d_x_l345___s_p_i.html#afd6ce38c4905606f32ae96342b2d29ca" target="_top" xlink:title="ADXL345_SPI::ADXL345_SPI">
<polygon fill="white" stroke="black" points="462,-114.5 462,-133.5 606,-133.5 606,-114.5 462,-114.5"/>
<text text-anchor="middle" x="534" y="-121.5" font-family="Helvetica,sans-Serif" font-size="10.00">ADXL345_SPI::ADXL345_SPI</text>
</a>
</g>
<!-- Node2&#45;&gt;Node3 -->
<g id="edge4" class="edge"><title>Node2&#45;&gt;Node3</title>
<path fill="none" stroke="midnightblue" d="M431.352,-124C441.221,-124 451.586,-124 461.767,-124"/>
<polygon fill="midnightblue" stroke="midnightblue" points="431.275,-120.5 421.275,-124 431.275,-127.5 431.275,-120.5"/>
</g>
<!-- Node4&#45;&gt;Node2 -->
<g id="edge8" class="edge"><title>Node4&#45;&gt;Node2</title>
<path fill="none" stroke="midnightblue" d="M257.653,-97.8243C281.056,-103.182 308.357,-109.431 330.412,-114.48"/>
<polygon fill="midnightblue" stroke="midnightblue" points="258.418,-94.4088 247.889,-95.589 256.856,-101.232 258.418,-94.4088"/>
</g>
<!-- Node6 -->
<g id="node12" class="node"><title>Node6</title>
<a xlink:href="class_a_d_x_l345___s_p_i.html#ae91bd240c7ce0715d79e12644a67bcf1" target="_top" xlink:title="ADXL345_SPI::GetX">
<polygon fill="white" stroke="black" points="321,-76.5 321,-95.5 425,-95.5 425,-76.5 321,-76.5"/>
<text text-anchor="middle" x="373" y="-83.5" font-family="Helvetica,sans-Serif" font-size="10.00">ADXL345_SPI::GetX</text>
</a>
</g>
<!-- Node5&#45;&gt;Node6 -->
<g id="edge12" class="edge"><title>Node5&#45;&gt;Node6</title>
<path fill="none" stroke="midnightblue" d="M257.653,-59.8243C281.056,-65.1816 308.357,-71.4311 330.412,-76.4799"/>
<polygon fill="midnightblue" stroke="midnightblue" points="258.418,-56.4088 247.889,-57.589 256.856,-63.2323 258.418,-56.4088"/>
</g>
<!-- Node9 -->
<g id="node18" class="node"><title>Node9</title>
<a xlink:href="class_a_d_x_l345___s_p_i.html#a1a6e48ce4713239f7cade3e9a7335c70" target="_top" xlink:title="ADXL345_SPI::GetY">
<polygon fill="white" stroke="black" points="320,-38.5 320,-57.5 426,-57.5 426,-38.5 320,-38.5"/>
<text text-anchor="middle" x="373" y="-45.5" font-family="Helvetica,sans-Serif" font-size="10.00">ADXL345_SPI::GetY</text>
</a>
</g>
<!-- Node5&#45;&gt;Node9 -->
<g id="edge18" class="edge"><title>Node5&#45;&gt;Node9</title>
<path fill="none" stroke="midnightblue" d="M291.961,-48C301.407,-48 310.803,-48 319.656,-48"/>
<polygon fill="midnightblue" stroke="midnightblue" points="291.713,-44.5001 281.713,-48 291.713,-51.5001 291.713,-44.5001"/>
</g>
<!-- Node10 -->
<g id="node21" class="node"><title>Node10</title>
<a xlink:href="class_a_d_x_l345___s_p_i.html#a54306b7ba6ea3227444ed8705cf0b9bf" target="_top" xlink:title="ADXL345_SPI::GetZ">
<polygon fill="white" stroke="black" points="321,-0.5 321,-19.5 425,-19.5 425,-0.5 321,-0.5"/>
<text text-anchor="middle" x="373" y="-7.5" font-family="Helvetica,sans-Serif" font-size="10.00">ADXL345_SPI::GetZ</text>
</a>
</g>
<!-- Node5&#45;&gt;Node10 -->
<g id="edge22" class="edge"><title>Node5&#45;&gt;Node10</title>
<path fill="none" stroke="midnightblue" d="M257.653,-36.1757C281.056,-30.8184 308.357,-24.5689 330.412,-19.5201"/>
<polygon fill="midnightblue" stroke="midnightblue" points="256.856,-32.7677 247.889,-38.411 258.418,-39.5912 256.856,-32.7677"/>
</g>
<!-- Node7 -->
<g id="node14" class="node"><title>Node7</title>
<a xlink:href="class_a_d_x_l345___s_p_i.html#a9cb14691ba1afa6bf3676222936d8c19" target="_top" xlink:title="ADXL345_SPI::UpdateTable">
<polygon fill="white" stroke="black" points="465.5,-38.5 465.5,-57.5 602.5,-57.5 602.5,-38.5 465.5,-38.5"/>
<text text-anchor="middle" x="534" y="-45.5" font-family="Helvetica,sans-Serif" font-size="10.00">ADXL345_SPI::UpdateTable</text>
</a>
</g>
<!-- Node6&#45;&gt;Node7 -->
<g id="edge14" class="edge"><title>Node6&#45;&gt;Node7</title>
<path fill="none" stroke="midnightblue" d="M424.077,-74.032C446.358,-68.7069 472.229,-62.5238 493.166,-57.5201"/>
<polygon fill="midnightblue" stroke="midnightblue" points="423.035,-70.6823 414.122,-76.411 424.662,-77.4906 423.035,-70.6823"/>
</g>
<!-- Node8 -->
<g id="node16" class="node"><title>Node8</title>
<a xlink:href="class_a_d_x_l345___s_p_i.html#a44f5e096d12a7e9770cda58fd4f6b95c" target="_top" xlink:title="ADXL345_SPI::InitTable">
<polygon fill="white" stroke="black" points="642.5,-38.5 642.5,-57.5 761.5,-57.5 761.5,-38.5 642.5,-38.5"/>
<text text-anchor="middle" x="702" y="-45.5" font-family="Helvetica,sans-Serif" font-size="10.00">ADXL345_SPI::InitTable</text>
</a>
</g>
<!-- Node7&#45;&gt;Node8 -->
<g id="edge16" class="edge"><title>Node7&#45;&gt;Node8</title>
<path fill="none" stroke="midnightblue" d="M612.808,-48C622.739,-48 632.77,-48 642.329,-48"/>
<polygon fill="midnightblue" stroke="midnightblue" points="612.519,-44.5001 602.519,-48 612.519,-51.5001 612.519,-44.5001"/>
</g>
<!-- Node9&#45;&gt;Node7 -->
<g id="edge20" class="edge"><title>Node9&#45;&gt;Node7</title>
<path fill="none" stroke="midnightblue" d="M436.288,-48C445.864,-48 455.789,-48 465.472,-48"/>
<polygon fill="midnightblue" stroke="midnightblue" points="436.063,-44.5001 426.063,-48 436.063,-51.5001 436.063,-44.5001"/>
</g>
<!-- Node10&#45;&gt;Node7 -->
<g id="edge24" class="edge"><title>Node10&#45;&gt;Node7</title>
<path fill="none" stroke="midnightblue" d="M424.077,-21.968C446.358,-27.2931 472.229,-33.4762 493.166,-38.4799"/>
<polygon fill="midnightblue" stroke="midnightblue" points="424.662,-18.5094 414.122,-19.589 423.035,-25.3177 424.662,-18.5094"/>
</g>
</g>
</svg>
