<?xml version="1.0" encoding="UTF-8" standalone="no"?>
<!DOCTYPE svg PUBLIC "-//W3C//DTD SVG 1.1//EN"
 "http://www.w3.org/Graphics/SVG/1.1/DTD/svg11.dtd">
<!-- Generated by graphviz version 2.28.0 (20110507.0327)
 -->
<!-- Title: CANJaguar::ConfigFaultTime Pages: 1 -->
<svg width="572pt" height="66pt"
 viewBox="0.00 0.00 572.00 66.00" xmlns="http://www.w3.org/2000/svg" xmlns:xlink="http://www.w3.org/1999/xlink">
<g id="graph1" class="graph" transform="scale(1 1) rotate(0) translate(4 62)">
<title>CANJaguar::ConfigFaultTime</title>
<polygon fill="white" stroke="white" points="-4,5 -4,-62 569,-62 569,5 -4,5"/>
<!-- Node1 -->
<g id="node1" class="node"><title>Node1</title>
<polygon fill="#bfbfbf" stroke="black" points="0.5,-19.5 0.5,-38.5 141.5,-38.5 141.5,-19.5 0.5,-19.5"/>
<text text-anchor="middle" x="71" y="-26.5" font-family="Helvetica,sans-Serif" font-size="10.00">CANJaguar::ConfigFaultTime</text>
</g>
<!-- Node2 -->
<g id="node3" class="node"><title>Node2</title>
<a xlink:href="class_c_a_n_jaguar.html#a97fe9cb246f90060495c808e31070650" target="_top" xlink:title="CANJaguar::verify">
<polygon fill="white" stroke="black" points="178.5,-19.5 178.5,-38.5 271.5,-38.5 271.5,-19.5 178.5,-19.5"/>
<text text-anchor="middle" x="225" y="-26.5" font-family="Helvetica,sans-Serif" font-size="10.00">CANJaguar::verify</text>
</a>
</g>
<!-- Node1&#45;&gt;Node2 -->
<g id="edge2" class="edge"><title>Node1&#45;&gt;Node2</title>
<path fill="none" stroke="midnightblue" d="M151.91,-29C160.885,-29 169.788,-29 178.115,-29"/>
<polygon fill="midnightblue" stroke="midnightblue" points="151.772,-25.5001 141.772,-29 151.772,-32.5001 151.772,-25.5001"/>
</g>
<!-- Node3 -->
<g id="node5" class="node"><title>Node3</title>
<a xlink:href="class_c_a_n_jaguar.html#a3a22b02ece406993619f993b1e09012a" target="_top" xlink:title="CANJaguar::Set">
<polygon fill="white" stroke="black" points="308,-19.5 308,-38.5 394,-38.5 394,-19.5 308,-19.5"/>
<text text-anchor="middle" x="351" y="-26.5" font-family="Helvetica,sans-Serif" font-size="10.00">CANJaguar::Set</text>
</a>
</g>
<!-- Node2&#45;&gt;Node3 -->
<g id="edge4" class="edge"><title>Node2&#45;&gt;Node3</title>
<path fill="none" stroke="midnightblue" d="M281.873,-29C290.533,-29 299.355,-29 307.653,-29"/>
<polygon fill="midnightblue" stroke="midnightblue" points="281.821,-25.5001 271.821,-29 281.821,-32.5001 281.821,-25.5001"/>
</g>
<!-- Node4 -->
<g id="node7" class="node"><title>Node4</title>
<a xlink:href="class_c_a_n_jaguar.html#a2355d55f42083ab82870c79f742620e4" target="_top" xlink:title="CANJaguar::PIDWrite">
<polygon fill="white" stroke="black" points="442,-38.5 442,-57.5 552,-57.5 552,-38.5 442,-38.5"/>
<text text-anchor="middle" x="497" y="-45.5" font-family="Helvetica,sans-Serif" font-size="10.00">CANJaguar::PIDWrite</text>
</a>
</g>
<!-- Node3&#45;&gt;Node4 -->
<g id="edge6" class="edge"><title>Node3&#45;&gt;Node4</title>
<path fill="none" stroke="midnightblue" d="M404.11,-35.8756C416.376,-37.4941 429.478,-39.2228 441.832,-40.8529"/>
<polygon fill="midnightblue" stroke="midnightblue" points="404.41,-32.3849 394.038,-34.5467 403.494,-39.3248 404.41,-32.3849"/>
</g>
<!-- Node5 -->
<g id="node9" class="node"><title>Node5</title>
<a xlink:href="class_c_a_n_jaguar_test.html#a3c9026e62eb65e2d497bb7bbfaded297" target="_top" xlink:title="CANJaguarTest::SetJaguar">
<polygon fill="white" stroke="black" points="430,-0.5 430,-19.5 564,-19.5 564,-0.5 430,-0.5"/>
<text text-anchor="middle" x="497" y="-7.5" font-family="Helvetica,sans-Serif" font-size="10.00">CANJaguarTest::SetJaguar</text>
</a>
</g>
<!-- Node3&#45;&gt;Node5 -->
<g id="edge8" class="edge"><title>Node3&#45;&gt;Node5</title>
<path fill="none" stroke="midnightblue" d="M404.018,-22.1365C412.387,-21.0323 421.147,-19.8765 429.794,-18.7355"/>
<polygon fill="midnightblue" stroke="midnightblue" points="403.494,-18.6752 394.038,-23.4533 404.41,-25.6151 403.494,-18.6752"/>
</g>
</g>
</svg>
