<?xml version="1.0" encoding="UTF-8" standalone="no"?>
<!DOCTYPE svg PUBLIC "-//W3C//DTD SVG 1.1//EN"
 "http://www.w3.org/Graphics/SVG/1.1/DTD/svg11.dtd">
<!-- Generated by graphviz version 2.28.0 (20110507.0327)
 -->
<!-- Title: Jaguar Pages: 1 -->
<svg width="339pt" height="252pt"
 viewBox="0.00 0.00 339.00 252.00" xmlns="http://www.w3.org/2000/svg" xmlns:xlink="http://www.w3.org/1999/xlink">
<g id="graph1" class="graph" transform="scale(1 1) rotate(0) translate(4 248)">
<title>Jaguar</title>
<polygon fill="white" stroke="white" points="-4,5 -4,-248 336,-248 336,5 -4,5"/>
<!-- Node1 -->
<g id="node1" class="node"><title>Node1</title>
<polygon fill="#bfbfbf" stroke="black" points="219.5,-0.5 219.5,-19.5 264.5,-19.5 264.5,-0.5 219.5,-0.5"/>
<text text-anchor="middle" x="242" y="-7.5" font-family="Helvetica,sans-Serif" font-size="10.00">Jaguar</text>
</g>
<!-- Node2 -->
<g id="node2" class="node"><title>Node2</title>
<a xlink:href="class_safe_p_w_m.html" target="_top" xlink:title="SafePWM">
<polygon fill="white" stroke="black" points="165.5,-56.5 165.5,-75.5 226.5,-75.5 226.5,-56.5 165.5,-56.5"/>
<text text-anchor="middle" x="196" y="-63.5" font-family="Helvetica,sans-Serif" font-size="10.00">SafePWM</text>
</a>
</g>
<!-- Node2&#45;&gt;Node1 -->
<g id="edge2" class="edge"><title>Node2&#45;&gt;Node1</title>
<path fill="none" stroke="midnightblue" d="M204.271,-47.8554C211.411,-38.5048 221.334,-27.3265 229.414,-19.7511"/>
<polygon fill="midnightblue" stroke="midnightblue" points="201.365,-45.9029 198.43,-56.083 207.073,-49.9555 201.365,-45.9029"/>
</g>
<!-- Node2&#45;&gt;Node1 -->
<g id="edge34" class="edge"><title>Node2&#45;&gt;Node1</title>
<path fill="none" stroke="midnightblue" d="M215.613,-49.2533C224.767,-39.6731 234.539,-27.7906 239.624,-19.8339"/>
<polygon fill="midnightblue" stroke="midnightblue" points="213.127,-46.79 208.506,-56.324 218.063,-51.7527 213.127,-46.79"/>
</g>
<!-- Node3 -->
<g id="node4" class="node"><title>Node3</title>
<a xlink:href="class_p_w_m.html" target="_top" xlink:title="PWM">
<polygon fill="white" stroke="black" points="106.5,-112.5 106.5,-131.5 147.5,-131.5 147.5,-112.5 106.5,-112.5"/>
<text text-anchor="middle" x="127" y="-119.5" font-family="Helvetica,sans-Serif" font-size="10.00">PWM</text>
</a>
</g>
<!-- Node3&#45;&gt;Node2 -->
<g id="edge4" class="edge"><title>Node3&#45;&gt;Node2</title>
<path fill="none" stroke="midnightblue" d="M140.64,-105.493C151.994,-95.8002 167.839,-83.6773 179.831,-75.6545"/>
<polygon fill="midnightblue" stroke="midnightblue" points="138.111,-103.059 132.971,-112.324 142.767,-108.286 138.111,-103.059"/>
</g>
<!-- Node3&#45;&gt;Node2 -->
<g id="edge24" class="edge"><title>Node3&#45;&gt;Node2</title>
<path fill="none" stroke="midnightblue" d="M151.756,-106.38C165.37,-96.6204 181.052,-84.1057 189.861,-75.8339"/>
<polygon fill="midnightblue" stroke="midnightblue" points="149.416,-103.744 143.201,-112.324 153.41,-109.493 149.416,-103.744"/>
</g>
<!-- Node4 -->
<g id="node6" class="node"><title>Node4</title>
<a xlink:href="class_sensor_base.html" target="_top" xlink:title="SensorBase">
<polygon fill="white" stroke="black" points="0,-168.5 0,-187.5 70,-187.5 70,-168.5 0,-168.5"/>
<text text-anchor="middle" x="35" y="-175.5" font-family="Helvetica,sans-Serif" font-size="10.00">SensorBase</text>
</a>
</g>
<!-- Node4&#45;&gt;Node3 -->
<g id="edge6" class="edge"><title>Node4&#45;&gt;Node3</title>
<path fill="none" stroke="midnightblue" d="M53.4493,-162.622C69.0707,-152.757 91.1313,-139.992 107.145,-131.655"/>
<polygon fill="midnightblue" stroke="midnightblue" points="51.1482,-159.943 44.6666,-168.324 54.9599,-165.814 51.1482,-159.943"/>
</g>
<!-- Node4&#45;&gt;Node3 -->
<g id="edge16" class="edge"><title>Node4&#45;&gt;Node3</title>
<path fill="none" stroke="midnightblue" d="M63.7714,-163.59C82.1084,-153.605 104.561,-140.267 117.365,-131.655"/>
<polygon fill="midnightblue" stroke="midnightblue" points="62.072,-160.529 54.8962,-168.324 65.3667,-166.705 62.072,-160.529"/>
</g>
<!-- Node5 -->
<g id="node8" class="node"><title>Node5</title>
<a xlink:href="class_error_base.html" target="_top" xlink:title="ErrorBase">
<polygon fill="white" stroke="black" points="5,-224.5 5,-243.5 65,-243.5 65,-224.5 5,-224.5"/>
<text text-anchor="middle" x="35" y="-231.5" font-family="Helvetica,sans-Serif" font-size="10.00">ErrorBase</text>
</a>
</g>
<!-- Node5&#45;&gt;Node4 -->
<g id="edge8" class="edge"><title>Node5&#45;&gt;Node4</title>
<path fill="none" stroke="midnightblue" d="M35,-213.805C35,-204.91 35,-194.78 35,-187.751"/>
<polygon fill="midnightblue" stroke="midnightblue" points="31.5001,-214.083 35,-224.083 38.5001,-214.083 31.5001,-214.083"/>
</g>
<!-- Node6 -->
<g id="node10" class="node"><title>Node6</title>
<polygon fill="white" stroke="#bfbfbf" points="88.5,-168.5 88.5,-187.5 165.5,-187.5 165.5,-168.5 88.5,-168.5"/>
<text text-anchor="middle" x="127" y="-175.5" font-family="Helvetica,sans-Serif" font-size="10.00">ITableListener</text>
</g>
<!-- Node6&#45;&gt;Node3 -->
<g id="edge10" class="edge"><title>Node6&#45;&gt;Node3</title>
<path fill="none" stroke="midnightblue" d="M120.528,-158.101C119.896,-149.136 120.343,-138.858 121.869,-131.751"/>
<polygon fill="midnightblue" stroke="midnightblue" points="117.066,-158.622 121.834,-168.083 124.007,-157.713 117.066,-158.622"/>
</g>
<!-- Node6&#45;&gt;Node3 -->
<g id="edge18" class="edge"><title>Node6&#45;&gt;Node3</title>
<path fill="none" stroke="midnightblue" d="M133.472,-158.101C134.104,-149.136 133.657,-138.858 132.131,-131.751"/>
<polygon fill="midnightblue" stroke="midnightblue" points="129.993,-157.713 132.166,-168.083 136.934,-158.622 129.993,-157.713"/>
</g>
<!-- Node7 -->
<g id="node12" class="node"><title>Node7</title>
<a xlink:href="class_live_window_sendable.html" target="_top" xlink:title="LiveWindowSendable">
<polygon fill="white" stroke="black" points="184,-168.5 184,-187.5 292,-187.5 292,-168.5 184,-168.5"/>
<text text-anchor="middle" x="238" y="-175.5" font-family="Helvetica,sans-Serif" font-size="10.00">LiveWindowSendable</text>
</a>
</g>
<!-- Node7&#45;&gt;Node3 -->
<g id="edge12" class="edge"><title>Node7&#45;&gt;Node3</title>
<path fill="none" stroke="midnightblue" d="M205.919,-164.232C183.723,-154.131 155.563,-140.309 139.426,-131.516"/>
<polygon fill="midnightblue" stroke="midnightblue" points="204.766,-167.551 215.323,-168.444 207.627,-161.162 204.766,-167.551"/>
</g>
<!-- Node7&#45;&gt;Node3 -->
<g id="edge20" class="edge"><title>Node7&#45;&gt;Node3</title>
<path fill="none" stroke="midnightblue" d="M216.285,-163.551C196.293,-153.157 167.136,-139.144 147.506,-130.607"/>
<polygon fill="midnightblue" stroke="midnightblue" points="214.807,-166.729 225.281,-168.324 218.087,-160.546 214.807,-166.729"/>
</g>
<!-- Node8 -->
<g id="node14" class="node"><title>Node8</title>
<a xlink:href="class_sendable.html" target="_top" xlink:title="Sendable">
<polygon fill="white" stroke="black" points="209.5,-224.5 209.5,-243.5 266.5,-243.5 266.5,-224.5 209.5,-224.5"/>
<text text-anchor="middle" x="238" y="-231.5" font-family="Helvetica,sans-Serif" font-size="10.00">Sendable</text>
</a>
</g>
<!-- Node8&#45;&gt;Node7 -->
<g id="edge14" class="edge"><title>Node8&#45;&gt;Node7</title>
<path fill="none" stroke="midnightblue" d="M238,-213.805C238,-204.91 238,-194.78 238,-187.751"/>
<polygon fill="midnightblue" stroke="midnightblue" points="234.5,-214.083 238,-224.083 241.5,-214.083 234.5,-214.083"/>
</g>
<!-- Node9 -->
<g id="node19" class="node"><title>Node9</title>
<a xlink:href="class_motor_safety.html" target="_top" xlink:title="MotorSafety">
<polygon fill="white" stroke="black" points="165.5,-112.5 165.5,-131.5 234.5,-131.5 234.5,-112.5 165.5,-112.5"/>
<text text-anchor="middle" x="200" y="-119.5" font-family="Helvetica,sans-Serif" font-size="10.00">MotorSafety</text>
</a>
</g>
<!-- Node9&#45;&gt;Node2 -->
<g id="edge22" class="edge"><title>Node9&#45;&gt;Node2</title>
<path fill="none" stroke="midnightblue" d="M192.128,-102.101C190.832,-93.1357 190.517,-82.8579 191.517,-75.7511"/>
<polygon fill="midnightblue" stroke="midnightblue" points="188.737,-102.989 194.173,-112.083 195.594,-101.584 188.737,-102.989"/>
</g>
<!-- Node9&#45;&gt;Node2 -->
<g id="edge26" class="edge"><title>Node9&#45;&gt;Node2</title>
<path fill="none" stroke="midnightblue" d="M205.071,-101.805C205.014,-92.9102 203.809,-82.7798 201.779,-75.7511"/>
<polygon fill="midnightblue" stroke="midnightblue" points="201.56,-101.906 204.506,-112.083 208.55,-102.29 201.56,-101.906"/>
</g>
<!-- Node10 -->
<g id="node23" class="node"><title>Node10</title>
<a xlink:href="class_speed_controller.html" target="_top" xlink:title="SpeedController">
<polygon fill="white" stroke="black" points="245,-56.5 245,-75.5 331,-75.5 331,-56.5 245,-56.5"/>
<text text-anchor="middle" x="288" y="-63.5" font-family="Helvetica,sans-Serif" font-size="10.00">SpeedController</text>
</a>
</g>
<!-- Node10&#45;&gt;Node1 -->
<g id="edge28" class="edge"><title>Node10&#45;&gt;Node1</title>
<path fill="none" stroke="midnightblue" d="M268.387,-49.2533C259.233,-39.6731 249.461,-27.7906 244.376,-19.8339"/>
<polygon fill="midnightblue" stroke="midnightblue" points="265.937,-51.7527 275.494,-56.324 270.873,-46.79 265.937,-51.7527"/>
</g>
<!-- Node10&#45;&gt;Node1 -->
<g id="edge36" class="edge"><title>Node10&#45;&gt;Node1</title>
<path fill="none" stroke="midnightblue" d="M279.729,-47.8554C272.589,-38.5048 262.666,-27.3265 254.586,-19.7511"/>
<polygon fill="midnightblue" stroke="midnightblue" points="276.927,-49.9555 285.57,-56.083 282.635,-45.9029 276.927,-49.9555"/>
</g>
<!-- Node11 -->
<g id="node25" class="node"><title>Node11</title>
<a xlink:href="class_p_i_d_output.html" target="_top" xlink:title="PIDOutput">
<polygon fill="white" stroke="black" points="257,-112.5 257,-131.5 319,-131.5 319,-112.5 257,-112.5"/>
<text text-anchor="middle" x="288" y="-119.5" font-family="Helvetica,sans-Serif" font-size="10.00">PIDOutput</text>
</a>
</g>
<!-- Node11&#45;&gt;Node10 -->
<g id="edge30" class="edge"><title>Node11&#45;&gt;Node10</title>
<path fill="none" stroke="midnightblue" d="M281.528,-102.101C280.896,-93.1357 281.343,-82.8579 282.869,-75.7511"/>
<polygon fill="midnightblue" stroke="midnightblue" points="278.066,-102.622 282.834,-112.083 285.007,-101.713 278.066,-102.622"/>
</g>
<!-- Node11&#45;&gt;Node10 -->
<g id="edge32" class="edge"><title>Node11&#45;&gt;Node10</title>
<path fill="none" stroke="midnightblue" d="M294.472,-102.101C295.104,-93.1357 294.657,-82.8579 293.131,-75.7511"/>
<polygon fill="midnightblue" stroke="midnightblue" points="290.993,-101.713 293.166,-112.083 297.934,-102.622 290.993,-101.713"/>
</g>
</g>
</svg>
