<?xml version="1.0" encoding="UTF-8" standalone="no"?>
<!DOCTYPE svg PUBLIC "-//W3C//DTD SVG 1.1//EN"
 "http://www.w3.org/Graphics/SVG/1.1/DTD/svg11.dtd">
<!-- Generated by graphviz version 2.28.0 (20110507.0327)
 -->
<!-- Title: BuiltInAccelerometer::BuiltInAccelerometer Pages: 1 -->
<svg width="602pt" height="115pt"
 viewBox="0.00 0.00 602.00 115.00" xmlns="http://www.w3.org/2000/svg" xmlns:xlink="http://www.w3.org/1999/xlink">
<g id="graph1" class="graph" transform="scale(1 1) rotate(0) translate(4 111)">
<title>BuiltInAccelerometer::BuiltInAccelerometer</title>
<polygon fill="white" stroke="white" points="-4,5 -4,-111 599,-111 599,5 -4,5"/>
<!-- Node1 -->
<g id="node1" class="node"><title>Node1</title>
<polygon fill="#bfbfbf" stroke="black" points="0.5,-33 0.5,-63 113.5,-63 113.5,-33 0.5,-33"/>
<text text-anchor="start" x="8.5" y="-51" font-family="Helvetica,sans-Serif" font-size="10.00">BuiltInAccelerometer</text>
<text text-anchor="middle" x="57" y="-40" font-family="Helvetica,sans-Serif" font-size="10.00">::BuiltInAccelerometer</text>
</g>
<!-- Node2 -->
<g id="node3" class="node"><title>Node2</title>
<a xlink:href="class_built_in_accelerometer.html#a67a55fa67ba04e90bef7306631a49e29" target="_top" xlink:title="BuiltInAccelerometer\l::SetRange">
<polygon fill="white" stroke="black" points="159.5,-77 159.5,-107 266.5,-107 266.5,-77 159.5,-77"/>
<text text-anchor="start" x="167.5" y="-95" font-family="Helvetica,sans-Serif" font-size="10.00">BuiltInAccelerometer</text>
<text text-anchor="middle" x="213" y="-84" font-family="Helvetica,sans-Serif" font-size="10.00">::SetRange</text>
</a>
</g>
<!-- Node1&#45;&gt;Node2 -->
<g id="edge2" class="edge"><title>Node1&#45;&gt;Node2</title>
<path fill="none" stroke="midnightblue" d="M110.567,-63.0192C123.135,-66.61 136.672,-70.4776 149.634,-74.181"/>
<polygon fill="midnightblue" stroke="midnightblue" points="148.831,-77.5918 159.408,-76.9738 150.755,-70.8612 148.831,-77.5918"/>
</g>
<!-- Node3 -->
<g id="node5" class="node"><title>Node3</title>
<a xlink:href="class_live_window.html#a329c07efec22a0e0644d70279688aa35" target="_top" xlink:title="LiveWindow::GetInstance">
<polygon fill="white" stroke="black" points="150,-38.5 150,-57.5 276,-57.5 276,-38.5 150,-38.5"/>
<text text-anchor="middle" x="213" y="-45.5" font-family="Helvetica,sans-Serif" font-size="10.00">LiveWindow::GetInstance</text>
</a>
</g>
<!-- Node1&#45;&gt;Node3 -->
<g id="edge4" class="edge"><title>Node1&#45;&gt;Node3</title>
<path fill="none" stroke="midnightblue" d="M113.598,-48C122.081,-48 130.941,-48 139.719,-48"/>
<polygon fill="midnightblue" stroke="midnightblue" points="139.959,-51.5001 149.959,-48 139.959,-44.5001 139.959,-51.5001"/>
</g>
<!-- Node6 -->
<g id="node11" class="node"><title>Node6</title>
<a xlink:href="class_live_window.html#a5dc37b1651d0bced92127dd2c69a94ce" target="_top" xlink:title="LiveWindow::AddSensor">
<polygon fill="white" stroke="black" points="152,-0.5 152,-19.5 274,-19.5 274,-0.5 152,-0.5"/>
<text text-anchor="middle" x="213" y="-7.5" font-family="Helvetica,sans-Serif" font-size="10.00">LiveWindow::AddSensor</text>
</a>
</g>
<!-- Node1&#45;&gt;Node6 -->
<g id="edge10" class="edge"><title>Node1&#45;&gt;Node6</title>
<path fill="none" stroke="midnightblue" d="M113.598,-34.2811C129.853,-30.2701 147.49,-25.9181 163.284,-22.0209"/>
<polygon fill="midnightblue" stroke="midnightblue" points="164.493,-25.3277 173.363,-19.5338 162.816,-18.5315 164.493,-25.3277"/>
</g>
<!-- Node4 -->
<g id="node7" class="node"><title>Node4</title>
<a xlink:href="class_live_window.html#ac33cec031b5990d91e5c68efb3340b68" target="_top" xlink:title="LiveWindow::LiveWindow">
<polygon fill="white" stroke="black" points="312.5,-38.5 312.5,-57.5 437.5,-57.5 437.5,-38.5 312.5,-38.5"/>
<text text-anchor="middle" x="375" y="-45.5" font-family="Helvetica,sans-Serif" font-size="10.00">LiveWindow::LiveWindow</text>
</a>
</g>
<!-- Node3&#45;&gt;Node4 -->
<g id="edge6" class="edge"><title>Node3&#45;&gt;Node4</title>
<path fill="none" stroke="midnightblue" d="M276.318,-48C284.832,-48 293.628,-48 302.292,-48"/>
<polygon fill="midnightblue" stroke="midnightblue" points="302.378,-51.5001 312.378,-48 302.378,-44.5001 302.378,-51.5001"/>
</g>
<!-- Node5 -->
<g id="node9" class="node"><title>Node5</title>
<a xlink:href="class_scheduler.html#a5cc7ff43cb79880d28586b07ec967070" target="_top" xlink:title="Scheduler::GetInstance">
<polygon fill="white" stroke="black" points="474.5,-38.5 474.5,-57.5 593.5,-57.5 593.5,-38.5 474.5,-38.5"/>
<text text-anchor="middle" x="534" y="-45.5" font-family="Helvetica,sans-Serif" font-size="10.00">Scheduler::GetInstance</text>
</a>
</g>
<!-- Node4&#45;&gt;Node5 -->
<g id="edge8" class="edge"><title>Node4&#45;&gt;Node5</title>
<path fill="none" stroke="midnightblue" d="M437.6,-48C446.306,-48 455.303,-48 464.135,-48"/>
<polygon fill="midnightblue" stroke="midnightblue" points="464.4,-51.5001 474.4,-48 464.4,-44.5001 464.4,-51.5001"/>
</g>
</g>
</svg>
