<?xml version="1.0" encoding="UTF-8" standalone="no"?>
<!DOCTYPE svg PUBLIC "-//W3C//DTD SVG 1.1//EN"
 "http://www.w3.org/Graphics/SVG/1.1/DTD/svg11.dtd">
<!-- Generated by graphviz version 2.28.0 (20110507.0327)
 -->
<!-- Title: RobotDrive::RobotDrive Pages: 1 -->
<svg width="428pt" height="38pt"
 viewBox="0.00 0.00 428.00 38.00" xmlns="http://www.w3.org/2000/svg" xmlns:xlink="http://www.w3.org/1999/xlink">
<g id="graph1" class="graph" transform="scale(1 1) rotate(0) translate(4 34)">
<title>RobotDrive::RobotDrive</title>
<polygon fill="white" stroke="white" points="-4,5 -4,-34 425,-34 425,5 -4,5"/>
<!-- Node1 -->
<g id="node1" class="node"><title>Node1</title>
<polygon fill="#bfbfbf" stroke="black" points="0,-5.5 0,-24.5 116,-24.5 116,-5.5 0,-5.5"/>
<text text-anchor="middle" x="58" y="-12.5" font-family="Helvetica,sans-Serif" font-size="10.00">RobotDrive::RobotDrive</text>
</g>
<!-- Node2 -->
<g id="node3" class="node"><title>Node2</title>
<a xlink:href="class_robot_drive.html#ae57d5bb728428fac6cbd7eade67c569d" target="_top" xlink:title="RobotDrive::InitRobotDrive">
<polygon fill="white" stroke="black" points="152,-5.5 152,-24.5 280,-24.5 280,-5.5 152,-5.5"/>
<text text-anchor="middle" x="216" y="-12.5" font-family="Helvetica,sans-Serif" font-size="10.00">RobotDrive::InitRobotDrive</text>
</a>
</g>
<!-- Node1&#45;&gt;Node2 -->
<g id="edge2" class="edge"><title>Node1&#45;&gt;Node2</title>
<path fill="none" stroke="midnightblue" d="M116.203,-15C124.515,-15 133.168,-15 141.744,-15"/>
<polygon fill="midnightblue" stroke="midnightblue" points="141.751,-18.5001 151.751,-15 141.751,-11.5001 141.751,-18.5001"/>
</g>
<!-- Node3 -->
<g id="node5" class="node"><title>Node3</title>
<a xlink:href="class_motor_safety_helper.html#ad3904b781b0d4e88aba0e9a93995b122" target="_top" xlink:title="MotorSafetyHelper::\lSetSafetyEnabled">
<polygon fill="white" stroke="black" points="316.5,-0 316.5,-30 419.5,-30 419.5,-0 316.5,-0"/>
<text text-anchor="start" x="324.5" y="-18" font-family="Helvetica,sans-Serif" font-size="10.00">MotorSafetyHelper::</text>
<text text-anchor="middle" x="368" y="-7" font-family="Helvetica,sans-Serif" font-size="10.00">SetSafetyEnabled</text>
</a>
</g>
<!-- Node2&#45;&gt;Node3 -->
<g id="edge4" class="edge"><title>Node2&#45;&gt;Node3</title>
<path fill="none" stroke="midnightblue" d="M280.179,-15C288.717,-15 297.465,-15 305.965,-15"/>
<polygon fill="midnightblue" stroke="midnightblue" points="306.179,-18.5001 316.179,-15 306.179,-11.5001 306.179,-18.5001"/>
</g>
</g>
</svg>
