<?xml version="1.0" encoding="UTF-8" standalone="no"?>
<!DOCTYPE svg PUBLIC "-//W3C//DTD SVG 1.1//EN"
 "http://www.w3.org/Graphics/SVG/1.1/DTD/svg11.dtd">
<!-- Generated by graphviz version 2.28.0 (20110507.0327)
 -->
<!-- Title: Command::Cancel Pages: 1 -->
<svg width="382pt" height="66pt"
 viewBox="0.00 0.00 382.00 66.00" xmlns="http://www.w3.org/2000/svg" xmlns:xlink="http://www.w3.org/1999/xlink">
<g id="graph1" class="graph" transform="scale(1 1) rotate(0) translate(4 62)">
<title>Command::Cancel</title>
<polygon fill="white" stroke="white" points="-4,5 -4,-62 379,-62 379,5 -4,5"/>
<!-- Node1 -->
<g id="node1" class="node"><title>Node1</title>
<polygon fill="#bfbfbf" stroke="black" points="0.5,-19.5 0.5,-38.5 97.5,-38.5 97.5,-19.5 0.5,-19.5"/>
<text text-anchor="middle" x="49" y="-26.5" font-family="Helvetica,sans-Serif" font-size="10.00">Command::Cancel</text>
</g>
<!-- Node2 -->
<g id="node3" class="node"><title>Node2</title>
<a xlink:href="class_command.html#ae10d99a6cec39f82aa9cb3dc289a45eb" target="_top" xlink:title="Command::Run">
<polygon fill="white" stroke="black" points="152,-38.5 152,-57.5 236,-57.5 236,-38.5 152,-38.5"/>
<text text-anchor="middle" x="194" y="-45.5" font-family="Helvetica,sans-Serif" font-size="10.00">Command::Run</text>
</a>
</g>
<!-- Node1&#45;&gt;Node2 -->
<g id="edge2" class="edge"><title>Node1&#45;&gt;Node2</title>
<path fill="none" stroke="midnightblue" d="M107.685,-36.6644C122.463,-38.6279 138.06,-40.7002 151.818,-42.5283"/>
<polygon fill="midnightblue" stroke="midnightblue" points="107.991,-33.1744 97.6169,-35.3267 107.069,-40.1134 107.991,-33.1744"/>
</g>
<!-- Node4 -->
<g id="node7" class="node"><title>Node4</title>
<a xlink:href="class_scheduler.html#af1c349ae113be36ad0026d1a82951693" target="_top" xlink:title="Scheduler::UpdateTable">
<polygon fill="white" stroke="black" points="134,-0.5 134,-19.5 254,-19.5 254,-0.5 134,-0.5"/>
<text text-anchor="middle" x="194" y="-7.5" font-family="Helvetica,sans-Serif" font-size="10.00">Scheduler::UpdateTable</text>
</a>
</g>
<!-- Node1&#45;&gt;Node4 -->
<g id="edge6" class="edge"><title>Node1&#45;&gt;Node4</title>
<path fill="none" stroke="midnightblue" d="M107.614,-21.3451C116.267,-20.1953 125.202,-19.0081 133.887,-17.8542"/>
<polygon fill="midnightblue" stroke="midnightblue" points="107.069,-17.8866 97.6169,-22.6733 107.991,-24.8256 107.069,-17.8866"/>
</g>
<!-- Node3 -->
<g id="node5" class="node"><title>Node3</title>
<a xlink:href="class_scheduler.html#a6e17233143754873d7f29860047de2c1" target="_top" xlink:title="Scheduler::Run">
<polygon fill="white" stroke="black" points="290.5,-19.5 290.5,-38.5 373.5,-38.5 373.5,-19.5 290.5,-19.5"/>
<text text-anchor="middle" x="332" y="-26.5" font-family="Helvetica,sans-Serif" font-size="10.00">Scheduler::Run</text>
</a>
</g>
<!-- Node2&#45;&gt;Node3 -->
<g id="edge4" class="edge"><title>Node2&#45;&gt;Node3</title>
<path fill="none" stroke="midnightblue" d="M246.1,-40.8611C260.748,-38.8147 276.513,-36.6122 290.434,-34.6673"/>
<polygon fill="midnightblue" stroke="midnightblue" points="245.593,-37.3978 236.174,-42.2478 246.562,-44.3304 245.593,-37.3978"/>
</g>
<!-- Node4&#45;&gt;Node3 -->
<g id="edge8" class="edge"><title>Node4&#45;&gt;Node3</title>
<path fill="none" stroke="midnightblue" d="M264.291,-19.6803C273.196,-20.9245 282.072,-22.1645 290.308,-23.3151"/>
<polygon fill="midnightblue" stroke="midnightblue" points="264.644,-16.1958 254.256,-18.2784 263.675,-23.1284 264.644,-16.1958"/>
</g>
</g>
</svg>
