<?xml version="1.0" encoding="UTF-8" standalone="no"?>
<!DOCTYPE svg PUBLIC "-//W3C//DTD SVG 1.1//EN"
 "http://www.w3.org/Graphics/SVG/1.1/DTD/svg11.dtd">
<!-- Generated by graphviz version 2.28.0 (20110507.0327)
 -->
<!-- Title: Task::Stop Pages: 1 -->
<svg width="410pt" height="28pt"
 viewBox="0.00 0.00 410.00 28.00" xmlns="http://www.w3.org/2000/svg" xmlns:xlink="http://www.w3.org/1999/xlink">
<g id="graph1" class="graph" transform="scale(1 1) rotate(0) translate(4 24)">
<title>Task::Stop</title>
<polygon fill="white" stroke="white" points="-4,5 -4,-24 407,-24 407,5 -4,5"/>
<!-- Node1 -->
<g id="node1" class="node"><title>Node1</title>
<polygon fill="#bfbfbf" stroke="black" points="0,-0.5 0,-19.5 64,-19.5 64,-0.5 0,-0.5"/>
<text text-anchor="middle" x="32" y="-7.5" font-family="Helvetica,sans-Serif" font-size="10.00">Task::Stop</text>
</g>
<!-- Node2 -->
<g id="node3" class="node"><title>Node2</title>
<a xlink:href="class_ultrasonic.html#a16105fb0a316d780b8ea1554e3109825" target="_top" xlink:title="Ultrasonic::SetAutomaticMode">
<polygon fill="white" stroke="black" points="100.5,-0.5 100.5,-19.5 249.5,-19.5 249.5,-0.5 100.5,-0.5"/>
<text text-anchor="middle" x="175" y="-7.5" font-family="Helvetica,sans-Serif" font-size="10.00">Ultrasonic::SetAutomaticMode</text>
</a>
</g>
<!-- Node1&#45;&gt;Node2 -->
<g id="edge2" class="edge"><title>Node1&#45;&gt;Node2</title>
<path fill="none" stroke="midnightblue" d="M74.3345,-10C82.5688,-10 91.4475,-10 100.393,-10"/>
<polygon fill="midnightblue" stroke="midnightblue" points="74.2925,-6.5001 64.2925,-10 74.2924,-13.5001 74.2925,-6.5001"/>
</g>
<!-- Node3 -->
<g id="node5" class="node"><title>Node3</title>
<a xlink:href="class_ultrasonic.html#ab5066b2bfeac723140c18b9f8340abad" target="_top" xlink:title="Ultrasonic::~Ultrasonic">
<polygon fill="white" stroke="black" points="286,-0.5 286,-19.5 402,-19.5 402,-0.5 286,-0.5"/>
<text text-anchor="middle" x="344" y="-7.5" font-family="Helvetica,sans-Serif" font-size="10.00">Ultrasonic::~Ultrasonic</text>
</a>
</g>
<!-- Node2&#45;&gt;Node3 -->
<g id="edge4" class="edge"><title>Node2&#45;&gt;Node3</title>
<path fill="none" stroke="midnightblue" d="M259.739,-10C268.618,-10 277.493,-10 285.962,-10"/>
<polygon fill="midnightblue" stroke="midnightblue" points="259.735,-6.5001 249.735,-10 259.735,-13.5001 259.735,-6.5001"/>
</g>
</g>
</svg>
