<?xml version="1.0" encoding="UTF-8" standalone="no"?>
<!DOCTYPE svg PUBLIC "-//W3C//DTD SVG 1.1//EN"
 "http://www.w3.org/Graphics/SVG/1.1/DTD/svg11.dtd">
<!-- Generated by graphviz version 2.28.0 (20110507.0327)
 -->
<!-- Title: CANJaguar::ConfigEncoderCodesPerRev Pages: 1 -->
<svg width="616pt" height="237pt"
 viewBox="0.00 0.00 616.00 237.00" xmlns="http://www.w3.org/2000/svg" xmlns:xlink="http://www.w3.org/1999/xlink">
<g id="graph1" class="graph" transform="scale(1 1) rotate(0) translate(4 233)">
<title>CANJaguar::ConfigEncoderCodesPerRev</title>
<polygon fill="white" stroke="white" points="-4,5 -4,-233 613,-233 613,5 -4,5"/>
<!-- Node1 -->
<g id="node1" class="node"><title>Node1</title>
<polygon fill="#bfbfbf" stroke="black" points="0,-90 0,-120 134,-120 134,-90 0,-90"/>
<text text-anchor="start" x="8" y="-108" font-family="Helvetica,sans-Serif" font-size="10.00">CANJaguar::ConfigEncoder</text>
<text text-anchor="middle" x="67" y="-97" font-family="Helvetica,sans-Serif" font-size="10.00">CodesPerRev</text>
</g>
<!-- Node2 -->
<g id="node3" class="node"><title>Node2</title>
<a xlink:href="class_c_a_n_jaguar.html#a97fe9cb246f90060495c808e31070650" target="_top" xlink:title="CANJaguar::verify">
<polygon fill="white" stroke="black" points="196.5,-190.5 196.5,-209.5 289.5,-209.5 289.5,-190.5 196.5,-190.5"/>
<text text-anchor="middle" x="243" y="-197.5" font-family="Helvetica,sans-Serif" font-size="10.00">CANJaguar::verify</text>
</a>
</g>
<!-- Node1&#45;&gt;Node2 -->
<g id="edge2" class="edge"><title>Node1&#45;&gt;Node2</title>
<path fill="none" stroke="midnightblue" d="M91.5614,-126.707C111.205,-143.732 140.627,-166.841 170,-181 178.268,-184.986 187.488,-188.222 196.497,-190.818"/>
<polygon fill="midnightblue" stroke="midnightblue" points="93.8386,-124.049 84.0248,-120.056 89.2069,-129.298 93.8386,-124.049"/>
</g>
<!-- Node6 -->
<g id="node11" class="node"><title>Node6</title>
<a xlink:href="class_c_a_n_jaguar.html#a775c2eaea0440594e92c10eda3de3bf8" target="_top" xlink:title="CANJaguar::SetPercentMode">
<polygon fill="white" stroke="black" points="171,-152.5 171,-171.5 315,-171.5 315,-152.5 171,-152.5"/>
<text text-anchor="middle" x="243" y="-159.5" font-family="Helvetica,sans-Serif" font-size="10.00">CANJaguar::SetPercentMode</text>
</a>
</g>
<!-- Node1&#45;&gt;Node6 -->
<g id="edge10" class="edge"><title>Node1&#45;&gt;Node6</title>
<path fill="none" stroke="midnightblue" d="M115.67,-123.868C132.688,-130.309 152.082,-137.313 170,-143 180.597,-146.363 192.2,-149.611 202.936,-152.441"/>
<polygon fill="midnightblue" stroke="midnightblue" points="116.545,-120.456 105.954,-120.156 114.046,-126.995 116.545,-120.456"/>
</g>
<!-- Node7 -->
<g id="node13" class="node"><title>Node7</title>
<a xlink:href="class_c_a_n_jaguar.html#a7086f1e78879ba32ac72629a1a1526ec" target="_top" xlink:title="CANJaguar::SetCurrentMode">
<polygon fill="white" stroke="black" points="172,-114.5 172,-133.5 314,-133.5 314,-114.5 172,-114.5"/>
<text text-anchor="middle" x="243" y="-121.5" font-family="Helvetica,sans-Serif" font-size="10.00">CANJaguar::SetCurrentMode</text>
</a>
</g>
<!-- Node1&#45;&gt;Node7 -->
<g id="edge12" class="edge"><title>Node1&#45;&gt;Node7</title>
<path fill="none" stroke="midnightblue" d="M144.472,-113.35C153.579,-114.345 162.842,-115.356 171.854,-116.34"/>
<polygon fill="midnightblue" stroke="midnightblue" points="144.599,-109.844 134.278,-112.237 143.839,-116.802 144.599,-109.844"/>
</g>
<!-- Node8 -->
<g id="node15" class="node"><title>Node8</title>
<a xlink:href="class_c_a_n_jaguar.html#aa02549873d5551b00d3f2bdb08709e5a" target="_top" xlink:title="CANJaguar::SetSpeedMode">
<polygon fill="white" stroke="black" points="174,-76.5 174,-95.5 312,-95.5 312,-76.5 174,-76.5"/>
<text text-anchor="middle" x="243" y="-83.5" font-family="Helvetica,sans-Serif" font-size="10.00">CANJaguar::SetSpeedMode</text>
</a>
</g>
<!-- Node1&#45;&gt;Node8 -->
<g id="edge14" class="edge"><title>Node1&#45;&gt;Node8</title>
<path fill="none" stroke="midnightblue" d="M144.415,-96.6558C154.226,-95.5846 164.219,-94.4934 173.885,-93.4378"/>
<polygon fill="midnightblue" stroke="midnightblue" points="143.839,-93.1978 134.278,-97.7627 144.599,-100.156 143.839,-93.1978"/>
</g>
<!-- Node9 -->
<g id="node17" class="node"><title>Node9</title>
<a xlink:href="class_c_a_n_jaguar.html#a870f456a238bb9c55552b94cd86faad0" target="_top" xlink:title="CANJaguar::SetPositionMode">
<polygon fill="white" stroke="black" points="170,-38.5 170,-57.5 316,-57.5 316,-38.5 170,-38.5"/>
<text text-anchor="middle" x="243" y="-45.5" font-family="Helvetica,sans-Serif" font-size="10.00">CANJaguar::SetPositionMode</text>
</a>
</g>
<!-- Node1&#45;&gt;Node9 -->
<g id="edge16" class="edge"><title>Node1&#45;&gt;Node9</title>
<path fill="none" stroke="midnightblue" d="M115.67,-86.1316C132.688,-79.6915 152.082,-72.6865 170,-67 180.597,-63.6368 192.2,-60.389 202.936,-57.5587"/>
<polygon fill="midnightblue" stroke="midnightblue" points="114.046,-83.0053 105.954,-89.844 116.545,-89.5442 114.046,-83.0053"/>
</g>
<!-- Node10 -->
<g id="node19" class="node"><title>Node10</title>
<a xlink:href="class_c_a_n_jaguar.html#a69b529739df8ceba260339d2d5fa1ae3" target="_top" xlink:title="CANJaguar::SetVoltageMode">
<polygon fill="white" stroke="black" points="171.5,-0.5 171.5,-19.5 314.5,-19.5 314.5,-0.5 171.5,-0.5"/>
<text text-anchor="middle" x="243" y="-7.5" font-family="Helvetica,sans-Serif" font-size="10.00">CANJaguar::SetVoltageMode</text>
</a>
</g>
<!-- Node1&#45;&gt;Node10 -->
<g id="edge18" class="edge"><title>Node1&#45;&gt;Node10</title>
<path fill="none" stroke="midnightblue" d="M91.5614,-83.2926C111.205,-66.2683 140.627,-43.1591 170,-29 177.919,-25.1827 186.711,-22.0528 195.354,-19.5144"/>
<polygon fill="midnightblue" stroke="midnightblue" points="89.2069,-80.7024 84.0248,-89.9435 93.8386,-85.951 89.2069,-80.7024"/>
</g>
<!-- Node3 -->
<g id="node5" class="node"><title>Node3</title>
<a xlink:href="class_c_a_n_jaguar.html#a3a22b02ece406993619f993b1e09012a" target="_top" xlink:title="CANJaguar::Set">
<polygon fill="white" stroke="black" points="352,-190.5 352,-209.5 438,-209.5 438,-190.5 352,-190.5"/>
<text text-anchor="middle" x="395" y="-197.5" font-family="Helvetica,sans-Serif" font-size="10.00">CANJaguar::Set</text>
</a>
</g>
<!-- Node2&#45;&gt;Node3 -->
<g id="edge4" class="edge"><title>Node2&#45;&gt;Node3</title>
<path fill="none" stroke="midnightblue" d="M300.242,-200C317.323,-200 335.791,-200 351.783,-200"/>
<polygon fill="midnightblue" stroke="midnightblue" points="299.82,-196.5 289.82,-200 299.82,-203.5 299.82,-196.5"/>
</g>
<!-- Node4 -->
<g id="node7" class="node"><title>Node4</title>
<a xlink:href="class_c_a_n_jaguar.html#a2355d55f42083ab82870c79f742620e4" target="_top" xlink:title="CANJaguar::PIDWrite">
<polygon fill="white" stroke="black" points="486,-209.5 486,-228.5 596,-228.5 596,-209.5 486,-209.5"/>
<text text-anchor="middle" x="541" y="-216.5" font-family="Helvetica,sans-Serif" font-size="10.00">CANJaguar::PIDWrite</text>
</a>
</g>
<!-- Node3&#45;&gt;Node4 -->
<g id="edge6" class="edge"><title>Node3&#45;&gt;Node4</title>
<path fill="none" stroke="midnightblue" d="M448.11,-206.876C460.376,-208.494 473.478,-210.223 485.832,-211.853"/>
<polygon fill="midnightblue" stroke="midnightblue" points="448.41,-203.385 438.038,-205.547 447.494,-210.325 448.41,-203.385"/>
</g>
<!-- Node5 -->
<g id="node9" class="node"><title>Node5</title>
<a xlink:href="class_c_a_n_jaguar_test.html#a3c9026e62eb65e2d497bb7bbfaded297" target="_top" xlink:title="CANJaguarTest::SetJaguar">
<polygon fill="white" stroke="black" points="474,-171.5 474,-190.5 608,-190.5 608,-171.5 474,-171.5"/>
<text text-anchor="middle" x="541" y="-178.5" font-family="Helvetica,sans-Serif" font-size="10.00">CANJaguarTest::SetJaguar</text>
</a>
</g>
<!-- Node3&#45;&gt;Node5 -->
<g id="edge8" class="edge"><title>Node3&#45;&gt;Node5</title>
<path fill="none" stroke="midnightblue" d="M448.018,-193.137C456.387,-192.032 465.147,-190.876 473.794,-189.735"/>
<polygon fill="midnightblue" stroke="midnightblue" points="447.494,-189.675 438.038,-194.453 448.41,-196.615 447.494,-189.675"/>
</g>
</g>
</svg>
