<?xml version="1.0" encoding="UTF-8" standalone="no"?>
<!DOCTYPE svg PUBLIC "-//W3C//DTD SVG 1.1//EN"
 "http://www.w3.org/Graphics/SVG/1.1/DTD/svg11.dtd">
<!-- Generated by graphviz version 2.28.0 (20110507.0327)
 -->
<!-- Title: Gyro::UpdateTable Pages: 1 -->
<svg width="566pt" height="153pt"
 viewBox="0.00 0.00 566.00 153.00" xmlns="http://www.w3.org/2000/svg" xmlns:xlink="http://www.w3.org/1999/xlink">
<g id="graph1" class="graph" transform="scale(1 1) rotate(0) translate(4 149)">
<title>Gyro::UpdateTable</title>
<polygon fill="white" stroke="white" points="-4,5 -4,-149 563,-149 563,5 -4,5"/>
<!-- Node1 -->
<g id="node1" class="node"><title>Node1</title>
<polygon fill="#bfbfbf" stroke="black" points="0,-57.5 0,-76.5 98,-76.5 98,-57.5 0,-57.5"/>
<text text-anchor="middle" x="49" y="-64.5" font-family="Helvetica,sans-Serif" font-size="10.00">Gyro::UpdateTable</text>
</g>
<!-- Node2 -->
<g id="node3" class="node"><title>Node2</title>
<a xlink:href="class_gyro.html#a37c29b42b58b90fe1ed11f04c2635d4f" target="_top" xlink:title="Gyro::GetAngle">
<polygon fill="white" stroke="black" points="134,-57.5 134,-76.5 218,-76.5 218,-57.5 134,-57.5"/>
<text text-anchor="middle" x="176" y="-64.5" font-family="Helvetica,sans-Serif" font-size="10.00">Gyro::GetAngle</text>
</a>
</g>
<!-- Node1&#45;&gt;Node2 -->
<g id="edge2" class="edge"><title>Node1&#45;&gt;Node2</title>
<path fill="none" stroke="midnightblue" d="M98.3283,-67C106.631,-67 115.287,-67 123.666,-67"/>
<polygon fill="midnightblue" stroke="midnightblue" points="123.706,-70.5001 133.706,-67 123.706,-63.5001 123.706,-70.5001"/>
</g>
<!-- Node3 -->
<g id="node5" class="node"><title>Node3</title>
<a xlink:href="class_analog_input.html#ad783c1e390adc95921f2d4c73b645365" target="_top" xlink:title="AnalogInput::GetAccumulator\lOutput">
<polygon fill="white" stroke="black" points="254,-115 254,-145 398,-145 398,-115 254,-115"/>
<text text-anchor="start" x="262" y="-133" font-family="Helvetica,sans-Serif" font-size="10.00">AnalogInput::GetAccumulator</text>
<text text-anchor="middle" x="326" y="-122" font-family="Helvetica,sans-Serif" font-size="10.00">Output</text>
</a>
</g>
<!-- Node2&#45;&gt;Node3 -->
<g id="edge4" class="edge"><title>Node2&#45;&gt;Node3</title>
<path fill="none" stroke="midnightblue" d="M194.764,-76.5258C210.192,-84.614 233.254,-96.2653 254,-105 259.119,-107.155 264.495,-109.284 269.902,-111.335"/>
<polygon fill="midnightblue" stroke="midnightblue" points="269.025,-114.743 279.618,-114.934 271.456,-108.178 269.025,-114.743"/>
</g>
<!-- Node5 -->
<g id="node9" class="node"><title>Node5</title>
<a xlink:href="class_analog_input.html#af34dfab137f2fed40c98b4f0871c84cc" target="_top" xlink:title="AnalogInput::GetLSBWeight">
<polygon fill="white" stroke="black" points="256.5,-76.5 256.5,-95.5 395.5,-95.5 395.5,-76.5 256.5,-76.5"/>
<text text-anchor="middle" x="326" y="-83.5" font-family="Helvetica,sans-Serif" font-size="10.00">AnalogInput::GetLSBWeight</text>
</a>
</g>
<!-- Node2&#45;&gt;Node5 -->
<g id="edge8" class="edge"><title>Node2&#45;&gt;Node5</title>
<path fill="none" stroke="midnightblue" d="M218.226,-72.2926C227.05,-73.4253 236.653,-74.6581 246.363,-75.9047"/>
<polygon fill="midnightblue" stroke="midnightblue" points="246.127,-79.4031 256.492,-77.205 247.019,-72.4601 246.127,-79.4031"/>
</g>
<!-- Node6 -->
<g id="node12" class="node"><title>Node6</title>
<a xlink:href="class_analog_input.html#a24193ed1cb0260e7626aecabcf812ef2" target="_top" xlink:title="AnalogInput::GetAverageBits">
<polygon fill="white" stroke="black" points="255.5,-38.5 255.5,-57.5 396.5,-57.5 396.5,-38.5 255.5,-38.5"/>
<text text-anchor="middle" x="326" y="-45.5" font-family="Helvetica,sans-Serif" font-size="10.00">AnalogInput::GetAverageBits</text>
</a>
</g>
<!-- Node2&#45;&gt;Node6 -->
<g id="edge12" class="edge"><title>Node2&#45;&gt;Node6</title>
<path fill="none" stroke="midnightblue" d="M218.226,-61.7074C226.706,-60.6188 235.905,-59.4379 245.227,-58.2411"/>
<polygon fill="midnightblue" stroke="midnightblue" points="245.89,-61.6849 255.362,-56.94 244.998,-54.7419 245.89,-61.6849"/>
</g>
<!-- Node7 -->
<g id="node14" class="node"><title>Node7</title>
<a xlink:href="class_analog_input.html#a3e81e6477668b15b1da6965972987596" target="_top" xlink:title="AnalogInput::GetSampleRate">
<polygon fill="white" stroke="black" points="254.5,-0.5 254.5,-19.5 397.5,-19.5 397.5,-0.5 254.5,-0.5"/>
<text text-anchor="middle" x="326" y="-7.5" font-family="Helvetica,sans-Serif" font-size="10.00">AnalogInput::GetSampleRate</text>
</a>
</g>
<!-- Node2&#45;&gt;Node7 -->
<g id="edge14" class="edge"><title>Node2&#45;&gt;Node7</title>
<path fill="none" stroke="midnightblue" d="M193.997,-57.3972C209.319,-49.0381 232.654,-37.0339 254,-29 260.339,-26.6144 267.101,-24.4012 273.839,-22.3916"/>
<polygon fill="midnightblue" stroke="midnightblue" points="274.984,-25.7046 283.641,-19.5964 273.065,-18.9729 274.984,-25.7046"/>
</g>
<!-- Node4 -->
<g id="node7" class="node"><title>Node4</title>
<a xlink:href="class_error_base.html#a05790f219c9e436a09752f73f7344024" target="_top" xlink:title="Check if the current error code represents a fatal error. ">
<polygon fill="white" stroke="black" points="434,-98.5 434,-117.5 558,-117.5 558,-98.5 434,-98.5"/>
<text text-anchor="middle" x="496" y="-105.5" font-family="Helvetica,sans-Serif" font-size="10.00">ErrorBase::StatusIsFatal</text>
</a>
</g>
<!-- Node3&#45;&gt;Node4 -->
<g id="edge6" class="edge"><title>Node3&#45;&gt;Node4</title>
<path fill="none" stroke="midnightblue" d="M398.247,-120.67C406.796,-119.551 415.526,-118.407 424.07,-117.288"/>
<polygon fill="midnightblue" stroke="midnightblue" points="424.533,-120.758 433.994,-115.989 423.624,-113.817 424.533,-120.758"/>
</g>
<!-- Node5&#45;&gt;Node4 -->
<g id="edge10" class="edge"><title>Node5&#45;&gt;Node4</title>
<path fill="none" stroke="midnightblue" d="M395.817,-95.0117C405.067,-96.223 414.571,-97.4676 423.86,-98.684"/>
<polygon fill="midnightblue" stroke="midnightblue" points="423.463,-102.162 433.833,-99.99 424.372,-95.2211 423.463,-102.162"/>
</g>
</g>
</svg>
