<?xml version="1.0" encoding="UTF-8" standalone="no"?>
<!DOCTYPE svg PUBLIC "-//W3C//DTD SVG 1.1//EN"
 "http://www.w3.org/Graphics/SVG/1.1/DTD/svg11.dtd">
<!-- Generated by graphviz version 2.28.0 (20110507.0327)
 -->
<!-- Title: AnalogOutput::GetVoltage Pages: 1 -->
<svg width="466pt" height="28pt"
 viewBox="0.00 0.00 466.00 28.00" xmlns="http://www.w3.org/2000/svg" xmlns:xlink="http://www.w3.org/1999/xlink">
<g id="graph1" class="graph" transform="scale(1 1) rotate(0) translate(4 24)">
<title>AnalogOutput::GetVoltage</title>
<polygon fill="white" stroke="white" points="-4,5 -4,-24 463,-24 463,5 -4,5"/>
<!-- Node1 -->
<g id="node1" class="node"><title>Node1</title>
<polygon fill="#bfbfbf" stroke="black" points="0.5,-0.5 0.5,-19.5 131.5,-19.5 131.5,-0.5 0.5,-0.5"/>
<text text-anchor="middle" x="66" y="-7.5" font-family="Helvetica,sans-Serif" font-size="10.00">AnalogOutput::GetVoltage</text>
</g>
<!-- Node2 -->
<g id="node3" class="node"><title>Node2</title>
<a xlink:href="class_analog_output.html#aa619a8e67de681f5963f082ba7b1b12c" target="_top" xlink:title="AnalogOutput::UpdateTable">
<polygon fill="white" stroke="black" points="168,-0.5 168,-19.5 304,-19.5 304,-0.5 168,-0.5"/>
<text text-anchor="middle" x="236" y="-7.5" font-family="Helvetica,sans-Serif" font-size="10.00">AnalogOutput::UpdateTable</text>
</a>
</g>
<!-- Node1&#45;&gt;Node2 -->
<g id="edge2" class="edge"><title>Node1&#45;&gt;Node2</title>
<path fill="none" stroke="midnightblue" d="M142.029,-10C150.681,-10 159.462,-10 167.998,-10"/>
<polygon fill="midnightblue" stroke="midnightblue" points="141.953,-6.5001 131.953,-10 141.953,-13.5001 141.953,-6.5001"/>
</g>
<!-- Node3 -->
<g id="node5" class="node"><title>Node3</title>
<a xlink:href="class_analog_output.html#a87691aea201657e7c33f82dce0d3a8a7" target="_top" xlink:title="AnalogOutput::InitTable">
<polygon fill="white" stroke="black" points="340,-0.5 340,-19.5 458,-19.5 458,-0.5 340,-0.5"/>
<text text-anchor="middle" x="399" y="-7.5" font-family="Helvetica,sans-Serif" font-size="10.00">AnalogOutput::InitTable</text>
</a>
</g>
<!-- Node2&#45;&gt;Node3 -->
<g id="edge4" class="edge"><title>Node2&#45;&gt;Node3</title>
<path fill="none" stroke="midnightblue" d="M314.375,-10C322.957,-10 331.586,-10 339.872,-10"/>
<polygon fill="midnightblue" stroke="midnightblue" points="314.346,-6.5001 304.346,-10 314.346,-13.5001 314.346,-6.5001"/>
</g>
</g>
</svg>
