<?xml version="1.0" encoding="UTF-8" standalone="no"?>
<!DOCTYPE svg PUBLIC "-//W3C//DTD SVG 1.1//EN"
 "http://www.w3.org/Graphics/SVG/1.1/DTD/svg11.dtd">
<!-- Generated by graphviz version 2.28.0 (20110507.0327)
 -->
<!-- Title: Command::_Cancel Pages: 1 -->
<svg width="520pt" height="66pt"
 viewBox="0.00 0.00 520.00 66.00" xmlns="http://www.w3.org/2000/svg" xmlns:xlink="http://www.w3.org/1999/xlink">
<g id="graph1" class="graph" transform="scale(1 1) rotate(0) translate(4 62)">
<title>Command::_Cancel</title>
<polygon fill="white" stroke="white" points="-4,5 -4,-62 517,-62 517,5 -4,5"/>
<!-- Node1 -->
<g id="node1" class="node"><title>Node1</title>
<polygon fill="#bfbfbf" stroke="black" points="0,-19.5 0,-38.5 102,-38.5 102,-19.5 0,-19.5"/>
<text text-anchor="middle" x="51" y="-26.5" font-family="Helvetica,sans-Serif" font-size="10.00">Command::_Cancel</text>
</g>
<!-- Node2 -->
<g id="node3" class="node"><title>Node2</title>
<a xlink:href="class_command.html#af566114c4b517ef22d8c7820c171b8b2" target="_top" xlink:title="Command::Cancel">
<polygon fill="white" stroke="black" points="138.5,-19.5 138.5,-38.5 235.5,-38.5 235.5,-19.5 138.5,-19.5"/>
<text text-anchor="middle" x="187" y="-26.5" font-family="Helvetica,sans-Serif" font-size="10.00">Command::Cancel</text>
</a>
</g>
<!-- Node1&#45;&gt;Node2 -->
<g id="edge2" class="edge"><title>Node1&#45;&gt;Node2</title>
<path fill="none" stroke="midnightblue" d="M112.317,-29C120.957,-29 129.746,-29 138.103,-29"/>
<polygon fill="midnightblue" stroke="midnightblue" points="112.278,-25.5001 102.278,-29 112.278,-32.5001 112.278,-25.5001"/>
</g>
<!-- Node3 -->
<g id="node5" class="node"><title>Node3</title>
<a xlink:href="class_command.html#ae10d99a6cec39f82aa9cb3dc289a45eb" target="_top" xlink:title="Command::Run">
<polygon fill="white" stroke="black" points="290,-38.5 290,-57.5 374,-57.5 374,-38.5 290,-38.5"/>
<text text-anchor="middle" x="332" y="-45.5" font-family="Helvetica,sans-Serif" font-size="10.00">Command::Run</text>
</a>
</g>
<!-- Node2&#45;&gt;Node3 -->
<g id="edge4" class="edge"><title>Node2&#45;&gt;Node3</title>
<path fill="none" stroke="midnightblue" d="M245.685,-36.6644C260.463,-38.6279 276.06,-40.7002 289.818,-42.5283"/>
<polygon fill="midnightblue" stroke="midnightblue" points="245.991,-33.1744 235.617,-35.3267 245.069,-40.1134 245.991,-33.1744"/>
</g>
<!-- Node5 -->
<g id="node9" class="node"><title>Node5</title>
<a xlink:href="class_scheduler.html#af1c349ae113be36ad0026d1a82951693" target="_top" xlink:title="Scheduler::UpdateTable">
<polygon fill="white" stroke="black" points="272,-0.5 272,-19.5 392,-19.5 392,-0.5 272,-0.5"/>
<text text-anchor="middle" x="332" y="-7.5" font-family="Helvetica,sans-Serif" font-size="10.00">Scheduler::UpdateTable</text>
</a>
</g>
<!-- Node2&#45;&gt;Node5 -->
<g id="edge8" class="edge"><title>Node2&#45;&gt;Node5</title>
<path fill="none" stroke="midnightblue" d="M245.614,-21.3451C254.267,-20.1953 263.202,-19.0081 271.887,-17.8542"/>
<polygon fill="midnightblue" stroke="midnightblue" points="245.069,-17.8866 235.617,-22.6733 245.991,-24.8256 245.069,-17.8866"/>
</g>
<!-- Node4 -->
<g id="node7" class="node"><title>Node4</title>
<a xlink:href="class_scheduler.html#a6e17233143754873d7f29860047de2c1" target="_top" xlink:title="Scheduler::Run">
<polygon fill="white" stroke="black" points="428.5,-19.5 428.5,-38.5 511.5,-38.5 511.5,-19.5 428.5,-19.5"/>
<text text-anchor="middle" x="470" y="-26.5" font-family="Helvetica,sans-Serif" font-size="10.00">Scheduler::Run</text>
</a>
</g>
<!-- Node3&#45;&gt;Node4 -->
<g id="edge6" class="edge"><title>Node3&#45;&gt;Node4</title>
<path fill="none" stroke="midnightblue" d="M384.1,-40.8611C398.748,-38.8147 414.513,-36.6122 428.434,-34.6673"/>
<polygon fill="midnightblue" stroke="midnightblue" points="383.593,-37.3978 374.174,-42.2478 384.562,-44.3304 383.593,-37.3978"/>
</g>
<!-- Node5&#45;&gt;Node4 -->
<g id="edge10" class="edge"><title>Node5&#45;&gt;Node4</title>
<path fill="none" stroke="midnightblue" d="M402.291,-19.6803C411.196,-20.9245 420.072,-22.1645 428.308,-23.3151"/>
<polygon fill="midnightblue" stroke="midnightblue" points="402.644,-16.1958 392.256,-18.2784 401.675,-23.1284 402.644,-16.1958"/>
</g>
</g>
</svg>
