<?xml version="1.0" encoding="UTF-8" standalone="no"?>
<!DOCTYPE svg PUBLIC "-//W3C//DTD SVG 1.1//EN"
 "http://www.w3.org/Graphics/SVG/1.1/DTD/svg11.dtd">
<!-- Generated by graphviz version 2.28.0 (20110507.0327)
 -->
<!-- Title: Compressor::SetClosedLoopControl Pages: 1 -->
<svg width="282pt" height="66pt"
 viewBox="0.00 0.00 282.00 66.00" xmlns="http://www.w3.org/2000/svg" xmlns:xlink="http://www.w3.org/1999/xlink">
<g id="graph1" class="graph" transform="scale(1 1) rotate(0) translate(4 62)">
<title>Compressor::SetClosedLoopControl</title>
<polygon fill="white" stroke="white" points="-4,5 -4,-62 279,-62 279,5 -4,5"/>
<!-- Node1 -->
<g id="node1" class="node"><title>Node1</title>
<polygon fill="#bfbfbf" stroke="black" points="0.5,-14 0.5,-44 141.5,-44 141.5,-14 0.5,-14"/>
<text text-anchor="start" x="8.5" y="-32" font-family="Helvetica,sans-Serif" font-size="10.00">Compressor::SetClosedLoop</text>
<text text-anchor="middle" x="71" y="-21" font-family="Helvetica,sans-Serif" font-size="10.00">Control</text>
</g>
<!-- Node2 -->
<g id="node3" class="node"><title>Node2</title>
<a xlink:href="class_compressor.html#a710bb74699442b508062a109ed24e6a0" target="_top" xlink:title="Compressor::Start">
<polygon fill="white" stroke="black" points="178,-38.5 178,-57.5 274,-57.5 274,-38.5 178,-38.5"/>
<text text-anchor="middle" x="226" y="-45.5" font-family="Helvetica,sans-Serif" font-size="10.00">Compressor::Start</text>
</a>
</g>
<!-- Node1&#45;&gt;Node2 -->
<g id="edge2" class="edge"><title>Node1&#45;&gt;Node2</title>
<path fill="none" stroke="midnightblue" d="M151.766,-38.9056C160.608,-40.0036 169.391,-41.0943 177.643,-42.119"/>
<polygon fill="midnightblue" stroke="midnightblue" points="152.139,-35.4251 141.784,-37.666 151.276,-42.3718 152.139,-35.4251"/>
</g>
<!-- Node3 -->
<g id="node5" class="node"><title>Node3</title>
<a xlink:href="class_compressor.html#a293182b6bfc18782b29deb8d7a99ff40" target="_top" xlink:title="Compressor::Stop">
<polygon fill="white" stroke="black" points="178.5,-0.5 178.5,-19.5 273.5,-19.5 273.5,-0.5 178.5,-0.5"/>
<text text-anchor="middle" x="226" y="-7.5" font-family="Helvetica,sans-Serif" font-size="10.00">Compressor::Stop</text>
</a>
</g>
<!-- Node1&#45;&gt;Node3 -->
<g id="edge4" class="edge"><title>Node1&#45;&gt;Node3</title>
<path fill="none" stroke="midnightblue" d="M151.896,-19.0783C160.852,-17.9661 169.745,-16.8617 178.085,-15.8261"/>
<polygon fill="midnightblue" stroke="midnightblue" points="151.276,-15.6282 141.784,-20.334 152.139,-22.5749 151.276,-15.6282"/>
</g>
</g>
</svg>
