<?xml version="1.0" encoding="UTF-8" standalone="no"?>
<!DOCTYPE svg PUBLIC "-//W3C//DTD SVG 1.1//EN"
 "http://www.w3.org/Graphics/SVG/1.1/DTD/svg11.dtd">
<!-- Generated by graphviz version 2.28.0 (20110507.0327)
 -->
<!-- Title: InterruptableSensorBase Pages: 1 -->
<svg width="286pt" height="252pt"
 viewBox="0.00 0.00 286.00 252.00" xmlns="http://www.w3.org/2000/svg" xmlns:xlink="http://www.w3.org/1999/xlink">
<g id="graph1" class="graph" transform="scale(1 1) rotate(0) translate(4 248)">
<title>InterruptableSensorBase</title>
<polygon fill="white" stroke="white" points="-4,5 -4,-248 283,-248 283,5 -4,5"/>
<!-- Node1 -->
<g id="node1" class="node"><title>Node1</title>
<polygon fill="#bfbfbf" stroke="black" points="93.5,-112.5 93.5,-131.5 216.5,-131.5 216.5,-112.5 93.5,-112.5"/>
<text text-anchor="middle" x="155" y="-119.5" font-family="Helvetica,sans-Serif" font-size="10.00">InterruptableSensorBase</text>
</g>
<!-- Node4 -->
<g id="node7" class="node"><title>Node4</title>
<a xlink:href="class_digital_source.html" target="_top" xlink:title="DigitalSource">
<polygon fill="white" stroke="black" points="118,-56.5 118,-75.5 192,-75.5 192,-56.5 118,-56.5"/>
<text text-anchor="middle" x="155" y="-63.5" font-family="Helvetica,sans-Serif" font-size="10.00">DigitalSource</text>
</a>
</g>
<!-- Node1&#45;&gt;Node4 -->
<g id="edge6" class="edge"><title>Node1&#45;&gt;Node4</title>
<path fill="none" stroke="midnightblue" d="M155,-101.805C155,-92.9102 155,-82.7798 155,-75.7511"/>
<polygon fill="midnightblue" stroke="midnightblue" points="151.5,-102.083 155,-112.083 158.5,-102.083 151.5,-102.083"/>
</g>
<!-- Node2 -->
<g id="node2" class="node"><title>Node2</title>
<a xlink:href="class_sensor_base.html" target="_top" xlink:title="SensorBase">
<polygon fill="white" stroke="black" points="120,-168.5 120,-187.5 190,-187.5 190,-168.5 120,-168.5"/>
<text text-anchor="middle" x="155" y="-175.5" font-family="Helvetica,sans-Serif" font-size="10.00">SensorBase</text>
</a>
</g>
<!-- Node2&#45;&gt;Node1 -->
<g id="edge2" class="edge"><title>Node2&#45;&gt;Node1</title>
<path fill="none" stroke="midnightblue" d="M155,-157.805C155,-148.91 155,-138.78 155,-131.751"/>
<polygon fill="midnightblue" stroke="midnightblue" points="151.5,-158.083 155,-168.083 158.5,-158.083 151.5,-158.083"/>
</g>
<!-- Node3 -->
<g id="node4" class="node"><title>Node3</title>
<a xlink:href="class_error_base.html" target="_top" xlink:title="ErrorBase">
<polygon fill="white" stroke="black" points="125,-224.5 125,-243.5 185,-243.5 185,-224.5 125,-224.5"/>
<text text-anchor="middle" x="155" y="-231.5" font-family="Helvetica,sans-Serif" font-size="10.00">ErrorBase</text>
</a>
</g>
<!-- Node3&#45;&gt;Node2 -->
<g id="edge4" class="edge"><title>Node3&#45;&gt;Node2</title>
<path fill="none" stroke="midnightblue" d="M155,-213.805C155,-204.91 155,-194.78 155,-187.751"/>
<polygon fill="midnightblue" stroke="midnightblue" points="151.5,-214.083 155,-224.083 158.5,-214.083 151.5,-214.083"/>
</g>
<!-- Node5 -->
<g id="node9" class="node"><title>Node5</title>
<a xlink:href="class_analog_trigger_output.html" target="_top" xlink:title="AnalogTriggerOutput">
<polygon fill="white" stroke="black" points="-0.5,-0.5 -0.5,-19.5 104.5,-19.5 104.5,-0.5 -0.5,-0.5"/>
<text text-anchor="middle" x="52" y="-7.5" font-family="Helvetica,sans-Serif" font-size="10.00">AnalogTriggerOutput</text>
</a>
</g>
<!-- Node4&#45;&gt;Node5 -->
<g id="edge8" class="edge"><title>Node4&#45;&gt;Node5</title>
<path fill="none" stroke="midnightblue" d="M129.421,-51.5895C110.377,-41.6052 84.9356,-28.2672 68.5077,-19.6545"/>
<polygon fill="midnightblue" stroke="midnightblue" points="127.969,-54.7805 138.451,-56.324 131.22,-48.5808 127.969,-54.7805"/>
</g>
<!-- Node6 -->
<g id="node11" class="node"><title>Node6</title>
<a xlink:href="class_digital_input.html" target="_top" xlink:title="DigitalInput">
<polygon fill="white" stroke="black" points="122.5,-0.5 122.5,-19.5 187.5,-19.5 187.5,-0.5 122.5,-0.5"/>
<text text-anchor="middle" x="155" y="-7.5" font-family="Helvetica,sans-Serif" font-size="10.00">DigitalInput</text>
</a>
</g>
<!-- Node4&#45;&gt;Node6 -->
<g id="edge10" class="edge"><title>Node4&#45;&gt;Node6</title>
<path fill="none" stroke="midnightblue" d="M155,-45.8045C155,-36.9102 155,-26.7798 155,-19.7511"/>
<polygon fill="midnightblue" stroke="midnightblue" points="151.5,-46.083 155,-56.083 158.5,-46.083 151.5,-46.083"/>
</g>
<!-- Node7 -->
<g id="node13" class="node"><title>Node7</title>
<a xlink:href="class_digital_output.html" target="_top" xlink:title="DigitalOutput">
<polygon fill="white" stroke="black" points="205.5,-0.5 205.5,-19.5 278.5,-19.5 278.5,-0.5 205.5,-0.5"/>
<text text-anchor="middle" x="242" y="-7.5" font-family="Helvetica,sans-Serif" font-size="10.00">DigitalOutput</text>
</a>
</g>
<!-- Node4&#45;&gt;Node7 -->
<g id="edge12" class="edge"><title>Node4&#45;&gt;Node7</title>
<path fill="none" stroke="midnightblue" d="M177.716,-50.9005C193.669,-40.9986 214.497,-28.0705 228.057,-19.6545"/>
<polygon fill="midnightblue" stroke="midnightblue" points="175.629,-48.0765 168.978,-56.324 179.32,-54.024 175.629,-48.0765"/>
</g>
</g>
</svg>
