<?xml version="1.0" encoding="UTF-8" standalone="no"?>
<!DOCTYPE svg PUBLIC "-//W3C//DTD SVG 1.1//EN"
 "http://www.w3.org/Graphics/SVG/1.1/DTD/svg11.dtd">
<!-- Generated by graphviz version 2.28.0 (20110507.0327)
 -->
<!-- Title: DoubleSolenoid::Get Pages: 1 -->
<svg width="274pt" height="66pt"
 viewBox="0.00 0.00 274.00 66.00" xmlns="http://www.w3.org/2000/svg" xmlns:xlink="http://www.w3.org/1999/xlink">
<g id="graph1" class="graph" transform="scale(1 1) rotate(0) translate(4 62)">
<title>DoubleSolenoid::Get</title>
<polygon fill="white" stroke="white" points="-4,5 -4,-62 271,-62 271,5 -4,5"/>
<!-- Node1 -->
<g id="node1" class="node"><title>Node1</title>
<polygon fill="#bfbfbf" stroke="black" points="0,-19.5 0,-38.5 106,-38.5 106,-19.5 0,-19.5"/>
<text text-anchor="middle" x="53" y="-26.5" font-family="Helvetica,sans-Serif" font-size="10.00">DoubleSolenoid::Get</text>
</g>
<!-- Node2 -->
<g id="node3" class="node"><title>Node2</title>
<a xlink:href="class_error_base.html#a05790f219c9e436a09752f73f7344024" target="_top" xlink:title="Check if the current error code represents a fatal error. ">
<polygon fill="white" stroke="black" points="142,-38.5 142,-57.5 266,-57.5 266,-38.5 142,-38.5"/>
<text text-anchor="middle" x="204" y="-45.5" font-family="Helvetica,sans-Serif" font-size="10.00">ErrorBase::StatusIsFatal</text>
</a>
</g>
<!-- Node1&#45;&gt;Node2 -->
<g id="edge2" class="edge"><title>Node1&#45;&gt;Node2</title>
<path fill="none" stroke="midnightblue" d="M106.113,-35.6453C114.437,-36.7067 123.172,-37.8206 131.846,-38.9267"/>
<polygon fill="midnightblue" stroke="midnightblue" points="131.61,-42.4249 141.973,-40.218 132.496,-35.4811 131.61,-42.4249"/>
</g>
<!-- Node3 -->
<g id="node5" class="node"><title>Node3</title>
<a xlink:href="class_solenoid_base.html#a2357cb3d45699c560f8892de139bedbd" target="_top" xlink:title="SolenoidBase::GetAll">
<polygon fill="white" stroke="black" points="149,-0.5 149,-19.5 259,-19.5 259,-0.5 149,-0.5"/>
<text text-anchor="middle" x="204" y="-7.5" font-family="Helvetica,sans-Serif" font-size="10.00">SolenoidBase::GetAll</text>
</a>
</g>
<!-- Node1&#45;&gt;Node3 -->
<g id="edge4" class="edge"><title>Node1&#45;&gt;Node3</title>
<path fill="none" stroke="midnightblue" d="M106.113,-22.3547C116.714,-21.0029 127.983,-19.566 138.943,-18.1683"/>
<polygon fill="midnightblue" stroke="midnightblue" points="139.418,-21.6362 148.895,-16.8993 138.532,-14.6924 139.418,-21.6362"/>
</g>
</g>
</svg>
