<?xml version="1.0" encoding="UTF-8" standalone="no"?>
<!DOCTYPE svg PUBLIC "-//W3C//DTD SVG 1.1//EN"
 "http://www.w3.org/Graphics/SVG/1.1/DTD/svg11.dtd">
<!-- Generated by graphviz version 2.28.0 (20110507.0327)
 -->
<!-- Title: Relay::InitTable Pages: 1 -->
<svg width="330pt" height="28pt"
 viewBox="0.00 0.00 330.00 28.00" xmlns="http://www.w3.org/2000/svg" xmlns:xlink="http://www.w3.org/1999/xlink">
<g id="graph1" class="graph" transform="scale(1 1) rotate(0) translate(4 24)">
<title>Relay::InitTable</title>
<polygon fill="white" stroke="white" points="-4,5 -4,-24 327,-24 327,5 -4,5"/>
<!-- Node1 -->
<g id="node1" class="node"><title>Node1</title>
<polygon fill="#bfbfbf" stroke="black" points="0.5,-0.5 0.5,-19.5 83.5,-19.5 83.5,-0.5 0.5,-0.5"/>
<text text-anchor="middle" x="42" y="-7.5" font-family="Helvetica,sans-Serif" font-size="10.00">Relay::InitTable</text>
</g>
<!-- Node2 -->
<g id="node3" class="node"><title>Node2</title>
<a xlink:href="class_relay.html#a1d74890aaee4e09442103d8587c89273" target="_top" xlink:title="Relay::UpdateTable">
<polygon fill="white" stroke="black" points="120.5,-0.5 120.5,-19.5 221.5,-19.5 221.5,-0.5 120.5,-0.5"/>
<text text-anchor="middle" x="171" y="-7.5" font-family="Helvetica,sans-Serif" font-size="10.00">Relay::UpdateTable</text>
</a>
</g>
<!-- Node1&#45;&gt;Node2 -->
<g id="edge2" class="edge"><title>Node1&#45;&gt;Node2</title>
<path fill="none" stroke="midnightblue" d="M83.5328,-10C91.9717,-10 101.036,-10 110.007,-10"/>
<polygon fill="midnightblue" stroke="midnightblue" points="110.057,-13.5001 120.057,-10 110.057,-6.5001 110.057,-13.5001"/>
</g>
<!-- Node3 -->
<g id="node5" class="node"><title>Node3</title>
<a xlink:href="class_relay.html#a62fc286a592662ece5d9c05371c6308b" target="_top" xlink:title="Relay::Get">
<polygon fill="white" stroke="black" points="258.5,-0.5 258.5,-19.5 321.5,-19.5 321.5,-0.5 258.5,-0.5"/>
<text text-anchor="middle" x="290" y="-7.5" font-family="Helvetica,sans-Serif" font-size="10.00">Relay::Get</text>
</a>
</g>
<!-- Node2&#45;&gt;Node3 -->
<g id="edge4" class="edge"><title>Node2&#45;&gt;Node3</title>
<path fill="none" stroke="midnightblue" d="M221.619,-10C230.474,-10 239.608,-10 248.182,-10"/>
<polygon fill="midnightblue" stroke="midnightblue" points="248.307,-13.5001 258.307,-10 248.307,-6.5001 248.307,-13.5001"/>
</g>
</g>
</svg>
