<?xml version="1.0" encoding="UTF-8" standalone="no"?>
<!DOCTYPE svg PUBLIC "-//W3C//DTD SVG 1.1//EN"
 "http://www.w3.org/Graphics/SVG/1.1/DTD/svg11.dtd">
<!-- Generated by graphviz version 2.28.0 (20110507.0327)
 -->
<!-- Title: Encoder::SetReverseDirection Pages: 1 -->
<svg width="494pt" height="47pt"
 viewBox="0.00 0.00 494.00 47.00" xmlns="http://www.w3.org/2000/svg" xmlns:xlink="http://www.w3.org/1999/xlink">
<g id="graph1" class="graph" transform="scale(1 1) rotate(0) translate(4 43)">
<title>Encoder::SetReverseDirection</title>
<polygon fill="white" stroke="white" points="-4,5 -4,-43 491,-43 491,5 -4,5"/>
<!-- Node1 -->
<g id="node1" class="node"><title>Node1</title>
<polygon fill="#bfbfbf" stroke="black" points="0,-19.5 0,-38.5 146,-38.5 146,-19.5 0,-19.5"/>
<text text-anchor="middle" x="73" y="-26.5" font-family="Helvetica,sans-Serif" font-size="10.00">Encoder::SetReverseDirection</text>
</g>
<!-- Node2 -->
<g id="node3" class="node"><title>Node2</title>
<a xlink:href="class_error_base.html#a05790f219c9e436a09752f73f7344024" target="_top" xlink:title="Check if the current error code represents a fatal error. ">
<polygon fill="white" stroke="black" points="362,-19.5 362,-38.5 486,-38.5 486,-19.5 362,-19.5"/>
<text text-anchor="middle" x="424" y="-26.5" font-family="Helvetica,sans-Serif" font-size="10.00">ErrorBase::StatusIsFatal</text>
</a>
</g>
<!-- Node1&#45;&gt;Node2 -->
<g id="edge2" class="edge"><title>Node1&#45;&gt;Node2</title>
<path fill="none" stroke="midnightblue" d="M146.313,-29C206.52,-29 291.787,-29 351.708,-29"/>
<polygon fill="midnightblue" stroke="midnightblue" points="351.844,-32.5001 361.844,-29 351.844,-25.5001 351.844,-32.5001"/>
</g>
<!-- Node3 -->
<g id="node5" class="node"><title>Node3</title>
<a xlink:href="class_counter.html#ab9f8c0a4b5491767c48262a5471992cd" target="_top" xlink:title="Counter::SetReverseDirection">
<polygon fill="white" stroke="black" points="182,-0.5 182,-19.5 326,-19.5 326,-0.5 182,-0.5"/>
<text text-anchor="middle" x="254" y="-7.5" font-family="Helvetica,sans-Serif" font-size="10.00">Counter::SetReverseDirection</text>
</a>
</g>
<!-- Node1&#45;&gt;Node3 -->
<g id="edge4" class="edge"><title>Node1&#45;&gt;Node3</title>
<path fill="none" stroke="midnightblue" d="M146.032,-21.3541C154.551,-20.4499 163.289,-19.5224 171.922,-18.606"/>
<polygon fill="midnightblue" stroke="midnightblue" points="172.414,-22.0736 181.988,-17.5376 171.675,-15.1127 172.414,-22.0736"/>
</g>
<!-- Node3&#45;&gt;Node2 -->
<g id="edge6" class="edge"><title>Node3&#45;&gt;Node2</title>
<path fill="none" stroke="midnightblue" d="M326.247,-18.0577C334.703,-19.0141 343.336,-19.9904 351.791,-20.9466"/>
<polygon fill="midnightblue" stroke="midnightblue" points="351.664,-24.4544 361.994,-22.1005 352.45,-17.4988 351.664,-24.4544"/>
</g>
</g>
</svg>
