<?xml version="1.0" encoding="UTF-8" standalone="no"?>
<!DOCTYPE svg PUBLIC "-//W3C//DTD SVG 1.1//EN"
 "http://www.w3.org/Graphics/SVG/1.1/DTD/svg11.dtd">
<!-- Generated by graphviz version 2.28.0 (20110507.0327)
 -->
<!-- Title: CounterBase Pages: 1 -->
<svg width="135pt" height="140pt"
 viewBox="0.00 0.00 135.00 140.00" xmlns="http://www.w3.org/2000/svg" xmlns:xlink="http://www.w3.org/1999/xlink">
<g id="graph1" class="graph" transform="scale(1 1) rotate(0) translate(4 136)">
<title>CounterBase</title>
<polygon fill="white" stroke="white" points="-4,5 -4,-136 132,-136 132,5 -4,5"/>
<!-- Node1 -->
<g id="node1" class="node"><title>Node1</title>
<polygon fill="#bfbfbf" stroke="black" points="29.5,-112.5 29.5,-131.5 102.5,-131.5 102.5,-112.5 29.5,-112.5"/>
<text text-anchor="middle" x="66" y="-119.5" font-family="Helvetica,sans-Serif" font-size="10.00">CounterBase</text>
</g>
<!-- Node2 -->
<g id="node3" class="node"><title>Node2</title>
<a xlink:href="class_counter.html" target="_top" xlink:title="Counter">
<polygon fill="white" stroke="black" points="6,-56.5 6,-75.5 56,-75.5 56,-56.5 6,-56.5"/>
<text text-anchor="middle" x="31" y="-63.5" font-family="Helvetica,sans-Serif" font-size="10.00">Counter</text>
</a>
</g>
<!-- Node1&#45;&gt;Node2 -->
<g id="edge2" class="edge"><title>Node1&#45;&gt;Node2</title>
<path fill="none" stroke="midnightblue" d="M48.7674,-104.144C41.81,-94.7357 34.8579,-83.4046 31.541,-75.7511"/>
<polygon fill="midnightblue" stroke="midnightblue" points="46.1022,-106.416 55.0541,-112.083 51.5899,-102.07 46.1022,-106.416"/>
</g>
<!-- Node1&#45;&gt;Node2 -->
<g id="edge6" class="edge"><title>Node1&#45;&gt;Node2</title>
<path fill="none" stroke="midnightblue" d="M60.7285,-102.983C55.514,-93.8168 48.1377,-83.0922 41.803,-75.7511"/>
<polygon fill="midnightblue" stroke="midnightblue" points="57.7146,-104.776 65.3868,-112.083 63.9457,-101.587 57.7146,-104.776"/>
</g>
<!-- Node4 -->
<g id="node8" class="node"><title>Node4</title>
<a xlink:href="class_encoder.html" target="_top" xlink:title="Encoder">
<polygon fill="white" stroke="black" points="74.5,-56.5 74.5,-75.5 127.5,-75.5 127.5,-56.5 74.5,-56.5"/>
<text text-anchor="middle" x="101" y="-63.5" font-family="Helvetica,sans-Serif" font-size="10.00">Encoder</text>
</a>
</g>
<!-- Node1&#45;&gt;Node4 -->
<g id="edge8" class="edge"><title>Node1&#45;&gt;Node4</title>
<path fill="none" stroke="midnightblue" d="M71.2715,-102.983C76.486,-93.8168 83.8623,-83.0922 90.197,-75.7511"/>
<polygon fill="midnightblue" stroke="midnightblue" points="68.0543,-101.587 66.6132,-112.083 74.2854,-104.776 68.0543,-101.587"/>
</g>
<!-- Node1&#45;&gt;Node4 -->
<g id="edge10" class="edge"><title>Node1&#45;&gt;Node4</title>
<path fill="none" stroke="midnightblue" d="M83.2326,-104.144C90.19,-94.7357 97.1421,-83.4046 100.459,-75.7511"/>
<polygon fill="midnightblue" stroke="midnightblue" points="80.4101,-102.07 76.9459,-112.083 85.8978,-106.416 80.4101,-102.07"/>
</g>
<!-- Node3 -->
<g id="node5" class="node"><title>Node3</title>
<a xlink:href="class_gear_tooth.html" target="_top" xlink:title="GearTooth">
<polygon fill="white" stroke="black" points="0,-0.5 0,-19.5 62,-19.5 62,-0.5 0,-0.5"/>
<text text-anchor="middle" x="31" y="-7.5" font-family="Helvetica,sans-Serif" font-size="10.00">GearTooth</text>
</a>
</g>
<!-- Node2&#45;&gt;Node3 -->
<g id="edge4" class="edge"><title>Node2&#45;&gt;Node3</title>
<path fill="none" stroke="midnightblue" d="M31,-45.8045C31,-36.9102 31,-26.7798 31,-19.7511"/>
<polygon fill="midnightblue" stroke="midnightblue" points="27.5001,-46.083 31,-56.083 34.5001,-46.083 27.5001,-46.083"/>
</g>
</g>
</svg>
