<?xml version="1.0" encoding="UTF-8" standalone="no"?>
<!DOCTYPE svg PUBLIC "-//W3C//DTD SVG 1.1//EN"
 "http://www.w3.org/Graphics/SVG/1.1/DTD/svg11.dtd">
<!-- Generated by graphviz version 2.28.0 (20110507.0327)
 -->
<!-- Title: Relay Pages: 1 -->
<svg width="300pt" height="140pt"
 viewBox="0.00 0.00 300.00 140.00" xmlns="http://www.w3.org/2000/svg" xmlns:xlink="http://www.w3.org/1999/xlink">
<g id="graph1" class="graph" transform="scale(1 1) rotate(0) translate(4 136)">
<title>Relay</title>
<polygon fill="white" stroke="white" points="-4,5 -4,-136 297,-136 297,5 -4,5"/>
<!-- Node1 -->
<g id="node1" class="node"><title>Node1</title>
<polygon fill="#bfbfbf" stroke="black" points="106.5,-0.5 106.5,-19.5 147.5,-19.5 147.5,-0.5 106.5,-0.5"/>
<text text-anchor="middle" x="127" y="-7.5" font-family="Helvetica,sans-Serif" font-size="10.00">Relay</text>
</g>
<!-- Node2 -->
<g id="node2" class="node"><title>Node2</title>
<a xlink:href="class_sensor_base.html" target="_top" xlink:title="SensorBase">
<polygon fill="white" stroke="black" points="0,-56.5 0,-75.5 70,-75.5 70,-56.5 0,-56.5"/>
<text text-anchor="middle" x="35" y="-63.5" font-family="Helvetica,sans-Serif" font-size="10.00">SensorBase</text>
</a>
</g>
<!-- Node2&#45;&gt;Node1 -->
<g id="edge2" class="edge"><title>Node2&#45;&gt;Node1</title>
<path fill="none" stroke="midnightblue" d="M53.4493,-50.6221C69.0707,-40.7574 91.1313,-27.9919 107.145,-19.6545"/>
<polygon fill="midnightblue" stroke="midnightblue" points="51.1482,-47.9431 44.6666,-56.324 54.9599,-53.8143 51.1482,-47.9431"/>
</g>
<!-- Node2&#45;&gt;Node1 -->
<g id="edge12" class="edge"><title>Node2&#45;&gt;Node1</title>
<path fill="none" stroke="midnightblue" d="M63.7714,-51.5895C82.1084,-41.6052 104.561,-28.2672 117.365,-19.6545"/>
<polygon fill="midnightblue" stroke="midnightblue" points="62.072,-48.5292 54.8962,-56.324 65.3667,-54.7054 62.072,-48.5292"/>
</g>
<!-- Node3 -->
<g id="node4" class="node"><title>Node3</title>
<a xlink:href="class_error_base.html" target="_top" xlink:title="ErrorBase">
<polygon fill="white" stroke="black" points="5,-112.5 5,-131.5 65,-131.5 65,-112.5 5,-112.5"/>
<text text-anchor="middle" x="35" y="-119.5" font-family="Helvetica,sans-Serif" font-size="10.00">ErrorBase</text>
</a>
</g>
<!-- Node3&#45;&gt;Node2 -->
<g id="edge4" class="edge"><title>Node3&#45;&gt;Node2</title>
<path fill="none" stroke="midnightblue" d="M35,-101.805C35,-92.9102 35,-82.7798 35,-75.7511"/>
<polygon fill="midnightblue" stroke="midnightblue" points="31.5001,-102.083 35,-112.083 38.5001,-102.083 31.5001,-102.083"/>
</g>
<!-- Node4 -->
<g id="node6" class="node"><title>Node4</title>
<polygon fill="white" stroke="#bfbfbf" points="88.5,-56.5 88.5,-75.5 165.5,-75.5 165.5,-56.5 88.5,-56.5"/>
<text text-anchor="middle" x="127" y="-63.5" font-family="Helvetica,sans-Serif" font-size="10.00">ITableListener</text>
</g>
<!-- Node4&#45;&gt;Node1 -->
<g id="edge6" class="edge"><title>Node4&#45;&gt;Node1</title>
<path fill="none" stroke="midnightblue" d="M120.528,-46.1005C119.896,-37.1357 120.343,-26.8579 121.869,-19.7511"/>
<polygon fill="midnightblue" stroke="midnightblue" points="117.066,-46.6216 121.834,-56.083 124.007,-45.7134 117.066,-46.6216"/>
</g>
<!-- Node4&#45;&gt;Node1 -->
<g id="edge14" class="edge"><title>Node4&#45;&gt;Node1</title>
<path fill="none" stroke="midnightblue" d="M133.472,-46.1005C134.104,-37.1357 133.657,-26.8579 132.131,-19.7511"/>
<polygon fill="midnightblue" stroke="midnightblue" points="129.993,-45.7134 132.166,-56.083 136.934,-46.6216 129.993,-45.7134"/>
</g>
<!-- Node5 -->
<g id="node8" class="node"><title>Node5</title>
<a xlink:href="class_live_window_sendable.html" target="_top" xlink:title="LiveWindowSendable">
<polygon fill="white" stroke="black" points="184,-56.5 184,-75.5 292,-75.5 292,-56.5 184,-56.5"/>
<text text-anchor="middle" x="238" y="-63.5" font-family="Helvetica,sans-Serif" font-size="10.00">LiveWindowSendable</text>
</a>
</g>
<!-- Node5&#45;&gt;Node1 -->
<g id="edge8" class="edge"><title>Node5&#45;&gt;Node1</title>
<path fill="none" stroke="midnightblue" d="M205.919,-52.2321C183.723,-42.1312 155.563,-28.3091 139.426,-19.5164"/>
<polygon fill="midnightblue" stroke="midnightblue" points="204.766,-55.5505 215.323,-56.4435 207.627,-49.1619 204.766,-55.5505"/>
</g>
<!-- Node5&#45;&gt;Node1 -->
<g id="edge16" class="edge"><title>Node5&#45;&gt;Node1</title>
<path fill="none" stroke="midnightblue" d="M216.285,-51.5515C196.293,-41.1566 167.136,-27.1439 147.506,-18.6072"/>
<polygon fill="midnightblue" stroke="midnightblue" points="214.807,-54.7292 225.281,-56.324 218.087,-48.5456 214.807,-54.7292"/>
</g>
<!-- Node6 -->
<g id="node10" class="node"><title>Node6</title>
<a xlink:href="class_sendable.html" target="_top" xlink:title="Sendable">
<polygon fill="white" stroke="black" points="209.5,-112.5 209.5,-131.5 266.5,-131.5 266.5,-112.5 209.5,-112.5"/>
<text text-anchor="middle" x="238" y="-119.5" font-family="Helvetica,sans-Serif" font-size="10.00">Sendable</text>
</a>
</g>
<!-- Node6&#45;&gt;Node5 -->
<g id="edge10" class="edge"><title>Node6&#45;&gt;Node5</title>
<path fill="none" stroke="midnightblue" d="M238,-101.805C238,-92.9102 238,-82.7798 238,-75.7511"/>
<polygon fill="midnightblue" stroke="midnightblue" points="234.5,-102.083 238,-112.083 241.5,-102.083 234.5,-102.083"/>
</g>
</g>
</svg>
