<?xml version="1.0" encoding="UTF-8" standalone="no"?>
<!DOCTYPE svg PUBLIC "-//W3C//DTD SVG 1.1//EN"
 "http://www.w3.org/Graphics/SVG/1.1/DTD/svg11.dtd">
<!-- Generated by graphviz version 2.28.0 (20110507.0327)
 -->
<!-- Title: CANJaguar::SetPositionMode Pages: 1 -->
<svg width="694pt" height="218pt"
 viewBox="0.00 0.00 694.00 218.00" xmlns="http://www.w3.org/2000/svg" xmlns:xlink="http://www.w3.org/1999/xlink">
<g id="graph1" class="graph" transform="scale(1 1) rotate(0) translate(4 214)">
<title>CANJaguar::SetPositionMode</title>
<polygon fill="white" stroke="white" points="-4,5 -4,-214 691,-214 691,5 -4,5"/>
<!-- Node1 -->
<g id="node1" class="node"><title>Node1</title>
<polygon fill="#bfbfbf" stroke="black" points="0,-130.5 0,-149.5 146,-149.5 146,-130.5 0,-130.5"/>
<text text-anchor="middle" x="73" y="-137.5" font-family="Helvetica,sans-Serif" font-size="10.00">CANJaguar::SetPositionMode</text>
</g>
<!-- Node2 -->
<g id="node3" class="node"><title>Node2</title>
<a xlink:href="class_c_a_n_jaguar.html#ad359943907bf802075474a3753f7fb02" target="_top" xlink:title="CANJaguar::SetControlMode">
<polygon fill="white" stroke="black" points="194.5,-190.5 194.5,-209.5 335.5,-209.5 335.5,-190.5 194.5,-190.5"/>
<text text-anchor="middle" x="265" y="-197.5" font-family="Helvetica,sans-Serif" font-size="10.00">CANJaguar::SetControlMode</text>
</a>
</g>
<!-- Node1&#45;&gt;Node2 -->
<g id="edge2" class="edge"><title>Node1&#45;&gt;Node2</title>
<path fill="none" stroke="midnightblue" d="M96.4468,-149.542C118.08,-158.493 151.875,-171.838 182,-181 190.33,-183.533 199.223,-185.917 207.968,-188.083"/>
<polygon fill="midnightblue" stroke="midnightblue" points="207.198,-191.497 217.739,-190.432 208.834,-184.691 207.198,-191.497"/>
</g>
<!-- Node5 -->
<g id="node9" class="node"><title>Node5</title>
<a xlink:href="class_c_a_n_jaguar.html#a4ea009bbaaa337eeb10efba61203ee38" target="_top" xlink:title="CANJaguar::SetPositionReference">
<polygon fill="white" stroke="black" points="182.5,-152.5 182.5,-171.5 347.5,-171.5 347.5,-152.5 182.5,-152.5"/>
<text text-anchor="middle" x="265" y="-159.5" font-family="Helvetica,sans-Serif" font-size="10.00">CANJaguar::SetPositionReference</text>
</a>
</g>
<!-- Node1&#45;&gt;Node5 -->
<g id="edge8" class="edge"><title>Node1&#45;&gt;Node5</title>
<path fill="none" stroke="midnightblue" d="M146.102,-148.349C154.721,-149.347 163.607,-150.376 172.454,-151.4"/>
<polygon fill="midnightblue" stroke="midnightblue" points="172.072,-154.879 182.408,-152.553 172.877,-147.925 172.072,-154.879"/>
</g>
<!-- Node6 -->
<g id="node12" class="node"><title>Node6</title>
<a xlink:href="class_c_a_n_jaguar.html#aefcfcbee61541f69cae47ea1ef405f17" target="_top" xlink:title="CANJaguar::ConfigPotentiometer\lTurns">
<polygon fill="white" stroke="black" points="185.5,-103 185.5,-133 344.5,-133 344.5,-103 185.5,-103"/>
<text text-anchor="start" x="193.5" y="-121" font-family="Helvetica,sans-Serif" font-size="10.00">CANJaguar::ConfigPotentiometer</text>
<text text-anchor="middle" x="265" y="-110" font-family="Helvetica,sans-Serif" font-size="10.00">Turns</text>
</a>
</g>
<!-- Node1&#45;&gt;Node6 -->
<g id="edge12" class="edge"><title>Node1&#45;&gt;Node6</title>
<path fill="none" stroke="midnightblue" d="M146.102,-131.651C155.607,-130.551 165.438,-129.412 175.182,-128.284"/>
<polygon fill="midnightblue" stroke="midnightblue" points="175.756,-131.741 185.287,-127.114 174.951,-124.788 175.756,-131.741"/>
</g>
<!-- Node7 -->
<g id="node15" class="node"><title>Node7</title>
<a xlink:href="class_c_a_n_jaguar.html#a27a017dfbfbb580251b4dd342ccbfd6d" target="_top" xlink:title="CANJaguar::SetPID">
<polygon fill="white" stroke="black" points="214,-51.5 214,-70.5 316,-70.5 316,-51.5 214,-51.5"/>
<text text-anchor="middle" x="265" y="-58.5" font-family="Helvetica,sans-Serif" font-size="10.00">CANJaguar::SetPID</text>
</a>
</g>
<!-- Node1&#45;&gt;Node7 -->
<g id="edge16" class="edge"><title>Node1&#45;&gt;Node7</title>
<path fill="none" stroke="midnightblue" d="M95.4122,-130.393C117.129,-120.717 151.755,-105.477 182,-93 197.381,-86.6549 214.51,-79.9189 229.119,-74.2722"/>
<polygon fill="midnightblue" stroke="midnightblue" points="230.703,-77.4132 238.778,-70.5551 228.189,-70.8803 230.703,-77.4132"/>
</g>
<!-- Node3 -->
<g id="node5" class="node"><title>Node3</title>
<a xlink:href="class_c_a_n_jaguar.html#a6bbbf784a74cf95f7b4a5660a3d53cc2" target="_top" xlink:title="CANJaguar::DisableControl">
<polygon fill="white" stroke="black" points="384,-190.5 384,-209.5 518,-209.5 518,-190.5 384,-190.5"/>
<text text-anchor="middle" x="451" y="-197.5" font-family="Helvetica,sans-Serif" font-size="10.00">CANJaguar::DisableControl</text>
</a>
</g>
<!-- Node2&#45;&gt;Node3 -->
<g id="edge4" class="edge"><title>Node2&#45;&gt;Node3</title>
<path fill="none" stroke="midnightblue" d="M335.563,-200C348.09,-200 361.208,-200 373.909,-200"/>
<polygon fill="midnightblue" stroke="midnightblue" points="373.986,-203.5 383.986,-200 373.986,-196.5 373.986,-203.5"/>
</g>
<!-- Node4 -->
<g id="node7" class="node"><title>Node4</title>
<a xlink:href="class_c_a_n_jaguar.html#a6b82b54cc4033c3c5218ab04fb6c8282" target="_top" xlink:title="CANJaguar::sendMessage">
<polygon fill="white" stroke="black" points="554,-95.5 554,-114.5 686,-114.5 686,-95.5 554,-95.5"/>
<text text-anchor="middle" x="620" y="-102.5" font-family="Helvetica,sans-Serif" font-size="10.00">CANJaguar::sendMessage</text>
</a>
</g>
<!-- Node3&#45;&gt;Node4 -->
<g id="edge6" class="edge"><title>Node3&#45;&gt;Node4</title>
<path fill="none" stroke="midnightblue" d="M483.612,-190.406C494.754,-186.534 507.19,-181.638 518,-176 548.295,-160.2 580.023,-136.547 599.653,-120.947"/>
<polygon fill="midnightblue" stroke="midnightblue" points="601.938,-123.602 607.529,-114.603 597.546,-118.15 601.938,-123.602"/>
</g>
<!-- Node5&#45;&gt;Node4 -->
<g id="edge10" class="edge"><title>Node5&#45;&gt;Node4</title>
<path fill="none" stroke="midnightblue" d="M341.455,-152.486C391.625,-145.85 458.907,-136.354 518,-126 533.629,-123.262 550.537,-119.904 565.966,-116.683"/>
<polygon fill="midnightblue" stroke="midnightblue" points="566.802,-120.083 575.864,-114.594 565.357,-113.234 566.802,-120.083"/>
</g>
<!-- Node6&#45;&gt;Node4 -->
<g id="edge14" class="edge"><title>Node6&#45;&gt;Node4</title>
<path fill="none" stroke="midnightblue" d="M344.781,-115.099C404.108,-112.914 484.945,-109.937 543.468,-107.782"/>
<polygon fill="midnightblue" stroke="midnightblue" points="543.894,-111.268 553.758,-107.403 543.636,-104.273 543.894,-111.268"/>
</g>
<!-- Node8 -->
<g id="node17" class="node"><title>Node8</title>
<a xlink:href="class_c_a_n_jaguar.html#a22a1787a38fd35abc2cdf15bb7d81da5" target="_top" xlink:title="CANJaguar::SetP">
<polygon fill="white" stroke="black" points="404.5,-76.5 404.5,-95.5 497.5,-95.5 497.5,-76.5 404.5,-76.5"/>
<text text-anchor="middle" x="451" y="-83.5" font-family="Helvetica,sans-Serif" font-size="10.00">CANJaguar::SetP</text>
</a>
</g>
<!-- Node7&#45;&gt;Node8 -->
<g id="edge18" class="edge"><title>Node7&#45;&gt;Node8</title>
<path fill="none" stroke="midnightblue" d="M316.279,-67.8314C340.407,-71.1096 369.392,-75.0478 394.2,-78.4184"/>
<polygon fill="midnightblue" stroke="midnightblue" points="393.811,-81.8978 404.192,-79.776 394.754,-74.9615 393.811,-81.8978"/>
</g>
<!-- Node9 -->
<g id="node20" class="node"><title>Node9</title>
<a xlink:href="class_c_a_n_jaguar.html#a99abdf41fc6ce39d51f0c9d2fbbcfcb0" target="_top" xlink:title="CANJaguar::SetI">
<polygon fill="white" stroke="black" points="406.5,-38.5 406.5,-57.5 495.5,-57.5 495.5,-38.5 406.5,-38.5"/>
<text text-anchor="middle" x="451" y="-45.5" font-family="Helvetica,sans-Serif" font-size="10.00">CANJaguar::SetI</text>
</a>
</g>
<!-- Node7&#45;&gt;Node9 -->
<g id="edge22" class="edge"><title>Node7&#45;&gt;Node9</title>
<path fill="none" stroke="midnightblue" d="M316.279,-57.4477C341.061,-55.6967 370.968,-53.5837 396.209,-51.8004"/>
<polygon fill="midnightblue" stroke="midnightblue" points="396.622,-55.2801 406.351,-51.0839 396.129,-48.2975 396.622,-55.2801"/>
</g>
<!-- Node10 -->
<g id="node23" class="node"><title>Node10</title>
<a xlink:href="class_c_a_n_jaguar.html#a5c5228b40626981bcb5009044edc28d7" target="_top" xlink:title="CANJaguar::SetD">
<polygon fill="white" stroke="black" points="404.5,-0.5 404.5,-19.5 497.5,-19.5 497.5,-0.5 404.5,-0.5"/>
<text text-anchor="middle" x="451" y="-7.5" font-family="Helvetica,sans-Serif" font-size="10.00">CANJaguar::SetD</text>
</a>
</g>
<!-- Node7&#45;&gt;Node10 -->
<g id="edge26" class="edge"><title>Node7&#45;&gt;Node10</title>
<path fill="none" stroke="midnightblue" d="M300.609,-51.4073C330.421,-43.1441 373.62,-31.1705 405.904,-22.2222"/>
<polygon fill="midnightblue" stroke="midnightblue" points="406.844,-25.5936 415.546,-19.5497 404.975,-18.848 406.844,-25.5936"/>
</g>
<!-- Node8&#45;&gt;Node4 -->
<g id="edge20" class="edge"><title>Node8&#45;&gt;Node4</title>
<path fill="none" stroke="midnightblue" d="M497.633,-91.1918C511.814,-92.8052 527.843,-94.6288 543.494,-96.4095"/>
<polygon fill="midnightblue" stroke="midnightblue" points="543.369,-99.9178 553.701,-97.5708 544.161,-92.9627 543.369,-99.9178"/>
</g>
<!-- Node9&#45;&gt;Node4 -->
<g id="edge24" class="edge"><title>Node9&#45;&gt;Node4</title>
<path fill="none" stroke="midnightblue" d="M487.097,-57.5427C497.129,-60.4217 508.04,-63.6985 518,-67 540.819,-74.5641 566.139,-84.0928 585.719,-91.716"/>
<polygon fill="midnightblue" stroke="midnightblue" points="584.524,-95.0069 595.111,-95.398 587.079,-88.4897 584.524,-95.0069"/>
</g>
<!-- Node10&#45;&gt;Node4 -->
<g id="edge28" class="edge"><title>Node10&#45;&gt;Node4</title>
<path fill="none" stroke="midnightblue" d="M493.717,-19.506C501.974,-22.077 510.424,-25.2212 518,-29 549.988,-44.9557 582.161,-71.3773 601.332,-88.4855"/>
<polygon fill="midnightblue" stroke="midnightblue" points="599.192,-91.2697 608.946,-95.4047 603.899,-86.0891 599.192,-91.2697"/>
</g>
</g>
</svg>
