<?xml version="1.0" encoding="UTF-8" standalone="no"?>
<!DOCTYPE svg PUBLIC "-//W3C//DTD SVG 1.1//EN"
 "http://www.w3.org/Graphics/SVG/1.1/DTD/svg11.dtd">
<!-- Generated by graphviz version 2.28.0 (20110507.0327)
 -->
<!-- Title: AnalogPotentiometer Pages: 1 -->
<svg width="211pt" height="140pt"
 viewBox="0.00 0.00 211.00 140.00" xmlns="http://www.w3.org/2000/svg" xmlns:xlink="http://www.w3.org/1999/xlink">
<g id="graph1" class="graph" transform="scale(1 1) rotate(0) translate(4 136)">
<title>AnalogPotentiometer</title>
<polygon fill="white" stroke="white" points="-4,5 -4,-136 208,-136 208,5 -4,5"/>
<!-- Node1 -->
<g id="node1" class="node"><title>Node1</title>
<polygon fill="#bfbfbf" stroke="black" points="39.5,-0.5 39.5,-19.5 146.5,-19.5 146.5,-0.5 39.5,-0.5"/>
<text text-anchor="middle" x="93" y="-7.5" font-family="Helvetica,sans-Serif" font-size="10.00">AnalogPotentiometer</text>
</g>
<!-- Node2 -->
<g id="node2" class="node"><title>Node2</title>
<a xlink:href="class_potentiometer.html" target="_top" xlink:title="Potentiometer">
<polygon fill="white" stroke="black" points="-0.5,-56.5 -0.5,-75.5 76.5,-75.5 76.5,-56.5 -0.5,-56.5"/>
<text text-anchor="middle" x="38" y="-63.5" font-family="Helvetica,sans-Serif" font-size="10.00">Potentiometer</text>
</a>
</g>
<!-- Node2&#45;&gt;Node1 -->
<g id="edge2" class="edge"><title>Node2&#45;&gt;Node1</title>
<path fill="none" stroke="midnightblue" d="M48.5947,-48.4314C57.3401,-38.9673 69.4206,-27.4827 78.9559,-19.7511"/>
<polygon fill="midnightblue" stroke="midnightblue" points="45.855,-46.2477 41.9158,-56.083 51.1286,-50.8509 45.855,-46.2477"/>
</g>
<!-- Node2&#45;&gt;Node1 -->
<g id="edge10" class="edge"><title>Node2&#45;&gt;Node1</title>
<path fill="none" stroke="midnightblue" d="M59.6002,-49.8197C70.5209,-40.1452 82.6138,-27.9481 89.1512,-19.8339"/>
<polygon fill="midnightblue" stroke="midnightblue" points="57.3021,-47.1795 51.9515,-56.324 61.8369,-52.512 57.3021,-47.1795"/>
</g>
<!-- Node3 -->
<g id="node4" class="node"><title>Node3</title>
<a xlink:href="class_p_i_d_source.html" target="_top" xlink:title="PIDSource">
<polygon fill="white" stroke="black" points="6.5,-112.5 6.5,-131.5 69.5,-131.5 69.5,-112.5 6.5,-112.5"/>
<text text-anchor="middle" x="38" y="-119.5" font-family="Helvetica,sans-Serif" font-size="10.00">PIDSource</text>
</a>
</g>
<!-- Node3&#45;&gt;Node2 -->
<g id="edge4" class="edge"><title>Node3&#45;&gt;Node2</title>
<path fill="none" stroke="midnightblue" d="M38,-101.805C38,-92.9102 38,-82.7798 38,-75.7511"/>
<polygon fill="midnightblue" stroke="midnightblue" points="34.5001,-102.083 38,-112.083 41.5001,-102.083 34.5001,-102.083"/>
</g>
<!-- Node4 -->
<g id="node6" class="node"><title>Node4</title>
<a xlink:href="class_live_window_sendable.html" target="_top" xlink:title="LiveWindowSendable">
<polygon fill="white" stroke="black" points="95,-56.5 95,-75.5 203,-75.5 203,-56.5 95,-56.5"/>
<text text-anchor="middle" x="149" y="-63.5" font-family="Helvetica,sans-Serif" font-size="10.00">LiveWindowSendable</text>
</a>
</g>
<!-- Node4&#45;&gt;Node1 -->
<g id="edge6" class="edge"><title>Node4&#45;&gt;Node1</title>
<path fill="none" stroke="midnightblue" d="M127.119,-49.8197C116.019,-40.1452 103.7,-27.9481 97.0124,-19.8339"/>
<polygon fill="midnightblue" stroke="midnightblue" points="124.973,-52.5883 134.888,-56.324 129.467,-47.2209 124.973,-52.5883"/>
</g>
<!-- Node4&#45;&gt;Node1 -->
<g id="edge12" class="edge"><title>Node4&#45;&gt;Node1</title>
<path fill="none" stroke="midnightblue" d="M138.098,-48.4314C129.178,-38.9673 116.885,-27.4827 107.206,-19.7511"/>
<polygon fill="midnightblue" stroke="midnightblue" points="135.652,-50.9471 144.919,-56.083 140.878,-46.2892 135.652,-50.9471"/>
</g>
<!-- Node5 -->
<g id="node8" class="node"><title>Node5</title>
<a xlink:href="class_sendable.html" target="_top" xlink:title="Sendable">
<polygon fill="white" stroke="black" points="120.5,-112.5 120.5,-131.5 177.5,-131.5 177.5,-112.5 120.5,-112.5"/>
<text text-anchor="middle" x="149" y="-119.5" font-family="Helvetica,sans-Serif" font-size="10.00">Sendable</text>
</a>
</g>
<!-- Node5&#45;&gt;Node4 -->
<g id="edge8" class="edge"><title>Node5&#45;&gt;Node4</title>
<path fill="none" stroke="midnightblue" d="M149,-101.805C149,-92.9102 149,-82.7798 149,-75.7511"/>
<polygon fill="midnightblue" stroke="midnightblue" points="145.5,-102.083 149,-112.083 152.5,-102.083 145.5,-102.083"/>
</g>
</g>
</svg>
