<?xml version="1.0" encoding="UTF-8" standalone="no"?>
<!DOCTYPE svg PUBLIC "-//W3C//DTD SVG 1.1//EN"
 "http://www.w3.org/Graphics/SVG/1.1/DTD/svg11.dtd">
<!-- Generated by graphviz version 2.28.0 (20110507.0327)
 -->
<!-- Title: InterruptableSensorBase::RequestInterrupts Pages: 1 -->
<svg width="452pt" height="90pt"
 viewBox="0.00 0.00 452.00 90.40" xmlns="http://www.w3.org/2000/svg" xmlns:xlink="http://www.w3.org/1999/xlink">
<g id="graph1" class="graph" transform="scale(1 1) rotate(0) translate(4 86.3969)">
<title>InterruptableSensorBase::RequestInterrupts</title>
<polygon fill="white" stroke="white" points="-4,5 -4,-86.3969 449,-86.3969 449,5 -4,5"/>
<!-- Node1 -->
<g id="node1" class="node"><title>Node1</title>
<polygon fill="#bfbfbf" stroke="black" points="0.5,-44 0.5,-74 123.5,-74 123.5,-44 0.5,-44"/>
<text text-anchor="start" x="8.5" y="-62" font-family="Helvetica,sans-Serif" font-size="10.00">InterruptableSensorBase</text>
<text text-anchor="middle" x="62" y="-51" font-family="Helvetica,sans-Serif" font-size="10.00">::RequestInterrupts</text>
</g>
<!-- Node2 -->
<g id="node3" class="node"><title>Node2</title>
<a xlink:href="class_error_base.html#a05790f219c9e436a09752f73f7344024" target="_top" xlink:title="Check if the current error code represents a fatal error. ">
<polygon fill="white" stroke="black" points="320,-46.5 320,-65.5 444,-65.5 444,-46.5 320,-46.5"/>
<text text-anchor="middle" x="382" y="-53.5" font-family="Helvetica,sans-Serif" font-size="10.00">ErrorBase::StatusIsFatal</text>
</a>
</g>
<!-- Node1&#45;&gt;Node2 -->
<g id="edge2" class="edge"><title>Node1&#45;&gt;Node2</title>
<path fill="none" stroke="midnightblue" d="M123.533,-72.7256C135.555,-74.9216 148.129,-76.8484 160,-78 214.854,-83.3217 229.231,-84.133 284,-78 301.622,-76.0267 320.714,-72.0967 337.261,-68.0972"/>
<polygon fill="midnightblue" stroke="midnightblue" points="338.346,-71.4339 347.2,-65.6149 336.65,-64.6425 338.346,-71.4339"/>
</g>
<!-- Node3 -->
<g id="node5" class="node"><title>Node3</title>
<a xlink:href="class_resource.html#ae7cf0288517fb7faceb241d481b23452" target="_top" xlink:title="Resource::Allocate">
<polygon fill="white" stroke="black" points="172.5,-49.5 172.5,-68.5 271.5,-68.5 271.5,-49.5 172.5,-49.5"/>
<text text-anchor="middle" x="222" y="-56.5" font-family="Helvetica,sans-Serif" font-size="10.00">Resource::Allocate</text>
</a>
</g>
<!-- Node1&#45;&gt;Node3 -->
<g id="edge4" class="edge"><title>Node1&#45;&gt;Node3</title>
<path fill="none" stroke="midnightblue" d="M123.635,-59C136.145,-59 149.305,-59 161.765,-59"/>
<polygon fill="midnightblue" stroke="midnightblue" points="162.036,-62.5001 172.036,-59 162.036,-55.5001 162.036,-62.5001"/>
</g>
<!-- Node4 -->
<g id="node7" class="node"><title>Node4</title>
<a xlink:href="class_interruptable_sensor_base.html#ae6c87ec6aa4d7c6c43c70837a7a7b53e" target="_top" xlink:title="InterruptableSensorBase\l::SetUpSourceEdge">
<polygon fill="white" stroke="black" points="160.5,-0 160.5,-30 283.5,-30 283.5,-0 160.5,-0"/>
<text text-anchor="start" x="168.5" y="-18" font-family="Helvetica,sans-Serif" font-size="10.00">InterruptableSensorBase</text>
<text text-anchor="middle" x="222" y="-7" font-family="Helvetica,sans-Serif" font-size="10.00">::SetUpSourceEdge</text>
</a>
</g>
<!-- Node1&#45;&gt;Node4 -->
<g id="edge6" class="edge"><title>Node1&#45;&gt;Node4</title>
<path fill="none" stroke="midnightblue" d="M116.933,-43.9808C129.953,-40.3548 143.987,-36.4466 157.405,-32.7101"/>
<polygon fill="midnightblue" stroke="midnightblue" points="158.348,-36.0807 167.042,-30.0262 156.47,-29.3373 158.348,-36.0807"/>
</g>
<!-- Node4&#45;&gt;Node2 -->
<g id="edge8" class="edge"><title>Node4&#45;&gt;Node2</title>
<path fill="none" stroke="midnightblue" d="M280.936,-30.0341C298.441,-34.5764 317.433,-39.5049 334.121,-43.8353"/>
<polygon fill="midnightblue" stroke="midnightblue" points="333.622,-47.3215 344.18,-46.4455 335.38,-40.5459 333.622,-47.3215"/>
</g>
</g>
</svg>
