<?xml version="1.0" encoding="UTF-8" standalone="no"?>
<!DOCTYPE svg PUBLIC "-//W3C//DTD SVG 1.1//EN"
 "http://www.w3.org/Graphics/SVG/1.1/DTD/svg11.dtd">
<!-- Generated by graphviz version 2.28.0 (20110507.0327)
 -->
<!-- Title: Joystick::GetDirectionDegrees Pages: 1 -->
<svg width="782pt" height="66pt"
 viewBox="0.00 0.00 782.00 66.00" xmlns="http://www.w3.org/2000/svg" xmlns:xlink="http://www.w3.org/1999/xlink">
<g id="graph1" class="graph" transform="scale(1 1) rotate(0) translate(4 62)">
<title>Joystick::GetDirectionDegrees</title>
<polygon fill="white" stroke="white" points="-4,5 -4,-62 779,-62 779,5 -4,5"/>
<!-- Node1 -->
<g id="node1" class="node"><title>Node1</title>
<polygon fill="#bfbfbf" stroke="black" points="0.5,-19.5 0.5,-38.5 149.5,-38.5 149.5,-19.5 0.5,-19.5"/>
<text text-anchor="middle" x="75" y="-26.5" font-family="Helvetica,sans-Serif" font-size="10.00">Joystick::GetDirectionDegrees</text>
</g>
<!-- Node2 -->
<g id="node3" class="node"><title>Node2</title>
<a xlink:href="class_joystick.html#a1ffd1a1d97440eb1a611361bdcac33fc" target="_top" xlink:title="Joystick::GetDirectionRadians">
<polygon fill="white" stroke="black" points="186,-19.5 186,-38.5 334,-38.5 334,-19.5 186,-19.5"/>
<text text-anchor="middle" x="260" y="-26.5" font-family="Helvetica,sans-Serif" font-size="10.00">Joystick::GetDirectionRadians</text>
</a>
</g>
<!-- Node1&#45;&gt;Node2 -->
<g id="edge2" class="edge"><title>Node1&#45;&gt;Node2</title>
<path fill="none" stroke="midnightblue" d="M149.642,-29C158.208,-29 166.992,-29 175.676,-29"/>
<polygon fill="midnightblue" stroke="midnightblue" points="175.806,-32.5001 185.806,-29 175.806,-25.5001 175.806,-32.5001"/>
</g>
<!-- Node3 -->
<g id="node5" class="node"><title>Node3</title>
<a xlink:href="class_joystick.html#a684f7ef395e7cf4d1137e816554446c9" target="_top" xlink:title="Joystick::GetX">
<polygon fill="white" stroke="black" points="371,-38.5 371,-57.5 451,-57.5 451,-38.5 371,-38.5"/>
<text text-anchor="middle" x="411" y="-45.5" font-family="Helvetica,sans-Serif" font-size="10.00">Joystick::GetX</text>
</a>
</g>
<!-- Node2&#45;&gt;Node3 -->
<g id="edge4" class="edge"><title>Node2&#45;&gt;Node3</title>
<path fill="none" stroke="midnightblue" d="M334.19,-38.333C343.19,-39.4806 352.215,-40.6314 360.74,-41.7185"/>
<polygon fill="midnightblue" stroke="midnightblue" points="360.493,-45.2152 370.855,-43.0084 361.378,-38.2715 360.493,-45.2152"/>
</g>
<!-- Node6 -->
<g id="node11" class="node"><title>Node6</title>
<a xlink:href="class_joystick.html#a6f413b0da6c62d848113409acc9cb971" target="_top" xlink:title="Joystick::GetY">
<polygon fill="white" stroke="black" points="370.5,-0.5 370.5,-19.5 451.5,-19.5 451.5,-0.5 370.5,-0.5"/>
<text text-anchor="middle" x="411" y="-7.5" font-family="Helvetica,sans-Serif" font-size="10.00">Joystick::GetY</text>
</a>
</g>
<!-- Node2&#45;&gt;Node6 -->
<g id="edge10" class="edge"><title>Node2&#45;&gt;Node6</title>
<path fill="none" stroke="midnightblue" d="M334.19,-19.667C343.085,-18.5327 352.005,-17.3953 360.442,-16.3194"/>
<polygon fill="midnightblue" stroke="midnightblue" points="360.983,-19.7789 370.46,-15.042 360.098,-12.8351 360.983,-19.7789"/>
</g>
<!-- Node4 -->
<g id="node7" class="node"><title>Node4</title>
<a xlink:href="class_joystick.html#a1011135df443771aa07e3afa4a839b05" target="_top" xlink:title="Joystick::GetRawAxis">
<polygon fill="white" stroke="black" points="488.5,-19.5 488.5,-38.5 601.5,-38.5 601.5,-19.5 488.5,-19.5"/>
<text text-anchor="middle" x="545" y="-26.5" font-family="Helvetica,sans-Serif" font-size="10.00">Joystick::GetRawAxis</text>
</a>
</g>
<!-- Node3&#45;&gt;Node4 -->
<g id="edge6" class="edge"><title>Node3&#45;&gt;Node4</title>
<path fill="none" stroke="midnightblue" d="M451.247,-42.3508C459.73,-41.1298 468.923,-39.8066 478.113,-38.4838"/>
<polygon fill="midnightblue" stroke="midnightblue" points="478.651,-41.9425 488.05,-37.0534 477.653,-35.0139 478.651,-41.9425"/>
</g>
<!-- Node5 -->
<g id="node9" class="node"><title>Node5</title>
<a xlink:href="class_driver_station.html#a3d0f8b9b6dd45cd071773a47d35059ac" target="_top" xlink:title="DriverStation::GetStickAxis">
<polygon fill="white" stroke="black" points="638.5,-19.5 638.5,-38.5 773.5,-38.5 773.5,-19.5 638.5,-19.5"/>
<text text-anchor="middle" x="706" y="-26.5" font-family="Helvetica,sans-Serif" font-size="10.00">DriverStation::GetStickAxis</text>
</a>
</g>
<!-- Node4&#45;&gt;Node5 -->
<g id="edge8" class="edge"><title>Node4&#45;&gt;Node5</title>
<path fill="none" stroke="midnightblue" d="M601.61,-29C610.264,-29 619.334,-29 628.355,-29"/>
<polygon fill="midnightblue" stroke="midnightblue" points="628.495,-32.5001 638.495,-29 628.495,-25.5001 628.495,-32.5001"/>
</g>
<!-- Node6&#45;&gt;Node4 -->
<g id="edge12" class="edge"><title>Node6&#45;&gt;Node4</title>
<path fill="none" stroke="midnightblue" d="M451.604,-15.7006C460.081,-16.9208 469.254,-18.241 478.415,-19.5598"/>
<polygon fill="midnightblue" stroke="midnightblue" points="477.922,-23.0248 488.319,-20.9853 478.92,-16.0962 477.922,-23.0248"/>
</g>
</g>
</svg>
