<?xml version="1.0" encoding="UTF-8" standalone="no"?>
<!DOCTYPE svg PUBLIC "-//W3C//DTD SVG 1.1//EN"
 "http://www.w3.org/Graphics/SVG/1.1/DTD/svg11.dtd">
<!-- Generated by graphviz version 2.28.0 (20110507.0327)
 -->
<!-- Title: PWM::GetSpeed Pages: 1 -->
<svg width="358pt" height="218pt"
 viewBox="0.00 0.00 358.00 218.00" xmlns="http://www.w3.org/2000/svg" xmlns:xlink="http://www.w3.org/1999/xlink">
<g id="graph1" class="graph" transform="scale(1 1) rotate(0) translate(4 214)">
<title>PWM::GetSpeed</title>
<polygon fill="white" stroke="white" points="-4,5 -4,-214 355,-214 355,5 -4,5"/>
<!-- Node1 -->
<g id="node1" class="node"><title>Node1</title>
<polygon fill="#bfbfbf" stroke="black" points="0.5,-95.5 0.5,-114.5 91.5,-114.5 91.5,-95.5 0.5,-95.5"/>
<text text-anchor="middle" x="46" y="-102.5" font-family="Helvetica,sans-Serif" font-size="10.00">PWM::GetSpeed</text>
</g>
<!-- Node2 -->
<g id="node3" class="node"><title>Node2</title>
<a xlink:href="class_jaguar.html#a7ce9aa9378ec4f0907dca524f63bfdd1" target="_top" xlink:title="Jaguar::Get">
<polygon fill="white" stroke="black" points="145.5,-190.5 145.5,-209.5 212.5,-209.5 212.5,-190.5 145.5,-190.5"/>
<text text-anchor="middle" x="179" y="-197.5" font-family="Helvetica,sans-Serif" font-size="10.00">Jaguar::Get</text>
</a>
</g>
<!-- Node1&#45;&gt;Node2 -->
<g id="edge2" class="edge"><title>Node1&#45;&gt;Node2</title>
<path fill="none" stroke="midnightblue" d="M61.6339,-122.201C76.7827,-139.103 101.858,-164.67 128,-181 133.907,-184.69 140.644,-187.848 147.218,-190.47"/>
<polygon fill="midnightblue" stroke="midnightblue" points="64.2594,-119.886 55.0334,-114.677 58.9975,-124.503 64.2594,-119.886"/>
</g>
<!-- Node3 -->
<g id="node5" class="node"><title>Node3</title>
<a xlink:href="class_p_w_m.html#a963e92607792f13d6a4d05e3ccf04cbd" target="_top" xlink:title="PWM::UpdateTable">
<polygon fill="white" stroke="black" points="128.5,-152.5 128.5,-171.5 229.5,-171.5 229.5,-152.5 128.5,-152.5"/>
<text text-anchor="middle" x="179" y="-159.5" font-family="Helvetica,sans-Serif" font-size="10.00">PWM::UpdateTable</text>
</a>
</g>
<!-- Node1&#45;&gt;Node3 -->
<g id="edge4" class="edge"><title>Node1&#45;&gt;Node3</title>
<path fill="none" stroke="midnightblue" d="M75.4813,-119.005C90.9,-126.423 110.353,-135.52 128,-143 135.609,-146.225 143.971,-149.504 151.642,-152.41"/>
<polygon fill="midnightblue" stroke="midnightblue" points="76.9802,-115.842 66.4546,-114.633 73.9287,-122.142 76.9802,-115.842"/>
</g>
<!-- Node5 -->
<g id="node9" class="node"><title>Node5</title>
<a xlink:href="class_talon.html#a5b9cd39bb76bdc9bfa27d4cc72fce3ea" target="_top" xlink:title="Talon::Get">
<polygon fill="white" stroke="black" points="148,-114.5 148,-133.5 210,-133.5 210,-114.5 148,-114.5"/>
<text text-anchor="middle" x="179" y="-121.5" font-family="Helvetica,sans-Serif" font-size="10.00">Talon::Get</text>
</a>
</g>
<!-- Node1&#45;&gt;Node5 -->
<g id="edge8" class="edge"><title>Node1&#45;&gt;Node5</title>
<path fill="none" stroke="midnightblue" d="M101.905,-112.963C117.655,-115.248 134.243,-117.654 147.898,-119.634"/>
<polygon fill="midnightblue" stroke="midnightblue" points="102.115,-109.457 91.7164,-111.486 101.11,-116.385 102.115,-109.457"/>
</g>
<!-- Node6 -->
<g id="node11" class="node"><title>Node6</title>
<a xlink:href="class_talon_s_r_x.html#a5d72e618d1328c758e01aa54a28910c8" target="_top" xlink:title="TalonSRX::Get">
<polygon fill="white" stroke="black" points="139,-76.5 139,-95.5 219,-95.5 219,-76.5 139,-76.5"/>
<text text-anchor="middle" x="179" y="-83.5" font-family="Helvetica,sans-Serif" font-size="10.00">TalonSRX::Get</text>
</a>
</g>
<!-- Node1&#45;&gt;Node6 -->
<g id="edge10" class="edge"><title>Node1&#45;&gt;Node6</title>
<path fill="none" stroke="midnightblue" d="M101.938,-97.0319C114.298,-95.2392 127.174,-93.3717 138.741,-91.694"/>
<polygon fill="midnightblue" stroke="midnightblue" points="101.11,-93.6152 91.7164,-98.5144 102.115,-100.543 101.11,-93.6152"/>
</g>
<!-- Node7 -->
<g id="node13" class="node"><title>Node7</title>
<a xlink:href="class_victor.html#a71f7b8a475186a823515c4508af7498c" target="_top" xlink:title="Victor::Get">
<polygon fill="white" stroke="black" points="147,-38.5 147,-57.5 211,-57.5 211,-38.5 147,-38.5"/>
<text text-anchor="middle" x="179" y="-45.5" font-family="Helvetica,sans-Serif" font-size="10.00">Victor::Get</text>
</a>
</g>
<!-- Node1&#45;&gt;Node7 -->
<g id="edge12" class="edge"><title>Node1&#45;&gt;Node7</title>
<path fill="none" stroke="midnightblue" d="M75.4813,-90.9952C90.9,-83.5771 110.353,-74.4796 128,-67 135.609,-63.7747 143.971,-60.4956 151.642,-57.5899"/>
<polygon fill="midnightblue" stroke="midnightblue" points="73.9287,-87.8582 66.4546,-95.3674 76.9802,-94.1581 73.9287,-87.8582"/>
</g>
<!-- Node8 -->
<g id="node15" class="node"><title>Node8</title>
<a xlink:href="class_victor_s_p.html#a84bea364d16a3bfa19474ed1eb5837a0" target="_top" xlink:title="VictorSP::Get">
<polygon fill="white" stroke="black" points="140.5,-0.5 140.5,-19.5 217.5,-19.5 217.5,-0.5 140.5,-0.5"/>
<text text-anchor="middle" x="179" y="-7.5" font-family="Helvetica,sans-Serif" font-size="10.00">VictorSP::Get</text>
</a>
</g>
<!-- Node1&#45;&gt;Node8 -->
<g id="edge14" class="edge"><title>Node1&#45;&gt;Node8</title>
<path fill="none" stroke="midnightblue" d="M61.6339,-87.7995C76.7827,-70.8969 101.858,-45.3299 128,-29 133.907,-25.3102 140.644,-22.1516 147.218,-19.5297"/>
<polygon fill="midnightblue" stroke="midnightblue" points="58.9975,-85.4974 55.0334,-95.3227 64.2594,-90.1139 58.9975,-85.4974"/>
</g>
<!-- Node4 -->
<g id="node7" class="node"><title>Node4</title>
<a xlink:href="class_p_w_m.html#a7b8183e4e39c2092b8b5ac2914761873" target="_top" xlink:title="PWM::InitTable">
<polygon fill="white" stroke="black" points="266.5,-152.5 266.5,-171.5 349.5,-171.5 349.5,-152.5 266.5,-152.5"/>
<text text-anchor="middle" x="308" y="-159.5" font-family="Helvetica,sans-Serif" font-size="10.00">PWM::InitTable</text>
</a>
</g>
<!-- Node3&#45;&gt;Node4 -->
<g id="edge6" class="edge"><title>Node3&#45;&gt;Node4</title>
<path fill="none" stroke="midnightblue" d="M239.866,-162C248.825,-162 257.882,-162 266.318,-162"/>
<polygon fill="midnightblue" stroke="midnightblue" points="239.829,-158.5 229.829,-162 239.829,-165.5 239.829,-158.5"/>
</g>
</g>
</svg>
