<?xml version="1.0" encoding="UTF-8" standalone="no"?>
<!DOCTYPE svg PUBLIC "-//W3C//DTD SVG 1.1//EN"
 "http://www.w3.org/Graphics/SVG/1.1/DTD/svg11.dtd">
<!-- Generated by graphviz version 2.28.0 (20110507.0327)
 -->
<!-- Title: AnalogInput::GetAverageValue Pages: 1 -->
<svg width="386pt" height="28pt"
 viewBox="0.00 0.00 386.00 28.00" xmlns="http://www.w3.org/2000/svg" xmlns:xlink="http://www.w3.org/1999/xlink">
<g id="graph1" class="graph" transform="scale(1 1) rotate(0) translate(4 24)">
<title>AnalogInput::GetAverageValue</title>
<polygon fill="white" stroke="white" points="-4,5 -4,-24 383,-24 383,5 -4,5"/>
<!-- Node1 -->
<g id="node1" class="node"><title>Node1</title>
<polygon fill="#bfbfbf" stroke="black" points="0.5,-0.5 0.5,-19.5 149.5,-19.5 149.5,-0.5 0.5,-0.5"/>
<text text-anchor="middle" x="75" y="-7.5" font-family="Helvetica,sans-Serif" font-size="10.00">AnalogInput::GetAverageValue</text>
</g>
<!-- Node2 -->
<g id="node3" class="node"><title>Node2</title>
<a xlink:href="class_gyro.html#ae5da50d9e7d6cf3ddd87744f4b797e7a" target="_top" xlink:title="Gyro::GetRate">
<polygon fill="white" stroke="black" points="186,-0.5 186,-19.5 266,-19.5 266,-0.5 186,-0.5"/>
<text text-anchor="middle" x="226" y="-7.5" font-family="Helvetica,sans-Serif" font-size="10.00">Gyro::GetRate</text>
</a>
</g>
<!-- Node1&#45;&gt;Node2 -->
<g id="edge2" class="edge"><title>Node1&#45;&gt;Node2</title>
<path fill="none" stroke="midnightblue" d="M159.83,-10C168.823,-10 177.632,-10 185.721,-10"/>
<polygon fill="midnightblue" stroke="midnightblue" points="159.627,-6.5001 149.627,-10 159.627,-13.5001 159.627,-6.5001"/>
</g>
<!-- Node3 -->
<g id="node5" class="node"><title>Node3</title>
<a xlink:href="class_gyro.html#aca619c0201c5fb85e2bbaeef0f39e8e6" target="_top" xlink:title="Gyro::PIDGet">
<polygon fill="white" stroke="black" points="302.5,-0.5 302.5,-19.5 377.5,-19.5 377.5,-0.5 302.5,-0.5"/>
<text text-anchor="middle" x="340" y="-7.5" font-family="Helvetica,sans-Serif" font-size="10.00">Gyro::PIDGet</text>
</a>
</g>
<!-- Node2&#45;&gt;Node3 -->
<g id="edge4" class="edge"><title>Node2&#45;&gt;Node3</title>
<path fill="none" stroke="midnightblue" d="M276.278,-10C285.017,-10 293.978,-10 302.293,-10"/>
<polygon fill="midnightblue" stroke="midnightblue" points="276.172,-6.5001 266.172,-10 276.172,-13.5001 276.172,-6.5001"/>
</g>
</g>
</svg>
