<?xml version="1.0" encoding="UTF-8" standalone="no"?>
<!DOCTYPE svg PUBLIC "-//W3C//DTD SVG 1.1//EN"
 "http://www.w3.org/Graphics/SVG/1.1/DTD/svg11.dtd">
<!-- Generated by graphviz version 2.28.0 (20110507.0327)
 -->
<!-- Title: Gyro::GetRate Pages: 1 -->
<svg width="442pt" height="104pt"
 viewBox="0.00 0.00 442.00 104.00" xmlns="http://www.w3.org/2000/svg" xmlns:xlink="http://www.w3.org/1999/xlink">
<g id="graph1" class="graph" transform="scale(1 1) rotate(0) translate(4 100)">
<title>Gyro::GetRate</title>
<polygon fill="white" stroke="white" points="-4,5 -4,-100 439,-100 439,5 -4,5"/>
<!-- Node1 -->
<g id="node1" class="node"><title>Node1</title>
<polygon fill="#bfbfbf" stroke="black" points="0,-38.5 0,-57.5 80,-57.5 80,-38.5 0,-38.5"/>
<text text-anchor="middle" x="40" y="-45.5" font-family="Helvetica,sans-Serif" font-size="10.00">Gyro::GetRate</text>
</g>
<!-- Node2 -->
<g id="node3" class="node"><title>Node2</title>
<a xlink:href="class_analog_input.html#a3e090e8ccf0bf0ab683e0f12359ca6ac" target="_top" xlink:title="AnalogInput::GetAverageValue">
<polygon fill="white" stroke="black" points="120.5,-76.5 120.5,-95.5 269.5,-95.5 269.5,-76.5 120.5,-76.5"/>
<text text-anchor="middle" x="195" y="-83.5" font-family="Helvetica,sans-Serif" font-size="10.00">AnalogInput::GetAverageValue</text>
</a>
</g>
<!-- Node1&#45;&gt;Node2 -->
<g id="edge2" class="edge"><title>Node1&#45;&gt;Node2</title>
<path fill="none" stroke="midnightblue" d="M78.369,-57.5386C90.3794,-60.5851 103.746,-63.9555 116,-67 125.236,-69.2947 135.094,-71.717 144.585,-74.0356"/>
<polygon fill="midnightblue" stroke="midnightblue" points="143.758,-77.4362 154.302,-76.4046 145.416,-70.6354 143.758,-77.4362"/>
</g>
<!-- Node4 -->
<g id="node7" class="node"><title>Node4</title>
<a xlink:href="class_analog_input.html#af34dfab137f2fed40c98b4f0871c84cc" target="_top" xlink:title="AnalogInput::GetLSBWeight">
<polygon fill="white" stroke="black" points="125.5,-38.5 125.5,-57.5 264.5,-57.5 264.5,-38.5 125.5,-38.5"/>
<text text-anchor="middle" x="195" y="-45.5" font-family="Helvetica,sans-Serif" font-size="10.00">AnalogInput::GetLSBWeight</text>
</a>
</g>
<!-- Node1&#45;&gt;Node4 -->
<g id="edge6" class="edge"><title>Node1&#45;&gt;Node4</title>
<path fill="none" stroke="midnightblue" d="M80.0042,-48C90.7945,-48 102.907,-48 115.101,-48"/>
<polygon fill="midnightblue" stroke="midnightblue" points="115.336,-51.5001 125.336,-48 115.335,-44.5001 115.336,-51.5001"/>
</g>
<!-- Node5 -->
<g id="node10" class="node"><title>Node5</title>
<a xlink:href="class_analog_input.html#a713786ced6451b57fbcec31cf7cb1340" target="_top" xlink:title="AnalogInput::GetOversampleBits">
<polygon fill="white" stroke="black" points="116,-0.5 116,-19.5 274,-19.5 274,-0.5 116,-0.5"/>
<text text-anchor="middle" x="195" y="-7.5" font-family="Helvetica,sans-Serif" font-size="10.00">AnalogInput::GetOversampleBits</text>
</a>
</g>
<!-- Node1&#45;&gt;Node5 -->
<g id="edge10" class="edge"><title>Node1&#45;&gt;Node5</title>
<path fill="none" stroke="midnightblue" d="M78.369,-38.4614C90.3794,-35.4149 103.746,-32.0445 116,-29 125.236,-26.7053 135.094,-24.283 144.585,-21.9644"/>
<polygon fill="midnightblue" stroke="midnightblue" points="145.416,-25.3646 154.302,-19.5954 143.758,-18.5638 145.416,-25.3646"/>
</g>
<!-- Node3 -->
<g id="node5" class="node"><title>Node3</title>
<a xlink:href="class_error_base.html#a05790f219c9e436a09752f73f7344024" target="_top" xlink:title="Check if the current error code represents a fatal error. ">
<polygon fill="white" stroke="black" points="310,-38.5 310,-57.5 434,-57.5 434,-38.5 310,-38.5"/>
<text text-anchor="middle" x="372" y="-45.5" font-family="Helvetica,sans-Serif" font-size="10.00">ErrorBase::StatusIsFatal</text>
</a>
</g>
<!-- Node2&#45;&gt;Node3 -->
<g id="edge4" class="edge"><title>Node2&#45;&gt;Node3</title>
<path fill="none" stroke="midnightblue" d="M240.16,-76.411C263.565,-71.3287 292.505,-65.0446 317.212,-59.6797"/>
<polygon fill="midnightblue" stroke="midnightblue" points="318.128,-63.0624 327.158,-57.5201 316.643,-56.2218 318.128,-63.0624"/>
</g>
<!-- Node4&#45;&gt;Node3 -->
<g id="edge8" class="edge"><title>Node4&#45;&gt;Node3</title>
<path fill="none" stroke="midnightblue" d="M264.662,-48C276.216,-48 288.23,-48 299.845,-48"/>
<polygon fill="midnightblue" stroke="midnightblue" points="299.928,-51.5001 309.928,-48 299.928,-44.5001 299.928,-51.5001"/>
</g>
<!-- Node5&#45;&gt;Node3 -->
<g id="edge12" class="edge"><title>Node5&#45;&gt;Node3</title>
<path fill="none" stroke="midnightblue" d="M240.16,-19.589C263.565,-24.6713 292.505,-30.9554 317.212,-36.3203"/>
<polygon fill="midnightblue" stroke="midnightblue" points="316.643,-39.7782 327.158,-38.4799 318.128,-32.9376 316.643,-39.7782"/>
</g>
</g>
</svg>
