<?xml version="1.0" encoding="UTF-8" standalone="no"?>
<!DOCTYPE svg PUBLIC "-//W3C//DTD SVG 1.1//EN"
 "http://www.w3.org/Graphics/SVG/1.1/DTD/svg11.dtd">
<!-- Generated by graphviz version 2.28.0 (20110507.0327)
 -->
<!-- Title: Timer::GetFPGATimestamp Pages: 1 -->
<svg width="818pt" height="717pt"
 viewBox="0.00 0.00 818.00 717.00" xmlns="http://www.w3.org/2000/svg" xmlns:xlink="http://www.w3.org/1999/xlink">
<g id="graph1" class="graph" transform="scale(1 1) rotate(0) translate(4 713)">
<title>Timer::GetFPGATimestamp</title>
<polygon fill="white" stroke="white" points="-4,5 -4,-713 815,-713 815,5 -4,5"/>
<!-- Node1 -->
<g id="node1" class="node"><title>Node1</title>
<polygon fill="#bfbfbf" stroke="black" points="0.5,-184.5 0.5,-203.5 137.5,-203.5 137.5,-184.5 0.5,-184.5"/>
<text text-anchor="middle" x="69" y="-191.5" font-family="Helvetica,sans-Serif" font-size="10.00">Timer::GetFPGATimestamp</text>
</g>
<!-- Node2 -->
<g id="node3" class="node"><title>Node2</title>
<a xlink:href="class_command.html#a9e73c88648f4bb0f4ea6a4affa72344d" target="_top" xlink:title="Command::TimeSinceInitialized">
<polygon fill="white" stroke="black" points="174.5,-515.5 174.5,-534.5 327.5,-534.5 327.5,-515.5 174.5,-515.5"/>
<text text-anchor="middle" x="251" y="-522.5" font-family="Helvetica,sans-Serif" font-size="10.00">Command::TimeSinceInitialized</text>
</a>
</g>
<!-- Node1&#45;&gt;Node2 -->
<g id="edge2" class="edge"><title>Node1&#45;&gt;Node2</title>
<path fill="none" stroke="midnightblue" d="M80.0658,-212.51C113.471,-273.938 219.95,-469.742 244.786,-515.412"/>
<polygon fill="midnightblue" stroke="midnightblue" points="83.0451,-210.662 75.1929,-203.549 76.8956,-214.006 83.0451,-210.662"/>
</g>
<!-- Node6 -->
<g id="node11" class="node"><title>Node6</title>
<a xlink:href="class_motor_safety_helper.html#ad125be744ff4ee41557c3bfedcfc8d8f" target="_top" xlink:title="MotorSafetyHelper::\lMotorSafetyHelper">
<polygon fill="white" stroke="black" points="199.5,-314 199.5,-344 302.5,-344 302.5,-314 199.5,-314"/>
<text text-anchor="start" x="207.5" y="-332" font-family="Helvetica,sans-Serif" font-size="10.00">MotorSafetyHelper::</text>
<text text-anchor="middle" x="251" y="-321" font-family="Helvetica,sans-Serif" font-size="10.00">MotorSafetyHelper</text>
</a>
</g>
<!-- Node1&#45;&gt;Node6 -->
<g id="edge10" class="edge"><title>Node1&#45;&gt;Node6</title>
<path fill="none" stroke="midnightblue" d="M82.5423,-212.061C100.257,-236.292 134.847,-279.146 174,-304 181.74,-308.913 190.54,-312.955 199.34,-316.247"/>
<polygon fill="midnightblue" stroke="midnightblue" points="85.2701,-209.859 76.6047,-203.763 79.5772,-213.932 85.2701,-209.859"/>
</g>
<!-- Node7 -->
<g id="node13" class="node"><title>Node7</title>
<a xlink:href="class_motor_safety_helper.html#a67b80e9817dc725e0678de5e8f0bb39e" target="_top" xlink:title="MotorSafetyHelper::Feed">
<polygon fill="white" stroke="black" points="188.5,-275.5 188.5,-294.5 313.5,-294.5 313.5,-275.5 188.5,-275.5"/>
<text text-anchor="middle" x="251" y="-282.5" font-family="Helvetica,sans-Serif" font-size="10.00">MotorSafetyHelper::Feed</text>
</a>
</g>
<!-- Node1&#45;&gt;Node7 -->
<g id="edge12" class="edge"><title>Node1&#45;&gt;Node7</title>
<path fill="none" stroke="midnightblue" d="M98.1636,-208.238C135.209,-226.967 199.315,-259.376 231.061,-275.425"/>
<polygon fill="midnightblue" stroke="midnightblue" points="99.4264,-204.955 88.9229,-203.567 96.2682,-211.202 99.4264,-204.955"/>
</g>
<!-- Node32 -->
<g id="node63" class="node"><title>Node32</title>
<a xlink:href="class_motor_safety_helper.html#a3d4d90d4f7bc0d76445a55e5ea1d75e8" target="_top" xlink:title="MotorSafetyHelper::\lIsAlive">
<polygon fill="white" stroke="black" points="199.5,-204 199.5,-234 302.5,-234 302.5,-204 199.5,-204"/>
<text text-anchor="start" x="207.5" y="-222" font-family="Helvetica,sans-Serif" font-size="10.00">MotorSafetyHelper::</text>
<text text-anchor="middle" x="251" y="-211" font-family="Helvetica,sans-Serif" font-size="10.00">IsAlive</text>
</a>
</g>
<!-- Node1&#45;&gt;Node32 -->
<g id="edge62" class="edge"><title>Node1&#45;&gt;Node32</title>
<path fill="none" stroke="midnightblue" d="M147.716,-204.794C165.161,-207.217 183.233,-209.727 199.245,-211.951"/>
<polygon fill="midnightblue" stroke="midnightblue" points="147.924,-201.289 137.537,-203.38 146.961,-208.223 147.924,-201.289"/>
</g>
<!-- Node34 -->
<g id="node68" class="node"><title>Node34</title>
<a xlink:href="class_motor_safety_helper.html#a951390af947b507a299d1175b7e717cf" target="_top" xlink:title="MotorSafetyHelper::\lCheck">
<polygon fill="white" stroke="black" points="199.5,-155 199.5,-185 302.5,-185 302.5,-155 199.5,-155"/>
<text text-anchor="start" x="207.5" y="-173" font-family="Helvetica,sans-Serif" font-size="10.00">MotorSafetyHelper::</text>
<text text-anchor="middle" x="251" y="-162" font-family="Helvetica,sans-Serif" font-size="10.00">Check</text>
</a>
</g>
<!-- Node1&#45;&gt;Node34 -->
<g id="edge68" class="edge"><title>Node1&#45;&gt;Node34</title>
<path fill="none" stroke="midnightblue" d="M147.716,-183.638C165.161,-181.312 183.233,-178.902 199.245,-176.767"/>
<polygon fill="midnightblue" stroke="midnightblue" points="146.987,-180.204 137.537,-184.995 147.912,-187.143 146.987,-180.204"/>
</g>
<!-- Node35 -->
<g id="node70" class="node"><title>Node35</title>
<a xlink:href="class_timer.html#aadc180bcac64bc164f134d9c8076e1a3" target="_top" xlink:title="Timer::Get">
<polygon fill="white" stroke="black" points="220,-116.5 220,-135.5 282,-135.5 282,-116.5 220,-116.5"/>
<text text-anchor="middle" x="251" y="-123.5" font-family="Helvetica,sans-Serif" font-size="10.00">Timer::Get</text>
</a>
</g>
<!-- Node1&#45;&gt;Node35 -->
<g id="edge70" class="edge"><title>Node1&#45;&gt;Node35</title>
<path fill="none" stroke="midnightblue" d="M96.6841,-179.652C117.338,-168.987 146.898,-154.668 174,-145 188.731,-139.745 205.564,-135.377 219.638,-132.16"/>
<polygon fill="midnightblue" stroke="midnightblue" points="94.8247,-176.675 87.5864,-184.411 98.0696,-182.877 94.8247,-176.675"/>
</g>
<!-- Node39 -->
<g id="node78" class="node"><title>Node39</title>
<a xlink:href="class_timer.html#ae7c0c1e7d12de4b8a6e7c64e451cdd2a" target="_top" xlink:title="Timer::Reset">
<polygon fill="white" stroke="black" points="215,-57.5 215,-76.5 287,-76.5 287,-57.5 215,-57.5"/>
<text text-anchor="middle" x="251" y="-64.5" font-family="Helvetica,sans-Serif" font-size="10.00">Timer::Reset</text>
</a>
</g>
<!-- Node1&#45;&gt;Node39 -->
<g id="edge78" class="edge"><title>Node1&#45;&gt;Node39</title>
<path fill="none" stroke="midnightblue" d="M87.448,-177.408C107.402,-158.921 141.519,-128.774 174,-107 191.711,-95.1276 213.349,-84.0378 229.001,-76.5608"/>
<polygon fill="midnightblue" stroke="midnightblue" points="84.9584,-174.944 80.0482,-184.332 89.7413,-180.055 84.9584,-174.944"/>
</g>
<!-- Node41 -->
<g id="node83" class="node"><title>Node41</title>
<a xlink:href="class_timer.html#a4e607b129b392c11adddd9641a320436" target="_top" xlink:title="Timer::Start">
<polygon fill="white" stroke="black" points="217,-0.5 217,-19.5 285,-19.5 285,-0.5 217,-0.5"/>
<text text-anchor="middle" x="251" y="-7.5" font-family="Helvetica,sans-Serif" font-size="10.00">Timer::Start</text>
</a>
</g>
<!-- Node1&#45;&gt;Node41 -->
<g id="edge84" class="edge"><title>Node1&#45;&gt;Node41</title>
<path fill="none" stroke="midnightblue" d="M79.4467,-175.214C95.3933,-145.058 130.236,-85.4452 174,-48 188.459,-35.6283 207.645,-26.0759 223.121,-19.643"/>
<polygon fill="midnightblue" stroke="midnightblue" points="76.265,-173.747 74.7776,-184.237 82.4819,-176.964 76.265,-173.747"/>
</g>
<!-- Node3 -->
<g id="node5" class="node"><title>Node3</title>
<a xlink:href="class_command.html#ad1283feb94bb07985eaafe1586ab2ff7" target="_top" xlink:title="Command::IsTimedOut">
<polygon fill="white" stroke="black" points="373,-645.5 373,-664.5 489,-664.5 489,-645.5 373,-645.5"/>
<text text-anchor="middle" x="431" y="-652.5" font-family="Helvetica,sans-Serif" font-size="10.00">Command::IsTimedOut</text>
</a>
</g>
<!-- Node2&#45;&gt;Node3 -->
<g id="edge4" class="edge"><title>Node2&#45;&gt;Node3</title>
<path fill="none" stroke="midnightblue" d="M273.251,-540.52C310.472,-567.704 386.398,-623.156 416.892,-645.427"/>
<polygon fill="midnightblue" stroke="midnightblue" points="275.229,-537.631 265.089,-534.559 271.1,-543.284 275.229,-537.631"/>
</g>
<!-- Node4 -->
<g id="node7" class="node"><title>Node4</title>
<a xlink:href="class_wait_command.html#a118c9fa181b03cd80969a1a2b16508a5" target="_top" xlink:title="WaitCommand::IsFinished">
<polygon fill="white" stroke="black" points="536.5,-689.5 536.5,-708.5 667.5,-708.5 667.5,-689.5 536.5,-689.5"/>
<text text-anchor="middle" x="602" y="-696.5" font-family="Helvetica,sans-Serif" font-size="10.00">WaitCommand::IsFinished</text>
</a>
</g>
<!-- Node3&#45;&gt;Node4 -->
<g id="edge6" class="edge"><title>Node3&#45;&gt;Node4</title>
<path fill="none" stroke="midnightblue" d="M478.685,-667.155C505.728,-674.195 539.281,-682.931 564.401,-689.471"/>
<polygon fill="midnightblue" stroke="midnightblue" points="479.23,-663.68 468.67,-664.547 477.466,-670.454 479.23,-663.68"/>
</g>
<!-- Node5 -->
<g id="node9" class="node"><title>Node5</title>
<a xlink:href="class_modified_mock_command.html#a52cc2a489224ec94d97145870ed3ef8c" target="_top" xlink:title="ModifiedMockCommand\l::IsFinished">
<polygon fill="white" stroke="black" points="541.5,-640 541.5,-670 662.5,-670 662.5,-640 541.5,-640"/>
<text text-anchor="start" x="549.5" y="-658" font-family="Helvetica,sans-Serif" font-size="10.00">ModifiedMockCommand</text>
<text text-anchor="middle" x="602" y="-647" font-family="Helvetica,sans-Serif" font-size="10.00">::IsFinished</text>
</a>
</g>
<!-- Node3&#45;&gt;Node5 -->
<g id="edge8" class="edge"><title>Node3&#45;&gt;Node5</title>
<path fill="none" stroke="midnightblue" d="M499.6,-655C513.373,-655 527.77,-655 541.246,-655"/>
<polygon fill="midnightblue" stroke="midnightblue" points="499.216,-651.5 489.216,-655 499.216,-658.5 499.216,-651.5"/>
</g>
<!-- Node8 -->
<g id="node15" class="node"><title>Node8</title>
<a xlink:href="class_c_a_n_jaguar.html#a3a22b02ece406993619f993b1e09012a" target="_top" xlink:title="CANJaguar::Set">
<polygon fill="white" stroke="black" points="388,-209.5 388,-228.5 474,-228.5 474,-209.5 388,-209.5"/>
<text text-anchor="middle" x="431" y="-216.5" font-family="Helvetica,sans-Serif" font-size="10.00">CANJaguar::Set</text>
</a>
</g>
<!-- Node7&#45;&gt;Node8 -->
<g id="edge14" class="edge"><title>Node7&#45;&gt;Node8</title>
<path fill="none" stroke="midnightblue" d="M282.054,-271.258C304.393,-261.322 335.761,-247.951 364,-238 373.559,-234.631 384.046,-231.405 393.792,-228.598"/>
<polygon fill="midnightblue" stroke="midnightblue" points="280.462,-268.136 272.769,-275.421 283.326,-274.524 280.462,-268.136"/>
</g>
<!-- Node11 -->
<g id="node21" class="node"><title>Node11</title>
<a xlink:href="class_c_a_n_talon.html#ac3549186d2e6fdeeaabbd1648f31e02c" target="_top" xlink:title="CANTalon::Set">
<polygon fill="white" stroke="black" points="390.5,-297.5 390.5,-316.5 471.5,-316.5 471.5,-297.5 390.5,-297.5"/>
<text text-anchor="middle" x="431" y="-304.5" font-family="Helvetica,sans-Serif" font-size="10.00">CANTalon::Set</text>
</a>
</g>
<!-- Node7&#45;&gt;Node11 -->
<g id="edge20" class="edge"><title>Node7&#45;&gt;Node11</title>
<path fill="none" stroke="midnightblue" d="M323.724,-293.865C346.452,-296.674 370.744,-299.676 390.359,-302.101"/>
<polygon fill="midnightblue" stroke="midnightblue" points="324.11,-290.386 313.756,-292.633 323.251,-297.333 324.11,-290.386"/>
</g>
<!-- Node13 -->
<g id="node25" class="node"><title>Node13</title>
<a xlink:href="class_robot_drive.html#a2e7fa1a9713332281012e8aae5d9570e" target="_top" xlink:title="RobotDrive::MecanumDrive\l_Cartesian">
<polygon fill="white" stroke="black" points="364.5,-248 364.5,-278 497.5,-278 497.5,-248 364.5,-248"/>
<text text-anchor="start" x="372.5" y="-266" font-family="Helvetica,sans-Serif" font-size="10.00">RobotDrive::MecanumDrive</text>
<text text-anchor="middle" x="431" y="-255" font-family="Helvetica,sans-Serif" font-size="10.00">_Cartesian</text>
</a>
</g>
<!-- Node7&#45;&gt;Node13 -->
<g id="edge24" class="edge"><title>Node7&#45;&gt;Node13</title>
<path fill="none" stroke="midnightblue" d="M323.877,-276.116C337.277,-274.46 351.215,-272.737 364.414,-271.106"/>
<polygon fill="midnightblue" stroke="midnightblue" points="323.251,-272.667 313.756,-277.367 324.11,-279.614 323.251,-272.667"/>
</g>
<!-- Node14 -->
<g id="node27" class="node"><title>Node14</title>
<a xlink:href="class_robot_drive.html#a3ba6d4ec2c07575543c4f47d348332f1" target="_top" xlink:title="RobotDrive::MecanumDrive\l_Polar">
<polygon fill="white" stroke="black" points="364.5,-564 364.5,-594 497.5,-594 497.5,-564 364.5,-564"/>
<text text-anchor="start" x="372.5" y="-582" font-family="Helvetica,sans-Serif" font-size="10.00">RobotDrive::MecanumDrive</text>
<text text-anchor="middle" x="431" y="-571" font-family="Helvetica,sans-Serif" font-size="10.00">_Polar</text>
</a>
</g>
<!-- Node7&#45;&gt;Node14 -->
<g id="edge26" class="edge"><title>Node7&#45;&gt;Node14</title>
<path fill="none" stroke="midnightblue" d="M322.221,-298.756C324.287,-300.333 326.225,-302.076 328,-304 394.288,-375.857 316.521,-435.541 364,-521 373.853,-538.735 391.282,-553.697 405.756,-563.981"/>
<polygon fill="midnightblue" stroke="midnightblue" points="324.03,-295.76 313.688,-293.46 320.338,-301.708 324.03,-295.76"/>
</g>
<!-- Node16 -->
<g id="node31" class="node"><title>Node16</title>
<a xlink:href="class_robot_drive.html#a6f17b92a6867d512188b497f192f0715" target="_top" xlink:title="RobotDrive::SetLeftRight\lMotorOutputs">
<polygon fill="white" stroke="black" points="370,-482 370,-512 492,-512 492,-482 370,-482"/>
<text text-anchor="start" x="378" y="-500" font-family="Helvetica,sans-Serif" font-size="10.00">RobotDrive::SetLeftRight</text>
<text text-anchor="middle" x="431" y="-489" font-family="Helvetica,sans-Serif" font-size="10.00">MotorOutputs</text>
</a>
</g>
<!-- Node7&#45;&gt;Node16 -->
<g id="edge30" class="edge"><title>Node7&#45;&gt;Node16</title>
<path fill="none" stroke="midnightblue" d="M320.666,-299.067C323.233,-300.552 325.692,-302.191 328,-304 335.867,-310.166 400.058,-437.28 422.382,-481.778"/>
<polygon fill="midnightblue" stroke="midnightblue" points="322.097,-295.87 311.58,-294.589 319.003,-302.149 322.097,-295.87"/>
</g>
<!-- Node21 -->
<g id="node41" class="node"><title>Node21</title>
<a xlink:href="class_safe_p_w_m.html#af1ed936d88f3ee6446b01c17feb24b78" target="_top" xlink:title="SafePWM::SetSpeed">
<polygon fill="white" stroke="black" points="376,-335.5 376,-354.5 486,-354.5 486,-335.5 376,-335.5"/>
<text text-anchor="middle" x="431" y="-342.5" font-family="Helvetica,sans-Serif" font-size="10.00">SafePWM::SetSpeed</text>
</a>
</g>
<!-- Node7&#45;&gt;Node21 -->
<g id="edge40" class="edge"><title>Node7&#45;&gt;Node21</title>
<path fill="none" stroke="midnightblue" d="M309.631,-297.425C315.921,-299.364 322.155,-301.551 328,-304 345.294,-311.246 346.836,-318.45 364,-326 372.295,-329.649 381.482,-332.806 390.299,-335.441"/>
<polygon fill="midnightblue" stroke="midnightblue" points="310.33,-293.984 299.752,-294.58 308.392,-300.711 310.33,-293.984"/>
</g>
<!-- Node9 -->
<g id="node17" class="node"><title>Node9</title>
<a xlink:href="class_c_a_n_jaguar.html#a2355d55f42083ab82870c79f742620e4" target="_top" xlink:title="CANJaguar::PIDWrite">
<polygon fill="white" stroke="black" points="547,-145.5 547,-164.5 657,-164.5 657,-145.5 547,-145.5"/>
<text text-anchor="middle" x="602" y="-152.5" font-family="Helvetica,sans-Serif" font-size="10.00">CANJaguar::PIDWrite</text>
</a>
</g>
<!-- Node8&#45;&gt;Node9 -->
<g id="edge16" class="edge"><title>Node8&#45;&gt;Node9</title>
<path fill="none" stroke="midnightblue" d="M483.159,-206.198C488.266,-204.352 493.296,-202.289 498,-200 515.747,-191.364 516.236,-182.601 534,-174 541.726,-170.259 550.321,-167.132 558.707,-164.565"/>
<polygon fill="midnightblue" stroke="midnightblue" points="481.688,-202.999 473.311,-209.485 483.904,-209.639 481.688,-202.999"/>
</g>
<!-- Node10 -->
<g id="node19" class="node"><title>Node10</title>
<a xlink:href="class_c_a_n_jaguar_test.html#a3c9026e62eb65e2d497bb7bbfaded297" target="_top" xlink:title="CANJaguarTest::SetJaguar">
<polygon fill="white" stroke="black" points="535,-183.5 535,-202.5 669,-202.5 669,-183.5 535,-183.5"/>
<text text-anchor="middle" x="602" y="-190.5" font-family="Helvetica,sans-Serif" font-size="10.00">CANJaguarTest::SetJaguar</text>
</a>
</g>
<!-- Node8&#45;&gt;Node10 -->
<g id="edge18" class="edge"><title>Node8&#45;&gt;Node10</title>
<path fill="none" stroke="midnightblue" d="M484.186,-210.971C501.6,-208.292 521.17,-205.282 539.241,-202.501"/>
<polygon fill="midnightblue" stroke="midnightblue" points="483.561,-207.526 474.21,-212.506 484.626,-214.445 483.561,-207.526"/>
</g>
<!-- Node12 -->
<g id="node23" class="node"><title>Node12</title>
<a xlink:href="class_c_a_n_talon.html#a3e09bf792ecee332f4302c164a080c04" target="_top" xlink:title="CANTalon::PIDWrite">
<polygon fill="white" stroke="black" points="549.5,-221.5 549.5,-240.5 654.5,-240.5 654.5,-221.5 549.5,-221.5"/>
<text text-anchor="middle" x="602" y="-228.5" font-family="Helvetica,sans-Serif" font-size="10.00">CANTalon::PIDWrite</text>
</a>
</g>
<!-- Node11&#45;&gt;Node12 -->
<g id="edge22" class="edge"><title>Node11&#45;&gt;Node12</title>
<path fill="none" stroke="midnightblue" d="M481.507,-295.032C487.259,-292.768 492.889,-290.11 498,-287 517.6,-275.073 514.294,-261.751 534,-250 540.438,-246.161 547.688,-243.067 554.978,-240.582"/>
<polygon fill="midnightblue" stroke="midnightblue" points="480.037,-291.839 471.782,-298.48 482.376,-298.437 480.037,-291.839"/>
</g>
<!-- Node15 -->
<g id="node29" class="node"><title>Node15</title>
<a xlink:href="class_robot_drive.html#ad21b09eed120e95f1b5741a26f2f9084" target="_top" xlink:title="RobotDrive::HolonomicDrive">
<polygon fill="white" stroke="black" points="534,-601.5 534,-620.5 670,-620.5 670,-601.5 534,-601.5"/>
<text text-anchor="middle" x="602" y="-608.5" font-family="Helvetica,sans-Serif" font-size="10.00">RobotDrive::HolonomicDrive</text>
</a>
</g>
<!-- Node14&#45;&gt;Node15 -->
<g id="edge28" class="edge"><title>Node14&#45;&gt;Node15</title>
<path fill="none" stroke="midnightblue" d="M507.828,-593.358C522.389,-596.115 537.297,-598.938 550.798,-601.494"/>
<polygon fill="midnightblue" stroke="midnightblue" points="508.3,-589.885 497.824,-591.464 506.998,-596.763 508.3,-589.885"/>
</g>
<!-- Node17 -->
<g id="node33" class="node"><title>Node17</title>
<a xlink:href="class_robot_drive.html#aae039ef574600e668f8bc03ef47f37a4" target="_top" xlink:title="RobotDrive::RobotDrive">
<polygon fill="white" stroke="black" points="544,-563.5 544,-582.5 660,-582.5 660,-563.5 544,-563.5"/>
<text text-anchor="middle" x="602" y="-570.5" font-family="Helvetica,sans-Serif" font-size="10.00">RobotDrive::RobotDrive</text>
</a>
</g>
<!-- Node16&#45;&gt;Node17 -->
<g id="edge32" class="edge"><title>Node16&#45;&gt;Node17</title>
<path fill="none" stroke="midnightblue" d="M464.065,-517.472C483.685,-529.343 509.624,-543.896 534,-554 542.712,-557.611 552.335,-560.786 561.505,-563.454"/>
<polygon fill="midnightblue" stroke="midnightblue" points="465.877,-514.478 455.523,-512.232 462.217,-520.444 465.877,-514.478"/>
</g>
<!-- Node18 -->
<g id="node35" class="node"><title>Node18</title>
<a xlink:href="class_robot_drive.html#a00f3c6f7906685fe2f98ceaa8bb7e188" target="_top" xlink:title="RobotDrive::Drive">
<polygon fill="white" stroke="black" points="557,-525.5 557,-544.5 647,-544.5 647,-525.5 557,-525.5"/>
<text text-anchor="middle" x="602" y="-532.5" font-family="Helvetica,sans-Serif" font-size="10.00">RobotDrive::Drive</text>
</a>
</g>
<!-- Node16&#45;&gt;Node18 -->
<g id="edge34" class="edge"><title>Node16&#45;&gt;Node18</title>
<path fill="none" stroke="midnightblue" d="M501.999,-512.739C521.228,-517.063 541.491,-521.619 558.64,-525.475"/>
<polygon fill="midnightblue" stroke="midnightblue" points="502.583,-509.283 492.059,-510.504 501.047,-516.113 502.583,-509.283"/>
</g>
<!-- Node19 -->
<g id="node37" class="node"><title>Node19</title>
<a xlink:href="class_robot_drive.html#a3df206fa45bf88254e7cd75adca4e973" target="_top" xlink:title="RobotDrive::TankDrive">
<polygon fill="white" stroke="black" points="546.5,-487.5 546.5,-506.5 657.5,-506.5 657.5,-487.5 546.5,-487.5"/>
<text text-anchor="middle" x="602" y="-494.5" font-family="Helvetica,sans-Serif" font-size="10.00">RobotDrive::TankDrive</text>
</a>
</g>
<!-- Node16&#45;&gt;Node19 -->
<g id="edge36" class="edge"><title>Node16&#45;&gt;Node19</title>
<path fill="none" stroke="midnightblue" d="M502.181,-497C516.975,-497 532.372,-497 546.486,-497"/>
<polygon fill="midnightblue" stroke="midnightblue" points="502.059,-493.5 492.059,-497 502.059,-500.5 502.059,-493.5"/>
</g>
<!-- Node20 -->
<g id="node39" class="node"><title>Node20</title>
<a xlink:href="class_robot_drive.html#ac95118d7b535c4f3fb3d56ba5b041e40" target="_top" xlink:title="RobotDrive::ArcadeDrive">
<polygon fill="white" stroke="black" points="541.5,-449.5 541.5,-468.5 662.5,-468.5 662.5,-449.5 541.5,-449.5"/>
<text text-anchor="middle" x="602" y="-456.5" font-family="Helvetica,sans-Serif" font-size="10.00">RobotDrive::ArcadeDrive</text>
</a>
</g>
<!-- Node16&#45;&gt;Node20 -->
<g id="edge38" class="edge"><title>Node16&#45;&gt;Node20</title>
<path fill="none" stroke="midnightblue" d="M501.999,-481.261C521.228,-476.937 541.491,-472.381 558.64,-468.525"/>
<polygon fill="midnightblue" stroke="midnightblue" points="501.047,-477.887 492.059,-483.496 502.583,-484.717 501.047,-477.887"/>
</g>
<!-- Node22 -->
<g id="node43" class="node"><title>Node22</title>
<a xlink:href="class_jaguar.html#aac394eb2d4f46b29b477a7939cdec2a9" target="_top" xlink:title="Jaguar::Set">
<polygon fill="white" stroke="black" points="569,-373.5 569,-392.5 635,-392.5 635,-373.5 569,-373.5"/>
<text text-anchor="middle" x="602" y="-380.5" font-family="Helvetica,sans-Serif" font-size="10.00">Jaguar::Set</text>
</a>
</g>
<!-- Node21&#45;&gt;Node22 -->
<g id="edge42" class="edge"><title>Node21&#45;&gt;Node22</title>
<path fill="none" stroke="midnightblue" d="M484.534,-356.812C512.098,-363.01 544.985,-370.405 568.771,-375.753"/>
<polygon fill="midnightblue" stroke="midnightblue" points="485.17,-353.368 474.646,-354.589 483.634,-360.198 485.17,-353.368"/>
</g>
<!-- Node24 -->
<g id="node47" class="node"><title>Node24</title>
<a xlink:href="class_talon.html#a139bb330021efa545fd6047fa291dbeb" target="_top" xlink:title="Talon::Set">
<polygon fill="white" stroke="black" points="571.5,-335.5 571.5,-354.5 632.5,-354.5 632.5,-335.5 571.5,-335.5"/>
<text text-anchor="middle" x="602" y="-342.5" font-family="Helvetica,sans-Serif" font-size="10.00">Talon::Set</text>
</a>
</g>
<!-- Node21&#45;&gt;Node24 -->
<g id="edge46" class="edge"><title>Node21&#45;&gt;Node24</title>
<path fill="none" stroke="midnightblue" d="M496.496,-345C522.25,-345 550.635,-345 571.315,-345"/>
<polygon fill="midnightblue" stroke="midnightblue" points="496.403,-341.5 486.403,-345 496.403,-348.5 496.403,-341.5"/>
</g>
<!-- Node26 -->
<g id="node51" class="node"><title>Node26</title>
<a xlink:href="class_talon_s_r_x.html#a9d7dab854708bf4deb2d57da2cbcf9a9" target="_top" xlink:title="TalonSRX::Set">
<polygon fill="white" stroke="black" points="562,-297.5 562,-316.5 642,-316.5 642,-297.5 562,-297.5"/>
<text text-anchor="middle" x="602" y="-304.5" font-family="Helvetica,sans-Serif" font-size="10.00">TalonSRX::Set</text>
</a>
</g>
<!-- Node21&#45;&gt;Node26 -->
<g id="edge50" class="edge"><title>Node21&#45;&gt;Node26</title>
<path fill="none" stroke="midnightblue" d="M484.682,-333.154C509.626,-327.546 538.902,-320.963 561.843,-315.805"/>
<polygon fill="midnightblue" stroke="midnightblue" points="483.634,-329.802 474.646,-335.411 485.17,-336.632 483.634,-329.802"/>
</g>
<!-- Node28 -->
<g id="node55" class="node"><title>Node28</title>
<a xlink:href="class_victor.html#aeb1931d5462dcce004ba9bb5079b501a" target="_top" xlink:title="Victor::Set">
<polygon fill="white" stroke="black" points="570.5,-259.5 570.5,-278.5 633.5,-278.5 633.5,-259.5 570.5,-259.5"/>
<text text-anchor="middle" x="602" y="-266.5" font-family="Helvetica,sans-Serif" font-size="10.00">Victor::Set</text>
</a>
</g>
<!-- Node21&#45;&gt;Node28 -->
<g id="edge54" class="edge"><title>Node21&#45;&gt;Node28</title>
<path fill="none" stroke="midnightblue" d="M486.706,-331.798C490.637,-330.085 494.447,-328.161 498,-326 517.878,-313.912 514.098,-300.048 534,-288 544.964,-281.363 558.335,-276.965 570.24,-274.089"/>
<polygon fill="midnightblue" stroke="midnightblue" points="485.433,-328.538 477.379,-335.421 487.968,-335.063 485.433,-328.538"/>
</g>
<!-- Node30 -->
<g id="node59" class="node"><title>Node30</title>
<a xlink:href="class_victor_s_p.html#a5a776c3577f261f2679f77f5212e9d9c" target="_top" xlink:title="VictorSP::Set">
<polygon fill="white" stroke="black" points="563.5,-411.5 563.5,-430.5 640.5,-430.5 640.5,-411.5 563.5,-411.5"/>
<text text-anchor="middle" x="602" y="-418.5" font-family="Helvetica,sans-Serif" font-size="10.00">VictorSP::Set</text>
</a>
</g>
<!-- Node21&#45;&gt;Node30 -->
<g id="edge58" class="edge"><title>Node21&#45;&gt;Node30</title>
<path fill="none" stroke="midnightblue" d="M455.165,-360.009C475.344,-372.573 505.724,-390.279 534,-402 543.27,-405.843 553.572,-409.191 563.263,-411.961"/>
<polygon fill="midnightblue" stroke="midnightblue" points="456.98,-357.015 446.655,-354.638 453.244,-362.935 456.98,-357.015"/>
</g>
<!-- Node23 -->
<g id="node45" class="node"><title>Node23</title>
<a xlink:href="class_jaguar.html#af03d1c5b19cae7363d9eafdcb9ec354e" target="_top" xlink:title="Jaguar::PIDWrite">
<polygon fill="white" stroke="black" points="713,-373.5 713,-392.5 803,-392.5 803,-373.5 713,-373.5"/>
<text text-anchor="middle" x="758" y="-380.5" font-family="Helvetica,sans-Serif" font-size="10.00">Jaguar::PIDWrite</text>
</a>
</g>
<!-- Node22&#45;&gt;Node23 -->
<g id="edge44" class="edge"><title>Node22&#45;&gt;Node23</title>
<path fill="none" stroke="midnightblue" d="M645.483,-383C666.411,-383 691.628,-383 712.785,-383"/>
<polygon fill="midnightblue" stroke="midnightblue" points="645.283,-379.5 635.283,-383 645.283,-386.5 645.283,-379.5"/>
</g>
<!-- Node25 -->
<g id="node49" class="node"><title>Node25</title>
<a xlink:href="class_talon.html#a8485adbd32b68543d34bb7b2ad4d3ccb" target="_top" xlink:title="Talon::PIDWrite">
<polygon fill="white" stroke="black" points="715.5,-335.5 715.5,-354.5 800.5,-354.5 800.5,-335.5 715.5,-335.5"/>
<text text-anchor="middle" x="758" y="-342.5" font-family="Helvetica,sans-Serif" font-size="10.00">Talon::PIDWrite</text>
</a>
</g>
<!-- Node24&#45;&gt;Node25 -->
<g id="edge48" class="edge"><title>Node24&#45;&gt;Node25</title>
<path fill="none" stroke="midnightblue" d="M642.833,-345C665.13,-345 692.898,-345 715.465,-345"/>
<polygon fill="midnightblue" stroke="midnightblue" points="642.693,-341.5 632.693,-345 642.693,-348.5 642.693,-341.5"/>
</g>
<!-- Node27 -->
<g id="node53" class="node"><title>Node27</title>
<a xlink:href="class_talon_s_r_x.html#acd94bb75b221f4a0c09437731c574869" target="_top" xlink:title="TalonSRX::PIDWrite">
<polygon fill="white" stroke="black" points="706,-297.5 706,-316.5 810,-316.5 810,-297.5 706,-297.5"/>
<text text-anchor="middle" x="758" y="-304.5" font-family="Helvetica,sans-Serif" font-size="10.00">TalonSRX::PIDWrite</text>
</a>
</g>
<!-- Node26&#45;&gt;Node27 -->
<g id="edge52" class="edge"><title>Node26&#45;&gt;Node27</title>
<path fill="none" stroke="midnightblue" d="M652.568,-307C669.611,-307 688.716,-307 705.88,-307"/>
<polygon fill="midnightblue" stroke="midnightblue" points="652.259,-303.5 642.259,-307 652.259,-310.5 652.259,-303.5"/>
</g>
<!-- Node29 -->
<g id="node57" class="node"><title>Node29</title>
<a xlink:href="class_victor.html#a9b0d32b9299b6525d6450ff88c3365a7" target="_top" xlink:title="Victor::PIDWrite">
<polygon fill="white" stroke="black" points="714.5,-259.5 714.5,-278.5 801.5,-278.5 801.5,-259.5 714.5,-259.5"/>
<text text-anchor="middle" x="758" y="-266.5" font-family="Helvetica,sans-Serif" font-size="10.00">Victor::PIDWrite</text>
</a>
</g>
<!-- Node28&#45;&gt;Node29 -->
<g id="edge56" class="edge"><title>Node28&#45;&gt;Node29</title>
<path fill="none" stroke="midnightblue" d="M644.013,-269C665.719,-269 692.349,-269 714.303,-269"/>
<polygon fill="midnightblue" stroke="midnightblue" points="643.794,-265.5 633.794,-269 643.794,-272.5 643.794,-265.5"/>
</g>
<!-- Node31 -->
<g id="node61" class="node"><title>Node31</title>
<a xlink:href="class_victor_s_p.html#a9178b159144029faea02ae32f024ba84" target="_top" xlink:title="VictorSP::PIDWrite">
<polygon fill="white" stroke="black" points="707.5,-411.5 707.5,-430.5 808.5,-430.5 808.5,-411.5 707.5,-411.5"/>
<text text-anchor="middle" x="758" y="-418.5" font-family="Helvetica,sans-Serif" font-size="10.00">VictorSP::PIDWrite</text>
</a>
</g>
<!-- Node30&#45;&gt;Node31 -->
<g id="edge60" class="edge"><title>Node30&#45;&gt;Node31</title>
<path fill="none" stroke="midnightblue" d="M650.685,-421C668.726,-421 689.292,-421 707.497,-421"/>
<polygon fill="midnightblue" stroke="midnightblue" points="650.673,-417.5 640.673,-421 650.673,-424.5 650.673,-417.5"/>
</g>
<!-- Node32&#45;&gt;Node8 -->
<g id="edge64" class="edge"><title>Node32&#45;&gt;Node8</title>
<path fill="none" stroke="midnightblue" d="M312.547,-219C337.286,-219 365.303,-219 387.767,-219"/>
<polygon fill="midnightblue" stroke="midnightblue" points="312.532,-215.5 302.532,-219 312.531,-222.5 312.532,-215.5"/>
</g>
<!-- Node33 -->
<g id="node66" class="node"><title>Node33</title>
<a xlink:href="class_safe_p_w_m.html#aebfc9f69eff62ed8180c2991b25ad043" target="_top" xlink:title="SafePWM::IsAlive">
<polygon fill="white" stroke="black" points="383.5,-171.5 383.5,-190.5 478.5,-190.5 478.5,-171.5 383.5,-171.5"/>
<text text-anchor="middle" x="431" y="-178.5" font-family="Helvetica,sans-Serif" font-size="10.00">SafePWM::IsAlive</text>
</a>
</g>
<!-- Node32&#45;&gt;Node33 -->
<g id="edge66" class="edge"><title>Node32&#45;&gt;Node33</title>
<path fill="none" stroke="midnightblue" d="M312.555,-206.073C336.432,-200.975 363.362,-195.226 385.406,-190.52"/>
<polygon fill="midnightblue" stroke="midnightblue" points="311.58,-202.702 302.532,-208.212 313.042,-209.547 311.58,-202.702"/>
</g>
<!-- Node36 -->
<g id="node72" class="node"><title>Node36</title>
<a xlink:href="class_timer.html#a6379e797f968aaee6ac3bb12dc6b81c5" target="_top" xlink:title="Timer::Stop">
<polygon fill="white" stroke="black" points="397.5,-95.5 397.5,-114.5 464.5,-114.5 464.5,-95.5 397.5,-95.5"/>
<text text-anchor="middle" x="431" y="-102.5" font-family="Helvetica,sans-Serif" font-size="10.00">Timer::Stop</text>
</a>
</g>
<!-- Node35&#45;&gt;Node36 -->
<g id="edge72" class="edge"><title>Node35&#45;&gt;Node36</title>
<path fill="none" stroke="midnightblue" d="M292.455,-121.227C324.157,-117.487 367.699,-112.35 397.239,-108.865"/>
<polygon fill="midnightblue" stroke="midnightblue" points="291.716,-117.79 282.195,-122.438 292.537,-124.742 291.716,-117.79"/>
</g>
<!-- Node38 -->
<g id="node76" class="node"><title>Node38</title>
<a xlink:href="class_timer.html#a044e56cf40905d2f5037745e44cc3881" target="_top" xlink:title="Timer::HasPeriodPassed">
<polygon fill="white" stroke="black" points="368.5,-133.5 368.5,-152.5 493.5,-152.5 493.5,-133.5 368.5,-133.5"/>
<text text-anchor="middle" x="431" y="-140.5" font-family="Helvetica,sans-Serif" font-size="10.00">Timer::HasPeriodPassed</text>
</a>
</g>
<!-- Node35&#45;&gt;Node38 -->
<g id="edge76" class="edge"><title>Node35&#45;&gt;Node38</title>
<path fill="none" stroke="midnightblue" d="M292.356,-129.854C314.759,-131.994 343.098,-134.7 368.23,-137.101"/>
<polygon fill="midnightblue" stroke="midnightblue" points="292.483,-126.35 282.195,-128.884 291.817,-133.319 292.483,-126.35"/>
</g>
<!-- Node37 -->
<g id="node74" class="node"><title>Node37</title>
<a xlink:href="class_iterative_robot.html#a1e49eb27408751ea8ce757bfe38717e2" target="_top" xlink:title="IterativeRobot::SetPeriod">
<polygon fill="white" stroke="black" points="540,-19.5 540,-38.5 664,-38.5 664,-19.5 540,-19.5"/>
<text text-anchor="middle" x="602" y="-26.5" font-family="Helvetica,sans-Serif" font-size="10.00">IterativeRobot::SetPeriod</text>
</a>
</g>
<!-- Node36&#45;&gt;Node37 -->
<g id="edge74" class="edge"><title>Node36&#45;&gt;Node37</title>
<path fill="none" stroke="midnightblue" d="M474.56,-94.2781C482.462,-91.8587 490.565,-89.0813 498,-86 530.852,-72.3856 566.629,-50.9457 586.178,-38.6076"/>
<polygon fill="midnightblue" stroke="midnightblue" points="473.345,-90.9868 464.725,-97.1473 475.305,-97.7067 473.345,-90.9868"/>
</g>
<!-- Node39&#45;&gt;Node37 -->
<g id="edge80" class="edge"><title>Node39&#45;&gt;Node37</title>
<path fill="none" stroke="midnightblue" d="M297.14,-58.4108C317.505,-54.7763 341.9,-50.7549 364,-48 423.598,-40.5705 492.008,-35.4486 539.962,-32.4113"/>
<polygon fill="midnightblue" stroke="midnightblue" points="296.409,-54.9861 287.193,-60.2119 297.656,-61.8741 296.409,-54.9861"/>
</g>
<!-- Node40 -->
<g id="node81" class="node"><title>Node40</title>
<a xlink:href="class_timer.html#a5f16e8da27d2a5a5242dead46de05d97" target="_top" xlink:title="Timer::Timer">
<polygon fill="white" stroke="black" points="395.5,-57.5 395.5,-76.5 466.5,-76.5 466.5,-57.5 395.5,-57.5"/>
<text text-anchor="middle" x="431" y="-64.5" font-family="Helvetica,sans-Serif" font-size="10.00">Timer::Timer</text>
</a>
</g>
<!-- Node39&#45;&gt;Node40 -->
<g id="edge82" class="edge"><title>Node39&#45;&gt;Node40</title>
<path fill="none" stroke="midnightblue" d="M297.514,-67C327.921,-67 367.307,-67 395.209,-67"/>
<polygon fill="midnightblue" stroke="midnightblue" points="297.167,-63.5001 287.167,-67 297.167,-70.5001 297.167,-63.5001"/>
</g>
<!-- Node41&#45;&gt;Node37 -->
<g id="edge86" class="edge"><title>Node41&#45;&gt;Node37</title>
<path fill="none" stroke="midnightblue" d="M295.358,-9.38021C344.56,-9.02542 427.177,-9.48533 498,-15 511.584,-16.0577 526.114,-17.7092 539.851,-19.5123"/>
<polygon fill="midnightblue" stroke="midnightblue" points="295.054,-5.88263 285.084,-9.46979 295.115,-12.8824 295.054,-5.88263"/>
</g>
</g>
</svg>
