<?xml version="1.0" encoding="UTF-8" standalone="no"?>
<!DOCTYPE svg PUBLIC "-//W3C//DTD SVG 1.1//EN"
 "http://www.w3.org/Graphics/SVG/1.1/DTD/svg11.dtd">
<!-- Generated by graphviz version 2.28.0 (20110507.0327)
 -->
<!-- Title: WaitCommand::IsFinished Pages: 1 -->
<svg width="772pt" height="28pt"
 viewBox="0.00 0.00 772.00 28.00" xmlns="http://www.w3.org/2000/svg" xmlns:xlink="http://www.w3.org/1999/xlink">
<g id="graph1" class="graph" transform="scale(1 1) rotate(0) translate(4 24)">
<title>WaitCommand::IsFinished</title>
<polygon fill="white" stroke="white" points="-4,5 -4,-24 769,-24 769,5 -4,5"/>
<!-- Node1 -->
<g id="node1" class="node"><title>Node1</title>
<polygon fill="#bfbfbf" stroke="black" points="0.5,-0.5 0.5,-19.5 131.5,-19.5 131.5,-0.5 0.5,-0.5"/>
<text text-anchor="middle" x="66" y="-7.5" font-family="Helvetica,sans-Serif" font-size="10.00">WaitCommand::IsFinished</text>
</g>
<!-- Node2 -->
<g id="node3" class="node"><title>Node2</title>
<a xlink:href="class_command.html#ad1283feb94bb07985eaafe1586ab2ff7" target="_top" xlink:title="Command::IsTimedOut">
<polygon fill="white" stroke="black" points="168,-0.5 168,-19.5 284,-19.5 284,-0.5 168,-0.5"/>
<text text-anchor="middle" x="226" y="-7.5" font-family="Helvetica,sans-Serif" font-size="10.00">Command::IsTimedOut</text>
</a>
</g>
<!-- Node1&#45;&gt;Node2 -->
<g id="edge2" class="edge"><title>Node1&#45;&gt;Node2</title>
<path fill="none" stroke="midnightblue" d="M131.721,-10C140.357,-10 149.23,-10 157.906,-10"/>
<polygon fill="midnightblue" stroke="midnightblue" points="157.975,-13.5001 167.975,-10 157.975,-6.5001 157.975,-13.5001"/>
</g>
<!-- Node3 -->
<g id="node5" class="node"><title>Node3</title>
<a xlink:href="class_command.html#a9e73c88648f4bb0f4ea6a4affa72344d" target="_top" xlink:title="Command::TimeSinceInitialized">
<polygon fill="white" stroke="black" points="320.5,-0.5 320.5,-19.5 473.5,-19.5 473.5,-0.5 320.5,-0.5"/>
<text text-anchor="middle" x="397" y="-7.5" font-family="Helvetica,sans-Serif" font-size="10.00">Command::TimeSinceInitialized</text>
</a>
</g>
<!-- Node2&#45;&gt;Node3 -->
<g id="edge4" class="edge"><title>Node2&#45;&gt;Node3</title>
<path fill="none" stroke="midnightblue" d="M284.216,-10C292.544,-10 301.268,-10 310.013,-10"/>
<polygon fill="midnightblue" stroke="midnightblue" points="310.267,-13.5001 320.267,-10 310.267,-6.5001 310.267,-13.5001"/>
</g>
<!-- Node4 -->
<g id="node7" class="node"><title>Node4</title>
<a xlink:href="class_timer.html#a7fa6e6dffec055e5104ccd6bcadec9aa" target="_top" xlink:title="Timer::GetFPGATimestamp">
<polygon fill="white" stroke="black" points="510.5,-0.5 510.5,-19.5 647.5,-19.5 647.5,-0.5 510.5,-0.5"/>
<text text-anchor="middle" x="579" y="-7.5" font-family="Helvetica,sans-Serif" font-size="10.00">Timer::GetFPGATimestamp</text>
</a>
</g>
<!-- Node3&#45;&gt;Node4 -->
<g id="edge6" class="edge"><title>Node3&#45;&gt;Node4</title>
<path fill="none" stroke="midnightblue" d="M473.554,-10C482.336,-10 491.306,-10 500.119,-10"/>
<polygon fill="midnightblue" stroke="midnightblue" points="500.371,-13.5001 510.371,-10 500.371,-6.5001 500.371,-13.5001"/>
</g>
<!-- Node5 -->
<g id="node9" class="node"><title>Node5</title>
<a xlink:href="_utility_8h.html#ababf055d95368485d48bd9a0231853f3" target="_top" xlink:title="GetFPGATime">
<polygon fill="white" stroke="black" points="684,-0.5 684,-19.5 764,-19.5 764,-0.5 684,-0.5"/>
<text text-anchor="middle" x="724" y="-7.5" font-family="Helvetica,sans-Serif" font-size="10.00">GetFPGATime</text>
</a>
</g>
<!-- Node4&#45;&gt;Node5 -->
<g id="edge8" class="edge"><title>Node4&#45;&gt;Node5</title>
<path fill="none" stroke="midnightblue" d="M647.731,-10C656.558,-10 665.463,-10 673.904,-10"/>
<polygon fill="midnightblue" stroke="midnightblue" points="673.934,-13.5001 683.933,-10 673.933,-6.5001 673.934,-13.5001"/>
</g>
</g>
</svg>
