<?xml version="1.0" encoding="UTF-8" standalone="no"?>
<!DOCTYPE svg PUBLIC "-//W3C//DTD SVG 1.1//EN"
 "http://www.w3.org/Graphics/SVG/1.1/DTD/svg11.dtd">
<!-- Generated by graphviz version 2.28.0 (20110507.0327)
 -->
<!-- Title: CommandGroup::AddSequential Pages: 1 -->
<svg width="516pt" height="121pt"
 viewBox="0.00 0.00 516.00 121.15" xmlns="http://www.w3.org/2000/svg" xmlns:xlink="http://www.w3.org/1999/xlink">
<g id="graph1" class="graph" transform="scale(1 1) rotate(0) translate(4 117.152)">
<title>CommandGroup::AddSequential</title>
<polygon fill="white" stroke="white" points="-4,5 -4,-117.152 513,-117.152 513,5 -4,5"/>
<!-- Node1 -->
<g id="node1" class="node"><title>Node1</title>
<polygon fill="#bfbfbf" stroke="black" points="0,-57.5 0,-76.5 156,-76.5 156,-57.5 0,-57.5"/>
<text text-anchor="middle" x="78" y="-64.5" font-family="Helvetica,sans-Serif" font-size="10.00">CommandGroup::AddSequential</text>
</g>
<!-- Node2 -->
<g id="node3" class="node"><title>Node2</title>
<a xlink:href="class_command.html#a51e42d83c96de891fc5f9b7b40be52bd" target="_top" xlink:title="Command::AssertUnlocked">
<polygon fill="white" stroke="black" points="372,-57.5 372,-76.5 508,-76.5 508,-57.5 372,-57.5"/>
<text text-anchor="middle" x="440" y="-64.5" font-family="Helvetica,sans-Serif" font-size="10.00">Command::AssertUnlocked</text>
</a>
</g>
<!-- Node1&#45;&gt;Node2 -->
<g id="edge2" class="edge"><title>Node1&#45;&gt;Node2</title>
<path fill="none" stroke="midnightblue" d="M100.548,-76.5919C122.898,-85.9761 159.114,-99.6186 192,-105 255.16,-115.335 272.997,-116.251 336,-105 361.961,-100.364 389.946,-89.6391 410.185,-80.7614"/>
<polygon fill="midnightblue" stroke="midnightblue" points="411.774,-83.8842 419.455,-76.5864 408.9,-77.5016 411.774,-83.8842"/>
</g>
<!-- Node3 -->
<g id="node5" class="node"><title>Node3</title>
<a xlink:href="class_command.html#a5992f2282e4132517e933cc39cb3c774" target="_top" xlink:title="Command::SetParent">
<polygon fill="white" stroke="black" points="209,-76.5 209,-95.5 319,-95.5 319,-76.5 209,-76.5"/>
<text text-anchor="middle" x="264" y="-83.5" font-family="Helvetica,sans-Serif" font-size="10.00">Command::SetParent</text>
</a>
</g>
<!-- Node1&#45;&gt;Node3 -->
<g id="edge4" class="edge"><title>Node1&#45;&gt;Node3</title>
<path fill="none" stroke="midnightblue" d="M156.233,-74.9751C170.339,-76.4318 184.922,-77.9376 198.606,-79.3506"/>
<polygon fill="midnightblue" stroke="midnightblue" points="198.566,-82.865 208.872,-80.4107 199.285,-75.902 198.566,-82.865"/>
</g>
<!-- Node4 -->
<g id="node7" class="node"><title>Node4</title>
<a xlink:href="class_command.html#afb520de2e4173f9342a94dd98d76dc0f" target="_top" xlink:title="Command::GetRequirements">
<polygon fill="white" stroke="black" points="192.5,-38.5 192.5,-57.5 335.5,-57.5 335.5,-38.5 192.5,-38.5"/>
<text text-anchor="middle" x="264" y="-45.5" font-family="Helvetica,sans-Serif" font-size="10.00">Command::GetRequirements</text>
</a>
</g>
<!-- Node1&#45;&gt;Node4 -->
<g id="edge6" class="edge"><title>Node1&#45;&gt;Node4</title>
<path fill="none" stroke="midnightblue" d="M156.233,-59.0249C164.857,-58.1344 173.658,-57.2255 182.324,-56.3307"/>
<polygon fill="midnightblue" stroke="midnightblue" points="182.827,-59.7974 192.415,-55.2887 182.108,-52.8344 182.827,-59.7974"/>
</g>
<!-- Node5 -->
<g id="node9" class="node"><title>Node5</title>
<a xlink:href="class_command.html#abd1739c4b238ca209d98552276247969" target="_top" xlink:title="Command::Requires">
<polygon fill="white" stroke="black" points="211.5,-0.5 211.5,-19.5 316.5,-19.5 316.5,-0.5 211.5,-0.5"/>
<text text-anchor="middle" x="264" y="-7.5" font-family="Helvetica,sans-Serif" font-size="10.00">Command::Requires</text>
</a>
</g>
<!-- Node1&#45;&gt;Node5 -->
<g id="edge8" class="edge"><title>Node1&#45;&gt;Node5</title>
<path fill="none" stroke="midnightblue" d="M105.789,-57.4614C128.589,-49.4706 162.276,-37.9653 192,-29 199.645,-26.6942 207.795,-24.3803 215.746,-22.2001"/>
<polygon fill="midnightblue" stroke="midnightblue" points="216.918,-25.509 225.658,-19.5208 215.091,-18.7515 216.918,-25.509"/>
</g>
<!-- Node5&#45;&gt;Node2 -->
<g id="edge10" class="edge"><title>Node5&#45;&gt;Node2</title>
<path fill="none" stroke="midnightblue" d="M303.14,-19.5158C313.83,-22.3698 325.419,-25.6403 336,-29 359.466,-36.4513 385.476,-46.0582 405.488,-53.748"/>
<polygon fill="midnightblue" stroke="midnightblue" points="404.486,-57.1136 415.076,-57.4619 407.015,-50.5861 404.486,-57.1136"/>
</g>
</g>
</svg>
