<?xml version="1.0" encoding="UTF-8" standalone="no"?>
<!DOCTYPE svg PUBLIC "-//W3C//DTD SVG 1.1//EN"
 "http://www.w3.org/Graphics/SVG/1.1/DTD/svg11.dtd">
<!-- Generated by graphviz version 2.28.0 (20110507.0327)
 -->
<!-- Title: Gyro::PIDGet Pages: 1 -->
<svg width="558pt" height="230pt"
 viewBox="0.00 0.00 558.00 230.00" xmlns="http://www.w3.org/2000/svg" xmlns:xlink="http://www.w3.org/1999/xlink">
<g id="graph1" class="graph" transform="scale(1 1) rotate(0) translate(4 226)">
<title>Gyro::PIDGet</title>
<polygon fill="white" stroke="white" points="-4,5 -4,-226 555,-226 555,5 -4,5"/>
<!-- Node1 -->
<g id="node1" class="node"><title>Node1</title>
<polygon fill="#bfbfbf" stroke="black" points="0.5,-113.5 0.5,-132.5 75.5,-132.5 75.5,-113.5 0.5,-113.5"/>
<text text-anchor="middle" x="38" y="-120.5" font-family="Helvetica,sans-Serif" font-size="10.00">Gyro::PIDGet</text>
</g>
<!-- Node2 -->
<g id="node3" class="node"><title>Node2</title>
<a xlink:href="class_gyro.html#ae5da50d9e7d6cf3ddd87744f4b797e7a" target="_top" xlink:title="Gyro::GetRate">
<polygon fill="white" stroke="black" points="114,-145.5 114,-164.5 194,-164.5 194,-145.5 114,-145.5"/>
<text text-anchor="middle" x="154" y="-152.5" font-family="Helvetica,sans-Serif" font-size="10.00">Gyro::GetRate</text>
</a>
</g>
<!-- Node1&#45;&gt;Node2 -->
<g id="edge2" class="edge"><title>Node1&#45;&gt;Node2</title>
<path fill="none" stroke="midnightblue" d="M72.8951,-132.514C84.2783,-135.71 97.1414,-139.32 109.176,-142.698"/>
<polygon fill="midnightblue" stroke="midnightblue" points="108.465,-146.134 119.039,-145.467 110.357,-139.395 108.465,-146.134"/>
</g>
<!-- Node7 -->
<g id="node15" class="node"><title>Node7</title>
<a xlink:href="class_gyro.html#a37c29b42b58b90fe1ed11f04c2635d4f" target="_top" xlink:title="Gyro::GetAngle">
<polygon fill="white" stroke="black" points="112,-82.5 112,-101.5 196,-101.5 196,-82.5 112,-82.5"/>
<text text-anchor="middle" x="154" y="-89.5" font-family="Helvetica,sans-Serif" font-size="10.00">Gyro::GetAngle</text>
</a>
</g>
<!-- Node1&#45;&gt;Node7 -->
<g id="edge16" class="edge"><title>Node1&#45;&gt;Node7</title>
<path fill="none" stroke="midnightblue" d="M74.134,-113.446C84.8611,-110.529 96.806,-107.281 108.089,-104.213"/>
<polygon fill="midnightblue" stroke="midnightblue" points="109.055,-107.577 117.786,-101.576 107.218,-100.823 109.055,-107.577"/>
</g>
<!-- Node3 -->
<g id="node5" class="node"><title>Node3</title>
<a xlink:href="class_analog_input.html#a3e090e8ccf0bf0ab683e0f12359ca6ac" target="_top" xlink:title="AnalogInput::GetAverageValue">
<polygon fill="white" stroke="black" points="236.5,-202.5 236.5,-221.5 385.5,-221.5 385.5,-202.5 236.5,-202.5"/>
<text text-anchor="middle" x="311" y="-209.5" font-family="Helvetica,sans-Serif" font-size="10.00">AnalogInput::GetAverageValue</text>
</a>
</g>
<!-- Node2&#45;&gt;Node3 -->
<g id="edge4" class="edge"><title>Node2&#45;&gt;Node3</title>
<path fill="none" stroke="midnightblue" d="M171.655,-164.555C186.942,-172.998 210.424,-185.156 232,-193 238.844,-195.488 246.144,-197.752 253.428,-199.78"/>
<polygon fill="midnightblue" stroke="midnightblue" points="252.744,-203.219 263.307,-202.397 254.537,-196.453 252.744,-203.219"/>
</g>
<!-- Node5 -->
<g id="node9" class="node"><title>Node5</title>
<a xlink:href="class_analog_input.html#af34dfab137f2fed40c98b4f0871c84cc" target="_top" xlink:title="AnalogInput::GetLSBWeight">
<polygon fill="white" stroke="black" points="241.5,-126.5 241.5,-145.5 380.5,-145.5 380.5,-126.5 241.5,-126.5"/>
<text text-anchor="middle" x="311" y="-133.5" font-family="Helvetica,sans-Serif" font-size="10.00">AnalogInput::GetLSBWeight</text>
</a>
</g>
<!-- Node2&#45;&gt;Node5 -->
<g id="edge8" class="edge"><title>Node2&#45;&gt;Node5</title>
<path fill="none" stroke="midnightblue" d="M194.113,-150.205C205.435,-148.818 218.22,-147.25 231.058,-145.677"/>
<polygon fill="midnightblue" stroke="midnightblue" points="231.838,-149.107 241.338,-144.417 230.986,-142.159 231.838,-149.107"/>
</g>
<!-- Node6 -->
<g id="node12" class="node"><title>Node6</title>
<a xlink:href="class_analog_input.html#a713786ced6451b57fbcec31cf7cb1340" target="_top" xlink:title="AnalogInput::GetOversampleBits">
<polygon fill="white" stroke="black" points="232,-164.5 232,-183.5 390,-183.5 390,-164.5 232,-164.5"/>
<text text-anchor="middle" x="311" y="-171.5" font-family="Helvetica,sans-Serif" font-size="10.00">AnalogInput::GetOversampleBits</text>
</a>
</g>
<!-- Node2&#45;&gt;Node6 -->
<g id="edge12" class="edge"><title>Node2&#45;&gt;Node6</title>
<path fill="none" stroke="midnightblue" d="M194.113,-159.795C202.766,-160.855 212.273,-162.021 222.005,-163.214"/>
<polygon fill="midnightblue" stroke="midnightblue" points="221.85,-166.721 232.202,-164.463 222.702,-159.773 221.85,-166.721"/>
</g>
<!-- Node4 -->
<g id="node7" class="node"><title>Node4</title>
<a xlink:href="class_error_base.html#a05790f219c9e436a09752f73f7344024" target="_top" xlink:title="Check if the current error code represents a fatal error. ">
<polygon fill="white" stroke="black" points="426,-145.5 426,-164.5 550,-164.5 550,-145.5 426,-145.5"/>
<text text-anchor="middle" x="488" y="-152.5" font-family="Helvetica,sans-Serif" font-size="10.00">ErrorBase::StatusIsFatal</text>
</a>
</g>
<!-- Node3&#45;&gt;Node4 -->
<g id="edge6" class="edge"><title>Node3&#45;&gt;Node4</title>
<path fill="none" stroke="midnightblue" d="M355.607,-202.473C366.893,-199.71 378.97,-196.487 390,-193 412.322,-185.944 436.869,-176.309 455.685,-168.506"/>
<polygon fill="midnightblue" stroke="midnightblue" points="457.091,-171.712 464.959,-164.616 454.384,-165.256 457.091,-171.712"/>
</g>
<!-- Node5&#45;&gt;Node4 -->
<g id="edge10" class="edge"><title>Node5&#45;&gt;Node4</title>
<path fill="none" stroke="midnightblue" d="M380.662,-143.455C392.216,-144.709 404.23,-146.013 415.845,-147.275"/>
<polygon fill="midnightblue" stroke="midnightblue" points="415.608,-150.769 425.928,-148.369 416.364,-143.81 415.608,-150.769"/>
</g>
<!-- Node6&#45;&gt;Node4 -->
<g id="edge14" class="edge"><title>Node6&#45;&gt;Node4</title>
<path fill="none" stroke="midnightblue" d="M390.032,-165.528C398.585,-164.599 407.261,-163.657 415.726,-162.738"/>
<polygon fill="midnightblue" stroke="midnightblue" points="416.362,-166.19 425.926,-161.631 415.607,-159.231 416.362,-166.19"/>
</g>
<!-- Node7&#45;&gt;Node5 -->
<g id="edge22" class="edge"><title>Node7&#45;&gt;Node5</title>
<path fill="none" stroke="midnightblue" d="M184.512,-101.587C198.802,-106.129 216.24,-111.527 232,-116 241.382,-118.663 251.444,-121.36 261.118,-123.875"/>
<polygon fill="midnightblue" stroke="midnightblue" points="260.457,-127.319 271.013,-126.42 262.201,-120.539 260.457,-127.319"/>
</g>
<!-- Node8 -->
<g id="node17" class="node"><title>Node8</title>
<a xlink:href="class_analog_input.html#ad783c1e390adc95921f2d4c73b645365" target="_top" xlink:title="AnalogInput::GetAccumulator\lOutput">
<polygon fill="white" stroke="black" points="239,-77 239,-107 383,-107 383,-77 239,-77"/>
<text text-anchor="start" x="247" y="-95" font-family="Helvetica,sans-Serif" font-size="10.00">AnalogInput::GetAccumulator</text>
<text text-anchor="middle" x="311" y="-84" font-family="Helvetica,sans-Serif" font-size="10.00">Output</text>
</a>
</g>
<!-- Node7&#45;&gt;Node8 -->
<g id="edge18" class="edge"><title>Node7&#45;&gt;Node8</title>
<path fill="none" stroke="midnightblue" d="M196.13,-92C206.155,-92 217.231,-92 228.42,-92"/>
<polygon fill="midnightblue" stroke="midnightblue" points="228.701,-95.5001 238.701,-92 228.701,-88.5001 228.701,-95.5001"/>
</g>
<!-- Node9 -->
<g id="node21" class="node"><title>Node9</title>
<a xlink:href="class_analog_input.html#a24193ed1cb0260e7626aecabcf812ef2" target="_top" xlink:title="AnalogInput::GetAverageBits">
<polygon fill="white" stroke="black" points="240.5,-38.5 240.5,-57.5 381.5,-57.5 381.5,-38.5 240.5,-38.5"/>
<text text-anchor="middle" x="311" y="-45.5" font-family="Helvetica,sans-Serif" font-size="10.00">AnalogInput::GetAverageBits</text>
</a>
</g>
<!-- Node7&#45;&gt;Node9 -->
<g id="edge24" class="edge"><title>Node7&#45;&gt;Node9</title>
<path fill="none" stroke="midnightblue" d="M182.646,-82.4685C197.243,-77.5771 215.504,-71.68 232,-67 240.476,-64.5955 249.521,-62.22 258.339,-60.0058"/>
<polygon fill="midnightblue" stroke="midnightblue" points="259.285,-63.3773 268.154,-57.5815 257.607,-56.5815 259.285,-63.3773"/>
</g>
<!-- Node10 -->
<g id="node23" class="node"><title>Node10</title>
<a xlink:href="class_analog_input.html#a3e81e6477668b15b1da6965972987596" target="_top" xlink:title="AnalogInput::GetSampleRate">
<polygon fill="white" stroke="black" points="239.5,-0.5 239.5,-19.5 382.5,-19.5 382.5,-0.5 239.5,-0.5"/>
<text text-anchor="middle" x="311" y="-7.5" font-family="Helvetica,sans-Serif" font-size="10.00">AnalogInput::GetSampleRate</text>
</a>
</g>
<!-- Node7&#45;&gt;Node10 -->
<g id="edge26" class="edge"><title>Node7&#45;&gt;Node10</title>
<path fill="none" stroke="midnightblue" d="M163.972,-82.3059C177.411,-68.38 204.174,-42.8674 232,-29 236.834,-26.591 241.991,-24.476 247.264,-22.6211"/>
<polygon fill="midnightblue" stroke="midnightblue" points="248.378,-25.9396 256.834,-19.556 246.243,-19.2732 248.378,-25.9396"/>
</g>
<!-- Node8&#45;&gt;Node4 -->
<g id="edge20" class="edge"><title>Node8&#45;&gt;Node4</title>
<path fill="none" stroke="midnightblue" d="M360.841,-107.131C370.54,-110.283 380.622,-113.664 390,-117 411.522,-124.656 435.418,-134.007 454.107,-141.517"/>
<polygon fill="midnightblue" stroke="midnightblue" points="453.052,-144.866 463.635,-145.367 455.675,-138.376 453.052,-144.866"/>
</g>
</g>
</svg>
