<?xml version="1.0" encoding="UTF-8" standalone="no"?>
<!DOCTYPE svg PUBLIC "-//W3C//DTD SVG 1.1//EN"
 "http://www.w3.org/Graphics/SVG/1.1/DTD/svg11.dtd">
<!-- Generated by graphviz version 2.28.0 (20110507.0327)
 -->
<!-- Title: AnalogInput::GetChannel Pages: 1 -->
<svg width="414pt" height="66pt"
 viewBox="0.00 0.00 414.00 66.00" xmlns="http://www.w3.org/2000/svg" xmlns:xlink="http://www.w3.org/1999/xlink">
<g id="graph1" class="graph" transform="scale(1 1) rotate(0) translate(4 62)">
<title>AnalogInput::GetChannel</title>
<polygon fill="white" stroke="white" points="-4,5 -4,-62 411,-62 411,5 -4,5"/>
<!-- Node1 -->
<g id="node1" class="node"><title>Node1</title>
<polygon fill="#bfbfbf" stroke="black" points="0.5,-19.5 0.5,-38.5 125.5,-38.5 125.5,-19.5 0.5,-19.5"/>
<text text-anchor="middle" x="63" y="-26.5" font-family="Helvetica,sans-Serif" font-size="10.00">AnalogInput::GetChannel</text>
</g>
<!-- Node2 -->
<g id="node3" class="node"><title>Node2</title>
<a xlink:href="class_analog_trigger.html#a410526608099ad546839bc0fccb6d546" target="_top" xlink:title="AnalogTrigger::AnalogTrigger">
<polygon fill="white" stroke="black" points="162.5,-38.5 162.5,-57.5 303.5,-57.5 303.5,-38.5 162.5,-38.5"/>
<text text-anchor="middle" x="233" y="-45.5" font-family="Helvetica,sans-Serif" font-size="10.00">AnalogTrigger::AnalogTrigger</text>
</a>
</g>
<!-- Node1&#45;&gt;Node2 -->
<g id="edge2" class="edge"><title>Node1&#45;&gt;Node2</title>
<path fill="none" stroke="midnightblue" d="M135.561,-37.0932C144.473,-38.1011 153.575,-39.1305 162.455,-40.1348"/>
<polygon fill="midnightblue" stroke="midnightblue" points="135.933,-33.6131 125.603,-35.967 135.146,-40.5687 135.933,-33.6131"/>
</g>
<!-- Node3 -->
<g id="node5" class="node"><title>Node3</title>
<a xlink:href="class_gyro.html#ae26b1bacc0c5a4e1f9d85836fcb90736" target="_top" xlink:title="Gyro::InitGyro">
<polygon fill="white" stroke="black" points="194.5,-0.5 194.5,-19.5 271.5,-19.5 271.5,-0.5 194.5,-0.5"/>
<text text-anchor="middle" x="233" y="-7.5" font-family="Helvetica,sans-Serif" font-size="10.00">Gyro::InitGyro</text>
</a>
</g>
<!-- Node1&#45;&gt;Node3 -->
<g id="edge4" class="edge"><title>Node1&#45;&gt;Node3</title>
<path fill="none" stroke="midnightblue" d="M135.721,-20.8887C155.891,-18.6076 177.027,-16.2172 194.34,-14.2592"/>
<polygon fill="midnightblue" stroke="midnightblue" points="135.146,-17.4313 125.603,-22.033 135.933,-24.3869 135.146,-17.4313"/>
</g>
<!-- Node4 -->
<g id="node7" class="node"><title>Node4</title>
<a xlink:href="class_gyro.html#a06521f58180be9e342d941643f9b2491" target="_top" xlink:title="Gyro::Gyro">
<polygon fill="white" stroke="black" points="340.5,-0.5 340.5,-19.5 405.5,-19.5 405.5,-0.5 340.5,-0.5"/>
<text text-anchor="middle" x="373" y="-7.5" font-family="Helvetica,sans-Serif" font-size="10.00">Gyro::Gyro</text>
</a>
</g>
<!-- Node3&#45;&gt;Node4 -->
<g id="edge6" class="edge"><title>Node3&#45;&gt;Node4</title>
<path fill="none" stroke="midnightblue" d="M281.876,-10C301.249,-10 323.081,-10 340.405,-10"/>
<polygon fill="midnightblue" stroke="midnightblue" points="281.709,-6.5001 271.709,-10 281.709,-13.5001 281.709,-6.5001"/>
</g>
</g>
</svg>
