<?xml version="1.0" encoding="UTF-8" standalone="no"?>
<!DOCTYPE svg PUBLIC "-//W3C//DTD SVG 1.1//EN"
 "http://www.w3.org/Graphics/SVG/1.1/DTD/svg11.dtd">
<!-- Generated by graphviz version 2.28.0 (20110507.0327)
 -->
<!-- Title: Resource::Free Pages: 1 -->
<svg width="292pt" height="268pt"
 viewBox="0.00 0.00 292.00 268.00" xmlns="http://www.w3.org/2000/svg" xmlns:xlink="http://www.w3.org/1999/xlink">
<g id="graph1" class="graph" transform="scale(1 1) rotate(0) translate(4 264)">
<title>Resource::Free</title>
<polygon fill="white" stroke="white" points="-4,5 -4,-264 289,-264 289,5 -4,5"/>
<!-- Node1 -->
<g id="node1" class="node"><title>Node1</title>
<polygon fill="#bfbfbf" stroke="black" points="0.5,-126.5 0.5,-145.5 83.5,-145.5 83.5,-126.5 0.5,-126.5"/>
<text text-anchor="middle" x="42" y="-133.5" font-family="Helvetica,sans-Serif" font-size="10.00">Resource::Free</text>
</g>
<!-- Node2 -->
<g id="node3" class="node"><title>Node2</title>
<a xlink:href="class_analog_input.html#a07b124974bf5959f390b46faf34b38a1" target="_top" xlink:title="AnalogInput::~AnalogInput">
<polygon fill="white" stroke="black" points="136.5,-240.5 136.5,-259.5 267.5,-259.5 267.5,-240.5 136.5,-240.5"/>
<text text-anchor="middle" x="202" y="-247.5" font-family="Helvetica,sans-Serif" font-size="10.00">AnalogInput::~AnalogInput</text>
</a>
</g>
<!-- Node1&#45;&gt;Node2 -->
<g id="edge2" class="edge"><title>Node1&#45;&gt;Node2</title>
<path fill="none" stroke="midnightblue" d="M52.8852,-154.481C65.5088,-176.239 89.4276,-211.831 120,-231 126.241,-234.913 133.21,-238.021 140.37,-240.49"/>
<polygon fill="midnightblue" stroke="midnightblue" points="55.8344,-152.584 47.8967,-145.567 49.7258,-156.002 55.8344,-152.584"/>
</g>
<!-- Node3 -->
<g id="node5" class="node"><title>Node3</title>
<a xlink:href="class_analog_output.html#a7848a6b7b7c15bba5c75f0f82f3c1d53" target="_top" xlink:title="AnalogOutput::~AnalogOutput">
<polygon fill="white" stroke="black" points="128.5,-202.5 128.5,-221.5 275.5,-221.5 275.5,-202.5 128.5,-202.5"/>
<text text-anchor="middle" x="202" y="-209.5" font-family="Helvetica,sans-Serif" font-size="10.00">AnalogOutput::~AnalogOutput</text>
</a>
</g>
<!-- Node1&#45;&gt;Node3 -->
<g id="edge4" class="edge"><title>Node1&#45;&gt;Node3</title>
<path fill="none" stroke="midnightblue" d="M60.8875,-152.579C75.6819,-165.425 97.7965,-182.714 120,-193 128.257,-196.825 137.355,-199.918 146.381,-202.408"/>
<polygon fill="midnightblue" stroke="midnightblue" points="62.8706,-149.658 53.0773,-145.615 58.2122,-154.883 62.8706,-149.658"/>
</g>
<!-- Node4 -->
<g id="node7" class="node"><title>Node4</title>
<a xlink:href="class_digital_input.html#a7fb442a9bba43bdf7303504441d1569e" target="_top" xlink:title="DigitalInput::~DigitalInput">
<polygon fill="white" stroke="black" points="139.5,-164.5 139.5,-183.5 264.5,-183.5 264.5,-164.5 139.5,-164.5"/>
<text text-anchor="middle" x="202" y="-171.5" font-family="Helvetica,sans-Serif" font-size="10.00">DigitalInput::~DigitalInput</text>
</a>
</g>
<!-- Node1&#45;&gt;Node4 -->
<g id="edge6" class="edge"><title>Node1&#45;&gt;Node4</title>
<path fill="none" stroke="midnightblue" d="M91.133,-147.967C100.693,-150.319 110.661,-152.752 120,-155 132.92,-158.109 147.015,-161.437 159.771,-164.426"/>
<polygon fill="midnightblue" stroke="midnightblue" points="91.9088,-144.554 81.3617,-145.558 90.2329,-151.35 91.9088,-144.554"/>
</g>
<!-- Node5 -->
<g id="node9" class="node"><title>Node5</title>
<a xlink:href="class_double_solenoid.html#a6bb0815514cc362a87def521fd544508" target="_top" xlink:title="DoubleSolenoid::~DoubleSolenoid">
<polygon fill="white" stroke="black" points="120,-126.5 120,-145.5 284,-145.5 284,-126.5 120,-126.5"/>
<text text-anchor="middle" x="202" y="-133.5" font-family="Helvetica,sans-Serif" font-size="10.00">DoubleSolenoid::~DoubleSolenoid</text>
</a>
</g>
<!-- Node1&#45;&gt;Node5 -->
<g id="edge8" class="edge"><title>Node1&#45;&gt;Node5</title>
<path fill="none" stroke="midnightblue" d="M93.946,-136C102.272,-136 111.075,-136 119.914,-136"/>
<polygon fill="midnightblue" stroke="midnightblue" points="93.689,-132.5 83.6889,-136 93.6889,-139.5 93.689,-132.5"/>
</g>
<!-- Node6 -->
<g id="node11" class="node"><title>Node6</title>
<a xlink:href="class_interruptable_sensor_base.html#a3a520da3879ef6fa5e383783ba10c361" target="_top" xlink:title="Free up the underlying chipobject functions. ">
<polygon fill="white" stroke="black" points="140.5,-77 140.5,-107 263.5,-107 263.5,-77 140.5,-77"/>
<text text-anchor="start" x="148.5" y="-95" font-family="Helvetica,sans-Serif" font-size="10.00">InterruptableSensorBase</text>
<text text-anchor="middle" x="202" y="-84" font-family="Helvetica,sans-Serif" font-size="10.00">::CancelInterrupts</text>
</a>
</g>
<!-- Node1&#45;&gt;Node6 -->
<g id="edge10" class="edge"><title>Node1&#45;&gt;Node6</title>
<path fill="none" stroke="midnightblue" d="M86.9534,-123.76C105.53,-118.587 127.349,-112.51 146.902,-107.065"/>
<polygon fill="midnightblue" stroke="midnightblue" points="85.9781,-120.398 77.2836,-126.453 87.8561,-127.142 85.9781,-120.398"/>
</g>
<!-- Node7 -->
<g id="node13" class="node"><title>Node7</title>
<a xlink:href="class_relay.html#a858c668bc7e353db53ed07b1a4ef1dbd" target="_top" xlink:title="Relay::~Relay">
<polygon fill="white" stroke="black" points="163,-38.5 163,-57.5 241,-57.5 241,-38.5 163,-38.5"/>
<text text-anchor="middle" x="202" y="-45.5" font-family="Helvetica,sans-Serif" font-size="10.00">Relay::~Relay</text>
</a>
</g>
<!-- Node1&#45;&gt;Node7 -->
<g id="edge12" class="edge"><title>Node1&#45;&gt;Node7</title>
<path fill="none" stroke="midnightblue" d="M58.0698,-118.586C72.457,-103.049 95.5177,-80.8312 120,-68 133.214,-61.0743 148.908,-56.484 162.946,-53.471"/>
<polygon fill="midnightblue" stroke="midnightblue" points="55.4687,-116.244 51.3753,-126.016 60.6693,-120.93 55.4687,-116.244"/>
</g>
<!-- Node8 -->
<g id="node15" class="node"><title>Node8</title>
<a xlink:href="class_solenoid.html#a34907a41f61848e199967e0319154d13" target="_top" xlink:title="Solenoid::~Solenoid">
<polygon fill="white" stroke="black" points="150,-0.5 150,-19.5 254,-19.5 254,-0.5 150,-0.5"/>
<text text-anchor="middle" x="202" y="-7.5" font-family="Helvetica,sans-Serif" font-size="10.00">Solenoid::~Solenoid</text>
</a>
</g>
<!-- Node1&#45;&gt;Node8 -->
<g id="edge14" class="edge"><title>Node1&#45;&gt;Node8</title>
<path fill="none" stroke="midnightblue" d="M51.4203,-116.957C63.1774,-92.657 86.8577,-51.1288 120,-29 128.889,-23.0647 139.408,-18.9731 149.87,-16.1554"/>
<polygon fill="midnightblue" stroke="midnightblue" points="48.1607,-115.666 47.1188,-126.21 54.5083,-118.617 48.1607,-115.666"/>
</g>
</g>
</svg>
