<?xml version="1.0" encoding="UTF-8" standalone="no"?>
<!DOCTYPE svg PUBLIC "-//W3C//DTD SVG 1.1//EN"
 "http://www.w3.org/Graphics/SVG/1.1/DTD/svg11.dtd">
<!-- Generated by graphviz version 2.28.0 (20110507.0327)
 -->
<!-- Title: Gyro::InitGyro Pages: 1 -->
<svg width="630pt" height="545pt"
 viewBox="0.00 0.00 630.00 545.00" xmlns="http://www.w3.org/2000/svg" xmlns:xlink="http://www.w3.org/1999/xlink">
<g id="graph1" class="graph" transform="scale(1 1) rotate(0) translate(4 541)">
<title>Gyro::InitGyro</title>
<polygon fill="white" stroke="white" points="-4,5 -4,-541 627,-541 627,5 -4,5"/>
<!-- Node1 -->
<g id="node1" class="node"><title>Node1</title>
<polygon fill="#bfbfbf" stroke="black" points="0.5,-261.5 0.5,-280.5 77.5,-280.5 77.5,-261.5 0.5,-261.5"/>
<text text-anchor="middle" x="39" y="-268.5" font-family="Helvetica,sans-Serif" font-size="10.00">Gyro::InitGyro</text>
</g>
<!-- Node2 -->
<g id="node3" class="node"><title>Node2</title>
<a xlink:href="class_analog_input.html#a49fa8f8599be4e8a81db751e503fd5ad" target="_top" xlink:title="AnalogInput::IsAccumulator\lChannel">
<polygon fill="white" stroke="black" points="315,-507 315,-537 451,-537 451,-507 315,-507"/>
<text text-anchor="start" x="323" y="-525" font-family="Helvetica,sans-Serif" font-size="10.00">AnalogInput::IsAccumulator</text>
<text text-anchor="middle" x="383" y="-514" font-family="Helvetica,sans-Serif" font-size="10.00">Channel</text>
</a>
</g>
<!-- Node1&#45;&gt;Node2 -->
<g id="edge2" class="edge"><title>Node1&#45;&gt;Node2</title>
<path fill="none" stroke="midnightblue" d="M40.0155,-280.669C40.6405,-314.976 47.739,-431.71 114,-486 166.755,-529.224 245.942,-534.983 304.572,-531.88"/>
<polygon fill="midnightblue" stroke="midnightblue" points="305.139,-535.351 314.9,-531.231 304.7,-528.365 305.139,-535.351"/>
</g>
<!-- Node4 -->
<g id="node7" class="node"><title>Node4</title>
<a xlink:href="class_analog_input.html#a1d5162718b2c678892eceab7be35d5a3" target="_top" xlink:title="AnalogInput::SetAverageBits">
<polygon fill="white" stroke="black" points="313,-468.5 313,-487.5 453,-487.5 453,-468.5 313,-468.5"/>
<text text-anchor="middle" x="383" y="-475.5" font-family="Helvetica,sans-Serif" font-size="10.00">AnalogInput::SetAverageBits</text>
</a>
</g>
<!-- Node1&#45;&gt;Node4 -->
<g id="edge6" class="edge"><title>Node1&#45;&gt;Node4</title>
<path fill="none" stroke="midnightblue" d="M40.59,-280.575C43.0615,-311.539 55.4006,-409.478 114,-453 174.074,-497.618 263.857,-496.198 322.675,-488.878"/>
<polygon fill="midnightblue" stroke="midnightblue" points="323.475,-492.303 332.921,-487.505 322.545,-485.365 323.475,-492.303"/>
</g>
<!-- Node5 -->
<g id="node10" class="node"><title>Node5</title>
<a xlink:href="class_analog_input.html#aa60bbfb59ab3b08186dcd9048286c0c2" target="_top" xlink:title="AnalogInput::SetOversampleBits">
<polygon fill="white" stroke="black" points="304.5,-430.5 304.5,-449.5 461.5,-449.5 461.5,-430.5 304.5,-430.5"/>
<text text-anchor="middle" x="383" y="-437.5" font-family="Helvetica,sans-Serif" font-size="10.00">AnalogInput::SetOversampleBits</text>
</a>
</g>
<!-- Node1&#45;&gt;Node5 -->
<g id="edge10" class="edge"><title>Node1&#45;&gt;Node5</title>
<path fill="none" stroke="midnightblue" d="M41.4731,-280.889C46.1807,-308.594 63.6256,-387.152 114,-421 177.003,-463.333 268.198,-459.525 326.287,-451.13"/>
<polygon fill="midnightblue" stroke="midnightblue" points="327.028,-454.557 336.379,-449.577 325.963,-447.639 327.028,-454.557"/>
</g>
<!-- Node6 -->
<g id="node13" class="node"><title>Node6</title>
<a xlink:href="class_analog_input.html#a0c796dc3aac607b1451eecb9a8f84665" target="_top" xlink:title="AnalogInput::SetSampleRate">
<polygon fill="white" stroke="black" points="120,-392.5 120,-411.5 262,-411.5 262,-392.5 120,-392.5"/>
<text text-anchor="middle" x="191" y="-399.5" font-family="Helvetica,sans-Serif" font-size="10.00">AnalogInput::SetSampleRate</text>
</a>
</g>
<!-- Node1&#45;&gt;Node6 -->
<g id="edge14" class="edge"><title>Node1&#45;&gt;Node6</title>
<path fill="none" stroke="midnightblue" d="M43.9936,-280.582C53.1805,-301.458 77.8365,-351.31 114,-378 119.893,-382.35 126.599,-385.927 133.53,-388.865"/>
<polygon fill="midnightblue" stroke="midnightblue" points="132.473,-392.207 143.064,-392.487 134.959,-385.664 132.473,-392.207"/>
</g>
<!-- Node7 -->
<g id="node15" class="node"><title>Node7</title>
<a xlink:href="class_analog_input.html#a621b2612c428e8d06f3e6bfcfa12b1a5" target="_top" xlink:title="AnalogInput::InitAccumulator">
<polygon fill="white" stroke="black" points="312.5,-392.5 312.5,-411.5 453.5,-411.5 453.5,-392.5 312.5,-392.5"/>
<text text-anchor="middle" x="383" y="-399.5" font-family="Helvetica,sans-Serif" font-size="10.00">AnalogInput::InitAccumulator</text>
</a>
</g>
<!-- Node1&#45;&gt;Node7 -->
<g id="edge16" class="edge"><title>Node1&#45;&gt;Node7</title>
<path fill="none" stroke="midnightblue" d="M46.7607,-280.552C58.5142,-296.393 84.3178,-327.944 114,-344 132.021,-353.748 246.999,-376.614 320.383,-390.547"/>
<polygon fill="midnightblue" stroke="midnightblue" points="319.971,-394.031 330.448,-392.452 321.273,-387.153 319.971,-394.031"/>
</g>
<!-- Node8 -->
<g id="node18" class="node"><title>Node8</title>
<a xlink:href="class_analog_input.html#ad783c1e390adc95921f2d4c73b645365" target="_top" xlink:title="AnalogInput::GetAccumulator\lOutput">
<polygon fill="white" stroke="black" points="119,-305 119,-335 263,-335 263,-305 119,-305"/>
<text text-anchor="start" x="127" y="-323" font-family="Helvetica,sans-Serif" font-size="10.00">AnalogInput::GetAccumulator</text>
<text text-anchor="middle" x="191" y="-312" font-family="Helvetica,sans-Serif" font-size="10.00">Output</text>
</a>
</g>
<!-- Node1&#45;&gt;Node8 -->
<g id="edge20" class="edge"><title>Node1&#45;&gt;Node8</title>
<path fill="none" stroke="midnightblue" d="M69.2776,-280.564C87.7705,-286.605 112.261,-294.605 134.348,-301.82"/>
<polygon fill="midnightblue" stroke="midnightblue" points="133.376,-305.185 143.968,-304.963 135.55,-298.531 133.376,-305.185"/>
</g>
<!-- Node9 -->
<g id="node21" class="node"><title>Node9</title>
<a xlink:href="class_analog_input.html#ae5ddd13542e7c997f39e9d21c7f2f623" target="_top" xlink:title="AnalogInput::SetAccumulator\lCenter">
<polygon fill="white" stroke="black" points="119.5,-256 119.5,-286 262.5,-286 262.5,-256 119.5,-256"/>
<text text-anchor="start" x="127.5" y="-274" font-family="Helvetica,sans-Serif" font-size="10.00">AnalogInput::SetAccumulator</text>
<text text-anchor="middle" x="191" y="-263" font-family="Helvetica,sans-Serif" font-size="10.00">Center</text>
</a>
</g>
<!-- Node1&#45;&gt;Node9 -->
<g id="edge24" class="edge"><title>Node1&#45;&gt;Node9</title>
<path fill="none" stroke="midnightblue" d="M77.8513,-271C87.5528,-271 98.3637,-271 109.337,-271"/>
<polygon fill="midnightblue" stroke="midnightblue" points="109.433,-274.5 119.433,-271 109.433,-267.5 109.433,-274.5"/>
</g>
<!-- Node10 -->
<g id="node24" class="node"><title>Node10</title>
<a xlink:href="class_analog_input.html#a0c6b4387695c1522860a2fb1e5fbee82" target="_top" xlink:title="AnalogInput::ResetAccumulator">
<polygon fill="white" stroke="black" points="114,-217.5 114,-236.5 268,-236.5 268,-217.5 114,-217.5"/>
<text text-anchor="middle" x="191" y="-224.5" font-family="Helvetica,sans-Serif" font-size="10.00">AnalogInput::ResetAccumulator</text>
</a>
</g>
<!-- Node1&#45;&gt;Node10 -->
<g id="edge28" class="edge"><title>Node1&#45;&gt;Node10</title>
<path fill="none" stroke="midnightblue" d="M66.5513,-261.45C80.5749,-256.554 98.1253,-250.658 114,-246 122.161,-243.606 130.869,-241.247 139.371,-239.051"/>
<polygon fill="midnightblue" stroke="midnightblue" points="140.379,-242.406 149.211,-236.553 138.657,-235.621 140.379,-242.406"/>
</g>
<!-- Node14 -->
<g id="node34" class="node"><title>Node14</title>
<a xlink:href="class_gyro.html#a579957af7a1f693cde4b85c48e85ef7a" target="_top" xlink:title="Gyro::SetDeadband">
<polygon fill="white" stroke="black" points="140,-171.5 140,-190.5 242,-190.5 242,-171.5 140,-171.5"/>
<text text-anchor="middle" x="191" y="-178.5" font-family="Helvetica,sans-Serif" font-size="10.00">Gyro::SetDeadband</text>
</a>
</g>
<!-- Node1&#45;&gt;Node14 -->
<g id="edge40" class="edge"><title>Node1&#45;&gt;Node14</title>
<path fill="none" stroke="midnightblue" d="M49.1781,-261.198C62.372,-247.604 87.9864,-223.009 114,-208 123.657,-202.428 134.659,-197.71 145.236,-193.854"/>
<polygon fill="midnightblue" stroke="midnightblue" points="146.47,-197.131 154.778,-190.555 144.183,-190.515 146.47,-197.131"/>
</g>
<!-- Node17 -->
<g id="node43" class="node"><title>Node17</title>
<a xlink:href="class_gyro.html#aaeaaf91d0da573f1dc90d0bffb34b7ae" target="_top" xlink:title="Gyro::SetPIDSourceParameter">
<polygon fill="white" stroke="black" points="116,-133.5 116,-152.5 266,-152.5 266,-133.5 116,-133.5"/>
<text text-anchor="middle" x="191" y="-140.5" font-family="Helvetica,sans-Serif" font-size="10.00">Gyro::SetPIDSourceParameter</text>
</a>
</g>
<!-- Node1&#45;&gt;Node17 -->
<g id="edge52" class="edge"><title>Node1&#45;&gt;Node17</title>
<path fill="none" stroke="midnightblue" d="M43.6901,-261.395C52.4262,-239.988 76.4966,-188.194 114,-162 116.875,-159.992 119.941,-158.196 123.132,-156.59"/>
<polygon fill="midnightblue" stroke="midnightblue" points="124.631,-159.754 132.395,-152.545 121.83,-153.339 124.631,-159.754"/>
</g>
<!-- Node18 -->
<g id="node45" class="node"><title>Node18</title>
<a xlink:href="class_analog_input.html#ae1a03d52531f2dc16a8c6b4a8040fa57" target="_top" xlink:title="AnalogInput::GetChannel">
<polygon fill="white" stroke="black" points="128.5,-95.5 128.5,-114.5 253.5,-114.5 253.5,-95.5 128.5,-95.5"/>
<text text-anchor="middle" x="191" y="-102.5" font-family="Helvetica,sans-Serif" font-size="10.00">AnalogInput::GetChannel</text>
</a>
</g>
<!-- Node1&#45;&gt;Node18 -->
<g id="edge54" class="edge"><title>Node1&#45;&gt;Node18</title>
<path fill="none" stroke="midnightblue" d="M41.9345,-261.349C47.7453,-234.964 67.5917,-161.124 114,-124 116.091,-122.327 118.31,-120.8 120.624,-119.404"/>
<polygon fill="midnightblue" stroke="midnightblue" points="122.635,-122.309 129.96,-114.654 119.46,-116.07 122.635,-122.309"/>
</g>
<!-- Node19 -->
<g id="node48" class="node"><title>Node19</title>
<a xlink:href="class_live_window.html#a329c07efec22a0e0644d70279688aa35" target="_top" xlink:title="LiveWindow::GetInstance">
<polygon fill="white" stroke="black" points="128,-57.5 128,-76.5 254,-76.5 254,-57.5 128,-57.5"/>
<text text-anchor="middle" x="191" y="-64.5" font-family="Helvetica,sans-Serif" font-size="10.00">LiveWindow::GetInstance</text>
</a>
</g>
<!-- Node1&#45;&gt;Node19 -->
<g id="edge58" class="edge"><title>Node1&#45;&gt;Node19</title>
<path fill="none" stroke="midnightblue" d="M40.8637,-261.196C44.1241,-230.348 58.4911,-134.453 114,-86 115.79,-84.4376 117.689,-83 119.675,-81.6774"/>
<polygon fill="midnightblue" stroke="midnightblue" points="121.813,-84.4941 128.863,-76.5848 118.419,-78.3718 121.813,-84.4941"/>
</g>
<!-- Node22 -->
<g id="node54" class="node"><title>Node22</title>
<a xlink:href="class_live_window.html#a5dc37b1651d0bced92127dd2c69a94ce" target="_top" xlink:title="LiveWindow::AddSensor">
<polygon fill="white" stroke="black" points="130,-19.5 130,-38.5 252,-38.5 252,-19.5 130,-19.5"/>
<text text-anchor="middle" x="191" y="-26.5" font-family="Helvetica,sans-Serif" font-size="10.00">LiveWindow::AddSensor</text>
</a>
</g>
<!-- Node1&#45;&gt;Node22 -->
<g id="edge64" class="edge"><title>Node1&#45;&gt;Node22</title>
<path fill="none" stroke="midnightblue" d="M40.1099,-261.241C41.0533,-226.568 49.0936,-108.187 114,-48 116.15,-46.006 118.478,-44.2131 120.937,-42.6016"/>
<polygon fill="midnightblue" stroke="midnightblue" points="122.642,-45.6581 129.741,-37.7926 119.287,-39.5149 122.642,-45.6581"/>
</g>
<!-- Node3 -->
<g id="node5" class="node"><title>Node3</title>
<a xlink:href="class_error_base.html#a05790f219c9e436a09752f73f7344024" target="_top" xlink:title="Check if the current error code represents a fatal error. ">
<polygon fill="white" stroke="black" points="498,-316.5 498,-335.5 622,-335.5 622,-316.5 498,-316.5"/>
<text text-anchor="middle" x="560" y="-323.5" font-family="Helvetica,sans-Serif" font-size="10.00">ErrorBase::StatusIsFatal</text>
</a>
</g>
<!-- Node2&#45;&gt;Node3 -->
<g id="edge4" class="edge"><title>Node2&#45;&gt;Node3</title>
<path fill="none" stroke="midnightblue" d="M446.283,-506.889C451.903,-504.123 457.255,-500.857 462,-497 512.646,-455.836 541.752,-380.76 553.239,-345.4"/>
<polygon fill="midnightblue" stroke="midnightblue" points="556.602,-346.372 556.243,-335.783 549.92,-344.285 556.602,-346.372"/>
</g>
<!-- Node4&#45;&gt;Node3 -->
<g id="edge8" class="edge"><title>Node4&#45;&gt;Node3</title>
<path fill="none" stroke="midnightblue" d="M442.986,-468.421C449.704,-465.963 456.209,-462.876 462,-459 505.554,-429.851 536.483,-374.217 550.526,-344.999"/>
<polygon fill="midnightblue" stroke="midnightblue" points="553.736,-346.396 554.782,-335.853 547.39,-343.443 553.736,-346.396"/>
</g>
<!-- Node5&#45;&gt;Node3 -->
<g id="edge12" class="edge"><title>Node5&#45;&gt;Node3</title>
<path fill="none" stroke="midnightblue" d="M439.531,-430.399C447.335,-427.939 455.055,-424.857 462,-421 497.498,-401.285 529.145,-365.086 546.049,-343.515"/>
<polygon fill="midnightblue" stroke="midnightblue" points="548.874,-345.582 552.169,-335.513 543.314,-341.33 548.874,-345.582"/>
</g>
<!-- Node7&#45;&gt;Node3 -->
<g id="edge18" class="edge"><title>Node7&#45;&gt;Node3</title>
<path fill="none" stroke="midnightblue" d="M420.24,-392.436C433.571,-388.505 448.663,-383.565 462,-378 487.611,-367.314 515.382,-352.016 534.62,-340.779"/>
<polygon fill="midnightblue" stroke="midnightblue" points="536.506,-343.73 543.331,-335.627 532.942,-337.705 536.506,-343.73"/>
</g>
<!-- Node8&#45;&gt;Node3 -->
<g id="edge22" class="edge"><title>Node8&#45;&gt;Node3</title>
<path fill="none" stroke="midnightblue" d="M263.145,-334.648C276.656,-336.877 290.719,-338.824 304,-340 373.948,-346.196 391.958,-345.029 462,-340 471.928,-339.287 482.384,-338.169 492.608,-336.868"/>
<polygon fill="midnightblue" stroke="midnightblue" points="493.279,-340.31 502.727,-335.515 492.351,-333.372 493.279,-340.31"/>
</g>
<!-- Node9&#45;&gt;Node3 -->
<g id="edge26" class="edge"><title>Node9&#45;&gt;Node3</title>
<path fill="none" stroke="midnightblue" d="M239.257,-286.07C259.072,-291.867 282.471,-298.039 304,-302 365.499,-313.314 436.379,-319.44 487.777,-322.664"/>
<polygon fill="midnightblue" stroke="midnightblue" points="487.594,-326.159 497.788,-323.27 488.018,-319.172 487.594,-326.159"/>
</g>
<!-- Node10&#45;&gt;Node3 -->
<g id="edge30" class="edge"><title>Node10&#45;&gt;Node3</title>
<path fill="none" stroke="midnightblue" d="M240.213,-236.55C249.612,-239.106 259.256,-242.233 268,-246 285.438,-253.512 286.419,-261.83 304,-269 370.426,-296.089 392.058,-286.049 462,-302 478.233,-305.702 495.929,-310.002 511.708,-313.93"/>
<polygon fill="midnightblue" stroke="midnightblue" points="511.215,-317.415 521.766,-316.449 512.915,-310.625 511.215,-317.415"/>
</g>
<!-- Node11 -->
<g id="node27" class="node"><title>Node11</title>
<a xlink:href="class_analog_input.html#a3e81e6477668b15b1da6965972987596" target="_top" xlink:title="AnalogInput::GetSampleRate">
<polygon fill="white" stroke="black" points="311.5,-240.5 311.5,-259.5 454.5,-259.5 454.5,-240.5 311.5,-240.5"/>
<text text-anchor="middle" x="383" y="-247.5" font-family="Helvetica,sans-Serif" font-size="10.00">AnalogInput::GetSampleRate</text>
</a>
</g>
<!-- Node10&#45;&gt;Node11 -->
<g id="edge32" class="edge"><title>Node10&#45;&gt;Node11</title>
<path fill="none" stroke="midnightblue" d="M268.185,-236.222C279.094,-237.543 290.346,-238.905 301.337,-240.236"/>
<polygon fill="midnightblue" stroke="midnightblue" points="300.991,-243.719 311.34,-241.446 301.833,-236.77 300.991,-243.719"/>
</g>
<!-- Node12 -->
<g id="node29" class="node"><title>Node12</title>
<a xlink:href="class_analog_input.html#a713786ced6451b57fbcec31cf7cb1340" target="_top" xlink:title="AnalogInput::GetOversampleBits">
<polygon fill="white" stroke="black" points="304,-164.5 304,-183.5 462,-183.5 462,-164.5 304,-164.5"/>
<text text-anchor="middle" x="383" y="-171.5" font-family="Helvetica,sans-Serif" font-size="10.00">AnalogInput::GetOversampleBits</text>
</a>
</g>
<!-- Node10&#45;&gt;Node12 -->
<g id="edge34" class="edge"><title>Node10&#45;&gt;Node12</title>
<path fill="none" stroke="midnightblue" d="M221.817,-217.453C244.308,-210.373 275.97,-200.662 304,-193 312.787,-190.598 322.172,-188.184 331.276,-185.921"/>
<polygon fill="midnightblue" stroke="midnightblue" points="332.127,-189.316 341.003,-183.532 330.457,-182.518 332.127,-189.316"/>
</g>
<!-- Node13 -->
<g id="node32" class="node"><title>Node13</title>
<a xlink:href="class_analog_input.html#a24193ed1cb0260e7626aecabcf812ef2" target="_top" xlink:title="AnalogInput::GetAverageBits">
<polygon fill="white" stroke="black" points="312.5,-202.5 312.5,-221.5 453.5,-221.5 453.5,-202.5 312.5,-202.5"/>
<text text-anchor="middle" x="383" y="-209.5" font-family="Helvetica,sans-Serif" font-size="10.00">AnalogInput::GetAverageBits</text>
</a>
</g>
<!-- Node10&#45;&gt;Node13 -->
<g id="edge38" class="edge"><title>Node10&#45;&gt;Node13</title>
<path fill="none" stroke="midnightblue" d="M268.185,-220.985C279.331,-220.105 290.836,-219.197 302.054,-218.312"/>
<polygon fill="midnightblue" stroke="midnightblue" points="302.563,-221.782 312.256,-217.506 302.012,-214.804 302.563,-221.782"/>
</g>
<!-- Node12&#45;&gt;Node3 -->
<g id="edge36" class="edge"><title>Node12&#45;&gt;Node3</title>
<path fill="none" stroke="midnightblue" d="M442.986,-183.579C449.704,-186.037 456.209,-189.124 462,-193 505.554,-222.149 536.483,-277.783 550.526,-307.001"/>
<polygon fill="midnightblue" stroke="midnightblue" points="547.39,-308.557 554.782,-316.147 553.736,-305.604 547.39,-308.557"/>
</g>
<!-- Node14&#45;&gt;Node12 -->
<g id="edge46" class="edge"><title>Node14&#45;&gt;Node12</title>
<path fill="none" stroke="midnightblue" d="M242.418,-179.143C258.133,-178.564 275.953,-177.907 293.478,-177.261"/>
<polygon fill="midnightblue" stroke="midnightblue" points="293.88,-180.749 303.744,-176.883 293.622,-173.754 293.88,-180.749"/>
</g>
<!-- Node15 -->
<g id="node36" class="node"><title>Node15</title>
<a xlink:href="class_analog_input.html#af34dfab137f2fed40c98b4f0871c84cc" target="_top" xlink:title="AnalogInput::GetLSBWeight">
<polygon fill="white" stroke="black" points="313.5,-126.5 313.5,-145.5 452.5,-145.5 452.5,-126.5 313.5,-126.5"/>
<text text-anchor="middle" x="383" y="-133.5" font-family="Helvetica,sans-Serif" font-size="10.00">AnalogInput::GetLSBWeight</text>
</a>
</g>
<!-- Node14&#45;&gt;Node15 -->
<g id="edge42" class="edge"><title>Node14&#45;&gt;Node15</title>
<path fill="none" stroke="midnightblue" d="M232.294,-171.457C261.389,-164.566 300.869,-155.215 331.981,-147.847"/>
<polygon fill="midnightblue" stroke="midnightblue" points="332.84,-151.24 341.764,-145.53 331.227,-144.429 332.84,-151.24"/>
</g>
<!-- Node16 -->
<g id="node40" class="node"><title>Node16</title>
<a xlink:href="class_analog_input.html#a4f0f6a1049d6f150fcaa4429cc322ac7" target="_top" xlink:title="AnalogInput::SetAccumulator\lDeadband">
<polygon fill="white" stroke="black" points="311.5,-77 311.5,-107 454.5,-107 454.5,-77 311.5,-77"/>
<text text-anchor="start" x="319.5" y="-95" font-family="Helvetica,sans-Serif" font-size="10.00">AnalogInput::SetAccumulator</text>
<text text-anchor="middle" x="383" y="-84" font-family="Helvetica,sans-Serif" font-size="10.00">Deadband</text>
</a>
</g>
<!-- Node14&#45;&gt;Node16 -->
<g id="edge48" class="edge"><title>Node14&#45;&gt;Node16</title>
<path fill="none" stroke="midnightblue" d="M242.169,-173.391C251.206,-170.677 260.216,-166.995 268,-162 289.556,-148.168 282.906,-131.528 304,-117 306.899,-115.004 309.966,-113.16 313.142,-111.457"/>
<polygon fill="midnightblue" stroke="midnightblue" points="314.845,-114.522 322.331,-107.025 311.804,-108.217 314.845,-114.522"/>
</g>
<!-- Node15&#45;&gt;Node3 -->
<g id="edge44" class="edge"><title>Node15&#45;&gt;Node3</title>
<path fill="none" stroke="midnightblue" d="M445.022,-145.58C451.088,-148.047 456.884,-151.136 462,-155 514.327,-194.521 542.746,-271.035 553.67,-306.756"/>
<polygon fill="midnightblue" stroke="midnightblue" points="550.338,-307.832 556.506,-316.447 557.056,-305.866 550.338,-307.832"/>
</g>
<!-- Node16&#45;&gt;Node3 -->
<g id="edge50" class="edge"><title>Node16&#45;&gt;Node3</title>
<path fill="none" stroke="midnightblue" d="M447.39,-107.117C452.658,-109.878 457.629,-113.142 462,-117 521.336,-169.38 546.895,-265.64 555.444,-306.661"/>
<polygon fill="midnightblue" stroke="midnightblue" points="552.011,-307.341 557.38,-316.475 558.879,-305.987 552.011,-307.341"/>
</g>
<!-- Node18&#45;&gt;Node3 -->
<g id="edge56" class="edge"><title>Node18&#45;&gt;Node3</title>
<path fill="none" stroke="midnightblue" d="M237.965,-95.4015C248.005,-92.7835 258.473,-89.6439 268,-86 284.898,-79.5371 286.439,-71.3498 304,-67 372.162,-50.1163 404.291,-26.9896 462,-67 543.086,-123.218 556.496,-256.067 558.631,-306.299"/>
<polygon fill="midnightblue" stroke="midnightblue" points="555.138,-306.573 558.952,-316.458 562.135,-306.352 555.138,-306.573"/>
</g>
<!-- Node20 -->
<g id="node50" class="node"><title>Node20</title>
<a xlink:href="class_live_window.html#ac33cec031b5990d91e5c68efb3340b68" target="_top" xlink:title="LiveWindow::LiveWindow">
<polygon fill="white" stroke="black" points="320.5,-0.5 320.5,-19.5 445.5,-19.5 445.5,-0.5 320.5,-0.5"/>
<text text-anchor="middle" x="383" y="-7.5" font-family="Helvetica,sans-Serif" font-size="10.00">LiveWindow::LiveWindow</text>
</a>
</g>
<!-- Node19&#45;&gt;Node20 -->
<g id="edge60" class="edge"><title>Node19&#45;&gt;Node20</title>
<path fill="none" stroke="midnightblue" d="M234.078,-57.4838C245.188,-54.6986 257.113,-51.4626 268,-48 284.36,-42.7967 287.785,-39.6391 304,-34 315.385,-30.0405 327.818,-26.062 339.344,-22.5145"/>
<polygon fill="midnightblue" stroke="midnightblue" points="340.643,-25.778 349.191,-19.5192 338.605,-19.081 340.643,-25.778"/>
</g>
<!-- Node21 -->
<g id="node52" class="node"><title>Node21</title>
<a xlink:href="class_scheduler.html#a5cc7ff43cb79880d28586b07ec967070" target="_top" xlink:title="Scheduler::GetInstance">
<polygon fill="white" stroke="black" points="500.5,-0.5 500.5,-19.5 619.5,-19.5 619.5,-0.5 500.5,-0.5"/>
<text text-anchor="middle" x="560" y="-7.5" font-family="Helvetica,sans-Serif" font-size="10.00">Scheduler::GetInstance</text>
</a>
</g>
<!-- Node20&#45;&gt;Node21 -->
<g id="edge62" class="edge"><title>Node20&#45;&gt;Node21</title>
<path fill="none" stroke="midnightblue" d="M445.698,-10C460.17,-10 475.676,-10 490.428,-10"/>
<polygon fill="midnightblue" stroke="midnightblue" points="490.499,-13.5001 500.498,-10 490.498,-6.5001 490.499,-13.5001"/>
</g>
</g>
</svg>
