<?xml version="1.0" encoding="UTF-8" standalone="no"?>
<!DOCTYPE svg PUBLIC "-//W3C//DTD SVG 1.1//EN"
 "http://www.w3.org/Graphics/SVG/1.1/DTD/svg11.dtd">
<!-- Generated by graphviz version 2.28.0 (20110507.0327)
 -->
<!-- Title: IterativeRobot::SetPeriod Pages: 1 -->
<svg width="634pt" height="104pt"
 viewBox="0.00 0.00 634.00 104.00" xmlns="http://www.w3.org/2000/svg" xmlns:xlink="http://www.w3.org/1999/xlink">
<g id="graph1" class="graph" transform="scale(1 1) rotate(0) translate(4 100)">
<title>IterativeRobot::SetPeriod</title>
<polygon fill="white" stroke="white" points="-4,5 -4,-100 631,-100 631,5 -4,5"/>
<!-- Node1 -->
<g id="node1" class="node"><title>Node1</title>
<polygon fill="#bfbfbf" stroke="black" points="0,-38.5 0,-57.5 124,-57.5 124,-38.5 0,-38.5"/>
<text text-anchor="middle" x="62" y="-45.5" font-family="Helvetica,sans-Serif" font-size="10.00">IterativeRobot::SetPeriod</text>
</g>
<!-- Node2 -->
<g id="node3" class="node"><title>Node2</title>
<a xlink:href="class_timer.html#ae7c0c1e7d12de4b8a6e7c64e451cdd2a" target="_top" xlink:title="Timer::Reset">
<polygon fill="white" stroke="black" points="264,-76.5 264,-95.5 336,-95.5 336,-76.5 264,-76.5"/>
<text text-anchor="middle" x="300" y="-83.5" font-family="Helvetica,sans-Serif" font-size="10.00">Timer::Reset</text>
</a>
</g>
<!-- Node1&#45;&gt;Node2 -->
<g id="edge2" class="edge"><title>Node1&#45;&gt;Node2</title>
<path fill="none" stroke="midnightblue" d="M108.791,-57.5316C124.938,-60.7433 143.241,-64.2156 160,-67 191.212,-72.1856 226.539,-77.0009 253.769,-80.4864"/>
<polygon fill="midnightblue" stroke="midnightblue" points="253.422,-83.9703 263.782,-81.7551 254.302,-77.0258 253.422,-83.9703"/>
</g>
<!-- Node5 -->
<g id="node9" class="node"><title>Node5</title>
<a xlink:href="class_timer.html#a4e607b129b392c11adddd9641a320436" target="_top" xlink:title="Timer::Start">
<polygon fill="white" stroke="black" points="160,-38.5 160,-57.5 228,-57.5 228,-38.5 160,-38.5"/>
<text text-anchor="middle" x="194" y="-45.5" font-family="Helvetica,sans-Serif" font-size="10.00">Timer::Start</text>
</a>
</g>
<!-- Node1&#45;&gt;Node5 -->
<g id="edge8" class="edge"><title>Node1&#45;&gt;Node5</title>
<path fill="none" stroke="midnightblue" d="M124.193,-48C132.806,-48 141.508,-48 149.692,-48"/>
<polygon fill="midnightblue" stroke="midnightblue" points="149.735,-51.5001 159.735,-48 149.735,-44.5001 149.735,-51.5001"/>
</g>
<!-- Node6 -->
<g id="node12" class="node"><title>Node6</title>
<a xlink:href="class_timer.html#a6379e797f968aaee6ac3bb12dc6b81c5" target="_top" xlink:title="Timer::Stop">
<polygon fill="white" stroke="black" points="160.5,-0.5 160.5,-19.5 227.5,-19.5 227.5,-0.5 160.5,-0.5"/>
<text text-anchor="middle" x="194" y="-7.5" font-family="Helvetica,sans-Serif" font-size="10.00">Timer::Stop</text>
</a>
</g>
<!-- Node1&#45;&gt;Node6 -->
<g id="edge12" class="edge"><title>Node1&#45;&gt;Node6</title>
<path fill="none" stroke="midnightblue" d="M95.8045,-38.411C112.278,-33.5956 132.443,-27.7012 150.127,-22.532"/>
<polygon fill="midnightblue" stroke="midnightblue" points="151.59,-25.7511 160.206,-19.5859 149.626,-19.0323 151.59,-25.7511"/>
</g>
<!-- Node3 -->
<g id="node5" class="node"><title>Node3</title>
<a xlink:href="class_timer.html#a7fa6e6dffec055e5104ccd6bcadec9aa" target="_top" xlink:title="Timer::GetFPGATimestamp">
<polygon fill="white" stroke="black" points="372.5,-38.5 372.5,-57.5 509.5,-57.5 509.5,-38.5 372.5,-38.5"/>
<text text-anchor="middle" x="441" y="-45.5" font-family="Helvetica,sans-Serif" font-size="10.00">Timer::GetFPGATimestamp</text>
</a>
</g>
<!-- Node2&#45;&gt;Node3 -->
<g id="edge4" class="edge"><title>Node2&#45;&gt;Node3</title>
<path fill="none" stroke="midnightblue" d="M336.076,-76.411C354.019,-71.5056 376.058,-65.4804 395.217,-60.2429"/>
<polygon fill="midnightblue" stroke="midnightblue" points="396.213,-63.5992 404.936,-57.5859 394.367,-56.8469 396.213,-63.5992"/>
</g>
<!-- Node4 -->
<g id="node7" class="node"><title>Node4</title>
<a xlink:href="_utility_8h.html#ababf055d95368485d48bd9a0231853f3" target="_top" xlink:title="GetFPGATime">
<polygon fill="white" stroke="black" points="546,-38.5 546,-57.5 626,-57.5 626,-38.5 546,-38.5"/>
<text text-anchor="middle" x="586" y="-45.5" font-family="Helvetica,sans-Serif" font-size="10.00">GetFPGATime</text>
</a>
</g>
<!-- Node3&#45;&gt;Node4 -->
<g id="edge6" class="edge"><title>Node3&#45;&gt;Node4</title>
<path fill="none" stroke="midnightblue" d="M509.731,-48C518.558,-48 527.463,-48 535.904,-48"/>
<polygon fill="midnightblue" stroke="midnightblue" points="535.934,-51.5001 545.933,-48 535.933,-44.5001 535.934,-51.5001"/>
</g>
<!-- Node5&#45;&gt;Node3 -->
<g id="edge10" class="edge"><title>Node5&#45;&gt;Node3</title>
<path fill="none" stroke="midnightblue" d="M228.042,-48C262.285,-48 317.035,-48 362.312,-48"/>
<polygon fill="midnightblue" stroke="midnightblue" points="362.409,-51.5001 372.409,-48 362.409,-44.5001 362.409,-51.5001"/>
</g>
<!-- Node7 -->
<g id="node14" class="node"><title>Node7</title>
<a xlink:href="class_timer.html#aadc180bcac64bc164f134d9c8076e1a3" target="_top" xlink:title="Timer::Get">
<polygon fill="white" stroke="black" points="269,-0.5 269,-19.5 331,-19.5 331,-0.5 269,-0.5"/>
<text text-anchor="middle" x="300" y="-7.5" font-family="Helvetica,sans-Serif" font-size="10.00">Timer::Get</text>
</a>
</g>
<!-- Node6&#45;&gt;Node7 -->
<g id="edge14" class="edge"><title>Node6&#45;&gt;Node7</title>
<path fill="none" stroke="midnightblue" d="M227.621,-10C237.539,-10 248.555,-10 258.906,-10"/>
<polygon fill="midnightblue" stroke="midnightblue" points="258.97,-13.5001 268.97,-10 258.97,-6.5001 258.97,-13.5001"/>
</g>
<!-- Node7&#45;&gt;Node3 -->
<g id="edge16" class="edge"><title>Node7&#45;&gt;Node3</title>
<path fill="none" stroke="midnightblue" d="M331.161,-18.2454C349.91,-23.371 374.354,-30.0535 395.325,-35.7868"/>
<polygon fill="midnightblue" stroke="midnightblue" points="394.423,-39.1684 404.992,-38.4294 396.269,-32.4162 394.423,-39.1684"/>
</g>
</g>
</svg>
