<?xml version="1.0" encoding="UTF-8" standalone="no"?>
<!DOCTYPE svg PUBLIC "-//W3C//DTD SVG 1.1//EN"
 "http://www.w3.org/Graphics/SVG/1.1/DTD/svg11.dtd">
<!-- Generated by graphviz version 2.28.0 (20110507.0327)
 -->
<!-- Title: Ultrasonic::InitTable Pages: 1 -->
<svg width="896pt" height="66pt"
 viewBox="0.00 0.00 896.00 66.00" xmlns="http://www.w3.org/2000/svg" xmlns:xlink="http://www.w3.org/1999/xlink">
<g id="graph1" class="graph" transform="scale(1 1) rotate(0) translate(4 62)">
<title>Ultrasonic::InitTable</title>
<polygon fill="white" stroke="white" points="-4,5 -4,-62 893,-62 893,5 -4,5"/>
<!-- Node1 -->
<g id="node1" class="node"><title>Node1</title>
<polygon fill="#bfbfbf" stroke="black" points="0,-19.5 0,-38.5 102,-38.5 102,-19.5 0,-19.5"/>
<text text-anchor="middle" x="51" y="-26.5" font-family="Helvetica,sans-Serif" font-size="10.00">Ultrasonic::InitTable</text>
</g>
<!-- Node2 -->
<g id="node3" class="node"><title>Node2</title>
<a xlink:href="class_ultrasonic.html#aa91dcad8c1595bd3c4bdd3e798afb736" target="_top" xlink:title="Ultrasonic::UpdateTable">
<polygon fill="white" stroke="black" points="138,-19.5 138,-38.5 258,-38.5 258,-19.5 138,-19.5"/>
<text text-anchor="middle" x="198" y="-26.5" font-family="Helvetica,sans-Serif" font-size="10.00">Ultrasonic::UpdateTable</text>
</a>
</g>
<!-- Node1&#45;&gt;Node2 -->
<g id="edge2" class="edge"><title>Node1&#45;&gt;Node2</title>
<path fill="none" stroke="midnightblue" d="M102.307,-29C110.538,-29 119.191,-29 127.782,-29"/>
<polygon fill="midnightblue" stroke="midnightblue" points="127.811,-32.5001 137.811,-29 127.811,-25.5001 127.811,-32.5001"/>
</g>
<!-- Node3 -->
<g id="node5" class="node"><title>Node3</title>
<a xlink:href="class_ultrasonic.html#a73c80fe92b2085107714c6a110d90d70" target="_top" xlink:title="Ultrasonic::GetRangeInches">
<polygon fill="white" stroke="black" points="294,-19.5 294,-38.5 432,-38.5 432,-19.5 294,-19.5"/>
<text text-anchor="middle" x="363" y="-26.5" font-family="Helvetica,sans-Serif" font-size="10.00">Ultrasonic::GetRangeInches</text>
</a>
</g>
<!-- Node2&#45;&gt;Node3 -->
<g id="edge4" class="edge"><title>Node2&#45;&gt;Node3</title>
<path fill="none" stroke="midnightblue" d="M258.308,-29C266.617,-29 275.259,-29 283.851,-29"/>
<polygon fill="midnightblue" stroke="midnightblue" points="283.892,-32.5001 293.892,-29 283.892,-25.5001 283.892,-32.5001"/>
</g>
<!-- Node4 -->
<g id="node7" class="node"><title>Node4</title>
<a xlink:href="class_ultrasonic.html#a765c830f4ff4c68e83de2f14d43fa54c" target="_top" xlink:title="Ultrasonic::IsRangeValid">
<polygon fill="white" stroke="black" points="468.5,-38.5 468.5,-57.5 591.5,-57.5 591.5,-38.5 468.5,-38.5"/>
<text text-anchor="middle" x="530" y="-45.5" font-family="Helvetica,sans-Serif" font-size="10.00">Ultrasonic::IsRangeValid</text>
</a>
</g>
<!-- Node3&#45;&gt;Node4 -->
<g id="edge6" class="edge"><title>Node3&#45;&gt;Node4</title>
<path fill="none" stroke="midnightblue" d="M432.064,-36.8377C440.742,-37.8369 449.639,-38.8615 458.356,-39.8653"/>
<polygon fill="midnightblue" stroke="midnightblue" points="458.148,-43.3643 468.482,-41.0313 458.948,-36.4102 458.148,-43.3643"/>
</g>
<!-- Node7 -->
<g id="node13" class="node"><title>Node7</title>
<a xlink:href="class_counter.html#a51030989a5ee306beaf40ac28ab362c0" target="_top" xlink:title="Counter::GetPeriod">
<polygon fill="white" stroke="black" points="628,-0.5 628,-19.5 728,-19.5 728,-0.5 628,-0.5"/>
<text text-anchor="middle" x="678" y="-7.5" font-family="Helvetica,sans-Serif" font-size="10.00">Counter::GetPeriod</text>
</a>
</g>
<!-- Node3&#45;&gt;Node7 -->
<g id="edge12" class="edge"><title>Node3&#45;&gt;Node7</title>
<path fill="none" stroke="midnightblue" d="M432.302,-24.8538C487.615,-21.4962 564.751,-16.8139 617.545,-13.6091"/>
<polygon fill="midnightblue" stroke="midnightblue" points="617.996,-17.0882 627.766,-12.9887 617.572,-10.1011 617.996,-17.0882"/>
</g>
<!-- Node5 -->
<g id="node9" class="node"><title>Node5</title>
<a xlink:href="class_counter.html#a72086dbd17d7baf28bacfb13562af6b6" target="_top" xlink:title="Counter::Get">
<polygon fill="white" stroke="black" points="642,-38.5 642,-57.5 714,-57.5 714,-38.5 642,-38.5"/>
<text text-anchor="middle" x="678" y="-45.5" font-family="Helvetica,sans-Serif" font-size="10.00">Counter::Get</text>
</a>
</g>
<!-- Node4&#45;&gt;Node5 -->
<g id="edge8" class="edge"><title>Node4&#45;&gt;Node5</title>
<path fill="none" stroke="midnightblue" d="M591.649,-48C604.992,-48 618.903,-48 631.526,-48"/>
<polygon fill="midnightblue" stroke="midnightblue" points="631.787,-51.5001 641.787,-48 631.787,-44.5001 631.787,-51.5001"/>
</g>
<!-- Node6 -->
<g id="node11" class="node"><title>Node6</title>
<a xlink:href="class_error_base.html#a05790f219c9e436a09752f73f7344024" target="_top" xlink:title="Check if the current error code represents a fatal error. ">
<polygon fill="white" stroke="black" points="764,-19.5 764,-38.5 888,-38.5 888,-19.5 764,-19.5"/>
<text text-anchor="middle" x="826" y="-26.5" font-family="Helvetica,sans-Serif" font-size="10.00">ErrorBase::StatusIsFatal</text>
</a>
</g>
<!-- Node5&#45;&gt;Node6 -->
<g id="edge10" class="edge"><title>Node5&#45;&gt;Node6</title>
<path fill="none" stroke="midnightblue" d="M714.343,-43.4006C726.295,-41.8452 740.101,-40.0484 753.822,-38.2629"/>
<polygon fill="midnightblue" stroke="midnightblue" points="754.306,-41.7296 763.77,-36.9682 753.402,-34.7881 754.306,-41.7296"/>
</g>
<!-- Node7&#45;&gt;Node6 -->
<g id="edge14" class="edge"><title>Node7&#45;&gt;Node6</title>
<path fill="none" stroke="midnightblue" d="M728.022,-16.3796C736.298,-17.4566 745.037,-18.5939 753.743,-19.7268"/>
<polygon fill="midnightblue" stroke="midnightblue" points="753.55,-23.2311 763.918,-21.051 754.453,-16.2897 753.55,-23.2311"/>
</g>
</g>
</svg>
