<?xml version="1.0" encoding="UTF-8" standalone="no"?>
<!DOCTYPE svg PUBLIC "-//W3C//DTD SVG 1.1//EN"
 "http://www.w3.org/Graphics/SVG/1.1/DTD/svg11.dtd">
<!-- Generated by graphviz version 2.28.0 (20110507.0327)
 -->
<!-- Title: CANJaguar::Get Pages: 1 -->
<svg width="402pt" height="28pt"
 viewBox="0.00 0.00 402.00 28.00" xmlns="http://www.w3.org/2000/svg" xmlns:xlink="http://www.w3.org/1999/xlink">
<g id="graph1" class="graph" transform="scale(1 1) rotate(0) translate(4 24)">
<title>CANJaguar::Get</title>
<polygon fill="white" stroke="white" points="-4,5 -4,-24 399,-24 399,5 -4,5"/>
<!-- Node1 -->
<g id="node1" class="node"><title>Node1</title>
<polygon fill="#bfbfbf" stroke="black" points="0.5,-0.5 0.5,-19.5 87.5,-19.5 87.5,-0.5 0.5,-0.5"/>
<text text-anchor="middle" x="44" y="-7.5" font-family="Helvetica,sans-Serif" font-size="10.00">CANJaguar::Get</text>
</g>
<!-- Node2 -->
<g id="node3" class="node"><title>Node2</title>
<a xlink:href="class_c_a_n_jaguar.html#a03d6a78ca5574f311b80e7b809061fb0" target="_top" xlink:title="CANJaguar::UpdateTable">
<polygon fill="white" stroke="black" points="124.5,-0.5 124.5,-19.5 249.5,-19.5 249.5,-0.5 124.5,-0.5"/>
<text text-anchor="middle" x="187" y="-7.5" font-family="Helvetica,sans-Serif" font-size="10.00">CANJaguar::UpdateTable</text>
</a>
</g>
<!-- Node1&#45;&gt;Node2 -->
<g id="edge2" class="edge"><title>Node1&#45;&gt;Node2</title>
<path fill="none" stroke="midnightblue" d="M97.7155,-10C106.44,-10 115.553,-10 124.472,-10"/>
<polygon fill="midnightblue" stroke="midnightblue" points="97.6873,-6.5001 87.6873,-10 97.6873,-13.5001 97.6873,-6.5001"/>
</g>
<!-- Node3 -->
<g id="node5" class="node"><title>Node3</title>
<a xlink:href="class_c_a_n_jaguar.html#a10155ec7a3c28623be69fa25a01d92de" target="_top" xlink:title="CANJaguar::InitTable">
<polygon fill="white" stroke="black" points="286.5,-0.5 286.5,-19.5 393.5,-19.5 393.5,-0.5 286.5,-0.5"/>
<text text-anchor="middle" x="340" y="-7.5" font-family="Helvetica,sans-Serif" font-size="10.00">CANJaguar::InitTable</text>
</a>
</g>
<!-- Node2&#45;&gt;Node3 -->
<g id="edge4" class="edge"><title>Node2&#45;&gt;Node3</title>
<path fill="none" stroke="midnightblue" d="M260.109,-10C268.894,-10 277.74,-10 286.171,-10"/>
<polygon fill="midnightblue" stroke="midnightblue" points="259.853,-6.5001 249.853,-10 259.853,-13.5001 259.853,-6.5001"/>
</g>
</g>
</svg>
