<?xml version="1.0" encoding="UTF-8" standalone="no"?>
<!DOCTYPE svg PUBLIC "-//W3C//DTD SVG 1.1//EN"
 "http://www.w3.org/Graphics/SVG/1.1/DTD/svg11.dtd">
<!-- Generated by graphviz version 2.28.0 (20110507.0327)
 -->
<!-- Title: Victor::Get Pages: 1 -->
<svg width="478pt" height="47pt"
 viewBox="0.00 0.00 478.00 47.00" xmlns="http://www.w3.org/2000/svg" xmlns:xlink="http://www.w3.org/1999/xlink">
<g id="graph1" class="graph" transform="scale(1 1) rotate(0) translate(4 43)">
<title>Victor::Get</title>
<polygon fill="white" stroke="white" points="-4,5 -4,-43 475,-43 475,5 -4,5"/>
<!-- Node1 -->
<g id="node1" class="node"><title>Node1</title>
<polygon fill="#bfbfbf" stroke="black" points="0,-19.5 0,-38.5 64,-38.5 64,-19.5 0,-19.5"/>
<text text-anchor="middle" x="32" y="-26.5" font-family="Helvetica,sans-Serif" font-size="10.00">Victor::Get</text>
</g>
<!-- Node2 -->
<g id="node3" class="node"><title>Node2</title>
<a xlink:href="class_p_w_m.html#a42b209cbe7e63732918cbbcb55bfaac7" target="_top" xlink:title="PWM::GetSpeed">
<polygon fill="white" stroke="black" points="100.5,-19.5 100.5,-38.5 191.5,-38.5 191.5,-19.5 100.5,-19.5"/>
<text text-anchor="middle" x="146" y="-26.5" font-family="Helvetica,sans-Serif" font-size="10.00">PWM::GetSpeed</text>
</a>
</g>
<!-- Node1&#45;&gt;Node2 -->
<g id="edge2" class="edge"><title>Node1&#45;&gt;Node2</title>
<path fill="none" stroke="midnightblue" d="M64.1982,-29C72.287,-29 81.2409,-29 90.1558,-29"/>
<polygon fill="midnightblue" stroke="midnightblue" points="90.1562,-32.5001 100.156,-29 90.1561,-25.5001 90.1562,-32.5001"/>
</g>
<!-- Node3 -->
<g id="node5" class="node"><title>Node3</title>
<a xlink:href="class_error_base.html#a05790f219c9e436a09752f73f7344024" target="_top" xlink:title="Check if the current error code represents a fatal error. ">
<polygon fill="white" stroke="black" points="346,-19.5 346,-38.5 470,-38.5 470,-19.5 346,-19.5"/>
<text text-anchor="middle" x="408" y="-26.5" font-family="Helvetica,sans-Serif" font-size="10.00">ErrorBase::StatusIsFatal</text>
</a>
</g>
<!-- Node2&#45;&gt;Node3 -->
<g id="edge4" class="edge"><title>Node2&#45;&gt;Node3</title>
<path fill="none" stroke="midnightblue" d="M191.696,-29C231.245,-29 289.655,-29 335.661,-29"/>
<polygon fill="midnightblue" stroke="midnightblue" points="335.873,-32.5001 345.873,-29 335.873,-25.5001 335.873,-32.5001"/>
</g>
<!-- Node4 -->
<g id="node7" class="node"><title>Node4</title>
<a xlink:href="class_p_w_m.html#afe21d7814cd2c51c0652fbf9f58af958" target="_top" xlink:title="PWM::GetRaw">
<polygon fill="white" stroke="black" points="228,-0.5 228,-19.5 310,-19.5 310,-0.5 228,-0.5"/>
<text text-anchor="middle" x="269" y="-7.5" font-family="Helvetica,sans-Serif" font-size="10.00">PWM::GetRaw</text>
</a>
</g>
<!-- Node2&#45;&gt;Node4 -->
<g id="edge6" class="edge"><title>Node2&#45;&gt;Node4</title>
<path fill="none" stroke="midnightblue" d="M191.712,-21.9791C200.228,-20.6418 209.193,-19.2341 217.865,-17.8724"/>
<polygon fill="midnightblue" stroke="midnightblue" points="218.53,-21.3109 227.866,-16.302 217.444,-14.3957 218.53,-21.3109"/>
</g>
<!-- Node4&#45;&gt;Node3 -->
<g id="edge8" class="edge"><title>Node4&#45;&gt;Node3</title>
<path fill="none" stroke="midnightblue" d="M310.364,-15.5979C318.362,-16.7072 326.981,-17.9025 335.66,-19.1062"/>
<polygon fill="midnightblue" stroke="midnightblue" points="335.458,-22.6115 345.844,-20.5185 336.419,-15.6779 335.458,-22.6115"/>
</g>
</g>
</svg>
