<?xml version="1.0" encoding="UTF-8" standalone="no"?>
<!DOCTYPE svg PUBLIC "-//W3C//DTD SVG 1.1//EN"
 "http://www.w3.org/Graphics/SVG/1.1/DTD/svg11.dtd">
<!-- Generated by graphviz version 2.28.0 (20110507.0327)
 -->
<!-- Title: ADXL345_I2C::ADXL345_I2C Pages: 1 -->
<svg width="630pt" height="123pt"
 viewBox="0.00 0.00 630.00 123.00" xmlns="http://www.w3.org/2000/svg" xmlns:xlink="http://www.w3.org/1999/xlink">
<g id="graph1" class="graph" transform="scale(1 1) rotate(0) translate(4 119)">
<title>ADXL345_I2C::ADXL345_I2C</title>
<polygon fill="white" stroke="white" points="-4,5 -4,-119 627,-119 627,5 -4,5"/>
<!-- Node1 -->
<g id="node1" class="node"><title>Node1</title>
<polygon fill="#bfbfbf" stroke="black" points="0.5,-57.5 0.5,-76.5 141.5,-76.5 141.5,-57.5 0.5,-57.5"/>
<text text-anchor="middle" x="71" y="-64.5" font-family="Helvetica,sans-Serif" font-size="10.00">ADXL345_I2C::ADXL345_I2C</text>
</g>
<!-- Node2 -->
<g id="node3" class="node"><title>Node2</title>
<a xlink:href="class_i2_c.html#a2986f86f60397011ec733ed087418f79" target="_top" xlink:title="I2C::Write">
<polygon fill="white" stroke="black" points="373,-95.5 373,-114.5 433,-114.5 433,-95.5 373,-95.5"/>
<text text-anchor="middle" x="403" y="-102.5" font-family="Helvetica,sans-Serif" font-size="10.00">I2C::Write</text>
</a>
</g>
<!-- Node1&#45;&gt;Node2 -->
<g id="edge2" class="edge"><title>Node1&#45;&gt;Node2</title>
<path fill="none" stroke="midnightblue" d="M92.1469,-76.5882C113.059,-85.9694 146.99,-99.6096 178,-105 241.847,-116.099 317.487,-112.748 362.513,-109.057"/>
<polygon fill="midnightblue" stroke="midnightblue" points="363.07,-112.522 372.73,-108.17 362.465,-105.548 363.07,-112.522"/>
</g>
<!-- Node3 -->
<g id="node5" class="node"><title>Node3</title>
<a xlink:href="class_a_d_x_l345___i2_c.html#a1c123bbc51aa59863643f1d513969bc4" target="_top" xlink:title="ADXL345_I2C::SetRange">
<polygon fill="white" stroke="black" points="178.5,-76.5 178.5,-95.5 303.5,-95.5 303.5,-76.5 178.5,-76.5"/>
<text text-anchor="middle" x="241" y="-83.5" font-family="Helvetica,sans-Serif" font-size="10.00">ADXL345_I2C::SetRange</text>
</a>
</g>
<!-- Node1&#45;&gt;Node3 -->
<g id="edge4" class="edge"><title>Node1&#45;&gt;Node3</title>
<path fill="none" stroke="midnightblue" d="M141.788,-74.8926C150.535,-75.882 159.495,-76.8952 168.271,-77.8878"/>
<polygon fill="midnightblue" stroke="midnightblue" points="168.137,-81.3948 178.467,-79.0409 168.923,-74.4392 168.137,-81.3948"/>
</g>
<!-- Node4 -->
<g id="node8" class="node"><title>Node4</title>
<a xlink:href="class_live_window.html#a329c07efec22a0e0644d70279688aa35" target="_top" xlink:title="LiveWindow::GetInstance">
<polygon fill="white" stroke="black" points="178,-38.5 178,-57.5 304,-57.5 304,-38.5 178,-38.5"/>
<text text-anchor="middle" x="241" y="-45.5" font-family="Helvetica,sans-Serif" font-size="10.00">LiveWindow::GetInstance</text>
</a>
</g>
<!-- Node1&#45;&gt;Node4 -->
<g id="edge8" class="edge"><title>Node1&#45;&gt;Node4</title>
<path fill="none" stroke="midnightblue" d="M141.788,-59.1074C150.406,-58.1327 159.229,-57.1348 167.881,-56.1563"/>
<polygon fill="midnightblue" stroke="midnightblue" points="168.393,-59.6208 177.936,-55.0191 167.606,-52.6652 168.393,-59.6208"/>
</g>
<!-- Node7 -->
<g id="node14" class="node"><title>Node7</title>
<a xlink:href="class_live_window.html#a5dc37b1651d0bced92127dd2c69a94ce" target="_top" xlink:title="LiveWindow::AddSensor">
<polygon fill="white" stroke="black" points="180,-0.5 180,-19.5 302,-19.5 302,-0.5 180,-0.5"/>
<text text-anchor="middle" x="241" y="-7.5" font-family="Helvetica,sans-Serif" font-size="10.00">LiveWindow::AddSensor</text>
</a>
</g>
<!-- Node1&#45;&gt;Node7 -->
<g id="edge14" class="edge"><title>Node1&#45;&gt;Node7</title>
<path fill="none" stroke="midnightblue" d="M97.5866,-57.4476C118.984,-49.5509 150.357,-38.1849 178,-29 184.46,-26.8535 191.328,-24.6609 198.05,-22.5638"/>
<polygon fill="midnightblue" stroke="midnightblue" points="199.207,-25.8697 207.73,-19.5761 197.142,-19.1811 199.207,-25.8697"/>
</g>
<!-- Node3&#45;&gt;Node2 -->
<g id="edge6" class="edge"><title>Node3&#45;&gt;Node2</title>
<path fill="none" stroke="midnightblue" d="M303.86,-93.3459C323.708,-95.7028 345.128,-98.2465 362.878,-100.354"/>
<polygon fill="midnightblue" stroke="midnightblue" points="362.521,-103.836 372.864,-101.54 363.347,-96.8852 362.521,-103.836"/>
</g>
<!-- Node5 -->
<g id="node10" class="node"><title>Node5</title>
<a xlink:href="class_live_window.html#ac33cec031b5990d91e5c68efb3340b68" target="_top" xlink:title="LiveWindow::LiveWindow">
<polygon fill="white" stroke="black" points="340.5,-38.5 340.5,-57.5 465.5,-57.5 465.5,-38.5 340.5,-38.5"/>
<text text-anchor="middle" x="403" y="-45.5" font-family="Helvetica,sans-Serif" font-size="10.00">LiveWindow::LiveWindow</text>
</a>
</g>
<!-- Node4&#45;&gt;Node5 -->
<g id="edge10" class="edge"><title>Node4&#45;&gt;Node5</title>
<path fill="none" stroke="midnightblue" d="M304.318,-48C312.832,-48 321.628,-48 330.292,-48"/>
<polygon fill="midnightblue" stroke="midnightblue" points="330.378,-51.5001 340.378,-48 330.378,-44.5001 330.378,-51.5001"/>
</g>
<!-- Node6 -->
<g id="node12" class="node"><title>Node6</title>
<a xlink:href="class_scheduler.html#a5cc7ff43cb79880d28586b07ec967070" target="_top" xlink:title="Scheduler::GetInstance">
<polygon fill="white" stroke="black" points="502.5,-38.5 502.5,-57.5 621.5,-57.5 621.5,-38.5 502.5,-38.5"/>
<text text-anchor="middle" x="562" y="-45.5" font-family="Helvetica,sans-Serif" font-size="10.00">Scheduler::GetInstance</text>
</a>
</g>
<!-- Node5&#45;&gt;Node6 -->
<g id="edge12" class="edge"><title>Node5&#45;&gt;Node6</title>
<path fill="none" stroke="midnightblue" d="M465.6,-48C474.306,-48 483.303,-48 492.135,-48"/>
<polygon fill="midnightblue" stroke="midnightblue" points="492.4,-51.5001 502.4,-48 492.4,-44.5001 492.4,-51.5001"/>
</g>
</g>
</svg>
