<?xml version="1.0" encoding="UTF-8" standalone="no"?>
<!DOCTYPE svg PUBLIC "-//W3C//DTD SVG 1.1//EN"
 "http://www.w3.org/Graphics/SVG/1.1/DTD/svg11.dtd">
<!-- Generated by graphviz version 2.28.0 (20110507.0327)
 -->
<!-- Title: AnalogTriggerOutput::AnalogTriggerOutput Pages: 1 -->
<svg width="438pt" height="38pt"
 viewBox="0.00 0.00 438.00 38.00" xmlns="http://www.w3.org/2000/svg" xmlns:xlink="http://www.w3.org/1999/xlink">
<g id="graph1" class="graph" transform="scale(1 1) rotate(0) translate(4 34)">
<title>AnalogTriggerOutput::AnalogTriggerOutput</title>
<polygon fill="white" stroke="white" points="-4,5 -4,-34 435,-34 435,5 -4,5"/>
<!-- Node1 -->
<g id="node1" class="node"><title>Node1</title>
<polygon fill="#bfbfbf" stroke="black" points="0.5,-0 0.5,-30 111.5,-30 111.5,-0 0.5,-0"/>
<text text-anchor="start" x="8.5" y="-18" font-family="Helvetica,sans-Serif" font-size="10.00">AnalogTriggerOutput</text>
<text text-anchor="middle" x="56" y="-7" font-family="Helvetica,sans-Serif" font-size="10.00">::AnalogTriggerOutput</text>
</g>
<!-- Node2 -->
<g id="node3" class="node"><title>Node2</title>
<a xlink:href="class_analog_trigger.html#a0ec310bbdd8a100b938f48f981389231" target="_top" xlink:title="AnalogTrigger::GetIndex">
<polygon fill="white" stroke="black" points="148.5,-5.5 148.5,-24.5 269.5,-24.5 269.5,-5.5 148.5,-5.5"/>
<text text-anchor="middle" x="209" y="-12.5" font-family="Helvetica,sans-Serif" font-size="10.00">AnalogTrigger::GetIndex</text>
</a>
</g>
<!-- Node1&#45;&gt;Node2 -->
<g id="edge2" class="edge"><title>Node1&#45;&gt;Node2</title>
<path fill="none" stroke="midnightblue" d="M111.514,-15C120.23,-15 129.351,-15 138.36,-15"/>
<polygon fill="midnightblue" stroke="midnightblue" points="138.456,-18.5001 148.456,-15 138.456,-11.5001 138.456,-18.5001"/>
</g>
<!-- Node3 -->
<g id="node5" class="node"><title>Node3</title>
<a xlink:href="class_error_base.html#a05790f219c9e436a09752f73f7344024" target="_top" xlink:title="Check if the current error code represents a fatal error. ">
<polygon fill="white" stroke="black" points="306,-5.5 306,-24.5 430,-24.5 430,-5.5 306,-5.5"/>
<text text-anchor="middle" x="368" y="-12.5" font-family="Helvetica,sans-Serif" font-size="10.00">ErrorBase::StatusIsFatal</text>
</a>
</g>
<!-- Node2&#45;&gt;Node3 -->
<g id="edge4" class="edge"><title>Node2&#45;&gt;Node3</title>
<path fill="none" stroke="midnightblue" d="M269.803,-15C278.274,-15 287.053,-15 295.714,-15"/>
<polygon fill="midnightblue" stroke="midnightblue" points="295.801,-18.5001 305.801,-15 295.801,-11.5001 295.801,-18.5001"/>
</g>
</g>
</svg>
