<?xml version="1.0" encoding="UTF-8" standalone="no"?>
<!DOCTYPE svg PUBLIC "-//W3C//DTD SVG 1.1//EN"
 "http://www.w3.org/Graphics/SVG/1.1/DTD/svg11.dtd">
<!-- Generated by graphviz version 2.28.0 (20110507.0327)
 -->
<!-- Title: CANTalon::Get Pages: 1 -->
<svg width="438pt" height="66pt"
 viewBox="0.00 0.00 438.00 66.00" xmlns="http://www.w3.org/2000/svg" xmlns:xlink="http://www.w3.org/1999/xlink">
<g id="graph1" class="graph" transform="scale(1 1) rotate(0) translate(4 62)">
<title>CANTalon::Get</title>
<polygon fill="white" stroke="white" points="-4,5 -4,-62 435,-62 435,5 -4,5"/>
<!-- Node1 -->
<g id="node1" class="node"><title>Node1</title>
<polygon fill="#bfbfbf" stroke="black" points="0,-19.5 0,-38.5 82,-38.5 82,-19.5 0,-19.5"/>
<text text-anchor="middle" x="41" y="-26.5" font-family="Helvetica,sans-Serif" font-size="10.00">CANTalon::Get</text>
</g>
<!-- Node2 -->
<g id="node3" class="node"><title>Node2</title>
<a xlink:href="class_c_a_n_talon.html#a1179c6e26aacdead84ba16c3894efe00" target="_top" xlink:title="CANTalon::GetOutputVoltage">
<polygon fill="white" stroke="black" points="118,-38.5 118,-57.5 262,-57.5 262,-38.5 118,-38.5"/>
<text text-anchor="middle" x="190" y="-45.5" font-family="Helvetica,sans-Serif" font-size="10.00">CANTalon::GetOutputVoltage</text>
</a>
</g>
<!-- Node1&#45;&gt;Node2 -->
<g id="edge2" class="edge"><title>Node1&#45;&gt;Node2</title>
<path fill="none" stroke="midnightblue" d="M82.1684,-34.1918C90.1976,-35.2296 98.9002,-36.3544 107.754,-37.4989"/>
<polygon fill="midnightblue" stroke="midnightblue" points="107.421,-40.9849 117.788,-38.7957 108.319,-34.0426 107.421,-40.9849"/>
</g>
<!-- Node4 -->
<g id="node7" class="node"><title>Node4</title>
<a xlink:href="class_c_a_n_talon.html#addf6b222e747a57638bb8067ed1ea9ae" target="_top" xlink:title="CANTalon::GetOutputCurrent">
<polygon fill="white" stroke="black" points="118.5,-0.5 118.5,-19.5 261.5,-19.5 261.5,-0.5 118.5,-0.5"/>
<text text-anchor="middle" x="190" y="-7.5" font-family="Helvetica,sans-Serif" font-size="10.00">CANTalon::GetOutputCurrent</text>
</a>
</g>
<!-- Node1&#45;&gt;Node4 -->
<g id="edge6" class="edge"><title>Node1&#45;&gt;Node4</title>
<path fill="none" stroke="midnightblue" d="M82.1684,-23.8082C90.3212,-22.7544 99.1681,-21.6109 108.163,-20.4483"/>
<polygon fill="midnightblue" stroke="midnightblue" points="108.884,-23.8844 118.353,-19.1313 107.986,-16.9421 108.884,-23.8844"/>
</g>
<!-- Node3 -->
<g id="node5" class="node"><title>Node3</title>
<a xlink:href="class_c_a_n_talon.html#a4aeb5e2516e6b4a1475186ebee3da321" target="_top" xlink:title="CANTalon::GetBusVoltage">
<polygon fill="white" stroke="black" points="298,-38.5 298,-57.5 430,-57.5 430,-38.5 298,-38.5"/>
<text text-anchor="middle" x="364" y="-45.5" font-family="Helvetica,sans-Serif" font-size="10.00">CANTalon::GetBusVoltage</text>
</a>
</g>
<!-- Node2&#45;&gt;Node3 -->
<g id="edge4" class="edge"><title>Node2&#45;&gt;Node3</title>
<path fill="none" stroke="midnightblue" d="M262.449,-48C270.783,-48 279.304,-48 287.688,-48"/>
<polygon fill="midnightblue" stroke="midnightblue" points="287.824,-51.5001 297.824,-48 287.824,-44.5001 287.824,-51.5001"/>
</g>
</g>
</svg>
