<?xml version="1.0" encoding="UTF-8" standalone="no"?>
<!DOCTYPE svg PUBLIC "-//W3C//DTD SVG 1.1//EN"
 "http://www.w3.org/Graphics/SVG/1.1/DTD/svg11.dtd">
<!-- Generated by graphviz version 2.28.0 (20110507.0327)
 -->
<!-- Title: SmartDashboard::PutData Pages: 1 -->
<svg width="350pt" height="66pt"
 viewBox="0.00 0.00 350.00 66.00" xmlns="http://www.w3.org/2000/svg" xmlns:xlink="http://www.w3.org/1999/xlink">
<g id="graph1" class="graph" transform="scale(1 1) rotate(0) translate(4 62)">
<title>SmartDashboard::PutData</title>
<polygon fill="white" stroke="white" points="-4,5 -4,-62 347,-62 347,5 -4,5"/>
<!-- Node1 -->
<g id="node1" class="node"><title>Node1</title>
<polygon fill="#bfbfbf" stroke="black" points="0.5,-19.5 0.5,-38.5 131.5,-38.5 131.5,-19.5 0.5,-19.5"/>
<text text-anchor="middle" x="66" y="-26.5" font-family="Helvetica,sans-Serif" font-size="10.00">SmartDashboard::PutData</text>
</g>
<!-- Node2 -->
<g id="node3" class="node"><title>Node2</title>
<a xlink:href="class_sendable.html#a51bd7fbeacbe87da45824a9cfbdcbbfe" target="_top" xlink:title="Sendable::GetSmartDashboardType">
<polygon fill="white" stroke="black" points="168.5,-38.5 168.5,-57.5 341.5,-57.5 341.5,-38.5 168.5,-38.5"/>
<text text-anchor="middle" x="255" y="-45.5" font-family="Helvetica,sans-Serif" font-size="10.00">Sendable::GetSmartDashboardType</text>
</a>
</g>
<!-- Node1&#45;&gt;Node2 -->
<g id="edge2" class="edge"><title>Node1&#45;&gt;Node2</title>
<path fill="none" stroke="midnightblue" d="M131.617,-35.5653C140.207,-36.4382 149.159,-37.3477 158.139,-38.2601"/>
<polygon fill="midnightblue" stroke="midnightblue" points="157.971,-41.7609 168.273,-39.2898 158.678,-34.7968 157.971,-41.7609"/>
</g>
<!-- Node3 -->
<g id="node5" class="node"><title>Node3</title>
<a xlink:href="class_sendable.html#a24fa428549e4d20f56f1c027c6fa7bd0" target="_top" xlink:title="Sendable::InitTable">
<polygon fill="white" stroke="black" points="205.5,-0.5 205.5,-19.5 304.5,-19.5 304.5,-0.5 205.5,-0.5"/>
<text text-anchor="middle" x="255" y="-7.5" font-family="Helvetica,sans-Serif" font-size="10.00">Sendable::InitTable</text>
</a>
</g>
<!-- Node1&#45;&gt;Node3 -->
<g id="edge4" class="edge"><title>Node1&#45;&gt;Node3</title>
<path fill="none" stroke="midnightblue" d="M131.617,-22.4347C152.298,-20.3334 175.07,-18.0196 195.305,-15.9637"/>
<polygon fill="midnightblue" stroke="midnightblue" points="195.726,-19.439 205.321,-14.946 195.019,-12.4748 195.726,-19.439"/>
</g>
</g>
</svg>
