<?xml version="1.0" encoding="UTF-8" standalone="no"?>
<!DOCTYPE svg PUBLIC "-//W3C//DTD SVG 1.1//EN"
 "http://www.w3.org/Graphics/SVG/1.1/DTD/svg11.dtd">
<!-- Generated by graphviz version 2.28.0 (20110507.0327)
 -->
<!-- Title: Compressor::InitTable Pages: 1 -->
<svg width="482pt" height="77pt"
 viewBox="0.00 0.00 482.00 77.00" xmlns="http://www.w3.org/2000/svg" xmlns:xlink="http://www.w3.org/1999/xlink">
<g id="graph1" class="graph" transform="scale(1 1) rotate(0) translate(4 73)">
<title>Compressor::InitTable</title>
<polygon fill="white" stroke="white" points="-4,5 -4,-73 479,-73 479,5 -4,5"/>
<!-- Node1 -->
<g id="node1" class="node"><title>Node1</title>
<polygon fill="#bfbfbf" stroke="black" points="0.5,-27.5 0.5,-46.5 111.5,-46.5 111.5,-27.5 0.5,-27.5"/>
<text text-anchor="middle" x="56" y="-34.5" font-family="Helvetica,sans-Serif" font-size="10.00">Compressor::InitTable</text>
</g>
<!-- Node2 -->
<g id="node3" class="node"><title>Node2</title>
<a xlink:href="class_compressor.html#acbfab8903df0d96c6fe6e513302cea1f" target="_top" xlink:title="Compressor::UpdateTable">
<polygon fill="white" stroke="black" points="148.5,-27.5 148.5,-46.5 277.5,-46.5 277.5,-27.5 148.5,-27.5"/>
<text text-anchor="middle" x="213" y="-34.5" font-family="Helvetica,sans-Serif" font-size="10.00">Compressor::UpdateTable</text>
</a>
</g>
<!-- Node1&#45;&gt;Node2 -->
<g id="edge2" class="edge"><title>Node1&#45;&gt;Node2</title>
<path fill="none" stroke="midnightblue" d="M111.647,-37C120.26,-37 129.286,-37 138.245,-37"/>
<polygon fill="midnightblue" stroke="midnightblue" points="138.306,-40.5001 148.306,-37 138.306,-33.5001 138.306,-40.5001"/>
</g>
<!-- Node3 -->
<g id="node5" class="node"><title>Node3</title>
<a xlink:href="class_compressor.html#a951cf9c276faa926510bf7b368efdef8" target="_top" xlink:title="Compressor::Enabled">
<polygon fill="white" stroke="black" points="339,-49.5 339,-68.5 449,-68.5 449,-49.5 339,-49.5"/>
<text text-anchor="middle" x="394" y="-56.5" font-family="Helvetica,sans-Serif" font-size="10.00">Compressor::Enabled</text>
</a>
</g>
<!-- Node2&#45;&gt;Node3 -->
<g id="edge4" class="edge"><title>Node2&#45;&gt;Node3</title>
<path fill="none" stroke="midnightblue" d="M277.613,-44.8183C294.173,-46.8536 312.027,-49.048 328.626,-51.0881"/>
<polygon fill="midnightblue" stroke="midnightblue" points="328.424,-54.5895 338.776,-52.3356 329.278,-47.6418 328.424,-54.5895"/>
</g>
<!-- Node4 -->
<g id="node7" class="node"><title>Node4</title>
<a xlink:href="class_compressor.html#a7ea914d2c9402f8bf732b47d2a98c210" target="_top" xlink:title="Compressor::GetPressureSwitch\lValue">
<polygon fill="white" stroke="black" points="314.5,-0 314.5,-30 473.5,-30 473.5,-0 314.5,-0"/>
<text text-anchor="start" x="322.5" y="-18" font-family="Helvetica,sans-Serif" font-size="10.00">Compressor::GetPressureSwitch</text>
<text text-anchor="middle" x="394" y="-7" font-family="Helvetica,sans-Serif" font-size="10.00">Value</text>
</a>
</g>
<!-- Node2&#45;&gt;Node4 -->
<g id="edge6" class="edge"><title>Node2&#45;&gt;Node4</title>
<path fill="none" stroke="midnightblue" d="M277.613,-29.1817C286.228,-28.1228 295.193,-27.0209 304.15,-25.9201"/>
<polygon fill="midnightblue" stroke="midnightblue" points="304.741,-29.3739 314.24,-24.68 303.887,-22.4261 304.741,-29.3739"/>
</g>
</g>
</svg>
