<?xml version="1.0" encoding="UTF-8" standalone="no"?>
<!DOCTYPE svg PUBLIC "-//W3C//DTD SVG 1.1//EN"
 "http://www.w3.org/Graphics/SVG/1.1/DTD/svg11.dtd">
<!-- Generated by graphviz version 2.28.0 (20110507.0327)
 -->
<!-- Title: Compressor Pages: 1 -->
<svg width="299pt" height="222pt"
 viewBox="0.00 0.00 299.00 222.00" xmlns="http://www.w3.org/2000/svg" xmlns:xlink="http://www.w3.org/1999/xlink">
<g id="graph1" class="graph" transform="scale(1 1) rotate(0) translate(4 218)">
<title>Compressor</title>
<polygon fill="white" stroke="white" points="-4,5 -4,-218 296,-218 296,5 -4,5"/>
<!-- Node1 -->
<g id="node1" class="node"><title>Node1</title>
<polygon fill="#bfbfbf" stroke="black" points="107.5,-0.5 107.5,-19.5 176.5,-19.5 176.5,-0.5 107.5,-0.5"/>
<text text-anchor="middle" x="142" y="-7.5" font-family="Helvetica,sans-Serif" font-size="10.00">Compressor</text>
</g>
<!-- Node2 -->
<g id="node2" class="node"><title>Node2</title>
<a xlink:href="class_sensor_base.html" target="_top" xlink:title="SensorBase">
<polygon fill="white" stroke="black" points="0,-58.5 0,-77.5 70,-77.5 70,-58.5 0,-58.5"/>
<text text-anchor="middle" x="35" y="-65.5" font-family="Helvetica,sans-Serif" font-size="10.00">SensorBase</text>
</a>
</g>
<!-- Node2&#45;&gt;Node1 -->
<g id="edge2" class="edge"><title>Node2&#45;&gt;Node1</title>
<path fill="none" stroke="midnightblue" d="M60.2104,-53.8058C80.4141,-43.2319 108.174,-28.7035 125.596,-19.5852"/>
<polygon fill="midnightblue" stroke="midnightblue" points="58.488,-50.7568 51.251,-58.4948 61.7339,-56.9588 58.488,-50.7568"/>
</g>
<!-- Node3 -->
<g id="node4" class="node"><title>Node3</title>
<a xlink:href="class_error_base.html" target="_top" xlink:title="ErrorBase">
<polygon fill="white" stroke="black" points="5,-116.5 5,-135.5 65,-135.5 65,-116.5 5,-116.5"/>
<text text-anchor="middle" x="35" y="-123.5" font-family="Helvetica,sans-Serif" font-size="10.00">ErrorBase</text>
</a>
</g>
<!-- Node3&#45;&gt;Node2 -->
<g id="edge4" class="edge"><title>Node3&#45;&gt;Node2</title>
<path fill="none" stroke="midnightblue" d="M35,-105.953C35,-96.2875 35,-85.0312 35,-77.5052"/>
<polygon fill="midnightblue" stroke="midnightblue" points="31.5001,-106.25 35,-116.25 38.5001,-106.25 31.5001,-106.25"/>
</g>
<!-- Node4 -->
<g id="node6" class="node"><title>Node4</title>
<a xlink:href="class_error.html" target="_top" xlink:title="Error">
<polygon fill="white" stroke="black" points="16,-194.5 16,-213.5 54,-213.5 54,-194.5 16,-194.5"/>
<text text-anchor="middle" x="35" y="-201.5" font-family="Helvetica,sans-Serif" font-size="10.00">Error</text>
</a>
</g>
<!-- Node4&#45;&gt;Node3 -->
<g id="edge6" class="edge"><title>Node4&#45;&gt;Node3</title>
<path fill="none" stroke="#9a32cd" stroke-dasharray="5,2" d="M35,-184.224C35,-168.697 35,-147.358 35,-135.616"/>
<polygon fill="#9a32cd" stroke="#9a32cd" points="31.5001,-184.282 35,-194.282 38.5001,-184.282 31.5001,-184.282"/>
<text text-anchor="middle" x="62.5" y="-168" font-family="Helvetica,sans-Serif" font-size="10.00"> _globalError</text>
<text text-anchor="middle" x="62.5" y="-157" font-family="Helvetica,sans-Serif" font-size="10.00">m_error</text>
</g>
<!-- Node5 -->
<g id="node8" class="node"><title>Node5</title>
<a xlink:href="class_live_window_sendable.html" target="_top" xlink:title="LiveWindowSendable">
<polygon fill="white" stroke="black" points="88,-58.5 88,-77.5 196,-77.5 196,-58.5 88,-58.5"/>
<text text-anchor="middle" x="142" y="-65.5" font-family="Helvetica,sans-Serif" font-size="10.00">LiveWindowSendable</text>
</a>
</g>
<!-- Node5&#45;&gt;Node1 -->
<g id="edge8" class="edge"><title>Node5&#45;&gt;Node1</title>
<path fill="none" stroke="midnightblue" d="M142,-47.953C142,-38.2875 142,-27.0312 142,-19.5052"/>
<polygon fill="midnightblue" stroke="midnightblue" points="138.5,-48.25 142,-58.25 145.5,-48.25 138.5,-48.25"/>
</g>
<!-- Node6 -->
<g id="node10" class="node"><title>Node6</title>
<a xlink:href="class_sendable.html" target="_top" xlink:title="Sendable">
<polygon fill="white" stroke="black" points="113.5,-116.5 113.5,-135.5 170.5,-135.5 170.5,-116.5 113.5,-116.5"/>
<text text-anchor="middle" x="142" y="-123.5" font-family="Helvetica,sans-Serif" font-size="10.00">Sendable</text>
</a>
</g>
<!-- Node6&#45;&gt;Node5 -->
<g id="edge10" class="edge"><title>Node6&#45;&gt;Node5</title>
<path fill="none" stroke="midnightblue" d="M142,-105.953C142,-96.2875 142,-85.0312 142,-77.5052"/>
<polygon fill="midnightblue" stroke="midnightblue" points="138.5,-106.25 142,-116.25 145.5,-106.25 138.5,-106.25"/>
</g>
<!-- Node7 -->
<g id="node12" class="node"><title>Node7</title>
<polygon fill="white" stroke="#bfbfbf" points="214.5,-58.5 214.5,-77.5 291.5,-77.5 291.5,-58.5 214.5,-58.5"/>
<text text-anchor="middle" x="253" y="-65.5" font-family="Helvetica,sans-Serif" font-size="10.00">ITableListener</text>
</g>
<!-- Node7&#45;&gt;Node1 -->
<g id="edge12" class="edge"><title>Node7&#45;&gt;Node1</title>
<path fill="none" stroke="midnightblue" d="M227.131,-53.9491C206.149,-43.3635 177.173,-28.7447 159.017,-19.5852"/>
<polygon fill="midnightblue" stroke="midnightblue" points="225.637,-57.1153 236.141,-58.4948 228.79,-50.8656 225.637,-57.1153"/>
</g>
</g>
</svg>
