<?xml version="1.0" encoding="UTF-8" standalone="no"?>
<!DOCTYPE svg PUBLIC "-//W3C//DTD SVG 1.1//EN"
 "http://www.w3.org/Graphics/SVG/1.1/DTD/svg11.dtd">
<!-- Generated by graphviz version 2.28.0 (20110507.0327)
 -->
<!-- Title: DriverStation::GetStickAxis Pages: 1 -->
<svg width="808pt" height="180pt"
 viewBox="0.00 0.00 808.00 180.00" xmlns="http://www.w3.org/2000/svg" xmlns:xlink="http://www.w3.org/1999/xlink">
<g id="graph1" class="graph" transform="scale(1 1) rotate(0) translate(4 176)">
<title>DriverStation::GetStickAxis</title>
<polygon fill="white" stroke="white" points="-4,5 -4,-176 805,-176 805,5 -4,5"/>
<!-- Node1 -->
<g id="node1" class="node"><title>Node1</title>
<polygon fill="#bfbfbf" stroke="black" points="0.5,-76.5 0.5,-95.5 135.5,-95.5 135.5,-76.5 0.5,-76.5"/>
<text text-anchor="middle" x="68" y="-83.5" font-family="Helvetica,sans-Serif" font-size="10.00">DriverStation::GetStickAxis</text>
</g>
<!-- Node2 -->
<g id="node3" class="node"><title>Node2</title>
<a xlink:href="class_joystick.html#a1011135df443771aa07e3afa4a839b05" target="_top" xlink:title="Joystick::GetRawAxis">
<polygon fill="white" stroke="black" points="172.5,-76.5 172.5,-95.5 285.5,-95.5 285.5,-76.5 172.5,-76.5"/>
<text text-anchor="middle" x="229" y="-83.5" font-family="Helvetica,sans-Serif" font-size="10.00">Joystick::GetRawAxis</text>
</a>
</g>
<!-- Node1&#45;&gt;Node2 -->
<g id="edge2" class="edge"><title>Node1&#45;&gt;Node2</title>
<path fill="none" stroke="midnightblue" d="M145.631,-86C154.637,-86 163.693,-86 172.334,-86"/>
<polygon fill="midnightblue" stroke="midnightblue" points="145.509,-82.5001 135.509,-86 145.509,-89.5001 145.509,-82.5001"/>
</g>
<!-- Node3 -->
<g id="node5" class="node"><title>Node3</title>
<a xlink:href="class_joystick.html#a684f7ef395e7cf4d1137e816554446c9" target="_top" xlink:title="Joystick::GetX">
<polygon fill="white" stroke="black" points="336,-114.5 336,-133.5 416,-133.5 416,-114.5 336,-114.5"/>
<text text-anchor="middle" x="376" y="-121.5" font-family="Helvetica,sans-Serif" font-size="10.00">Joystick::GetX</text>
</a>
</g>
<!-- Node2&#45;&gt;Node3 -->
<g id="edge4" class="edge"><title>Node2&#45;&gt;Node3</title>
<path fill="none" stroke="midnightblue" d="M276.493,-98.1843C296.624,-103.46 319.838,-109.544 338.673,-114.48"/>
<polygon fill="midnightblue" stroke="midnightblue" points="277.15,-94.7385 266.59,-95.589 275.376,-101.51 277.15,-94.7385"/>
</g>
<!-- Node8 -->
<g id="node15" class="node"><title>Node8</title>
<a xlink:href="class_joystick.html#a6f413b0da6c62d848113409acc9cb971" target="_top" xlink:title="Joystick::GetY">
<polygon fill="white" stroke="black" points="335.5,-152.5 335.5,-171.5 416.5,-171.5 416.5,-152.5 335.5,-152.5"/>
<text text-anchor="middle" x="376" y="-159.5" font-family="Helvetica,sans-Serif" font-size="10.00">Joystick::GetY</text>
</a>
</g>
<!-- Node2&#45;&gt;Node8 -->
<g id="edge14" class="edge"><title>Node2&#45;&gt;Node8</title>
<path fill="none" stroke="midnightblue" d="M252.184,-101.594C270.364,-113.912 297.069,-130.974 322,-143 329.219,-146.482 337.252,-149.683 344.835,-152.426"/>
<polygon fill="midnightblue" stroke="midnightblue" points="253.734,-98.4121 243.509,-95.6362 249.771,-104.182 253.734,-98.4121"/>
</g>
<!-- Node9 -->
<g id="node20" class="node"><title>Node9</title>
<a xlink:href="class_joystick.html#a4e8c04b243729f58bf360a6584eac775" target="_top" xlink:title="Joystick::GetZ">
<polygon fill="white" stroke="black" points="336,-76.5 336,-95.5 416,-95.5 416,-76.5 336,-76.5"/>
<text text-anchor="middle" x="376" y="-83.5" font-family="Helvetica,sans-Serif" font-size="10.00">Joystick::GetZ</text>
</a>
</g>
<!-- Node2&#45;&gt;Node9 -->
<g id="edge22" class="edge"><title>Node2&#45;&gt;Node9</title>
<path fill="none" stroke="midnightblue" d="M295.992,-86C309.642,-86 323.602,-86 335.916,-86"/>
<polygon fill="midnightblue" stroke="midnightblue" points="295.646,-82.5001 285.646,-86 295.646,-89.5001 295.646,-82.5001"/>
</g>
<!-- Node10 -->
<g id="node23" class="node"><title>Node10</title>
<a xlink:href="class_joystick.html#a3b29a1a8121657bd3ba4aa95db050a5f" target="_top" xlink:title="Joystick::GetTwist">
<polygon fill="white" stroke="black" points="327.5,-38.5 327.5,-57.5 424.5,-57.5 424.5,-38.5 327.5,-38.5"/>
<text text-anchor="middle" x="376" y="-45.5" font-family="Helvetica,sans-Serif" font-size="10.00">Joystick::GetTwist</text>
</a>
</g>
<!-- Node2&#45;&gt;Node10 -->
<g id="edge26" class="edge"><title>Node2&#45;&gt;Node10</title>
<path fill="none" stroke="midnightblue" d="M276.493,-73.8157C296.624,-68.54 319.838,-62.4562 338.673,-57.5201"/>
<polygon fill="midnightblue" stroke="midnightblue" points="275.376,-70.4902 266.59,-76.411 277.15,-77.2615 275.376,-70.4902"/>
</g>
<!-- Node11 -->
<g id="node26" class="node"><title>Node11</title>
<a xlink:href="class_joystick.html#a3330cc651d36c58bffea669ff0b77161" target="_top" xlink:title="Joystick::GetThrottle">
<polygon fill="white" stroke="black" points="322.5,-0.5 322.5,-19.5 429.5,-19.5 429.5,-0.5 322.5,-0.5"/>
<text text-anchor="middle" x="376" y="-7.5" font-family="Helvetica,sans-Serif" font-size="10.00">Joystick::GetThrottle</text>
</a>
</g>
<!-- Node2&#45;&gt;Node11 -->
<g id="edge30" class="edge"><title>Node2&#45;&gt;Node11</title>
<path fill="none" stroke="midnightblue" d="M252.184,-70.4061C270.364,-58.0876 297.069,-41.0264 322,-29 329.219,-25.5176 337.252,-22.3167 344.835,-19.5743"/>
<polygon fill="midnightblue" stroke="midnightblue" points="249.771,-67.8176 243.509,-76.3638 253.734,-73.5879 249.771,-67.8176"/>
</g>
<!-- Node4 -->
<g id="node7" class="node"><title>Node4</title>
<a xlink:href="class_joystick.html#a5f55e80b1399c3a04c5108488382dbc8" target="_top" xlink:title="Joystick::GetAxis">
<polygon fill="white" stroke="black" points="493,-76.5 493,-95.5 587,-95.5 587,-76.5 493,-76.5"/>
<text text-anchor="middle" x="540" y="-83.5" font-family="Helvetica,sans-Serif" font-size="10.00">Joystick::GetAxis</text>
</a>
</g>
<!-- Node3&#45;&gt;Node4 -->
<g id="edge6" class="edge"><title>Node3&#45;&gt;Node4</title>
<path fill="none" stroke="midnightblue" d="M426.18,-112.464C449.301,-107.04 476.536,-100.652 498.454,-95.5109"/>
<polygon fill="midnightblue" stroke="midnightblue" points="425.152,-109.11 416.216,-114.801 426.751,-115.925 425.152,-109.11"/>
</g>
<!-- Node5 -->
<g id="node9" class="node"><title>Node5</title>
<a xlink:href="class_joystick.html#a98ca6faf135eed78d1401f779ea862c2" target="_top" xlink:title="Joystick::GetMagnitude">
<polygon fill="white" stroke="black" points="480.5,-114.5 480.5,-133.5 599.5,-133.5 599.5,-114.5 480.5,-114.5"/>
<text text-anchor="middle" x="540" y="-121.5" font-family="Helvetica,sans-Serif" font-size="10.00">Joystick::GetMagnitude</text>
</a>
</g>
<!-- Node3&#45;&gt;Node5 -->
<g id="edge8" class="edge"><title>Node3&#45;&gt;Node5</title>
<path fill="none" stroke="midnightblue" d="M426.463,-124C443.428,-124 462.579,-124 480.21,-124"/>
<polygon fill="midnightblue" stroke="midnightblue" points="426.216,-120.5 416.216,-124 426.216,-127.5 426.216,-120.5"/>
</g>
<!-- Node6 -->
<g id="node11" class="node"><title>Node6</title>
<a xlink:href="class_joystick.html#a1ffd1a1d97440eb1a611361bdcac33fc" target="_top" xlink:title="Joystick::GetDirectionRadians">
<polygon fill="white" stroke="black" points="466,-152.5 466,-171.5 614,-171.5 614,-152.5 466,-152.5"/>
<text text-anchor="middle" x="540" y="-159.5" font-family="Helvetica,sans-Serif" font-size="10.00">Joystick::GetDirectionRadians</text>
</a>
</g>
<!-- Node3&#45;&gt;Node6 -->
<g id="edge10" class="edge"><title>Node3&#45;&gt;Node6</title>
<path fill="none" stroke="midnightblue" d="M426.18,-135.536C449.301,-140.96 476.536,-147.348 498.454,-152.489"/>
<polygon fill="midnightblue" stroke="midnightblue" points="426.751,-132.075 416.216,-133.199 425.152,-138.89 426.751,-132.075"/>
</g>
<!-- Node7 -->
<g id="node13" class="node"><title>Node7</title>
<a xlink:href="class_joystick.html#a0f49244825f4ce57aafde3830eba8e7f" target="_top" xlink:title="Joystick::GetDirectionDegrees">
<polygon fill="white" stroke="black" points="650.5,-152.5 650.5,-171.5 799.5,-171.5 799.5,-152.5 650.5,-152.5"/>
<text text-anchor="middle" x="725" y="-159.5" font-family="Helvetica,sans-Serif" font-size="10.00">Joystick::GetDirectionDegrees</text>
</a>
</g>
<!-- Node6&#45;&gt;Node7 -->
<g id="edge12" class="edge"><title>Node6&#45;&gt;Node7</title>
<path fill="none" stroke="midnightblue" d="M624.28,-162C632.994,-162 641.808,-162 650.403,-162"/>
<polygon fill="midnightblue" stroke="midnightblue" points="624.115,-158.5 614.115,-162 624.115,-165.5 624.115,-158.5"/>
</g>
<!-- Node8&#45;&gt;Node4 -->
<g id="edge16" class="edge"><title>Node8&#45;&gt;Node4</title>
<path fill="none" stroke="midnightblue" d="M420.596,-148.296C423.871,-146.691 427.046,-144.929 430,-143 449.481,-130.283 445.969,-116.832 466,-105 474.119,-100.205 483.445,-96.6038 492.657,-93.9048"/>
<polygon fill="midnightblue" stroke="midnightblue" points="418.961,-145.191 411.205,-152.408 421.769,-151.603 418.961,-145.191"/>
</g>
<!-- Node8&#45;&gt;Node5 -->
<g id="edge18" class="edge"><title>Node8&#45;&gt;Node5</title>
<path fill="none" stroke="midnightblue" d="M426.552,-150.377C449.564,-144.979 476.585,-138.64 498.371,-133.53"/>
<polygon fill="midnightblue" stroke="midnightblue" points="425.566,-147.013 416.63,-152.704 427.165,-153.828 425.566,-147.013"/>
</g>
<!-- Node8&#45;&gt;Node6 -->
<g id="edge20" class="edge"><title>Node8&#45;&gt;Node6</title>
<path fill="none" stroke="midnightblue" d="M426.738,-162C439.133,-162 452.681,-162 465.943,-162"/>
<polygon fill="midnightblue" stroke="midnightblue" points="426.63,-158.5 416.63,-162 426.63,-165.5 426.63,-158.5"/>
</g>
<!-- Node9&#45;&gt;Node4 -->
<g id="edge24" class="edge"><title>Node9&#45;&gt;Node4</title>
<path fill="none" stroke="midnightblue" d="M426.313,-86C447.509,-86 472.141,-86 492.96,-86"/>
<polygon fill="midnightblue" stroke="midnightblue" points="426.216,-82.5001 416.216,-86 426.216,-89.5001 426.216,-82.5001"/>
</g>
<!-- Node10&#45;&gt;Node4 -->
<g id="edge28" class="edge"><title>Node10&#45;&gt;Node4</title>
<path fill="none" stroke="midnightblue" d="M427.715,-59.8961C450.486,-65.2374 476.987,-71.4537 498.415,-76.4799"/>
<polygon fill="midnightblue" stroke="midnightblue" points="428.415,-56.4653 417.879,-57.589 426.816,-63.2803 428.415,-56.4653"/>
</g>
<!-- Node11&#45;&gt;Node4 -->
<g id="edge32" class="edge"><title>Node11&#45;&gt;Node4</title>
<path fill="none" stroke="midnightblue" d="M415.344,-23.0359C420.316,-24.9334 425.308,-26.9439 430,-29 463.642,-43.7428 501.282,-64.4057 522.361,-76.3784"/>
<polygon fill="midnightblue" stroke="midnightblue" points="416.482,-19.7255 405.889,-19.5442 414.057,-26.292 416.482,-19.7255"/>
</g>
</g>
</svg>
