<?xml version="1.0" encoding="UTF-8" standalone="no"?>
<!DOCTYPE svg PUBLIC "-//W3C//DTD SVG 1.1//EN"
 "http://www.w3.org/Graphics/SVG/1.1/DTD/svg11.dtd">
<!-- Generated by graphviz version 2.28.0 (20110507.0327)
 -->
<!-- Title: Command::IsFinished Pages: 1 -->
<svg width="360pt" height="28pt"
 viewBox="0.00 0.00 360.00 28.00" xmlns="http://www.w3.org/2000/svg" xmlns:xlink="http://www.w3.org/1999/xlink">
<g id="graph1" class="graph" transform="scale(1 1) rotate(0) translate(4 24)">
<title>Command::IsFinished</title>
<polygon fill="white" stroke="white" points="-4,5 -4,-24 357,-24 357,5 -4,5"/>
<!-- Node1 -->
<g id="node1" class="node"><title>Node1</title>
<polygon fill="#bfbfbf" stroke="black" points="0.5,-0.5 0.5,-19.5 111.5,-19.5 111.5,-0.5 0.5,-0.5"/>
<text text-anchor="middle" x="56" y="-7.5" font-family="Helvetica,sans-Serif" font-size="10.00">Command::IsFinished</text>
</g>
<!-- Node2 -->
<g id="node3" class="node"><title>Node2</title>
<a xlink:href="class_command.html#ae10d99a6cec39f82aa9cb3dc289a45eb" target="_top" xlink:title="Command::Run">
<polygon fill="white" stroke="black" points="148,-0.5 148,-19.5 232,-19.5 232,-0.5 148,-0.5"/>
<text text-anchor="middle" x="190" y="-7.5" font-family="Helvetica,sans-Serif" font-size="10.00">Command::Run</text>
</a>
</g>
<!-- Node1&#45;&gt;Node2 -->
<g id="edge2" class="edge"><title>Node1&#45;&gt;Node2</title>
<path fill="none" stroke="midnightblue" d="M122.077,-10C130.844,-10 139.633,-10 147.824,-10"/>
<polygon fill="midnightblue" stroke="midnightblue" points="121.833,-6.5001 111.833,-10 121.833,-13.5001 121.833,-6.5001"/>
</g>
<!-- Node3 -->
<g id="node5" class="node"><title>Node3</title>
<a xlink:href="class_scheduler.html#a6e17233143754873d7f29860047de2c1" target="_top" xlink:title="Scheduler::Run">
<polygon fill="white" stroke="black" points="268.5,-0.5 268.5,-19.5 351.5,-19.5 351.5,-0.5 268.5,-0.5"/>
<text text-anchor="middle" x="310" y="-7.5" font-family="Helvetica,sans-Serif" font-size="10.00">Scheduler::Run</text>
</a>
</g>
<!-- Node2&#45;&gt;Node3 -->
<g id="edge4" class="edge"><title>Node2&#45;&gt;Node3</title>
<path fill="none" stroke="midnightblue" d="M242.337,-10C251.04,-10 259.969,-10 268.35,-10"/>
<polygon fill="midnightblue" stroke="midnightblue" points="242.271,-6.5001 232.271,-10 242.271,-13.5001 242.271,-6.5001"/>
</g>
</g>
</svg>
