<?xml version="1.0" encoding="UTF-8" standalone="no"?>
<!DOCTYPE svg PUBLIC "-//W3C//DTD SVG 1.1//EN"
 "http://www.w3.org/Graphics/SVG/1.1/DTD/svg11.dtd">
<!-- Generated by graphviz version 2.28.0 (20110507.0327)
 -->
<!-- Title: Encoder Pages: 1 -->
<svg width="377pt" height="222pt"
 viewBox="0.00 0.00 377.00 222.00" xmlns="http://www.w3.org/2000/svg" xmlns:xlink="http://www.w3.org/1999/xlink">
<g id="graph1" class="graph" transform="scale(1 1) rotate(0) translate(4 218)">
<title>Encoder</title>
<polygon fill="white" stroke="white" points="-4,5 -4,-218 374,-218 374,5 -4,5"/>
<!-- Node1 -->
<g id="node1" class="node"><title>Node1</title>
<polygon fill="#bfbfbf" stroke="black" points="141.5,-0.5 141.5,-19.5 194.5,-19.5 194.5,-0.5 141.5,-0.5"/>
<text text-anchor="middle" x="168" y="-7.5" font-family="Helvetica,sans-Serif" font-size="10.00">Encoder</text>
</g>
<!-- Node2 -->
<g id="node2" class="node"><title>Node2</title>
<a xlink:href="class_sensor_base.html" target="_top" xlink:title="SensorBase">
<polygon fill="white" stroke="black" points="0,-58.5 0,-77.5 70,-77.5 70,-58.5 0,-58.5"/>
<text text-anchor="middle" x="35" y="-65.5" font-family="Helvetica,sans-Serif" font-size="10.00">SensorBase</text>
</a>
</g>
<!-- Node2&#45;&gt;Node1 -->
<g id="edge2" class="edge"><title>Node2&#45;&gt;Node1</title>
<path fill="none" stroke="midnightblue" d="M59.5496,-54.2342C83.2204,-43.6273 118.618,-28.8273 142.583,-19.5852"/>
<polygon fill="midnightblue" stroke="midnightblue" points="57.8416,-51.166 50.1905,-58.4948 60.7419,-57.5369 57.8416,-51.166"/>
</g>
<!-- Node2&#45;&gt;Node1 -->
<g id="edge16" class="edge"><title>Node2&#45;&gt;Node1</title>
<path fill="none" stroke="midnightblue" d="M69.6651,-54.7983C96.5486,-44.1577 132.347,-28.9923 152.637,-19.5852"/>
<polygon fill="midnightblue" stroke="midnightblue" points="68.2485,-51.5941 60.2092,-58.4948 70.7972,-58.1136 68.2485,-51.5941"/>
</g>
<!-- Node3 -->
<g id="node4" class="node"><title>Node3</title>
<a xlink:href="class_error_base.html" target="_top" xlink:title="ErrorBase">
<polygon fill="white" stroke="black" points="5,-116.5 5,-135.5 65,-135.5 65,-116.5 5,-116.5"/>
<text text-anchor="middle" x="35" y="-123.5" font-family="Helvetica,sans-Serif" font-size="10.00">ErrorBase</text>
</a>
</g>
<!-- Node3&#45;&gt;Node2 -->
<g id="edge4" class="edge"><title>Node3&#45;&gt;Node2</title>
<path fill="none" stroke="midnightblue" d="M35,-105.953C35,-96.2875 35,-85.0312 35,-77.5052"/>
<polygon fill="midnightblue" stroke="midnightblue" points="31.5001,-106.25 35,-116.25 38.5001,-106.25 31.5001,-106.25"/>
</g>
<!-- Node4 -->
<g id="node6" class="node"><title>Node4</title>
<a xlink:href="class_error.html" target="_top" xlink:title="Error">
<polygon fill="white" stroke="black" points="16,-194.5 16,-213.5 54,-213.5 54,-194.5 16,-194.5"/>
<text text-anchor="middle" x="35" y="-201.5" font-family="Helvetica,sans-Serif" font-size="10.00">Error</text>
</a>
</g>
<!-- Node4&#45;&gt;Node3 -->
<g id="edge6" class="edge"><title>Node4&#45;&gt;Node3</title>
<path fill="none" stroke="#9a32cd" stroke-dasharray="5,2" d="M35,-184.224C35,-168.697 35,-147.358 35,-135.616"/>
<polygon fill="#9a32cd" stroke="#9a32cd" points="31.5001,-184.282 35,-194.282 38.5001,-184.282 31.5001,-184.282"/>
<text text-anchor="middle" x="62.5" y="-168" font-family="Helvetica,sans-Serif" font-size="10.00"> _globalError</text>
<text text-anchor="middle" x="62.5" y="-157" font-family="Helvetica,sans-Serif" font-size="10.00">m_error</text>
</g>
<!-- Node5 -->
<g id="node8" class="node"><title>Node5</title>
<a xlink:href="class_counter_base.html" target="_top" xlink:title="CounterBase">
<polygon fill="white" stroke="black" points="88.5,-58.5 88.5,-77.5 161.5,-77.5 161.5,-58.5 88.5,-58.5"/>
<text text-anchor="middle" x="125" y="-65.5" font-family="Helvetica,sans-Serif" font-size="10.00">CounterBase</text>
</a>
</g>
<!-- Node5&#45;&gt;Node1 -->
<g id="edge8" class="edge"><title>Node5&#45;&gt;Node1</title>
<path fill="none" stroke="midnightblue" d="M132.119,-49.514C138.912,-39.522 148.622,-27.4402 156.46,-19.5052"/>
<polygon fill="midnightblue" stroke="midnightblue" points="128.99,-47.9155 126.656,-58.25 134.926,-51.6268 128.99,-47.9155"/>
</g>
<!-- Node5&#45;&gt;Node1 -->
<g id="edge18" class="edge"><title>Node5&#45;&gt;Node1</title>
<path fill="none" stroke="midnightblue" d="M143.679,-50.739C152.55,-40.5255 161.952,-27.7674 166.479,-19.5052"/>
<polygon fill="midnightblue" stroke="midnightblue" points="140.967,-48.5171 136.781,-58.25 146.123,-53.2517 140.967,-48.5171"/>
</g>
<!-- Node6 -->
<g id="node10" class="node"><title>Node6</title>
<a xlink:href="class_p_i_d_source.html" target="_top" xlink:title="PIDSource">
<polygon fill="white" stroke="black" points="179.5,-58.5 179.5,-77.5 242.5,-77.5 242.5,-58.5 179.5,-58.5"/>
<text text-anchor="middle" x="211" y="-65.5" font-family="Helvetica,sans-Serif" font-size="10.00">PIDSource</text>
</a>
</g>
<!-- Node6&#45;&gt;Node1 -->
<g id="edge10" class="edge"><title>Node6&#45;&gt;Node1</title>
<path fill="none" stroke="midnightblue" d="M192.321,-50.739C183.45,-40.5255 174.048,-27.7674 169.521,-19.5052"/>
<polygon fill="midnightblue" stroke="midnightblue" points="189.877,-53.2517 199.219,-58.25 195.033,-48.5171 189.877,-53.2517"/>
</g>
<!-- Node6&#45;&gt;Node1 -->
<g id="edge20" class="edge"><title>Node6&#45;&gt;Node1</title>
<path fill="none" stroke="midnightblue" d="M203.881,-49.514C197.088,-39.522 187.378,-27.4402 179.54,-19.5052"/>
<polygon fill="midnightblue" stroke="midnightblue" points="201.074,-51.6268 209.344,-58.25 207.01,-47.9155 201.074,-51.6268"/>
</g>
<!-- Node7 -->
<g id="node12" class="node"><title>Node7</title>
<a xlink:href="class_live_window_sendable.html" target="_top" xlink:title="LiveWindowSendable">
<polygon fill="white" stroke="black" points="261,-58.5 261,-77.5 369,-77.5 369,-58.5 261,-58.5"/>
<text text-anchor="middle" x="315" y="-65.5" font-family="Helvetica,sans-Serif" font-size="10.00">LiveWindowSendable</text>
</a>
</g>
<!-- Node7&#45;&gt;Node1 -->
<g id="edge22" class="edge"><title>Node7&#45;&gt;Node1</title>
<path fill="none" stroke="midnightblue" d="M278.06,-55.0773C248.437,-44.4242 208.35,-29.0748 185.509,-19.5852"/>
<polygon fill="midnightblue" stroke="midnightblue" points="277.07,-58.44 287.665,-58.4948 279.416,-51.845 277.07,-58.44"/>
</g>
<!-- Node7&#45;&gt;Node1 -->
<g id="edge12" class="edge"><title>Node7&#45;&gt;Node1</title>
<path fill="none" stroke="midnightblue" d="M288.192,-54.6106C261.522,-43.8404 221.106,-28.5412 194.522,-19.2198"/>
<polygon fill="midnightblue" stroke="midnightblue" points="287.103,-57.9464 297.683,-58.4948 289.754,-51.4679 287.103,-57.9464"/>
</g>
<!-- Node8 -->
<g id="node14" class="node"><title>Node8</title>
<a xlink:href="class_sendable.html" target="_top" xlink:title="Sendable">
<polygon fill="white" stroke="black" points="286.5,-116.5 286.5,-135.5 343.5,-135.5 343.5,-116.5 286.5,-116.5"/>
<text text-anchor="middle" x="315" y="-123.5" font-family="Helvetica,sans-Serif" font-size="10.00">Sendable</text>
</a>
</g>
<!-- Node8&#45;&gt;Node7 -->
<g id="edge14" class="edge"><title>Node8&#45;&gt;Node7</title>
<path fill="none" stroke="midnightblue" d="M315,-105.953C315,-96.2875 315,-85.0312 315,-77.5052"/>
<polygon fill="midnightblue" stroke="midnightblue" points="311.5,-106.25 315,-116.25 318.5,-106.25 311.5,-106.25"/>
</g>
</g>
</svg>
