<?xml version="1.0" encoding="UTF-8" standalone="no"?>
<!DOCTYPE svg PUBLIC "-//W3C//DTD SVG 1.1//EN"
 "http://www.w3.org/Graphics/SVG/1.1/DTD/svg11.dtd">
<!-- Generated by graphviz version 2.28.0 (20110507.0327)
 -->
<!-- Title: Command::AssertUnlocked Pages: 1 -->
<svg width="478pt" height="75pt"
 viewBox="0.00 0.00 478.00 75.00" xmlns="http://www.w3.org/2000/svg" xmlns:xlink="http://www.w3.org/1999/xlink">
<g id="graph1" class="graph" transform="scale(1 1) rotate(0) translate(4 71)">
<title>Command::AssertUnlocked</title>
<polygon fill="white" stroke="white" points="-4,5 -4,-71 475,-71 475,5 -4,5"/>
<!-- Node1 -->
<g id="node1" class="node"><title>Node1</title>
<polygon fill="#bfbfbf" stroke="black" points="0,-28.5 0,-47.5 136,-47.5 136,-28.5 0,-28.5"/>
<text text-anchor="middle" x="68" y="-35.5" font-family="Helvetica,sans-Serif" font-size="10.00">Command::AssertUnlocked</text>
</g>
<!-- Node2 -->
<g id="node3" class="node"><title>Node2</title>
<a xlink:href="class_command.html#abd1739c4b238ca209d98552276247969" target="_top" xlink:title="Command::Requires">
<polygon fill="white" stroke="black" points="172.5,-28.5 172.5,-47.5 277.5,-47.5 277.5,-28.5 172.5,-28.5"/>
<text text-anchor="middle" x="225" y="-35.5" font-family="Helvetica,sans-Serif" font-size="10.00">Command::Requires</text>
</a>
</g>
<!-- Node1&#45;&gt;Node2 -->
<g id="edge2" class="edge"><title>Node1&#45;&gt;Node2</title>
<path fill="none" stroke="midnightblue" d="M146.356,-38C155.13,-38 163.907,-38 172.236,-38"/>
<polygon fill="midnightblue" stroke="midnightblue" points="146.084,-34.5001 136.084,-38 146.084,-41.5001 146.084,-34.5001"/>
</g>
<!-- Node3 -->
<g id="node5" class="node"><title>Node3</title>
<a xlink:href="class_command_group.html#a37206a473a9a01ba8098d73f452de71b" target="_top" xlink:title="CommandGroup::AddSequential">
<polygon fill="white" stroke="black" points="314,-47.5 314,-66.5 470,-66.5 470,-47.5 314,-47.5"/>
<text text-anchor="middle" x="392" y="-54.5" font-family="Helvetica,sans-Serif" font-size="10.00">CommandGroup::AddSequential</text>
</a>
</g>
<!-- Node1&#45;&gt;Node3 -->
<g id="edge8" class="edge"><title>Node1&#45;&gt;Node3</title>
<path fill="none" stroke="midnightblue" d="M120.747,-49.4511C137.059,-52.5468 155.205,-55.4639 172,-57 218.95,-61.2941 271.799,-61.4283 313.816,-60.425"/>
<polygon fill="midnightblue" stroke="midnightblue" points="121.341,-46.0012 110.855,-47.5112 119.994,-52.8703 121.341,-46.0012"/>
</g>
<!-- Node4 -->
<g id="node7" class="node"><title>Node4</title>
<a xlink:href="class_command_group.html#a3c7e096849f7586389769454b3148be3" target="_top" xlink:title="CommandGroup::AddParallel">
<polygon fill="white" stroke="black" points="320.5,-0.5 320.5,-19.5 463.5,-19.5 463.5,-0.5 320.5,-0.5"/>
<text text-anchor="middle" x="392" y="-7.5" font-family="Helvetica,sans-Serif" font-size="10.00">CommandGroup::AddParallel</text>
</a>
</g>
<!-- Node1&#45;&gt;Node4 -->
<g id="edge10" class="edge"><title>Node1&#45;&gt;Node4</title>
<path fill="none" stroke="midnightblue" d="M122.993,-26.5561C138.727,-23.625 155.991,-20.7964 172,-19 221.349,-13.4624 277.295,-11.2318 320.288,-10.3757"/>
<polygon fill="midnightblue" stroke="midnightblue" points="122.068,-23.1697 112.904,-28.4873 123.384,-30.0449 122.068,-23.1697"/>
</g>
<!-- Node2&#45;&gt;Node3 -->
<g id="edge4" class="edge"><title>Node2&#45;&gt;Node3</title>
<path fill="none" stroke="midnightblue" d="M287.876,-45.1251C296.32,-46.0975 305.073,-47.1053 313.747,-48.1042"/>
<polygon fill="midnightblue" stroke="midnightblue" points="288.089,-41.6266 277.754,-43.9596 287.288,-48.5807 288.089,-41.6266"/>
</g>
<!-- Node2&#45;&gt;Node4 -->
<g id="edge6" class="edge"><title>Node2&#45;&gt;Node4</title>
<path fill="none" stroke="midnightblue" d="M287.736,-27.5237C303.19,-24.9011 319.684,-22.1021 334.851,-19.5284"/>
<polygon fill="midnightblue" stroke="midnightblue" points="287.028,-24.0936 277.754,-29.2174 288.199,-30.995 287.028,-24.0936"/>
</g>
</g>
</svg>
