<?xml version="1.0" encoding="UTF-8" standalone="no"?>
<!DOCTYPE svg PUBLIC "-//W3C//DTD SVG 1.1//EN"
 "http://www.w3.org/Graphics/SVG/1.1/DTD/svg11.dtd">
<!-- Generated by graphviz version 2.28.0 (20110507.0327)
 -->
<!-- Title: SafePWM::SetSpeed Pages: 1 -->
<svg width="614pt" height="85pt"
 viewBox="0.00 0.00 614.00 85.00" xmlns="http://www.w3.org/2000/svg" xmlns:xlink="http://www.w3.org/1999/xlink">
<g id="graph1" class="graph" transform="scale(1 1) rotate(0) translate(4 81)">
<title>SafePWM::SetSpeed</title>
<polygon fill="white" stroke="white" points="-4,5 -4,-81 611,-81 611,5 -4,5"/>
<!-- Node1 -->
<g id="node1" class="node"><title>Node1</title>
<polygon fill="#bfbfbf" stroke="black" points="0,-19.5 0,-38.5 110,-38.5 110,-19.5 0,-19.5"/>
<text text-anchor="middle" x="55" y="-26.5" font-family="Helvetica,sans-Serif" font-size="10.00">SafePWM::SetSpeed</text>
</g>
<!-- Node2 -->
<g id="node3" class="node"><title>Node2</title>
<a xlink:href="class_p_w_m.html#a947e5f6073da9e4d1b60db0c7791ca9c" target="_top" xlink:title="PWM::SetSpeed">
<polygon fill="white" stroke="black" points="164,-38.5 164,-57.5 254,-57.5 254,-38.5 164,-38.5"/>
<text text-anchor="middle" x="209" y="-45.5" font-family="Helvetica,sans-Serif" font-size="10.00">PWM::SetSpeed</text>
</a>
</g>
<!-- Node1&#45;&gt;Node2 -->
<g id="edge2" class="edge"><title>Node1&#45;&gt;Node2</title>
<path fill="none" stroke="midnightblue" d="M110.017,-35.7522C124.162,-37.5203 139.419,-39.4273 153.584,-41.198"/>
<polygon fill="midnightblue" stroke="midnightblue" points="153.318,-44.6919 163.675,-42.4593 154.186,-37.7459 153.318,-44.6919"/>
</g>
<!-- Node5 -->
<g id="node10" class="node"><title>Node5</title>
<a xlink:href="class_motor_safety_helper.html#a67b80e9817dc725e0678de5e8f0bb39e" target="_top" xlink:title="MotorSafetyHelper::Feed">
<polygon fill="white" stroke="black" points="146.5,-0.5 146.5,-19.5 271.5,-19.5 271.5,-0.5 146.5,-0.5"/>
<text text-anchor="middle" x="209" y="-7.5" font-family="Helvetica,sans-Serif" font-size="10.00">MotorSafetyHelper::Feed</text>
</a>
</g>
<!-- Node1&#45;&gt;Node5 -->
<g id="edge10" class="edge"><title>Node1&#45;&gt;Node5</title>
<path fill="none" stroke="midnightblue" d="M110.017,-22.2478C118.573,-21.1783 127.536,-20.0581 136.417,-18.9478"/>
<polygon fill="midnightblue" stroke="midnightblue" points="136.896,-22.4153 146.385,-17.7019 136.028,-15.4694 136.896,-22.4153"/>
</g>
<!-- Node3 -->
<g id="node5" class="node"><title>Node3</title>
<a xlink:href="class_error_base.html#a05790f219c9e436a09752f73f7344024" target="_top" xlink:title="Check if the current error code represents a fatal error. ">
<polygon fill="white" stroke="black" points="482,-57.5 482,-76.5 606,-76.5 606,-57.5 482,-57.5"/>
<text text-anchor="middle" x="544" y="-64.5" font-family="Helvetica,sans-Serif" font-size="10.00">ErrorBase::StatusIsFatal</text>
</a>
</g>
<!-- Node2&#45;&gt;Node3 -->
<g id="edge4" class="edge"><title>Node2&#45;&gt;Node3</title>
<path fill="none" stroke="midnightblue" d="M249.799,-57.5105C267.506,-61.2756 288.679,-65.1443 308,-67 362.862,-72.2692 425.26,-71.9774 471.965,-70.5263"/>
<polygon fill="midnightblue" stroke="midnightblue" points="472.107,-74.0236 481.983,-70.1899 471.872,-67.0276 472.107,-74.0236"/>
</g>
<!-- Node4 -->
<g id="node7" class="node"><title>Node4</title>
<a xlink:href="class_p_w_m.html#a0c546e1aa7d5d091447a819e50fae9ca" target="_top" xlink:title="PWM::SetRaw">
<polygon fill="white" stroke="black" points="336.5,-38.5 336.5,-57.5 417.5,-57.5 417.5,-38.5 336.5,-38.5"/>
<text text-anchor="middle" x="377" y="-45.5" font-family="Helvetica,sans-Serif" font-size="10.00">PWM::SetRaw</text>
</a>
</g>
<!-- Node2&#45;&gt;Node4 -->
<g id="edge6" class="edge"><title>Node2&#45;&gt;Node4</title>
<path fill="none" stroke="midnightblue" d="M254.049,-48C276.205,-48 303.151,-48 326.073,-48"/>
<polygon fill="midnightblue" stroke="midnightblue" points="326.29,-51.5001 336.29,-48 326.29,-44.5001 326.29,-51.5001"/>
</g>
<!-- Node4&#45;&gt;Node3 -->
<g id="edge8" class="edge"><title>Node4&#45;&gt;Node3</title>
<path fill="none" stroke="midnightblue" d="M417.522,-52.551C433.846,-54.4308 453.286,-56.6693 471.931,-58.8163"/>
<polygon fill="midnightblue" stroke="midnightblue" points="471.55,-62.2954 481.884,-59.9624 472.35,-55.3414 471.55,-62.2954"/>
</g>
<!-- Node6 -->
<g id="node12" class="node"><title>Node6</title>
<a xlink:href="class_timer.html#a7fa6e6dffec055e5104ccd6bcadec9aa" target="_top" xlink:title="Timer::GetFPGATimestamp">
<polygon fill="white" stroke="black" points="308.5,-0.5 308.5,-19.5 445.5,-19.5 445.5,-0.5 308.5,-0.5"/>
<text text-anchor="middle" x="377" y="-7.5" font-family="Helvetica,sans-Serif" font-size="10.00">Timer::GetFPGATimestamp</text>
</a>
</g>
<!-- Node5&#45;&gt;Node6 -->
<g id="edge12" class="edge"><title>Node5&#45;&gt;Node6</title>
<path fill="none" stroke="midnightblue" d="M271.812,-10C280.359,-10 289.227,-10 298.02,-10"/>
<polygon fill="midnightblue" stroke="midnightblue" points="298.283,-13.5001 308.283,-10 298.283,-6.5001 298.283,-13.5001"/>
</g>
<!-- Node7 -->
<g id="node14" class="node"><title>Node7</title>
<a xlink:href="_utility_8h.html#ababf055d95368485d48bd9a0231853f3" target="_top" xlink:title="GetFPGATime">
<polygon fill="white" stroke="black" points="504,-0.5 504,-19.5 584,-19.5 584,-0.5 504,-0.5"/>
<text text-anchor="middle" x="544" y="-7.5" font-family="Helvetica,sans-Serif" font-size="10.00">GetFPGATime</text>
</a>
</g>
<!-- Node6&#45;&gt;Node7 -->
<g id="edge14" class="edge"><title>Node6&#45;&gt;Node7</title>
<path fill="none" stroke="midnightblue" d="M445.588,-10C461.641,-10 478.473,-10 493.543,-10"/>
<polygon fill="midnightblue" stroke="midnightblue" points="493.664,-13.5001 503.663,-10 493.663,-6.5001 493.664,-13.5001"/>
</g>
</g>
</svg>
