<?xml version="1.0" encoding="UTF-8" standalone="no"?>
<!DOCTYPE svg PUBLIC "-//W3C//DTD SVG 1.1//EN"
 "http://www.w3.org/Graphics/SVG/1.1/DTD/svg11.dtd">
<!-- Generated by graphviz version 2.28.0 (20110507.0327)
 -->
<!-- Title: Compressor::Enabled Pages: 1 -->
<svg width="432pt" height="28pt"
 viewBox="0.00 0.00 432.00 28.00" xmlns="http://www.w3.org/2000/svg" xmlns:xlink="http://www.w3.org/1999/xlink">
<g id="graph1" class="graph" transform="scale(1 1) rotate(0) translate(4 24)">
<title>Compressor::Enabled</title>
<polygon fill="white" stroke="white" points="-4,5 -4,-24 429,-24 429,5 -4,5"/>
<!-- Node1 -->
<g id="node1" class="node"><title>Node1</title>
<polygon fill="#bfbfbf" stroke="black" points="0,-0.5 0,-19.5 110,-19.5 110,-0.5 0,-0.5"/>
<text text-anchor="middle" x="55" y="-7.5" font-family="Helvetica,sans-Serif" font-size="10.00">Compressor::Enabled</text>
</g>
<!-- Node2 -->
<g id="node3" class="node"><title>Node2</title>
<a xlink:href="class_compressor.html#acbfab8903df0d96c6fe6e513302cea1f" target="_top" xlink:title="Compressor::UpdateTable">
<polygon fill="white" stroke="black" points="146.5,-0.5 146.5,-19.5 275.5,-19.5 275.5,-0.5 146.5,-0.5"/>
<text text-anchor="middle" x="211" y="-7.5" font-family="Helvetica,sans-Serif" font-size="10.00">Compressor::UpdateTable</text>
</a>
</g>
<!-- Node1&#45;&gt;Node2 -->
<g id="edge2" class="edge"><title>Node1&#45;&gt;Node2</title>
<path fill="none" stroke="midnightblue" d="M120.313,-10C128.957,-10 137.82,-10 146.45,-10"/>
<polygon fill="midnightblue" stroke="midnightblue" points="120.295,-6.5001 110.295,-10 120.295,-13.5001 120.295,-6.5001"/>
</g>
<!-- Node3 -->
<g id="node5" class="node"><title>Node3</title>
<a xlink:href="class_compressor.html#a3451f6fd6d08e77febe909ba1a3f8ee1" target="_top" xlink:title="Compressor::InitTable">
<polygon fill="white" stroke="black" points="312.5,-0.5 312.5,-19.5 423.5,-19.5 423.5,-0.5 312.5,-0.5"/>
<text text-anchor="middle" x="368" y="-7.5" font-family="Helvetica,sans-Serif" font-size="10.00">Compressor::InitTable</text>
</a>
</g>
<!-- Node2&#45;&gt;Node3 -->
<g id="edge4" class="edge"><title>Node2&#45;&gt;Node3</title>
<path fill="none" stroke="midnightblue" d="M286.151,-10C294.895,-10 303.696,-10 312.107,-10"/>
<polygon fill="midnightblue" stroke="midnightblue" points="285.939,-6.5001 275.939,-10 285.939,-13.5001 285.939,-6.5001"/>
</g>
</g>
</svg>
