<?xml version="1.0" encoding="UTF-8" standalone="no"?>
<!DOCTYPE svg PUBLIC "-//W3C//DTD SVG 1.1//EN"
 "http://www.w3.org/Graphics/SVG/1.1/DTD/svg11.dtd">
<!-- Generated by graphviz version 2.28.0 (20110507.0327)
 -->
<!-- Title: Ultrasonic::GetRangeInches Pages: 1 -->
<svg width="446pt" height="104pt"
 viewBox="0.00 0.00 446.00 104.00" xmlns="http://www.w3.org/2000/svg" xmlns:xlink="http://www.w3.org/1999/xlink">
<g id="graph1" class="graph" transform="scale(1 1) rotate(0) translate(4 100)">
<title>Ultrasonic::GetRangeInches</title>
<polygon fill="white" stroke="white" points="-4,5 -4,-100 443,-100 443,5 -4,5"/>
<!-- Node1 -->
<g id="node1" class="node"><title>Node1</title>
<polygon fill="#bfbfbf" stroke="black" points="0,-38.5 0,-57.5 138,-57.5 138,-38.5 0,-38.5"/>
<text text-anchor="middle" x="69" y="-45.5" font-family="Helvetica,sans-Serif" font-size="10.00">Ultrasonic::GetRangeInches</text>
</g>
<!-- Node2 -->
<g id="node3" class="node"><title>Node2</title>
<a xlink:href="class_ultrasonic.html#af35c9a3273f1ffcf0eb17308d986d7c0" target="_top" xlink:title="Ultrasonic::GetRangeMM">
<polygon fill="white" stroke="black" points="174,-76.5 174,-95.5 300,-95.5 300,-76.5 174,-76.5"/>
<text text-anchor="middle" x="237" y="-83.5" font-family="Helvetica,sans-Serif" font-size="10.00">Ultrasonic::GetRangeMM</text>
</a>
</g>
<!-- Node1&#45;&gt;Node2 -->
<g id="edge2" class="edge"><title>Node1&#45;&gt;Node2</title>
<path fill="none" stroke="midnightblue" d="M121.653,-59.8243C145.056,-65.1816 172.357,-71.4311 194.412,-76.4799"/>
<polygon fill="midnightblue" stroke="midnightblue" points="122.418,-56.4088 111.889,-57.589 120.856,-63.2323 122.418,-56.4088"/>
</g>
<!-- Node3 -->
<g id="node5" class="node"><title>Node3</title>
<a xlink:href="class_ultrasonic.html#a8ec6de749ccd7e93b28735e9cc6d0b22" target="_top" xlink:title="Ultrasonic::PIDGet">
<polygon fill="white" stroke="black" points="338,-57.5 338,-76.5 436,-76.5 436,-57.5 338,-57.5"/>
<text text-anchor="middle" x="387" y="-64.5" font-family="Helvetica,sans-Serif" font-size="10.00">Ultrasonic::PIDGet</text>
</a>
</g>
<!-- Node1&#45;&gt;Node3 -->
<g id="edge6" class="edge"><title>Node1&#45;&gt;Node3</title>
<path fill="none" stroke="midnightblue" d="M148.285,-52.707C207.757,-56.2829 287.646,-61.0863 337.982,-64.1129"/>
<polygon fill="midnightblue" stroke="midnightblue" points="148.37,-49.2059 138.178,-52.0993 147.95,-56.1933 148.37,-49.2059"/>
</g>
<!-- Node4 -->
<g id="node8" class="node"><title>Node4</title>
<a xlink:href="class_ultrasonic.html#aa91dcad8c1595bd3c4bdd3e798afb736" target="_top" xlink:title="Ultrasonic::UpdateTable">
<polygon fill="white" stroke="black" points="177,-0.5 177,-19.5 297,-19.5 297,-0.5 177,-0.5"/>
<text text-anchor="middle" x="237" y="-7.5" font-family="Helvetica,sans-Serif" font-size="10.00">Ultrasonic::UpdateTable</text>
</a>
</g>
<!-- Node1&#45;&gt;Node4 -->
<g id="edge8" class="edge"><title>Node1&#45;&gt;Node4</title>
<path fill="none" stroke="midnightblue" d="M121.653,-36.1757C145.056,-30.8184 172.357,-24.5689 194.412,-19.5201"/>
<polygon fill="midnightblue" stroke="midnightblue" points="120.856,-32.7677 111.889,-38.411 122.418,-39.5912 120.856,-32.7677"/>
</g>
<!-- Node2&#45;&gt;Node3 -->
<g id="edge4" class="edge"><title>Node2&#45;&gt;Node3</title>
<path fill="none" stroke="midnightblue" d="M310.351,-76.7116C319.619,-75.5219 328.921,-74.3278 337.675,-73.2038"/>
<polygon fill="midnightblue" stroke="midnightblue" points="309.809,-73.2524 300.336,-77.9974 310.701,-80.1954 309.809,-73.2524"/>
</g>
<!-- Node5 -->
<g id="node10" class="node"><title>Node5</title>
<a xlink:href="class_ultrasonic.html#a63320495a2d314cbc09cc9e4b6d1569d" target="_top" xlink:title="Ultrasonic::InitTable">
<polygon fill="white" stroke="black" points="336,-0.5 336,-19.5 438,-19.5 438,-0.5 336,-0.5"/>
<text text-anchor="middle" x="387" y="-7.5" font-family="Helvetica,sans-Serif" font-size="10.00">Ultrasonic::InitTable</text>
</a>
</g>
<!-- Node4&#45;&gt;Node5 -->
<g id="edge10" class="edge"><title>Node4&#45;&gt;Node5</title>
<path fill="none" stroke="midnightblue" d="M307.567,-10C317.051,-10 326.632,-10 335.684,-10"/>
<polygon fill="midnightblue" stroke="midnightblue" points="307.345,-6.5001 297.344,-10 307.344,-13.5001 307.345,-6.5001"/>
</g>
</g>
</svg>
