<?xml version="1.0" encoding="UTF-8" standalone="no"?>
<!DOCTYPE svg PUBLIC "-//W3C//DTD SVG 1.1//EN"
 "http://www.w3.org/Graphics/SVG/1.1/DTD/svg11.dtd">
<!-- Generated by graphviz version 2.28.0 (20110507.0327)
 -->
<!-- Title: PIDSubsystem::SetSetpointRelative Pages: 1 -->
<svg width="492pt" height="66pt"
 viewBox="0.00 0.00 492.00 66.00" xmlns="http://www.w3.org/2000/svg" xmlns:xlink="http://www.w3.org/1999/xlink">
<g id="graph1" class="graph" transform="scale(1 1) rotate(0) translate(4 62)">
<title>PIDSubsystem::SetSetpointRelative</title>
<polygon fill="white" stroke="white" points="-4,5 -4,-62 489,-62 489,5 -4,5"/>
<!-- Node1 -->
<g id="node1" class="node"><title>Node1</title>
<polygon fill="#bfbfbf" stroke="black" points="0.5,-14 0.5,-44 139.5,-44 139.5,-14 0.5,-14"/>
<text text-anchor="start" x="8.5" y="-32" font-family="Helvetica,sans-Serif" font-size="10.00">PIDSubsystem::SetSetpoint</text>
<text text-anchor="middle" x="70" y="-21" font-family="Helvetica,sans-Serif" font-size="10.00">Relative</text>
</g>
<!-- Node2 -->
<g id="node3" class="node"><title>Node2</title>
<a xlink:href="class_p_i_d_subsystem.html#a87323aaa4b95fe9dc544157f04f66867" target="_top" xlink:title="PIDSubsystem::SetSetpoint">
<polygon fill="white" stroke="black" points="176.5,-38.5 176.5,-57.5 315.5,-57.5 315.5,-38.5 176.5,-38.5"/>
<text text-anchor="middle" x="246" y="-45.5" font-family="Helvetica,sans-Serif" font-size="10.00">PIDSubsystem::SetSetpoint</text>
</a>
</g>
<!-- Node1&#45;&gt;Node2 -->
<g id="edge2" class="edge"><title>Node1&#45;&gt;Node2</title>
<path fill="none" stroke="midnightblue" d="M139.769,-36.5093C148.535,-37.4664 157.558,-38.4518 166.463,-39.4241"/>
<polygon fill="midnightblue" stroke="midnightblue" points="166.124,-42.9079 176.445,-40.5141 166.884,-35.9492 166.124,-42.9079"/>
</g>
<!-- Node4 -->
<g id="node7" class="node"><title>Node4</title>
<a xlink:href="class_p_i_d_subsystem.html#a0d319cc2a1b26128376c51d66a9e0ca4" target="_top" xlink:title="PIDSubsystem::GetSetpoint">
<polygon fill="white" stroke="black" points="176,-0.5 176,-19.5 316,-19.5 316,-0.5 176,-0.5"/>
<text text-anchor="middle" x="246" y="-7.5" font-family="Helvetica,sans-Serif" font-size="10.00">PIDSubsystem::GetSetpoint</text>
</a>
</g>
<!-- Node1&#45;&gt;Node4 -->
<g id="edge6" class="edge"><title>Node1&#45;&gt;Node4</title>
<path fill="none" stroke="midnightblue" d="M139.769,-21.4907C148.304,-20.5588 157.083,-19.6001 165.759,-18.6527"/>
<polygon fill="midnightblue" stroke="midnightblue" points="166.314,-22.113 175.875,-17.5481 165.554,-15.1544 166.314,-22.113"/>
</g>
<!-- Node3 -->
<g id="node5" class="node"><title>Node3</title>
<a xlink:href="class_p_i_d_controller.html#a60e89182f28d2cc1ee5adf481c2003c9" target="_top" xlink:title="PIDController::SetSetpoint">
<polygon fill="white" stroke="black" points="352.5,-38.5 352.5,-57.5 483.5,-57.5 483.5,-38.5 352.5,-38.5"/>
<text text-anchor="middle" x="418" y="-45.5" font-family="Helvetica,sans-Serif" font-size="10.00">PIDController::SetSetpoint</text>
</a>
</g>
<!-- Node2&#45;&gt;Node3 -->
<g id="edge4" class="edge"><title>Node2&#45;&gt;Node3</title>
<path fill="none" stroke="midnightblue" d="M315.655,-48C324.398,-48 333.381,-48 342.214,-48"/>
<polygon fill="midnightblue" stroke="midnightblue" points="342.492,-51.5001 352.492,-48 342.492,-44.5001 342.492,-51.5001"/>
</g>
<!-- Node5 -->
<g id="node9" class="node"><title>Node5</title>
<a xlink:href="class_p_i_d_controller.html#ac25eb01ba2a0118f692bae207de62d63" target="_top" xlink:title="PIDController::GetSetpoint">
<polygon fill="white" stroke="black" points="352.5,-0.5 352.5,-19.5 483.5,-19.5 483.5,-0.5 352.5,-0.5"/>
<text text-anchor="middle" x="418" y="-7.5" font-family="Helvetica,sans-Serif" font-size="10.00">PIDController::GetSetpoint</text>
</a>
</g>
<!-- Node4&#45;&gt;Node5 -->
<g id="edge8" class="edge"><title>Node4&#45;&gt;Node5</title>
<path fill="none" stroke="midnightblue" d="M316.146,-10C324.735,-10 333.548,-10 342.217,-10"/>
<polygon fill="midnightblue" stroke="midnightblue" points="342.306,-13.5001 352.306,-10 342.306,-6.5001 342.306,-13.5001"/>
</g>
</g>
</svg>
