<?xml version="1.0" encoding="UTF-8" standalone="no"?>
<!DOCTYPE svg PUBLIC "-//W3C//DTD SVG 1.1//EN"
 "http://www.w3.org/Graphics/SVG/1.1/DTD/svg11.dtd">
<!-- Generated by graphviz version 2.28.0 (20110507.0327)
 -->
<!-- Title: ADXL345_I2C::InitTable Pages: 1 -->
<svg width="846pt" height="104pt"
 viewBox="0.00 0.00 846.00 104.00" xmlns="http://www.w3.org/2000/svg" xmlns:xlink="http://www.w3.org/1999/xlink">
<g id="graph1" class="graph" transform="scale(1 1) rotate(0) translate(4 100)">
<title>ADXL345_I2C::InitTable</title>
<polygon fill="white" stroke="white" points="-4,5 -4,-100 843,-100 843,5 -4,5"/>
<!-- Node1 -->
<g id="node1" class="node"><title>Node1</title>
<polygon fill="#bfbfbf" stroke="black" points="0,-38.5 0,-57.5 118,-57.5 118,-38.5 0,-38.5"/>
<text text-anchor="middle" x="59" y="-45.5" font-family="Helvetica,sans-Serif" font-size="10.00">ADXL345_I2C::InitTable</text>
</g>
<!-- Node2 -->
<g id="node3" class="node"><title>Node2</title>
<a xlink:href="class_a_d_x_l345___i2_c.html#ab52c386de90495ec8f825262281daeaf" target="_top" xlink:title="ADXL345_I2C::UpdateTable">
<polygon fill="white" stroke="black" points="154,-38.5 154,-57.5 290,-57.5 290,-38.5 154,-38.5"/>
<text text-anchor="middle" x="222" y="-45.5" font-family="Helvetica,sans-Serif" font-size="10.00">ADXL345_I2C::UpdateTable</text>
</a>
</g>
<!-- Node1&#45;&gt;Node2 -->
<g id="edge2" class="edge"><title>Node1&#45;&gt;Node2</title>
<path fill="none" stroke="midnightblue" d="M118.125,-48C126.476,-48 135.176,-48 143.825,-48"/>
<polygon fill="midnightblue" stroke="midnightblue" points="143.931,-51.5001 153.931,-48 143.931,-44.5001 143.931,-51.5001"/>
</g>
<!-- Node3 -->
<g id="node5" class="node"><title>Node3</title>
<a xlink:href="class_a_d_x_l345___i2_c.html#a4606027648ba713e43482308b01f54fa" target="_top" xlink:title="ADXL345_I2C::GetX">
<polygon fill="white" stroke="black" points="326.5,-76.5 326.5,-95.5 429.5,-95.5 429.5,-76.5 326.5,-76.5"/>
<text text-anchor="middle" x="378" y="-83.5" font-family="Helvetica,sans-Serif" font-size="10.00">ADXL345_I2C::GetX</text>
</a>
</g>
<!-- Node2&#45;&gt;Node3 -->
<g id="edge4" class="edge"><title>Node2&#45;&gt;Node3</title>
<path fill="none" stroke="midnightblue" d="M261.861,-57.589C282.091,-62.5809 307.021,-68.7324 328.504,-74.0334"/>
<polygon fill="midnightblue" stroke="midnightblue" points="327.871,-77.4823 338.419,-76.4799 329.548,-70.6861 327.871,-77.4823"/>
</g>
<!-- Node7 -->
<g id="node13" class="node"><title>Node7</title>
<a xlink:href="class_a_d_x_l345___i2_c.html#aa42d83f295dcc41a7ba3b510ba6ad594" target="_top" xlink:title="ADXL345_I2C::GetY">
<polygon fill="white" stroke="black" points="326,-38.5 326,-57.5 430,-57.5 430,-38.5 326,-38.5"/>
<text text-anchor="middle" x="378" y="-45.5" font-family="Helvetica,sans-Serif" font-size="10.00">ADXL345_I2C::GetY</text>
</a>
</g>
<!-- Node2&#45;&gt;Node7 -->
<g id="edge12" class="edge"><title>Node2&#45;&gt;Node7</title>
<path fill="none" stroke="midnightblue" d="M290.099,-48C298.627,-48 307.32,-48 315.75,-48"/>
<polygon fill="midnightblue" stroke="midnightblue" points="315.874,-51.5001 325.874,-48 315.874,-44.5001 315.874,-51.5001"/>
</g>
<!-- Node8 -->
<g id="node16" class="node"><title>Node8</title>
<a xlink:href="class_a_d_x_l345___i2_c.html#a772d16004a9f5e67ed391426b88f6d43" target="_top" xlink:title="ADXL345_I2C::GetZ">
<polygon fill="white" stroke="black" points="326.5,-0.5 326.5,-19.5 429.5,-19.5 429.5,-0.5 326.5,-0.5"/>
<text text-anchor="middle" x="378" y="-7.5" font-family="Helvetica,sans-Serif" font-size="10.00">ADXL345_I2C::GetZ</text>
</a>
</g>
<!-- Node2&#45;&gt;Node8 -->
<g id="edge16" class="edge"><title>Node2&#45;&gt;Node8</title>
<path fill="none" stroke="midnightblue" d="M261.861,-38.411C282.091,-33.4191 307.021,-27.2676 328.504,-21.9666"/>
<polygon fill="midnightblue" stroke="midnightblue" points="329.548,-25.3139 338.419,-19.5201 327.871,-18.5177 329.548,-25.3139"/>
</g>
<!-- Node4 -->
<g id="node7" class="node"><title>Node4</title>
<a xlink:href="class_a_d_x_l345___i2_c.html#abc3a0bb889882e01cee781e3ab33af84" target="_top" xlink:title="ADXL345_I2C::GetAcceleration">
<polygon fill="white" stroke="black" points="466,-38.5 466,-57.5 618,-57.5 618,-38.5 466,-38.5"/>
<text text-anchor="middle" x="542" y="-45.5" font-family="Helvetica,sans-Serif" font-size="10.00">ADXL345_I2C::GetAcceleration</text>
</a>
</g>
<!-- Node3&#45;&gt;Node4 -->
<g id="edge6" class="edge"><title>Node3&#45;&gt;Node4</title>
<path fill="none" stroke="midnightblue" d="M419.879,-76.411C441.353,-71.3739 467.86,-65.1562 490.597,-59.8229"/>
<polygon fill="midnightblue" stroke="midnightblue" points="491.478,-63.2113 500.415,-57.5201 489.879,-56.3963 491.478,-63.2113"/>
</g>
<!-- Node5 -->
<g id="node9" class="node"><title>Node5</title>
<a xlink:href="class_i2_c.html#a4115857de2e0675f0483787933be0552" target="_top" xlink:title="I2C::Read">
<polygon fill="white" stroke="black" points="654.5,-38.5 654.5,-57.5 713.5,-57.5 713.5,-38.5 654.5,-38.5"/>
<text text-anchor="middle" x="684" y="-45.5" font-family="Helvetica,sans-Serif" font-size="10.00">I2C::Read</text>
</a>
</g>
<!-- Node4&#45;&gt;Node5 -->
<g id="edge8" class="edge"><title>Node4&#45;&gt;Node5</title>
<path fill="none" stroke="midnightblue" d="M618.327,-48C627.238,-48 636.032,-48 644.129,-48"/>
<polygon fill="midnightblue" stroke="midnightblue" points="644.322,-51.5001 654.322,-48 644.322,-44.5001 644.322,-51.5001"/>
</g>
<!-- Node6 -->
<g id="node11" class="node"><title>Node6</title>
<a xlink:href="class_i2_c.html#aefe3a40857733f5ec164dbe1fb82b299" target="_top" xlink:title="I2C::Transaction">
<polygon fill="white" stroke="black" points="750.5,-38.5 750.5,-57.5 837.5,-57.5 837.5,-38.5 750.5,-38.5"/>
<text text-anchor="middle" x="794" y="-45.5" font-family="Helvetica,sans-Serif" font-size="10.00">I2C::Transaction</text>
</a>
</g>
<!-- Node5&#45;&gt;Node6 -->
<g id="edge10" class="edge"><title>Node5&#45;&gt;Node6</title>
<path fill="none" stroke="midnightblue" d="M713.658,-48C721.831,-48 731.005,-48 740.136,-48"/>
<polygon fill="midnightblue" stroke="midnightblue" points="740.371,-51.5001 750.371,-48 740.371,-44.5001 740.371,-51.5001"/>
</g>
<!-- Node7&#45;&gt;Node4 -->
<g id="edge14" class="edge"><title>Node7&#45;&gt;Node4</title>
<path fill="none" stroke="midnightblue" d="M430.258,-48C438.386,-48 446.979,-48 455.638,-48"/>
<polygon fill="midnightblue" stroke="midnightblue" points="455.81,-51.5001 465.81,-48 455.809,-44.5001 455.81,-51.5001"/>
</g>
<!-- Node8&#45;&gt;Node4 -->
<g id="edge18" class="edge"><title>Node8&#45;&gt;Node4</title>
<path fill="none" stroke="midnightblue" d="M419.879,-19.589C441.353,-24.6261 467.86,-30.8438 490.597,-36.1771"/>
<polygon fill="midnightblue" stroke="midnightblue" points="489.879,-39.6037 500.415,-38.4799 491.478,-32.7887 489.879,-39.6037"/>
</g>
</g>
</svg>
