<?xml version="1.0" encoding="UTF-8" standalone="no"?>
<!DOCTYPE svg PUBLIC "-//W3C//DTD SVG 1.1//EN"
 "http://www.w3.org/Graphics/SVG/1.1/DTD/svg11.dtd">
<!-- Generated by graphviz version 2.28.0 (20110507.0327)
 -->
<!-- Title: CANJaguar::GetOutputCurrent Pages: 1 -->
<svg width="490pt" height="38pt"
 viewBox="0.00 0.00 490.00 38.00" xmlns="http://www.w3.org/2000/svg" xmlns:xlink="http://www.w3.org/1999/xlink">
<g id="graph1" class="graph" transform="scale(1 1) rotate(0) translate(4 34)">
<title>CANJaguar::GetOutputCurrent</title>
<polygon fill="white" stroke="white" points="-4,5 -4,-34 487,-34 487,5 -4,5"/>
<!-- Node1 -->
<g id="node1" class="node"><title>Node1</title>
<polygon fill="#bfbfbf" stroke="black" points="0,-5.5 0,-24.5 148,-24.5 148,-5.5 0,-5.5"/>
<text text-anchor="middle" x="74" y="-12.5" font-family="Helvetica,sans-Serif" font-size="10.00">CANJaguar::GetOutputCurrent</text>
</g>
<!-- Node2 -->
<g id="node3" class="node"><title>Node2</title>
<a xlink:href="class_c_a_n_jaguar.html#a9436c9b85c0b008bb3276e7283176603" target="_top" xlink:title="CANJaguar::updatePeriodic\lStatus">
<polygon fill="white" stroke="black" points="184,-0 184,-30 320,-30 320,-0 184,-0"/>
<text text-anchor="start" x="192" y="-18" font-family="Helvetica,sans-Serif" font-size="10.00">CANJaguar::updatePeriodic</text>
<text text-anchor="middle" x="252" y="-7" font-family="Helvetica,sans-Serif" font-size="10.00">Status</text>
</a>
</g>
<!-- Node1&#45;&gt;Node2 -->
<g id="edge2" class="edge"><title>Node1&#45;&gt;Node2</title>
<path fill="none" stroke="midnightblue" d="M148.111,-15C156.504,-15 165.083,-15 173.531,-15"/>
<polygon fill="midnightblue" stroke="midnightblue" points="173.749,-18.5001 183.749,-15 173.749,-11.5001 173.749,-18.5001"/>
</g>
<!-- Node3 -->
<g id="node5" class="node"><title>Node3</title>
<a xlink:href="class_c_a_n_jaguar.html#a6bf10ae6a799ca57c6bf165e36ff91d1" target="_top" xlink:title="CANJaguar::getMessage">
<polygon fill="white" stroke="black" points="356.5,-5.5 356.5,-24.5 481.5,-24.5 481.5,-5.5 356.5,-5.5"/>
<text text-anchor="middle" x="419" y="-12.5" font-family="Helvetica,sans-Serif" font-size="10.00">CANJaguar::getMessage</text>
</a>
</g>
<!-- Node2&#45;&gt;Node3 -->
<g id="edge4" class="edge"><title>Node2&#45;&gt;Node3</title>
<path fill="none" stroke="midnightblue" d="M320.112,-15C328.705,-15 337.529,-15 346.193,-15"/>
<polygon fill="midnightblue" stroke="midnightblue" points="346.267,-18.5001 356.267,-15 346.267,-11.5001 346.267,-18.5001"/>
</g>
</g>
</svg>
