<?xml version="1.0" encoding="UTF-8" standalone="no"?>
<!DOCTYPE svg PUBLIC "-//W3C//DTD SVG 1.1//EN"
 "http://www.w3.org/Graphics/SVG/1.1/DTD/svg11.dtd">
<!-- Generated by graphviz version 2.28.0 (20110507.0327)
 -->
<!-- Title: DoubleSolenoid::Set Pages: 1 -->
<svg width="274pt" height="66pt"
 viewBox="0.00 0.00 274.00 66.00" xmlns="http://www.w3.org/2000/svg" xmlns:xlink="http://www.w3.org/1999/xlink">
<g id="graph1" class="graph" transform="scale(1 1) rotate(0) translate(4 62)">
<title>DoubleSolenoid::Set</title>
<polygon fill="white" stroke="white" points="-4,5 -4,-62 271,-62 271,5 -4,5"/>
<!-- Node1 -->
<g id="node1" class="node"><title>Node1</title>
<polygon fill="#bfbfbf" stroke="black" points="0.5,-19.5 0.5,-38.5 105.5,-38.5 105.5,-19.5 0.5,-19.5"/>
<text text-anchor="middle" x="53" y="-26.5" font-family="Helvetica,sans-Serif" font-size="10.00">DoubleSolenoid::Set</text>
</g>
<!-- Node2 -->
<g id="node3" class="node"><title>Node2</title>
<a xlink:href="class_error_base.html#a05790f219c9e436a09752f73f7344024" target="_top" xlink:title="Check if the current error code represents a fatal error. ">
<polygon fill="white" stroke="black" points="142,-38.5 142,-57.5 266,-57.5 266,-38.5 142,-38.5"/>
<text text-anchor="middle" x="204" y="-45.5" font-family="Helvetica,sans-Serif" font-size="10.00">ErrorBase::StatusIsFatal</text>
</a>
</g>
<!-- Node1&#45;&gt;Node2 -->
<g id="edge2" class="edge"><title>Node1&#45;&gt;Node2</title>
<path fill="none" stroke="midnightblue" d="M105.695,-35.592C114.183,-36.6744 123.109,-37.8126 131.969,-38.9424"/>
<polygon fill="midnightblue" stroke="midnightblue" points="131.556,-42.4179 141.918,-40.211 132.441,-35.4741 131.556,-42.4179"/>
</g>
<!-- Node3 -->
<g id="node5" class="node"><title>Node3</title>
<a xlink:href="class_solenoid_base.html#a28d8153c8d7d758f910807537c53963c" target="_top" xlink:title="SolenoidBase::Set">
<polygon fill="white" stroke="black" points="155,-0.5 155,-19.5 253,-19.5 253,-0.5 155,-0.5"/>
<text text-anchor="middle" x="204" y="-7.5" font-family="Helvetica,sans-Serif" font-size="10.00">SolenoidBase::Set</text>
</a>
</g>
<!-- Node1&#45;&gt;Node3 -->
<g id="edge4" class="edge"><title>Node1&#45;&gt;Node3</title>
<path fill="none" stroke="midnightblue" d="M105.695,-22.408C118.296,-20.8012 131.861,-19.0715 144.744,-17.4286"/>
<polygon fill="midnightblue" stroke="midnightblue" points="145.422,-20.8706 154.899,-16.1337 144.536,-13.9268 145.422,-20.8706"/>
</g>
</g>
</svg>
