<?xml version="1.0" encoding="UTF-8" standalone="no"?>
<!DOCTYPE svg PUBLIC "-//W3C//DTD SVG 1.1//EN"
 "http://www.w3.org/Graphics/SVG/1.1/DTD/svg11.dtd">
<!-- Generated by graphviz version 2.28.0 (20110507.0327)
 -->
<!-- Title: CANJaguar::DisableControl Pages: 1 -->
<svg width="658pt" height="180pt"
 viewBox="0.00 0.00 658.00 180.00" xmlns="http://www.w3.org/2000/svg" xmlns:xlink="http://www.w3.org/1999/xlink">
<g id="graph1" class="graph" transform="scale(1 1) rotate(0) translate(4 176)">
<title>CANJaguar::DisableControl</title>
<polygon fill="white" stroke="white" points="-4,5 -4,-176 655,-176 655,5 -4,5"/>
<!-- Node1 -->
<g id="node1" class="node"><title>Node1</title>
<polygon fill="#bfbfbf" stroke="black" points="0,-76.5 0,-95.5 134,-95.5 134,-76.5 0,-76.5"/>
<text text-anchor="middle" x="67" y="-83.5" font-family="Helvetica,sans-Serif" font-size="10.00">CANJaguar::DisableControl</text>
</g>
<!-- Node2 -->
<g id="node3" class="node"><title>Node2</title>
<a xlink:href="class_c_a_n_jaguar.html#a724fb123fb9694f998cdd5f7da28bcd4" target="_top" xlink:title="CANJaguar::Disable">
<polygon fill="white" stroke="black" points="189,-114.5 189,-133.5 293,-133.5 293,-114.5 189,-114.5"/>
<text text-anchor="middle" x="241" y="-121.5" font-family="Helvetica,sans-Serif" font-size="10.00">CANJaguar::Disable</text>
</a>
</g>
<!-- Node1&#45;&gt;Node2 -->
<g id="edge2" class="edge"><title>Node1&#45;&gt;Node2</title>
<path fill="none" stroke="midnightblue" d="M121.196,-97.7526C145.517,-103.126 173.955,-109.409 196.909,-114.48"/>
<polygon fill="midnightblue" stroke="midnightblue" points="121.922,-94.3288 111.403,-95.589 120.412,-101.164 121.922,-94.3288"/>
</g>
<!-- Node3 -->
<g id="node5" class="node"><title>Node3</title>
<a xlink:href="class_c_a_n_jaguar.html#ad359943907bf802075474a3753f7fb02" target="_top" xlink:title="CANJaguar::SetControlMode">
<polygon fill="white" stroke="black" points="170.5,-76.5 170.5,-95.5 311.5,-95.5 311.5,-76.5 170.5,-76.5"/>
<text text-anchor="middle" x="241" y="-83.5" font-family="Helvetica,sans-Serif" font-size="10.00">CANJaguar::SetControlMode</text>
</a>
</g>
<!-- Node1&#45;&gt;Node3 -->
<g id="edge4" class="edge"><title>Node1&#45;&gt;Node3</title>
<path fill="none" stroke="midnightblue" d="M144.186,-86C152.93,-86 161.81,-86 170.459,-86"/>
<polygon fill="midnightblue" stroke="midnightblue" points="144.008,-82.5001 134.008,-86 144.008,-89.5001 144.008,-82.5001"/>
</g>
<!-- Node10 -->
<g id="node19" class="node"><title>Node10</title>
<a xlink:href="class_c_a_n_jaguar.html#a5ce4840f1e80913836cfb2ddb2d7d50b" target="_top" xlink:title="CANJaguar::StopMotor">
<polygon fill="white" stroke="black" points="183,-38.5 183,-57.5 299,-57.5 299,-38.5 183,-38.5"/>
<text text-anchor="middle" x="241" y="-45.5" font-family="Helvetica,sans-Serif" font-size="10.00">CANJaguar::StopMotor</text>
</a>
</g>
<!-- Node1&#45;&gt;Node10 -->
<g id="edge18" class="edge"><title>Node1&#45;&gt;Node10</title>
<path fill="none" stroke="midnightblue" d="M121.196,-74.2474C145.517,-68.8742 173.955,-62.5914 196.909,-57.5201"/>
<polygon fill="midnightblue" stroke="midnightblue" points="120.412,-70.836 111.403,-76.411 121.922,-77.6712 120.412,-70.836"/>
</g>
<!-- Node4 -->
<g id="node7" class="node"><title>Node4</title>
<a xlink:href="class_c_a_n_jaguar.html#ac2d2c69ce26f0ccbf4191349e4eba055" target="_top" xlink:title="CANJaguar::SetPercentMode">
<polygon fill="white" stroke="black" points="349,-152.5 349,-171.5 493,-171.5 493,-152.5 349,-152.5"/>
<text text-anchor="middle" x="421" y="-159.5" font-family="Helvetica,sans-Serif" font-size="10.00">CANJaguar::SetPercentMode</text>
</a>
</g>
<!-- Node3&#45;&gt;Node4 -->
<g id="edge6" class="edge"><title>Node3&#45;&gt;Node4</title>
<path fill="none" stroke="midnightblue" d="M300.422,-99.1661C304.449,-100.884 308.352,-102.82 312,-105 331.969,-116.936 327.989,-131.135 348,-143 354.561,-146.89 361.922,-149.996 369.366,-152.473"/>
<polygon fill="midnightblue" stroke="midnightblue" points="301.453,-95.814 290.862,-95.5414 298.972,-102.359 301.453,-95.814"/>
</g>
<!-- Node6 -->
<g id="node11" class="node"><title>Node6</title>
<a xlink:href="class_c_a_n_jaguar.html#ae0b07bf7199611ea8e2e04109b08a3ad" target="_top" xlink:title="CANJaguar::SetCurrentMode">
<polygon fill="white" stroke="black" points="350,-114.5 350,-133.5 492,-133.5 492,-114.5 350,-114.5"/>
<text text-anchor="middle" x="421" y="-121.5" font-family="Helvetica,sans-Serif" font-size="10.00">CANJaguar::SetCurrentMode</text>
</a>
</g>
<!-- Node3&#45;&gt;Node6 -->
<g id="edge10" class="edge"><title>Node3&#45;&gt;Node6</title>
<path fill="none" stroke="midnightblue" d="M296.716,-97.681C321.959,-103.07 351.545,-109.386 375.406,-114.48"/>
<polygon fill="midnightblue" stroke="midnightblue" points="297.427,-94.254 286.917,-95.589 295.966,-101.1 297.427,-94.254"/>
</g>
<!-- Node7 -->
<g id="node13" class="node"><title>Node7</title>
<a xlink:href="class_c_a_n_jaguar.html#aa02549873d5551b00d3f2bdb08709e5a" target="_top" xlink:title="CANJaguar::SetSpeedMode">
<polygon fill="white" stroke="black" points="352,-76.5 352,-95.5 490,-95.5 490,-76.5 352,-76.5"/>
<text text-anchor="middle" x="421" y="-83.5" font-family="Helvetica,sans-Serif" font-size="10.00">CANJaguar::SetSpeedMode</text>
</a>
</g>
<!-- Node3&#45;&gt;Node7 -->
<g id="edge12" class="edge"><title>Node3&#45;&gt;Node7</title>
<path fill="none" stroke="midnightblue" d="M321.624,-86C331.737,-86 342.014,-86 351.924,-86"/>
<polygon fill="midnightblue" stroke="midnightblue" points="321.584,-82.5001 311.584,-86 321.584,-89.5001 321.584,-82.5001"/>
</g>
<!-- Node8 -->
<g id="node15" class="node"><title>Node8</title>
<a xlink:href="class_c_a_n_jaguar.html#a870f456a238bb9c55552b94cd86faad0" target="_top" xlink:title="CANJaguar::SetPositionMode">
<polygon fill="white" stroke="black" points="348,-38.5 348,-57.5 494,-57.5 494,-38.5 348,-38.5"/>
<text text-anchor="middle" x="421" y="-45.5" font-family="Helvetica,sans-Serif" font-size="10.00">CANJaguar::SetPositionMode</text>
</a>
</g>
<!-- Node3&#45;&gt;Node8 -->
<g id="edge14" class="edge"><title>Node3&#45;&gt;Node8</title>
<path fill="none" stroke="midnightblue" d="M296.716,-74.319C321.959,-68.9301 351.545,-62.6139 375.406,-57.5201"/>
<polygon fill="midnightblue" stroke="midnightblue" points="295.966,-70.9003 286.917,-76.411 297.427,-77.746 295.966,-70.9003"/>
</g>
<!-- Node9 -->
<g id="node17" class="node"><title>Node9</title>
<a xlink:href="class_c_a_n_jaguar.html#a75fc8ed9ed60a38e2932155f958cdf34" target="_top" xlink:title="CANJaguar::SetVoltageMode">
<polygon fill="white" stroke="black" points="349.5,-0.5 349.5,-19.5 492.5,-19.5 492.5,-0.5 349.5,-0.5"/>
<text text-anchor="middle" x="421" y="-7.5" font-family="Helvetica,sans-Serif" font-size="10.00">CANJaguar::SetVoltageMode</text>
</a>
</g>
<!-- Node3&#45;&gt;Node9 -->
<g id="edge16" class="edge"><title>Node3&#45;&gt;Node9</title>
<path fill="none" stroke="midnightblue" d="M300.422,-72.8339C304.449,-71.1162 308.352,-69.1804 312,-67 331.969,-55.0642 327.989,-40.8654 348,-29 354.561,-25.1098 361.922,-22.0035 369.366,-19.5265"/>
<polygon fill="midnightblue" stroke="midnightblue" points="298.972,-69.6406 290.862,-76.4586 301.453,-76.186 298.972,-69.6406"/>
</g>
<!-- Node5 -->
<g id="node9" class="node"><title>Node5</title>
<a xlink:href="class_c_a_n_jaguar.html#aec1593556141870268f5e48e38537390" target="_top" xlink:title="CANJaguar::CANJaguar">
<polygon fill="white" stroke="black" points="530,-152.5 530,-171.5 650,-171.5 650,-152.5 530,-152.5"/>
<text text-anchor="middle" x="590" y="-159.5" font-family="Helvetica,sans-Serif" font-size="10.00">CANJaguar::CANJaguar</text>
</a>
</g>
<!-- Node4&#45;&gt;Node5 -->
<g id="edge8" class="edge"><title>Node4&#45;&gt;Node5</title>
<path fill="none" stroke="midnightblue" d="M503.401,-162C512.373,-162 521.377,-162 529.999,-162"/>
<polygon fill="midnightblue" stroke="midnightblue" points="503.307,-158.5 493.307,-162 503.307,-165.5 503.307,-158.5"/>
</g>
</g>
</svg>
