<?xml version="1.0" encoding="UTF-8" standalone="no"?>
<!DOCTYPE svg PUBLIC "-//W3C//DTD SVG 1.1//EN"
 "http://www.w3.org/Graphics/SVG/1.1/DTD/svg11.dtd">
<!-- Generated by graphviz version 2.28.0 (20110507.0327)
 -->
<!-- Title: ADXL345_SPI::GetX Pages: 1 -->
<svg width="442pt" height="28pt"
 viewBox="0.00 0.00 442.00 28.00" xmlns="http://www.w3.org/2000/svg" xmlns:xlink="http://www.w3.org/1999/xlink">
<g id="graph1" class="graph" transform="scale(1 1) rotate(0) translate(4 24)">
<title>ADXL345_SPI::GetX</title>
<polygon fill="white" stroke="white" points="-4,5 -4,-24 439,-24 439,5 -4,5"/>
<!-- Node1 -->
<g id="node1" class="node"><title>Node1</title>
<polygon fill="#bfbfbf" stroke="black" points="0,-0.5 0,-19.5 104,-19.5 104,-0.5 0,-0.5"/>
<text text-anchor="middle" x="52" y="-7.5" font-family="Helvetica,sans-Serif" font-size="10.00">ADXL345_SPI::GetX</text>
</g>
<!-- Node2 -->
<g id="node3" class="node"><title>Node2</title>
<a xlink:href="class_a_d_x_l345___s_p_i.html#a9cb14691ba1afa6bf3676222936d8c19" target="_top" xlink:title="ADXL345_SPI::UpdateTable">
<polygon fill="white" stroke="black" points="140.5,-0.5 140.5,-19.5 277.5,-19.5 277.5,-0.5 140.5,-0.5"/>
<text text-anchor="middle" x="209" y="-7.5" font-family="Helvetica,sans-Serif" font-size="10.00">ADXL345_SPI::UpdateTable</text>
</a>
</g>
<!-- Node1&#45;&gt;Node2 -->
<g id="edge2" class="edge"><title>Node1&#45;&gt;Node2</title>
<path fill="none" stroke="midnightblue" d="M114.392,-10C122.897,-10 131.672,-10 140.283,-10"/>
<polygon fill="midnightblue" stroke="midnightblue" points="114.182,-6.5001 104.182,-10 114.182,-13.5001 114.182,-6.5001"/>
</g>
<!-- Node3 -->
<g id="node5" class="node"><title>Node3</title>
<a xlink:href="class_a_d_x_l345___s_p_i.html#a44f5e096d12a7e9770cda58fd4f6b95c" target="_top" xlink:title="ADXL345_SPI::InitTable">
<polygon fill="white" stroke="black" points="314.5,-0.5 314.5,-19.5 433.5,-19.5 433.5,-0.5 314.5,-0.5"/>
<text text-anchor="middle" x="374" y="-7.5" font-family="Helvetica,sans-Serif" font-size="10.00">ADXL345_SPI::InitTable</text>
</a>
</g>
<!-- Node2&#45;&gt;Node3 -->
<g id="edge4" class="edge"><title>Node2&#45;&gt;Node3</title>
<path fill="none" stroke="midnightblue" d="M287.756,-10C296.696,-10 305.696,-10 314.325,-10"/>
<polygon fill="midnightblue" stroke="midnightblue" points="287.711,-6.5001 277.711,-10 287.711,-13.5001 287.711,-6.5001"/>
</g>
</g>
</svg>
