<?xml version="1.0" encoding="UTF-8" standalone="no"?>
<!DOCTYPE svg PUBLIC "-//W3C//DTD SVG 1.1//EN"
 "http://www.w3.org/Graphics/SVG/1.1/DTD/svg11.dtd">
<!-- Generated by graphviz version 2.28.0 (20110507.0327)
 -->
<!-- Title: DoubleSolenoid::Get Pages: 1 -->
<svg width="456pt" height="28pt"
 viewBox="0.00 0.00 456.00 28.00" xmlns="http://www.w3.org/2000/svg" xmlns:xlink="http://www.w3.org/1999/xlink">
<g id="graph1" class="graph" transform="scale(1 1) rotate(0) translate(4 24)">
<title>DoubleSolenoid::Get</title>
<polygon fill="white" stroke="white" points="-4,5 -4,-24 453,-24 453,5 -4,5"/>
<!-- Node1 -->
<g id="node1" class="node"><title>Node1</title>
<polygon fill="#bfbfbf" stroke="black" points="0,-0.5 0,-19.5 106,-19.5 106,-0.5 0,-0.5"/>
<text text-anchor="middle" x="53" y="-7.5" font-family="Helvetica,sans-Serif" font-size="10.00">DoubleSolenoid::Get</text>
</g>
<!-- Node2 -->
<g id="node3" class="node"><title>Node2</title>
<a xlink:href="class_double_solenoid.html#a93df6a563393380c665067b351086a42" target="_top" xlink:title="DoubleSolenoid::UpdateTable">
<polygon fill="white" stroke="black" points="142,-0.5 142,-19.5 286,-19.5 286,-0.5 142,-0.5"/>
<text text-anchor="middle" x="214" y="-7.5" font-family="Helvetica,sans-Serif" font-size="10.00">DoubleSolenoid::UpdateTable</text>
</a>
</g>
<!-- Node1&#45;&gt;Node2 -->
<g id="edge2" class="edge"><title>Node1&#45;&gt;Node2</title>
<path fill="none" stroke="midnightblue" d="M116.147,-10C124.547,-10 133.219,-10 141.762,-10"/>
<polygon fill="midnightblue" stroke="midnightblue" points="116.063,-6.5001 106.063,-10 116.063,-13.5001 116.063,-6.5001"/>
</g>
<!-- Node3 -->
<g id="node5" class="node"><title>Node3</title>
<a xlink:href="class_double_solenoid.html#af969e57bea71834b4423a6fe9d0815fc" target="_top" xlink:title="DoubleSolenoid::InitTable">
<polygon fill="white" stroke="black" points="322,-0.5 322,-19.5 448,-19.5 448,-0.5 322,-0.5"/>
<text text-anchor="middle" x="385" y="-7.5" font-family="Helvetica,sans-Serif" font-size="10.00">DoubleSolenoid::InitTable</text>
</a>
</g>
<!-- Node2&#45;&gt;Node3 -->
<g id="edge4" class="edge"><title>Node2&#45;&gt;Node3</title>
<path fill="none" stroke="midnightblue" d="M296.216,-10C304.799,-10 313.428,-10 321.747,-10"/>
<polygon fill="midnightblue" stroke="midnightblue" points="296.181,-6.5001 286.181,-10 296.181,-13.5001 296.181,-6.5001"/>
</g>
</g>
</svg>
