<?xml version="1.0" encoding="UTF-8" standalone="no"?>
<!DOCTYPE svg PUBLIC "-//W3C//DTD SVG 1.1//EN"
 "http://www.w3.org/Graphics/SVG/1.1/DTD/svg11.dtd">
<!-- Generated by graphviz version 2.28.0 (20110507.0327)
 -->
<!-- Title: Counter::SetUpSource Pages: 1 -->
<svg width="272pt" height="66pt"
 viewBox="0.00 0.00 272.00 66.00" xmlns="http://www.w3.org/2000/svg" xmlns:xlink="http://www.w3.org/1999/xlink">
<g id="graph1" class="graph" transform="scale(1 1) rotate(0) translate(4 62)">
<title>Counter::SetUpSource</title>
<polygon fill="white" stroke="white" points="-4,5 -4,-62 269,-62 269,5 -4,5"/>
<!-- Node1 -->
<g id="node1" class="node"><title>Node1</title>
<polygon fill="#bfbfbf" stroke="black" points="0,-19.5 0,-38.5 114,-38.5 114,-19.5 0,-19.5"/>
<text text-anchor="middle" x="57" y="-26.5" font-family="Helvetica,sans-Serif" font-size="10.00">Counter::SetUpSource</text>
</g>
<!-- Node2 -->
<g id="node3" class="node"><title>Node2</title>
<a xlink:href="class_counter.html#a9c7d57696e482eff75e1e03eaf6f8120" target="_top" xlink:title="Counter::Counter">
<polygon fill="white" stroke="black" points="162,-38.5 162,-57.5 252,-57.5 252,-38.5 162,-38.5"/>
<text text-anchor="middle" x="207" y="-45.5" font-family="Helvetica,sans-Serif" font-size="10.00">Counter::Counter</text>
</a>
</g>
<!-- Node1&#45;&gt;Node2 -->
<g id="edge2" class="edge"><title>Node1&#45;&gt;Node2</title>
<path fill="none" stroke="midnightblue" d="M124.421,-37.527C137.063,-39.15 150.004,-40.8113 161.745,-42.3187"/>
<polygon fill="midnightblue" stroke="midnightblue" points="124.739,-34.0392 114.375,-36.2373 123.848,-40.9822 124.739,-34.0392"/>
</g>
<!-- Node3 -->
<g id="node5" class="node"><title>Node3</title>
<a xlink:href="class_counter.html#ad7660cd2787f0d0b37a99f15a2332340" target="_top" xlink:title="Counter::SetUpSource">
<polygon fill="white" stroke="black" points="150,-0.5 150,-19.5 264,-19.5 264,-0.5 150,-0.5"/>
<text text-anchor="middle" x="207" y="-7.5" font-family="Helvetica,sans-Serif" font-size="10.00">Counter::SetUpSource</text>
</a>
</g>
<!-- Node1&#45;&gt;Node3 -->
<g id="edge4" class="edge"><title>Node1&#45;&gt;Node3</title>
<path fill="none" stroke="midnightblue" d="M124.558,-20.4554C132.984,-19.3737 141.539,-18.2754 149.782,-17.2172"/>
<polygon fill="midnightblue" stroke="midnightblue" points="123.848,-17.0178 114.375,-21.7627 124.739,-23.9608 123.848,-17.0178"/>
</g>
</g>
</svg>
