<?xml version="1.0" encoding="UTF-8" standalone="no"?>
<!DOCTYPE svg PUBLIC "-//W3C//DTD SVG 1.1//EN"
 "http://www.w3.org/Graphics/SVG/1.1/DTD/svg11.dtd">
<!-- Generated by graphviz version 2.28.0 (20110507.0327)
 -->
<!-- Title: ADXL345_I2C::UpdateTable Pages: 1 -->
<svg width="692pt" height="104pt"
 viewBox="0.00 0.00 692.00 104.00" xmlns="http://www.w3.org/2000/svg" xmlns:xlink="http://www.w3.org/1999/xlink">
<g id="graph1" class="graph" transform="scale(1 1) rotate(0) translate(4 100)">
<title>ADXL345_I2C::UpdateTable</title>
<polygon fill="white" stroke="white" points="-4,5 -4,-100 689,-100 689,5 -4,5"/>
<!-- Node1 -->
<g id="node1" class="node"><title>Node1</title>
<polygon fill="#bfbfbf" stroke="black" points="0,-38.5 0,-57.5 136,-57.5 136,-38.5 0,-38.5"/>
<text text-anchor="middle" x="68" y="-45.5" font-family="Helvetica,sans-Serif" font-size="10.00">ADXL345_I2C::UpdateTable</text>
</g>
<!-- Node2 -->
<g id="node3" class="node"><title>Node2</title>
<a xlink:href="class_a_d_x_l345___i2_c.html#a4606027648ba713e43482308b01f54fa" target="_top" xlink:title="ADXL345_I2C::GetX">
<polygon fill="white" stroke="black" points="172.5,-76.5 172.5,-95.5 275.5,-95.5 275.5,-76.5 172.5,-76.5"/>
<text text-anchor="middle" x="224" y="-83.5" font-family="Helvetica,sans-Serif" font-size="10.00">ADXL345_I2C::GetX</text>
</a>
</g>
<!-- Node1&#45;&gt;Node2 -->
<g id="edge2" class="edge"><title>Node1&#45;&gt;Node2</title>
<path fill="none" stroke="midnightblue" d="M107.861,-57.589C128.091,-62.5809 153.021,-68.7324 174.504,-74.0334"/>
<polygon fill="midnightblue" stroke="midnightblue" points="173.871,-77.4823 184.419,-76.4799 175.548,-70.6861 173.871,-77.4823"/>
</g>
<!-- Node6 -->
<g id="node11" class="node"><title>Node6</title>
<a xlink:href="class_a_d_x_l345___i2_c.html#aa42d83f295dcc41a7ba3b510ba6ad594" target="_top" xlink:title="ADXL345_I2C::GetY">
<polygon fill="white" stroke="black" points="172,-38.5 172,-57.5 276,-57.5 276,-38.5 172,-38.5"/>
<text text-anchor="middle" x="224" y="-45.5" font-family="Helvetica,sans-Serif" font-size="10.00">ADXL345_I2C::GetY</text>
</a>
</g>
<!-- Node1&#45;&gt;Node6 -->
<g id="edge10" class="edge"><title>Node1&#45;&gt;Node6</title>
<path fill="none" stroke="midnightblue" d="M136.099,-48C144.627,-48 153.32,-48 161.75,-48"/>
<polygon fill="midnightblue" stroke="midnightblue" points="161.874,-51.5001 171.874,-48 161.874,-44.5001 161.874,-51.5001"/>
</g>
<!-- Node7 -->
<g id="node14" class="node"><title>Node7</title>
<a xlink:href="class_a_d_x_l345___i2_c.html#a772d16004a9f5e67ed391426b88f6d43" target="_top" xlink:title="ADXL345_I2C::GetZ">
<polygon fill="white" stroke="black" points="172.5,-0.5 172.5,-19.5 275.5,-19.5 275.5,-0.5 172.5,-0.5"/>
<text text-anchor="middle" x="224" y="-7.5" font-family="Helvetica,sans-Serif" font-size="10.00">ADXL345_I2C::GetZ</text>
</a>
</g>
<!-- Node1&#45;&gt;Node7 -->
<g id="edge14" class="edge"><title>Node1&#45;&gt;Node7</title>
<path fill="none" stroke="midnightblue" d="M107.861,-38.411C128.091,-33.4191 153.021,-27.2676 174.504,-21.9666"/>
<polygon fill="midnightblue" stroke="midnightblue" points="175.548,-25.3139 184.419,-19.5201 173.871,-18.5177 175.548,-25.3139"/>
</g>
<!-- Node3 -->
<g id="node5" class="node"><title>Node3</title>
<a xlink:href="class_a_d_x_l345___i2_c.html#abc3a0bb889882e01cee781e3ab33af84" target="_top" xlink:title="ADXL345_I2C::GetAcceleration">
<polygon fill="white" stroke="black" points="312,-38.5 312,-57.5 464,-57.5 464,-38.5 312,-38.5"/>
<text text-anchor="middle" x="388" y="-45.5" font-family="Helvetica,sans-Serif" font-size="10.00">ADXL345_I2C::GetAcceleration</text>
</a>
</g>
<!-- Node2&#45;&gt;Node3 -->
<g id="edge4" class="edge"><title>Node2&#45;&gt;Node3</title>
<path fill="none" stroke="midnightblue" d="M265.879,-76.411C287.353,-71.3739 313.86,-65.1562 336.597,-59.8229"/>
<polygon fill="midnightblue" stroke="midnightblue" points="337.478,-63.2113 346.415,-57.5201 335.879,-56.3963 337.478,-63.2113"/>
</g>
<!-- Node4 -->
<g id="node7" class="node"><title>Node4</title>
<a xlink:href="class_i2_c.html#a4115857de2e0675f0483787933be0552" target="_top" xlink:title="I2C::Read">
<polygon fill="white" stroke="black" points="500.5,-38.5 500.5,-57.5 559.5,-57.5 559.5,-38.5 500.5,-38.5"/>
<text text-anchor="middle" x="530" y="-45.5" font-family="Helvetica,sans-Serif" font-size="10.00">I2C::Read</text>
</a>
</g>
<!-- Node3&#45;&gt;Node4 -->
<g id="edge6" class="edge"><title>Node3&#45;&gt;Node4</title>
<path fill="none" stroke="midnightblue" d="M464.327,-48C473.238,-48 482.032,-48 490.129,-48"/>
<polygon fill="midnightblue" stroke="midnightblue" points="490.322,-51.5001 500.322,-48 490.322,-44.5001 490.322,-51.5001"/>
</g>
<!-- Node5 -->
<g id="node9" class="node"><title>Node5</title>
<a xlink:href="class_i2_c.html#aefe3a40857733f5ec164dbe1fb82b299" target="_top" xlink:title="I2C::Transaction">
<polygon fill="white" stroke="black" points="596.5,-38.5 596.5,-57.5 683.5,-57.5 683.5,-38.5 596.5,-38.5"/>
<text text-anchor="middle" x="640" y="-45.5" font-family="Helvetica,sans-Serif" font-size="10.00">I2C::Transaction</text>
</a>
</g>
<!-- Node4&#45;&gt;Node5 -->
<g id="edge8" class="edge"><title>Node4&#45;&gt;Node5</title>
<path fill="none" stroke="midnightblue" d="M559.658,-48C567.831,-48 577.005,-48 586.136,-48"/>
<polygon fill="midnightblue" stroke="midnightblue" points="586.371,-51.5001 596.371,-48 586.371,-44.5001 586.371,-51.5001"/>
</g>
<!-- Node6&#45;&gt;Node3 -->
<g id="edge12" class="edge"><title>Node6&#45;&gt;Node3</title>
<path fill="none" stroke="midnightblue" d="M276.258,-48C284.386,-48 292.979,-48 301.638,-48"/>
<polygon fill="midnightblue" stroke="midnightblue" points="301.81,-51.5001 311.81,-48 301.809,-44.5001 301.81,-51.5001"/>
</g>
<!-- Node7&#45;&gt;Node3 -->
<g id="edge16" class="edge"><title>Node7&#45;&gt;Node3</title>
<path fill="none" stroke="midnightblue" d="M265.879,-19.589C287.353,-24.6261 313.86,-30.8438 336.597,-36.1771"/>
<polygon fill="midnightblue" stroke="midnightblue" points="335.879,-39.6037 346.415,-38.4799 337.478,-32.7887 335.879,-39.6037"/>
</g>
</g>
</svg>
