<?xml version="1.0" encoding="UTF-8" standalone="no"?>
<!DOCTYPE svg PUBLIC "-//W3C//DTD SVG 1.1//EN"
 "http://www.w3.org/Graphics/SVG/1.1/DTD/svg11.dtd">
<!-- Generated by graphviz version 2.28.0 (20110507.0327)
 -->
<!-- Title: Encoder Pages: 1 -->
<svg width="377pt" height="140pt"
 viewBox="0.00 0.00 377.00 140.00" xmlns="http://www.w3.org/2000/svg" xmlns:xlink="http://www.w3.org/1999/xlink">
<g id="graph1" class="graph" transform="scale(1 1) rotate(0) translate(4 136)">
<title>Encoder</title>
<polygon fill="white" stroke="white" points="-4,5 -4,-136 374,-136 374,5 -4,5"/>
<!-- Node1 -->
<g id="node1" class="node"><title>Node1</title>
<polygon fill="#bfbfbf" stroke="black" points="141.5,-0.5 141.5,-19.5 194.5,-19.5 194.5,-0.5 141.5,-0.5"/>
<text text-anchor="middle" x="168" y="-7.5" font-family="Helvetica,sans-Serif" font-size="10.00">Encoder</text>
</g>
<!-- Node2 -->
<g id="node2" class="node"><title>Node2</title>
<a xlink:href="class_sensor_base.html" target="_top" xlink:title="SensorBase">
<polygon fill="white" stroke="black" points="0,-56.5 0,-75.5 70,-75.5 70,-56.5 0,-56.5"/>
<text text-anchor="middle" x="35" y="-63.5" font-family="Helvetica,sans-Serif" font-size="10.00">SensorBase</text>
</a>
</g>
<!-- Node2&#45;&gt;Node1 -->
<g id="edge2" class="edge"><title>Node2&#45;&gt;Node1</title>
<path fill="none" stroke="midnightblue" d="M60.2963,-52.3678C83.7482,-42.2553 118.245,-28.3486 141.944,-19.5164"/>
<polygon fill="midnightblue" stroke="midnightblue" points="58.7427,-49.2272 50.9855,-56.4435 61.5498,-55.6397 58.7427,-49.2272"/>
</g>
<!-- Node2&#45;&gt;Node1 -->
<g id="edge14" class="edge"><title>Node2&#45;&gt;Node1</title>
<path fill="none" stroke="midnightblue" d="M70.5243,-52.9058C97.0716,-42.7536 131.943,-28.5063 152.104,-19.5164"/>
<polygon fill="midnightblue" stroke="midnightblue" points="69.28,-49.6344 61.163,-56.4435 71.7546,-56.1824 69.28,-49.6344"/>
</g>
<!-- Node3 -->
<g id="node4" class="node"><title>Node3</title>
<a xlink:href="class_error_base.html" target="_top" xlink:title="ErrorBase">
<polygon fill="white" stroke="black" points="5,-112.5 5,-131.5 65,-131.5 65,-112.5 5,-112.5"/>
<text text-anchor="middle" x="35" y="-119.5" font-family="Helvetica,sans-Serif" font-size="10.00">ErrorBase</text>
</a>
</g>
<!-- Node3&#45;&gt;Node2 -->
<g id="edge4" class="edge"><title>Node3&#45;&gt;Node2</title>
<path fill="none" stroke="midnightblue" d="M35,-101.805C35,-92.9102 35,-82.7798 35,-75.7511"/>
<polygon fill="midnightblue" stroke="midnightblue" points="31.5001,-102.083 35,-112.083 38.5001,-102.083 31.5001,-102.083"/>
</g>
<!-- Node4 -->
<g id="node6" class="node"><title>Node4</title>
<a xlink:href="class_counter_base.html" target="_top" xlink:title="CounterBase">
<polygon fill="white" stroke="black" points="88.5,-56.5 88.5,-75.5 161.5,-75.5 161.5,-56.5 88.5,-56.5"/>
<text text-anchor="middle" x="125" y="-63.5" font-family="Helvetica,sans-Serif" font-size="10.00">CounterBase</text>
</a>
</g>
<!-- Node4&#45;&gt;Node1 -->
<g id="edge6" class="edge"><title>Node4&#45;&gt;Node1</title>
<path fill="none" stroke="midnightblue" d="M132.524,-47.5656C139.131,-38.2747 148.32,-27.2484 155.901,-19.7511"/>
<polygon fill="midnightblue" stroke="midnightblue" points="129.495,-45.8023 126.934,-56.083 135.347,-49.6433 129.495,-45.8023"/>
</g>
<!-- Node4&#45;&gt;Node1 -->
<g id="edge16" class="edge"><title>Node4&#45;&gt;Node1</title>
<path fill="none" stroke="midnightblue" d="M144.219,-48.7175C152.727,-39.1997 161.621,-27.5608 166.163,-19.7511"/>
<polygon fill="midnightblue" stroke="midnightblue" points="141.586,-46.4083 137.267,-56.083 146.676,-51.2131 141.586,-46.4083"/>
</g>
<!-- Node5 -->
<g id="node8" class="node"><title>Node5</title>
<a xlink:href="class_p_i_d_source.html" target="_top" xlink:title="PIDSource">
<polygon fill="white" stroke="black" points="179.5,-56.5 179.5,-75.5 242.5,-75.5 242.5,-56.5 179.5,-56.5"/>
<text text-anchor="middle" x="211" y="-63.5" font-family="Helvetica,sans-Serif" font-size="10.00">PIDSource</text>
</a>
</g>
<!-- Node5&#45;&gt;Node1 -->
<g id="edge8" class="edge"><title>Node5&#45;&gt;Node1</title>
<path fill="none" stroke="midnightblue" d="M191.781,-48.7175C183.273,-39.1997 174.379,-27.5608 169.837,-19.7511"/>
<polygon fill="midnightblue" stroke="midnightblue" points="189.324,-51.2131 198.733,-56.083 194.414,-46.4083 189.324,-51.2131"/>
</g>
<!-- Node5&#45;&gt;Node1 -->
<g id="edge18" class="edge"><title>Node5&#45;&gt;Node1</title>
<path fill="none" stroke="midnightblue" d="M203.476,-47.5656C196.869,-38.2747 187.68,-27.2484 180.099,-19.7511"/>
<polygon fill="midnightblue" stroke="midnightblue" points="200.653,-49.6433 209.066,-56.083 206.505,-45.8023 200.653,-49.6433"/>
</g>
<!-- Node6 -->
<g id="node10" class="node"><title>Node6</title>
<a xlink:href="class_live_window_sendable.html" target="_top" xlink:title="LiveWindowSendable">
<polygon fill="white" stroke="black" points="261,-56.5 261,-75.5 369,-75.5 369,-56.5 261,-56.5"/>
<text text-anchor="middle" x="315" y="-63.5" font-family="Helvetica,sans-Serif" font-size="10.00">LiveWindowSendable</text>
</a>
</g>
<!-- Node6&#45;&gt;Node1 -->
<g id="edge10" class="edge"><title>Node6&#45;&gt;Node1</title>
<path fill="none" stroke="midnightblue" d="M277.106,-53.172C247.839,-43.0039 208.793,-28.5852 186.104,-19.5164"/>
<polygon fill="midnightblue" stroke="midnightblue" points="276.024,-56.5011 286.619,-56.4435 278.3,-49.8816 276.024,-56.5011"/>
</g>
<!-- Node6&#45;&gt;Node1 -->
<g id="edge20" class="edge"><title>Node6&#45;&gt;Node1</title>
<path fill="none" stroke="midnightblue" d="M287.293,-52.7033C260.683,-42.3626 220.994,-27.8819 194.706,-18.9883"/>
<polygon fill="midnightblue" stroke="midnightblue" points="286.209,-56.038 296.796,-56.4435 288.773,-49.5243 286.209,-56.038"/>
</g>
<!-- Node7 -->
<g id="node12" class="node"><title>Node7</title>
<a xlink:href="class_sendable.html" target="_top" xlink:title="Sendable">
<polygon fill="white" stroke="black" points="286.5,-112.5 286.5,-131.5 343.5,-131.5 343.5,-112.5 286.5,-112.5"/>
<text text-anchor="middle" x="315" y="-119.5" font-family="Helvetica,sans-Serif" font-size="10.00">Sendable</text>
</a>
</g>
<!-- Node7&#45;&gt;Node6 -->
<g id="edge12" class="edge"><title>Node7&#45;&gt;Node6</title>
<path fill="none" stroke="midnightblue" d="M315,-101.805C315,-92.9102 315,-82.7798 315,-75.7511"/>
<polygon fill="midnightblue" stroke="midnightblue" points="311.5,-102.083 315,-112.083 318.5,-102.083 311.5,-102.083"/>
</g>
</g>
</svg>
