<?xml version="1.0" encoding="UTF-8" standalone="no"?>
<!DOCTYPE svg PUBLIC "-//W3C//DTD SVG 1.1//EN"
 "http://www.w3.org/Graphics/SVG/1.1/DTD/svg11.dtd">
<!-- Generated by graphviz version 2.28.0 (20110507.0327)
 -->
<!-- Title: Sendable::GetSmartDashboardType Pages: 1 -->
<svg width="518pt" height="28pt"
 viewBox="0.00 0.00 518.00 28.00" xmlns="http://www.w3.org/2000/svg" xmlns:xlink="http://www.w3.org/1999/xlink">
<g id="graph1" class="graph" transform="scale(1 1) rotate(0) translate(4 24)">
<title>Sendable::GetSmartDashboardType</title>
<polygon fill="white" stroke="white" points="-4,5 -4,-24 515,-24 515,5 -4,5"/>
<!-- Node1 -->
<g id="node1" class="node"><title>Node1</title>
<polygon fill="#bfbfbf" stroke="black" points="0.5,-0.5 0.5,-19.5 173.5,-19.5 173.5,-0.5 0.5,-0.5"/>
<text text-anchor="middle" x="87" y="-7.5" font-family="Helvetica,sans-Serif" font-size="10.00">Sendable::GetSmartDashboardType</text>
</g>
<!-- Node2 -->
<g id="node3" class="node"><title>Node2</title>
<a xlink:href="class_smart_dashboard.html#a8d59e5321699ba6746c80374687818d9" target="_top" xlink:title="SmartDashboard::PutData">
<polygon fill="white" stroke="black" points="210.5,-0.5 210.5,-19.5 341.5,-19.5 341.5,-0.5 210.5,-0.5"/>
<text text-anchor="middle" x="276" y="-7.5" font-family="Helvetica,sans-Serif" font-size="10.00">SmartDashboard::PutData</text>
</a>
</g>
<!-- Node1&#45;&gt;Node2 -->
<g id="edge2" class="edge"><title>Node1&#45;&gt;Node2</title>
<path fill="none" stroke="midnightblue" d="M183.766,-10C192.806,-10 201.818,-10 210.464,-10"/>
<polygon fill="midnightblue" stroke="midnightblue" points="183.565,-6.5001 173.565,-10 183.565,-13.5001 183.565,-6.5001"/>
</g>
<!-- Node3 -->
<g id="node5" class="node"><title>Node3</title>
<a xlink:href="class_smart_dashboard.html#aeca88b06d1e56f457365f742d029c06c" target="_top" xlink:title="SmartDashboard::PutData">
<polygon fill="white" stroke="black" points="378.5,-0.5 378.5,-19.5 509.5,-19.5 509.5,-0.5 378.5,-0.5"/>
<text text-anchor="middle" x="444" y="-7.5" font-family="Helvetica,sans-Serif" font-size="10.00">SmartDashboard::PutData</text>
</a>
</g>
<!-- Node2&#45;&gt;Node3 -->
<g id="edge4" class="edge"><title>Node2&#45;&gt;Node3</title>
<path fill="none" stroke="midnightblue" d="M351.898,-10C360.693,-10 369.609,-10 378.248,-10"/>
<polygon fill="midnightblue" stroke="midnightblue" points="351.655,-6.5001 341.655,-10 351.655,-13.5001 351.655,-6.5001"/>
</g>
</g>
</svg>
