<?xml version="1.0" encoding="UTF-8" standalone="no"?>
<!DOCTYPE svg PUBLIC "-//W3C//DTD SVG 1.1//EN"
 "http://www.w3.org/Graphics/SVG/1.1/DTD/svg11.dtd">
<!-- Generated by graphviz version 2.28.0 (20110507.0327)
 -->
<!-- Title: MotorSafetyHelper::Feed Pages: 1 -->
<svg width="616pt" height="498pt"
 viewBox="0.00 0.00 616.00 498.00" xmlns="http://www.w3.org/2000/svg" xmlns:xlink="http://www.w3.org/1999/xlink">
<g id="graph1" class="graph" transform="scale(1 1) rotate(0) translate(4 494)">
<title>MotorSafetyHelper::Feed</title>
<polygon fill="white" stroke="white" points="-4,5 -4,-494 613,-494 613,5 -4,5"/>
<!-- Node1 -->
<g id="node1" class="node"><title>Node1</title>
<polygon fill="#bfbfbf" stroke="black" points="0.5,-325.5 0.5,-344.5 125.5,-344.5 125.5,-325.5 0.5,-325.5"/>
<text text-anchor="middle" x="63" y="-332.5" font-family="Helvetica,sans-Serif" font-size="10.00">MotorSafetyHelper::Feed</text>
</g>
<!-- Node2 -->
<g id="node3" class="node"><title>Node2</title>
<a xlink:href="class_c_a_n_jaguar.html#a3a22b02ece406993619f993b1e09012a" target="_top" xlink:title="CANJaguar::Set">
<polygon fill="white" stroke="black" points="186,-432.5 186,-451.5 272,-451.5 272,-432.5 186,-432.5"/>
<text text-anchor="middle" x="229" y="-439.5" font-family="Helvetica,sans-Serif" font-size="10.00">CANJaguar::Set</text>
</a>
</g>
<!-- Node1&#45;&gt;Node2 -->
<g id="edge2" class="edge"><title>Node1&#45;&gt;Node2</title>
<path fill="none" stroke="midnightblue" d="M78.8672,-352.446C96.6934,-372.301 128.398,-404.381 162,-423 169.301,-427.045 177.544,-430.299 185.667,-432.891"/>
<polygon fill="midnightblue" stroke="midnightblue" points="81.3427,-349.961 72.112,-344.76 76.0848,-354.582 81.3427,-349.961"/>
</g>
<!-- Node5 -->
<g id="node9" class="node"><title>Node5</title>
<a xlink:href="class_c_a_n_talon.html#ac3549186d2e6fdeeaabbd1648f31e02c" target="_top" xlink:title="CANTalon::Set">
<polygon fill="white" stroke="black" points="188.5,-394.5 188.5,-413.5 269.5,-413.5 269.5,-394.5 188.5,-394.5"/>
<text text-anchor="middle" x="229" y="-401.5" font-family="Helvetica,sans-Serif" font-size="10.00">CANTalon::Set</text>
</a>
</g>
<!-- Node1&#45;&gt;Node5 -->
<g id="edge8" class="edge"><title>Node1&#45;&gt;Node5</title>
<path fill="none" stroke="midnightblue" d="M89.7947,-349.407C109.244,-359.895 136.789,-373.961 162,-384 171.677,-387.853 182.4,-391.398 192.339,-394.398"/>
<polygon fill="midnightblue" stroke="midnightblue" points="91.3981,-346.295 80.9431,-344.579 88.0463,-352.44 91.3981,-346.295"/>
</g>
<!-- Node7 -->
<g id="node13" class="node"><title>Node7</title>
<a xlink:href="class_robot_drive.html#a2e7fa1a9713332281012e8aae5d9570e" target="_top" xlink:title="RobotDrive::MecanumDrive\l_Cartesian">
<polygon fill="white" stroke="black" points="162.5,-345 162.5,-375 295.5,-375 295.5,-345 162.5,-345"/>
<text text-anchor="start" x="170.5" y="-363" font-family="Helvetica,sans-Serif" font-size="10.00">RobotDrive::MecanumDrive</text>
<text text-anchor="middle" x="229" y="-352" font-family="Helvetica,sans-Serif" font-size="10.00">_Cartesian</text>
</a>
</g>
<!-- Node1&#45;&gt;Node7 -->
<g id="edge12" class="edge"><title>Node1&#45;&gt;Node7</title>
<path fill="none" stroke="midnightblue" d="M135.493,-345.898C144.397,-347.256 153.469,-348.639 162.28,-349.982"/>
<polygon fill="midnightblue" stroke="midnightblue" points="135.947,-342.427 125.534,-344.38 134.892,-349.347 135.947,-342.427"/>
</g>
<!-- Node8 -->
<g id="node15" class="node"><title>Node8</title>
<a xlink:href="class_robot_drive.html#a3ba6d4ec2c07575543c4f47d348332f1" target="_top" xlink:title="RobotDrive::MecanumDrive\l_Polar">
<polygon fill="white" stroke="black" points="162.5,-296 162.5,-326 295.5,-326 295.5,-296 162.5,-296"/>
<text text-anchor="start" x="170.5" y="-314" font-family="Helvetica,sans-Serif" font-size="10.00">RobotDrive::MecanumDrive</text>
<text text-anchor="middle" x="229" y="-303" font-family="Helvetica,sans-Serif" font-size="10.00">_Polar</text>
</a>
</g>
<!-- Node1&#45;&gt;Node8 -->
<g id="edge14" class="edge"><title>Node1&#45;&gt;Node8</title>
<path fill="none" stroke="midnightblue" d="M135.493,-324.538C144.397,-323.235 153.469,-321.907 162.28,-320.617"/>
<polygon fill="midnightblue" stroke="midnightblue" points="134.922,-321.084 125.534,-325.995 135.936,-328.01 134.922,-321.084"/>
</g>
<!-- Node10 -->
<g id="node19" class="node"><title>Node10</title>
<a xlink:href="class_robot_drive.html#a6f17b92a6867d512188b497f192f0715" target="_top" xlink:title="RobotDrive::SetLeftRight\lMotorOutputs">
<polygon fill="white" stroke="black" points="168,-247 168,-277 290,-277 290,-247 168,-247"/>
<text text-anchor="start" x="176" y="-265" font-family="Helvetica,sans-Serif" font-size="10.00">RobotDrive::SetLeftRight</text>
<text text-anchor="middle" x="229" y="-254" font-family="Helvetica,sans-Serif" font-size="10.00">MotorOutputs</text>
</a>
</g>
<!-- Node1&#45;&gt;Node10 -->
<g id="edge18" class="edge"><title>Node1&#45;&gt;Node10</title>
<path fill="none" stroke="midnightblue" d="M91.1056,-320.876C110.605,-310.924 137.648,-297.548 162,-287 169.87,-283.591 178.371,-280.177 186.569,-277.016"/>
<polygon fill="midnightblue" stroke="midnightblue" points="89.4802,-317.776 82.1843,-325.458 92.6787,-324.002 89.4802,-317.776"/>
</g>
<!-- Node15 -->
<g id="node29" class="node"><title>Node15</title>
<a xlink:href="class_safe_p_w_m.html#af1ed936d88f3ee6446b01c17feb24b78" target="_top" xlink:title="SafePWM::SetSpeed">
<polygon fill="white" stroke="black" points="174,-95.5 174,-114.5 284,-114.5 284,-95.5 174,-95.5"/>
<text text-anchor="middle" x="229" y="-102.5" font-family="Helvetica,sans-Serif" font-size="10.00">SafePWM::SetSpeed</text>
</a>
</g>
<!-- Node1&#45;&gt;Node15 -->
<g id="edge28" class="edge"><title>Node1&#45;&gt;Node15</title>
<path fill="none" stroke="midnightblue" d="M76.8332,-317.002C109.711,-270.894 196.131,-149.695 221.133,-114.631"/>
<polygon fill="midnightblue" stroke="midnightblue" points="73.7941,-315.236 70.8381,-325.41 79.4936,-319.3 73.7941,-315.236"/>
</g>
<!-- Node3 -->
<g id="node5" class="node"><title>Node3</title>
<a xlink:href="class_c_a_n_jaguar.html#a2355d55f42083ab82870c79f742620e4" target="_top" xlink:title="CANJaguar::PIDWrite">
<polygon fill="white" stroke="black" points="345,-470.5 345,-489.5 455,-489.5 455,-470.5 345,-470.5"/>
<text text-anchor="middle" x="400" y="-477.5" font-family="Helvetica,sans-Serif" font-size="10.00">CANJaguar::PIDWrite</text>
</a>
</g>
<!-- Node2&#45;&gt;Node3 -->
<g id="edge4" class="edge"><title>Node2&#45;&gt;Node3</title>
<path fill="none" stroke="midnightblue" d="M282.194,-453.736C306.135,-459.119 334.151,-465.419 356.742,-470.498"/>
<polygon fill="midnightblue" stroke="midnightblue" points="282.734,-450.27 272.21,-451.491 281.198,-457.1 282.734,-450.27"/>
</g>
<!-- Node4 -->
<g id="node7" class="node"><title>Node4</title>
<a xlink:href="class_c_a_n_jaguar_test.html#a3c9026e62eb65e2d497bb7bbfaded297" target="_top" xlink:title="CANJaguarTest::SetJaguar">
<polygon fill="white" stroke="black" points="333,-432.5 333,-451.5 467,-451.5 467,-432.5 333,-432.5"/>
<text text-anchor="middle" x="400" y="-439.5" font-family="Helvetica,sans-Serif" font-size="10.00">CANJaguarTest::SetJaguar</text>
</a>
</g>
<!-- Node2&#45;&gt;Node4 -->
<g id="edge6" class="edge"><title>Node2&#45;&gt;Node4</title>
<path fill="none" stroke="midnightblue" d="M282.381,-442C298.294,-442 315.992,-442 332.695,-442"/>
<polygon fill="midnightblue" stroke="midnightblue" points="282.21,-438.5 272.21,-442 282.21,-445.5 282.21,-438.5"/>
</g>
<!-- Node6 -->
<g id="node11" class="node"><title>Node6</title>
<a xlink:href="class_c_a_n_talon.html#a3e09bf792ecee332f4302c164a080c04" target="_top" xlink:title="CANTalon::PIDWrite">
<polygon fill="white" stroke="black" points="347.5,-394.5 347.5,-413.5 452.5,-413.5 452.5,-394.5 347.5,-394.5"/>
<text text-anchor="middle" x="400" y="-401.5" font-family="Helvetica,sans-Serif" font-size="10.00">CANTalon::PIDWrite</text>
</a>
</g>
<!-- Node5&#45;&gt;Node6 -->
<g id="edge10" class="edge"><title>Node5&#45;&gt;Node6</title>
<path fill="none" stroke="midnightblue" d="M279.766,-404C301.074,-404 325.949,-404 347.45,-404"/>
<polygon fill="midnightblue" stroke="midnightblue" points="279.623,-400.5 269.623,-404 279.623,-407.5 279.623,-400.5"/>
</g>
<!-- Node9 -->
<g id="node17" class="node"><title>Node9</title>
<a xlink:href="class_robot_drive.html#ad21b09eed120e95f1b5741a26f2f9084" target="_top" xlink:title="RobotDrive::HolonomicDrive">
<polygon fill="white" stroke="black" points="332,-342.5 332,-361.5 468,-361.5 468,-342.5 332,-342.5"/>
<text text-anchor="middle" x="400" y="-349.5" font-family="Helvetica,sans-Serif" font-size="10.00">RobotDrive::HolonomicDrive</text>
</a>
</g>
<!-- Node8&#45;&gt;Node9 -->
<g id="edge16" class="edge"><title>Node8&#45;&gt;Node9</title>
<path fill="none" stroke="midnightblue" d="M301.897,-328.442C321.684,-333.243 342.415,-338.272 359.617,-342.446"/>
<polygon fill="midnightblue" stroke="midnightblue" points="302.513,-324.99 291.97,-326.034 300.863,-331.793 302.513,-324.99"/>
</g>
<!-- Node11 -->
<g id="node21" class="node"><title>Node11</title>
<a xlink:href="class_robot_drive.html#aae039ef574600e668f8bc03ef47f37a4" target="_top" xlink:title="RobotDrive::RobotDrive">
<polygon fill="white" stroke="black" points="342,-304.5 342,-323.5 458,-323.5 458,-304.5 342,-304.5"/>
<text text-anchor="middle" x="400" y="-311.5" font-family="Helvetica,sans-Serif" font-size="10.00">RobotDrive::RobotDrive</text>
</a>
</g>
<!-- Node10&#45;&gt;Node11 -->
<g id="edge20" class="edge"><title>Node10&#45;&gt;Node11</title>
<path fill="none" stroke="midnightblue" d="M285.085,-280.229C300.253,-285.137 316.733,-290.367 332,-295 342.528,-298.195 354.038,-301.519 364.5,-304.477"/>
<polygon fill="midnightblue" stroke="midnightblue" points="285.925,-276.821 275.332,-277.059 283.761,-283.479 285.925,-276.821"/>
</g>
<!-- Node12 -->
<g id="node23" class="node"><title>Node12</title>
<a xlink:href="class_robot_drive.html#a00f3c6f7906685fe2f98ceaa8bb7e188" target="_top" xlink:title="RobotDrive::Drive">
<polygon fill="white" stroke="black" points="355,-266.5 355,-285.5 445,-285.5 445,-266.5 355,-266.5"/>
<text text-anchor="middle" x="400" y="-273.5" font-family="Helvetica,sans-Serif" font-size="10.00">RobotDrive::Drive</text>
</a>
</g>
<!-- Node10&#45;&gt;Node12 -->
<g id="edge22" class="edge"><title>Node10&#45;&gt;Node12</title>
<path fill="none" stroke="midnightblue" d="M300.209,-267.816C318.694,-269.347 338.119,-270.957 354.806,-272.339"/>
<polygon fill="midnightblue" stroke="midnightblue" points="300.314,-264.313 290.059,-266.975 299.736,-271.289 300.314,-264.313"/>
</g>
<!-- Node13 -->
<g id="node25" class="node"><title>Node13</title>
<a xlink:href="class_robot_drive.html#a3df206fa45bf88254e7cd75adca4e973" target="_top" xlink:title="RobotDrive::TankDrive">
<polygon fill="white" stroke="black" points="344.5,-228.5 344.5,-247.5 455.5,-247.5 455.5,-228.5 344.5,-228.5"/>
<text text-anchor="middle" x="400" y="-235.5" font-family="Helvetica,sans-Serif" font-size="10.00">RobotDrive::TankDrive</text>
</a>
</g>
<!-- Node10&#45;&gt;Node13 -->
<g id="edge24" class="edge"><title>Node10&#45;&gt;Node13</title>
<path fill="none" stroke="midnightblue" d="M300.181,-252.033C314.975,-249.933 330.372,-247.746 344.486,-245.742"/>
<polygon fill="midnightblue" stroke="midnightblue" points="299.467,-248.6 290.059,-253.471 300.452,-255.53 299.467,-248.6"/>
</g>
<!-- Node14 -->
<g id="node27" class="node"><title>Node14</title>
<a xlink:href="class_robot_drive.html#ac95118d7b535c4f3fb3d56ba5b041e40" target="_top" xlink:title="RobotDrive::ArcadeDrive">
<polygon fill="white" stroke="black" points="339.5,-190.5 339.5,-209.5 460.5,-209.5 460.5,-190.5 339.5,-190.5"/>
<text text-anchor="middle" x="400" y="-197.5" font-family="Helvetica,sans-Serif" font-size="10.00">RobotDrive::ArcadeDrive</text>
</a>
</g>
<!-- Node10&#45;&gt;Node14 -->
<g id="edge26" class="edge"><title>Node10&#45;&gt;Node14</title>
<path fill="none" stroke="midnightblue" d="M272.298,-242.796C290.475,-234.903 312.081,-225.993 332,-219 341.697,-215.596 352.341,-212.357 362.234,-209.55"/>
<polygon fill="midnightblue" stroke="midnightblue" points="270.885,-239.594 263.132,-246.815 273.696,-246.004 270.885,-239.594"/>
</g>
<!-- Node16 -->
<g id="node31" class="node"><title>Node16</title>
<a xlink:href="class_jaguar.html#aac394eb2d4f46b29b477a7939cdec2a9" target="_top" xlink:title="Jaguar::Set">
<polygon fill="white" stroke="black" points="367,-152.5 367,-171.5 433,-171.5 433,-152.5 367,-152.5"/>
<text text-anchor="middle" x="400" y="-159.5" font-family="Helvetica,sans-Serif" font-size="10.00">Jaguar::Set</text>
</a>
</g>
<!-- Node15&#45;&gt;Node16 -->
<g id="edge30" class="edge"><title>Node15&#45;&gt;Node16</title>
<path fill="none" stroke="midnightblue" d="M263.611,-118.297C283.385,-125.925 308.955,-135.453 332,-143 343.26,-146.688 355.718,-150.336 366.806,-153.435"/>
<polygon fill="midnightblue" stroke="midnightblue" points="264.714,-114.971 254.126,-114.612 262.18,-121.496 264.714,-114.971"/>
</g>
<!-- Node18 -->
<g id="node35" class="node"><title>Node18</title>
<a xlink:href="class_talon.html#a139bb330021efa545fd6047fa291dbeb" target="_top" xlink:title="Talon::Set">
<polygon fill="white" stroke="black" points="369.5,-114.5 369.5,-133.5 430.5,-133.5 430.5,-114.5 369.5,-114.5"/>
<text text-anchor="middle" x="400" y="-121.5" font-family="Helvetica,sans-Serif" font-size="10.00">Talon::Set</text>
</a>
</g>
<!-- Node15&#45;&gt;Node18 -->
<g id="edge34" class="edge"><title>Node15&#45;&gt;Node18</title>
<path fill="none" stroke="midnightblue" d="M294.496,-112.251C320.25,-115.146 348.635,-118.338 369.315,-120.663"/>
<polygon fill="midnightblue" stroke="midnightblue" points="294.731,-108.756 284.403,-111.116 293.949,-115.712 294.731,-108.756"/>
</g>
<!-- Node20 -->
<g id="node39" class="node"><title>Node20</title>
<a xlink:href="class_talon_s_r_x.html#a9d7dab854708bf4deb2d57da2cbcf9a9" target="_top" xlink:title="TalonSRX::Set">
<polygon fill="white" stroke="black" points="360,-76.5 360,-95.5 440,-95.5 440,-76.5 360,-76.5"/>
<text text-anchor="middle" x="400" y="-83.5" font-family="Helvetica,sans-Serif" font-size="10.00">TalonSRX::Set</text>
</a>
</g>
<!-- Node15&#45;&gt;Node20 -->
<g id="edge38" class="edge"><title>Node15&#45;&gt;Node20</title>
<path fill="none" stroke="midnightblue" d="M294.39,-97.7608C316.477,-95.2777 340.51,-92.5758 359.964,-90.3886"/>
<polygon fill="midnightblue" stroke="midnightblue" points="293.949,-94.2883 284.403,-98.8837 294.731,-101.244 293.949,-94.2883"/>
</g>
<!-- Node22 -->
<g id="node43" class="node"><title>Node22</title>
<a xlink:href="class_victor.html#aeb1931d5462dcce004ba9bb5079b501a" target="_top" xlink:title="Victor::Set">
<polygon fill="white" stroke="black" points="368.5,-38.5 368.5,-57.5 431.5,-57.5 431.5,-38.5 368.5,-38.5"/>
<text text-anchor="middle" x="400" y="-45.5" font-family="Helvetica,sans-Serif" font-size="10.00">Victor::Set</text>
</a>
</g>
<!-- Node15&#45;&gt;Node22 -->
<g id="edge42" class="edge"><title>Node15&#45;&gt;Node22</title>
<path fill="none" stroke="midnightblue" d="M263.611,-91.7031C283.385,-84.0755 308.955,-74.5467 332,-67 343.835,-63.1243 356.992,-59.2916 368.492,-56.0947"/>
<polygon fill="midnightblue" stroke="midnightblue" points="262.18,-88.5043 254.126,-95.3876 264.714,-95.0294 262.18,-88.5043"/>
</g>
<!-- Node24 -->
<g id="node47" class="node"><title>Node24</title>
<a xlink:href="class_victor_s_p.html#a5a776c3577f261f2679f77f5212e9d9c" target="_top" xlink:title="VictorSP::Set">
<polygon fill="white" stroke="black" points="361.5,-0.5 361.5,-19.5 438.5,-19.5 438.5,-0.5 361.5,-0.5"/>
<text text-anchor="middle" x="400" y="-7.5" font-family="Helvetica,sans-Serif" font-size="10.00">VictorSP::Set</text>
</a>
</g>
<!-- Node15&#45;&gt;Node24 -->
<g id="edge46" class="edge"><title>Node15&#45;&gt;Node24</title>
<path fill="none" stroke="midnightblue" d="M247.601,-88.6998C266.945,-71.5861 299.595,-44.9879 332,-29 341.108,-24.5063 351.452,-20.9159 361.241,-18.1199"/>
<polygon fill="midnightblue" stroke="midnightblue" points="245.254,-86.1027 240.164,-95.3949 249.938,-91.3049 245.254,-86.1027"/>
</g>
<!-- Node17 -->
<g id="node33" class="node"><title>Node17</title>
<a xlink:href="class_jaguar.html#af03d1c5b19cae7363d9eafdcb9ec354e" target="_top" xlink:title="Jaguar::PIDWrite">
<polygon fill="white" stroke="black" points="511,-152.5 511,-171.5 601,-171.5 601,-152.5 511,-152.5"/>
<text text-anchor="middle" x="556" y="-159.5" font-family="Helvetica,sans-Serif" font-size="10.00">Jaguar::PIDWrite</text>
</a>
</g>
<!-- Node16&#45;&gt;Node17 -->
<g id="edge32" class="edge"><title>Node16&#45;&gt;Node17</title>
<path fill="none" stroke="midnightblue" d="M443.483,-162C464.411,-162 489.628,-162 510.785,-162"/>
<polygon fill="midnightblue" stroke="midnightblue" points="443.283,-158.5 433.283,-162 443.283,-165.5 443.283,-158.5"/>
</g>
<!-- Node19 -->
<g id="node37" class="node"><title>Node19</title>
<a xlink:href="class_talon.html#a8485adbd32b68543d34bb7b2ad4d3ccb" target="_top" xlink:title="Talon::PIDWrite">
<polygon fill="white" stroke="black" points="513.5,-114.5 513.5,-133.5 598.5,-133.5 598.5,-114.5 513.5,-114.5"/>
<text text-anchor="middle" x="556" y="-121.5" font-family="Helvetica,sans-Serif" font-size="10.00">Talon::PIDWrite</text>
</a>
</g>
<!-- Node18&#45;&gt;Node19 -->
<g id="edge36" class="edge"><title>Node18&#45;&gt;Node19</title>
<path fill="none" stroke="midnightblue" d="M440.833,-124C463.13,-124 490.898,-124 513.465,-124"/>
<polygon fill="midnightblue" stroke="midnightblue" points="440.693,-120.5 430.693,-124 440.693,-127.5 440.693,-120.5"/>
</g>
<!-- Node21 -->
<g id="node41" class="node"><title>Node21</title>
<a xlink:href="class_talon_s_r_x.html#acd94bb75b221f4a0c09437731c574869" target="_top" xlink:title="TalonSRX::PIDWrite">
<polygon fill="white" stroke="black" points="504,-76.5 504,-95.5 608,-95.5 608,-76.5 504,-76.5"/>
<text text-anchor="middle" x="556" y="-83.5" font-family="Helvetica,sans-Serif" font-size="10.00">TalonSRX::PIDWrite</text>
</a>
</g>
<!-- Node20&#45;&gt;Node21 -->
<g id="edge40" class="edge"><title>Node20&#45;&gt;Node21</title>
<path fill="none" stroke="midnightblue" d="M450.568,-86C467.611,-86 486.716,-86 503.88,-86"/>
<polygon fill="midnightblue" stroke="midnightblue" points="450.259,-82.5001 440.259,-86 450.259,-89.5001 450.259,-82.5001"/>
</g>
<!-- Node23 -->
<g id="node45" class="node"><title>Node23</title>
<a xlink:href="class_victor.html#a9b0d32b9299b6525d6450ff88c3365a7" target="_top" xlink:title="Victor::PIDWrite">
<polygon fill="white" stroke="black" points="512.5,-38.5 512.5,-57.5 599.5,-57.5 599.5,-38.5 512.5,-38.5"/>
<text text-anchor="middle" x="556" y="-45.5" font-family="Helvetica,sans-Serif" font-size="10.00">Victor::PIDWrite</text>
</a>
</g>
<!-- Node22&#45;&gt;Node23 -->
<g id="edge44" class="edge"><title>Node22&#45;&gt;Node23</title>
<path fill="none" stroke="midnightblue" d="M442.013,-48C463.719,-48 490.349,-48 512.303,-48"/>
<polygon fill="midnightblue" stroke="midnightblue" points="441.794,-44.5001 431.794,-48 441.794,-51.5001 441.794,-44.5001"/>
</g>
<!-- Node25 -->
<g id="node49" class="node"><title>Node25</title>
<a xlink:href="class_victor_s_p.html#a9178b159144029faea02ae32f024ba84" target="_top" xlink:title="VictorSP::PIDWrite">
<polygon fill="white" stroke="black" points="505.5,-0.5 505.5,-19.5 606.5,-19.5 606.5,-0.5 505.5,-0.5"/>
<text text-anchor="middle" x="556" y="-7.5" font-family="Helvetica,sans-Serif" font-size="10.00">VictorSP::PIDWrite</text>
</a>
</g>
<!-- Node24&#45;&gt;Node25 -->
<g id="edge48" class="edge"><title>Node24&#45;&gt;Node25</title>
<path fill="none" stroke="midnightblue" d="M448.685,-10C466.726,-10 487.292,-10 505.497,-10"/>
<polygon fill="midnightblue" stroke="midnightblue" points="448.673,-6.5001 438.673,-10 448.673,-13.5001 448.673,-6.5001"/>
</g>
</g>
</svg>
