<?xml version="1.0" encoding="UTF-8" standalone="no"?>
<!DOCTYPE svg PUBLIC "-//W3C//DTD SVG 1.1//EN"
 "http://www.w3.org/Graphics/SVG/1.1/DTD/svg11.dtd">
<!-- Generated by graphviz version 2.28.0 (20110507.0327)
 -->
<!-- Title: RobotStateInterface Pages: 1 -->
<svg width="110pt" height="84pt"
 viewBox="0.00 0.00 110.00 84.00" xmlns="http://www.w3.org/2000/svg" xmlns:xlink="http://www.w3.org/1999/xlink">
<g id="graph1" class="graph" transform="scale(1 1) rotate(0) translate(4 80)">
<title>RobotStateInterface</title>
<polygon fill="white" stroke="white" points="-4,5 -4,-80 107,-80 107,5 -4,5"/>
<!-- Node1 -->
<g id="node1" class="node"><title>Node1</title>
<polygon fill="#bfbfbf" stroke="black" points="0,-56.5 0,-75.5 102,-75.5 102,-56.5 0,-56.5"/>
<text text-anchor="middle" x="51" y="-63.5" font-family="Helvetica,sans-Serif" font-size="10.00">RobotStateInterface</text>
</g>
<!-- Node2 -->
<g id="node3" class="node"><title>Node2</title>
<a xlink:href="class_driver_station.html" target="_top" xlink:title="DriverStation">
<polygon fill="white" stroke="black" points="15.5,-0.5 15.5,-19.5 86.5,-19.5 86.5,-0.5 15.5,-0.5"/>
<text text-anchor="middle" x="51" y="-7.5" font-family="Helvetica,sans-Serif" font-size="10.00">DriverStation</text>
</a>
</g>
<!-- Node1&#45;&gt;Node2 -->
<g id="edge2" class="edge"><title>Node1&#45;&gt;Node2</title>
<path fill="none" stroke="midnightblue" d="M44.5276,-46.1005C43.8956,-37.1357 44.3427,-26.8579 45.869,-19.7511"/>
<polygon fill="midnightblue" stroke="midnightblue" points="41.0658,-46.6216 45.8337,-56.083 48.0067,-45.7134 41.0658,-46.6216"/>
</g>
<!-- Node1&#45;&gt;Node2 -->
<g id="edge4" class="edge"><title>Node1&#45;&gt;Node2</title>
<path fill="none" stroke="midnightblue" d="M57.4724,-46.1005C58.1044,-37.1357 57.6573,-26.8579 56.131,-19.7511"/>
<polygon fill="midnightblue" stroke="midnightblue" points="53.9933,-45.7134 56.1663,-56.083 60.9342,-46.6216 53.9933,-45.7134"/>
</g>
</g>
</svg>
