<?xml version="1.0" encoding="UTF-8" standalone="no"?>
<!DOCTYPE svg PUBLIC "-//W3C//DTD SVG 1.1//EN"
 "http://www.w3.org/Graphics/SVG/1.1/DTD/svg11.dtd">
<!-- Generated by graphviz version 2.28.0 (20110507.0327)
 -->
<!-- Title: Gyro::SetDeadband Pages: 1 -->
<svg width="464pt" height="115pt"
 viewBox="0.00 0.00 464.00 115.00" xmlns="http://www.w3.org/2000/svg" xmlns:xlink="http://www.w3.org/1999/xlink">
<g id="graph1" class="graph" transform="scale(1 1) rotate(0) translate(4 111)">
<title>Gyro::SetDeadband</title>
<polygon fill="white" stroke="white" points="-4,5 -4,-111 461,-111 461,5 -4,5"/>
<!-- Node1 -->
<g id="node1" class="node"><title>Node1</title>
<polygon fill="#bfbfbf" stroke="black" points="0,-49.5 0,-68.5 102,-68.5 102,-49.5 0,-49.5"/>
<text text-anchor="middle" x="51" y="-56.5" font-family="Helvetica,sans-Serif" font-size="10.00">Gyro::SetDeadband</text>
</g>
<!-- Node2 -->
<g id="node3" class="node"><title>Node2</title>
<a xlink:href="class_analog_input.html#af34dfab137f2fed40c98b4f0871c84cc" target="_top" xlink:title="AnalogInput::GetLSBWeight">
<polygon fill="white" stroke="black" points="147.5,-87.5 147.5,-106.5 286.5,-106.5 286.5,-87.5 147.5,-87.5"/>
<text text-anchor="middle" x="217" y="-94.5" font-family="Helvetica,sans-Serif" font-size="10.00">AnalogInput::GetLSBWeight</text>
</a>
</g>
<!-- Node1&#45;&gt;Node2 -->
<g id="edge2" class="edge"><title>Node1&#45;&gt;Node2</title>
<path fill="none" stroke="midnightblue" d="M93.3841,-68.589C115.123,-73.6261 141.957,-79.8438 164.975,-85.1771"/>
<polygon fill="midnightblue" stroke="midnightblue" points="164.381,-88.6323 174.913,-87.4799 165.962,-81.8129 164.381,-88.6323"/>
</g>
<!-- Node4 -->
<g id="node7" class="node"><title>Node4</title>
<a xlink:href="class_analog_input.html#a713786ced6451b57fbcec31cf7cb1340" target="_top" xlink:title="AnalogInput::GetOversampleBits">
<polygon fill="white" stroke="black" points="138,-49.5 138,-68.5 296,-68.5 296,-49.5 138,-49.5"/>
<text text-anchor="middle" x="217" y="-56.5" font-family="Helvetica,sans-Serif" font-size="10.00">AnalogInput::GetOversampleBits</text>
</a>
</g>
<!-- Node1&#45;&gt;Node4 -->
<g id="edge6" class="edge"><title>Node1&#45;&gt;Node4</title>
<path fill="none" stroke="midnightblue" d="M102.097,-59C110.221,-59 118.841,-59 127.558,-59"/>
<polygon fill="midnightblue" stroke="midnightblue" points="127.813,-62.5001 137.812,-59 127.812,-55.5001 127.813,-62.5001"/>
</g>
<!-- Node5 -->
<g id="node10" class="node"><title>Node5</title>
<a xlink:href="class_analog_input.html#a4f0f6a1049d6f150fcaa4429cc322ac7" target="_top" xlink:title="AnalogInput::SetAccumulator\lDeadband">
<polygon fill="white" stroke="black" points="145.5,-0 145.5,-30 288.5,-30 288.5,-0 145.5,-0"/>
<text text-anchor="start" x="153.5" y="-18" font-family="Helvetica,sans-Serif" font-size="10.00">AnalogInput::SetAccumulator</text>
<text text-anchor="middle" x="217" y="-7" font-family="Helvetica,sans-Serif" font-size="10.00">Deadband</text>
</a>
</g>
<!-- Node1&#45;&gt;Node5 -->
<g id="edge10" class="edge"><title>Node1&#45;&gt;Node5</title>
<path fill="none" stroke="midnightblue" d="M87.5856,-49.4527C105.885,-44.543 128.783,-38.3996 150.156,-32.6653"/>
<polygon fill="midnightblue" stroke="midnightblue" points="151.096,-36.0372 159.847,-30.0654 149.282,-29.2763 151.096,-36.0372"/>
</g>
<!-- Node3 -->
<g id="node5" class="node"><title>Node3</title>
<a xlink:href="class_error_base.html#a05790f219c9e436a09752f73f7344024" target="_top" xlink:title="Check if the current error code represents a fatal error. ">
<polygon fill="white" stroke="black" points="332,-49.5 332,-68.5 456,-68.5 456,-49.5 332,-49.5"/>
<text text-anchor="middle" x="394" y="-56.5" font-family="Helvetica,sans-Serif" font-size="10.00">ErrorBase::StatusIsFatal</text>
</a>
</g>
<!-- Node2&#45;&gt;Node3 -->
<g id="edge4" class="edge"><title>Node2&#45;&gt;Node3</title>
<path fill="none" stroke="midnightblue" d="M262.16,-87.411C285.565,-82.3287 314.505,-76.0446 339.212,-70.6797"/>
<polygon fill="midnightblue" stroke="midnightblue" points="340.128,-74.0624 349.158,-68.5201 338.643,-67.2218 340.128,-74.0624"/>
</g>
<!-- Node4&#45;&gt;Node3 -->
<g id="edge8" class="edge"><title>Node4&#45;&gt;Node3</title>
<path fill="none" stroke="midnightblue" d="M296.032,-59C304.585,-59 313.261,-59 321.726,-59"/>
<polygon fill="midnightblue" stroke="midnightblue" points="321.926,-62.5001 331.926,-59 321.926,-55.5001 321.926,-62.5001"/>
</g>
<!-- Node5&#45;&gt;Node3 -->
<g id="edge12" class="edge"><title>Node5&#45;&gt;Node3</title>
<path fill="none" stroke="midnightblue" d="M277.736,-30.0192C299.774,-35.5604 324.435,-41.7607 345.272,-46.9999"/>
<polygon fill="midnightblue" stroke="midnightblue" points="344.615,-50.4435 355.167,-49.4876 346.322,-43.6548 344.615,-50.4435"/>
</g>
</g>
</svg>
