<?xml version="1.0" encoding="UTF-8" standalone="no"?>
<!DOCTYPE svg PUBLIC "-//W3C//DTD SVG 1.1//EN"
 "http://www.w3.org/Graphics/SVG/1.1/DTD/svg11.dtd">
<!-- Generated by graphviz version 2.28.0 (20110507.0327)
 -->
<!-- Title: CANTalon::ConfigSoftPositionLimits Pages: 1 -->
<svg width="340pt" height="104pt"
 viewBox="0.00 0.00 340.00 104.00" xmlns="http://www.w3.org/2000/svg" xmlns:xlink="http://www.w3.org/1999/xlink">
<g id="graph1" class="graph" transform="scale(1 1) rotate(0) translate(4 100)">
<title>CANTalon::ConfigSoftPositionLimits</title>
<polygon fill="white" stroke="white" points="-4,5 -4,-100 337,-100 337,5 -4,5"/>
<!-- Node1 -->
<g id="node1" class="node"><title>Node1</title>
<polygon fill="#bfbfbf" stroke="black" points="0,-33 0,-63 146,-63 146,-33 0,-33"/>
<text text-anchor="start" x="8" y="-51" font-family="Helvetica,sans-Serif" font-size="10.00">CANTalon::ConfigSoftPosition</text>
<text text-anchor="middle" x="73" y="-40" font-family="Helvetica,sans-Serif" font-size="10.00">Limits</text>
</g>
<!-- Node2 -->
<g id="node3" class="node"><title>Node2</title>
<a xlink:href="class_c_a_n_talon.html#a6720f4720939dd590b1db6a33d09aef2" target="_top" xlink:title="CANTalon::ConfigLimitMode">
<polygon fill="white" stroke="black" points="188,-76.5 188,-95.5 326,-95.5 326,-76.5 188,-76.5"/>
<text text-anchor="middle" x="257" y="-83.5" font-family="Helvetica,sans-Serif" font-size="10.00">CANTalon::ConfigLimitMode</text>
</a>
</g>
<!-- Node1&#45;&gt;Node2 -->
<g id="edge2" class="edge"><title>Node1&#45;&gt;Node2</title>
<path fill="none" stroke="midnightblue" d="M145.931,-63.0186C164.121,-66.8165 183.375,-70.8366 200.607,-74.4344"/>
<polygon fill="midnightblue" stroke="midnightblue" points="199.991,-77.8813 210.496,-76.4991 201.422,-71.029 199.991,-77.8813"/>
</g>
<!-- Node3 -->
<g id="node5" class="node"><title>Node3</title>
<a xlink:href="class_c_a_n_talon.html#a21f11e090b3cd0c04e1bd65a6f3db6ae" target="_top" xlink:title="CANTalon::ConfigForwardLimit">
<polygon fill="white" stroke="black" points="182.5,-38.5 182.5,-57.5 331.5,-57.5 331.5,-38.5 182.5,-38.5"/>
<text text-anchor="middle" x="257" y="-45.5" font-family="Helvetica,sans-Serif" font-size="10.00">CANTalon::ConfigForwardLimit</text>
</a>
</g>
<!-- Node1&#45;&gt;Node3 -->
<g id="edge4" class="edge"><title>Node1&#45;&gt;Node3</title>
<path fill="none" stroke="midnightblue" d="M146.193,-48C154.752,-48 163.544,-48 172.248,-48"/>
<polygon fill="midnightblue" stroke="midnightblue" points="172.404,-51.5001 182.404,-48 172.404,-44.5001 172.404,-51.5001"/>
</g>
<!-- Node4 -->
<g id="node7" class="node"><title>Node4</title>
<a xlink:href="class_c_a_n_talon.html#ac582a9df1a7224feb27de1c8dbda5ddf" target="_top" xlink:title="CANTalon::ConfigReverseLimit">
<polygon fill="white" stroke="black" points="182.5,-0.5 182.5,-19.5 331.5,-19.5 331.5,-0.5 182.5,-0.5"/>
<text text-anchor="middle" x="257" y="-7.5" font-family="Helvetica,sans-Serif" font-size="10.00">CANTalon::ConfigReverseLimit</text>
</a>
</g>
<!-- Node1&#45;&gt;Node4 -->
<g id="edge6" class="edge"><title>Node1&#45;&gt;Node4</title>
<path fill="none" stroke="midnightblue" d="M145.931,-32.9814C164.121,-29.1835 183.375,-25.1634 200.607,-21.5656"/>
<polygon fill="midnightblue" stroke="midnightblue" points="201.422,-24.971 210.496,-19.5009 199.991,-18.1187 201.422,-24.971"/>
</g>
</g>
</svg>
