<?xml version="1.0" encoding="UTF-8" standalone="no"?>
<!DOCTYPE svg PUBLIC "-//W3C//DTD SVG 1.1//EN"
 "http://www.w3.org/Graphics/SVG/1.1/DTD/svg11.dtd">
<!-- Generated by graphviz version 2.28.0 (20110507.0327)
 -->
<!-- Title: ADXL345_SPI::GetY Pages: 1 -->
<svg width="444pt" height="28pt"
 viewBox="0.00 0.00 444.00 28.00" xmlns="http://www.w3.org/2000/svg" xmlns:xlink="http://www.w3.org/1999/xlink">
<g id="graph1" class="graph" transform="scale(1 1) rotate(0) translate(4 24)">
<title>ADXL345_SPI::GetY</title>
<polygon fill="white" stroke="white" points="-4,5 -4,-24 441,-24 441,5 -4,5"/>
<!-- Node1 -->
<g id="node1" class="node"><title>Node1</title>
<polygon fill="#bfbfbf" stroke="black" points="0,-0.5 0,-19.5 106,-19.5 106,-0.5 0,-0.5"/>
<text text-anchor="middle" x="53" y="-7.5" font-family="Helvetica,sans-Serif" font-size="10.00">ADXL345_SPI::GetY</text>
</g>
<!-- Node2 -->
<g id="node3" class="node"><title>Node2</title>
<a xlink:href="class_a_d_x_l345___s_p_i.html#a9cb14691ba1afa6bf3676222936d8c19" target="_top" xlink:title="ADXL345_SPI::UpdateTable">
<polygon fill="white" stroke="black" points="142.5,-0.5 142.5,-19.5 279.5,-19.5 279.5,-0.5 142.5,-0.5"/>
<text text-anchor="middle" x="211" y="-7.5" font-family="Helvetica,sans-Serif" font-size="10.00">ADXL345_SPI::UpdateTable</text>
</a>
</g>
<!-- Node1&#45;&gt;Node2 -->
<g id="edge2" class="edge"><title>Node1&#45;&gt;Node2</title>
<path fill="none" stroke="midnightblue" d="M116.54,-10C124.995,-10 133.703,-10 142.244,-10"/>
<polygon fill="midnightblue" stroke="midnightblue" points="116.38,-6.5001 106.38,-10 116.38,-13.5001 116.38,-6.5001"/>
</g>
<!-- Node3 -->
<g id="node5" class="node"><title>Node3</title>
<a xlink:href="class_a_d_x_l345___s_p_i.html#a44f5e096d12a7e9770cda58fd4f6b95c" target="_top" xlink:title="ADXL345_SPI::InitTable">
<polygon fill="white" stroke="black" points="316.5,-0.5 316.5,-19.5 435.5,-19.5 435.5,-0.5 316.5,-0.5"/>
<text text-anchor="middle" x="376" y="-7.5" font-family="Helvetica,sans-Serif" font-size="10.00">ADXL345_SPI::InitTable</text>
</a>
</g>
<!-- Node2&#45;&gt;Node3 -->
<g id="edge4" class="edge"><title>Node2&#45;&gt;Node3</title>
<path fill="none" stroke="midnightblue" d="M289.756,-10C298.696,-10 307.696,-10 316.325,-10"/>
<polygon fill="midnightblue" stroke="midnightblue" points="289.711,-6.5001 279.711,-10 289.711,-13.5001 289.711,-6.5001"/>
</g>
</g>
</svg>
