<?xml version="1.0" encoding="UTF-8" standalone="no"?>
<!DOCTYPE svg PUBLIC "-//W3C//DTD SVG 1.1//EN"
 "http://www.w3.org/Graphics/SVG/1.1/DTD/svg11.dtd">
<!-- Generated by graphviz version 2.28.0 (20110507.0327)
 -->
<!-- Title: ADXL345_I2C Pages: 1 -->
<svg width="264pt" height="280pt"
 viewBox="0.00 0.00 264.00 280.00" xmlns="http://www.w3.org/2000/svg" xmlns:xlink="http://www.w3.org/1999/xlink">
<g id="graph1" class="graph" transform="scale(1 1) rotate(0) translate(4 276)">
<title>ADXL345_I2C</title>
<polygon fill="white" stroke="white" points="-4,5 -4,-276 261,-276 261,5 -4,5"/>
<!-- Node1 -->
<g id="node1" class="node"><title>Node1</title>
<polygon fill="#bfbfbf" stroke="black" points="76,-0.5 76,-19.5 152,-19.5 152,-0.5 76,-0.5"/>
<text text-anchor="middle" x="114" y="-7.5" font-family="Helvetica,sans-Serif" font-size="10.00">ADXL345_I2C</text>
</g>
<!-- Node2 -->
<g id="node2" class="node"><title>Node2</title>
<a xlink:href="class_accelerometer.html" target="_top" xlink:title="Accelerometer">
<polygon fill="white" stroke="black" points="0,-58.5 0,-77.5 80,-77.5 80,-58.5 0,-58.5"/>
<text text-anchor="middle" x="40" y="-65.5" font-family="Helvetica,sans-Serif" font-size="10.00">Accelerometer</text>
</a>
</g>
<!-- Node2&#45;&gt;Node1 -->
<g id="edge2" class="edge"><title>Node2&#45;&gt;Node1</title>
<path fill="none" stroke="midnightblue" d="M59.559,-52.1986C73.3013,-41.799 91.2058,-28.2496 102.655,-19.5852"/>
<polygon fill="midnightblue" stroke="midnightblue" points="57.101,-49.6694 51.239,-58.4948 61.3252,-55.2513 57.101,-49.6694"/>
</g>
<!-- Node3 -->
<g id="node4" class="node"><title>Node3</title>
<a xlink:href="class_i2_c.html" target="_top" xlink:title="I2C">
<polygon fill="white" stroke="black" points="98.5,-58.5 98.5,-77.5 129.5,-77.5 129.5,-58.5 98.5,-58.5"/>
<text text-anchor="middle" x="114" y="-65.5" font-family="Helvetica,sans-Serif" font-size="10.00">I2C</text>
</a>
</g>
<!-- Node3&#45;&gt;Node1 -->
<g id="edge4" class="edge"><title>Node3&#45;&gt;Node1</title>
<path fill="none" stroke="midnightblue" d="M114,-47.953C114,-38.2875 114,-27.0312 114,-19.5052"/>
<polygon fill="midnightblue" stroke="midnightblue" points="110.5,-48.25 114,-58.25 117.5,-48.25 110.5,-48.25"/>
</g>
<!-- Node4 -->
<g id="node6" class="node"><title>Node4</title>
<a xlink:href="class_sensor_base.html" target="_top" xlink:title="SensorBase">
<polygon fill="white" stroke="black" points="79,-116.5 79,-135.5 149,-135.5 149,-116.5 79,-116.5"/>
<text text-anchor="middle" x="114" y="-123.5" font-family="Helvetica,sans-Serif" font-size="10.00">SensorBase</text>
</a>
</g>
<!-- Node4&#45;&gt;Node3 -->
<g id="edge6" class="edge"><title>Node4&#45;&gt;Node3</title>
<path fill="none" stroke="#8b1a1a" d="M114,-105.953C114,-96.2875 114,-85.0312 114,-77.5052"/>
<polygon fill="#8b1a1a" stroke="#8b1a1a" points="110.5,-106.25 114,-116.25 117.5,-106.25 110.5,-106.25"/>
</g>
<!-- Node5 -->
<g id="node8" class="node"><title>Node5</title>
<a xlink:href="class_error_base.html" target="_top" xlink:title="ErrorBase">
<polygon fill="white" stroke="black" points="84,-174.5 84,-193.5 144,-193.5 144,-174.5 84,-174.5"/>
<text text-anchor="middle" x="114" y="-181.5" font-family="Helvetica,sans-Serif" font-size="10.00">ErrorBase</text>
</a>
</g>
<!-- Node5&#45;&gt;Node4 -->
<g id="edge8" class="edge"><title>Node5&#45;&gt;Node4</title>
<path fill="none" stroke="midnightblue" d="M114,-163.953C114,-154.287 114,-143.031 114,-135.505"/>
<polygon fill="midnightblue" stroke="midnightblue" points="110.5,-164.25 114,-174.25 117.5,-164.25 110.5,-164.25"/>
</g>
<!-- Node6 -->
<g id="node10" class="node"><title>Node6</title>
<a xlink:href="class_error.html" target="_top" xlink:title="Error">
<polygon fill="white" stroke="black" points="95,-252.5 95,-271.5 133,-271.5 133,-252.5 95,-252.5"/>
<text text-anchor="middle" x="114" y="-259.5" font-family="Helvetica,sans-Serif" font-size="10.00">Error</text>
</a>
</g>
<!-- Node6&#45;&gt;Node5 -->
<g id="edge10" class="edge"><title>Node6&#45;&gt;Node5</title>
<path fill="none" stroke="#9a32cd" stroke-dasharray="5,2" d="M114,-242.224C114,-226.697 114,-205.358 114,-193.616"/>
<polygon fill="#9a32cd" stroke="#9a32cd" points="110.5,-242.282 114,-252.282 117.5,-242.282 110.5,-242.282"/>
<text text-anchor="middle" x="141.5" y="-226" font-family="Helvetica,sans-Serif" font-size="10.00"> _globalError</text>
<text text-anchor="middle" x="141.5" y="-215" font-family="Helvetica,sans-Serif" font-size="10.00">m_error</text>
</g>
<!-- Node7 -->
<g id="node12" class="node"><title>Node7</title>
<a xlink:href="class_live_window_sendable.html" target="_top" xlink:title="LiveWindowSendable">
<polygon fill="white" stroke="black" points="148,-58.5 148,-77.5 256,-77.5 256,-58.5 148,-58.5"/>
<text text-anchor="middle" x="202" y="-65.5" font-family="Helvetica,sans-Serif" font-size="10.00">LiveWindowSendable</text>
</a>
</g>
<!-- Node7&#45;&gt;Node1 -->
<g id="edge12" class="edge"><title>Node7&#45;&gt;Node1</title>
<path fill="none" stroke="midnightblue" d="M180.129,-53.0821C163.621,-42.5773 141.496,-28.4972 127.491,-19.5852"/>
<polygon fill="midnightblue" stroke="midnightblue" points="178.319,-56.0788 188.635,-58.4948 182.077,-50.1732 178.319,-56.0788"/>
</g>
<!-- Node8 -->
<g id="node14" class="node"><title>Node8</title>
<a xlink:href="class_sendable.html" target="_top" xlink:title="Sendable">
<polygon fill="white" stroke="black" points="173.5,-116.5 173.5,-135.5 230.5,-135.5 230.5,-116.5 173.5,-116.5"/>
<text text-anchor="middle" x="202" y="-123.5" font-family="Helvetica,sans-Serif" font-size="10.00">Sendable</text>
</a>
</g>
<!-- Node8&#45;&gt;Node7 -->
<g id="edge14" class="edge"><title>Node8&#45;&gt;Node7</title>
<path fill="none" stroke="midnightblue" d="M202,-105.953C202,-96.2875 202,-85.0312 202,-77.5052"/>
<polygon fill="midnightblue" stroke="midnightblue" points="198.5,-106.25 202,-116.25 205.5,-106.25 198.5,-106.25"/>
</g>
</g>
</svg>
