<?xml version="1.0" encoding="UTF-8" standalone="no"?>
<!DOCTYPE svg PUBLIC "-//W3C//DTD SVG 1.1//EN"
 "http://www.w3.org/Graphics/SVG/1.1/DTD/svg11.dtd">
<!-- Generated by graphviz version 2.28.0 (20110507.0327)
 -->
<!-- Title: Counter::Counter Pages: 1 -->
<svg width="444pt" height="142pt"
 viewBox="0.00 0.00 444.00 142.00" xmlns="http://www.w3.org/2000/svg" xmlns:xlink="http://www.w3.org/1999/xlink">
<g id="graph1" class="graph" transform="scale(1 1) rotate(0) translate(4 138)">
<title>Counter::Counter</title>
<polygon fill="white" stroke="white" points="-4,5 -4,-138 441,-138 441,5 -4,5"/>
<!-- Node1 -->
<g id="node1" class="node"><title>Node1</title>
<polygon fill="#bfbfbf" stroke="black" points="0,-57.5 0,-76.5 90,-76.5 90,-57.5 0,-57.5"/>
<text text-anchor="middle" x="45" y="-64.5" font-family="Helvetica,sans-Serif" font-size="10.00">Counter::Counter</text>
</g>
<!-- Node2 -->
<g id="node3" class="node"><title>Node2</title>
<a xlink:href="class_counter.html#a8abf01f2594d96b85ac3f76ab8f1257e" target="_top" xlink:title="Counter::SetUpSource">
<polygon fill="white" stroke="black" points="144,-114.5 144,-133.5 258,-133.5 258,-114.5 144,-114.5"/>
<text text-anchor="middle" x="201" y="-121.5" font-family="Helvetica,sans-Serif" font-size="10.00">Counter::SetUpSource</text>
</a>
</g>
<!-- Node1&#45;&gt;Node2 -->
<g id="edge2" class="edge"><title>Node1&#45;&gt;Node2</title>
<path fill="none" stroke="midnightblue" d="M63.6878,-76.6148C79.6248,-84.9819 103.88,-96.9909 126,-105 132.774,-107.453 140.004,-109.72 147.192,-111.77"/>
<polygon fill="midnightblue" stroke="midnightblue" points="146.353,-115.168 156.922,-114.427 148.197,-108.416 146.353,-115.168"/>
</g>
<!-- Node4 -->
<g id="node7" class="node"><title>Node4</title>
<a xlink:href="class_counter.html#a4cb435000b21f303c49569e54325ae2e" target="_top" xlink:title="Counter::SetDownSource">
<polygon fill="white" stroke="black" points="138,-76.5 138,-95.5 264,-95.5 264,-76.5 138,-76.5"/>
<text text-anchor="middle" x="201" y="-83.5" font-family="Helvetica,sans-Serif" font-size="10.00">Counter::SetDownSource</text>
</a>
</g>
<!-- Node1&#45;&gt;Node4 -->
<g id="edge6" class="edge"><title>Node1&#45;&gt;Node4</title>
<path fill="none" stroke="midnightblue" d="M90.1302,-72.4446C101.842,-73.8896 114.803,-75.4887 127.595,-77.0669"/>
<polygon fill="midnightblue" stroke="midnightblue" points="127.436,-80.5738 137.79,-78.3247 128.294,-73.6265 127.436,-80.5738"/>
</g>
<!-- Node5 -->
<g id="node10" class="node"><title>Node5</title>
<a xlink:href="class_counter.html#af75f91bb8b014b04585b5bebb102e65d" target="_top" xlink:title="Counter::SetUpSourceEdge">
<polygon fill="white" stroke="black" points="132.5,-38.5 132.5,-57.5 269.5,-57.5 269.5,-38.5 132.5,-38.5"/>
<text text-anchor="middle" x="201" y="-45.5" font-family="Helvetica,sans-Serif" font-size="10.00">Counter::SetUpSourceEdge</text>
</a>
</g>
<!-- Node1&#45;&gt;Node5 -->
<g id="edge10" class="edge"><title>Node1&#45;&gt;Node5</title>
<path fill="none" stroke="midnightblue" d="M90.1302,-61.5554C100.201,-60.3128 111.196,-58.9563 122.213,-57.5971"/>
<polygon fill="midnightblue" stroke="midnightblue" points="122.814,-61.0496 132.31,-56.3514 121.956,-54.1023 122.814,-61.0496"/>
</g>
<!-- Node6 -->
<g id="node13" class="node"><title>Node6</title>
<a xlink:href="class_counter.html#a929a270422ce7fe72955f76e33e60fd2" target="_top" xlink:title="Counter::SetDownSourceEdge">
<polygon fill="white" stroke="black" points="126.5,-0.5 126.5,-19.5 275.5,-19.5 275.5,-0.5 126.5,-0.5"/>
<text text-anchor="middle" x="201" y="-7.5" font-family="Helvetica,sans-Serif" font-size="10.00">Counter::SetDownSourceEdge</text>
</a>
</g>
<!-- Node1&#45;&gt;Node6 -->
<g id="edge14" class="edge"><title>Node1&#45;&gt;Node6</title>
<path fill="none" stroke="midnightblue" d="M63.6878,-57.3852C79.6248,-49.0181 103.88,-37.0091 126,-29 132.774,-26.5475 140.004,-24.2804 147.192,-22.2304"/>
<polygon fill="midnightblue" stroke="midnightblue" points="148.197,-25.5841 156.922,-19.5726 146.353,-18.8316 148.197,-25.5841"/>
</g>
<!-- Node3 -->
<g id="node5" class="node"><title>Node3</title>
<a xlink:href="class_error_base.html#a05790f219c9e436a09752f73f7344024" target="_top" xlink:title="Check if the current error code represents a fatal error. ">
<polygon fill="white" stroke="black" points="312,-57.5 312,-76.5 436,-76.5 436,-57.5 312,-57.5"/>
<text text-anchor="middle" x="374" y="-64.5" font-family="Helvetica,sans-Serif" font-size="10.00">ErrorBase::StatusIsFatal</text>
</a>
</g>
<!-- Node2&#45;&gt;Node3 -->
<g id="edge4" class="edge"><title>Node2&#45;&gt;Node3</title>
<path fill="none" stroke="midnightblue" d="M242.968,-114.431C253.785,-111.646 265.397,-108.424 276,-105 298.278,-97.806 322.825,-88.1722 341.652,-80.4049"/>
<polygon fill="midnightblue" stroke="midnightblue" points="343.05,-83.6142 350.934,-76.5361 340.357,-77.1531 343.05,-83.6142"/>
</g>
<!-- Node4&#45;&gt;Node3 -->
<g id="edge8" class="edge"><title>Node4&#45;&gt;Node3</title>
<path fill="none" stroke="midnightblue" d="M264.219,-79.0868C276.501,-77.7221 289.477,-76.2803 302.023,-74.8863"/>
<polygon fill="midnightblue" stroke="midnightblue" points="302.419,-78.364 311.971,-73.781 301.646,-71.4068 302.419,-78.364"/>
</g>
<!-- Node5&#45;&gt;Node3 -->
<g id="edge12" class="edge"><title>Node5&#45;&gt;Node3</title>
<path fill="none" stroke="midnightblue" d="M269.584,-55.5093C280.125,-56.6805 291.046,-57.894 301.668,-59.0742"/>
<polygon fill="midnightblue" stroke="midnightblue" points="301.411,-62.5672 311.737,-60.193 302.184,-55.61 301.411,-62.5672"/>
</g>
<!-- Node6&#45;&gt;Node3 -->
<g id="edge16" class="edge"><title>Node6&#45;&gt;Node3</title>
<path fill="none" stroke="midnightblue" d="M242.968,-19.5688C253.785,-22.3536 265.397,-25.5762 276,-29 298.278,-36.194 322.825,-45.8278 341.652,-53.5951"/>
<polygon fill="midnightblue" stroke="midnightblue" points="340.357,-56.8469 350.934,-57.4639 343.05,-50.3858 340.357,-56.8469"/>
</g>
</g>
</svg>
