<?xml version="1.0" encoding="UTF-8" standalone="no"?>
<!DOCTYPE svg PUBLIC "-//W3C//DTD SVG 1.1//EN"
 "http://www.w3.org/Graphics/SVG/1.1/DTD/svg11.dtd">
<!-- Generated by graphviz version 2.28.0 (20110507.0327)
 -->
<!-- Title: DoubleSolenoid Pages: 1 -->
<svg width="348pt" height="290pt"
 viewBox="0.00 0.00 348.00 290.00" xmlns="http://www.w3.org/2000/svg" xmlns:xlink="http://www.w3.org/1999/xlink">
<g id="graph1" class="graph" transform="scale(1 1) rotate(0) translate(4 286)">
<title>DoubleSolenoid</title>
<polygon fill="white" stroke="white" points="-4,5 -4,-286 345,-286 345,5 -4,5"/>
<!-- Node1 -->
<g id="node1" class="node"><title>Node1</title>
<polygon fill="#bfbfbf" stroke="black" points="123,-0.5 123,-19.5 207,-19.5 207,-0.5 123,-0.5"/>
<text text-anchor="middle" x="165" y="-7.5" font-family="Helvetica,sans-Serif" font-size="10.00">DoubleSolenoid</text>
</g>
<!-- Node2 -->
<g id="node2" class="node"><title>Node2</title>
<a xlink:href="class_live_window_sendable.html" target="_top" xlink:title="LiveWindowSendable">
<polygon fill="white" stroke="black" points="0,-58.5 0,-77.5 108,-77.5 108,-58.5 0,-58.5"/>
<text text-anchor="middle" x="54" y="-65.5" font-family="Helvetica,sans-Serif" font-size="10.00">LiveWindowSendable</text>
</a>
</g>
<!-- Node2&#45;&gt;Node1 -->
<g id="edge2" class="edge"><title>Node2&#45;&gt;Node1</title>
<path fill="none" stroke="midnightblue" d="M74.8554,-53.5177C94.3543,-42.9694 123.075,-28.621 142.956,-19.5852"/>
<polygon fill="midnightblue" stroke="midnightblue" points="72.9087,-50.5946 65.8492,-58.4948 76.2945,-56.7213 72.9087,-50.5946"/>
</g>
<!-- Node2&#45;&gt;Node1 -->
<g id="edge20" class="edge"><title>Node2&#45;&gt;Node1</title>
<path fill="none" stroke="midnightblue" d="M85.0729,-54.2342C107.618,-43.6273 136.706,-28.8273 153.01,-19.5852"/>
<polygon fill="midnightblue" stroke="midnightblue" points="83.4727,-51.118 75.8679,-58.4948 86.4131,-57.4706 83.4727,-51.118"/>
</g>
<!-- Node3 -->
<g id="node4" class="node"><title>Node3</title>
<a xlink:href="class_sendable.html" target="_top" xlink:title="Sendable">
<polygon fill="white" stroke="black" points="25.5,-126.5 25.5,-145.5 82.5,-145.5 82.5,-126.5 25.5,-126.5"/>
<text text-anchor="middle" x="54" y="-133.5" font-family="Helvetica,sans-Serif" font-size="10.00">Sendable</text>
</a>
</g>
<!-- Node3&#45;&gt;Node2 -->
<g id="edge4" class="edge"><title>Node3&#45;&gt;Node2</title>
<path fill="none" stroke="midnightblue" d="M54,-116.041C54,-103.472 54,-87.5631 54,-77.8411"/>
<polygon fill="midnightblue" stroke="midnightblue" points="50.5001,-116.372 54,-126.372 57.5001,-116.372 50.5001,-116.372"/>
</g>
<!-- Node4 -->
<g id="node6" class="node"><title>Node4</title>
<polygon fill="white" stroke="#bfbfbf" points="126.5,-58.5 126.5,-77.5 203.5,-77.5 203.5,-58.5 126.5,-58.5"/>
<text text-anchor="middle" x="165" y="-65.5" font-family="Helvetica,sans-Serif" font-size="10.00">ITableListener</text>
</g>
<!-- Node4&#45;&gt;Node1 -->
<g id="edge22" class="edge"><title>Node4&#45;&gt;Node1</title>
<path fill="none" stroke="midnightblue" d="M158.59,-48.2677C157.85,-38.5326 158.317,-27.113 159.991,-19.5052"/>
<polygon fill="midnightblue" stroke="midnightblue" points="155.131,-48.8081 159.938,-58.25 162.068,-47.8716 155.131,-48.8081"/>
</g>
<!-- Node4&#45;&gt;Node1 -->
<g id="edge6" class="edge"><title>Node4&#45;&gt;Node1</title>
<path fill="none" stroke="midnightblue" d="M171.41,-48.2677C172.15,-38.5326 171.683,-27.113 170.009,-19.5052"/>
<polygon fill="midnightblue" stroke="midnightblue" points="167.932,-47.8716 170.063,-58.25 174.869,-48.8081 167.932,-47.8716"/>
</g>
<!-- Node5 -->
<g id="node8" class="node"><title>Node5</title>
<a xlink:href="class_solenoid_base.html" target="_top" xlink:title="SolenoidBase">
<polygon fill="white" stroke="black" points="221.5,-58.5 221.5,-77.5 298.5,-77.5 298.5,-58.5 221.5,-58.5"/>
<text text-anchor="middle" x="260" y="-65.5" font-family="Helvetica,sans-Serif" font-size="10.00">SolenoidBase</text>
</a>
</g>
<!-- Node5&#45;&gt;Node1 -->
<g id="edge8" class="edge"><title>Node5&#45;&gt;Node1</title>
<path fill="none" stroke="midnightblue" d="M236.883,-53.373C219.012,-42.8384 194.823,-28.5797 179.564,-19.5852"/>
<polygon fill="midnightblue" stroke="midnightblue" points="235.179,-56.4318 245.572,-58.4948 238.734,-50.4015 235.179,-56.4318"/>
</g>
<!-- Node6 -->
<g id="node10" class="node"><title>Node6</title>
<a xlink:href="class_sensor_base.html" target="_top" xlink:title="SensorBase">
<polygon fill="white" stroke="black" points="184,-126.5 184,-145.5 254,-145.5 254,-126.5 184,-126.5"/>
<text text-anchor="middle" x="219" y="-133.5" font-family="Helvetica,sans-Serif" font-size="10.00">SensorBase</text>
</a>
</g>
<!-- Node6&#45;&gt;Node5 -->
<g id="edge10" class="edge"><title>Node6&#45;&gt;Node5</title>
<path fill="none" stroke="midnightblue" d="M229.832,-117.563C237.772,-104.781 248.222,-87.9599 254.508,-77.8411"/>
<polygon fill="midnightblue" stroke="midnightblue" points="226.664,-116.03 224.36,-126.372 232.61,-119.724 226.664,-116.03"/>
</g>
<!-- Node7 -->
<g id="node12" class="node"><title>Node7</title>
<a xlink:href="class_error_base.html" target="_top" xlink:title="ErrorBase">
<polygon fill="white" stroke="black" points="215,-184.5 215,-203.5 275,-203.5 275,-184.5 215,-184.5"/>
<text text-anchor="middle" x="245" y="-191.5" font-family="Helvetica,sans-Serif" font-size="10.00">ErrorBase</text>
</a>
</g>
<!-- Node7&#45;&gt;Node6 -->
<g id="edge12" class="edge"><title>Node7&#45;&gt;Node6</title>
<path fill="none" stroke="midnightblue" d="M236.593,-174.893C232.012,-165.026 226.557,-153.277 222.949,-145.505"/>
<polygon fill="midnightblue" stroke="midnightblue" points="233.552,-176.654 240.938,-184.25 239.901,-173.706 233.552,-176.654"/>
</g>
<!-- Node9 -->
<g id="node16" class="node"><title>Node9</title>
<a xlink:href="class_resource.html" target="_top" xlink:title="Resource">
<polygon fill="white" stroke="black" points="272,-126.5 272,-145.5 330,-145.5 330,-126.5 272,-126.5"/>
<text text-anchor="middle" x="301" y="-133.5" font-family="Helvetica,sans-Serif" font-size="10.00">Resource</text>
</a>
</g>
<!-- Node7&#45;&gt;Node9 -->
<g id="edge18" class="edge"><title>Node7&#45;&gt;Node9</title>
<path fill="none" stroke="midnightblue" d="M260.958,-177.042C271.221,-166.779 284.151,-153.849 292.495,-145.505"/>
<polygon fill="midnightblue" stroke="midnightblue" points="258.346,-174.704 253.75,-184.25 263.296,-179.654 258.346,-174.704"/>
</g>
<!-- Node8 -->
<g id="node14" class="node"><title>Node8</title>
<a xlink:href="class_error.html" target="_top" xlink:title="Error">
<polygon fill="white" stroke="black" points="226,-262.5 226,-281.5 264,-281.5 264,-262.5 226,-262.5"/>
<text text-anchor="middle" x="245" y="-269.5" font-family="Helvetica,sans-Serif" font-size="10.00">Error</text>
</a>
</g>
<!-- Node8&#45;&gt;Node7 -->
<g id="edge14" class="edge"><title>Node8&#45;&gt;Node7</title>
<path fill="none" stroke="#9a32cd" stroke-dasharray="5,2" d="M245,-252.224C245,-236.697 245,-215.358 245,-203.616"/>
<polygon fill="#9a32cd" stroke="#9a32cd" points="241.5,-252.282 245,-262.282 248.5,-252.282 241.5,-252.282"/>
<text text-anchor="middle" x="272.5" y="-236" font-family="Helvetica,sans-Serif" font-size="10.00"> _globalError</text>
<text text-anchor="middle" x="272.5" y="-225" font-family="Helvetica,sans-Serif" font-size="10.00">m_error</text>
</g>
<!-- Node9&#45;&gt;Node5 -->
<g id="edge16" class="edge"><title>Node9&#45;&gt;Node5</title>
<path fill="none" stroke="#9a32cd" stroke-dasharray="5,2" d="M290.168,-117.563C282.228,-104.781 271.778,-87.9599 265.492,-77.8411"/>
<polygon fill="#9a32cd" stroke="#9a32cd" points="287.39,-119.724 295.64,-126.372 293.336,-116.03 287.39,-119.724"/>
<text text-anchor="middle" x="312" y="-99.5" font-family="Helvetica,sans-Serif" font-size="10.00"> m_allocated</text>
</g>
</g>
</svg>
