<?xml version="1.0" encoding="UTF-8" standalone="no"?>
<!DOCTYPE svg PUBLIC "-//W3C//DTD SVG 1.1//EN"
 "http://www.w3.org/Graphics/SVG/1.1/DTD/svg11.dtd">
<!-- Generated by graphviz version 2.28.0 (20110507.0327)
 -->
<!-- Title: DoubleSolenoid::Set Pages: 1 -->
<svg width="278pt" height="87pt"
 viewBox="0.00 0.00 278.00 87.00" xmlns="http://www.w3.org/2000/svg" xmlns:xlink="http://www.w3.org/1999/xlink">
<g id="graph1" class="graph" transform="scale(1 1) rotate(0) translate(4 83)">
<title>DoubleSolenoid::Set</title>
<polygon fill="white" stroke="white" points="-4,5 -4,-83 275,-83 275,5 -4,5"/>
<!-- Node1 -->
<g id="node1" class="node"><title>Node1</title>
<polygon fill="#bfbfbf" stroke="black" points="0.5,-29.5 0.5,-48.5 105.5,-48.5 105.5,-29.5 0.5,-29.5"/>
<text text-anchor="middle" x="53" y="-36.5" font-family="Helvetica,sans-Serif" font-size="10.00">DoubleSolenoid::Set</text>
</g>
<!-- Node2 -->
<g id="node3" class="node"><title>Node2</title>
<a xlink:href="class_double_solenoid.html#aeab409cef80470519fbe54ac9b9facb2" target="_top" xlink:title="DoubleSolenoid::StartLive\lWindowMode">
<polygon fill="white" stroke="black" points="142,-49 142,-79 270,-79 270,-49 142,-49"/>
<text text-anchor="start" x="150" y="-67" font-family="Helvetica,sans-Serif" font-size="10.00">DoubleSolenoid::StartLive</text>
<text text-anchor="middle" x="206" y="-56" font-family="Helvetica,sans-Serif" font-size="10.00">WindowMode</text>
</a>
</g>
<!-- Node1&#45;&gt;Node2 -->
<g id="edge2" class="edge"><title>Node1&#45;&gt;Node2</title>
<path fill="none" stroke="midnightblue" d="M115.594,-49.1976C124.279,-50.6357 133.219,-52.1158 141.932,-53.5583"/>
<polygon fill="midnightblue" stroke="midnightblue" points="115.981,-45.7141 105.543,-47.5337 114.837,-52.6201 115.981,-45.7141"/>
</g>
<!-- Node3 -->
<g id="node5" class="node"><title>Node3</title>
<a xlink:href="class_double_solenoid.html#a991a18f242f93a0c8474bc95fa13a0a2" target="_top" xlink:title="DoubleSolenoid::StopLive\lWindowMode">
<polygon fill="white" stroke="black" points="142.5,-0 142.5,-30 269.5,-30 269.5,-0 142.5,-0"/>
<text text-anchor="start" x="150.5" y="-18" font-family="Helvetica,sans-Serif" font-size="10.00">DoubleSolenoid::StopLive</text>
<text text-anchor="middle" x="206" y="-7" font-family="Helvetica,sans-Serif" font-size="10.00">WindowMode</text>
</a>
</g>
<!-- Node1&#45;&gt;Node3 -->
<g id="edge4" class="edge"><title>Node1&#45;&gt;Node3</title>
<path fill="none" stroke="midnightblue" d="M115.455,-29.2323C124.361,-27.8168 133.536,-26.3585 142.463,-24.9397"/>
<polygon fill="midnightblue" stroke="midnightblue" points="114.87,-25.7813 105.543,-30.8077 115.969,-32.6945 114.87,-25.7813"/>
</g>
</g>
</svg>
