<?xml version="1.0" encoding="UTF-8" standalone="no"?>
<!DOCTYPE svg PUBLIC "-//W3C//DTD SVG 1.1//EN"
 "http://www.w3.org/Graphics/SVG/1.1/DTD/svg11.dtd">
<!-- Generated by graphviz version 2.28.0 (20110507.0327)
 -->
<!-- Title: ButtonScheduler Pages: 1 -->
<svg width="333pt" height="250pt"
 viewBox="0.00 0.00 333.00 250.00" xmlns="http://www.w3.org/2000/svg" xmlns:xlink="http://www.w3.org/1999/xlink">
<g id="graph1" class="graph" transform="scale(1 1) rotate(0) translate(4 246)">
<title>ButtonScheduler</title>
<polygon fill="white" stroke="white" points="-4,5 -4,-246 330,-246 330,5 -4,5"/>
<!-- Node1 -->
<g id="node1" class="node"><title>Node1</title>
<polygon fill="#bfbfbf" stroke="black" points="45.5,-0.5 45.5,-19.5 134.5,-19.5 134.5,-0.5 45.5,-0.5"/>
<text text-anchor="middle" x="90" y="-7.5" font-family="Helvetica,sans-Serif" font-size="10.00">ButtonScheduler</text>
</g>
<!-- Node2 -->
<g id="node2" class="node"><title>Node2</title>
<a xlink:href="class_command.html" target="_top" xlink:title="Command">
<polygon fill="white" stroke="black" points="144.5,-68.5 144.5,-87.5 205.5,-87.5 205.5,-68.5 144.5,-68.5"/>
<text text-anchor="middle" x="175" y="-75.5" font-family="Helvetica,sans-Serif" font-size="10.00">Command</text>
</a>
</g>
<!-- Node2&#45;&gt;Node1 -->
<g id="edge2" class="edge"><title>Node2&#45;&gt;Node1</title>
<path fill="none" stroke="#9a32cd" stroke-dasharray="5,2" d="M155.806,-62.0961C138.941,-49.0012 114.988,-30.4028 101.115,-19.6305"/>
<polygon fill="#9a32cd" stroke="#9a32cd" points="153.843,-65.0031 163.888,-68.3717 158.136,-59.4742 153.843,-65.0031"/>
<text text-anchor="middle" x="171" y="-41.5" font-family="Helvetica,sans-Serif" font-size="10.00"> m_command</text>
</g>
<!-- Node3 -->
<g id="node4" class="node"><title>Node3</title>
<a xlink:href="class_error_base.html" target="_top" xlink:title="ErrorBase">
<polygon fill="white" stroke="black" points="240,-144.5 240,-163.5 300,-163.5 300,-144.5 240,-144.5"/>
<text text-anchor="middle" x="270" y="-151.5" font-family="Helvetica,sans-Serif" font-size="10.00">ErrorBase</text>
</a>
</g>
<!-- Node3&#45;&gt;Node2 -->
<g id="edge4" class="edge"><title>Node3&#45;&gt;Node2</title>
<path fill="none" stroke="midnightblue" d="M250.809,-138.051C231.313,-122.865 201.8,-99.8758 185.963,-87.5395"/>
<polygon fill="midnightblue" stroke="midnightblue" points="248.689,-140.837 258.729,-144.221 252.991,-135.314 248.689,-140.837"/>
</g>
<!-- Node4 -->
<g id="node6" class="node"><title>Node4</title>
<a xlink:href="class_error.html" target="_top" xlink:title="Error">
<polygon fill="white" stroke="black" points="251,-222.5 251,-241.5 289,-241.5 289,-222.5 251,-222.5"/>
<text text-anchor="middle" x="270" y="-229.5" font-family="Helvetica,sans-Serif" font-size="10.00">Error</text>
</a>
</g>
<!-- Node4&#45;&gt;Node3 -->
<g id="edge6" class="edge"><title>Node4&#45;&gt;Node3</title>
<path fill="none" stroke="#9a32cd" stroke-dasharray="5,2" d="M270,-212.224C270,-196.697 270,-175.358 270,-163.616"/>
<polygon fill="#9a32cd" stroke="#9a32cd" points="266.5,-212.282 270,-222.282 273.5,-212.282 266.5,-212.282"/>
<text text-anchor="middle" x="297.5" y="-196" font-family="Helvetica,sans-Serif" font-size="10.00"> _globalError</text>
<text text-anchor="middle" x="297.5" y="-185" font-family="Helvetica,sans-Serif" font-size="10.00">m_error</text>
</g>
<!-- Node5 -->
<g id="node8" class="node"><title>Node5</title>
<a xlink:href="class_named_sendable.html" target="_top" xlink:title="NamedSendable">
<polygon fill="white" stroke="black" points="38,-144.5 38,-163.5 126,-163.5 126,-144.5 38,-144.5"/>
<text text-anchor="middle" x="82" y="-151.5" font-family="Helvetica,sans-Serif" font-size="10.00">NamedSendable</text>
</a>
</g>
<!-- Node5&#45;&gt;Node2 -->
<g id="edge8" class="edge"><title>Node5&#45;&gt;Node2</title>
<path fill="none" stroke="midnightblue" d="M101.044,-137.846C120.131,-122.659 148.834,-99.8205 164.268,-87.5395"/>
<polygon fill="midnightblue" stroke="midnightblue" points="98.6794,-135.255 93.0335,-144.221 103.038,-140.733 98.6794,-135.255"/>
</g>
<!-- Node6 -->
<g id="node10" class="node"><title>Node6</title>
<a xlink:href="class_sendable.html" target="_top" xlink:title="Sendable">
<polygon fill="white" stroke="black" points="-0.5,-222.5 -0.5,-241.5 56.5,-241.5 56.5,-222.5 -0.5,-222.5"/>
<text text-anchor="middle" x="28" y="-229.5" font-family="Helvetica,sans-Serif" font-size="10.00">Sendable</text>
</a>
</g>
<!-- Node6&#45;&gt;Node5 -->
<g id="edge10" class="edge"><title>Node6&#45;&gt;Node5</title>
<path fill="none" stroke="midnightblue" d="M40.075,-214.006C51.185,-198.369 67.211,-175.814 75.8778,-163.616"/>
<polygon fill="midnightblue" stroke="midnightblue" points="37.1335,-212.103 34.1945,-222.282 42.8397,-216.157 37.1335,-212.103"/>
</g>
<!-- Node8 -->
<g id="node14" class="node"><title>Node8</title>
<a xlink:href="class_trigger.html" target="_top" xlink:title="Trigger">
<polygon fill="white" stroke="black" points="20,-106.5 20,-125.5 66,-125.5 66,-106.5 20,-106.5"/>
<text text-anchor="middle" x="43" y="-113.5" font-family="Helvetica,sans-Serif" font-size="10.00">Trigger</text>
</a>
</g>
<!-- Node6&#45;&gt;Node8 -->
<g id="edge16" class="edge"><title>Node6&#45;&gt;Node8</title>
<path fill="none" stroke="midnightblue" d="M25.7434,-212.243C24.1725,-194.404 23.2613,-166.96 29,-144 30.6388,-137.443 34.1388,-130.693 37.2291,-125.582"/>
<polygon fill="midnightblue" stroke="midnightblue" points="22.2879,-212.853 26.8076,-222.435 29.25,-212.126 22.2879,-212.853"/>
</g>
<!-- Node7 -->
<g id="node12" class="node"><title>Node7</title>
<polygon fill="white" stroke="#bfbfbf" points="144.5,-144.5 144.5,-163.5 221.5,-163.5 221.5,-144.5 144.5,-144.5"/>
<text text-anchor="middle" x="183" y="-151.5" font-family="Helvetica,sans-Serif" font-size="10.00">ITableListener</text>
</g>
<!-- Node7&#45;&gt;Node2 -->
<g id="edge12" class="edge"><title>Node7&#45;&gt;Node2</title>
<path fill="none" stroke="midnightblue" d="M180.954,-134.072C179.344,-119.18 177.174,-99.1111 175.948,-87.7679"/>
<polygon fill="midnightblue" stroke="midnightblue" points="177.496,-134.655 182.051,-144.221 184.456,-133.902 177.496,-134.655"/>
</g>
<!-- Node8&#45;&gt;Node1 -->
<g id="edge14" class="edge"><title>Node8&#45;&gt;Node1</title>
<path fill="none" stroke="#9a32cd" stroke-dasharray="5,2" d="M50.9735,-97.3565C61.1666,-74.8015 78.4135,-36.6381 86.1006,-19.6284"/>
<polygon fill="#9a32cd" stroke="#9a32cd" points="47.7751,-95.9352 46.8462,-106.489 54.1539,-98.818 47.7751,-95.9352"/>
<text text-anchor="middle" x="86" y="-75.5" font-family="Helvetica,sans-Serif" font-size="10.00"> m_button</text>
</g>
</g>
</svg>
