<?xml version="1.0" encoding="UTF-8" standalone="no"?>
<!DOCTYPE svg PUBLIC "-//W3C//DTD SVG 1.1//EN"
 "http://www.w3.org/Graphics/SVG/1.1/DTD/svg11.dtd">
<!-- Generated by graphviz version 2.28.0 (20110507.0327)
 -->
<!-- Title: Gyro::Gyro Pages: 1 -->
<svg width="732pt" height="545pt"
 viewBox="0.00 0.00 732.00 545.00" xmlns="http://www.w3.org/2000/svg" xmlns:xlink="http://www.w3.org/1999/xlink">
<g id="graph1" class="graph" transform="scale(1 1) rotate(0) translate(4 541)">
<title>Gyro::Gyro</title>
<polygon fill="white" stroke="white" points="-4,5 -4,-541 729,-541 729,5 -4,5"/>
<!-- Node1 -->
<g id="node1" class="node"><title>Node1</title>
<polygon fill="#bfbfbf" stroke="black" points="0.5,-261.5 0.5,-280.5 65.5,-280.5 65.5,-261.5 0.5,-261.5"/>
<text text-anchor="middle" x="33" y="-268.5" font-family="Helvetica,sans-Serif" font-size="10.00">Gyro::Gyro</text>
</g>
<!-- Node2 -->
<g id="node3" class="node"><title>Node2</title>
<a xlink:href="class_gyro.html#ae26b1bacc0c5a4e1f9d85836fcb90736" target="_top" xlink:title="Gyro::InitGyro">
<polygon fill="white" stroke="black" points="102.5,-261.5 102.5,-280.5 179.5,-280.5 179.5,-261.5 102.5,-261.5"/>
<text text-anchor="middle" x="141" y="-268.5" font-family="Helvetica,sans-Serif" font-size="10.00">Gyro::InitGyro</text>
</a>
</g>
<!-- Node1&#45;&gt;Node2 -->
<g id="edge2" class="edge"><title>Node1&#45;&gt;Node2</title>
<path fill="none" stroke="midnightblue" d="M65.5165,-271C73.9411,-271 83.2375,-271 92.3231,-271"/>
<polygon fill="midnightblue" stroke="midnightblue" points="92.4338,-274.5 102.434,-271 92.4337,-267.5 92.4338,-274.5"/>
</g>
<!-- Node3 -->
<g id="node5" class="node"><title>Node3</title>
<a xlink:href="class_analog_input.html#a49fa8f8599be4e8a81db751e503fd5ad" target="_top" xlink:title="AnalogInput::IsAccumulator\lChannel">
<polygon fill="white" stroke="black" points="417,-507 417,-537 553,-537 553,-507 417,-507"/>
<text text-anchor="start" x="425" y="-525" font-family="Helvetica,sans-Serif" font-size="10.00">AnalogInput::IsAccumulator</text>
<text text-anchor="middle" x="485" y="-514" font-family="Helvetica,sans-Serif" font-size="10.00">Channel</text>
</a>
</g>
<!-- Node2&#45;&gt;Node3 -->
<g id="edge4" class="edge"><title>Node2&#45;&gt;Node3</title>
<path fill="none" stroke="midnightblue" d="M142.016,-280.669C142.641,-314.976 149.739,-431.71 216,-486 268.755,-529.224 347.942,-534.983 406.572,-531.88"/>
<polygon fill="midnightblue" stroke="midnightblue" points="407.139,-535.351 416.9,-531.231 406.7,-528.365 407.139,-535.351"/>
</g>
<!-- Node5 -->
<g id="node9" class="node"><title>Node5</title>
<a xlink:href="class_analog_input.html#a1d5162718b2c678892eceab7be35d5a3" target="_top" xlink:title="AnalogInput::SetAverageBits">
<polygon fill="white" stroke="black" points="415,-468.5 415,-487.5 555,-487.5 555,-468.5 415,-468.5"/>
<text text-anchor="middle" x="485" y="-475.5" font-family="Helvetica,sans-Serif" font-size="10.00">AnalogInput::SetAverageBits</text>
</a>
</g>
<!-- Node2&#45;&gt;Node5 -->
<g id="edge8" class="edge"><title>Node2&#45;&gt;Node5</title>
<path fill="none" stroke="midnightblue" d="M142.59,-280.575C145.061,-311.539 157.401,-409.478 216,-453 276.074,-497.618 365.857,-496.198 424.675,-488.878"/>
<polygon fill="midnightblue" stroke="midnightblue" points="425.475,-492.303 434.921,-487.505 424.545,-485.365 425.475,-492.303"/>
</g>
<!-- Node6 -->
<g id="node12" class="node"><title>Node6</title>
<a xlink:href="class_analog_input.html#aa60bbfb59ab3b08186dcd9048286c0c2" target="_top" xlink:title="AnalogInput::SetOversampleBits">
<polygon fill="white" stroke="black" points="406.5,-430.5 406.5,-449.5 563.5,-449.5 563.5,-430.5 406.5,-430.5"/>
<text text-anchor="middle" x="485" y="-437.5" font-family="Helvetica,sans-Serif" font-size="10.00">AnalogInput::SetOversampleBits</text>
</a>
</g>
<!-- Node2&#45;&gt;Node6 -->
<g id="edge12" class="edge"><title>Node2&#45;&gt;Node6</title>
<path fill="none" stroke="midnightblue" d="M143.473,-280.889C148.181,-308.594 165.626,-387.152 216,-421 279.003,-463.333 370.198,-459.525 428.287,-451.13"/>
<polygon fill="midnightblue" stroke="midnightblue" points="429.028,-454.557 438.379,-449.577 427.963,-447.639 429.028,-454.557"/>
</g>
<!-- Node7 -->
<g id="node15" class="node"><title>Node7</title>
<a xlink:href="class_analog_input.html#a0c796dc3aac607b1451eecb9a8f84665" target="_top" xlink:title="AnalogInput::SetSampleRate">
<polygon fill="white" stroke="black" points="222,-392.5 222,-411.5 364,-411.5 364,-392.5 222,-392.5"/>
<text text-anchor="middle" x="293" y="-399.5" font-family="Helvetica,sans-Serif" font-size="10.00">AnalogInput::SetSampleRate</text>
</a>
</g>
<!-- Node2&#45;&gt;Node7 -->
<g id="edge16" class="edge"><title>Node2&#45;&gt;Node7</title>
<path fill="none" stroke="midnightblue" d="M145.994,-280.582C155.18,-301.458 179.836,-351.31 216,-378 221.893,-382.35 228.599,-385.927 235.53,-388.865"/>
<polygon fill="midnightblue" stroke="midnightblue" points="234.473,-392.207 245.064,-392.487 236.959,-385.664 234.473,-392.207"/>
</g>
<!-- Node8 -->
<g id="node17" class="node"><title>Node8</title>
<a xlink:href="class_analog_input.html#a621b2612c428e8d06f3e6bfcfa12b1a5" target="_top" xlink:title="AnalogInput::InitAccumulator">
<polygon fill="white" stroke="black" points="414.5,-392.5 414.5,-411.5 555.5,-411.5 555.5,-392.5 414.5,-392.5"/>
<text text-anchor="middle" x="485" y="-399.5" font-family="Helvetica,sans-Serif" font-size="10.00">AnalogInput::InitAccumulator</text>
</a>
</g>
<!-- Node2&#45;&gt;Node8 -->
<g id="edge18" class="edge"><title>Node2&#45;&gt;Node8</title>
<path fill="none" stroke="midnightblue" d="M148.761,-280.552C160.514,-296.393 186.318,-327.944 216,-344 234.021,-353.748 348.999,-376.614 422.383,-390.547"/>
<polygon fill="midnightblue" stroke="midnightblue" points="421.971,-394.031 432.448,-392.452 423.273,-387.153 421.971,-394.031"/>
</g>
<!-- Node9 -->
<g id="node20" class="node"><title>Node9</title>
<a xlink:href="class_analog_input.html#ad783c1e390adc95921f2d4c73b645365" target="_top" xlink:title="AnalogInput::GetAccumulator\lOutput">
<polygon fill="white" stroke="black" points="221,-305 221,-335 365,-335 365,-305 221,-305"/>
<text text-anchor="start" x="229" y="-323" font-family="Helvetica,sans-Serif" font-size="10.00">AnalogInput::GetAccumulator</text>
<text text-anchor="middle" x="293" y="-312" font-family="Helvetica,sans-Serif" font-size="10.00">Output</text>
</a>
</g>
<!-- Node2&#45;&gt;Node9 -->
<g id="edge22" class="edge"><title>Node2&#45;&gt;Node9</title>
<path fill="none" stroke="midnightblue" d="M171.278,-280.564C189.771,-286.605 214.261,-294.605 236.348,-301.82"/>
<polygon fill="midnightblue" stroke="midnightblue" points="235.376,-305.185 245.968,-304.963 237.55,-298.531 235.376,-305.185"/>
</g>
<!-- Node10 -->
<g id="node23" class="node"><title>Node10</title>
<a xlink:href="class_analog_input.html#ae5ddd13542e7c997f39e9d21c7f2f623" target="_top" xlink:title="AnalogInput::SetAccumulator\lCenter">
<polygon fill="white" stroke="black" points="221.5,-256 221.5,-286 364.5,-286 364.5,-256 221.5,-256"/>
<text text-anchor="start" x="229.5" y="-274" font-family="Helvetica,sans-Serif" font-size="10.00">AnalogInput::SetAccumulator</text>
<text text-anchor="middle" x="293" y="-263" font-family="Helvetica,sans-Serif" font-size="10.00">Center</text>
</a>
</g>
<!-- Node2&#45;&gt;Node10 -->
<g id="edge26" class="edge"><title>Node2&#45;&gt;Node10</title>
<path fill="none" stroke="midnightblue" d="M179.851,-271C189.553,-271 200.364,-271 211.337,-271"/>
<polygon fill="midnightblue" stroke="midnightblue" points="211.433,-274.5 221.433,-271 211.433,-267.5 211.433,-274.5"/>
</g>
<!-- Node11 -->
<g id="node26" class="node"><title>Node11</title>
<a xlink:href="class_analog_input.html#a0c6b4387695c1522860a2fb1e5fbee82" target="_top" xlink:title="AnalogInput::ResetAccumulator">
<polygon fill="white" stroke="black" points="216,-217.5 216,-236.5 370,-236.5 370,-217.5 216,-217.5"/>
<text text-anchor="middle" x="293" y="-224.5" font-family="Helvetica,sans-Serif" font-size="10.00">AnalogInput::ResetAccumulator</text>
</a>
</g>
<!-- Node2&#45;&gt;Node11 -->
<g id="edge30" class="edge"><title>Node2&#45;&gt;Node11</title>
<path fill="none" stroke="midnightblue" d="M168.551,-261.45C182.575,-256.554 200.125,-250.658 216,-246 224.161,-243.606 232.869,-241.247 241.371,-239.051"/>
<polygon fill="midnightblue" stroke="midnightblue" points="242.379,-242.406 251.211,-236.553 240.657,-235.621 242.379,-242.406"/>
</g>
<!-- Node15 -->
<g id="node36" class="node"><title>Node15</title>
<a xlink:href="class_gyro.html#a579957af7a1f693cde4b85c48e85ef7a" target="_top" xlink:title="Gyro::SetDeadband">
<polygon fill="white" stroke="black" points="242,-171.5 242,-190.5 344,-190.5 344,-171.5 242,-171.5"/>
<text text-anchor="middle" x="293" y="-178.5" font-family="Helvetica,sans-Serif" font-size="10.00">Gyro::SetDeadband</text>
</a>
</g>
<!-- Node2&#45;&gt;Node15 -->
<g id="edge42" class="edge"><title>Node2&#45;&gt;Node15</title>
<path fill="none" stroke="midnightblue" d="M151.178,-261.198C164.372,-247.604 189.986,-223.009 216,-208 225.657,-202.428 236.659,-197.71 247.236,-193.854"/>
<polygon fill="midnightblue" stroke="midnightblue" points="248.47,-197.131 256.778,-190.555 246.183,-190.515 248.47,-197.131"/>
</g>
<!-- Node18 -->
<g id="node45" class="node"><title>Node18</title>
<a xlink:href="class_gyro.html#aaeaaf91d0da573f1dc90d0bffb34b7ae" target="_top" xlink:title="Gyro::SetPIDSourceParameter">
<polygon fill="white" stroke="black" points="218,-133.5 218,-152.5 368,-152.5 368,-133.5 218,-133.5"/>
<text text-anchor="middle" x="293" y="-140.5" font-family="Helvetica,sans-Serif" font-size="10.00">Gyro::SetPIDSourceParameter</text>
</a>
</g>
<!-- Node2&#45;&gt;Node18 -->
<g id="edge54" class="edge"><title>Node2&#45;&gt;Node18</title>
<path fill="none" stroke="midnightblue" d="M145.69,-261.395C154.426,-239.988 178.497,-188.194 216,-162 218.875,-159.992 221.941,-158.196 225.132,-156.59"/>
<polygon fill="midnightblue" stroke="midnightblue" points="226.631,-159.754 234.395,-152.545 223.83,-153.339 226.631,-159.754"/>
</g>
<!-- Node19 -->
<g id="node47" class="node"><title>Node19</title>
<a xlink:href="class_analog_input.html#ae1a03d52531f2dc16a8c6b4a8040fa57" target="_top" xlink:title="AnalogInput::GetChannel">
<polygon fill="white" stroke="black" points="230.5,-95.5 230.5,-114.5 355.5,-114.5 355.5,-95.5 230.5,-95.5"/>
<text text-anchor="middle" x="293" y="-102.5" font-family="Helvetica,sans-Serif" font-size="10.00">AnalogInput::GetChannel</text>
</a>
</g>
<!-- Node2&#45;&gt;Node19 -->
<g id="edge56" class="edge"><title>Node2&#45;&gt;Node19</title>
<path fill="none" stroke="midnightblue" d="M143.934,-261.349C149.745,-234.964 169.592,-161.124 216,-124 218.091,-122.327 220.31,-120.8 222.624,-119.404"/>
<polygon fill="midnightblue" stroke="midnightblue" points="224.635,-122.309 231.96,-114.654 221.46,-116.07 224.635,-122.309"/>
</g>
<!-- Node20 -->
<g id="node50" class="node"><title>Node20</title>
<a xlink:href="class_live_window.html#a329c07efec22a0e0644d70279688aa35" target="_top" xlink:title="LiveWindow::GetInstance">
<polygon fill="white" stroke="black" points="230,-57.5 230,-76.5 356,-76.5 356,-57.5 230,-57.5"/>
<text text-anchor="middle" x="293" y="-64.5" font-family="Helvetica,sans-Serif" font-size="10.00">LiveWindow::GetInstance</text>
</a>
</g>
<!-- Node2&#45;&gt;Node20 -->
<g id="edge60" class="edge"><title>Node2&#45;&gt;Node20</title>
<path fill="none" stroke="midnightblue" d="M142.864,-261.196C146.124,-230.348 160.491,-134.453 216,-86 217.79,-84.4376 219.689,-83 221.675,-81.6774"/>
<polygon fill="midnightblue" stroke="midnightblue" points="223.813,-84.4941 230.863,-76.5848 220.419,-78.3718 223.813,-84.4941"/>
</g>
<!-- Node23 -->
<g id="node56" class="node"><title>Node23</title>
<a xlink:href="class_live_window.html#a5dc37b1651d0bced92127dd2c69a94ce" target="_top" xlink:title="LiveWindow::AddSensor">
<polygon fill="white" stroke="black" points="232,-19.5 232,-38.5 354,-38.5 354,-19.5 232,-19.5"/>
<text text-anchor="middle" x="293" y="-26.5" font-family="Helvetica,sans-Serif" font-size="10.00">LiveWindow::AddSensor</text>
</a>
</g>
<!-- Node2&#45;&gt;Node23 -->
<g id="edge66" class="edge"><title>Node2&#45;&gt;Node23</title>
<path fill="none" stroke="midnightblue" d="M142.11,-261.241C143.053,-226.568 151.094,-108.187 216,-48 218.15,-46.006 220.478,-44.2131 222.937,-42.6016"/>
<polygon fill="midnightblue" stroke="midnightblue" points="224.642,-45.6581 231.741,-37.7926 221.287,-39.5149 224.642,-45.6581"/>
</g>
<!-- Node4 -->
<g id="node7" class="node"><title>Node4</title>
<a xlink:href="class_error_base.html#a05790f219c9e436a09752f73f7344024" target="_top" xlink:title="Check if the current error code represents a fatal error. ">
<polygon fill="white" stroke="black" points="600,-316.5 600,-335.5 724,-335.5 724,-316.5 600,-316.5"/>
<text text-anchor="middle" x="662" y="-323.5" font-family="Helvetica,sans-Serif" font-size="10.00">ErrorBase::StatusIsFatal</text>
</a>
</g>
<!-- Node3&#45;&gt;Node4 -->
<g id="edge6" class="edge"><title>Node3&#45;&gt;Node4</title>
<path fill="none" stroke="midnightblue" d="M548.283,-506.889C553.903,-504.123 559.255,-500.857 564,-497 614.646,-455.836 643.752,-380.76 655.239,-345.4"/>
<polygon fill="midnightblue" stroke="midnightblue" points="658.602,-346.372 658.243,-335.783 651.92,-344.285 658.602,-346.372"/>
</g>
<!-- Node5&#45;&gt;Node4 -->
<g id="edge10" class="edge"><title>Node5&#45;&gt;Node4</title>
<path fill="none" stroke="midnightblue" d="M544.986,-468.421C551.704,-465.963 558.209,-462.876 564,-459 607.554,-429.851 638.483,-374.217 652.526,-344.999"/>
<polygon fill="midnightblue" stroke="midnightblue" points="655.736,-346.396 656.782,-335.853 649.39,-343.443 655.736,-346.396"/>
</g>
<!-- Node6&#45;&gt;Node4 -->
<g id="edge14" class="edge"><title>Node6&#45;&gt;Node4</title>
<path fill="none" stroke="midnightblue" d="M541.531,-430.399C549.335,-427.939 557.055,-424.857 564,-421 599.498,-401.285 631.145,-365.086 648.049,-343.515"/>
<polygon fill="midnightblue" stroke="midnightblue" points="650.874,-345.582 654.169,-335.513 645.314,-341.33 650.874,-345.582"/>
</g>
<!-- Node8&#45;&gt;Node4 -->
<g id="edge20" class="edge"><title>Node8&#45;&gt;Node4</title>
<path fill="none" stroke="midnightblue" d="M522.24,-392.436C535.571,-388.505 550.663,-383.565 564,-378 589.611,-367.314 617.382,-352.016 636.62,-340.779"/>
<polygon fill="midnightblue" stroke="midnightblue" points="638.506,-343.73 645.331,-335.627 634.942,-337.705 638.506,-343.73"/>
</g>
<!-- Node9&#45;&gt;Node4 -->
<g id="edge24" class="edge"><title>Node9&#45;&gt;Node4</title>
<path fill="none" stroke="midnightblue" d="M365.145,-334.648C378.656,-336.877 392.719,-338.824 406,-340 475.948,-346.196 493.958,-345.029 564,-340 573.928,-339.287 584.384,-338.169 594.608,-336.868"/>
<polygon fill="midnightblue" stroke="midnightblue" points="595.279,-340.31 604.727,-335.515 594.351,-333.372 595.279,-340.31"/>
</g>
<!-- Node10&#45;&gt;Node4 -->
<g id="edge28" class="edge"><title>Node10&#45;&gt;Node4</title>
<path fill="none" stroke="midnightblue" d="M341.257,-286.07C361.072,-291.867 384.471,-298.039 406,-302 467.499,-313.314 538.379,-319.44 589.777,-322.664"/>
<polygon fill="midnightblue" stroke="midnightblue" points="589.594,-326.159 599.788,-323.27 590.018,-319.172 589.594,-326.159"/>
</g>
<!-- Node11&#45;&gt;Node4 -->
<g id="edge32" class="edge"><title>Node11&#45;&gt;Node4</title>
<path fill="none" stroke="midnightblue" d="M342.213,-236.55C351.612,-239.106 361.256,-242.233 370,-246 387.438,-253.512 388.419,-261.83 406,-269 472.426,-296.089 494.058,-286.049 564,-302 580.233,-305.702 597.929,-310.002 613.708,-313.93"/>
<polygon fill="midnightblue" stroke="midnightblue" points="613.215,-317.415 623.766,-316.449 614.915,-310.625 613.215,-317.415"/>
</g>
<!-- Node12 -->
<g id="node29" class="node"><title>Node12</title>
<a xlink:href="class_analog_input.html#a3e81e6477668b15b1da6965972987596" target="_top" xlink:title="AnalogInput::GetSampleRate">
<polygon fill="white" stroke="black" points="413.5,-240.5 413.5,-259.5 556.5,-259.5 556.5,-240.5 413.5,-240.5"/>
<text text-anchor="middle" x="485" y="-247.5" font-family="Helvetica,sans-Serif" font-size="10.00">AnalogInput::GetSampleRate</text>
</a>
</g>
<!-- Node11&#45;&gt;Node12 -->
<g id="edge34" class="edge"><title>Node11&#45;&gt;Node12</title>
<path fill="none" stroke="midnightblue" d="M370.185,-236.222C381.094,-237.543 392.346,-238.905 403.337,-240.236"/>
<polygon fill="midnightblue" stroke="midnightblue" points="402.991,-243.719 413.34,-241.446 403.833,-236.77 402.991,-243.719"/>
</g>
<!-- Node13 -->
<g id="node31" class="node"><title>Node13</title>
<a xlink:href="class_analog_input.html#a713786ced6451b57fbcec31cf7cb1340" target="_top" xlink:title="AnalogInput::GetOversampleBits">
<polygon fill="white" stroke="black" points="406,-164.5 406,-183.5 564,-183.5 564,-164.5 406,-164.5"/>
<text text-anchor="middle" x="485" y="-171.5" font-family="Helvetica,sans-Serif" font-size="10.00">AnalogInput::GetOversampleBits</text>
</a>
</g>
<!-- Node11&#45;&gt;Node13 -->
<g id="edge36" class="edge"><title>Node11&#45;&gt;Node13</title>
<path fill="none" stroke="midnightblue" d="M323.817,-217.453C346.308,-210.373 377.97,-200.662 406,-193 414.787,-190.598 424.172,-188.184 433.276,-185.921"/>
<polygon fill="midnightblue" stroke="midnightblue" points="434.127,-189.316 443.003,-183.532 432.457,-182.518 434.127,-189.316"/>
</g>
<!-- Node14 -->
<g id="node34" class="node"><title>Node14</title>
<a xlink:href="class_analog_input.html#a24193ed1cb0260e7626aecabcf812ef2" target="_top" xlink:title="AnalogInput::GetAverageBits">
<polygon fill="white" stroke="black" points="414.5,-202.5 414.5,-221.5 555.5,-221.5 555.5,-202.5 414.5,-202.5"/>
<text text-anchor="middle" x="485" y="-209.5" font-family="Helvetica,sans-Serif" font-size="10.00">AnalogInput::GetAverageBits</text>
</a>
</g>
<!-- Node11&#45;&gt;Node14 -->
<g id="edge40" class="edge"><title>Node11&#45;&gt;Node14</title>
<path fill="none" stroke="midnightblue" d="M370.185,-220.985C381.331,-220.105 392.836,-219.197 404.054,-218.312"/>
<polygon fill="midnightblue" stroke="midnightblue" points="404.563,-221.782 414.256,-217.506 404.012,-214.804 404.563,-221.782"/>
</g>
<!-- Node13&#45;&gt;Node4 -->
<g id="edge38" class="edge"><title>Node13&#45;&gt;Node4</title>
<path fill="none" stroke="midnightblue" d="M544.986,-183.579C551.704,-186.037 558.209,-189.124 564,-193 607.554,-222.149 638.483,-277.783 652.526,-307.001"/>
<polygon fill="midnightblue" stroke="midnightblue" points="649.39,-308.557 656.782,-316.147 655.736,-305.604 649.39,-308.557"/>
</g>
<!-- Node15&#45;&gt;Node13 -->
<g id="edge48" class="edge"><title>Node15&#45;&gt;Node13</title>
<path fill="none" stroke="midnightblue" d="M344.418,-179.143C360.133,-178.564 377.953,-177.907 395.478,-177.261"/>
<polygon fill="midnightblue" stroke="midnightblue" points="395.88,-180.749 405.744,-176.883 395.622,-173.754 395.88,-180.749"/>
</g>
<!-- Node16 -->
<g id="node38" class="node"><title>Node16</title>
<a xlink:href="class_analog_input.html#af34dfab137f2fed40c98b4f0871c84cc" target="_top" xlink:title="AnalogInput::GetLSBWeight">
<polygon fill="white" stroke="black" points="415.5,-126.5 415.5,-145.5 554.5,-145.5 554.5,-126.5 415.5,-126.5"/>
<text text-anchor="middle" x="485" y="-133.5" font-family="Helvetica,sans-Serif" font-size="10.00">AnalogInput::GetLSBWeight</text>
</a>
</g>
<!-- Node15&#45;&gt;Node16 -->
<g id="edge44" class="edge"><title>Node15&#45;&gt;Node16</title>
<path fill="none" stroke="midnightblue" d="M334.294,-171.457C363.389,-164.566 402.869,-155.215 433.981,-147.847"/>
<polygon fill="midnightblue" stroke="midnightblue" points="434.84,-151.24 443.764,-145.53 433.227,-144.429 434.84,-151.24"/>
</g>
<!-- Node17 -->
<g id="node42" class="node"><title>Node17</title>
<a xlink:href="class_analog_input.html#a4f0f6a1049d6f150fcaa4429cc322ac7" target="_top" xlink:title="AnalogInput::SetAccumulator\lDeadband">
<polygon fill="white" stroke="black" points="413.5,-77 413.5,-107 556.5,-107 556.5,-77 413.5,-77"/>
<text text-anchor="start" x="421.5" y="-95" font-family="Helvetica,sans-Serif" font-size="10.00">AnalogInput::SetAccumulator</text>
<text text-anchor="middle" x="485" y="-84" font-family="Helvetica,sans-Serif" font-size="10.00">Deadband</text>
</a>
</g>
<!-- Node15&#45;&gt;Node17 -->
<g id="edge50" class="edge"><title>Node15&#45;&gt;Node17</title>
<path fill="none" stroke="midnightblue" d="M344.169,-173.391C353.206,-170.677 362.216,-166.995 370,-162 391.556,-148.168 384.906,-131.528 406,-117 408.899,-115.004 411.966,-113.16 415.142,-111.457"/>
<polygon fill="midnightblue" stroke="midnightblue" points="416.845,-114.522 424.331,-107.025 413.804,-108.217 416.845,-114.522"/>
</g>
<!-- Node16&#45;&gt;Node4 -->
<g id="edge46" class="edge"><title>Node16&#45;&gt;Node4</title>
<path fill="none" stroke="midnightblue" d="M547.022,-145.58C553.088,-148.047 558.884,-151.136 564,-155 616.327,-194.521 644.746,-271.035 655.67,-306.756"/>
<polygon fill="midnightblue" stroke="midnightblue" points="652.338,-307.832 658.506,-316.447 659.056,-305.866 652.338,-307.832"/>
</g>
<!-- Node17&#45;&gt;Node4 -->
<g id="edge52" class="edge"><title>Node17&#45;&gt;Node4</title>
<path fill="none" stroke="midnightblue" d="M549.39,-107.117C554.658,-109.878 559.629,-113.142 564,-117 623.336,-169.38 648.895,-265.64 657.444,-306.661"/>
<polygon fill="midnightblue" stroke="midnightblue" points="654.011,-307.341 659.38,-316.475 660.879,-305.987 654.011,-307.341"/>
</g>
<!-- Node19&#45;&gt;Node4 -->
<g id="edge58" class="edge"><title>Node19&#45;&gt;Node4</title>
<path fill="none" stroke="midnightblue" d="M339.965,-95.4015C350.005,-92.7835 360.473,-89.6439 370,-86 386.898,-79.5371 388.439,-71.3498 406,-67 474.162,-50.1163 506.291,-26.9896 564,-67 645.086,-123.218 658.496,-256.067 660.631,-306.299"/>
<polygon fill="midnightblue" stroke="midnightblue" points="657.138,-306.573 660.952,-316.458 664.135,-306.352 657.138,-306.573"/>
</g>
<!-- Node21 -->
<g id="node52" class="node"><title>Node21</title>
<a xlink:href="class_live_window.html#ac33cec031b5990d91e5c68efb3340b68" target="_top" xlink:title="LiveWindow::LiveWindow">
<polygon fill="white" stroke="black" points="422.5,-0.5 422.5,-19.5 547.5,-19.5 547.5,-0.5 422.5,-0.5"/>
<text text-anchor="middle" x="485" y="-7.5" font-family="Helvetica,sans-Serif" font-size="10.00">LiveWindow::LiveWindow</text>
</a>
</g>
<!-- Node20&#45;&gt;Node21 -->
<g id="edge62" class="edge"><title>Node20&#45;&gt;Node21</title>
<path fill="none" stroke="midnightblue" d="M336.078,-57.4838C347.188,-54.6986 359.113,-51.4626 370,-48 386.36,-42.7967 389.785,-39.6391 406,-34 417.385,-30.0405 429.818,-26.062 441.344,-22.5145"/>
<polygon fill="midnightblue" stroke="midnightblue" points="442.643,-25.778 451.191,-19.5192 440.605,-19.081 442.643,-25.778"/>
</g>
<!-- Node22 -->
<g id="node54" class="node"><title>Node22</title>
<a xlink:href="class_scheduler.html#a5cc7ff43cb79880d28586b07ec967070" target="_top" xlink:title="Scheduler::GetInstance">
<polygon fill="white" stroke="black" points="602.5,-0.5 602.5,-19.5 721.5,-19.5 721.5,-0.5 602.5,-0.5"/>
<text text-anchor="middle" x="662" y="-7.5" font-family="Helvetica,sans-Serif" font-size="10.00">Scheduler::GetInstance</text>
</a>
</g>
<!-- Node21&#45;&gt;Node22 -->
<g id="edge64" class="edge"><title>Node21&#45;&gt;Node22</title>
<path fill="none" stroke="midnightblue" d="M547.698,-10C562.17,-10 577.676,-10 592.428,-10"/>
<polygon fill="midnightblue" stroke="midnightblue" points="592.499,-13.5001 602.498,-10 592.498,-6.5001 592.499,-13.5001"/>
</g>
</g>
</svg>
