<?xml version="1.0" encoding="UTF-8" standalone="no"?>
<!DOCTYPE svg PUBLIC "-//W3C//DTD SVG 1.1//EN"
 "http://www.w3.org/Graphics/SVG/1.1/DTD/svg11.dtd">
<!-- Generated by graphviz version 2.28.0 (20110507.0327)
 -->
<!-- Title: SafePWM::IsAlive Pages: 1 -->
<svg width="534pt" height="38pt"
 viewBox="0.00 0.00 534.00 38.00" xmlns="http://www.w3.org/2000/svg" xmlns:xlink="http://www.w3.org/1999/xlink">
<g id="graph1" class="graph" transform="scale(1 1) rotate(0) translate(4 34)">
<title>SafePWM::IsAlive</title>
<polygon fill="white" stroke="white" points="-4,5 -4,-34 531,-34 531,5 -4,5"/>
<!-- Node1 -->
<g id="node1" class="node"><title>Node1</title>
<polygon fill="#bfbfbf" stroke="black" points="0.5,-5.5 0.5,-24.5 95.5,-24.5 95.5,-5.5 0.5,-5.5"/>
<text text-anchor="middle" x="48" y="-12.5" font-family="Helvetica,sans-Serif" font-size="10.00">SafePWM::IsAlive</text>
</g>
<!-- Node2 -->
<g id="node3" class="node"><title>Node2</title>
<a xlink:href="class_motor_safety_helper.html#a3d4d90d4f7bc0d76445a55e5ea1d75e8" target="_top" xlink:title="MotorSafetyHelper::\lIsAlive">
<polygon fill="white" stroke="black" points="132.5,-0 132.5,-30 235.5,-30 235.5,-0 132.5,-0"/>
<text text-anchor="start" x="140.5" y="-18" font-family="Helvetica,sans-Serif" font-size="10.00">MotorSafetyHelper::</text>
<text text-anchor="middle" x="184" y="-7" font-family="Helvetica,sans-Serif" font-size="10.00">IsAlive</text>
</a>
</g>
<!-- Node1&#45;&gt;Node2 -->
<g id="edge2" class="edge"><title>Node1&#45;&gt;Node2</title>
<path fill="none" stroke="midnightblue" d="M95.8667,-15C104.329,-15 113.264,-15 122.058,-15"/>
<polygon fill="midnightblue" stroke="midnightblue" points="122.281,-18.5001 132.281,-15 122.281,-11.5001 122.281,-18.5001"/>
</g>
<!-- Node3 -->
<g id="node5" class="node"><title>Node3</title>
<a xlink:href="class_timer.html#a7fa6e6dffec055e5104ccd6bcadec9aa" target="_top" xlink:title="Timer::GetFPGATimestamp">
<polygon fill="white" stroke="black" points="272.5,-5.5 272.5,-24.5 409.5,-24.5 409.5,-5.5 272.5,-5.5"/>
<text text-anchor="middle" x="341" y="-12.5" font-family="Helvetica,sans-Serif" font-size="10.00">Timer::GetFPGATimestamp</text>
</a>
</g>
<!-- Node2&#45;&gt;Node3 -->
<g id="edge4" class="edge"><title>Node2&#45;&gt;Node3</title>
<path fill="none" stroke="midnightblue" d="M235.753,-15C244.22,-15 253.173,-15 262.133,-15"/>
<polygon fill="midnightblue" stroke="midnightblue" points="262.226,-18.5001 272.226,-15 262.226,-11.5001 262.226,-18.5001"/>
</g>
<!-- Node4 -->
<g id="node7" class="node"><title>Node4</title>
<a xlink:href="_utility_8h.html#ababf055d95368485d48bd9a0231853f3" target="_top" xlink:title="GetFPGATime">
<polygon fill="white" stroke="black" points="446,-5.5 446,-24.5 526,-24.5 526,-5.5 446,-5.5"/>
<text text-anchor="middle" x="486" y="-12.5" font-family="Helvetica,sans-Serif" font-size="10.00">GetFPGATime</text>
</a>
</g>
<!-- Node3&#45;&gt;Node4 -->
<g id="edge6" class="edge"><title>Node3&#45;&gt;Node4</title>
<path fill="none" stroke="midnightblue" d="M409.731,-15C418.558,-15 427.463,-15 435.904,-15"/>
<polygon fill="midnightblue" stroke="midnightblue" points="435.934,-18.5001 445.933,-15 435.933,-11.5001 435.934,-18.5001"/>
</g>
</g>
</svg>
