<?xml version="1.0" encoding="UTF-8" standalone="no"?>
<!DOCTYPE svg PUBLIC "-//W3C//DTD SVG 1.1//EN"
 "http://www.w3.org/Graphics/SVG/1.1/DTD/svg11.dtd">
<!-- Generated by graphviz version 2.28.0 (20110507.0327)
 -->
<!-- Title: AnalogInput::PIDGet Pages: 1 -->
<svg width="468pt" height="47pt"
 viewBox="0.00 0.00 468.00 47.00" xmlns="http://www.w3.org/2000/svg" xmlns:xlink="http://www.w3.org/1999/xlink">
<g id="graph1" class="graph" transform="scale(1 1) rotate(0) translate(4 43)">
<title>AnalogInput::PIDGet</title>
<polygon fill="white" stroke="white" points="-4,5 -4,-43 465,-43 465,5 -4,5"/>
<!-- Node1 -->
<g id="node1" class="node"><title>Node1</title>
<polygon fill="#bfbfbf" stroke="black" points="0.5,-19.5 0.5,-38.5 105.5,-38.5 105.5,-19.5 0.5,-19.5"/>
<text text-anchor="middle" x="53" y="-26.5" font-family="Helvetica,sans-Serif" font-size="10.00">AnalogInput::PIDGet</text>
</g>
<!-- Node2 -->
<g id="node3" class="node"><title>Node2</title>
<a xlink:href="class_error_base.html#a05790f219c9e436a09752f73f7344024" target="_top" xlink:title="Check if the current error code represents a fatal error. ">
<polygon fill="white" stroke="black" points="336,-19.5 336,-38.5 460,-38.5 460,-19.5 336,-19.5"/>
<text text-anchor="middle" x="398" y="-26.5" font-family="Helvetica,sans-Serif" font-size="10.00">ErrorBase::StatusIsFatal</text>
</a>
</g>
<!-- Node1&#45;&gt;Node2 -->
<g id="edge2" class="edge"><title>Node1&#45;&gt;Node2</title>
<path fill="none" stroke="midnightblue" d="M105.722,-29C164.256,-29 259.972,-29 325.599,-29"/>
<polygon fill="midnightblue" stroke="midnightblue" points="325.864,-32.5001 335.863,-29 325.863,-25.5001 325.864,-32.5001"/>
</g>
<!-- Node3 -->
<g id="node5" class="node"><title>Node3</title>
<a xlink:href="class_analog_input.html#a48743112f8b15e3b2cea8a64ed541308" target="_top" xlink:title="AnalogInput::GetAverageVoltage">
<polygon fill="white" stroke="black" points="142.5,-0.5 142.5,-19.5 299.5,-19.5 299.5,-0.5 142.5,-0.5"/>
<text text-anchor="middle" x="221" y="-7.5" font-family="Helvetica,sans-Serif" font-size="10.00">AnalogInput::GetAverageVoltage</text>
</a>
</g>
<!-- Node1&#45;&gt;Node3 -->
<g id="edge4" class="edge"><title>Node1&#45;&gt;Node3</title>
<path fill="none" stroke="midnightblue" d="M105.613,-23.0924C114.05,-22.1268 122.994,-21.1031 132.016,-20.0704"/>
<polygon fill="midnightblue" stroke="midnightblue" points="132.676,-23.5178 142.214,-18.9033 131.88,-16.5632 132.676,-23.5178"/>
</g>
<!-- Node3&#45;&gt;Node2 -->
<g id="edge6" class="edge"><title>Node3&#45;&gt;Node2</title>
<path fill="none" stroke="midnightblue" d="M299.522,-18.4167C308.261,-19.3655 317.136,-20.329 325.789,-21.2686"/>
<polygon fill="midnightblue" stroke="midnightblue" points="325.506,-24.7583 335.826,-22.3582 326.262,-17.7992 325.506,-24.7583"/>
</g>
</g>
</svg>
