<?xml version="1.0" encoding="UTF-8" standalone="no"?>
<!DOCTYPE svg PUBLIC "-//W3C//DTD SVG 1.1//EN"
 "http://www.w3.org/Graphics/SVG/1.1/DTD/svg11.dtd">
<!-- Generated by graphviz version 2.28.0 (20110507.0327)
 -->
<!-- Title: Joystick::GetX Pages: 1 -->
<svg width="458pt" height="104pt"
 viewBox="0.00 0.00 458.00 104.00" xmlns="http://www.w3.org/2000/svg" xmlns:xlink="http://www.w3.org/1999/xlink">
<g id="graph1" class="graph" transform="scale(1 1) rotate(0) translate(4 100)">
<title>Joystick::GetX</title>
<polygon fill="white" stroke="white" points="-4,5 -4,-100 455,-100 455,5 -4,5"/>
<!-- Node1 -->
<g id="node1" class="node"><title>Node1</title>
<polygon fill="#bfbfbf" stroke="black" points="0,-38.5 0,-57.5 80,-57.5 80,-38.5 0,-38.5"/>
<text text-anchor="middle" x="40" y="-45.5" font-family="Helvetica,sans-Serif" font-size="10.00">Joystick::GetX</text>
</g>
<!-- Node2 -->
<g id="node3" class="node"><title>Node2</title>
<a xlink:href="class_joystick.html#a5f55e80b1399c3a04c5108488382dbc8" target="_top" xlink:title="Joystick::GetAxis">
<polygon fill="white" stroke="black" points="143,-76.5 143,-95.5 237,-95.5 237,-76.5 143,-76.5"/>
<text text-anchor="middle" x="190" y="-83.5" font-family="Helvetica,sans-Serif" font-size="10.00">Joystick::GetAxis</text>
</a>
</g>
<!-- Node1&#45;&gt;Node2 -->
<g id="edge2" class="edge"><title>Node1&#45;&gt;Node2</title>
<path fill="none" stroke="midnightblue" d="M88.1735,-60.1121C108.786,-65.4044 132.609,-71.5213 151.922,-76.4799"/>
<polygon fill="midnightblue" stroke="midnightblue" points="88.9029,-56.6859 78.3466,-57.589 87.162,-63.466 88.9029,-56.6859"/>
</g>
<!-- Node3 -->
<g id="node5" class="node"><title>Node3</title>
<a xlink:href="class_joystick.html#a98ca6faf135eed78d1401f779ea862c2" target="_top" xlink:title="Joystick::GetMagnitude">
<polygon fill="white" stroke="black" points="130.5,-38.5 130.5,-57.5 249.5,-57.5 249.5,-38.5 130.5,-38.5"/>
<text text-anchor="middle" x="190" y="-45.5" font-family="Helvetica,sans-Serif" font-size="10.00">Joystick::GetMagnitude</text>
</a>
</g>
<!-- Node1&#45;&gt;Node3 -->
<g id="edge4" class="edge"><title>Node1&#45;&gt;Node3</title>
<path fill="none" stroke="midnightblue" d="M90.2818,-48C103.104,-48 117.045,-48 130.301,-48"/>
<polygon fill="midnightblue" stroke="midnightblue" points="90.2728,-44.5001 80.2727,-48 90.2727,-51.5001 90.2728,-44.5001"/>
</g>
<!-- Node4 -->
<g id="node7" class="node"><title>Node4</title>
<a xlink:href="class_joystick.html#a1ffd1a1d97440eb1a611361bdcac33fc" target="_top" xlink:title="Joystick::GetDirectionRadians">
<polygon fill="white" stroke="black" points="116,-0.5 116,-19.5 264,-19.5 264,-0.5 116,-0.5"/>
<text text-anchor="middle" x="190" y="-7.5" font-family="Helvetica,sans-Serif" font-size="10.00">Joystick::GetDirectionRadians</text>
</a>
</g>
<!-- Node1&#45;&gt;Node4 -->
<g id="edge6" class="edge"><title>Node1&#45;&gt;Node4</title>
<path fill="none" stroke="midnightblue" d="M88.1735,-35.8879C108.786,-30.5956 132.609,-24.4787 151.922,-19.5201"/>
<polygon fill="midnightblue" stroke="midnightblue" points="87.162,-32.534 78.3466,-38.411 88.9029,-39.3141 87.162,-32.534"/>
</g>
<!-- Node5 -->
<g id="node9" class="node"><title>Node5</title>
<a xlink:href="class_joystick.html#a0f49244825f4ce57aafde3830eba8e7f" target="_top" xlink:title="Joystick::GetDirectionDegrees">
<polygon fill="white" stroke="black" points="300.5,-0.5 300.5,-19.5 449.5,-19.5 449.5,-0.5 300.5,-0.5"/>
<text text-anchor="middle" x="375" y="-7.5" font-family="Helvetica,sans-Serif" font-size="10.00">Joystick::GetDirectionDegrees</text>
</a>
</g>
<!-- Node4&#45;&gt;Node5 -->
<g id="edge8" class="edge"><title>Node4&#45;&gt;Node5</title>
<path fill="none" stroke="midnightblue" d="M274.28,-10C282.994,-10 291.808,-10 300.403,-10"/>
<polygon fill="midnightblue" stroke="midnightblue" points="274.115,-6.5001 264.115,-10 274.115,-13.5001 274.115,-6.5001"/>
</g>
</g>
</svg>
