<?xml version="1.0" encoding="UTF-8" standalone="no"?>
<!DOCTYPE svg PUBLIC "-//W3C//DTD SVG 1.1//EN"
 "http://www.w3.org/Graphics/SVG/1.1/DTD/svg11.dtd">
<!-- Generated by graphviz version 2.28.0 (20110507.0327)
 -->
<!-- Title: Gyro::GetAngle Pages: 1 -->
<svg width="432pt" height="153pt"
 viewBox="0.00 0.00 432.00 153.00" xmlns="http://www.w3.org/2000/svg" xmlns:xlink="http://www.w3.org/1999/xlink">
<g id="graph1" class="graph" transform="scale(1 1) rotate(0) translate(4 149)">
<title>Gyro::GetAngle</title>
<polygon fill="white" stroke="white" points="-4,5 -4,-149 429,-149 429,5 -4,5"/>
<!-- Node1 -->
<g id="node1" class="node"><title>Node1</title>
<polygon fill="#bfbfbf" stroke="black" points="0,-57.5 0,-76.5 84,-76.5 84,-57.5 0,-57.5"/>
<text text-anchor="middle" x="42" y="-64.5" font-family="Helvetica,sans-Serif" font-size="10.00">Gyro::GetAngle</text>
</g>
<!-- Node2 -->
<g id="node3" class="node"><title>Node2</title>
<a xlink:href="class_analog_input.html#ad783c1e390adc95921f2d4c73b645365" target="_top" xlink:title="AnalogInput::GetAccumulator\lOutput">
<polygon fill="white" stroke="black" points="120,-115 120,-145 264,-145 264,-115 120,-115"/>
<text text-anchor="start" x="128" y="-133" font-family="Helvetica,sans-Serif" font-size="10.00">AnalogInput::GetAccumulator</text>
<text text-anchor="middle" x="192" y="-122" font-family="Helvetica,sans-Serif" font-size="10.00">Output</text>
</a>
</g>
<!-- Node1&#45;&gt;Node2 -->
<g id="edge2" class="edge"><title>Node1&#45;&gt;Node2</title>
<path fill="none" stroke="midnightblue" d="M60.7644,-76.5258C76.1921,-84.614 99.2537,-96.2653 120,-105 125.119,-107.155 130.495,-109.284 135.902,-111.335"/>
<polygon fill="midnightblue" stroke="midnightblue" points="135.025,-114.743 145.618,-114.934 137.456,-108.178 135.025,-114.743"/>
</g>
<!-- Node4 -->
<g id="node7" class="node"><title>Node4</title>
<a xlink:href="class_analog_input.html#af34dfab137f2fed40c98b4f0871c84cc" target="_top" xlink:title="AnalogInput::GetLSBWeight">
<polygon fill="white" stroke="black" points="122.5,-76.5 122.5,-95.5 261.5,-95.5 261.5,-76.5 122.5,-76.5"/>
<text text-anchor="middle" x="192" y="-83.5" font-family="Helvetica,sans-Serif" font-size="10.00">AnalogInput::GetLSBWeight</text>
</a>
</g>
<!-- Node1&#45;&gt;Node4 -->
<g id="edge6" class="edge"><title>Node1&#45;&gt;Node4</title>
<path fill="none" stroke="midnightblue" d="M84.2263,-72.2926C93.05,-73.4253 102.653,-74.6581 112.363,-75.9047"/>
<polygon fill="midnightblue" stroke="midnightblue" points="112.127,-79.4031 122.492,-77.205 113.019,-72.4601 112.127,-79.4031"/>
</g>
<!-- Node5 -->
<g id="node10" class="node"><title>Node5</title>
<a xlink:href="class_analog_input.html#a24193ed1cb0260e7626aecabcf812ef2" target="_top" xlink:title="AnalogInput::GetAverageBits">
<polygon fill="white" stroke="black" points="121.5,-38.5 121.5,-57.5 262.5,-57.5 262.5,-38.5 121.5,-38.5"/>
<text text-anchor="middle" x="192" y="-45.5" font-family="Helvetica,sans-Serif" font-size="10.00">AnalogInput::GetAverageBits</text>
</a>
</g>
<!-- Node1&#45;&gt;Node5 -->
<g id="edge10" class="edge"><title>Node1&#45;&gt;Node5</title>
<path fill="none" stroke="midnightblue" d="M84.2263,-61.7074C92.7059,-60.6188 101.905,-59.4379 111.227,-58.2411"/>
<polygon fill="midnightblue" stroke="midnightblue" points="111.89,-61.6849 121.362,-56.94 110.998,-54.7419 111.89,-61.6849"/>
</g>
<!-- Node6 -->
<g id="node12" class="node"><title>Node6</title>
<a xlink:href="class_analog_input.html#a3e81e6477668b15b1da6965972987596" target="_top" xlink:title="AnalogInput::GetSampleRate">
<polygon fill="white" stroke="black" points="120.5,-0.5 120.5,-19.5 263.5,-19.5 263.5,-0.5 120.5,-0.5"/>
<text text-anchor="middle" x="192" y="-7.5" font-family="Helvetica,sans-Serif" font-size="10.00">AnalogInput::GetSampleRate</text>
</a>
</g>
<!-- Node1&#45;&gt;Node6 -->
<g id="edge12" class="edge"><title>Node1&#45;&gt;Node6</title>
<path fill="none" stroke="midnightblue" d="M59.9974,-57.3972C75.3189,-49.0381 98.6535,-37.0339 120,-29 126.339,-26.6144 133.101,-24.4012 139.839,-22.3916"/>
<polygon fill="midnightblue" stroke="midnightblue" points="140.984,-25.7046 149.641,-19.5964 139.065,-18.9729 140.984,-25.7046"/>
</g>
<!-- Node3 -->
<g id="node5" class="node"><title>Node3</title>
<a xlink:href="class_error_base.html#a05790f219c9e436a09752f73f7344024" target="_top" xlink:title="Check if the current error code represents a fatal error. ">
<polygon fill="white" stroke="black" points="300,-98.5 300,-117.5 424,-117.5 424,-98.5 300,-98.5"/>
<text text-anchor="middle" x="362" y="-105.5" font-family="Helvetica,sans-Serif" font-size="10.00">ErrorBase::StatusIsFatal</text>
</a>
</g>
<!-- Node2&#45;&gt;Node3 -->
<g id="edge4" class="edge"><title>Node2&#45;&gt;Node3</title>
<path fill="none" stroke="midnightblue" d="M264.247,-120.67C272.796,-119.551 281.526,-118.407 290.07,-117.288"/>
<polygon fill="midnightblue" stroke="midnightblue" points="290.533,-120.758 299.994,-115.989 289.624,-113.817 290.533,-120.758"/>
</g>
<!-- Node4&#45;&gt;Node3 -->
<g id="edge8" class="edge"><title>Node4&#45;&gt;Node3</title>
<path fill="none" stroke="midnightblue" d="M261.817,-95.0117C271.067,-96.223 280.571,-97.4676 289.86,-98.684"/>
<polygon fill="midnightblue" stroke="midnightblue" points="289.463,-102.162 299.833,-99.99 290.372,-95.2211 289.463,-102.162"/>
</g>
</g>
</svg>
