<?xml version="1.0" encoding="UTF-8" standalone="no"?>
<!DOCTYPE svg PUBLIC "-//W3C//DTD SVG 1.1//EN"
 "http://www.w3.org/Graphics/SVG/1.1/DTD/svg11.dtd">
<!-- Generated by graphviz version 2.28.0 (20110507.0327)
 -->
<!-- Title: InternalButton Pages: 1 -->
<svg width="84pt" height="196pt"
 viewBox="0.00 0.00 84.00 196.00" xmlns="http://www.w3.org/2000/svg" xmlns:xlink="http://www.w3.org/1999/xlink">
<g id="graph1" class="graph" transform="scale(1 1) rotate(0) translate(4 192)">
<title>InternalButton</title>
<polygon fill="white" stroke="white" points="-4,5 -4,-192 81,-192 81,5 -4,5"/>
<!-- Node1 -->
<g id="node1" class="node"><title>Node1</title>
<polygon fill="#bfbfbf" stroke="black" points="-0.5,-0.5 -0.5,-19.5 76.5,-19.5 76.5,-0.5 -0.5,-0.5"/>
<text text-anchor="middle" x="38" y="-7.5" font-family="Helvetica,sans-Serif" font-size="10.00">InternalButton</text>
</g>
<!-- Node2 -->
<g id="node2" class="node"><title>Node2</title>
<a xlink:href="class_button.html" target="_top" xlink:title="Button">
<polygon fill="white" stroke="black" points="15.5,-56.5 15.5,-75.5 60.5,-75.5 60.5,-56.5 15.5,-56.5"/>
<text text-anchor="middle" x="38" y="-63.5" font-family="Helvetica,sans-Serif" font-size="10.00">Button</text>
</a>
</g>
<!-- Node2&#45;&gt;Node1 -->
<g id="edge2" class="edge"><title>Node2&#45;&gt;Node1</title>
<path fill="none" stroke="midnightblue" d="M38,-45.8045C38,-36.9102 38,-26.7798 38,-19.7511"/>
<polygon fill="midnightblue" stroke="midnightblue" points="34.5001,-46.083 38,-56.083 41.5001,-46.083 34.5001,-46.083"/>
</g>
<!-- Node3 -->
<g id="node4" class="node"><title>Node3</title>
<a xlink:href="class_trigger.html" target="_top" xlink:title="Trigger">
<polygon fill="white" stroke="black" points="15,-112.5 15,-131.5 61,-131.5 61,-112.5 15,-112.5"/>
<text text-anchor="middle" x="38" y="-119.5" font-family="Helvetica,sans-Serif" font-size="10.00">Trigger</text>
</a>
</g>
<!-- Node3&#45;&gt;Node2 -->
<g id="edge4" class="edge"><title>Node3&#45;&gt;Node2</title>
<path fill="none" stroke="midnightblue" d="M38,-101.805C38,-92.9102 38,-82.7798 38,-75.7511"/>
<polygon fill="midnightblue" stroke="midnightblue" points="34.5001,-102.083 38,-112.083 41.5001,-102.083 34.5001,-102.083"/>
</g>
<!-- Node4 -->
<g id="node6" class="node"><title>Node4</title>
<a xlink:href="class_sendable.html" target="_top" xlink:title="Sendable">
<polygon fill="white" stroke="black" points="9.5,-168.5 9.5,-187.5 66.5,-187.5 66.5,-168.5 9.5,-168.5"/>
<text text-anchor="middle" x="38" y="-175.5" font-family="Helvetica,sans-Serif" font-size="10.00">Sendable</text>
</a>
</g>
<!-- Node4&#45;&gt;Node3 -->
<g id="edge6" class="edge"><title>Node4&#45;&gt;Node3</title>
<path fill="none" stroke="midnightblue" d="M38,-157.805C38,-148.91 38,-138.78 38,-131.751"/>
<polygon fill="midnightblue" stroke="midnightblue" points="34.5001,-158.083 38,-168.083 41.5001,-158.083 34.5001,-158.083"/>
</g>
</g>
</svg>
