<?xml version="1.0" encoding="UTF-8" standalone="no"?>
<!DOCTYPE svg PUBLIC "-//W3C//DTD SVG 1.1//EN"
 "http://www.w3.org/Graphics/SVG/1.1/DTD/svg11.dtd">
<!-- Generated by graphviz version 2.28.0 (20110507.0327)
 -->
<!-- Title: DoubleSolenoid Pages: 1 -->
<svg width="306pt" height="196pt"
 viewBox="0.00 0.00 306.00 196.00" xmlns="http://www.w3.org/2000/svg" xmlns:xlink="http://www.w3.org/1999/xlink">
<g id="graph1" class="graph" transform="scale(1 1) rotate(0) translate(4 192)">
<title>DoubleSolenoid</title>
<polygon fill="white" stroke="white" points="-4,5 -4,-192 303,-192 303,5 -4,5"/>
<!-- Node1 -->
<g id="node1" class="node"><title>Node1</title>
<polygon fill="#bfbfbf" stroke="black" points="123,-0.5 123,-19.5 207,-19.5 207,-0.5 123,-0.5"/>
<text text-anchor="middle" x="165" y="-7.5" font-family="Helvetica,sans-Serif" font-size="10.00">DoubleSolenoid</text>
</g>
<!-- Node2 -->
<g id="node2" class="node"><title>Node2</title>
<a xlink:href="class_live_window_sendable.html" target="_top" xlink:title="LiveWindowSendable">
<polygon fill="white" stroke="black" points="0,-56.5 0,-75.5 108,-75.5 108,-56.5 0,-56.5"/>
<text text-anchor="middle" x="54" y="-63.5" font-family="Helvetica,sans-Serif" font-size="10.00">LiveWindowSendable</text>
</a>
</g>
<!-- Node2&#45;&gt;Node1 -->
<g id="edge2" class="edge"><title>Node2&#45;&gt;Node1</title>
<path fill="none" stroke="midnightblue" d="M75.6419,-51.5895C94.8388,-41.6052 122.527,-28.2672 142.1,-19.6545"/>
<polygon fill="midnightblue" stroke="midnightblue" points="73.9123,-48.5451 66.7192,-56.324 77.1933,-54.7285 73.9123,-48.5451"/>
</g>
<!-- Node2&#45;&gt;Node1 -->
<g id="edge14" class="edge"><title>Node2&#45;&gt;Node1</title>
<path fill="none" stroke="midnightblue" d="M86.0809,-52.2321C108.277,-42.1312 136.437,-28.3091 152.574,-19.5164"/>
<polygon fill="midnightblue" stroke="midnightblue" points="84.3731,-49.1619 76.677,-56.4435 87.2342,-55.5505 84.3731,-49.1619"/>
</g>
<!-- Node3 -->
<g id="node4" class="node"><title>Node3</title>
<a xlink:href="class_sendable.html" target="_top" xlink:title="Sendable">
<polygon fill="white" stroke="black" points="25.5,-112.5 25.5,-131.5 82.5,-131.5 82.5,-112.5 25.5,-112.5"/>
<text text-anchor="middle" x="54" y="-119.5" font-family="Helvetica,sans-Serif" font-size="10.00">Sendable</text>
</a>
</g>
<!-- Node3&#45;&gt;Node2 -->
<g id="edge4" class="edge"><title>Node3&#45;&gt;Node2</title>
<path fill="none" stroke="midnightblue" d="M54,-101.805C54,-92.9102 54,-82.7798 54,-75.7511"/>
<polygon fill="midnightblue" stroke="midnightblue" points="50.5001,-102.083 54,-112.083 57.5001,-102.083 50.5001,-102.083"/>
</g>
<!-- Node4 -->
<g id="node6" class="node"><title>Node4</title>
<polygon fill="white" stroke="#bfbfbf" points="126.5,-56.5 126.5,-75.5 203.5,-75.5 203.5,-56.5 126.5,-56.5"/>
<text text-anchor="middle" x="165" y="-63.5" font-family="Helvetica,sans-Serif" font-size="10.00">ITableListener</text>
</g>
<!-- Node4&#45;&gt;Node1 -->
<g id="edge6" class="edge"><title>Node4&#45;&gt;Node1</title>
<path fill="none" stroke="midnightblue" d="M158.528,-46.1005C157.896,-37.1357 158.343,-26.8579 159.869,-19.7511"/>
<polygon fill="midnightblue" stroke="midnightblue" points="155.066,-46.6216 159.834,-56.083 162.007,-45.7134 155.066,-46.6216"/>
</g>
<!-- Node4&#45;&gt;Node1 -->
<g id="edge16" class="edge"><title>Node4&#45;&gt;Node1</title>
<path fill="none" stroke="midnightblue" d="M171.472,-46.1005C172.104,-37.1357 171.657,-26.8579 170.131,-19.7511"/>
<polygon fill="midnightblue" stroke="midnightblue" points="167.993,-45.7134 170.166,-56.083 174.934,-46.6216 167.993,-45.7134"/>
</g>
<!-- Node5 -->
<g id="node8" class="node"><title>Node5</title>
<a xlink:href="class_solenoid_base.html" target="_top" xlink:title="SolenoidBase">
<polygon fill="white" stroke="black" points="221.5,-56.5 221.5,-75.5 298.5,-75.5 298.5,-56.5 221.5,-56.5"/>
<text text-anchor="middle" x="260" y="-63.5" font-family="Helvetica,sans-Serif" font-size="10.00">SolenoidBase</text>
</a>
</g>
<!-- Node5&#45;&gt;Node1 -->
<g id="edge8" class="edge"><title>Node5&#45;&gt;Node1</title>
<path fill="none" stroke="midnightblue" d="M235.682,-51.1774C218.201,-41.2407 195.17,-28.1492 180.226,-19.6545"/>
<polygon fill="midnightblue" stroke="midnightblue" points="234.313,-54.425 244.737,-56.324 237.773,-48.3395 234.313,-54.425"/>
</g>
<!-- Node6 -->
<g id="node10" class="node"><title>Node6</title>
<a xlink:href="class_sensor_base.html" target="_top" xlink:title="SensorBase">
<polygon fill="white" stroke="black" points="225,-112.5 225,-131.5 295,-131.5 295,-112.5 225,-112.5"/>
<text text-anchor="middle" x="260" y="-119.5" font-family="Helvetica,sans-Serif" font-size="10.00">SensorBase</text>
</a>
</g>
<!-- Node6&#45;&gt;Node5 -->
<g id="edge10" class="edge"><title>Node6&#45;&gt;Node5</title>
<path fill="none" stroke="midnightblue" d="M260,-101.805C260,-92.9102 260,-82.7798 260,-75.7511"/>
<polygon fill="midnightblue" stroke="midnightblue" points="256.5,-102.083 260,-112.083 263.5,-102.083 256.5,-102.083"/>
</g>
<!-- Node7 -->
<g id="node12" class="node"><title>Node7</title>
<a xlink:href="class_error_base.html" target="_top" xlink:title="ErrorBase">
<polygon fill="white" stroke="black" points="230,-168.5 230,-187.5 290,-187.5 290,-168.5 230,-168.5"/>
<text text-anchor="middle" x="260" y="-175.5" font-family="Helvetica,sans-Serif" font-size="10.00">ErrorBase</text>
</a>
</g>
<!-- Node7&#45;&gt;Node6 -->
<g id="edge12" class="edge"><title>Node7&#45;&gt;Node6</title>
<path fill="none" stroke="midnightblue" d="M260,-157.805C260,-148.91 260,-138.78 260,-131.751"/>
<polygon fill="midnightblue" stroke="midnightblue" points="256.5,-158.083 260,-168.083 263.5,-158.083 256.5,-158.083"/>
</g>
</g>
</svg>
