<?xml version="1.0" encoding="UTF-8" standalone="no"?>
<!DOCTYPE svg PUBLIC "-//W3C//DTD SVG 1.1//EN"
 "http://www.w3.org/Graphics/SVG/1.1/DTD/svg11.dtd">
<!-- Generated by graphviz version 2.28.0 (20110507.0327)
 -->
<!-- Title: Joystick::GetDirectionRadians Pages: 1 -->
<svg width="596pt" height="66pt"
 viewBox="0.00 0.00 596.00 66.00" xmlns="http://www.w3.org/2000/svg" xmlns:xlink="http://www.w3.org/1999/xlink">
<g id="graph1" class="graph" transform="scale(1 1) rotate(0) translate(4 62)">
<title>Joystick::GetDirectionRadians</title>
<polygon fill="white" stroke="white" points="-4,5 -4,-62 593,-62 593,5 -4,5"/>
<!-- Node1 -->
<g id="node1" class="node"><title>Node1</title>
<polygon fill="#bfbfbf" stroke="black" points="0,-19.5 0,-38.5 148,-38.5 148,-19.5 0,-19.5"/>
<text text-anchor="middle" x="74" y="-26.5" font-family="Helvetica,sans-Serif" font-size="10.00">Joystick::GetDirectionRadians</text>
</g>
<!-- Node2 -->
<g id="node3" class="node"><title>Node2</title>
<a xlink:href="class_joystick.html#a684f7ef395e7cf4d1137e816554446c9" target="_top" xlink:title="Joystick::GetX">
<polygon fill="white" stroke="black" points="185,-38.5 185,-57.5 265,-57.5 265,-38.5 185,-38.5"/>
<text text-anchor="middle" x="225" y="-45.5" font-family="Helvetica,sans-Serif" font-size="10.00">Joystick::GetX</text>
</a>
</g>
<!-- Node1&#45;&gt;Node2 -->
<g id="edge2" class="edge"><title>Node1&#45;&gt;Node2</title>
<path fill="none" stroke="midnightblue" d="M148.19,-38.333C157.19,-39.4806 166.215,-40.6314 174.74,-41.7185"/>
<polygon fill="midnightblue" stroke="midnightblue" points="174.493,-45.2152 184.855,-43.0084 175.378,-38.2715 174.493,-45.2152"/>
</g>
<!-- Node5 -->
<g id="node9" class="node"><title>Node5</title>
<a xlink:href="class_joystick.html#a6f413b0da6c62d848113409acc9cb971" target="_top" xlink:title="Joystick::GetY">
<polygon fill="white" stroke="black" points="184.5,-0.5 184.5,-19.5 265.5,-19.5 265.5,-0.5 184.5,-0.5"/>
<text text-anchor="middle" x="225" y="-7.5" font-family="Helvetica,sans-Serif" font-size="10.00">Joystick::GetY</text>
</a>
</g>
<!-- Node1&#45;&gt;Node5 -->
<g id="edge8" class="edge"><title>Node1&#45;&gt;Node5</title>
<path fill="none" stroke="midnightblue" d="M148.19,-19.667C157.085,-18.5327 166.005,-17.3953 174.442,-16.3194"/>
<polygon fill="midnightblue" stroke="midnightblue" points="174.983,-19.7789 184.46,-15.042 174.098,-12.8351 174.983,-19.7789"/>
</g>
<!-- Node3 -->
<g id="node5" class="node"><title>Node3</title>
<a xlink:href="class_joystick.html#a1011135df443771aa07e3afa4a839b05" target="_top" xlink:title="Joystick::GetRawAxis">
<polygon fill="white" stroke="black" points="302.5,-19.5 302.5,-38.5 415.5,-38.5 415.5,-19.5 302.5,-19.5"/>
<text text-anchor="middle" x="359" y="-26.5" font-family="Helvetica,sans-Serif" font-size="10.00">Joystick::GetRawAxis</text>
</a>
</g>
<!-- Node2&#45;&gt;Node3 -->
<g id="edge4" class="edge"><title>Node2&#45;&gt;Node3</title>
<path fill="none" stroke="midnightblue" d="M265.247,-42.3508C273.73,-41.1298 282.923,-39.8066 292.113,-38.4838"/>
<polygon fill="midnightblue" stroke="midnightblue" points="292.651,-41.9425 302.05,-37.0534 291.653,-35.0139 292.651,-41.9425"/>
</g>
<!-- Node4 -->
<g id="node7" class="node"><title>Node4</title>
<a xlink:href="class_driver_station.html#a3d0f8b9b6dd45cd071773a47d35059ac" target="_top" xlink:title="DriverStation::GetStickAxis">
<polygon fill="white" stroke="black" points="452.5,-19.5 452.5,-38.5 587.5,-38.5 587.5,-19.5 452.5,-19.5"/>
<text text-anchor="middle" x="520" y="-26.5" font-family="Helvetica,sans-Serif" font-size="10.00">DriverStation::GetStickAxis</text>
</a>
</g>
<!-- Node3&#45;&gt;Node4 -->
<g id="edge6" class="edge"><title>Node3&#45;&gt;Node4</title>
<path fill="none" stroke="midnightblue" d="M415.61,-29C424.264,-29 433.334,-29 442.355,-29"/>
<polygon fill="midnightblue" stroke="midnightblue" points="442.495,-32.5001 452.495,-29 442.495,-25.5001 442.495,-32.5001"/>
</g>
<!-- Node5&#45;&gt;Node3 -->
<g id="edge10" class="edge"><title>Node5&#45;&gt;Node3</title>
<path fill="none" stroke="midnightblue" d="M265.604,-15.7006C274.081,-16.9208 283.254,-18.241 292.415,-19.5598"/>
<polygon fill="midnightblue" stroke="midnightblue" points="291.922,-23.0248 302.319,-20.9853 292.92,-16.0962 291.922,-23.0248"/>
</g>
</g>
</svg>
