<?xml version="1.0" encoding="UTF-8" standalone="no"?>
<!DOCTYPE svg PUBLIC "-//W3C//DTD SVG 1.1//EN"
 "http://www.w3.org/Graphics/SVG/1.1/DTD/svg11.dtd">
<!-- Generated by graphviz version 2.28.0 (20110507.0327)
 -->
<!-- Title: Gyro::Reset Pages: 1 -->
<svg width="622pt" height="120pt"
 viewBox="0.00 0.00 622.00 120.12" xmlns="http://www.w3.org/2000/svg" xmlns:xlink="http://www.w3.org/1999/xlink">
<g id="graph1" class="graph" transform="scale(1 1) rotate(0) translate(4 116.121)">
<title>Gyro::Reset</title>
<polygon fill="white" stroke="white" points="-4,5 -4,-116.121 619,-116.121 619,5 -4,5"/>
<!-- Node1 -->
<g id="node1" class="node"><title>Node1</title>
<polygon fill="#bfbfbf" stroke="black" points="0.5,-57.5 0.5,-76.5 69.5,-76.5 69.5,-57.5 0.5,-57.5"/>
<text text-anchor="middle" x="35" y="-64.5" font-family="Helvetica,sans-Serif" font-size="10.00">Gyro::Reset</text>
</g>
<!-- Node2 -->
<g id="node3" class="node"><title>Node2</title>
<a xlink:href="class_analog_input.html#a0c6b4387695c1522860a2fb1e5fbee82" target="_top" xlink:title="AnalogInput::ResetAccumulator">
<polygon fill="white" stroke="black" points="106,-57.5 106,-76.5 260,-76.5 260,-57.5 106,-57.5"/>
<text text-anchor="middle" x="183" y="-64.5" font-family="Helvetica,sans-Serif" font-size="10.00">AnalogInput::ResetAccumulator</text>
</a>
</g>
<!-- Node1&#45;&gt;Node2 -->
<g id="edge2" class="edge"><title>Node1&#45;&gt;Node2</title>
<path fill="none" stroke="midnightblue" d="M69.8623,-67C77.8425,-67 86.7087,-67 95.8598,-67"/>
<polygon fill="midnightblue" stroke="midnightblue" points="95.8731,-70.5001 105.873,-67 95.873,-63.5001 95.8731,-70.5001"/>
</g>
<!-- Node3 -->
<g id="node5" class="node"><title>Node3</title>
<a xlink:href="class_error_base.html#a05790f219c9e436a09752f73f7344024" target="_top" xlink:title="Check if the current error code represents a fatal error. ">
<polygon fill="white" stroke="black" points="490,-76.5 490,-95.5 614,-95.5 614,-76.5 490,-76.5"/>
<text text-anchor="middle" x="552" y="-83.5" font-family="Helvetica,sans-Serif" font-size="10.00">ErrorBase::StatusIsFatal</text>
</a>
</g>
<!-- Node2&#45;&gt;Node3 -->
<g id="edge4" class="edge"><title>Node2&#45;&gt;Node3</title>
<path fill="none" stroke="midnightblue" d="M205.348,-76.5914C227.493,-85.9752 263.383,-99.6174 296,-105 365.285,-116.434 384.106,-111.781 454,-105 469.543,-103.492 486.292,-100.655 501.427,-97.6252"/>
<polygon fill="midnightblue" stroke="midnightblue" points="502.532,-100.97 511.612,-95.5103 501.109,-94.1166 502.532,-100.97"/>
</g>
<!-- Node4 -->
<g id="node7" class="node"><title>Node4</title>
<a xlink:href="class_analog_input.html#a3e81e6477668b15b1da6965972987596" target="_top" xlink:title="AnalogInput::GetSampleRate">
<polygon fill="white" stroke="black" points="303.5,-76.5 303.5,-95.5 446.5,-95.5 446.5,-76.5 303.5,-76.5"/>
<text text-anchor="middle" x="375" y="-83.5" font-family="Helvetica,sans-Serif" font-size="10.00">AnalogInput::GetSampleRate</text>
</a>
</g>
<!-- Node2&#45;&gt;Node4 -->
<g id="edge6" class="edge"><title>Node2&#45;&gt;Node4</title>
<path fill="none" stroke="midnightblue" d="M260.185,-74.6185C271.094,-75.7094 282.346,-76.8346 293.337,-77.9337"/>
<polygon fill="midnightblue" stroke="midnightblue" points="293.041,-81.4215 303.34,-78.934 293.738,-74.4562 293.041,-81.4215"/>
</g>
<!-- Node5 -->
<g id="node9" class="node"><title>Node5</title>
<a xlink:href="class_analog_input.html#a713786ced6451b57fbcec31cf7cb1340" target="_top" xlink:title="AnalogInput::GetOversampleBits">
<polygon fill="white" stroke="black" points="296,-38.5 296,-57.5 454,-57.5 454,-38.5 296,-38.5"/>
<text text-anchor="middle" x="375" y="-45.5" font-family="Helvetica,sans-Serif" font-size="10.00">AnalogInput::GetOversampleBits</text>
</a>
</g>
<!-- Node2&#45;&gt;Node5 -->
<g id="edge8" class="edge"><title>Node2&#45;&gt;Node5</title>
<path fill="none" stroke="midnightblue" d="M260.185,-59.3815C268.645,-58.5355 277.311,-57.6689 285.902,-56.8098"/>
<polygon fill="midnightblue" stroke="midnightblue" points="286.334,-60.2842 295.936,-55.8064 285.637,-53.3189 286.334,-60.2842"/>
</g>
<!-- Node6 -->
<g id="node12" class="node"><title>Node6</title>
<a xlink:href="class_analog_input.html#a24193ed1cb0260e7626aecabcf812ef2" target="_top" xlink:title="AnalogInput::GetAverageBits">
<polygon fill="white" stroke="black" points="304.5,-0.5 304.5,-19.5 445.5,-19.5 445.5,-0.5 304.5,-0.5"/>
<text text-anchor="middle" x="375" y="-7.5" font-family="Helvetica,sans-Serif" font-size="10.00">AnalogInput::GetAverageBits</text>
</a>
</g>
<!-- Node2&#45;&gt;Node6 -->
<g id="edge12" class="edge"><title>Node2&#45;&gt;Node6</title>
<path fill="none" stroke="midnightblue" d="M210.043,-57.4357C232.611,-49.3233 266.228,-37.6583 296,-29 304.362,-26.568 313.289,-24.1913 322.007,-21.9878"/>
<polygon fill="midnightblue" stroke="midnightblue" points="322.856,-25.3834 331.72,-19.5798 321.172,-18.5891 322.856,-25.3834"/>
</g>
<!-- Node5&#45;&gt;Node3 -->
<g id="edge10" class="edge"><title>Node5&#45;&gt;Node3</title>
<path fill="none" stroke="midnightblue" d="M420.16,-57.589C443.565,-62.6713 472.505,-68.9554 497.212,-74.3203"/>
<polygon fill="midnightblue" stroke="midnightblue" points="496.643,-77.7782 507.158,-76.4799 498.128,-70.9376 496.643,-77.7782"/>
</g>
</g>
</svg>
