<?xml version="1.0" encoding="UTF-8" standalone="no"?>
<!DOCTYPE svg PUBLIC "-//W3C//DTD SVG 1.1//EN"
 "http://www.w3.org/Graphics/SVG/1.1/DTD/svg11.dtd">
<!-- Generated by graphviz version 2.28.0 (20110507.0327)
 -->
<!-- Title: Joystick::GetRawButton Pages: 1 -->
<svg width="410pt" height="66pt"
 viewBox="0.00 0.00 410.00 66.00" xmlns="http://www.w3.org/2000/svg" xmlns:xlink="http://www.w3.org/1999/xlink">
<g id="graph1" class="graph" transform="scale(1 1) rotate(0) translate(4 62)">
<title>Joystick::GetRawButton</title>
<polygon fill="white" stroke="white" points="-4,5 -4,-62 407,-62 407,5 -4,5"/>
<!-- Node1 -->
<g id="node1" class="node"><title>Node1</title>
<polygon fill="#bfbfbf" stroke="black" points="0,-19.5 0,-38.5 122,-38.5 122,-19.5 0,-19.5"/>
<text text-anchor="middle" x="61" y="-26.5" font-family="Helvetica,sans-Serif" font-size="10.00">Joystick::GetRawButton</text>
</g>
<!-- Node2 -->
<g id="node3" class="node"><title>Node2</title>
<a xlink:href="class_joystick.html#a17c9682c8bbfd77d9377d2352fb836dd" target="_top" xlink:title="Joystick::GetTrigger">
<polygon fill="white" stroke="black" points="158,-38.5 158,-57.5 262,-57.5 262,-38.5 158,-38.5"/>
<text text-anchor="middle" x="210" y="-45.5" font-family="Helvetica,sans-Serif" font-size="10.00">Joystick::GetTrigger</text>
</a>
</g>
<!-- Node1&#45;&gt;Node2 -->
<g id="edge2" class="edge"><title>Node1&#45;&gt;Node2</title>
<path fill="none" stroke="midnightblue" d="M132.199,-38.0733C140.751,-39.1787 149.363,-40.2918 157.57,-41.3526"/>
<polygon fill="midnightblue" stroke="midnightblue" points="132.581,-34.5937 122.215,-36.7828 131.683,-41.5359 132.581,-34.5937"/>
</g>
<!-- Node4 -->
<g id="node7" class="node"><title>Node4</title>
<a xlink:href="class_joystick.html#a451c9a35875271e7918af8843e39f3cc" target="_top" xlink:title="Joystick::GetTop">
<polygon fill="white" stroke="black" points="165,-0.5 165,-19.5 255,-19.5 255,-0.5 165,-0.5"/>
<text text-anchor="middle" x="210" y="-7.5" font-family="Helvetica,sans-Serif" font-size="10.00">Joystick::GetTop</text>
</a>
</g>
<!-- Node1&#45;&gt;Node4 -->
<g id="edge6" class="edge"><title>Node1&#45;&gt;Node4</title>
<path fill="none" stroke="midnightblue" d="M132.335,-19.9091C143.415,-18.477 154.592,-17.0324 164.855,-15.7059"/>
<polygon fill="midnightblue" stroke="midnightblue" points="131.683,-16.4641 122.215,-21.2172 132.581,-23.4063 131.683,-16.4641"/>
</g>
<!-- Node3 -->
<g id="node5" class="node"><title>Node3</title>
<a xlink:href="class_joystick.html#ac8cf87154ee2b2241bc6d375dcebd728" target="_top" xlink:title="Joystick::GetButton">
<polygon fill="white" stroke="black" points="298.5,-19.5 298.5,-38.5 401.5,-38.5 401.5,-19.5 298.5,-19.5"/>
<text text-anchor="middle" x="350" y="-26.5" font-family="Helvetica,sans-Serif" font-size="10.00">Joystick::GetButton</text>
</a>
</g>
<!-- Node2&#45;&gt;Node3 -->
<g id="edge4" class="edge"><title>Node2&#45;&gt;Node3</title>
<path fill="none" stroke="midnightblue" d="M272.485,-39.5347C281.179,-38.3377 290.034,-37.1185 298.489,-35.9544"/>
<polygon fill="midnightblue" stroke="midnightblue" points="271.815,-36.0938 262.386,-40.9251 272.77,-43.0284 271.815,-36.0938"/>
</g>
<!-- Node4&#45;&gt;Node3 -->
<g id="edge8" class="edge"><title>Node4&#45;&gt;Node3</title>
<path fill="none" stroke="midnightblue" d="M265.246,-17.4687C276.09,-18.9617 287.443,-20.5248 298.167,-22.0012"/>
<polygon fill="midnightblue" stroke="midnightblue" points="265.427,-13.9607 255.043,-16.064 264.473,-20.8953 265.427,-13.9607"/>
</g>
</g>
</svg>
