<?xml version="1.0" encoding="UTF-8" standalone="no"?>
<!DOCTYPE svg PUBLIC "-//W3C//DTD SVG 1.1//EN"
 "http://www.w3.org/Graphics/SVG/1.1/DTD/svg11.dtd">
<!-- Generated by graphviz version 2.28.0 (20110507.0327)
 -->
<!-- Title: InterruptableSensorBase::CancelInterrupts Pages: 1 -->
<svg width="292pt" height="66pt"
 viewBox="0.00 0.00 292.00 66.00" xmlns="http://www.w3.org/2000/svg" xmlns:xlink="http://www.w3.org/1999/xlink">
<g id="graph1" class="graph" transform="scale(1 1) rotate(0) translate(4 62)">
<title>InterruptableSensorBase::CancelInterrupts</title>
<polygon fill="white" stroke="white" points="-4,5 -4,-62 289,-62 289,5 -4,5"/>
<!-- Node1 -->
<g id="node1" class="node"><title>Node1</title>
<polygon fill="#bfbfbf" stroke="black" points="0.5,-14 0.5,-44 123.5,-44 123.5,-14 0.5,-14"/>
<text text-anchor="start" x="8.5" y="-32" font-family="Helvetica,sans-Serif" font-size="10.00">InterruptableSensorBase</text>
<text text-anchor="middle" x="62" y="-21" font-family="Helvetica,sans-Serif" font-size="10.00">::CancelInterrupts</text>
</g>
<!-- Node2 -->
<g id="node3" class="node"><title>Node2</title>
<a xlink:href="class_error_base.html#a05790f219c9e436a09752f73f7344024" target="_top" xlink:title="Check if the current error code represents a fatal error. ">
<polygon fill="white" stroke="black" points="160,-38.5 160,-57.5 284,-57.5 284,-38.5 160,-38.5"/>
<text text-anchor="middle" x="222" y="-45.5" font-family="Helvetica,sans-Serif" font-size="10.00">ErrorBase::StatusIsFatal</text>
</a>
</g>
<!-- Node1&#45;&gt;Node2 -->
<g id="edge2" class="edge"><title>Node1&#45;&gt;Node2</title>
<path fill="none" stroke="midnightblue" d="M123.635,-36.2916C132.142,-37.3145 140.949,-38.3736 149.633,-39.4178"/>
<polygon fill="midnightblue" stroke="midnightblue" points="149.397,-42.9147 159.743,-40.6337 150.233,-35.9647 149.397,-42.9147"/>
</g>
<!-- Node3 -->
<g id="node5" class="node"><title>Node3</title>
<a xlink:href="class_resource.html#acb86b8c2fc22b8f5ba324db1a9ef4f17" target="_top" xlink:title="Resource::Free">
<polygon fill="white" stroke="black" points="180.5,-0.5 180.5,-19.5 263.5,-19.5 263.5,-0.5 180.5,-0.5"/>
<text text-anchor="middle" x="222" y="-7.5" font-family="Helvetica,sans-Serif" font-size="10.00">Resource::Free</text>
</a>
</g>
<!-- Node1&#45;&gt;Node3 -->
<g id="edge4" class="edge"><title>Node1&#45;&gt;Node3</title>
<path fill="none" stroke="midnightblue" d="M123.635,-21.7084C139.049,-19.8548 155.451,-17.8825 170.312,-16.0953"/>
<polygon fill="midnightblue" stroke="midnightblue" points="170.813,-19.5604 180.324,-14.8914 169.978,-12.6105 170.813,-19.5604"/>
</g>
</g>
</svg>
