<?xml version="1.0" encoding="UTF-8" standalone="no"?>
<!DOCTYPE svg PUBLIC "-//W3C//DTD SVG 1.1//EN"
 "http://www.w3.org/Graphics/SVG/1.1/DTD/svg11.dtd">
<!-- Generated by graphviz version 2.28.0 (20110507.0327)
 -->
<!-- Title: Ultrasonic::SetAutomaticMode Pages: 1 -->
<svg width="436pt" height="142pt"
 viewBox="0.00 0.00 436.00 142.00" xmlns="http://www.w3.org/2000/svg" xmlns:xlink="http://www.w3.org/1999/xlink">
<g id="graph1" class="graph" transform="scale(1 1) rotate(0) translate(4 138)">
<title>Ultrasonic::SetAutomaticMode</title>
<polygon fill="white" stroke="white" points="-4,5 -4,-138 433,-138 433,5 -4,5"/>
<!-- Node1 -->
<g id="node1" class="node"><title>Node1</title>
<polygon fill="#bfbfbf" stroke="black" points="0.5,-57.5 0.5,-76.5 149.5,-76.5 149.5,-57.5 0.5,-57.5"/>
<text text-anchor="middle" x="75" y="-64.5" font-family="Helvetica,sans-Serif" font-size="10.00">Ultrasonic::SetAutomaticMode</text>
</g>
<!-- Node2 -->
<g id="node3" class="node"><title>Node2</title>
<a xlink:href="class_counter.html#a006032d39fada9ad683ccc849d2f60d3" target="_top" xlink:title="Counter::Reset">
<polygon fill="white" stroke="black" points="186,-114.5 186,-133.5 268,-133.5 268,-114.5 186,-114.5"/>
<text text-anchor="middle" x="227" y="-121.5" font-family="Helvetica,sans-Serif" font-size="10.00">Counter::Reset</text>
</a>
</g>
<!-- Node1&#45;&gt;Node2 -->
<g id="edge2" class="edge"><title>Node1&#45;&gt;Node2</title>
<path fill="none" stroke="midnightblue" d="M101.107,-76.5405C125.767,-85.9116 163.599,-100.288 191.164,-110.762"/>
<polygon fill="midnightblue" stroke="midnightblue" points="190.22,-114.148 200.811,-114.428 192.707,-107.604 190.22,-114.148"/>
</g>
<!-- Node4 -->
<g id="node7" class="node"><title>Node4</title>
<a xlink:href="class_task.html#af3367e19bf2d011c8de81a8064b7c0f4" target="_top" xlink:title="Task::Verify">
<polygon fill="white" stroke="black" points="332,-38.5 332,-57.5 400,-57.5 400,-38.5 332,-38.5"/>
<text text-anchor="middle" x="366" y="-45.5" font-family="Helvetica,sans-Serif" font-size="10.00">Task::Verify</text>
</a>
</g>
<!-- Node1&#45;&gt;Node4 -->
<g id="edge6" class="edge"><title>Node1&#45;&gt;Node4</title>
<path fill="none" stroke="midnightblue" d="M149.555,-70.321C185.37,-71.0923 229.016,-70.782 268,-67 285.681,-65.2847 304.923,-61.85 321.572,-58.3668"/>
<polygon fill="midnightblue" stroke="midnightblue" points="322.532,-61.7403 331.567,-56.2068 321.054,-54.8983 322.532,-61.7403"/>
</g>
<!-- Node5 -->
<g id="node9" class="node"><title>Node5</title>
<a xlink:href="class_task.html#a6e8e638dd9a8faad92e259b587ca82f8" target="_top" xlink:title="Task::Start">
<polygon fill="white" stroke="black" points="194.5,-38.5 194.5,-57.5 259.5,-57.5 259.5,-38.5 194.5,-38.5"/>
<text text-anchor="middle" x="227" y="-45.5" font-family="Helvetica,sans-Serif" font-size="10.00">Task::Start</text>
</a>
</g>
<!-- Node1&#45;&gt;Node5 -->
<g id="edge8" class="edge"><title>Node1&#45;&gt;Node5</title>
<path fill="none" stroke="midnightblue" d="M149.682,-57.667C161.585,-56.1593 173.532,-54.6459 184.324,-53.279"/>
<polygon fill="midnightblue" stroke="midnightblue" points="184.797,-56.7471 194.278,-52.0182 183.917,-49.8026 184.797,-56.7471"/>
</g>
<!-- Node6 -->
<g id="node11" class="node"><title>Node6</title>
<a xlink:href="class_task.html#a552b56dc92a117812a9ae3f24320eede" target="_top" xlink:title="Task::Stop">
<polygon fill="white" stroke="black" points="195,-0.5 195,-19.5 259,-19.5 259,-0.5 195,-0.5"/>
<text text-anchor="middle" x="227" y="-7.5" font-family="Helvetica,sans-Serif" font-size="10.00">Task::Stop</text>
</a>
</g>
<!-- Node1&#45;&gt;Node6 -->
<g id="edge10" class="edge"><title>Node1&#45;&gt;Node6</title>
<path fill="none" stroke="midnightblue" d="M101.107,-57.4595C125.767,-48.0884 163.599,-33.7124 191.164,-23.2377"/>
<polygon fill="midnightblue" stroke="midnightblue" points="192.707,-26.3956 200.811,-19.5716 190.22,-19.8521 192.707,-26.3956"/>
</g>
<!-- Node3 -->
<g id="node5" class="node"><title>Node3</title>
<a xlink:href="class_error_base.html#a05790f219c9e436a09752f73f7344024" target="_top" xlink:title="Check if the current error code represents a fatal error. ">
<polygon fill="white" stroke="black" points="304,-114.5 304,-133.5 428,-133.5 428,-114.5 304,-114.5"/>
<text text-anchor="middle" x="366" y="-121.5" font-family="Helvetica,sans-Serif" font-size="10.00">ErrorBase::StatusIsFatal</text>
</a>
</g>
<!-- Node2&#45;&gt;Node3 -->
<g id="edge4" class="edge"><title>Node2&#45;&gt;Node3</title>
<path fill="none" stroke="midnightblue" d="M268.364,-124C276.362,-124 284.981,-124 293.66,-124"/>
<polygon fill="midnightblue" stroke="midnightblue" points="293.844,-127.5 303.844,-124 293.844,-120.5 293.844,-127.5"/>
</g>
<!-- Node6&#45;&gt;Node4 -->
<g id="edge12" class="edge"><title>Node6&#45;&gt;Node4</title>
<path fill="none" stroke="midnightblue" d="M259.087,-18.6228C277.677,-23.779 301.569,-30.406 321.955,-36.0605"/>
<polygon fill="midnightblue" stroke="midnightblue" points="321.07,-39.4472 331.642,-38.7474 322.941,-32.7019 321.07,-39.4472"/>
</g>
</g>
</svg>
