<?xml version="1.0" encoding="UTF-8" standalone="no"?>
<!DOCTYPE svg PUBLIC "-//W3C//DTD SVG 1.1//EN"
 "http://www.w3.org/Graphics/SVG/1.1/DTD/svg11.dtd">
<!-- Generated by graphviz version 2.28.0 (20110507.0327)
 -->
<!-- Title: CANJaguar::SetSpeedMode Pages: 1 -->
<svg width="710pt" height="256pt"
 viewBox="0.00 0.00 710.00 256.00" xmlns="http://www.w3.org/2000/svg" xmlns:xlink="http://www.w3.org/1999/xlink">
<g id="graph1" class="graph" transform="scale(1 1) rotate(0) translate(4 252)">
<title>CANJaguar::SetSpeedMode</title>
<polygon fill="white" stroke="white" points="-4,5 -4,-252 707,-252 707,5 -4,5"/>
<!-- Node1 -->
<g id="node1" class="node"><title>Node1</title>
<polygon fill="#bfbfbf" stroke="black" points="0,-152.5 0,-171.5 138,-171.5 138,-152.5 0,-152.5"/>
<text text-anchor="middle" x="69" y="-159.5" font-family="Helvetica,sans-Serif" font-size="10.00">CANJaguar::SetSpeedMode</text>
</g>
<!-- Node2 -->
<g id="node3" class="node"><title>Node2</title>
<a xlink:href="class_c_a_n_jaguar.html#ad359943907bf802075474a3753f7fb02" target="_top" xlink:title="CANJaguar::SetControlMode">
<polygon fill="white" stroke="black" points="182.5,-228.5 182.5,-247.5 323.5,-247.5 323.5,-228.5 182.5,-228.5"/>
<text text-anchor="middle" x="253" y="-235.5" font-family="Helvetica,sans-Serif" font-size="10.00">CANJaguar::SetControlMode</text>
</a>
</g>
<!-- Node1&#45;&gt;Node2 -->
<g id="edge2" class="edge"><title>Node1&#45;&gt;Node2</title>
<path fill="none" stroke="midnightblue" d="M86.8976,-171.539C107.152,-182.714 142.332,-201.312 174,-214 184.472,-218.196 195.976,-222.103 206.856,-225.496"/>
<polygon fill="midnightblue" stroke="midnightblue" points="206.04,-228.906 216.626,-228.46 208.073,-222.208 206.04,-228.906"/>
</g>
<!-- Node5 -->
<g id="node9" class="node"><title>Node5</title>
<a xlink:href="class_c_a_n_jaguar.html#a4ea009bbaaa337eeb10efba61203ee38" target="_top" xlink:title="CANJaguar::SetPositionReference">
<polygon fill="white" stroke="black" points="368.5,-190.5 368.5,-209.5 533.5,-209.5 533.5,-190.5 368.5,-190.5"/>
<text text-anchor="middle" x="451" y="-197.5" font-family="Helvetica,sans-Serif" font-size="10.00">CANJaguar::SetPositionReference</text>
</a>
</g>
<!-- Node1&#45;&gt;Node5 -->
<g id="edge8" class="edge"><title>Node1&#45;&gt;Node5</title>
<path fill="none" stroke="midnightblue" d="M115.906,-171.531C133.946,-174.976 154.878,-178.603 174,-181 235.113,-188.662 304.255,-193.415 358.047,-196.251"/>
<polygon fill="midnightblue" stroke="midnightblue" points="358.084,-199.758 368.25,-196.776 358.443,-192.767 358.084,-199.758"/>
</g>
<!-- Node6 -->
<g id="node12" class="node"><title>Node6</title>
<a xlink:href="class_c_a_n_jaguar.html#ac6780a940570ec0386d234b309fb260d" target="_top" xlink:title="CANJaguar::SetSpeedReference">
<polygon fill="white" stroke="black" points="174,-152.5 174,-171.5 332,-171.5 332,-152.5 174,-152.5"/>
<text text-anchor="middle" x="253" y="-159.5" font-family="Helvetica,sans-Serif" font-size="10.00">CANJaguar::SetSpeedReference</text>
</a>
</g>
<!-- Node1&#45;&gt;Node6 -->
<g id="edge12" class="edge"><title>Node1&#45;&gt;Node6</title>
<path fill="none" stroke="midnightblue" d="M138.029,-162C146.447,-162 155.146,-162 163.81,-162"/>
<polygon fill="midnightblue" stroke="midnightblue" points="163.947,-165.5 173.947,-162 163.947,-158.5 163.947,-165.5"/>
</g>
<!-- Node7 -->
<g id="node15" class="node"><title>Node7</title>
<a xlink:href="class_c_a_n_jaguar.html#a24bce09f963f2f7f0c38000197551e2d" target="_top" xlink:title="CANJaguar::ConfigEncoder\lCodesPerRev">
<polygon fill="white" stroke="black" points="186,-103 186,-133 320,-133 320,-103 186,-103"/>
<text text-anchor="start" x="194" y="-121" font-family="Helvetica,sans-Serif" font-size="10.00">CANJaguar::ConfigEncoder</text>
<text text-anchor="middle" x="253" y="-110" font-family="Helvetica,sans-Serif" font-size="10.00">CodesPerRev</text>
</a>
</g>
<!-- Node1&#45;&gt;Node7 -->
<g id="edge16" class="edge"><title>Node1&#45;&gt;Node7</title>
<path fill="none" stroke="midnightblue" d="M109.491,-152.453C130.074,-147.477 155.898,-141.233 179.89,-135.433"/>
<polygon fill="midnightblue" stroke="midnightblue" points="180.787,-138.817 189.684,-133.065 179.142,-132.013 180.787,-138.817"/>
</g>
<!-- Node8 -->
<g id="node18" class="node"><title>Node8</title>
<a xlink:href="class_c_a_n_jaguar.html#a27a017dfbfbb580251b4dd342ccbfd6d" target="_top" xlink:title="CANJaguar::SetPID">
<polygon fill="white" stroke="black" points="202,-51.5 202,-70.5 304,-70.5 304,-51.5 202,-51.5"/>
<text text-anchor="middle" x="253" y="-58.5" font-family="Helvetica,sans-Serif" font-size="10.00">CANJaguar::SetPID</text>
</a>
</g>
<!-- Node1&#45;&gt;Node8 -->
<g id="edge20" class="edge"><title>Node1&#45;&gt;Node8</title>
<path fill="none" stroke="midnightblue" d="M82.6269,-152.434C101.709,-138.258 139.351,-111.373 174,-93 187.215,-85.9926 202.31,-79.4804 215.677,-74.1847"/>
<polygon fill="midnightblue" stroke="midnightblue" points="216.992,-77.4287 225.053,-70.5539 214.464,-70.901 216.992,-77.4287"/>
</g>
<!-- Node3 -->
<g id="node5" class="node"><title>Node3</title>
<a xlink:href="class_c_a_n_jaguar.html#a6bbbf784a74cf95f7b4a5660a3d53cc2" target="_top" xlink:title="CANJaguar::DisableControl">
<polygon fill="white" stroke="black" points="384,-228.5 384,-247.5 518,-247.5 518,-228.5 384,-228.5"/>
<text text-anchor="middle" x="451" y="-235.5" font-family="Helvetica,sans-Serif" font-size="10.00">CANJaguar::DisableControl</text>
</a>
</g>
<!-- Node2&#45;&gt;Node3 -->
<g id="edge4" class="edge"><title>Node2&#45;&gt;Node3</title>
<path fill="none" stroke="midnightblue" d="M323.654,-238C339.873,-238 357.226,-238 373.715,-238"/>
<polygon fill="midnightblue" stroke="midnightblue" points="373.853,-241.5 383.853,-238 373.853,-234.5 373.853,-241.5"/>
</g>
<!-- Node4 -->
<g id="node7" class="node"><title>Node4</title>
<a xlink:href="class_c_a_n_jaguar.html#a6b82b54cc4033c3c5218ab04fb6c8282" target="_top" xlink:title="CANJaguar::sendMessage">
<polygon fill="white" stroke="black" points="570,-114.5 570,-133.5 702,-133.5 702,-114.5 570,-114.5"/>
<text text-anchor="middle" x="636" y="-121.5" font-family="Helvetica,sans-Serif" font-size="10.00">CANJaguar::sendMessage</text>
</a>
</g>
<!-- Node3&#45;&gt;Node4 -->
<g id="edge6" class="edge"><title>Node3&#45;&gt;Node4</title>
<path fill="none" stroke="midnightblue" d="M510.733,-228.398C518.802,-225.941 526.784,-222.86 534,-219 570.565,-199.438 603.654,-163.186 621.388,-141.564"/>
<polygon fill="midnightblue" stroke="midnightblue" points="624.293,-143.535 627.812,-133.542 618.829,-139.159 624.293,-143.535"/>
</g>
<!-- Node5&#45;&gt;Node4 -->
<g id="edge10" class="edge"><title>Node5&#45;&gt;Node4</title>
<path fill="none" stroke="midnightblue" d="M490.067,-190.488C504.078,-186.564 519.95,-181.613 534,-176 560.72,-165.325 589.788,-149.928 609.849,-138.659"/>
<polygon fill="midnightblue" stroke="midnightblue" points="611.695,-141.636 618.658,-133.65 608.235,-135.551 611.695,-141.636"/>
</g>
<!-- Node6&#45;&gt;Node4 -->
<g id="edge14" class="edge"><title>Node6&#45;&gt;Node4</title>
<path fill="none" stroke="midnightblue" d="M332.203,-155.28C388.387,-150.319 465.91,-143.205 534,-136 542.33,-135.119 551.041,-134.152 559.706,-133.161"/>
<polygon fill="midnightblue" stroke="midnightblue" points="560.298,-136.616 569.83,-131.992 559.495,-129.663 560.298,-136.616"/>
</g>
<!-- Node7&#45;&gt;Node4 -->
<g id="edge18" class="edge"><title>Node7&#45;&gt;Node4</title>
<path fill="none" stroke="midnightblue" d="M320.365,-119.045C387.119,-120.096 489.891,-121.715 559.667,-122.814"/>
<polygon fill="midnightblue" stroke="midnightblue" points="559.66,-126.314 569.714,-122.972 559.77,-119.315 559.66,-126.314"/>
</g>
<!-- Node9 -->
<g id="node20" class="node"><title>Node9</title>
<a xlink:href="class_c_a_n_jaguar.html#a22a1787a38fd35abc2cdf15bb7d81da5" target="_top" xlink:title="CANJaguar::SetP">
<polygon fill="white" stroke="black" points="404.5,-76.5 404.5,-95.5 497.5,-95.5 497.5,-76.5 404.5,-76.5"/>
<text text-anchor="middle" x="451" y="-83.5" font-family="Helvetica,sans-Serif" font-size="10.00">CANJaguar::SetP</text>
</a>
</g>
<!-- Node8&#45;&gt;Node9 -->
<g id="edge22" class="edge"><title>Node8&#45;&gt;Node9</title>
<path fill="none" stroke="midnightblue" d="M304.22,-67.4057C331.697,-70.9103 365.808,-75.2612 394.124,-78.8729"/>
<polygon fill="midnightblue" stroke="midnightblue" points="393.908,-82.3737 404.271,-80.1672 394.794,-75.43 393.908,-82.3737"/>
</g>
<!-- Node10 -->
<g id="node23" class="node"><title>Node10</title>
<a xlink:href="class_c_a_n_jaguar.html#a99abdf41fc6ce39d51f0c9d2fbbcfcb0" target="_top" xlink:title="CANJaguar::SetI">
<polygon fill="white" stroke="black" points="406.5,-38.5 406.5,-57.5 495.5,-57.5 495.5,-38.5 406.5,-38.5"/>
<text text-anchor="middle" x="451" y="-45.5" font-family="Helvetica,sans-Serif" font-size="10.00">CANJaguar::SetI</text>
</a>
</g>
<!-- Node8&#45;&gt;Node10 -->
<g id="edge26" class="edge"><title>Node8&#45;&gt;Node10</title>
<path fill="none" stroke="midnightblue" d="M304.22,-57.6691C332.303,-55.8064 367.316,-53.4842 395.989,-51.5824"/>
<polygon fill="midnightblue" stroke="midnightblue" points="396.495,-55.0566 406.242,-50.9023 396.032,-48.0719 396.495,-55.0566"/>
</g>
<!-- Node11 -->
<g id="node26" class="node"><title>Node11</title>
<a xlink:href="class_c_a_n_jaguar.html#a5c5228b40626981bcb5009044edc28d7" target="_top" xlink:title="CANJaguar::SetD">
<polygon fill="white" stroke="black" points="404.5,-0.5 404.5,-19.5 497.5,-19.5 497.5,-0.5 404.5,-0.5"/>
<text text-anchor="middle" x="451" y="-7.5" font-family="Helvetica,sans-Serif" font-size="10.00">CANJaguar::SetD</text>
</a>
</g>
<!-- Node8&#45;&gt;Node11 -->
<g id="edge30" class="edge"><title>Node8&#45;&gt;Node11</title>
<path fill="none" stroke="midnightblue" d="M286.325,-51.4989C309.089,-44.9129 340.319,-36.0879 368,-29 377.351,-26.6056 387.336,-24.1818 397.005,-21.9033"/>
<polygon fill="midnightblue" stroke="midnightblue" points="397.983,-25.2691 406.927,-19.5887 396.393,-18.4521 397.983,-25.2691"/>
</g>
<!-- Node9&#45;&gt;Node4 -->
<g id="edge24" class="edge"><title>Node9&#45;&gt;Node4</title>
<path fill="none" stroke="midnightblue" d="M497.707,-95.491C522.38,-100.614 553.039,-106.981 579.122,-112.397"/>
<polygon fill="midnightblue" stroke="midnightblue" points="578.739,-115.892 589.242,-114.498 580.162,-109.038 578.739,-115.892"/>
</g>
<!-- Node10&#45;&gt;Node4 -->
<g id="edge28" class="edge"><title>Node10&#45;&gt;Node4</title>
<path fill="none" stroke="midnightblue" d="M495.683,-55.6917C508.273,-58.5557 521.878,-62.2879 534,-67 562.351,-78.0207 592.414,-95.8847 612.296,-108.677"/>
<polygon fill="midnightblue" stroke="midnightblue" points="610.644,-111.779 620.928,-114.326 614.477,-105.922 610.644,-111.779"/>
</g>
<!-- Node11&#45;&gt;Node4 -->
<g id="edge32" class="edge"><title>Node11&#45;&gt;Node4</title>
<path fill="none" stroke="midnightblue" d="M497.796,-16.1652C510.029,-18.9822 522.919,-23.0717 534,-29 570.565,-48.5617 603.654,-84.8138 621.388,-106.436"/>
<polygon fill="midnightblue" stroke="midnightblue" points="618.829,-108.841 627.812,-114.458 624.293,-104.465 618.829,-108.841"/>
</g>
</g>
</svg>
