<?xml version="1.0" encoding="UTF-8" standalone="no"?>
<!DOCTYPE svg PUBLIC "-//W3C//DTD SVG 1.1//EN"
 "http://www.w3.org/Graphics/SVG/1.1/DTD/svg11.dtd">
<!-- Generated by graphviz version 2.28.0 (20110507.0327)
 -->
<!-- Title: SpeedController Pages: 1 -->
<svg width="467pt" height="196pt"
 viewBox="0.00 0.00 467.00 196.00" xmlns="http://www.w3.org/2000/svg" xmlns:xlink="http://www.w3.org/1999/xlink">
<g id="graph1" class="graph" transform="scale(1 1) rotate(0) translate(4 192)">
<title>SpeedController</title>
<polygon fill="white" stroke="white" points="-4,5 -4,-192 464,-192 464,5 -4,5"/>
<!-- Node1 -->
<g id="node1" class="node"><title>Node1</title>
<polygon fill="#bfbfbf" stroke="black" points="184,-112.5 184,-131.5 270,-131.5 270,-112.5 184,-112.5"/>
<text text-anchor="middle" x="227" y="-119.5" font-family="Helvetica,sans-Serif" font-size="10.00">SpeedController</text>
</g>
<!-- Node3 -->
<g id="node6" class="node"><title>Node3</title>
<a xlink:href="class_c_a_n_speed_controller.html" target="_top" xlink:title="CANSpeedController">
<polygon fill="white" stroke="black" points="19,-56.5 19,-75.5 125,-75.5 125,-56.5 19,-56.5"/>
<text text-anchor="middle" x="72" y="-63.5" font-family="Helvetica,sans-Serif" font-size="10.00">CANSpeedController</text>
</a>
</g>
<!-- Node1&#45;&gt;Node3 -->
<g id="edge6" class="edge"><title>Node1&#45;&gt;Node3</title>
<path fill="none" stroke="midnightblue" d="M192.668,-109.039C163.503,-98.8786 122.363,-84.5457 96.4453,-75.5164"/>
<polygon fill="midnightblue" stroke="midnightblue" points="191.845,-112.459 202.44,-112.444 194.148,-105.848 191.845,-112.459"/>
</g>
<!-- Node6 -->
<g id="node12" class="node"><title>Node6</title>
<a xlink:href="class_jaguar.html" target="_top" xlink:title="Jaguar">
<polygon fill="white" stroke="black" points="143.5,-56.5 143.5,-75.5 188.5,-75.5 188.5,-56.5 143.5,-56.5"/>
<text text-anchor="middle" x="166" y="-63.5" font-family="Helvetica,sans-Serif" font-size="10.00">Jaguar</text>
</a>
</g>
<!-- Node1&#45;&gt;Node6 -->
<g id="edge12" class="edge"><title>Node1&#45;&gt;Node6</title>
<path fill="none" stroke="midnightblue" d="M204.062,-106.101C191.979,-96.3824 178.342,-84.0269 170.83,-75.8339"/>
<polygon fill="midnightblue" stroke="midnightblue" points="202.038,-108.96 212.084,-112.324 206.328,-103.429 202.038,-108.96"/>
</g>
<!-- Node1&#45;&gt;Node6 -->
<g id="edge14" class="edge"><title>Node1&#45;&gt;Node6</title>
<path fill="none" stroke="midnightblue" d="M214.86,-104.718C205.038,-95.1997 191.516,-83.5608 181.016,-75.7511"/>
<polygon fill="midnightblue" stroke="midnightblue" points="212.589,-107.401 222.093,-112.083 217.584,-102.496 212.589,-107.401"/>
</g>
<!-- Node7 -->
<g id="node15" class="node"><title>Node7</title>
<a xlink:href="class_talon.html" target="_top" xlink:title="Talon">
<polygon fill="white" stroke="black" points="207,-56.5 207,-75.5 247,-75.5 247,-56.5 207,-56.5"/>
<text text-anchor="middle" x="227" y="-63.5" font-family="Helvetica,sans-Serif" font-size="10.00">Talon</text>
</a>
</g>
<!-- Node1&#45;&gt;Node7 -->
<g id="edge16" class="edge"><title>Node1&#45;&gt;Node7</title>
<path fill="none" stroke="midnightblue" d="M220.528,-102.101C219.896,-93.1357 220.343,-82.8579 221.869,-75.7511"/>
<polygon fill="midnightblue" stroke="midnightblue" points="217.066,-102.622 221.834,-112.083 224.007,-101.713 217.066,-102.622"/>
</g>
<!-- Node1&#45;&gt;Node7 -->
<g id="edge18" class="edge"><title>Node1&#45;&gt;Node7</title>
<path fill="none" stroke="midnightblue" d="M233.472,-102.101C234.104,-93.1357 233.657,-82.8579 232.131,-75.7511"/>
<polygon fill="midnightblue" stroke="midnightblue" points="229.993,-101.713 232.166,-112.083 236.934,-102.622 229.993,-101.713"/>
</g>
<!-- Node8 -->
<g id="node18" class="node"><title>Node8</title>
<a xlink:href="class_talon_s_r_x.html" target="_top" xlink:title="TalonSRX">
<polygon fill="white" stroke="black" points="265.5,-56.5 265.5,-75.5 324.5,-75.5 324.5,-56.5 265.5,-56.5"/>
<text text-anchor="middle" x="295" y="-63.5" font-family="Helvetica,sans-Serif" font-size="10.00">TalonSRX</text>
</a>
</g>
<!-- Node1&#45;&gt;Node8 -->
<g id="edge20" class="edge"><title>Node1&#45;&gt;Node8</title>
<path fill="none" stroke="midnightblue" d="M245.762,-106.101C258,-96.3824 273.559,-84.0269 283.876,-75.8339"/>
<polygon fill="midnightblue" stroke="midnightblue" points="243.58,-103.364 237.925,-112.324 247.933,-108.846 243.58,-103.364"/>
</g>
<!-- Node9 -->
<g id="node20" class="node"><title>Node9</title>
<a xlink:href="class_victor.html" target="_top" xlink:title="Victor">
<polygon fill="white" stroke="black" points="343,-56.5 343,-75.5 385,-75.5 385,-56.5 343,-56.5"/>
<text text-anchor="middle" x="364" y="-63.5" font-family="Helvetica,sans-Serif" font-size="10.00">Victor</text>
</a>
</g>
<!-- Node1&#45;&gt;Node9 -->
<g id="edge22" class="edge"><title>Node1&#45;&gt;Node9</title>
<path fill="none" stroke="midnightblue" d="M252.924,-108.497C279.075,-97.5605 318.671,-82.114 342.977,-73.4826"/>
<polygon fill="midnightblue" stroke="midnightblue" points="251.458,-105.316 243.619,-112.444 254.192,-111.76 251.458,-105.316"/>
</g>
<!-- Node1&#45;&gt;Node9 -->
<g id="edge24" class="edge"><title>Node1&#45;&gt;Node9</title>
<path fill="none" stroke="midnightblue" d="M263.42,-108.906C290.72,-98.7536 326.646,-84.5063 347.473,-75.5164"/>
<polygon fill="midnightblue" stroke="midnightblue" points="261.975,-105.708 253.797,-112.444 264.39,-112.278 261.975,-105.708"/>
</g>
<!-- Node10 -->
<g id="node23" class="node"><title>Node10</title>
<a xlink:href="class_victor_s_p.html" target="_top" xlink:title="VictorSP">
<polygon fill="white" stroke="black" points="403,-56.5 403,-75.5 459,-75.5 459,-56.5 403,-56.5"/>
<text text-anchor="middle" x="431" y="-63.5" font-family="Helvetica,sans-Serif" font-size="10.00">VictorSP</text>
</a>
</g>
<!-- Node1&#45;&gt;Node10 -->
<g id="edge26" class="edge"><title>Node1&#45;&gt;Node10</title>
<path fill="none" stroke="midnightblue" d="M269.057,-109.867C309.057,-99.279 368.121,-83.6445 402.769,-74.473"/>
<polygon fill="midnightblue" stroke="midnightblue" points="268.096,-106.501 259.324,-112.444 269.887,-113.268 268.096,-106.501"/>
</g>
<!-- Node2 -->
<g id="node2" class="node"><title>Node2</title>
<a xlink:href="class_p_i_d_output.html" target="_top" xlink:title="PIDOutput">
<polygon fill="white" stroke="black" points="196,-168.5 196,-187.5 258,-187.5 258,-168.5 196,-168.5"/>
<text text-anchor="middle" x="227" y="-175.5" font-family="Helvetica,sans-Serif" font-size="10.00">PIDOutput</text>
</a>
</g>
<!-- Node2&#45;&gt;Node1 -->
<g id="edge2" class="edge"><title>Node2&#45;&gt;Node1</title>
<path fill="none" stroke="midnightblue" d="M220.528,-158.101C219.896,-149.136 220.343,-138.858 221.869,-131.751"/>
<polygon fill="midnightblue" stroke="midnightblue" points="217.066,-158.622 221.834,-168.083 224.007,-157.713 217.066,-158.622"/>
</g>
<!-- Node2&#45;&gt;Node1 -->
<g id="edge4" class="edge"><title>Node2&#45;&gt;Node1</title>
<path fill="none" stroke="midnightblue" d="M233.472,-158.101C234.104,-149.136 233.657,-138.858 232.131,-131.751"/>
<polygon fill="midnightblue" stroke="midnightblue" points="229.993,-157.713 232.166,-168.083 236.934,-158.622 229.993,-157.713"/>
</g>
<!-- Node4 -->
<g id="node8" class="node"><title>Node4</title>
<a xlink:href="class_c_a_n_jaguar.html" target="_top" xlink:title="CANJaguar">
<polygon fill="white" stroke="black" points="-0.5,-0.5 -0.5,-19.5 64.5,-19.5 64.5,-0.5 -0.5,-0.5"/>
<text text-anchor="middle" x="32" y="-7.5" font-family="Helvetica,sans-Serif" font-size="10.00">CANJaguar</text>
</a>
</g>
<!-- Node3&#45;&gt;Node4 -->
<g id="edge8" class="edge"><title>Node3&#45;&gt;Node4</title>
<path fill="none" stroke="midnightblue" d="M59.3003,-47.8554C52.374,-38.5048 44.0937,-27.3265 38.4823,-19.7511"/>
<polygon fill="midnightblue" stroke="midnightblue" points="56.63,-50.1307 65.3948,-56.083 62.255,-45.9641 56.63,-50.1307"/>
</g>
<!-- Node5 -->
<g id="node10" class="node"><title>Node5</title>
<a xlink:href="class_c_a_n_talon.html" target="_top" xlink:title="CANTalon">
<polygon fill="white" stroke="black" points="83,-0.5 83,-19.5 143,-19.5 143,-0.5 83,-0.5"/>
<text text-anchor="middle" x="113" y="-7.5" font-family="Helvetica,sans-Serif" font-size="10.00">CANTalon</text>
</a>
</g>
<!-- Node3&#45;&gt;Node5 -->
<g id="edge10" class="edge"><title>Node3&#45;&gt;Node5</title>
<path fill="none" stroke="midnightblue" d="M85.0172,-47.8554C92.1167,-38.5048 100.604,-27.3265 106.356,-19.7511"/>
<polygon fill="midnightblue" stroke="midnightblue" points="82.0299,-46.002 78.7703,-56.083 87.605,-50.235 82.0299,-46.002"/>
</g>
</g>
</svg>
