<?xml version="1.0" encoding="UTF-8" standalone="no"?>
<!DOCTYPE svg PUBLIC "-//W3C//DTD SVG 1.1//EN"
 "http://www.w3.org/Graphics/SVG/1.1/DTD/svg11.dtd">
<!-- Generated by graphviz version 2.28.0 (20110507.0327)
 -->
<!-- Title: Scheduler::GetInstance Pages: 1 -->
<svg width="788pt" height="268pt"
 viewBox="0.00 0.00 788.00 268.00" xmlns="http://www.w3.org/2000/svg" xmlns:xlink="http://www.w3.org/1999/xlink">
<g id="graph1" class="graph" transform="scale(1 1) rotate(0) translate(4 264)">
<title>Scheduler::GetInstance</title>
<polygon fill="white" stroke="white" points="-4,5 -4,-264 785,-264 785,5 -4,5"/>
<!-- Node1 -->
<g id="node1" class="node"><title>Node1</title>
<polygon fill="#bfbfbf" stroke="black" points="0.5,-76.5 0.5,-95.5 119.5,-95.5 119.5,-76.5 0.5,-76.5"/>
<text text-anchor="middle" x="60" y="-83.5" font-family="Helvetica,sans-Serif" font-size="10.00">Scheduler::GetInstance</text>
</g>
<!-- Node2 -->
<g id="node3" class="node"><title>Node2</title>
<a xlink:href="class_command.html#ad61704023f2e6acfcfda4bc88c0b77fc" target="_top" xlink:title="Command::Start">
<polygon fill="white" stroke="black" points="197,-152.5 197,-171.5 285,-171.5 285,-152.5 197,-152.5"/>
<text text-anchor="middle" x="241" y="-159.5" font-family="Helvetica,sans-Serif" font-size="10.00">Command::Start</text>
</a>
</g>
<!-- Node1&#45;&gt;Node2 -->
<g id="edge2" class="edge"><title>Node1&#45;&gt;Node2</title>
<path fill="none" stroke="midnightblue" d="M82.1384,-101.381C100.742,-114.241 128.999,-132.171 156,-143 168.906,-148.176 183.52,-152.099 196.899,-154.996"/>
<polygon fill="midnightblue" stroke="midnightblue" points="84.02,-98.4252 73.8289,-95.5284 79.9892,-104.148 84.02,-98.4252"/>
</g>
<!-- Node4 -->
<g id="node7" class="node"><title>Node4</title>
<a xlink:href="class_subsystem.html#ad2df571da0438beacb3c1800c0316477" target="_top" xlink:title="Subsystem::Subsystem">
<polygon fill="white" stroke="black" points="180,-114.5 180,-133.5 302,-133.5 302,-114.5 180,-114.5"/>
<text text-anchor="middle" x="241" y="-121.5" font-family="Helvetica,sans-Serif" font-size="10.00">Subsystem::Subsystem</text>
</a>
</g>
<!-- Node1&#45;&gt;Node4 -->
<g id="edge6" class="edge"><title>Node1&#45;&gt;Node4</title>
<path fill="none" stroke="midnightblue" d="M116.024,-97.681C141.408,-103.07 171.161,-109.386 195.156,-114.48"/>
<polygon fill="midnightblue" stroke="midnightblue" points="116.678,-94.242 106.169,-95.589 115.224,-101.089 116.678,-94.242"/>
</g>
<!-- Node5 -->
<g id="node9" class="node"><title>Node5</title>
<a xlink:href="class_live_window.html#ac33cec031b5990d91e5c68efb3340b68" target="_top" xlink:title="LiveWindow::LiveWindow">
<polygon fill="white" stroke="black" points="178.5,-76.5 178.5,-95.5 303.5,-95.5 303.5,-76.5 178.5,-76.5"/>
<text text-anchor="middle" x="241" y="-83.5" font-family="Helvetica,sans-Serif" font-size="10.00">LiveWindow::LiveWindow</text>
</a>
</g>
<!-- Node1&#45;&gt;Node5 -->
<g id="edge8" class="edge"><title>Node1&#45;&gt;Node5</title>
<path fill="none" stroke="midnightblue" d="M129.959,-86C145.942,-86 162.849,-86 178.488,-86"/>
<polygon fill="midnightblue" stroke="midnightblue" points="129.611,-82.5001 119.611,-86 129.611,-89.5001 129.611,-82.5001"/>
</g>
<!-- Node13 -->
<g id="node25" class="node"><title>Node13</title>
<a xlink:href="class_iterative_robot.html#ab0af04a781b0390981b9f0dd75358515" target="_top" xlink:title="IterativeRobot::StartCompetition">
<polygon fill="white" stroke="black" points="524,-0.5 524,-19.5 678,-19.5 678,-0.5 524,-0.5"/>
<text text-anchor="middle" x="601" y="-7.5" font-family="Helvetica,sans-Serif" font-size="10.00">IterativeRobot::StartCompetition</text>
</a>
</g>
<!-- Node1&#45;&gt;Node13 -->
<g id="edge28" class="edge"><title>Node1&#45;&gt;Node13</title>
<path fill="none" stroke="midnightblue" d="M115.294,-74.4633C128.576,-71.8286 142.773,-69.1689 156,-67 284.65,-45.9034 435.344,-27.98 523.953,-18.1298"/>
<polygon fill="midnightblue" stroke="midnightblue" points="114.46,-71.0609 105.347,-76.4647 115.841,-77.9234 114.46,-71.0609"/>
</g>
<!-- Node15 -->
<g id="node30" class="node"><title>Node15</title>
<a xlink:href="class_command_test.html#ab59ea4ece713e6b2c35050b4103cc849" target="_top" xlink:title="CommandTest::TeardownScheduler">
<polygon fill="white" stroke="black" points="156,-0.5 156,-19.5 326,-19.5 326,-0.5 156,-0.5"/>
<text text-anchor="middle" x="241" y="-7.5" font-family="Helvetica,sans-Serif" font-size="10.00">CommandTest::TeardownScheduler</text>
</a>
</g>
<!-- Node1&#45;&gt;Node15 -->
<g id="edge30" class="edge"><title>Node1&#45;&gt;Node15</title>
<path fill="none" stroke="midnightblue" d="M84.7014,-71.0896C103.491,-59.7521 130.705,-44.3847 156,-34 169.89,-28.2975 185.6,-23.4163 199.644,-19.574"/>
<polygon fill="midnightblue" stroke="midnightblue" points="82.6506,-68.2412 75.9492,-76.4475 86.3054,-74.2114 82.6506,-68.2412"/>
</g>
<!-- Node3 -->
<g id="node5" class="node"><title>Node3</title>
<a xlink:href="class_start_command.html#a7e0382765f67e6c31e1786f43c6d4c4d" target="_top" xlink:title="StartCommand::Initialize">
<polygon fill="white" stroke="black" points="363.5,-152.5 363.5,-171.5 486.5,-171.5 486.5,-152.5 363.5,-152.5"/>
<text text-anchor="middle" x="425" y="-159.5" font-family="Helvetica,sans-Serif" font-size="10.00">StartCommand::Initialize</text>
</a>
</g>
<!-- Node2&#45;&gt;Node3 -->
<g id="edge4" class="edge"><title>Node2&#45;&gt;Node3</title>
<path fill="none" stroke="midnightblue" d="M295.298,-162C316.611,-162 341.274,-162 363.274,-162"/>
<polygon fill="midnightblue" stroke="midnightblue" points="295.131,-158.5 285.131,-162 295.131,-165.5 295.131,-158.5"/>
</g>
<!-- Node6 -->
<g id="node11" class="node"><title>Node6</title>
<a xlink:href="class_live_window.html#a329c07efec22a0e0644d70279688aa35" target="_top" xlink:title="LiveWindow::GetInstance">
<polygon fill="white" stroke="black" points="362,-95.5 362,-114.5 488,-114.5 488,-95.5 362,-95.5"/>
<text text-anchor="middle" x="425" y="-102.5" font-family="Helvetica,sans-Serif" font-size="10.00">LiveWindow::GetInstance</text>
</a>
</g>
<!-- Node5&#45;&gt;Node6 -->
<g id="edge10" class="edge"><title>Node5&#45;&gt;Node6</title>
<path fill="none" stroke="midnightblue" d="M313.894,-93.5054C329.743,-95.1599 346.401,-96.899 361.827,-98.5094"/>
<polygon fill="midnightblue" stroke="midnightblue" points="313.926,-89.9899 303.617,-92.4325 313.199,-96.952 313.926,-89.9899"/>
</g>
<!-- Node7 -->
<g id="node13" class="node"><title>Node7</title>
<a xlink:href="class_a_d_x_l345___i2_c.html#ace28299f55450a560f959cf72613489a" target="_top" xlink:title="ADXL345_I2C::ADXL345_I2C">
<polygon fill="white" stroke="black" points="530.5,-240.5 530.5,-259.5 671.5,-259.5 671.5,-240.5 530.5,-240.5"/>
<text text-anchor="middle" x="601" y="-247.5" font-family="Helvetica,sans-Serif" font-size="10.00">ADXL345_I2C::ADXL345_I2C</text>
</a>
</g>
<!-- Node6&#45;&gt;Node7 -->
<g id="edge12" class="edge"><title>Node6&#45;&gt;Node7</title>
<path fill="none" stroke="midnightblue" d="M457.972,-119.461C468.624,-125.515 479.841,-133.404 488,-143 515.372,-175.194 492.057,-203.336 524,-231 528.421,-234.829 533.501,-237.907 538.894,-240.379"/>
<polygon fill="midnightblue" stroke="midnightblue" points="459.321,-116.215 448.848,-114.617 456.039,-122.398 459.321,-116.215"/>
</g>
<!-- Node8 -->
<g id="node15" class="node"><title>Node8</title>
<a xlink:href="class_a_d_x_l345___s_p_i.html#afd6ce38c4905606f32ae96342b2d29ca" target="_top" xlink:title="ADXL345_SPI::ADXL345_SPI">
<polygon fill="white" stroke="black" points="529,-202.5 529,-221.5 673,-221.5 673,-202.5 529,-202.5"/>
<text text-anchor="middle" x="601" y="-209.5" font-family="Helvetica,sans-Serif" font-size="10.00">ADXL345_SPI::ADXL345_SPI</text>
</a>
</g>
<!-- Node6&#45;&gt;Node8 -->
<g id="edge14" class="edge"><title>Node6&#45;&gt;Node8</title>
<path fill="none" stroke="midnightblue" d="M454.689,-119.476C465.768,-125.832 478.126,-133.921 488,-143 507.892,-161.292 501.655,-176.803 524,-192 530.431,-196.373 537.765,-199.791 545.283,-202.461"/>
<polygon fill="midnightblue" stroke="midnightblue" points="456.214,-116.32 445.766,-114.56 452.837,-122.451 456.214,-116.32"/>
</g>
<!-- Node9 -->
<g id="node17" class="node"><title>Node9</title>
<a xlink:href="class_built_in_accelerometer.html#ac76efde6517e1483e5ea9597e1c605bd" target="_top" xlink:title="BuiltInAccelerometer\l::BuiltInAccelerometer">
<polygon fill="white" stroke="black" points="544.5,-153 544.5,-183 657.5,-183 657.5,-153 544.5,-153"/>
<text text-anchor="start" x="552.5" y="-171" font-family="Helvetica,sans-Serif" font-size="10.00">BuiltInAccelerometer</text>
<text text-anchor="middle" x="601" y="-160" font-family="Helvetica,sans-Serif" font-size="10.00">::BuiltInAccelerometer</text>
</a>
</g>
<!-- Node6&#45;&gt;Node9 -->
<g id="edge16" class="edge"><title>Node6&#45;&gt;Node9</title>
<path fill="none" stroke="midnightblue" d="M459.006,-118.292C477.937,-125.791 502.202,-135.194 524,-143 533.285,-146.325 543.265,-149.728 552.841,-152.911"/>
<polygon fill="midnightblue" stroke="midnightblue" points="460.219,-115.008 449.634,-114.562 457.631,-121.512 460.219,-115.008"/>
</g>
<!-- Node10 -->
<g id="node19" class="node"><title>Node10</title>
<a xlink:href="class_gear_tooth.html#abc7cf72d7856aaf50b8eff53d461a979" target="_top" xlink:title="GearTooth::GearTooth">
<polygon fill="white" stroke="black" points="544.5,-114.5 544.5,-133.5 657.5,-133.5 657.5,-114.5 544.5,-114.5"/>
<text text-anchor="middle" x="601" y="-121.5" font-family="Helvetica,sans-Serif" font-size="10.00">GearTooth::GearTooth</text>
</a>
</g>
<!-- Node6&#45;&gt;Node10 -->
<g id="edge18" class="edge"><title>Node6&#45;&gt;Node10</title>
<path fill="none" stroke="midnightblue" d="M498.342,-112.899C513.754,-114.582 529.798,-116.334 544.463,-117.936"/>
<polygon fill="midnightblue" stroke="midnightblue" points="498.647,-109.412 488.327,-111.806 497.887,-116.371 498.647,-109.412"/>
</g>
<!-- Node11 -->
<g id="node21" class="node"><title>Node11</title>
<a xlink:href="class_gyro.html#ae26b1bacc0c5a4e1f9d85836fcb90736" target="_top" xlink:title="Gyro::InitGyro">
<polygon fill="white" stroke="black" points="562.5,-76.5 562.5,-95.5 639.5,-95.5 639.5,-76.5 562.5,-76.5"/>
<text text-anchor="middle" x="601" y="-83.5" font-family="Helvetica,sans-Serif" font-size="10.00">Gyro::InitGyro</text>
</a>
</g>
<!-- Node6&#45;&gt;Node11 -->
<g id="edge20" class="edge"><title>Node6&#45;&gt;Node11</title>
<path fill="none" stroke="midnightblue" d="M498.328,-97.1021C520.34,-94.6985 543.642,-92.154 562.377,-90.1083"/>
<polygon fill="midnightblue" stroke="midnightblue" points="497.887,-93.6293 488.327,-98.1942 498.647,-100.588 497.887,-93.6293"/>
</g>
<!-- Node6&#45;&gt;Node13 -->
<g id="edge24" class="edge"><title>Node6&#45;&gt;Node13</title>
<path fill="none" stroke="midnightblue" d="M449.408,-89.8601C461.25,-81.9292 475.686,-71.8394 488,-62 504.957,-48.4507 504.884,-39.2812 524,-29 531.187,-25.1346 539.18,-22.0375 547.206,-19.5607"/>
<polygon fill="midnightblue" stroke="midnightblue" points="447.345,-87.0281 440.936,-95.4642 451.207,-92.8664 447.345,-87.0281"/>
</g>
<!-- Node14 -->
<g id="node27" class="node"><title>Node14</title>
<a xlink:href="class_sample_robot.html#aa9c849963713b505a4e032516c028829" target="_top" xlink:title="SampleRobot::StartCompetition">
<polygon fill="white" stroke="black" points="524,-38.5 524,-57.5 678,-57.5 678,-38.5 524,-38.5"/>
<text text-anchor="middle" x="601" y="-45.5" font-family="Helvetica,sans-Serif" font-size="10.00">SampleRobot::StartCompetition</text>
</a>
</g>
<!-- Node6&#45;&gt;Node14 -->
<g id="edge26" class="edge"><title>Node6&#45;&gt;Node14</title>
<path fill="none" stroke="midnightblue" d="M457.667,-91.5613C476.687,-83.7822 501.488,-74.1479 524,-67 534.889,-63.5427 546.814,-60.3086 557.924,-57.5235"/>
<polygon fill="midnightblue" stroke="midnightblue" points="456.196,-88.3824 448.291,-95.4371 458.87,-94.8515 456.196,-88.3824"/>
</g>
<!-- Node12 -->
<g id="node23" class="node"><title>Node12</title>
<a xlink:href="class_gyro.html#a06521f58180be9e342d941643f9b2491" target="_top" xlink:title="Gyro::Gyro">
<polygon fill="white" stroke="black" points="714.5,-76.5 714.5,-95.5 779.5,-95.5 779.5,-76.5 714.5,-76.5"/>
<text text-anchor="middle" x="747" y="-83.5" font-family="Helvetica,sans-Serif" font-size="10.00">Gyro::Gyro</text>
</a>
</g>
<!-- Node11&#45;&gt;Node12 -->
<g id="edge22" class="edge"><title>Node11&#45;&gt;Node12</title>
<path fill="none" stroke="midnightblue" d="M649.934,-86C671.097,-86 695.395,-86 714.259,-86"/>
<polygon fill="midnightblue" stroke="midnightblue" points="649.834,-82.5001 639.834,-86 649.834,-89.5001 649.834,-82.5001"/>
</g>
</g>
</svg>
