<?xml version="1.0" encoding="UTF-8" standalone="no"?>
<!DOCTYPE svg PUBLIC "-//W3C//DTD SVG 1.1//EN"
 "http://www.w3.org/Graphics/SVG/1.1/DTD/svg11.dtd">
<!-- Generated by graphviz version 2.28.0 (20110507.0327)
 -->
<!-- Title: PWM::GetRaw Pages: 1 -->
<svg width="620pt" height="294pt"
 viewBox="0.00 0.00 620.00 294.00" xmlns="http://www.w3.org/2000/svg" xmlns:xlink="http://www.w3.org/1999/xlink">
<g id="graph1" class="graph" transform="scale(1 1) rotate(0) translate(4 290)">
<title>PWM::GetRaw</title>
<polygon fill="white" stroke="white" points="-4,5 -4,-290 617,-290 617,5 -4,5"/>
<!-- Node1 -->
<g id="node1" class="node"><title>Node1</title>
<polygon fill="#bfbfbf" stroke="black" points="0,-171.5 0,-190.5 82,-190.5 82,-171.5 0,-171.5"/>
<text text-anchor="middle" x="41" y="-178.5" font-family="Helvetica,sans-Serif" font-size="10.00">PWM::GetRaw</text>
</g>
<!-- Node2 -->
<g id="node3" class="node"><title>Node2</title>
<a xlink:href="class_p_w_m.html#a2f5dcbf84dc82c4b19098c4cc99d0390" target="_top" xlink:title="PWM::GetPosition">
<polygon fill="white" stroke="black" points="118,-228.5 118,-247.5 216,-247.5 216,-228.5 118,-228.5"/>
<text text-anchor="middle" x="167" y="-235.5" font-family="Helvetica,sans-Serif" font-size="10.00">PWM::GetPosition</text>
</a>
</g>
<!-- Node1&#45;&gt;Node2 -->
<g id="edge2" class="edge"><title>Node1&#45;&gt;Node2</title>
<path fill="none" stroke="midnightblue" d="M71.9283,-194.757C94.5845,-205.172 125.125,-219.211 145.177,-228.428"/>
<polygon fill="midnightblue" stroke="midnightblue" points="73.3027,-191.537 62.7548,-190.541 70.379,-197.897 73.3027,-191.537"/>
</g>
<!-- Node7 -->
<g id="node13" class="node"><title>Node7</title>
<a xlink:href="class_p_w_m.html#a42b209cbe7e63732918cbbcb55bfaac7" target="_top" xlink:title="PWM::GetSpeed">
<polygon fill="white" stroke="black" points="121.5,-114.5 121.5,-133.5 212.5,-133.5 212.5,-114.5 121.5,-114.5"/>
<text text-anchor="middle" x="167" y="-121.5" font-family="Helvetica,sans-Serif" font-size="10.00">PWM::GetSpeed</text>
</a>
</g>
<!-- Node1&#45;&gt;Node7 -->
<g id="edge12" class="edge"><title>Node1&#45;&gt;Node7</title>
<path fill="none" stroke="midnightblue" d="M71.9283,-167.243C94.5845,-156.828 125.125,-142.789 145.177,-133.572"/>
<polygon fill="midnightblue" stroke="midnightblue" points="70.379,-164.103 62.7548,-171.459 73.3027,-170.463 70.379,-164.103"/>
</g>
<!-- Node3 -->
<g id="node5" class="node"><title>Node3</title>
<a xlink:href="class_servo.html#a5ecdde666455fa3c20d4ae1b6184a047" target="_top" xlink:title="Servo::Get">
<polygon fill="white" stroke="black" points="272,-266.5 272,-285.5 334,-285.5 334,-266.5 272,-266.5"/>
<text text-anchor="middle" x="303" y="-273.5" font-family="Helvetica,sans-Serif" font-size="10.00">Servo::Get</text>
</a>
</g>
<!-- Node2&#45;&gt;Node3 -->
<g id="edge4" class="edge"><title>Node2&#45;&gt;Node3</title>
<path fill="none" stroke="midnightblue" d="M211.504,-250.337C231.226,-255.93 254.059,-262.405 271.855,-267.451"/>
<polygon fill="midnightblue" stroke="midnightblue" points="212.389,-246.95 201.814,-247.589 210.48,-253.685 212.389,-246.95"/>
</g>
<!-- Node6 -->
<g id="node11" class="node"><title>Node6</title>
<a xlink:href="class_servo.html#a0ccee0191f0026d94db4646e6662700c" target="_top" xlink:title="Servo::GetAngle">
<polygon fill="white" stroke="black" points="259.5,-228.5 259.5,-247.5 346.5,-247.5 346.5,-228.5 259.5,-228.5"/>
<text text-anchor="middle" x="303" y="-235.5" font-family="Helvetica,sans-Serif" font-size="10.00">Servo::GetAngle</text>
</a>
</g>
<!-- Node2&#45;&gt;Node6 -->
<g id="edge10" class="edge"><title>Node2&#45;&gt;Node6</title>
<path fill="none" stroke="midnightblue" d="M226.448,-238C237.55,-238 248.971,-238 259.463,-238"/>
<polygon fill="midnightblue" stroke="midnightblue" points="226.377,-234.5 216.377,-238 226.377,-241.5 226.377,-234.5"/>
</g>
<!-- Node4 -->
<g id="node7" class="node"><title>Node4</title>
<a xlink:href="class_servo.html#a76cca4c9e061ad6b36bcf8282e6bb9d2" target="_top" xlink:title="Servo::UpdateTable">
<polygon fill="white" stroke="black" points="390.5,-266.5 390.5,-285.5 491.5,-285.5 491.5,-266.5 390.5,-266.5"/>
<text text-anchor="middle" x="441" y="-273.5" font-family="Helvetica,sans-Serif" font-size="10.00">Servo::UpdateTable</text>
</a>
</g>
<!-- Node3&#45;&gt;Node4 -->
<g id="edge6" class="edge"><title>Node3&#45;&gt;Node4</title>
<path fill="none" stroke="midnightblue" d="M344.309,-276C358.771,-276 375.247,-276 390.405,-276"/>
<polygon fill="midnightblue" stroke="midnightblue" points="344.183,-272.5 334.183,-276 344.183,-279.5 344.183,-272.5"/>
</g>
<!-- Node5 -->
<g id="node9" class="node"><title>Node5</title>
<a xlink:href="class_servo.html#ae429a4197d8868503fbecb24a2935220" target="_top" xlink:title="Servo::InitTable">
<polygon fill="white" stroke="black" points="528.5,-266.5 528.5,-285.5 611.5,-285.5 611.5,-266.5 528.5,-266.5"/>
<text text-anchor="middle" x="570" y="-273.5" font-family="Helvetica,sans-Serif" font-size="10.00">Servo::InitTable</text>
</a>
</g>
<!-- Node4&#45;&gt;Node5 -->
<g id="edge8" class="edge"><title>Node4&#45;&gt;Node5</title>
<path fill="none" stroke="midnightblue" d="M501.866,-276C510.825,-276 519.882,-276 528.318,-276"/>
<polygon fill="midnightblue" stroke="midnightblue" points="501.829,-272.5 491.829,-276 501.829,-279.5 501.829,-272.5"/>
</g>
<!-- Node8 -->
<g id="node15" class="node"><title>Node8</title>
<a xlink:href="class_jaguar.html#a7ce9aa9378ec4f0907dca524f63bfdd1" target="_top" xlink:title="Jaguar::Get">
<polygon fill="white" stroke="black" points="269.5,-190.5 269.5,-209.5 336.5,-209.5 336.5,-190.5 269.5,-190.5"/>
<text text-anchor="middle" x="303" y="-197.5" font-family="Helvetica,sans-Serif" font-size="10.00">Jaguar::Get</text>
</a>
</g>
<!-- Node7&#45;&gt;Node8 -->
<g id="edge14" class="edge"><title>Node7&#45;&gt;Node8</title>
<path fill="none" stroke="midnightblue" d="M188.566,-139.959C205.072,-152.263 229.178,-169.128 252,-181 258.755,-184.514 266.313,-187.726 273.466,-190.47"/>
<polygon fill="midnightblue" stroke="midnightblue" points="190.32,-136.897 180.234,-133.653 186.096,-142.478 190.32,-136.897"/>
</g>
<!-- Node9 -->
<g id="node17" class="node"><title>Node9</title>
<a xlink:href="class_p_w_m.html#a963e92607792f13d6a4d05e3ccf04cbd" target="_top" xlink:title="PWM::UpdateTable">
<polygon fill="white" stroke="black" points="252.5,-152.5 252.5,-171.5 353.5,-171.5 353.5,-152.5 252.5,-152.5"/>
<text text-anchor="middle" x="303" y="-159.5" font-family="Helvetica,sans-Serif" font-size="10.00">PWM::UpdateTable</text>
</a>
</g>
<!-- Node7&#45;&gt;Node9 -->
<g id="edge16" class="edge"><title>Node7&#45;&gt;Node9</title>
<path fill="none" stroke="midnightblue" d="M211.438,-136.318C229.849,-141.539 250.98,-147.532 268.197,-152.414"/>
<polygon fill="midnightblue" stroke="midnightblue" points="212.389,-132.95 201.814,-133.589 210.48,-139.685 212.389,-132.95"/>
</g>
<!-- Node11 -->
<g id="node21" class="node"><title>Node11</title>
<a xlink:href="class_talon.html#a5b9cd39bb76bdc9bfa27d4cc72fce3ea" target="_top" xlink:title="Talon::Get">
<polygon fill="white" stroke="black" points="272,-114.5 272,-133.5 334,-133.5 334,-114.5 272,-114.5"/>
<text text-anchor="middle" x="303" y="-121.5" font-family="Helvetica,sans-Serif" font-size="10.00">Talon::Get</text>
</a>
</g>
<!-- Node7&#45;&gt;Node11 -->
<g id="edge20" class="edge"><title>Node7&#45;&gt;Node11</title>
<path fill="none" stroke="midnightblue" d="M222.884,-124C239.648,-124 257.458,-124 271.928,-124"/>
<polygon fill="midnightblue" stroke="midnightblue" points="222.62,-120.5 212.62,-124 222.62,-127.5 222.62,-120.5"/>
</g>
<!-- Node12 -->
<g id="node23" class="node"><title>Node12</title>
<a xlink:href="class_talon_s_r_x.html#a5d72e618d1328c758e01aa54a28910c8" target="_top" xlink:title="TalonSRX::Get">
<polygon fill="white" stroke="black" points="263,-76.5 263,-95.5 343,-95.5 343,-76.5 263,-76.5"/>
<text text-anchor="middle" x="303" y="-83.5" font-family="Helvetica,sans-Serif" font-size="10.00">TalonSRX::Get</text>
</a>
</g>
<!-- Node7&#45;&gt;Node12 -->
<g id="edge22" class="edge"><title>Node7&#45;&gt;Node12</title>
<path fill="none" stroke="midnightblue" d="M211.438,-111.682C229.849,-106.461 250.98,-100.468 268.197,-95.5859"/>
<polygon fill="midnightblue" stroke="midnightblue" points="210.48,-108.315 201.814,-114.411 212.389,-115.05 210.48,-108.315"/>
</g>
<!-- Node13 -->
<g id="node25" class="node"><title>Node13</title>
<a xlink:href="class_victor.html#a71f7b8a475186a823515c4508af7498c" target="_top" xlink:title="Victor::Get">
<polygon fill="white" stroke="black" points="271,-38.5 271,-57.5 335,-57.5 335,-38.5 271,-38.5"/>
<text text-anchor="middle" x="303" y="-45.5" font-family="Helvetica,sans-Serif" font-size="10.00">Victor::Get</text>
</a>
</g>
<!-- Node7&#45;&gt;Node13 -->
<g id="edge24" class="edge"><title>Node7&#45;&gt;Node13</title>
<path fill="none" stroke="midnightblue" d="M188.566,-108.041C205.072,-95.7371 229.178,-78.872 252,-67 258.755,-63.4859 266.313,-60.2736 273.466,-57.5304"/>
<polygon fill="midnightblue" stroke="midnightblue" points="186.096,-105.522 180.234,-114.347 190.32,-111.103 186.096,-105.522"/>
</g>
<!-- Node14 -->
<g id="node27" class="node"><title>Node14</title>
<a xlink:href="class_victor_s_p.html#a84bea364d16a3bfa19474ed1eb5837a0" target="_top" xlink:title="VictorSP::Get">
<polygon fill="white" stroke="black" points="264.5,-0.5 264.5,-19.5 341.5,-19.5 341.5,-0.5 264.5,-0.5"/>
<text text-anchor="middle" x="303" y="-7.5" font-family="Helvetica,sans-Serif" font-size="10.00">VictorSP::Get</text>
</a>
</g>
<!-- Node7&#45;&gt;Node14 -->
<g id="edge26" class="edge"><title>Node7&#45;&gt;Node14</title>
<path fill="none" stroke="midnightblue" d="M179.909,-105.871C194.594,-84.7809 221.398,-50.1595 252,-29 257.423,-25.2503 263.684,-22.119 269.901,-19.5516"/>
<polygon fill="midnightblue" stroke="midnightblue" points="176.936,-104.018 174.213,-114.257 182.727,-107.951 176.936,-104.018"/>
</g>
<!-- Node10 -->
<g id="node19" class="node"><title>Node10</title>
<a xlink:href="class_p_w_m.html#a7b8183e4e39c2092b8b5ac2914761873" target="_top" xlink:title="PWM::InitTable">
<polygon fill="white" stroke="black" points="399.5,-152.5 399.5,-171.5 482.5,-171.5 482.5,-152.5 399.5,-152.5"/>
<text text-anchor="middle" x="441" y="-159.5" font-family="Helvetica,sans-Serif" font-size="10.00">PWM::InitTable</text>
</a>
</g>
<!-- Node9&#45;&gt;Node10 -->
<g id="edge18" class="edge"><title>Node9&#45;&gt;Node10</title>
<path fill="none" stroke="midnightblue" d="M364.23,-162C376.157,-162 388.407,-162 399.486,-162"/>
<polygon fill="midnightblue" stroke="midnightblue" points="363.869,-158.5 353.869,-162 363.869,-165.5 363.869,-158.5"/>
</g>
</g>
</svg>
