<?xml version="1.0" encoding="UTF-8" standalone="no"?>
<!DOCTYPE svg PUBLIC "-//W3C//DTD SVG 1.1//EN"
 "http://www.w3.org/Graphics/SVG/1.1/DTD/svg11.dtd">
<!-- Generated by graphviz version 2.28.0 (20110507.0327)
 -->
<!-- Title: Solenoid::Set Pages: 1 -->
<svg width="276pt" height="66pt"
 viewBox="0.00 0.00 276.00 66.00" xmlns="http://www.w3.org/2000/svg" xmlns:xlink="http://www.w3.org/1999/xlink">
<g id="graph1" class="graph" transform="scale(1 1) rotate(0) translate(4 62)">
<title>Solenoid::Set</title>
<polygon fill="white" stroke="white" points="-4,5 -4,-62 273,-62 273,5 -4,5"/>
<!-- Node1 -->
<g id="node1" class="node"><title>Node1</title>
<polygon fill="#bfbfbf" stroke="black" points="0.5,-19.5 0.5,-38.5 75.5,-38.5 75.5,-19.5 0.5,-19.5"/>
<text text-anchor="middle" x="38" y="-26.5" font-family="Helvetica,sans-Serif" font-size="10.00">Solenoid::Set</text>
</g>
<!-- Node2 -->
<g id="node3" class="node"><title>Node2</title>
<a xlink:href="class_solenoid.html#aa412316a159139255355193c5f9c221a" target="_top" xlink:title="Solenoid::StartLiveWindowMode">
<polygon fill="white" stroke="black" points="112,-38.5 112,-57.5 268,-57.5 268,-38.5 112,-38.5"/>
<text text-anchor="middle" x="190" y="-45.5" font-family="Helvetica,sans-Serif" font-size="10.00">Solenoid::StartLiveWindowMode</text>
</a>
</g>
<!-- Node1&#45;&gt;Node2 -->
<g id="edge2" class="edge"><title>Node1&#45;&gt;Node2</title>
<path fill="none" stroke="midnightblue" d="M85.8612,-34.9358C94.7977,-36.0677 104.358,-37.2786 113.919,-38.4898"/>
<polygon fill="midnightblue" stroke="midnightblue" points="86.0547,-31.4324 75.6941,-33.6479 85.175,-38.3769 86.0547,-31.4324"/>
</g>
<!-- Node3 -->
<g id="node5" class="node"><title>Node3</title>
<a xlink:href="class_solenoid.html#a4d286eec49ba8c5a1486addc10812ce3" target="_top" xlink:title="Solenoid::StopLiveWindowMode">
<polygon fill="white" stroke="black" points="112.5,-0.5 112.5,-19.5 267.5,-19.5 267.5,-0.5 112.5,-0.5"/>
<text text-anchor="middle" x="190" y="-7.5" font-family="Helvetica,sans-Serif" font-size="10.00">Solenoid::StopLiveWindowMode</text>
</a>
</g>
<!-- Node1&#45;&gt;Node3 -->
<g id="edge4" class="edge"><title>Node1&#45;&gt;Node3</title>
<path fill="none" stroke="midnightblue" d="M85.8612,-23.0642C94.7977,-21.9323 104.358,-20.7214 113.919,-19.5102"/>
<polygon fill="midnightblue" stroke="midnightblue" points="85.175,-19.6231 75.6941,-24.3521 86.0547,-26.5676 85.175,-19.6231"/>
</g>
</g>
</svg>
