<?xml version="1.0" encoding="UTF-8" standalone="no"?>
<!DOCTYPE svg PUBLIC "-//W3C//DTD SVG 1.1//EN"
 "http://www.w3.org/Graphics/SVG/1.1/DTD/svg11.dtd">
<!-- Generated by graphviz version 2.28.0 (20110507.0327)
 -->
<!-- Title: SolenoidBase::GetPCMSolenoidBlackList Pages: 1 -->
<svg width="356pt" height="126pt"
 viewBox="0.00 0.00 356.00 126.00" xmlns="http://www.w3.org/2000/svg" xmlns:xlink="http://www.w3.org/1999/xlink">
<g id="graph1" class="graph" transform="scale(1 1) rotate(0) translate(4 122)">
<title>SolenoidBase::GetPCMSolenoidBlackList</title>
<polygon fill="white" stroke="white" points="-4,5 -4,-122 353,-122 353,5 -4,5"/>
<!-- Node1 -->
<g id="node1" class="node"><title>Node1</title>
<polygon fill="#bfbfbf" stroke="black" points="0,-39 0,-69 158,-69 158,-39 0,-39"/>
<text text-anchor="start" x="8" y="-57" font-family="Helvetica,sans-Serif" font-size="10.00">SolenoidBase::GetPCMSolenoid</text>
<text text-anchor="middle" x="79" y="-46" font-family="Helvetica,sans-Serif" font-size="10.00">BlackList</text>
</g>
<!-- Node2 -->
<g id="node3" class="node"><title>Node2</title>
<a xlink:href="class_double_solenoid.html#aa4a6085acf69564e64c18cf53f92f929" target="_top" xlink:title="DoubleSolenoid::IsFwdSolenoid\lBlackListed">
<polygon fill="white" stroke="black" points="194.5,-88 194.5,-118 347.5,-118 347.5,-88 194.5,-88"/>
<text text-anchor="start" x="202.5" y="-106" font-family="Helvetica,sans-Serif" font-size="10.00">DoubleSolenoid::IsFwdSolenoid</text>
<text text-anchor="middle" x="271" y="-95" font-family="Helvetica,sans-Serif" font-size="10.00">BlackListed</text>
</a>
</g>
<!-- Node1&#45;&gt;Node2 -->
<g id="edge2" class="edge"><title>Node1&#45;&gt;Node2</title>
<path fill="none" stroke="midnightblue" d="M148.05,-71.5498C168.915,-76.9306 191.67,-82.799 211.813,-87.9938"/>
<polygon fill="midnightblue" stroke="midnightblue" points="148.855,-68.1428 138.297,-69.0346 147.107,-74.921 148.855,-68.1428"/>
</g>
<!-- Node3 -->
<g id="node5" class="node"><title>Node3</title>
<a xlink:href="class_double_solenoid.html#abec233177261ceac09a37296c05d6ebf" target="_top" xlink:title="DoubleSolenoid::IsRevSolenoid\lBlackListed">
<polygon fill="white" stroke="black" points="195.5,-39 195.5,-69 346.5,-69 346.5,-39 195.5,-39"/>
<text text-anchor="start" x="203.5" y="-57" font-family="Helvetica,sans-Serif" font-size="10.00">DoubleSolenoid::IsRevSolenoid</text>
<text text-anchor="middle" x="271" y="-46" font-family="Helvetica,sans-Serif" font-size="10.00">BlackListed</text>
</a>
</g>
<!-- Node1&#45;&gt;Node3 -->
<g id="edge4" class="edge"><title>Node1&#45;&gt;Node3</title>
<path fill="none" stroke="midnightblue" d="M168.248,-54C177.28,-54 186.394,-54 195.261,-54"/>
<polygon fill="midnightblue" stroke="midnightblue" points="168.103,-50.5001 158.103,-54 168.103,-57.5001 168.103,-50.5001"/>
</g>
<!-- Node4 -->
<g id="node7" class="node"><title>Node4</title>
<a xlink:href="class_solenoid.html#a0b8c7971ac0fe422b0ba80523ae6446a" target="_top" xlink:title="Solenoid::IsBlackListed">
<polygon fill="white" stroke="black" points="211.5,-0.5 211.5,-19.5 330.5,-19.5 330.5,-0.5 211.5,-0.5"/>
<text text-anchor="middle" x="271" y="-7.5" font-family="Helvetica,sans-Serif" font-size="10.00">Solenoid::IsBlackListed</text>
</a>
</g>
<!-- Node1&#45;&gt;Node4 -->
<g id="edge6" class="edge"><title>Node1&#45;&gt;Node4</title>
<path fill="none" stroke="midnightblue" d="M154.786,-36.6813C180.03,-30.8352 207.271,-24.5268 228.924,-19.5124"/>
<polygon fill="midnightblue" stroke="midnightblue" points="153.808,-33.3148 144.856,-38.9808 155.388,-40.1344 153.808,-33.3148"/>
</g>
</g>
</svg>
