<?xml version="1.0" encoding="UTF-8" standalone="no"?>
<!DOCTYPE svg PUBLIC "-//W3C//DTD SVG 1.1//EN"
 "http://www.w3.org/Graphics/SVG/1.1/DTD/svg11.dtd">
<!-- Generated by graphviz version 2.28.0 (20110507.0327)
 -->
<!-- Title: DigitalInput::Get Pages: 1 -->
<svg width="400pt" height="28pt"
 viewBox="0.00 0.00 400.00 28.00" xmlns="http://www.w3.org/2000/svg" xmlns:xlink="http://www.w3.org/1999/xlink">
<g id="graph1" class="graph" transform="scale(1 1) rotate(0) translate(4 24)">
<title>DigitalInput::Get</title>
<polygon fill="white" stroke="white" points="-4,5 -4,-24 397,-24 397,5 -4,5"/>
<!-- Node1 -->
<g id="node1" class="node"><title>Node1</title>
<polygon fill="#bfbfbf" stroke="black" points="0,-0.5 0,-19.5 86,-19.5 86,-0.5 0,-0.5"/>
<text text-anchor="middle" x="43" y="-7.5" font-family="Helvetica,sans-Serif" font-size="10.00">DigitalInput::Get</text>
</g>
<!-- Node2 -->
<g id="node3" class="node"><title>Node2</title>
<a xlink:href="class_digital_input.html#aa04e2df2d4e9e8bdc514695c340473cb" target="_top" xlink:title="DigitalInput::UpdateTable">
<polygon fill="white" stroke="black" points="122.5,-0.5 122.5,-19.5 247.5,-19.5 247.5,-0.5 122.5,-0.5"/>
<text text-anchor="middle" x="185" y="-7.5" font-family="Helvetica,sans-Serif" font-size="10.00">DigitalInput::UpdateTable</text>
</a>
</g>
<!-- Node1&#45;&gt;Node2 -->
<g id="edge2" class="edge"><title>Node1&#45;&gt;Node2</title>
<path fill="none" stroke="midnightblue" d="M96.1847,-10C104.715,-10 113.623,-10 122.355,-10"/>
<polygon fill="midnightblue" stroke="midnightblue" points="96.0047,-6.5001 86.0046,-10 96.0046,-13.5001 96.0047,-6.5001"/>
</g>
<!-- Node3 -->
<g id="node5" class="node"><title>Node3</title>
<a xlink:href="class_digital_input.html#a34a913a3496dab654b7db3bc9b2819d8" target="_top" xlink:title="DigitalInput::InitTable">
<polygon fill="white" stroke="black" points="284.5,-0.5 284.5,-19.5 391.5,-19.5 391.5,-0.5 284.5,-0.5"/>
<text text-anchor="middle" x="338" y="-7.5" font-family="Helvetica,sans-Serif" font-size="10.00">DigitalInput::InitTable</text>
</a>
</g>
<!-- Node2&#45;&gt;Node3 -->
<g id="edge4" class="edge"><title>Node2&#45;&gt;Node3</title>
<path fill="none" stroke="midnightblue" d="M258.109,-10C266.894,-10 275.74,-10 284.171,-10"/>
<polygon fill="midnightblue" stroke="midnightblue" points="257.853,-6.5001 247.853,-10 257.853,-13.5001 257.853,-6.5001"/>
</g>
</g>
</svg>
