<?xml version="1.0" encoding="UTF-8" standalone="no"?>
<!DOCTYPE svg PUBLIC "-//W3C//DTD SVG 1.1//EN"
 "http://www.w3.org/Graphics/SVG/1.1/DTD/svg11.dtd">
<!-- Generated by graphviz version 2.28.0 (20110507.0327)
 -->
<!-- Title: ASubsystem Pages: 1 -->
<svg width="174pt" height="222pt"
 viewBox="0.00 0.00 174.00 222.00" xmlns="http://www.w3.org/2000/svg" xmlns:xlink="http://www.w3.org/1999/xlink">
<g id="graph1" class="graph" transform="scale(1 1) rotate(0) translate(4 218)">
<title>ASubsystem</title>
<polygon fill="white" stroke="white" points="-4,5 -4,-218 171,-218 171,5 -4,5"/>
<!-- Node1 -->
<g id="node1" class="node"><title>Node1</title>
<polygon fill="#bfbfbf" stroke="black" points="47.5,-0.5 47.5,-19.5 120.5,-19.5 120.5,-0.5 47.5,-0.5"/>
<text text-anchor="middle" x="84" y="-7.5" font-family="Helvetica,sans-Serif" font-size="10.00">ASubsystem</text>
</g>
<!-- Node2 -->
<g id="node2" class="node"><title>Node2</title>
<a xlink:href="class_subsystem.html" target="_top" xlink:title="Subsystem">
<polygon fill="white" stroke="black" points="51,-58.5 51,-77.5 117,-77.5 117,-58.5 51,-58.5"/>
<text text-anchor="middle" x="84" y="-65.5" font-family="Helvetica,sans-Serif" font-size="10.00">Subsystem</text>
</a>
</g>
<!-- Node2&#45;&gt;Node1 -->
<g id="edge2" class="edge"><title>Node2&#45;&gt;Node1</title>
<path fill="none" stroke="midnightblue" d="M84,-47.953C84,-38.2875 84,-27.0312 84,-19.5052"/>
<polygon fill="midnightblue" stroke="midnightblue" points="80.5001,-48.25 84,-58.25 87.5001,-48.25 80.5001,-48.25"/>
</g>
<!-- Node3 -->
<g id="node4" class="node"><title>Node3</title>
<a xlink:href="class_error_base.html" target="_top" xlink:title="ErrorBase">
<polygon fill="white" stroke="black" points="0,-116.5 0,-135.5 60,-135.5 60,-116.5 0,-116.5"/>
<text text-anchor="middle" x="30" y="-123.5" font-family="Helvetica,sans-Serif" font-size="10.00">ErrorBase</text>
</a>
</g>
<!-- Node3&#45;&gt;Node2 -->
<g id="edge4" class="edge"><title>Node3&#45;&gt;Node2</title>
<path fill="none" stroke="midnightblue" d="M45.3884,-109.042C55.2849,-98.7786 67.7525,-85.8492 75.7986,-77.5052"/>
<polygon fill="midnightblue" stroke="midnightblue" points="42.8594,-106.622 38.4375,-116.25 47.8984,-111.481 42.8594,-106.622"/>
</g>
<!-- Node4 -->
<g id="node6" class="node"><title>Node4</title>
<a xlink:href="class_error.html" target="_top" xlink:title="Error">
<polygon fill="white" stroke="black" points="11,-194.5 11,-213.5 49,-213.5 49,-194.5 11,-194.5"/>
<text text-anchor="middle" x="30" y="-201.5" font-family="Helvetica,sans-Serif" font-size="10.00">Error</text>
</a>
</g>
<!-- Node4&#45;&gt;Node3 -->
<g id="edge6" class="edge"><title>Node4&#45;&gt;Node3</title>
<path fill="none" stroke="#9a32cd" stroke-dasharray="5,2" d="M30,-184.224C30,-168.697 30,-147.358 30,-135.616"/>
<polygon fill="#9a32cd" stroke="#9a32cd" points="26.5001,-184.282 30,-194.282 33.5001,-184.282 26.5001,-184.282"/>
<text text-anchor="middle" x="57.5" y="-168" font-family="Helvetica,sans-Serif" font-size="10.00"> _globalError</text>
<text text-anchor="middle" x="57.5" y="-157" font-family="Helvetica,sans-Serif" font-size="10.00">m_error</text>
</g>
<!-- Node5 -->
<g id="node8" class="node"><title>Node5</title>
<a xlink:href="class_named_sendable.html" target="_top" xlink:title="NamedSendable">
<polygon fill="white" stroke="black" points="78,-116.5 78,-135.5 166,-135.5 166,-116.5 78,-116.5"/>
<text text-anchor="middle" x="122" y="-123.5" font-family="Helvetica,sans-Serif" font-size="10.00">NamedSendable</text>
</a>
</g>
<!-- Node5&#45;&gt;Node2 -->
<g id="edge8" class="edge"><title>Node5&#45;&gt;Node2</title>
<path fill="none" stroke="midnightblue" d="M110.344,-107.822C103.524,-97.7716 95.2114,-85.522 89.7714,-77.5052"/>
<polygon fill="midnightblue" stroke="midnightblue" points="107.551,-109.94 116.063,-116.25 113.344,-106.01 107.551,-109.94"/>
</g>
<!-- Node6 -->
<g id="node10" class="node"><title>Node6</title>
<a xlink:href="class_sendable.html" target="_top" xlink:title="Sendable">
<polygon fill="white" stroke="black" points="93.5,-194.5 93.5,-213.5 150.5,-213.5 150.5,-194.5 93.5,-194.5"/>
<text text-anchor="middle" x="122" y="-201.5" font-family="Helvetica,sans-Serif" font-size="10.00">Sendable</text>
</a>
</g>
<!-- Node6&#45;&gt;Node5 -->
<g id="edge10" class="edge"><title>Node6&#45;&gt;Node5</title>
<path fill="none" stroke="midnightblue" d="M122,-184.224C122,-168.697 122,-147.358 122,-135.616"/>
<polygon fill="midnightblue" stroke="midnightblue" points="118.5,-184.282 122,-194.282 125.5,-184.282 118.5,-184.282"/>
</g>
</g>
</svg>
