<?xml version="1.0" encoding="UTF-8" standalone="no"?>
<!DOCTYPE svg PUBLIC "-//W3C//DTD SVG 1.1//EN"
 "http://www.w3.org/Graphics/SVG/1.1/DTD/svg11.dtd">
<!-- Generated by graphviz version 2.28.0 (20110507.0327)
 -->
<!-- Title: MotorSafetyHelper::SetSafetyEnabled Pages: 1 -->
<svg width="446pt" height="66pt"
 viewBox="0.00 0.00 446.00 66.00" xmlns="http://www.w3.org/2000/svg" xmlns:xlink="http://www.w3.org/1999/xlink">
<g id="graph1" class="graph" transform="scale(1 1) rotate(0) translate(4 62)">
<title>MotorSafetyHelper::SetSafetyEnabled</title>
<polygon fill="white" stroke="white" points="-4,5 -4,-62 443,-62 443,5 -4,5"/>
<!-- Node1 -->
<g id="node1" class="node"><title>Node1</title>
<polygon fill="#bfbfbf" stroke="black" points="0.5,-14 0.5,-44 103.5,-44 103.5,-14 0.5,-14"/>
<text text-anchor="start" x="8.5" y="-32" font-family="Helvetica,sans-Serif" font-size="10.00">MotorSafetyHelper::</text>
<text text-anchor="middle" x="52" y="-21" font-family="Helvetica,sans-Serif" font-size="10.00">SetSafetyEnabled</text>
</g>
<!-- Node2 -->
<g id="node3" class="node"><title>Node2</title>
<a xlink:href="class_robot_drive.html#ae57d5bb728428fac6cbd7eade67c569d" target="_top" xlink:title="RobotDrive::InitRobotDrive">
<polygon fill="white" stroke="black" points="149,-38.5 149,-57.5 277,-57.5 277,-38.5 149,-38.5"/>
<text text-anchor="middle" x="213" y="-45.5" font-family="Helvetica,sans-Serif" font-size="10.00">RobotDrive::InitRobotDrive</text>
</a>
</g>
<!-- Node1&#45;&gt;Node2 -->
<g id="edge2" class="edge"><title>Node1&#45;&gt;Node2</title>
<path fill="none" stroke="midnightblue" d="M113.702,-36.2537C125.226,-37.6307 137.308,-39.0746 148.904,-40.4602"/>
<polygon fill="midnightblue" stroke="midnightblue" points="114.09,-32.7753 103.746,-35.064 113.26,-39.7258 114.09,-32.7753"/>
</g>
<!-- Node4 -->
<g id="node7" class="node"><title>Node4</title>
<a xlink:href="class_safe_p_w_m.html#a882453a32c881e9114623072b7d905e5" target="_top" xlink:title="SafePWM::SetSafetyEnabled">
<polygon fill="white" stroke="black" points="140.5,-0.5 140.5,-19.5 285.5,-19.5 285.5,-0.5 140.5,-0.5"/>
<text text-anchor="middle" x="213" y="-7.5" font-family="Helvetica,sans-Serif" font-size="10.00">SafePWM::SetSafetyEnabled</text>
</a>
</g>
<!-- Node1&#45;&gt;Node4 -->
<g id="edge6" class="edge"><title>Node1&#45;&gt;Node4</title>
<path fill="none" stroke="midnightblue" d="M113.76,-21.7394C122.437,-20.7026 131.429,-19.628 140.291,-18.569"/>
<polygon fill="midnightblue" stroke="midnightblue" points="113.26,-18.2742 103.746,-22.936 114.09,-25.2247 113.26,-18.2742"/>
</g>
<!-- Node3 -->
<g id="node5" class="node"><title>Node3</title>
<a xlink:href="class_robot_drive.html#aae039ef574600e668f8bc03ef47f37a4" target="_top" xlink:title="RobotDrive::RobotDrive">
<polygon fill="white" stroke="black" points="322,-38.5 322,-57.5 438,-57.5 438,-38.5 322,-38.5"/>
<text text-anchor="middle" x="380" y="-45.5" font-family="Helvetica,sans-Serif" font-size="10.00">RobotDrive::RobotDrive</text>
</a>
</g>
<!-- Node2&#45;&gt;Node3 -->
<g id="edge4" class="edge"><title>Node2&#45;&gt;Node3</title>
<path fill="none" stroke="midnightblue" d="M287.375,-48C298.911,-48 310.689,-48 321.79,-48"/>
<polygon fill="midnightblue" stroke="midnightblue" points="287.321,-44.5001 277.321,-48 287.321,-51.5001 287.321,-44.5001"/>
</g>
</g>
</svg>
