<?xml version="1.0" encoding="UTF-8" standalone="no"?>
<!DOCTYPE svg PUBLIC "-//W3C//DTD SVG 1.1//EN"
 "http://www.w3.org/Graphics/SVG/1.1/DTD/svg11.dtd">
<!-- Generated by graphviz version 2.28.0 (20110507.0327)
 -->
<!-- Title: GearTooth::EnableDirectionSensing Pages: 1 -->
<svg width="490pt" height="38pt"
 viewBox="0.00 0.00 490.00 38.00" xmlns="http://www.w3.org/2000/svg" xmlns:xlink="http://www.w3.org/1999/xlink">
<g id="graph1" class="graph" transform="scale(1 1) rotate(0) translate(4 34)">
<title>GearTooth::EnableDirectionSensing</title>
<polygon fill="white" stroke="white" points="-4,5 -4,-34 487,-34 487,5 -4,5"/>
<!-- Node1 -->
<g id="node1" class="node"><title>Node1</title>
<polygon fill="#bfbfbf" stroke="black" points="0,-0 0,-30 136,-30 136,-0 0,-0"/>
<text text-anchor="start" x="8" y="-18" font-family="Helvetica,sans-Serif" font-size="10.00">GearTooth::EnableDirection</text>
<text text-anchor="middle" x="68" y="-7" font-family="Helvetica,sans-Serif" font-size="10.00">Sensing</text>
</g>
<!-- Node2 -->
<g id="node3" class="node"><title>Node2</title>
<a xlink:href="class_counter.html#adc8d4c41b26c8654fe3775afdb6439f5" target="_top" xlink:title="Counter::SetPulseLengthMode">
<polygon fill="white" stroke="black" points="172.5,-5.5 172.5,-24.5 321.5,-24.5 321.5,-5.5 172.5,-5.5"/>
<text text-anchor="middle" x="247" y="-12.5" font-family="Helvetica,sans-Serif" font-size="10.00">Counter::SetPulseLengthMode</text>
</a>
</g>
<!-- Node1&#45;&gt;Node2 -->
<g id="edge2" class="edge"><title>Node1&#45;&gt;Node2</title>
<path fill="none" stroke="midnightblue" d="M136.168,-15C144.674,-15 153.459,-15 162.182,-15"/>
<polygon fill="midnightblue" stroke="midnightblue" points="162.375,-18.5001 172.375,-15 162.375,-11.5001 162.375,-18.5001"/>
</g>
<!-- Node3 -->
<g id="node5" class="node"><title>Node3</title>
<a xlink:href="class_error_base.html#a05790f219c9e436a09752f73f7344024" target="_top" xlink:title="Check if the current error code represents a fatal error. ">
<polygon fill="white" stroke="black" points="358,-5.5 358,-24.5 482,-24.5 482,-5.5 358,-5.5"/>
<text text-anchor="middle" x="420" y="-12.5" font-family="Helvetica,sans-Serif" font-size="10.00">ErrorBase::StatusIsFatal</text>
</a>
</g>
<!-- Node2&#45;&gt;Node3 -->
<g id="edge4" class="edge"><title>Node2&#45;&gt;Node3</title>
<path fill="none" stroke="midnightblue" d="M321.512,-15C330.23,-15 339.118,-15 347.803,-15"/>
<polygon fill="midnightblue" stroke="midnightblue" points="347.884,-18.5001 357.884,-15 347.884,-11.5001 347.884,-18.5001"/>
</g>
</g>
</svg>
