<?xml version="1.0" encoding="UTF-8" standalone="no"?>
<!DOCTYPE svg PUBLIC "-//W3C//DTD SVG 1.1//EN"
 "http://www.w3.org/Graphics/SVG/1.1/DTD/svg11.dtd">
<!-- Generated by graphviz version 2.28.0 (20110507.0327)
 -->
<!-- Title: Compressor::GetPressureSwitchValue Pages: 1 -->
<svg width="482pt" height="38pt"
 viewBox="0.00 0.00 482.00 38.00" xmlns="http://www.w3.org/2000/svg" xmlns:xlink="http://www.w3.org/1999/xlink">
<g id="graph1" class="graph" transform="scale(1 1) rotate(0) translate(4 34)">
<title>Compressor::GetPressureSwitchValue</title>
<polygon fill="white" stroke="white" points="-4,5 -4,-34 479,-34 479,5 -4,5"/>
<!-- Node1 -->
<g id="node1" class="node"><title>Node1</title>
<polygon fill="#bfbfbf" stroke="black" points="0.5,-0 0.5,-30 159.5,-30 159.5,-0 0.5,-0"/>
<text text-anchor="start" x="8.5" y="-18" font-family="Helvetica,sans-Serif" font-size="10.00">Compressor::GetPressureSwitch</text>
<text text-anchor="middle" x="80" y="-7" font-family="Helvetica,sans-Serif" font-size="10.00">Value</text>
</g>
<!-- Node2 -->
<g id="node3" class="node"><title>Node2</title>
<a xlink:href="class_compressor.html#acbfab8903df0d96c6fe6e513302cea1f" target="_top" xlink:title="Compressor::UpdateTable">
<polygon fill="white" stroke="black" points="196.5,-5.5 196.5,-24.5 325.5,-24.5 325.5,-5.5 196.5,-5.5"/>
<text text-anchor="middle" x="261" y="-12.5" font-family="Helvetica,sans-Serif" font-size="10.00">Compressor::UpdateTable</text>
</a>
</g>
<!-- Node1&#45;&gt;Node2 -->
<g id="edge2" class="edge"><title>Node1&#45;&gt;Node2</title>
<path fill="none" stroke="midnightblue" d="M169.65,-15C178.651,-15 187.664,-15 196.323,-15"/>
<polygon fill="midnightblue" stroke="midnightblue" points="169.512,-11.5001 159.512,-15 169.512,-18.5001 169.512,-11.5001"/>
</g>
<!-- Node3 -->
<g id="node5" class="node"><title>Node3</title>
<a xlink:href="class_compressor.html#a3451f6fd6d08e77febe909ba1a3f8ee1" target="_top" xlink:title="Compressor::InitTable">
<polygon fill="white" stroke="black" points="362.5,-5.5 362.5,-24.5 473.5,-24.5 473.5,-5.5 362.5,-5.5"/>
<text text-anchor="middle" x="418" y="-12.5" font-family="Helvetica,sans-Serif" font-size="10.00">Compressor::InitTable</text>
</a>
</g>
<!-- Node2&#45;&gt;Node3 -->
<g id="edge4" class="edge"><title>Node2&#45;&gt;Node3</title>
<path fill="none" stroke="midnightblue" d="M336.151,-15C344.895,-15 353.696,-15 362.107,-15"/>
<polygon fill="midnightblue" stroke="midnightblue" points="335.939,-11.5001 325.939,-15 335.939,-18.5001 335.939,-11.5001"/>
</g>
</g>
</svg>
