<?xml version="1.0" encoding="UTF-8" standalone="no"?>
<!DOCTYPE svg PUBLIC "-//W3C//DTD SVG 1.1//EN"
 "http://www.w3.org/Graphics/SVG/1.1/DTD/svg11.dtd">
<!-- Generated by graphviz version 2.28.0 (20110507.0327)
 -->
<!-- Title: SensorBase::AddToSingletonList Pages: 1 -->
<svg width="658pt" height="77pt"
 viewBox="0.00 0.00 658.00 77.00" xmlns="http://www.w3.org/2000/svg" xmlns:xlink="http://www.w3.org/1999/xlink">
<g id="graph1" class="graph" transform="scale(1 1) rotate(0) translate(4 73)">
<title>SensorBase::AddToSingletonList</title>
<polygon fill="white" stroke="white" points="-4,5 -4,-73 655,-73 655,5 -4,5"/>
<!-- Node1 -->
<g id="node1" class="node"><title>Node1</title>
<polygon fill="#bfbfbf" stroke="black" points="0,-22.5 0,-41.5 160,-41.5 160,-22.5 0,-22.5"/>
<text text-anchor="middle" x="80" y="-29.5" font-family="Helvetica,sans-Serif" font-size="10.00">SensorBase::AddToSingletonList</text>
</g>
<!-- Node2 -->
<g id="node3" class="node"><title>Node2</title>
<a xlink:href="class_driver_station.html#a343945cc9bbf870e0ada94b47f3fec92" target="_top" xlink:title="DriverStation::DriverStation">
<polygon fill="white" stroke="black" points="196,-22.5 196,-41.5 328,-41.5 328,-22.5 196,-22.5"/>
<text text-anchor="middle" x="262" y="-29.5" font-family="Helvetica,sans-Serif" font-size="10.00">DriverStation::DriverStation</text>
</a>
</g>
<!-- Node1&#45;&gt;Node2 -->
<g id="edge2" class="edge"><title>Node1&#45;&gt;Node2</title>
<path fill="none" stroke="midnightblue" d="M170.282,-32C178.878,-32 187.484,-32 195.784,-32"/>
<polygon fill="midnightblue" stroke="midnightblue" points="170.213,-28.5001 160.213,-32 170.213,-35.5001 170.213,-28.5001"/>
</g>
<!-- Node3 -->
<g id="node5" class="node"><title>Node3</title>
<a xlink:href="class_driver_station.html#ab0995c2d3f0b40cb13ac5aff656e46d0" target="_top" xlink:title="DriverStation::GetInstance">
<polygon fill="white" stroke="black" points="364,-22.5 364,-41.5 494,-41.5 494,-22.5 364,-22.5"/>
<text text-anchor="middle" x="429" y="-29.5" font-family="Helvetica,sans-Serif" font-size="10.00">DriverStation::GetInstance</text>
</a>
</g>
<!-- Node2&#45;&gt;Node3 -->
<g id="edge4" class="edge"><title>Node2&#45;&gt;Node3</title>
<path fill="none" stroke="midnightblue" d="M338.465,-32C346.931,-32 355.496,-32 363.801,-32"/>
<polygon fill="midnightblue" stroke="midnightblue" points="338.212,-28.5001 328.212,-32 338.212,-35.5001 338.212,-28.5001"/>
</g>
<!-- Node4 -->
<g id="node7" class="node"><title>Node4</title>
<a xlink:href="class_motor_safety_helper.html#a951390af947b507a299d1175b7e717cf" target="_top" xlink:title="MotorSafetyHelper::\lCheck">
<polygon fill="white" stroke="black" points="538.5,-39 538.5,-69 641.5,-69 641.5,-39 538.5,-39"/>
<text text-anchor="start" x="546.5" y="-57" font-family="Helvetica,sans-Serif" font-size="10.00">MotorSafetyHelper::</text>
<text text-anchor="middle" x="590" y="-46" font-family="Helvetica,sans-Serif" font-size="10.00">Check</text>
</a>
</g>
<!-- Node3&#45;&gt;Node4 -->
<g id="edge6" class="edge"><title>Node3&#45;&gt;Node4</title>
<path fill="none" stroke="midnightblue" d="M504.258,-42.2747C515.76,-43.8662 527.409,-45.4779 538.235,-46.976"/>
<polygon fill="midnightblue" stroke="midnightblue" points="504.598,-38.7885 494.213,-40.8848 503.639,-45.7225 504.598,-38.7885"/>
</g>
<!-- Node5 -->
<g id="node9" class="node"><title>Node5</title>
<a xlink:href="class_robot_base.html#a3043a0a78f4ec0e1e449eeed0a5db6e5" target="_top" xlink:title="RobotBase::RobotBase">
<polygon fill="white" stroke="black" points="530.5,-0.5 530.5,-19.5 649.5,-19.5 649.5,-0.5 530.5,-0.5"/>
<text text-anchor="middle" x="590" y="-7.5" font-family="Helvetica,sans-Serif" font-size="10.00">RobotBase::RobotBase</text>
</a>
</g>
<!-- Node3&#45;&gt;Node5 -->
<g id="edge8" class="edge"><title>Node3&#45;&gt;Node5</title>
<path fill="none" stroke="midnightblue" d="M504.125,-21.7437C512.959,-20.5215 521.881,-19.2869 530.453,-18.1008"/>
<polygon fill="midnightblue" stroke="midnightblue" points="503.639,-18.2775 494.213,-23.1152 504.598,-25.2115 503.639,-18.2775"/>
</g>
</g>
</svg>
