<?xml version="1.0" encoding="UTF-8" standalone="no"?>
<!DOCTYPE svg PUBLIC "-//W3C//DTD SVG 1.1//EN"
 "http://www.w3.org/Graphics/SVG/1.1/DTD/svg11.dtd">
<!-- Generated by graphviz version 2.28.0 (20110507.0327)
 -->
<!-- Title: Counter::Counter Pages: 1 -->
<svg width="434pt" height="104pt"
 viewBox="0.00 0.00 434.00 104.00" xmlns="http://www.w3.org/2000/svg" xmlns:xlink="http://www.w3.org/1999/xlink">
<g id="graph1" class="graph" transform="scale(1 1) rotate(0) translate(4 100)">
<title>Counter::Counter</title>
<polygon fill="white" stroke="white" points="-4,5 -4,-100 431,-100 431,5 -4,5"/>
<!-- Node1 -->
<g id="node1" class="node"><title>Node1</title>
<polygon fill="#bfbfbf" stroke="black" points="0,-38.5 0,-57.5 90,-57.5 90,-38.5 0,-38.5"/>
<text text-anchor="middle" x="45" y="-45.5" font-family="Helvetica,sans-Serif" font-size="10.00">Counter::Counter</text>
</g>
<!-- Node2 -->
<g id="node3" class="node"><title>Node2</title>
<a xlink:href="class_counter.html#a8abf01f2594d96b85ac3f76ab8f1257e" target="_top" xlink:title="Counter::SetUpSource">
<polygon fill="white" stroke="black" points="139,-76.5 139,-95.5 253,-95.5 253,-76.5 139,-76.5"/>
<text text-anchor="middle" x="196" y="-83.5" font-family="Helvetica,sans-Serif" font-size="10.00">Counter::SetUpSource</text>
</a>
</g>
<!-- Node1&#45;&gt;Node2 -->
<g id="edge2" class="edge"><title>Node1&#45;&gt;Node2</title>
<path fill="none" stroke="midnightblue" d="M83.599,-57.589C103.084,-62.5583 127.075,-68.6767 147.796,-73.9613"/>
<polygon fill="midnightblue" stroke="midnightblue" points="147.117,-77.4001 157.671,-76.4799 148.846,-70.6172 147.117,-77.4001"/>
</g>
<!-- Node4 -->
<g id="node7" class="node"><title>Node4</title>
<a xlink:href="class_analog_trigger.html#a78d5a8093c65e4a204716b8b6af41bfe" target="_top" xlink:title="AnalogTrigger::CreateOutput">
<polygon fill="white" stroke="black" points="126,-38.5 126,-57.5 266,-57.5 266,-38.5 126,-38.5"/>
<text text-anchor="middle" x="196" y="-45.5" font-family="Helvetica,sans-Serif" font-size="10.00">AnalogTrigger::CreateOutput</text>
</a>
</g>
<!-- Node1&#45;&gt;Node4 -->
<g id="edge6" class="edge"><title>Node1&#45;&gt;Node4</title>
<path fill="none" stroke="midnightblue" d="M90.3015,-48C98.3169,-48 106.894,-48 115.56,-48"/>
<polygon fill="midnightblue" stroke="midnightblue" points="115.746,-51.5001 125.746,-48 115.746,-44.5001 115.746,-51.5001"/>
</g>
<!-- Node5 -->
<g id="node10" class="node"><title>Node5</title>
<a xlink:href="class_counter.html#a14f57c89d5e20d5ca590877dcc6be50f" target="_top" xlink:title="Counter::ClearDownSource">
<polygon fill="white" stroke="black" points="129,-0.5 129,-19.5 263,-19.5 263,-0.5 129,-0.5"/>
<text text-anchor="middle" x="196" y="-7.5" font-family="Helvetica,sans-Serif" font-size="10.00">Counter::ClearDownSource</text>
</a>
</g>
<!-- Node1&#45;&gt;Node5 -->
<g id="edge10" class="edge"><title>Node1&#45;&gt;Node5</title>
<path fill="none" stroke="midnightblue" d="M83.599,-38.411C103.084,-33.4417 127.075,-27.3233 147.796,-22.0387"/>
<polygon fill="midnightblue" stroke="midnightblue" points="148.846,-25.3828 157.671,-19.5201 147.117,-18.5999 148.846,-25.3828"/>
</g>
<!-- Node3 -->
<g id="node5" class="node"><title>Node3</title>
<a xlink:href="class_error_base.html#a05790f219c9e436a09752f73f7344024" target="_top" xlink:title="Check if the current error code represents a fatal error. ">
<polygon fill="white" stroke="black" points="302,-38.5 302,-57.5 426,-57.5 426,-38.5 302,-38.5"/>
<text text-anchor="middle" x="364" y="-45.5" font-family="Helvetica,sans-Serif" font-size="10.00">ErrorBase::StatusIsFatal</text>
</a>
</g>
<!-- Node2&#45;&gt;Node3 -->
<g id="edge4" class="edge"><title>Node2&#45;&gt;Node3</title>
<path fill="none" stroke="midnightblue" d="M238.889,-76.411C260.893,-71.3739 288.055,-65.1562 311.352,-59.8229"/>
<polygon fill="midnightblue" stroke="midnightblue" points="312.446,-63.1633 321.412,-57.5201 310.884,-56.3398 312.446,-63.1633"/>
</g>
<!-- Node4&#45;&gt;Node3 -->
<g id="edge8" class="edge"><title>Node4&#45;&gt;Node3</title>
<path fill="none" stroke="midnightblue" d="M266.437,-48C274.775,-48 283.3,-48 291.664,-48"/>
<polygon fill="midnightblue" stroke="midnightblue" points="291.762,-51.5001 301.762,-48 291.762,-44.5001 291.762,-51.5001"/>
</g>
<!-- Node5&#45;&gt;Node3 -->
<g id="edge12" class="edge"><title>Node5&#45;&gt;Node3</title>
<path fill="none" stroke="midnightblue" d="M238.889,-19.589C260.893,-24.6261 288.055,-30.8438 311.352,-36.1771"/>
<polygon fill="midnightblue" stroke="midnightblue" points="310.884,-39.6602 321.412,-38.4799 312.446,-32.8367 310.884,-39.6602"/>
</g>
</g>
</svg>
