<?xml version="1.0" encoding="UTF-8" standalone="no"?>
<!DOCTYPE svg PUBLIC "-//W3C//DTD SVG 1.1//EN"
 "http://www.w3.org/Graphics/SVG/1.1/DTD/svg11.dtd">
<!-- Generated by graphviz version 2.28.0 (20110507.0327)
 -->
<!-- Title: Ultrasonic::Ping Pages: 1 -->
<svg width="394pt" height="66pt"
 viewBox="0.00 0.00 394.00 66.00" xmlns="http://www.w3.org/2000/svg" xmlns:xlink="http://www.w3.org/1999/xlink">
<g id="graph1" class="graph" transform="scale(1 1) rotate(0) translate(4 62)">
<title>Ultrasonic::Ping</title>
<polygon fill="white" stroke="white" points="-4,5 -4,-62 391,-62 391,5 -4,5"/>
<!-- Node1 -->
<g id="node1" class="node"><title>Node1</title>
<polygon fill="#bfbfbf" stroke="black" points="0,-19.5 0,-38.5 86,-38.5 86,-19.5 0,-19.5"/>
<text text-anchor="middle" x="43" y="-26.5" font-family="Helvetica,sans-Serif" font-size="10.00">Ultrasonic::Ping</text>
</g>
<!-- Node2 -->
<g id="node3" class="node"><title>Node2</title>
<a xlink:href="class_counter.html#a006032d39fada9ad683ccc849d2f60d3" target="_top" xlink:title="Counter::Reset">
<polygon fill="white" stroke="black" points="133,-38.5 133,-57.5 215,-57.5 215,-38.5 133,-38.5"/>
<text text-anchor="middle" x="174" y="-45.5" font-family="Helvetica,sans-Serif" font-size="10.00">Counter::Reset</text>
</a>
</g>
<!-- Node1&#45;&gt;Node2 -->
<g id="edge2" class="edge"><title>Node1&#45;&gt;Node2</title>
<path fill="none" stroke="midnightblue" d="M86.2394,-35.2213C97.9503,-36.9462 110.777,-38.8354 122.89,-40.6195"/>
<polygon fill="midnightblue" stroke="midnightblue" points="122.454,-44.093 132.858,-42.0876 123.474,-37.1677 122.454,-44.093"/>
</g>
<!-- Node4 -->
<g id="node7" class="node"><title>Node4</title>
<a xlink:href="class_digital_output.html#a02c70b0de12b60f4d931cdc59e5e3bed" target="_top" xlink:title="DigitalOutput::Pulse">
<polygon fill="white" stroke="black" points="122,-0.5 122,-19.5 226,-19.5 226,-0.5 122,-0.5"/>
<text text-anchor="middle" x="174" y="-7.5" font-family="Helvetica,sans-Serif" font-size="10.00">DigitalOutput::Pulse</text>
</a>
</g>
<!-- Node1&#45;&gt;Node4 -->
<g id="edge6" class="edge"><title>Node1&#45;&gt;Node4</title>
<path fill="none" stroke="midnightblue" d="M86.2394,-22.7787C94.3728,-21.5808 103.044,-20.3035 111.641,-19.0373"/>
<polygon fill="midnightblue" stroke="midnightblue" points="112.279,-22.4812 121.663,-17.5613 111.259,-15.5559 112.279,-22.4812"/>
</g>
<!-- Node3 -->
<g id="node5" class="node"><title>Node3</title>
<a xlink:href="class_error_base.html#a05790f219c9e436a09752f73f7344024" target="_top" xlink:title="Check if the current error code represents a fatal error. ">
<polygon fill="white" stroke="black" points="262,-19.5 262,-38.5 386,-38.5 386,-19.5 262,-19.5"/>
<text text-anchor="middle" x="324" y="-26.5" font-family="Helvetica,sans-Serif" font-size="10.00">ErrorBase::StatusIsFatal</text>
</a>
</g>
<!-- Node2&#45;&gt;Node3 -->
<g id="edge4" class="edge"><title>Node2&#45;&gt;Node3</title>
<path fill="none" stroke="midnightblue" d="M215.051,-42.8583C226.399,-41.4015 239.107,-39.77 251.711,-38.152"/>
<polygon fill="midnightblue" stroke="midnightblue" points="252.295,-41.6058 261.768,-36.8609 251.404,-34.6628 252.295,-41.6058"/>
</g>
<!-- Node4&#45;&gt;Node3 -->
<g id="edge8" class="edge"><title>Node4&#45;&gt;Node3</title>
<path fill="none" stroke="midnightblue" d="M226.348,-16.592C234.569,-17.6474 243.203,-18.7557 251.786,-19.8577"/>
<polygon fill="midnightblue" stroke="midnightblue" points="251.448,-23.3429 261.812,-21.1448 252.339,-16.3999 251.448,-23.3429"/>
</g>
</g>
</svg>
