<?xml version="1.0" encoding="UTF-8" standalone="no"?>
<!DOCTYPE svg PUBLIC "-//W3C//DTD SVG 1.1//EN"
 "http://www.w3.org/Graphics/SVG/1.1/DTD/svg11.dtd">
<!-- Generated by graphviz version 2.28.0 (20110507.0327)
 -->
<!-- Title: DriverStation::IsTest Pages: 1 -->
<svg width="442pt" height="96pt"
 viewBox="0.00 0.00 442.00 96.00" xmlns="http://www.w3.org/2000/svg" xmlns:xlink="http://www.w3.org/1999/xlink">
<g id="graph1" class="graph" transform="scale(1 1) rotate(0) translate(4 92)">
<title>DriverStation::IsTest</title>
<polygon fill="white" stroke="white" points="-4,5 -4,-92 439,-92 439,5 -4,5"/>
<!-- Node1 -->
<g id="node1" class="node"><title>Node1</title>
<polygon fill="#bfbfbf" stroke="black" points="0,-41.5 0,-60.5 104,-60.5 104,-41.5 0,-41.5"/>
<text text-anchor="middle" x="52" y="-48.5" font-family="Helvetica,sans-Serif" font-size="10.00">DriverStation::IsTest</text>
</g>
<!-- Node2 -->
<g id="node3" class="node"><title>Node2</title>
<a xlink:href="class_motor_safety_helper.html#a951390af947b507a299d1175b7e717cf" target="_top" xlink:title="MotorSafetyHelper::\lCheck">
<polygon fill="white" stroke="black" points="140.5,-58 140.5,-88 243.5,-88 243.5,-58 140.5,-58"/>
<text text-anchor="start" x="148.5" y="-76" font-family="Helvetica,sans-Serif" font-size="10.00">MotorSafetyHelper::</text>
<text text-anchor="middle" x="192" y="-65" font-family="Helvetica,sans-Serif" font-size="10.00">Check</text>
</a>
</g>
<!-- Node1&#45;&gt;Node2 -->
<g id="edge2" class="edge"><title>Node1&#45;&gt;Node2</title>
<path fill="none" stroke="midnightblue" d="M114.485,-60.8019C123.179,-62.1879 132.034,-63.5996 140.489,-64.9476"/>
<polygon fill="midnightblue" stroke="midnightblue" points="114.812,-57.31 104.386,-59.192 113.71,-64.2227 114.812,-57.31"/>
</g>
<!-- Node3 -->
<g id="node5" class="node"><title>Node3</title>
<a xlink:href="class_robot_base.html#adfc40b5a85b1747b056c43ec3571db38" target="_top" xlink:title="RobotBase::IsTest">
<polygon fill="white" stroke="black" points="143.5,-19.5 143.5,-38.5 240.5,-38.5 240.5,-19.5 143.5,-19.5"/>
<text text-anchor="middle" x="192" y="-26.5" font-family="Helvetica,sans-Serif" font-size="10.00">RobotBase::IsTest</text>
</a>
</g>
<!-- Node1&#45;&gt;Node3 -->
<g id="edge4" class="edge"><title>Node1&#45;&gt;Node3</title>
<path fill="none" stroke="midnightblue" d="M114.363,-41.2175C124.039,-39.675 133.917,-38.1002 143.224,-36.6164"/>
<polygon fill="midnightblue" stroke="midnightblue" points="113.71,-37.7773 104.386,-42.808 114.812,-44.69 113.71,-37.7773"/>
</g>
<!-- Node4 -->
<g id="node7" class="node"><title>Node4</title>
<a xlink:href="class_iterative_robot.html#ab0af04a781b0390981b9f0dd75358515" target="_top" xlink:title="IterativeRobot::StartCompetition">
<polygon fill="white" stroke="black" points="280,-38.5 280,-57.5 434,-57.5 434,-38.5 280,-38.5"/>
<text text-anchor="middle" x="357" y="-45.5" font-family="Helvetica,sans-Serif" font-size="10.00">IterativeRobot::StartCompetition</text>
</a>
</g>
<!-- Node3&#45;&gt;Node4 -->
<g id="edge6" class="edge"><title>Node3&#45;&gt;Node4</title>
<path fill="none" stroke="midnightblue" d="M250.633,-35.7179C260.088,-36.8201 270.013,-37.977 279.834,-39.1218"/>
<polygon fill="midnightblue" stroke="midnightblue" points="250.923,-32.2281 240.585,-34.5467 250.112,-39.181 250.923,-32.2281"/>
</g>
<!-- Node5 -->
<g id="node9" class="node"><title>Node5</title>
<a xlink:href="class_sample_robot.html#aa9c849963713b505a4e032516c028829" target="_top" xlink:title="SampleRobot::StartCompetition">
<polygon fill="white" stroke="black" points="280,-0.5 280,-19.5 434,-19.5 434,-0.5 280,-0.5"/>
<text text-anchor="middle" x="357" y="-7.5" font-family="Helvetica,sans-Serif" font-size="10.00">SampleRobot::StartCompetition</text>
</a>
</g>
<!-- Node3&#45;&gt;Node5 -->
<g id="edge8" class="edge"><title>Node3&#45;&gt;Node5</title>
<path fill="none" stroke="midnightblue" d="M250.633,-22.2821C260.088,-21.1799 270.013,-20.023 279.834,-18.8782"/>
<polygon fill="midnightblue" stroke="midnightblue" points="250.112,-18.819 240.585,-23.4533 250.923,-25.7719 250.112,-18.819"/>
</g>
</g>
</svg>
