<?xml version="1.0" encoding="UTF-8" standalone="no"?>
<!DOCTYPE svg PUBLIC "-//W3C//DTD SVG 1.1//EN"
 "http://www.w3.org/Graphics/SVG/1.1/DTD/svg11.dtd">
<!-- Generated by graphviz version 2.28.0 (20110507.0327)
 -->
<!-- Title: CANJaguar::SetControlMode Pages: 1 -->
<svg width="488pt" height="180pt"
 viewBox="0.00 0.00 488.00 180.00" xmlns="http://www.w3.org/2000/svg" xmlns:xlink="http://www.w3.org/1999/xlink">
<g id="graph1" class="graph" transform="scale(1 1) rotate(0) translate(4 176)">
<title>CANJaguar::SetControlMode</title>
<polygon fill="white" stroke="white" points="-4,5 -4,-176 485,-176 485,5 -4,5"/>
<!-- Node1 -->
<g id="node1" class="node"><title>Node1</title>
<polygon fill="#bfbfbf" stroke="black" points="0.5,-76.5 0.5,-95.5 141.5,-95.5 141.5,-76.5 0.5,-76.5"/>
<text text-anchor="middle" x="71" y="-83.5" font-family="Helvetica,sans-Serif" font-size="10.00">CANJaguar::SetControlMode</text>
</g>
<!-- Node2 -->
<g id="node3" class="node"><title>Node2</title>
<a xlink:href="class_c_a_n_jaguar.html#ac2d2c69ce26f0ccbf4191349e4eba055" target="_top" xlink:title="CANJaguar::SetPercentMode">
<polygon fill="white" stroke="black" points="179,-152.5 179,-171.5 323,-171.5 323,-152.5 179,-152.5"/>
<text text-anchor="middle" x="251" y="-159.5" font-family="Helvetica,sans-Serif" font-size="10.00">CANJaguar::SetPercentMode</text>
</a>
</g>
<!-- Node1&#45;&gt;Node2 -->
<g id="edge2" class="edge"><title>Node1&#45;&gt;Node2</title>
<path fill="none" stroke="midnightblue" d="M95.8185,-100.916C116.806,-113.538 148.539,-131.38 178,-143 187.26,-146.652 197.464,-149.827 207.205,-152.48"/>
<polygon fill="midnightblue" stroke="midnightblue" points="97.6099,-97.9088 87.2495,-95.6921 93.9662,-103.886 97.6099,-97.9088"/>
</g>
<!-- Node4 -->
<g id="node7" class="node"><title>Node4</title>
<a xlink:href="class_c_a_n_jaguar.html#ae0b07bf7199611ea8e2e04109b08a3ad" target="_top" xlink:title="CANJaguar::SetCurrentMode">
<polygon fill="white" stroke="black" points="180,-114.5 180,-133.5 322,-133.5 322,-114.5 180,-114.5"/>
<text text-anchor="middle" x="251" y="-121.5" font-family="Helvetica,sans-Serif" font-size="10.00">CANJaguar::SetCurrentMode</text>
</a>
</g>
<!-- Node1&#45;&gt;Node4 -->
<g id="edge6" class="edge"><title>Node1&#45;&gt;Node4</title>
<path fill="none" stroke="midnightblue" d="M126.716,-97.681C151.959,-103.07 181.545,-109.386 205.406,-114.48"/>
<polygon fill="midnightblue" stroke="midnightblue" points="127.427,-94.254 116.917,-95.589 125.966,-101.1 127.427,-94.254"/>
</g>
<!-- Node5 -->
<g id="node9" class="node"><title>Node5</title>
<a xlink:href="class_c_a_n_jaguar.html#aa02549873d5551b00d3f2bdb08709e5a" target="_top" xlink:title="CANJaguar::SetSpeedMode">
<polygon fill="white" stroke="black" points="182,-76.5 182,-95.5 320,-95.5 320,-76.5 182,-76.5"/>
<text text-anchor="middle" x="251" y="-83.5" font-family="Helvetica,sans-Serif" font-size="10.00">CANJaguar::SetSpeedMode</text>
</a>
</g>
<!-- Node1&#45;&gt;Node5 -->
<g id="edge8" class="edge"><title>Node1&#45;&gt;Node5</title>
<path fill="none" stroke="midnightblue" d="M151.624,-86C161.737,-86 172.014,-86 181.924,-86"/>
<polygon fill="midnightblue" stroke="midnightblue" points="151.584,-82.5001 141.584,-86 151.584,-89.5001 151.584,-82.5001"/>
</g>
<!-- Node6 -->
<g id="node11" class="node"><title>Node6</title>
<a xlink:href="class_c_a_n_jaguar.html#a870f456a238bb9c55552b94cd86faad0" target="_top" xlink:title="CANJaguar::SetPositionMode">
<polygon fill="white" stroke="black" points="178,-38.5 178,-57.5 324,-57.5 324,-38.5 178,-38.5"/>
<text text-anchor="middle" x="251" y="-45.5" font-family="Helvetica,sans-Serif" font-size="10.00">CANJaguar::SetPositionMode</text>
</a>
</g>
<!-- Node1&#45;&gt;Node6 -->
<g id="edge10" class="edge"><title>Node1&#45;&gt;Node6</title>
<path fill="none" stroke="midnightblue" d="M126.716,-74.319C151.959,-68.9301 181.545,-62.6139 205.406,-57.5201"/>
<polygon fill="midnightblue" stroke="midnightblue" points="125.966,-70.9003 116.917,-76.411 127.427,-77.746 125.966,-70.9003"/>
</g>
<!-- Node7 -->
<g id="node13" class="node"><title>Node7</title>
<a xlink:href="class_c_a_n_jaguar.html#a75fc8ed9ed60a38e2932155f958cdf34" target="_top" xlink:title="CANJaguar::SetVoltageMode">
<polygon fill="white" stroke="black" points="179.5,-0.5 179.5,-19.5 322.5,-19.5 322.5,-0.5 179.5,-0.5"/>
<text text-anchor="middle" x="251" y="-7.5" font-family="Helvetica,sans-Serif" font-size="10.00">CANJaguar::SetVoltageMode</text>
</a>
</g>
<!-- Node1&#45;&gt;Node7 -->
<g id="edge12" class="edge"><title>Node1&#45;&gt;Node7</title>
<path fill="none" stroke="midnightblue" d="M95.8185,-71.0842C116.806,-58.4618 148.539,-40.6203 178,-29 187.26,-25.3475 197.464,-22.1733 207.205,-19.5201"/>
<polygon fill="midnightblue" stroke="midnightblue" points="93.9662,-68.1142 87.2495,-76.3079 97.6099,-74.0912 93.9662,-68.1142"/>
</g>
<!-- Node3 -->
<g id="node5" class="node"><title>Node3</title>
<a xlink:href="class_c_a_n_jaguar.html#aec1593556141870268f5e48e38537390" target="_top" xlink:title="CANJaguar::CANJaguar">
<polygon fill="white" stroke="black" points="360,-152.5 360,-171.5 480,-171.5 480,-152.5 360,-152.5"/>
<text text-anchor="middle" x="420" y="-159.5" font-family="Helvetica,sans-Serif" font-size="10.00">CANJaguar::CANJaguar</text>
</a>
</g>
<!-- Node2&#45;&gt;Node3 -->
<g id="edge4" class="edge"><title>Node2&#45;&gt;Node3</title>
<path fill="none" stroke="midnightblue" d="M333.401,-162C342.373,-162 351.377,-162 359.999,-162"/>
<polygon fill="midnightblue" stroke="midnightblue" points="333.307,-158.5 323.307,-162 333.307,-165.5 333.307,-158.5"/>
</g>
</g>
</svg>
