<?xml version="1.0" encoding="UTF-8" standalone="no"?>
<!DOCTYPE svg PUBLIC "-//W3C//DTD SVG 1.1//EN"
 "http://www.w3.org/Graphics/SVG/1.1/DTD/svg11.dtd">
<!-- Generated by graphviz version 2.28.0 (20110507.0327)
 -->
<!-- Title: Command::IsTimedOut Pages: 1 -->
<svg width="604pt" height="28pt"
 viewBox="0.00 0.00 604.00 28.00" xmlns="http://www.w3.org/2000/svg" xmlns:xlink="http://www.w3.org/1999/xlink">
<g id="graph1" class="graph" transform="scale(1 1) rotate(0) translate(4 24)">
<title>Command::IsTimedOut</title>
<polygon fill="white" stroke="white" points="-4,5 -4,-24 601,-24 601,5 -4,5"/>
<!-- Node1 -->
<g id="node1" class="node"><title>Node1</title>
<polygon fill="#bfbfbf" stroke="black" points="0,-0.5 0,-19.5 116,-19.5 116,-0.5 0,-0.5"/>
<text text-anchor="middle" x="58" y="-7.5" font-family="Helvetica,sans-Serif" font-size="10.00">Command::IsTimedOut</text>
</g>
<!-- Node2 -->
<g id="node3" class="node"><title>Node2</title>
<a xlink:href="class_command.html#a9e73c88648f4bb0f4ea6a4affa72344d" target="_top" xlink:title="Command::TimeSinceInitialized">
<polygon fill="white" stroke="black" points="152.5,-0.5 152.5,-19.5 305.5,-19.5 305.5,-0.5 152.5,-0.5"/>
<text text-anchor="middle" x="229" y="-7.5" font-family="Helvetica,sans-Serif" font-size="10.00">Command::TimeSinceInitialized</text>
</a>
</g>
<!-- Node1&#45;&gt;Node2 -->
<g id="edge2" class="edge"><title>Node1&#45;&gt;Node2</title>
<path fill="none" stroke="midnightblue" d="M116.216,-10C124.544,-10 133.268,-10 142.013,-10"/>
<polygon fill="midnightblue" stroke="midnightblue" points="142.267,-13.5001 152.267,-10 142.267,-6.5001 142.267,-13.5001"/>
</g>
<!-- Node3 -->
<g id="node5" class="node"><title>Node3</title>
<a xlink:href="class_timer.html#a7fa6e6dffec055e5104ccd6bcadec9aa" target="_top" xlink:title="Timer::GetFPGATimestamp">
<polygon fill="white" stroke="black" points="342.5,-0.5 342.5,-19.5 479.5,-19.5 479.5,-0.5 342.5,-0.5"/>
<text text-anchor="middle" x="411" y="-7.5" font-family="Helvetica,sans-Serif" font-size="10.00">Timer::GetFPGATimestamp</text>
</a>
</g>
<!-- Node2&#45;&gt;Node3 -->
<g id="edge4" class="edge"><title>Node2&#45;&gt;Node3</title>
<path fill="none" stroke="midnightblue" d="M305.554,-10C314.336,-10 323.306,-10 332.119,-10"/>
<polygon fill="midnightblue" stroke="midnightblue" points="332.371,-13.5001 342.371,-10 332.371,-6.5001 332.371,-13.5001"/>
</g>
<!-- Node4 -->
<g id="node7" class="node"><title>Node4</title>
<a xlink:href="_utility_8h.html#ababf055d95368485d48bd9a0231853f3" target="_top" xlink:title="GetFPGATime">
<polygon fill="white" stroke="black" points="516,-0.5 516,-19.5 596,-19.5 596,-0.5 516,-0.5"/>
<text text-anchor="middle" x="556" y="-7.5" font-family="Helvetica,sans-Serif" font-size="10.00">GetFPGATime</text>
</a>
</g>
<!-- Node3&#45;&gt;Node4 -->
<g id="edge6" class="edge"><title>Node3&#45;&gt;Node4</title>
<path fill="none" stroke="midnightblue" d="M479.731,-10C488.558,-10 497.463,-10 505.904,-10"/>
<polygon fill="midnightblue" stroke="midnightblue" points="505.934,-13.5001 515.933,-10 505.933,-6.5001 505.934,-13.5001"/>
</g>
</g>
</svg>
