<?xml version="1.0" encoding="UTF-8" standalone="no"?>
<!DOCTYPE svg PUBLIC "-//W3C//DTD SVG 1.1//EN"
 "http://www.w3.org/Graphics/SVG/1.1/DTD/svg11.dtd">
<!-- Generated by graphviz version 2.28.0 (20110507.0327)
 -->
<!-- Title: Timer::HasPeriodPassed Pages: 1 -->
<svg width="522pt" height="28pt"
 viewBox="0.00 0.00 522.00 28.00" xmlns="http://www.w3.org/2000/svg" xmlns:xlink="http://www.w3.org/1999/xlink">
<g id="graph1" class="graph" transform="scale(1 1) rotate(0) translate(4 24)">
<title>Timer::HasPeriodPassed</title>
<polygon fill="white" stroke="white" points="-4,5 -4,-24 519,-24 519,5 -4,5"/>
<!-- Node1 -->
<g id="node1" class="node"><title>Node1</title>
<polygon fill="#bfbfbf" stroke="black" points="0.5,-0.5 0.5,-19.5 125.5,-19.5 125.5,-0.5 0.5,-0.5"/>
<text text-anchor="middle" x="63" y="-7.5" font-family="Helvetica,sans-Serif" font-size="10.00">Timer::HasPeriodPassed</text>
</g>
<!-- Node2 -->
<g id="node3" class="node"><title>Node2</title>
<a xlink:href="class_timer.html#aadc180bcac64bc164f134d9c8076e1a3" target="_top" xlink:title="Timer::Get">
<polygon fill="white" stroke="black" points="162,-0.5 162,-19.5 224,-19.5 224,-0.5 162,-0.5"/>
<text text-anchor="middle" x="193" y="-7.5" font-family="Helvetica,sans-Serif" font-size="10.00">Timer::Get</text>
</a>
</g>
<!-- Node1&#45;&gt;Node2 -->
<g id="edge2" class="edge"><title>Node1&#45;&gt;Node2</title>
<path fill="none" stroke="midnightblue" d="M125.75,-10C134.561,-10 143.428,-10 151.683,-10"/>
<polygon fill="midnightblue" stroke="midnightblue" points="151.762,-13.5001 161.762,-10 151.762,-6.5001 151.762,-13.5001"/>
</g>
<!-- Node3 -->
<g id="node5" class="node"><title>Node3</title>
<a xlink:href="class_timer.html#a7fa6e6dffec055e5104ccd6bcadec9aa" target="_top" xlink:title="Timer::GetFPGATimestamp">
<polygon fill="white" stroke="black" points="260.5,-0.5 260.5,-19.5 397.5,-19.5 397.5,-0.5 260.5,-0.5"/>
<text text-anchor="middle" x="329" y="-7.5" font-family="Helvetica,sans-Serif" font-size="10.00">Timer::GetFPGATimestamp</text>
</a>
</g>
<!-- Node2&#45;&gt;Node3 -->
<g id="edge4" class="edge"><title>Node2&#45;&gt;Node3</title>
<path fill="none" stroke="midnightblue" d="M224.072,-10C232.006,-10 240.943,-10 250.163,-10"/>
<polygon fill="midnightblue" stroke="midnightblue" points="250.242,-13.5001 260.242,-10 250.242,-6.5001 250.242,-13.5001"/>
</g>
<!-- Node4 -->
<g id="node7" class="node"><title>Node4</title>
<a xlink:href="_utility_8h.html#ababf055d95368485d48bd9a0231853f3" target="_top" xlink:title="GetFPGATime">
<polygon fill="white" stroke="black" points="434,-0.5 434,-19.5 514,-19.5 514,-0.5 434,-0.5"/>
<text text-anchor="middle" x="474" y="-7.5" font-family="Helvetica,sans-Serif" font-size="10.00">GetFPGATime</text>
</a>
</g>
<!-- Node3&#45;&gt;Node4 -->
<g id="edge6" class="edge"><title>Node3&#45;&gt;Node4</title>
<path fill="none" stroke="midnightblue" d="M397.731,-10C406.558,-10 415.463,-10 423.904,-10"/>
<polygon fill="midnightblue" stroke="midnightblue" points="423.934,-13.5001 433.933,-10 423.933,-6.5001 423.934,-13.5001"/>
</g>
</g>
</svg>
