<?xml version="1.0" encoding="UTF-8" standalone="no"?>
<!DOCTYPE svg PUBLIC "-//W3C//DTD SVG 1.1//EN"
 "http://www.w3.org/Graphics/SVG/1.1/DTD/svg11.dtd">
<!-- Generated by graphviz version 2.28.0 (20110507.0327)
 -->
<!-- Title: Gyro::GetAngle Pages: 1 -->
<svg width="342pt" height="66pt"
 viewBox="0.00 0.00 342.00 66.00" xmlns="http://www.w3.org/2000/svg" xmlns:xlink="http://www.w3.org/1999/xlink">
<g id="graph1" class="graph" transform="scale(1 1) rotate(0) translate(4 62)">
<title>Gyro::GetAngle</title>
<polygon fill="white" stroke="white" points="-4,5 -4,-62 339,-62 339,5 -4,5"/>
<!-- Node1 -->
<g id="node1" class="node"><title>Node1</title>
<polygon fill="#bfbfbf" stroke="black" points="0,-19.5 0,-38.5 84,-38.5 84,-19.5 0,-19.5"/>
<text text-anchor="middle" x="42" y="-26.5" font-family="Helvetica,sans-Serif" font-size="10.00">Gyro::GetAngle</text>
</g>
<!-- Node2 -->
<g id="node3" class="node"><title>Node2</title>
<a xlink:href="class_gyro.html#aca619c0201c5fb85e2bbaeef0f39e8e6" target="_top" xlink:title="Gyro::PIDGet">
<polygon fill="white" stroke="black" points="131.5,-38.5 131.5,-57.5 206.5,-57.5 206.5,-38.5 131.5,-38.5"/>
<text text-anchor="middle" x="169" y="-45.5" font-family="Helvetica,sans-Serif" font-size="10.00">Gyro::PIDGet</text>
</a>
</g>
<!-- Node1&#45;&gt;Node2 -->
<g id="edge2" class="edge"><title>Node1&#45;&gt;Node2</title>
<path fill="none" stroke="midnightblue" d="M94.492,-36.8268C106.873,-38.7087 119.85,-40.6812 131.394,-42.436"/>
<polygon fill="midnightblue" stroke="midnightblue" points="94.6885,-33.3165 84.2761,-35.274 93.6366,-40.237 94.6885,-33.3165"/>
</g>
<!-- Node3 -->
<g id="node5" class="node"><title>Node3</title>
<a xlink:href="class_gyro.html#ad0113532a29eccdbe514eaae2002012c" target="_top" xlink:title="Gyro::UpdateTable">
<polygon fill="white" stroke="black" points="120,-0.5 120,-19.5 218,-19.5 218,-0.5 120,-0.5"/>
<text text-anchor="middle" x="169" y="-7.5" font-family="Helvetica,sans-Serif" font-size="10.00">Gyro::UpdateTable</text>
</a>
</g>
<!-- Node1&#45;&gt;Node3 -->
<g id="edge4" class="edge"><title>Node1&#45;&gt;Node3</title>
<path fill="none" stroke="midnightblue" d="M94.367,-21.1922C102.788,-19.9122 111.488,-18.5898 119.828,-17.3221"/>
<polygon fill="midnightblue" stroke="midnightblue" points="93.6366,-17.763 84.2761,-22.726 94.6885,-24.6835 93.6366,-17.763"/>
</g>
<!-- Node4 -->
<g id="node7" class="node"><title>Node4</title>
<a xlink:href="class_gyro.html#ae00778b633c9c62f6a54039f544125d3" target="_top" xlink:title="Gyro::InitTable">
<polygon fill="white" stroke="black" points="254,-0.5 254,-19.5 334,-19.5 334,-0.5 254,-0.5"/>
<text text-anchor="middle" x="294" y="-7.5" font-family="Helvetica,sans-Serif" font-size="10.00">Gyro::InitTable</text>
</a>
</g>
<!-- Node3&#45;&gt;Node4 -->
<g id="edge6" class="edge"><title>Node3&#45;&gt;Node4</title>
<path fill="none" stroke="midnightblue" d="M228.376,-10C237.061,-10 245.83,-10 253.987,-10"/>
<polygon fill="midnightblue" stroke="midnightblue" points="228.26,-6.5001 218.26,-10 228.26,-13.5001 228.26,-6.5001"/>
</g>
</g>
</svg>
