<?xml version="1.0" encoding="UTF-8" standalone="no"?>
<!DOCTYPE svg PUBLIC "-//W3C//DTD SVG 1.1//EN"
 "http://www.w3.org/Graphics/SVG/1.1/DTD/svg11.dtd">
<!-- Generated by graphviz version 2.28.0 (20110507.0327)
 -->
<!-- Title: PWM::InitTable Pages: 1 -->
<svg width="636pt" height="47pt"
 viewBox="0.00 0.00 636.00 47.00" xmlns="http://www.w3.org/2000/svg" xmlns:xlink="http://www.w3.org/1999/xlink">
<g id="graph1" class="graph" transform="scale(1 1) rotate(0) translate(4 43)">
<title>PWM::InitTable</title>
<polygon fill="white" stroke="white" points="-4,5 -4,-43 633,-43 633,5 -4,5"/>
<!-- Node1 -->
<g id="node1" class="node"><title>Node1</title>
<polygon fill="#bfbfbf" stroke="black" points="0.5,-19.5 0.5,-38.5 83.5,-38.5 83.5,-19.5 0.5,-19.5"/>
<text text-anchor="middle" x="42" y="-26.5" font-family="Helvetica,sans-Serif" font-size="10.00">PWM::InitTable</text>
</g>
<!-- Node2 -->
<g id="node3" class="node"><title>Node2</title>
<a xlink:href="class_p_w_m.html#a963e92607792f13d6a4d05e3ccf04cbd" target="_top" xlink:title="PWM::UpdateTable">
<polygon fill="white" stroke="black" points="120.5,-19.5 120.5,-38.5 221.5,-38.5 221.5,-19.5 120.5,-19.5"/>
<text text-anchor="middle" x="171" y="-26.5" font-family="Helvetica,sans-Serif" font-size="10.00">PWM::UpdateTable</text>
</a>
</g>
<!-- Node1&#45;&gt;Node2 -->
<g id="edge2" class="edge"><title>Node1&#45;&gt;Node2</title>
<path fill="none" stroke="midnightblue" d="M83.5328,-29C91.9717,-29 101.036,-29 110.007,-29"/>
<polygon fill="midnightblue" stroke="midnightblue" points="110.057,-32.5001 120.057,-29 110.057,-25.5001 110.057,-32.5001"/>
</g>
<!-- Node3 -->
<g id="node5" class="node"><title>Node3</title>
<a xlink:href="class_p_w_m.html#a42b209cbe7e63732918cbbcb55bfaac7" target="_top" xlink:title="PWM::GetSpeed">
<polygon fill="white" stroke="black" points="258.5,-19.5 258.5,-38.5 349.5,-38.5 349.5,-19.5 258.5,-19.5"/>
<text text-anchor="middle" x="304" y="-26.5" font-family="Helvetica,sans-Serif" font-size="10.00">PWM::GetSpeed</text>
</a>
</g>
<!-- Node2&#45;&gt;Node3 -->
<g id="edge4" class="edge"><title>Node2&#45;&gt;Node3</title>
<path fill="none" stroke="midnightblue" d="M221.525,-29C230.17,-29 239.21,-29 247.992,-29"/>
<polygon fill="midnightblue" stroke="midnightblue" points="248.143,-32.5001 258.143,-29 248.143,-25.5001 248.143,-32.5001"/>
</g>
<!-- Node4 -->
<g id="node7" class="node"><title>Node4</title>
<a xlink:href="class_error_base.html#a05790f219c9e436a09752f73f7344024" target="_top" xlink:title="Check if the current error code represents a fatal error. ">
<polygon fill="white" stroke="black" points="504,-19.5 504,-38.5 628,-38.5 628,-19.5 504,-19.5"/>
<text text-anchor="middle" x="566" y="-26.5" font-family="Helvetica,sans-Serif" font-size="10.00">ErrorBase::StatusIsFatal</text>
</a>
</g>
<!-- Node3&#45;&gt;Node4 -->
<g id="edge6" class="edge"><title>Node3&#45;&gt;Node4</title>
<path fill="none" stroke="midnightblue" d="M349.696,-29C389.245,-29 447.655,-29 493.661,-29"/>
<polygon fill="midnightblue" stroke="midnightblue" points="493.873,-32.5001 503.873,-29 493.873,-25.5001 493.873,-32.5001"/>
</g>
<!-- Node5 -->
<g id="node9" class="node"><title>Node5</title>
<a xlink:href="class_p_w_m.html#afe21d7814cd2c51c0652fbf9f58af958" target="_top" xlink:title="PWM::GetRaw">
<polygon fill="white" stroke="black" points="386,-0.5 386,-19.5 468,-19.5 468,-0.5 386,-0.5"/>
<text text-anchor="middle" x="427" y="-7.5" font-family="Helvetica,sans-Serif" font-size="10.00">PWM::GetRaw</text>
</a>
</g>
<!-- Node3&#45;&gt;Node5 -->
<g id="edge8" class="edge"><title>Node3&#45;&gt;Node5</title>
<path fill="none" stroke="midnightblue" d="M349.712,-21.9791C358.228,-20.6418 367.193,-19.2341 375.865,-17.8724"/>
<polygon fill="midnightblue" stroke="midnightblue" points="376.53,-21.3109 385.866,-16.302 375.444,-14.3957 376.53,-21.3109"/>
</g>
<!-- Node5&#45;&gt;Node4 -->
<g id="edge10" class="edge"><title>Node5&#45;&gt;Node4</title>
<path fill="none" stroke="midnightblue" d="M468.364,-15.5979C476.362,-16.7072 484.981,-17.9025 493.66,-19.1062"/>
<polygon fill="midnightblue" stroke="midnightblue" points="493.458,-22.6115 503.844,-20.5185 494.419,-15.6779 493.458,-22.6115"/>
</g>
</g>
</svg>
