<?xml version="1.0" encoding="UTF-8" standalone="no"?>
<!DOCTYPE svg PUBLIC "-//W3C//DTD SVG 1.1//EN"
 "http://www.w3.org/Graphics/SVG/1.1/DTD/svg11.dtd">
<!-- Generated by graphviz version 2.28.0 (20110507.0327)
 -->
<!-- Title: CANTalon::ConfigLimitMode Pages: 1 -->
<svg width="334pt" height="87pt"
 viewBox="0.00 0.00 334.00 87.00" xmlns="http://www.w3.org/2000/svg" xmlns:xlink="http://www.w3.org/1999/xlink">
<g id="graph1" class="graph" transform="scale(1 1) rotate(0) translate(4 83)">
<title>CANTalon::ConfigLimitMode</title>
<polygon fill="white" stroke="white" points="-4,5 -4,-83 331,-83 331,5 -4,5"/>
<!-- Node1 -->
<g id="node1" class="node"><title>Node1</title>
<polygon fill="#bfbfbf" stroke="black" points="0,-29.5 0,-48.5 138,-48.5 138,-29.5 0,-29.5"/>
<text text-anchor="middle" x="69" y="-36.5" font-family="Helvetica,sans-Serif" font-size="10.00">CANTalon::ConfigLimitMode</text>
</g>
<!-- Node2 -->
<g id="node3" class="node"><title>Node2</title>
<a xlink:href="class_c_a_n_talon.html#a3e5d464de61b9005f33edd0b9db714ec" target="_top" xlink:title="CANTalon::ConfigSoftPosition\lLimits">
<polygon fill="white" stroke="black" points="177,-49 177,-79 323,-79 323,-49 177,-49"/>
<text text-anchor="start" x="185" y="-67" font-family="Helvetica,sans-Serif" font-size="10.00">CANTalon::ConfigSoftPosition</text>
<text text-anchor="middle" x="250" y="-56" font-family="Helvetica,sans-Serif" font-size="10.00">Limits</text>
</a>
</g>
<!-- Node1&#45;&gt;Node2 -->
<g id="edge2" class="edge"><title>Node1&#45;&gt;Node2</title>
<path fill="none" stroke="midnightblue" d="M148.368,-49.9452C157.833,-51.2672 167.468,-52.6128 176.839,-53.9216"/>
<polygon fill="midnightblue" stroke="midnightblue" points="148.571,-46.4397 138.183,-48.5227 147.603,-53.3724 148.571,-46.4397"/>
</g>
<!-- Node3 -->
<g id="node5" class="node"><title>Node3</title>
<a xlink:href="class_c_a_n_talon.html#a5fda4cb5db6d3b4b400222f549d91621" target="_top" xlink:title="CANTalon::DisableSoftPosition\lLimits">
<polygon fill="white" stroke="black" points="174.5,-0 174.5,-30 325.5,-30 325.5,-0 174.5,-0"/>
<text text-anchor="start" x="182.5" y="-18" font-family="Helvetica,sans-Serif" font-size="10.00">CANTalon::DisableSoftPosition</text>
<text text-anchor="middle" x="250" y="-7" font-family="Helvetica,sans-Serif" font-size="10.00">Limits</text>
</a>
</g>
<!-- Node1&#45;&gt;Node3 -->
<g id="edge4" class="edge"><title>Node1&#45;&gt;Node3</title>
<path fill="none" stroke="midnightblue" d="M148.292,-28.5027C156.977,-27.3383 165.804,-26.1548 174.441,-24.9968"/>
<polygon fill="midnightblue" stroke="midnightblue" points="147.629,-25.0602 138.183,-29.8582 148.559,-31.9981 147.629,-25.0602"/>
</g>
</g>
</svg>
