<?xml version="1.0" encoding="UTF-8" standalone="no"?>
<!DOCTYPE svg PUBLIC "-//W3C//DTD SVG 1.1//EN"
 "http://www.w3.org/Graphics/SVG/1.1/DTD/svg11.dtd">
<!-- Generated by graphviz version 2.28.0 (20110507.0327)
 -->
<!-- Title: Servo Pages: 1 -->
<svg width="300pt" height="338pt"
 viewBox="0.00 0.00 300.00 338.00" xmlns="http://www.w3.org/2000/svg" xmlns:xlink="http://www.w3.org/1999/xlink">
<g id="graph1" class="graph" transform="scale(1 1) rotate(0) translate(4 334)">
<title>Servo</title>
<polygon fill="white" stroke="white" points="-4,5 -4,-334 297,-334 297,5 -4,5"/>
<!-- Node1 -->
<g id="node1" class="node"><title>Node1</title>
<polygon fill="#bfbfbf" stroke="black" points="142.5,-0.5 142.5,-19.5 183.5,-19.5 183.5,-0.5 142.5,-0.5"/>
<text text-anchor="middle" x="163" y="-7.5" font-family="Helvetica,sans-Serif" font-size="10.00">Servo</text>
</g>
<!-- Node2 -->
<g id="node2" class="node"><title>Node2</title>
<a xlink:href="class_safe_p_w_m.html" target="_top" xlink:title="SafePWM">
<polygon fill="white" stroke="black" points="132.5,-58.5 132.5,-77.5 193.5,-77.5 193.5,-58.5 132.5,-58.5"/>
<text text-anchor="middle" x="163" y="-65.5" font-family="Helvetica,sans-Serif" font-size="10.00">SafePWM</text>
</a>
</g>
<!-- Node2&#45;&gt;Node1 -->
<g id="edge2" class="edge"><title>Node2&#45;&gt;Node1</title>
<path fill="none" stroke="midnightblue" d="M163,-47.953C163,-38.2875 163,-27.0312 163,-19.5052"/>
<polygon fill="midnightblue" stroke="midnightblue" points="159.5,-48.25 163,-58.25 166.5,-48.25 159.5,-48.25"/>
</g>
<!-- Node3 -->
<g id="node4" class="node"><title>Node3</title>
<a xlink:href="class_p_w_m.html" target="_top" xlink:title="PWM">
<polygon fill="white" stroke="black" points="106.5,-116.5 106.5,-135.5 147.5,-135.5 147.5,-116.5 106.5,-116.5"/>
<text text-anchor="middle" x="127" y="-123.5" font-family="Helvetica,sans-Serif" font-size="10.00">PWM</text>
</a>
</g>
<!-- Node3&#45;&gt;Node2 -->
<g id="edge4" class="edge"><title>Node3&#45;&gt;Node2</title>
<path fill="none" stroke="midnightblue" d="M132.105,-107.204C137.646,-97.2734 145.747,-85.3584 152.523,-77.5052"/>
<polygon fill="midnightblue" stroke="midnightblue" points="128.923,-105.743 127.563,-116.25 135.178,-108.884 128.923,-105.743"/>
</g>
<!-- Node3&#45;&gt;Node2 -->
<g id="edge26" class="edge"><title>Node3&#45;&gt;Node2</title>
<path fill="none" stroke="midnightblue" d="M144.097,-108.129C151.548,-98.022 159.117,-85.6038 162.542,-77.5052"/>
<polygon fill="midnightblue" stroke="midnightblue" points="141.136,-106.232 137.688,-116.25 146.631,-110.569 141.136,-106.232"/>
</g>
<!-- Node4 -->
<g id="node6" class="node"><title>Node4</title>
<a xlink:href="class_sensor_base.html" target="_top" xlink:title="SensorBase">
<polygon fill="white" stroke="black" points="0,-174.5 0,-193.5 70,-193.5 70,-174.5 0,-174.5"/>
<text text-anchor="middle" x="35" y="-181.5" font-family="Helvetica,sans-Serif" font-size="10.00">SensorBase</text>
</a>
</g>
<!-- Node4&#45;&gt;Node3 -->
<g id="edge6" class="edge"><title>Node4&#45;&gt;Node3</title>
<path fill="none" stroke="midnightblue" d="M52.3837,-168.789C68.2866,-158.317 91.4379,-144.415 107.869,-135.585"/>
<polygon fill="midnightblue" stroke="midnightblue" points="50.2787,-165.988 43.9635,-174.495 54.2053,-171.783 50.2787,-165.988"/>
</g>
<!-- Node4&#45;&gt;Node3 -->
<g id="edge18" class="edge"><title>Node4&#45;&gt;Node3</title>
<path fill="none" stroke="midnightblue" d="M62.7615,-169.662C81.5438,-159.101 104.99,-144.662 117.923,-135.585"/>
<polygon fill="midnightblue" stroke="midnightblue" points="61.0547,-166.606 53.9822,-174.495 64.4304,-172.738 61.0547,-166.606"/>
</g>
<!-- Node5 -->
<g id="node8" class="node"><title>Node5</title>
<a xlink:href="class_error_base.html" target="_top" xlink:title="ErrorBase">
<polygon fill="white" stroke="black" points="5,-232.5 5,-251.5 65,-251.5 65,-232.5 5,-232.5"/>
<text text-anchor="middle" x="35" y="-239.5" font-family="Helvetica,sans-Serif" font-size="10.00">ErrorBase</text>
</a>
</g>
<!-- Node5&#45;&gt;Node4 -->
<g id="edge8" class="edge"><title>Node5&#45;&gt;Node4</title>
<path fill="none" stroke="midnightblue" d="M35,-221.953C35,-212.287 35,-201.031 35,-193.505"/>
<polygon fill="midnightblue" stroke="midnightblue" points="31.5001,-222.25 35,-232.25 38.5001,-222.25 31.5001,-222.25"/>
</g>
<!-- Node6 -->
<g id="node10" class="node"><title>Node6</title>
<a xlink:href="class_error.html" target="_top" xlink:title="Error">
<polygon fill="white" stroke="black" points="16,-310.5 16,-329.5 54,-329.5 54,-310.5 16,-310.5"/>
<text text-anchor="middle" x="35" y="-317.5" font-family="Helvetica,sans-Serif" font-size="10.00">Error</text>
</a>
</g>
<!-- Node6&#45;&gt;Node5 -->
<g id="edge10" class="edge"><title>Node6&#45;&gt;Node5</title>
<path fill="none" stroke="#9a32cd" stroke-dasharray="5,2" d="M35,-300.224C35,-284.697 35,-263.358 35,-251.616"/>
<polygon fill="#9a32cd" stroke="#9a32cd" points="31.5001,-300.282 35,-310.282 38.5001,-300.282 31.5001,-300.282"/>
<text text-anchor="middle" x="62.5" y="-284" font-family="Helvetica,sans-Serif" font-size="10.00"> _globalError</text>
<text text-anchor="middle" x="62.5" y="-273" font-family="Helvetica,sans-Serif" font-size="10.00">m_error</text>
</g>
<!-- Node7 -->
<g id="node12" class="node"><title>Node7</title>
<polygon fill="white" stroke="#bfbfbf" points="88.5,-174.5 88.5,-193.5 165.5,-193.5 165.5,-174.5 88.5,-174.5"/>
<text text-anchor="middle" x="127" y="-181.5" font-family="Helvetica,sans-Serif" font-size="10.00">ITableListener</text>
</g>
<!-- Node7&#45;&gt;Node3 -->
<g id="edge12" class="edge"><title>Node7&#45;&gt;Node3</title>
<path fill="none" stroke="midnightblue" d="M120.59,-164.268C119.85,-154.533 120.317,-143.113 121.991,-135.505"/>
<polygon fill="midnightblue" stroke="midnightblue" points="117.131,-164.808 121.938,-174.25 124.068,-163.872 117.131,-164.808"/>
</g>
<!-- Node7&#45;&gt;Node3 -->
<g id="edge20" class="edge"><title>Node7&#45;&gt;Node3</title>
<path fill="none" stroke="midnightblue" d="M133.41,-164.268C134.15,-154.533 133.683,-143.113 132.009,-135.505"/>
<polygon fill="midnightblue" stroke="midnightblue" points="129.932,-163.872 132.063,-174.25 136.869,-164.808 129.932,-163.872"/>
</g>
<!-- Node8 -->
<g id="node14" class="node"><title>Node8</title>
<a xlink:href="class_live_window_sendable.html" target="_top" xlink:title="LiveWindowSendable">
<polygon fill="white" stroke="black" points="184,-174.5 184,-193.5 292,-193.5 292,-174.5 184,-174.5"/>
<text text-anchor="middle" x="238" y="-181.5" font-family="Helvetica,sans-Serif" font-size="10.00">LiveWindowSendable</text>
</a>
</g>
<!-- Node8&#45;&gt;Node3 -->
<g id="edge22" class="edge"><title>Node8&#45;&gt;Node3</title>
<path fill="none" stroke="midnightblue" d="M206.927,-170.234C184.382,-159.627 155.294,-144.827 138.99,-135.585"/>
<polygon fill="midnightblue" stroke="midnightblue" points="205.587,-173.471 216.132,-174.495 208.527,-167.118 205.587,-173.471"/>
</g>
<!-- Node8&#45;&gt;Node3 -->
<g id="edge14" class="edge"><title>Node8&#45;&gt;Node3</title>
<path fill="none" stroke="midnightblue" d="M217.244,-169.571C197.346,-158.803 167.783,-144.049 147.839,-135.039"/>
<polygon fill="midnightblue" stroke="midnightblue" points="215.706,-172.72 226.151,-174.495 219.092,-166.594 215.706,-172.72"/>
</g>
<!-- Node9 -->
<g id="node16" class="node"><title>Node9</title>
<a xlink:href="class_sendable.html" target="_top" xlink:title="Sendable">
<polygon fill="white" stroke="black" points="209.5,-232.5 209.5,-251.5 266.5,-251.5 266.5,-232.5 209.5,-232.5"/>
<text text-anchor="middle" x="238" y="-239.5" font-family="Helvetica,sans-Serif" font-size="10.00">Sendable</text>
</a>
</g>
<!-- Node9&#45;&gt;Node8 -->
<g id="edge16" class="edge"><title>Node9&#45;&gt;Node8</title>
<path fill="none" stroke="midnightblue" d="M238,-221.953C238,-212.287 238,-201.031 238,-193.505"/>
<polygon fill="midnightblue" stroke="midnightblue" points="234.5,-222.25 238,-232.25 241.5,-222.25 234.5,-222.25"/>
</g>
<!-- Node10 -->
<g id="node21" class="node"><title>Node10</title>
<a xlink:href="class_motor_safety.html" target="_top" xlink:title="MotorSafety">
<polygon fill="white" stroke="black" points="165.5,-116.5 165.5,-135.5 234.5,-135.5 234.5,-116.5 165.5,-116.5"/>
<text text-anchor="middle" x="200" y="-123.5" font-family="Helvetica,sans-Serif" font-size="10.00">MotorSafety</text>
</a>
</g>
<!-- Node10&#45;&gt;Node2 -->
<g id="edge24" class="edge"><title>Node10&#45;&gt;Node2</title>
<path fill="none" stroke="midnightblue" d="M182.833,-108.435C175.128,-98.2733 167.216,-85.6856 163.61,-77.5052"/>
<polygon fill="midnightblue" stroke="midnightblue" points="180.145,-110.678 189.156,-116.25 185.587,-106.275 180.145,-110.678"/>
</g>
<!-- Node10&#45;&gt;Node2 -->
<g id="edge28" class="edge"><title>Node10&#45;&gt;Node2</title>
<path fill="none" stroke="midnightblue" d="M194.577,-107.204C188.859,-97.2734 180.545,-85.3584 173.629,-77.5052"/>
<polygon fill="midnightblue" stroke="midnightblue" points="191.562,-108.993 199.281,-116.25 197.772,-105.763 191.562,-108.993"/>
</g>
</g>
</svg>
