<?xml version="1.0" encoding="UTF-8" standalone="no"?>
<!DOCTYPE svg PUBLIC "-//W3C//DTD SVG 1.1//EN"
 "http://www.w3.org/Graphics/SVG/1.1/DTD/svg11.dtd">
<!-- Generated by graphviz version 2.28.0 (20110507.0327)
 -->
<!-- Title: PIDController::Disable Pages: 1 -->
<svg width="276pt" height="66pt"
 viewBox="0.00 0.00 276.00 66.00" xmlns="http://www.w3.org/2000/svg" xmlns:xlink="http://www.w3.org/1999/xlink">
<g id="graph1" class="graph" transform="scale(1 1) rotate(0) translate(4 62)">
<title>PIDController::Disable</title>
<polygon fill="white" stroke="white" points="-4,5 -4,-62 273,-62 273,5 -4,5"/>
<!-- Node1 -->
<g id="node1" class="node"><title>Node1</title>
<polygon fill="#bfbfbf" stroke="black" points="0,-19.5 0,-38.5 112,-38.5 112,-19.5 0,-19.5"/>
<text text-anchor="middle" x="56" y="-26.5" font-family="Helvetica,sans-Serif" font-size="10.00">PIDController::Disable</text>
</g>
<!-- Node2 -->
<g id="node3" class="node"><title>Node2</title>
<a xlink:href="class_p_i_d_subsystem.html#ae1e15d6e0dbbb3fa7368beba4866e64e" target="_top" xlink:title="PIDSubsystem::Disable">
<polygon fill="white" stroke="black" points="148,-38.5 148,-57.5 268,-57.5 268,-38.5 148,-38.5"/>
<text text-anchor="middle" x="208" y="-45.5" font-family="Helvetica,sans-Serif" font-size="10.00">PIDSubsystem::Disable</text>
</a>
</g>
<!-- Node1&#45;&gt;Node2 -->
<g id="edge2" class="edge"><title>Node1&#45;&gt;Node2</title>
<path fill="none" stroke="midnightblue" d="M122.018,-37.2356C130.643,-38.3282 139.448,-39.4434 147.965,-40.5222"/>
<polygon fill="midnightblue" stroke="midnightblue" points="122.363,-33.7515 112.003,-35.967 121.484,-40.696 122.363,-33.7515"/>
</g>
<!-- Node3 -->
<g id="node5" class="node"><title>Node3</title>
<a xlink:href="class_p_i_d_controller.html#a7c4b30b19bbcf226f5c6de8df23ec9e9" target="_top" xlink:title="PIDController::Reset">
<polygon fill="white" stroke="black" points="155.5,-0.5 155.5,-19.5 260.5,-19.5 260.5,-0.5 155.5,-0.5"/>
<text text-anchor="middle" x="208" y="-7.5" font-family="Helvetica,sans-Serif" font-size="10.00">PIDController::Reset</text>
</a>
</g>
<!-- Node1&#45;&gt;Node3 -->
<g id="edge4" class="edge"><title>Node1&#45;&gt;Node3</title>
<path fill="none" stroke="midnightblue" d="M122.138,-20.7491C133.297,-19.3357 144.753,-17.8846 155.493,-16.5242"/>
<polygon fill="midnightblue" stroke="midnightblue" points="121.484,-17.304 112.003,-22.033 122.363,-24.2485 121.484,-17.304"/>
</g>
</g>
</svg>
