<?xml version="1.0" encoding="UTF-8" standalone="no"?>
<!DOCTYPE svg PUBLIC "-//W3C//DTD SVG 1.1//EN"
 "http://www.w3.org/Graphics/SVG/1.1/DTD/svg11.dtd">
<!-- Generated by graphviz version 2.28.0 (20110507.0327)
 -->
<!-- Title: CANTalon Pages: 1 -->
<svg width="279pt" height="196pt"
 viewBox="0.00 0.00 279.00 196.00" xmlns="http://www.w3.org/2000/svg" xmlns:xlink="http://www.w3.org/1999/xlink">
<g id="graph1" class="graph" transform="scale(1 1) rotate(0) translate(4 192)">
<title>CANTalon</title>
<polygon fill="white" stroke="white" points="-4,5 -4,-192 276,-192 276,5 -4,5"/>
<!-- Node1 -->
<g id="node1" class="node"><title>Node1</title>
<polygon fill="#bfbfbf" stroke="black" points="110,-0.5 110,-19.5 170,-19.5 170,-0.5 110,-0.5"/>
<text text-anchor="middle" x="140" y="-7.5" font-family="Helvetica,sans-Serif" font-size="10.00">CANTalon</text>
</g>
<!-- Node2 -->
<g id="node2" class="node"><title>Node2</title>
<a xlink:href="class_motor_safety.html" target="_top" xlink:title="MotorSafety">
<polygon fill="white" stroke="black" points="-0.5,-56.5 -0.5,-75.5 68.5,-75.5 68.5,-56.5 -0.5,-56.5"/>
<text text-anchor="middle" x="34" y="-63.5" font-family="Helvetica,sans-Serif" font-size="10.00">MotorSafety</text>
</a>
</g>
<!-- Node2&#45;&gt;Node1 -->
<g id="edge2" class="edge"><title>Node2&#45;&gt;Node1</title>
<path fill="none" stroke="midnightblue" d="M60.0562,-51.7261C79.6838,-41.7271 106.028,-28.3065 123.012,-19.6545"/>
<polygon fill="midnightblue" stroke="midnightblue" points="58.3524,-48.666 51.0307,-56.324 61.5299,-54.9033 58.3524,-48.666"/>
</g>
<!-- Node3 -->
<g id="node4" class="node"><title>Node3</title>
<a xlink:href="class_c_a_n_speed_controller.html" target="_top" xlink:title="CANSpeedController">
<polygon fill="white" stroke="black" points="87,-56.5 87,-75.5 193,-75.5 193,-56.5 87,-56.5"/>
<text text-anchor="middle" x="140" y="-63.5" font-family="Helvetica,sans-Serif" font-size="10.00">CANSpeedController</text>
</a>
</g>
<!-- Node3&#45;&gt;Node1 -->
<g id="edge4" class="edge"><title>Node3&#45;&gt;Node1</title>
<path fill="none" stroke="midnightblue" d="M140,-45.8045C140,-36.9102 140,-26.7798 140,-19.7511"/>
<polygon fill="midnightblue" stroke="midnightblue" points="136.5,-46.083 140,-56.083 143.5,-46.083 136.5,-46.083"/>
</g>
<!-- Node4 -->
<g id="node6" class="node"><title>Node4</title>
<a xlink:href="class_speed_controller.html" target="_top" xlink:title="SpeedController">
<polygon fill="white" stroke="black" points="97,-112.5 97,-131.5 183,-131.5 183,-112.5 97,-112.5"/>
<text text-anchor="middle" x="140" y="-119.5" font-family="Helvetica,sans-Serif" font-size="10.00">SpeedController</text>
</a>
</g>
<!-- Node4&#45;&gt;Node3 -->
<g id="edge6" class="edge"><title>Node4&#45;&gt;Node3</title>
<path fill="none" stroke="midnightblue" d="M140,-101.805C140,-92.9102 140,-82.7798 140,-75.7511"/>
<polygon fill="midnightblue" stroke="midnightblue" points="136.5,-102.083 140,-112.083 143.5,-102.083 136.5,-102.083"/>
</g>
<!-- Node5 -->
<g id="node8" class="node"><title>Node5</title>
<a xlink:href="class_p_i_d_output.html" target="_top" xlink:title="PIDOutput">
<polygon fill="white" stroke="black" points="109,-168.5 109,-187.5 171,-187.5 171,-168.5 109,-168.5"/>
<text text-anchor="middle" x="140" y="-175.5" font-family="Helvetica,sans-Serif" font-size="10.00">PIDOutput</text>
</a>
</g>
<!-- Node5&#45;&gt;Node4 -->
<g id="edge8" class="edge"><title>Node5&#45;&gt;Node4</title>
<path fill="none" stroke="midnightblue" d="M133.528,-158.101C132.896,-149.136 133.343,-138.858 134.869,-131.751"/>
<polygon fill="midnightblue" stroke="midnightblue" points="130.066,-158.622 134.834,-168.083 137.007,-157.713 130.066,-158.622"/>
</g>
<!-- Node5&#45;&gt;Node4 -->
<g id="edge10" class="edge"><title>Node5&#45;&gt;Node4</title>
<path fill="none" stroke="midnightblue" d="M146.472,-158.101C147.104,-149.136 146.657,-138.858 145.131,-131.751"/>
<polygon fill="midnightblue" stroke="midnightblue" points="142.993,-157.713 145.166,-168.083 149.934,-158.622 142.993,-157.713"/>
</g>
<!-- Node6 -->
<g id="node11" class="node"><title>Node6</title>
<a xlink:href="class_error_base.html" target="_top" xlink:title="ErrorBase">
<polygon fill="white" stroke="black" points="211,-56.5 211,-75.5 271,-75.5 271,-56.5 211,-56.5"/>
<text text-anchor="middle" x="241" y="-63.5" font-family="Helvetica,sans-Serif" font-size="10.00">ErrorBase</text>
</a>
</g>
<!-- Node6&#45;&gt;Node1 -->
<g id="edge12" class="edge"><title>Node6&#45;&gt;Node1</title>
<path fill="none" stroke="midnightblue" d="M215.917,-51.5895C197.243,-41.6052 172.296,-28.2672 156.187,-19.6545"/>
<polygon fill="midnightblue" stroke="midnightblue" points="214.304,-54.6955 224.773,-56.324 217.604,-48.5224 214.304,-54.6955"/>
</g>
</g>
</svg>
