<?xml version="1.0" encoding="UTF-8" standalone="no"?>
<!DOCTYPE svg PUBLIC "-//W3C//DTD SVG 1.1//EN"
 "http://www.w3.org/Graphics/SVG/1.1/DTD/svg11.dtd">
<!-- Generated by graphviz version 2.28.0 (20110507.0327)
 -->
<!-- Title: DigitalOutput::~DigitalOutput Pages: 1 -->
<svg width="482pt" height="47pt"
 viewBox="0.00 0.00 482.00 47.00" xmlns="http://www.w3.org/2000/svg" xmlns:xlink="http://www.w3.org/1999/xlink">
<g id="graph1" class="graph" transform="scale(1 1) rotate(0) translate(4 43)">
<title>DigitalOutput::~DigitalOutput</title>
<polygon fill="white" stroke="white" points="-4,5 -4,-43 479,-43 479,5 -4,5"/>
<!-- Node1 -->
<g id="node1" class="node"><title>Node1</title>
<polygon fill="#bfbfbf" stroke="black" points="0.5,-19.5 0.5,-38.5 141.5,-38.5 141.5,-19.5 0.5,-19.5"/>
<text text-anchor="middle" x="71" y="-26.5" font-family="Helvetica,sans-Serif" font-size="10.00">DigitalOutput::~DigitalOutput</text>
</g>
<!-- Node2 -->
<g id="node3" class="node"><title>Node2</title>
<a xlink:href="class_error_base.html#a05790f219c9e436a09752f73f7344024" target="_top" xlink:title="Check if the current error code represents a fatal error. ">
<polygon fill="white" stroke="black" points="350,-19.5 350,-38.5 474,-38.5 474,-19.5 350,-19.5"/>
<text text-anchor="middle" x="412" y="-26.5" font-family="Helvetica,sans-Serif" font-size="10.00">ErrorBase::StatusIsFatal</text>
</a>
</g>
<!-- Node1&#45;&gt;Node2 -->
<g id="edge2" class="edge"><title>Node1&#45;&gt;Node2</title>
<path fill="none" stroke="midnightblue" d="M141.83,-29C199.609,-29 281.353,-29 339.569,-29"/>
<polygon fill="midnightblue" stroke="midnightblue" points="339.791,-32.5001 349.791,-29 339.791,-25.5001 339.791,-32.5001"/>
</g>
<!-- Node3 -->
<g id="node5" class="node"><title>Node3</title>
<a xlink:href="class_digital_output.html#aa50319d3ffed532b1adc2243e7d2cdea" target="_top" xlink:title="DigitalOutput::DisablePWM">
<polygon fill="white" stroke="black" points="178,-0.5 178,-19.5 314,-19.5 314,-0.5 178,-0.5"/>
<text text-anchor="middle" x="246" y="-7.5" font-family="Helvetica,sans-Serif" font-size="10.00">DigitalOutput::DisablePWM</text>
</a>
</g>
<!-- Node1&#45;&gt;Node3 -->
<g id="edge4" class="edge"><title>Node1&#45;&gt;Node3</title>
<path fill="none" stroke="midnightblue" d="M141.867,-21.3267C150.427,-20.3866 159.213,-19.4217 167.872,-18.4707"/>
<polygon fill="midnightblue" stroke="midnightblue" points="168.4,-21.9339 177.958,-17.363 167.636,-14.9757 168.4,-21.9339"/>
</g>
<!-- Node3&#45;&gt;Node2 -->
<g id="edge6" class="edge"><title>Node3&#45;&gt;Node2</title>
<path fill="none" stroke="midnightblue" d="M314.178,-17.7828C322.698,-18.7699 331.438,-19.7825 340.015,-20.7761"/>
<polygon fill="midnightblue" stroke="midnightblue" points="339.649,-24.257 349.985,-21.9312 340.455,-17.3035 339.649,-24.257"/>
</g>
</g>
</svg>
