<?xml version="1.0" encoding="UTF-8" standalone="no"?>
<!DOCTYPE svg PUBLIC "-//W3C//DTD SVG 1.1//EN"
 "http://www.w3.org/Graphics/SVG/1.1/DTD/svg11.dtd">
<!-- Generated by graphviz version 2.28.0 (20110507.0327)
 -->
<!-- Title: ErrorBase Pages: 1 -->
<svg width="362pt" height="1130pt"
 viewBox="0.00 0.00 362.00 1130.00" xmlns="http://www.w3.org/2000/svg" xmlns:xlink="http://www.w3.org/1999/xlink">
<g id="graph1" class="graph" transform="scale(1 1) rotate(0) translate(4 1126)">
<title>ErrorBase</title>
<polygon fill="white" stroke="white" points="-4,5 -4,-1126 359,-1126 359,5 -4,5"/>
<!-- Node1 -->
<g id="node1" class="node"><title>Node1</title>
<polygon fill="#bfbfbf" stroke="black" points="0,-665.5 0,-684.5 60,-684.5 60,-665.5 0,-665.5"/>
<text text-anchor="middle" x="30" y="-672.5" font-family="Helvetica,sans-Serif" font-size="10.00">ErrorBase</text>
</g>
<!-- Node2 -->
<g id="node3" class="node"><title>Node2</title>
<a xlink:href="class_axis_camera.html" target="_top" xlink:title="AxisCamera">
<polygon fill="white" stroke="black" points="110,-1026.5 110,-1045.5 180,-1045.5 180,-1026.5 110,-1026.5"/>
<text text-anchor="middle" x="145" y="-1033.5" font-family="Helvetica,sans-Serif" font-size="10.00">AxisCamera</text>
</a>
</g>
<!-- Node1&#45;&gt;Node2 -->
<g id="edge2" class="edge"><title>Node1&#45;&gt;Node2</title>
<path fill="none" stroke="midnightblue" d="M32.307,-695.006C36.9561,-760.478 54.6753,-967.017 96,-1017 99.6549,-1021.42 104.482,-1024.82 109.668,-1027.43"/>
<polygon fill="midnightblue" stroke="midnightblue" points="35.7834,-694.54 31.6087,-684.802 28.7998,-695.018 35.7834,-694.54"/>
</g>
<!-- Node3 -->
<g id="node5" class="node"><title>Node3</title>
<a xlink:href="class_camera_server.html" target="_top" xlink:title="CameraServer">
<polygon fill="white" stroke="black" points="106.5,-988.5 106.5,-1007.5 183.5,-1007.5 183.5,-988.5 106.5,-988.5"/>
<text text-anchor="middle" x="145" y="-995.5" font-family="Helvetica,sans-Serif" font-size="10.00">CameraServer</text>
</a>
</g>
<!-- Node1&#45;&gt;Node3 -->
<g id="edge4" class="edge"><title>Node1&#45;&gt;Node3</title>
<path fill="none" stroke="midnightblue" d="M32.7992,-694.714C38.66,-754.97 58.9908,-935.263 96,-979 99.242,-982.831 103.362,-985.896 107.822,-988.345"/>
<polygon fill="midnightblue" stroke="midnightblue" points="36.2714,-694.254 31.8457,-684.628 29.3025,-694.913 36.2714,-694.254"/>
</g>
<!-- Node4 -->
<g id="node7" class="node"><title>Node4</title>
<a xlink:href="class_c_a_n_jaguar.html" target="_top" xlink:title="CANJaguar">
<polygon fill="white" stroke="black" points="112.5,-950.5 112.5,-969.5 177.5,-969.5 177.5,-950.5 112.5,-950.5"/>
<text text-anchor="middle" x="145" y="-957.5" font-family="Helvetica,sans-Serif" font-size="10.00">CANJaguar</text>
</a>
</g>
<!-- Node1&#45;&gt;Node4 -->
<g id="edge6" class="edge"><title>Node1&#45;&gt;Node4</title>
<path fill="none" stroke="midnightblue" d="M33.4551,-694.72C40.6653,-749.769 63.3438,-903.524 96,-941 100.357,-946 106.206,-949.697 112.32,-952.427"/>
<polygon fill="midnightblue" stroke="midnightblue" points="36.8946,-694.023 32.1533,-684.548 29.9512,-694.911 36.8946,-694.023"/>
</g>
<!-- Node5 -->
<g id="node9" class="node"><title>Node5</title>
<a xlink:href="class_c_a_n_talon.html" target="_top" xlink:title="CANTalon">
<polygon fill="white" stroke="black" points="115,-912.5 115,-931.5 175,-931.5 175,-912.5 115,-912.5"/>
<text text-anchor="middle" x="145" y="-919.5" font-family="Helvetica,sans-Serif" font-size="10.00">CANTalon</text>
</a>
</g>
<!-- Node1&#45;&gt;Node5 -->
<g id="edge8" class="edge"><title>Node1&#45;&gt;Node5</title>
<path fill="none" stroke="midnightblue" d="M31.0523,-694.716C32.2238,-737.981 40.9688,-842.22 96,-903 101.053,-908.581 107.958,-912.545 114.955,-915.352"/>
<polygon fill="midnightblue" stroke="midnightblue" points="34.5509,-694.595 30.892,-684.652 27.5518,-694.707 34.5509,-694.595"/>
</g>
<!-- Node6 -->
<g id="node11" class="node"><title>Node6</title>
<a xlink:href="class_command.html" target="_top" xlink:title="Command">
<polygon fill="white" stroke="black" points="114.5,-874.5 114.5,-893.5 175.5,-893.5 175.5,-874.5 114.5,-874.5"/>
<text text-anchor="middle" x="145" y="-881.5" font-family="Helvetica,sans-Serif" font-size="10.00">Command</text>
</a>
</g>
<!-- Node1&#45;&gt;Node6 -->
<g id="edge10" class="edge"><title>Node1&#45;&gt;Node6</title>
<path fill="none" stroke="midnightblue" d="M39.4854,-693.981C51.3338,-720.089 73.8773,-768.352 96,-808 109.687,-832.53 127.857,-860.138 137.439,-874.368"/>
<polygon fill="midnightblue" stroke="midnightblue" points="42.5265,-692.211 35.2261,-684.533 36.1448,-695.087 42.5265,-692.211"/>
</g>
<!-- Node15 -->
<g id="node29" class="node"><title>Node15</title>
<a xlink:href="class_image_base.html" target="_top" xlink:title="ImageBase">
<polygon fill="white" stroke="black" points="112.5,-779.5 112.5,-798.5 177.5,-798.5 177.5,-779.5 112.5,-779.5"/>
<text text-anchor="middle" x="145" y="-786.5" font-family="Helvetica,sans-Serif" font-size="10.00">ImageBase</text>
</a>
</g>
<!-- Node1&#45;&gt;Node15 -->
<g id="edge28" class="edge"><title>Node1&#45;&gt;Node15</title>
<path fill="none" stroke="midnightblue" d="M39.7033,-694.019C50.2722,-715.208 69.9646,-749.211 96,-770 100.832,-773.859 106.547,-777.018 112.317,-779.574"/>
<polygon fill="midnightblue" stroke="midnightblue" points="42.7422,-692.262 35.26,-684.761 36.4314,-695.291 42.7422,-692.262"/>
</g>
<!-- Node18 -->
<g id="node35" class="node"><title>Node18</title>
<a xlink:href="class_joystick.html" target="_top" xlink:title="Joystick">
<polygon fill="white" stroke="black" points="118.5,-741.5 118.5,-760.5 171.5,-760.5 171.5,-741.5 118.5,-741.5"/>
<text text-anchor="middle" x="145" y="-748.5" font-family="Helvetica,sans-Serif" font-size="10.00">Joystick</text>
</a>
</g>
<!-- Node1&#45;&gt;Node18 -->
<g id="edge34" class="edge"><title>Node1&#45;&gt;Node18</title>
<path fill="none" stroke="midnightblue" d="M54.6701,-691.14C66.3562,-701.328 81.1187,-713.909 96,-723 108.237,-730.476 123.928,-736.029 133.975,-741.339"/>
<polygon fill="midnightblue" stroke="midnightblue" points="56.9435,-688.479 47.1075,-684.541 52.3412,-693.753 56.9435,-688.479"/>
</g>
<!-- Node1&#45;&gt;Node18 -->
<g id="edge36" class="edge"><title>Node1&#45;&gt;Node18</title>
<path fill="none" stroke="midnightblue" d="M41.6757,-693.043C53.8427,-708.017 74.8007,-728.049 96,-741 102.883,-745.205 110.859,-748.802 118.309,-751.307"/>
<polygon fill="midnightblue" stroke="midnightblue" points="44.382,-690.817 35.5924,-684.902 38.7746,-695.008 44.382,-690.817"/>
</g>
<!-- Node19 -->
<g id="node38" class="node"><title>Node19</title>
<a xlink:href="class_motor_safety_helper.html" target="_top" xlink:title="MotorSafetyHelper">
<polygon fill="white" stroke="black" points="96.5,-703.5 96.5,-722.5 193.5,-722.5 193.5,-703.5 96.5,-703.5"/>
<text text-anchor="middle" x="145" y="-710.5" font-family="Helvetica,sans-Serif" font-size="10.00">MotorSafetyHelper</text>
</a>
</g>
<!-- Node1&#45;&gt;Node19 -->
<g id="edge38" class="edge"><title>Node1&#45;&gt;Node19</title>
<path fill="none" stroke="midnightblue" d="M69.8683,-681.622C90.4454,-687.817 114.49,-696.486 129.484,-703.419"/>
<polygon fill="midnightblue" stroke="midnightblue" points="70.679,-678.213 60.1003,-678.798 68.7348,-684.937 70.679,-678.213"/>
</g>
<!-- Node1&#45;&gt;Node19 -->
<g id="edge40" class="edge"><title>Node1&#45;&gt;Node19</title>
<path fill="none" stroke="midnightblue" d="M55.1152,-688.757C67.1658,-693.737 82.1839,-699.129 96.4258,-703.676"/>
<polygon fill="midnightblue" stroke="midnightblue" points="56.3393,-685.473 45.7728,-684.699 53.5504,-691.893 56.3393,-685.473"/>
</g>
<!-- Node20 -->
<g id="node41" class="node"><title>Node20</title>
<a xlink:href="class_notifier.html" target="_top" xlink:title="Notifier">
<polygon fill="white" stroke="black" points="121.5,-665.5 121.5,-684.5 168.5,-684.5 168.5,-665.5 121.5,-665.5"/>
<text text-anchor="middle" x="145" y="-672.5" font-family="Helvetica,sans-Serif" font-size="10.00">Notifier</text>
</a>
</g>
<!-- Node1&#45;&gt;Node20 -->
<g id="edge42" class="edge"><title>Node1&#45;&gt;Node20</title>
<path fill="none" stroke="midnightblue" d="M70.3708,-675C87.4462,-675 106.827,-675 121.417,-675"/>
<polygon fill="midnightblue" stroke="midnightblue" points="70.1003,-671.5 60.1003,-675 70.1003,-678.5 70.1003,-671.5"/>
</g>
<!-- Node21 -->
<g id="node43" class="node"><title>Node21</title>
<a xlink:href="class_preferences.html" target="_top" xlink:title="Preferences">
<polygon fill="white" stroke="black" points="111,-627.5 111,-646.5 179,-646.5 179,-627.5 111,-627.5"/>
<text text-anchor="middle" x="145" y="-634.5" font-family="Helvetica,sans-Serif" font-size="10.00">Preferences</text>
</a>
</g>
<!-- Node1&#45;&gt;Node21 -->
<g id="edge44" class="edge"><title>Node1&#45;&gt;Node21</title>
<path fill="none" stroke="midnightblue" d="M69.1402,-662.174C84.3025,-657.075 101.444,-651.311 115.494,-646.586"/>
<polygon fill="midnightblue" stroke="midnightblue" points="67.8775,-658.906 59.5147,-665.411 70.1087,-665.541 67.8775,-658.906"/>
</g>
<!-- Node22 -->
<g id="node45" class="node"><title>Node22</title>
<a xlink:href="class_resource.html" target="_top" xlink:title="Resource">
<polygon fill="white" stroke="black" points="116,-589.5 116,-608.5 174,-608.5 174,-589.5 116,-589.5"/>
<text text-anchor="middle" x="145" y="-596.5" font-family="Helvetica,sans-Serif" font-size="10.00">Resource</text>
</a>
</g>
<!-- Node1&#45;&gt;Node22 -->
<g id="edge46" class="edge"><title>Node1&#45;&gt;Node22</title>
<path fill="none" stroke="midnightblue" d="M47.1769,-657.958C59.6165,-645.602 77.7185,-629.169 96,-618 102.118,-614.262 109.1,-611.005 115.809,-608.293"/>
<polygon fill="midnightblue" stroke="midnightblue" points="44.3853,-655.806 39.8751,-665.393 49.3793,-660.711 44.3853,-655.806"/>
</g>
<!-- Node23 -->
<g id="node47" class="node"><title>Node23</title>
<a xlink:href="class_robot_drive.html" target="_top" xlink:title="RobotDrive">
<polygon fill="white" stroke="black" points="113.5,-551.5 113.5,-570.5 176.5,-570.5 176.5,-551.5 113.5,-551.5"/>
<text text-anchor="middle" x="145" y="-558.5" font-family="Helvetica,sans-Serif" font-size="10.00">RobotDrive</text>
</a>
</g>
<!-- Node1&#45;&gt;Node23 -->
<g id="edge48" class="edge"><title>Node1&#45;&gt;Node23</title>
<path fill="none" stroke="midnightblue" d="M37.0117,-655.741C46.6905,-632.183 67.5611,-593.709 96,-571 101.113,-566.918 107.213,-563.618 113.321,-561.196"/>
<polygon fill="midnightblue" stroke="midnightblue" points="33.6209,-654.813 33.3653,-665.405 40.1703,-657.284 33.6209,-654.813"/>
</g>
<!-- Node1&#45;&gt;Node23 -->
<g id="edge50" class="edge"><title>Node1&#45;&gt;Node23</title>
<path fill="none" stroke="midnightblue" d="M43.0304,-656.653C54.1484,-637.326 72.4876,-607.775 96,-589 106.786,-580.388 121.965,-575.261 132.349,-570.584"/>
<polygon fill="midnightblue" stroke="midnightblue" points="39.9172,-655.047 38.0235,-665.471 46.0045,-658.503 39.9172,-655.047"/>
</g>
<!-- Node24 -->
<g id="node50" class="node"><title>Node24</title>
<a xlink:href="class_scheduler.html" target="_top" xlink:title="Scheduler">
<polygon fill="white" stroke="black" points="115,-513.5 115,-532.5 175,-532.5 175,-513.5 115,-513.5"/>
<text text-anchor="middle" x="145" y="-520.5" font-family="Helvetica,sans-Serif" font-size="10.00">Scheduler</text>
</a>
</g>
<!-- Node1&#45;&gt;Node24 -->
<g id="edge52" class="edge"><title>Node1&#45;&gt;Node24</title>
<path fill="none" stroke="midnightblue" d="M35.7942,-655.146C43.6842,-626.462 62.0257,-573.433 96,-542 101.329,-537.07 108.091,-533.357 114.846,-530.586"/>
<polygon fill="midnightblue" stroke="midnightblue" points="32.316,-654.615 33.1926,-665.174 39.0917,-656.373 32.316,-654.615"/>
</g>
<!-- Node25 -->
<g id="node52" class="node"><title>Node25</title>
<a xlink:href="class_sensor_base.html" target="_top" xlink:title="SensorBase">
<polygon fill="white" stroke="black" points="110,-418.5 110,-437.5 180,-437.5 180,-418.5 110,-418.5"/>
<text text-anchor="middle" x="145" y="-425.5" font-family="Helvetica,sans-Serif" font-size="10.00">SensorBase</text>
</a>
</g>
<!-- Node1&#45;&gt;Node25 -->
<g id="edge54" class="edge"><title>Node1&#45;&gt;Node25</title>
<path fill="none" stroke="midnightblue" d="M36.9902,-655.522C47.2349,-623.215 69.592,-556.864 96,-504 108.414,-479.15 126.771,-452.114 136.805,-437.946"/>
<polygon fill="midnightblue" stroke="midnightblue" points="33.5292,-654.863 33.8849,-665.452 40.2101,-656.953 33.5292,-654.863"/>
</g>
<!-- Node46 -->
<g id="node101" class="node"><title>Node46</title>
<a xlink:href="class_serial_port.html" target="_top" xlink:title="SerialPort">
<polygon fill="white" stroke="black" points="115.5,-380.5 115.5,-399.5 174.5,-399.5 174.5,-380.5 115.5,-380.5"/>
<text text-anchor="middle" x="145" y="-387.5" font-family="Helvetica,sans-Serif" font-size="10.00">SerialPort</text>
</a>
</g>
<!-- Node1&#45;&gt;Node46 -->
<g id="edge110" class="edge"><title>Node1&#45;&gt;Node46</title>
<path fill="none" stroke="midnightblue" d="M33.4551,-655.28C40.6653,-600.231 63.3438,-446.476 96,-409 101.064,-403.189 108.142,-399.138 115.31,-396.32"/>
<polygon fill="midnightblue" stroke="midnightblue" points="29.9512,-655.089 32.1533,-665.452 36.8946,-655.977 29.9512,-655.089"/>
</g>
<!-- Node47 -->
<g id="node103" class="node"><title>Node47</title>
<a xlink:href="class_subsystem.html" target="_top" xlink:title="Subsystem">
<polygon fill="white" stroke="red" points="112,-342.5 112,-361.5 178,-361.5 178,-342.5 112,-342.5"/>
<text text-anchor="middle" x="145" y="-349.5" font-family="Helvetica,sans-Serif" font-size="10.00">Subsystem</text>
</a>
</g>
<!-- Node1&#45;&gt;Node47 -->
<g id="edge112" class="edge"><title>Node1&#45;&gt;Node47</title>
<path fill="none" stroke="midnightblue" d="M32.7992,-655.286C38.66,-595.03 58.9908,-414.737 96,-371 100.168,-366.074 105.789,-362.416 111.715,-359.702"/>
<polygon fill="midnightblue" stroke="midnightblue" points="29.3025,-655.087 31.8457,-665.372 36.2714,-655.746 29.3025,-655.087"/>
</g>
<!-- Node48 -->
<g id="node105" class="node"><title>Node48</title>
<a xlink:href="class_task.html" target="_top" xlink:title="Task">
<polygon fill="white" stroke="black" points="126,-304.5 126,-323.5 164,-323.5 164,-304.5 126,-304.5"/>
<text text-anchor="middle" x="145" y="-311.5" font-family="Helvetica,sans-Serif" font-size="10.00">Task</text>
</a>
</g>
<!-- Node1&#45;&gt;Node48 -->
<g id="edge114" class="edge"><title>Node1&#45;&gt;Node48</title>
<path fill="none" stroke="midnightblue" d="M32.307,-654.994C36.9561,-589.522 54.6753,-382.983 96,-333 103.424,-324.02 115.686,-319.261 125.958,-316.751"/>
<polygon fill="midnightblue" stroke="midnightblue" points="28.7998,-654.982 31.6087,-665.198 35.7834,-655.46 28.7998,-654.982"/>
</g>
<!-- Node49 -->
<g id="node107" class="node"><title>Node49</title>
<a xlink:href="class_u_s_b_camera.html" target="_top" xlink:title="USBCamera">
<polygon fill="white" stroke="black" points="109.5,-266.5 109.5,-285.5 180.5,-285.5 180.5,-266.5 109.5,-266.5"/>
<text text-anchor="middle" x="145" y="-273.5" font-family="Helvetica,sans-Serif" font-size="10.00">USBCamera</text>
</a>
</g>
<!-- Node1&#45;&gt;Node49 -->
<g id="edge116" class="edge"><title>Node1&#45;&gt;Node49</title>
<path fill="none" stroke="midnightblue" d="M31.8839,-655.082C35.3654,-585.056 50.2603,-351.372 96,-295 99.5011,-290.685 104.122,-287.346 109.114,-284.762"/>
<polygon fill="midnightblue" stroke="midnightblue" points="28.382,-655.042 31.4052,-665.197 35.3741,-655.373 28.382,-655.042"/>
</g>
<!-- Node7 -->
<g id="node13" class="node"><title>Node7</title>
<a xlink:href="class_command_group.html" target="_top" xlink:title="CommandGroup">
<polygon fill="white" stroke="black" points="248.5,-1102.5 248.5,-1121.5 335.5,-1121.5 335.5,-1102.5 248.5,-1102.5"/>
<text text-anchor="middle" x="292" y="-1109.5" font-family="Helvetica,sans-Serif" font-size="10.00">CommandGroup</text>
</a>
</g>
<!-- Node6&#45;&gt;Node7 -->
<g id="edge12" class="edge"><title>Node6&#45;&gt;Node7</title>
<path fill="none" stroke="midnightblue" d="M184.872,-895.132C188.304,-897.306 191.44,-899.902 194,-903 248.746,-969.255 172.81,-1028.84 230,-1093 234.945,-1098.55 241.48,-1102.49 248.434,-1105.29"/>
<polygon fill="midnightblue" stroke="midnightblue" points="186.391,-891.977 175.893,-890.549 183.209,-898.212 186.391,-891.977"/>
</g>
<!-- Node8 -->
<g id="node15" class="node"><title>Node8</title>
<a xlink:href="class_mock_command.html" target="_top" xlink:title="MockCommand">
<polygon fill="white" stroke="red" points="249.5,-1064.5 249.5,-1083.5 334.5,-1083.5 334.5,-1064.5 249.5,-1064.5"/>
<text text-anchor="middle" x="292" y="-1071.5" font-family="Helvetica,sans-Serif" font-size="10.00">MockCommand</text>
</a>
</g>
<!-- Node6&#45;&gt;Node8 -->
<g id="edge14" class="edge"><title>Node6&#45;&gt;Node8</title>
<path fill="none" stroke="midnightblue" d="M184.73,-895.252C188.189,-897.403 191.37,-899.961 194,-903 239.423,-955.503 182.642,-1004.24 230,-1055 235.221,-1060.6 242.059,-1064.56 249.263,-1067.36"/>
<polygon fill="midnightblue" stroke="midnightblue" points="186.22,-892.083 175.716,-890.698 183.064,-898.331 186.22,-892.083"/>
</g>
<!-- Node9 -->
<g id="node17" class="node"><title>Node9</title>
<a xlink:href="class_p_i_d_command.html" target="_top" xlink:title="PIDCommand">
<polygon fill="white" stroke="black" points="253.5,-1026.5 253.5,-1045.5 330.5,-1045.5 330.5,-1026.5 253.5,-1026.5"/>
<text text-anchor="middle" x="292" y="-1033.5" font-family="Helvetica,sans-Serif" font-size="10.00">PIDCommand</text>
</a>
</g>
<!-- Node6&#45;&gt;Node9 -->
<g id="edge16" class="edge"><title>Node6&#45;&gt;Node9</title>
<path fill="none" stroke="midnightblue" d="M185.054,-895.787C188.347,-897.827 191.404,-900.213 194,-903 230.213,-941.881 192.356,-979.503 230,-1017 236.366,-1023.34 244.81,-1027.57 253.38,-1030.39"/>
<polygon fill="midnightblue" stroke="midnightblue" points="186.438,-892.565 175.938,-891.154 183.267,-898.805 186.438,-892.565"/>
</g>
<!-- Node10 -->
<g id="node19" class="node"><title>Node10</title>
<a xlink:href="class_print_command.html" target="_top" xlink:title="PrintCommand">
<polygon fill="white" stroke="black" points="251.5,-988.5 251.5,-1007.5 332.5,-1007.5 332.5,-988.5 251.5,-988.5"/>
<text text-anchor="middle" x="292" y="-995.5" font-family="Helvetica,sans-Serif" font-size="10.00">PrintCommand</text>
</a>
</g>
<!-- Node6&#45;&gt;Node10 -->
<g id="edge18" class="edge"><title>Node6&#45;&gt;Node10</title>
<path fill="none" stroke="midnightblue" d="M184.922,-896.318C188.199,-898.247 191.289,-900.461 194,-903 221.279,-928.549 201.782,-954.491 230,-979 236.113,-984.31 243.7,-988.136 251.423,-990.894"/>
<polygon fill="midnightblue" stroke="midnightblue" points="186.459,-893.173 175.947,-891.852 183.341,-899.44 186.459,-893.173"/>
</g>
<!-- Node11 -->
<g id="node21" class="node"><title>Node11</title>
<a xlink:href="class_start_command.html" target="_top" xlink:title="StartCommand">
<polygon fill="white" stroke="black" points="251,-950.5 251,-969.5 333,-969.5 333,-950.5 251,-950.5"/>
<text text-anchor="middle" x="292" y="-957.5" font-family="Helvetica,sans-Serif" font-size="10.00">StartCommand</text>
</a>
</g>
<!-- Node6&#45;&gt;Node11 -->
<g id="edge20" class="edge"><title>Node6&#45;&gt;Node11</title>
<path fill="none" stroke="midnightblue" d="M184.838,-897.632C188.03,-899.27 191.129,-901.058 194,-903 213.271,-916.033 210.254,-928.698 230,-941 236.402,-944.989 243.707,-948.199 250.983,-950.763"/>
<polygon fill="midnightblue" stroke="midnightblue" points="186.25,-894.429 175.704,-893.416 183.316,-900.785 186.25,-894.429"/>
</g>
<!-- Node12 -->
<g id="node23" class="node"><title>Node12</title>
<a xlink:href="class_wait_command.html" target="_top" xlink:title="WaitCommand">
<polygon fill="white" stroke="black" points="251.5,-912.5 251.5,-931.5 332.5,-931.5 332.5,-912.5 251.5,-912.5"/>
<text text-anchor="middle" x="292" y="-919.5" font-family="Helvetica,sans-Serif" font-size="10.00">WaitCommand</text>
</a>
</g>
<!-- Node6&#45;&gt;Node12 -->
<g id="edge22" class="edge"><title>Node6&#45;&gt;Node12</title>
<path fill="none" stroke="midnightblue" d="M185.527,-894.359C207.097,-900.012 233.615,-906.961 254.665,-912.478"/>
<polygon fill="midnightblue" stroke="midnightblue" points="186.253,-890.931 175.693,-891.782 184.479,-897.702 186.253,-890.931"/>
</g>
<!-- Node13 -->
<g id="node25" class="node"><title>Node13</title>
<a xlink:href="class_wait_for_children.html" target="_top" xlink:title="WaitForChildren">
<polygon fill="white" stroke="black" points="249,-874.5 249,-893.5 335,-893.5 335,-874.5 249,-874.5"/>
<text text-anchor="middle" x="292" y="-881.5" font-family="Helvetica,sans-Serif" font-size="10.00">WaitForChildren</text>
</a>
</g>
<!-- Node6&#45;&gt;Node13 -->
<g id="edge24" class="edge"><title>Node6&#45;&gt;Node13</title>
<path fill="none" stroke="midnightblue" d="M185.83,-884C205.44,-884 229.081,-884 248.979,-884"/>
<polygon fill="midnightblue" stroke="midnightblue" points="185.693,-880.5 175.693,-884 185.693,-887.5 185.693,-880.5"/>
</g>
<!-- Node14 -->
<g id="node27" class="node"><title>Node14</title>
<a xlink:href="class_wait_until_command.html" target="_top" xlink:title="WaitUntilCommand">
<polygon fill="white" stroke="black" points="241.5,-836.5 241.5,-855.5 342.5,-855.5 342.5,-836.5 241.5,-836.5"/>
<text text-anchor="middle" x="292" y="-843.5" font-family="Helvetica,sans-Serif" font-size="10.00">WaitUntilCommand</text>
</a>
</g>
<!-- Node6&#45;&gt;Node14 -->
<g id="edge26" class="edge"><title>Node6&#45;&gt;Node14</title>
<path fill="none" stroke="midnightblue" d="M185.527,-873.641C207.097,-867.988 233.615,-861.039 254.665,-855.522"/>
<polygon fill="midnightblue" stroke="midnightblue" points="184.479,-870.298 175.693,-876.218 186.253,-877.069 184.479,-870.298"/>
</g>
<!-- Node16 -->
<g id="node31" class="node"><title>Node16</title>
<a xlink:href="class_color_image.html" target="_top" xlink:title="ColorImage">
<polygon fill="white" stroke="red" points="259.5,-798.5 259.5,-817.5 324.5,-817.5 324.5,-798.5 259.5,-798.5"/>
<text text-anchor="middle" x="292" y="-805.5" font-family="Helvetica,sans-Serif" font-size="10.00">ColorImage</text>
</a>
</g>
<!-- Node15&#45;&gt;Node16 -->
<g id="edge30" class="edge"><title>Node15&#45;&gt;Node16</title>
<path fill="none" stroke="midnightblue" d="M187.884,-794.488C210.631,-797.469 238.304,-801.095 259.253,-803.84"/>
<polygon fill="midnightblue" stroke="midnightblue" points="188.191,-790.999 177.821,-793.17 187.281,-797.939 188.191,-790.999"/>
</g>
<!-- Node17 -->
<g id="node33" class="node"><title>Node17</title>
<a xlink:href="class_mono_image.html" target="_top" xlink:title="MonoImage">
<polygon fill="white" stroke="red" points="258.5,-760.5 258.5,-779.5 325.5,-779.5 325.5,-760.5 258.5,-760.5"/>
<text text-anchor="middle" x="292" y="-767.5" font-family="Helvetica,sans-Serif" font-size="10.00">MonoImage</text>
</a>
</g>
<!-- Node15&#45;&gt;Node17 -->
<g id="edge32" class="edge"><title>Node15&#45;&gt;Node17</title>
<path fill="none" stroke="midnightblue" d="M187.74,-783.531C210.153,-780.594 237.38,-777.026 258.249,-774.292"/>
<polygon fill="midnightblue" stroke="midnightblue" points="187.281,-780.061 177.821,-784.83 188.191,-787.001 187.281,-780.061"/>
</g>
<!-- Node26 -->
<g id="node54" class="node"><title>Node26</title>
<a xlink:href="class_a_d_x_l345___s_p_i.html" target="_top" xlink:title="ADXL345_SPI">
<polygon fill="white" stroke="black" points="253.5,-722.5 253.5,-741.5 330.5,-741.5 330.5,-722.5 253.5,-722.5"/>
<text text-anchor="middle" x="292" y="-729.5" font-family="Helvetica,sans-Serif" font-size="10.00">ADXL345_SPI</text>
</a>
</g>
<!-- Node25&#45;&gt;Node26 -->
<g id="edge56" class="edge"><title>Node25&#45;&gt;Node26</title>
<path fill="none" stroke="midnightblue" d="M160.129,-445.833C171.084,-460.585 185.747,-482.528 194,-504 227.816,-591.982 167.869,-642.119 230,-713 236.069,-719.923 244.614,-724.354 253.393,-727.182"/>
<polygon fill="midnightblue" stroke="midnightblue" points="162.728,-443.47 153.877,-437.646 157.164,-447.718 162.728,-443.47"/>
</g>
<!-- Node27 -->
<g id="node56" class="node"><title>Node27</title>
<a xlink:href="class_analog_accelerometer.html" target="_top" xlink:title="AnalogAccelerometer">
<polygon fill="white" stroke="black" points="237,-684.5 237,-703.5 347,-703.5 347,-684.5 237,-684.5"/>
<text text-anchor="middle" x="292" y="-691.5" font-family="Helvetica,sans-Serif" font-size="10.00">AnalogAccelerometer</text>
</a>
</g>
<!-- Node25&#45;&gt;Node27 -->
<g id="edge58" class="edge"><title>Node25&#45;&gt;Node27</title>
<path fill="none" stroke="midnightblue" d="M159.915,-445.917C170.749,-460.717 185.352,-482.684 194,-504 223.197,-575.969 177.736,-617.55 230,-675 233.508,-678.856 237.784,-681.937 242.428,-684.397"/>
<polygon fill="midnightblue" stroke="midnightblue" points="162.547,-443.594 153.744,-437.698 156.95,-447.796 162.547,-443.594"/>
</g>
<!-- Node28 -->
<g id="node58" class="node"><title>Node28</title>
<a xlink:href="class_analog_input.html" target="_top" xlink:title="AnalogInput">
<polygon fill="white" stroke="black" points="258,-646.5 258,-665.5 326,-665.5 326,-646.5 258,-646.5"/>
<text text-anchor="middle" x="292" y="-653.5" font-family="Helvetica,sans-Serif" font-size="10.00">AnalogInput</text>
</a>
</g>
<!-- Node25&#45;&gt;Node28 -->
<g id="edge60" class="edge"><title>Node25&#45;&gt;Node28</title>
<path fill="none" stroke="midnightblue" d="M165.037,-445.832C174.806,-459.046 186.25,-477.354 194,-495 218.625,-551.069 187.52,-583.891 230,-628 240.003,-638.386 255.577,-643.124 268.484,-646.449"/>
<polygon fill="midnightblue" stroke="midnightblue" points="167.51,-443.311 158.606,-437.568 161.985,-447.61 167.51,-443.311"/>
</g>
<!-- Node25&#45;&gt;Node28 -->
<g id="edge62" class="edge"><title>Node25&#45;&gt;Node28</title>
<path fill="none" stroke="midnightblue" d="M155.535,-446.962C166.248,-464.01 183.508,-489.112 194,-513 218.625,-569.069 187.52,-601.891 230,-646 237.387,-653.67 247.811,-658.259 257.957,-660.525"/>
<polygon fill="midnightblue" stroke="midnightblue" points="158.246,-444.681 150.084,-437.925 152.252,-448.296 158.246,-444.681"/>
</g>
<!-- Node29 -->
<g id="node61" class="node"><title>Node29</title>
<a xlink:href="class_analog_output.html" target="_top" xlink:title="AnalogOutput">
<polygon fill="white" stroke="black" points="254,-608.5 254,-627.5 330,-627.5 330,-608.5 254,-608.5"/>
<text text-anchor="middle" x="292" y="-615.5" font-family="Helvetica,sans-Serif" font-size="10.00">AnalogOutput</text>
</a>
</g>
<!-- Node25&#45;&gt;Node29 -->
<g id="edge64" class="edge"><title>Node25&#45;&gt;Node29</title>
<path fill="none" stroke="midnightblue" d="M159.04,-446.313C169.373,-461.339 183.73,-483.416 194,-504 214.157,-544.403 197.125,-568.049 230,-599 236.622,-605.235 245.261,-609.425 253.945,-612.24"/>
<polygon fill="midnightblue" stroke="midnightblue" points="161.793,-444.141 153.199,-437.944 156.053,-448.148 161.793,-444.141"/>
</g>
<!-- Node30 -->
<g id="node63" class="node"><title>Node30</title>
<a xlink:href="class_analog_trigger.html" target="_top" xlink:title="AnalogTrigger">
<polygon fill="white" stroke="black" points="254,-570.5 254,-589.5 330,-589.5 330,-570.5 254,-570.5"/>
<text text-anchor="middle" x="292" y="-577.5" font-family="Helvetica,sans-Serif" font-size="10.00">AnalogTrigger</text>
</a>
</g>
<!-- Node25&#45;&gt;Node30 -->
<g id="edge66" class="edge"><title>Node25&#45;&gt;Node30</title>
<path fill="none" stroke="midnightblue" d="M157.523,-446.245C180.537,-482.683 230,-561 230,-561 236.951,-566.336 245.421,-570.188 253.81,-572.964"/>
<polygon fill="midnightblue" stroke="midnightblue" points="160.34,-444.151 152.041,-437.565 154.422,-447.889 160.34,-444.151"/>
</g>
<!-- Node31 -->
<g id="node65" class="node"><title>Node31</title>
<a xlink:href="class_built_in_accelerometer.html" target="_top" xlink:title="BuiltInAccelerometer">
<polygon fill="white" stroke="black" points="238.5,-532.5 238.5,-551.5 345.5,-551.5 345.5,-532.5 238.5,-532.5"/>
<text text-anchor="middle" x="292" y="-539.5" font-family="Helvetica,sans-Serif" font-size="10.00">BuiltInAccelerometer</text>
</a>
</g>
<!-- Node25&#45;&gt;Node31 -->
<g id="edge68" class="edge"><title>Node25&#45;&gt;Node31</title>
<path fill="none" stroke="midnightblue" d="M157.467,-446.127C171.89,-467.502 198.604,-502.682 230,-523 235.96,-526.857 242.752,-529.973 249.588,-532.477"/>
<polygon fill="midnightblue" stroke="midnightblue" points="160.309,-444.079 151.896,-437.638 154.456,-447.919 160.309,-444.079"/>
</g>
<!-- Node32 -->
<g id="node67" class="node"><title>Node32</title>
<a xlink:href="class_compressor.html" target="_top" xlink:title="Compressor">
<polygon fill="white" stroke="black" points="257.5,-494.5 257.5,-513.5 326.5,-513.5 326.5,-494.5 257.5,-494.5"/>
<text text-anchor="middle" x="292" y="-501.5" font-family="Helvetica,sans-Serif" font-size="10.00">Compressor</text>
</a>
</g>
<!-- Node25&#45;&gt;Node32 -->
<g id="edge70" class="edge"><title>Node25&#45;&gt;Node32</title>
<path fill="none" stroke="midnightblue" d="M166.087,-444.132C182.491,-456.672 206.691,-473.767 230,-485 238.593,-489.141 248.297,-492.644 257.396,-495.471"/>
<polygon fill="midnightblue" stroke="midnightblue" points="167.871,-441.085 157.831,-437.7 163.569,-446.607 167.871,-441.085"/>
</g>
<!-- Node33 -->
<g id="node69" class="node"><title>Node33</title>
<a xlink:href="class_counter.html" target="_top" xlink:title="Counter">
<polygon fill="white" stroke="red" points="267,-456.5 267,-475.5 317,-475.5 317,-456.5 267,-456.5"/>
<text text-anchor="middle" x="292" y="-463.5" font-family="Helvetica,sans-Serif" font-size="10.00">Counter</text>
</a>
</g>
<!-- Node25&#45;&gt;Node33 -->
<g id="edge72" class="edge"><title>Node25&#45;&gt;Node33</title>
<path fill="none" stroke="midnightblue" d="M190.182,-433.309C217.729,-439.546 251.747,-448.985 272.387,-456.424"/>
<polygon fill="midnightblue" stroke="midnightblue" points="190.879,-429.879 180.363,-431.166 189.386,-436.718 190.879,-429.879"/>
</g>
<!-- Node25&#45;&gt;Node33 -->
<g id="edge74" class="edge"><title>Node25&#45;&gt;Node33</title>
<path fill="none" stroke="midnightblue" d="M174.285,-440.893C201.238,-449.744 241.379,-460.164 266.864,-464.856"/>
<polygon fill="midnightblue" stroke="midnightblue" points="175.254,-437.525 164.659,-437.592 172.984,-444.146 175.254,-437.525"/>
</g>
<!-- Node34 -->
<g id="node72" class="node"><title>Node34</title>
<a xlink:href="class_driver_station.html" target="_top" xlink:title="DriverStation">
<polygon fill="white" stroke="black" points="256.5,-418.5 256.5,-437.5 327.5,-437.5 327.5,-418.5 256.5,-418.5"/>
<text text-anchor="middle" x="292" y="-425.5" font-family="Helvetica,sans-Serif" font-size="10.00">DriverStation</text>
</a>
</g>
<!-- Node25&#45;&gt;Node34 -->
<g id="edge76" class="edge"><title>Node25&#45;&gt;Node34</title>
<path fill="none" stroke="midnightblue" d="M190.427,-421.722C211.628,-420.974 236.616,-421.115 256.381,-422.147"/>
<polygon fill="midnightblue" stroke="midnightblue" points="190.201,-418.228 180.363,-422.16 190.506,-425.221 190.201,-418.228"/>
</g>
<!-- Node25&#45;&gt;Node34 -->
<g id="edge78" class="edge"><title>Node25&#45;&gt;Node34</title>
<path fill="none" stroke="midnightblue" d="M190.427,-434.278C211.628,-435.026 236.616,-434.885 256.381,-433.853"/>
<polygon fill="midnightblue" stroke="midnightblue" points="190.506,-430.779 180.363,-433.84 190.201,-437.772 190.506,-430.779"/>
</g>
<!-- Node35 -->
<g id="node75" class="node"><title>Node35</title>
<a xlink:href="class_encoder.html" target="_top" xlink:title="Encoder">
<polygon fill="white" stroke="black" points="265.5,-380.5 265.5,-399.5 318.5,-399.5 318.5,-380.5 265.5,-380.5"/>
<text text-anchor="middle" x="292" y="-387.5" font-family="Helvetica,sans-Serif" font-size="10.00">Encoder</text>
</a>
</g>
<!-- Node25&#45;&gt;Node35 -->
<g id="edge80" class="edge"><title>Node25&#45;&gt;Node35</title>
<path fill="none" stroke="midnightblue" d="M174.454,-415.052C200.869,-406.389 239.846,-396.239 265.329,-391.43"/>
<polygon fill="midnightblue" stroke="midnightblue" points="172.985,-411.855 164.659,-418.408 175.254,-418.478 172.985,-411.855"/>
</g>
<!-- Node25&#45;&gt;Node35 -->
<g id="edge82" class="edge"><title>Node25&#45;&gt;Node35</title>
<path fill="none" stroke="midnightblue" d="M190.182,-422.691C217.729,-416.454 251.747,-407.015 272.387,-399.576"/>
<polygon fill="midnightblue" stroke="midnightblue" points="189.386,-419.282 180.363,-424.834 190.879,-426.121 189.386,-419.282"/>
</g>
<!-- Node36 -->
<g id="node78" class="node"><title>Node36</title>
<a xlink:href="class_gyro.html" target="_top" xlink:title="Gyro">
<polygon fill="white" stroke="black" points="273,-342.5 273,-361.5 311,-361.5 311,-342.5 273,-342.5"/>
<text text-anchor="middle" x="292" y="-349.5" font-family="Helvetica,sans-Serif" font-size="10.00">Gyro</text>
</a>
</g>
<!-- Node25&#45;&gt;Node36 -->
<g id="edge84" class="edge"><title>Node25&#45;&gt;Node36</title>
<path fill="none" stroke="midnightblue" d="M165.922,-414.108C174.946,-410.179 185.478,-405.764 194,-400 213.271,-386.967 210.254,-374.302 230,-362 243.18,-353.788 260.188,-348.876 272.895,-347.582"/>
<polygon fill="midnightblue" stroke="midnightblue" points="164.203,-411.045 156.56,-418.382 167.111,-417.412 164.203,-411.045"/>
</g>
<!-- Node25&#45;&gt;Node36 -->
<g id="edge86" class="edge"><title>Node25&#45;&gt;Node36</title>
<path fill="none" stroke="midnightblue" d="M189.478,-420.83C191.032,-419.928 192.545,-418.984 194,-418 213.271,-404.967 210.254,-392.302 230,-380 244.31,-371.084 263.132,-366.058 276.063,-361.561"/>
<polygon fill="midnightblue" stroke="midnightblue" points="187.595,-417.86 180.25,-425.495 190.753,-424.107 187.595,-417.86"/>
</g>
<!-- Node37 -->
<g id="node81" class="node"><title>Node37</title>
<a xlink:href="class_i2_c.html" target="_top" xlink:title="I2C">
<polygon fill="white" stroke="red" points="276.5,-304.5 276.5,-323.5 307.5,-323.5 307.5,-304.5 276.5,-304.5"/>
<text text-anchor="middle" x="292" y="-311.5" font-family="Helvetica,sans-Serif" font-size="10.00">I2C</text>
</a>
</g>
<!-- Node25&#45;&gt;Node37 -->
<g id="edge88" class="edge"><title>Node25&#45;&gt;Node37</title>
<path fill="none" stroke="#8b1a1a" d="M188.679,-413.279C190.564,-411.967 192.352,-410.543 194,-409 221.279,-383.451 201.782,-357.509 230,-333 243.064,-321.653 262.858,-317.08 276.328,-315.238"/>
<polygon fill="#8b1a1a" stroke="#8b1a1a" points="186.828,-410.306 179.93,-418.348 190.337,-416.363 186.828,-410.306"/>
</g>
<!-- Node38 -->
<g id="node83" class="node"><title>Node38</title>
<a xlink:href="class_interruptable_sensor_base.html" target="_top" xlink:title="InterruptableSensorBase">
<polygon fill="white" stroke="red" points="230.5,-266.5 230.5,-285.5 353.5,-285.5 353.5,-266.5 230.5,-266.5"/>
<text text-anchor="middle" x="292" y="-273.5" font-family="Helvetica,sans-Serif" font-size="10.00">InterruptableSensorBase</text>
</a>
</g>
<!-- Node25&#45;&gt;Node38 -->
<g id="edge90" class="edge"><title>Node25&#45;&gt;Node38</title>
<path fill="none" stroke="midnightblue" d="M188.945,-413.544C190.761,-412.163 192.461,-410.652 194,-409 230.213,-370.119 192.356,-332.497 230,-295 233.929,-291.086 238.651,-287.976 243.705,-285.506"/>
<polygon fill="midnightblue" stroke="midnightblue" points="187.074,-410.586 180.393,-418.809 190.743,-416.547 187.074,-410.586"/>
</g>
<!-- Node39 -->
<g id="node85" class="node"><title>Node39</title>
<a xlink:href="class_power_distribution_panel.html" target="_top" xlink:title="PowerDistributionPanel">
<polygon fill="white" stroke="black" points="233.5,-228.5 233.5,-247.5 350.5,-247.5 350.5,-228.5 233.5,-228.5"/>
<text text-anchor="middle" x="292" y="-235.5" font-family="Helvetica,sans-Serif" font-size="10.00">PowerDistributionPanel</text>
</a>
</g>
<!-- Node25&#45;&gt;Node39 -->
<g id="edge92" class="edge"><title>Node25&#45;&gt;Node39</title>
<path fill="none" stroke="midnightblue" d="M188.923,-413.816C190.765,-412.363 192.475,-410.762 194,-409 239.423,-356.497 182.642,-307.764 230,-257 233.632,-253.107 238.046,-250.006 242.822,-247.536"/>
<polygon fill="midnightblue" stroke="midnightblue" points="186.792,-411.021 180.167,-419.289 190.502,-416.956 186.792,-411.021"/>
</g>
<!-- Node40 -->
<g id="node87" class="node"><title>Node40</title>
<a xlink:href="class_p_w_m.html" target="_top" xlink:title="PWM">
<polygon fill="white" stroke="red" points="271.5,-190.5 271.5,-209.5 312.5,-209.5 312.5,-190.5 271.5,-190.5"/>
<text text-anchor="middle" x="292" y="-197.5" font-family="Helvetica,sans-Serif" font-size="10.00">PWM</text>
</a>
</g>
<!-- Node25&#45;&gt;Node40 -->
<g id="edge94" class="edge"><title>Node25&#45;&gt;Node40</title>
<path fill="none" stroke="midnightblue" d="M170.875,-414.871C179.363,-411.5 188.173,-407.051 194,-400 248.746,-333.745 172.81,-274.157 230,-210 240.407,-198.325 257.855,-193.747 271.431,-193.494"/>
<polygon fill="midnightblue" stroke="midnightblue" points="169.423,-411.676 161.256,-418.425 171.849,-418.243 169.423,-411.676"/>
</g>
<!-- Node25&#45;&gt;Node40 -->
<g id="edge96" class="edge"><title>Node25&#45;&gt;Node40</title>
<path fill="none" stroke="midnightblue" d="M189.021,-422.889C190.838,-421.424 192.516,-419.796 194,-418 248.746,-351.745 172.81,-292.157 230,-228 240.407,-216.325 257.855,-211.747 271.431,-208.486"/>
<polygon fill="midnightblue" stroke="midnightblue" points="186.978,-420.037 180.334,-428.29 190.675,-425.982 186.978,-420.037"/>
</g>
<!-- Node41 -->
<g id="node90" class="node"><title>Node41</title>
<a xlink:href="class_relay.html" target="_top" xlink:title="Relay">
<polygon fill="white" stroke="black" points="271.5,-152.5 271.5,-171.5 312.5,-171.5 312.5,-152.5 271.5,-152.5"/>
<text text-anchor="middle" x="292" y="-159.5" font-family="Helvetica,sans-Serif" font-size="10.00">Relay</text>
</a>
</g>
<!-- Node25&#45;&gt;Node41 -->
<g id="edge98" class="edge"><title>Node25&#45;&gt;Node41</title>
<path fill="none" stroke="midnightblue" d="M170.993,-414.967C179.494,-411.607 188.282,-407.14 194,-400 258.127,-319.924 162.918,-249.617 230,-172 240.227,-160.167 257.693,-155.605 271.322,-155.398"/>
<polygon fill="midnightblue" stroke="midnightblue" points="169.533,-411.774 161.346,-418.498 171.939,-418.348 169.533,-411.774"/>
</g>
<!-- Node25&#45;&gt;Node41 -->
<g id="edge100" class="edge"><title>Node25&#45;&gt;Node41</title>
<path fill="none" stroke="midnightblue" d="M189.088,-422.943C190.888,-421.464 192.543,-419.819 194,-418 258.127,-337.924 162.918,-267.617 230,-190 240.227,-178.167 257.693,-173.605 271.322,-170.39"/>
<polygon fill="midnightblue" stroke="midnightblue" points="187.046,-420.093 180.45,-428.383 190.776,-426.016 187.046,-420.093"/>
</g>
<!-- Node42 -->
<g id="node93" class="node"><title>Node42</title>
<a xlink:href="class_smart_dashboard.html" target="_top" xlink:title="SmartDashboard">
<polygon fill="white" stroke="black" points="247.5,-114.5 247.5,-133.5 336.5,-133.5 336.5,-114.5 247.5,-114.5"/>
<text text-anchor="middle" x="292" y="-121.5" font-family="Helvetica,sans-Serif" font-size="10.00">SmartDashboard</text>
</a>
</g>
<!-- Node25&#45;&gt;Node42 -->
<g id="edge102" class="edge"><title>Node25&#45;&gt;Node42</title>
<path fill="none" stroke="midnightblue" d="M188.539,-414.483C190.559,-412.858 192.405,-411.038 194,-409 267.54,-315.062 152.991,-234.116 230,-143 234.582,-137.578 240.686,-133.68 247.264,-130.882"/>
<polygon fill="midnightblue" stroke="midnightblue" points="186.641,-411.541 180.048,-419.834 190.374,-417.463 186.641,-411.541"/>
</g>
<!-- Node43 -->
<g id="node95" class="node"><title>Node43</title>
<a xlink:href="class_solenoid_base.html" target="_top" xlink:title="SolenoidBase">
<polygon fill="white" stroke="red" points="253.5,-76.5 253.5,-95.5 330.5,-95.5 330.5,-76.5 253.5,-76.5"/>
<text text-anchor="middle" x="292" y="-83.5" font-family="Helvetica,sans-Serif" font-size="10.00">SolenoidBase</text>
</a>
</g>
<!-- Node25&#45;&gt;Node43 -->
<g id="edge104" class="edge"><title>Node25&#45;&gt;Node43</title>
<path fill="none" stroke="midnightblue" d="M188.579,-414.514C190.589,-412.881 192.422,-411.051 194,-409 276.974,-301.175 143.044,-209.641 230,-105 235.955,-97.834 244.57,-93.325 253.457,-90.5009"/>
<polygon fill="midnightblue" stroke="midnightblue" points="186.682,-411.572 180.112,-419.884 190.432,-417.483 186.682,-411.572"/>
</g>
<!-- Node44 -->
<g id="node97" class="node"><title>Node44</title>
<a xlink:href="class_s_p_i.html" target="_top" xlink:title="SPI">
<polygon fill="white" stroke="black" points="276,-38.5 276,-57.5 308,-57.5 308,-38.5 276,-38.5"/>
<text text-anchor="middle" x="292" y="-45.5" font-family="Helvetica,sans-Serif" font-size="10.00">SPI</text>
</a>
</g>
<!-- Node25&#45;&gt;Node44 -->
<g id="edge106" class="edge"><title>Node25&#45;&gt;Node44</title>
<path fill="none" stroke="midnightblue" d="M188.61,-414.538C190.613,-412.899 192.435,-411.061 194,-409 286.421,-287.27 133.082,-185.182 230,-67 241.113,-53.4486 261.745,-49.3872 275.912,-48.2636"/>
<polygon fill="midnightblue" stroke="midnightblue" points="186.714,-411.596 180.163,-419.923 190.477,-417.499 186.714,-411.596"/>
</g>
<!-- Node45 -->
<g id="node99" class="node"><title>Node45</title>
<a xlink:href="class_ultrasonic.html" target="_top" xlink:title="Ultrasonic">
<polygon fill="white" stroke="black" points="262,-0.5 262,-19.5 322,-19.5 322,-0.5 262,-0.5"/>
<text text-anchor="middle" x="292" y="-7.5" font-family="Helvetica,sans-Serif" font-size="10.00">Ultrasonic</text>
</a>
</g>
<!-- Node25&#45;&gt;Node45 -->
<g id="edge108" class="edge"><title>Node25&#45;&gt;Node45</title>
<path fill="none" stroke="midnightblue" d="M188.636,-414.557C190.632,-412.913 192.446,-411.069 194,-409 244.939,-341.176 176.555,-94.8676 230,-29 237.758,-19.4391 250.256,-14.5973 261.926,-12.1796"/>
<polygon fill="midnightblue" stroke="midnightblue" points="186.74,-411.615 180.204,-419.954 190.513,-417.511 186.74,-411.615"/>
</g>
</g>
</svg>
