<?xml version="1.0" encoding="UTF-8" standalone="no"?>
<!DOCTYPE svg PUBLIC "-//W3C//DTD SVG 1.1//EN"
 "http://www.w3.org/Graphics/SVG/1.1/DTD/svg11.dtd">
<!-- Generated by graphviz version 2.28.0 (20110507.0327)
 -->
<!-- Title: RobotDrive::ArcadeDrive Pages: 1 -->
<svg width="766pt" height="142pt"
 viewBox="0.00 0.00 766.00 142.00" xmlns="http://www.w3.org/2000/svg" xmlns:xlink="http://www.w3.org/1999/xlink">
<g id="graph1" class="graph" transform="scale(1 1) rotate(0) translate(4 138)">
<title>RobotDrive::ArcadeDrive</title>
<polygon fill="white" stroke="white" points="-4,5 -4,-138 763,-138 763,5 -4,5"/>
<!-- Node1 -->
<g id="node1" class="node"><title>Node1</title>
<polygon fill="#bfbfbf" stroke="black" points="0.5,-92.5 0.5,-111.5 121.5,-111.5 121.5,-92.5 0.5,-92.5"/>
<text text-anchor="middle" x="61" y="-99.5" font-family="Helvetica,sans-Serif" font-size="10.00">RobotDrive::ArcadeDrive</text>
</g>
<!-- Node2 -->
<g id="node3" class="node"><title>Node2</title>
<a xlink:href="class_robot_drive.html#aa7d99fd794c6f8c0b5486603f508a3a7" target="_top" xlink:title="RobotDrive::Limit">
<polygon fill="white" stroke="black" points="347,-114.5 347,-133.5 437,-133.5 437,-114.5 347,-114.5"/>
<text text-anchor="middle" x="392" y="-121.5" font-family="Helvetica,sans-Serif" font-size="10.00">RobotDrive::Limit</text>
</a>
</g>
<!-- Node1&#45;&gt;Node2 -->
<g id="edge2" class="edge"><title>Node1&#45;&gt;Node2</title>
<path fill="none" stroke="midnightblue" d="M121.579,-105.984C182.719,-110.072 277.046,-116.38 336.331,-120.344"/>
<polygon fill="midnightblue" stroke="midnightblue" points="336.405,-123.857 346.616,-121.032 336.872,-116.873 336.405,-123.857"/>
</g>
<!-- Node3 -->
<g id="node5" class="node"><title>Node3</title>
<a xlink:href="class_robot_drive.html#a6f17b92a6867d512188b497f192f0715" target="_top" xlink:title="RobotDrive::SetLeftRight\lMotorOutputs">
<polygon fill="white" stroke="black" points="158,-65 158,-95 280,-95 280,-65 158,-65"/>
<text text-anchor="start" x="166" y="-83" font-family="Helvetica,sans-Serif" font-size="10.00">RobotDrive::SetLeftRight</text>
<text text-anchor="middle" x="219" y="-72" font-family="Helvetica,sans-Serif" font-size="10.00">MotorOutputs</text>
</a>
</g>
<!-- Node1&#45;&gt;Node3 -->
<g id="edge4" class="edge"><title>Node1&#45;&gt;Node3</title>
<path fill="none" stroke="midnightblue" d="M121.868,-93.5571C130.328,-92.364 139.09,-91.1283 147.725,-89.9106"/>
<polygon fill="midnightblue" stroke="midnightblue" points="148.364,-93.3552 157.777,-88.493 147.386,-86.4238 148.364,-93.3552"/>
</g>
<!-- Node3&#45;&gt;Node2 -->
<g id="edge8" class="edge"><title>Node3&#45;&gt;Node2</title>
<path fill="none" stroke="midnightblue" d="M277.347,-95.0005C290.069,-98.3099 303.489,-101.786 316,-105 324.885,-107.282 334.368,-109.699 343.496,-112.016"/>
<polygon fill="midnightblue" stroke="midnightblue" points="342.664,-115.416 353.218,-114.481 344.384,-108.631 342.664,-115.416"/>
</g>
<!-- Node4 -->
<g id="node7" class="node"><title>Node4</title>
<a xlink:href="class_speed_controller.html#adc3d0010c1c684979261b98d438f8db5" target="_top" xlink:title="SpeedController::Set">
<polygon fill="white" stroke="black" points="338.5,-76.5 338.5,-95.5 445.5,-95.5 445.5,-76.5 338.5,-76.5"/>
<text text-anchor="middle" x="392" y="-83.5" font-family="Helvetica,sans-Serif" font-size="10.00">SpeedController::Set</text>
</a>
</g>
<!-- Node3&#45;&gt;Node4 -->
<g id="edge6" class="edge"><title>Node3&#45;&gt;Node4</title>
<path fill="none" stroke="midnightblue" d="M280.288,-82.1154C295.827,-82.6606 312.586,-83.2486 328.247,-83.7982"/>
<polygon fill="midnightblue" stroke="midnightblue" points="328.24,-87.2999 338.356,-84.1529 328.485,-80.3043 328.24,-87.2999"/>
</g>
<!-- Node5 -->
<g id="node10" class="node"><title>Node5</title>
<a xlink:href="class_c_a_n_jaguar.html#a225e0588b0955681a24da6ab0d2c8bc0" target="_top" xlink:title="CANJaguar::UpdateSyncGroup">
<polygon fill="white" stroke="black" points="316.5,-38.5 316.5,-57.5 467.5,-57.5 467.5,-38.5 316.5,-38.5"/>
<text text-anchor="middle" x="392" y="-45.5" font-family="Helvetica,sans-Serif" font-size="10.00">CANJaguar::UpdateSyncGroup</text>
</a>
</g>
<!-- Node3&#45;&gt;Node5 -->
<g id="edge10" class="edge"><title>Node3&#45;&gt;Node5</title>
<path fill="none" stroke="midnightblue" d="M280.288,-68.718C296.453,-65.693 313.938,-62.4209 330.134,-59.3901"/>
<polygon fill="midnightblue" stroke="midnightblue" points="330.843,-62.8184 340.028,-57.5386 329.555,-55.9378 330.843,-62.8184"/>
</g>
<!-- Node6 -->
<g id="node12" class="node"><title>Node6</title>
<a xlink:href="class_motor_safety_helper.html#a67b80e9817dc725e0678de5e8f0bb39e" target="_top" xlink:title="MotorSafetyHelper::Feed">
<polygon fill="white" stroke="black" points="329.5,-0.5 329.5,-19.5 454.5,-19.5 454.5,-0.5 329.5,-0.5"/>
<text text-anchor="middle" x="392" y="-7.5" font-family="Helvetica,sans-Serif" font-size="10.00">MotorSafetyHelper::Feed</text>
</a>
</g>
<!-- Node3&#45;&gt;Node6 -->
<g id="edge12" class="edge"><title>Node3&#45;&gt;Node6</title>
<path fill="none" stroke="midnightblue" d="M244.488,-64.8736C263.44,-53.6963 290.645,-38.7824 316,-29 322.399,-26.5311 329.229,-24.2912 336.064,-22.2872"/>
<polygon fill="midnightblue" stroke="midnightblue" points="337.332,-25.5677 346.031,-19.5206 335.46,-18.8227 337.332,-25.5677"/>
</g>
<!-- Node7 -->
<g id="node14" class="node"><title>Node7</title>
<a xlink:href="class_timer.html#a7fa6e6dffec055e5104ccd6bcadec9aa" target="_top" xlink:title="Timer::GetFPGATimestamp">
<polygon fill="white" stroke="black" points="504.5,-0.5 504.5,-19.5 641.5,-19.5 641.5,-0.5 504.5,-0.5"/>
<text text-anchor="middle" x="573" y="-7.5" font-family="Helvetica,sans-Serif" font-size="10.00">Timer::GetFPGATimestamp</text>
</a>
</g>
<!-- Node6&#45;&gt;Node7 -->
<g id="edge14" class="edge"><title>Node6&#45;&gt;Node7</title>
<path fill="none" stroke="midnightblue" d="M454.602,-10C467.415,-10 481.076,-10 494.381,-10"/>
<polygon fill="midnightblue" stroke="midnightblue" points="494.465,-13.5001 504.465,-10 494.465,-6.5001 494.465,-13.5001"/>
</g>
<!-- Node8 -->
<g id="node16" class="node"><title>Node8</title>
<a xlink:href="_utility_8h.html#ababf055d95368485d48bd9a0231853f3" target="_top" xlink:title="GetFPGATime">
<polygon fill="white" stroke="black" points="678,-0.5 678,-19.5 758,-19.5 758,-0.5 678,-0.5"/>
<text text-anchor="middle" x="718" y="-7.5" font-family="Helvetica,sans-Serif" font-size="10.00">GetFPGATime</text>
</a>
</g>
<!-- Node7&#45;&gt;Node8 -->
<g id="edge16" class="edge"><title>Node7&#45;&gt;Node8</title>
<path fill="none" stroke="midnightblue" d="M641.731,-10C650.558,-10 659.463,-10 667.904,-10"/>
<polygon fill="midnightblue" stroke="midnightblue" points="667.934,-13.5001 677.933,-10 667.933,-6.5001 667.934,-13.5001"/>
</g>
</g>
</svg>
