<?xml version="1.0" encoding="UTF-8" standalone="no"?>
<!DOCTYPE svg PUBLIC "-//W3C//DTD SVG 1.1//EN"
 "http://www.w3.org/Graphics/SVG/1.1/DTD/svg11.dtd">
<!-- Generated by graphviz version 2.28.0 (20110507.0327)
 -->
<!-- Title: Command::SetParent Pages: 1 -->
<svg width="310pt" height="66pt"
 viewBox="0.00 0.00 310.00 66.00" xmlns="http://www.w3.org/2000/svg" xmlns:xlink="http://www.w3.org/1999/xlink">
<g id="graph1" class="graph" transform="scale(1 1) rotate(0) translate(4 62)">
<title>Command::SetParent</title>
<polygon fill="white" stroke="white" points="-4,5 -4,-62 307,-62 307,5 -4,5"/>
<!-- Node1 -->
<g id="node1" class="node"><title>Node1</title>
<polygon fill="#bfbfbf" stroke="black" points="0,-19.5 0,-38.5 110,-38.5 110,-19.5 0,-19.5"/>
<text text-anchor="middle" x="55" y="-26.5" font-family="Helvetica,sans-Serif" font-size="10.00">Command::SetParent</text>
</g>
<!-- Node2 -->
<g id="node3" class="node"><title>Node2</title>
<a xlink:href="class_command_group.html#a37206a473a9a01ba8098d73f452de71b" target="_top" xlink:title="CommandGroup::AddSequential">
<polygon fill="white" stroke="black" points="146,-38.5 146,-57.5 302,-57.5 302,-38.5 146,-38.5"/>
<text text-anchor="middle" x="224" y="-45.5" font-family="Helvetica,sans-Serif" font-size="10.00">CommandGroup::AddSequential</text>
</a>
</g>
<!-- Node1&#45;&gt;Node2 -->
<g id="edge2" class="edge"><title>Node1&#45;&gt;Node2</title>
<path fill="none" stroke="midnightblue" d="M120.316,-36.3174C128.725,-37.2741 137.409,-38.2621 146,-39.2395"/>
<polygon fill="midnightblue" stroke="midnightblue" points="120.552,-32.8217 110.22,-35.1688 119.76,-39.7768 120.552,-32.8217"/>
</g>
<!-- Node3 -->
<g id="node5" class="node"><title>Node3</title>
<a xlink:href="class_command_group.html#a3c7e096849f7586389769454b3148be3" target="_top" xlink:title="CommandGroup::AddParallel">
<polygon fill="white" stroke="black" points="152.5,-0.5 152.5,-19.5 295.5,-19.5 295.5,-0.5 152.5,-0.5"/>
<text text-anchor="middle" x="224" y="-7.5" font-family="Helvetica,sans-Serif" font-size="10.00">CommandGroup::AddParallel</text>
</a>
</g>
<!-- Node1&#45;&gt;Node3 -->
<g id="edge4" class="edge"><title>Node1&#45;&gt;Node3</title>
<path fill="none" stroke="midnightblue" d="M120.157,-21.7007C130.685,-20.5029 141.646,-19.2558 152.322,-18.0413"/>
<polygon fill="midnightblue" stroke="midnightblue" points="119.76,-18.2232 110.22,-22.8312 120.552,-25.1783 119.76,-18.2232"/>
</g>
</g>
</svg>
