<?xml version="1.0" encoding="UTF-8" standalone="no"?>
<!DOCTYPE svg PUBLIC "-//W3C//DTD SVG 1.1//EN"
 "http://www.w3.org/Graphics/SVG/1.1/DTD/svg11.dtd">
<!-- Generated by graphviz version 2.28.0 (20110507.0327)
 -->
<!-- Title: CANJaguar::ConfigLimitMode Pages: 1 -->
<svg width="636pt" height="146pt"
 viewBox="0.00 0.00 636.00 146.00" xmlns="http://www.w3.org/2000/svg" xmlns:xlink="http://www.w3.org/1999/xlink">
<g id="graph1" class="graph" transform="scale(1 1) rotate(0) translate(4 142)">
<title>CANJaguar::ConfigLimitMode</title>
<polygon fill="white" stroke="white" points="-4,5 -4,-142 633,-142 633,5 -4,5"/>
<!-- Node1 -->
<g id="node1" class="node"><title>Node1</title>
<polygon fill="#bfbfbf" stroke="black" points="0.5,-55.5 0.5,-74.5 143.5,-74.5 143.5,-55.5 0.5,-55.5"/>
<text text-anchor="middle" x="72" y="-62.5" font-family="Helvetica,sans-Serif" font-size="10.00">CANJaguar::ConfigLimitMode</text>
</g>
<!-- Node2 -->
<g id="node3" class="node"><title>Node2</title>
<a xlink:href="class_c_a_n_jaguar.html#a97fe9cb246f90060495c808e31070650" target="_top" xlink:title="CANJaguar::verify">
<polygon fill="white" stroke="black" points="211.5,-99.5 211.5,-118.5 304.5,-118.5 304.5,-99.5 211.5,-99.5"/>
<text text-anchor="middle" x="258" y="-106.5" font-family="Helvetica,sans-Serif" font-size="10.00">CANJaguar::verify</text>
</a>
</g>
<!-- Node1&#45;&gt;Node2 -->
<g id="edge2" class="edge"><title>Node1&#45;&gt;Node2</title>
<path fill="none" stroke="midnightblue" d="M122.665,-76.8764C152.305,-83.9642 189.442,-92.8448 217.153,-99.4713"/>
<polygon fill="midnightblue" stroke="midnightblue" points="123.465,-73.4691 112.925,-74.5473 121.837,-80.2772 123.465,-73.4691"/>
</g>
<!-- Node6 -->
<g id="node11" class="node"><title>Node6</title>
<a xlink:href="class_c_a_n_jaguar.html#a01b8ad2facc7971becbd08b84266f6e2" target="_top" xlink:title="CANJaguar::ConfigSoftPosition\lLimits">
<polygon fill="white" stroke="black" points="182.5,-50 182.5,-80 333.5,-80 333.5,-50 182.5,-50"/>
<text text-anchor="start" x="190.5" y="-68" font-family="Helvetica,sans-Serif" font-size="10.00">CANJaguar::ConfigSoftPosition</text>
<text text-anchor="middle" x="258" y="-57" font-family="Helvetica,sans-Serif" font-size="10.00">Limits</text>
</a>
</g>
<!-- Node1&#45;&gt;Node6 -->
<g id="edge10" class="edge"><title>Node1&#45;&gt;Node6</title>
<path fill="none" stroke="midnightblue" d="M153.81,-65C163.283,-65 172.917,-65 182.301,-65"/>
<polygon fill="midnightblue" stroke="midnightblue" points="153.613,-61.5001 143.613,-65 153.613,-68.5001 153.613,-61.5001"/>
</g>
<!-- Node7 -->
<g id="node13" class="node"><title>Node7</title>
<a xlink:href="class_c_a_n_jaguar.html#a1726e9d38b93d6103e6415ff8d767f8b" target="_top" xlink:title="CANJaguar::DisableSoftPosition\lLimits">
<polygon fill="white" stroke="black" points="180,-1 180,-31 336,-31 336,-1 180,-1"/>
<text text-anchor="start" x="188" y="-19" font-family="Helvetica,sans-Serif" font-size="10.00">CANJaguar::DisableSoftPosition</text>
<text text-anchor="middle" x="258" y="-8" font-family="Helvetica,sans-Serif" font-size="10.00">Limits</text>
</a>
</g>
<!-- Node1&#45;&gt;Node7 -->
<g id="edge12" class="edge"><title>Node1&#45;&gt;Node7</title>
<path fill="none" stroke="midnightblue" d="M118.773,-52.8104C143.524,-46.2192 174.306,-38.0218 200.535,-31.037"/>
<polygon fill="midnightblue" stroke="midnightblue" points="117.676,-49.4804 108.914,-55.436 119.478,-56.2447 117.676,-49.4804"/>
</g>
<!-- Node3 -->
<g id="node5" class="node"><title>Node3</title>
<a xlink:href="class_c_a_n_jaguar.html#a3a22b02ece406993619f993b1e09012a" target="_top" xlink:title="CANJaguar::Set">
<polygon fill="white" stroke="black" points="372,-99.5 372,-118.5 458,-118.5 458,-99.5 372,-99.5"/>
<text text-anchor="middle" x="415" y="-106.5" font-family="Helvetica,sans-Serif" font-size="10.00">CANJaguar::Set</text>
</a>
</g>
<!-- Node2&#45;&gt;Node3 -->
<g id="edge4" class="edge"><title>Node2&#45;&gt;Node3</title>
<path fill="none" stroke="midnightblue" d="M314.881,-109C333.664,-109 354.289,-109 371.838,-109"/>
<polygon fill="midnightblue" stroke="midnightblue" points="314.667,-105.5 304.667,-109 314.667,-112.5 314.667,-105.5"/>
</g>
<!-- Node4 -->
<g id="node7" class="node"><title>Node4</title>
<a xlink:href="class_c_a_n_jaguar.html#a2355d55f42083ab82870c79f742620e4" target="_top" xlink:title="CANJaguar::PIDWrite">
<polygon fill="white" stroke="black" points="506,-118.5 506,-137.5 616,-137.5 616,-118.5 506,-118.5"/>
<text text-anchor="middle" x="561" y="-125.5" font-family="Helvetica,sans-Serif" font-size="10.00">CANJaguar::PIDWrite</text>
</a>
</g>
<!-- Node3&#45;&gt;Node4 -->
<g id="edge6" class="edge"><title>Node3&#45;&gt;Node4</title>
<path fill="none" stroke="midnightblue" d="M468.11,-115.876C480.376,-117.494 493.478,-119.223 505.832,-120.853"/>
<polygon fill="midnightblue" stroke="midnightblue" points="468.41,-112.385 458.038,-114.547 467.494,-119.325 468.41,-112.385"/>
</g>
<!-- Node5 -->
<g id="node9" class="node"><title>Node5</title>
<a xlink:href="class_c_a_n_jaguar_test.html#a3c9026e62eb65e2d497bb7bbfaded297" target="_top" xlink:title="CANJaguarTest::SetJaguar">
<polygon fill="white" stroke="black" points="494,-80.5 494,-99.5 628,-99.5 628,-80.5 494,-80.5"/>
<text text-anchor="middle" x="561" y="-87.5" font-family="Helvetica,sans-Serif" font-size="10.00">CANJaguarTest::SetJaguar</text>
</a>
</g>
<!-- Node3&#45;&gt;Node5 -->
<g id="edge8" class="edge"><title>Node3&#45;&gt;Node5</title>
<path fill="none" stroke="midnightblue" d="M468.018,-102.137C476.387,-101.032 485.147,-99.8765 493.794,-98.7355"/>
<polygon fill="midnightblue" stroke="midnightblue" points="467.494,-98.6752 458.038,-103.453 468.41,-105.615 467.494,-98.6752"/>
</g>
</g>
</svg>
