<?xml version="1.0" encoding="UTF-8" standalone="no"?>
<!DOCTYPE svg PUBLIC "-//W3C//DTD SVG 1.1//EN"
 "http://www.w3.org/Graphics/SVG/1.1/DTD/svg11.dtd">
<!-- Generated by graphviz version 2.28.0 (20110507.0327)
 -->
<!-- Title: Jaguar Pages: 1 -->
<svg width="337pt" height="338pt"
 viewBox="0.00 0.00 337.00 338.00" xmlns="http://www.w3.org/2000/svg" xmlns:xlink="http://www.w3.org/1999/xlink">
<g id="graph1" class="graph" transform="scale(1 1) rotate(0) translate(4 334)">
<title>Jaguar</title>
<polygon fill="white" stroke="white" points="-4,5 -4,-334 334,-334 334,5 -4,5"/>
<!-- Node1 -->
<g id="node1" class="node"><title>Node1</title>
<polygon fill="#bfbfbf" stroke="black" points="222.5,-0.5 222.5,-19.5 267.5,-19.5 267.5,-0.5 222.5,-0.5"/>
<text text-anchor="middle" x="245" y="-7.5" font-family="Helvetica,sans-Serif" font-size="10.00">Jaguar</text>
</g>
<!-- Node2 -->
<g id="node2" class="node"><title>Node2</title>
<a xlink:href="class_safe_p_w_m.html" target="_top" xlink:title="SafePWM">
<polygon fill="white" stroke="black" points="163.5,-58.5 163.5,-77.5 224.5,-77.5 224.5,-58.5 163.5,-58.5"/>
<text text-anchor="middle" x="194" y="-65.5" font-family="Helvetica,sans-Serif" font-size="10.00">SafePWM</text>
</a>
</g>
<!-- Node2&#45;&gt;Node1 -->
<g id="edge2" class="edge"><title>Node2&#45;&gt;Node1</title>
<path fill="none" stroke="midnightblue" d="M203.113,-50.1293C211.364,-40.022 223.088,-27.6038 232.245,-19.5052"/>
<polygon fill="midnightblue" stroke="midnightblue" points="200.198,-48.1794 196.906,-58.25 205.759,-52.43 200.198,-48.1794"/>
</g>
<!-- Node2&#45;&gt;Node1 -->
<g id="edge36" class="edge"><title>Node2&#45;&gt;Node1</title>
<path fill="none" stroke="midnightblue" d="M214.126,-51.601C224.658,-41.2846 236.321,-28.0846 242.208,-19.5852"/>
<polygon fill="midnightblue" stroke="midnightblue" points="211.668,-49.1077 206.755,-58.4948 216.449,-54.22 211.668,-49.1077"/>
</g>
<!-- Node3 -->
<g id="node4" class="node"><title>Node3</title>
<a xlink:href="class_p_w_m.html" target="_top" xlink:title="PWM">
<polygon fill="white" stroke="black" points="106.5,-116.5 106.5,-135.5 147.5,-135.5 147.5,-116.5 106.5,-116.5"/>
<text text-anchor="middle" x="127" y="-123.5" font-family="Helvetica,sans-Serif" font-size="10.00">PWM</text>
</a>
</g>
<!-- Node3&#45;&gt;Node2 -->
<g id="edge4" class="edge"><title>Node3&#45;&gt;Node2</title>
<path fill="none" stroke="midnightblue" d="M139.932,-109.042C151.143,-98.7786 166.997,-85.8492 178.815,-77.5052"/>
<polygon fill="midnightblue" stroke="midnightblue" points="137.207,-106.805 132.406,-116.25 142.049,-111.86 137.207,-106.805"/>
</g>
<!-- Node3&#45;&gt;Node2 -->
<g id="edge26" class="edge"><title>Node3&#45;&gt;Node2</title>
<path fill="none" stroke="midnightblue" d="M150.353,-110.495C164.1,-100.058 180.198,-86.3321 188.755,-77.5852"/>
<polygon fill="midnightblue" stroke="midnightblue" points="148.172,-107.754 142.185,-116.495 152.317,-113.395 148.172,-107.754"/>
</g>
<!-- Node4 -->
<g id="node6" class="node"><title>Node4</title>
<a xlink:href="class_sensor_base.html" target="_top" xlink:title="SensorBase">
<polygon fill="white" stroke="black" points="0,-174.5 0,-193.5 70,-193.5 70,-174.5 0,-174.5"/>
<text text-anchor="middle" x="35" y="-181.5" font-family="Helvetica,sans-Serif" font-size="10.00">SensorBase</text>
</a>
</g>
<!-- Node4&#45;&gt;Node3 -->
<g id="edge6" class="edge"><title>Node4&#45;&gt;Node3</title>
<path fill="none" stroke="midnightblue" d="M52.3837,-168.789C68.2866,-158.317 91.4379,-144.415 107.869,-135.585"/>
<polygon fill="midnightblue" stroke="midnightblue" points="50.2787,-165.988 43.9635,-174.495 54.2053,-171.783 50.2787,-165.988"/>
</g>
<!-- Node4&#45;&gt;Node3 -->
<g id="edge18" class="edge"><title>Node4&#45;&gt;Node3</title>
<path fill="none" stroke="midnightblue" d="M62.7615,-169.662C81.5438,-159.101 104.99,-144.662 117.923,-135.585"/>
<polygon fill="midnightblue" stroke="midnightblue" points="61.0547,-166.606 53.9822,-174.495 64.4304,-172.738 61.0547,-166.606"/>
</g>
<!-- Node5 -->
<g id="node8" class="node"><title>Node5</title>
<a xlink:href="class_error_base.html" target="_top" xlink:title="ErrorBase">
<polygon fill="white" stroke="black" points="5,-232.5 5,-251.5 65,-251.5 65,-232.5 5,-232.5"/>
<text text-anchor="middle" x="35" y="-239.5" font-family="Helvetica,sans-Serif" font-size="10.00">ErrorBase</text>
</a>
</g>
<!-- Node5&#45;&gt;Node4 -->
<g id="edge8" class="edge"><title>Node5&#45;&gt;Node4</title>
<path fill="none" stroke="midnightblue" d="M35,-221.953C35,-212.287 35,-201.031 35,-193.505"/>
<polygon fill="midnightblue" stroke="midnightblue" points="31.5001,-222.25 35,-232.25 38.5001,-222.25 31.5001,-222.25"/>
</g>
<!-- Node6 -->
<g id="node10" class="node"><title>Node6</title>
<a xlink:href="class_error.html" target="_top" xlink:title="Error">
<polygon fill="white" stroke="black" points="16,-310.5 16,-329.5 54,-329.5 54,-310.5 16,-310.5"/>
<text text-anchor="middle" x="35" y="-317.5" font-family="Helvetica,sans-Serif" font-size="10.00">Error</text>
</a>
</g>
<!-- Node6&#45;&gt;Node5 -->
<g id="edge10" class="edge"><title>Node6&#45;&gt;Node5</title>
<path fill="none" stroke="#9a32cd" stroke-dasharray="5,2" d="M35,-300.224C35,-284.697 35,-263.358 35,-251.616"/>
<polygon fill="#9a32cd" stroke="#9a32cd" points="31.5001,-300.282 35,-310.282 38.5001,-300.282 31.5001,-300.282"/>
<text text-anchor="middle" x="62.5" y="-284" font-family="Helvetica,sans-Serif" font-size="10.00"> _globalError</text>
<text text-anchor="middle" x="62.5" y="-273" font-family="Helvetica,sans-Serif" font-size="10.00">m_error</text>
</g>
<!-- Node7 -->
<g id="node12" class="node"><title>Node7</title>
<polygon fill="white" stroke="#bfbfbf" points="88.5,-174.5 88.5,-193.5 165.5,-193.5 165.5,-174.5 88.5,-174.5"/>
<text text-anchor="middle" x="127" y="-181.5" font-family="Helvetica,sans-Serif" font-size="10.00">ITableListener</text>
</g>
<!-- Node7&#45;&gt;Node3 -->
<g id="edge12" class="edge"><title>Node7&#45;&gt;Node3</title>
<path fill="none" stroke="midnightblue" d="M120.59,-164.268C119.85,-154.533 120.317,-143.113 121.991,-135.505"/>
<polygon fill="midnightblue" stroke="midnightblue" points="117.131,-164.808 121.938,-174.25 124.068,-163.872 117.131,-164.808"/>
</g>
<!-- Node7&#45;&gt;Node3 -->
<g id="edge20" class="edge"><title>Node7&#45;&gt;Node3</title>
<path fill="none" stroke="midnightblue" d="M133.41,-164.268C134.15,-154.533 133.683,-143.113 132.009,-135.505"/>
<polygon fill="midnightblue" stroke="midnightblue" points="129.932,-163.872 132.063,-174.25 136.869,-164.808 129.932,-163.872"/>
</g>
<!-- Node8 -->
<g id="node14" class="node"><title>Node8</title>
<a xlink:href="class_live_window_sendable.html" target="_top" xlink:title="LiveWindowSendable">
<polygon fill="white" stroke="black" points="184,-174.5 184,-193.5 292,-193.5 292,-174.5 184,-174.5"/>
<text text-anchor="middle" x="238" y="-181.5" font-family="Helvetica,sans-Serif" font-size="10.00">LiveWindowSendable</text>
</a>
</g>
<!-- Node8&#45;&gt;Node3 -->
<g id="edge22" class="edge"><title>Node8&#45;&gt;Node3</title>
<path fill="none" stroke="midnightblue" d="M206.927,-170.234C184.382,-159.627 155.294,-144.827 138.99,-135.585"/>
<polygon fill="midnightblue" stroke="midnightblue" points="205.587,-173.471 216.132,-174.495 208.527,-167.118 205.587,-173.471"/>
</g>
<!-- Node8&#45;&gt;Node3 -->
<g id="edge14" class="edge"><title>Node8&#45;&gt;Node3</title>
<path fill="none" stroke="midnightblue" d="M217.244,-169.571C197.346,-158.803 167.783,-144.049 147.839,-135.039"/>
<polygon fill="midnightblue" stroke="midnightblue" points="215.706,-172.72 226.151,-174.495 219.092,-166.594 215.706,-172.72"/>
</g>
<!-- Node9 -->
<g id="node16" class="node"><title>Node9</title>
<a xlink:href="class_sendable.html" target="_top" xlink:title="Sendable">
<polygon fill="white" stroke="black" points="209.5,-232.5 209.5,-251.5 266.5,-251.5 266.5,-232.5 209.5,-232.5"/>
<text text-anchor="middle" x="238" y="-239.5" font-family="Helvetica,sans-Serif" font-size="10.00">Sendable</text>
</a>
</g>
<!-- Node9&#45;&gt;Node8 -->
<g id="edge16" class="edge"><title>Node9&#45;&gt;Node8</title>
<path fill="none" stroke="midnightblue" d="M238,-221.953C238,-212.287 238,-201.031 238,-193.505"/>
<polygon fill="midnightblue" stroke="midnightblue" points="234.5,-222.25 238,-232.25 241.5,-222.25 234.5,-222.25"/>
</g>
<!-- Node10 -->
<g id="node21" class="node"><title>Node10</title>
<a xlink:href="class_motor_safety.html" target="_top" xlink:title="MotorSafety">
<polygon fill="white" stroke="black" points="165.5,-116.5 165.5,-135.5 234.5,-135.5 234.5,-116.5 165.5,-116.5"/>
<text text-anchor="middle" x="200" y="-123.5" font-family="Helvetica,sans-Serif" font-size="10.00">MotorSafety</text>
</a>
</g>
<!-- Node10&#45;&gt;Node2 -->
<g id="edge24" class="edge"><title>Node10&#45;&gt;Node2</title>
<path fill="none" stroke="midnightblue" d="M191.583,-106.268C189.8,-96.5326 189.044,-85.113 189.902,-77.5052"/>
<polygon fill="midnightblue" stroke="midnightblue" points="188.245,-107.355 194,-116.25 195.048,-105.707 188.245,-107.355"/>
</g>
<!-- Node10&#45;&gt;Node2 -->
<g id="edge28" class="edge"><title>Node10&#45;&gt;Node2</title>
<path fill="none" stroke="midnightblue" d="M204.393,-105.953C204.063,-96.2875 202.382,-85.0312 199.921,-77.5052"/>
<polygon fill="midnightblue" stroke="midnightblue" points="200.886,-106.162 204.125,-116.25 207.884,-106.344 200.886,-106.162"/>
</g>
<!-- Node11 -->
<g id="node25" class="node"><title>Node11</title>
<a xlink:href="class_speed_controller.html" target="_top" xlink:title="SpeedController">
<polygon fill="white" stroke="black" points="243,-58.5 243,-77.5 329,-77.5 329,-58.5 243,-58.5"/>
<text text-anchor="middle" x="286" y="-65.5" font-family="Helvetica,sans-Serif" font-size="10.00">SpeedController</text>
</a>
</g>
<!-- Node11&#45;&gt;Node1 -->
<g id="edge30" class="edge"><title>Node11&#45;&gt;Node1</title>
<path fill="none" stroke="midnightblue" d="M267.902,-50.739C259.396,-40.5255 250.45,-27.7674 246.218,-19.5052"/>
<polygon fill="midnightblue" stroke="midnightblue" points="265.29,-53.0684 274.531,-58.25 270.538,-48.4364 265.29,-53.0684"/>
</g>
<!-- Node11&#45;&gt;Node1 -->
<g id="edge38" class="edge"><title>Node11&#45;&gt;Node1</title>
<path fill="none" stroke="midnightblue" d="M279.506,-49.514C273.07,-39.522 263.791,-27.4402 256.236,-19.5052"/>
<polygon fill="midnightblue" stroke="midnightblue" points="276.562,-51.4133 284.656,-58.25 282.592,-47.8581 276.562,-51.4133"/>
</g>
<!-- Node12 -->
<g id="node27" class="node"><title>Node12</title>
<a xlink:href="class_p_i_d_output.html" target="_top" xlink:title="PIDOutput">
<polygon fill="white" stroke="black" points="255,-116.5 255,-135.5 317,-135.5 317,-116.5 255,-116.5"/>
<text text-anchor="middle" x="286" y="-123.5" font-family="Helvetica,sans-Serif" font-size="10.00">PIDOutput</text>
</a>
</g>
<!-- Node12&#45;&gt;Node11 -->
<g id="edge32" class="edge"><title>Node12&#45;&gt;Node11</title>
<path fill="none" stroke="midnightblue" d="M279.59,-106.268C278.85,-96.5326 279.317,-85.113 280.991,-77.5052"/>
<polygon fill="midnightblue" stroke="midnightblue" points="276.131,-106.808 280.938,-116.25 283.068,-105.872 276.131,-106.808"/>
</g>
<!-- Node12&#45;&gt;Node11 -->
<g id="edge34" class="edge"><title>Node12&#45;&gt;Node11</title>
<path fill="none" stroke="midnightblue" d="M292.41,-106.268C293.15,-96.5326 292.683,-85.113 291.009,-77.5052"/>
<polygon fill="midnightblue" stroke="midnightblue" points="288.932,-105.872 291.063,-116.25 295.869,-106.808 288.932,-105.872"/>
</g>
</g>
</svg>
