<?xml version="1.0" encoding="UTF-8" standalone="no"?>
<!DOCTYPE svg PUBLIC "-//W3C//DTD SVG 1.1//EN"
 "http://www.w3.org/Graphics/SVG/1.1/DTD/svg11.dtd">
<!-- Generated by graphviz version 2.28.0 (20110507.0327)
 -->
<!-- Title: ASubsystem Pages: 1 -->
<svg width="174pt" height="196pt"
 viewBox="0.00 0.00 174.00 196.00" xmlns="http://www.w3.org/2000/svg" xmlns:xlink="http://www.w3.org/1999/xlink">
<g id="graph1" class="graph" transform="scale(1 1) rotate(0) translate(4 192)">
<title>ASubsystem</title>
<polygon fill="white" stroke="white" points="-4,5 -4,-192 171,-192 171,5 -4,5"/>
<!-- Node1 -->
<g id="node1" class="node"><title>Node1</title>
<polygon fill="#bfbfbf" stroke="black" points="39.5,-0.5 39.5,-19.5 112.5,-19.5 112.5,-0.5 39.5,-0.5"/>
<text text-anchor="middle" x="76" y="-7.5" font-family="Helvetica,sans-Serif" font-size="10.00">ASubsystem</text>
</g>
<!-- Node2 -->
<g id="node2" class="node"><title>Node2</title>
<a xlink:href="class_subsystem.html" target="_top" xlink:title="Subsystem">
<polygon fill="white" stroke="black" points="43,-56.5 43,-75.5 109,-75.5 109,-56.5 43,-56.5"/>
<text text-anchor="middle" x="76" y="-63.5" font-family="Helvetica,sans-Serif" font-size="10.00">Subsystem</text>
</a>
</g>
<!-- Node2&#45;&gt;Node1 -->
<g id="edge2" class="edge"><title>Node2&#45;&gt;Node1</title>
<path fill="none" stroke="midnightblue" d="M76,-45.8045C76,-36.9102 76,-26.7798 76,-19.7511"/>
<polygon fill="midnightblue" stroke="midnightblue" points="72.5001,-46.083 76,-56.083 79.5001,-46.083 72.5001,-46.083"/>
</g>
<!-- Node3 -->
<g id="node4" class="node"><title>Node3</title>
<a xlink:href="class_error_base.html" target="_top" xlink:title="ErrorBase">
<polygon fill="white" stroke="black" points="0,-112.5 0,-131.5 60,-131.5 60,-112.5 0,-112.5"/>
<text text-anchor="middle" x="30" y="-119.5" font-family="Helvetica,sans-Serif" font-size="10.00">ErrorBase</text>
</a>
</g>
<!-- Node3&#45;&gt;Node2 -->
<g id="edge4" class="edge"><title>Node3&#45;&gt;Node2</title>
<path fill="none" stroke="midnightblue" d="M44.114,-104.431C52.176,-94.9673 61.9592,-83.4827 68.5454,-75.7511"/>
<polygon fill="midnightblue" stroke="midnightblue" points="41.4163,-102.201 37.596,-112.083 46.745,-106.74 41.4163,-102.201"/>
</g>
<!-- Node4 -->
<g id="node6" class="node"><title>Node4</title>
<a xlink:href="class_named_sendable.html" target="_top" xlink:title="NamedSendable">
<polygon fill="white" stroke="black" points="78,-112.5 78,-131.5 166,-131.5 166,-112.5 78,-112.5"/>
<text text-anchor="middle" x="122" y="-119.5" font-family="Helvetica,sans-Serif" font-size="10.00">NamedSendable</text>
</a>
</g>
<!-- Node4&#45;&gt;Node2 -->
<g id="edge6" class="edge"><title>Node4&#45;&gt;Node2</title>
<path fill="none" stroke="midnightblue" d="M107.886,-104.431C99.824,-94.9673 90.0408,-83.4827 83.4546,-75.7511"/>
<polygon fill="midnightblue" stroke="midnightblue" points="105.255,-106.74 114.404,-112.083 110.584,-102.201 105.255,-106.74"/>
</g>
<!-- Node5 -->
<g id="node8" class="node"><title>Node5</title>
<a xlink:href="class_sendable.html" target="_top" xlink:title="Sendable">
<polygon fill="white" stroke="black" points="93.5,-168.5 93.5,-187.5 150.5,-187.5 150.5,-168.5 93.5,-168.5"/>
<text text-anchor="middle" x="122" y="-175.5" font-family="Helvetica,sans-Serif" font-size="10.00">Sendable</text>
</a>
</g>
<!-- Node5&#45;&gt;Node4 -->
<g id="edge8" class="edge"><title>Node5&#45;&gt;Node4</title>
<path fill="none" stroke="midnightblue" d="M122,-157.805C122,-148.91 122,-138.78 122,-131.751"/>
<polygon fill="midnightblue" stroke="midnightblue" points="118.5,-158.083 122,-168.083 125.5,-158.083 118.5,-158.083"/>
</g>
</g>
</svg>
