<?xml version="1.0" encoding="UTF-8" standalone="no"?>
<!DOCTYPE svg PUBLIC "-//W3C//DTD SVG 1.1//EN"
 "http://www.w3.org/Graphics/SVG/1.1/DTD/svg11.dtd">
<!-- Generated by graphviz version 2.28.0 (20110507.0327)
 -->
<!-- Title: CANJaguar::GetBusVoltage Pages: 1 -->
<svg width="480pt" height="38pt"
 viewBox="0.00 0.00 480.00 38.00" xmlns="http://www.w3.org/2000/svg" xmlns:xlink="http://www.w3.org/1999/xlink">
<g id="graph1" class="graph" transform="scale(1 1) rotate(0) translate(4 34)">
<title>CANJaguar::GetBusVoltage</title>
<polygon fill="white" stroke="white" points="-4,5 -4,-34 477,-34 477,5 -4,5"/>
<!-- Node1 -->
<g id="node1" class="node"><title>Node1</title>
<polygon fill="#bfbfbf" stroke="black" points="0.5,-5.5 0.5,-24.5 137.5,-24.5 137.5,-5.5 0.5,-5.5"/>
<text text-anchor="middle" x="69" y="-12.5" font-family="Helvetica,sans-Serif" font-size="10.00">CANJaguar::GetBusVoltage</text>
</g>
<!-- Node2 -->
<g id="node3" class="node"><title>Node2</title>
<a xlink:href="class_c_a_n_jaguar.html#a9436c9b85c0b008bb3276e7283176603" target="_top" xlink:title="CANJaguar::updatePeriodic\lStatus">
<polygon fill="white" stroke="black" points="174,-0 174,-30 310,-30 310,-0 174,-0"/>
<text text-anchor="start" x="182" y="-18" font-family="Helvetica,sans-Serif" font-size="10.00">CANJaguar::updatePeriodic</text>
<text text-anchor="middle" x="242" y="-7" font-family="Helvetica,sans-Serif" font-size="10.00">Status</text>
</a>
</g>
<!-- Node1&#45;&gt;Node2 -->
<g id="edge2" class="edge"><title>Node1&#45;&gt;Node2</title>
<path fill="none" stroke="midnightblue" d="M137.584,-15C146.172,-15 155.013,-15 163.739,-15"/>
<polygon fill="midnightblue" stroke="midnightblue" points="163.907,-18.5001 173.907,-15 163.907,-11.5001 163.907,-18.5001"/>
</g>
<!-- Node3 -->
<g id="node5" class="node"><title>Node3</title>
<a xlink:href="class_c_a_n_jaguar.html#a6bf10ae6a799ca57c6bf165e36ff91d1" target="_top" xlink:title="CANJaguar::getMessage">
<polygon fill="white" stroke="black" points="346.5,-5.5 346.5,-24.5 471.5,-24.5 471.5,-5.5 346.5,-5.5"/>
<text text-anchor="middle" x="409" y="-12.5" font-family="Helvetica,sans-Serif" font-size="10.00">CANJaguar::getMessage</text>
</a>
</g>
<!-- Node2&#45;&gt;Node3 -->
<g id="edge4" class="edge"><title>Node2&#45;&gt;Node3</title>
<path fill="none" stroke="midnightblue" d="M310.112,-15C318.705,-15 327.529,-15 336.193,-15"/>
<polygon fill="midnightblue" stroke="midnightblue" points="336.267,-18.5001 346.267,-15 336.267,-11.5001 336.267,-18.5001"/>
</g>
</g>
</svg>
