<?xml version="1.0" encoding="UTF-8" standalone="no"?>
<!DOCTYPE svg PUBLIC "-//W3C//DTD SVG 1.1//EN"
 "http://www.w3.org/Graphics/SVG/1.1/DTD/svg11.dtd">
<!-- Generated by graphviz version 2.28.0 (20110507.0327)
 -->
<!-- Title: PowerDistributionPanel::InitTable Pages: 1 -->
<svg width="630pt" height="136pt"
 viewBox="0.00 0.00 630.00 136.00" xmlns="http://www.w3.org/2000/svg" xmlns:xlink="http://www.w3.org/1999/xlink">
<g id="graph1" class="graph" transform="scale(1 1) rotate(0) translate(4 132)">
<title>PowerDistributionPanel::InitTable</title>
<polygon fill="white" stroke="white" points="-4,5 -4,-132 627,-132 627,5 -4,5"/>
<!-- Node1 -->
<g id="node1" class="node"><title>Node1</title>
<polygon fill="#bfbfbf" stroke="black" points="0.5,-49 0.5,-79 117.5,-79 117.5,-49 0.5,-49"/>
<text text-anchor="start" x="8.5" y="-67" font-family="Helvetica,sans-Serif" font-size="10.00">PowerDistributionPanel</text>
<text text-anchor="middle" x="59" y="-56" font-family="Helvetica,sans-Serif" font-size="10.00">::InitTable</text>
</g>
<!-- Node2 -->
<g id="node3" class="node"><title>Node2</title>
<a xlink:href="class_power_distribution_panel.html#aa371c1359b1529c45aeece524a94fc3b" target="_top" xlink:title="PowerDistributionPanel\l::UpdateTable">
<polygon fill="white" stroke="black" points="154.5,-49 154.5,-79 271.5,-79 271.5,-49 154.5,-49"/>
<text text-anchor="start" x="162.5" y="-67" font-family="Helvetica,sans-Serif" font-size="10.00">PowerDistributionPanel</text>
<text text-anchor="middle" x="213" y="-56" font-family="Helvetica,sans-Serif" font-size="10.00">::UpdateTable</text>
</a>
</g>
<!-- Node1&#45;&gt;Node2 -->
<g id="edge2" class="edge"><title>Node1&#45;&gt;Node2</title>
<path fill="none" stroke="midnightblue" d="M117.898,-64C126.461,-64 135.349,-64 144.093,-64"/>
<polygon fill="midnightblue" stroke="midnightblue" points="144.263,-67.5001 154.263,-64 144.263,-60.5001 144.263,-67.5001"/>
</g>
<!-- Node3 -->
<g id="node5" class="node"><title>Node3</title>
<a xlink:href="class_power_distribution_panel.html#a073d1d0222d5b0286310997715a225cc" target="_top" xlink:title="PowerDistributionPanel\l::GetCurrent">
<polygon fill="white" stroke="black" points="308.5,-98 308.5,-128 425.5,-128 425.5,-98 308.5,-98"/>
<text text-anchor="start" x="316.5" y="-116" font-family="Helvetica,sans-Serif" font-size="10.00">PowerDistributionPanel</text>
<text text-anchor="middle" x="367" y="-105" font-family="Helvetica,sans-Serif" font-size="10.00">::GetCurrent</text>
</a>
</g>
<!-- Node2&#45;&gt;Node3 -->
<g id="edge4" class="edge"><title>Node2&#45;&gt;Node3</title>
<path fill="none" stroke="midnightblue" d="M260.845,-79.1014C276.232,-84.0615 293.497,-89.6274 309.521,-94.7929"/>
<polygon fill="midnightblue" stroke="midnightblue" points="308.718,-98.2113 319.309,-97.9484 310.866,-91.549 308.718,-98.2113"/>
</g>
<!-- Node5 -->
<g id="node9" class="node"><title>Node5</title>
<a xlink:href="class_power_distribution_panel.html#a74ccaa2a3b2461916dac11edf2feea72" target="_top" xlink:title="PowerDistributionPanel\l::GetVoltage">
<polygon fill="white" stroke="black" points="308.5,-49 308.5,-79 425.5,-79 425.5,-49 308.5,-49"/>
<text text-anchor="start" x="316.5" y="-67" font-family="Helvetica,sans-Serif" font-size="10.00">PowerDistributionPanel</text>
<text text-anchor="middle" x="367" y="-56" font-family="Helvetica,sans-Serif" font-size="10.00">::GetVoltage</text>
</a>
</g>
<!-- Node2&#45;&gt;Node5 -->
<g id="edge8" class="edge"><title>Node2&#45;&gt;Node5</title>
<path fill="none" stroke="midnightblue" d="M271.898,-64C280.461,-64 289.349,-64 298.093,-64"/>
<polygon fill="midnightblue" stroke="midnightblue" points="298.263,-67.5001 308.263,-64 298.263,-60.5001 298.263,-67.5001"/>
</g>
<!-- Node6 -->
<g id="node11" class="node"><title>Node6</title>
<a xlink:href="class_power_distribution_panel.html#ae900ddd91b935bc667226328306010e7" target="_top" xlink:title="PowerDistributionPanel\l::GetTotalCurrent">
<polygon fill="white" stroke="black" points="308.5,-0 308.5,-30 425.5,-30 425.5,-0 308.5,-0"/>
<text text-anchor="start" x="316.5" y="-18" font-family="Helvetica,sans-Serif" font-size="10.00">PowerDistributionPanel</text>
<text text-anchor="middle" x="367" y="-7" font-family="Helvetica,sans-Serif" font-size="10.00">::GetTotalCurrent</text>
</a>
</g>
<!-- Node2&#45;&gt;Node6 -->
<g id="edge10" class="edge"><title>Node2&#45;&gt;Node6</title>
<path fill="none" stroke="midnightblue" d="M260.845,-48.8986C276.232,-43.9385 293.497,-38.3726 309.521,-33.2071"/>
<polygon fill="midnightblue" stroke="midnightblue" points="310.866,-36.451 319.309,-30.0516 308.718,-29.7887 310.866,-36.451"/>
</g>
<!-- Node4 -->
<g id="node7" class="node"><title>Node4</title>
<a xlink:href="class_sensor_base.html#a3ec58d60b04fe85afbdbf92302bc1bba" target="_top" xlink:title="SensorBase::CheckPDPChannel">
<polygon fill="white" stroke="black" points="462.5,-103.5 462.5,-122.5 621.5,-122.5 621.5,-103.5 462.5,-103.5"/>
<text text-anchor="middle" x="542" y="-110.5" font-family="Helvetica,sans-Serif" font-size="10.00">SensorBase::CheckPDPChannel</text>
</a>
</g>
<!-- Node3&#45;&gt;Node4 -->
<g id="edge6" class="edge"><title>Node3&#45;&gt;Node4</title>
<path fill="none" stroke="midnightblue" d="M425.606,-113C434.176,-113 443.174,-113 452.205,-113"/>
<polygon fill="midnightblue" stroke="midnightblue" points="452.394,-116.5 462.394,-113 452.394,-109.5 452.394,-116.5"/>
</g>
</g>
</svg>
