<?xml version="1.0" encoding="UTF-8" standalone="no"?>
<!DOCTYPE svg PUBLIC "-//W3C//DTD SVG 1.1//EN"
 "http://www.w3.org/Graphics/SVG/1.1/DTD/svg11.dtd">
<!-- Generated by graphviz version 2.28.0 (20110507.0327)
 -->
<!-- Title: AnalogAccelerometer::GetAcceleration Pages: 1 -->
<svg width="410pt" height="87pt"
 viewBox="0.00 0.00 410.00 87.00" xmlns="http://www.w3.org/2000/svg" xmlns:xlink="http://www.w3.org/1999/xlink">
<g id="graph1" class="graph" transform="scale(1 1) rotate(0) translate(4 83)">
<title>AnalogAccelerometer::GetAcceleration</title>
<polygon fill="white" stroke="white" points="-4,5 -4,-83 407,-83 407,5 -4,5"/>
<!-- Node1 -->
<g id="node1" class="node"><title>Node1</title>
<polygon fill="#bfbfbf" stroke="black" points="0,-24 0,-54 110,-54 110,-24 0,-24"/>
<text text-anchor="start" x="8" y="-42" font-family="Helvetica,sans-Serif" font-size="10.00">AnalogAccelerometer</text>
<text text-anchor="middle" x="55" y="-31" font-family="Helvetica,sans-Serif" font-size="10.00">::GetAcceleration</text>
</g>
<!-- Node2 -->
<g id="node3" class="node"><title>Node2</title>
<a xlink:href="class_analog_accelerometer.html#ab0bfe1a3e2940c5e6938aa2f86c92fd8" target="_top" xlink:title="AnalogAccelerometer\l::PIDGet">
<polygon fill="white" stroke="black" points="146,-49 146,-79 256,-79 256,-49 146,-49"/>
<text text-anchor="start" x="154" y="-67" font-family="Helvetica,sans-Serif" font-size="10.00">AnalogAccelerometer</text>
<text text-anchor="middle" x="201" y="-56" font-family="Helvetica,sans-Serif" font-size="10.00">::PIDGet</text>
</a>
</g>
<!-- Node1&#45;&gt;Node2 -->
<g id="edge2" class="edge"><title>Node1&#45;&gt;Node2</title>
<path fill="none" stroke="midnightblue" d="M119.991,-50.1095C128.561,-51.5974 137.284,-53.1119 145.667,-54.5672"/>
<polygon fill="midnightblue" stroke="midnightblue" points="120.481,-46.6424 110.03,-48.3802 119.284,-53.5392 120.481,-46.6424"/>
</g>
<!-- Node3 -->
<g id="node5" class="node"><title>Node3</title>
<a xlink:href="class_analog_accelerometer.html#a4506c2606a6a840ed32b9e9c0ff96a9b" target="_top" xlink:title="AnalogAccelerometer\l::UpdateTable">
<polygon fill="white" stroke="black" points="146,-0 146,-30 256,-30 256,-0 146,-0"/>
<text text-anchor="start" x="154" y="-18" font-family="Helvetica,sans-Serif" font-size="10.00">AnalogAccelerometer</text>
<text text-anchor="middle" x="201" y="-7" font-family="Helvetica,sans-Serif" font-size="10.00">::UpdateTable</text>
</a>
</g>
<!-- Node1&#45;&gt;Node3 -->
<g id="edge4" class="edge"><title>Node1&#45;&gt;Node3</title>
<path fill="none" stroke="midnightblue" d="M119.991,-28.3349C128.561,-26.9065 137.284,-25.4526 145.667,-24.0555"/>
<polygon fill="midnightblue" stroke="midnightblue" points="119.318,-24.8986 110.03,-29.995 120.469,-31.8033 119.318,-24.8986"/>
</g>
<!-- Node4 -->
<g id="node7" class="node"><title>Node4</title>
<a xlink:href="class_analog_accelerometer.html#af1c0dc939fcd0671eeaa8a25e9a28611" target="_top" xlink:title="AnalogAccelerometer\l::InitTable">
<polygon fill="white" stroke="black" points="292,-0 292,-30 402,-30 402,-0 292,-0"/>
<text text-anchor="start" x="300" y="-18" font-family="Helvetica,sans-Serif" font-size="10.00">AnalogAccelerometer</text>
<text text-anchor="middle" x="347" y="-7" font-family="Helvetica,sans-Serif" font-size="10.00">::InitTable</text>
</a>
</g>
<!-- Node3&#45;&gt;Node4 -->
<g id="edge6" class="edge"><title>Node3&#45;&gt;Node4</title>
<path fill="none" stroke="midnightblue" d="M266.27,-15C274.75,-15 283.375,-15 291.667,-15"/>
<polygon fill="midnightblue" stroke="midnightblue" points="266.03,-11.5001 256.03,-15 266.03,-18.5001 266.03,-11.5001"/>
</g>
</g>
</svg>
