<?xml version="1.0" encoding="UTF-8" standalone="no"?>
<!DOCTYPE svg PUBLIC "-//W3C//DTD SVG 1.1//EN"
 "http://www.w3.org/Graphics/SVG/1.1/DTD/svg11.dtd">
<!-- Generated by graphviz version 2.28.0 (20110507.0327)
 -->
<!-- Title: Victor::Disable Pages: 1 -->
<svg width="366pt" height="28pt"
 viewBox="0.00 0.00 366.00 28.00" xmlns="http://www.w3.org/2000/svg" xmlns:xlink="http://www.w3.org/1999/xlink">
<g id="graph1" class="graph" transform="scale(1 1) rotate(0) translate(4 24)">
<title>Victor::Disable</title>
<polygon fill="white" stroke="white" points="-4,5 -4,-24 363,-24 363,5 -4,5"/>
<!-- Node1 -->
<g id="node1" class="node"><title>Node1</title>
<polygon fill="#bfbfbf" stroke="black" points="0,-0.5 0,-19.5 80,-19.5 80,-0.5 0,-0.5"/>
<text text-anchor="middle" x="40" y="-7.5" font-family="Helvetica,sans-Serif" font-size="10.00">Victor::Disable</text>
</g>
<!-- Node2 -->
<g id="node3" class="node"><title>Node2</title>
<a xlink:href="class_p_w_m.html#a0c546e1aa7d5d091447a819e50fae9ca" target="_top" xlink:title="PWM::SetRaw">
<polygon fill="white" stroke="black" points="116.5,-0.5 116.5,-19.5 197.5,-19.5 197.5,-0.5 116.5,-0.5"/>
<text text-anchor="middle" x="157" y="-7.5" font-family="Helvetica,sans-Serif" font-size="10.00">PWM::SetRaw</text>
</a>
</g>
<!-- Node1&#45;&gt;Node2 -->
<g id="edge2" class="edge"><title>Node1&#45;&gt;Node2</title>
<path fill="none" stroke="midnightblue" d="M80.2548,-10C88.5794,-10 97.4732,-10 106.132,-10"/>
<polygon fill="midnightblue" stroke="midnightblue" points="106.14,-13.5001 116.14,-10 106.14,-6.5001 106.14,-13.5001"/>
</g>
<!-- Node3 -->
<g id="node5" class="node"><title>Node3</title>
<a xlink:href="class_error_base.html#a05790f219c9e436a09752f73f7344024" target="_top" xlink:title="Check if the current error code represents a fatal error. ">
<polygon fill="white" stroke="black" points="234,-0.5 234,-19.5 358,-19.5 358,-0.5 234,-0.5"/>
<text text-anchor="middle" x="296" y="-7.5" font-family="Helvetica,sans-Serif" font-size="10.00">ErrorBase::StatusIsFatal</text>
</a>
</g>
<!-- Node2&#45;&gt;Node3 -->
<g id="edge4" class="edge"><title>Node2&#45;&gt;Node3</title>
<path fill="none" stroke="midnightblue" d="M197.626,-10C205.837,-10 214.725,-10 223.677,-10"/>
<polygon fill="midnightblue" stroke="midnightblue" points="223.78,-13.5001 233.78,-10 223.78,-6.5001 223.78,-13.5001"/>
</g>
</g>
</svg>
