<?xml version="1.0" encoding="UTF-8" standalone="no"?>
<!DOCTYPE svg PUBLIC "-//W3C//DTD SVG 1.1//EN"
 "http://www.w3.org/Graphics/SVG/1.1/DTD/svg11.dtd">
<!-- Generated by graphviz version 2.28.0 (20110507.0327)
 -->
<!-- Title: Subsystem::Subsystem Pages: 1 -->
<svg width="318pt" height="66pt"
 viewBox="0.00 0.00 318.00 66.00" xmlns="http://www.w3.org/2000/svg" xmlns:xlink="http://www.w3.org/1999/xlink">
<g id="graph1" class="graph" transform="scale(1 1) rotate(0) translate(4 62)">
<title>Subsystem::Subsystem</title>
<polygon fill="white" stroke="white" points="-4,5 -4,-62 315,-62 315,5 -4,5"/>
<!-- Node1 -->
<g id="node1" class="node"><title>Node1</title>
<polygon fill="#bfbfbf" stroke="black" points="0,-19.5 0,-38.5 122,-38.5 122,-19.5 0,-19.5"/>
<text text-anchor="middle" x="61" y="-26.5" font-family="Helvetica,sans-Serif" font-size="10.00">Subsystem::Subsystem</text>
</g>
<!-- Node2 -->
<g id="node3" class="node"><title>Node2</title>
<a xlink:href="class_scheduler.html#a5cc7ff43cb79880d28586b07ec967070" target="_top" xlink:title="Scheduler::GetInstance">
<polygon fill="white" stroke="black" points="174.5,-38.5 174.5,-57.5 293.5,-57.5 293.5,-38.5 174.5,-38.5"/>
<text text-anchor="middle" x="234" y="-45.5" font-family="Helvetica,sans-Serif" font-size="10.00">Scheduler::GetInstance</text>
</a>
</g>
<!-- Node1&#45;&gt;Node2 -->
<g id="edge2" class="edge"><title>Node1&#45;&gt;Node2</title>
<path fill="none" stroke="midnightblue" d="M122.288,-35.6987C135.906,-37.2118 150.462,-38.8291 164.394,-40.3771"/>
<polygon fill="midnightblue" stroke="midnightblue" points="164.08,-43.8637 174.406,-41.4895 164.853,-36.9065 164.08,-43.8637"/>
</g>
<!-- Node3 -->
<g id="node5" class="node"><title>Node3</title>
<a xlink:href="class_scheduler.html#a639c534a0655c5ab230046669e5aa081" target="_top" xlink:title="Scheduler::RegisterSubsystem">
<polygon fill="white" stroke="black" points="158,-0.5 158,-19.5 310,-19.5 310,-0.5 158,-0.5"/>
<text text-anchor="middle" x="234" y="-7.5" font-family="Helvetica,sans-Serif" font-size="10.00">Scheduler::RegisterSubsystem</text>
</a>
</g>
<!-- Node1&#45;&gt;Node3 -->
<g id="edge4" class="edge"><title>Node1&#45;&gt;Node3</title>
<path fill="none" stroke="midnightblue" d="M122.288,-22.3013C130.582,-21.3798 139.223,-20.4197 147.859,-19.4601"/>
<polygon fill="midnightblue" stroke="midnightblue" points="148.421,-22.9193 157.974,-18.3363 147.648,-15.9621 148.421,-22.9193"/>
</g>
</g>
</svg>
