<?xml version="1.0" encoding="UTF-8" standalone="no"?>
<!DOCTYPE svg PUBLIC "-//W3C//DTD SVG 1.1//EN"
 "http://www.w3.org/Graphics/SVG/1.1/DTD/svg11.dtd">
<!-- Generated by graphviz version 2.28.0 (20110507.0327)
 -->
<!-- Title: Command Pages: 1 -->
<svg width="584pt" height="294pt"
 viewBox="0.00 0.00 584.00 294.00" xmlns="http://www.w3.org/2000/svg" xmlns:xlink="http://www.w3.org/1999/xlink">
<g id="graph1" class="graph" transform="scale(1 1) rotate(0) translate(4 290)">
<title>Command</title>
<polygon fill="white" stroke="white" points="-4,5 -4,-290 581,-290 581,5 -4,5"/>
<!-- Node1 -->
<g id="node1" class="node"><title>Node1</title>
<polygon fill="#bfbfbf" stroke="black" points="218.5,-133.5 218.5,-152.5 279.5,-152.5 279.5,-133.5 218.5,-133.5"/>
<text text-anchor="middle" x="249" y="-140.5" font-family="Helvetica,sans-Serif" font-size="10.00">Command</text>
</g>
<!-- Node6 -->
<g id="node11" class="node"><title>Node6</title>
<a xlink:href="class_command_group.html" target="_top" xlink:title="CommandGroup">
<polygon fill="white" stroke="black" points="323.5,-266.5 323.5,-285.5 410.5,-285.5 410.5,-266.5 323.5,-266.5"/>
<text text-anchor="middle" x="367" y="-273.5" font-family="Helvetica,sans-Serif" font-size="10.00">CommandGroup</text>
</a>
</g>
<!-- Node1&#45;&gt;Node6 -->
<g id="edge10" class="edge"><title>Node1&#45;&gt;Node6</title>
<path fill="none" stroke="midnightblue" d="M256.483,-162.231C265.863,-187.324 285.508,-231.078 316,-257 320.528,-260.849 325.917,-263.962 331.454,-266.465"/>
<polygon fill="midnightblue" stroke="midnightblue" points="259.748,-160.967 253.09,-152.726 253.156,-163.32 259.748,-160.967"/>
</g>
<!-- Node7 -->
<g id="node13" class="node"><title>Node7</title>
<a xlink:href="class_mock_command.html" target="_top" xlink:title="MockCommand">
<polygon fill="white" stroke="black" points="324.5,-228.5 324.5,-247.5 409.5,-247.5 409.5,-228.5 324.5,-228.5"/>
<text text-anchor="middle" x="367" y="-235.5" font-family="Helvetica,sans-Serif" font-size="10.00">MockCommand</text>
</a>
</g>
<!-- Node1&#45;&gt;Node7 -->
<g id="edge12" class="edge"><title>Node1&#45;&gt;Node7</title>
<path fill="none" stroke="midnightblue" d="M261.707,-161.008C273.58,-178.02 293.391,-203.217 316,-219 321.406,-222.774 327.66,-225.916 333.875,-228.486"/>
<polygon fill="midnightblue" stroke="midnightblue" points="264.461,-158.833 255.96,-152.511 258.663,-162.755 264.461,-158.833"/>
</g>
<!-- Node9 -->
<g id="node17" class="node"><title>Node9</title>
<a xlink:href="class_p_i_d_command.html" target="_top" xlink:title="PIDCommand">
<polygon fill="white" stroke="black" points="328.5,-190.5 328.5,-209.5 405.5,-209.5 405.5,-190.5 328.5,-190.5"/>
<text text-anchor="middle" x="367" y="-197.5" font-family="Helvetica,sans-Serif" font-size="10.00">PIDCommand</text>
</a>
</g>
<!-- Node1&#45;&gt;Node9 -->
<g id="edge16" class="edge"><title>Node1&#45;&gt;Node9</title>
<path fill="none" stroke="midnightblue" d="M273.851,-157.963C286.182,-165.38 301.625,-174.184 316,-181 323.132,-184.382 331.04,-187.613 338.423,-190.42"/>
<polygon fill="midnightblue" stroke="midnightblue" points="275.456,-154.842 265.097,-152.617 271.807,-160.816 275.456,-154.842"/>
</g>
<!-- Node10 -->
<g id="node19" class="node"><title>Node10</title>
<a xlink:href="class_print_command.html" target="_top" xlink:title="PrintCommand">
<polygon fill="white" stroke="black" points="326.5,-152.5 326.5,-171.5 407.5,-171.5 407.5,-152.5 326.5,-152.5"/>
<text text-anchor="middle" x="367" y="-159.5" font-family="Helvetica,sans-Serif" font-size="10.00">PrintCommand</text>
</a>
</g>
<!-- Node1&#45;&gt;Node10 -->
<g id="edge18" class="edge"><title>Node1&#45;&gt;Node10</title>
<path fill="none" stroke="midnightblue" d="M289.654,-149.495C301.526,-151.44 314.543,-153.572 326.411,-155.516"/>
<polygon fill="midnightblue" stroke="midnightblue" points="290.006,-146.006 279.572,-147.844 288.875,-152.914 290.006,-146.006"/>
</g>
<!-- Node11 -->
<g id="node21" class="node"><title>Node11</title>
<a xlink:href="class_start_command.html" target="_top" xlink:title="StartCommand">
<polygon fill="white" stroke="black" points="326,-114.5 326,-133.5 408,-133.5 408,-114.5 326,-114.5"/>
<text text-anchor="middle" x="367" y="-121.5" font-family="Helvetica,sans-Serif" font-size="10.00">StartCommand</text>
</a>
</g>
<!-- Node1&#45;&gt;Node11 -->
<g id="edge20" class="edge"><title>Node1&#45;&gt;Node11</title>
<path fill="none" stroke="midnightblue" d="M289.555,-136.521C301.31,-134.596 314.193,-132.486 325.977,-130.556"/>
<polygon fill="midnightblue" stroke="midnightblue" points="288.875,-133.086 279.572,-138.156 290.006,-139.994 288.875,-133.086"/>
</g>
<!-- Node12 -->
<g id="node23" class="node"><title>Node12</title>
<a xlink:href="class_wait_command.html" target="_top" xlink:title="WaitCommand">
<polygon fill="white" stroke="black" points="326.5,-76.5 326.5,-95.5 407.5,-95.5 407.5,-76.5 326.5,-76.5"/>
<text text-anchor="middle" x="367" y="-83.5" font-family="Helvetica,sans-Serif" font-size="10.00">WaitCommand</text>
</a>
</g>
<!-- Node1&#45;&gt;Node12 -->
<g id="edge22" class="edge"><title>Node1&#45;&gt;Node12</title>
<path fill="none" stroke="midnightblue" d="M273.851,-128.037C286.182,-120.62 301.625,-111.816 316,-105 323.132,-101.618 331.04,-98.3874 338.423,-95.5803"/>
<polygon fill="midnightblue" stroke="midnightblue" points="271.807,-125.184 265.097,-133.383 275.456,-131.158 271.807,-125.184"/>
</g>
<!-- Node13 -->
<g id="node25" class="node"><title>Node13</title>
<a xlink:href="class_wait_for_children.html" target="_top" xlink:title="WaitForChildren">
<polygon fill="white" stroke="black" points="324,-38.5 324,-57.5 410,-57.5 410,-38.5 324,-38.5"/>
<text text-anchor="middle" x="367" y="-45.5" font-family="Helvetica,sans-Serif" font-size="10.00">WaitForChildren</text>
</a>
</g>
<!-- Node1&#45;&gt;Node13 -->
<g id="edge24" class="edge"><title>Node1&#45;&gt;Node13</title>
<path fill="none" stroke="midnightblue" d="M261.707,-124.992C273.58,-107.98 293.391,-82.7826 316,-67 321.406,-63.2261 327.66,-60.084 333.875,-57.5137"/>
<polygon fill="midnightblue" stroke="midnightblue" points="258.663,-123.245 255.96,-133.489 264.461,-127.167 258.663,-123.245"/>
</g>
<!-- Node14 -->
<g id="node27" class="node"><title>Node14</title>
<a xlink:href="class_wait_until_command.html" target="_top" xlink:title="WaitUntilCommand">
<polygon fill="white" stroke="black" points="316.5,-0.5 316.5,-19.5 417.5,-19.5 417.5,-0.5 316.5,-0.5"/>
<text text-anchor="middle" x="367" y="-7.5" font-family="Helvetica,sans-Serif" font-size="10.00">WaitUntilCommand</text>
</a>
</g>
<!-- Node1&#45;&gt;Node14 -->
<g id="edge26" class="edge"><title>Node1&#45;&gt;Node14</title>
<path fill="none" stroke="midnightblue" d="M256.483,-123.769C265.863,-98.6761 285.508,-54.9221 316,-29 320.528,-25.1506 325.917,-22.0384 331.454,-19.5353"/>
<polygon fill="midnightblue" stroke="midnightblue" points="253.156,-122.68 253.09,-133.274 259.748,-125.033 253.156,-122.68"/>
</g>
<!-- Node2 -->
<g id="node2" class="node"><title>Node2</title>
<a xlink:href="class_error_base.html" target="_top" xlink:title="ErrorBase">
<polygon fill="white" stroke="black" points="108,-171.5 108,-190.5 168,-190.5 168,-171.5 108,-171.5"/>
<text text-anchor="middle" x="138" y="-178.5" font-family="Helvetica,sans-Serif" font-size="10.00">ErrorBase</text>
</a>
</g>
<!-- Node2&#45;&gt;Node1 -->
<g id="edge2" class="edge"><title>Node2&#45;&gt;Node1</title>
<path fill="none" stroke="midnightblue" d="M176.209,-168.028C190.73,-162.966 207.079,-157.266 220.503,-152.586"/>
<polygon fill="midnightblue" stroke="midnightblue" points="174.796,-164.814 166.505,-171.411 177.1,-171.424 174.796,-164.814"/>
</g>
<!-- Node3 -->
<g id="node4" class="node"><title>Node3</title>
<a xlink:href="class_named_sendable.html" target="_top" xlink:title="NamedSendable">
<polygon fill="white" stroke="black" points="94,-133.5 94,-152.5 182,-152.5 182,-133.5 94,-133.5"/>
<text text-anchor="middle" x="138" y="-140.5" font-family="Helvetica,sans-Serif" font-size="10.00">NamedSendable</text>
</a>
</g>
<!-- Node3&#45;&gt;Node1 -->
<g id="edge4" class="edge"><title>Node3&#45;&gt;Node1</title>
<path fill="none" stroke="midnightblue" d="M192.163,-143C201.159,-143 210.203,-143 218.314,-143"/>
<polygon fill="midnightblue" stroke="midnightblue" points="192.08,-139.5 182.08,-143 192.08,-146.5 192.08,-139.5"/>
</g>
<!-- Node4 -->
<g id="node6" class="node"><title>Node4</title>
<a xlink:href="class_sendable.html" target="_top" xlink:title="Sendable">
<polygon fill="white" stroke="black" points="0.5,-133.5 0.5,-152.5 57.5,-152.5 57.5,-133.5 0.5,-133.5"/>
<text text-anchor="middle" x="29" y="-140.5" font-family="Helvetica,sans-Serif" font-size="10.00">Sendable</text>
</a>
</g>
<!-- Node4&#45;&gt;Node3 -->
<g id="edge6" class="edge"><title>Node4&#45;&gt;Node3</title>
<path fill="none" stroke="midnightblue" d="M67.8139,-143C76.2069,-143 85.1648,-143 93.7561,-143"/>
<polygon fill="midnightblue" stroke="midnightblue" points="67.5552,-139.5 57.5552,-143 67.5551,-146.5 67.5552,-139.5"/>
</g>
<!-- Node5 -->
<g id="node8" class="node"><title>Node5</title>
<polygon fill="white" stroke="#bfbfbf" points="99.5,-95.5 99.5,-114.5 176.5,-114.5 176.5,-95.5 99.5,-95.5"/>
<text text-anchor="middle" x="138" y="-102.5" font-family="Helvetica,sans-Serif" font-size="10.00">ITableListener</text>
</g>
<!-- Node5&#45;&gt;Node1 -->
<g id="edge8" class="edge"><title>Node5&#45;&gt;Node1</title>
<path fill="none" stroke="midnightblue" d="M176.209,-117.972C190.73,-123.034 207.079,-128.734 220.503,-133.414"/>
<polygon fill="midnightblue" stroke="midnightblue" points="177.1,-114.576 166.505,-114.589 174.796,-121.186 177.1,-114.576"/>
</g>
<!-- Node8 -->
<g id="node15" class="node"><title>Node8</title>
<a xlink:href="class_modified_mock_command.html" target="_top" xlink:title="ModifiedMockCommand">
<polygon fill="white" stroke="black" points="454.5,-228.5 454.5,-247.5 575.5,-247.5 575.5,-228.5 454.5,-228.5"/>
<text text-anchor="middle" x="515" y="-235.5" font-family="Helvetica,sans-Serif" font-size="10.00">ModifiedMockCommand</text>
</a>
</g>
<!-- Node7&#45;&gt;Node8 -->
<g id="edge14" class="edge"><title>Node7&#45;&gt;Node8</title>
<path fill="none" stroke="midnightblue" d="M419.886,-238C431.086,-238 443.011,-238 454.477,-238"/>
<polygon fill="midnightblue" stroke="midnightblue" points="419.838,-234.5 409.838,-238 419.838,-241.5 419.838,-234.5"/>
</g>
</g>
</svg>
