<?xml version="1.0" encoding="UTF-8" standalone="no"?>
<!DOCTYPE svg PUBLIC "-//W3C//DTD SVG 1.1//EN"
 "http://www.w3.org/Graphics/SVG/1.1/DTD/svg11.dtd">
<!-- Generated by graphviz version 2.28.0 (20110507.0327)
 -->
<!-- Title: Talon::Get Pages: 1 -->
<svg width="476pt" height="47pt"
 viewBox="0.00 0.00 476.00 47.00" xmlns="http://www.w3.org/2000/svg" xmlns:xlink="http://www.w3.org/1999/xlink">
<g id="graph1" class="graph" transform="scale(1 1) rotate(0) translate(4 43)">
<title>Talon::Get</title>
<polygon fill="white" stroke="white" points="-4,5 -4,-43 473,-43 473,5 -4,5"/>
<!-- Node1 -->
<g id="node1" class="node"><title>Node1</title>
<polygon fill="#bfbfbf" stroke="black" points="0,-19.5 0,-38.5 62,-38.5 62,-19.5 0,-19.5"/>
<text text-anchor="middle" x="31" y="-26.5" font-family="Helvetica,sans-Serif" font-size="10.00">Talon::Get</text>
</g>
<!-- Node2 -->
<g id="node3" class="node"><title>Node2</title>
<a xlink:href="class_p_w_m.html#a42b209cbe7e63732918cbbcb55bfaac7" target="_top" xlink:title="PWM::GetSpeed">
<polygon fill="white" stroke="black" points="98.5,-19.5 98.5,-38.5 189.5,-38.5 189.5,-19.5 98.5,-19.5"/>
<text text-anchor="middle" x="144" y="-26.5" font-family="Helvetica,sans-Serif" font-size="10.00">PWM::GetSpeed</text>
</a>
</g>
<!-- Node1&#45;&gt;Node2 -->
<g id="edge2" class="edge"><title>Node1&#45;&gt;Node2</title>
<path fill="none" stroke="midnightblue" d="M62.0382,-29C70.1552,-29 79.1998,-29 88.2191,-29"/>
<polygon fill="midnightblue" stroke="midnightblue" points="88.3406,-32.5001 98.3406,-29 88.3406,-25.5001 88.3406,-32.5001"/>
</g>
<!-- Node3 -->
<g id="node5" class="node"><title>Node3</title>
<a xlink:href="class_error_base.html#a05790f219c9e436a09752f73f7344024" target="_top" xlink:title="Check if the current error code represents a fatal error. ">
<polygon fill="white" stroke="black" points="344,-19.5 344,-38.5 468,-38.5 468,-19.5 344,-19.5"/>
<text text-anchor="middle" x="406" y="-26.5" font-family="Helvetica,sans-Serif" font-size="10.00">ErrorBase::StatusIsFatal</text>
</a>
</g>
<!-- Node2&#45;&gt;Node3 -->
<g id="edge4" class="edge"><title>Node2&#45;&gt;Node3</title>
<path fill="none" stroke="midnightblue" d="M189.696,-29C229.245,-29 287.655,-29 333.661,-29"/>
<polygon fill="midnightblue" stroke="midnightblue" points="333.873,-32.5001 343.873,-29 333.873,-25.5001 333.873,-32.5001"/>
</g>
<!-- Node4 -->
<g id="node7" class="node"><title>Node4</title>
<a xlink:href="class_p_w_m.html#afe21d7814cd2c51c0652fbf9f58af958" target="_top" xlink:title="PWM::GetRaw">
<polygon fill="white" stroke="black" points="226,-0.5 226,-19.5 308,-19.5 308,-0.5 226,-0.5"/>
<text text-anchor="middle" x="267" y="-7.5" font-family="Helvetica,sans-Serif" font-size="10.00">PWM::GetRaw</text>
</a>
</g>
<!-- Node2&#45;&gt;Node4 -->
<g id="edge6" class="edge"><title>Node2&#45;&gt;Node4</title>
<path fill="none" stroke="midnightblue" d="M189.712,-21.9791C198.228,-20.6418 207.193,-19.2341 215.865,-17.8724"/>
<polygon fill="midnightblue" stroke="midnightblue" points="216.53,-21.3109 225.866,-16.302 215.444,-14.3957 216.53,-21.3109"/>
</g>
<!-- Node4&#45;&gt;Node3 -->
<g id="edge8" class="edge"><title>Node4&#45;&gt;Node3</title>
<path fill="none" stroke="midnightblue" d="M308.364,-15.5979C316.362,-16.7072 324.981,-17.9025 333.66,-19.1062"/>
<polygon fill="midnightblue" stroke="midnightblue" points="333.458,-22.6115 343.844,-20.5185 334.419,-15.6779 333.458,-22.6115"/>
</g>
</g>
</svg>
