<?xml version="1.0" encoding="UTF-8" standalone="no"?>
<!DOCTYPE svg PUBLIC "-//W3C//DTD SVG 1.1//EN"
 "http://www.w3.org/Graphics/SVG/1.1/DTD/svg11.dtd">
<!-- Generated by graphviz version 2.28.0 (20110507.0327)
 -->
<!-- Title: PIDController::GetP Pages: 1 -->
<svg width="422pt" height="66pt"
 viewBox="0.00 0.00 422.00 66.00" xmlns="http://www.w3.org/2000/svg" xmlns:xlink="http://www.w3.org/1999/xlink">
<g id="graph1" class="graph" transform="scale(1 1) rotate(0) translate(4 62)">
<title>PIDController::GetP</title>
<polygon fill="white" stroke="white" points="-4,5 -4,-62 419,-62 419,5 -4,5"/>
<!-- Node1 -->
<g id="node1" class="node"><title>Node1</title>
<polygon fill="#bfbfbf" stroke="black" points="0,-19.5 0,-38.5 102,-38.5 102,-19.5 0,-19.5"/>
<text text-anchor="middle" x="51" y="-26.5" font-family="Helvetica,sans-Serif" font-size="10.00">PIDController::GetP</text>
</g>
<!-- Node2 -->
<g id="node3" class="node"><title>Node2</title>
<a xlink:href="class_p_i_d_controller.html#af6e51e6973aad270d6e9320b65d363d2" target="_top" xlink:title="PIDController::InitTable">
<polygon fill="white" stroke="black" points="138,-19.5 138,-38.5 254,-38.5 254,-19.5 138,-19.5"/>
<text text-anchor="middle" x="196" y="-26.5" font-family="Helvetica,sans-Serif" font-size="10.00">PIDController::InitTable</text>
</a>
</g>
<!-- Node1&#45;&gt;Node2 -->
<g id="edge2" class="edge"><title>Node1&#45;&gt;Node2</title>
<path fill="none" stroke="midnightblue" d="M112.247,-29C120.752,-29 129.475,-29 137.918,-29"/>
<polygon fill="midnightblue" stroke="midnightblue" points="112.014,-25.5001 102.014,-29 112.014,-32.5001 112.014,-25.5001"/>
</g>
<!-- Node3 -->
<g id="node5" class="node"><title>Node3</title>
<a xlink:href="class_p_i_d_command.html#aca89a102a75fc9fc9d8eaa4472a8af35" target="_top" xlink:title="PIDCommand::InitTable">
<polygon fill="white" stroke="black" points="292.5,-38.5 292.5,-57.5 411.5,-57.5 411.5,-38.5 292.5,-38.5"/>
<text text-anchor="middle" x="352" y="-45.5" font-family="Helvetica,sans-Serif" font-size="10.00">PIDCommand::InitTable</text>
</a>
</g>
<!-- Node2&#45;&gt;Node3 -->
<g id="edge4" class="edge"><title>Node2&#45;&gt;Node3</title>
<path fill="none" stroke="midnightblue" d="M264.353,-37.3098C273.671,-38.4594 283.18,-39.6325 292.323,-40.7606"/>
<polygon fill="midnightblue" stroke="midnightblue" points="264.697,-33.8258 254.344,-36.0749 263.84,-40.7731 264.697,-33.8258"/>
</g>
<!-- Node4 -->
<g id="node7" class="node"><title>Node4</title>
<a xlink:href="class_p_i_d_subsystem.html#a0fbee3092f4cdc044d5f1fd96dfbd7d4" target="_top" xlink:title="PIDSubsystem::InitTable">
<polygon fill="white" stroke="black" points="290,-0.5 290,-19.5 414,-19.5 414,-0.5 290,-0.5"/>
<text text-anchor="middle" x="352" y="-7.5" font-family="Helvetica,sans-Serif" font-size="10.00">PIDSubsystem::InitTable</text>
</a>
</g>
<!-- Node2&#45;&gt;Node4 -->
<g id="edge6" class="edge"><title>Node2&#45;&gt;Node4</title>
<path fill="none" stroke="midnightblue" d="M264.283,-20.6988C272.836,-19.6437 281.551,-18.5684 289.997,-17.5264"/>
<polygon fill="midnightblue" stroke="midnightblue" points="263.84,-17.2269 254.344,-21.9251 264.697,-24.1742 263.84,-17.2269"/>
</g>
</g>
</svg>
