<?xml version="1.0" encoding="UTF-8" standalone="no"?>
<!DOCTYPE svg PUBLIC "-//W3C//DTD SVG 1.1//EN"
 "http://www.w3.org/Graphics/SVG/1.1/DTD/svg11.dtd">
<!-- Generated by graphviz version 2.28.0 (20110507.0327)
 -->
<!-- Title: GearTooth::GearTooth Pages: 1 -->
<svg width="640pt" height="38pt"
 viewBox="0.00 0.00 640.00 38.00" xmlns="http://www.w3.org/2000/svg" xmlns:xlink="http://www.w3.org/1999/xlink">
<g id="graph1" class="graph" transform="scale(1 1) rotate(0) translate(4 34)">
<title>GearTooth::GearTooth</title>
<polygon fill="white" stroke="white" points="-4,5 -4,-34 637,-34 637,5 -4,5"/>
<!-- Node1 -->
<g id="node1" class="node"><title>Node1</title>
<polygon fill="#bfbfbf" stroke="black" points="0.5,-5.5 0.5,-24.5 113.5,-24.5 113.5,-5.5 0.5,-5.5"/>
<text text-anchor="middle" x="57" y="-12.5" font-family="Helvetica,sans-Serif" font-size="10.00">GearTooth::GearTooth</text>
</g>
<!-- Node2 -->
<g id="node3" class="node"><title>Node2</title>
<a xlink:href="class_gear_tooth.html#a0bec962d2920dc28f8d4ef53b5fa2c65" target="_top" xlink:title="GearTooth::EnableDirection\lSensing">
<polygon fill="white" stroke="black" points="150,-0 150,-30 286,-30 286,-0 150,-0"/>
<text text-anchor="start" x="158" y="-18" font-family="Helvetica,sans-Serif" font-size="10.00">GearTooth::EnableDirection</text>
<text text-anchor="middle" x="218" y="-7" font-family="Helvetica,sans-Serif" font-size="10.00">Sensing</text>
</a>
</g>
<!-- Node1&#45;&gt;Node2 -->
<g id="edge2" class="edge"><title>Node1&#45;&gt;Node2</title>
<path fill="none" stroke="midnightblue" d="M113.61,-15C122.042,-15 130.87,-15 139.662,-15"/>
<polygon fill="midnightblue" stroke="midnightblue" points="139.941,-18.5001 149.941,-15 139.941,-11.5001 139.941,-18.5001"/>
</g>
<!-- Node3 -->
<g id="node5" class="node"><title>Node3</title>
<a xlink:href="class_counter.html#adc8d4c41b26c8654fe3775afdb6439f5" target="_top" xlink:title="Counter::SetPulseLengthMode">
<polygon fill="white" stroke="black" points="322.5,-5.5 322.5,-24.5 471.5,-24.5 471.5,-5.5 322.5,-5.5"/>
<text text-anchor="middle" x="397" y="-12.5" font-family="Helvetica,sans-Serif" font-size="10.00">Counter::SetPulseLengthMode</text>
</a>
</g>
<!-- Node2&#45;&gt;Node3 -->
<g id="edge4" class="edge"><title>Node2&#45;&gt;Node3</title>
<path fill="none" stroke="midnightblue" d="M286.168,-15C294.674,-15 303.459,-15 312.182,-15"/>
<polygon fill="midnightblue" stroke="midnightblue" points="312.375,-18.5001 322.375,-15 312.375,-11.5001 312.375,-18.5001"/>
</g>
<!-- Node4 -->
<g id="node7" class="node"><title>Node4</title>
<a xlink:href="class_error_base.html#a05790f219c9e436a09752f73f7344024" target="_top" xlink:title="Check if the current error code represents a fatal error. ">
<polygon fill="white" stroke="black" points="508,-5.5 508,-24.5 632,-24.5 632,-5.5 508,-5.5"/>
<text text-anchor="middle" x="570" y="-12.5" font-family="Helvetica,sans-Serif" font-size="10.00">ErrorBase::StatusIsFatal</text>
</a>
</g>
<!-- Node3&#45;&gt;Node4 -->
<g id="edge6" class="edge"><title>Node3&#45;&gt;Node4</title>
<path fill="none" stroke="midnightblue" d="M471.512,-15C480.23,-15 489.118,-15 497.803,-15"/>
<polygon fill="midnightblue" stroke="midnightblue" points="497.884,-18.5001 507.884,-15 497.884,-11.5001 497.884,-18.5001"/>
</g>
</g>
</svg>
