<?xml version="1.0" encoding="UTF-8" standalone="no"?>
<!DOCTYPE svg PUBLIC "-//W3C//DTD SVG 1.1//EN"
 "http://www.w3.org/Graphics/SVG/1.1/DTD/svg11.dtd">
<!-- Generated by graphviz version 2.28.0 (20110507.0327)
 -->
<!-- Title: Command::Initialize Pages: 1 -->
<svg width="350pt" height="28pt"
 viewBox="0.00 0.00 350.00 28.00" xmlns="http://www.w3.org/2000/svg" xmlns:xlink="http://www.w3.org/1999/xlink">
<g id="graph1" class="graph" transform="scale(1 1) rotate(0) translate(4 24)">
<title>Command::Initialize</title>
<polygon fill="white" stroke="white" points="-4,5 -4,-24 347,-24 347,5 -4,5"/>
<!-- Node1 -->
<g id="node1" class="node"><title>Node1</title>
<polygon fill="#bfbfbf" stroke="black" points="0,-0.5 0,-19.5 102,-19.5 102,-0.5 0,-0.5"/>
<text text-anchor="middle" x="51" y="-7.5" font-family="Helvetica,sans-Serif" font-size="10.00">Command::Initialize</text>
</g>
<!-- Node2 -->
<g id="node3" class="node"><title>Node2</title>
<a xlink:href="class_command.html#ae10d99a6cec39f82aa9cb3dc289a45eb" target="_top" xlink:title="Command::Run">
<polygon fill="white" stroke="black" points="138,-0.5 138,-19.5 222,-19.5 222,-0.5 138,-0.5"/>
<text text-anchor="middle" x="180" y="-7.5" font-family="Helvetica,sans-Serif" font-size="10.00">Command::Run</text>
</a>
</g>
<!-- Node1&#45;&gt;Node2 -->
<g id="edge2" class="edge"><title>Node1&#45;&gt;Node2</title>
<path fill="none" stroke="midnightblue" d="M112.252,-10C120.885,-10 129.598,-10 137.75,-10"/>
<polygon fill="midnightblue" stroke="midnightblue" points="112.194,-6.5001 102.194,-10 112.194,-13.5001 112.194,-6.5001"/>
</g>
<!-- Node3 -->
<g id="node5" class="node"><title>Node3</title>
<a xlink:href="class_scheduler.html#a6e17233143754873d7f29860047de2c1" target="_top" xlink:title="Scheduler::Run">
<polygon fill="white" stroke="black" points="258.5,-0.5 258.5,-19.5 341.5,-19.5 341.5,-0.5 258.5,-0.5"/>
<text text-anchor="middle" x="300" y="-7.5" font-family="Helvetica,sans-Serif" font-size="10.00">Scheduler::Run</text>
</a>
</g>
<!-- Node2&#45;&gt;Node3 -->
<g id="edge4" class="edge"><title>Node2&#45;&gt;Node3</title>
<path fill="none" stroke="midnightblue" d="M232.337,-10C241.04,-10 249.969,-10 258.35,-10"/>
<polygon fill="midnightblue" stroke="midnightblue" points="232.271,-6.5001 222.271,-10 232.271,-13.5001 232.271,-6.5001"/>
</g>
</g>
</svg>
