<?xml version="1.0" encoding="UTF-8" standalone="no"?>
<!DOCTYPE svg PUBLIC "-//W3C//DTD SVG 1.1//EN"
 "http://www.w3.org/Graphics/SVG/1.1/DTD/svg11.dtd">
<!-- Generated by graphviz version 2.28.0 (20110507.0327)
 -->
<!-- Title: PIDSubsystem Pages: 1 -->
<svg width="261pt" height="222pt"
 viewBox="0.00 0.00 261.00 222.00" xmlns="http://www.w3.org/2000/svg" xmlns:xlink="http://www.w3.org/1999/xlink">
<g id="graph1" class="graph" transform="scale(1 1) rotate(0) translate(4 218)">
<title>PIDSubsystem</title>
<polygon fill="white" stroke="white" points="-4,5 -4,-218 258,-218 258,5 -4,5"/>
<!-- Node1 -->
<g id="node1" class="node"><title>Node1</title>
<polygon fill="#bfbfbf" stroke="black" points="100,-0.5 100,-19.5 182,-19.5 182,-0.5 100,-0.5"/>
<text text-anchor="middle" x="141" y="-7.5" font-family="Helvetica,sans-Serif" font-size="10.00">PIDSubsystem</text>
</g>
<!-- Node2 -->
<g id="node2" class="node"><title>Node2</title>
<a xlink:href="class_subsystem.html" target="_top" xlink:title="Subsystem">
<polygon fill="white" stroke="black" points="26,-58.5 26,-77.5 92,-77.5 92,-58.5 26,-58.5"/>
<text text-anchor="middle" x="59" y="-65.5" font-family="Helvetica,sans-Serif" font-size="10.00">Subsystem</text>
</a>
</g>
<!-- Node2&#45;&gt;Node1 -->
<g id="edge2" class="edge"><title>Node2&#45;&gt;Node1</title>
<path fill="none" stroke="midnightblue" d="M79.8084,-52.7894C95.143,-42.317 115.5,-28.4147 128.429,-19.5852"/>
<polygon fill="midnightblue" stroke="midnightblue" points="77.7382,-49.9648 71.454,-58.4948 81.6859,-55.7455 77.7382,-49.9648"/>
</g>
<!-- Node3 -->
<g id="node4" class="node"><title>Node3</title>
<a xlink:href="class_error_base.html" target="_top" xlink:title="ErrorBase">
<polygon fill="white" stroke="black" points="0,-116.5 0,-135.5 60,-135.5 60,-116.5 0,-116.5"/>
<text text-anchor="middle" x="30" y="-123.5" font-family="Helvetica,sans-Serif" font-size="10.00">ErrorBase</text>
</a>
</g>
<!-- Node3&#45;&gt;Node2 -->
<g id="edge4" class="edge"><title>Node3&#45;&gt;Node2</title>
<path fill="none" stroke="midnightblue" d="M39.2156,-107.204C44.3584,-97.2734 50.5287,-85.3584 54.5955,-77.5052"/>
<polygon fill="midnightblue" stroke="midnightblue" points="36.0219,-105.761 34.5313,-116.25 42.2378,-108.98 36.0219,-105.761"/>
</g>
<!-- Node4 -->
<g id="node6" class="node"><title>Node4</title>
<a xlink:href="class_error.html" target="_top" xlink:title="Error">
<polygon fill="white" stroke="black" points="11,-194.5 11,-213.5 49,-213.5 49,-194.5 11,-194.5"/>
<text text-anchor="middle" x="30" y="-201.5" font-family="Helvetica,sans-Serif" font-size="10.00">Error</text>
</a>
</g>
<!-- Node4&#45;&gt;Node3 -->
<g id="edge6" class="edge"><title>Node4&#45;&gt;Node3</title>
<path fill="none" stroke="#9a32cd" stroke-dasharray="5,2" d="M30,-184.224C30,-168.697 30,-147.358 30,-135.616"/>
<polygon fill="#9a32cd" stroke="#9a32cd" points="26.5001,-184.282 30,-194.282 33.5001,-184.282 26.5001,-184.282"/>
<text text-anchor="middle" x="57.5" y="-168" font-family="Helvetica,sans-Serif" font-size="10.00"> _globalError</text>
<text text-anchor="middle" x="57.5" y="-157" font-family="Helvetica,sans-Serif" font-size="10.00">m_error</text>
</g>
<!-- Node5 -->
<g id="node8" class="node"><title>Node5</title>
<a xlink:href="class_named_sendable.html" target="_top" xlink:title="NamedSendable">
<polygon fill="white" stroke="black" points="78,-116.5 78,-135.5 166,-135.5 166,-116.5 78,-116.5"/>
<text text-anchor="middle" x="122" y="-123.5" font-family="Helvetica,sans-Serif" font-size="10.00">NamedSendable</text>
</a>
</g>
<!-- Node5&#45;&gt;Node2 -->
<g id="edge8" class="edge"><title>Node5&#45;&gt;Node2</title>
<path fill="none" stroke="midnightblue" d="M104.676,-109.601C93.0702,-99.2846 78.2202,-86.0846 68.6584,-77.5852"/>
<polygon fill="midnightblue" stroke="midnightblue" points="102.632,-112.467 112.432,-116.495 107.283,-107.235 102.632,-112.467"/>
</g>
<!-- Node6 -->
<g id="node10" class="node"><title>Node6</title>
<a xlink:href="class_sendable.html" target="_top" xlink:title="Sendable">
<polygon fill="white" stroke="black" points="93.5,-194.5 93.5,-213.5 150.5,-213.5 150.5,-194.5 93.5,-194.5"/>
<text text-anchor="middle" x="122" y="-201.5" font-family="Helvetica,sans-Serif" font-size="10.00">Sendable</text>
</a>
</g>
<!-- Node6&#45;&gt;Node5 -->
<g id="edge10" class="edge"><title>Node6&#45;&gt;Node5</title>
<path fill="none" stroke="midnightblue" d="M122,-184.224C122,-168.697 122,-147.358 122,-135.616"/>
<polygon fill="midnightblue" stroke="midnightblue" points="118.5,-184.282 122,-194.282 125.5,-184.282 118.5,-184.282"/>
</g>
<!-- Node7 -->
<g id="node12" class="node"><title>Node7</title>
<a xlink:href="class_p_i_d_output.html" target="_top" xlink:title="PIDOutput">
<polygon fill="white" stroke="black" points="110,-58.5 110,-77.5 172,-77.5 172,-58.5 110,-58.5"/>
<text text-anchor="middle" x="141" y="-65.5" font-family="Helvetica,sans-Serif" font-size="10.00">PIDOutput</text>
</a>
</g>
<!-- Node7&#45;&gt;Node1 -->
<g id="edge12" class="edge"><title>Node7&#45;&gt;Node1</title>
<path fill="none" stroke="midnightblue" d="M141,-47.953C141,-38.2875 141,-27.0312 141,-19.5052"/>
<polygon fill="midnightblue" stroke="midnightblue" points="137.5,-48.25 141,-58.25 144.5,-48.25 137.5,-48.25"/>
</g>
<!-- Node8 -->
<g id="node14" class="node"><title>Node8</title>
<a xlink:href="class_p_i_d_source.html" target="_top" xlink:title="PIDSource">
<polygon fill="white" stroke="black" points="190.5,-58.5 190.5,-77.5 253.5,-77.5 253.5,-58.5 190.5,-58.5"/>
<text text-anchor="middle" x="222" y="-65.5" font-family="Helvetica,sans-Serif" font-size="10.00">PIDSource</text>
</a>
</g>
<!-- Node8&#45;&gt;Node1 -->
<g id="edge14" class="edge"><title>Node8&#45;&gt;Node1</title>
<path fill="none" stroke="midnightblue" d="M201.445,-52.7894C186.298,-42.317 166.189,-28.4147 153.418,-19.5852"/>
<polygon fill="midnightblue" stroke="midnightblue" points="199.482,-55.6869 209.698,-58.4948 203.463,-49.929 199.482,-55.6869"/>
</g>
</g>
</svg>
