<?xml version="1.0" encoding="UTF-8" standalone="no"?>
<!DOCTYPE svg PUBLIC "-//W3C//DTD SVG 1.1//EN"
 "http://www.w3.org/Graphics/SVG/1.1/DTD/svg11.dtd">
<!-- Generated by graphviz version 2.28.0 (20110507.0327)
 -->
<!-- Title: SerialPort::SerialPort Pages: 1 -->
<svg width="304pt" height="104pt"
 viewBox="0.00 0.00 304.00 104.00" xmlns="http://www.w3.org/2000/svg" xmlns:xlink="http://www.w3.org/1999/xlink">
<g id="graph1" class="graph" transform="scale(1 1) rotate(0) translate(4 100)">
<title>SerialPort::SerialPort</title>
<polygon fill="white" stroke="white" points="-4,5 -4,-100 301,-100 301,5 -4,5"/>
<!-- Node1 -->
<g id="node1" class="node"><title>Node1</title>
<polygon fill="#bfbfbf" stroke="black" points="0,-38.5 0,-57.5 108,-57.5 108,-38.5 0,-38.5"/>
<text text-anchor="middle" x="54" y="-45.5" font-family="Helvetica,sans-Serif" font-size="10.00">SerialPort::SerialPort</text>
</g>
<!-- Node2 -->
<g id="node3" class="node"><title>Node2</title>
<a xlink:href="class_serial_port.html#aa3ad209dd5ab32427fccf711b476d8bf" target="_top" xlink:title="SerialPort::SetTimeout">
<polygon fill="white" stroke="black" points="162.5,-76.5 162.5,-95.5 277.5,-95.5 277.5,-76.5 162.5,-76.5"/>
<text text-anchor="middle" x="220" y="-83.5" font-family="Helvetica,sans-Serif" font-size="10.00">SerialPort::SetTimeout</text>
</a>
</g>
<!-- Node1&#45;&gt;Node2 -->
<g id="edge2" class="edge"><title>Node1&#45;&gt;Node2</title>
<path fill="none" stroke="midnightblue" d="M96.3841,-57.589C118.123,-62.6261 144.957,-68.8438 167.975,-74.1771"/>
<polygon fill="midnightblue" stroke="midnightblue" points="167.381,-77.6323 177.913,-76.4799 168.962,-70.8129 167.381,-77.6323"/>
</g>
<!-- Node3 -->
<g id="node5" class="node"><title>Node3</title>
<a xlink:href="class_serial_port.html#a1fd9a6370da04fee0bdc978d04a95c78" target="_top" xlink:title="SerialPort::SetWriteBufferMode">
<polygon fill="white" stroke="black" points="144,-38.5 144,-57.5 296,-57.5 296,-38.5 144,-38.5"/>
<text text-anchor="middle" x="220" y="-45.5" font-family="Helvetica,sans-Serif" font-size="10.00">SerialPort::SetWriteBufferMode</text>
</a>
</g>
<!-- Node1&#45;&gt;Node3 -->
<g id="edge4" class="edge"><title>Node1&#45;&gt;Node3</title>
<path fill="none" stroke="midnightblue" d="M108.246,-48C116.447,-48 125.088,-48 133.777,-48"/>
<polygon fill="midnightblue" stroke="midnightblue" points="133.976,-51.5001 143.976,-48 133.976,-44.5001 133.976,-51.5001"/>
</g>
<!-- Node4 -->
<g id="node7" class="node"><title>Node4</title>
<a xlink:href="class_serial_port.html#a90e27c4191d7ac4e46c614f562505b68" target="_top" xlink:title="SerialPort::EnableTermination">
<polygon fill="white" stroke="black" points="147,-0.5 147,-19.5 293,-19.5 293,-0.5 147,-0.5"/>
<text text-anchor="middle" x="220" y="-7.5" font-family="Helvetica,sans-Serif" font-size="10.00">SerialPort::EnableTermination</text>
</a>
</g>
<!-- Node1&#45;&gt;Node4 -->
<g id="edge6" class="edge"><title>Node1&#45;&gt;Node4</title>
<path fill="none" stroke="midnightblue" d="M96.3841,-38.411C118.123,-33.3739 144.957,-27.1562 167.975,-21.8229"/>
<polygon fill="midnightblue" stroke="midnightblue" points="168.962,-25.1871 177.913,-19.5201 167.381,-18.3677 168.962,-25.1871"/>
</g>
</g>
</svg>
