<?xml version="1.0" encoding="UTF-8" standalone="no"?>
<!DOCTYPE svg PUBLIC "-//W3C//DTD SVG 1.1//EN"
 "http://www.w3.org/Graphics/SVG/1.1/DTD/svg11.dtd">
<!-- Generated by graphviz version 2.28.0 (20110507.0327)
 -->
<!-- Title: Ultrasonic::IsRangeValid Pages: 1 -->
<svg width="400pt" height="28pt"
 viewBox="0.00 0.00 400.00 28.00" xmlns="http://www.w3.org/2000/svg" xmlns:xlink="http://www.w3.org/1999/xlink">
<g id="graph1" class="graph" transform="scale(1 1) rotate(0) translate(4 24)">
<title>Ultrasonic::IsRangeValid</title>
<polygon fill="white" stroke="white" points="-4,5 -4,-24 397,-24 397,5 -4,5"/>
<!-- Node1 -->
<g id="node1" class="node"><title>Node1</title>
<polygon fill="#bfbfbf" stroke="black" points="0.5,-0.5 0.5,-19.5 123.5,-19.5 123.5,-0.5 0.5,-0.5"/>
<text text-anchor="middle" x="62" y="-7.5" font-family="Helvetica,sans-Serif" font-size="10.00">Ultrasonic::IsRangeValid</text>
</g>
<!-- Node2 -->
<g id="node3" class="node"><title>Node2</title>
<a xlink:href="class_counter.html#a72086dbd17d7baf28bacfb13562af6b6" target="_top" xlink:title="Counter::Get">
<polygon fill="white" stroke="black" points="160,-0.5 160,-19.5 232,-19.5 232,-0.5 160,-0.5"/>
<text text-anchor="middle" x="196" y="-7.5" font-family="Helvetica,sans-Serif" font-size="10.00">Counter::Get</text>
</a>
</g>
<!-- Node1&#45;&gt;Node2 -->
<g id="edge2" class="edge"><title>Node1&#45;&gt;Node2</title>
<path fill="none" stroke="midnightblue" d="M123.591,-10C132.457,-10 141.454,-10 149.936,-10"/>
<polygon fill="midnightblue" stroke="midnightblue" points="149.984,-13.5001 159.984,-10 149.984,-6.5001 149.984,-13.5001"/>
</g>
<!-- Node3 -->
<g id="node5" class="node"><title>Node3</title>
<a xlink:href="class_error_base.html#a05790f219c9e436a09752f73f7344024" target="_top" xlink:title="Check if the current error code represents a fatal error. ">
<polygon fill="white" stroke="black" points="268,-0.5 268,-19.5 392,-19.5 392,-0.5 268,-0.5"/>
<text text-anchor="middle" x="330" y="-7.5" font-family="Helvetica,sans-Serif" font-size="10.00">ErrorBase::StatusIsFatal</text>
</a>
</g>
<!-- Node2&#45;&gt;Node3 -->
<g id="edge4" class="edge"><title>Node2&#45;&gt;Node3</title>
<path fill="none" stroke="midnightblue" d="M232.027,-10C240.018,-10 248.793,-10 257.697,-10"/>
<polygon fill="midnightblue" stroke="midnightblue" points="257.77,-13.5001 267.77,-10 257.77,-6.5001 257.77,-13.5001"/>
</g>
</g>
</svg>
