<?xml version="1.0" encoding="UTF-8" standalone="no"?>
<!DOCTYPE svg PUBLIC "-//W3C//DTD SVG 1.1//EN"
 "http://www.w3.org/Graphics/SVG/1.1/DTD/svg11.dtd">
<!-- Generated by graphviz version 2.28.0 (20110507.0327)
 -->
<!-- Title: Ultrasonic::IsRangeValid Pages: 1 -->
<svg width="606pt" height="104pt"
 viewBox="0.00 0.00 606.00 104.00" xmlns="http://www.w3.org/2000/svg" xmlns:xlink="http://www.w3.org/1999/xlink">
<g id="graph1" class="graph" transform="scale(1 1) rotate(0) translate(4 100)">
<title>Ultrasonic::IsRangeValid</title>
<polygon fill="white" stroke="white" points="-4,5 -4,-100 603,-100 603,5 -4,5"/>
<!-- Node1 -->
<g id="node1" class="node"><title>Node1</title>
<polygon fill="#bfbfbf" stroke="black" points="0.5,-38.5 0.5,-57.5 123.5,-57.5 123.5,-38.5 0.5,-38.5"/>
<text text-anchor="middle" x="62" y="-45.5" font-family="Helvetica,sans-Serif" font-size="10.00">Ultrasonic::IsRangeValid</text>
</g>
<!-- Node2 -->
<g id="node3" class="node"><title>Node2</title>
<a xlink:href="class_ultrasonic.html#a73c80fe92b2085107714c6a110d90d70" target="_top" xlink:title="Ultrasonic::GetRangeInches">
<polygon fill="white" stroke="black" points="160,-38.5 160,-57.5 298,-57.5 298,-38.5 160,-38.5"/>
<text text-anchor="middle" x="229" y="-45.5" font-family="Helvetica,sans-Serif" font-size="10.00">Ultrasonic::GetRangeInches</text>
</a>
</g>
<!-- Node1&#45;&gt;Node2 -->
<g id="edge2" class="edge"><title>Node1&#45;&gt;Node2</title>
<path fill="none" stroke="midnightblue" d="M133.645,-48C142.376,-48 151.288,-48 159.978,-48"/>
<polygon fill="midnightblue" stroke="midnightblue" points="133.503,-44.5001 123.503,-48 133.503,-51.5001 133.503,-44.5001"/>
</g>
<!-- Node3 -->
<g id="node5" class="node"><title>Node3</title>
<a xlink:href="class_ultrasonic.html#af35c9a3273f1ffcf0eb17308d986d7c0" target="_top" xlink:title="Ultrasonic::GetRangeMM">
<polygon fill="white" stroke="black" points="334,-76.5 334,-95.5 460,-95.5 460,-76.5 334,-76.5"/>
<text text-anchor="middle" x="397" y="-83.5" font-family="Helvetica,sans-Serif" font-size="10.00">Ultrasonic::GetRangeMM</text>
</a>
</g>
<!-- Node2&#45;&gt;Node3 -->
<g id="edge4" class="edge"><title>Node2&#45;&gt;Node3</title>
<path fill="none" stroke="midnightblue" d="M281.653,-59.8243C305.056,-65.1816 332.357,-71.4311 354.412,-76.4799"/>
<polygon fill="midnightblue" stroke="midnightblue" points="282.418,-56.4088 271.889,-57.589 280.856,-63.2323 282.418,-56.4088"/>
</g>
<!-- Node4 -->
<g id="node7" class="node"><title>Node4</title>
<a xlink:href="class_ultrasonic.html#a8ec6de749ccd7e93b28735e9cc6d0b22" target="_top" xlink:title="Ultrasonic::PIDGet">
<polygon fill="white" stroke="black" points="498,-57.5 498,-76.5 596,-76.5 596,-57.5 498,-57.5"/>
<text text-anchor="middle" x="547" y="-64.5" font-family="Helvetica,sans-Serif" font-size="10.00">Ultrasonic::PIDGet</text>
</a>
</g>
<!-- Node2&#45;&gt;Node4 -->
<g id="edge8" class="edge"><title>Node2&#45;&gt;Node4</title>
<path fill="none" stroke="midnightblue" d="M308.285,-52.707C367.757,-56.2829 447.646,-61.0863 497.982,-64.1129"/>
<polygon fill="midnightblue" stroke="midnightblue" points="308.37,-49.2059 298.178,-52.0993 307.95,-56.1933 308.37,-49.2059"/>
</g>
<!-- Node5 -->
<g id="node10" class="node"><title>Node5</title>
<a xlink:href="class_ultrasonic.html#aa91dcad8c1595bd3c4bdd3e798afb736" target="_top" xlink:title="Ultrasonic::UpdateTable">
<polygon fill="white" stroke="black" points="337,-0.5 337,-19.5 457,-19.5 457,-0.5 337,-0.5"/>
<text text-anchor="middle" x="397" y="-7.5" font-family="Helvetica,sans-Serif" font-size="10.00">Ultrasonic::UpdateTable</text>
</a>
</g>
<!-- Node2&#45;&gt;Node5 -->
<g id="edge10" class="edge"><title>Node2&#45;&gt;Node5</title>
<path fill="none" stroke="midnightblue" d="M281.653,-36.1757C305.056,-30.8184 332.357,-24.5689 354.412,-19.5201"/>
<polygon fill="midnightblue" stroke="midnightblue" points="280.856,-32.7677 271.889,-38.411 282.418,-39.5912 280.856,-32.7677"/>
</g>
<!-- Node3&#45;&gt;Node4 -->
<g id="edge6" class="edge"><title>Node3&#45;&gt;Node4</title>
<path fill="none" stroke="midnightblue" d="M470.351,-76.7116C479.619,-75.5219 488.921,-74.3278 497.675,-73.2038"/>
<polygon fill="midnightblue" stroke="midnightblue" points="469.809,-73.2524 460.336,-77.9974 470.701,-80.1954 469.809,-73.2524"/>
</g>
<!-- Node6 -->
<g id="node12" class="node"><title>Node6</title>
<a xlink:href="class_ultrasonic.html#a63320495a2d314cbc09cc9e4b6d1569d" target="_top" xlink:title="Ultrasonic::InitTable">
<polygon fill="white" stroke="black" points="496,-0.5 496,-19.5 598,-19.5 598,-0.5 496,-0.5"/>
<text text-anchor="middle" x="547" y="-7.5" font-family="Helvetica,sans-Serif" font-size="10.00">Ultrasonic::InitTable</text>
</a>
</g>
<!-- Node5&#45;&gt;Node6 -->
<g id="edge12" class="edge"><title>Node5&#45;&gt;Node6</title>
<path fill="none" stroke="midnightblue" d="M467.567,-10C477.051,-10 486.632,-10 495.684,-10"/>
<polygon fill="midnightblue" stroke="midnightblue" points="467.345,-6.5001 457.344,-10 467.344,-13.5001 467.345,-6.5001"/>
</g>
</g>
</svg>
