<?xml version="1.0" encoding="UTF-8" standalone="no"?>
<!DOCTYPE svg PUBLIC "-//W3C//DTD SVG 1.1//EN"
 "http://www.w3.org/Graphics/SVG/1.1/DTD/svg11.dtd">
<!-- Generated by graphviz version 2.28.0 (20110507.0327)
 -->
<!-- Title: AnalogInput::GetAverageVoltage Pages: 1 -->
<svg width="622pt" height="145pt"
 viewBox="0.00 0.00 622.00 145.00" xmlns="http://www.w3.org/2000/svg" xmlns:xlink="http://www.w3.org/1999/xlink">
<g id="graph1" class="graph" transform="scale(1 1) rotate(0) translate(4 141)">
<title>AnalogInput::GetAverageVoltage</title>
<polygon fill="white" stroke="white" points="-4,5 -4,-141 619,-141 619,5 -4,5"/>
<!-- Node1 -->
<g id="node1" class="node"><title>Node1</title>
<polygon fill="#bfbfbf" stroke="black" points="0.5,-38.5 0.5,-57.5 157.5,-57.5 157.5,-38.5 0.5,-38.5"/>
<text text-anchor="middle" x="79" y="-45.5" font-family="Helvetica,sans-Serif" font-size="10.00">AnalogInput::GetAverageVoltage</text>
</g>
<!-- Node2 -->
<g id="node3" class="node"><title>Node2</title>
<a xlink:href="class_analog_accelerometer.html#aa21aff5e668d132c48be8789e693cfb5" target="_top" xlink:title="AnalogAccelerometer\l::GetAcceleration">
<polygon fill="white" stroke="black" points="203,-77 203,-107 313,-107 313,-77 203,-77"/>
<text text-anchor="start" x="211" y="-95" font-family="Helvetica,sans-Serif" font-size="10.00">AnalogAccelerometer</text>
<text text-anchor="middle" x="258" y="-84" font-family="Helvetica,sans-Serif" font-size="10.00">::GetAcceleration</text>
</a>
</g>
<!-- Node1&#45;&gt;Node2 -->
<g id="edge2" class="edge"><title>Node1&#45;&gt;Node2</title>
<path fill="none" stroke="midnightblue" d="M128.32,-60.0119C151.399,-65.749 179.106,-72.6365 202.889,-78.5487"/>
<polygon fill="midnightblue" stroke="midnightblue" points="128.955,-56.5632 118.406,-57.5473 127.267,-63.3565 128.955,-56.5632"/>
</g>
<!-- Node6 -->
<g id="node11" class="node"><title>Node6</title>
<a xlink:href="class_analog_input.html#a2055fa06647cf71c9bc3a3990ac40e72" target="_top" xlink:title="AnalogInput::PIDGet">
<polygon fill="white" stroke="black" points="205.5,-38.5 205.5,-57.5 310.5,-57.5 310.5,-38.5 205.5,-38.5"/>
<text text-anchor="middle" x="258" y="-45.5" font-family="Helvetica,sans-Serif" font-size="10.00">AnalogInput::PIDGet</text>
</a>
</g>
<!-- Node1&#45;&gt;Node6 -->
<g id="edge10" class="edge"><title>Node1&#45;&gt;Node6</title>
<path fill="none" stroke="midnightblue" d="M167.907,-48C180.746,-48 193.602,-48 205.394,-48"/>
<polygon fill="midnightblue" stroke="midnightblue" points="167.635,-44.5001 157.635,-48 167.635,-51.5001 167.635,-44.5001"/>
</g>
<!-- Node7 -->
<g id="node13" class="node"><title>Node7</title>
<a xlink:href="class_analog_input.html#a209c3c2143396e6eff628d40d39f6093" target="_top" xlink:title="AnalogInput::UpdateTable">
<polygon fill="white" stroke="black" points="194,-0.5 194,-19.5 322,-19.5 322,-0.5 194,-0.5"/>
<text text-anchor="middle" x="258" y="-7.5" font-family="Helvetica,sans-Serif" font-size="10.00">AnalogInput::UpdateTable</text>
</a>
</g>
<!-- Node1&#45;&gt;Node7 -->
<g id="edge12" class="edge"><title>Node1&#45;&gt;Node7</title>
<path fill="none" stroke="midnightblue" d="M134.742,-36.2474C159.77,-30.8742 189.035,-24.5914 212.657,-19.5201"/>
<polygon fill="midnightblue" stroke="midnightblue" points="133.707,-32.8898 124.665,-38.411 135.176,-39.7339 133.707,-32.8898"/>
</g>
<!-- Node3 -->
<g id="node5" class="node"><title>Node3</title>
<a xlink:href="class_analog_accelerometer.html#ab0bfe1a3e2940c5e6938aa2f86c92fd8" target="_top" xlink:title="AnalogAccelerometer\l::PIDGet">
<polygon fill="white" stroke="black" points="358,-107 358,-137 468,-137 468,-107 358,-107"/>
<text text-anchor="start" x="366" y="-125" font-family="Helvetica,sans-Serif" font-size="10.00">AnalogAccelerometer</text>
<text text-anchor="middle" x="413" y="-114" font-family="Helvetica,sans-Serif" font-size="10.00">::PIDGet</text>
</a>
</g>
<!-- Node2&#45;&gt;Node3 -->
<g id="edge4" class="edge"><title>Node2&#45;&gt;Node3</title>
<path fill="none" stroke="midnightblue" d="M323.331,-104.614C334.802,-106.863 346.649,-109.186 357.802,-111.373"/>
<polygon fill="midnightblue" stroke="midnightblue" points="323.859,-101.151 313.373,-102.661 322.513,-108.02 323.859,-101.151"/>
</g>
<!-- Node4 -->
<g id="node7" class="node"><title>Node4</title>
<a xlink:href="class_analog_accelerometer.html#a4506c2606a6a840ed32b9e9c0ff96a9b" target="_top" xlink:title="AnalogAccelerometer\l::UpdateTable">
<polygon fill="white" stroke="black" points="358,-58 358,-88 468,-88 468,-58 358,-58"/>
<text text-anchor="start" x="366" y="-76" font-family="Helvetica,sans-Serif" font-size="10.00">AnalogAccelerometer</text>
<text text-anchor="middle" x="413" y="-65" font-family="Helvetica,sans-Serif" font-size="10.00">::UpdateTable</text>
</a>
</g>
<!-- Node2&#45;&gt;Node4 -->
<g id="edge6" class="edge"><title>Node2&#45;&gt;Node4</title>
<path fill="none" stroke="midnightblue" d="M323.331,-84.0112C334.802,-82.5866 346.649,-81.1155 357.802,-79.7304"/>
<polygon fill="midnightblue" stroke="midnightblue" points="322.865,-80.542 313.373,-85.2478 323.728,-87.4887 322.865,-80.542"/>
</g>
<!-- Node5 -->
<g id="node9" class="node"><title>Node5</title>
<a xlink:href="class_analog_accelerometer.html#af1c0dc939fcd0671eeaa8a25e9a28611" target="_top" xlink:title="AnalogAccelerometer\l::InitTable">
<polygon fill="white" stroke="black" points="504,-58 504,-88 614,-88 614,-58 504,-58"/>
<text text-anchor="start" x="512" y="-76" font-family="Helvetica,sans-Serif" font-size="10.00">AnalogAccelerometer</text>
<text text-anchor="middle" x="559" y="-65" font-family="Helvetica,sans-Serif" font-size="10.00">::InitTable</text>
</a>
</g>
<!-- Node4&#45;&gt;Node5 -->
<g id="edge8" class="edge"><title>Node4&#45;&gt;Node5</title>
<path fill="none" stroke="midnightblue" d="M478.27,-73C486.75,-73 495.375,-73 503.667,-73"/>
<polygon fill="midnightblue" stroke="midnightblue" points="478.03,-69.5001 468.03,-73 478.03,-76.5001 478.03,-69.5001"/>
</g>
<!-- Node8 -->
<g id="node15" class="node"><title>Node8</title>
<a xlink:href="class_analog_input.html#aba20595d1241b51b5201c1075c727d49" target="_top" xlink:title="AnalogInput::InitTable">
<polygon fill="white" stroke="black" points="358,-0.5 358,-19.5 468,-19.5 468,-0.5 358,-0.5"/>
<text text-anchor="middle" x="413" y="-7.5" font-family="Helvetica,sans-Serif" font-size="10.00">AnalogInput::InitTable</text>
</a>
</g>
<!-- Node7&#45;&gt;Node8 -->
<g id="edge14" class="edge"><title>Node7&#45;&gt;Node8</title>
<path fill="none" stroke="midnightblue" d="M332.194,-10C340.825,-10 349.513,-10 357.816,-10"/>
<polygon fill="midnightblue" stroke="midnightblue" points="332.114,-6.5001 322.114,-10 332.114,-13.5001 332.114,-6.5001"/>
</g>
</g>
</svg>
