<?xml version="1.0" encoding="UTF-8" standalone="no"?>
<!DOCTYPE svg PUBLIC "-//W3C//DTD SVG 1.1//EN"
 "http://www.w3.org/Graphics/SVG/1.1/DTD/svg11.dtd">
<!-- Generated by graphviz version 2.28.0 (20110507.0327)
 -->
<!-- Title: AnalogInput Pages: 1 -->
<svg width="286pt" height="140pt"
 viewBox="0.00 0.00 286.00 140.00" xmlns="http://www.w3.org/2000/svg" xmlns:xlink="http://www.w3.org/1999/xlink">
<g id="graph1" class="graph" transform="scale(1 1) rotate(0) translate(4 136)">
<title>AnalogInput</title>
<polygon fill="white" stroke="white" points="-4,5 -4,-136 283,-136 283,5 -4,5"/>
<!-- Node1 -->
<g id="node1" class="node"><title>Node1</title>
<polygon fill="#bfbfbf" stroke="black" points="86,-0.5 86,-19.5 154,-19.5 154,-0.5 86,-0.5"/>
<text text-anchor="middle" x="120" y="-7.5" font-family="Helvetica,sans-Serif" font-size="10.00">AnalogInput</text>
</g>
<!-- Node2 -->
<g id="node2" class="node"><title>Node2</title>
<a xlink:href="class_sensor_base.html" target="_top" xlink:title="SensorBase">
<polygon fill="white" stroke="black" points="0,-56.5 0,-75.5 70,-75.5 70,-56.5 0,-56.5"/>
<text text-anchor="middle" x="35" y="-63.5" font-family="Helvetica,sans-Serif" font-size="10.00">SensorBase</text>
</a>
</g>
<!-- Node2&#45;&gt;Node1 -->
<g id="edge2" class="edge"><title>Node2&#45;&gt;Node1</title>
<path fill="none" stroke="midnightblue" d="M51.9931,-50.3422C66.3127,-40.5169 86.4749,-27.9132 101.267,-19.6545"/>
<polygon fill="midnightblue" stroke="midnightblue" points="49.6821,-47.6898 43.5419,-56.324 53.7263,-53.4034 49.6821,-47.6898"/>
</g>
<!-- Node2&#45;&gt;Node1 -->
<g id="edge12" class="edge"><title>Node2&#45;&gt;Node1</title>
<path fill="none" stroke="midnightblue" d="M62.6799,-51.21C79.4787,-41.339 99.662,-28.342 111.244,-19.8339"/>
<polygon fill="midnightblue" stroke="midnightblue" points="60.7016,-48.3099 53.7715,-56.324 64.1867,-54.3807 60.7016,-48.3099"/>
</g>
<!-- Node3 -->
<g id="node4" class="node"><title>Node3</title>
<a xlink:href="class_error_base.html" target="_top" xlink:title="ErrorBase">
<polygon fill="white" stroke="black" points="5,-112.5 5,-131.5 65,-131.5 65,-112.5 5,-112.5"/>
<text text-anchor="middle" x="35" y="-119.5" font-family="Helvetica,sans-Serif" font-size="10.00">ErrorBase</text>
</a>
</g>
<!-- Node3&#45;&gt;Node2 -->
<g id="edge4" class="edge"><title>Node3&#45;&gt;Node2</title>
<path fill="none" stroke="midnightblue" d="M35,-101.805C35,-92.9102 35,-82.7798 35,-75.7511"/>
<polygon fill="midnightblue" stroke="midnightblue" points="31.5001,-102.083 35,-112.083 38.5001,-102.083 31.5001,-102.083"/>
</g>
<!-- Node4 -->
<g id="node6" class="node"><title>Node4</title>
<a xlink:href="class_p_i_d_source.html" target="_top" xlink:title="PIDSource">
<polygon fill="white" stroke="black" points="88.5,-56.5 88.5,-75.5 151.5,-75.5 151.5,-56.5 88.5,-56.5"/>
<text text-anchor="middle" x="120" y="-63.5" font-family="Helvetica,sans-Serif" font-size="10.00">PIDSource</text>
</a>
</g>
<!-- Node4&#45;&gt;Node1 -->
<g id="edge6" class="edge"><title>Node4&#45;&gt;Node1</title>
<path fill="none" stroke="midnightblue" d="M113.528,-46.1005C112.896,-37.1357 113.343,-26.8579 114.869,-19.7511"/>
<polygon fill="midnightblue" stroke="midnightblue" points="110.066,-46.6216 114.834,-56.083 117.007,-45.7134 110.066,-46.6216"/>
</g>
<!-- Node4&#45;&gt;Node1 -->
<g id="edge14" class="edge"><title>Node4&#45;&gt;Node1</title>
<path fill="none" stroke="midnightblue" d="M126.472,-46.1005C127.104,-37.1357 126.657,-26.8579 125.131,-19.7511"/>
<polygon fill="midnightblue" stroke="midnightblue" points="122.993,-45.7134 125.166,-56.083 129.934,-46.6216 122.993,-45.7134"/>
</g>
<!-- Node5 -->
<g id="node8" class="node"><title>Node5</title>
<a xlink:href="class_live_window_sendable.html" target="_top" xlink:title="LiveWindowSendable">
<polygon fill="white" stroke="black" points="170,-56.5 170,-75.5 278,-75.5 278,-56.5 170,-56.5"/>
<text text-anchor="middle" x="224" y="-63.5" font-family="Helvetica,sans-Serif" font-size="10.00">LiveWindowSendable</text>
</a>
</g>
<!-- Node5&#45;&gt;Node1 -->
<g id="edge8" class="edge"><title>Node5&#45;&gt;Node1</title>
<path fill="none" stroke="midnightblue" d="M193.293,-52.096C172.451,-42.0073 146.252,-28.2697 131.322,-19.5164"/>
<polygon fill="midnightblue" stroke="midnightblue" points="191.898,-55.3084 202.432,-56.4435 194.905,-48.9871 191.898,-55.3084"/>
</g>
<!-- Node5&#45;&gt;Node1 -->
<g id="edge16" class="edge"><title>Node5&#45;&gt;Node1</title>
<path fill="none" stroke="midnightblue" d="M203.356,-51.1774C185.484,-41.2407 159.982,-28.1492 141.778,-19.6545"/>
<polygon fill="midnightblue" stroke="midnightblue" points="201.983,-54.4225 212.405,-56.324 205.443,-48.3378 201.983,-54.4225"/>
</g>
<!-- Node6 -->
<g id="node10" class="node"><title>Node6</title>
<a xlink:href="class_sendable.html" target="_top" xlink:title="Sendable">
<polygon fill="white" stroke="black" points="195.5,-112.5 195.5,-131.5 252.5,-131.5 252.5,-112.5 195.5,-112.5"/>
<text text-anchor="middle" x="224" y="-119.5" font-family="Helvetica,sans-Serif" font-size="10.00">Sendable</text>
</a>
</g>
<!-- Node6&#45;&gt;Node5 -->
<g id="edge10" class="edge"><title>Node6&#45;&gt;Node5</title>
<path fill="none" stroke="midnightblue" d="M224,-101.805C224,-92.9102 224,-82.7798 224,-75.7511"/>
<polygon fill="midnightblue" stroke="midnightblue" points="220.5,-102.083 224,-112.083 227.5,-102.083 220.5,-102.083"/>
</g>
</g>
</svg>
