<?xml version="1.0" encoding="UTF-8" standalone="no"?>
<!DOCTYPE svg PUBLIC "-//W3C//DTD SVG 1.1//EN"
 "http://www.w3.org/Graphics/SVG/1.1/DTD/svg11.dtd">
<!-- Generated by graphviz version 2.28.0 (20110507.0327)
 -->
<!-- Title: AnalogInput::InitTable Pages: 1 -->
<svg width="636pt" height="28pt"
 viewBox="0.00 0.00 636.00 28.00" xmlns="http://www.w3.org/2000/svg" xmlns:xlink="http://www.w3.org/1999/xlink">
<g id="graph1" class="graph" transform="scale(1 1) rotate(0) translate(4 24)">
<title>AnalogInput::InitTable</title>
<polygon fill="white" stroke="white" points="-4,5 -4,-24 633,-24 633,5 -4,5"/>
<!-- Node1 -->
<g id="node1" class="node"><title>Node1</title>
<polygon fill="#bfbfbf" stroke="black" points="0,-0.5 0,-19.5 110,-19.5 110,-0.5 0,-0.5"/>
<text text-anchor="middle" x="55" y="-7.5" font-family="Helvetica,sans-Serif" font-size="10.00">AnalogInput::InitTable</text>
</g>
<!-- Node2 -->
<g id="node3" class="node"><title>Node2</title>
<a xlink:href="class_analog_input.html#a209c3c2143396e6eff628d40d39f6093" target="_top" xlink:title="AnalogInput::UpdateTable">
<polygon fill="white" stroke="black" points="146,-0.5 146,-19.5 274,-19.5 274,-0.5 146,-0.5"/>
<text text-anchor="middle" x="210" y="-7.5" font-family="Helvetica,sans-Serif" font-size="10.00">AnalogInput::UpdateTable</text>
</a>
</g>
<!-- Node1&#45;&gt;Node2 -->
<g id="edge2" class="edge"><title>Node1&#45;&gt;Node2</title>
<path fill="none" stroke="midnightblue" d="M110.373,-10C118.645,-10 127.295,-10 135.889,-10"/>
<polygon fill="midnightblue" stroke="midnightblue" points="135.924,-13.5001 145.924,-10 135.924,-6.5001 135.924,-13.5001"/>
</g>
<!-- Node3 -->
<g id="node5" class="node"><title>Node3</title>
<a xlink:href="class_analog_input.html#a48743112f8b15e3b2cea8a64ed541308" target="_top" xlink:title="AnalogInput::GetAverageVoltage">
<polygon fill="white" stroke="black" points="310.5,-0.5 310.5,-19.5 467.5,-19.5 467.5,-0.5 310.5,-0.5"/>
<text text-anchor="middle" x="389" y="-7.5" font-family="Helvetica,sans-Serif" font-size="10.00">AnalogInput::GetAverageVoltage</text>
</a>
</g>
<!-- Node2&#45;&gt;Node3 -->
<g id="edge4" class="edge"><title>Node2&#45;&gt;Node3</title>
<path fill="none" stroke="midnightblue" d="M274.401,-10C282.743,-10 291.409,-10 300.068,-10"/>
<polygon fill="midnightblue" stroke="midnightblue" points="300.209,-13.5001 310.209,-10 300.209,-6.5001 300.209,-13.5001"/>
</g>
<!-- Node4 -->
<g id="node7" class="node"><title>Node4</title>
<a xlink:href="class_error_base.html#a05790f219c9e436a09752f73f7344024" target="_top" xlink:title="Check if the current error code represents a fatal error. ">
<polygon fill="white" stroke="black" points="504,-0.5 504,-19.5 628,-19.5 628,-0.5 504,-0.5"/>
<text text-anchor="middle" x="566" y="-7.5" font-family="Helvetica,sans-Serif" font-size="10.00">ErrorBase::StatusIsFatal</text>
</a>
</g>
<!-- Node3&#45;&gt;Node4 -->
<g id="edge6" class="edge"><title>Node3&#45;&gt;Node4</title>
<path fill="none" stroke="midnightblue" d="M467.522,-10C476.261,-10 485.136,-10 493.789,-10"/>
<polygon fill="midnightblue" stroke="midnightblue" points="493.826,-13.5001 503.826,-10 493.826,-6.5001 493.826,-13.5001"/>
</g>
</g>
</svg>
