<?xml version="1.0" encoding="UTF-8" standalone="no"?>
<!DOCTYPE svg PUBLIC "-//W3C//DTD SVG 1.1//EN"
 "http://www.w3.org/Graphics/SVG/1.1/DTD/svg11.dtd">
<!-- Generated by graphviz version 2.28.0 (20110507.0327)
 -->
<!-- Title: AnalogInput::GetSampleRate Pages: 1 -->
<svg width="592pt" height="142pt"
 viewBox="0.00 0.00 592.00 142.00" xmlns="http://www.w3.org/2000/svg" xmlns:xlink="http://www.w3.org/1999/xlink">
<g id="graph1" class="graph" transform="scale(1 1) rotate(0) translate(4 138)">
<title>AnalogInput::GetSampleRate</title>
<polygon fill="white" stroke="white" points="-4,5 -4,-138 589,-138 589,5 -4,5"/>
<!-- Node1 -->
<g id="node1" class="node"><title>Node1</title>
<polygon fill="#bfbfbf" stroke="black" points="0.5,-57.5 0.5,-76.5 143.5,-76.5 143.5,-57.5 0.5,-57.5"/>
<text text-anchor="middle" x="72" y="-64.5" font-family="Helvetica,sans-Serif" font-size="10.00">AnalogInput::GetSampleRate</text>
</g>
<!-- Node2 -->
<g id="node3" class="node"><title>Node2</title>
<a xlink:href="class_analog_input.html#a0c6b4387695c1522860a2fb1e5fbee82" target="_top" xlink:title="AnalogInput::ResetAccumulator">
<polygon fill="white" stroke="black" points="180,-76.5 180,-95.5 334,-95.5 334,-76.5 180,-76.5"/>
<text text-anchor="middle" x="257" y="-83.5" font-family="Helvetica,sans-Serif" font-size="10.00">AnalogInput::ResetAccumulator</text>
</a>
</g>
<!-- Node1&#45;&gt;Node2 -->
<g id="edge2" class="edge"><title>Node1&#45;&gt;Node2</title>
<path fill="none" stroke="midnightblue" d="M153.864,-75.3957C162.544,-76.297 171.354,-77.2116 179.975,-78.1067"/>
<polygon fill="midnightblue" stroke="midnightblue" points="154.061,-71.8974 143.753,-74.3459 153.338,-78.86 154.061,-71.8974"/>
</g>
<!-- Node6 -->
<g id="node11" class="node"><title>Node6</title>
<a xlink:href="class_gyro.html#a37c29b42b58b90fe1ed11f04c2635d4f" target="_top" xlink:title="Gyro::GetAngle">
<polygon fill="white" stroke="black" points="215,-38.5 215,-57.5 299,-57.5 299,-38.5 215,-38.5"/>
<text text-anchor="middle" x="257" y="-45.5" font-family="Helvetica,sans-Serif" font-size="10.00">Gyro::GetAngle</text>
</a>
</g>
<!-- Node1&#45;&gt;Node6 -->
<g id="edge10" class="edge"><title>Node1&#45;&gt;Node6</title>
<path fill="none" stroke="midnightblue" d="M153.707,-58.6206C174.82,-56.4285 196.71,-54.1558 214.797,-52.2779"/>
<polygon fill="midnightblue" stroke="midnightblue" points="153.338,-55.14 143.753,-59.6541 154.061,-62.1026 153.338,-55.14"/>
</g>
<!-- Node3 -->
<g id="node5" class="node"><title>Node3</title>
<a xlink:href="class_gyro.html#ae26b1bacc0c5a4e1f9d85836fcb90736" target="_top" xlink:title="Gyro::InitGyro">
<polygon fill="white" stroke="black" points="380.5,-114.5 380.5,-133.5 457.5,-133.5 457.5,-114.5 380.5,-114.5"/>
<text text-anchor="middle" x="419" y="-121.5" font-family="Helvetica,sans-Serif" font-size="10.00">Gyro::InitGyro</text>
</a>
</g>
<!-- Node2&#45;&gt;Node3 -->
<g id="edge4" class="edge"><title>Node2&#45;&gt;Node3</title>
<path fill="none" stroke="midnightblue" d="M308.117,-97.9029C331.484,-103.453 358.823,-109.946 380.386,-115.067"/>
<polygon fill="midnightblue" stroke="midnightblue" points="308.913,-94.4945 298.375,-95.589 307.295,-101.305 308.913,-94.4945"/>
</g>
<!-- Node5 -->
<g id="node9" class="node"><title>Node5</title>
<a xlink:href="class_gyro.html#ae13fc1c339cb0267740b86c0585ceac7" target="_top" xlink:title="Gyro::Reset">
<polygon fill="white" stroke="black" points="384.5,-76.5 384.5,-95.5 453.5,-95.5 453.5,-76.5 384.5,-76.5"/>
<text text-anchor="middle" x="419" y="-83.5" font-family="Helvetica,sans-Serif" font-size="10.00">Gyro::Reset</text>
</a>
</g>
<!-- Node2&#45;&gt;Node5 -->
<g id="edge8" class="edge"><title>Node2&#45;&gt;Node5</title>
<path fill="none" stroke="midnightblue" d="M344.535,-86C358.626,-86 372.445,-86 384.227,-86"/>
<polygon fill="midnightblue" stroke="midnightblue" points="344.251,-82.5001 334.251,-86 344.251,-89.5001 344.251,-82.5001"/>
</g>
<!-- Node4 -->
<g id="node7" class="node"><title>Node4</title>
<a xlink:href="class_gyro.html#a06521f58180be9e342d941643f9b2491" target="_top" xlink:title="Gyro::Gyro">
<polygon fill="white" stroke="black" points="511.5,-114.5 511.5,-133.5 576.5,-133.5 576.5,-114.5 511.5,-114.5"/>
<text text-anchor="middle" x="544" y="-121.5" font-family="Helvetica,sans-Serif" font-size="10.00">Gyro::Gyro</text>
</a>
</g>
<!-- Node3&#45;&gt;Node4 -->
<g id="edge6" class="edge"><title>Node3&#45;&gt;Node4</title>
<path fill="none" stroke="midnightblue" d="M467.963,-124C482.561,-124 498.23,-124 511.454,-124"/>
<polygon fill="midnightblue" stroke="midnightblue" points="467.572,-120.5 457.572,-124 467.572,-127.5 467.572,-120.5"/>
</g>
<!-- Node7 -->
<g id="node13" class="node"><title>Node7</title>
<a xlink:href="class_gyro.html#aca619c0201c5fb85e2bbaeef0f39e8e6" target="_top" xlink:title="Gyro::PIDGet">
<polygon fill="white" stroke="black" points="381.5,-38.5 381.5,-57.5 456.5,-57.5 456.5,-38.5 381.5,-38.5"/>
<text text-anchor="middle" x="419" y="-45.5" font-family="Helvetica,sans-Serif" font-size="10.00">Gyro::PIDGet</text>
</a>
</g>
<!-- Node6&#45;&gt;Node7 -->
<g id="edge12" class="edge"><title>Node6&#45;&gt;Node7</title>
<path fill="none" stroke="midnightblue" d="M309.326,-48C332.757,-48 359.969,-48 381.302,-48"/>
<polygon fill="midnightblue" stroke="midnightblue" points="309.204,-44.5001 299.204,-48 309.204,-51.5001 309.204,-44.5001"/>
</g>
<!-- Node8 -->
<g id="node15" class="node"><title>Node8</title>
<a xlink:href="class_gyro.html#ad0113532a29eccdbe514eaae2002012c" target="_top" xlink:title="Gyro::UpdateTable">
<polygon fill="white" stroke="black" points="370,-0.5 370,-19.5 468,-19.5 468,-0.5 370,-0.5"/>
<text text-anchor="middle" x="419" y="-7.5" font-family="Helvetica,sans-Serif" font-size="10.00">Gyro::UpdateTable</text>
</a>
</g>
<!-- Node6&#45;&gt;Node8 -->
<g id="edge14" class="edge"><title>Node6&#45;&gt;Node8</title>
<path fill="none" stroke="midnightblue" d="M308.392,-36.032C330.813,-30.7069 356.847,-24.5238 377.916,-19.5201"/>
<polygon fill="midnightblue" stroke="midnightblue" points="307.295,-32.6949 298.375,-38.411 308.913,-39.5055 307.295,-32.6949"/>
</g>
<!-- Node9 -->
<g id="node17" class="node"><title>Node9</title>
<a xlink:href="class_gyro.html#ae00778b633c9c62f6a54039f544125d3" target="_top" xlink:title="Gyro::InitTable">
<polygon fill="white" stroke="black" points="504,-0.5 504,-19.5 584,-19.5 584,-0.5 504,-0.5"/>
<text text-anchor="middle" x="544" y="-7.5" font-family="Helvetica,sans-Serif" font-size="10.00">Gyro::InitTable</text>
</a>
</g>
<!-- Node8&#45;&gt;Node9 -->
<g id="edge16" class="edge"><title>Node8&#45;&gt;Node9</title>
<path fill="none" stroke="midnightblue" d="M478.376,-10C487.061,-10 495.83,-10 503.987,-10"/>
<polygon fill="midnightblue" stroke="midnightblue" points="478.26,-6.5001 468.26,-10 478.26,-13.5001 478.26,-6.5001"/>
</g>
</g>
</svg>
