<?xml version="1.0" encoding="UTF-8" standalone="no"?>
<!DOCTYPE svg PUBLIC "-//W3C//DTD SVG 1.1//EN"
 "http://www.w3.org/Graphics/SVG/1.1/DTD/svg11.dtd">
<!-- Generated by graphviz version 2.28.0 (20110507.0327)
 -->
<!-- Title: PWM::GetPosition Pages: 1 -->
<svg width="488pt" height="66pt"
 viewBox="0.00 0.00 488.00 66.00" xmlns="http://www.w3.org/2000/svg" xmlns:xlink="http://www.w3.org/1999/xlink">
<g id="graph1" class="graph" transform="scale(1 1) rotate(0) translate(4 62)">
<title>PWM::GetPosition</title>
<polygon fill="white" stroke="white" points="-4,5 -4,-62 485,-62 485,5 -4,5"/>
<!-- Node1 -->
<g id="node1" class="node"><title>Node1</title>
<polygon fill="#bfbfbf" stroke="black" points="0,-19.5 0,-38.5 98,-38.5 98,-19.5 0,-19.5"/>
<text text-anchor="middle" x="49" y="-26.5" font-family="Helvetica,sans-Serif" font-size="10.00">PWM::GetPosition</text>
</g>
<!-- Node2 -->
<g id="node3" class="node"><title>Node2</title>
<a xlink:href="class_servo.html#a5ecdde666455fa3c20d4ae1b6184a047" target="_top" xlink:title="Servo::Get">
<polygon fill="white" stroke="black" points="147,-38.5 147,-57.5 209,-57.5 209,-38.5 147,-38.5"/>
<text text-anchor="middle" x="178" y="-45.5" font-family="Helvetica,sans-Serif" font-size="10.00">Servo::Get</text>
</a>
</g>
<!-- Node1&#45;&gt;Node2 -->
<g id="edge2" class="edge"><title>Node1&#45;&gt;Node2</title>
<path fill="none" stroke="midnightblue" d="M108.172,-37.7029C121.59,-39.7103 135.328,-41.7656 146.966,-43.5067"/>
<polygon fill="midnightblue" stroke="midnightblue" points="108.421,-34.2013 98.0133,-36.1831 107.385,-41.1242 108.421,-34.2013"/>
</g>
<!-- Node5 -->
<g id="node9" class="node"><title>Node5</title>
<a xlink:href="class_servo.html#a0ccee0191f0026d94db4646e6662700c" target="_top" xlink:title="Servo::GetAngle">
<polygon fill="white" stroke="black" points="134.5,-0.5 134.5,-19.5 221.5,-19.5 221.5,-0.5 134.5,-0.5"/>
<text text-anchor="middle" x="178" y="-7.5" font-family="Helvetica,sans-Serif" font-size="10.00">Servo::GetAngle</text>
</a>
</g>
<!-- Node1&#45;&gt;Node5 -->
<g id="edge8" class="edge"><title>Node1&#45;&gt;Node5</title>
<path fill="none" stroke="midnightblue" d="M107.946,-20.3309C116.832,-19.0016 125.863,-17.6504 134.338,-16.3825"/>
<polygon fill="midnightblue" stroke="midnightblue" points="107.385,-16.8758 98.0133,-21.8169 108.421,-23.7987 107.385,-16.8758"/>
</g>
<!-- Node3 -->
<g id="node5" class="node"><title>Node3</title>
<a xlink:href="class_servo.html#a76cca4c9e061ad6b36bcf8282e6bb9d2" target="_top" xlink:title="Servo::UpdateTable">
<polygon fill="white" stroke="black" points="258.5,-38.5 258.5,-57.5 359.5,-57.5 359.5,-38.5 258.5,-38.5"/>
<text text-anchor="middle" x="309" y="-45.5" font-family="Helvetica,sans-Serif" font-size="10.00">Servo::UpdateTable</text>
</a>
</g>
<!-- Node2&#45;&gt;Node3 -->
<g id="edge4" class="edge"><title>Node2&#45;&gt;Node3</title>
<path fill="none" stroke="midnightblue" d="M219.248,-48C231.604,-48 245.349,-48 258.261,-48"/>
<polygon fill="midnightblue" stroke="midnightblue" points="219.245,-44.5001 209.245,-48 219.245,-51.5001 219.245,-44.5001"/>
</g>
<!-- Node4 -->
<g id="node7" class="node"><title>Node4</title>
<a xlink:href="class_servo.html#ae429a4197d8868503fbecb24a2935220" target="_top" xlink:title="Servo::InitTable">
<polygon fill="white" stroke="black" points="396.5,-38.5 396.5,-57.5 479.5,-57.5 479.5,-38.5 396.5,-38.5"/>
<text text-anchor="middle" x="438" y="-45.5" font-family="Helvetica,sans-Serif" font-size="10.00">Servo::InitTable</text>
</a>
</g>
<!-- Node3&#45;&gt;Node4 -->
<g id="edge6" class="edge"><title>Node3&#45;&gt;Node4</title>
<path fill="none" stroke="midnightblue" d="M369.866,-48C378.825,-48 387.882,-48 396.318,-48"/>
<polygon fill="midnightblue" stroke="midnightblue" points="369.829,-44.5001 359.829,-48 369.829,-51.5001 369.829,-44.5001"/>
</g>
</g>
</svg>
