<?xml version="1.0" encoding="UTF-8" standalone="no"?>
<!DOCTYPE svg PUBLIC "-//W3C//DTD SVG 1.1//EN"
 "http://www.w3.org/Graphics/SVG/1.1/DTD/svg11.dtd">
<!-- Generated by graphviz version 2.28.0 (20110507.0327)
 -->
<!-- Title: Scheduler::UpdateTable Pages: 1 -->
<svg width="556pt" height="104pt"
 viewBox="0.00 0.00 556.00 104.00" xmlns="http://www.w3.org/2000/svg" xmlns:xlink="http://www.w3.org/1999/xlink">
<g id="graph1" class="graph" transform="scale(1 1) rotate(0) translate(4 100)">
<title>Scheduler::UpdateTable</title>
<polygon fill="white" stroke="white" points="-4,5 -4,-100 553,-100 553,5 -4,5"/>
<!-- Node1 -->
<g id="node1" class="node"><title>Node1</title>
<polygon fill="#bfbfbf" stroke="black" points="0,-38.5 0,-57.5 120,-57.5 120,-38.5 0,-38.5"/>
<text text-anchor="middle" x="60" y="-45.5" font-family="Helvetica,sans-Serif" font-size="10.00">Scheduler::UpdateTable</text>
</g>
<!-- Node2 -->
<g id="node3" class="node"><title>Node2</title>
<a xlink:href="class_command.html#add6db88d2165d59821032ea975fa4468" target="_top" xlink:title="Command::GetID">
<polygon fill="white" stroke="black" points="164,-76.5 164,-95.5 256,-95.5 256,-76.5 164,-76.5"/>
<text text-anchor="middle" x="210" y="-83.5" font-family="Helvetica,sans-Serif" font-size="10.00">Command::GetID</text>
</a>
</g>
<!-- Node1&#45;&gt;Node2 -->
<g id="edge2" class="edge"><title>Node1&#45;&gt;Node2</title>
<path fill="none" stroke="midnightblue" d="M98.3466,-57.589C117.701,-62.5583 141.53,-68.6767 162.113,-73.9613"/>
<polygon fill="midnightblue" stroke="midnightblue" points="161.366,-77.383 171.922,-76.4799 163.107,-70.6029 161.366,-77.383"/>
</g>
<!-- Node3 -->
<g id="node5" class="node"><title>Node3</title>
<a xlink:href="class_command.html#af566114c4b517ef22d8c7820c171b8b2" target="_top" xlink:title="Command::Cancel">
<polygon fill="white" stroke="black" points="161.5,-38.5 161.5,-57.5 258.5,-57.5 258.5,-38.5 161.5,-38.5"/>
<text text-anchor="middle" x="210" y="-45.5" font-family="Helvetica,sans-Serif" font-size="10.00">Command::Cancel</text>
</a>
</g>
<!-- Node1&#45;&gt;Node3 -->
<g id="edge4" class="edge"><title>Node1&#45;&gt;Node3</title>
<path fill="none" stroke="midnightblue" d="M120.344,-48C130.598,-48 141.242,-48 151.447,-48"/>
<polygon fill="midnightblue" stroke="midnightblue" points="151.475,-51.5001 161.475,-48 151.475,-44.5001 151.475,-51.5001"/>
</g>
<!-- Node6 -->
<g id="node11" class="node"><title>Node6</title>
<a xlink:href="class_command.html#a68535903fc61c641f4ab2fdbd11d4257" target="_top" xlink:title="Command::GetName">
<polygon fill="white" stroke="black" points="156,-0.5 156,-19.5 264,-19.5 264,-0.5 156,-0.5"/>
<text text-anchor="middle" x="210" y="-7.5" font-family="Helvetica,sans-Serif" font-size="10.00">Command::GetName</text>
</a>
</g>
<!-- Node1&#45;&gt;Node6 -->
<g id="edge10" class="edge"><title>Node1&#45;&gt;Node6</title>
<path fill="none" stroke="midnightblue" d="M98.3466,-38.411C117.701,-33.4417 141.53,-27.3233 162.113,-22.0387"/>
<polygon fill="midnightblue" stroke="midnightblue" points="163.107,-25.3971 171.922,-19.5201 161.366,-18.617 163.107,-25.3971"/>
</g>
<!-- Node4 -->
<g id="node7" class="node"><title>Node4</title>
<a xlink:href="class_command.html#a2e36a819254da2bb9badb3227bdfe336" target="_top" xlink:title="Command::_Cancel">
<polygon fill="white" stroke="black" points="300,-38.5 300,-57.5 402,-57.5 402,-38.5 300,-38.5"/>
<text text-anchor="middle" x="351" y="-45.5" font-family="Helvetica,sans-Serif" font-size="10.00">Command::_Cancel</text>
</a>
</g>
<!-- Node3&#45;&gt;Node4 -->
<g id="edge6" class="edge"><title>Node3&#45;&gt;Node4</title>
<path fill="none" stroke="midnightblue" d="M258.836,-48C268.731,-48 279.277,-48 289.554,-48"/>
<polygon fill="midnightblue" stroke="midnightblue" points="289.707,-51.5001 299.707,-48 289.707,-44.5001 289.707,-51.5001"/>
</g>
<!-- Node5 -->
<g id="node9" class="node"><title>Node5</title>
<a xlink:href="class_command.html#a2885369af7a278b59c6941b1df23ac86" target="_top" xlink:title="Command::IsRunning">
<polygon fill="white" stroke="black" points="438,-38.5 438,-57.5 548,-57.5 548,-38.5 438,-38.5"/>
<text text-anchor="middle" x="493" y="-45.5" font-family="Helvetica,sans-Serif" font-size="10.00">Command::IsRunning</text>
</a>
</g>
<!-- Node4&#45;&gt;Node5 -->
<g id="edge8" class="edge"><title>Node4&#45;&gt;Node5</title>
<path fill="none" stroke="midnightblue" d="M402.148,-48C410.494,-48 419.251,-48 427.887,-48"/>
<polygon fill="midnightblue" stroke="midnightblue" points="427.938,-51.5001 437.938,-48 427.938,-44.5001 427.938,-51.5001"/>
</g>
</g>
</svg>
