<?xml version="1.0" encoding="UTF-8" standalone="no"?>
<!DOCTYPE svg PUBLIC "-//W3C//DTD SVG 1.1//EN"
 "http://www.w3.org/Graphics/SVG/1.1/DTD/svg11.dtd">
<!-- Generated by graphviz version 2.28.0 (20110507.0327)
 -->
<!-- Title: Counter::SetPulseLengthMode Pages: 1 -->
<svg width="480pt" height="38pt"
 viewBox="0.00 0.00 480.00 38.00" xmlns="http://www.w3.org/2000/svg" xmlns:xlink="http://www.w3.org/1999/xlink">
<g id="graph1" class="graph" transform="scale(1 1) rotate(0) translate(4 34)">
<title>Counter::SetPulseLengthMode</title>
<polygon fill="white" stroke="white" points="-4,5 -4,-34 477,-34 477,5 -4,5"/>
<!-- Node1 -->
<g id="node1" class="node"><title>Node1</title>
<polygon fill="#bfbfbf" stroke="black" points="0.5,-5.5 0.5,-24.5 149.5,-24.5 149.5,-5.5 0.5,-5.5"/>
<text text-anchor="middle" x="75" y="-12.5" font-family="Helvetica,sans-Serif" font-size="10.00">Counter::SetPulseLengthMode</text>
</g>
<!-- Node2 -->
<g id="node3" class="node"><title>Node2</title>
<a xlink:href="class_gear_tooth.html#a0bec962d2920dc28f8d4ef53b5fa2c65" target="_top" xlink:title="GearTooth::EnableDirection\lSensing">
<polygon fill="white" stroke="black" points="186,-0 186,-30 322,-30 322,-0 186,-0"/>
<text text-anchor="start" x="194" y="-18" font-family="Helvetica,sans-Serif" font-size="10.00">GearTooth::EnableDirection</text>
<text text-anchor="middle" x="254" y="-7" font-family="Helvetica,sans-Serif" font-size="10.00">Sensing</text>
</a>
</g>
<!-- Node1&#45;&gt;Node2 -->
<g id="edge2" class="edge"><title>Node1&#45;&gt;Node2</title>
<path fill="none" stroke="midnightblue" d="M159.774,-15C168.546,-15 177.379,-15 185.929,-15"/>
<polygon fill="midnightblue" stroke="midnightblue" points="159.526,-11.5001 149.526,-15 159.526,-18.5001 159.526,-11.5001"/>
</g>
<!-- Node3 -->
<g id="node5" class="node"><title>Node3</title>
<a xlink:href="class_gear_tooth.html#abc7cf72d7856aaf50b8eff53d461a979" target="_top" xlink:title="GearTooth::GearTooth">
<polygon fill="white" stroke="black" points="358.5,-5.5 358.5,-24.5 471.5,-24.5 471.5,-5.5 358.5,-5.5"/>
<text text-anchor="middle" x="415" y="-12.5" font-family="Helvetica,sans-Serif" font-size="10.00">GearTooth::GearTooth</text>
</a>
</g>
<!-- Node2&#45;&gt;Node3 -->
<g id="edge4" class="edge"><title>Node2&#45;&gt;Node3</title>
<path fill="none" stroke="midnightblue" d="M332.635,-15C341.362,-15 350.118,-15 358.484,-15"/>
<polygon fill="midnightblue" stroke="midnightblue" points="332.43,-11.5001 322.43,-15 332.43,-18.5001 332.43,-11.5001"/>
</g>
</g>
</svg>
