<?xml version="1.0" encoding="UTF-8" standalone="no"?>
<!DOCTYPE svg PUBLIC "-//W3C//DTD SVG 1.1//EN"
 "http://www.w3.org/Graphics/SVG/1.1/DTD/svg11.dtd">
<!-- Generated by graphviz version 2.28.0 (20110507.0327)
 -->
<!-- Title: PIDController::InitTable Pages: 1 -->
<svg width="292pt" height="218pt"
 viewBox="0.00 0.00 292.00 218.00" xmlns="http://www.w3.org/2000/svg" xmlns:xlink="http://www.w3.org/1999/xlink">
<g id="graph1" class="graph" transform="scale(1 1) rotate(0) translate(4 214)">
<title>PIDController::InitTable</title>
<polygon fill="white" stroke="white" points="-4,5 -4,-214 289,-214 289,5 -4,5"/>
<!-- Node1 -->
<g id="node1" class="node"><title>Node1</title>
<polygon fill="#bfbfbf" stroke="black" points="0,-95.5 0,-114.5 116,-114.5 116,-95.5 0,-95.5"/>
<text text-anchor="middle" x="58" y="-102.5" font-family="Helvetica,sans-Serif" font-size="10.00">PIDController::InitTable</text>
</g>
<!-- Node2 -->
<g id="node3" class="node"><title>Node2</title>
<a xlink:href="class_p_i_d_controller.html#a9572c875b0fee00189e7e22250db3831" target="_top" xlink:title="PIDController::GetP">
<polygon fill="white" stroke="black" points="167,-190.5 167,-209.5 269,-209.5 269,-190.5 167,-190.5"/>
<text text-anchor="middle" x="218" y="-197.5" font-family="Helvetica,sans-Serif" font-size="10.00">PIDController::GetP</text>
</a>
</g>
<!-- Node1&#45;&gt;Node2 -->
<g id="edge2" class="edge"><title>Node1&#45;&gt;Node2</title>
<path fill="none" stroke="midnightblue" d="M68.1076,-114.627C83.7792,-130.653 117.5,-162.83 152,-181 156.262,-183.245 160.824,-185.257 165.482,-187.055"/>
<polygon fill="midnightblue" stroke="midnightblue" points="164.516,-190.425 175.11,-190.448 166.842,-183.823 164.516,-190.425"/>
</g>
<!-- Node3 -->
<g id="node5" class="node"><title>Node3</title>
<a xlink:href="class_p_i_d_controller.html#aad4c914184a37b8ceb85401d59ff163b" target="_top" xlink:title="PIDController::GetI">
<polygon fill="white" stroke="black" points="169,-152.5 169,-171.5 267,-171.5 267,-152.5 169,-152.5"/>
<text text-anchor="middle" x="218" y="-159.5" font-family="Helvetica,sans-Serif" font-size="10.00">PIDController::GetI</text>
</a>
</g>
<!-- Node1&#45;&gt;Node3 -->
<g id="edge4" class="edge"><title>Node1&#45;&gt;Node3</title>
<path fill="none" stroke="midnightblue" d="M80.5538,-114.55C99.2485,-122.653 127.137,-134.313 152,-143 158.413,-145.241 165.243,-147.438 171.974,-149.497"/>
<polygon fill="midnightblue" stroke="midnightblue" points="171.122,-152.895 181.706,-152.404 173.126,-146.188 171.122,-152.895"/>
</g>
<!-- Node4 -->
<g id="node7" class="node"><title>Node4</title>
<a xlink:href="class_p_i_d_controller.html#a003738f4df587babc119131cdfada553" target="_top" xlink:title="PIDController::GetD">
<polygon fill="white" stroke="black" points="167,-114.5 167,-133.5 269,-133.5 269,-114.5 167,-114.5"/>
<text text-anchor="middle" x="218" y="-121.5" font-family="Helvetica,sans-Serif" font-size="10.00">PIDController::GetD</text>
</a>
</g>
<!-- Node1&#45;&gt;Node4 -->
<g id="edge6" class="edge"><title>Node1&#45;&gt;Node4</title>
<path fill="none" stroke="midnightblue" d="M116.042,-111.859C129.284,-113.452 143.421,-115.152 156.794,-116.76"/>
<polygon fill="midnightblue" stroke="midnightblue" points="156.499,-120.25 166.845,-117.969 157.334,-113.3 156.499,-120.25"/>
</g>
<!-- Node5 -->
<g id="node9" class="node"><title>Node5</title>
<a xlink:href="class_p_i_d_controller.html#a0b194d1597e208603f7efb3c0064f0aa" target="_top" xlink:title="PIDController::GetF">
<polygon fill="white" stroke="black" points="167.5,-76.5 167.5,-95.5 268.5,-95.5 268.5,-76.5 167.5,-76.5"/>
<text text-anchor="middle" x="218" y="-83.5" font-family="Helvetica,sans-Serif" font-size="10.00">PIDController::GetF</text>
</a>
</g>
<!-- Node1&#45;&gt;Node5 -->
<g id="edge8" class="edge"><title>Node1&#45;&gt;Node5</title>
<path fill="none" stroke="midnightblue" d="M116.042,-98.1406C129.425,-96.5312 143.721,-94.812 157.221,-93.1886"/>
<polygon fill="midnightblue" stroke="midnightblue" points="157.85,-96.6383 167.36,-91.9694 157.014,-89.6884 157.85,-96.6383"/>
</g>
<!-- Node6 -->
<g id="node11" class="node"><title>Node6</title>
<a xlink:href="class_p_i_d_controller.html#ac25eb01ba2a0118f692bae207de62d63" target="_top" xlink:title="PIDController::GetSetpoint">
<polygon fill="white" stroke="black" points="152.5,-38.5 152.5,-57.5 283.5,-57.5 283.5,-38.5 152.5,-38.5"/>
<text text-anchor="middle" x="218" y="-45.5" font-family="Helvetica,sans-Serif" font-size="10.00">PIDController::GetSetpoint</text>
</a>
</g>
<!-- Node1&#45;&gt;Node6 -->
<g id="edge10" class="edge"><title>Node1&#45;&gt;Node6</title>
<path fill="none" stroke="midnightblue" d="M80.5538,-95.4503C99.2485,-87.347 127.137,-75.6872 152,-67 158.413,-64.7592 165.243,-62.5621 171.974,-60.5029"/>
<polygon fill="midnightblue" stroke="midnightblue" points="173.126,-63.8117 181.706,-57.5959 171.122,-57.1046 173.126,-63.8117"/>
</g>
<!-- Node7 -->
<g id="node13" class="node"><title>Node7</title>
<a xlink:href="class_p_i_d_controller.html#a55f228ba275cac683e82bbc48a298842" target="_top" xlink:title="PIDController::IsEnabled">
<polygon fill="white" stroke="black" points="157,-0.5 157,-19.5 279,-19.5 279,-0.5 157,-0.5"/>
<text text-anchor="middle" x="218" y="-7.5" font-family="Helvetica,sans-Serif" font-size="10.00">PIDController::IsEnabled</text>
</a>
</g>
<!-- Node1&#45;&gt;Node7 -->
<g id="edge12" class="edge"><title>Node1&#45;&gt;Node7</title>
<path fill="none" stroke="midnightblue" d="M68.1076,-95.3728C83.7792,-79.3474 117.5,-47.1703 152,-29 156.262,-26.7554 160.824,-24.7427 165.482,-22.945"/>
<polygon fill="midnightblue" stroke="midnightblue" points="166.842,-26.1766 175.11,-19.5518 164.516,-19.5746 166.842,-26.1766"/>
</g>
</g>
</svg>
