<?xml version="1.0" encoding="UTF-8" standalone="no"?>
<!DOCTYPE svg PUBLIC "-//W3C//DTD SVG 1.1//EN"
 "http://www.w3.org/Graphics/SVG/1.1/DTD/svg11.dtd">
<!-- Generated by graphviz version 2.28.0 (20110507.0327)
 -->
<!-- Title: SensorBase Pages: 1 -->
<svg width="596pt" height="750pt"
 viewBox="0.00 0.00 596.00 750.00" xmlns="http://www.w3.org/2000/svg" xmlns:xlink="http://www.w3.org/1999/xlink">
<g id="graph1" class="graph" transform="scale(1 1) rotate(0) translate(4 746)">
<title>SensorBase</title>
<polygon fill="white" stroke="white" points="-4,5 -4,-746 593,-746 593,5 -4,5"/>
<!-- Node1 -->
<g id="node1" class="node"><title>Node1</title>
<polygon fill="#bfbfbf" stroke="black" points="96,-380.5 96,-399.5 166,-399.5 166,-380.5 96,-380.5"/>
<text text-anchor="middle" x="131" y="-387.5" font-family="Helvetica,sans-Serif" font-size="10.00">SensorBase</text>
</g>
<!-- Node3 -->
<g id="node5" class="node"><title>Node3</title>
<a xlink:href="class_a_d_x_l345___s_p_i.html" target="_top" xlink:title="ADXL345_SPI">
<polygon fill="white" stroke="black" points="225.5,-722.5 225.5,-741.5 302.5,-741.5 302.5,-722.5 225.5,-722.5"/>
<text text-anchor="middle" x="264" y="-729.5" font-family="Helvetica,sans-Serif" font-size="10.00">ADXL345_SPI</text>
</a>
</g>
<!-- Node1&#45;&gt;Node3 -->
<g id="edge4" class="edge"><title>Node1&#45;&gt;Node3</title>
<path fill="none" stroke="midnightblue" d="M133.712,-409.838C139.543,-472.978 160.609,-667.773 202,-713 208.141,-719.71 216.606,-724.071 225.277,-726.899"/>
<polygon fill="midnightblue" stroke="midnightblue" points="137.177,-409.294 132.799,-399.646 130.205,-409.919 137.177,-409.294"/>
</g>
<!-- Node4 -->
<g id="node7" class="node"><title>Node4</title>
<a xlink:href="class_analog_accelerometer.html" target="_top" xlink:title="AnalogAccelerometer">
<polygon fill="white" stroke="black" points="209,-684.5 209,-703.5 319,-703.5 319,-684.5 209,-684.5"/>
<text text-anchor="middle" x="264" y="-691.5" font-family="Helvetica,sans-Serif" font-size="10.00">AnalogAccelerometer</text>
</a>
</g>
<!-- Node1&#45;&gt;Node4 -->
<g id="edge6" class="edge"><title>Node1&#45;&gt;Node4</title>
<path fill="none" stroke="midnightblue" d="M134.321,-409.745C141.513,-467.724 165.181,-635.86 202,-675 205.648,-678.878 210.073,-681.97 214.854,-684.434"/>
<polygon fill="midnightblue" stroke="midnightblue" points="137.78,-409.195 133.103,-399.689 130.831,-410.037 137.78,-409.195"/>
</g>
<!-- Node5 -->
<g id="node9" class="node"><title>Node5</title>
<a xlink:href="class_analog_input.html" target="_top" xlink:title="AnalogInput">
<polygon fill="white" stroke="black" points="230,-646.5 230,-665.5 298,-665.5 298,-646.5 230,-646.5"/>
<text text-anchor="middle" x="264" y="-653.5" font-family="Helvetica,sans-Serif" font-size="10.00">AnalogInput</text>
</a>
</g>
<!-- Node1&#45;&gt;Node5 -->
<g id="edge8" class="edge"><title>Node1&#45;&gt;Node5</title>
<path fill="none" stroke="midnightblue" d="M131.697,-409.781C132.479,-455.05 141.348,-565.763 202,-628 212.141,-638.406 227.877,-643.138 240.826,-646.483"/>
<polygon fill="midnightblue" stroke="midnightblue" points="135.197,-409.733 131.646,-399.751 128.197,-409.769 135.197,-409.733"/>
</g>
<!-- Node1&#45;&gt;Node5 -->
<g id="edge10" class="edge"><title>Node1&#45;&gt;Node5</title>
<path fill="none" stroke="midnightblue" d="M131.636,-409.756C131.509,-457.692 137.203,-579.51 202,-646 209.354,-653.547 219.651,-658.109 229.693,-660.402"/>
<polygon fill="midnightblue" stroke="midnightblue" points="135.136,-409.758 131.752,-399.719 128.137,-409.678 135.136,-409.758"/>
</g>
<!-- Node6 -->
<g id="node12" class="node"><title>Node6</title>
<a xlink:href="class_analog_output.html" target="_top" xlink:title="AnalogOutput">
<polygon fill="white" stroke="black" points="226,-608.5 226,-627.5 302,-627.5 302,-608.5 226,-608.5"/>
<text text-anchor="middle" x="264" y="-615.5" font-family="Helvetica,sans-Serif" font-size="10.00">AnalogOutput</text>
</a>
</g>
<!-- Node1&#45;&gt;Node6 -->
<g id="edge12" class="edge"><title>Node1&#45;&gt;Node6</title>
<path fill="none" stroke="midnightblue" d="M132.878,-410.083C135.778,-451.388 148.263,-546.392 202,-599 208.499,-605.363 217.094,-609.599 225.774,-612.418"/>
<polygon fill="midnightblue" stroke="midnightblue" points="136.363,-409.716 132.288,-399.937 129.374,-410.123 136.363,-409.716"/>
</g>
<!-- Node7 -->
<g id="node14" class="node"><title>Node7</title>
<a xlink:href="class_analog_trigger.html" target="_top" xlink:title="AnalogTrigger">
<polygon fill="white" stroke="black" points="226,-570.5 226,-589.5 302,-589.5 302,-570.5 226,-570.5"/>
<text text-anchor="middle" x="264" y="-577.5" font-family="Helvetica,sans-Serif" font-size="10.00">AnalogTrigger</text>
</a>
</g>
<!-- Node1&#45;&gt;Node7 -->
<g id="edge14" class="edge"><title>Node1&#45;&gt;Node7</title>
<path fill="none" stroke="midnightblue" d="M134.566,-409.803C140.208,-445.258 156.984,-519.723 202,-561 208.622,-567.072 217.161,-571.204 225.74,-574.015"/>
<polygon fill="midnightblue" stroke="midnightblue" points="138.007,-409.145 133.104,-399.753 131.08,-410.153 138.007,-409.145"/>
</g>
<!-- Node8 -->
<g id="node16" class="node"><title>Node8</title>
<a xlink:href="class_built_in_accelerometer.html" target="_top" xlink:title="BuiltInAccelerometer">
<polygon fill="white" stroke="black" points="210.5,-532.5 210.5,-551.5 317.5,-551.5 317.5,-532.5 210.5,-532.5"/>
<text text-anchor="middle" x="264" y="-539.5" font-family="Helvetica,sans-Serif" font-size="10.00">BuiltInAccelerometer</text>
</a>
</g>
<!-- Node1&#45;&gt;Node8 -->
<g id="edge16" class="edge"><title>Node1&#45;&gt;Node8</title>
<path fill="none" stroke="midnightblue" d="M137.047,-409.405C145.567,-438.347 165.544,-492.657 202,-523 206.689,-526.903 212.179,-530.005 217.909,-532.472"/>
<polygon fill="midnightblue" stroke="midnightblue" points="140.387,-408.352 134.332,-399.658 133.644,-410.231 140.387,-408.352"/>
</g>
<!-- Node9 -->
<g id="node18" class="node"><title>Node9</title>
<a xlink:href="class_compressor.html" target="_top" xlink:title="Compressor">
<polygon fill="white" stroke="black" points="229.5,-494.5 229.5,-513.5 298.5,-513.5 298.5,-494.5 229.5,-494.5"/>
<text text-anchor="middle" x="264" y="-501.5" font-family="Helvetica,sans-Serif" font-size="10.00">Compressor</text>
</a>
</g>
<!-- Node1&#45;&gt;Node9 -->
<g id="edge18" class="edge"><title>Node1&#45;&gt;Node9</title>
<path fill="none" stroke="midnightblue" d="M141.121,-408.751C152.493,-430.22 173.909,-464.994 202,-485 210.041,-490.727 219.864,-494.768 229.258,-497.604"/>
<polygon fill="midnightblue" stroke="midnightblue" points="144.148,-406.982 136.487,-399.664 137.912,-410.162 144.148,-406.982"/>
</g>
<!-- Node10 -->
<g id="node20" class="node"><title>Node10</title>
<a xlink:href="class_counter.html" target="_top" xlink:title="Counter">
<polygon fill="white" stroke="black" points="239,-456.5 239,-475.5 289,-475.5 289,-456.5 239,-456.5"/>
<text text-anchor="middle" x="264" y="-463.5" font-family="Helvetica,sans-Serif" font-size="10.00">Counter</text>
</a>
</g>
<!-- Node1&#45;&gt;Node10 -->
<g id="edge24" class="edge"><title>Node1&#45;&gt;Node10</title>
<path fill="none" stroke="midnightblue" d="M156.849,-406.056C169.527,-416.432 185.689,-429.244 202,-438 217.246,-446.184 236.562,-451.449 249.327,-456.351"/>
<polygon fill="midnightblue" stroke="midnightblue" points="159.004,-403.297 149.054,-399.657 154.562,-408.707 159.004,-403.297"/>
</g>
<!-- Node1&#45;&gt;Node10 -->
<g id="edge20" class="edge"><title>Node1&#45;&gt;Node10</title>
<path fill="none" stroke="midnightblue" d="M143.094,-407.839C156.126,-423.09 178.914,-443.607 202,-456 213.532,-462.191 227.393,-466.711 238.986,-468.904"/>
<polygon fill="midnightblue" stroke="midnightblue" points="145.539,-405.286 136.619,-399.57 140.028,-409.601 145.539,-405.286"/>
</g>
<!-- Node12 -->
<g id="node25" class="node"><title>Node12</title>
<a xlink:href="class_driver_station.html" target="_top" xlink:title="DriverStation">
<polygon fill="white" stroke="black" points="228.5,-418.5 228.5,-437.5 299.5,-437.5 299.5,-418.5 228.5,-418.5"/>
<text text-anchor="middle" x="264" y="-425.5" font-family="Helvetica,sans-Serif" font-size="10.00">DriverStation</text>
</a>
</g>
<!-- Node1&#45;&gt;Node12 -->
<g id="edge26" class="edge"><title>Node1&#45;&gt;Node12</title>
<path fill="none" stroke="midnightblue" d="M176.097,-396.373C200.202,-402.593 228.651,-411.423 246.261,-418.455"/>
<polygon fill="midnightblue" stroke="midnightblue" points="176.626,-392.898 166.077,-393.879 174.936,-399.69 176.626,-392.898"/>
</g>
<!-- Node1&#45;&gt;Node12 -->
<g id="edge28" class="edge"><title>Node1&#45;&gt;Node12</title>
<path fill="none" stroke="midnightblue" d="M158.317,-403.169C178.427,-410.432 206.328,-418.693 228.269,-423.964"/>
<polygon fill="midnightblue" stroke="midnightblue" points="159.449,-399.855 148.858,-399.592 156.974,-406.403 159.449,-399.855"/>
</g>
<!-- Node13 -->
<g id="node28" class="node"><title>Node13</title>
<a xlink:href="class_encoder.html" target="_top" xlink:title="Encoder">
<polygon fill="white" stroke="black" points="237.5,-380.5 237.5,-399.5 290.5,-399.5 290.5,-380.5 237.5,-380.5"/>
<text text-anchor="middle" x="264" y="-387.5" font-family="Helvetica,sans-Serif" font-size="10.00">Encoder</text>
</a>
</g>
<!-- Node1&#45;&gt;Node13 -->
<g id="edge30" class="edge"><title>Node1&#45;&gt;Node13</title>
<path fill="none" stroke="midnightblue" d="M176.095,-383.581C196.473,-382.929 219.957,-383.24 237.371,-384.515"/>
<polygon fill="midnightblue" stroke="midnightblue" points="175.924,-380.085 166.077,-383.994 176.212,-387.079 175.924,-380.085"/>
</g>
<!-- Node1&#45;&gt;Node13 -->
<g id="edge32" class="edge"><title>Node1&#45;&gt;Node13</title>
<path fill="none" stroke="midnightblue" d="M176.095,-396.419C196.473,-397.071 219.957,-396.76 237.371,-395.485"/>
<polygon fill="midnightblue" stroke="midnightblue" points="176.212,-392.921 166.077,-396.006 175.924,-399.915 176.212,-392.921"/>
</g>
<!-- Node14 -->
<g id="node31" class="node"><title>Node14</title>
<a xlink:href="class_gyro.html" target="_top" xlink:title="Gyro">
<polygon fill="white" stroke="black" points="245,-342.5 245,-361.5 283,-361.5 283,-342.5 245,-342.5"/>
<text text-anchor="middle" x="264" y="-349.5" font-family="Helvetica,sans-Serif" font-size="10.00">Gyro</text>
</a>
</g>
<!-- Node1&#45;&gt;Node14 -->
<g id="edge34" class="edge"><title>Node1&#45;&gt;Node14</title>
<path fill="none" stroke="midnightblue" d="M158.362,-376.815C184.084,-367.528 222.522,-356.615 244.947,-352.408"/>
<polygon fill="midnightblue" stroke="midnightblue" points="156.974,-373.598 148.858,-380.408 159.449,-380.145 156.974,-373.598"/>
</g>
<!-- Node1&#45;&gt;Node14 -->
<g id="edge36" class="edge"><title>Node1&#45;&gt;Node14</title>
<path fill="none" stroke="midnightblue" d="M176.097,-383.627C200.202,-377.407 228.651,-368.577 246.261,-361.545"/>
<polygon fill="midnightblue" stroke="midnightblue" points="174.936,-380.31 166.077,-386.121 176.626,-387.102 174.936,-380.31"/>
</g>
<!-- Node15 -->
<g id="node34" class="node"><title>Node15</title>
<a xlink:href="class_i2_c.html" target="_top" xlink:title="I2C">
<polygon fill="white" stroke="black" points="248.5,-304.5 248.5,-323.5 279.5,-323.5 279.5,-304.5 248.5,-304.5"/>
<text text-anchor="middle" x="264" y="-311.5" font-family="Helvetica,sans-Serif" font-size="10.00">I2C</text>
</a>
</g>
<!-- Node1&#45;&gt;Node15 -->
<g id="edge38" class="edge"><title>Node1&#45;&gt;Node15</title>
<path fill="none" stroke="#8b1a1a" d="M149.028,-372.97C162.427,-360.397 182.103,-343.681 202,-333 216.855,-325.026 235.574,-319.823 248.333,-316.911"/>
<polygon fill="#8b1a1a" stroke="#8b1a1a" points="146.324,-370.714 141.55,-380.172 151.18,-375.756 146.324,-370.714"/>
</g>
<!-- Node17 -->
<g id="node38" class="node"><title>Node17</title>
<a xlink:href="class_interruptable_sensor_base.html" target="_top" xlink:title="InterruptableSensorBase">
<polygon fill="white" stroke="black" points="202.5,-266.5 202.5,-285.5 325.5,-285.5 325.5,-266.5 202.5,-266.5"/>
<text text-anchor="middle" x="264" y="-273.5" font-family="Helvetica,sans-Serif" font-size="10.00">InterruptableSensorBase</text>
</a>
</g>
<!-- Node1&#45;&gt;Node17 -->
<g id="edge42" class="edge"><title>Node1&#45;&gt;Node17</title>
<path fill="none" stroke="midnightblue" d="M141.121,-371.249C152.493,-349.78 173.909,-315.006 202,-295 207.421,-291.139 213.652,-288.044 220.015,-285.569"/>
<polygon fill="midnightblue" stroke="midnightblue" points="137.912,-369.838 136.487,-380.336 144.148,-373.018 137.912,-369.838"/>
</g>
<!-- Node22 -->
<g id="node48" class="node"><title>Node22</title>
<a xlink:href="class_power_distribution_panel.html" target="_top" xlink:title="PowerDistributionPanel">
<polygon fill="white" stroke="black" points="205.5,-228.5 205.5,-247.5 322.5,-247.5 322.5,-228.5 205.5,-228.5"/>
<text text-anchor="middle" x="264" y="-235.5" font-family="Helvetica,sans-Serif" font-size="10.00">PowerDistributionPanel</text>
</a>
</g>
<!-- Node1&#45;&gt;Node22 -->
<g id="edge52" class="edge"><title>Node1&#45;&gt;Node22</title>
<path fill="none" stroke="midnightblue" d="M137.047,-370.595C145.567,-341.653 165.544,-287.343 202,-257 206.689,-253.097 212.179,-249.995 217.909,-247.528"/>
<polygon fill="midnightblue" stroke="midnightblue" points="133.644,-369.769 134.332,-380.342 140.387,-371.648 133.644,-369.769"/>
</g>
<!-- Node23 -->
<g id="node50" class="node"><title>Node23</title>
<a xlink:href="class_p_w_m.html" target="_top" xlink:title="PWM">
<polygon fill="white" stroke="black" points="243.5,-190.5 243.5,-209.5 284.5,-209.5 284.5,-190.5 243.5,-190.5"/>
<text text-anchor="middle" x="264" y="-197.5" font-family="Helvetica,sans-Serif" font-size="10.00">PWM</text>
</a>
</g>
<!-- Node1&#45;&gt;Node23 -->
<g id="edge54" class="edge"><title>Node1&#45;&gt;Node23</title>
<path fill="none" stroke="midnightblue" d="M133.84,-370.198C138.688,-332.841 154.861,-253.224 202,-210 213.282,-199.655 230.127,-194.942 243.258,-194.205"/>
<polygon fill="midnightblue" stroke="midnightblue" points="130.339,-370.015 132.678,-380.348 137.293,-370.811 130.339,-370.015"/>
</g>
<!-- Node1&#45;&gt;Node23 -->
<g id="edge78" class="edge"><title>Node1&#45;&gt;Node23</title>
<path fill="none" stroke="midnightblue" d="M135.529,-370.258C142.012,-336.158 159.303,-267.151 202,-228 213.282,-217.655 230.127,-212.942 243.258,-209.385"/>
<polygon fill="midnightblue" stroke="midnightblue" points="132.032,-369.932 133.724,-380.391 138.924,-371.159 132.032,-369.932"/>
</g>
<!-- Node31 -->
<g id="node71" class="node"><title>Node31</title>
<a xlink:href="class_relay.html" target="_top" xlink:title="Relay">
<polygon fill="white" stroke="black" points="243.5,-152.5 243.5,-171.5 284.5,-171.5 284.5,-152.5 243.5,-152.5"/>
<text text-anchor="middle" x="264" y="-159.5" font-family="Helvetica,sans-Serif" font-size="10.00">Relay</text>
</a>
</g>
<!-- Node1&#45;&gt;Node31 -->
<g id="edge80" class="edge"><title>Node1&#45;&gt;Node31</title>
<path fill="none" stroke="midnightblue" d="M132.563,-370.393C134.81,-327.598 146.025,-226.798 202,-172 213.017,-161.214 230.054,-156.54 243.326,-155.96"/>
<polygon fill="midnightblue" stroke="midnightblue" points="129.065,-370.265 132.15,-380.401 136.059,-370.554 129.065,-370.265"/>
</g>
<!-- Node1&#45;&gt;Node31 -->
<g id="edge82" class="edge"><title>Node1&#45;&gt;Node31</title>
<path fill="none" stroke="midnightblue" d="M133.266,-370.198C136.822,-330.216 150.373,-240.542 202,-190 213.017,-179.214 230.054,-174.54 243.326,-171.079"/>
<polygon fill="midnightblue" stroke="midnightblue" points="129.767,-370.054 132.491,-380.292 136.746,-370.59 129.767,-370.054"/>
</g>
<!-- Node32 -->
<g id="node74" class="node"><title>Node32</title>
<a xlink:href="class_smart_dashboard.html" target="_top" xlink:title="SmartDashboard">
<polygon fill="white" stroke="black" points="219.5,-114.5 219.5,-133.5 308.5,-133.5 308.5,-114.5 219.5,-114.5"/>
<text text-anchor="middle" x="264" y="-121.5" font-family="Helvetica,sans-Serif" font-size="10.00">SmartDashboard</text>
</a>
</g>
<!-- Node1&#45;&gt;Node32 -->
<g id="edge84" class="edge"><title>Node1&#45;&gt;Node32</title>
<path fill="none" stroke="midnightblue" d="M131.643,-370.198C131.915,-323.863 139.197,-207.444 202,-143 206.8,-138.075 212.853,-134.421 219.27,-131.711"/>
<polygon fill="midnightblue" stroke="midnightblue" points="128.144,-370.411 131.695,-380.393 135.144,-370.375 128.144,-370.411"/>
</g>
<!-- Node33 -->
<g id="node76" class="node"><title>Node33</title>
<a xlink:href="class_solenoid_base.html" target="_top" xlink:title="SolenoidBase">
<polygon fill="white" stroke="black" points="225.5,-76.5 225.5,-95.5 302.5,-95.5 302.5,-76.5 225.5,-76.5"/>
<text text-anchor="middle" x="264" y="-83.5" font-family="Helvetica,sans-Serif" font-size="10.00">SolenoidBase</text>
</a>
</g>
<!-- Node1&#45;&gt;Node33 -->
<g id="edge86" class="edge"><title>Node1&#45;&gt;Node33</title>
<path fill="none" stroke="midnightblue" d="M134.321,-370.255C141.513,-312.276 165.181,-144.14 202,-105 208.232,-98.375 216.73,-94.0448 225.404,-91.2189"/>
<polygon fill="midnightblue" stroke="midnightblue" points="130.831,-369.963 133.103,-380.311 137.78,-370.805 130.831,-369.963"/>
</g>
<!-- Node36 -->
<g id="node82" class="node"><title>Node36</title>
<a xlink:href="class_s_p_i.html" target="_top" xlink:title="SPI">
<polygon fill="white" stroke="black" points="248,-38.5 248,-57.5 280,-57.5 280,-38.5 248,-38.5"/>
<text text-anchor="middle" x="264" y="-45.5" font-family="Helvetica,sans-Serif" font-size="10.00">SPI</text>
</a>
</g>
<!-- Node1&#45;&gt;Node36 -->
<g id="edge92" class="edge"><title>Node1&#45;&gt;Node36</title>
<path fill="none" stroke="midnightblue" d="M133.712,-370.162C139.543,-307.022 160.609,-112.227 202,-67 213.757,-54.1532 234.036,-49.9176 247.963,-48.5629"/>
<polygon fill="midnightblue" stroke="midnightblue" points="130.205,-370.081 132.799,-380.354 137.177,-370.706 130.205,-370.081"/>
</g>
<!-- Node37 -->
<g id="node84" class="node"><title>Node37</title>
<a xlink:href="class_ultrasonic.html" target="_top" xlink:title="Ultrasonic">
<polygon fill="white" stroke="black" points="234,-0.5 234,-19.5 294,-19.5 294,-0.5 234,-0.5"/>
<text text-anchor="middle" x="264" y="-7.5" font-family="Helvetica,sans-Serif" font-size="10.00">Ultrasonic</text>
</a>
</g>
<!-- Node1&#45;&gt;Node37 -->
<g id="edge94" class="edge"><title>Node1&#45;&gt;Node37</title>
<path fill="none" stroke="midnightblue" d="M133.224,-370.08C137.794,-302.062 156.01,-80.3708 202,-29 210.064,-19.9921 222.32,-15.2104 233.736,-12.6892"/>
<polygon fill="midnightblue" stroke="midnightblue" points="129.717,-370.074 132.566,-380.279 136.703,-370.525 129.717,-370.074"/>
</g>
<!-- Node2 -->
<g id="node2" class="node"><title>Node2</title>
<a xlink:href="class_error_base.html" target="_top" xlink:title="ErrorBase">
<polygon fill="white" stroke="black" points="0,-380.5 0,-399.5 60,-399.5 60,-380.5 0,-380.5"/>
<text text-anchor="middle" x="30" y="-387.5" font-family="Helvetica,sans-Serif" font-size="10.00">ErrorBase</text>
</a>
</g>
<!-- Node2&#45;&gt;Node1 -->
<g id="edge2" class="edge"><title>Node2&#45;&gt;Node1</title>
<path fill="none" stroke="midnightblue" d="M70.2114,-390C78.6739,-390 87.556,-390 95.8085,-390"/>
<polygon fill="midnightblue" stroke="midnightblue" points="70.1678,-386.5 60.1678,-390 70.1678,-393.5 70.1678,-386.5"/>
</g>
<!-- Node11 -->
<g id="node22" class="node"><title>Node11</title>
<a xlink:href="class_gear_tooth.html" target="_top" xlink:title="GearTooth">
<polygon fill="white" stroke="black" points="373,-456.5 373,-475.5 435,-475.5 435,-456.5 373,-456.5"/>
<text text-anchor="middle" x="404" y="-463.5" font-family="Helvetica,sans-Serif" font-size="10.00">GearTooth</text>
</a>
</g>
<!-- Node10&#45;&gt;Node11 -->
<g id="edge22" class="edge"><title>Node10&#45;&gt;Node11</title>
<path fill="none" stroke="midnightblue" d="M299.226,-466C321.862,-466 351.258,-466 372.982,-466"/>
<polygon fill="midnightblue" stroke="midnightblue" points="299.038,-462.5 289.038,-466 299.038,-469.5 299.038,-462.5"/>
</g>
<!-- Node16 -->
<g id="node36" class="node"><title>Node16</title>
<a xlink:href="class_a_d_x_l345___i2_c.html" target="_top" xlink:title="ADXL345_I2C">
<polygon fill="white" stroke="black" points="366,-323.5 366,-342.5 442,-342.5 442,-323.5 366,-323.5"/>
<text text-anchor="middle" x="404" y="-330.5" font-family="Helvetica,sans-Serif" font-size="10.00">ADXL345_I2C</text>
</a>
</g>
<!-- Node15&#45;&gt;Node16 -->
<g id="edge40" class="edge"><title>Node15&#45;&gt;Node16</title>
<path fill="none" stroke="midnightblue" d="M289.628,-317.391C310.84,-320.311 341.769,-324.57 365.966,-327.901"/>
<polygon fill="midnightblue" stroke="midnightblue" points="289.892,-313.894 279.508,-315.997 288.937,-320.829 289.892,-313.894"/>
</g>
<!-- Node18 -->
<g id="node40" class="node"><title>Node18</title>
<a xlink:href="class_digital_source.html" target="_top" xlink:title="DigitalSource">
<polygon fill="white" stroke="black" points="367,-285.5 367,-304.5 441,-304.5 441,-285.5 367,-285.5"/>
<text text-anchor="middle" x="404" y="-292.5" font-family="Helvetica,sans-Serif" font-size="10.00">DigitalSource</text>
</a>
</g>
<!-- Node17&#45;&gt;Node18 -->
<g id="edge44" class="edge"><title>Node17&#45;&gt;Node18</title>
<path fill="none" stroke="midnightblue" d="M335.455,-285.7C346.282,-287.191 357.062,-288.675 366.727,-290.006"/>
<polygon fill="midnightblue" stroke="midnightblue" points="335.913,-282.23 325.529,-284.334 334.958,-289.165 335.913,-282.23"/>
</g>
<!-- Node19 -->
<g id="node42" class="node"><title>Node19</title>
<a xlink:href="class_analog_trigger_output.html" target="_top" xlink:title="AnalogTriggerOutput">
<polygon fill="white" stroke="black" points="482.5,-361.5 482.5,-380.5 587.5,-380.5 587.5,-361.5 482.5,-361.5"/>
<text text-anchor="middle" x="535" y="-368.5" font-family="Helvetica,sans-Serif" font-size="10.00">AnalogTriggerOutput</text>
</a>
</g>
<!-- Node18&#45;&gt;Node19 -->
<g id="edge46" class="edge"><title>Node18&#45;&gt;Node19</title>
<path fill="none" stroke="midnightblue" d="M438.596,-309.258C441.171,-310.742 443.671,-312.326 446,-314 464.891,-327.578 462.558,-339.224 482,-352 487.703,-355.748 494.243,-358.878 500.716,-361.445"/>
<polygon fill="midnightblue" stroke="midnightblue" points="440.177,-306.135 429.694,-304.603 436.934,-312.339 440.177,-306.135"/>
</g>
<!-- Node20 -->
<g id="node44" class="node"><title>Node20</title>
<a xlink:href="class_digital_input.html" target="_top" xlink:title="DigitalInput">
<polygon fill="white" stroke="black" points="502.5,-323.5 502.5,-342.5 567.5,-342.5 567.5,-323.5 502.5,-323.5"/>
<text text-anchor="middle" x="535" y="-330.5" font-family="Helvetica,sans-Serif" font-size="10.00">DigitalInput</text>
</a>
</g>
<!-- Node18&#45;&gt;Node20 -->
<g id="edge48" class="edge"><title>Node18&#45;&gt;Node20</title>
<path fill="none" stroke="midnightblue" d="M447.213,-307.435C465.163,-312.722 485.739,-318.784 502.35,-323.677"/>
<polygon fill="midnightblue" stroke="midnightblue" points="448.134,-304.057 437.552,-304.589 446.156,-310.772 448.134,-304.057"/>
</g>
<!-- Node21 -->
<g id="node46" class="node"><title>Node21</title>
<a xlink:href="class_digital_output.html" target="_top" xlink:title="DigitalOutput">
<polygon fill="white" stroke="black" points="498.5,-285.5 498.5,-304.5 571.5,-304.5 571.5,-285.5 498.5,-285.5"/>
<text text-anchor="middle" x="535" y="-292.5" font-family="Helvetica,sans-Serif" font-size="10.00">DigitalOutput</text>
</a>
</g>
<!-- Node18&#45;&gt;Node21 -->
<g id="edge50" class="edge"><title>Node18&#45;&gt;Node21</title>
<path fill="none" stroke="midnightblue" d="M451.67,-295C467.091,-295 483.989,-295 498.441,-295"/>
<polygon fill="midnightblue" stroke="midnightblue" points="451.277,-291.5 441.277,-295 451.277,-298.5 451.277,-291.5"/>
</g>
<!-- Node24 -->
<g id="node52" class="node"><title>Node24</title>
<a xlink:href="class_safe_p_w_m.html" target="_top" xlink:title="SafePWM">
<polygon fill="white" stroke="black" points="373.5,-171.5 373.5,-190.5 434.5,-190.5 434.5,-171.5 373.5,-171.5"/>
<text text-anchor="middle" x="404" y="-178.5" font-family="Helvetica,sans-Serif" font-size="10.00">SafePWM</text>
</a>
</g>
<!-- Node23&#45;&gt;Node24 -->
<g id="edge56" class="edge"><title>Node23&#45;&gt;Node24</title>
<path fill="none" stroke="midnightblue" d="M294.761,-190.235C318.005,-185.589 350.147,-181.166 373.36,-179.421"/>
<polygon fill="midnightblue" stroke="midnightblue" points="293.816,-186.858 284.772,-192.377 295.284,-193.703 293.816,-186.858"/>
</g>
<!-- Node23&#45;&gt;Node24 -->
<g id="edge76" class="edge"><title>Node23&#45;&gt;Node24</title>
<path fill="none" stroke="midnightblue" d="M294.899,-201.559C318.477,-199.772 351.148,-195.247 374.387,-190.534"/>
<polygon fill="midnightblue" stroke="midnightblue" points="294.54,-198.074 284.772,-202.178 294.967,-205.061 294.54,-198.074"/>
</g>
<!-- Node25 -->
<g id="node54" class="node"><title>Node25</title>
<a xlink:href="class_jaguar.html" target="_top" xlink:title="Jaguar">
<polygon fill="white" stroke="black" points="512.5,-247.5 512.5,-266.5 557.5,-266.5 557.5,-247.5 512.5,-247.5"/>
<text text-anchor="middle" x="535" y="-254.5" font-family="Helvetica,sans-Serif" font-size="10.00">Jaguar</text>
</a>
</g>
<!-- Node24&#45;&gt;Node25 -->
<g id="edge58" class="edge"><title>Node24&#45;&gt;Node25</title>
<path fill="none" stroke="midnightblue" d="M433.082,-196.711C447.13,-206.949 464.778,-219.73 482,-229 495.711,-236.38 512.892,-242.028 523.661,-247.462"/>
<polygon fill="midnightblue" stroke="midnightblue" points="434.984,-193.767 424.837,-190.72 430.869,-199.429 434.984,-193.767"/>
</g>
<!-- Node24&#45;&gt;Node25 -->
<g id="edge60" class="edge"><title>Node24&#45;&gt;Node25</title>
<path fill="none" stroke="midnightblue" d="M417.564,-198.589C432.208,-213.575 457.533,-233.831 482,-247 491.564,-252.148 502.816,-256.453 512.403,-258.882"/>
<polygon fill="midnightblue" stroke="midnightblue" points="419.903,-195.957 410.601,-190.884 414.709,-200.65 419.903,-195.957"/>
</g>
<!-- Node26 -->
<g id="node57" class="node"><title>Node26</title>
<a xlink:href="class_servo.html" target="_top" xlink:title="Servo">
<polygon fill="white" stroke="black" points="514.5,-209.5 514.5,-228.5 555.5,-228.5 555.5,-209.5 514.5,-209.5"/>
<text text-anchor="middle" x="535" y="-216.5" font-family="Helvetica,sans-Serif" font-size="10.00">Servo</text>
</a>
</g>
<!-- Node24&#45;&gt;Node26 -->
<g id="edge62" class="edge"><title>Node24&#45;&gt;Node26</title>
<path fill="none" stroke="midnightblue" d="M444.458,-192.623C467.531,-199.42 495.665,-207.708 514.166,-213.157"/>
<polygon fill="midnightblue" stroke="midnightblue" points="445.177,-189.186 434.595,-189.718 443.199,-195.901 445.177,-189.186"/>
</g>
<!-- Node27 -->
<g id="node59" class="node"><title>Node27</title>
<a xlink:href="class_talon.html" target="_top" xlink:title="Talon">
<polygon fill="white" stroke="black" points="515,-171.5 515,-190.5 555,-190.5 555,-171.5 515,-171.5"/>
<text text-anchor="middle" x="535" y="-178.5" font-family="Helvetica,sans-Serif" font-size="10.00">Talon</text>
</a>
</g>
<!-- Node24&#45;&gt;Node27 -->
<g id="edge64" class="edge"><title>Node24&#45;&gt;Node27</title>
<path fill="none" stroke="midnightblue" d="M444.583,-174.719C467.956,-173.795 496.487,-174.236 514.937,-176.042"/>
<polygon fill="midnightblue" stroke="midnightblue" points="444.408,-171.223 434.595,-175.219 444.758,-178.215 444.408,-171.223"/>
</g>
<!-- Node24&#45;&gt;Node27 -->
<g id="edge66" class="edge"><title>Node24&#45;&gt;Node27</title>
<path fill="none" stroke="midnightblue" d="M444.583,-187.281C467.956,-188.205 496.487,-187.764 514.937,-185.958"/>
<polygon fill="midnightblue" stroke="midnightblue" points="444.758,-183.785 434.595,-186.781 444.408,-190.777 444.758,-183.785"/>
</g>
<!-- Node28 -->
<g id="node62" class="node"><title>Node28</title>
<a xlink:href="class_talon_s_r_x.html" target="_top" xlink:title="TalonSRX">
<polygon fill="white" stroke="black" points="505.5,-133.5 505.5,-152.5 564.5,-152.5 564.5,-133.5 505.5,-133.5"/>
<text text-anchor="middle" x="535" y="-140.5" font-family="Helvetica,sans-Serif" font-size="10.00">TalonSRX</text>
</a>
</g>
<!-- Node24&#45;&gt;Node28 -->
<g id="edge68" class="edge"><title>Node24&#45;&gt;Node28</title>
<path fill="none" stroke="midnightblue" d="M444.229,-169.444C463.958,-163.632 487.434,-156.717 505.429,-151.416"/>
<polygon fill="midnightblue" stroke="midnightblue" points="443.199,-166.099 434.595,-172.282 445.177,-172.814 443.199,-166.099"/>
</g>
<!-- Node29 -->
<g id="node64" class="node"><title>Node29</title>
<a xlink:href="class_victor.html" target="_top" xlink:title="Victor">
<polygon fill="white" stroke="black" points="514,-95.5 514,-114.5 556,-114.5 556,-95.5 514,-95.5"/>
<text text-anchor="middle" x="535" y="-102.5" font-family="Helvetica,sans-Serif" font-size="10.00">Victor</text>
</a>
</g>
<!-- Node24&#45;&gt;Node29 -->
<g id="edge70" class="edge"><title>Node24&#45;&gt;Node29</title>
<path fill="none" stroke="midnightblue" d="M417.564,-163.411C432.208,-148.425 457.533,-128.169 482,-115 492.071,-109.579 504.016,-105.092 513.916,-102.747"/>
<polygon fill="midnightblue" stroke="midnightblue" points="414.709,-161.35 410.601,-171.116 419.903,-166.043 414.709,-161.35"/>
</g>
<!-- Node24&#45;&gt;Node29 -->
<g id="edge72" class="edge"><title>Node24&#45;&gt;Node29</title>
<path fill="none" stroke="midnightblue" d="M433.082,-165.289C447.13,-155.051 464.778,-142.27 482,-133 495.711,-125.62 512.892,-119.972 523.661,-114.538"/>
<polygon fill="midnightblue" stroke="midnightblue" points="430.869,-162.571 424.837,-171.28 434.984,-168.233 430.869,-162.571"/>
</g>
<!-- Node30 -->
<g id="node67" class="node"><title>Node30</title>
<a xlink:href="class_victor_s_p.html" target="_top" xlink:title="VictorSP">
<polygon fill="white" stroke="black" points="507,-57.5 507,-76.5 563,-76.5 563,-57.5 507,-57.5"/>
<text text-anchor="middle" x="535" y="-64.5" font-family="Helvetica,sans-Serif" font-size="10.00">VictorSP</text>
</a>
</g>
<!-- Node24&#45;&gt;Node30 -->
<g id="edge74" class="edge"><title>Node24&#45;&gt;Node30</title>
<path fill="none" stroke="midnightblue" d="M417.738,-163.068C435.322,-138.727 466.602,-96.9927 482,-86 489.432,-80.6947 498.508,-76.7104 506.986,-73.7973"/>
<polygon fill="midnightblue" stroke="midnightblue" points="414.714,-161.28 411.731,-171.446 420.402,-165.359 414.714,-161.28"/>
</g>
<!-- Node34 -->
<g id="node78" class="node"><title>Node34</title>
<a xlink:href="class_double_solenoid.html" target="_top" xlink:title="DoubleSolenoid">
<polygon fill="white" stroke="black" points="362,-95.5 362,-114.5 446,-114.5 446,-95.5 362,-95.5"/>
<text text-anchor="middle" x="404" y="-102.5" font-family="Helvetica,sans-Serif" font-size="10.00">DoubleSolenoid</text>
</a>
</g>
<!-- Node33&#45;&gt;Node34 -->
<g id="edge88" class="edge"><title>Node33&#45;&gt;Node34</title>
<path fill="none" stroke="midnightblue" d="M312.925,-92.5984C328.9,-94.7978 346.541,-97.2266 361.946,-99.3476"/>
<polygon fill="midnightblue" stroke="midnightblue" points="313.093,-89.0886 302.709,-91.1918 312.138,-96.0232 313.093,-89.0886"/>
</g>
<!-- Node35 -->
<g id="node80" class="node"><title>Node35</title>
<a xlink:href="class_solenoid.html" target="_top" xlink:title="Solenoid">
<polygon fill="white" stroke="black" points="377,-57.5 377,-76.5 431,-76.5 431,-57.5 377,-57.5"/>
<text text-anchor="middle" x="404" y="-64.5" font-family="Helvetica,sans-Serif" font-size="10.00">Solenoid</text>
</a>
</g>
<!-- Node33&#45;&gt;Node35 -->
<g id="edge90" class="edge"><title>Node33&#45;&gt;Node35</title>
<path fill="none" stroke="midnightblue" d="M312.638,-79.4412C334.1,-76.4863 358.62,-73.1103 376.698,-70.6213"/>
<polygon fill="midnightblue" stroke="midnightblue" points="312.138,-75.9768 302.709,-80.8082 313.093,-82.9114 312.138,-75.9768"/>
</g>
</g>
</svg>
