<?xml version="1.0" encoding="UTF-8" standalone="no"?>
<!DOCTYPE svg PUBLIC "-//W3C//DTD SVG 1.1//EN"
 "http://www.w3.org/Graphics/SVG/1.1/DTD/svg11.dtd">
<!-- Generated by graphviz version 2.28.0 (20110507.0327)
 -->
<!-- Title: Command::Cancel Pages: 1 -->
<svg width="390pt" height="28pt"
 viewBox="0.00 0.00 390.00 28.00" xmlns="http://www.w3.org/2000/svg" xmlns:xlink="http://www.w3.org/1999/xlink">
<g id="graph1" class="graph" transform="scale(1 1) rotate(0) translate(4 24)">
<title>Command::Cancel</title>
<polygon fill="white" stroke="white" points="-4,5 -4,-24 387,-24 387,5 -4,5"/>
<!-- Node1 -->
<g id="node1" class="node"><title>Node1</title>
<polygon fill="#bfbfbf" stroke="black" points="0.5,-0.5 0.5,-19.5 97.5,-19.5 97.5,-0.5 0.5,-0.5"/>
<text text-anchor="middle" x="49" y="-7.5" font-family="Helvetica,sans-Serif" font-size="10.00">Command::Cancel</text>
</g>
<!-- Node2 -->
<g id="node3" class="node"><title>Node2</title>
<a xlink:href="class_command.html#a2e36a819254da2bb9badb3227bdfe336" target="_top" xlink:title="Command::_Cancel">
<polygon fill="white" stroke="black" points="134,-0.5 134,-19.5 236,-19.5 236,-0.5 134,-0.5"/>
<text text-anchor="middle" x="185" y="-7.5" font-family="Helvetica,sans-Serif" font-size="10.00">Command::_Cancel</text>
</a>
</g>
<!-- Node1&#45;&gt;Node2 -->
<g id="edge2" class="edge"><title>Node1&#45;&gt;Node2</title>
<path fill="none" stroke="midnightblue" d="M97.6207,-10C106.055,-10 114.938,-10 123.669,-10"/>
<polygon fill="midnightblue" stroke="midnightblue" points="123.812,-13.5001 133.812,-10 123.811,-6.5001 123.812,-13.5001"/>
</g>
<!-- Node3 -->
<g id="node5" class="node"><title>Node3</title>
<a xlink:href="class_command.html#a2885369af7a278b59c6941b1df23ac86" target="_top" xlink:title="Command::IsRunning">
<polygon fill="white" stroke="black" points="272,-0.5 272,-19.5 382,-19.5 382,-0.5 272,-0.5"/>
<text text-anchor="middle" x="327" y="-7.5" font-family="Helvetica,sans-Serif" font-size="10.00">Command::IsRunning</text>
</a>
</g>
<!-- Node2&#45;&gt;Node3 -->
<g id="edge4" class="edge"><title>Node2&#45;&gt;Node3</title>
<path fill="none" stroke="midnightblue" d="M236.148,-10C244.494,-10 253.251,-10 261.887,-10"/>
<polygon fill="midnightblue" stroke="midnightblue" points="261.938,-13.5001 271.938,-10 261.938,-6.5001 261.938,-13.5001"/>
</g>
</g>
</svg>
