<?xml version="1.0" encoding="UTF-8" standalone="no"?>
<!DOCTYPE svg PUBLIC "-//W3C//DTD SVG 1.1//EN"
 "http://www.w3.org/Graphics/SVG/1.1/DTD/svg11.dtd">
<!-- Generated by graphviz version 2.28.0 (20110507.0327)
 -->
<!-- Title: SampleRobot::StartCompetition Pages: 1 -->
<svg width="680pt" height="691pt"
 viewBox="0.00 0.00 680.00 691.00" xmlns="http://www.w3.org/2000/svg" xmlns:xlink="http://www.w3.org/1999/xlink">
<g id="graph1" class="graph" transform="scale(1 1) rotate(0) translate(4 687)">
<title>SampleRobot::StartCompetition</title>
<polygon fill="white" stroke="white" points="-4,5 -4,-687 677,-687 677,5 -4,5"/>
<!-- Node1 -->
<g id="node1" class="node"><title>Node1</title>
<polygon fill="#bfbfbf" stroke="black" points="0,-340.5 0,-359.5 154,-359.5 154,-340.5 0,-340.5"/>
<text text-anchor="middle" x="77" y="-347.5" font-family="Helvetica,sans-Serif" font-size="10.00">SampleRobot::StartCompetition</text>
</g>
<!-- Node2 -->
<g id="node3" class="node"><title>Node2</title>
<a xlink:href="class_live_window.html#a329c07efec22a0e0644d70279688aa35" target="_top" xlink:title="LiveWindow::GetInstance">
<polygon fill="white" stroke="black" points="202,-663.5 202,-682.5 328,-682.5 328,-663.5 202,-663.5"/>
<text text-anchor="middle" x="265" y="-670.5" font-family="Helvetica,sans-Serif" font-size="10.00">LiveWindow::GetInstance</text>
</a>
</g>
<!-- Node1&#45;&gt;Node2 -->
<g id="edge2" class="edge"><title>Node1&#45;&gt;Node2</title>
<path fill="none" stroke="midnightblue" d="M78.4632,-359.661C81.016,-401.649 96.9173,-569.93 190,-654 191.72,-655.553 193.549,-656.983 195.465,-658.298"/>
<polygon fill="midnightblue" stroke="midnightblue" points="193.932,-661.453 204.353,-663.368 197.4,-655.373 193.932,-661.453"/>
</g>
<!-- Node5 -->
<g id="node9" class="node"><title>Node5</title>
<a xlink:href="class_sample_robot.html#a7e1a70c41806f2f22e4a5dbd88d03538" target="_top" xlink:title="SampleRobot::RobotMain">
<polygon fill="white" stroke="black" points="201,-625.5 201,-644.5 329,-644.5 329,-625.5 201,-625.5"/>
<text text-anchor="middle" x="265" y="-632.5" font-family="Helvetica,sans-Serif" font-size="10.00">SampleRobot::RobotMain</text>
</a>
</g>
<!-- Node1&#45;&gt;Node5 -->
<g id="edge8" class="edge"><title>Node1&#45;&gt;Node5</title>
<path fill="none" stroke="midnightblue" d="M79.0062,-359.501C83.6042,-397.984 106.151,-543.667 190,-616 191.795,-617.549 193.701,-618.974 195.692,-620.285"/>
<polygon fill="midnightblue" stroke="midnightblue" points="194.447,-623.594 204.898,-625.334 197.813,-617.456 194.447,-623.594"/>
</g>
<!-- Node6 -->
<g id="node11" class="node"><title>Node6</title>
<a xlink:href="class_live_window.html#a32b93a8ff3f60440654af8b5c351bc5f" target="_top" xlink:title="LiveWindow::SetEnabled">
<polygon fill="white" stroke="black" points="203,-587.5 203,-606.5 327,-606.5 327,-587.5 203,-587.5"/>
<text text-anchor="middle" x="265" y="-594.5" font-family="Helvetica,sans-Serif" font-size="10.00">LiveWindow::SetEnabled</text>
</a>
</g>
<!-- Node1&#45;&gt;Node6 -->
<g id="edge10" class="edge"><title>Node1&#45;&gt;Node6</title>
<path fill="none" stroke="midnightblue" d="M79.7403,-359.57C86.6385,-394.656 115.411,-517.341 190,-578 192.071,-579.684 194.274,-581.221 196.575,-582.623"/>
<polygon fill="midnightblue" stroke="midnightblue" points="195.37,-585.939 205.865,-587.391 198.567,-579.711 195.37,-585.939"/>
</g>
<!-- Node7 -->
<g id="node13" class="node"><title>Node7</title>
<a xlink:href="class_sample_robot.html#a892614bbdf3a98e76e7c0eb38d273db9" target="_top" xlink:title="SampleRobot::RobotInit">
<polygon fill="white" stroke="black" points="205.5,-549.5 205.5,-568.5 324.5,-568.5 324.5,-549.5 205.5,-549.5"/>
<text text-anchor="middle" x="265" y="-556.5" font-family="Helvetica,sans-Serif" font-size="10.00">SampleRobot::RobotInit</text>
</a>
</g>
<!-- Node1&#45;&gt;Node7 -->
<g id="edge12" class="edge"><title>Node1&#45;&gt;Node7</title>
<path fill="none" stroke="midnightblue" d="M80.7663,-359.688C90.2456,-391.071 124.507,-490.754 190,-540 192.516,-541.892 195.202,-543.596 198.004,-545.132"/>
<polygon fill="midnightblue" stroke="midnightblue" points="196.745,-548.407 207.285,-549.483 199.716,-542.069 196.745,-548.407"/>
</g>
<!-- Node8 -->
<g id="node15" class="node"><title>Node8</title>
<a xlink:href="class_robot_base.html#a75fb5e396eaee765e65d3bf24d5c2a08" target="_top" xlink:title="RobotBase::IsDisabled">
<polygon fill="white" stroke="black" points="207,-511.5 207,-530.5 323,-530.5 323,-511.5 207,-511.5"/>
<text text-anchor="middle" x="265" y="-518.5" font-family="Helvetica,sans-Serif" font-size="10.00">RobotBase::IsDisabled</text>
</a>
</g>
<!-- Node1&#45;&gt;Node8 -->
<g id="edge14" class="edge"><title>Node1&#45;&gt;Node8</title>
<path fill="none" stroke="midnightblue" d="M82.1966,-359.614C94.4971,-386.62 133.21,-463.683 190,-502 192.948,-503.989 196.09,-505.77 199.354,-507.364"/>
<polygon fill="midnightblue" stroke="midnightblue" points="198.239,-510.693 208.811,-511.382 200.976,-504.251 198.239,-510.693"/>
</g>
<!-- Node10 -->
<g id="node19" class="node"><title>Node10</title>
<a xlink:href="class_driver_station.html#aa4dcf7380058351a899409956c2f4894" target="_top" xlink:title="DriverStation::InDisabled">
<polygon fill="white" stroke="black" points="204,-473.5 204,-492.5 326,-492.5 326,-473.5 204,-473.5"/>
<text text-anchor="middle" x="265" y="-480.5" font-family="Helvetica,sans-Serif" font-size="10.00">DriverStation::InDisabled</text>
</a>
</g>
<!-- Node1&#45;&gt;Node10 -->
<g id="edge18" class="edge"><title>Node1&#45;&gt;Node10</title>
<path fill="none" stroke="midnightblue" d="M84.5968,-359.669C100.193,-381.758 141.681,-436.155 190,-464 193.854,-466.221 197.967,-468.186 202.207,-469.924"/>
<polygon fill="midnightblue" stroke="midnightblue" points="201.043,-473.225 211.636,-473.377 203.45,-466.652 201.043,-473.225"/>
</g>
<!-- Node11 -->
<g id="node21" class="node"><title>Node11</title>
<a xlink:href="class_sample_robot.html#a6ca2bdc173ea32981fa08d37576a7628" target="_top" xlink:title="SampleRobot::Disabled">
<polygon fill="white" stroke="black" points="205.5,-435.5 205.5,-454.5 324.5,-454.5 324.5,-435.5 205.5,-435.5"/>
<text text-anchor="middle" x="265" y="-442.5" font-family="Helvetica,sans-Serif" font-size="10.00">SampleRobot::Disabled</text>
</a>
</g>
<!-- Node1&#45;&gt;Node11 -->
<g id="edge20" class="edge"><title>Node1&#45;&gt;Node11</title>
<path fill="none" stroke="midnightblue" d="M89.2936,-359.649C108.646,-375.707 149.945,-407.931 190,-426 195.344,-428.411 201.05,-430.556 206.831,-432.454"/>
<polygon fill="midnightblue" stroke="midnightblue" points="205.998,-435.859 216.584,-435.421 208.036,-429.162 205.998,-435.859"/>
</g>
<!-- Node12 -->
<g id="node23" class="node"><title>Node12</title>
<a xlink:href="class_driver_station.html#ad1649357c3e7888a0e47c7dc1e91d1e4" target="_top" xlink:title="DriverStation::WaitForData">
<polygon fill="white" stroke="black" points="199,-397.5 199,-416.5 331,-416.5 331,-397.5 199,-397.5"/>
<text text-anchor="middle" x="265" y="-404.5" font-family="Helvetica,sans-Serif" font-size="10.00">DriverStation::WaitForData</text>
</a>
</g>
<!-- Node1&#45;&gt;Node12 -->
<g id="edge22" class="edge"><title>Node1&#45;&gt;Node12</title>
<path fill="none" stroke="midnightblue" d="M104.521,-359.632C127.101,-367.679 160.479,-379.216 190,-388 198.041,-390.393 206.626,-392.763 214.995,-394.976"/>
<polygon fill="midnightblue" stroke="midnightblue" points="214.116,-398.363 224.675,-397.493 215.878,-391.589 214.116,-398.363"/>
</g>
<!-- Node13 -->
<g id="node25" class="node"><title>Node13</title>
<a xlink:href="class_robot_base.html#a9eac80c5e53650e1e3e26e7b5f8cb5aa" target="_top" xlink:title="RobotBase::IsAutonomous">
<polygon fill="white" stroke="black" points="198.5,-359.5 198.5,-378.5 331.5,-378.5 331.5,-359.5 198.5,-359.5"/>
<text text-anchor="middle" x="265" y="-366.5" font-family="Helvetica,sans-Serif" font-size="10.00">RobotBase::IsAutonomous</text>
</a>
</g>
<!-- Node1&#45;&gt;Node13 -->
<g id="edge24" class="edge"><title>Node1&#45;&gt;Node13</title>
<path fill="none" stroke="midnightblue" d="M154.19,-357.783C165.404,-358.928 176.956,-360.108 188.164,-361.253"/>
<polygon fill="midnightblue" stroke="midnightblue" points="188.036,-364.758 198.34,-362.293 188.747,-357.795 188.036,-364.758"/>
</g>
<!-- Node15 -->
<g id="node29" class="node"><title>Node15</title>
<a xlink:href="class_driver_station.html#a7900262f3e202b831340eee39ce00fee" target="_top" xlink:title="DriverStation::InAutonomous">
<polygon fill="white" stroke="black" points="195,-321.5 195,-340.5 335,-340.5 335,-321.5 195,-321.5"/>
<text text-anchor="middle" x="265" y="-328.5" font-family="Helvetica,sans-Serif" font-size="10.00">DriverStation::InAutonomous</text>
</a>
</g>
<!-- Node1&#45;&gt;Node15 -->
<g id="edge28" class="edge"><title>Node1&#45;&gt;Node15</title>
<path fill="none" stroke="midnightblue" d="M154.19,-342.217C164.273,-341.187 174.628,-340.129 184.761,-339.094"/>
<polygon fill="midnightblue" stroke="midnightblue" points="185.208,-342.567 194.8,-338.069 184.496,-335.603 185.208,-342.567"/>
</g>
<!-- Node16 -->
<g id="node31" class="node"><title>Node16</title>
<a xlink:href="class_sample_robot.html#aee64b40ffeea86c0557be3360c8f67ed" target="_top" xlink:title="SampleRobot::Autonomous">
<polygon fill="white" stroke="black" points="197,-283.5 197,-302.5 333,-302.5 333,-283.5 197,-283.5"/>
<text text-anchor="middle" x="265" y="-290.5" font-family="Helvetica,sans-Serif" font-size="10.00">SampleRobot::Autonomous</text>
</a>
</g>
<!-- Node1&#45;&gt;Node16 -->
<g id="edge30" class="edge"><title>Node1&#45;&gt;Node16</title>
<path fill="none" stroke="midnightblue" d="M104.521,-340.368C127.101,-332.321 160.479,-320.784 190,-312 198.041,-309.607 206.626,-307.237 214.995,-305.024"/>
<polygon fill="midnightblue" stroke="midnightblue" points="215.878,-308.411 224.675,-302.507 214.116,-301.637 215.878,-308.411"/>
</g>
<!-- Node17 -->
<g id="node33" class="node"><title>Node17</title>
<a xlink:href="class_robot_base.html#a597e7b256dd4a950ff25e1823df5f2ae" target="_top" xlink:title="RobotBase::IsEnabled">
<polygon fill="white" stroke="black" points="208.5,-245.5 208.5,-264.5 321.5,-264.5 321.5,-245.5 208.5,-245.5"/>
<text text-anchor="middle" x="265" y="-252.5" font-family="Helvetica,sans-Serif" font-size="10.00">RobotBase::IsEnabled</text>
</a>
</g>
<!-- Node1&#45;&gt;Node17 -->
<g id="edge32" class="edge"><title>Node1&#45;&gt;Node17</title>
<path fill="none" stroke="midnightblue" d="M89.2936,-340.351C108.646,-324.293 149.945,-292.069 190,-274 195.344,-271.589 201.05,-269.444 206.831,-267.546"/>
<polygon fill="midnightblue" stroke="midnightblue" points="208.036,-270.838 216.584,-264.579 205.998,-264.141 208.036,-270.838"/>
</g>
<!-- Node19 -->
<g id="node37" class="node"><title>Node19</title>
<a xlink:href="class_robot_base.html#adfc40b5a85b1747b056c43ec3571db38" target="_top" xlink:title="RobotBase::IsTest">
<polygon fill="white" stroke="black" points="216.5,-207.5 216.5,-226.5 313.5,-226.5 313.5,-207.5 216.5,-207.5"/>
<text text-anchor="middle" x="265" y="-214.5" font-family="Helvetica,sans-Serif" font-size="10.00">RobotBase::IsTest</text>
</a>
</g>
<!-- Node1&#45;&gt;Node19 -->
<g id="edge36" class="edge"><title>Node1&#45;&gt;Node19</title>
<path fill="none" stroke="midnightblue" d="M84.5968,-340.331C100.193,-318.242 141.681,-263.845 190,-236 195.154,-233.03 200.772,-230.518 206.535,-228.394"/>
<polygon fill="midnightblue" stroke="midnightblue" points="207.91,-231.626 216.313,-225.173 205.72,-224.977 207.91,-231.626"/>
</g>
<!-- Node21 -->
<g id="node41" class="node"><title>Node21</title>
<a xlink:href="class_driver_station.html#aad0f43ea94cbbe2adb7b57c46457e25b" target="_top" xlink:title="DriverStation::InTest">
<polygon fill="white" stroke="black" points="213,-169.5 213,-188.5 317,-188.5 317,-169.5 213,-169.5"/>
<text text-anchor="middle" x="265" y="-176.5" font-family="Helvetica,sans-Serif" font-size="10.00">DriverStation::InTest</text>
</a>
</g>
<!-- Node1&#45;&gt;Node21 -->
<g id="edge40" class="edge"><title>Node1&#45;&gt;Node21</title>
<path fill="none" stroke="midnightblue" d="M82.1966,-340.386C94.4971,-313.38 133.21,-236.317 190,-198 194.048,-195.269 198.461,-192.931 203.052,-190.928"/>
<polygon fill="midnightblue" stroke="midnightblue" points="204.561,-194.099 212.664,-187.272 202.073,-187.556 204.561,-194.099"/>
</g>
<!-- Node22 -->
<g id="node43" class="node"><title>Node22</title>
<a xlink:href="class_sample_robot.html#a5cd39223d4f3040013110aec623a51d0" target="_top" xlink:title="SampleRobot::Test">
<polygon fill="white" stroke="black" points="215,-131.5 215,-150.5 315,-150.5 315,-131.5 215,-131.5"/>
<text text-anchor="middle" x="265" y="-138.5" font-family="Helvetica,sans-Serif" font-size="10.00">SampleRobot::Test</text>
</a>
</g>
<!-- Node1&#45;&gt;Node22 -->
<g id="edge42" class="edge"><title>Node1&#45;&gt;Node22</title>
<path fill="none" stroke="midnightblue" d="M80.7663,-340.312C90.2456,-308.929 124.507,-209.246 190,-160 194.686,-156.476 199.96,-153.603 205.479,-151.261"/>
<polygon fill="midnightblue" stroke="midnightblue" points="206.751,-154.522 214.939,-147.798 204.345,-147.949 206.751,-154.522"/>
</g>
<!-- Node23 -->
<g id="node45" class="node"><title>Node23</title>
<a xlink:href="class_driver_station.html#abe59eecc8f79e13cc9524d9a4af1a853" target="_top" xlink:title="DriverStation::InOperator\lControl">
<polygon fill="white" stroke="black" points="204,-82 204,-112 326,-112 326,-82 204,-82"/>
<text text-anchor="start" x="212" y="-100" font-family="Helvetica,sans-Serif" font-size="10.00">DriverStation::InOperator</text>
<text text-anchor="middle" x="265" y="-89" font-family="Helvetica,sans-Serif" font-size="10.00">Control</text>
</a>
</g>
<!-- Node1&#45;&gt;Node23 -->
<g id="edge44" class="edge"><title>Node1&#45;&gt;Node23</title>
<path fill="none" stroke="midnightblue" d="M79.9967,-340.131C87.604,-305.049 118.052,-185.103 190,-122 191.918,-120.318 193.954,-118.748 196.079,-117.283"/>
<polygon fill="midnightblue" stroke="midnightblue" points="197.889,-120.279 204.666,-112.136 194.29,-114.275 197.889,-120.279"/>
</g>
<!-- Node24 -->
<g id="node47" class="node"><title>Node24</title>
<a xlink:href="class_sample_robot.html#aeb2c7d1d5ea1d0f8452d580038c60b21" target="_top" xlink:title="SampleRobot::OperatorControl">
<polygon fill="white" stroke="black" points="190.5,-43.5 190.5,-62.5 339.5,-62.5 339.5,-43.5 190.5,-43.5"/>
<text text-anchor="middle" x="265" y="-50.5" font-family="Helvetica,sans-Serif" font-size="10.00">SampleRobot::OperatorControl</text>
</a>
</g>
<!-- Node1&#45;&gt;Node24 -->
<g id="edge46" class="edge"><title>Node1&#45;&gt;Node24</title>
<path fill="none" stroke="midnightblue" d="M78.8312,-340.353C82.79,-300.593 103.318,-147.96 190,-72 191.783,-70.4374 193.678,-69.0004 195.66,-67.6791"/>
<polygon fill="midnightblue" stroke="midnightblue" points="197.786,-70.5031 204.837,-62.5957 194.394,-64.3798 197.786,-70.5031"/>
</g>
<!-- Node25 -->
<g id="node49" class="node"><title>Node25</title>
<a xlink:href="class_robot_base.html#a05c699856acfe35b0ffb2172c39e23de" target="_top" xlink:title="RobotBase::IsOperatorControl">
<polygon fill="white" stroke="black" points="192,-5.5 192,-24.5 338,-24.5 338,-5.5 192,-5.5"/>
<text text-anchor="middle" x="265" y="-12.5" font-family="Helvetica,sans-Serif" font-size="10.00">RobotBase::IsOperatorControl</text>
</a>
</g>
<!-- Node1&#45;&gt;Node25 -->
<g id="edge48" class="edge"><title>Node1&#45;&gt;Node25</title>
<path fill="none" stroke="midnightblue" d="M78.3153,-340.259C80.2574,-297.149 94,-121.789 190,-34 191.71,-32.4364 193.531,-30.9976 195.44,-29.6741"/>
<polygon fill="midnightblue" stroke="midnightblue" points="197.379,-32.5969 204.303,-24.5783 193.889,-26.5284 197.379,-32.5969"/>
</g>
<!-- Node3 -->
<g id="node5" class="node"><title>Node3</title>
<a xlink:href="class_live_window.html#ac33cec031b5990d91e5c68efb3340b68" target="_top" xlink:title="LiveWindow::LiveWindow">
<polygon fill="white" stroke="black" points="383.5,-663.5 383.5,-682.5 508.5,-682.5 508.5,-663.5 383.5,-663.5"/>
<text text-anchor="middle" x="446" y="-670.5" font-family="Helvetica,sans-Serif" font-size="10.00">LiveWindow::LiveWindow</text>
</a>
</g>
<!-- Node2&#45;&gt;Node3 -->
<g id="edge4" class="edge"><title>Node2&#45;&gt;Node3</title>
<path fill="none" stroke="midnightblue" d="M328.103,-673C342.625,-673 358.211,-673 373.119,-673"/>
<polygon fill="midnightblue" stroke="midnightblue" points="373.309,-676.5 383.309,-673 373.309,-669.5 373.309,-676.5"/>
</g>
<!-- Node4 -->
<g id="node7" class="node"><title>Node4</title>
<a xlink:href="class_scheduler.html#a5cc7ff43cb79880d28586b07ec967070" target="_top" xlink:title="Scheduler::GetInstance">
<polygon fill="white" stroke="black" points="552.5,-663.5 552.5,-682.5 671.5,-682.5 671.5,-663.5 552.5,-663.5"/>
<text text-anchor="middle" x="612" y="-670.5" font-family="Helvetica,sans-Serif" font-size="10.00">Scheduler::GetInstance</text>
</a>
</g>
<!-- Node3&#45;&gt;Node4 -->
<g id="edge6" class="edge"><title>Node3&#45;&gt;Node4</title>
<path fill="none" stroke="midnightblue" d="M508.534,-673C519.529,-673 531.048,-673 542.23,-673"/>
<polygon fill="midnightblue" stroke="midnightblue" points="542.38,-676.5 552.38,-673 542.38,-669.5 542.38,-676.5"/>
</g>
<!-- Node9 -->
<g id="node17" class="node"><title>Node9</title>
<a xlink:href="class_driver_station.html#afcccb82207e0342596133e81dc7a047f" target="_top" xlink:title="DriverStation::IsDisabled">
<polygon fill="white" stroke="black" points="385,-511.5 385,-530.5 507,-530.5 507,-511.5 385,-511.5"/>
<text text-anchor="middle" x="446" y="-518.5" font-family="Helvetica,sans-Serif" font-size="10.00">DriverStation::IsDisabled</text>
</a>
</g>
<!-- Node8&#45;&gt;Node9 -->
<g id="edge16" class="edge"><title>Node8&#45;&gt;Node9</title>
<path fill="none" stroke="midnightblue" d="M323.129,-521C339.397,-521 357.314,-521 374.288,-521"/>
<polygon fill="midnightblue" stroke="midnightblue" points="374.711,-524.5 384.711,-521 374.711,-517.5 374.711,-524.5"/>
</g>
<!-- Node14 -->
<g id="node27" class="node"><title>Node14</title>
<a xlink:href="class_driver_station.html#ae7f9794664d49a36b65a3cd4a6e6987b" target="_top" xlink:title="DriverStation::IsAutonomous">
<polygon fill="white" stroke="black" points="376,-359.5 376,-378.5 516,-378.5 516,-359.5 376,-359.5"/>
<text text-anchor="middle" x="446" y="-366.5" font-family="Helvetica,sans-Serif" font-size="10.00">DriverStation::IsAutonomous</text>
</a>
</g>
<!-- Node13&#45;&gt;Node14 -->
<g id="edge26" class="edge"><title>Node13&#45;&gt;Node14</title>
<path fill="none" stroke="midnightblue" d="M331.637,-369C342.637,-369 354.157,-369 365.461,-369"/>
<polygon fill="midnightblue" stroke="midnightblue" points="365.762,-372.5 375.762,-369 365.762,-365.5 365.762,-372.5"/>
</g>
<!-- Node18 -->
<g id="node35" class="node"><title>Node18</title>
<a xlink:href="class_driver_station.html#a7e0490ebe441784f803e09325436ac10" target="_top" xlink:title="DriverStation::IsEnabled">
<polygon fill="white" stroke="black" points="386,-245.5 386,-264.5 506,-264.5 506,-245.5 386,-245.5"/>
<text text-anchor="middle" x="446" y="-252.5" font-family="Helvetica,sans-Serif" font-size="10.00">DriverStation::IsEnabled</text>
</a>
</g>
<!-- Node17&#45;&gt;Node18 -->
<g id="edge34" class="edge"><title>Node17&#45;&gt;Node18</title>
<path fill="none" stroke="midnightblue" d="M321.656,-255C338.808,-255 357.905,-255 375.849,-255"/>
<polygon fill="midnightblue" stroke="midnightblue" points="375.968,-258.5 385.968,-255 375.968,-251.5 375.968,-258.5"/>
</g>
<!-- Node20 -->
<g id="node39" class="node"><title>Node20</title>
<a xlink:href="class_driver_station.html#af3ae56342fb009434d06f7cd66528a64" target="_top" xlink:title="DriverStation::IsTest">
<polygon fill="white" stroke="black" points="394,-207.5 394,-226.5 498,-226.5 498,-207.5 394,-207.5"/>
<text text-anchor="middle" x="446" y="-214.5" font-family="Helvetica,sans-Serif" font-size="10.00">DriverStation::IsTest</text>
</a>
</g>
<!-- Node19&#45;&gt;Node20 -->
<g id="edge38" class="edge"><title>Node19&#45;&gt;Node20</title>
<path fill="none" stroke="midnightblue" d="M313.969,-217C335.342,-217 360.776,-217 383.524,-217"/>
<polygon fill="midnightblue" stroke="midnightblue" points="383.762,-220.5 393.762,-217 383.762,-213.5 383.762,-220.5"/>
</g>
<!-- Node26 -->
<g id="node51" class="node"><title>Node26</title>
<a xlink:href="class_driver_station.html#a092c3018d93ff244bea1b6570a48054b" target="_top" xlink:title="DriverStation::IsOperator\lControl">
<polygon fill="white" stroke="black" points="385,-0 385,-30 507,-30 507,-0 385,-0"/>
<text text-anchor="start" x="393" y="-18" font-family="Helvetica,sans-Serif" font-size="10.00">DriverStation::IsOperator</text>
<text text-anchor="middle" x="446" y="-7" font-family="Helvetica,sans-Serif" font-size="10.00">Control</text>
</a>
</g>
<!-- Node25&#45;&gt;Node26 -->
<g id="edge50" class="edge"><title>Node25&#45;&gt;Node26</title>
<path fill="none" stroke="midnightblue" d="M338.032,-15C350.176,-15 362.766,-15 374.86,-15"/>
<polygon fill="midnightblue" stroke="midnightblue" points="374.882,-18.5001 384.882,-15 374.882,-11.5001 374.882,-18.5001"/>
</g>
</g>
</svg>
