<?xml version="1.0" encoding="UTF-8" standalone="no"?>
<!DOCTYPE svg PUBLIC "-//W3C//DTD SVG 1.1//EN"
 "http://www.w3.org/Graphics/SVG/1.1/DTD/svg11.dtd">
<!-- Generated by graphviz version 2.28.0 (20110507.0327)
 -->
<!-- Title: Solenoid::InitTable Pages: 1 -->
<svg width="526pt" height="66pt"
 viewBox="0.00 0.00 526.00 66.00" xmlns="http://www.w3.org/2000/svg" xmlns:xlink="http://www.w3.org/1999/xlink">
<g id="graph1" class="graph" transform="scale(1 1) rotate(0) translate(4 62)">
<title>Solenoid::InitTable</title>
<polygon fill="white" stroke="white" points="-4,5 -4,-62 523,-62 523,5 -4,5"/>
<!-- Node1 -->
<g id="node1" class="node"><title>Node1</title>
<polygon fill="#bfbfbf" stroke="black" points="0,-19.5 0,-38.5 96,-38.5 96,-19.5 0,-19.5"/>
<text text-anchor="middle" x="48" y="-26.5" font-family="Helvetica,sans-Serif" font-size="10.00">Solenoid::InitTable</text>
</g>
<!-- Node2 -->
<g id="node3" class="node"><title>Node2</title>
<a xlink:href="class_solenoid.html#a150a157619f3f1572d5481cf85290ba8" target="_top" xlink:title="Solenoid::UpdateTable">
<polygon fill="white" stroke="black" points="132,-19.5 132,-38.5 246,-38.5 246,-19.5 132,-19.5"/>
<text text-anchor="middle" x="189" y="-26.5" font-family="Helvetica,sans-Serif" font-size="10.00">Solenoid::UpdateTable</text>
</a>
</g>
<!-- Node1&#45;&gt;Node2 -->
<g id="edge2" class="edge"><title>Node1&#45;&gt;Node2</title>
<path fill="none" stroke="midnightblue" d="M96.0591,-29C104.324,-29 113.063,-29 121.735,-29"/>
<polygon fill="midnightblue" stroke="midnightblue" points="121.852,-32.5001 131.852,-29 121.851,-25.5001 121.852,-32.5001"/>
</g>
<!-- Node3 -->
<g id="node5" class="node"><title>Node3</title>
<a xlink:href="class_solenoid.html#ab9eda95dc5f78d2f808a053d33e40814" target="_top" xlink:title="Solenoid::Get">
<polygon fill="white" stroke="black" points="282,-19.5 282,-38.5 358,-38.5 358,-19.5 282,-19.5"/>
<text text-anchor="middle" x="320" y="-26.5" font-family="Helvetica,sans-Serif" font-size="10.00">Solenoid::Get</text>
</a>
</g>
<!-- Node2&#45;&gt;Node3 -->
<g id="edge4" class="edge"><title>Node2&#45;&gt;Node3</title>
<path fill="none" stroke="midnightblue" d="M246.206,-29C254.704,-29 263.397,-29 271.682,-29"/>
<polygon fill="midnightblue" stroke="midnightblue" points="271.912,-32.5001 281.912,-29 271.912,-25.5001 271.912,-32.5001"/>
</g>
<!-- Node4 -->
<g id="node7" class="node"><title>Node4</title>
<a xlink:href="class_error_base.html#a05790f219c9e436a09752f73f7344024" target="_top" xlink:title="Check if the current error code represents a fatal error. ">
<polygon fill="white" stroke="black" points="394,-38.5 394,-57.5 518,-57.5 518,-38.5 394,-38.5"/>
<text text-anchor="middle" x="456" y="-45.5" font-family="Helvetica,sans-Serif" font-size="10.00">ErrorBase::StatusIsFatal</text>
</a>
</g>
<!-- Node3&#45;&gt;Node4 -->
<g id="edge6" class="edge"><title>Node3&#45;&gt;Node4</title>
<path fill="none" stroke="midnightblue" d="M358.326,-34.2926C366.372,-35.4334 375.134,-36.6757 383.989,-37.9313"/>
<polygon fill="midnightblue" stroke="midnightblue" points="383.601,-41.4112 393.993,-39.3498 384.584,-34.4805 383.601,-41.4112"/>
</g>
<!-- Node5 -->
<g id="node9" class="node"><title>Node5</title>
<a xlink:href="class_solenoid_base.html#a2357cb3d45699c560f8892de139bedbd" target="_top" xlink:title="SolenoidBase::GetAll">
<polygon fill="white" stroke="black" points="401,-0.5 401,-19.5 511,-19.5 511,-0.5 401,-0.5"/>
<text text-anchor="middle" x="456" y="-7.5" font-family="Helvetica,sans-Serif" font-size="10.00">SolenoidBase::GetAll</text>
</a>
</g>
<!-- Node3&#45;&gt;Node5 -->
<g id="edge8" class="edge"><title>Node3&#45;&gt;Node5</title>
<path fill="none" stroke="midnightblue" d="M358.326,-23.7074C368.406,-22.2783 379.608,-20.6899 390.711,-19.1156"/>
<polygon fill="midnightblue" stroke="midnightblue" points="391.435,-22.5481 400.844,-17.6788 390.452,-15.6174 391.435,-22.5481"/>
</g>
</g>
</svg>
