<?xml version="1.0" encoding="UTF-8" standalone="no"?>
<!DOCTYPE svg PUBLIC "-//W3C//DTD SVG 1.1//EN"
 "http://www.w3.org/Graphics/SVG/1.1/DTD/svg11.dtd">
<!-- Generated by graphviz version 2.28.0 (20110507.0327)
 -->
<!-- Title: Joystick Pages: 1 -->
<svg width="177pt" height="164pt"
 viewBox="0.00 0.00 177.00 164.00" xmlns="http://www.w3.org/2000/svg" xmlns:xlink="http://www.w3.org/1999/xlink">
<g id="graph1" class="graph" transform="scale(1 1) rotate(0) translate(4 160)">
<title>Joystick</title>
<polygon fill="white" stroke="white" points="-4,5 -4,-160 174,-160 174,5 -4,5"/>
<!-- Node1 -->
<g id="node1" class="node"><title>Node1</title>
<polygon fill="#bfbfbf" stroke="black" points="51.5,-0.5 51.5,-19.5 104.5,-19.5 104.5,-0.5 51.5,-0.5"/>
<text text-anchor="middle" x="78" y="-7.5" font-family="Helvetica,sans-Serif" font-size="10.00">Joystick</text>
</g>
<!-- Node2 -->
<g id="node2" class="node"><title>Node2</title>
<a xlink:href="class_generic_h_i_d.html" target="_top" xlink:title="GenericHID">
<polygon fill="white" stroke="black" points="0,-58.5 0,-77.5 66,-77.5 66,-58.5 0,-58.5"/>
<text text-anchor="middle" x="33" y="-65.5" font-family="Helvetica,sans-Serif" font-size="10.00">GenericHID</text>
</a>
</g>
<!-- Node2&#45;&gt;Node1 -->
<g id="edge2" class="edge"><title>Node2&#45;&gt;Node1</title>
<path fill="none" stroke="midnightblue" d="M40.5232,-49.8224C47.6837,-39.7716 57.9508,-27.522 66.1561,-19.5052"/>
<polygon fill="midnightblue" stroke="midnightblue" points="37.5494,-47.9743 34.9688,-58.25 43.3942,-51.8264 37.5494,-47.9743"/>
</g>
<!-- Node2&#45;&gt;Node1 -->
<g id="edge8" class="edge"><title>Node2&#45;&gt;Node1</title>
<path fill="none" stroke="midnightblue" d="M52.2593,-50.739C61.4951,-40.5255 71.3528,-27.7674 76.1748,-19.5052"/>
<polygon fill="midnightblue" stroke="midnightblue" points="49.4641,-48.5985 45.0938,-58.25 54.5289,-53.4304 49.4641,-48.5985"/>
</g>
<!-- Node3 -->
<g id="node4" class="node"><title>Node3</title>
<a xlink:href="class_error_base.html" target="_top" xlink:title="ErrorBase">
<polygon fill="white" stroke="black" points="84,-58.5 84,-77.5 144,-77.5 144,-58.5 84,-58.5"/>
<text text-anchor="middle" x="114" y="-65.5" font-family="Helvetica,sans-Serif" font-size="10.00">ErrorBase</text>
</a>
</g>
<!-- Node3&#45;&gt;Node1 -->
<g id="edge4" class="edge"><title>Node3&#45;&gt;Node1</title>
<path fill="none" stroke="midnightblue" d="M96.9027,-50.1293C89.4523,-40.022 81.8833,-27.6038 78.4583,-19.5052"/>
<polygon fill="midnightblue" stroke="midnightblue" points="94.3695,-52.569 103.313,-58.25 99.8641,-48.232 94.3695,-52.569"/>
</g>
<!-- Node3&#45;&gt;Node1 -->
<g id="edge10" class="edge"><title>Node3&#45;&gt;Node1</title>
<path fill="none" stroke="midnightblue" d="M108.895,-49.2043C103.354,-39.2734 95.2527,-27.3584 88.477,-19.5052"/>
<polygon fill="midnightblue" stroke="midnightblue" points="105.822,-50.8845 113.438,-58.25 112.077,-47.7428 105.822,-50.8845"/>
</g>
<!-- Node4 -->
<g id="node6" class="node"><title>Node4</title>
<a xlink:href="class_error.html" target="_top" xlink:title="Error">
<polygon fill="white" stroke="black" points="95,-136.5 95,-155.5 133,-155.5 133,-136.5 95,-136.5"/>
<text text-anchor="middle" x="114" y="-143.5" font-family="Helvetica,sans-Serif" font-size="10.00">Error</text>
</a>
</g>
<!-- Node4&#45;&gt;Node3 -->
<g id="edge6" class="edge"><title>Node4&#45;&gt;Node3</title>
<path fill="none" stroke="#9a32cd" stroke-dasharray="5,2" d="M114,-126.224C114,-110.697 114,-89.3582 114,-77.6165"/>
<polygon fill="#9a32cd" stroke="#9a32cd" points="110.5,-126.282 114,-136.282 117.5,-126.282 110.5,-126.282"/>
<text text-anchor="middle" x="141.5" y="-110" font-family="Helvetica,sans-Serif" font-size="10.00"> _globalError</text>
<text text-anchor="middle" x="141.5" y="-99" font-family="Helvetica,sans-Serif" font-size="10.00">m_error</text>
</g>
</g>
</svg>
