<?xml version="1.0" encoding="UTF-8" standalone="no"?>
<!DOCTYPE svg PUBLIC "-//W3C//DTD SVG 1.1//EN"
 "http://www.w3.org/Graphics/SVG/1.1/DTD/svg11.dtd">
<!-- Generated by graphviz version 2.28.0 (20110507.0327)
 -->
<!-- Title: Servo Pages: 1 -->
<svg width="300pt" height="252pt"
 viewBox="0.00 0.00 300.00 252.00" xmlns="http://www.w3.org/2000/svg" xmlns:xlink="http://www.w3.org/1999/xlink">
<g id="graph1" class="graph" transform="scale(1 1) rotate(0) translate(4 248)">
<title>Servo</title>
<polygon fill="white" stroke="white" points="-4,5 -4,-248 297,-248 297,5 -4,5"/>
<!-- Node1 -->
<g id="node1" class="node"><title>Node1</title>
<polygon fill="#bfbfbf" stroke="black" points="142.5,-0.5 142.5,-19.5 183.5,-19.5 183.5,-0.5 142.5,-0.5"/>
<text text-anchor="middle" x="163" y="-7.5" font-family="Helvetica,sans-Serif" font-size="10.00">Servo</text>
</g>
<!-- Node2 -->
<g id="node2" class="node"><title>Node2</title>
<a xlink:href="class_safe_p_w_m.html" target="_top" xlink:title="SafePWM">
<polygon fill="white" stroke="black" points="132.5,-56.5 132.5,-75.5 193.5,-75.5 193.5,-56.5 132.5,-56.5"/>
<text text-anchor="middle" x="163" y="-63.5" font-family="Helvetica,sans-Serif" font-size="10.00">SafePWM</text>
</a>
</g>
<!-- Node2&#45;&gt;Node1 -->
<g id="edge2" class="edge"><title>Node2&#45;&gt;Node1</title>
<path fill="none" stroke="midnightblue" d="M163,-45.8045C163,-36.9102 163,-26.7798 163,-19.7511"/>
<polygon fill="midnightblue" stroke="midnightblue" points="159.5,-46.083 163,-56.083 166.5,-46.083 159.5,-46.083"/>
</g>
<!-- Node3 -->
<g id="node4" class="node"><title>Node3</title>
<a xlink:href="class_p_w_m.html" target="_top" xlink:title="PWM">
<polygon fill="white" stroke="black" points="106.5,-112.5 106.5,-131.5 147.5,-131.5 147.5,-112.5 106.5,-112.5"/>
<text text-anchor="middle" x="127" y="-119.5" font-family="Helvetica,sans-Serif" font-size="10.00">PWM</text>
</a>
</g>
<!-- Node3&#45;&gt;Node2 -->
<g id="edge4" class="edge"><title>Node3&#45;&gt;Node2</title>
<path fill="none" stroke="midnightblue" d="M132.605,-102.983C137.989,-93.8168 145.564,-83.0922 152.035,-75.7511"/>
<polygon fill="midnightblue" stroke="midnightblue" points="129.372,-101.609 127.778,-112.083 135.556,-104.889 129.372,-101.609"/>
</g>
<!-- Node3&#45;&gt;Node2 -->
<g id="edge24" class="edge"><title>Node3&#45;&gt;Node2</title>
<path fill="none" stroke="midnightblue" d="M144.545,-104.144C151.676,-94.7357 158.838,-83.4046 162.297,-75.7511"/>
<polygon fill="midnightblue" stroke="midnightblue" points="141.688,-102.11 138.111,-112.083 147.126,-106.517 141.688,-102.11"/>
</g>
<!-- Node4 -->
<g id="node6" class="node"><title>Node4</title>
<a xlink:href="class_sensor_base.html" target="_top" xlink:title="SensorBase">
<polygon fill="white" stroke="black" points="0,-168.5 0,-187.5 70,-187.5 70,-168.5 0,-168.5"/>
<text text-anchor="middle" x="35" y="-175.5" font-family="Helvetica,sans-Serif" font-size="10.00">SensorBase</text>
</a>
</g>
<!-- Node4&#45;&gt;Node3 -->
<g id="edge6" class="edge"><title>Node4&#45;&gt;Node3</title>
<path fill="none" stroke="midnightblue" d="M53.4493,-162.622C69.0707,-152.757 91.1313,-139.992 107.145,-131.655"/>
<polygon fill="midnightblue" stroke="midnightblue" points="51.1482,-159.943 44.6666,-168.324 54.9599,-165.814 51.1482,-159.943"/>
</g>
<!-- Node4&#45;&gt;Node3 -->
<g id="edge16" class="edge"><title>Node4&#45;&gt;Node3</title>
<path fill="none" stroke="midnightblue" d="M63.7714,-163.59C82.1084,-153.605 104.561,-140.267 117.365,-131.655"/>
<polygon fill="midnightblue" stroke="midnightblue" points="62.072,-160.529 54.8962,-168.324 65.3667,-166.705 62.072,-160.529"/>
</g>
<!-- Node5 -->
<g id="node8" class="node"><title>Node5</title>
<a xlink:href="class_error_base.html" target="_top" xlink:title="ErrorBase">
<polygon fill="white" stroke="black" points="5,-224.5 5,-243.5 65,-243.5 65,-224.5 5,-224.5"/>
<text text-anchor="middle" x="35" y="-231.5" font-family="Helvetica,sans-Serif" font-size="10.00">ErrorBase</text>
</a>
</g>
<!-- Node5&#45;&gt;Node4 -->
<g id="edge8" class="edge"><title>Node5&#45;&gt;Node4</title>
<path fill="none" stroke="midnightblue" d="M35,-213.805C35,-204.91 35,-194.78 35,-187.751"/>
<polygon fill="midnightblue" stroke="midnightblue" points="31.5001,-214.083 35,-224.083 38.5001,-214.083 31.5001,-214.083"/>
</g>
<!-- Node6 -->
<g id="node10" class="node"><title>Node6</title>
<polygon fill="white" stroke="#bfbfbf" points="88.5,-168.5 88.5,-187.5 165.5,-187.5 165.5,-168.5 88.5,-168.5"/>
<text text-anchor="middle" x="127" y="-175.5" font-family="Helvetica,sans-Serif" font-size="10.00">ITableListener</text>
</g>
<!-- Node6&#45;&gt;Node3 -->
<g id="edge10" class="edge"><title>Node6&#45;&gt;Node3</title>
<path fill="none" stroke="midnightblue" d="M120.528,-158.101C119.896,-149.136 120.343,-138.858 121.869,-131.751"/>
<polygon fill="midnightblue" stroke="midnightblue" points="117.066,-158.622 121.834,-168.083 124.007,-157.713 117.066,-158.622"/>
</g>
<!-- Node6&#45;&gt;Node3 -->
<g id="edge18" class="edge"><title>Node6&#45;&gt;Node3</title>
<path fill="none" stroke="midnightblue" d="M133.472,-158.101C134.104,-149.136 133.657,-138.858 132.131,-131.751"/>
<polygon fill="midnightblue" stroke="midnightblue" points="129.993,-157.713 132.166,-168.083 136.934,-158.622 129.993,-157.713"/>
</g>
<!-- Node7 -->
<g id="node12" class="node"><title>Node7</title>
<a xlink:href="class_live_window_sendable.html" target="_top" xlink:title="LiveWindowSendable">
<polygon fill="white" stroke="black" points="184,-168.5 184,-187.5 292,-187.5 292,-168.5 184,-168.5"/>
<text text-anchor="middle" x="238" y="-175.5" font-family="Helvetica,sans-Serif" font-size="10.00">LiveWindowSendable</text>
</a>
</g>
<!-- Node7&#45;&gt;Node3 -->
<g id="edge12" class="edge"><title>Node7&#45;&gt;Node3</title>
<path fill="none" stroke="midnightblue" d="M205.919,-164.232C183.723,-154.131 155.563,-140.309 139.426,-131.516"/>
<polygon fill="midnightblue" stroke="midnightblue" points="204.766,-167.551 215.323,-168.444 207.627,-161.162 204.766,-167.551"/>
</g>
<!-- Node7&#45;&gt;Node3 -->
<g id="edge20" class="edge"><title>Node7&#45;&gt;Node3</title>
<path fill="none" stroke="midnightblue" d="M216.285,-163.551C196.293,-153.157 167.136,-139.144 147.506,-130.607"/>
<polygon fill="midnightblue" stroke="midnightblue" points="214.807,-166.729 225.281,-168.324 218.087,-160.546 214.807,-166.729"/>
</g>
<!-- Node8 -->
<g id="node14" class="node"><title>Node8</title>
<a xlink:href="class_sendable.html" target="_top" xlink:title="Sendable">
<polygon fill="white" stroke="black" points="209.5,-224.5 209.5,-243.5 266.5,-243.5 266.5,-224.5 209.5,-224.5"/>
<text text-anchor="middle" x="238" y="-231.5" font-family="Helvetica,sans-Serif" font-size="10.00">Sendable</text>
</a>
</g>
<!-- Node8&#45;&gt;Node7 -->
<g id="edge14" class="edge"><title>Node8&#45;&gt;Node7</title>
<path fill="none" stroke="midnightblue" d="M238,-213.805C238,-204.91 238,-194.78 238,-187.751"/>
<polygon fill="midnightblue" stroke="midnightblue" points="234.5,-214.083 238,-224.083 241.5,-214.083 234.5,-214.083"/>
</g>
<!-- Node9 -->
<g id="node19" class="node"><title>Node9</title>
<a xlink:href="class_motor_safety.html" target="_top" xlink:title="MotorSafety">
<polygon fill="white" stroke="black" points="165.5,-112.5 165.5,-131.5 234.5,-131.5 234.5,-112.5 165.5,-112.5"/>
<text text-anchor="middle" x="200" y="-119.5" font-family="Helvetica,sans-Serif" font-size="10.00">MotorSafety</text>
</a>
</g>
<!-- Node9&#45;&gt;Node2 -->
<g id="edge22" class="edge"><title>Node9&#45;&gt;Node2</title>
<path fill="none" stroke="midnightblue" d="M182.143,-104.144C174.837,-94.7357 167.466,-83.4046 163.865,-75.7511"/>
<polygon fill="midnightblue" stroke="midnightblue" points="179.647,-106.618 188.724,-112.083 185.037,-102.15 179.647,-106.618"/>
</g>
<!-- Node9&#45;&gt;Node2 -->
<g id="edge26" class="edge"><title>Node9&#45;&gt;Node2</title>
<path fill="none" stroke="midnightblue" d="M194.238,-103.275C188.673,-94.0454 180.804,-83.1703 174.127,-75.7511"/>
<polygon fill="midnightblue" stroke="midnightblue" points="191.186,-104.99 199.057,-112.083 197.328,-101.63 191.186,-104.99"/>
</g>
</g>
</svg>
