<?xml version="1.0" encoding="UTF-8" standalone="no"?>
<!DOCTYPE svg PUBLIC "-//W3C//DTD SVG 1.1//EN"
 "http://www.w3.org/Graphics/SVG/1.1/DTD/svg11.dtd">
<!-- Generated by graphviz version 2.28.0 (20110507.0327)
 -->
<!-- Title: Command::Run Pages: 1 -->
<svg width="528pt" height="180pt"
 viewBox="0.00 0.00 528.00 180.00" xmlns="http://www.w3.org/2000/svg" xmlns:xlink="http://www.w3.org/1999/xlink">
<g id="graph1" class="graph" transform="scale(1 1) rotate(0) translate(4 176)">
<title>Command::Run</title>
<polygon fill="white" stroke="white" points="-4,5 -4,-176 525,-176 525,5 -4,5"/>
<!-- Node1 -->
<g id="node1" class="node"><title>Node1</title>
<polygon fill="#bfbfbf" stroke="black" points="0,-76.5 0,-95.5 84,-95.5 84,-76.5 0,-76.5"/>
<text text-anchor="middle" x="42" y="-83.5" font-family="Helvetica,sans-Serif" font-size="10.00">Command::Run</text>
</g>
<!-- Node2 -->
<g id="node3" class="node"><title>Node2</title>
<a xlink:href="class_command.html#af566114c4b517ef22d8c7820c171b8b2" target="_top" xlink:title="Command::Cancel">
<polygon fill="white" stroke="black" points="129.5,-152.5 129.5,-171.5 226.5,-171.5 226.5,-152.5 129.5,-152.5"/>
<text text-anchor="middle" x="178" y="-159.5" font-family="Helvetica,sans-Serif" font-size="10.00">Command::Cancel</text>
</a>
</g>
<!-- Node1&#45;&gt;Node2 -->
<g id="edge2" class="edge"><title>Node1&#45;&gt;Node2</title>
<path fill="none" stroke="midnightblue" d="M53.7363,-95.6887C67.9789,-108.114 94.3235,-129.649 120,-143 124.066,-145.114 128.416,-147.063 132.832,-148.84"/>
<polygon fill="midnightblue" stroke="midnightblue" points="131.928,-152.238 142.52,-152.454 134.374,-145.679 131.928,-152.238"/>
</g>
<!-- Node5 -->
<g id="node9" class="node"><title>Node5</title>
<a xlink:href="class_command.html#aa8b9db0daa4b2bcc77f17a6aed08ed18" target="_top" xlink:title="Command::IsCanceled">
<polygon fill="white" stroke="black" points="120.5,-114.5 120.5,-133.5 235.5,-133.5 235.5,-114.5 120.5,-114.5"/>
<text text-anchor="middle" x="178" y="-121.5" font-family="Helvetica,sans-Serif" font-size="10.00">Command::IsCanceled</text>
</a>
</g>
<!-- Node1&#45;&gt;Node5 -->
<g id="edge8" class="edge"><title>Node1&#45;&gt;Node5</title>
<path fill="none" stroke="midnightblue" d="M76.8139,-95.589C94.0326,-100.472 115.164,-106.464 133.573,-111.685"/>
<polygon fill="midnightblue" stroke="midnightblue" points="132.621,-115.053 143.197,-114.414 134.531,-108.319 132.621,-115.053"/>
</g>
<!-- Node6 -->
<g id="node11" class="node"><title>Node6</title>
<a xlink:href="class_command.html#a35b4c5ab42d8190791863cc8f1224231" target="_top" xlink:title="Command::Initialize">
<polygon fill="white" stroke="black" points="127,-76.5 127,-95.5 229,-95.5 229,-76.5 127,-76.5"/>
<text text-anchor="middle" x="178" y="-83.5" font-family="Helvetica,sans-Serif" font-size="10.00">Command::Initialize</text>
</a>
</g>
<!-- Node1&#45;&gt;Node6 -->
<g id="edge10" class="edge"><title>Node1&#45;&gt;Node6</title>
<path fill="none" stroke="midnightblue" d="M84.2978,-86C94.4377,-86 105.503,-86 116.345,-86"/>
<polygon fill="midnightblue" stroke="midnightblue" points="116.634,-89.5001 126.634,-86 116.634,-82.5001 116.634,-89.5001"/>
</g>
<!-- Node7 -->
<g id="node13" class="node"><title>Node7</title>
<a xlink:href="class_command.html#a484c34647660fcfc8ee46b04ad5b32b6" target="_top" xlink:title="Command::Execute">
<polygon fill="white" stroke="black" points="126.5,-38.5 126.5,-57.5 229.5,-57.5 229.5,-38.5 126.5,-38.5"/>
<text text-anchor="middle" x="178" y="-45.5" font-family="Helvetica,sans-Serif" font-size="10.00">Command::Execute</text>
</a>
</g>
<!-- Node1&#45;&gt;Node7 -->
<g id="edge12" class="edge"><title>Node1&#45;&gt;Node7</title>
<path fill="none" stroke="midnightblue" d="M76.8139,-76.411C94.0326,-71.5281 115.164,-65.5357 133.573,-60.315"/>
<polygon fill="midnightblue" stroke="midnightblue" points="134.531,-63.6815 143.197,-57.5859 132.621,-56.947 134.531,-63.6815"/>
</g>
<!-- Node8 -->
<g id="node15" class="node"><title>Node8</title>
<a xlink:href="class_command.html#a350a1e6657cd59f177f55e8451e60aa9" target="_top" xlink:title="Command::IsFinished">
<polygon fill="white" stroke="black" points="122.5,-0.5 122.5,-19.5 233.5,-19.5 233.5,-0.5 122.5,-0.5"/>
<text text-anchor="middle" x="178" y="-7.5" font-family="Helvetica,sans-Serif" font-size="10.00">Command::IsFinished</text>
</a>
</g>
<!-- Node1&#45;&gt;Node8 -->
<g id="edge14" class="edge"><title>Node1&#45;&gt;Node8</title>
<path fill="none" stroke="midnightblue" d="M53.7363,-76.3113C67.9789,-63.8856 94.3235,-42.351 120,-29 124.066,-26.8856 128.416,-24.9374 132.832,-23.1605"/>
<polygon fill="midnightblue" stroke="midnightblue" points="134.374,-26.3207 142.52,-19.5463 131.928,-19.7622 134.374,-26.3207"/>
</g>
<!-- Node3 -->
<g id="node5" class="node"><title>Node3</title>
<a xlink:href="class_command.html#a2e36a819254da2bb9badb3227bdfe336" target="_top" xlink:title="Command::_Cancel">
<polygon fill="white" stroke="black" points="272,-152.5 272,-171.5 374,-171.5 374,-152.5 272,-152.5"/>
<text text-anchor="middle" x="323" y="-159.5" font-family="Helvetica,sans-Serif" font-size="10.00">Command::_Cancel</text>
</a>
</g>
<!-- Node2&#45;&gt;Node3 -->
<g id="edge4" class="edge"><title>Node2&#45;&gt;Node3</title>
<path fill="none" stroke="midnightblue" d="M226.617,-162C237.802,-162 249.869,-162 261.534,-162"/>
<polygon fill="midnightblue" stroke="midnightblue" points="261.65,-165.5 271.65,-162 261.65,-158.5 261.65,-165.5"/>
</g>
<!-- Node4 -->
<g id="node7" class="node"><title>Node4</title>
<a xlink:href="class_command.html#a2885369af7a278b59c6941b1df23ac86" target="_top" xlink:title="Command::IsRunning">
<polygon fill="white" stroke="black" points="410,-152.5 410,-171.5 520,-171.5 520,-152.5 410,-152.5"/>
<text text-anchor="middle" x="465" y="-159.5" font-family="Helvetica,sans-Serif" font-size="10.00">Command::IsRunning</text>
</a>
</g>
<!-- Node3&#45;&gt;Node4 -->
<g id="edge6" class="edge"><title>Node3&#45;&gt;Node4</title>
<path fill="none" stroke="midnightblue" d="M374.148,-162C382.494,-162 391.251,-162 399.887,-162"/>
<polygon fill="midnightblue" stroke="midnightblue" points="399.938,-165.5 409.938,-162 399.938,-158.5 399.938,-165.5"/>
</g>
</g>
</svg>
