<?xml version="1.0" encoding="UTF-8" standalone="no"?>
<!DOCTYPE svg PUBLIC "-//W3C//DTD SVG 1.1//EN"
 "http://www.w3.org/Graphics/SVG/1.1/DTD/svg11.dtd">
<!-- Generated by graphviz version 2.28.0 (20110507.0327)
 -->
<!-- Title: PIDController::GetI Pages: 1 -->
<svg width="418pt" height="66pt"
 viewBox="0.00 0.00 418.00 66.00" xmlns="http://www.w3.org/2000/svg" xmlns:xlink="http://www.w3.org/1999/xlink">
<g id="graph1" class="graph" transform="scale(1 1) rotate(0) translate(4 62)">
<title>PIDController::GetI</title>
<polygon fill="white" stroke="white" points="-4,5 -4,-62 415,-62 415,5 -4,5"/>
<!-- Node1 -->
<g id="node1" class="node"><title>Node1</title>
<polygon fill="#bfbfbf" stroke="black" points="0,-19.5 0,-38.5 98,-38.5 98,-19.5 0,-19.5"/>
<text text-anchor="middle" x="49" y="-26.5" font-family="Helvetica,sans-Serif" font-size="10.00">PIDController::GetI</text>
</g>
<!-- Node2 -->
<g id="node3" class="node"><title>Node2</title>
<a xlink:href="class_p_i_d_controller.html#af6e51e6973aad270d6e9320b65d363d2" target="_top" xlink:title="PIDController::InitTable">
<polygon fill="white" stroke="black" points="134,-19.5 134,-38.5 250,-38.5 250,-19.5 134,-19.5"/>
<text text-anchor="middle" x="192" y="-26.5" font-family="Helvetica,sans-Serif" font-size="10.00">PIDController::InitTable</text>
</a>
</g>
<!-- Node1&#45;&gt;Node2 -->
<g id="edge2" class="edge"><title>Node1&#45;&gt;Node2</title>
<path fill="none" stroke="midnightblue" d="M108.28,-29C116.727,-29 125.416,-29 133.84,-29"/>
<polygon fill="midnightblue" stroke="midnightblue" points="108.13,-25.5001 98.1298,-29 108.13,-32.5001 108.13,-25.5001"/>
</g>
<!-- Node3 -->
<g id="node5" class="node"><title>Node3</title>
<a xlink:href="class_p_i_d_command.html#aca89a102a75fc9fc9d8eaa4472a8af35" target="_top" xlink:title="PIDCommand::InitTable">
<polygon fill="white" stroke="black" points="288.5,-38.5 288.5,-57.5 407.5,-57.5 407.5,-38.5 288.5,-38.5"/>
<text text-anchor="middle" x="348" y="-45.5" font-family="Helvetica,sans-Serif" font-size="10.00">PIDCommand::InitTable</text>
</a>
</g>
<!-- Node2&#45;&gt;Node3 -->
<g id="edge4" class="edge"><title>Node2&#45;&gt;Node3</title>
<path fill="none" stroke="midnightblue" d="M260.353,-37.3098C269.671,-38.4594 279.18,-39.6325 288.323,-40.7606"/>
<polygon fill="midnightblue" stroke="midnightblue" points="260.697,-33.8258 250.344,-36.0749 259.84,-40.7731 260.697,-33.8258"/>
</g>
<!-- Node4 -->
<g id="node7" class="node"><title>Node4</title>
<a xlink:href="class_p_i_d_subsystem.html#a0fbee3092f4cdc044d5f1fd96dfbd7d4" target="_top" xlink:title="PIDSubsystem::InitTable">
<polygon fill="white" stroke="black" points="286,-0.5 286,-19.5 410,-19.5 410,-0.5 286,-0.5"/>
<text text-anchor="middle" x="348" y="-7.5" font-family="Helvetica,sans-Serif" font-size="10.00">PIDSubsystem::InitTable</text>
</a>
</g>
<!-- Node2&#45;&gt;Node4 -->
<g id="edge6" class="edge"><title>Node2&#45;&gt;Node4</title>
<path fill="none" stroke="midnightblue" d="M260.283,-20.6988C268.836,-19.6437 277.551,-18.5684 285.997,-17.5264"/>
<polygon fill="midnightblue" stroke="midnightblue" points="259.84,-17.2269 250.344,-21.9251 260.697,-24.1742 259.84,-17.2269"/>
</g>
</g>
</svg>
