<?xml version="1.0" encoding="UTF-8" standalone="no"?>
<!DOCTYPE svg PUBLIC "-//W3C//DTD SVG 1.1//EN"
 "http://www.w3.org/Graphics/SVG/1.1/DTD/svg11.dtd">
<!-- Generated by graphviz version 2.28.0 (20110507.0327)
 -->
<!-- Title: AnalogOutput::InitTable Pages: 1 -->
<svg width="466pt" height="28pt"
 viewBox="0.00 0.00 466.00 28.00" xmlns="http://www.w3.org/2000/svg" xmlns:xlink="http://www.w3.org/1999/xlink">
<g id="graph1" class="graph" transform="scale(1 1) rotate(0) translate(4 24)">
<title>AnalogOutput::InitTable</title>
<polygon fill="white" stroke="white" points="-4,5 -4,-24 463,-24 463,5 -4,5"/>
<!-- Node1 -->
<g id="node1" class="node"><title>Node1</title>
<polygon fill="#bfbfbf" stroke="black" points="0,-0.5 0,-19.5 118,-19.5 118,-0.5 0,-0.5"/>
<text text-anchor="middle" x="59" y="-7.5" font-family="Helvetica,sans-Serif" font-size="10.00">AnalogOutput::InitTable</text>
</g>
<!-- Node2 -->
<g id="node3" class="node"><title>Node2</title>
<a xlink:href="class_analog_output.html#aa619a8e67de681f5963f082ba7b1b12c" target="_top" xlink:title="AnalogOutput::UpdateTable">
<polygon fill="white" stroke="black" points="154,-0.5 154,-19.5 290,-19.5 290,-0.5 154,-0.5"/>
<text text-anchor="middle" x="222" y="-7.5" font-family="Helvetica,sans-Serif" font-size="10.00">AnalogOutput::UpdateTable</text>
</a>
</g>
<!-- Node1&#45;&gt;Node2 -->
<g id="edge2" class="edge"><title>Node1&#45;&gt;Node2</title>
<path fill="none" stroke="midnightblue" d="M118.125,-10C126.476,-10 135.176,-10 143.825,-10"/>
<polygon fill="midnightblue" stroke="midnightblue" points="143.931,-13.5001 153.931,-10 143.931,-6.5001 143.931,-13.5001"/>
</g>
<!-- Node3 -->
<g id="node5" class="node"><title>Node3</title>
<a xlink:href="class_analog_output.html#ad2dd268c25f7f96b45f3658a3504352f" target="_top" xlink:title="AnalogOutput::GetVoltage">
<polygon fill="white" stroke="black" points="326.5,-0.5 326.5,-19.5 457.5,-19.5 457.5,-0.5 326.5,-0.5"/>
<text text-anchor="middle" x="392" y="-7.5" font-family="Helvetica,sans-Serif" font-size="10.00">AnalogOutput::GetVoltage</text>
</a>
</g>
<!-- Node2&#45;&gt;Node3 -->
<g id="edge4" class="edge"><title>Node2&#45;&gt;Node3</title>
<path fill="none" stroke="midnightblue" d="M290.364,-10C298.894,-10 307.662,-10 316.297,-10"/>
<polygon fill="midnightblue" stroke="midnightblue" points="316.351,-13.5001 326.351,-10 316.351,-6.5001 316.351,-13.5001"/>
</g>
</g>
</svg>
