<?xml version="1.0" encoding="UTF-8" standalone="no"?>
<!DOCTYPE svg PUBLIC "-//W3C//DTD SVG 1.1//EN"
 "http://www.w3.org/Graphics/SVG/1.1/DTD/svg11.dtd">
<!-- Generated by graphviz version 2.28.0 (20110507.0327)
 -->
<!-- Title: ModifiedMockCommand Pages: 1 -->
<svg width="269pt" height="280pt"
 viewBox="0.00 0.00 269.00 280.00" xmlns="http://www.w3.org/2000/svg" xmlns:xlink="http://www.w3.org/1999/xlink">
<g id="graph1" class="graph" transform="scale(1 1) rotate(0) translate(4 276)">
<title>ModifiedMockCommand</title>
<polygon fill="white" stroke="white" points="-4,5 -4,-276 266,-276 266,5 -4,5"/>
<!-- Node1 -->
<g id="node1" class="node"><title>Node1</title>
<polygon fill="#bfbfbf" stroke="black" points="61.5,-0.5 61.5,-19.5 182.5,-19.5 182.5,-0.5 61.5,-0.5"/>
<text text-anchor="middle" x="122" y="-7.5" font-family="Helvetica,sans-Serif" font-size="10.00">ModifiedMockCommand</text>
</g>
<!-- Node2 -->
<g id="node2" class="node"><title>Node2</title>
<a xlink:href="class_mock_command.html" target="_top" xlink:title="MockCommand">
<polygon fill="white" stroke="black" points="79.5,-58.5 79.5,-77.5 164.5,-77.5 164.5,-58.5 79.5,-58.5"/>
<text text-anchor="middle" x="122" y="-65.5" font-family="Helvetica,sans-Serif" font-size="10.00">MockCommand</text>
</a>
</g>
<!-- Node2&#45;&gt;Node1 -->
<g id="edge2" class="edge"><title>Node2&#45;&gt;Node1</title>
<path fill="none" stroke="midnightblue" d="M122,-47.953C122,-38.2875 122,-27.0312 122,-19.5052"/>
<polygon fill="midnightblue" stroke="midnightblue" points="118.5,-48.25 122,-58.25 125.5,-48.25 118.5,-48.25"/>
</g>
<!-- Node3 -->
<g id="node4" class="node"><title>Node3</title>
<a xlink:href="class_command.html" target="_top" xlink:title="Command">
<polygon fill="white" stroke="black" points="91.5,-116.5 91.5,-135.5 152.5,-135.5 152.5,-116.5 91.5,-116.5"/>
<text text-anchor="middle" x="122" y="-123.5" font-family="Helvetica,sans-Serif" font-size="10.00">Command</text>
</a>
</g>
<!-- Node3&#45;&gt;Node2 -->
<g id="edge4" class="edge"><title>Node3&#45;&gt;Node2</title>
<path fill="none" stroke="midnightblue" d="M122,-105.953C122,-96.2875 122,-85.0312 122,-77.5052"/>
<polygon fill="midnightblue" stroke="midnightblue" points="118.5,-106.25 122,-116.25 125.5,-106.25 118.5,-106.25"/>
</g>
<!-- Node4 -->
<g id="node6" class="node"><title>Node4</title>
<a xlink:href="class_error_base.html" target="_top" xlink:title="ErrorBase">
<polygon fill="white" stroke="black" points="0,-174.5 0,-193.5 60,-193.5 60,-174.5 0,-174.5"/>
<text text-anchor="middle" x="30" y="-181.5" font-family="Helvetica,sans-Serif" font-size="10.00">ErrorBase</text>
</a>
</g>
<!-- Node4&#45;&gt;Node3 -->
<g id="edge6" class="edge"><title>Node4&#45;&gt;Node3</title>
<path fill="none" stroke="midnightblue" d="M52.8651,-169.082C70.1231,-158.577 93.2546,-144.497 107.896,-135.585"/>
<polygon fill="midnightblue" stroke="midnightblue" points="50.695,-166.306 43.9728,-174.495 54.3346,-172.285 50.695,-166.306"/>
</g>
<!-- Node5 -->
<g id="node8" class="node"><title>Node5</title>
<a xlink:href="class_error.html" target="_top" xlink:title="Error">
<polygon fill="white" stroke="black" points="11,-252.5 11,-271.5 49,-271.5 49,-252.5 11,-252.5"/>
<text text-anchor="middle" x="30" y="-259.5" font-family="Helvetica,sans-Serif" font-size="10.00">Error</text>
</a>
</g>
<!-- Node5&#45;&gt;Node4 -->
<g id="edge8" class="edge"><title>Node5&#45;&gt;Node4</title>
<path fill="none" stroke="#9a32cd" stroke-dasharray="5,2" d="M30,-242.224C30,-226.697 30,-205.358 30,-193.616"/>
<polygon fill="#9a32cd" stroke="#9a32cd" points="26.5001,-242.282 30,-252.282 33.5001,-242.282 26.5001,-242.282"/>
<text text-anchor="middle" x="57.5" y="-226" font-family="Helvetica,sans-Serif" font-size="10.00"> _globalError</text>
<text text-anchor="middle" x="57.5" y="-215" font-family="Helvetica,sans-Serif" font-size="10.00">m_error</text>
</g>
<!-- Node6 -->
<g id="node10" class="node"><title>Node6</title>
<a xlink:href="class_named_sendable.html" target="_top" xlink:title="NamedSendable">
<polygon fill="white" stroke="black" points="78,-174.5 78,-193.5 166,-193.5 166,-174.5 78,-174.5"/>
<text text-anchor="middle" x="122" y="-181.5" font-family="Helvetica,sans-Serif" font-size="10.00">NamedSendable</text>
</a>
</g>
<!-- Node6&#45;&gt;Node3 -->
<g id="edge10" class="edge"><title>Node6&#45;&gt;Node3</title>
<path fill="none" stroke="midnightblue" d="M122,-163.953C122,-154.287 122,-143.031 122,-135.505"/>
<polygon fill="midnightblue" stroke="midnightblue" points="118.5,-164.25 122,-174.25 125.5,-164.25 118.5,-164.25"/>
</g>
<!-- Node7 -->
<g id="node12" class="node"><title>Node7</title>
<a xlink:href="class_sendable.html" target="_top" xlink:title="Sendable">
<polygon fill="white" stroke="black" points="93.5,-252.5 93.5,-271.5 150.5,-271.5 150.5,-252.5 93.5,-252.5"/>
<text text-anchor="middle" x="122" y="-259.5" font-family="Helvetica,sans-Serif" font-size="10.00">Sendable</text>
</a>
</g>
<!-- Node7&#45;&gt;Node6 -->
<g id="edge12" class="edge"><title>Node7&#45;&gt;Node6</title>
<path fill="none" stroke="midnightblue" d="M122,-242.224C122,-226.697 122,-205.358 122,-193.616"/>
<polygon fill="midnightblue" stroke="midnightblue" points="118.5,-242.282 122,-252.282 125.5,-242.282 118.5,-242.282"/>
</g>
<!-- Node8 -->
<g id="node14" class="node"><title>Node8</title>
<polygon fill="white" stroke="#bfbfbf" points="184.5,-174.5 184.5,-193.5 261.5,-193.5 261.5,-174.5 184.5,-174.5"/>
<text text-anchor="middle" x="223" y="-181.5" font-family="Helvetica,sans-Serif" font-size="10.00">ITableListener</text>
</g>
<!-- Node8&#45;&gt;Node3 -->
<g id="edge14" class="edge"><title>Node8&#45;&gt;Node3</title>
<path fill="none" stroke="midnightblue" d="M198.684,-169.518C179.659,-158.969 153.781,-144.621 137.484,-135.585"/>
<polygon fill="midnightblue" stroke="midnightblue" points="197.217,-172.707 207.66,-174.495 200.612,-166.585 197.217,-172.707"/>
</g>
</g>
</svg>
