<?xml version="1.0" encoding="UTF-8" standalone="no"?>
<!DOCTYPE svg PUBLIC "-//W3C//DTD SVG 1.1//EN"
 "http://www.w3.org/Graphics/SVG/1.1/DTD/svg11.dtd">
<!-- Generated by graphviz version 2.28.0 (20110507.0327)
 -->
<!-- Title: AnalogInput::GetAverageBits Pages: 1 -->
<svg width="590pt" height="142pt"
 viewBox="0.00 0.00 590.00 142.00" xmlns="http://www.w3.org/2000/svg" xmlns:xlink="http://www.w3.org/1999/xlink">
<g id="graph1" class="graph" transform="scale(1 1) rotate(0) translate(4 138)">
<title>AnalogInput::GetAverageBits</title>
<polygon fill="white" stroke="white" points="-4,5 -4,-138 587,-138 587,5 -4,5"/>
<!-- Node1 -->
<g id="node1" class="node"><title>Node1</title>
<polygon fill="#bfbfbf" stroke="black" points="0.5,-57.5 0.5,-76.5 141.5,-76.5 141.5,-57.5 0.5,-57.5"/>
<text text-anchor="middle" x="71" y="-64.5" font-family="Helvetica,sans-Serif" font-size="10.00">AnalogInput::GetAverageBits</text>
</g>
<!-- Node2 -->
<g id="node3" class="node"><title>Node2</title>
<a xlink:href="class_analog_input.html#a0c6b4387695c1522860a2fb1e5fbee82" target="_top" xlink:title="AnalogInput::ResetAccumulator">
<polygon fill="white" stroke="black" points="178,-76.5 178,-95.5 332,-95.5 332,-76.5 178,-76.5"/>
<text text-anchor="middle" x="255" y="-83.5" font-family="Helvetica,sans-Serif" font-size="10.00">AnalogInput::ResetAccumulator</text>
</a>
</g>
<!-- Node1&#45;&gt;Node2 -->
<g id="edge2" class="edge"><title>Node1&#45;&gt;Node2</title>
<path fill="none" stroke="midnightblue" d="M151.679,-75.3181C160.348,-76.2232 169.156,-77.1427 177.783,-78.0432"/>
<polygon fill="midnightblue" stroke="midnightblue" points="151.895,-71.8217 141.585,-74.2644 151.168,-78.7839 151.895,-71.8217"/>
</g>
<!-- Node6 -->
<g id="node11" class="node"><title>Node6</title>
<a xlink:href="class_gyro.html#a37c29b42b58b90fe1ed11f04c2635d4f" target="_top" xlink:title="Gyro::GetAngle">
<polygon fill="white" stroke="black" points="213,-38.5 213,-57.5 297,-57.5 297,-38.5 213,-38.5"/>
<text text-anchor="middle" x="255" y="-45.5" font-family="Helvetica,sans-Serif" font-size="10.00">Gyro::GetAngle</text>
</a>
</g>
<!-- Node1&#45;&gt;Node6 -->
<g id="edge10" class="edge"><title>Node1&#45;&gt;Node6</title>
<path fill="none" stroke="midnightblue" d="M151.564,-58.6939C172.739,-56.4833 194.753,-54.1852 212.922,-52.2884"/>
<polygon fill="midnightblue" stroke="midnightblue" points="151.168,-55.2161 141.585,-59.7356 151.895,-62.1783 151.168,-55.2161"/>
</g>
<!-- Node3 -->
<g id="node5" class="node"><title>Node3</title>
<a xlink:href="class_gyro.html#ae26b1bacc0c5a4e1f9d85836fcb90736" target="_top" xlink:title="Gyro::InitGyro">
<polygon fill="white" stroke="black" points="378.5,-114.5 378.5,-133.5 455.5,-133.5 455.5,-114.5 378.5,-114.5"/>
<text text-anchor="middle" x="417" y="-121.5" font-family="Helvetica,sans-Serif" font-size="10.00">Gyro::InitGyro</text>
</a>
</g>
<!-- Node2&#45;&gt;Node3 -->
<g id="edge4" class="edge"><title>Node2&#45;&gt;Node3</title>
<path fill="none" stroke="midnightblue" d="M306.117,-97.9029C329.484,-103.453 356.823,-109.946 378.386,-115.067"/>
<polygon fill="midnightblue" stroke="midnightblue" points="306.913,-94.4945 296.375,-95.589 305.295,-101.305 306.913,-94.4945"/>
</g>
<!-- Node5 -->
<g id="node9" class="node"><title>Node5</title>
<a xlink:href="class_gyro.html#ae13fc1c339cb0267740b86c0585ceac7" target="_top" xlink:title="Gyro::Reset">
<polygon fill="white" stroke="black" points="382.5,-76.5 382.5,-95.5 451.5,-95.5 451.5,-76.5 382.5,-76.5"/>
<text text-anchor="middle" x="417" y="-83.5" font-family="Helvetica,sans-Serif" font-size="10.00">Gyro::Reset</text>
</a>
</g>
<!-- Node2&#45;&gt;Node5 -->
<g id="edge8" class="edge"><title>Node2&#45;&gt;Node5</title>
<path fill="none" stroke="midnightblue" d="M342.535,-86C356.626,-86 370.445,-86 382.227,-86"/>
<polygon fill="midnightblue" stroke="midnightblue" points="342.251,-82.5001 332.251,-86 342.251,-89.5001 342.251,-82.5001"/>
</g>
<!-- Node4 -->
<g id="node7" class="node"><title>Node4</title>
<a xlink:href="class_gyro.html#a06521f58180be9e342d941643f9b2491" target="_top" xlink:title="Gyro::Gyro">
<polygon fill="white" stroke="black" points="509.5,-114.5 509.5,-133.5 574.5,-133.5 574.5,-114.5 509.5,-114.5"/>
<text text-anchor="middle" x="542" y="-121.5" font-family="Helvetica,sans-Serif" font-size="10.00">Gyro::Gyro</text>
</a>
</g>
<!-- Node3&#45;&gt;Node4 -->
<g id="edge6" class="edge"><title>Node3&#45;&gt;Node4</title>
<path fill="none" stroke="midnightblue" d="M465.963,-124C480.561,-124 496.23,-124 509.454,-124"/>
<polygon fill="midnightblue" stroke="midnightblue" points="465.572,-120.5 455.572,-124 465.572,-127.5 465.572,-120.5"/>
</g>
<!-- Node7 -->
<g id="node13" class="node"><title>Node7</title>
<a xlink:href="class_gyro.html#aca619c0201c5fb85e2bbaeef0f39e8e6" target="_top" xlink:title="Gyro::PIDGet">
<polygon fill="white" stroke="black" points="379.5,-38.5 379.5,-57.5 454.5,-57.5 454.5,-38.5 379.5,-38.5"/>
<text text-anchor="middle" x="417" y="-45.5" font-family="Helvetica,sans-Serif" font-size="10.00">Gyro::PIDGet</text>
</a>
</g>
<!-- Node6&#45;&gt;Node7 -->
<g id="edge12" class="edge"><title>Node6&#45;&gt;Node7</title>
<path fill="none" stroke="midnightblue" d="M307.326,-48C330.757,-48 357.969,-48 379.302,-48"/>
<polygon fill="midnightblue" stroke="midnightblue" points="307.204,-44.5001 297.204,-48 307.204,-51.5001 307.204,-44.5001"/>
</g>
<!-- Node8 -->
<g id="node15" class="node"><title>Node8</title>
<a xlink:href="class_gyro.html#ad0113532a29eccdbe514eaae2002012c" target="_top" xlink:title="Gyro::UpdateTable">
<polygon fill="white" stroke="black" points="368,-0.5 368,-19.5 466,-19.5 466,-0.5 368,-0.5"/>
<text text-anchor="middle" x="417" y="-7.5" font-family="Helvetica,sans-Serif" font-size="10.00">Gyro::UpdateTable</text>
</a>
</g>
<!-- Node6&#45;&gt;Node8 -->
<g id="edge14" class="edge"><title>Node6&#45;&gt;Node8</title>
<path fill="none" stroke="midnightblue" d="M306.392,-36.032C328.813,-30.7069 354.847,-24.5238 375.916,-19.5201"/>
<polygon fill="midnightblue" stroke="midnightblue" points="305.295,-32.6949 296.375,-38.411 306.913,-39.5055 305.295,-32.6949"/>
</g>
<!-- Node9 -->
<g id="node17" class="node"><title>Node9</title>
<a xlink:href="class_gyro.html#ae00778b633c9c62f6a54039f544125d3" target="_top" xlink:title="Gyro::InitTable">
<polygon fill="white" stroke="black" points="502,-0.5 502,-19.5 582,-19.5 582,-0.5 502,-0.5"/>
<text text-anchor="middle" x="542" y="-7.5" font-family="Helvetica,sans-Serif" font-size="10.00">Gyro::InitTable</text>
</a>
</g>
<!-- Node8&#45;&gt;Node9 -->
<g id="edge16" class="edge"><title>Node8&#45;&gt;Node9</title>
<path fill="none" stroke="midnightblue" d="M476.376,-10C485.061,-10 493.83,-10 501.987,-10"/>
<polygon fill="midnightblue" stroke="midnightblue" points="476.26,-6.5001 466.26,-10 476.26,-13.5001 476.26,-6.5001"/>
</g>
</g>
</svg>
