<?xml version="1.0" encoding="UTF-8" standalone="no"?>
<!DOCTYPE svg PUBLIC "-//W3C//DTD SVG 1.1//EN"
 "http://www.w3.org/Graphics/SVG/1.1/DTD/svg11.dtd">
<!-- Generated by graphviz version 2.28.0 (20110507.0327)
 -->
<!-- Title: AnalogInput::ResetAccumulator Pages: 1 -->
<svg width="378pt" height="66pt"
 viewBox="0.00 0.00 378.00 66.00" xmlns="http://www.w3.org/2000/svg" xmlns:xlink="http://www.w3.org/1999/xlink">
<g id="graph1" class="graph" transform="scale(1 1) rotate(0) translate(4 62)">
<title>AnalogInput::ResetAccumulator</title>
<polygon fill="white" stroke="white" points="-4,5 -4,-62 375,-62 375,5 -4,5"/>
<!-- Node1 -->
<g id="node1" class="node"><title>Node1</title>
<polygon fill="#bfbfbf" stroke="black" points="0,-19.5 0,-38.5 154,-38.5 154,-19.5 0,-19.5"/>
<text text-anchor="middle" x="77" y="-26.5" font-family="Helvetica,sans-Serif" font-size="10.00">AnalogInput::ResetAccumulator</text>
</g>
<!-- Node2 -->
<g id="node3" class="node"><title>Node2</title>
<a xlink:href="class_gyro.html#ae26b1bacc0c5a4e1f9d85836fcb90736" target="_top" xlink:title="Gyro::InitGyro">
<polygon fill="white" stroke="black" points="190.5,-38.5 190.5,-57.5 267.5,-57.5 267.5,-38.5 190.5,-38.5"/>
<text text-anchor="middle" x="229" y="-45.5" font-family="Helvetica,sans-Serif" font-size="10.00">Gyro::InitGyro</text>
</a>
</g>
<!-- Node1&#45;&gt;Node2 -->
<g id="edge2" class="edge"><title>Node1&#45;&gt;Node2</title>
<path fill="none" stroke="midnightblue" d="M163.64,-39.8477C172.984,-41.0313 182.104,-42.1865 190.403,-43.2377"/>
<polygon fill="midnightblue" stroke="midnightblue" points="163.8,-36.3401 153.439,-38.5557 162.92,-43.2846 163.8,-36.3401"/>
</g>
<!-- Node4 -->
<g id="node7" class="node"><title>Node4</title>
<a xlink:href="class_gyro.html#ae13fc1c339cb0267740b86c0585ceac7" target="_top" xlink:title="Gyro::Reset">
<polygon fill="white" stroke="black" points="194.5,-0.5 194.5,-19.5 263.5,-19.5 263.5,-0.5 194.5,-0.5"/>
<text text-anchor="middle" x="229" y="-7.5" font-family="Helvetica,sans-Serif" font-size="10.00">Gyro::Reset</text>
</a>
</g>
<!-- Node1&#45;&gt;Node4 -->
<g id="edge6" class="edge"><title>Node1&#45;&gt;Node4</title>
<path fill="none" stroke="midnightblue" d="M163.463,-18.1747C174.316,-16.8 184.871,-15.4631 194.194,-14.2821"/>
<polygon fill="midnightblue" stroke="midnightblue" points="162.92,-14.7154 153.439,-19.4443 163.8,-21.6599 162.92,-14.7154"/>
</g>
<!-- Node3 -->
<g id="node5" class="node"><title>Node3</title>
<a xlink:href="class_gyro.html#a06521f58180be9e342d941643f9b2491" target="_top" xlink:title="Gyro::Gyro">
<polygon fill="white" stroke="black" points="304.5,-38.5 304.5,-57.5 369.5,-57.5 369.5,-38.5 304.5,-38.5"/>
<text text-anchor="middle" x="337" y="-45.5" font-family="Helvetica,sans-Serif" font-size="10.00">Gyro::Gyro</text>
</a>
</g>
<!-- Node2&#45;&gt;Node3 -->
<g id="edge4" class="edge"><title>Node2&#45;&gt;Node3</title>
<path fill="none" stroke="midnightblue" d="M277.732,-48C286.772,-48 296.018,-48 304.405,-48"/>
<polygon fill="midnightblue" stroke="midnightblue" points="277.67,-44.5001 267.67,-48 277.67,-51.5001 277.67,-44.5001"/>
</g>
</g>
</svg>
