<?xml version="1.0" encoding="UTF-8" standalone="no"?>
<!DOCTYPE svg PUBLIC "-//W3C//DTD SVG 1.1//EN"
 "http://www.w3.org/Graphics/SVG/1.1/DTD/svg11.dtd">
<!-- Generated by graphviz version 2.28.0 (20110507.0327)
 -->
<!-- Title: SensorBase::CheckPDPChannel Pages: 1 -->
<svg width="630pt" height="38pt"
 viewBox="0.00 0.00 630.00 38.00" xmlns="http://www.w3.org/2000/svg" xmlns:xlink="http://www.w3.org/1999/xlink">
<g id="graph1" class="graph" transform="scale(1 1) rotate(0) translate(4 34)">
<title>SensorBase::CheckPDPChannel</title>
<polygon fill="white" stroke="white" points="-4,5 -4,-34 627,-34 627,5 -4,5"/>
<!-- Node1 -->
<g id="node1" class="node"><title>Node1</title>
<polygon fill="#bfbfbf" stroke="black" points="0.5,-5.5 0.5,-24.5 159.5,-24.5 159.5,-5.5 0.5,-5.5"/>
<text text-anchor="middle" x="80" y="-12.5" font-family="Helvetica,sans-Serif" font-size="10.00">SensorBase::CheckPDPChannel</text>
</g>
<!-- Node2 -->
<g id="node3" class="node"><title>Node2</title>
<a xlink:href="class_power_distribution_panel.html#a073d1d0222d5b0286310997715a225cc" target="_top" xlink:title="PowerDistributionPanel\l::GetCurrent">
<polygon fill="white" stroke="black" points="196.5,-0 196.5,-30 313.5,-30 313.5,-0 196.5,-0"/>
<text text-anchor="start" x="204.5" y="-18" font-family="Helvetica,sans-Serif" font-size="10.00">PowerDistributionPanel</text>
<text text-anchor="middle" x="255" y="-7" font-family="Helvetica,sans-Serif" font-size="10.00">::GetCurrent</text>
</a>
</g>
<!-- Node1&#45;&gt;Node2 -->
<g id="edge2" class="edge"><title>Node1&#45;&gt;Node2</title>
<path fill="none" stroke="midnightblue" d="M169.859,-15C178.903,-15 187.914,-15 196.493,-15"/>
<polygon fill="midnightblue" stroke="midnightblue" points="169.654,-11.5001 159.654,-15 169.654,-18.5001 169.654,-11.5001"/>
</g>
<!-- Node3 -->
<g id="node5" class="node"><title>Node3</title>
<a xlink:href="class_power_distribution_panel.html#aa371c1359b1529c45aeece524a94fc3b" target="_top" xlink:title="PowerDistributionPanel\l::UpdateTable">
<polygon fill="white" stroke="black" points="350.5,-0 350.5,-30 467.5,-30 467.5,-0 350.5,-0"/>
<text text-anchor="start" x="358.5" y="-18" font-family="Helvetica,sans-Serif" font-size="10.00">PowerDistributionPanel</text>
<text text-anchor="middle" x="409" y="-7" font-family="Helvetica,sans-Serif" font-size="10.00">::UpdateTable</text>
</a>
</g>
<!-- Node2&#45;&gt;Node3 -->
<g id="edge4" class="edge"><title>Node2&#45;&gt;Node3</title>
<path fill="none" stroke="midnightblue" d="M324.072,-15C332.817,-15 341.704,-15 350.263,-15"/>
<polygon fill="midnightblue" stroke="midnightblue" points="323.898,-11.5001 313.898,-15 323.898,-18.5001 323.898,-11.5001"/>
</g>
<!-- Node4 -->
<g id="node7" class="node"><title>Node4</title>
<a xlink:href="class_power_distribution_panel.html#a6f97703d4efb9d8c28e0b7bce7f0ec7a" target="_top" xlink:title="PowerDistributionPanel\l::InitTable">
<polygon fill="white" stroke="black" points="504.5,-0 504.5,-30 621.5,-30 621.5,-0 504.5,-0"/>
<text text-anchor="start" x="512.5" y="-18" font-family="Helvetica,sans-Serif" font-size="10.00">PowerDistributionPanel</text>
<text text-anchor="middle" x="563" y="-7" font-family="Helvetica,sans-Serif" font-size="10.00">::InitTable</text>
</a>
</g>
<!-- Node3&#45;&gt;Node4 -->
<g id="edge6" class="edge"><title>Node3&#45;&gt;Node4</title>
<path fill="none" stroke="midnightblue" d="M478.072,-15C486.817,-15 495.704,-15 504.263,-15"/>
<polygon fill="midnightblue" stroke="midnightblue" points="477.898,-11.5001 467.898,-15 477.898,-18.5001 477.898,-11.5001"/>
</g>
</g>
</svg>
