<?xml version="1.0" encoding="UTF-8" standalone="no"?>
<!DOCTYPE svg PUBLIC "-//W3C//DTD SVG 1.1//EN"
 "http://www.w3.org/Graphics/SVG/1.1/DTD/svg11.dtd">
<!-- Generated by graphviz version 2.28.0 (20110507.0327)
 -->
<!-- Title: ADXL345_SPI::ADXL345_SPI Pages: 1 -->
<svg width="654pt" height="294pt"
 viewBox="0.00 0.00 654.00 294.00" xmlns="http://www.w3.org/2000/svg" xmlns:xlink="http://www.w3.org/1999/xlink">
<g id="graph1" class="graph" transform="scale(1 1) rotate(0) translate(4 290)">
<title>ADXL345_SPI::ADXL345_SPI</title>
<polygon fill="white" stroke="white" points="-4,5 -4,-290 651,-290 651,5 -4,5"/>
<!-- Node1 -->
<g id="node1" class="node"><title>Node1</title>
<polygon fill="#bfbfbf" stroke="black" points="0,-57.5 0,-76.5 144,-76.5 144,-57.5 0,-57.5"/>
<text text-anchor="middle" x="72" y="-64.5" font-family="Helvetica,sans-Serif" font-size="10.00">ADXL345_SPI::ADXL345_SPI</text>
</g>
<!-- Node2 -->
<g id="node3" class="node"><title>Node2</title>
<a xlink:href="class_a_d_x_l345___s_p_i.html#a4fc291813cfeba26060014221a0ba156" target="_top" xlink:title="ADXL345_SPI::Init">
<polygon fill="white" stroke="black" points="195,-133.5 195,-152.5 291,-152.5 291,-133.5 195,-133.5"/>
<text text-anchor="middle" x="243" y="-140.5" font-family="Helvetica,sans-Serif" font-size="10.00">ADXL345_SPI::Init</text>
</a>
</g>
<!-- Node1&#45;&gt;Node2 -->
<g id="edge2" class="edge"><title>Node1&#45;&gt;Node2</title>
<path fill="none" stroke="midnightblue" d="M94.404,-76.6255C123.991,-89.931 177.557,-114.02 211.374,-129.228"/>
<polygon fill="midnightblue" stroke="midnightblue" points="210.214,-132.543 220.77,-133.453 213.085,-126.159 210.214,-132.543"/>
</g>
<!-- Node10 -->
<g id="node20" class="node"><title>Node10</title>
<a xlink:href="class_live_window.html#a329c07efec22a0e0644d70279688aa35" target="_top" xlink:title="LiveWindow::GetInstance">
<polygon fill="white" stroke="black" points="180,-57.5 180,-76.5 306,-76.5 306,-57.5 180,-57.5"/>
<text text-anchor="middle" x="243" y="-64.5" font-family="Helvetica,sans-Serif" font-size="10.00">LiveWindow::GetInstance</text>
</a>
</g>
<!-- Node1&#45;&gt;Node10 -->
<g id="edge20" class="edge"><title>Node1&#45;&gt;Node10</title>
<path fill="none" stroke="midnightblue" d="M144.181,-67C152.583,-67 161.164,-67 169.582,-67"/>
<polygon fill="midnightblue" stroke="midnightblue" points="169.747,-70.5001 179.747,-67 169.747,-63.5001 169.747,-70.5001"/>
</g>
<!-- Node13 -->
<g id="node26" class="node"><title>Node13</title>
<a xlink:href="class_live_window.html#a5dc37b1651d0bced92127dd2c69a94ce" target="_top" xlink:title="LiveWindow::AddSensor">
<polygon fill="white" stroke="black" points="182,-19.5 182,-38.5 304,-38.5 304,-19.5 182,-19.5"/>
<text text-anchor="middle" x="243" y="-26.5" font-family="Helvetica,sans-Serif" font-size="10.00">LiveWindow::AddSensor</text>
</a>
</g>
<!-- Node1&#45;&gt;Node13 -->
<g id="edge26" class="edge"><title>Node1&#45;&gt;Node13</title>
<path fill="none" stroke="midnightblue" d="M115.646,-57.411C138.148,-52.3513 165.948,-46.1004 189.738,-40.7512"/>
<polygon fill="midnightblue" stroke="midnightblue" points="190.672,-44.1286 199.661,-38.5201 189.137,-37.2991 190.672,-44.1286"/>
</g>
<!-- Node3 -->
<g id="node5" class="node"><title>Node3</title>
<a xlink:href="class_s_p_i.html#a27b450354fc78eb4441e7d59f8fe65f2" target="_top" xlink:title="SPI::SetClockRate">
<polygon fill="white" stroke="black" points="367,-266.5 367,-285.5 465,-285.5 465,-266.5 367,-266.5"/>
<text text-anchor="middle" x="416" y="-273.5" font-family="Helvetica,sans-Serif" font-size="10.00">SPI::SetClockRate</text>
</a>
</g>
<!-- Node2&#45;&gt;Node3 -->
<g id="edge4" class="edge"><title>Node2&#45;&gt;Node3</title>
<path fill="none" stroke="midnightblue" d="M249.463,-152.681C262.46,-174.793 297.488,-229.237 342,-257 346.722,-259.945 351.889,-262.437 357.222,-264.543"/>
<polygon fill="midnightblue" stroke="midnightblue" points="356.346,-267.944 366.941,-267.934 358.652,-261.335 356.346,-267.944"/>
</g>
<!-- Node4 -->
<g id="node7" class="node"><title>Node4</title>
<a xlink:href="class_s_p_i.html#a66ed807d9a76400a74e815837b3ff32b" target="_top" xlink:title="SPI::SetMSBFirst">
<polygon fill="white" stroke="black" points="368.5,-228.5 368.5,-247.5 463.5,-247.5 463.5,-228.5 368.5,-228.5"/>
<text text-anchor="middle" x="416" y="-235.5" font-family="Helvetica,sans-Serif" font-size="10.00">SPI::SetMSBFirst</text>
</a>
</g>
<!-- Node2&#45;&gt;Node4 -->
<g id="edge6" class="edge"><title>Node2&#45;&gt;Node4</title>
<path fill="none" stroke="midnightblue" d="M253.647,-152.714C270.233,-168.868 305.872,-201.229 342,-219 347.27,-221.592 352.933,-223.859 358.691,-225.835"/>
<polygon fill="midnightblue" stroke="midnightblue" points="357.827,-229.232 368.416,-228.893 359.926,-222.555 357.827,-229.232"/>
</g>
<!-- Node5 -->
<g id="node9" class="node"><title>Node5</title>
<a xlink:href="class_s_p_i.html#a463dc7cb26d0b865c44c73538bc23ae0" target="_top" xlink:title="SPI::SetSampleDataOnFalling">
<polygon fill="white" stroke="black" points="342,-190.5 342,-209.5 490,-209.5 490,-190.5 342,-190.5"/>
<text text-anchor="middle" x="416" y="-197.5" font-family="Helvetica,sans-Serif" font-size="10.00">SPI::SetSampleDataOnFalling</text>
</a>
</g>
<!-- Node2&#45;&gt;Node5 -->
<g id="edge8" class="edge"><title>Node2&#45;&gt;Node5</title>
<path fill="none" stroke="midnightblue" d="M266.701,-152.662C286.394,-160.835 315.778,-172.535 342,-181 349.448,-183.405 357.398,-185.722 365.208,-187.862"/>
<polygon fill="midnightblue" stroke="midnightblue" points="364.414,-191.272 374.979,-190.47 366.22,-184.509 364.414,-191.272"/>
</g>
<!-- Node6 -->
<g id="node11" class="node"><title>Node6</title>
<a xlink:href="class_s_p_i.html#aa1b8cb48216e0a502bb34486636da047" target="_top" xlink:title="SPI::SetClockActiveLow">
<polygon fill="white" stroke="black" points="355,-152.5 355,-171.5 477,-171.5 477,-152.5 355,-152.5"/>
<text text-anchor="middle" x="416" y="-159.5" font-family="Helvetica,sans-Serif" font-size="10.00">SPI::SetClockActiveLow</text>
</a>
</g>
<!-- Node2&#45;&gt;Node6 -->
<g id="edge10" class="edge"><title>Node2&#45;&gt;Node6</title>
<path fill="none" stroke="midnightblue" d="M291.179,-148.242C307.701,-150.078 326.63,-152.181 344.634,-154.182"/>
<polygon fill="midnightblue" stroke="midnightblue" points="344.485,-157.686 354.81,-155.312 345.258,-150.729 344.485,-157.686"/>
</g>
<!-- Node7 -->
<g id="node13" class="node"><title>Node7</title>
<a xlink:href="class_s_p_i.html#a21151e848fec7a76dac93175d87c15cc" target="_top" xlink:title="SPI::SetChipSelectActiveHigh">
<polygon fill="white" stroke="black" points="343,-114.5 343,-133.5 489,-133.5 489,-114.5 343,-114.5"/>
<text text-anchor="middle" x="416" y="-121.5" font-family="Helvetica,sans-Serif" font-size="10.00">SPI::SetChipSelectActiveHigh</text>
</a>
</g>
<!-- Node2&#45;&gt;Node7 -->
<g id="edge12" class="edge"><title>Node2&#45;&gt;Node7</title>
<path fill="none" stroke="midnightblue" d="M291.179,-137.758C304.066,-136.326 318.418,-134.731 332.652,-133.15"/>
<polygon fill="midnightblue" stroke="midnightblue" points="333.422,-136.586 342.974,-132.003 332.649,-129.629 333.422,-136.586"/>
</g>
<!-- Node8 -->
<g id="node15" class="node"><title>Node8</title>
<a xlink:href="class_s_p_i.html#a57e9c8cac374878879b32f43667e1e09" target="_top" xlink:title="SPI::Transaction">
<polygon fill="white" stroke="black" points="541.5,-57.5 541.5,-76.5 630.5,-76.5 630.5,-57.5 541.5,-57.5"/>
<text text-anchor="middle" x="586" y="-64.5" font-family="Helvetica,sans-Serif" font-size="10.00">SPI::Transaction</text>
</a>
</g>
<!-- Node2&#45;&gt;Node8 -->
<g id="edge14" class="edge"><title>Node2&#45;&gt;Node8</title>
<path fill="none" stroke="midnightblue" d="M264.971,-133.35C284.52,-124.722 314.684,-112.34 342,-105 405.908,-87.8269 481.494,-77.5199 531.198,-72.0595"/>
<polygon fill="midnightblue" stroke="midnightblue" points="531.827,-75.5122 541.398,-70.9671 531.082,-68.552 531.827,-75.5122"/>
</g>
<!-- Node9 -->
<g id="node17" class="node"><title>Node9</title>
<a xlink:href="class_a_d_x_l345___s_p_i.html#addf684facb418bba3b282cefb9f4df0f" target="_top" xlink:title="ADXL345_SPI::SetRange">
<polygon fill="white" stroke="black" points="353,-38.5 353,-57.5 479,-57.5 479,-38.5 353,-38.5"/>
<text text-anchor="middle" x="416" y="-45.5" font-family="Helvetica,sans-Serif" font-size="10.00">ADXL345_SPI::SetRange</text>
</a>
</g>
<!-- Node2&#45;&gt;Node9 -->
<g id="edge16" class="edge"><title>Node2&#45;&gt;Node9</title>
<path fill="none" stroke="midnightblue" d="M254.726,-133.484C272.009,-118.571 307.574,-89.5871 342,-72 350.376,-67.7211 359.675,-63.9788 368.753,-60.802"/>
<polygon fill="midnightblue" stroke="midnightblue" points="370.075,-64.0509 378.463,-57.5782 367.87,-57.4075 370.075,-64.0509"/>
</g>
<!-- Node9&#45;&gt;Node8 -->
<g id="edge18" class="edge"><title>Node9&#45;&gt;Node8</title>
<path fill="none" stroke="midnightblue" d="M479.08,-55.0209C496.186,-56.9556 514.597,-59.0377 531.194,-60.9148"/>
<polygon fill="midnightblue" stroke="midnightblue" points="530.935,-64.4078 541.265,-62.0538 531.722,-57.4521 530.935,-64.4078"/>
</g>
<!-- Node11 -->
<g id="node22" class="node"><title>Node11</title>
<a xlink:href="class_live_window.html#ac33cec031b5990d91e5c68efb3340b68" target="_top" xlink:title="LiveWindow::LiveWindow">
<polygon fill="white" stroke="black" points="353.5,-0.5 353.5,-19.5 478.5,-19.5 478.5,-0.5 353.5,-0.5"/>
<text text-anchor="middle" x="416" y="-7.5" font-family="Helvetica,sans-Serif" font-size="10.00">LiveWindow::LiveWindow</text>
</a>
</g>
<!-- Node10&#45;&gt;Node11 -->
<g id="edge22" class="edge"><title>Node10&#45;&gt;Node11</title>
<path fill="none" stroke="midnightblue" d="M279.165,-57.4813C288.039,-54.7378 297.467,-51.5225 306,-48 322.723,-41.0968 325.133,-35.5443 342,-29 348.316,-26.5493 355.061,-24.3131 361.803,-22.3049"/>
<polygon fill="midnightblue" stroke="midnightblue" points="362.958,-25.6156 371.628,-19.5272 361.053,-18.8796 362.958,-25.6156"/>
</g>
<!-- Node12 -->
<g id="node24" class="node"><title>Node12</title>
<a xlink:href="class_scheduler.html#a5cc7ff43cb79880d28586b07ec967070" target="_top" xlink:title="Scheduler::GetInstance">
<polygon fill="white" stroke="black" points="526.5,-0.5 526.5,-19.5 645.5,-19.5 645.5,-0.5 526.5,-0.5"/>
<text text-anchor="middle" x="586" y="-7.5" font-family="Helvetica,sans-Serif" font-size="10.00">Scheduler::GetInstance</text>
</a>
</g>
<!-- Node11&#45;&gt;Node12 -->
<g id="edge24" class="edge"><title>Node11&#45;&gt;Node12</title>
<path fill="none" stroke="midnightblue" d="M478.603,-10C490.821,-10 503.721,-10 516.162,-10"/>
<polygon fill="midnightblue" stroke="midnightblue" points="516.479,-13.5001 526.479,-10 516.479,-6.5001 516.479,-13.5001"/>
</g>
</g>
</svg>
