<?xml version="1.0" encoding="UTF-8" standalone="no"?>
<!DOCTYPE svg PUBLIC "-//W3C//DTD SVG 1.1//EN"
 "http://www.w3.org/Graphics/SVG/1.1/DTD/svg11.dtd">
<!-- Generated by graphviz version 2.28.0 (20110507.0327)
 -->
<!-- Title: Resource::Allocate Pages: 1 -->
<svg width="268pt" height="77pt"
 viewBox="0.00 0.00 268.00 77.00" xmlns="http://www.w3.org/2000/svg" xmlns:xlink="http://www.w3.org/1999/xlink">
<g id="graph1" class="graph" transform="scale(1 1) rotate(0) translate(4 73)">
<title>Resource::Allocate</title>
<polygon fill="white" stroke="white" points="-4,5 -4,-73 265,-73 265,5 -4,5"/>
<!-- Node1 -->
<g id="node1" class="node"><title>Node1</title>
<polygon fill="#bfbfbf" stroke="black" points="0.5,-27.5 0.5,-46.5 99.5,-46.5 99.5,-27.5 0.5,-27.5"/>
<text text-anchor="middle" x="50" y="-34.5" font-family="Helvetica,sans-Serif" font-size="10.00">Resource::Allocate</text>
</g>
<!-- Node2 -->
<g id="node3" class="node"><title>Node2</title>
<a xlink:href="class_c_a_n_jaguar.html#aec1593556141870268f5e48e38537390" target="_top" xlink:title="CANJaguar::CANJaguar">
<polygon fill="white" stroke="black" points="138,-49.5 138,-68.5 258,-68.5 258,-49.5 138,-49.5"/>
<text text-anchor="middle" x="198" y="-56.5" font-family="Helvetica,sans-Serif" font-size="10.00">CANJaguar::CANJaguar</text>
</a>
</g>
<!-- Node1&#45;&gt;Node2 -->
<g id="edge2" class="edge"><title>Node1&#45;&gt;Node2</title>
<path fill="none" stroke="midnightblue" d="M109.589,-45.8284C118.926,-47.2354 128.59,-48.6917 137.938,-50.1003"/>
<polygon fill="midnightblue" stroke="midnightblue" points="110.026,-42.3549 99.6159,-44.3257 108.983,-49.2767 110.026,-42.3549"/>
</g>
<!-- Node3 -->
<g id="node5" class="node"><title>Node3</title>
<a xlink:href="class_interruptable_sensor_base.html#a0d1ca3708875a9cb8e0031c8f99b157b" target="_top" xlink:title="Asynchronus handler version. ">
<polygon fill="white" stroke="black" points="136.5,-0 136.5,-30 259.5,-30 259.5,-0 136.5,-0"/>
<text text-anchor="start" x="144.5" y="-18" font-family="Helvetica,sans-Serif" font-size="10.00">InterruptableSensorBase</text>
<text text-anchor="middle" x="198" y="-7" font-family="Helvetica,sans-Serif" font-size="10.00">::RequestInterrupts</text>
</a>
</g>
<!-- Node1&#45;&gt;Node3 -->
<g id="edge4" class="edge"><title>Node1&#45;&gt;Node3</title>
<path fill="none" stroke="midnightblue" d="M109.75,-28.1473C118.521,-26.8256 127.578,-25.4608 136.388,-24.1334"/>
<polygon fill="midnightblue" stroke="midnightblue" points="108.983,-24.7233 99.6159,-29.6743 110.026,-31.6451 108.983,-24.7233"/>
</g>
</g>
</svg>
