<?xml version="1.0" encoding="UTF-8" standalone="no"?>
<!DOCTYPE svg PUBLIC "-//W3C//DTD SVG 1.1//EN"
 "http://www.w3.org/Graphics/SVG/1.1/DTD/svg11.dtd">
<!-- Generated by graphviz version 2.28.0 (20110507.0327)
 -->
<!-- Title: IterativeRobot::StartCompetition Pages: 1 -->
<svg width="680pt" height="622pt"
 viewBox="0.00 0.00 680.00 622.00" xmlns="http://www.w3.org/2000/svg" xmlns:xlink="http://www.w3.org/1999/xlink">
<g id="graph1" class="graph" transform="scale(1 1) rotate(0) translate(4 618)">
<title>IterativeRobot::StartCompetition</title>
<polygon fill="white" stroke="white" points="-4,5 -4,-618 677,-618 677,5 -4,5"/>
<!-- Node1 -->
<g id="node1" class="node"><title>Node1</title>
<polygon fill="#bfbfbf" stroke="black" points="0,-297.5 0,-316.5 154,-316.5 154,-297.5 0,-297.5"/>
<text text-anchor="middle" x="77" y="-304.5" font-family="Helvetica,sans-Serif" font-size="10.00">IterativeRobot::StartCompetition</text>
</g>
<!-- Node2 -->
<g id="node3" class="node"><title>Node2</title>
<a xlink:href="class_live_window.html#a329c07efec22a0e0644d70279688aa35" target="_top" xlink:title="LiveWindow::GetInstance">
<polygon fill="white" stroke="black" points="202,-594.5 202,-613.5 328,-613.5 328,-594.5 202,-594.5"/>
<text text-anchor="middle" x="265" y="-601.5" font-family="Helvetica,sans-Serif" font-size="10.00">LiveWindow::GetInstance</text>
</a>
</g>
<!-- Node1&#45;&gt;Node2 -->
<g id="edge2" class="edge"><title>Node1&#45;&gt;Node2</title>
<path fill="none" stroke="midnightblue" d="M79.0522,-316.597C83.8284,-355.499 106.972,-503.03 190,-580 194.378,-584.059 199.451,-587.431 204.847,-590.234"/>
<polygon fill="midnightblue" stroke="midnightblue" points="203.614,-593.517 214.17,-594.432 206.489,-587.135 203.614,-593.517"/>
</g>
<!-- Node4 -->
<g id="node7" class="node"><title>Node4</title>
<a xlink:href="class_scheduler.html#a5cc7ff43cb79880d28586b07ec967070" target="_top" xlink:title="Scheduler::GetInstance">
<polygon fill="white" stroke="black" points="552.5,-575.5 552.5,-594.5 671.5,-594.5 671.5,-575.5 552.5,-575.5"/>
<text text-anchor="middle" x="612" y="-582.5" font-family="Helvetica,sans-Serif" font-size="10.00">Scheduler::GetInstance</text>
</a>
</g>
<!-- Node1&#45;&gt;Node4 -->
<g id="edge38" class="edge"><title>Node1&#45;&gt;Node4</title>
<path fill="none" stroke="midnightblue" d="M79.1435,-316.709C84.1058,-354.022 107.397,-489.009 190,-547 218.103,-566.73 430.132,-577.922 542.136,-582.514"/>
<polygon fill="midnightblue" stroke="midnightblue" points="542.192,-586.019 552.325,-582.925 542.474,-579.025 542.192,-586.019"/>
</g>
<!-- Node5 -->
<g id="node9" class="node"><title>Node5</title>
<a xlink:href="class_iterative_robot.html#a5296334b4a48ad2123c29f49209b9f62" target="_top" xlink:title="IterativeRobot::RobotInit">
<polygon fill="white" stroke="black" points="205.5,-518.5 205.5,-537.5 324.5,-537.5 324.5,-518.5 205.5,-518.5"/>
<text text-anchor="middle" x="265" y="-525.5" font-family="Helvetica,sans-Serif" font-size="10.00">IterativeRobot::RobotInit</text>
</a>
</g>
<!-- Node1&#45;&gt;Node5 -->
<g id="edge8" class="edge"><title>Node1&#45;&gt;Node5</title>
<path fill="none" stroke="midnightblue" d="M80.4489,-316.828C89.1514,-349.636 121.783,-456.282 190,-509 192.44,-510.886 195.047,-512.586 197.771,-514.118"/>
<polygon fill="midnightblue" stroke="midnightblue" points="196.277,-517.283 206.806,-518.464 199.311,-510.975 196.277,-517.283"/>
</g>
<!-- Node6 -->
<g id="node11" class="node"><title>Node6</title>
<a xlink:href="class_live_window.html#a32b93a8ff3f60440654af8b5c351bc5f" target="_top" xlink:title="LiveWindow::SetEnabled">
<polygon fill="white" stroke="black" points="203,-480.5 203,-499.5 327,-499.5 327,-480.5 203,-480.5"/>
<text text-anchor="middle" x="265" y="-487.5" font-family="Helvetica,sans-Serif" font-size="10.00">LiveWindow::SetEnabled</text>
</a>
</g>
<!-- Node1&#45;&gt;Node6 -->
<g id="edge10" class="edge"><title>Node1&#45;&gt;Node6</title>
<path fill="none" stroke="midnightblue" d="M81.6437,-316.549C92.9727,-344.906 130.433,-429.236 190,-471 192.856,-473.002 195.906,-474.794 199.08,-476.397"/>
<polygon fill="midnightblue" stroke="midnightblue" points="197.732,-479.627 208.296,-480.432 200.54,-473.215 197.732,-479.627"/>
</g>
<!-- Node7 -->
<g id="node13" class="node"><title>Node7</title>
<a xlink:href="class_robot_base.html#a75fb5e396eaee765e65d3bf24d5c2a08" target="_top" xlink:title="RobotBase::IsDisabled">
<polygon fill="white" stroke="black" points="207,-442.5 207,-461.5 323,-461.5 323,-442.5 207,-442.5"/>
<text text-anchor="middle" x="265" y="-449.5" font-family="Helvetica,sans-Serif" font-size="10.00">RobotBase::IsDisabled</text>
</a>
</g>
<!-- Node1&#45;&gt;Node7 -->
<g id="edge12" class="edge"><title>Node1&#45;&gt;Node7</title>
<path fill="none" stroke="midnightblue" d="M83.6768,-316.636C98.1718,-340.357 139.029,-401.907 190,-433 193.567,-435.176 197.376,-437.104 201.315,-438.812"/>
<polygon fill="midnightblue" stroke="midnightblue" points="200.095,-442.093 210.685,-442.412 202.606,-435.559 200.095,-442.093"/>
</g>
<!-- Node9 -->
<g id="node17" class="node"><title>Node9</title>
<a xlink:href="class_iterative_robot.html#a428a5875274cb886730530d633a50db9" target="_top" xlink:title="IterativeRobot::DisabledInit">
<polygon fill="white" stroke="black" points="199.5,-404.5 199.5,-423.5 330.5,-423.5 330.5,-404.5 199.5,-404.5"/>
<text text-anchor="middle" x="265" y="-411.5" font-family="Helvetica,sans-Serif" font-size="10.00">IterativeRobot::DisabledInit</text>
</a>
</g>
<!-- Node1&#45;&gt;Node9 -->
<g id="edge16" class="edge"><title>Node1&#45;&gt;Node9</title>
<path fill="none" stroke="midnightblue" d="M87.5663,-316.641C105.843,-334.523 147.687,-372.92 190,-394 195.628,-396.804 201.7,-399.254 207.859,-401.386"/>
<polygon fill="midnightblue" stroke="midnightblue" points="206.969,-404.775 217.56,-404.478 209.095,-398.106 206.969,-404.775"/>
</g>
<!-- Node10 -->
<g id="node19" class="node"><title>Node10</title>
<a xlink:href="class_iterative_robot.html#a00265f02550b12295ca2cffde2c9c838" target="_top" xlink:title="IterativeRobot::Disabled\lPeriodic">
<polygon fill="white" stroke="black" points="205.5,-355 205.5,-385 324.5,-385 324.5,-355 205.5,-355"/>
<text text-anchor="start" x="213.5" y="-373" font-family="Helvetica,sans-Serif" font-size="10.00">IterativeRobot::Disabled</text>
<text text-anchor="middle" x="265" y="-362" font-family="Helvetica,sans-Serif" font-size="10.00">Periodic</text>
</a>
</g>
<!-- Node1&#45;&gt;Node10 -->
<g id="edge18" class="edge"><title>Node1&#45;&gt;Node10</title>
<path fill="none" stroke="midnightblue" d="M106.074,-316.536C128.725,-324.228 161.41,-335.321 190,-345 196.386,-347.162 203.083,-349.427 209.729,-351.674"/>
<polygon fill="midnightblue" stroke="midnightblue" points="208.793,-355.052 219.387,-354.939 211.034,-348.421 208.793,-355.052"/>
</g>
<!-- Node11 -->
<g id="node21" class="node"><title>Node11</title>
<a xlink:href="class_robot_base.html#a9eac80c5e53650e1e3e26e7b5f8cb5aa" target="_top" xlink:title="RobotBase::IsAutonomous">
<polygon fill="white" stroke="black" points="198.5,-316.5 198.5,-335.5 331.5,-335.5 331.5,-316.5 198.5,-316.5"/>
<text text-anchor="middle" x="265" y="-323.5" font-family="Helvetica,sans-Serif" font-size="10.00">RobotBase::IsAutonomous</text>
</a>
</g>
<!-- Node1&#45;&gt;Node11 -->
<g id="edge20" class="edge"><title>Node1&#45;&gt;Node11</title>
<path fill="none" stroke="midnightblue" d="M154.19,-314.783C165.404,-315.928 176.956,-317.108 188.164,-318.253"/>
<polygon fill="midnightblue" stroke="midnightblue" points="188.036,-321.758 198.34,-319.293 188.747,-314.795 188.036,-321.758"/>
</g>
<!-- Node13 -->
<g id="node25" class="node"><title>Node13</title>
<a xlink:href="class_iterative_robot.html#aa936c0a4526e12e32defd50609cca90c" target="_top" xlink:title="IterativeRobot::AutonomousInit">
<polygon fill="white" stroke="black" points="190.5,-278.5 190.5,-297.5 339.5,-297.5 339.5,-278.5 190.5,-278.5"/>
<text text-anchor="middle" x="265" y="-285.5" font-family="Helvetica,sans-Serif" font-size="10.00">IterativeRobot::AutonomousInit</text>
</a>
</g>
<!-- Node1&#45;&gt;Node13 -->
<g id="edge24" class="edge"><title>Node1&#45;&gt;Node13</title>
<path fill="none" stroke="midnightblue" d="M154.19,-299.217C162.771,-298.341 171.549,-297.444 180.22,-296.558"/>
<polygon fill="midnightblue" stroke="midnightblue" points="180.738,-300.024 190.33,-295.525 180.026,-293.06 180.738,-300.024"/>
</g>
<!-- Node14 -->
<g id="node27" class="node"><title>Node14</title>
<a xlink:href="class_iterative_robot.html#ac579e155cc4613ced00d5e740cf98667" target="_top" xlink:title="IterativeRobot::Autonomous\lPeriodic">
<polygon fill="white" stroke="black" points="197,-229 197,-259 333,-259 333,-229 197,-229"/>
<text text-anchor="start" x="205" y="-247" font-family="Helvetica,sans-Serif" font-size="10.00">IterativeRobot::Autonomous</text>
<text text-anchor="middle" x="265" y="-236" font-family="Helvetica,sans-Serif" font-size="10.00">Periodic</text>
</a>
</g>
<!-- Node1&#45;&gt;Node14 -->
<g id="edge26" class="edge"><title>Node1&#45;&gt;Node14</title>
<path fill="none" stroke="midnightblue" d="M106.074,-297.464C128.725,-289.772 161.41,-278.679 190,-269 196.386,-266.838 203.083,-264.573 209.729,-262.326"/>
<polygon fill="midnightblue" stroke="midnightblue" points="211.034,-265.579 219.387,-259.061 208.793,-258.948 211.034,-265.579"/>
</g>
<!-- Node15 -->
<g id="node29" class="node"><title>Node15</title>
<a xlink:href="class_robot_base.html#adfc40b5a85b1747b056c43ec3571db38" target="_top" xlink:title="RobotBase::IsTest">
<polygon fill="white" stroke="black" points="216.5,-190.5 216.5,-209.5 313.5,-209.5 313.5,-190.5 216.5,-190.5"/>
<text text-anchor="middle" x="265" y="-197.5" font-family="Helvetica,sans-Serif" font-size="10.00">RobotBase::IsTest</text>
</a>
</g>
<!-- Node1&#45;&gt;Node15 -->
<g id="edge28" class="edge"><title>Node1&#45;&gt;Node15</title>
<path fill="none" stroke="midnightblue" d="M87.5663,-297.359C105.843,-279.477 147.687,-241.08 190,-220 195.628,-217.196 201.7,-214.746 207.859,-212.614"/>
<polygon fill="midnightblue" stroke="midnightblue" points="209.095,-215.894 217.56,-209.522 206.969,-209.225 209.095,-215.894"/>
</g>
<!-- Node17 -->
<g id="node33" class="node"><title>Node17</title>
<a xlink:href="class_iterative_robot.html#aa3f1a1d6eac11db9027d66d2c934fe27" target="_top" xlink:title="IterativeRobot::TestInit">
<polygon fill="white" stroke="black" points="208.5,-152.5 208.5,-171.5 321.5,-171.5 321.5,-152.5 208.5,-152.5"/>
<text text-anchor="middle" x="265" y="-159.5" font-family="Helvetica,sans-Serif" font-size="10.00">IterativeRobot::TestInit</text>
</a>
</g>
<!-- Node1&#45;&gt;Node17 -->
<g id="edge32" class="edge"><title>Node1&#45;&gt;Node17</title>
<path fill="none" stroke="midnightblue" d="M83.6768,-297.364C98.1718,-273.643 139.029,-212.093 190,-181 193.567,-178.824 197.376,-176.896 201.315,-175.188"/>
<polygon fill="midnightblue" stroke="midnightblue" points="202.606,-178.441 210.685,-171.588 200.095,-171.907 202.606,-178.441"/>
</g>
<!-- Node18 -->
<g id="node35" class="node"><title>Node18</title>
<a xlink:href="class_iterative_robot.html#afedfc0de674c22c15df86abd4179476d" target="_top" xlink:title="IterativeRobot::TestPeriodic">
<polygon fill="white" stroke="black" points="197.5,-114.5 197.5,-133.5 332.5,-133.5 332.5,-114.5 197.5,-114.5"/>
<text text-anchor="middle" x="265" y="-121.5" font-family="Helvetica,sans-Serif" font-size="10.00">IterativeRobot::TestPeriodic</text>
</a>
</g>
<!-- Node1&#45;&gt;Node18 -->
<g id="edge34" class="edge"><title>Node1&#45;&gt;Node18</title>
<path fill="none" stroke="midnightblue" d="M81.6437,-297.451C92.9727,-269.094 130.433,-184.764 190,-143 192.856,-140.998 195.906,-139.206 199.08,-137.603"/>
<polygon fill="midnightblue" stroke="midnightblue" points="200.54,-140.785 208.296,-133.568 197.732,-134.373 200.54,-140.785"/>
</g>
<!-- Node19 -->
<g id="node37" class="node"><title>Node19</title>
<a xlink:href="class_iterative_robot.html#a7365e781f0a04674b94bb1fb5767d83e" target="_top" xlink:title="IterativeRobot::TeleopInit">
<polygon fill="white" stroke="black" points="204,-76.5 204,-95.5 326,-95.5 326,-76.5 204,-76.5"/>
<text text-anchor="middle" x="265" y="-83.5" font-family="Helvetica,sans-Serif" font-size="10.00">IterativeRobot::TeleopInit</text>
</a>
</g>
<!-- Node1&#45;&gt;Node19 -->
<g id="edge36" class="edge"><title>Node1&#45;&gt;Node19</title>
<path fill="none" stroke="midnightblue" d="M80.4489,-297.172C89.1514,-264.364 121.783,-157.718 190,-105 192.44,-103.114 195.047,-101.414 197.771,-99.882"/>
<polygon fill="midnightblue" stroke="midnightblue" points="199.311,-103.025 206.806,-95.5364 196.277,-96.7169 199.311,-103.025"/>
</g>
<!-- Node20 -->
<g id="node40" class="node"><title>Node20</title>
<a xlink:href="class_iterative_robot.html#a3336d7f71d644e646dba70839f4f4672" target="_top" xlink:title="IterativeRobot::TeleopPeriodic">
<polygon fill="white" stroke="black" points="192.5,-38.5 192.5,-57.5 337.5,-57.5 337.5,-38.5 192.5,-38.5"/>
<text text-anchor="middle" x="265" y="-45.5" font-family="Helvetica,sans-Serif" font-size="10.00">IterativeRobot::TeleopPeriodic</text>
</a>
</g>
<!-- Node1&#45;&gt;Node20 -->
<g id="edge40" class="edge"><title>Node1&#45;&gt;Node20</title>
<path fill="none" stroke="midnightblue" d="M79.4866,-297.439C85.6372,-261.228 112.514,-131.311 190,-67 192.054,-65.2952 194.242,-63.741 196.531,-62.3243"/>
<polygon fill="midnightblue" stroke="midnightblue" points="198.528,-65.2311 205.787,-57.5137 195.3,-59.0199 198.528,-65.2311"/>
</g>
<!-- Node21 -->
<g id="node42" class="node"><title>Node21</title>
<a xlink:href="class_driver_station.html#ad1649357c3e7888a0e47c7dc1e91d1e4" target="_top" xlink:title="DriverStation::WaitForData">
<polygon fill="white" stroke="black" points="199,-0.5 199,-19.5 331,-19.5 331,-0.5 199,-0.5"/>
<text text-anchor="middle" x="265" y="-7.5" font-family="Helvetica,sans-Serif" font-size="10.00">DriverStation::WaitForData</text>
</a>
</g>
<!-- Node1&#45;&gt;Node21 -->
<g id="edge42" class="edge"><title>Node1&#45;&gt;Node21</title>
<path fill="none" stroke="midnightblue" d="M78.8312,-297.353C82.79,-257.593 103.318,-104.96 190,-29 191.783,-27.4374 193.678,-26.0004 195.66,-24.6791"/>
<polygon fill="midnightblue" stroke="midnightblue" points="197.786,-27.5031 204.837,-19.5957 194.394,-21.3798 197.786,-27.5031"/>
</g>
<!-- Node3 -->
<g id="node5" class="node"><title>Node3</title>
<a xlink:href="class_live_window.html#ac33cec031b5990d91e5c68efb3340b68" target="_top" xlink:title="LiveWindow::LiveWindow">
<polygon fill="white" stroke="black" points="383.5,-594.5 383.5,-613.5 508.5,-613.5 508.5,-594.5 383.5,-594.5"/>
<text text-anchor="middle" x="446" y="-601.5" font-family="Helvetica,sans-Serif" font-size="10.00">LiveWindow::LiveWindow</text>
</a>
</g>
<!-- Node2&#45;&gt;Node3 -->
<g id="edge4" class="edge"><title>Node2&#45;&gt;Node3</title>
<path fill="none" stroke="midnightblue" d="M328.103,-604C342.625,-604 358.211,-604 373.119,-604"/>
<polygon fill="midnightblue" stroke="midnightblue" points="373.309,-607.5 383.309,-604 373.309,-600.5 373.309,-607.5"/>
</g>
<!-- Node3&#45;&gt;Node4 -->
<g id="edge6" class="edge"><title>Node3&#45;&gt;Node4</title>
<path fill="none" stroke="midnightblue" d="M508.534,-596.871C519.529,-595.597 531.048,-594.263 542.23,-592.967"/>
<polygon fill="midnightblue" stroke="midnightblue" points="542.849,-596.419 552.38,-591.791 542.044,-589.465 542.849,-596.419"/>
</g>
<!-- Node8 -->
<g id="node15" class="node"><title>Node8</title>
<a xlink:href="class_driver_station.html#afcccb82207e0342596133e81dc7a047f" target="_top" xlink:title="DriverStation::IsDisabled">
<polygon fill="white" stroke="black" points="385,-442.5 385,-461.5 507,-461.5 507,-442.5 385,-442.5"/>
<text text-anchor="middle" x="446" y="-449.5" font-family="Helvetica,sans-Serif" font-size="10.00">DriverStation::IsDisabled</text>
</a>
</g>
<!-- Node7&#45;&gt;Node8 -->
<g id="edge14" class="edge"><title>Node7&#45;&gt;Node8</title>
<path fill="none" stroke="midnightblue" d="M323.129,-452C339.397,-452 357.314,-452 374.288,-452"/>
<polygon fill="midnightblue" stroke="midnightblue" points="374.711,-455.5 384.711,-452 374.711,-448.5 374.711,-455.5"/>
</g>
<!-- Node12 -->
<g id="node23" class="node"><title>Node12</title>
<a xlink:href="class_driver_station.html#ae7f9794664d49a36b65a3cd4a6e6987b" target="_top" xlink:title="DriverStation::IsAutonomous">
<polygon fill="white" stroke="black" points="376,-316.5 376,-335.5 516,-335.5 516,-316.5 376,-316.5"/>
<text text-anchor="middle" x="446" y="-323.5" font-family="Helvetica,sans-Serif" font-size="10.00">DriverStation::IsAutonomous</text>
</a>
</g>
<!-- Node11&#45;&gt;Node12 -->
<g id="edge22" class="edge"><title>Node11&#45;&gt;Node12</title>
<path fill="none" stroke="midnightblue" d="M331.637,-326C342.637,-326 354.157,-326 365.461,-326"/>
<polygon fill="midnightblue" stroke="midnightblue" points="365.762,-329.5 375.762,-326 365.762,-322.5 365.762,-329.5"/>
</g>
<!-- Node16 -->
<g id="node31" class="node"><title>Node16</title>
<a xlink:href="class_driver_station.html#af3ae56342fb009434d06f7cd66528a64" target="_top" xlink:title="DriverStation::IsTest">
<polygon fill="white" stroke="black" points="394,-190.5 394,-209.5 498,-209.5 498,-190.5 394,-190.5"/>
<text text-anchor="middle" x="446" y="-197.5" font-family="Helvetica,sans-Serif" font-size="10.00">DriverStation::IsTest</text>
</a>
</g>
<!-- Node15&#45;&gt;Node16 -->
<g id="edge30" class="edge"><title>Node15&#45;&gt;Node16</title>
<path fill="none" stroke="midnightblue" d="M313.969,-200C335.342,-200 360.776,-200 383.524,-200"/>
<polygon fill="midnightblue" stroke="midnightblue" points="383.762,-203.5 393.762,-200 383.762,-196.5 383.762,-203.5"/>
</g>
</g>
</svg>
