<?xml version="1.0" encoding="UTF-8" standalone="no"?>
<!DOCTYPE svg PUBLIC "-//W3C//DTD SVG 1.1//EN"
 "http://www.w3.org/Graphics/SVG/1.1/DTD/svg11.dtd">
<!-- Generated by graphviz version 2.28.0 (20110507.0327)
 -->
<!-- Title: AnalogTrigger::AnalogTrigger Pages: 1 -->
<svg width="472pt" height="28pt"
 viewBox="0.00 0.00 472.00 28.00" xmlns="http://www.w3.org/2000/svg" xmlns:xlink="http://www.w3.org/1999/xlink">
<g id="graph1" class="graph" transform="scale(1 1) rotate(0) translate(4 24)">
<title>AnalogTrigger::AnalogTrigger</title>
<polygon fill="white" stroke="white" points="-4,5 -4,-24 469,-24 469,5 -4,5"/>
<!-- Node1 -->
<g id="node1" class="node"><title>Node1</title>
<polygon fill="#bfbfbf" stroke="black" points="0.5,-0.5 0.5,-19.5 141.5,-19.5 141.5,-0.5 0.5,-0.5"/>
<text text-anchor="middle" x="71" y="-7.5" font-family="Helvetica,sans-Serif" font-size="10.00">AnalogTrigger::AnalogTrigger</text>
</g>
<!-- Node2 -->
<g id="node3" class="node"><title>Node2</title>
<a xlink:href="class_analog_input.html#ae1a03d52531f2dc16a8c6b4a8040fa57" target="_top" xlink:title="AnalogInput::GetChannel">
<polygon fill="white" stroke="black" points="178.5,-0.5 178.5,-19.5 303.5,-19.5 303.5,-0.5 178.5,-0.5"/>
<text text-anchor="middle" x="241" y="-7.5" font-family="Helvetica,sans-Serif" font-size="10.00">AnalogInput::GetChannel</text>
</a>
</g>
<!-- Node1&#45;&gt;Node2 -->
<g id="edge2" class="edge"><title>Node1&#45;&gt;Node2</title>
<path fill="none" stroke="midnightblue" d="M141.788,-10C150.535,-10 159.495,-10 168.271,-10"/>
<polygon fill="midnightblue" stroke="midnightblue" points="168.467,-13.5001 178.467,-10 168.467,-6.5001 168.467,-13.5001"/>
</g>
<!-- Node3 -->
<g id="node5" class="node"><title>Node3</title>
<a xlink:href="class_error_base.html#a05790f219c9e436a09752f73f7344024" target="_top" xlink:title="Check if the current error code represents a fatal error. ">
<polygon fill="white" stroke="black" points="340,-0.5 340,-19.5 464,-19.5 464,-0.5 340,-0.5"/>
<text text-anchor="middle" x="402" y="-7.5" font-family="Helvetica,sans-Serif" font-size="10.00">ErrorBase::StatusIsFatal</text>
</a>
</g>
<!-- Node2&#45;&gt;Node3 -->
<g id="edge4" class="edge"><title>Node2&#45;&gt;Node3</title>
<path fill="none" stroke="midnightblue" d="M303.929,-10C312.39,-10 321.13,-10 329.74,-10"/>
<polygon fill="midnightblue" stroke="midnightblue" points="329.763,-13.5001 339.763,-10 329.763,-6.5001 329.763,-13.5001"/>
</g>
</g>
</svg>
