<?xml version="1.0" encoding="UTF-8" standalone="no"?>
<!DOCTYPE svg PUBLIC "-//W3C//DTD SVG 1.1//EN"
 "http://www.w3.org/Graphics/SVG/1.1/DTD/svg11.dtd">
<!-- Generated by graphviz version 2.28.0 (20110507.0327)
 -->
<!-- Title: RobotDrive::MecanumDrive_Polar Pages: 1 -->
<svg width="620pt" height="180pt"
 viewBox="0.00 0.00 620.00 180.00" xmlns="http://www.w3.org/2000/svg" xmlns:xlink="http://www.w3.org/1999/xlink">
<g id="graph1" class="graph" transform="scale(1 1) rotate(0) translate(4 176)">
<title>RobotDrive::MecanumDrive_Polar</title>
<polygon fill="white" stroke="white" points="-4,5 -4,-176 617,-176 617,5 -4,5"/>
<!-- Node1 -->
<g id="node1" class="node"><title>Node1</title>
<polygon fill="#bfbfbf" stroke="black" points="0.5,-71 0.5,-101 133.5,-101 133.5,-71 0.5,-71"/>
<text text-anchor="start" x="8.5" y="-89" font-family="Helvetica,sans-Serif" font-size="10.00">RobotDrive::MecanumDrive</text>
<text text-anchor="middle" x="67" y="-78" font-family="Helvetica,sans-Serif" font-size="10.00">_Polar</text>
</g>
<!-- Node2 -->
<g id="node3" class="node"><title>Node2</title>
<a xlink:href="class_robot_drive.html#aa7d99fd794c6f8c0b5486603f508a3a7" target="_top" xlink:title="RobotDrive::Limit">
<polygon fill="white" stroke="black" points="201,-152.5 201,-171.5 291,-171.5 291,-152.5 201,-152.5"/>
<text text-anchor="middle" x="246" y="-159.5" font-family="Helvetica,sans-Serif" font-size="10.00">RobotDrive::Limit</text>
</a>
</g>
<!-- Node1&#45;&gt;Node2 -->
<g id="edge2" class="edge"><title>Node1&#45;&gt;Node2</title>
<path fill="none" stroke="midnightblue" d="M91.0388,-101.183C111.167,-113.875 141.541,-131.671 170,-143 176.692,-145.664 183.872,-148.046 191.041,-150.146"/>
<polygon fill="midnightblue" stroke="midnightblue" points="190.192,-153.543 200.763,-152.837 192.059,-146.797 190.192,-153.543"/>
</g>
<!-- Node3 -->
<g id="node5" class="node"><title>Node3</title>
<a xlink:href="class_robot_drive.html#a5e6a645728f44664ee57e5fb4c02acc7" target="_top" xlink:title="RobotDrive::Normalize">
<polygon fill="white" stroke="black" points="189.5,-114.5 189.5,-133.5 302.5,-133.5 302.5,-114.5 189.5,-114.5"/>
<text text-anchor="middle" x="246" y="-121.5" font-family="Helvetica,sans-Serif" font-size="10.00">RobotDrive::Normalize</text>
</a>
</g>
<!-- Node1&#45;&gt;Node3 -->
<g id="edge4" class="edge"><title>Node1&#45;&gt;Node3</title>
<path fill="none" stroke="midnightblue" d="M133.657,-100.096C152.5,-104.141 172.827,-108.505 190.89,-112.383"/>
<polygon fill="midnightblue" stroke="midnightblue" points="190.157,-115.805 200.669,-114.483 191.626,-108.961 190.157,-115.805"/>
</g>
<!-- Node4 -->
<g id="node7" class="node"><title>Node4</title>
<a xlink:href="class_speed_controller.html#adc3d0010c1c684979261b98d438f8db5" target="_top" xlink:title="SpeedController::Set">
<polygon fill="white" stroke="black" points="192.5,-76.5 192.5,-95.5 299.5,-95.5 299.5,-76.5 192.5,-76.5"/>
<text text-anchor="middle" x="246" y="-83.5" font-family="Helvetica,sans-Serif" font-size="10.00">SpeedController::Set</text>
</a>
</g>
<!-- Node1&#45;&gt;Node4 -->
<g id="edge6" class="edge"><title>Node1&#45;&gt;Node4</title>
<path fill="none" stroke="midnightblue" d="M133.657,-86C149.556,-86 166.51,-86 182.271,-86"/>
<polygon fill="midnightblue" stroke="midnightblue" points="182.432,-89.5001 192.432,-86 182.432,-82.5001 182.432,-89.5001"/>
</g>
<!-- Node5 -->
<g id="node9" class="node"><title>Node5</title>
<a xlink:href="class_c_a_n_jaguar.html#a225e0588b0955681a24da6ab0d2c8bc0" target="_top" xlink:title="CANJaguar::UpdateSyncGroup">
<polygon fill="white" stroke="black" points="170.5,-38.5 170.5,-57.5 321.5,-57.5 321.5,-38.5 170.5,-38.5"/>
<text text-anchor="middle" x="246" y="-45.5" font-family="Helvetica,sans-Serif" font-size="10.00">CANJaguar::UpdateSyncGroup</text>
</a>
</g>
<!-- Node1&#45;&gt;Node5 -->
<g id="edge8" class="edge"><title>Node1&#45;&gt;Node5</title>
<path fill="none" stroke="midnightblue" d="M133.657,-71.9042C152.5,-67.8587 172.827,-63.4948 190.89,-59.6168"/>
<polygon fill="midnightblue" stroke="midnightblue" points="191.626,-63.0386 200.669,-57.5175 190.157,-56.1946 191.626,-63.0386"/>
</g>
<!-- Node6 -->
<g id="node11" class="node"><title>Node6</title>
<a xlink:href="class_motor_safety_helper.html#a67b80e9817dc725e0678de5e8f0bb39e" target="_top" xlink:title="MotorSafetyHelper::Feed">
<polygon fill="white" stroke="black" points="183.5,-0.5 183.5,-19.5 308.5,-19.5 308.5,-0.5 183.5,-0.5"/>
<text text-anchor="middle" x="246" y="-7.5" font-family="Helvetica,sans-Serif" font-size="10.00">MotorSafetyHelper::Feed</text>
</a>
</g>
<!-- Node1&#45;&gt;Node6 -->
<g id="edge10" class="edge"><title>Node1&#45;&gt;Node6</title>
<path fill="none" stroke="midnightblue" d="M91.0388,-70.8166C111.167,-58.1247 141.541,-40.3292 170,-29 176.205,-26.53 182.828,-24.3028 189.474,-22.3171"/>
<polygon fill="midnightblue" stroke="midnightblue" points="190.505,-25.6629 199.18,-19.5807 188.606,-18.9255 190.505,-25.6629"/>
</g>
<!-- Node7 -->
<g id="node13" class="node"><title>Node7</title>
<a xlink:href="class_timer.html#a7fa6e6dffec055e5104ccd6bcadec9aa" target="_top" xlink:title="Timer::GetFPGATimestamp">
<polygon fill="white" stroke="black" points="358.5,-0.5 358.5,-19.5 495.5,-19.5 495.5,-0.5 358.5,-0.5"/>
<text text-anchor="middle" x="427" y="-7.5" font-family="Helvetica,sans-Serif" font-size="10.00">Timer::GetFPGATimestamp</text>
</a>
</g>
<!-- Node6&#45;&gt;Node7 -->
<g id="edge12" class="edge"><title>Node6&#45;&gt;Node7</title>
<path fill="none" stroke="midnightblue" d="M308.602,-10C321.415,-10 335.076,-10 348.381,-10"/>
<polygon fill="midnightblue" stroke="midnightblue" points="348.465,-13.5001 358.465,-10 348.465,-6.5001 348.465,-13.5001"/>
</g>
<!-- Node8 -->
<g id="node15" class="node"><title>Node8</title>
<a xlink:href="_utility_8h.html#ababf055d95368485d48bd9a0231853f3" target="_top" xlink:title="GetFPGATime">
<polygon fill="white" stroke="black" points="532,-0.5 532,-19.5 612,-19.5 612,-0.5 532,-0.5"/>
<text text-anchor="middle" x="572" y="-7.5" font-family="Helvetica,sans-Serif" font-size="10.00">GetFPGATime</text>
</a>
</g>
<!-- Node7&#45;&gt;Node8 -->
<g id="edge14" class="edge"><title>Node7&#45;&gt;Node8</title>
<path fill="none" stroke="midnightblue" d="M495.731,-10C504.558,-10 513.463,-10 521.904,-10"/>
<polygon fill="midnightblue" stroke="midnightblue" points="521.934,-13.5001 531.933,-10 521.933,-6.5001 521.934,-13.5001"/>
</g>
</g>
</svg>
