<?xml version="1.0" encoding="UTF-8" standalone="no"?>
<!DOCTYPE svg PUBLIC "-//W3C//DTD SVG 1.1//EN"
 "http://www.w3.org/Graphics/SVG/1.1/DTD/svg11.dtd">
<!-- Generated by graphviz version 2.28.0 (20110507.0327)
 -->
<!-- Title: DigitalOutput Pages: 1 -->
<svg width="330pt" height="348pt"
 viewBox="0.00 0.00 330.00 348.00" xmlns="http://www.w3.org/2000/svg" xmlns:xlink="http://www.w3.org/1999/xlink">
<g id="graph1" class="graph" transform="scale(1 1) rotate(0) translate(4 344)">
<title>DigitalOutput</title>
<polygon fill="white" stroke="white" points="-4,5 -4,-344 327,-344 327,5 -4,5"/>
<!-- Node1 -->
<g id="node1" class="node"><title>Node1</title>
<polygon fill="#bfbfbf" stroke="black" points="120.5,-0.5 120.5,-19.5 193.5,-19.5 193.5,-0.5 120.5,-0.5"/>
<text text-anchor="middle" x="157" y="-7.5" font-family="Helvetica,sans-Serif" font-size="10.00">DigitalOutput</text>
</g>
<!-- Node2 -->
<g id="node2" class="node"><title>Node2</title>
<a xlink:href="class_digital_source.html" target="_top" xlink:title="DigitalSource">
<polygon fill="white" stroke="black" points="26,-58.5 26,-77.5 100,-77.5 100,-58.5 26,-58.5"/>
<text text-anchor="middle" x="63" y="-65.5" font-family="Helvetica,sans-Serif" font-size="10.00">DigitalSource</text>
</a>
</g>
<!-- Node2&#45;&gt;Node1 -->
<g id="edge2" class="edge"><title>Node2&#45;&gt;Node1</title>
<path fill="none" stroke="midnightblue" d="M85.8739,-53.373C103.557,-42.8384 127.491,-28.5797 142.589,-19.5852"/>
<polygon fill="midnightblue" stroke="midnightblue" points="84.0763,-50.3698 77.2766,-58.4948 87.6589,-56.3836 84.0763,-50.3698"/>
</g>
<!-- Node3 -->
<g id="node4" class="node"><title>Node3</title>
<a xlink:href="class_interruptable_sensor_base.html" target="_top" xlink:title="InterruptableSensorBase">
<polygon fill="white" stroke="black" points="1.5,-116.5 1.5,-135.5 124.5,-135.5 124.5,-116.5 1.5,-116.5"/>
<text text-anchor="middle" x="63" y="-123.5" font-family="Helvetica,sans-Serif" font-size="10.00">InterruptableSensorBase</text>
</a>
</g>
<!-- Node3&#45;&gt;Node2 -->
<g id="edge4" class="edge"><title>Node3&#45;&gt;Node2</title>
<path fill="none" stroke="midnightblue" d="M63,-105.953C63,-96.2875 63,-85.0312 63,-77.5052"/>
<polygon fill="midnightblue" stroke="midnightblue" points="59.5001,-106.25 63,-116.25 66.5001,-106.25 59.5001,-106.25"/>
</g>
<!-- Node4 -->
<g id="node6" class="node"><title>Node4</title>
<a xlink:href="class_sensor_base.html" target="_top" xlink:title="SensorBase">
<polygon fill="white" stroke="black" points="0,-184.5 0,-203.5 70,-203.5 70,-184.5 0,-184.5"/>
<text text-anchor="middle" x="35" y="-191.5" font-family="Helvetica,sans-Serif" font-size="10.00">SensorBase</text>
</a>
</g>
<!-- Node4&#45;&gt;Node3 -->
<g id="edge6" class="edge"><title>Node4&#45;&gt;Node3</title>
<path fill="none" stroke="midnightblue" d="M42.7184,-174.807C48.0987,-162.124 55.0406,-145.762 59.2492,-135.841"/>
<polygon fill="midnightblue" stroke="midnightblue" points="39.344,-173.799 38.6605,-184.372 45.7881,-176.533 39.344,-173.799"/>
</g>
<!-- Node5 -->
<g id="node8" class="node"><title>Node5</title>
<a xlink:href="class_error_base.html" target="_top" xlink:title="ErrorBase">
<polygon fill="white" stroke="black" points="52,-242.5 52,-261.5 112,-261.5 112,-242.5 52,-242.5"/>
<text text-anchor="middle" x="82" y="-249.5" font-family="Helvetica,sans-Serif" font-size="10.00">ErrorBase</text>
</a>
</g>
<!-- Node5&#45;&gt;Node4 -->
<g id="edge8" class="edge"><title>Node5&#45;&gt;Node4</title>
<path fill="none" stroke="midnightblue" d="M68.0972,-234.435C59.5687,-224.273 49.004,-211.686 42.1383,-203.505"/>
<polygon fill="midnightblue" stroke="midnightblue" points="65.5466,-236.84 74.6563,-242.25 70.9084,-232.34 65.5466,-236.84"/>
</g>
<!-- Node7 -->
<g id="node12" class="node"><title>Node7</title>
<a xlink:href="class_resource.html" target="_top" xlink:title="Resource">
<polygon fill="white" stroke="black" points="88,-184.5 88,-203.5 146,-203.5 146,-184.5 88,-184.5"/>
<text text-anchor="middle" x="117" y="-191.5" font-family="Helvetica,sans-Serif" font-size="10.00">Resource</text>
</a>
</g>
<!-- Node5&#45;&gt;Node7 -->
<g id="edge14" class="edge"><title>Node5&#45;&gt;Node7</title>
<path fill="none" stroke="midnightblue" d="M92.9288,-233.514C99.1737,-223.522 106.725,-211.44 111.684,-203.505"/>
<polygon fill="midnightblue" stroke="midnightblue" points="89.8008,-231.915 87.4688,-242.25 95.7368,-235.625 89.8008,-231.915"/>
</g>
<!-- Node6 -->
<g id="node10" class="node"><title>Node6</title>
<a xlink:href="class_error.html" target="_top" xlink:title="Error">
<polygon fill="white" stroke="black" points="63,-320.5 63,-339.5 101,-339.5 101,-320.5 63,-320.5"/>
<text text-anchor="middle" x="82" y="-327.5" font-family="Helvetica,sans-Serif" font-size="10.00">Error</text>
</a>
</g>
<!-- Node6&#45;&gt;Node5 -->
<g id="edge10" class="edge"><title>Node6&#45;&gt;Node5</title>
<path fill="none" stroke="#9a32cd" stroke-dasharray="5,2" d="M82,-310.224C82,-294.697 82,-273.358 82,-261.616"/>
<polygon fill="#9a32cd" stroke="#9a32cd" points="78.5001,-310.282 82,-320.282 85.5001,-310.282 78.5001,-310.282"/>
<text text-anchor="middle" x="109.5" y="-294" font-family="Helvetica,sans-Serif" font-size="10.00"> _globalError</text>
<text text-anchor="middle" x="109.5" y="-283" font-family="Helvetica,sans-Serif" font-size="10.00">m_error</text>
</g>
<!-- Node7&#45;&gt;Node3 -->
<g id="edge12" class="edge"><title>Node7&#45;&gt;Node3</title>
<path fill="none" stroke="#9a32cd" stroke-dasharray="5,2" d="M103.345,-176.31C92.8176,-163.444 78.675,-146.158 70.2336,-135.841"/>
<polygon fill="#9a32cd" stroke="#9a32cd" points="100.899,-178.848 109.94,-184.372 106.317,-174.416 100.899,-178.848"/>
<text text-anchor="middle" x="124" y="-157.5" font-family="Helvetica,sans-Serif" font-size="10.00"> m_interrupts</text>
</g>
<!-- Node8 -->
<g id="node15" class="node"><title>Node8</title>
<polygon fill="white" stroke="#bfbfbf" points="118.5,-58.5 118.5,-77.5 195.5,-77.5 195.5,-58.5 118.5,-58.5"/>
<text text-anchor="middle" x="157" y="-65.5" font-family="Helvetica,sans-Serif" font-size="10.00">ITableListener</text>
</g>
<!-- Node8&#45;&gt;Node1 -->
<g id="edge16" class="edge"><title>Node8&#45;&gt;Node1</title>
<path fill="none" stroke="midnightblue" d="M157,-47.953C157,-38.2875 157,-27.0312 157,-19.5052"/>
<polygon fill="midnightblue" stroke="midnightblue" points="153.5,-48.25 157,-58.25 160.5,-48.25 153.5,-48.25"/>
</g>
<!-- Node9 -->
<g id="node17" class="node"><title>Node9</title>
<a xlink:href="class_live_window_sendable.html" target="_top" xlink:title="LiveWindowSendable">
<polygon fill="white" stroke="black" points="214,-58.5 214,-77.5 322,-77.5 322,-58.5 214,-58.5"/>
<text text-anchor="middle" x="268" y="-65.5" font-family="Helvetica,sans-Serif" font-size="10.00">LiveWindowSendable</text>
</a>
</g>
<!-- Node9&#45;&gt;Node1 -->
<g id="edge18" class="edge"><title>Node9&#45;&gt;Node1</title>
<path fill="none" stroke="midnightblue" d="M242.131,-53.9491C221.149,-43.3635 192.173,-28.7447 174.017,-19.5852"/>
<polygon fill="midnightblue" stroke="midnightblue" points="240.637,-57.1153 251.141,-58.4948 243.79,-50.8656 240.637,-57.1153"/>
</g>
<!-- Node10 -->
<g id="node19" class="node"><title>Node10</title>
<a xlink:href="class_sendable.html" target="_top" xlink:title="Sendable">
<polygon fill="white" stroke="black" points="239.5,-116.5 239.5,-135.5 296.5,-135.5 296.5,-116.5 239.5,-116.5"/>
<text text-anchor="middle" x="268" y="-123.5" font-family="Helvetica,sans-Serif" font-size="10.00">Sendable</text>
</a>
</g>
<!-- Node10&#45;&gt;Node9 -->
<g id="edge20" class="edge"><title>Node10&#45;&gt;Node9</title>
<path fill="none" stroke="midnightblue" d="M268,-105.953C268,-96.2875 268,-85.0312 268,-77.5052"/>
<polygon fill="midnightblue" stroke="midnightblue" points="264.5,-106.25 268,-116.25 271.5,-106.25 264.5,-106.25"/>
</g>
</g>
</svg>
