<?xml version="1.0" encoding="UTF-8" standalone="no"?>
<!DOCTYPE svg PUBLIC "-//W3C//DTD SVG 1.1//EN"
 "http://www.w3.org/Graphics/SVG/1.1/DTD/svg11.dtd">
<!-- Generated by graphviz version 2.28.0 (20110507.0327)
 -->
<!-- Title: CANJaguar::SetPercentMode Pages: 1 -->
<svg width="700pt" height="153pt"
 viewBox="0.00 0.00 700.00 153.00" xmlns="http://www.w3.org/2000/svg" xmlns:xlink="http://www.w3.org/1999/xlink">
<g id="graph1" class="graph" transform="scale(1 1) rotate(0) translate(4 149)">
<title>CANJaguar::SetPercentMode</title>
<polygon fill="white" stroke="white" points="-4,5 -4,-149 697,-149 697,5 -4,5"/>
<!-- Node1 -->
<g id="node1" class="node"><title>Node1</title>
<polygon fill="#bfbfbf" stroke="black" points="0,-68.5 0,-87.5 144,-87.5 144,-68.5 0,-68.5"/>
<text text-anchor="middle" x="72" y="-75.5" font-family="Helvetica,sans-Serif" font-size="10.00">CANJaguar::SetPercentMode</text>
</g>
<!-- Node2 -->
<g id="node3" class="node"><title>Node2</title>
<a xlink:href="class_c_a_n_jaguar.html#ad359943907bf802075474a3753f7fb02" target="_top" xlink:title="CANJaguar::SetControlMode">
<polygon fill="white" stroke="black" points="180.5,-125.5 180.5,-144.5 321.5,-144.5 321.5,-125.5 180.5,-125.5"/>
<text text-anchor="middle" x="251" y="-132.5" font-family="Helvetica,sans-Serif" font-size="10.00">CANJaguar::SetControlMode</text>
</a>
</g>
<!-- Node1&#45;&gt;Node2 -->
<g id="edge2" class="edge"><title>Node1&#45;&gt;Node2</title>
<path fill="none" stroke="midnightblue" d="M102.626,-87.5405C132.236,-97.076 177.938,-111.794 210.594,-122.31"/>
<polygon fill="midnightblue" stroke="midnightblue" points="209.686,-125.694 220.278,-125.428 211.832,-119.031 209.686,-125.694"/>
</g>
<!-- Node5 -->
<g id="node9" class="node"><title>Node5</title>
<a xlink:href="class_c_a_n_jaguar.html#a4ea009bbaaa337eeb10efba61203ee38" target="_top" xlink:title="CANJaguar::SetPositionReference">
<polygon fill="white" stroke="black" points="358.5,-87.5 358.5,-106.5 523.5,-106.5 523.5,-87.5 358.5,-87.5"/>
<text text-anchor="middle" x="441" y="-94.5" font-family="Helvetica,sans-Serif" font-size="10.00">CANJaguar::SetPositionReference</text>
</a>
</g>
<!-- Node1&#45;&gt;Node5 -->
<g id="edge8" class="edge"><title>Node1&#45;&gt;Node5</title>
<path fill="none" stroke="midnightblue" d="M144.196,-81.6859C202.347,-84.6965 284.946,-88.9727 348.088,-92.2416"/>
<polygon fill="midnightblue" stroke="midnightblue" points="348.278,-95.756 358.445,-92.7778 348.64,-88.7654 348.278,-95.756"/>
</g>
<!-- Node6 -->
<g id="node12" class="node"><title>Node6</title>
<a xlink:href="class_c_a_n_jaguar.html#ac6780a940570ec0386d234b309fb260d" target="_top" xlink:title="CANJaguar::SetSpeedReference">
<polygon fill="white" stroke="black" points="362,-49.5 362,-68.5 520,-68.5 520,-49.5 362,-49.5"/>
<text text-anchor="middle" x="441" y="-56.5" font-family="Helvetica,sans-Serif" font-size="10.00">CANJaguar::SetSpeedReference</text>
</a>
</g>
<!-- Node1&#45;&gt;Node6 -->
<g id="edge12" class="edge"><title>Node1&#45;&gt;Node6</title>
<path fill="none" stroke="midnightblue" d="M144.196,-74.3141C203.456,-71.2461 288.106,-66.8637 351.68,-63.5724"/>
<polygon fill="midnightblue" stroke="midnightblue" points="351.89,-67.0664 361.695,-63.0539 351.528,-60.0757 351.89,-67.0664"/>
</g>
<!-- Node7 -->
<g id="node15" class="node"><title>Node7</title>
<a xlink:href="class_c_a_n_jaguar.html#a24bce09f963f2f7f0c38000197551e2d" target="_top" xlink:title="CANJaguar::ConfigEncoder\lCodesPerRev">
<polygon fill="white" stroke="black" points="184,-0 184,-30 318,-30 318,-0 184,-0"/>
<text text-anchor="start" x="192" y="-18" font-family="Helvetica,sans-Serif" font-size="10.00">CANJaguar::ConfigEncoder</text>
<text text-anchor="middle" x="251" y="-7" font-family="Helvetica,sans-Serif" font-size="10.00">CodesPerRev</text>
</a>
</g>
<!-- Node1&#45;&gt;Node7 -->
<g id="edge16" class="edge"><title>Node1&#45;&gt;Node7</title>
<path fill="none" stroke="midnightblue" d="M99.8825,-68.4317C125.825,-59.198 165.79,-44.9729 197.964,-33.5213"/>
<polygon fill="midnightblue" stroke="midnightblue" points="199.427,-36.7157 207.674,-30.065 197.08,-30.121 199.427,-36.7157"/>
</g>
<!-- Node3 -->
<g id="node5" class="node"><title>Node3</title>
<a xlink:href="class_c_a_n_jaguar.html#a6bbbf784a74cf95f7b4a5660a3d53cc2" target="_top" xlink:title="CANJaguar::DisableControl">
<polygon fill="white" stroke="black" points="374,-125.5 374,-144.5 508,-144.5 508,-125.5 374,-125.5"/>
<text text-anchor="middle" x="441" y="-132.5" font-family="Helvetica,sans-Serif" font-size="10.00">CANJaguar::DisableControl</text>
</a>
</g>
<!-- Node2&#45;&gt;Node3 -->
<g id="edge4" class="edge"><title>Node2&#45;&gt;Node3</title>
<path fill="none" stroke="midnightblue" d="M321.737,-135C335.443,-135 349.889,-135 363.794,-135"/>
<polygon fill="midnightblue" stroke="midnightblue" points="363.807,-138.5 373.807,-135 363.807,-131.5 363.807,-138.5"/>
</g>
<!-- Node4 -->
<g id="node7" class="node"><title>Node4</title>
<a xlink:href="class_c_a_n_jaguar.html#a6b82b54cc4033c3c5218ab04fb6c8282" target="_top" xlink:title="CANJaguar::sendMessage">
<polygon fill="white" stroke="black" points="560,-68.5 560,-87.5 692,-87.5 692,-68.5 560,-68.5"/>
<text text-anchor="middle" x="626" y="-75.5" font-family="Helvetica,sans-Serif" font-size="10.00">CANJaguar::sendMessage</text>
</a>
</g>
<!-- Node3&#45;&gt;Node4 -->
<g id="edge6" class="edge"><title>Node3&#45;&gt;Node4</title>
<path fill="none" stroke="midnightblue" d="M488.254,-125.408C499.995,-122.666 512.53,-119.47 524,-116 547.317,-108.946 573.005,-99.2539 592.639,-91.4238"/>
<polygon fill="midnightblue" stroke="midnightblue" points="594.067,-94.6222 602.032,-87.6362 591.449,-88.1301 594.067,-94.6222"/>
</g>
<!-- Node5&#45;&gt;Node4 -->
<g id="edge10" class="edge"><title>Node5&#45;&gt;Node4</title>
<path fill="none" stroke="midnightblue" d="M523.599,-88.528C532.299,-87.6247 541.12,-86.7088 549.742,-85.8136"/>
<polygon fill="midnightblue" stroke="midnightblue" points="550.169,-89.2883 559.754,-84.7742 549.446,-82.3257 550.169,-89.2883"/>
</g>
<!-- Node6&#45;&gt;Node4 -->
<g id="edge14" class="edge"><title>Node6&#45;&gt;Node4</title>
<path fill="none" stroke="midnightblue" d="M520.139,-67.1128C529.945,-68.1309 539.96,-69.1707 549.72,-70.1841"/>
<polygon fill="midnightblue" stroke="midnightblue" points="549.472,-73.6771 559.78,-71.2286 550.195,-66.7145 549.472,-73.6771"/>
</g>
<!-- Node7&#45;&gt;Node4 -->
<g id="edge18" class="edge"><title>Node7&#45;&gt;Node4</title>
<path fill="none" stroke="midnightblue" d="M318.182,-16.1408C373.748,-18.2704 454.904,-24.1308 524,-40 548.68,-45.6683 575.454,-55.9442 595.231,-64.3821"/>
<polygon fill="midnightblue" stroke="midnightblue" points="594.047,-67.6837 604.612,-68.4704 596.843,-61.2666 594.047,-67.6837"/>
</g>
</g>
</svg>
