<?xml version="1.0" encoding="UTF-8" standalone="no"?>
<!DOCTYPE svg PUBLIC "-//W3C//DTD SVG 1.1//EN"
 "http://www.w3.org/Graphics/SVG/1.1/DTD/svg11.dtd">
<!-- Generated by graphviz version 2.28.0 (20110507.0327)
 -->
<!-- Title: Task::Start Pages: 1 -->
<svg width="582pt" height="131pt"
 viewBox="0.00 0.00 582.00 131.00" xmlns="http://www.w3.org/2000/svg" xmlns:xlink="http://www.w3.org/1999/xlink">
<g id="graph1" class="graph" transform="scale(1 1) rotate(0) translate(4 127)">
<title>Task::Start</title>
<polygon fill="white" stroke="white" points="-4,5 -4,-127 579,-127 579,5 -4,5"/>
<!-- Node1 -->
<g id="node1" class="node"><title>Node1</title>
<polygon fill="#bfbfbf" stroke="black" points="0.5,-38.5 0.5,-57.5 65.5,-57.5 65.5,-38.5 0.5,-38.5"/>
<text text-anchor="middle" x="33" y="-45.5" font-family="Helvetica,sans-Serif" font-size="10.00">Task::Start</text>
</g>
<!-- Node2 -->
<g id="node3" class="node"><title>Node2</title>
<a xlink:href="class_driver_station.html#a343945cc9bbf870e0ada94b47f3fec92" target="_top" xlink:title="DriverStation::DriverStation">
<polygon fill="white" stroke="black" points="111,-76.5 111,-95.5 243,-95.5 243,-76.5 111,-76.5"/>
<text text-anchor="middle" x="177" y="-83.5" font-family="Helvetica,sans-Serif" font-size="10.00">DriverStation::DriverStation</text>
</a>
</g>
<!-- Node1&#45;&gt;Node2 -->
<g id="edge2" class="edge"><title>Node1&#45;&gt;Node2</title>
<path fill="none" stroke="midnightblue" d="M75.4399,-59.7292C84.2009,-62.1667 93.3977,-64.6941 102,-67 113.787,-70.1595 126.659,-73.5019 138.314,-76.4878"/>
<polygon fill="midnightblue" stroke="midnightblue" points="76.3617,-56.3527 65.7887,-57.032 74.4776,-63.0944 76.3617,-56.3527"/>
</g>
<!-- Node6 -->
<g id="node11" class="node"><title>Node6</title>
<a xlink:href="class_preferences.html#ae8ce1d8967e205e584e9cca1dbf86919" target="_top" xlink:title="Preferences::Save">
<polygon fill="white" stroke="black" points="129.5,-38.5 129.5,-57.5 224.5,-57.5 224.5,-38.5 129.5,-38.5"/>
<text text-anchor="middle" x="177" y="-45.5" font-family="Helvetica,sans-Serif" font-size="10.00">Preferences::Save</text>
</a>
</g>
<!-- Node1&#45;&gt;Node6 -->
<g id="edge10" class="edge"><title>Node1&#45;&gt;Node6</title>
<path fill="none" stroke="midnightblue" d="M75.6401,-48C92.5316,-48 112.114,-48 129.473,-48"/>
<polygon fill="midnightblue" stroke="midnightblue" points="75.5144,-44.5001 65.5144,-48 75.5144,-51.5001 75.5144,-44.5001"/>
</g>
<!-- Node7 -->
<g id="node13" class="node"><title>Node7</title>
<a xlink:href="class_ultrasonic.html#a16105fb0a316d780b8ea1554e3109825" target="_top" xlink:title="Ultrasonic::SetAutomaticMode">
<polygon fill="white" stroke="black" points="102.5,-0.5 102.5,-19.5 251.5,-19.5 251.5,-0.5 102.5,-0.5"/>
<text text-anchor="middle" x="177" y="-7.5" font-family="Helvetica,sans-Serif" font-size="10.00">Ultrasonic::SetAutomaticMode</text>
</a>
</g>
<!-- Node1&#45;&gt;Node7 -->
<g id="edge12" class="edge"><title>Node1&#45;&gt;Node7</title>
<path fill="none" stroke="midnightblue" d="M75.4399,-36.2708C84.2009,-33.8333 93.3977,-31.3059 102,-29 113.787,-25.8405 126.659,-22.4981 138.314,-19.5122"/>
<polygon fill="midnightblue" stroke="midnightblue" points="74.4776,-32.9056 65.7887,-38.968 76.3617,-39.6473 74.4776,-32.9056"/>
</g>
<!-- Node3 -->
<g id="node5" class="node"><title>Node3</title>
<a xlink:href="class_driver_station.html#ab0995c2d3f0b40cb13ac5aff656e46d0" target="_top" xlink:title="DriverStation::GetInstance">
<polygon fill="white" stroke="black" points="288,-76.5 288,-95.5 418,-95.5 418,-76.5 288,-76.5"/>
<text text-anchor="middle" x="353" y="-83.5" font-family="Helvetica,sans-Serif" font-size="10.00">DriverStation::GetInstance</text>
</a>
</g>
<!-- Node2&#45;&gt;Node3 -->
<g id="edge4" class="edge"><title>Node2&#45;&gt;Node3</title>
<path fill="none" stroke="midnightblue" d="M253.296,-86C264.792,-86 276.565,-86 287.793,-86"/>
<polygon fill="midnightblue" stroke="midnightblue" points="253.286,-82.5001 243.286,-86 253.286,-89.5001 253.286,-82.5001"/>
</g>
<!-- Node4 -->
<g id="node7" class="node"><title>Node4</title>
<a xlink:href="class_motor_safety_helper.html#a951390af947b507a299d1175b7e717cf" target="_top" xlink:title="MotorSafetyHelper::\lCheck">
<polygon fill="white" stroke="black" points="462.5,-93 462.5,-123 565.5,-123 565.5,-93 462.5,-93"/>
<text text-anchor="start" x="470.5" y="-111" font-family="Helvetica,sans-Serif" font-size="10.00">MotorSafetyHelper::</text>
<text text-anchor="middle" x="514" y="-100" font-family="Helvetica,sans-Serif" font-size="10.00">Check</text>
</a>
</g>
<!-- Node3&#45;&gt;Node4 -->
<g id="edge6" class="edge"><title>Node3&#45;&gt;Node4</title>
<path fill="none" stroke="midnightblue" d="M428.258,-96.2747C439.76,-97.8662 451.409,-99.4779 462.235,-100.976"/>
<polygon fill="midnightblue" stroke="midnightblue" points="428.598,-92.7885 418.213,-94.8848 427.639,-99.7225 428.598,-92.7885"/>
</g>
<!-- Node5 -->
<g id="node9" class="node"><title>Node5</title>
<a xlink:href="class_robot_base.html#a3043a0a78f4ec0e1e449eeed0a5db6e5" target="_top" xlink:title="RobotBase::RobotBase">
<polygon fill="white" stroke="black" points="454.5,-54.5 454.5,-73.5 573.5,-73.5 573.5,-54.5 454.5,-54.5"/>
<text text-anchor="middle" x="514" y="-61.5" font-family="Helvetica,sans-Serif" font-size="10.00">RobotBase::RobotBase</text>
</a>
</g>
<!-- Node3&#45;&gt;Node5 -->
<g id="edge8" class="edge"><title>Node3&#45;&gt;Node5</title>
<path fill="none" stroke="midnightblue" d="M428.125,-75.7437C436.959,-74.5215 445.881,-73.2869 454.453,-72.1008"/>
<polygon fill="midnightblue" stroke="midnightblue" points="427.639,-72.2775 418.213,-77.1152 428.598,-79.2115 427.639,-72.2775"/>
</g>
<!-- Node8 -->
<g id="node15" class="node"><title>Node8</title>
<a xlink:href="class_ultrasonic.html#ab5066b2bfeac723140c18b9f8340abad" target="_top" xlink:title="Ultrasonic::~Ultrasonic">
<polygon fill="white" stroke="black" points="295,-0.5 295,-19.5 411,-19.5 411,-0.5 295,-0.5"/>
<text text-anchor="middle" x="353" y="-7.5" font-family="Helvetica,sans-Serif" font-size="10.00">Ultrasonic::~Ultrasonic</text>
</a>
</g>
<!-- Node7&#45;&gt;Node8 -->
<g id="edge14" class="edge"><title>Node7&#45;&gt;Node8</title>
<path fill="none" stroke="midnightblue" d="M261.776,-10C272.967,-10 284.229,-10 294.821,-10"/>
<polygon fill="midnightblue" stroke="midnightblue" points="261.539,-6.5001 251.539,-10 261.539,-13.5001 261.539,-6.5001"/>
</g>
</g>
</svg>
