<?xml version="1.0" encoding="UTF-8" standalone="no"?>
<!DOCTYPE svg PUBLIC "-//W3C//DTD SVG 1.1//EN"
 "http://www.w3.org/Graphics/SVG/1.1/DTD/svg11.dtd">
<!-- Generated by graphviz version 2.28.0 (20110507.0327)
 -->
<!-- Title: Solenoid::Get Pages: 1 -->
<svg width="366pt" height="28pt"
 viewBox="0.00 0.00 366.00 28.00" xmlns="http://www.w3.org/2000/svg" xmlns:xlink="http://www.w3.org/1999/xlink">
<g id="graph1" class="graph" transform="scale(1 1) rotate(0) translate(4 24)">
<title>Solenoid::Get</title>
<polygon fill="white" stroke="white" points="-4,5 -4,-24 363,-24 363,5 -4,5"/>
<!-- Node1 -->
<g id="node1" class="node"><title>Node1</title>
<polygon fill="#bfbfbf" stroke="black" points="0,-0.5 0,-19.5 76,-19.5 76,-0.5 0,-0.5"/>
<text text-anchor="middle" x="38" y="-7.5" font-family="Helvetica,sans-Serif" font-size="10.00">Solenoid::Get</text>
</g>
<!-- Node2 -->
<g id="node3" class="node"><title>Node2</title>
<a xlink:href="class_solenoid.html#a150a157619f3f1572d5481cf85290ba8" target="_top" xlink:title="Solenoid::UpdateTable">
<polygon fill="white" stroke="black" points="112,-0.5 112,-19.5 226,-19.5 226,-0.5 112,-0.5"/>
<text text-anchor="middle" x="169" y="-7.5" font-family="Helvetica,sans-Serif" font-size="10.00">Solenoid::UpdateTable</text>
</a>
</g>
<!-- Node1&#45;&gt;Node2 -->
<g id="edge2" class="edge"><title>Node1&#45;&gt;Node2</title>
<path fill="none" stroke="midnightblue" d="M86.4191,-10C94.5995,-10 103.175,-10 111.565,-10"/>
<polygon fill="midnightblue" stroke="midnightblue" points="86.3122,-6.5001 76.3121,-10 86.3121,-13.5001 86.3122,-6.5001"/>
</g>
<!-- Node3 -->
<g id="node5" class="node"><title>Node3</title>
<a xlink:href="class_solenoid.html#ace46e6a1065c09c12e42ffff7713ccf6" target="_top" xlink:title="Solenoid::InitTable">
<polygon fill="white" stroke="black" points="262,-0.5 262,-19.5 358,-19.5 358,-0.5 262,-0.5"/>
<text text-anchor="middle" x="310" y="-7.5" font-family="Helvetica,sans-Serif" font-size="10.00">Solenoid::InitTable</text>
</a>
</g>
<!-- Node2&#45;&gt;Node3 -->
<g id="edge4" class="edge"><title>Node2&#45;&gt;Node3</title>
<path fill="none" stroke="midnightblue" d="M236.148,-10C244.73,-10 253.38,-10 261.574,-10"/>
<polygon fill="midnightblue" stroke="midnightblue" points="236.136,-6.5001 226.136,-10 236.136,-13.5001 236.136,-6.5001"/>
</g>
</g>
</svg>
