<?xml version="1.0" encoding="UTF-8" standalone="no"?>
<!DOCTYPE svg PUBLIC "-//W3C//DTD SVG 1.1//EN"
 "http://www.w3.org/Graphics/SVG/1.1/DTD/svg11.dtd">
<!-- Generated by graphviz version 2.28.0 (20110507.0327)
 -->
<!-- Title: ADXL345_I2C::GetAcceleration Pages: 1 -->
<svg width="626pt" height="104pt"
 viewBox="0.00 0.00 626.00 104.00" xmlns="http://www.w3.org/2000/svg" xmlns:xlink="http://www.w3.org/1999/xlink">
<g id="graph1" class="graph" transform="scale(1 1) rotate(0) translate(4 100)">
<title>ADXL345_I2C::GetAcceleration</title>
<polygon fill="white" stroke="white" points="-4,5 -4,-100 623,-100 623,5 -4,5"/>
<!-- Node1 -->
<g id="node1" class="node"><title>Node1</title>
<polygon fill="#bfbfbf" stroke="black" points="0,-38.5 0,-57.5 152,-57.5 152,-38.5 0,-38.5"/>
<text text-anchor="middle" x="76" y="-45.5" font-family="Helvetica,sans-Serif" font-size="10.00">ADXL345_I2C::GetAcceleration</text>
</g>
<!-- Node2 -->
<g id="node3" class="node"><title>Node2</title>
<a xlink:href="class_a_d_x_l345___i2_c.html#a4606027648ba713e43482308b01f54fa" target="_top" xlink:title="ADXL345_I2C::GetX">
<polygon fill="white" stroke="black" points="188.5,-76.5 188.5,-95.5 291.5,-95.5 291.5,-76.5 188.5,-76.5"/>
<text text-anchor="middle" x="240" y="-83.5" font-family="Helvetica,sans-Serif" font-size="10.00">ADXL345_I2C::GetX</text>
</a>
</g>
<!-- Node1&#45;&gt;Node2 -->
<g id="edge2" class="edge"><title>Node1&#45;&gt;Node2</title>
<path fill="none" stroke="midnightblue" d="M127.715,-59.8961C150.486,-65.2374 176.987,-71.4537 198.415,-76.4799"/>
<polygon fill="midnightblue" stroke="midnightblue" points="128.415,-56.4653 117.879,-57.589 126.816,-63.2803 128.415,-56.4653"/>
</g>
<!-- Node5 -->
<g id="node9" class="node"><title>Node5</title>
<a xlink:href="class_a_d_x_l345___i2_c.html#aa42d83f295dcc41a7ba3b510ba6ad594" target="_top" xlink:title="ADXL345_I2C::GetY">
<polygon fill="white" stroke="black" points="188,-38.5 188,-57.5 292,-57.5 292,-38.5 188,-38.5"/>
<text text-anchor="middle" x="240" y="-45.5" font-family="Helvetica,sans-Serif" font-size="10.00">ADXL345_I2C::GetY</text>
</a>
</g>
<!-- Node1&#45;&gt;Node5 -->
<g id="edge8" class="edge"><title>Node1&#45;&gt;Node5</title>
<path fill="none" stroke="midnightblue" d="M162.504,-48C171.182,-48 179.79,-48 187.93,-48"/>
<polygon fill="midnightblue" stroke="midnightblue" points="162.309,-44.5001 152.309,-48 162.309,-51.5001 162.309,-44.5001"/>
</g>
<!-- Node6 -->
<g id="node12" class="node"><title>Node6</title>
<a xlink:href="class_a_d_x_l345___i2_c.html#a772d16004a9f5e67ed391426b88f6d43" target="_top" xlink:title="ADXL345_I2C::GetZ">
<polygon fill="white" stroke="black" points="188.5,-0.5 188.5,-19.5 291.5,-19.5 291.5,-0.5 188.5,-0.5"/>
<text text-anchor="middle" x="240" y="-7.5" font-family="Helvetica,sans-Serif" font-size="10.00">ADXL345_I2C::GetZ</text>
</a>
</g>
<!-- Node1&#45;&gt;Node6 -->
<g id="edge12" class="edge"><title>Node1&#45;&gt;Node6</title>
<path fill="none" stroke="midnightblue" d="M127.715,-36.1039C150.486,-30.7626 176.987,-24.5463 198.415,-19.5201"/>
<polygon fill="midnightblue" stroke="midnightblue" points="126.816,-32.7197 117.879,-38.411 128.415,-39.5347 126.816,-32.7197"/>
</g>
<!-- Node3 -->
<g id="node5" class="node"><title>Node3</title>
<a xlink:href="class_a_d_x_l345___i2_c.html#ab52c386de90495ec8f825262281daeaf" target="_top" xlink:title="ADXL345_I2C::UpdateTable">
<polygon fill="white" stroke="black" points="328,-38.5 328,-57.5 464,-57.5 464,-38.5 328,-38.5"/>
<text text-anchor="middle" x="396" y="-45.5" font-family="Helvetica,sans-Serif" font-size="10.00">ADXL345_I2C::UpdateTable</text>
</a>
</g>
<!-- Node2&#45;&gt;Node3 -->
<g id="edge4" class="edge"><title>Node2&#45;&gt;Node3</title>
<path fill="none" stroke="midnightblue" d="M289.794,-73.96C311.308,-68.6512 336.232,-62.5012 356.419,-57.5201"/>
<polygon fill="midnightblue" stroke="midnightblue" points="288.731,-70.6172 279.861,-76.411 290.408,-77.4133 288.731,-70.6172"/>
</g>
<!-- Node4 -->
<g id="node7" class="node"><title>Node4</title>
<a xlink:href="class_a_d_x_l345___i2_c.html#ac215d496f38ea298a9c6d7a226dfcd0c" target="_top" xlink:title="ADXL345_I2C::InitTable">
<polygon fill="white" stroke="black" points="500,-38.5 500,-57.5 618,-57.5 618,-38.5 500,-38.5"/>
<text text-anchor="middle" x="559" y="-45.5" font-family="Helvetica,sans-Serif" font-size="10.00">ADXL345_I2C::InitTable</text>
</a>
</g>
<!-- Node3&#45;&gt;Node4 -->
<g id="edge6" class="edge"><title>Node3&#45;&gt;Node4</title>
<path fill="none" stroke="midnightblue" d="M474.375,-48C482.957,-48 491.586,-48 499.872,-48"/>
<polygon fill="midnightblue" stroke="midnightblue" points="474.346,-44.5001 464.346,-48 474.346,-51.5001 474.346,-44.5001"/>
</g>
<!-- Node5&#45;&gt;Node3 -->
<g id="edge10" class="edge"><title>Node5&#45;&gt;Node3</title>
<path fill="none" stroke="midnightblue" d="M302.328,-48C310.693,-48 319.316,-48 327.779,-48"/>
<polygon fill="midnightblue" stroke="midnightblue" points="302.28,-44.5001 292.28,-48 302.28,-51.5001 302.28,-44.5001"/>
</g>
<!-- Node6&#45;&gt;Node3 -->
<g id="edge14" class="edge"><title>Node6&#45;&gt;Node3</title>
<path fill="none" stroke="midnightblue" d="M289.794,-22.04C311.308,-27.3488 336.232,-33.4988 356.419,-38.4799"/>
<polygon fill="midnightblue" stroke="midnightblue" points="290.408,-18.5867 279.861,-19.589 288.731,-25.3828 290.408,-18.5867"/>
</g>
</g>
</svg>
