<?xml version="1.0" encoding="UTF-8" standalone="no"?>
<!DOCTYPE svg PUBLIC "-//W3C//DTD SVG 1.1//EN"
 "http://www.w3.org/Graphics/SVG/1.1/DTD/svg11.dtd">
<!-- Generated by graphviz version 2.28.0 (20110507.0327)
 -->
<!-- Title: Victor::PIDWrite Pages: 1 -->
<svg width="838pt" height="85pt"
 viewBox="0.00 0.00 838.00 85.00" xmlns="http://www.w3.org/2000/svg" xmlns:xlink="http://www.w3.org/1999/xlink">
<g id="graph1" class="graph" transform="scale(1 1) rotate(0) translate(4 81)">
<title>Victor::PIDWrite</title>
<polygon fill="white" stroke="white" points="-4,5 -4,-81 835,-81 835,5 -4,5"/>
<!-- Node1 -->
<g id="node1" class="node"><title>Node1</title>
<polygon fill="#bfbfbf" stroke="black" points="0.5,-19.5 0.5,-38.5 87.5,-38.5 87.5,-19.5 0.5,-19.5"/>
<text text-anchor="middle" x="44" y="-26.5" font-family="Helvetica,sans-Serif" font-size="10.00">Victor::PIDWrite</text>
</g>
<!-- Node2 -->
<g id="node3" class="node"><title>Node2</title>
<a xlink:href="class_victor.html#aeb1931d5462dcce004ba9bb5079b501a" target="_top" xlink:title="Victor::Set">
<polygon fill="white" stroke="black" points="124.5,-19.5 124.5,-38.5 187.5,-38.5 187.5,-19.5 124.5,-19.5"/>
<text text-anchor="middle" x="156" y="-26.5" font-family="Helvetica,sans-Serif" font-size="10.00">Victor::Set</text>
</a>
</g>
<!-- Node1&#45;&gt;Node2 -->
<g id="edge2" class="edge"><title>Node1&#45;&gt;Node2</title>
<path fill="none" stroke="midnightblue" d="M87.5289,-29C96.2111,-29 105.331,-29 113.96,-29"/>
<polygon fill="midnightblue" stroke="midnightblue" points="114.179,-32.5001 124.179,-29 114.179,-25.5001 114.179,-32.5001"/>
</g>
<!-- Node3 -->
<g id="node5" class="node"><title>Node3</title>
<a xlink:href="class_safe_p_w_m.html#af1ed936d88f3ee6446b01c17feb24b78" target="_top" xlink:title="SafePWM::SetSpeed">
<polygon fill="white" stroke="black" points="224,-19.5 224,-38.5 334,-38.5 334,-19.5 224,-19.5"/>
<text text-anchor="middle" x="279" y="-26.5" font-family="Helvetica,sans-Serif" font-size="10.00">SafePWM::SetSpeed</text>
</a>
</g>
<!-- Node2&#45;&gt;Node3 -->
<g id="edge4" class="edge"><title>Node2&#45;&gt;Node3</title>
<path fill="none" stroke="midnightblue" d="M187.533,-29C195.57,-29 204.551,-29 213.649,-29"/>
<polygon fill="midnightblue" stroke="midnightblue" points="213.925,-32.5001 223.925,-29 213.925,-25.5001 213.925,-32.5001"/>
</g>
<!-- Node4 -->
<g id="node7" class="node"><title>Node4</title>
<a xlink:href="class_p_w_m.html#a947e5f6073da9e4d1b60db0c7791ca9c" target="_top" xlink:title="PWM::SetSpeed">
<polygon fill="white" stroke="black" points="388,-38.5 388,-57.5 478,-57.5 478,-38.5 388,-38.5"/>
<text text-anchor="middle" x="433" y="-45.5" font-family="Helvetica,sans-Serif" font-size="10.00">PWM::SetSpeed</text>
</a>
</g>
<!-- Node3&#45;&gt;Node4 -->
<g id="edge6" class="edge"><title>Node3&#45;&gt;Node4</title>
<path fill="none" stroke="midnightblue" d="M334.017,-35.7522C348.162,-37.5203 363.419,-39.4273 377.584,-41.198"/>
<polygon fill="midnightblue" stroke="midnightblue" points="377.318,-44.6919 387.675,-42.4593 378.186,-37.7459 377.318,-44.6919"/>
</g>
<!-- Node7 -->
<g id="node14" class="node"><title>Node7</title>
<a xlink:href="class_motor_safety_helper.html#a67b80e9817dc725e0678de5e8f0bb39e" target="_top" xlink:title="MotorSafetyHelper::Feed">
<polygon fill="white" stroke="black" points="370.5,-0.5 370.5,-19.5 495.5,-19.5 495.5,-0.5 370.5,-0.5"/>
<text text-anchor="middle" x="433" y="-7.5" font-family="Helvetica,sans-Serif" font-size="10.00">MotorSafetyHelper::Feed</text>
</a>
</g>
<!-- Node3&#45;&gt;Node7 -->
<g id="edge14" class="edge"><title>Node3&#45;&gt;Node7</title>
<path fill="none" stroke="midnightblue" d="M334.017,-22.2478C342.573,-21.1783 351.536,-20.0581 360.417,-18.9478"/>
<polygon fill="midnightblue" stroke="midnightblue" points="360.896,-22.4153 370.385,-17.7019 360.028,-15.4694 360.896,-22.4153"/>
</g>
<!-- Node5 -->
<g id="node9" class="node"><title>Node5</title>
<a xlink:href="class_error_base.html#a05790f219c9e436a09752f73f7344024" target="_top" xlink:title="Check if the current error code represents a fatal error. ">
<polygon fill="white" stroke="black" points="706,-57.5 706,-76.5 830,-76.5 830,-57.5 706,-57.5"/>
<text text-anchor="middle" x="768" y="-64.5" font-family="Helvetica,sans-Serif" font-size="10.00">ErrorBase::StatusIsFatal</text>
</a>
</g>
<!-- Node4&#45;&gt;Node5 -->
<g id="edge8" class="edge"><title>Node4&#45;&gt;Node5</title>
<path fill="none" stroke="midnightblue" d="M473.799,-57.5105C491.506,-61.2756 512.679,-65.1443 532,-67 586.862,-72.2692 649.26,-71.9774 695.965,-70.5263"/>
<polygon fill="midnightblue" stroke="midnightblue" points="696.107,-74.0236 705.983,-70.1899 695.872,-67.0276 696.107,-74.0236"/>
</g>
<!-- Node6 -->
<g id="node11" class="node"><title>Node6</title>
<a xlink:href="class_p_w_m.html#a0c546e1aa7d5d091447a819e50fae9ca" target="_top" xlink:title="PWM::SetRaw">
<polygon fill="white" stroke="black" points="560.5,-38.5 560.5,-57.5 641.5,-57.5 641.5,-38.5 560.5,-38.5"/>
<text text-anchor="middle" x="601" y="-45.5" font-family="Helvetica,sans-Serif" font-size="10.00">PWM::SetRaw</text>
</a>
</g>
<!-- Node4&#45;&gt;Node6 -->
<g id="edge10" class="edge"><title>Node4&#45;&gt;Node6</title>
<path fill="none" stroke="midnightblue" d="M478.049,-48C500.205,-48 527.151,-48 550.073,-48"/>
<polygon fill="midnightblue" stroke="midnightblue" points="550.29,-51.5001 560.29,-48 550.29,-44.5001 550.29,-51.5001"/>
</g>
<!-- Node6&#45;&gt;Node5 -->
<g id="edge12" class="edge"><title>Node6&#45;&gt;Node5</title>
<path fill="none" stroke="midnightblue" d="M641.522,-52.551C657.846,-54.4308 677.286,-56.6693 695.931,-58.8163"/>
<polygon fill="midnightblue" stroke="midnightblue" points="695.55,-62.2954 705.884,-59.9624 696.35,-55.3414 695.55,-62.2954"/>
</g>
<!-- Node8 -->
<g id="node16" class="node"><title>Node8</title>
<a xlink:href="class_timer.html#a7fa6e6dffec055e5104ccd6bcadec9aa" target="_top" xlink:title="Timer::GetFPGATimestamp">
<polygon fill="white" stroke="black" points="532.5,-0.5 532.5,-19.5 669.5,-19.5 669.5,-0.5 532.5,-0.5"/>
<text text-anchor="middle" x="601" y="-7.5" font-family="Helvetica,sans-Serif" font-size="10.00">Timer::GetFPGATimestamp</text>
</a>
</g>
<!-- Node7&#45;&gt;Node8 -->
<g id="edge16" class="edge"><title>Node7&#45;&gt;Node8</title>
<path fill="none" stroke="midnightblue" d="M495.812,-10C504.359,-10 513.227,-10 522.02,-10"/>
<polygon fill="midnightblue" stroke="midnightblue" points="522.283,-13.5001 532.283,-10 522.283,-6.5001 522.283,-13.5001"/>
</g>
<!-- Node9 -->
<g id="node18" class="node"><title>Node9</title>
<a xlink:href="_utility_8h.html#ababf055d95368485d48bd9a0231853f3" target="_top" xlink:title="GetFPGATime">
<polygon fill="white" stroke="black" points="728,-0.5 728,-19.5 808,-19.5 808,-0.5 728,-0.5"/>
<text text-anchor="middle" x="768" y="-7.5" font-family="Helvetica,sans-Serif" font-size="10.00">GetFPGATime</text>
</a>
</g>
<!-- Node8&#45;&gt;Node9 -->
<g id="edge18" class="edge"><title>Node8&#45;&gt;Node9</title>
<path fill="none" stroke="midnightblue" d="M669.588,-10C685.641,-10 702.473,-10 717.543,-10"/>
<polygon fill="midnightblue" stroke="midnightblue" points="717.664,-13.5001 727.663,-10 717.663,-6.5001 717.664,-13.5001"/>
</g>
</g>
</svg>
