<?xml version="1.0" encoding="UTF-8" standalone="no"?>
<!DOCTYPE svg PUBLIC "-//W3C//DTD SVG 1.1//EN"
 "http://www.w3.org/Graphics/SVG/1.1/DTD/svg11.dtd">
<!-- Generated by graphviz version 2.28.0 (20110507.0327)
 -->
<!-- Title: CANJaguar::SetCurrentMode Pages: 1 -->
<svg width="690pt" height="218pt"
 viewBox="0.00 0.00 690.00 218.00" xmlns="http://www.w3.org/2000/svg" xmlns:xlink="http://www.w3.org/1999/xlink">
<g id="graph1" class="graph" transform="scale(1 1) rotate(0) translate(4 214)">
<title>CANJaguar::SetCurrentMode</title>
<polygon fill="white" stroke="white" points="-4,5 -4,-214 687,-214 687,5 -4,5"/>
<!-- Node1 -->
<g id="node1" class="node"><title>Node1</title>
<polygon fill="#bfbfbf" stroke="black" points="0,-133.5 0,-152.5 142,-152.5 142,-133.5 0,-133.5"/>
<text text-anchor="middle" x="71" y="-140.5" font-family="Helvetica,sans-Serif" font-size="10.00">CANJaguar::SetCurrentMode</text>
</g>
<!-- Node2 -->
<g id="node3" class="node"><title>Node2</title>
<a xlink:href="class_c_a_n_jaguar.html#ad359943907bf802075474a3753f7fb02" target="_top" xlink:title="CANJaguar::SetControlMode">
<polygon fill="white" stroke="black" points="190.5,-190.5 190.5,-209.5 331.5,-209.5 331.5,-190.5 190.5,-190.5"/>
<text text-anchor="middle" x="261" y="-197.5" font-family="Helvetica,sans-Serif" font-size="10.00">CANJaguar::SetControlMode</text>
</a>
</g>
<!-- Node1&#45;&gt;Node2 -->
<g id="edge2" class="edge"><title>Node1&#45;&gt;Node2</title>
<path fill="none" stroke="midnightblue" d="M96.1533,-152.569C117.468,-160.793 149.491,-172.618 178,-181 186.557,-183.516 195.694,-185.912 204.649,-188.102"/>
<polygon fill="midnightblue" stroke="midnightblue" points="204.102,-191.57 214.641,-190.484 205.724,-184.761 204.102,-191.57"/>
</g>
<!-- Node5 -->
<g id="node9" class="node"><title>Node5</title>
<a xlink:href="class_c_a_n_jaguar.html#a4ea009bbaaa337eeb10efba61203ee38" target="_top" xlink:title="CANJaguar::SetPositionReference">
<polygon fill="white" stroke="black" points="178.5,-152.5 178.5,-171.5 343.5,-171.5 343.5,-152.5 178.5,-152.5"/>
<text text-anchor="middle" x="261" y="-159.5" font-family="Helvetica,sans-Serif" font-size="10.00">CANJaguar::SetPositionReference</text>
</a>
</g>
<!-- Node1&#45;&gt;Node5 -->
<g id="edge8" class="edge"><title>Node1&#45;&gt;Node5</title>
<path fill="none" stroke="midnightblue" d="M142.004,-150.075C150.483,-150.932 159.241,-151.817 167.977,-152.7"/>
<polygon fill="midnightblue" stroke="midnightblue" points="167.901,-156.21 178.203,-153.733 168.605,-149.245 167.901,-156.21"/>
</g>
<!-- Node6 -->
<g id="node12" class="node"><title>Node6</title>
<a xlink:href="class_c_a_n_jaguar.html#ac6780a940570ec0386d234b309fb260d" target="_top" xlink:title="CANJaguar::SetSpeedReference">
<polygon fill="white" stroke="black" points="182,-114.5 182,-133.5 340,-133.5 340,-114.5 182,-114.5"/>
<text text-anchor="middle" x="261" y="-121.5" font-family="Helvetica,sans-Serif" font-size="10.00">CANJaguar::SetSpeedReference</text>
</a>
</g>
<!-- Node1&#45;&gt;Node6 -->
<g id="edge12" class="edge"><title>Node1&#45;&gt;Node6</title>
<path fill="none" stroke="midnightblue" d="M142.004,-135.925C151.612,-134.954 161.578,-133.947 171.464,-132.948"/>
<polygon fill="midnightblue" stroke="midnightblue" points="172.12,-136.399 181.717,-131.912 171.416,-129.435 172.12,-136.399"/>
</g>
<!-- Node7 -->
<g id="node15" class="node"><title>Node7</title>
<a xlink:href="class_c_a_n_jaguar.html#a27a017dfbfbb580251b4dd342ccbfd6d" target="_top" xlink:title="CANJaguar::SetPID">
<polygon fill="white" stroke="black" points="210,-57.5 210,-76.5 312,-76.5 312,-57.5 210,-57.5"/>
<text text-anchor="middle" x="261" y="-64.5" font-family="Helvetica,sans-Serif" font-size="10.00">CANJaguar::SetPID</text>
</a>
</g>
<!-- Node1&#45;&gt;Node7 -->
<g id="edge16" class="edge"><title>Node1&#45;&gt;Node7</title>
<path fill="none" stroke="midnightblue" d="M95.8103,-133.375C129.006,-119.955 189.336,-95.5661 226.895,-80.3828"/>
<polygon fill="midnightblue" stroke="midnightblue" points="228.424,-83.5401 236.383,-76.5473 225.8,-77.0504 228.424,-83.5401"/>
</g>
<!-- Node3 -->
<g id="node5" class="node"><title>Node3</title>
<a xlink:href="class_c_a_n_jaguar.html#a6bbbf784a74cf95f7b4a5660a3d53cc2" target="_top" xlink:title="CANJaguar::DisableControl">
<polygon fill="white" stroke="black" points="380,-190.5 380,-209.5 514,-209.5 514,-190.5 380,-190.5"/>
<text text-anchor="middle" x="447" y="-197.5" font-family="Helvetica,sans-Serif" font-size="10.00">CANJaguar::DisableControl</text>
</a>
</g>
<!-- Node2&#45;&gt;Node3 -->
<g id="edge4" class="edge"><title>Node2&#45;&gt;Node3</title>
<path fill="none" stroke="midnightblue" d="M331.563,-200C344.09,-200 357.208,-200 369.909,-200"/>
<polygon fill="midnightblue" stroke="midnightblue" points="369.986,-203.5 379.986,-200 369.986,-196.5 369.986,-203.5"/>
</g>
<!-- Node4 -->
<g id="node7" class="node"><title>Node4</title>
<a xlink:href="class_c_a_n_jaguar.html#a6b82b54cc4033c3c5218ab04fb6c8282" target="_top" xlink:title="CANJaguar::sendMessage">
<polygon fill="white" stroke="black" points="550,-95.5 550,-114.5 682,-114.5 682,-95.5 550,-95.5"/>
<text text-anchor="middle" x="616" y="-102.5" font-family="Helvetica,sans-Serif" font-size="10.00">CANJaguar::sendMessage</text>
</a>
</g>
<!-- Node3&#45;&gt;Node4 -->
<g id="edge6" class="edge"><title>Node3&#45;&gt;Node4</title>
<path fill="none" stroke="midnightblue" d="M479.612,-190.406C490.754,-186.534 503.19,-181.638 514,-176 544.295,-160.2 576.023,-136.547 595.653,-120.947"/>
<polygon fill="midnightblue" stroke="midnightblue" points="597.938,-123.602 603.529,-114.603 593.546,-118.15 597.938,-123.602"/>
</g>
<!-- Node5&#45;&gt;Node4 -->
<g id="edge10" class="edge"><title>Node5&#45;&gt;Node4</title>
<path fill="none" stroke="midnightblue" d="M341.976,-152.479C391.641,-146.174 456.708,-137.203 514,-127 530.533,-124.056 548.475,-120.324 564.586,-116.775"/>
<polygon fill="midnightblue" stroke="midnightblue" points="565.354,-120.189 574.352,-114.597 563.83,-113.357 565.354,-120.189"/>
</g>
<!-- Node6&#45;&gt;Node4 -->
<g id="edge14" class="edge"><title>Node6&#45;&gt;Node4</title>
<path fill="none" stroke="midnightblue" d="M340.342,-119.783C399.742,-116.586 480.891,-112.218 539.566,-109.06"/>
<polygon fill="midnightblue" stroke="midnightblue" points="540.084,-112.537 549.882,-108.505 539.708,-105.548 540.084,-112.537"/>
</g>
<!-- Node8 -->
<g id="node17" class="node"><title>Node8</title>
<a xlink:href="class_c_a_n_jaguar.html#a22a1787a38fd35abc2cdf15bb7d81da5" target="_top" xlink:title="CANJaguar::SetP">
<polygon fill="white" stroke="black" points="400.5,-76.5 400.5,-95.5 493.5,-95.5 493.5,-76.5 400.5,-76.5"/>
<text text-anchor="middle" x="447" y="-83.5" font-family="Helvetica,sans-Serif" font-size="10.00">CANJaguar::SetP</text>
</a>
</g>
<!-- Node7&#45;&gt;Node8 -->
<g id="edge18" class="edge"><title>Node7&#45;&gt;Node8</title>
<path fill="none" stroke="midnightblue" d="M312.279,-72.1918C336.407,-74.6833 365.392,-77.6764 390.2,-80.238"/>
<polygon fill="midnightblue" stroke="midnightblue" points="389.885,-83.724 400.192,-81.2698 390.604,-76.7611 389.885,-83.724"/>
</g>
<!-- Node9 -->
<g id="node20" class="node"><title>Node9</title>
<a xlink:href="class_c_a_n_jaguar.html#a99abdf41fc6ce39d51f0c9d2fbbcfcb0" target="_top" xlink:title="CANJaguar::SetI">
<polygon fill="white" stroke="black" points="402.5,-38.5 402.5,-57.5 491.5,-57.5 491.5,-38.5 402.5,-38.5"/>
<text text-anchor="middle" x="447" y="-45.5" font-family="Helvetica,sans-Serif" font-size="10.00">CANJaguar::SetI</text>
</a>
</g>
<!-- Node7&#45;&gt;Node9 -->
<g id="edge22" class="edge"><title>Node7&#45;&gt;Node9</title>
<path fill="none" stroke="midnightblue" d="M312.279,-61.8082C337.061,-59.2491 366.968,-56.1609 392.209,-53.5545"/>
<polygon fill="midnightblue" stroke="midnightblue" points="392.763,-57.016 402.351,-52.5073 392.044,-50.053 392.763,-57.016"/>
</g>
<!-- Node10 -->
<g id="node23" class="node"><title>Node10</title>
<a xlink:href="class_c_a_n_jaguar.html#a5c5228b40626981bcb5009044edc28d7" target="_top" xlink:title="CANJaguar::SetD">
<polygon fill="white" stroke="black" points="400.5,-0.5 400.5,-19.5 493.5,-19.5 493.5,-0.5 400.5,-0.5"/>
<text text-anchor="middle" x="447" y="-7.5" font-family="Helvetica,sans-Serif" font-size="10.00">CANJaguar::SetD</text>
</a>
</g>
<!-- Node7&#45;&gt;Node10 -->
<g id="edge26" class="edge"><title>Node7&#45;&gt;Node10</title>
<path fill="none" stroke="midnightblue" d="M291.016,-57.3766C314.853,-49.5383 349.532,-38.289 380,-29 387.217,-26.7998 394.898,-24.5266 402.373,-22.3508"/>
<polygon fill="midnightblue" stroke="midnightblue" points="403.39,-25.7001 412.025,-19.5609 401.446,-18.9754 403.39,-25.7001"/>
</g>
<!-- Node8&#45;&gt;Node4 -->
<g id="edge20" class="edge"><title>Node8&#45;&gt;Node4</title>
<path fill="none" stroke="midnightblue" d="M493.633,-91.1918C507.814,-92.8052 523.843,-94.6288 539.494,-96.4095"/>
<polygon fill="midnightblue" stroke="midnightblue" points="539.369,-99.9178 549.701,-97.5708 540.161,-92.9627 539.369,-99.9178"/>
</g>
<!-- Node9&#45;&gt;Node4 -->
<g id="edge24" class="edge"><title>Node9&#45;&gt;Node4</title>
<path fill="none" stroke="midnightblue" d="M483.097,-57.5427C493.129,-60.4217 504.04,-63.6985 514,-67 536.819,-74.5641 562.139,-84.0928 581.719,-91.716"/>
<polygon fill="midnightblue" stroke="midnightblue" points="580.524,-95.0069 591.111,-95.398 583.079,-88.4897 580.524,-95.0069"/>
</g>
<!-- Node10&#45;&gt;Node4 -->
<g id="edge28" class="edge"><title>Node10&#45;&gt;Node4</title>
<path fill="none" stroke="midnightblue" d="M489.717,-19.506C497.974,-22.077 506.424,-25.2212 514,-29 545.988,-44.9557 578.161,-71.3773 597.332,-88.4855"/>
<polygon fill="midnightblue" stroke="midnightblue" points="595.192,-91.2697 604.946,-95.4047 599.899,-86.0891 595.192,-91.2697"/>
</g>
</g>
</svg>
