<?xml version="1.0" encoding="UTF-8" standalone="no"?>
<!DOCTYPE svg PUBLIC "-//W3C//DTD SVG 1.1//EN"
 "http://www.w3.org/Graphics/SVG/1.1/DTD/svg11.dtd">
<!-- Generated by graphviz version 2.28.0 (20110507.0327)
 -->
<!-- Title: Timer::Reset Pages: 1 -->
<svg width="240pt" height="66pt"
 viewBox="0.00 0.00 240.00 66.00" xmlns="http://www.w3.org/2000/svg" xmlns:xlink="http://www.w3.org/1999/xlink">
<g id="graph1" class="graph" transform="scale(1 1) rotate(0) translate(4 62)">
<title>Timer::Reset</title>
<polygon fill="white" stroke="white" points="-4,5 -4,-62 237,-62 237,5 -4,5"/>
<!-- Node1 -->
<g id="node1" class="node"><title>Node1</title>
<polygon fill="#bfbfbf" stroke="black" points="0,-19.5 0,-38.5 72,-38.5 72,-19.5 0,-19.5"/>
<text text-anchor="middle" x="36" y="-26.5" font-family="Helvetica,sans-Serif" font-size="10.00">Timer::Reset</text>
</g>
<!-- Node2 -->
<g id="node3" class="node"><title>Node2</title>
<a xlink:href="class_iterative_robot.html#a1e49eb27408751ea8ce757bfe38717e2" target="_top" xlink:title="IterativeRobot::SetPeriod">
<polygon fill="white" stroke="black" points="108,-38.5 108,-57.5 232,-57.5 232,-38.5 108,-38.5"/>
<text text-anchor="middle" x="170" y="-45.5" font-family="Helvetica,sans-Serif" font-size="10.00">IterativeRobot::SetPeriod</text>
</a>
</g>
<!-- Node1&#45;&gt;Node2 -->
<g id="edge2" class="edge"><title>Node1&#45;&gt;Node2</title>
<path fill="none" stroke="midnightblue" d="M82.1703,-35.5018C90.4175,-36.6889 99.1483,-37.9456 107.77,-39.1866"/>
<polygon fill="midnightblue" stroke="midnightblue" points="82.4237,-32.0023 72.027,-34.0418 81.4263,-38.9309 82.4237,-32.0023"/>
</g>
<!-- Node3 -->
<g id="node5" class="node"><title>Node3</title>
<a xlink:href="class_timer.html#a5f16e8da27d2a5a5242dead46de05d97" target="_top" xlink:title="Timer::Timer">
<polygon fill="white" stroke="black" points="134.5,-0.5 134.5,-19.5 205.5,-19.5 205.5,-0.5 134.5,-0.5"/>
<text text-anchor="middle" x="170" y="-7.5" font-family="Helvetica,sans-Serif" font-size="10.00">Timer::Timer</text>
</a>
</g>
<!-- Node1&#45;&gt;Node3 -->
<g id="edge4" class="edge"><title>Node1&#45;&gt;Node3</title>
<path fill="none" stroke="midnightblue" d="M82.3078,-22.4784C99.3173,-20.0301 118.367,-17.2881 134.267,-14.9994"/>
<polygon fill="midnightblue" stroke="midnightblue" points="81.4263,-19.0691 72.027,-23.9582 82.4237,-25.9977 81.4263,-19.0691"/>
</g>
</g>
</svg>
