<?xml version="1.0" encoding="UTF-8" standalone="no"?>
<!DOCTYPE svg PUBLIC "-//W3C//DTD SVG 1.1//EN"
 "http://www.w3.org/Graphics/SVG/1.1/DTD/svg11.dtd">
<!-- Generated by graphviz version 2.28.0 (20110507.0327)
 -->
<!-- Title: RobotDrive::TankDrive Pages: 1 -->
<svg width="756pt" height="142pt"
 viewBox="0.00 0.00 756.00 142.00" xmlns="http://www.w3.org/2000/svg" xmlns:xlink="http://www.w3.org/1999/xlink">
<g id="graph1" class="graph" transform="scale(1 1) rotate(0) translate(4 138)">
<title>RobotDrive::TankDrive</title>
<polygon fill="white" stroke="white" points="-4,5 -4,-138 753,-138 753,5 -4,5"/>
<!-- Node1 -->
<g id="node1" class="node"><title>Node1</title>
<polygon fill="#bfbfbf" stroke="black" points="0.5,-92.5 0.5,-111.5 111.5,-111.5 111.5,-92.5 0.5,-92.5"/>
<text text-anchor="middle" x="56" y="-99.5" font-family="Helvetica,sans-Serif" font-size="10.00">RobotDrive::TankDrive</text>
</g>
<!-- Node2 -->
<g id="node3" class="node"><title>Node2</title>
<a xlink:href="class_robot_drive.html#aa7d99fd794c6f8c0b5486603f508a3a7" target="_top" xlink:title="RobotDrive::Limit">
<polygon fill="white" stroke="black" points="337,-114.5 337,-133.5 427,-133.5 427,-114.5 337,-114.5"/>
<text text-anchor="middle" x="382" y="-121.5" font-family="Helvetica,sans-Serif" font-size="10.00">RobotDrive::Limit</text>
</a>
</g>
<!-- Node1&#45;&gt;Node2 -->
<g id="edge2" class="edge"><title>Node1&#45;&gt;Node2</title>
<path fill="none" stroke="midnightblue" d="M111.596,-105.707C171.521,-109.776 267.132,-116.268 326.871,-120.325"/>
<polygon fill="midnightblue" stroke="midnightblue" points="326.651,-123.818 336.865,-121.003 327.125,-116.834 326.651,-123.818"/>
</g>
<!-- Node3 -->
<g id="node5" class="node"><title>Node3</title>
<a xlink:href="class_robot_drive.html#a6f17b92a6867d512188b497f192f0715" target="_top" xlink:title="RobotDrive::SetLeftRight\lMotorOutputs">
<polygon fill="white" stroke="black" points="148,-65 148,-95 270,-95 270,-65 148,-65"/>
<text text-anchor="start" x="156" y="-83" font-family="Helvetica,sans-Serif" font-size="10.00">RobotDrive::SetLeftRight</text>
<text text-anchor="middle" x="209" y="-72" font-family="Helvetica,sans-Serif" font-size="10.00">MotorOutputs</text>
</a>
</g>
<!-- Node1&#45;&gt;Node3 -->
<g id="edge4" class="edge"><title>Node1&#45;&gt;Node3</title>
<path fill="none" stroke="midnightblue" d="M111.514,-94.0575C120.107,-92.8056 129.094,-91.4962 137.979,-90.2017"/>
<polygon fill="midnightblue" stroke="midnightblue" points="138.55,-93.6555 147.941,-88.7503 137.541,-86.7287 138.55,-93.6555"/>
</g>
<!-- Node3&#45;&gt;Node2 -->
<g id="edge8" class="edge"><title>Node3&#45;&gt;Node2</title>
<path fill="none" stroke="midnightblue" d="M267.347,-95.0005C280.069,-98.3099 293.489,-101.786 306,-105 314.885,-107.282 324.368,-109.699 333.496,-112.016"/>
<polygon fill="midnightblue" stroke="midnightblue" points="332.664,-115.416 343.218,-114.481 334.384,-108.631 332.664,-115.416"/>
</g>
<!-- Node4 -->
<g id="node7" class="node"><title>Node4</title>
<a xlink:href="class_speed_controller.html#adc3d0010c1c684979261b98d438f8db5" target="_top" xlink:title="SpeedController::Set">
<polygon fill="white" stroke="black" points="328.5,-76.5 328.5,-95.5 435.5,-95.5 435.5,-76.5 328.5,-76.5"/>
<text text-anchor="middle" x="382" y="-83.5" font-family="Helvetica,sans-Serif" font-size="10.00">SpeedController::Set</text>
</a>
</g>
<!-- Node3&#45;&gt;Node4 -->
<g id="edge6" class="edge"><title>Node3&#45;&gt;Node4</title>
<path fill="none" stroke="midnightblue" d="M270.288,-82.1154C285.827,-82.6606 302.586,-83.2486 318.247,-83.7982"/>
<polygon fill="midnightblue" stroke="midnightblue" points="318.24,-87.2999 328.356,-84.1529 318.485,-80.3043 318.24,-87.2999"/>
</g>
<!-- Node5 -->
<g id="node10" class="node"><title>Node5</title>
<a xlink:href="class_c_a_n_jaguar.html#a225e0588b0955681a24da6ab0d2c8bc0" target="_top" xlink:title="CANJaguar::UpdateSyncGroup">
<polygon fill="white" stroke="black" points="306.5,-38.5 306.5,-57.5 457.5,-57.5 457.5,-38.5 306.5,-38.5"/>
<text text-anchor="middle" x="382" y="-45.5" font-family="Helvetica,sans-Serif" font-size="10.00">CANJaguar::UpdateSyncGroup</text>
</a>
</g>
<!-- Node3&#45;&gt;Node5 -->
<g id="edge10" class="edge"><title>Node3&#45;&gt;Node5</title>
<path fill="none" stroke="midnightblue" d="M270.288,-68.718C286.453,-65.693 303.938,-62.4209 320.134,-59.3901"/>
<polygon fill="midnightblue" stroke="midnightblue" points="320.843,-62.8184 330.028,-57.5386 319.555,-55.9378 320.843,-62.8184"/>
</g>
<!-- Node6 -->
<g id="node12" class="node"><title>Node6</title>
<a xlink:href="class_motor_safety_helper.html#a67b80e9817dc725e0678de5e8f0bb39e" target="_top" xlink:title="MotorSafetyHelper::Feed">
<polygon fill="white" stroke="black" points="319.5,-0.5 319.5,-19.5 444.5,-19.5 444.5,-0.5 319.5,-0.5"/>
<text text-anchor="middle" x="382" y="-7.5" font-family="Helvetica,sans-Serif" font-size="10.00">MotorSafetyHelper::Feed</text>
</a>
</g>
<!-- Node3&#45;&gt;Node6 -->
<g id="edge12" class="edge"><title>Node3&#45;&gt;Node6</title>
<path fill="none" stroke="midnightblue" d="M234.488,-64.8736C253.44,-53.6963 280.645,-38.7824 306,-29 312.399,-26.5311 319.229,-24.2912 326.064,-22.2872"/>
<polygon fill="midnightblue" stroke="midnightblue" points="327.332,-25.5677 336.031,-19.5206 325.46,-18.8227 327.332,-25.5677"/>
</g>
<!-- Node7 -->
<g id="node14" class="node"><title>Node7</title>
<a xlink:href="class_timer.html#a7fa6e6dffec055e5104ccd6bcadec9aa" target="_top" xlink:title="Timer::GetFPGATimestamp">
<polygon fill="white" stroke="black" points="494.5,-0.5 494.5,-19.5 631.5,-19.5 631.5,-0.5 494.5,-0.5"/>
<text text-anchor="middle" x="563" y="-7.5" font-family="Helvetica,sans-Serif" font-size="10.00">Timer::GetFPGATimestamp</text>
</a>
</g>
<!-- Node6&#45;&gt;Node7 -->
<g id="edge14" class="edge"><title>Node6&#45;&gt;Node7</title>
<path fill="none" stroke="midnightblue" d="M444.602,-10C457.415,-10 471.076,-10 484.381,-10"/>
<polygon fill="midnightblue" stroke="midnightblue" points="484.465,-13.5001 494.465,-10 484.465,-6.5001 484.465,-13.5001"/>
</g>
<!-- Node8 -->
<g id="node16" class="node"><title>Node8</title>
<a xlink:href="_utility_8h.html#ababf055d95368485d48bd9a0231853f3" target="_top" xlink:title="GetFPGATime">
<polygon fill="white" stroke="black" points="668,-0.5 668,-19.5 748,-19.5 748,-0.5 668,-0.5"/>
<text text-anchor="middle" x="708" y="-7.5" font-family="Helvetica,sans-Serif" font-size="10.00">GetFPGATime</text>
</a>
</g>
<!-- Node7&#45;&gt;Node8 -->
<g id="edge16" class="edge"><title>Node7&#45;&gt;Node8</title>
<path fill="none" stroke="midnightblue" d="M631.731,-10C640.558,-10 649.463,-10 657.904,-10"/>
<polygon fill="midnightblue" stroke="midnightblue" points="657.934,-13.5001 667.933,-10 657.933,-6.5001 657.934,-13.5001"/>
</g>
</g>
</svg>
