<?xml version="1.0" encoding="UTF-8" standalone="no"?>
<!DOCTYPE svg PUBLIC "-//W3C//DTD SVG 1.1//EN"
 "http://www.w3.org/Graphics/SVG/1.1/DTD/svg11.dtd">
<!-- Generated by graphviz version 2.28.0 (20110507.0327)
 -->
<!-- Title: RobotBase::IsDisabled Pages: 1 -->
<svg width="314pt" height="66pt"
 viewBox="0.00 0.00 314.00 66.00" xmlns="http://www.w3.org/2000/svg" xmlns:xlink="http://www.w3.org/1999/xlink">
<g id="graph1" class="graph" transform="scale(1 1) rotate(0) translate(4 62)">
<title>RobotBase::IsDisabled</title>
<polygon fill="white" stroke="white" points="-4,5 -4,-62 311,-62 311,5 -4,5"/>
<!-- Node1 -->
<g id="node1" class="node"><title>Node1</title>
<polygon fill="#bfbfbf" stroke="black" points="0,-19.5 0,-38.5 116,-38.5 116,-19.5 0,-19.5"/>
<text text-anchor="middle" x="58" y="-26.5" font-family="Helvetica,sans-Serif" font-size="10.00">RobotBase::IsDisabled</text>
</g>
<!-- Node2 -->
<g id="node3" class="node"><title>Node2</title>
<a xlink:href="class_iterative_robot.html#ab0af04a781b0390981b9f0dd75358515" target="_top" xlink:title="IterativeRobot::StartCompetition">
<polygon fill="white" stroke="black" points="152,-38.5 152,-57.5 306,-57.5 306,-38.5 152,-38.5"/>
<text text-anchor="middle" x="229" y="-45.5" font-family="Helvetica,sans-Serif" font-size="10.00">IterativeRobot::StartCompetition</text>
</a>
</g>
<!-- Node1&#45;&gt;Node2 -->
<g id="edge2" class="edge"><title>Node1&#45;&gt;Node2</title>
<path fill="none" stroke="midnightblue" d="M126.346,-36.5714C134.767,-37.5181 143.425,-38.4915 151.966,-39.4518"/>
<polygon fill="midnightblue" stroke="midnightblue" points="126.544,-33.0718 116.216,-35.4325 125.762,-40.0279 126.544,-33.0718"/>
</g>
<!-- Node3 -->
<g id="node5" class="node"><title>Node3</title>
<a xlink:href="class_sample_robot.html#aa9c849963713b505a4e032516c028829" target="_top" xlink:title="SampleRobot::StartCompetition">
<polygon fill="white" stroke="black" points="152,-0.5 152,-19.5 306,-19.5 306,-0.5 152,-0.5"/>
<text text-anchor="middle" x="229" y="-7.5" font-family="Helvetica,sans-Serif" font-size="10.00">SampleRobot::StartCompetition</text>
</a>
</g>
<!-- Node1&#45;&gt;Node3 -->
<g id="edge4" class="edge"><title>Node1&#45;&gt;Node3</title>
<path fill="none" stroke="midnightblue" d="M126.346,-21.4286C134.767,-20.4819 143.425,-19.5085 151.966,-18.5482"/>
<polygon fill="midnightblue" stroke="midnightblue" points="125.762,-17.9721 116.216,-22.5675 126.544,-24.9282 125.762,-17.9721"/>
</g>
</g>
</svg>
