<?xml version="1.0" encoding="UTF-8" standalone="no"?>
<!DOCTYPE svg PUBLIC "-//W3C//DTD SVG 1.1//EN"
 "http://www.w3.org/Graphics/SVG/1.1/DTD/svg11.dtd">
<!-- Generated by graphviz version 2.28.0 (20110507.0327)
 -->
<!-- Title: Encoder::GetDistance Pages: 1 -->
<svg width="404pt" height="66pt"
 viewBox="0.00 0.00 404.00 66.00" xmlns="http://www.w3.org/2000/svg" xmlns:xlink="http://www.w3.org/1999/xlink">
<g id="graph1" class="graph" transform="scale(1 1) rotate(0) translate(4 62)">
<title>Encoder::GetDistance</title>
<polygon fill="white" stroke="white" points="-4,5 -4,-62 401,-62 401,5 -4,5"/>
<!-- Node1 -->
<g id="node1" class="node"><title>Node1</title>
<polygon fill="#bfbfbf" stroke="black" points="0.5,-19.5 0.5,-38.5 113.5,-38.5 113.5,-19.5 0.5,-19.5"/>
<text text-anchor="middle" x="57" y="-26.5" font-family="Helvetica,sans-Serif" font-size="10.00">Encoder::GetDistance</text>
</g>
<!-- Node2 -->
<g id="node3" class="node"><title>Node2</title>
<a xlink:href="class_encoder.html#a08665d9e47c9fa77606dfe8611612e73" target="_top" xlink:title="Encoder::PIDGet">
<polygon fill="white" stroke="black" points="162,-38.5 162,-57.5 252,-57.5 252,-38.5 162,-38.5"/>
<text text-anchor="middle" x="207" y="-45.5" font-family="Helvetica,sans-Serif" font-size="10.00">Encoder::PIDGet</text>
</a>
</g>
<!-- Node1&#45;&gt;Node2 -->
<g id="edge2" class="edge"><title>Node1&#45;&gt;Node2</title>
<path fill="none" stroke="midnightblue" d="M123.733,-37.4387C136.581,-39.0881 149.766,-40.7808 161.713,-42.3145"/>
<polygon fill="midnightblue" stroke="midnightblue" points="123.895,-33.9309 113.531,-36.129 123.004,-40.8739 123.895,-33.9309"/>
</g>
<!-- Node3 -->
<g id="node5" class="node"><title>Node3</title>
<a xlink:href="class_encoder.html#a2f6a1ab80e3590e2687551b22d8669e4" target="_top" xlink:title="Encoder::UpdateTable">
<polygon fill="white" stroke="black" points="150.5,-0.5 150.5,-19.5 263.5,-19.5 263.5,-0.5 150.5,-0.5"/>
<text text-anchor="middle" x="207" y="-7.5" font-family="Helvetica,sans-Serif" font-size="10.00">Encoder::UpdateTable</text>
</a>
</g>
<!-- Node1&#45;&gt;Node3 -->
<g id="edge4" class="edge"><title>Node1&#45;&gt;Node3</title>
<path fill="none" stroke="midnightblue" d="M123.481,-20.5937C132.381,-19.451 141.449,-18.287 150.158,-17.1689"/>
<polygon fill="midnightblue" stroke="midnightblue" points="123.004,-17.1261 113.531,-21.871 123.895,-24.0691 123.004,-17.1261"/>
</g>
<!-- Node4 -->
<g id="node7" class="node"><title>Node4</title>
<a xlink:href="class_encoder.html#a9e1ff7a1231b13de80a6b8ec06cc6886" target="_top" xlink:title="Encoder::InitTable">
<polygon fill="white" stroke="black" points="300.5,-0.5 300.5,-19.5 395.5,-19.5 395.5,-0.5 300.5,-0.5"/>
<text text-anchor="middle" x="348" y="-7.5" font-family="Helvetica,sans-Serif" font-size="10.00">Encoder::InitTable</text>
</a>
</g>
<!-- Node3&#45;&gt;Node4 -->
<g id="edge6" class="edge"><title>Node3&#45;&gt;Node4</title>
<path fill="none" stroke="midnightblue" d="M273.747,-10C282.673,-10 291.683,-10 300.183,-10"/>
<polygon fill="midnightblue" stroke="midnightblue" points="273.736,-6.5001 263.736,-10 273.736,-13.5001 273.736,-6.5001"/>
</g>
</g>
</svg>
