<?xml version="1.0" encoding="UTF-8" standalone="no"?>
<!DOCTYPE svg PUBLIC "-//W3C//DTD SVG 1.1//EN"
 "http://www.w3.org/Graphics/SVG/1.1/DTD/svg11.dtd">
<!-- Generated by graphviz version 2.28.0 (20110507.0327)
 -->
<!-- Title: CanTalonSRX::RequestParam Pages: 1 -->
<svg width="346pt" height="256pt"
 viewBox="0.00 0.00 346.00 256.00" xmlns="http://www.w3.org/2000/svg" xmlns:xlink="http://www.w3.org/1999/xlink">
<g id="graph1" class="graph" transform="scale(1 1) rotate(0) translate(4 252)">
<title>CanTalonSRX::RequestParam</title>
<polygon fill="white" stroke="white" points="-4,5 -4,-252 343,-252 343,5 -4,5"/>
<!-- Node1 -->
<g id="node1" class="node"><title>Node1</title>
<polygon fill="#bfbfbf" stroke="black" points="0,-114.5 0,-133.5 146,-133.5 146,-114.5 0,-114.5"/>
<text text-anchor="middle" x="73" y="-121.5" font-family="Helvetica,sans-Serif" font-size="10.00">CanTalonSRX::RequestParam</text>
</g>
<!-- Node2 -->
<g id="node3" class="node"><title>Node2</title>
<a xlink:href="class_c_a_n_talon.html#a0bd4172195f43f029a60f66a78fb72c9" target="_top" xlink:title="CANTalon::GetP">
<polygon fill="white" stroke="black" points="215.5,-228.5 215.5,-247.5 304.5,-247.5 304.5,-228.5 215.5,-228.5"/>
<text text-anchor="middle" x="260" y="-235.5" font-family="Helvetica,sans-Serif" font-size="10.00">CANTalon::GetP</text>
</a>
</g>
<!-- Node1&#45;&gt;Node2 -->
<g id="edge2" class="edge"><title>Node1&#45;&gt;Node2</title>
<path fill="none" stroke="midnightblue" d="M88.9084,-141.49C108.206,-162.995 143.903,-199.085 182,-219 192.25,-224.358 204.064,-228.246 215.311,-231.051"/>
<polygon fill="midnightblue" stroke="midnightblue" points="91.3534,-138.97 82.1232,-133.769 86.0952,-143.591 91.3534,-138.97"/>
</g>
<!-- Node3 -->
<g id="node5" class="node"><title>Node3</title>
<a xlink:href="class_c_a_n_talon.html#a9a1eafa5b839e9e740079d03f53fae12" target="_top" xlink:title="CANTalon::GetI">
<polygon fill="white" stroke="black" points="218,-190.5 218,-209.5 302,-209.5 302,-190.5 218,-190.5"/>
<text text-anchor="middle" x="260" y="-197.5" font-family="Helvetica,sans-Serif" font-size="10.00">CANTalon::GetI</text>
</a>
</g>
<!-- Node1&#45;&gt;Node3 -->
<g id="edge4" class="edge"><title>Node1&#45;&gt;Node3</title>
<path fill="none" stroke="midnightblue" d="M97.8931,-138.791C119.267,-151.485 151.796,-169.501 182,-181 193.324,-185.311 205.961,-188.904 217.671,-191.762"/>
<polygon fill="midnightblue" stroke="midnightblue" points="99.5526,-135.705 89.1805,-133.543 95.941,-141.701 99.5526,-135.705"/>
</g>
<!-- Node4 -->
<g id="node7" class="node"><title>Node4</title>
<a xlink:href="class_c_a_n_talon.html#af15926c2decc570f373c887e1473baed" target="_top" xlink:title="CANTalon::GetD">
<polygon fill="white" stroke="black" points="215.5,-152.5 215.5,-171.5 304.5,-171.5 304.5,-152.5 215.5,-152.5"/>
<text text-anchor="middle" x="260" y="-159.5" font-family="Helvetica,sans-Serif" font-size="10.00">CANTalon::GetD</text>
</a>
</g>
<!-- Node1&#45;&gt;Node4 -->
<g id="edge6" class="edge"><title>Node1&#45;&gt;Node4</title>
<path fill="none" stroke="midnightblue" d="M130.827,-135.673C157.975,-141.249 189.965,-147.82 215.194,-153.002"/>
<polygon fill="midnightblue" stroke="midnightblue" points="131.183,-132.173 120.683,-133.589 129.775,-139.03 131.183,-132.173"/>
</g>
<!-- Node5 -->
<g id="node9" class="node"><title>Node5</title>
<a xlink:href="class_c_a_n_talon.html#a396471e71c65b3da5e12b91f742340c2" target="_top" xlink:title="CANTalon::GetF">
<polygon fill="white" stroke="black" points="216,-114.5 216,-133.5 304,-133.5 304,-114.5 216,-114.5"/>
<text text-anchor="middle" x="260" y="-121.5" font-family="Helvetica,sans-Serif" font-size="10.00">CANTalon::GetF</text>
</a>
</g>
<!-- Node1&#45;&gt;Node5 -->
<g id="edge8" class="edge"><title>Node1&#45;&gt;Node5</title>
<path fill="none" stroke="midnightblue" d="M156.121,-124C176.777,-124 198.132,-124 215.996,-124"/>
<polygon fill="midnightblue" stroke="midnightblue" points="156.056,-120.5 146.056,-124 156.056,-127.5 156.056,-120.5"/>
</g>
<!-- Node6 -->
<g id="node11" class="node"><title>Node6</title>
<a xlink:href="class_c_a_n_talon.html#a081d7f5f3b2b54659f19ab7612f3a8ee" target="_top" xlink:title="CANTalon::GetIzone">
<polygon fill="white" stroke="black" points="207.5,-76.5 207.5,-95.5 312.5,-95.5 312.5,-76.5 207.5,-76.5"/>
<text text-anchor="middle" x="260" y="-83.5" font-family="Helvetica,sans-Serif" font-size="10.00">CANTalon::GetIzone</text>
</a>
</g>
<!-- Node1&#45;&gt;Node6 -->
<g id="edge10" class="edge"><title>Node1&#45;&gt;Node6</title>
<path fill="none" stroke="midnightblue" d="M130.52,-112.39C156.831,-106.986 187.743,-100.636 212.652,-95.5201"/>
<polygon fill="midnightblue" stroke="midnightblue" points="129.775,-108.97 120.683,-114.411 131.183,-115.827 129.775,-108.97"/>
</g>
<!-- Node7 -->
<g id="node13" class="node"><title>Node7</title>
<a xlink:href="class_c_a_n_talon.html#a7435ca46dcc71a4c424f1480ccc33af8" target="_top" xlink:title="CANTalon::GetFirmwareVersion">
<polygon fill="white" stroke="black" points="182.5,-38.5 182.5,-57.5 337.5,-57.5 337.5,-38.5 182.5,-38.5"/>
<text text-anchor="middle" x="260" y="-45.5" font-family="Helvetica,sans-Serif" font-size="10.00">CANTalon::GetFirmwareVersion</text>
</a>
</g>
<!-- Node1&#45;&gt;Node7 -->
<g id="edge12" class="edge"><title>Node1&#45;&gt;Node7</title>
<path fill="none" stroke="midnightblue" d="M97.8931,-109.209C119.267,-96.5151 151.796,-78.4993 182,-67 191.651,-63.3257 202.256,-60.1736 212.428,-57.553"/>
<polygon fill="midnightblue" stroke="midnightblue" points="95.941,-106.299 89.1805,-114.457 99.5526,-112.295 95.941,-106.299"/>
</g>
<!-- Node8 -->
<g id="node15" class="node"><title>Node8</title>
<a xlink:href="class_c_a_n_talon.html#a4dd3ca7056aadb8821b7367fe80a6126" target="_top" xlink:title="CANTalon::GetIaccum">
<polygon fill="white" stroke="black" points="203.5,-0.5 203.5,-19.5 316.5,-19.5 316.5,-0.5 203.5,-0.5"/>
<text text-anchor="middle" x="260" y="-7.5" font-family="Helvetica,sans-Serif" font-size="10.00">CANTalon::GetIaccum</text>
</a>
</g>
<!-- Node1&#45;&gt;Node8 -->
<g id="edge14" class="edge"><title>Node1&#45;&gt;Node8</title>
<path fill="none" stroke="midnightblue" d="M88.9084,-106.51C108.206,-85.0049 143.903,-48.9153 182,-29 189.443,-25.1089 197.711,-21.9934 205.989,-19.5048"/>
<polygon fill="midnightblue" stroke="midnightblue" points="86.0952,-104.409 82.1232,-114.231 91.3534,-109.03 86.0952,-104.409"/>
</g>
</g>
</svg>
