<?xml version="1.0" encoding="UTF-8" standalone="no"?>
<!DOCTYPE svg PUBLIC "-//W3C//DTD SVG 1.1//EN"
 "http://www.w3.org/Graphics/SVG/1.1/DTD/svg11.dtd">
<!-- Generated by graphviz version 2.28.0 (20110507.0327)
 -->
<!-- Title: DriverStation::GetStickButton Pages: 1 -->
<svg width="590pt" height="66pt"
 viewBox="0.00 0.00 590.00 66.00" xmlns="http://www.w3.org/2000/svg" xmlns:xlink="http://www.w3.org/1999/xlink">
<g id="graph1" class="graph" transform="scale(1 1) rotate(0) translate(4 62)">
<title>DriverStation::GetStickButton</title>
<polygon fill="white" stroke="white" points="-4,5 -4,-62 587,-62 587,5 -4,5"/>
<!-- Node1 -->
<g id="node1" class="node"><title>Node1</title>
<polygon fill="#bfbfbf" stroke="black" points="0,-19.5 0,-38.5 144,-38.5 144,-19.5 0,-19.5"/>
<text text-anchor="middle" x="72" y="-26.5" font-family="Helvetica,sans-Serif" font-size="10.00">DriverStation::GetStickButton</text>
</g>
<!-- Node2 -->
<g id="node3" class="node"><title>Node2</title>
<a xlink:href="class_joystick.html#ab090aadee2aaf077f0674eacdd3dd45e" target="_top" xlink:title="Joystick::GetRawButton">
<polygon fill="white" stroke="black" points="180,-19.5 180,-38.5 302,-38.5 302,-19.5 180,-19.5"/>
<text text-anchor="middle" x="241" y="-26.5" font-family="Helvetica,sans-Serif" font-size="10.00">Joystick::GetRawButton</text>
</a>
</g>
<!-- Node1&#45;&gt;Node2 -->
<g id="edge2" class="edge"><title>Node1&#45;&gt;Node2</title>
<path fill="none" stroke="midnightblue" d="M154.389,-29C163.007,-29 171.655,-29 179.965,-29"/>
<polygon fill="midnightblue" stroke="midnightblue" points="154.307,-25.5001 144.307,-29 154.307,-32.5001 154.307,-25.5001"/>
</g>
<!-- Node3 -->
<g id="node5" class="node"><title>Node3</title>
<a xlink:href="class_joystick.html#a17c9682c8bbfd77d9377d2352fb836dd" target="_top" xlink:title="Joystick::GetTrigger">
<polygon fill="white" stroke="black" points="338,-38.5 338,-57.5 442,-57.5 442,-38.5 338,-38.5"/>
<text text-anchor="middle" x="390" y="-45.5" font-family="Helvetica,sans-Serif" font-size="10.00">Joystick::GetTrigger</text>
</a>
</g>
<!-- Node2&#45;&gt;Node3 -->
<g id="edge4" class="edge"><title>Node2&#45;&gt;Node3</title>
<path fill="none" stroke="midnightblue" d="M312.199,-38.0733C320.751,-39.1787 329.363,-40.2918 337.57,-41.3526"/>
<polygon fill="midnightblue" stroke="midnightblue" points="312.581,-34.5937 302.215,-36.7828 311.683,-41.5359 312.581,-34.5937"/>
</g>
<!-- Node5 -->
<g id="node9" class="node"><title>Node5</title>
<a xlink:href="class_joystick.html#a451c9a35875271e7918af8843e39f3cc" target="_top" xlink:title="Joystick::GetTop">
<polygon fill="white" stroke="black" points="345,-0.5 345,-19.5 435,-19.5 435,-0.5 345,-0.5"/>
<text text-anchor="middle" x="390" y="-7.5" font-family="Helvetica,sans-Serif" font-size="10.00">Joystick::GetTop</text>
</a>
</g>
<!-- Node2&#45;&gt;Node5 -->
<g id="edge8" class="edge"><title>Node2&#45;&gt;Node5</title>
<path fill="none" stroke="midnightblue" d="M312.335,-19.9091C323.415,-18.477 334.592,-17.0324 344.855,-15.7059"/>
<polygon fill="midnightblue" stroke="midnightblue" points="311.683,-16.4641 302.215,-21.2172 312.581,-23.4063 311.683,-16.4641"/>
</g>
<!-- Node4 -->
<g id="node7" class="node"><title>Node4</title>
<a xlink:href="class_joystick.html#ac8cf87154ee2b2241bc6d375dcebd728" target="_top" xlink:title="Joystick::GetButton">
<polygon fill="white" stroke="black" points="478.5,-19.5 478.5,-38.5 581.5,-38.5 581.5,-19.5 478.5,-19.5"/>
<text text-anchor="middle" x="530" y="-26.5" font-family="Helvetica,sans-Serif" font-size="10.00">Joystick::GetButton</text>
</a>
</g>
<!-- Node3&#45;&gt;Node4 -->
<g id="edge6" class="edge"><title>Node3&#45;&gt;Node4</title>
<path fill="none" stroke="midnightblue" d="M452.485,-39.5347C461.179,-38.3377 470.034,-37.1185 478.489,-35.9544"/>
<polygon fill="midnightblue" stroke="midnightblue" points="451.815,-36.0938 442.386,-40.9251 452.77,-43.0284 451.815,-36.0938"/>
</g>
<!-- Node5&#45;&gt;Node4 -->
<g id="edge10" class="edge"><title>Node5&#45;&gt;Node4</title>
<path fill="none" stroke="midnightblue" d="M445.246,-17.4687C456.09,-18.9617 467.443,-20.5248 478.167,-22.0012"/>
<polygon fill="midnightblue" stroke="midnightblue" points="445.427,-13.9607 435.043,-16.064 444.473,-20.8953 445.427,-13.9607"/>
</g>
</g>
</svg>
