<?xml version="1.0" encoding="UTF-8" standalone="no"?>
<!DOCTYPE svg PUBLIC "-//W3C//DTD SVG 1.1//EN"
 "http://www.w3.org/Graphics/SVG/1.1/DTD/svg11.dtd">
<!-- Generated by graphviz version 2.28.0 (20110507.0327)
 -->
<!-- Title: BuiltInAccelerometer Pages: 1 -->
<svg width="302pt" height="222pt"
 viewBox="0.00 0.00 302.00 222.00" xmlns="http://www.w3.org/2000/svg" xmlns:xlink="http://www.w3.org/1999/xlink">
<g id="graph1" class="graph" transform="scale(1 1) rotate(0) translate(4 218)">
<title>BuiltInAccelerometer</title>
<polygon fill="white" stroke="white" points="-4,5 -4,-218 299,-218 299,5 -4,5"/>
<!-- Node1 -->
<g id="node1" class="node"><title>Node1</title>
<polygon fill="#bfbfbf" stroke="black" points="79.5,-0.5 79.5,-19.5 186.5,-19.5 186.5,-0.5 79.5,-0.5"/>
<text text-anchor="middle" x="133" y="-7.5" font-family="Helvetica,sans-Serif" font-size="10.00">BuiltInAccelerometer</text>
</g>
<!-- Node2 -->
<g id="node2" class="node"><title>Node2</title>
<a xlink:href="class_accelerometer.html" target="_top" xlink:title="Accelerometer">
<polygon fill="white" stroke="black" points="0,-58.5 0,-77.5 80,-77.5 80,-58.5 0,-58.5"/>
<text text-anchor="middle" x="40" y="-65.5" font-family="Helvetica,sans-Serif" font-size="10.00">Accelerometer</text>
</a>
</g>
<!-- Node2&#45;&gt;Node1 -->
<g id="edge2" class="edge"><title>Node2&#45;&gt;Node1</title>
<path fill="none" stroke="midnightblue" d="M63.1136,-53.0821C80.5592,-42.5773 103.942,-28.4972 118.742,-19.5852"/>
<polygon fill="midnightblue" stroke="midnightblue" points="60.886,-50.3379 54.1247,-58.4948 64.497,-56.3346 60.886,-50.3379"/>
</g>
<!-- Node3 -->
<g id="node4" class="node"><title>Node3</title>
<a xlink:href="class_sensor_base.html" target="_top" xlink:title="SensorBase">
<polygon fill="white" stroke="black" points="98,-58.5 98,-77.5 168,-77.5 168,-58.5 98,-58.5"/>
<text text-anchor="middle" x="133" y="-65.5" font-family="Helvetica,sans-Serif" font-size="10.00">SensorBase</text>
</a>
</g>
<!-- Node3&#45;&gt;Node1 -->
<g id="edge4" class="edge"><title>Node3&#45;&gt;Node1</title>
<path fill="none" stroke="midnightblue" d="M133,-47.953C133,-38.2875 133,-27.0312 133,-19.5052"/>
<polygon fill="midnightblue" stroke="midnightblue" points="129.5,-48.25 133,-58.25 136.5,-48.25 129.5,-48.25"/>
</g>
<!-- Node4 -->
<g id="node6" class="node"><title>Node4</title>
<a xlink:href="class_error_base.html" target="_top" xlink:title="ErrorBase">
<polygon fill="white" stroke="black" points="103,-116.5 103,-135.5 163,-135.5 163,-116.5 103,-116.5"/>
<text text-anchor="middle" x="133" y="-123.5" font-family="Helvetica,sans-Serif" font-size="10.00">ErrorBase</text>
</a>
</g>
<!-- Node4&#45;&gt;Node3 -->
<g id="edge6" class="edge"><title>Node4&#45;&gt;Node3</title>
<path fill="none" stroke="midnightblue" d="M133,-105.953C133,-96.2875 133,-85.0312 133,-77.5052"/>
<polygon fill="midnightblue" stroke="midnightblue" points="129.5,-106.25 133,-116.25 136.5,-106.25 129.5,-106.25"/>
</g>
<!-- Node5 -->
<g id="node8" class="node"><title>Node5</title>
<a xlink:href="class_error.html" target="_top" xlink:title="Error">
<polygon fill="white" stroke="black" points="114,-194.5 114,-213.5 152,-213.5 152,-194.5 114,-194.5"/>
<text text-anchor="middle" x="133" y="-201.5" font-family="Helvetica,sans-Serif" font-size="10.00">Error</text>
</a>
</g>
<!-- Node5&#45;&gt;Node4 -->
<g id="edge8" class="edge"><title>Node5&#45;&gt;Node4</title>
<path fill="none" stroke="#9a32cd" stroke-dasharray="5,2" d="M133,-184.224C133,-168.697 133,-147.358 133,-135.616"/>
<polygon fill="#9a32cd" stroke="#9a32cd" points="129.5,-184.282 133,-194.282 136.5,-184.282 129.5,-184.282"/>
<text text-anchor="middle" x="160.5" y="-168" font-family="Helvetica,sans-Serif" font-size="10.00"> _globalError</text>
<text text-anchor="middle" x="160.5" y="-157" font-family="Helvetica,sans-Serif" font-size="10.00">m_error</text>
</g>
<!-- Node6 -->
<g id="node10" class="node"><title>Node6</title>
<a xlink:href="class_live_window_sendable.html" target="_top" xlink:title="LiveWindowSendable">
<polygon fill="white" stroke="black" points="186,-58.5 186,-77.5 294,-77.5 294,-58.5 186,-58.5"/>
<text text-anchor="middle" x="240" y="-65.5" font-family="Helvetica,sans-Serif" font-size="10.00">LiveWindowSendable</text>
</a>
</g>
<!-- Node6&#45;&gt;Node1 -->
<g id="edge10" class="edge"><title>Node6&#45;&gt;Node1</title>
<path fill="none" stroke="midnightblue" d="M214.79,-53.8058C194.586,-43.2319 166.826,-28.7035 149.404,-19.5852"/>
<polygon fill="midnightblue" stroke="midnightblue" points="213.266,-56.9588 223.749,-58.4948 216.512,-50.7568 213.266,-56.9588"/>
</g>
<!-- Node7 -->
<g id="node12" class="node"><title>Node7</title>
<a xlink:href="class_sendable.html" target="_top" xlink:title="Sendable">
<polygon fill="white" stroke="black" points="211.5,-116.5 211.5,-135.5 268.5,-135.5 268.5,-116.5 211.5,-116.5"/>
<text text-anchor="middle" x="240" y="-123.5" font-family="Helvetica,sans-Serif" font-size="10.00">Sendable</text>
</a>
</g>
<!-- Node7&#45;&gt;Node6 -->
<g id="edge12" class="edge"><title>Node7&#45;&gt;Node6</title>
<path fill="none" stroke="midnightblue" d="M240,-105.953C240,-96.2875 240,-85.0312 240,-77.5052"/>
<polygon fill="midnightblue" stroke="midnightblue" points="236.5,-106.25 240,-116.25 243.5,-106.25 236.5,-106.25"/>
</g>
</g>
</svg>
