<?xml version="1.0" encoding="UTF-8" standalone="no"?>
<!DOCTYPE svg PUBLIC "-//W3C//DTD SVG 1.1//EN"
 "http://www.w3.org/Graphics/SVG/1.1/DTD/svg11.dtd">
<!-- Generated by graphviz version 2.28.0 (20110507.0327)
 -->
<!-- Title: CANTalon::PIDWrite Pages: 1 -->
<svg width="740pt" height="66pt"
 viewBox="0.00 0.00 740.00 66.00" xmlns="http://www.w3.org/2000/svg" xmlns:xlink="http://www.w3.org/1999/xlink">
<g id="graph1" class="graph" transform="scale(1 1) rotate(0) translate(4 62)">
<title>CANTalon::PIDWrite</title>
<polygon fill="white" stroke="white" points="-4,5 -4,-62 737,-62 737,5 -4,5"/>
<!-- Node1 -->
<g id="node1" class="node"><title>Node1</title>
<polygon fill="#bfbfbf" stroke="black" points="0.5,-19.5 0.5,-38.5 105.5,-38.5 105.5,-19.5 0.5,-19.5"/>
<text text-anchor="middle" x="53" y="-26.5" font-family="Helvetica,sans-Serif" font-size="10.00">CANTalon::PIDWrite</text>
</g>
<!-- Node2 -->
<g id="node3" class="node"><title>Node2</title>
<a xlink:href="class_c_a_n_talon.html#a22900cb002994cab73cd65eee16da130" target="_top" xlink:title="CANTalon::GetControlMode">
<polygon fill="white" stroke="black" points="142.5,-38.5 142.5,-57.5 279.5,-57.5 279.5,-38.5 142.5,-38.5"/>
<text text-anchor="middle" x="211" y="-45.5" font-family="Helvetica,sans-Serif" font-size="10.00">CANTalon::GetControlMode</text>
</a>
</g>
<!-- Node1&#45;&gt;Node2 -->
<g id="edge2" class="edge"><title>Node1&#45;&gt;Node2</title>
<path fill="none" stroke="midnightblue" d="M105.513,-35.274C114.089,-36.3185 123.149,-37.422 132.206,-38.5252"/>
<polygon fill="midnightblue" stroke="midnightblue" points="132.055,-42.0325 142.405,-39.7672 132.901,-35.0838 132.055,-42.0325"/>
</g>
<!-- Node3 -->
<g id="node5" class="node"><title>Node3</title>
<a xlink:href="class_c_a_n_talon.html#ac3549186d2e6fdeeaabbd1648f31e02c" target="_top" xlink:title="CANTalon::Set">
<polygon fill="white" stroke="black" points="170.5,-0.5 170.5,-19.5 251.5,-19.5 251.5,-0.5 170.5,-0.5"/>
<text text-anchor="middle" x="211" y="-7.5" font-family="Helvetica,sans-Serif" font-size="10.00">CANTalon::Set</text>
</a>
</g>
<!-- Node1&#45;&gt;Node3 -->
<g id="edge4" class="edge"><title>Node1&#45;&gt;Node3</title>
<path fill="none" stroke="midnightblue" d="M105.513,-22.726C123.169,-20.5755 142.881,-18.1747 160.385,-16.0429"/>
<polygon fill="midnightblue" stroke="midnightblue" points="160.9,-19.5061 170.403,-14.8227 160.053,-12.5575 160.9,-19.5061"/>
</g>
<!-- Node4 -->
<g id="node7" class="node"><title>Node4</title>
<a xlink:href="class_motor_safety_helper.html#a67b80e9817dc725e0678de5e8f0bb39e" target="_top" xlink:title="MotorSafetyHelper::Feed">
<polygon fill="white" stroke="black" points="316.5,-0.5 316.5,-19.5 441.5,-19.5 441.5,-0.5 316.5,-0.5"/>
<text text-anchor="middle" x="379" y="-7.5" font-family="Helvetica,sans-Serif" font-size="10.00">MotorSafetyHelper::Feed</text>
</a>
</g>
<!-- Node3&#45;&gt;Node4 -->
<g id="edge6" class="edge"><title>Node3&#45;&gt;Node4</title>
<path fill="none" stroke="midnightblue" d="M251.761,-10C268.028,-10 287.369,-10 305.963,-10"/>
<polygon fill="midnightblue" stroke="midnightblue" points="306.192,-13.5001 316.192,-10 306.192,-6.5001 306.192,-13.5001"/>
</g>
<!-- Node5 -->
<g id="node9" class="node"><title>Node5</title>
<a xlink:href="class_timer.html#a7fa6e6dffec055e5104ccd6bcadec9aa" target="_top" xlink:title="Timer::GetFPGATimestamp">
<polygon fill="white" stroke="black" points="478.5,-0.5 478.5,-19.5 615.5,-19.5 615.5,-0.5 478.5,-0.5"/>
<text text-anchor="middle" x="547" y="-7.5" font-family="Helvetica,sans-Serif" font-size="10.00">Timer::GetFPGATimestamp</text>
</a>
</g>
<!-- Node4&#45;&gt;Node5 -->
<g id="edge8" class="edge"><title>Node4&#45;&gt;Node5</title>
<path fill="none" stroke="midnightblue" d="M441.812,-10C450.359,-10 459.227,-10 468.02,-10"/>
<polygon fill="midnightblue" stroke="midnightblue" points="468.283,-13.5001 478.283,-10 468.283,-6.5001 468.283,-13.5001"/>
</g>
<!-- Node6 -->
<g id="node11" class="node"><title>Node6</title>
<a xlink:href="_utility_8h.html#ababf055d95368485d48bd9a0231853f3" target="_top" xlink:title="GetFPGATime">
<polygon fill="white" stroke="black" points="652,-0.5 652,-19.5 732,-19.5 732,-0.5 652,-0.5"/>
<text text-anchor="middle" x="692" y="-7.5" font-family="Helvetica,sans-Serif" font-size="10.00">GetFPGATime</text>
</a>
</g>
<!-- Node5&#45;&gt;Node6 -->
<g id="edge10" class="edge"><title>Node5&#45;&gt;Node6</title>
<path fill="none" stroke="midnightblue" d="M615.731,-10C624.558,-10 633.463,-10 641.904,-10"/>
<polygon fill="midnightblue" stroke="midnightblue" points="641.934,-13.5001 651.933,-10 641.933,-6.5001 641.934,-13.5001"/>
</g>
</g>
</svg>
