<?xml version="1.0" encoding="UTF-8" standalone="no"?>
<!DOCTYPE svg PUBLIC "-//W3C//DTD SVG 1.1//EN"
 "http://www.w3.org/Graphics/SVG/1.1/DTD/svg11.dtd">
<!-- Generated by graphviz version 2.28.0 (20110507.0327)
 -->
<!-- Title: RobotDrive::SetLeftRightMotorOutputs Pages: 1 -->
<svg width="608pt" height="142pt"
 viewBox="0.00 0.00 608.00 142.00" xmlns="http://www.w3.org/2000/svg" xmlns:xlink="http://www.w3.org/1999/xlink">
<g id="graph1" class="graph" transform="scale(1 1) rotate(0) translate(4 138)">
<title>RobotDrive::SetLeftRightMotorOutputs</title>
<polygon fill="white" stroke="white" points="-4,5 -4,-138 605,-138 605,5 -4,5"/>
<!-- Node1 -->
<g id="node1" class="node"><title>Node1</title>
<polygon fill="#bfbfbf" stroke="black" points="0,-52 0,-82 122,-82 122,-52 0,-52"/>
<text text-anchor="start" x="8" y="-70" font-family="Helvetica,sans-Serif" font-size="10.00">RobotDrive::SetLeftRight</text>
<text text-anchor="middle" x="61" y="-59" font-family="Helvetica,sans-Serif" font-size="10.00">MotorOutputs</text>
</g>
<!-- Node2 -->
<g id="node3" class="node"><title>Node2</title>
<a xlink:href="class_speed_controller.html#adc3d0010c1c684979261b98d438f8db5" target="_top" xlink:title="SpeedController::Set">
<polygon fill="white" stroke="black" points="180.5,-114.5 180.5,-133.5 287.5,-133.5 287.5,-114.5 180.5,-114.5"/>
<text text-anchor="middle" x="234" y="-121.5" font-family="Helvetica,sans-Serif" font-size="10.00">SpeedController::Set</text>
</a>
</g>
<!-- Node1&#45;&gt;Node2 -->
<g id="edge2" class="edge"><title>Node1&#45;&gt;Node2</title>
<path fill="none" stroke="midnightblue" d="M97.1643,-82.1797C115.159,-89.6239 137.532,-98.3868 158,-105 165.549,-107.439 173.607,-109.764 181.537,-111.898"/>
<polygon fill="midnightblue" stroke="midnightblue" points="180.906,-115.35 191.466,-114.492 182.675,-108.578 180.906,-115.35"/>
</g>
<!-- Node3 -->
<g id="node5" class="node"><title>Node3</title>
<a xlink:href="class_robot_drive.html#aa7d99fd794c6f8c0b5486603f508a3a7" target="_top" xlink:title="RobotDrive::Limit">
<polygon fill="white" stroke="black" points="189,-76.5 189,-95.5 279,-95.5 279,-76.5 189,-76.5"/>
<text text-anchor="middle" x="234" y="-83.5" font-family="Helvetica,sans-Serif" font-size="10.00">RobotDrive::Limit</text>
</a>
</g>
<!-- Node1&#45;&gt;Node3 -->
<g id="edge4" class="edge"><title>Node1&#45;&gt;Node3</title>
<path fill="none" stroke="midnightblue" d="M122.288,-73.6987C140.701,-75.7445 160.826,-77.9807 178.808,-79.9787"/>
<polygon fill="midnightblue" stroke="midnightblue" points="178.509,-83.4669 188.835,-81.0927 179.282,-76.5098 178.509,-83.4669"/>
</g>
<!-- Node4 -->
<g id="node7" class="node"><title>Node4</title>
<a xlink:href="class_c_a_n_jaguar.html#a225e0588b0955681a24da6ab0d2c8bc0" target="_top" xlink:title="CANJaguar::UpdateSyncGroup">
<polygon fill="white" stroke="black" points="158.5,-38.5 158.5,-57.5 309.5,-57.5 309.5,-38.5 158.5,-38.5"/>
<text text-anchor="middle" x="234" y="-45.5" font-family="Helvetica,sans-Serif" font-size="10.00">CANJaguar::UpdateSyncGroup</text>
</a>
</g>
<!-- Node1&#45;&gt;Node4 -->
<g id="edge6" class="edge"><title>Node1&#45;&gt;Node4</title>
<path fill="none" stroke="midnightblue" d="M122.288,-60.3013C130.651,-59.3721 139.367,-58.4037 148.075,-57.4361"/>
<polygon fill="midnightblue" stroke="midnightblue" points="148.72,-60.8861 158.272,-56.3031 147.947,-53.9289 148.72,-60.8861"/>
</g>
<!-- Node5 -->
<g id="node9" class="node"><title>Node5</title>
<a xlink:href="class_motor_safety_helper.html#a67b80e9817dc725e0678de5e8f0bb39e" target="_top" xlink:title="MotorSafetyHelper::Feed">
<polygon fill="white" stroke="black" points="171.5,-0.5 171.5,-19.5 296.5,-19.5 296.5,-0.5 171.5,-0.5"/>
<text text-anchor="middle" x="234" y="-7.5" font-family="Helvetica,sans-Serif" font-size="10.00">MotorSafetyHelper::Feed</text>
</a>
</g>
<!-- Node1&#45;&gt;Node5 -->
<g id="edge8" class="edge"><title>Node1&#45;&gt;Node5</title>
<path fill="none" stroke="midnightblue" d="M97.1643,-51.8203C115.159,-44.3761 137.532,-35.6132 158,-29 165.549,-26.5609 173.607,-24.2359 181.537,-22.1022"/>
<polygon fill="midnightblue" stroke="midnightblue" points="182.675,-25.4224 191.466,-19.5077 180.906,-18.6498 182.675,-25.4224"/>
</g>
<!-- Node6 -->
<g id="node11" class="node"><title>Node6</title>
<a xlink:href="class_timer.html#a7fa6e6dffec055e5104ccd6bcadec9aa" target="_top" xlink:title="Timer::GetFPGATimestamp">
<polygon fill="white" stroke="black" points="346.5,-0.5 346.5,-19.5 483.5,-19.5 483.5,-0.5 346.5,-0.5"/>
<text text-anchor="middle" x="415" y="-7.5" font-family="Helvetica,sans-Serif" font-size="10.00">Timer::GetFPGATimestamp</text>
</a>
</g>
<!-- Node5&#45;&gt;Node6 -->
<g id="edge10" class="edge"><title>Node5&#45;&gt;Node6</title>
<path fill="none" stroke="midnightblue" d="M296.602,-10C309.415,-10 323.076,-10 336.381,-10"/>
<polygon fill="midnightblue" stroke="midnightblue" points="336.465,-13.5001 346.465,-10 336.465,-6.5001 336.465,-13.5001"/>
</g>
<!-- Node7 -->
<g id="node13" class="node"><title>Node7</title>
<a xlink:href="_utility_8h.html#ababf055d95368485d48bd9a0231853f3" target="_top" xlink:title="GetFPGATime">
<polygon fill="white" stroke="black" points="520,-0.5 520,-19.5 600,-19.5 600,-0.5 520,-0.5"/>
<text text-anchor="middle" x="560" y="-7.5" font-family="Helvetica,sans-Serif" font-size="10.00">GetFPGATime</text>
</a>
</g>
<!-- Node6&#45;&gt;Node7 -->
<g id="edge12" class="edge"><title>Node6&#45;&gt;Node7</title>
<path fill="none" stroke="midnightblue" d="M483.731,-10C492.558,-10 501.463,-10 509.904,-10"/>
<polygon fill="midnightblue" stroke="midnightblue" points="509.934,-13.5001 519.933,-10 509.933,-6.5001 509.934,-13.5001"/>
</g>
</g>
</svg>
