<?xml version="1.0" encoding="UTF-8" standalone="no"?>
<!DOCTYPE svg PUBLIC "-//W3C//DTD SVG 1.1//EN"
 "http://www.w3.org/Graphics/SVG/1.1/DTD/svg11.dtd">
<!-- Generated by graphviz version 2.28.0 (20110507.0327)
 -->
<!-- Title: CANJaguar::sendMessage Pages: 1 -->
<svg width="886pt" height="1256pt"
 viewBox="0.00 0.00 886.00 1255.67" xmlns="http://www.w3.org/2000/svg" xmlns:xlink="http://www.w3.org/1999/xlink">
<g id="graph1" class="graph" transform="scale(1 1) rotate(0) translate(4 1251.67)">
<title>CANJaguar::sendMessage</title>
<polygon fill="white" stroke="white" points="-4,5 -4,-1251.67 883,-1251.67 883,5 -4,5"/>
<!-- Node1 -->
<g id="node1" class="node"><title>Node1</title>
<polygon fill="#bfbfbf" stroke="black" points="0,-814.5 0,-833.5 132,-833.5 132,-814.5 0,-814.5"/>
<text text-anchor="middle" x="66" y="-821.5" font-family="Helvetica,sans-Serif" font-size="10.00">CANJaguar::sendMessage</text>
</g>
<!-- Node2 -->
<g id="node3" class="node"><title>Node2</title>
<a xlink:href="class_c_a_n_jaguar.html#a3a22b02ece406993619f993b1e09012a" target="_top" xlink:title="CANJaguar::Set">
<polygon fill="white" stroke="black" points="592,-1016.5 592,-1035.5 678,-1035.5 678,-1016.5 592,-1016.5"/>
<text text-anchor="middle" x="635" y="-1023.5" font-family="Helvetica,sans-Serif" font-size="10.00">CANJaguar::Set</text>
</a>
</g>
<!-- Node1&#45;&gt;Node2 -->
<g id="edge2" class="edge"><title>Node1&#45;&gt;Node2</title>
<path fill="none" stroke="midnightblue" d="M69.5085,-843.929C78.6344,-912.898 112.476,-1139.54 168,-1182 294.392,-1278.66 385.281,-1258.26 526,-1184 588.003,-1151.28 621.166,-1065.16 630.909,-1035.9"/>
<polygon fill="midnightblue" stroke="midnightblue" points="72.9275,-843.076 68.1734,-833.608 65.9853,-843.974 72.9275,-843.076"/>
</g>
<!-- Node5 -->
<g id="node9" class="node"><title>Node5</title>
<a xlink:href="class_c_a_n_jaguar.html#a1515a39fbac1a3b7e9e8cc79fe2233ec" target="_top" xlink:title="CANJaguar::setupPeriodic\lStatus">
<polygon fill="white" stroke="black" points="185.5,-891 185.5,-921 316.5,-921 316.5,-891 185.5,-891"/>
<text text-anchor="start" x="193.5" y="-909" font-family="Helvetica,sans-Serif" font-size="10.00">CANJaguar::setupPeriodic</text>
<text text-anchor="middle" x="251" y="-898" font-family="Helvetica,sans-Serif" font-size="10.00">Status</text>
</a>
</g>
<!-- Node1&#45;&gt;Node5 -->
<g id="edge8" class="edge"><title>Node1&#45;&gt;Node5</title>
<path fill="none" stroke="midnightblue" d="M90.2462,-839.053C110.252,-851.53 140.201,-869.087 168,-881 176.482,-884.635 185.664,-887.975 194.712,-890.951"/>
<polygon fill="midnightblue" stroke="midnightblue" points="91.861,-835.934 81.5376,-833.551 88.1217,-841.851 91.861,-835.934"/>
</g>
<!-- Node6 -->
<g id="node11" class="node"><title>Node6</title>
<a xlink:href="class_c_a_n_jaguar.html#a97fe9cb246f90060495c808e31070650" target="_top" xlink:title="CANJaguar::verify">
<polygon fill="white" stroke="black" points="401.5,-874.5 401.5,-893.5 494.5,-893.5 494.5,-874.5 401.5,-874.5"/>
<text text-anchor="middle" x="448" y="-881.5" font-family="Helvetica,sans-Serif" font-size="10.00">CANJaguar::verify</text>
</a>
</g>
<!-- Node1&#45;&gt;Node6 -->
<g id="edge14" class="edge"><title>Node1&#45;&gt;Node6</title>
<path fill="none" stroke="midnightblue" d="M77.7703,-842.464C93.7425,-867.781 126.356,-912.159 168,-930 260.279,-969.535 383.165,-916.553 428.873,-893.636"/>
<polygon fill="midnightblue" stroke="midnightblue" points="80.6747,-840.504 72.4794,-833.79 74.6986,-844.149 80.6747,-840.504"/>
</g>
<!-- Node7 -->
<g id="node15" class="node"><title>Node7</title>
<a xlink:href="class_c_a_n_jaguar.html#ac6780a940570ec0386d234b309fb260d" target="_top" xlink:title="CANJaguar::SetSpeedReference">
<polygon fill="white" stroke="black" points="172,-612.5 172,-631.5 330,-631.5 330,-612.5 172,-612.5"/>
<text text-anchor="middle" x="251" y="-619.5" font-family="Helvetica,sans-Serif" font-size="10.00">CANJaguar::SetSpeedReference</text>
</a>
</g>
<!-- Node1&#45;&gt;Node7 -->
<g id="edge16" class="edge"><title>Node1&#45;&gt;Node7</title>
<path fill="none" stroke="midnightblue" d="M72.0422,-804.386C82.8324,-766.534 111.872,-683.412 168,-641 173.13,-637.124 178.919,-634.019 184.989,-631.534"/>
<polygon fill="midnightblue" stroke="midnightblue" points="68.6231,-803.621 69.3717,-814.189 75.377,-805.461 68.6231,-803.621"/>
</g>
<!-- Node13 -->
<g id="node28" class="node"><title>Node13</title>
<a xlink:href="class_c_a_n_jaguar.html#a4ea009bbaaa337eeb10efba61203ee38" target="_top" xlink:title="CANJaguar::SetPositionReference">
<polygon fill="white" stroke="black" points="168.5,-574.5 168.5,-593.5 333.5,-593.5 333.5,-574.5 168.5,-574.5"/>
<text text-anchor="middle" x="251" y="-581.5" font-family="Helvetica,sans-Serif" font-size="10.00">CANJaguar::SetPositionReference</text>
</a>
</g>
<!-- Node1&#45;&gt;Node13 -->
<g id="edge30" class="edge"><title>Node1&#45;&gt;Node13</title>
<path fill="none" stroke="midnightblue" d="M70.0484,-804.317C77.861,-760.843 102.78,-656.272 168,-603 172.64,-599.21 177.897,-596.146 183.455,-593.674"/>
<polygon fill="midnightblue" stroke="midnightblue" points="66.5922,-803.765 68.3818,-814.207 73.4949,-804.928 66.5922,-803.765"/>
</g>
<!-- Node15 -->
<g id="node37" class="node"><title>Node15</title>
<a xlink:href="class_c_a_n_jaguar.html#a22a1787a38fd35abc2cdf15bb7d81da5" target="_top" xlink:title="CANJaguar::SetP">
<polygon fill="white" stroke="black" points="204.5,-650.5 204.5,-669.5 297.5,-669.5 297.5,-650.5 204.5,-650.5"/>
<text text-anchor="middle" x="251" y="-657.5" font-family="Helvetica,sans-Serif" font-size="10.00">CANJaguar::SetP</text>
</a>
</g>
<!-- Node1&#45;&gt;Node15 -->
<g id="edge44" class="edge"><title>Node1&#45;&gt;Node15</title>
<path fill="none" stroke="midnightblue" d="M74.7303,-805.022C88.5405,-773.621 120.523,-711.136 168,-679 178.649,-671.792 191.667,-667.294 204.166,-664.495"/>
<polygon fill="midnightblue" stroke="midnightblue" points="71.4389,-803.819 70.7474,-814.391 77.8809,-806.558 71.4389,-803.819"/>
</g>
<!-- Node17 -->
<g id="node45" class="node"><title>Node17</title>
<a xlink:href="class_c_a_n_jaguar.html#a99abdf41fc6ce39d51f0c9d2fbbcfcb0" target="_top" xlink:title="CANJaguar::SetI">
<polygon fill="white" stroke="black" points="206.5,-726.5 206.5,-745.5 295.5,-745.5 295.5,-726.5 206.5,-726.5"/>
<text text-anchor="middle" x="251" y="-733.5" font-family="Helvetica,sans-Serif" font-size="10.00">CANJaguar::SetI</text>
</a>
</g>
<!-- Node1&#45;&gt;Node17 -->
<g id="edge56" class="edge"><title>Node1&#45;&gt;Node17</title>
<path fill="none" stroke="midnightblue" d="M85.7288,-808.011C105.1,-792.276 136.832,-768.677 168,-755 180.043,-749.715 193.754,-745.798 206.47,-742.94"/>
<polygon fill="midnightblue" stroke="midnightblue" points="83.4548,-805.35 77.9829,-814.422 87.9181,-810.742 83.4548,-805.35"/>
</g>
<!-- Node18 -->
<g id="node49" class="node"><title>Node18</title>
<a xlink:href="class_c_a_n_jaguar.html#a5c5228b40626981bcb5009044edc28d7" target="_top" xlink:title="CANJaguar::SetD">
<polygon fill="white" stroke="black" points="204.5,-688.5 204.5,-707.5 297.5,-707.5 297.5,-688.5 204.5,-688.5"/>
<text text-anchor="middle" x="251" y="-695.5" font-family="Helvetica,sans-Serif" font-size="10.00">CANJaguar::SetD</text>
</a>
</g>
<!-- Node1&#45;&gt;Node18 -->
<g id="edge62" class="edge"><title>Node1&#45;&gt;Node18</title>
<path fill="none" stroke="midnightblue" d="M78.8697,-805.927C95.7179,-781.779 128.904,-739.435 168,-717 179.027,-710.672 192.03,-706.451 204.391,-703.635"/>
<polygon fill="midnightblue" stroke="midnightblue" points="75.9648,-803.974 73.2342,-814.211 81.7527,-807.912 75.9648,-803.974"/>
</g>
<!-- Node19 -->
<g id="node53" class="node"><title>Node19</title>
<a xlink:href="class_c_a_n_jaguar.html#af25bed87c7d97429b0472b52f92b186e" target="_top" xlink:title="CANJaguar::EnableControl">
<polygon fill="white" stroke="black" points="185,-1016.5 185,-1035.5 317,-1035.5 317,-1016.5 185,-1016.5"/>
<text text-anchor="middle" x="251" y="-1023.5" font-family="Helvetica,sans-Serif" font-size="10.00">CANJaguar::EnableControl</text>
</a>
</g>
<!-- Node1&#45;&gt;Node19 -->
<g id="edge68" class="edge"><title>Node1&#45;&gt;Node19</title>
<path fill="none" stroke="midnightblue" d="M72.0422,-843.614C82.8324,-881.466 111.872,-964.588 168,-1007 173.13,-1010.88 178.919,-1013.98 184.989,-1016.47"/>
<polygon fill="midnightblue" stroke="midnightblue" points="75.377,-842.539 69.3717,-833.811 68.6231,-844.379 75.377,-842.539"/>
</g>
<!-- Node20 -->
<g id="node57" class="node"><title>Node20</title>
<a xlink:href="class_c_a_n_jaguar.html#a6bbbf784a74cf95f7b4a5660a3d53cc2" target="_top" xlink:title="CANJaguar::DisableControl">
<polygon fill="white" stroke="black" points="184,-73.5 184,-92.5 318,-92.5 318,-73.5 184,-73.5"/>
<text text-anchor="middle" x="251" y="-80.5" font-family="Helvetica,sans-Serif" font-size="10.00">CANJaguar::DisableControl</text>
</a>
</g>
<!-- Node1&#45;&gt;Node20 -->
<g id="edge74" class="edge"><title>Node1&#45;&gt;Node20</title>
<path fill="none" stroke="midnightblue" d="M68.1902,-804.125C74.339,-705.949 104.69,-272.794 168,-156 183.441,-127.514 214.535,-104.669 233.683,-92.5355"/>
<polygon fill="midnightblue" stroke="midnightblue" points="64.6929,-803.975 67.5731,-814.171 71.6797,-804.405 64.6929,-803.975"/>
</g>
<!-- Node24 -->
<g id="node70" class="node"><title>Node24</title>
<a xlink:href="class_c_a_n_jaguar.html#aa9b1c6a444e51e830812fd4484964388" target="_top" xlink:title="CANJaguar::SetVoltageRampRate">
<polygon fill="white" stroke="black" points="168.5,-852.5 168.5,-871.5 333.5,-871.5 333.5,-852.5 168.5,-852.5"/>
<text text-anchor="middle" x="251" y="-859.5" font-family="Helvetica,sans-Serif" font-size="10.00">CANJaguar::SetVoltageRampRate</text>
</a>
</g>
<!-- Node1&#45;&gt;Node24 -->
<g id="edge92" class="edge"><title>Node1&#45;&gt;Node24</title>
<path fill="none" stroke="midnightblue" d="M123.253,-835.681C149.205,-841.07 179.622,-847.386 204.153,-852.48"/>
<polygon fill="midnightblue" stroke="midnightblue" points="123.681,-832.195 113.179,-833.589 122.258,-839.049 123.681,-832.195"/>
</g>
<!-- Node25 -->
<g id="node73" class="node"><title>Node25</title>
<a xlink:href="class_c_a_n_jaguar.html#a66762a840c7c030b74b60652bcb4004f" target="_top" xlink:title="CANJaguar::ConfigNeutralMode">
<polygon fill="white" stroke="black" points="174.5,-814.5 174.5,-833.5 327.5,-833.5 327.5,-814.5 174.5,-814.5"/>
<text text-anchor="middle" x="251" y="-821.5" font-family="Helvetica,sans-Serif" font-size="10.00">CANJaguar::ConfigNeutralMode</text>
</a>
</g>
<!-- Node1&#45;&gt;Node25 -->
<g id="edge96" class="edge"><title>Node1&#45;&gt;Node25</title>
<path fill="none" stroke="midnightblue" d="M142.094,-824C152.704,-824 163.617,-824 174.24,-824"/>
<polygon fill="midnightblue" stroke="midnightblue" points="142.034,-820.5 132.034,-824 142.034,-827.5 142.034,-820.5"/>
</g>
<!-- Node26 -->
<g id="node76" class="node"><title>Node26</title>
<a xlink:href="class_c_a_n_jaguar.html#a24bce09f963f2f7f0c38000197551e2d" target="_top" xlink:title="CANJaguar::ConfigEncoder\lCodesPerRev">
<polygon fill="white" stroke="black" points="184,-413 184,-443 318,-443 318,-413 184,-413"/>
<text text-anchor="start" x="192" y="-431" font-family="Helvetica,sans-Serif" font-size="10.00">CANJaguar::ConfigEncoder</text>
<text text-anchor="middle" x="251" y="-420" font-family="Helvetica,sans-Serif" font-size="10.00">CodesPerRev</text>
</a>
</g>
<!-- Node1&#45;&gt;Node26 -->
<g id="edge100" class="edge"><title>Node1&#45;&gt;Node26</title>
<path fill="none" stroke="midnightblue" d="M73.2776,-804.716C87.756,-761.055 125.52,-651.702 168,-565 190.563,-518.949 223.339,-467.91 239.783,-443.142"/>
<polygon fill="midnightblue" stroke="midnightblue" points="69.9096,-803.754 70.1096,-814.347 76.5591,-805.941 69.9096,-803.754"/>
</g>
<!-- Node30 -->
<g id="node87" class="node"><title>Node30</title>
<a xlink:href="class_c_a_n_jaguar.html#aefcfcbee61541f69cae47ea1ef405f17" target="_top" xlink:title="CANJaguar::ConfigPotentiometer\lTurns">
<polygon fill="white" stroke="black" points="171.5,-166 171.5,-196 330.5,-196 330.5,-166 171.5,-166"/>
<text text-anchor="start" x="179.5" y="-184" font-family="Helvetica,sans-Serif" font-size="10.00">CANJaguar::ConfigPotentiometer</text>
<text text-anchor="middle" x="251" y="-173" font-family="Helvetica,sans-Serif" font-size="10.00">Turns</text>
</a>
</g>
<!-- Node1&#45;&gt;Node30 -->
<g id="edge114" class="edge"><title>Node1&#45;&gt;Node30</title>
<path fill="none" stroke="midnightblue" d="M70.8504,-804.347C82.8847,-743.861 121.76,-555.371 168,-403 192.042,-323.778 229.039,-231.731 243.702,-196.129"/>
<polygon fill="midnightblue" stroke="midnightblue" points="67.3684,-803.914 68.8633,-814.403 74.2356,-805.271 67.3684,-803.914"/>
</g>
<!-- Node35 -->
<g id="node98" class="node"><title>Node35</title>
<a xlink:href="class_c_a_n_jaguar.html#aeb878aff41701ed6d2bb0732a0beb07a" target="_top" xlink:title="CANJaguar::ConfigLimitMode">
<polygon fill="white" stroke="black" points="179.5,-1153.5 179.5,-1172.5 322.5,-1172.5 322.5,-1153.5 179.5,-1153.5"/>
<text text-anchor="middle" x="251" y="-1160.5" font-family="Helvetica,sans-Serif" font-size="10.00">CANJaguar::ConfigLimitMode</text>
</a>
</g>
<!-- Node1&#45;&gt;Node35 -->
<g id="edge126" class="edge"><title>Node1&#45;&gt;Node35</title>
<path fill="none" stroke="midnightblue" d="M66.9923,-843.825C68.1007,-899.745 79.2524,-1060.04 168,-1143 172.603,-1147.3 177.973,-1150.72 183.723,-1153.44"/>
<polygon fill="midnightblue" stroke="midnightblue" points="70.4892,-843.504 66.8839,-833.542 63.4896,-843.578 70.4892,-843.504"/>
</g>
<!-- Node38 -->
<g id="node105" class="node"><title>Node38</title>
<a xlink:href="class_c_a_n_jaguar.html#a99204e2c841e2088d5b42dff35a8212e" target="_top" xlink:title="CANJaguar::ConfigForward\lLimit">
<polygon fill="white" stroke="black" points="184.5,-1104 184.5,-1134 317.5,-1134 317.5,-1104 184.5,-1104"/>
<text text-anchor="start" x="192.5" y="-1122" font-family="Helvetica,sans-Serif" font-size="10.00">CANJaguar::ConfigForward</text>
<text text-anchor="middle" x="251" y="-1111" font-family="Helvetica,sans-Serif" font-size="10.00">Limit</text>
</a>
</g>
<!-- Node1&#45;&gt;Node38 -->
<g id="edge134" class="edge"><title>Node1&#45;&gt;Node38</title>
<path fill="none" stroke="midnightblue" d="M68.5248,-843.491C73.4401,-892.83 93.2274,-1023.73 168,-1094 172.772,-1098.48 178.326,-1102.17 184.252,-1105.19"/>
<polygon fill="midnightblue" stroke="midnightblue" points="72.0092,-843.159 67.6279,-833.513 65.0373,-843.786 72.0092,-843.159"/>
</g>
<!-- Node39 -->
<g id="node109" class="node"><title>Node39</title>
<a xlink:href="class_c_a_n_jaguar.html#a67c5f0698f1faa97629bd1b31aa7880b" target="_top" xlink:title="CANJaguar::ConfigReverse\lLimit">
<polygon fill="white" stroke="black" points="184.5,-1055 184.5,-1085 317.5,-1085 317.5,-1055 184.5,-1055"/>
<text text-anchor="start" x="192.5" y="-1073" font-family="Helvetica,sans-Serif" font-size="10.00">CANJaguar::ConfigReverse</text>
<text text-anchor="middle" x="251" y="-1062" font-family="Helvetica,sans-Serif" font-size="10.00">Limit</text>
</a>
</g>
<!-- Node1&#45;&gt;Node39 -->
<g id="edge140" class="edge"><title>Node1&#45;&gt;Node39</title>
<path fill="none" stroke="midnightblue" d="M70.3718,-843.637C78.7885,-886.629 104.77,-989.652 168,-1045 172.815,-1049.22 178.327,-1052.72 184.164,-1055.63"/>
<polygon fill="midnightblue" stroke="midnightblue" points="73.7809,-842.824 68.5222,-833.627 66.8974,-844.096 73.7809,-842.824"/>
</g>
<!-- Node40 -->
<g id="node113" class="node"><title>Node40</title>
<a xlink:href="class_c_a_n_jaguar.html#a44ea3760f054da59612cb0c3972c0696" target="_top" xlink:title="CANJaguar::ConfigMaxOutput\lVoltage">
<polygon fill="white" stroke="black" points="178,-765 178,-795 324,-795 324,-765 178,-765"/>
<text text-anchor="start" x="186" y="-783" font-family="Helvetica,sans-Serif" font-size="10.00">CANJaguar::ConfigMaxOutput</text>
<text text-anchor="middle" x="251" y="-772" font-family="Helvetica,sans-Serif" font-size="10.00">Voltage</text>
</a>
</g>
<!-- Node1&#45;&gt;Node40 -->
<g id="edge146" class="edge"><title>Node1&#45;&gt;Node40</title>
<path fill="none" stroke="midnightblue" d="M116.722,-812.045C138.491,-806.811 164.278,-800.611 187.342,-795.065"/>
<polygon fill="midnightblue" stroke="midnightblue" points="115.613,-808.712 106.708,-814.453 117.249,-815.518 115.613,-808.712"/>
</g>
<!-- Node41 -->
<g id="node117" class="node"><title>Node41</title>
<a xlink:href="class_c_a_n_jaguar.html#acf67e7f7a57b6d8d657897bed2d21b98" target="_top" xlink:title="CANJaguar::ConfigFaultTime">
<polygon fill="white" stroke="black" points="180.5,-978.5 180.5,-997.5 321.5,-997.5 321.5,-978.5 180.5,-978.5"/>
<text text-anchor="middle" x="251" y="-985.5" font-family="Helvetica,sans-Serif" font-size="10.00">CANJaguar::ConfigFaultTime</text>
</a>
</g>
<!-- Node1&#45;&gt;Node41 -->
<g id="edge152" class="edge"><title>Node1&#45;&gt;Node41</title>
<path fill="none" stroke="midnightblue" d="M75.722,-843.305C90.396,-873.598 122.901,-932.123 168,-964 176.964,-970.336 187.597,-975.014 198.186,-978.463"/>
<polygon fill="midnightblue" stroke="midnightblue" points="78.7036,-841.42 71.2838,-833.857 72.3678,-844.397 78.7036,-841.42"/>
</g>
<!-- Node3 -->
<g id="node5" class="node"><title>Node3</title>
<a xlink:href="class_c_a_n_jaguar.html#a2355d55f42083ab82870c79f742620e4" target="_top" xlink:title="CANJaguar::PIDWrite">
<polygon fill="white" stroke="black" points="756,-1035.5 756,-1054.5 866,-1054.5 866,-1035.5 756,-1035.5"/>
<text text-anchor="middle" x="811" y="-1042.5" font-family="Helvetica,sans-Serif" font-size="10.00">CANJaguar::PIDWrite</text>
</a>
</g>
<!-- Node2&#45;&gt;Node3 -->
<g id="edge4" class="edge"><title>Node2&#45;&gt;Node3</title>
<path fill="none" stroke="midnightblue" d="M688.288,-1031.71C709.602,-1034.04 734.24,-1036.73 755.75,-1039.08"/>
<polygon fill="midnightblue" stroke="midnightblue" points="688.441,-1028.21 678.121,-1030.6 687.682,-1035.16 688.441,-1028.21"/>
</g>
<!-- Node4 -->
<g id="node7" class="node"><title>Node4</title>
<a xlink:href="class_c_a_n_jaguar_test.html#a3c9026e62eb65e2d497bb7bbfaded297" target="_top" xlink:title="CANJaguarTest::SetJaguar">
<polygon fill="white" stroke="black" points="744,-997.5 744,-1016.5 878,-1016.5 878,-997.5 744,-997.5"/>
<text text-anchor="middle" x="811" y="-1004.5" font-family="Helvetica,sans-Serif" font-size="10.00">CANJaguarTest::SetJaguar</text>
</a>
</g>
<!-- Node2&#45;&gt;Node4 -->
<g id="edge6" class="edge"><title>Node2&#45;&gt;Node4</title>
<path fill="none" stroke="midnightblue" d="M688.138,-1020.31C705.64,-1018.4 725.398,-1016.24 743.83,-1014.23"/>
<polygon fill="midnightblue" stroke="midnightblue" points="687.682,-1016.84 678.121,-1021.4 688.441,-1023.79 687.682,-1016.84"/>
</g>
<!-- Node5&#45;&gt;Node6 -->
<g id="edge10" class="edge"><title>Node5&#45;&gt;Node6</title>
<path fill="none" stroke="midnightblue" d="M326.888,-897.551C351.965,-894.722 379.155,-891.654 401.313,-889.154"/>
<polygon fill="midnightblue" stroke="midnightblue" points="326.206,-894.106 316.661,-898.705 326.991,-901.062 326.206,-894.106"/>
</g>
<!-- Node6&#45;&gt;Node2 -->
<g id="edge12" class="edge"><title>Node6&#45;&gt;Node2</title>
<path fill="none" stroke="midnightblue" d="M469.814,-899.976C508.322,-929.533 589.625,-991.939 621.139,-1016.13"/>
<polygon fill="midnightblue" stroke="midnightblue" points="471.489,-896.85 461.426,-893.538 467.227,-902.403 471.489,-896.85"/>
</g>
<!-- Node7&#45;&gt;Node6 -->
<g id="edge18" class="edge"><title>Node7&#45;&gt;Node6</title>
<path fill="none" stroke="midnightblue" d="M330.033,-637.334C331.419,-638.478 332.745,-639.698 334,-641 392.442,-701.616 325.105,-755.767 370,-827 383.657,-848.669 408.748,-864.895 426.573,-874.384"/>
<polygon fill="midnightblue" stroke="midnightblue" points="331.751,-634.271 321.501,-631.588 327.84,-640.077 331.751,-634.271"/>
</g>
<!-- Node8 -->
<g id="node18" class="node"><title>Node8</title>
<a xlink:href="class_c_a_n_jaguar.html#ac2d2c69ce26f0ccbf4191349e4eba055" target="_top" xlink:title="CANJaguar::SetPercentMode">
<polygon fill="white" stroke="black" points="563,-409.5 563,-428.5 707,-428.5 707,-409.5 563,-409.5"/>
<text text-anchor="middle" x="635" y="-416.5" font-family="Helvetica,sans-Serif" font-size="10.00">CANJaguar::SetPercentMode</text>
</a>
</g>
<!-- Node7&#45;&gt;Node8 -->
<g id="edge20" class="edge"><title>Node7&#45;&gt;Node8</title>
<path fill="none" stroke="midnightblue" d="M329.194,-606.972C330.871,-605.743 332.478,-604.421 334,-603 374.075,-565.578 330.25,-522.767 370,-485 421.546,-436.025 503.727,-421.823 562.709,-418.436"/>
<polygon fill="midnightblue" stroke="midnightblue" points="327.021,-604.197 320.287,-612.377 330.652,-610.182 327.021,-604.197"/>
</g>
<!-- Node10 -->
<g id="node22" class="node"><title>Node10</title>
<a xlink:href="class_c_a_n_jaguar.html#ae0b07bf7199611ea8e2e04109b08a3ad" target="_top" xlink:title="CANJaguar::SetCurrentMode">
<polygon fill="white" stroke="black" points="564,-741.5 564,-760.5 706,-760.5 706,-741.5 564,-741.5"/>
<text text-anchor="middle" x="635" y="-748.5" font-family="Helvetica,sans-Serif" font-size="10.00">CANJaguar::SetCurrentMode</text>
</a>
</g>
<!-- Node7&#45;&gt;Node10 -->
<g id="edge24" class="edge"><title>Node7&#45;&gt;Node10</title>
<path fill="none" stroke="midnightblue" d="M328.558,-636.696C330.461,-638.017 332.281,-639.449 334,-641 370.627,-674.049 330.129,-716.947 370,-746 440.208,-797.159 551.133,-775.318 604.025,-760.519"/>
<polygon fill="midnightblue" stroke="midnightblue" points="330.155,-633.576 319.75,-631.582 326.641,-639.629 330.155,-633.576"/>
</g>
<!-- Node11 -->
<g id="node24" class="node"><title>Node11</title>
<a xlink:href="class_c_a_n_jaguar.html#aa02549873d5551b00d3f2bdb08709e5a" target="_top" xlink:title="CANJaguar::SetSpeedMode">
<polygon fill="white" stroke="black" points="566,-646.5 566,-665.5 704,-665.5 704,-646.5 566,-646.5"/>
<text text-anchor="middle" x="635" y="-653.5" font-family="Helvetica,sans-Serif" font-size="10.00">CANJaguar::SetSpeedMode</text>
</a>
</g>
<!-- Node7&#45;&gt;Node11 -->
<g id="edge26" class="edge"><title>Node7&#45;&gt;Node11</title>
<path fill="none" stroke="midnightblue" d="M318.468,-634.656C323.829,-636.499 329.073,-638.602 334,-641 352.474,-649.99 350.624,-663.167 370,-670 449.211,-697.936 550.079,-678.778 601.165,-665.581"/>
<polygon fill="midnightblue" stroke="midnightblue" points="319.323,-631.256 308.734,-631.611 317.233,-637.937 319.323,-631.256"/>
</g>
<!-- Node12 -->
<g id="node26" class="node"><title>Node12</title>
<a xlink:href="class_c_a_n_jaguar.html#a75fc8ed9ed60a38e2932155f958cdf34" target="_top" xlink:title="CANJaguar::SetVoltageMode">
<polygon fill="white" stroke="black" points="563.5,-532.5 563.5,-551.5 706.5,-551.5 706.5,-532.5 563.5,-532.5"/>
<text text-anchor="middle" x="635" y="-539.5" font-family="Helvetica,sans-Serif" font-size="10.00">CANJaguar::SetVoltageMode</text>
</a>
</g>
<!-- Node7&#45;&gt;Node12 -->
<g id="edge28" class="edge"><title>Node7&#45;&gt;Node12</title>
<path fill="none" stroke="midnightblue" d="M310.062,-610.432C365.565,-599.304 451.57,-581.875 526,-566 547.79,-561.352 572.008,-555.989 591.979,-551.513"/>
<polygon fill="midnightblue" stroke="midnightblue" points="309.181,-607.039 300.063,-612.435 310.556,-613.903 309.181,-607.039"/>
</g>
<!-- Node9 -->
<g id="node20" class="node"><title>Node9</title>
<a xlink:href="class_c_a_n_jaguar.html#aec1593556141870268f5e48e38537390" target="_top" xlink:title="CANJaguar::CANJaguar">
<polygon fill="white" stroke="black" points="751,-646.5 751,-665.5 871,-665.5 871,-646.5 751,-646.5"/>
<text text-anchor="middle" x="811" y="-653.5" font-family="Helvetica,sans-Serif" font-size="10.00">CANJaguar::CANJaguar</text>
</a>
</g>
<!-- Node8&#45;&gt;Node9 -->
<g id="edge22" class="edge"><title>Node8&#45;&gt;Node9</title>
<path fill="none" stroke="midnightblue" d="M664.907,-433.408C679.148,-441.542 695.828,-452.739 708,-466 761.669,-524.474 796.4,-616.401 806.753,-646.273"/>
<polygon fill="midnightblue" stroke="midnightblue" points="666.425,-430.249 655.973,-428.514 663.062,-436.388 666.425,-430.249"/>
</g>
<!-- Node13&#45;&gt;Node6 -->
<g id="edge32" class="edge"><title>Node13&#45;&gt;Node6</title>
<path fill="none" stroke="midnightblue" d="M330.565,-599.688C331.762,-600.729 332.909,-601.832 334,-603 402.822,-676.694 317.601,-740.851 370,-827 383.31,-848.884 408.471,-865.066 426.408,-874.486"/>
<polygon fill="midnightblue" stroke="midnightblue" points="332.209,-596.565 322.016,-593.674 328.181,-602.29 332.209,-596.565"/>
</g>
<!-- Node13&#45;&gt;Node8 -->
<g id="edge34" class="edge"><title>Node13&#45;&gt;Node8</title>
<path fill="none" stroke="midnightblue" d="M264.23,-565.794C280.88,-540.689 311.213,-493.798 334,-452 351.89,-419.184 338.417,-395.987 370,-376 451.423,-324.473 574.296,-384.726 617.931,-409.406"/>
<polygon fill="midnightblue" stroke="midnightblue" points="261.199,-564.031 258.563,-574.293 267.023,-567.915 261.199,-564.031"/>
</g>
<!-- Node13&#45;&gt;Node10 -->
<g id="edge36" class="edge"><title>Node13&#45;&gt;Node10</title>
<path fill="none" stroke="midnightblue" d="M325.539,-597.807C328.49,-599.361 331.327,-601.086 334,-603 358.666,-620.665 346.255,-642.114 370,-661 428.078,-707.195 511.228,-730.335 568.62,-741.468"/>
<polygon fill="midnightblue" stroke="midnightblue" points="326.945,-594.602 316.394,-593.642 324.043,-600.972 326.945,-594.602"/>
</g>
<!-- Node13&#45;&gt;Node11 -->
<g id="edge38" class="edge"><title>Node13&#45;&gt;Node11</title>
<path fill="none" stroke="midnightblue" d="M318.468,-596.656C323.829,-598.499 329.073,-600.602 334,-603 352.474,-611.99 350.954,-624.296 370,-632 432.929,-657.456 510.984,-661.545 565.843,-660.439"/>
<polygon fill="midnightblue" stroke="midnightblue" points="319.323,-593.256 308.734,-593.611 317.233,-599.937 319.323,-593.256"/>
</g>
<!-- Node13&#45;&gt;Node12 -->
<g id="edge42" class="edge"><title>Node13&#45;&gt;Node12</title>
<path fill="none" stroke="midnightblue" d="M319.864,-572.927C336.252,-570.452 353.731,-567.979 370,-566 435.331,-558.055 510.05,-551.497 563.284,-547.256"/>
<polygon fill="midnightblue" stroke="midnightblue" points="319.177,-569.491 309.821,-574.463 320.236,-576.411 319.177,-569.491"/>
</g>
<!-- Node14 -->
<g id="node34" class="node"><title>Node14</title>
<a xlink:href="class_c_a_n_jaguar.html#a870f456a238bb9c55552b94cd86faad0" target="_top" xlink:title="CANJaguar::SetPositionMode">
<polygon fill="white" stroke="black" points="562,-475.5 562,-494.5 708,-494.5 708,-475.5 562,-475.5"/>
<text text-anchor="middle" x="635" y="-482.5" font-family="Helvetica,sans-Serif" font-size="10.00">CANJaguar::SetPositionMode</text>
</a>
</g>
<!-- Node13&#45;&gt;Node14 -->
<g id="edge40" class="edge"><title>Node13&#45;&gt;Node14</title>
<path fill="none" stroke="midnightblue" d="M265.689,-566.612C285.639,-542.84 325.239,-501.29 370,-485 441.711,-458.902 531.816,-466.752 586.054,-475.43"/>
<polygon fill="midnightblue" stroke="midnightblue" points="262.872,-564.528 259.254,-574.486 268.292,-568.958 262.872,-564.528"/>
</g>
<!-- Node15&#45;&gt;Node6 -->
<g id="edge46" class="edge"><title>Node15&#45;&gt;Node6</title>
<path fill="none" stroke="midnightblue" d="M307.548,-664.155C317.368,-667.16 326.753,-671.832 334,-679 382.129,-726.606 332.557,-770.602 370,-827 384.259,-848.478 409.479,-864.843 427.159,-874.413"/>
<polygon fill="midnightblue" stroke="midnightblue" points="308.197,-660.709 297.646,-661.676 306.496,-667.5 308.197,-660.709"/>
</g>
<!-- Node16 -->
<g id="node40" class="node"><title>Node16</title>
<a xlink:href="class_c_a_n_jaguar.html#a27a017dfbfbb580251b4dd342ccbfd6d" target="_top" xlink:title="CANJaguar::SetPID">
<polygon fill="white" stroke="black" points="397,-798.5 397,-817.5 499,-817.5 499,-798.5 397,-798.5"/>
<text text-anchor="middle" x="448" y="-805.5" font-family="Helvetica,sans-Serif" font-size="10.00">CANJaguar::SetPID</text>
</a>
</g>
<!-- Node15&#45;&gt;Node16 -->
<g id="edge48" class="edge"><title>Node15&#45;&gt;Node16</title>
<path fill="none" stroke="midnightblue" d="M307.357,-664.79C317.106,-667.751 326.514,-672.245 334,-679 370.627,-712.049 334.629,-749.611 370,-784 377.429,-791.223 386.997,-796.276 396.847,-799.809"/>
<polygon fill="midnightblue" stroke="midnightblue" points="308.104,-661.369 297.552,-662.313 306.39,-668.156 308.104,-661.369"/>
</g>
<!-- Node16&#45;&gt;Node10 -->
<g id="edge50" class="edge"><title>Node16&#45;&gt;Node10</title>
<path fill="none" stroke="midnightblue" d="M489.636,-795.48C523.766,-784.964 571.816,-770.16 602.934,-760.572"/>
<polygon fill="midnightblue" stroke="midnightblue" points="488.491,-792.17 479.965,-798.459 490.552,-798.86 488.491,-792.17"/>
</g>
<!-- Node16&#45;&gt;Node11 -->
<g id="edge52" class="edge"><title>Node16&#45;&gt;Node11</title>
<path fill="none" stroke="midnightblue" d="M468.46,-792.011C506.907,-760.423 591.549,-690.878 622.432,-665.505"/>
<polygon fill="midnightblue" stroke="midnightblue" points="466.077,-789.439 460.573,-798.492 470.521,-794.848 466.077,-789.439"/>
</g>
<!-- Node16&#45;&gt;Node14 -->
<g id="edge54" class="edge"><title>Node16&#45;&gt;Node14</title>
<path fill="none" stroke="midnightblue" d="M451.987,-788.264C460.495,-738.153 489.117,-604.224 562,-523 573.611,-510.061 590.685,-500.783 605.293,-494.635"/>
<polygon fill="midnightblue" stroke="midnightblue" points="448.492,-787.955 450.354,-798.385 455.403,-789.07 448.492,-787.955"/>
</g>
<!-- Node17&#45;&gt;Node6 -->
<g id="edge58" class="edge"><title>Node17&#45;&gt;Node6</title>
<path fill="none" stroke="midnightblue" d="M305.386,-741.245C315.637,-744.136 325.737,-748.488 334,-755 362.1,-777.145 346.99,-799.604 370,-827 387.008,-847.25 412.592,-864.334 429.538,-874.373"/>
<polygon fill="midnightblue" stroke="midnightblue" points="306.106,-737.818 295.566,-738.896 304.478,-744.626 306.106,-737.818"/>
</g>
<!-- Node17&#45;&gt;Node16 -->
<g id="edge60" class="edge"><title>Node17&#45;&gt;Node16</title>
<path fill="none" stroke="midnightblue" d="M305.782,-744.795C315.443,-747.393 325.223,-750.729 334,-755 352.474,-763.99 351.873,-774.328 370,-784 381.242,-789.998 394.221,-794.765 406.282,-798.417"/>
<polygon fill="midnightblue" stroke="midnightblue" points="306.35,-741.331 295.804,-742.347 304.682,-748.129 306.35,-741.331"/>
</g>
<!-- Node18&#45;&gt;Node6 -->
<g id="edge64" class="edge"><title>Node18&#45;&gt;Node6</title>
<path fill="none" stroke="midnightblue" d="M307.433,-702.707C317.176,-705.675 326.561,-710.193 334,-717 371.949,-751.727 339.906,-785.281 370,-827 385.179,-848.043 410.452,-864.606 427.88,-874.335"/>
<polygon fill="midnightblue" stroke="midnightblue" points="308.182,-699.286 297.63,-700.228 306.466,-706.073 308.182,-699.286"/>
</g>
<!-- Node18&#45;&gt;Node16 -->
<g id="edge66" class="edge"><title>Node18&#45;&gt;Node16</title>
<path fill="none" stroke="midnightblue" d="M307.458,-704.079C316.955,-706.943 326.245,-711.072 334,-717 360.855,-737.531 343.928,-762.484 370,-784 377.776,-790.417 387.269,-795.123 396.897,-798.572"/>
<polygon fill="midnightblue" stroke="midnightblue" points="308.098,-700.63 297.542,-701.53 306.355,-707.41 308.098,-700.63"/>
</g>
<!-- Node19&#45;&gt;Node2 -->
<g id="edge70" class="edge"><title>Node19&#45;&gt;Node2</title>
<path fill="none" stroke="midnightblue" d="M327.63,-1026C406.778,-1026 528.194,-1026 591.804,-1026"/>
<polygon fill="midnightblue" stroke="midnightblue" points="327.234,-1022.5 317.234,-1026 327.234,-1029.5 327.234,-1022.5"/>
</g>
<!-- Node19&#45;&gt;Node6 -->
<g id="edge72" class="edge"><title>Node19&#45;&gt;Node6</title>
<path fill="none" stroke="midnightblue" d="M321.764,-1012.99C326.014,-1011.24 330.132,-1009.25 334,-1007 384.857,-977.358 426.112,-917.384 441.015,-893.822"/>
<polygon fill="midnightblue" stroke="midnightblue" points="320.475,-1009.74 312.289,-1016.46 322.882,-1016.31 320.475,-1009.74"/>
</g>
<!-- Node21 -->
<g id="node59" class="node"><title>Node21</title>
<a xlink:href="class_c_a_n_jaguar.html#a724fb123fb9694f998cdd5f7da28bcd4" target="_top" xlink:title="CANJaguar::Disable">
<polygon fill="white" stroke="black" points="396,-0.5 396,-19.5 500,-19.5 500,-0.5 396,-0.5"/>
<text text-anchor="middle" x="448" y="-7.5" font-family="Helvetica,sans-Serif" font-size="10.00">CANJaguar::Disable</text>
</a>
</g>
<!-- Node20&#45;&gt;Node21 -->
<g id="edge76" class="edge"><title>Node20&#45;&gt;Node21</title>
<path fill="none" stroke="midnightblue" d="M278.977,-68.8931C302.516,-57.0149 337.841,-40.2149 370,-29 380.271,-25.4182 391.535,-22.2376 402.202,-19.5518"/>
<polygon fill="midnightblue" stroke="midnightblue" points="277.275,-65.8323 269.958,-73.495 280.456,-72.0675 277.275,-65.8323"/>
</g>
<!-- Node22 -->
<g id="node61" class="node"><title>Node22</title>
<a xlink:href="class_c_a_n_jaguar.html#ad359943907bf802075474a3753f7fb02" target="_top" xlink:title="CANJaguar::SetControlMode">
<polygon fill="white" stroke="black" points="377.5,-494.5 377.5,-513.5 518.5,-513.5 518.5,-494.5 377.5,-494.5"/>
<text text-anchor="middle" x="448" y="-501.5" font-family="Helvetica,sans-Serif" font-size="10.00">CANJaguar::SetControlMode</text>
</a>
</g>
<!-- Node20&#45;&gt;Node22 -->
<g id="edge78" class="edge"><title>Node20&#45;&gt;Node22</title>
<path fill="none" stroke="midnightblue" d="M276.432,-98.2884C295.147,-111.316 320.052,-131.753 334,-156 374.029,-225.585 345.367,-256.595 370,-333 390.58,-396.835 427.898,-468.662 441.691,-494.284"/>
<polygon fill="midnightblue" stroke="midnightblue" points="278.326,-95.3444 268.074,-92.6708 274.422,-101.154 278.326,-95.3444"/>
</g>
<!-- Node23 -->
<g id="node68" class="node"><title>Node23</title>
<a xlink:href="class_c_a_n_jaguar.html#a5ce4840f1e80913836cfb2ddb2d7d50b" target="_top" xlink:title="CANJaguar::StopMotor">
<polygon fill="white" stroke="black" points="390,-38.5 390,-57.5 506,-57.5 506,-38.5 390,-38.5"/>
<text text-anchor="middle" x="448" y="-45.5" font-family="Helvetica,sans-Serif" font-size="10.00">CANJaguar::StopMotor</text>
</a>
</g>
<!-- Node20&#45;&gt;Node23 -->
<g id="edge90" class="edge"><title>Node20&#45;&gt;Node23</title>
<path fill="none" stroke="midnightblue" d="M314.971,-71.6974C340.472,-67.1204 369.592,-61.8938 393.984,-57.5158"/>
<polygon fill="midnightblue" stroke="midnightblue" points="314.251,-68.2707 305.027,-73.4823 315.488,-75.1606 314.251,-68.2707"/>
</g>
<!-- Node22&#45;&gt;Node8 -->
<g id="edge80" class="edge"><title>Node22&#45;&gt;Node8</title>
<path fill="none" stroke="midnightblue" d="M479.326,-490.066C517.079,-472.72 580.559,-443.554 613.214,-428.55"/>
<polygon fill="midnightblue" stroke="midnightblue" points="477.488,-487.059 469.862,-494.415 480.41,-493.42 477.488,-487.059"/>
</g>
<!-- Node22&#45;&gt;Node10 -->
<g id="edge82" class="edge"><title>Node22&#45;&gt;Node10</title>
<path fill="none" stroke="midnightblue" d="M459.725,-522.44C478.736,-554.588 520.286,-622.473 562,-675 582.12,-700.335 609.069,-727.181 623.624,-741.189"/>
<polygon fill="midnightblue" stroke="midnightblue" points="462.655,-520.519 454.574,-513.668 456.619,-524.063 462.655,-520.519"/>
</g>
<!-- Node22&#45;&gt;Node11 -->
<g id="edge84" class="edge"><title>Node22&#45;&gt;Node11</title>
<path fill="none" stroke="midnightblue" d="M468.46,-519.989C506.907,-551.577 591.549,-621.122 622.432,-646.495"/>
<polygon fill="midnightblue" stroke="midnightblue" points="470.521,-517.152 460.573,-513.508 466.077,-522.561 470.521,-517.152"/>
</g>
<!-- Node22&#45;&gt;Node12 -->
<g id="edge88" class="edge"><title>Node22&#45;&gt;Node12</title>
<path fill="none" stroke="midnightblue" d="M505.52,-515.61C531.831,-521.014 562.743,-527.364 587.652,-532.48"/>
<polygon fill="midnightblue" stroke="midnightblue" points="506.183,-512.173 495.683,-513.589 504.775,-519.03 506.183,-512.173"/>
</g>
<!-- Node22&#45;&gt;Node14 -->
<g id="edge86" class="edge"><title>Node22&#45;&gt;Node14</title>
<path fill="none" stroke="midnightblue" d="M528.722,-495.812C539.756,-494.679 551.037,-493.521 561.921,-492.403"/>
<polygon fill="midnightblue" stroke="midnightblue" points="528.267,-492.341 518.677,-496.844 528.982,-499.304 528.267,-492.341"/>
</g>
<!-- Node24&#45;&gt;Node6 -->
<g id="edge94" class="edge"><title>Node24&#45;&gt;Node6</title>
<path fill="none" stroke="midnightblue" d="M343.675,-872.343C363.703,-874.602 384.061,-876.899 401.35,-878.85"/>
<polygon fill="midnightblue" stroke="midnightblue" points="343.897,-868.846 333.568,-871.203 343.112,-875.802 343.897,-868.846"/>
</g>
<!-- Node25&#45;&gt;Node6 -->
<g id="edge98" class="edge"><title>Node25&#45;&gt;Node6</title>
<path fill="none" stroke="midnightblue" d="M310.918,-836.048C318.754,-838.116 326.624,-840.437 334,-843 350.714,-848.808 353.514,-853.574 370,-860 383.829,-865.39 399.407,-870.431 412.916,-874.489"/>
<polygon fill="midnightblue" stroke="midnightblue" points="311.602,-832.611 301.05,-833.564 309.894,-839.399 311.602,-832.611"/>
</g>
<!-- Node26&#45;&gt;Node6 -->
<g id="edge102" class="edge"><title>Node26&#45;&gt;Node6</title>
<path fill="none" stroke="midnightblue" d="M270.174,-451.548C289.365,-477.726 318.89,-522.003 334,-565 372.97,-675.89 310.069,-725.889 370,-827 382.975,-848.891 407.945,-864.975 425.937,-874.375"/>
<polygon fill="midnightblue" stroke="midnightblue" points="272.879,-449.32 264.098,-443.392 267.266,-453.502 272.879,-449.32"/>
</g>
<!-- Node26&#45;&gt;Node11 -->
<g id="edge108" class="edge"><title>Node26&#45;&gt;Node11</title>
<path fill="none" stroke="midnightblue" d="M275.92,-449.78C298.983,-470.153 335.388,-500.705 370,-523 454.564,-577.472 564.391,-626.496 611.228,-646.484"/>
<polygon fill="midnightblue" stroke="midnightblue" points="278.138,-447.068 268.343,-443.028 273.481,-452.294 278.138,-447.068"/>
</g>
<!-- Node26&#45;&gt;Node14 -->
<g id="edge110" class="edge"><title>Node26&#45;&gt;Node14</title>
<path fill="none" stroke="midnightblue" d="M328.217,-430.403C383.525,-433.181 459.918,-439.157 526,-452 554.676,-457.573 586.557,-467.838 608.199,-475.445"/>
<polygon fill="midnightblue" stroke="midnightblue" points="328.298,-426.903 318.143,-429.921 327.964,-433.895 328.298,-426.903"/>
</g>
<!-- Node27 -->
<g id="node79" class="node"><title>Node27</title>
<a xlink:href="class_c_a_n_jaguar.html#a775c2eaea0440594e92c10eda3de3bf8" target="_top" xlink:title="CANJaguar::SetPercentMode">
<polygon fill="white" stroke="black" points="376,-266.5 376,-285.5 520,-285.5 520,-266.5 376,-266.5"/>
<text text-anchor="middle" x="448" y="-273.5" font-family="Helvetica,sans-Serif" font-size="10.00">CANJaguar::SetPercentMode</text>
</a>
</g>
<!-- Node26&#45;&gt;Node27 -->
<g id="edge104" class="edge"><title>Node26&#45;&gt;Node27</title>
<path fill="none" stroke="midnightblue" d="M266.415,-404.354C286.037,-374.237 324.029,-322.776 370,-295 376.482,-291.084 383.732,-287.973 391.123,-285.503"/>
<polygon fill="midnightblue" stroke="midnightblue" points="263.349,-402.651 260.926,-412.965 269.252,-406.414 263.349,-402.651"/>
</g>
<!-- Node28 -->
<g id="node81" class="node"><title>Node28</title>
<a xlink:href="class_c_a_n_jaguar.html#a7086f1e78879ba32ac72629a1a1526ec" target="_top" xlink:title="CANJaguar::SetCurrentMode">
<polygon fill="white" stroke="black" points="377,-228.5 377,-247.5 519,-247.5 519,-228.5 377,-228.5"/>
<text text-anchor="middle" x="448" y="-235.5" font-family="Helvetica,sans-Serif" font-size="10.00">CANJaguar::SetCurrentMode</text>
</a>
</g>
<!-- Node26&#45;&gt;Node28 -->
<g id="edge106" class="edge"><title>Node26&#45;&gt;Node28</title>
<path fill="none" stroke="midnightblue" d="M261.902,-403.73C278.485,-366.235 315.508,-294.629 370,-257 375.665,-253.088 382.055,-249.979 388.669,-247.51"/>
<polygon fill="midnightblue" stroke="midnightblue" points="258.686,-402.348 257.947,-412.917 265.116,-405.115 258.686,-402.348"/>
</g>
<!-- Node29 -->
<g id="node85" class="node"><title>Node29</title>
<a xlink:href="class_c_a_n_jaguar.html#a69b529739df8ceba260339d2d5fa1ae3" target="_top" xlink:title="CANJaguar::SetVoltageMode">
<polygon fill="white" stroke="black" points="376.5,-304.5 376.5,-323.5 519.5,-323.5 519.5,-304.5 376.5,-304.5"/>
<text text-anchor="middle" x="448" y="-311.5" font-family="Helvetica,sans-Serif" font-size="10.00">CANJaguar::SetVoltageMode</text>
</a>
</g>
<!-- Node26&#45;&gt;Node29 -->
<g id="edge112" class="edge"><title>Node26&#45;&gt;Node29</title>
<path fill="none" stroke="midnightblue" d="M275.367,-406.185C298.034,-386.038 334.167,-356.513 370,-338 381.569,-332.023 394.895,-327.221 407.174,-323.53"/>
<polygon fill="midnightblue" stroke="midnightblue" points="273.017,-403.591 267.933,-412.887 277.704,-408.79 273.017,-403.591"/>
</g>
<!-- Node30&#45;&gt;Node6 -->
<g id="edge116" class="edge"><title>Node30&#45;&gt;Node6</title>
<path fill="none" stroke="midnightblue" d="M263.52,-205.443C281.892,-245.646 317.44,-328.69 334,-403 354.568,-495.297 323.909,-744.432 370,-827 382.322,-849.075 407.157,-865.03 425.302,-874.351"/>
<polygon fill="midnightblue" stroke="midnightblue" points="266.611,-203.788 259.241,-196.176 260.256,-206.722 266.611,-203.788"/>
</g>
<!-- Node31 -->
<g id="node90" class="node"><title>Node31</title>
<a xlink:href="class_c_a_n_jaguar.html#a179186b1241b539377e61d1fdc43d3a1" target="_top" xlink:title="CANJaguar::SetPercentMode">
<polygon fill="white" stroke="black" points="376,-190.5 376,-209.5 520,-209.5 520,-190.5 376,-190.5"/>
<text text-anchor="middle" x="448" y="-197.5" font-family="Helvetica,sans-Serif" font-size="10.00">CANJaguar::SetPercentMode</text>
</a>
</g>
<!-- Node30&#45;&gt;Node31 -->
<g id="edge118" class="edge"><title>Node30&#45;&gt;Node31</title>
<path fill="none" stroke="midnightblue" d="M340.958,-189.668C352.641,-190.806 364.487,-191.96 375.821,-193.065"/>
<polygon fill="midnightblue" stroke="midnightblue" points="341.044,-186.16 330.752,-188.673 340.365,-193.127 341.044,-186.16"/>
</g>
<!-- Node32 -->
<g id="node92" class="node"><title>Node32</title>
<a xlink:href="class_c_a_n_jaguar.html#aaf192c1ec9d25507218665b47d1c3845" target="_top" xlink:title="CANJaguar::SetCurrentMode">
<polygon fill="white" stroke="black" points="377,-152.5 377,-171.5 519,-171.5 519,-152.5 377,-152.5"/>
<text text-anchor="middle" x="448" y="-159.5" font-family="Helvetica,sans-Serif" font-size="10.00">CANJaguar::SetCurrentMode</text>
</a>
</g>
<!-- Node30&#45;&gt;Node32 -->
<g id="edge120" class="edge"><title>Node30&#45;&gt;Node32</title>
<path fill="none" stroke="midnightblue" d="M340.815,-172.346C352.865,-171.172 365.093,-169.981 376.756,-168.844"/>
<polygon fill="midnightblue" stroke="midnightblue" points="340.365,-168.873 330.752,-173.327 341.044,-175.84 340.365,-168.873"/>
</g>
<!-- Node33 -->
<g id="node94" class="node"><title>Node33</title>
<a xlink:href="class_c_a_n_jaguar.html#a1b464ad2f6c282d0bed5a012fcc61fa8" target="_top" xlink:title="CANJaguar::SetPositionMode">
<polygon fill="white" stroke="black" points="375,-114.5 375,-133.5 521,-133.5 521,-114.5 375,-114.5"/>
<text text-anchor="middle" x="448" y="-121.5" font-family="Helvetica,sans-Serif" font-size="10.00">CANJaguar::SetPositionMode</text>
</a>
</g>
<!-- Node30&#45;&gt;Node33 -->
<g id="edge122" class="edge"><title>Node30&#45;&gt;Node33</title>
<path fill="none" stroke="midnightblue" d="M305.9,-162.77C325.934,-156.225 348.917,-148.988 370,-143 381.656,-139.69 394.397,-136.41 406.1,-133.531"/>
<polygon fill="midnightblue" stroke="midnightblue" points="304.73,-159.471 296.324,-165.919 306.917,-166.121 304.73,-159.471"/>
</g>
<!-- Node34 -->
<g id="node96" class="node"><title>Node34</title>
<a xlink:href="class_c_a_n_jaguar.html#a7c41e6c0020498a3eaca4e67002d193e" target="_top" xlink:title="CANJaguar::SetVoltageMode">
<polygon fill="white" stroke="black" points="376.5,-76.5 376.5,-95.5 519.5,-95.5 519.5,-76.5 376.5,-76.5"/>
<text text-anchor="middle" x="448" y="-83.5" font-family="Helvetica,sans-Serif" font-size="10.00">CANJaguar::SetVoltageMode</text>
</a>
</g>
<!-- Node30&#45;&gt;Node34 -->
<g id="edge124" class="edge"><title>Node30&#45;&gt;Node34</title>
<path fill="none" stroke="midnightblue" d="M279.151,-159.791C302.17,-142.752 336.666,-119.371 370,-105 378.724,-101.239 388.34,-98.1246 397.732,-95.5821"/>
<polygon fill="midnightblue" stroke="midnightblue" points="276.809,-157.172 270.918,-165.978 281.015,-162.768 276.809,-157.172"/>
</g>
<!-- Node35&#45;&gt;Node6 -->
<g id="edge128" class="edge"><title>Node35&#45;&gt;Node6</title>
<path fill="none" stroke="midnightblue" d="M325.723,-1148.85C328.643,-1147.11 331.421,-1145.17 334,-1143 355.118,-1125.24 426.404,-938.627 443.359,-893.692"/>
<polygon fill="midnightblue" stroke="midnightblue" points="323.939,-1145.83 316.595,-1153.46 327.098,-1152.07 323.939,-1145.83"/>
</g>
<!-- Node36 -->
<g id="node101" class="node"><title>Node36</title>
<a xlink:href="class_c_a_n_jaguar.html#a01b8ad2facc7971becbd08b84266f6e2" target="_top" xlink:title="CANJaguar::ConfigSoftPosition\lLimits">
<polygon fill="white" stroke="black" points="372.5,-1096 372.5,-1126 523.5,-1126 523.5,-1096 372.5,-1096"/>
<text text-anchor="start" x="380.5" y="-1114" font-family="Helvetica,sans-Serif" font-size="10.00">CANJaguar::ConfigSoftPosition</text>
<text text-anchor="middle" x="448" y="-1103" font-family="Helvetica,sans-Serif" font-size="10.00">Limits</text>
</a>
</g>
<!-- Node35&#45;&gt;Node36 -->
<g id="edge130" class="edge"><title>Node35&#45;&gt;Node36</title>
<path fill="none" stroke="midnightblue" d="M302.381,-1151.02C312.85,-1148.45 323.799,-1145.69 334,-1143 354.111,-1137.7 376.135,-1131.55 395.355,-1126.06"/>
<polygon fill="midnightblue" stroke="midnightblue" points="301.415,-1147.65 292.531,-1153.43 303.076,-1154.45 301.415,-1147.65"/>
</g>
<!-- Node37 -->
<g id="node103" class="node"><title>Node37</title>
<a xlink:href="class_c_a_n_jaguar.html#a1726e9d38b93d6103e6415ff8d767f8b" target="_top" xlink:title="CANJaguar::DisableSoftPosition\lLimits">
<polygon fill="white" stroke="black" points="370,-1145 370,-1175 526,-1175 526,-1145 370,-1145"/>
<text text-anchor="start" x="378" y="-1163" font-family="Helvetica,sans-Serif" font-size="10.00">CANJaguar::DisableSoftPosition</text>
<text text-anchor="middle" x="448" y="-1152" font-family="Helvetica,sans-Serif" font-size="10.00">Limits</text>
</a>
</g>
<!-- Node35&#45;&gt;Node37 -->
<g id="edge132" class="edge"><title>Node35&#45;&gt;Node37</title>
<path fill="none" stroke="midnightblue" d="M332.881,-1161.76C345.154,-1161.57 357.789,-1161.37 369.976,-1161.18"/>
<polygon fill="midnightblue" stroke="midnightblue" points="332.62,-1158.26 322.675,-1161.91 332.728,-1165.26 332.62,-1158.26"/>
</g>
<!-- Node38&#45;&gt;Node6 -->
<g id="edge136" class="edge"><title>Node38&#45;&gt;Node6</title>
<path fill="none" stroke="midnightblue" d="M326.39,-1099.44C329.052,-1097.78 331.602,-1095.96 334,-1094 403.167,-1037.32 436.061,-926.784 444.652,-893.627"/>
<polygon fill="midnightblue" stroke="midnightblue" points="324.631,-1096.42 317.557,-1104.3 328.005,-1102.55 324.631,-1096.42"/>
</g>
<!-- Node38&#45;&gt;Node36 -->
<g id="edge138" class="edge"><title>Node38&#45;&gt;Node36</title>
<path fill="none" stroke="midnightblue" d="M327.781,-1115.89C342.46,-1115.29 357.831,-1114.66 372.47,-1114.06"/>
<polygon fill="midnightblue" stroke="midnightblue" points="327.594,-1112.4 317.746,-1116.3 327.881,-1119.39 327.594,-1112.4"/>
</g>
<!-- Node39&#45;&gt;Node6 -->
<g id="edge142" class="edge"><title>Node39&#45;&gt;Node6</title>
<path fill="none" stroke="midnightblue" d="M325.643,-1050.34C328.548,-1048.7 331.349,-1046.92 334,-1045 392.057,-1002.9 430.903,-921.533 442.989,-893.649"/>
<polygon fill="midnightblue" stroke="midnightblue" points="324.012,-1047.24 316.658,-1054.87 327.163,-1053.49 324.012,-1047.24"/>
</g>
<!-- Node39&#45;&gt;Node36 -->
<g id="edge144" class="edge"><title>Node39&#45;&gt;Node36</title>
<path fill="none" stroke="midnightblue" d="M327.909,-1085.96C343.572,-1089.25 360.018,-1092.71 375.518,-1095.97"/>
<polygon fill="midnightblue" stroke="midnightblue" points="328.252,-1082.46 317.746,-1083.82 326.812,-1089.31 328.252,-1082.46"/>
</g>
<!-- Node40&#45;&gt;Node6 -->
<g id="edge150" class="edge"><title>Node40&#45;&gt;Node6</title>
<path fill="none" stroke="midnightblue" d="M326.182,-799.821C328.901,-801.417 331.52,-803.14 334,-805 357.371,-822.531 346.684,-842.396 370,-860 379.164,-866.918 390.357,-871.867 401.34,-875.398"/>
<polygon fill="midnightblue" stroke="midnightblue" points="327.69,-796.661 317.204,-795.145 324.457,-802.869 327.69,-796.661"/>
</g>
<!-- Node40&#45;&gt;Node9 -->
<g id="edge148" class="edge"><title>Node40&#45;&gt;Node9</title>
<path fill="none" stroke="midnightblue" d="M318.111,-798.549C323.55,-800.559 328.909,-802.713 334,-805 351.104,-812.684 351.95,-821.921 370,-827 436.742,-845.779 457.463,-837.481 526,-827 609.789,-814.186 636.739,-815.898 708,-770 752.877,-741.095 790.163,-687.302 804.113,-665.522"/>
<polygon fill="midnightblue" stroke="midnightblue" points="318.869,-795.106 308.274,-795.089 316.546,-801.709 318.869,-795.106"/>
</g>
<!-- Node41&#45;&gt;Node6 -->
<g id="edge154" class="edge"><title>Node41&#45;&gt;Node6</title>
<path fill="none" stroke="midnightblue" d="M304.59,-975.423C314.581,-972.253 324.786,-968.455 334,-964 374.899,-944.224 417,-910.044 436.235,-893.507"/>
<polygon fill="midnightblue" stroke="midnightblue" points="303.287,-972.159 294.715,-978.385 305.299,-978.864 303.287,-972.159"/>
</g>
</g>
</svg>
