<?xml version="1.0" encoding="UTF-8" standalone="no"?>
<!DOCTYPE svg PUBLIC "-//W3C//DTD SVG 1.1//EN"
 "http://www.w3.org/Graphics/SVG/1.1/DTD/svg11.dtd">
<!-- Generated by graphviz version 2.28.0 (20110507.0327)
 -->
<!-- Title: RobotDrive::HolonomicDrive Pages: 1 -->
<svg width="792pt" height="180pt"
 viewBox="0.00 0.00 792.00 180.00" xmlns="http://www.w3.org/2000/svg" xmlns:xlink="http://www.w3.org/1999/xlink">
<g id="graph1" class="graph" transform="scale(1 1) rotate(0) translate(4 176)">
<title>RobotDrive::HolonomicDrive</title>
<polygon fill="white" stroke="white" points="-4,5 -4,-176 789,-176 789,5 -4,5"/>
<!-- Node1 -->
<g id="node1" class="node"><title>Node1</title>
<polygon fill="#bfbfbf" stroke="black" points="0,-76.5 0,-95.5 136,-95.5 136,-76.5 0,-76.5"/>
<text text-anchor="middle" x="68" y="-83.5" font-family="Helvetica,sans-Serif" font-size="10.00">RobotDrive::HolonomicDrive</text>
</g>
<!-- Node2 -->
<g id="node3" class="node"><title>Node2</title>
<a xlink:href="class_robot_drive.html#a3ba6d4ec2c07575543c4f47d348332f1" target="_top" xlink:title="RobotDrive::MecanumDrive\l_Polar">
<polygon fill="white" stroke="black" points="172.5,-71 172.5,-101 305.5,-101 305.5,-71 172.5,-71"/>
<text text-anchor="start" x="180.5" y="-89" font-family="Helvetica,sans-Serif" font-size="10.00">RobotDrive::MecanumDrive</text>
<text text-anchor="middle" x="239" y="-78" font-family="Helvetica,sans-Serif" font-size="10.00">_Polar</text>
</a>
</g>
<!-- Node1&#45;&gt;Node2 -->
<g id="edge2" class="edge"><title>Node1&#45;&gt;Node2</title>
<path fill="none" stroke="midnightblue" d="M136.279,-86C144.813,-86 153.593,-86 162.248,-86"/>
<polygon fill="midnightblue" stroke="midnightblue" points="162.33,-89.5001 172.33,-86 162.33,-82.5001 162.33,-89.5001"/>
</g>
<!-- Node3 -->
<g id="node5" class="node"><title>Node3</title>
<a xlink:href="class_robot_drive.html#aa7d99fd794c6f8c0b5486603f508a3a7" target="_top" xlink:title="RobotDrive::Limit">
<polygon fill="white" stroke="black" points="373,-152.5 373,-171.5 463,-171.5 463,-152.5 373,-152.5"/>
<text text-anchor="middle" x="418" y="-159.5" font-family="Helvetica,sans-Serif" font-size="10.00">RobotDrive::Limit</text>
</a>
</g>
<!-- Node2&#45;&gt;Node3 -->
<g id="edge4" class="edge"><title>Node2&#45;&gt;Node3</title>
<path fill="none" stroke="midnightblue" d="M263.039,-101.183C283.167,-113.875 313.541,-131.671 342,-143 348.692,-145.664 355.872,-148.046 363.041,-150.146"/>
<polygon fill="midnightblue" stroke="midnightblue" points="362.192,-153.543 372.763,-152.837 364.059,-146.797 362.192,-153.543"/>
</g>
<!-- Node4 -->
<g id="node7" class="node"><title>Node4</title>
<a xlink:href="class_robot_drive.html#a5e6a645728f44664ee57e5fb4c02acc7" target="_top" xlink:title="RobotDrive::Normalize">
<polygon fill="white" stroke="black" points="361.5,-114.5 361.5,-133.5 474.5,-133.5 474.5,-114.5 361.5,-114.5"/>
<text text-anchor="middle" x="418" y="-121.5" font-family="Helvetica,sans-Serif" font-size="10.00">RobotDrive::Normalize</text>
</a>
</g>
<!-- Node2&#45;&gt;Node4 -->
<g id="edge6" class="edge"><title>Node2&#45;&gt;Node4</title>
<path fill="none" stroke="midnightblue" d="M305.657,-100.096C324.5,-104.141 344.827,-108.505 362.89,-112.383"/>
<polygon fill="midnightblue" stroke="midnightblue" points="362.157,-115.805 372.669,-114.483 363.626,-108.961 362.157,-115.805"/>
</g>
<!-- Node5 -->
<g id="node9" class="node"><title>Node5</title>
<a xlink:href="class_speed_controller.html#adc3d0010c1c684979261b98d438f8db5" target="_top" xlink:title="SpeedController::Set">
<polygon fill="white" stroke="black" points="364.5,-76.5 364.5,-95.5 471.5,-95.5 471.5,-76.5 364.5,-76.5"/>
<text text-anchor="middle" x="418" y="-83.5" font-family="Helvetica,sans-Serif" font-size="10.00">SpeedController::Set</text>
</a>
</g>
<!-- Node2&#45;&gt;Node5 -->
<g id="edge8" class="edge"><title>Node2&#45;&gt;Node5</title>
<path fill="none" stroke="midnightblue" d="M305.657,-86C321.556,-86 338.51,-86 354.271,-86"/>
<polygon fill="midnightblue" stroke="midnightblue" points="354.432,-89.5001 364.432,-86 354.432,-82.5001 354.432,-89.5001"/>
</g>
<!-- Node6 -->
<g id="node11" class="node"><title>Node6</title>
<a xlink:href="class_c_a_n_jaguar.html#a225e0588b0955681a24da6ab0d2c8bc0" target="_top" xlink:title="CANJaguar::UpdateSyncGroup">
<polygon fill="white" stroke="black" points="342.5,-38.5 342.5,-57.5 493.5,-57.5 493.5,-38.5 342.5,-38.5"/>
<text text-anchor="middle" x="418" y="-45.5" font-family="Helvetica,sans-Serif" font-size="10.00">CANJaguar::UpdateSyncGroup</text>
</a>
</g>
<!-- Node2&#45;&gt;Node6 -->
<g id="edge10" class="edge"><title>Node2&#45;&gt;Node6</title>
<path fill="none" stroke="midnightblue" d="M305.657,-71.9042C324.5,-67.8587 344.827,-63.4948 362.89,-59.6168"/>
<polygon fill="midnightblue" stroke="midnightblue" points="363.626,-63.0386 372.669,-57.5175 362.157,-56.1946 363.626,-63.0386"/>
</g>
<!-- Node7 -->
<g id="node13" class="node"><title>Node7</title>
<a xlink:href="class_motor_safety_helper.html#a67b80e9817dc725e0678de5e8f0bb39e" target="_top" xlink:title="MotorSafetyHelper::Feed">
<polygon fill="white" stroke="black" points="355.5,-0.5 355.5,-19.5 480.5,-19.5 480.5,-0.5 355.5,-0.5"/>
<text text-anchor="middle" x="418" y="-7.5" font-family="Helvetica,sans-Serif" font-size="10.00">MotorSafetyHelper::Feed</text>
</a>
</g>
<!-- Node2&#45;&gt;Node7 -->
<g id="edge12" class="edge"><title>Node2&#45;&gt;Node7</title>
<path fill="none" stroke="midnightblue" d="M263.039,-70.8166C283.167,-58.1247 313.541,-40.3292 342,-29 348.205,-26.53 354.828,-24.3028 361.474,-22.3171"/>
<polygon fill="midnightblue" stroke="midnightblue" points="362.505,-25.6629 371.18,-19.5807 360.606,-18.9255 362.505,-25.6629"/>
</g>
<!-- Node8 -->
<g id="node15" class="node"><title>Node8</title>
<a xlink:href="class_timer.html#a7fa6e6dffec055e5104ccd6bcadec9aa" target="_top" xlink:title="Timer::GetFPGATimestamp">
<polygon fill="white" stroke="black" points="530.5,-0.5 530.5,-19.5 667.5,-19.5 667.5,-0.5 530.5,-0.5"/>
<text text-anchor="middle" x="599" y="-7.5" font-family="Helvetica,sans-Serif" font-size="10.00">Timer::GetFPGATimestamp</text>
</a>
</g>
<!-- Node7&#45;&gt;Node8 -->
<g id="edge14" class="edge"><title>Node7&#45;&gt;Node8</title>
<path fill="none" stroke="midnightblue" d="M480.602,-10C493.415,-10 507.076,-10 520.381,-10"/>
<polygon fill="midnightblue" stroke="midnightblue" points="520.465,-13.5001 530.465,-10 520.465,-6.5001 520.465,-13.5001"/>
</g>
<!-- Node9 -->
<g id="node17" class="node"><title>Node9</title>
<a xlink:href="_utility_8h.html#ababf055d95368485d48bd9a0231853f3" target="_top" xlink:title="GetFPGATime">
<polygon fill="white" stroke="black" points="704,-0.5 704,-19.5 784,-19.5 784,-0.5 704,-0.5"/>
<text text-anchor="middle" x="744" y="-7.5" font-family="Helvetica,sans-Serif" font-size="10.00">GetFPGATime</text>
</a>
</g>
<!-- Node8&#45;&gt;Node9 -->
<g id="edge16" class="edge"><title>Node8&#45;&gt;Node9</title>
<path fill="none" stroke="midnightblue" d="M667.731,-10C676.558,-10 685.463,-10 693.904,-10"/>
<polygon fill="midnightblue" stroke="midnightblue" points="693.934,-13.5001 703.933,-10 693.933,-6.5001 693.934,-13.5001"/>
</g>
</g>
</svg>
