<?xml version="1.0" encoding="UTF-8" standalone="no"?>
<!DOCTYPE svg PUBLIC "-//W3C//DTD SVG 1.1//EN"
 "http://www.w3.org/Graphics/SVG/1.1/DTD/svg11.dtd">
<!-- Generated by graphviz version 2.28.0 (20110507.0327)
 -->
<!-- Title: PWM::GetPosition Pages: 1 -->
<svg width="384pt" height="47pt"
 viewBox="0.00 0.00 384.00 47.00" xmlns="http://www.w3.org/2000/svg" xmlns:xlink="http://www.w3.org/1999/xlink">
<g id="graph1" class="graph" transform="scale(1 1) rotate(0) translate(4 43)">
<title>PWM::GetPosition</title>
<polygon fill="white" stroke="white" points="-4,5 -4,-43 381,-43 381,5 -4,5"/>
<!-- Node1 -->
<g id="node1" class="node"><title>Node1</title>
<polygon fill="#bfbfbf" stroke="black" points="0,-19.5 0,-38.5 98,-38.5 98,-19.5 0,-19.5"/>
<text text-anchor="middle" x="49" y="-26.5" font-family="Helvetica,sans-Serif" font-size="10.00">PWM::GetPosition</text>
</g>
<!-- Node2 -->
<g id="node3" class="node"><title>Node2</title>
<a xlink:href="class_error_base.html#a05790f219c9e436a09752f73f7344024" target="_top" xlink:title="Check if the current error code represents a fatal error. ">
<polygon fill="white" stroke="black" points="252,-19.5 252,-38.5 376,-38.5 376,-19.5 252,-19.5"/>
<text text-anchor="middle" x="314" y="-26.5" font-family="Helvetica,sans-Serif" font-size="10.00">ErrorBase::StatusIsFatal</text>
</a>
</g>
<!-- Node1&#45;&gt;Node2 -->
<g id="edge2" class="edge"><title>Node1&#45;&gt;Node2</title>
<path fill="none" stroke="midnightblue" d="M98.2383,-29C138.357,-29 196.041,-29 241.526,-29"/>
<polygon fill="midnightblue" stroke="midnightblue" points="241.623,-32.5001 251.623,-29 241.623,-25.5001 241.623,-32.5001"/>
</g>
<!-- Node3 -->
<g id="node5" class="node"><title>Node3</title>
<a xlink:href="class_p_w_m.html#afe21d7814cd2c51c0652fbf9f58af958" target="_top" xlink:title="PWM::GetRaw">
<polygon fill="white" stroke="black" points="134,-0.5 134,-19.5 216,-19.5 216,-0.5 134,-0.5"/>
<text text-anchor="middle" x="175" y="-7.5" font-family="Helvetica,sans-Serif" font-size="10.00">PWM::GetRaw</text>
</a>
</g>
<!-- Node1&#45;&gt;Node3 -->
<g id="edge4" class="edge"><title>Node1&#45;&gt;Node3</title>
<path fill="none" stroke="midnightblue" d="M98.2967,-21.5997C106.612,-20.3256 115.274,-18.9984 123.642,-17.7162"/>
<polygon fill="midnightblue" stroke="midnightblue" points="124.306,-21.1554 133.66,-16.1811 123.246,-14.2361 124.306,-21.1554"/>
</g>
<!-- Node3&#45;&gt;Node2 -->
<g id="edge6" class="edge"><title>Node3&#45;&gt;Node2</title>
<path fill="none" stroke="midnightblue" d="M216.364,-15.5979C224.362,-16.7072 232.981,-17.9025 241.66,-19.1062"/>
<polygon fill="midnightblue" stroke="midnightblue" points="241.458,-22.6115 251.844,-20.5185 242.419,-15.6779 241.458,-22.6115"/>
</g>
</g>
</svg>
