<?xml version="1.0" encoding="UTF-8" standalone="no"?>
<!DOCTYPE svg PUBLIC "-//W3C//DTD SVG 1.1//EN"
 "http://www.w3.org/Graphics/SVG/1.1/DTD/svg11.dtd">
<!-- Generated by graphviz version 2.28.0 (20110507.0327)
 -->
<!-- Title: Relay Pages: 1 -->
<svg width="300pt" height="222pt"
 viewBox="0.00 0.00 300.00 222.00" xmlns="http://www.w3.org/2000/svg" xmlns:xlink="http://www.w3.org/1999/xlink">
<g id="graph1" class="graph" transform="scale(1 1) rotate(0) translate(4 218)">
<title>Relay</title>
<polygon fill="white" stroke="white" points="-4,5 -4,-218 297,-218 297,5 -4,5"/>
<!-- Node1 -->
<g id="node1" class="node"><title>Node1</title>
<polygon fill="#bfbfbf" stroke="black" points="106.5,-0.5 106.5,-19.5 147.5,-19.5 147.5,-0.5 106.5,-0.5"/>
<text text-anchor="middle" x="127" y="-7.5" font-family="Helvetica,sans-Serif" font-size="10.00">Relay</text>
</g>
<!-- Node2 -->
<g id="node2" class="node"><title>Node2</title>
<a xlink:href="class_sensor_base.html" target="_top" xlink:title="SensorBase">
<polygon fill="white" stroke="black" points="0,-58.5 0,-77.5 70,-77.5 70,-58.5 0,-58.5"/>
<text text-anchor="middle" x="35" y="-65.5" font-family="Helvetica,sans-Serif" font-size="10.00">SensorBase</text>
</a>
</g>
<!-- Node2&#45;&gt;Node1 -->
<g id="edge2" class="edge"><title>Node2&#45;&gt;Node1</title>
<path fill="none" stroke="midnightblue" d="M52.3837,-52.7894C68.2866,-42.317 91.4379,-28.4147 107.869,-19.5852"/>
<polygon fill="midnightblue" stroke="midnightblue" points="50.2787,-49.9878 43.9635,-58.4948 54.2053,-55.7828 50.2787,-49.9878"/>
</g>
<!-- Node2&#45;&gt;Node1 -->
<g id="edge14" class="edge"><title>Node2&#45;&gt;Node1</title>
<path fill="none" stroke="midnightblue" d="M62.7615,-53.662C81.5438,-43.1005 104.99,-28.6622 117.923,-19.5852"/>
<polygon fill="midnightblue" stroke="midnightblue" points="61.0547,-50.6062 53.9822,-58.4948 64.4304,-56.7385 61.0547,-50.6062"/>
</g>
<!-- Node3 -->
<g id="node4" class="node"><title>Node3</title>
<a xlink:href="class_error_base.html" target="_top" xlink:title="ErrorBase">
<polygon fill="white" stroke="black" points="5,-116.5 5,-135.5 65,-135.5 65,-116.5 5,-116.5"/>
<text text-anchor="middle" x="35" y="-123.5" font-family="Helvetica,sans-Serif" font-size="10.00">ErrorBase</text>
</a>
</g>
<!-- Node3&#45;&gt;Node2 -->
<g id="edge4" class="edge"><title>Node3&#45;&gt;Node2</title>
<path fill="none" stroke="midnightblue" d="M35,-105.953C35,-96.2875 35,-85.0312 35,-77.5052"/>
<polygon fill="midnightblue" stroke="midnightblue" points="31.5001,-106.25 35,-116.25 38.5001,-106.25 31.5001,-106.25"/>
</g>
<!-- Node4 -->
<g id="node6" class="node"><title>Node4</title>
<a xlink:href="class_error.html" target="_top" xlink:title="Error">
<polygon fill="white" stroke="black" points="16,-194.5 16,-213.5 54,-213.5 54,-194.5 16,-194.5"/>
<text text-anchor="middle" x="35" y="-201.5" font-family="Helvetica,sans-Serif" font-size="10.00">Error</text>
</a>
</g>
<!-- Node4&#45;&gt;Node3 -->
<g id="edge6" class="edge"><title>Node4&#45;&gt;Node3</title>
<path fill="none" stroke="#9a32cd" stroke-dasharray="5,2" d="M35,-184.224C35,-168.697 35,-147.358 35,-135.616"/>
<polygon fill="#9a32cd" stroke="#9a32cd" points="31.5001,-184.282 35,-194.282 38.5001,-184.282 31.5001,-184.282"/>
<text text-anchor="middle" x="62.5" y="-168" font-family="Helvetica,sans-Serif" font-size="10.00"> _globalError</text>
<text text-anchor="middle" x="62.5" y="-157" font-family="Helvetica,sans-Serif" font-size="10.00">m_error</text>
</g>
<!-- Node5 -->
<g id="node8" class="node"><title>Node5</title>
<polygon fill="white" stroke="#bfbfbf" points="88.5,-58.5 88.5,-77.5 165.5,-77.5 165.5,-58.5 88.5,-58.5"/>
<text text-anchor="middle" x="127" y="-65.5" font-family="Helvetica,sans-Serif" font-size="10.00">ITableListener</text>
</g>
<!-- Node5&#45;&gt;Node1 -->
<g id="edge8" class="edge"><title>Node5&#45;&gt;Node1</title>
<path fill="none" stroke="midnightblue" d="M120.59,-48.2677C119.85,-38.5326 120.317,-27.113 121.991,-19.5052"/>
<polygon fill="midnightblue" stroke="midnightblue" points="117.131,-48.8081 121.938,-58.25 124.068,-47.8716 117.131,-48.8081"/>
</g>
<!-- Node5&#45;&gt;Node1 -->
<g id="edge16" class="edge"><title>Node5&#45;&gt;Node1</title>
<path fill="none" stroke="midnightblue" d="M133.41,-48.2677C134.15,-38.5326 133.683,-27.113 132.009,-19.5052"/>
<polygon fill="midnightblue" stroke="midnightblue" points="129.932,-47.8716 132.063,-58.25 136.869,-48.8081 129.932,-47.8716"/>
</g>
<!-- Node6 -->
<g id="node10" class="node"><title>Node6</title>
<a xlink:href="class_live_window_sendable.html" target="_top" xlink:title="LiveWindowSendable">
<polygon fill="white" stroke="black" points="184,-58.5 184,-77.5 292,-77.5 292,-58.5 184,-58.5"/>
<text text-anchor="middle" x="238" y="-65.5" font-family="Helvetica,sans-Serif" font-size="10.00">LiveWindowSendable</text>
</a>
</g>
<!-- Node6&#45;&gt;Node1 -->
<g id="edge10" class="edge"><title>Node6&#45;&gt;Node1</title>
<path fill="none" stroke="midnightblue" d="M206.927,-54.2342C184.382,-43.6273 155.294,-28.8273 138.99,-19.5852"/>
<polygon fill="midnightblue" stroke="midnightblue" points="205.587,-57.4706 216.132,-58.4948 208.527,-51.118 205.587,-57.4706"/>
</g>
<!-- Node6&#45;&gt;Node1 -->
<g id="edge18" class="edge"><title>Node6&#45;&gt;Node1</title>
<path fill="none" stroke="midnightblue" d="M217.244,-53.5715C197.346,-42.8033 167.783,-28.0493 147.839,-19.0393"/>
<polygon fill="midnightblue" stroke="midnightblue" points="215.706,-56.7203 226.151,-58.4948 219.092,-50.5939 215.706,-56.7203"/>
</g>
<!-- Node7 -->
<g id="node12" class="node"><title>Node7</title>
<a xlink:href="class_sendable.html" target="_top" xlink:title="Sendable">
<polygon fill="white" stroke="black" points="209.5,-116.5 209.5,-135.5 266.5,-135.5 266.5,-116.5 209.5,-116.5"/>
<text text-anchor="middle" x="238" y="-123.5" font-family="Helvetica,sans-Serif" font-size="10.00">Sendable</text>
</a>
</g>
<!-- Node7&#45;&gt;Node6 -->
<g id="edge12" class="edge"><title>Node7&#45;&gt;Node6</title>
<path fill="none" stroke="midnightblue" d="M238,-105.953C238,-96.2875 238,-85.0312 238,-77.5052"/>
<polygon fill="midnightblue" stroke="midnightblue" points="234.5,-106.25 238,-116.25 241.5,-106.25 234.5,-106.25"/>
</g>
</g>
</svg>
