<?xml version="1.0" encoding="UTF-8" standalone="no"?>
<!DOCTYPE svg PUBLIC "-//W3C//DTD SVG 1.1//EN"
 "http://www.w3.org/Graphics/SVG/1.1/DTD/svg11.dtd">
<!-- Generated by graphviz version 2.28.0 (20110507.0327)
 -->
<!-- Title: WaitForChildren Pages: 1 -->
<svg width="269pt" height="222pt"
 viewBox="0.00 0.00 269.00 222.00" xmlns="http://www.w3.org/2000/svg" xmlns:xlink="http://www.w3.org/1999/xlink">
<g id="graph1" class="graph" transform="scale(1 1) rotate(0) translate(4 218)">
<title>WaitForChildren</title>
<polygon fill="white" stroke="white" points="-4,5 -4,-218 266,-218 266,5 -4,5"/>
<!-- Node1 -->
<g id="node1" class="node"><title>Node1</title>
<polygon fill="#bfbfbf" stroke="black" points="79,-0.5 79,-19.5 165,-19.5 165,-0.5 79,-0.5"/>
<text text-anchor="middle" x="122" y="-7.5" font-family="Helvetica,sans-Serif" font-size="10.00">WaitForChildren</text>
</g>
<!-- Node2 -->
<g id="node2" class="node"><title>Node2</title>
<a xlink:href="class_command.html" target="_top" xlink:title="Command">
<polygon fill="white" stroke="black" points="91.5,-58.5 91.5,-77.5 152.5,-77.5 152.5,-58.5 91.5,-58.5"/>
<text text-anchor="middle" x="122" y="-65.5" font-family="Helvetica,sans-Serif" font-size="10.00">Command</text>
</a>
</g>
<!-- Node2&#45;&gt;Node1 -->
<g id="edge2" class="edge"><title>Node2&#45;&gt;Node1</title>
<path fill="none" stroke="midnightblue" d="M122,-47.953C122,-38.2875 122,-27.0312 122,-19.5052"/>
<polygon fill="midnightblue" stroke="midnightblue" points="118.5,-48.25 122,-58.25 125.5,-48.25 118.5,-48.25"/>
</g>
<!-- Node3 -->
<g id="node4" class="node"><title>Node3</title>
<a xlink:href="class_error_base.html" target="_top" xlink:title="ErrorBase">
<polygon fill="white" stroke="black" points="0,-116.5 0,-135.5 60,-135.5 60,-116.5 0,-116.5"/>
<text text-anchor="middle" x="30" y="-123.5" font-family="Helvetica,sans-Serif" font-size="10.00">ErrorBase</text>
</a>
</g>
<!-- Node3&#45;&gt;Node2 -->
<g id="edge4" class="edge"><title>Node3&#45;&gt;Node2</title>
<path fill="none" stroke="midnightblue" d="M52.8651,-111.082C70.1231,-100.577 93.2546,-86.4972 107.896,-77.5852"/>
<polygon fill="midnightblue" stroke="midnightblue" points="50.695,-108.306 43.9728,-116.495 54.3346,-114.285 50.695,-108.306"/>
</g>
<!-- Node4 -->
<g id="node6" class="node"><title>Node4</title>
<a xlink:href="class_error.html" target="_top" xlink:title="Error">
<polygon fill="white" stroke="black" points="11,-194.5 11,-213.5 49,-213.5 49,-194.5 11,-194.5"/>
<text text-anchor="middle" x="30" y="-201.5" font-family="Helvetica,sans-Serif" font-size="10.00">Error</text>
</a>
</g>
<!-- Node4&#45;&gt;Node3 -->
<g id="edge6" class="edge"><title>Node4&#45;&gt;Node3</title>
<path fill="none" stroke="#9a32cd" stroke-dasharray="5,2" d="M30,-184.224C30,-168.697 30,-147.358 30,-135.616"/>
<polygon fill="#9a32cd" stroke="#9a32cd" points="26.5001,-184.282 30,-194.282 33.5001,-184.282 26.5001,-184.282"/>
<text text-anchor="middle" x="57.5" y="-168" font-family="Helvetica,sans-Serif" font-size="10.00"> _globalError</text>
<text text-anchor="middle" x="57.5" y="-157" font-family="Helvetica,sans-Serif" font-size="10.00">m_error</text>
</g>
<!-- Node5 -->
<g id="node8" class="node"><title>Node5</title>
<a xlink:href="class_named_sendable.html" target="_top" xlink:title="NamedSendable">
<polygon fill="white" stroke="black" points="78,-116.5 78,-135.5 166,-135.5 166,-116.5 78,-116.5"/>
<text text-anchor="middle" x="122" y="-123.5" font-family="Helvetica,sans-Serif" font-size="10.00">NamedSendable</text>
</a>
</g>
<!-- Node5&#45;&gt;Node2 -->
<g id="edge8" class="edge"><title>Node5&#45;&gt;Node2</title>
<path fill="none" stroke="midnightblue" d="M122,-105.953C122,-96.2875 122,-85.0312 122,-77.5052"/>
<polygon fill="midnightblue" stroke="midnightblue" points="118.5,-106.25 122,-116.25 125.5,-106.25 118.5,-106.25"/>
</g>
<!-- Node6 -->
<g id="node10" class="node"><title>Node6</title>
<a xlink:href="class_sendable.html" target="_top" xlink:title="Sendable">
<polygon fill="white" stroke="black" points="93.5,-194.5 93.5,-213.5 150.5,-213.5 150.5,-194.5 93.5,-194.5"/>
<text text-anchor="middle" x="122" y="-201.5" font-family="Helvetica,sans-Serif" font-size="10.00">Sendable</text>
</a>
</g>
<!-- Node6&#45;&gt;Node5 -->
<g id="edge10" class="edge"><title>Node6&#45;&gt;Node5</title>
<path fill="none" stroke="midnightblue" d="M122,-184.224C122,-168.697 122,-147.358 122,-135.616"/>
<polygon fill="midnightblue" stroke="midnightblue" points="118.5,-184.282 122,-194.282 125.5,-184.282 118.5,-184.282"/>
</g>
<!-- Node7 -->
<g id="node12" class="node"><title>Node7</title>
<polygon fill="white" stroke="#bfbfbf" points="184.5,-116.5 184.5,-135.5 261.5,-135.5 261.5,-116.5 184.5,-116.5"/>
<text text-anchor="middle" x="223" y="-123.5" font-family="Helvetica,sans-Serif" font-size="10.00">ITableListener</text>
</g>
<!-- Node7&#45;&gt;Node2 -->
<g id="edge12" class="edge"><title>Node7&#45;&gt;Node2</title>
<path fill="none" stroke="midnightblue" d="M198.684,-111.518C179.659,-100.969 153.781,-86.621 137.484,-77.5852"/>
<polygon fill="midnightblue" stroke="midnightblue" points="197.217,-114.707 207.66,-116.495 200.612,-108.585 197.217,-114.707"/>
</g>
</g>
</svg>
