<?xml version="1.0" encoding="UTF-8" standalone="no"?>
<!DOCTYPE svg PUBLIC "-//W3C//DTD SVG 1.1//EN"
 "http://www.w3.org/Graphics/SVG/1.1/DTD/svg11.dtd">
<!-- Generated by graphviz version 2.28.0 (20110507.0327)
 -->
<!-- Title: Command::InitTable Pages: 1 -->
<svg width="258pt" height="66pt"
 viewBox="0.00 0.00 258.00 66.00" xmlns="http://www.w3.org/2000/svg" xmlns:xlink="http://www.w3.org/1999/xlink">
<g id="graph1" class="graph" transform="scale(1 1) rotate(0) translate(4 62)">
<title>Command::InitTable</title>
<polygon fill="white" stroke="white" points="-4,5 -4,-62 255,-62 255,5 -4,5"/>
<!-- Node1 -->
<g id="node1" class="node"><title>Node1</title>
<polygon fill="#bfbfbf" stroke="black" points="0.5,-19.5 0.5,-38.5 103.5,-38.5 103.5,-19.5 0.5,-19.5"/>
<text text-anchor="middle" x="52" y="-26.5" font-family="Helvetica,sans-Serif" font-size="10.00">Command::InitTable</text>
</g>
<!-- Node2 -->
<g id="node3" class="node"><title>Node2</title>
<a xlink:href="class_command.html#a68535903fc61c641f4ab2fdbd11d4257" target="_top" xlink:title="Command::GetName">
<polygon fill="white" stroke="black" points="141,-38.5 141,-57.5 249,-57.5 249,-38.5 141,-38.5"/>
<text text-anchor="middle" x="195" y="-45.5" font-family="Helvetica,sans-Serif" font-size="10.00">Command::GetName</text>
</a>
</g>
<!-- Node1&#45;&gt;Node2 -->
<g id="edge2" class="edge"><title>Node1&#45;&gt;Node2</title>
<path fill="none" stroke="midnightblue" d="M103.506,-35.8058C112.443,-37.01 121.847,-38.2772 131.075,-39.5208"/>
<polygon fill="midnightblue" stroke="midnightblue" points="130.613,-42.99 140.991,-40.8569 131.548,-36.0527 130.613,-42.99"/>
</g>
<!-- Node3 -->
<g id="node5" class="node"><title>Node3</title>
<a xlink:href="class_command.html#a2885369af7a278b59c6941b1df23ac86" target="_top" xlink:title="Command::IsRunning">
<polygon fill="white" stroke="black" points="140,-0.5 140,-19.5 250,-19.5 250,-0.5 140,-0.5"/>
<text text-anchor="middle" x="195" y="-7.5" font-family="Helvetica,sans-Serif" font-size="10.00">Command::IsRunning</text>
</a>
</g>
<!-- Node1&#45;&gt;Node3 -->
<g id="edge4" class="edge"><title>Node1&#45;&gt;Node3</title>
<path fill="none" stroke="midnightblue" d="M103.506,-22.1942C111.912,-21.0615 120.731,-19.8731 129.429,-18.7011"/>
<polygon fill="midnightblue" stroke="midnightblue" points="130.109,-22.1412 139.552,-17.337 129.174,-15.2039 130.109,-22.1412"/>
</g>
</g>
</svg>
