<?xml version="1.0" encoding="UTF-8" standalone="no"?>
<!DOCTYPE svg PUBLIC "-//W3C//DTD SVG 1.1//EN"
 "http://www.w3.org/Graphics/SVG/1.1/DTD/svg11.dtd">
<!-- Generated by graphviz version 2.28.0 (20110507.0327)
 -->
<!-- Title: CANJaguar::SetSpeedReference Pages: 1 -->
<svg width="672pt" height="199pt"
 viewBox="0.00 0.00 672.00 199.00" xmlns="http://www.w3.org/2000/svg" xmlns:xlink="http://www.w3.org/1999/xlink">
<g id="graph1" class="graph" transform="scale(1 1) rotate(0) translate(4 195)">
<title>CANJaguar::SetSpeedReference</title>
<polygon fill="white" stroke="white" points="-4,5 -4,-195 669,-195 669,5 -4,5"/>
<!-- Node1 -->
<g id="node1" class="node"><title>Node1</title>
<polygon fill="#bfbfbf" stroke="black" points="0,-76.5 0,-95.5 158,-95.5 158,-76.5 0,-76.5"/>
<text text-anchor="middle" x="79" y="-83.5" font-family="Helvetica,sans-Serif" font-size="10.00">CANJaguar::SetSpeedReference</text>
</g>
<!-- Node2 -->
<g id="node3" class="node"><title>Node2</title>
<a xlink:href="class_c_a_n_jaguar.html#a97fe9cb246f90060495c808e31070650" target="_top" xlink:title="CANJaguar::verify">
<polygon fill="white" stroke="black" points="219.5,-152.5 219.5,-171.5 312.5,-171.5 312.5,-152.5 219.5,-152.5"/>
<text text-anchor="middle" x="266" y="-159.5" font-family="Helvetica,sans-Serif" font-size="10.00">CANJaguar::verify</text>
</a>
</g>
<!-- Node1&#45;&gt;Node2 -->
<g id="edge2" class="edge"><title>Node1&#45;&gt;Node2</title>
<path fill="none" stroke="midnightblue" d="M105.475,-100.61C128.147,-113.154 162.501,-131.051 194,-143 203.425,-146.575 213.795,-149.753 223.628,-152.439"/>
<polygon fill="midnightblue" stroke="midnightblue" points="106.951,-97.4257 96.5156,-95.5949 103.532,-103.534 106.951,-97.4257"/>
</g>
<!-- Node6 -->
<g id="node11" class="node"><title>Node6</title>
<a xlink:href="class_c_a_n_jaguar.html#ac2d2c69ce26f0ccbf4191349e4eba055" target="_top" xlink:title="CANJaguar::SetPercentMode">
<polygon fill="white" stroke="black" points="194,-114.5 194,-133.5 338,-133.5 338,-114.5 194,-114.5"/>
<text text-anchor="middle" x="266" y="-121.5" font-family="Helvetica,sans-Serif" font-size="10.00">CANJaguar::SetPercentMode</text>
</a>
</g>
<!-- Node1&#45;&gt;Node6 -->
<g id="edge10" class="edge"><title>Node1&#45;&gt;Node6</title>
<path fill="none" stroke="midnightblue" d="M136.52,-97.6095C162.831,-103.014 193.743,-109.364 218.652,-114.48"/>
<polygon fill="midnightblue" stroke="midnightblue" points="137.183,-94.1727 126.683,-95.589 135.775,-101.03 137.183,-94.1727"/>
</g>
<!-- Node8 -->
<g id="node15" class="node"><title>Node8</title>
<a xlink:href="class_c_a_n_jaguar.html#ae0b07bf7199611ea8e2e04109b08a3ad" target="_top" xlink:title="CANJaguar::SetCurrentMode">
<polygon fill="white" stroke="black" points="195,-76.5 195,-95.5 337,-95.5 337,-76.5 195,-76.5"/>
<text text-anchor="middle" x="266" y="-83.5" font-family="Helvetica,sans-Serif" font-size="10.00">CANJaguar::SetCurrentMode</text>
</a>
</g>
<!-- Node1&#45;&gt;Node8 -->
<g id="edge14" class="edge"><title>Node1&#45;&gt;Node8</title>
<path fill="none" stroke="midnightblue" d="M168.196,-86C177.096,-86 186.049,-86 194.725,-86"/>
<polygon fill="midnightblue" stroke="midnightblue" points="168.189,-82.5001 158.189,-86 168.188,-89.5001 168.189,-82.5001"/>
</g>
<!-- Node9 -->
<g id="node17" class="node"><title>Node9</title>
<a xlink:href="class_c_a_n_jaguar.html#aa02549873d5551b00d3f2bdb08709e5a" target="_top" xlink:title="CANJaguar::SetSpeedMode">
<polygon fill="white" stroke="black" points="197,-38.5 197,-57.5 335,-57.5 335,-38.5 197,-38.5"/>
<text text-anchor="middle" x="266" y="-45.5" font-family="Helvetica,sans-Serif" font-size="10.00">CANJaguar::SetSpeedMode</text>
</a>
</g>
<!-- Node1&#45;&gt;Node9 -->
<g id="edge16" class="edge"><title>Node1&#45;&gt;Node9</title>
<path fill="none" stroke="midnightblue" d="M136.52,-74.3905C162.831,-68.986 193.743,-62.6365 218.652,-57.5201"/>
<polygon fill="midnightblue" stroke="midnightblue" points="135.775,-70.9704 126.683,-76.411 137.183,-77.8273 135.775,-70.9704"/>
</g>
<!-- Node10 -->
<g id="node19" class="node"><title>Node10</title>
<a xlink:href="class_c_a_n_jaguar.html#a75fc8ed9ed60a38e2932155f958cdf34" target="_top" xlink:title="CANJaguar::SetVoltageMode">
<polygon fill="white" stroke="black" points="194.5,-0.5 194.5,-19.5 337.5,-19.5 337.5,-0.5 194.5,-0.5"/>
<text text-anchor="middle" x="266" y="-7.5" font-family="Helvetica,sans-Serif" font-size="10.00">CANJaguar::SetVoltageMode</text>
</a>
</g>
<!-- Node1&#45;&gt;Node10 -->
<g id="edge18" class="edge"><title>Node1&#45;&gt;Node10</title>
<path fill="none" stroke="midnightblue" d="M105.475,-71.3898C128.147,-58.8459 162.501,-40.9487 194,-29 203.425,-25.4247 213.795,-22.2467 223.628,-19.5612"/>
<polygon fill="midnightblue" stroke="midnightblue" points="103.532,-68.4663 96.5156,-76.4051 106.951,-74.5743 103.532,-68.4663"/>
</g>
<!-- Node3 -->
<g id="node5" class="node"><title>Node3</title>
<a xlink:href="class_c_a_n_jaguar.html#a3a22b02ece406993619f993b1e09012a" target="_top" xlink:title="CANJaguar::Set">
<polygon fill="white" stroke="black" points="391,-152.5 391,-171.5 477,-171.5 477,-152.5 391,-152.5"/>
<text text-anchor="middle" x="434" y="-159.5" font-family="Helvetica,sans-Serif" font-size="10.00">CANJaguar::Set</text>
</a>
</g>
<!-- Node2&#45;&gt;Node3 -->
<g id="edge4" class="edge"><title>Node2&#45;&gt;Node3</title>
<path fill="none" stroke="midnightblue" d="M323.071,-162C345.205,-162 370.204,-162 390.764,-162"/>
<polygon fill="midnightblue" stroke="midnightblue" points="322.8,-158.5 312.8,-162 322.8,-165.5 322.8,-158.5"/>
</g>
<!-- Node4 -->
<g id="node7" class="node"><title>Node4</title>
<a xlink:href="class_c_a_n_jaguar.html#a2355d55f42083ab82870c79f742620e4" target="_top" xlink:title="CANJaguar::PIDWrite">
<polygon fill="white" stroke="black" points="542,-171.5 542,-190.5 652,-190.5 652,-171.5 542,-171.5"/>
<text text-anchor="middle" x="597" y="-178.5" font-family="Helvetica,sans-Serif" font-size="10.00">CANJaguar::PIDWrite</text>
</a>
</g>
<!-- Node3&#45;&gt;Node4 -->
<g id="edge6" class="edge"><title>Node3&#45;&gt;Node4</title>
<path fill="none" stroke="midnightblue" d="M487.315,-168.174C504.771,-170.234 524.251,-172.533 541.843,-174.609"/>
<polygon fill="midnightblue" stroke="midnightblue" points="487.642,-164.688 477.301,-166.992 486.822,-171.64 487.642,-164.688"/>
</g>
<!-- Node5 -->
<g id="node9" class="node"><title>Node5</title>
<a xlink:href="class_c_a_n_jaguar_test.html#a3c9026e62eb65e2d497bb7bbfaded297" target="_top" xlink:title="CANJaguarTest::SetJaguar">
<polygon fill="white" stroke="black" points="530,-133.5 530,-152.5 664,-152.5 664,-133.5 530,-133.5"/>
<text text-anchor="middle" x="597" y="-140.5" font-family="Helvetica,sans-Serif" font-size="10.00">CANJaguarTest::SetJaguar</text>
</a>
</g>
<!-- Node3&#45;&gt;Node5 -->
<g id="edge8" class="edge"><title>Node3&#45;&gt;Node5</title>
<path fill="none" stroke="midnightblue" d="M487.421,-155.814C501.007,-154.21 515.812,-152.463 529.996,-150.789"/>
<polygon fill="midnightblue" stroke="midnightblue" points="486.822,-152.36 477.301,-157.008 487.642,-159.312 486.822,-152.36"/>
</g>
<!-- Node7 -->
<g id="node13" class="node"><title>Node7</title>
<a xlink:href="class_c_a_n_jaguar.html#aec1593556141870268f5e48e38537390" target="_top" xlink:title="CANJaguar::CANJaguar">
<polygon fill="white" stroke="black" points="374,-114.5 374,-133.5 494,-133.5 494,-114.5 374,-114.5"/>
<text text-anchor="middle" x="434" y="-121.5" font-family="Helvetica,sans-Serif" font-size="10.00">CANJaguar::CANJaguar</text>
</a>
</g>
<!-- Node6&#45;&gt;Node7 -->
<g id="edge12" class="edge"><title>Node6&#45;&gt;Node7</title>
<path fill="none" stroke="midnightblue" d="M348.426,-124C357.027,-124 365.651,-124 373.927,-124"/>
<polygon fill="midnightblue" stroke="midnightblue" points="348.362,-120.5 338.362,-124 348.362,-127.5 348.362,-120.5"/>
</g>
</g>
</svg>
