<?xml version="1.0" encoding="UTF-8" standalone="no"?>
<!DOCTYPE svg PUBLIC "-//W3C//DTD SVG 1.1//EN"
 "http://www.w3.org/Graphics/SVG/1.1/DTD/svg11.dtd">
<!-- Generated by graphviz version 2.28.0 (20110507.0327)
 -->
<!-- Title: Encoder::GetDirection Pages: 1 -->
<svg width="428pt" height="47pt"
 viewBox="0.00 0.00 428.00 47.00" xmlns="http://www.w3.org/2000/svg" xmlns:xlink="http://www.w3.org/1999/xlink">
<g id="graph1" class="graph" transform="scale(1 1) rotate(0) translate(4 43)">
<title>Encoder::GetDirection</title>
<polygon fill="white" stroke="white" points="-4,5 -4,-43 425,-43 425,5 -4,5"/>
<!-- Node1 -->
<g id="node1" class="node"><title>Node1</title>
<polygon fill="#bfbfbf" stroke="black" points="0.5,-19.5 0.5,-38.5 113.5,-38.5 113.5,-19.5 0.5,-19.5"/>
<text text-anchor="middle" x="57" y="-26.5" font-family="Helvetica,sans-Serif" font-size="10.00">Encoder::GetDirection</text>
</g>
<!-- Node2 -->
<g id="node3" class="node"><title>Node2</title>
<a xlink:href="class_error_base.html#a05790f219c9e436a09752f73f7344024" target="_top" xlink:title="Check if the current error code represents a fatal error. ">
<polygon fill="white" stroke="black" points="296,-19.5 296,-38.5 420,-38.5 420,-19.5 296,-19.5"/>
<text text-anchor="middle" x="358" y="-26.5" font-family="Helvetica,sans-Serif" font-size="10.00">ErrorBase::StatusIsFatal</text>
</a>
</g>
<!-- Node1&#45;&gt;Node2 -->
<g id="edge2" class="edge"><title>Node1&#45;&gt;Node2</title>
<path fill="none" stroke="midnightblue" d="M113.539,-29C162.067,-29 232.807,-29 285.543,-29"/>
<polygon fill="midnightblue" stroke="midnightblue" points="285.838,-32.5001 295.838,-29 285.838,-25.5001 285.838,-32.5001"/>
</g>
<!-- Node3 -->
<g id="node5" class="node"><title>Node3</title>
<a xlink:href="class_counter.html#acdfa2215fb973249a5f0d2a9f2f3c6b6" target="_top" xlink:title="Counter::GetDirection">
<polygon fill="white" stroke="black" points="150,-0.5 150,-19.5 260,-19.5 260,-0.5 150,-0.5"/>
<text text-anchor="middle" x="205" y="-7.5" font-family="Helvetica,sans-Serif" font-size="10.00">Counter::GetDirection</text>
</a>
</g>
<!-- Node1&#45;&gt;Node3 -->
<g id="edge4" class="edge"><title>Node1&#45;&gt;Node3</title>
<path fill="none" stroke="midnightblue" d="M113.613,-21.7627C122.185,-20.6471 131.097,-19.4874 139.837,-18.3499"/>
<polygon fill="midnightblue" stroke="midnightblue" points="140.524,-21.7902 149.988,-17.0289 139.62,-14.8488 140.524,-21.7902"/>
</g>
<!-- Node3&#45;&gt;Node2 -->
<g id="edge6" class="edge"><title>Node3&#45;&gt;Node2</title>
<path fill="none" stroke="midnightblue" d="M260.088,-16.8058C268.421,-17.8543 277.133,-18.9505 285.771,-20.0374"/>
<polygon fill="midnightblue" stroke="midnightblue" points="285.49,-23.5296 295.849,-21.3055 286.364,-16.5843 285.49,-23.5296"/>
</g>
</g>
</svg>
