<?xml version="1.0" encoding="UTF-8" standalone="no"?>
<!DOCTYPE svg PUBLIC "-//W3C//DTD SVG 1.1//EN"
 "http://www.w3.org/Graphics/SVG/1.1/DTD/svg11.dtd">
<!-- Generated by graphviz version 2.28.0 (20110507.0327)
 -->
<!-- Title: PIDOutput Pages: 1 -->
<svg width="478pt" height="196pt"
 viewBox="0.00 0.00 478.00 196.00" xmlns="http://www.w3.org/2000/svg" xmlns:xlink="http://www.w3.org/1999/xlink">
<g id="graph1" class="graph" transform="scale(1 1) rotate(0) translate(4 192)">
<title>PIDOutput</title>
<polygon fill="white" stroke="white" points="-4,5 -4,-192 475,-192 475,5 -4,5"/>
<!-- Node1 -->
<g id="node1" class="node"><title>Node1</title>
<polygon fill="#bfbfbf" stroke="black" points="156,-168.5 156,-187.5 218,-187.5 218,-168.5 156,-168.5"/>
<text text-anchor="middle" x="187" y="-175.5" font-family="Helvetica,sans-Serif" font-size="10.00">PIDOutput</text>
</g>
<!-- Node2 -->
<g id="node3" class="node"><title>Node2</title>
<a xlink:href="class_p_i_d_command.html" target="_top" xlink:title="PIDCommand">
<polygon fill="white" stroke="black" points="-0.5,-112.5 -0.5,-131.5 76.5,-131.5 76.5,-112.5 -0.5,-112.5"/>
<text text-anchor="middle" x="38" y="-119.5" font-family="Helvetica,sans-Serif" font-size="10.00">PIDCommand</text>
</a>
</g>
<!-- Node1&#45;&gt;Node2 -->
<g id="edge2" class="edge"><title>Node1&#45;&gt;Node2</title>
<path fill="none" stroke="midnightblue" d="M153.629,-164.906C125.616,-154.754 86.3044,-140.506 61.499,-131.516"/>
<polygon fill="midnightblue" stroke="midnightblue" points="152.796,-168.327 163.391,-168.444 155.181,-161.746 152.796,-168.327"/>
</g>
<!-- Node3 -->
<g id="node5" class="node"><title>Node3</title>
<a xlink:href="class_p_i_d_subsystem.html" target="_top" xlink:title="PIDSubsystem">
<polygon fill="white" stroke="black" points="95,-112.5 95,-131.5 177,-131.5 177,-112.5 95,-112.5"/>
<text text-anchor="middle" x="136" y="-119.5" font-family="Helvetica,sans-Serif" font-size="10.00">PIDSubsystem</text>
</a>
</g>
<!-- Node1&#45;&gt;Node3 -->
<g id="edge4" class="edge"><title>Node1&#45;&gt;Node3</title>
<path fill="none" stroke="midnightblue" d="M171.622,-160.718C162.633,-151.2 151.641,-139.561 144.265,-131.751"/>
<polygon fill="midnightblue" stroke="midnightblue" points="169.168,-163.216 178.578,-168.083 174.257,-158.41 169.168,-163.216"/>
</g>
<!-- Node4 -->
<g id="node7" class="node"><title>Node4</title>
<a xlink:href="class_speed_controller.html" target="_top" xlink:title="SpeedController">
<polygon fill="white" stroke="black" points="195,-112.5 195,-131.5 281,-131.5 281,-112.5 195,-112.5"/>
<text text-anchor="middle" x="238" y="-119.5" font-family="Helvetica,sans-Serif" font-size="10.00">SpeedController</text>
</a>
</g>
<!-- Node1&#45;&gt;Node4 -->
<g id="edge30" class="edge"><title>Node1&#45;&gt;Node4</title>
<path fill="none" stroke="midnightblue" d="M196.612,-160.144C204.638,-150.736 215.732,-139.405 224.604,-131.751"/>
<polygon fill="midnightblue" stroke="midnightblue" points="193.774,-158.089 190.255,-168.083 199.238,-162.465 193.774,-158.089"/>
</g>
<!-- Node1&#45;&gt;Node4 -->
<g id="edge6" class="edge"><title>Node1&#45;&gt;Node4</title>
<path fill="none" stroke="midnightblue" d="M207.773,-161.537C217.897,-151.909 228.927,-139.869 234.806,-131.834"/>
<polygon fill="midnightblue" stroke="midnightblue" points="205.353,-159.007 200.309,-168.324 210.062,-164.186 205.353,-159.007"/>
</g>
<!-- Node5 -->
<g id="node9" class="node"><title>Node5</title>
<a xlink:href="class_c_a_n_speed_controller.html" target="_top" xlink:title="CANSpeedController">
<polygon fill="white" stroke="black" points="30,-56.5 30,-75.5 136,-75.5 136,-56.5 30,-56.5"/>
<text text-anchor="middle" x="83" y="-63.5" font-family="Helvetica,sans-Serif" font-size="10.00">CANSpeedController</text>
</a>
</g>
<!-- Node4&#45;&gt;Node5 -->
<g id="edge8" class="edge"><title>Node4&#45;&gt;Node5</title>
<path fill="none" stroke="midnightblue" d="M203.668,-109.039C174.503,-98.8786 133.363,-84.5457 107.445,-75.5164"/>
<polygon fill="midnightblue" stroke="midnightblue" points="202.845,-112.459 213.44,-112.444 205.148,-105.848 202.845,-112.459"/>
</g>
<!-- Node8 -->
<g id="node15" class="node"><title>Node8</title>
<a xlink:href="class_jaguar.html" target="_top" xlink:title="Jaguar">
<polygon fill="white" stroke="black" points="154.5,-56.5 154.5,-75.5 199.5,-75.5 199.5,-56.5 154.5,-56.5"/>
<text text-anchor="middle" x="177" y="-63.5" font-family="Helvetica,sans-Serif" font-size="10.00">Jaguar</text>
</a>
</g>
<!-- Node4&#45;&gt;Node8 -->
<g id="edge14" class="edge"><title>Node4&#45;&gt;Node8</title>
<path fill="none" stroke="midnightblue" d="M215.062,-106.101C202.979,-96.3824 189.342,-84.0269 181.83,-75.8339"/>
<polygon fill="midnightblue" stroke="midnightblue" points="213.038,-108.96 223.084,-112.324 217.328,-103.429 213.038,-108.96"/>
</g>
<!-- Node4&#45;&gt;Node8 -->
<g id="edge16" class="edge"><title>Node4&#45;&gt;Node8</title>
<path fill="none" stroke="midnightblue" d="M225.86,-104.718C216.038,-95.1997 202.516,-83.5608 192.016,-75.7511"/>
<polygon fill="midnightblue" stroke="midnightblue" points="223.589,-107.401 233.093,-112.083 228.584,-102.496 223.589,-107.401"/>
</g>
<!-- Node9 -->
<g id="node18" class="node"><title>Node9</title>
<a xlink:href="class_talon.html" target="_top" xlink:title="Talon">
<polygon fill="white" stroke="black" points="218,-56.5 218,-75.5 258,-75.5 258,-56.5 218,-56.5"/>
<text text-anchor="middle" x="238" y="-63.5" font-family="Helvetica,sans-Serif" font-size="10.00">Talon</text>
</a>
</g>
<!-- Node4&#45;&gt;Node9 -->
<g id="edge18" class="edge"><title>Node4&#45;&gt;Node9</title>
<path fill="none" stroke="midnightblue" d="M231.528,-102.101C230.896,-93.1357 231.343,-82.8579 232.869,-75.7511"/>
<polygon fill="midnightblue" stroke="midnightblue" points="228.066,-102.622 232.834,-112.083 235.007,-101.713 228.066,-102.622"/>
</g>
<!-- Node4&#45;&gt;Node9 -->
<g id="edge20" class="edge"><title>Node4&#45;&gt;Node9</title>
<path fill="none" stroke="midnightblue" d="M244.472,-102.101C245.104,-93.1357 244.657,-82.8579 243.131,-75.7511"/>
<polygon fill="midnightblue" stroke="midnightblue" points="240.993,-101.713 243.166,-112.083 247.934,-102.622 240.993,-101.713"/>
</g>
<!-- Node10 -->
<g id="node21" class="node"><title>Node10</title>
<a xlink:href="class_talon_s_r_x.html" target="_top" xlink:title="TalonSRX">
<polygon fill="white" stroke="black" points="276.5,-56.5 276.5,-75.5 335.5,-75.5 335.5,-56.5 276.5,-56.5"/>
<text text-anchor="middle" x="306" y="-63.5" font-family="Helvetica,sans-Serif" font-size="10.00">TalonSRX</text>
</a>
</g>
<!-- Node4&#45;&gt;Node10 -->
<g id="edge22" class="edge"><title>Node4&#45;&gt;Node10</title>
<path fill="none" stroke="midnightblue" d="M256.762,-106.101C269,-96.3824 284.559,-84.0269 294.876,-75.8339"/>
<polygon fill="midnightblue" stroke="midnightblue" points="254.58,-103.364 248.925,-112.324 258.933,-108.846 254.58,-103.364"/>
</g>
<!-- Node11 -->
<g id="node23" class="node"><title>Node11</title>
<a xlink:href="class_victor.html" target="_top" xlink:title="Victor">
<polygon fill="white" stroke="black" points="354,-56.5 354,-75.5 396,-75.5 396,-56.5 354,-56.5"/>
<text text-anchor="middle" x="375" y="-63.5" font-family="Helvetica,sans-Serif" font-size="10.00">Victor</text>
</a>
</g>
<!-- Node4&#45;&gt;Node11 -->
<g id="edge24" class="edge"><title>Node4&#45;&gt;Node11</title>
<path fill="none" stroke="midnightblue" d="M263.924,-108.497C290.075,-97.5605 329.671,-82.114 353.977,-73.4826"/>
<polygon fill="midnightblue" stroke="midnightblue" points="262.458,-105.316 254.619,-112.444 265.192,-111.76 262.458,-105.316"/>
</g>
<!-- Node4&#45;&gt;Node11 -->
<g id="edge26" class="edge"><title>Node4&#45;&gt;Node11</title>
<path fill="none" stroke="midnightblue" d="M274.42,-108.906C301.72,-98.7536 337.646,-84.5063 358.473,-75.5164"/>
<polygon fill="midnightblue" stroke="midnightblue" points="272.975,-105.708 264.797,-112.444 275.39,-112.278 272.975,-105.708"/>
</g>
<!-- Node12 -->
<g id="node26" class="node"><title>Node12</title>
<a xlink:href="class_victor_s_p.html" target="_top" xlink:title="VictorSP">
<polygon fill="white" stroke="black" points="414,-56.5 414,-75.5 470,-75.5 470,-56.5 414,-56.5"/>
<text text-anchor="middle" x="442" y="-63.5" font-family="Helvetica,sans-Serif" font-size="10.00">VictorSP</text>
</a>
</g>
<!-- Node4&#45;&gt;Node12 -->
<g id="edge28" class="edge"><title>Node4&#45;&gt;Node12</title>
<path fill="none" stroke="midnightblue" d="M280.057,-109.867C320.057,-99.279 379.121,-83.6445 413.769,-74.473"/>
<polygon fill="midnightblue" stroke="midnightblue" points="279.096,-106.501 270.324,-112.444 280.887,-113.268 279.096,-106.501"/>
</g>
<!-- Node6 -->
<g id="node11" class="node"><title>Node6</title>
<a xlink:href="class_c_a_n_jaguar.html" target="_top" xlink:title="CANJaguar">
<polygon fill="white" stroke="black" points="10.5,-0.5 10.5,-19.5 75.5,-19.5 75.5,-0.5 10.5,-0.5"/>
<text text-anchor="middle" x="43" y="-7.5" font-family="Helvetica,sans-Serif" font-size="10.00">CANJaguar</text>
</a>
</g>
<!-- Node5&#45;&gt;Node6 -->
<g id="edge10" class="edge"><title>Node5&#45;&gt;Node6</title>
<path fill="none" stroke="midnightblue" d="M70.3003,-47.8554C63.374,-38.5048 55.0937,-27.3265 49.4823,-19.7511"/>
<polygon fill="midnightblue" stroke="midnightblue" points="67.63,-50.1307 76.3948,-56.083 73.255,-45.9641 67.63,-50.1307"/>
</g>
<!-- Node7 -->
<g id="node13" class="node"><title>Node7</title>
<a xlink:href="class_c_a_n_talon.html" target="_top" xlink:title="CANTalon">
<polygon fill="white" stroke="black" points="94,-0.5 94,-19.5 154,-19.5 154,-0.5 94,-0.5"/>
<text text-anchor="middle" x="124" y="-7.5" font-family="Helvetica,sans-Serif" font-size="10.00">CANTalon</text>
</a>
</g>
<!-- Node5&#45;&gt;Node7 -->
<g id="edge12" class="edge"><title>Node5&#45;&gt;Node7</title>
<path fill="none" stroke="midnightblue" d="M96.0172,-47.8554C103.117,-38.5048 111.604,-27.3265 117.356,-19.7511"/>
<polygon fill="midnightblue" stroke="midnightblue" points="93.0299,-46.002 89.7703,-56.083 98.605,-50.235 93.0299,-46.002"/>
</g>
</g>
</svg>
