<?xml version="1.0" encoding="UTF-8" standalone="no"?>
<!DOCTYPE svg PUBLIC "-//W3C//DTD SVG 1.1//EN"
 "http://www.w3.org/Graphics/SVG/1.1/DTD/svg11.dtd">
<!-- Generated by graphviz version 2.28.0 (20110507.0327)
 -->
<!-- Title: RobotBase Pages: 1 -->
<svg width="265pt" height="308pt"
 viewBox="0.00 0.00 265.00 308.00" xmlns="http://www.w3.org/2000/svg" xmlns:xlink="http://www.w3.org/1999/xlink">
<g id="graph1" class="graph" transform="scale(1 1) rotate(0) translate(4 304)">
<title>RobotBase</title>
<polygon fill="white" stroke="white" points="-4,5 -4,-304 262,-304 262,5 -4,5"/>
<!-- Node1 -->
<g id="node1" class="node"><title>Node1</title>
<polygon fill="#bfbfbf" stroke="black" points="156.5,-0.5 156.5,-19.5 221.5,-19.5 221.5,-0.5 156.5,-0.5"/>
<text text-anchor="middle" x="189" y="-7.5" font-family="Helvetica,sans-Serif" font-size="10.00">RobotBase</text>
</g>
<!-- Node2 -->
<g id="node2" class="node"><title>Node2</title>
<a xlink:href="class_task.html" target="_top" xlink:title="Task">
<polygon fill="white" stroke="black" points="199,-106.5 199,-125.5 237,-125.5 237,-106.5 199,-106.5"/>
<text text-anchor="middle" x="218" y="-113.5" font-family="Helvetica,sans-Serif" font-size="10.00">Task</text>
</a>
</g>
<!-- Node2&#45;&gt;Node1 -->
<g id="edge2" class="edge"><title>Node2&#45;&gt;Node1</title>
<path fill="none" stroke="#9a32cd" stroke-dasharray="5,2" d="M216.305,-96.0942C214.474,-80.2267 210.848,-57.1484 204,-38 201.689,-31.5372 197.939,-24.7872 194.766,-19.6529"/>
<polygon fill="#9a32cd" stroke="#9a32cd" points="212.841,-96.6231 217.341,-106.215 219.804,-95.9101 212.841,-96.6231"/>
<text text-anchor="middle" x="233" y="-75.5" font-family="Helvetica,sans-Serif" font-size="10.00"> m_task</text>
</g>
<!-- Node3 -->
<g id="node4" class="node"><title>Node3</title>
<a xlink:href="class_error_base.html" target="_top" xlink:title="ErrorBase">
<polygon fill="white" stroke="black" points="172,-202.5 172,-221.5 232,-221.5 232,-202.5 172,-202.5"/>
<text text-anchor="middle" x="202" y="-209.5" font-family="Helvetica,sans-Serif" font-size="10.00">ErrorBase</text>
</a>
</g>
<!-- Node3&#45;&gt;Node2 -->
<g id="edge4" class="edge"><title>Node3&#45;&gt;Node2</title>
<path fill="none" stroke="midnightblue" d="M205.162,-192.424C208.603,-172.206 213.958,-140.748 216.527,-125.654"/>
<polygon fill="midnightblue" stroke="midnightblue" points="201.704,-191.88 203.477,-202.325 208.605,-193.054 201.704,-191.88"/>
</g>
<!-- Node6 -->
<g id="node10" class="node"><title>Node6</title>
<a xlink:href="class_sensor_base.html" target="_top" xlink:title="SensorBase">
<polygon fill="white" stroke="black" points="120,-144.5 120,-163.5 190,-163.5 190,-144.5 120,-144.5"/>
<text text-anchor="middle" x="155" y="-151.5" font-family="Helvetica,sans-Serif" font-size="10.00">SensorBase</text>
</a>
</g>
<!-- Node3&#45;&gt;Node6 -->
<g id="edge12" class="edge"><title>Node3&#45;&gt;Node6</title>
<path fill="none" stroke="midnightblue" d="M188.097,-194.435C179.569,-184.273 169.004,-171.686 162.138,-163.505"/>
<polygon fill="midnightblue" stroke="midnightblue" points="185.547,-196.84 194.656,-202.25 190.908,-192.34 185.547,-196.84"/>
</g>
<!-- Node4 -->
<g id="node6" class="node"><title>Node4</title>
<a xlink:href="class_error.html" target="_top" xlink:title="Error">
<polygon fill="white" stroke="black" points="183,-280.5 183,-299.5 221,-299.5 221,-280.5 183,-280.5"/>
<text text-anchor="middle" x="202" y="-287.5" font-family="Helvetica,sans-Serif" font-size="10.00">Error</text>
</a>
</g>
<!-- Node4&#45;&gt;Node3 -->
<g id="edge6" class="edge"><title>Node4&#45;&gt;Node3</title>
<path fill="none" stroke="#9a32cd" stroke-dasharray="5,2" d="M202,-270.224C202,-254.697 202,-233.358 202,-221.616"/>
<polygon fill="#9a32cd" stroke="#9a32cd" points="198.5,-270.282 202,-280.282 205.5,-270.282 198.5,-270.282"/>
<text text-anchor="middle" x="229.5" y="-254" font-family="Helvetica,sans-Serif" font-size="10.00"> _globalError</text>
<text text-anchor="middle" x="229.5" y="-243" font-family="Helvetica,sans-Serif" font-size="10.00">m_error</text>
</g>
<!-- Node5 -->
<g id="node8" class="node"><title>Node5</title>
<a xlink:href="class_driver_station.html" target="_top" xlink:title="DriverStation">
<polygon fill="white" stroke="black" points="110.5,-68.5 110.5,-87.5 181.5,-87.5 181.5,-68.5 110.5,-68.5"/>
<text text-anchor="middle" x="146" y="-75.5" font-family="Helvetica,sans-Serif" font-size="10.00">DriverStation</text>
</a>
</g>
<!-- Node5&#45;&gt;Node1 -->
<g id="edge8" class="edge"><title>Node5&#45;&gt;Node1</title>
<path fill="none" stroke="#9a32cd" stroke-dasharray="5,2" d="M157.116,-59.9377C165.473,-47.112 176.583,-30.0591 183.24,-19.8411"/>
<polygon fill="#9a32cd" stroke="#9a32cd" points="154.148,-58.0824 151.621,-68.3717 160.013,-61.9036 154.148,-58.0824"/>
<text text-anchor="middle" x="186" y="-41.5" font-family="Helvetica,sans-Serif" font-size="10.00"> m_ds</text>
</g>
<!-- Node6&#45;&gt;Node5 -->
<g id="edge10" class="edge"><title>Node6&#45;&gt;Node5</title>
<path fill="none" stroke="midnightblue" d="M146.816,-134.509C143.564,-119.575 141.55,-99.2223 142.514,-87.7679"/>
<polygon fill="midnightblue" stroke="midnightblue" points="143.443,-135.444 149.378,-144.221 150.211,-133.659 143.443,-135.444"/>
</g>
<!-- Node6&#45;&gt;Node5 -->
<g id="edge16" class="edge"><title>Node6&#45;&gt;Node5</title>
<path fill="none" stroke="midnightblue" d="M158.674,-134.072C158.248,-119.18 155.333,-99.1111 151.619,-87.7679"/>
<polygon fill="midnightblue" stroke="midnightblue" points="155.172,-134.158 158.487,-144.221 162.171,-134.287 155.172,-134.158"/>
</g>
<!-- Node7 -->
<g id="node13" class="node"><title>Node7</title>
<a xlink:href="class_robot_state_interface.html" target="_top" xlink:title="RobotStateInterface">
<polygon fill="white" stroke="black" points="0,-144.5 0,-163.5 102,-163.5 102,-144.5 0,-144.5"/>
<text text-anchor="middle" x="51" y="-151.5" font-family="Helvetica,sans-Serif" font-size="10.00">RobotStateInterface</text>
</a>
</g>
<!-- Node7&#45;&gt;Node5 -->
<g id="edge14" class="edge"><title>Node7&#45;&gt;Node5</title>
<path fill="none" stroke="midnightblue" d="M65.3625,-137.434C83.0434,-122.248 112.35,-99.7098 130.532,-87.5395"/>
<polygon fill="midnightblue" stroke="midnightblue" points="62.8719,-134.965 57.7163,-144.221 67.5186,-140.2 62.8719,-134.965"/>
</g>
<!-- Node7&#45;&gt;Node5 -->
<g id="edge18" class="edge"><title>Node7&#45;&gt;Node5</title>
<path fill="none" stroke="midnightblue" d="M75.1153,-138.491C96.4334,-123.405 125.81,-100.279 139.296,-87.7679"/>
<polygon fill="midnightblue" stroke="midnightblue" points="73.062,-135.656 66.8253,-144.221 77.0418,-141.414 73.062,-135.656"/>
</g>
</g>
</svg>
