<?xml version="1.0" encoding="UTF-8" standalone="no"?>
<!DOCTYPE svg PUBLIC "-//W3C//DTD SVG 1.1//EN"
 "http://www.w3.org/Graphics/SVG/1.1/DTD/svg11.dtd">
<!-- Generated by graphviz version 2.28.0 (20110507.0327)
 -->
<!-- Title: PIDSubsystem::SetInputRange Pages: 1 -->
<svg width="508pt" height="28pt"
 viewBox="0.00 0.00 508.00 28.00" xmlns="http://www.w3.org/2000/svg" xmlns:xlink="http://www.w3.org/1999/xlink">
<g id="graph1" class="graph" transform="scale(1 1) rotate(0) translate(4 24)">
<title>PIDSubsystem::SetInputRange</title>
<polygon fill="white" stroke="white" points="-4,5 -4,-24 505,-24 505,5 -4,5"/>
<!-- Node1 -->
<g id="node1" class="node"><title>Node1</title>
<polygon fill="#bfbfbf" stroke="black" points="0,-0.5 0,-19.5 152,-19.5 152,-0.5 0,-0.5"/>
<text text-anchor="middle" x="76" y="-7.5" font-family="Helvetica,sans-Serif" font-size="10.00">PIDSubsystem::SetInputRange</text>
</g>
<!-- Node2 -->
<g id="node3" class="node"><title>Node2</title>
<a xlink:href="class_p_i_d_controller.html#aa105ab2c2020dfc767fe9b585be0103a" target="_top" xlink:title="PIDController::SetInputRange">
<polygon fill="white" stroke="black" points="188.5,-0.5 188.5,-19.5 331.5,-19.5 331.5,-0.5 188.5,-0.5"/>
<text text-anchor="middle" x="260" y="-7.5" font-family="Helvetica,sans-Serif" font-size="10.00">PIDController::SetInputRange</text>
</a>
</g>
<!-- Node1&#45;&gt;Node2 -->
<g id="edge2" class="edge"><title>Node1&#45;&gt;Node2</title>
<path fill="none" stroke="midnightblue" d="M152.077,-10C160.734,-10 169.589,-10 178.315,-10"/>
<polygon fill="midnightblue" stroke="midnightblue" points="178.481,-13.5001 188.481,-10 178.481,-6.5001 178.481,-13.5001"/>
</g>
<!-- Node3 -->
<g id="node5" class="node"><title>Node3</title>
<a xlink:href="class_p_i_d_controller.html#a60e89182f28d2cc1ee5adf481c2003c9" target="_top" xlink:title="PIDController::SetSetpoint">
<polygon fill="white" stroke="black" points="368.5,-0.5 368.5,-19.5 499.5,-19.5 499.5,-0.5 368.5,-0.5"/>
<text text-anchor="middle" x="434" y="-7.5" font-family="Helvetica,sans-Serif" font-size="10.00">PIDController::SetSetpoint</text>
</a>
</g>
<!-- Node2&#45;&gt;Node3 -->
<g id="edge4" class="edge"><title>Node2&#45;&gt;Node3</title>
<path fill="none" stroke="midnightblue" d="M331.952,-10C340.599,-10 349.454,-10 358.155,-10"/>
<polygon fill="midnightblue" stroke="midnightblue" points="358.277,-13.5001 368.277,-10 358.277,-6.5001 358.277,-13.5001"/>
</g>
</g>
</svg>
