<?xml version="1.0" encoding="UTF-8" standalone="no"?>
<!DOCTYPE svg PUBLIC "-//W3C//DTD SVG 1.1//EN"
 "http://www.w3.org/Graphics/SVG/1.1/DTD/svg11.dtd">
<!-- Generated by graphviz version 2.28.0 (20110507.0327)
 -->
<!-- Title: DigitalInput::InitTable Pages: 1 -->
<svg width="400pt" height="28pt"
 viewBox="0.00 0.00 400.00 28.00" xmlns="http://www.w3.org/2000/svg" xmlns:xlink="http://www.w3.org/1999/xlink">
<g id="graph1" class="graph" transform="scale(1 1) rotate(0) translate(4 24)">
<title>DigitalInput::InitTable</title>
<polygon fill="white" stroke="white" points="-4,5 -4,-24 397,-24 397,5 -4,5"/>
<!-- Node1 -->
<g id="node1" class="node"><title>Node1</title>
<polygon fill="#bfbfbf" stroke="black" points="0.5,-0.5 0.5,-19.5 107.5,-19.5 107.5,-0.5 0.5,-0.5"/>
<text text-anchor="middle" x="54" y="-7.5" font-family="Helvetica,sans-Serif" font-size="10.00">DigitalInput::InitTable</text>
</g>
<!-- Node2 -->
<g id="node3" class="node"><title>Node2</title>
<a xlink:href="class_digital_input.html#aa04e2df2d4e9e8bdc514695c340473cb" target="_top" xlink:title="DigitalInput::UpdateTable">
<polygon fill="white" stroke="black" points="144.5,-0.5 144.5,-19.5 269.5,-19.5 269.5,-0.5 144.5,-0.5"/>
<text text-anchor="middle" x="207" y="-7.5" font-family="Helvetica,sans-Serif" font-size="10.00">DigitalInput::UpdateTable</text>
</a>
</g>
<!-- Node1&#45;&gt;Node2 -->
<g id="edge2" class="edge"><title>Node1&#45;&gt;Node2</title>
<path fill="none" stroke="midnightblue" d="M107.812,-10C116.402,-10 125.422,-10 134.371,-10"/>
<polygon fill="midnightblue" stroke="midnightblue" points="134.416,-13.5001 144.416,-10 134.416,-6.5001 134.416,-13.5001"/>
</g>
<!-- Node3 -->
<g id="node5" class="node"><title>Node3</title>
<a xlink:href="class_digital_input.html#a22a5f9b80d1c7806e044a73f7e702544" target="_top" xlink:title="DigitalInput::Get">
<polygon fill="white" stroke="black" points="306,-0.5 306,-19.5 392,-19.5 392,-0.5 306,-0.5"/>
<text text-anchor="middle" x="349" y="-7.5" font-family="Helvetica,sans-Serif" font-size="10.00">DigitalInput::Get</text>
</a>
</g>
<!-- Node2&#45;&gt;Node3 -->
<g id="edge4" class="edge"><title>Node2&#45;&gt;Node3</title>
<path fill="none" stroke="midnightblue" d="M269.814,-10C278.458,-10 287.272,-10 295.717,-10"/>
<polygon fill="midnightblue" stroke="midnightblue" points="295.8,-13.5001 305.8,-10 295.8,-6.5001 295.8,-13.5001"/>
</g>
</g>
</svg>
