<?xml version="1.0" encoding="UTF-8" standalone="no"?>
<!DOCTYPE svg PUBLIC "-//W3C//DTD SVG 1.1//EN"
 "http://www.w3.org/Graphics/SVG/1.1/DTD/svg11.dtd">
<!-- Generated by graphviz version 2.28.0 (20110507.0327)
 -->
<!-- Title: Encoder::PIDGet Pages: 1 -->
<svg width="682pt" height="229pt"
 viewBox="0.00 0.00 682.00 228.51" xmlns="http://www.w3.org/2000/svg" xmlns:xlink="http://www.w3.org/1999/xlink">
<g id="graph1" class="graph" transform="scale(1 1) rotate(0) translate(4 224.507)">
<title>Encoder::PIDGet</title>
<polygon fill="white" stroke="white" points="-4,5 -4,-224.507 679,-224.507 679,5 -4,5"/>
<!-- Node1 -->
<g id="node1" class="node"><title>Node1</title>
<polygon fill="#bfbfbf" stroke="black" points="0,-171.5 0,-190.5 90,-190.5 90,-171.5 0,-171.5"/>
<text text-anchor="middle" x="45" y="-178.5" font-family="Helvetica,sans-Serif" font-size="10.00">Encoder::PIDGet</text>
</g>
<!-- Node2 -->
<g id="node3" class="node"><title>Node2</title>
<a xlink:href="class_error_base.html#a05790f219c9e436a09752f73f7344024" target="_top" xlink:title="Check if the current error code represents a fatal error. ">
<polygon fill="white" stroke="black" points="550,-114.5 550,-133.5 674,-133.5 674,-114.5 550,-114.5"/>
<text text-anchor="middle" x="612" y="-121.5" font-family="Helvetica,sans-Serif" font-size="10.00">ErrorBase::StatusIsFatal</text>
</a>
</g>
<!-- Node1&#45;&gt;Node2 -->
<g id="edge2" class="edge"><title>Node1&#45;&gt;Node2</title>
<path fill="none" stroke="midnightblue" d="M78.3876,-190.507C92.8228,-194.271 110.12,-198.14 126,-200 297.419,-220.077 350.625,-239.644 514,-184 543.127,-174.08 572.633,-154.096 591.326,-139.921"/>
<polygon fill="midnightblue" stroke="midnightblue" points="593.601,-142.586 599.35,-133.686 589.306,-137.058 593.601,-142.586"/>
</g>
<!-- Node3 -->
<g id="node5" class="node"><title>Node3</title>
<a xlink:href="class_encoder.html#a523cc5a0cbd52f937f2a25a14185bc22" target="_top" xlink:title="Encoder::GetDistance">
<polygon fill="white" stroke="black" points="126.5,-171.5 126.5,-190.5 239.5,-190.5 239.5,-171.5 126.5,-171.5"/>
<text text-anchor="middle" x="183" y="-178.5" font-family="Helvetica,sans-Serif" font-size="10.00">Encoder::GetDistance</text>
</a>
</g>
<!-- Node1&#45;&gt;Node3 -->
<g id="edge4" class="edge"><title>Node1&#45;&gt;Node3</title>
<path fill="none" stroke="midnightblue" d="M90.1553,-181C98.4058,-181 107.193,-181 115.937,-181"/>
<polygon fill="midnightblue" stroke="midnightblue" points="116.147,-184.5 126.147,-181 116.147,-177.5 116.147,-184.5"/>
</g>
<!-- Node6 -->
<g id="node14" class="node"><title>Node6</title>
<a xlink:href="class_encoder.html#a72423acddb85ee347fc213b8600843f7" target="_top" xlink:title="Encoder::GetRate">
<polygon fill="white" stroke="black" points="135.5,-76.5 135.5,-95.5 230.5,-95.5 230.5,-76.5 135.5,-76.5"/>
<text text-anchor="middle" x="183" y="-83.5" font-family="Helvetica,sans-Serif" font-size="10.00">Encoder::GetRate</text>
</a>
</g>
<!-- Node1&#45;&gt;Node6 -->
<g id="edge16" class="edge"><title>Node1&#45;&gt;Node6</title>
<path fill="none" stroke="midnightblue" d="M59.7888,-171.368C83.3097,-154.938 131.386,-121.355 159.724,-101.561"/>
<polygon fill="midnightblue" stroke="midnightblue" points="161.981,-104.253 168.175,-95.6574 157.972,-98.5147 161.981,-104.253"/>
</g>
<!-- Node3&#45;&gt;Node2 -->
<g id="edge6" class="edge"><title>Node3&#45;&gt;Node2</title>
<path fill="none" stroke="midnightblue" d="M239.632,-184.409C306.079,-186.979 420.041,-186.602 514,-162 537.243,-155.914 562.484,-145.912 581.39,-137.696"/>
<polygon fill="midnightblue" stroke="midnightblue" points="582.928,-140.843 590.655,-133.593 580.094,-134.442 582.928,-140.843"/>
</g>
<!-- Node4 -->
<g id="node8" class="node"><title>Node4</title>
<a xlink:href="class_encoder.html#a0fd1cdb3939029d070c0663a96c3ae6d" target="_top" xlink:title="Encoder::GetRaw">
<polygon fill="white" stroke="black" points="280.5,-152.5 280.5,-171.5 373.5,-171.5 373.5,-152.5 280.5,-152.5"/>
<text text-anchor="middle" x="327" y="-159.5" font-family="Helvetica,sans-Serif" font-size="10.00">Encoder::GetRaw</text>
</a>
</g>
<!-- Node3&#45;&gt;Node4 -->
<g id="edge8" class="edge"><title>Node3&#45;&gt;Node4</title>
<path fill="none" stroke="midnightblue" d="M239.715,-173.545C249.633,-172.218 259.97,-170.835 269.9,-169.506"/>
<polygon fill="midnightblue" stroke="midnightblue" points="270.618,-172.942 280.065,-168.146 269.689,-166.003 270.618,-172.942"/>
</g>
<!-- Node4&#45;&gt;Node2 -->
<g id="edge10" class="edge"><title>Node4&#45;&gt;Node2</title>
<path fill="none" stroke="midnightblue" d="M373.627,-158.513C411.37,-155.347 466.322,-150.089 514,-143 527.932,-140.928 542.901,-138.232 556.811,-135.525"/>
<polygon fill="midnightblue" stroke="midnightblue" points="557.593,-138.938 566.722,-133.56 556.232,-132.071 557.593,-138.938"/>
</g>
<!-- Node5 -->
<g id="node11" class="node"><title>Node5</title>
<a xlink:href="class_counter.html#a72086dbd17d7baf28bacfb13562af6b6" target="_top" xlink:title="Counter::Get">
<polygon fill="white" stroke="black" points="428,-114.5 428,-133.5 500,-133.5 500,-114.5 428,-114.5"/>
<text text-anchor="middle" x="464" y="-121.5" font-family="Helvetica,sans-Serif" font-size="10.00">Counter::Get</text>
</a>
</g>
<!-- Node4&#45;&gt;Node5 -->
<g id="edge12" class="edge"><title>Node4&#45;&gt;Node5</title>
<path fill="none" stroke="midnightblue" d="M362.066,-152.411C379.413,-147.528 400.702,-141.536 419.249,-136.315"/>
<polygon fill="midnightblue" stroke="midnightblue" points="420.267,-139.665 428.945,-133.586 418.37,-132.926 420.267,-139.665"/>
</g>
<!-- Node5&#45;&gt;Node2 -->
<g id="edge14" class="edge"><title>Node5&#45;&gt;Node2</title>
<path fill="none" stroke="midnightblue" d="M500.343,-124C512.179,-124 525.834,-124 539.423,-124"/>
<polygon fill="midnightblue" stroke="midnightblue" points="539.77,-127.5 549.77,-124 539.77,-120.5 539.77,-127.5"/>
</g>
<!-- Node6&#45;&gt;Node2 -->
<g id="edge18" class="edge"><title>Node6&#45;&gt;Node2</title>
<path fill="none" stroke="midnightblue" d="M230.635,-86.6918C294.722,-88.096 413.509,-92.3248 514,-105 528.522,-106.832 544.136,-109.552 558.501,-112.366"/>
<polygon fill="midnightblue" stroke="midnightblue" points="558.213,-115.878 568.707,-114.419 559.594,-109.015 558.213,-115.878"/>
</g>
<!-- Node7 -->
<g id="node17" class="node"><title>Node7</title>
<a xlink:href="class_encoder.html#a9825883787337876f6d62951d7eaac24" target="_top" xlink:title="Encoder::GetPeriod">
<polygon fill="white" stroke="black" points="276,-38.5 276,-57.5 378,-57.5 378,-38.5 276,-38.5"/>
<text text-anchor="middle" x="327" y="-45.5" font-family="Helvetica,sans-Serif" font-size="10.00">Encoder::GetPeriod</text>
</a>
</g>
<!-- Node6&#45;&gt;Node7 -->
<g id="edge20" class="edge"><title>Node6&#45;&gt;Node7</title>
<path fill="none" stroke="midnightblue" d="M219.833,-76.411C238.163,-71.5056 260.678,-65.4804 280.25,-60.2429"/>
<polygon fill="midnightblue" stroke="midnightblue" points="281.424,-63.5521 290.179,-57.5859 279.614,-56.7901 281.424,-63.5521"/>
</g>
<!-- Node7&#45;&gt;Node2 -->
<g id="edge22" class="edge"><title>Node7&#45;&gt;Node2</title>
<path fill="none" stroke="midnightblue" d="M378.016,-49.5434C416.082,-51.8831 469.352,-57.6878 514,-72 541.052,-80.6716 569.398,-96.8092 588.412,-108.816"/>
<polygon fill="midnightblue" stroke="midnightblue" points="586.65,-111.845 596.949,-114.328 590.446,-105.964 586.65,-111.845"/>
</g>
<!-- Node8 -->
<g id="node20" class="node"><title>Node8</title>
<a xlink:href="class_counter.html#a51030989a5ee306beaf40ac28ab362c0" target="_top" xlink:title="Counter::GetPeriod">
<polygon fill="white" stroke="black" points="414,-0.5 414,-19.5 514,-19.5 514,-0.5 414,-0.5"/>
<text text-anchor="middle" x="464" y="-7.5" font-family="Helvetica,sans-Serif" font-size="10.00">Counter::GetPeriod</text>
</a>
</g>
<!-- Node7&#45;&gt;Node8 -->
<g id="edge24" class="edge"><title>Node7&#45;&gt;Node8</title>
<path fill="none" stroke="midnightblue" d="M362.066,-38.411C379.413,-33.5281 400.702,-27.5357 419.249,-22.315"/>
<polygon fill="midnightblue" stroke="midnightblue" points="420.267,-25.6646 428.945,-19.5859 418.37,-18.9265 420.267,-25.6646"/>
</g>
<!-- Node8&#45;&gt;Node2 -->
<g id="edge26" class="edge"><title>Node8&#45;&gt;Node2</title>
<path fill="none" stroke="midnightblue" d="M488.215,-19.6684C496.638,-23.6097 506.035,-28.5307 514,-34 545.65,-55.7326 577.316,-87.4468 595.488,-106.848"/>
<polygon fill="midnightblue" stroke="midnightblue" points="593.055,-109.372 602.411,-114.344 598.198,-104.623 593.055,-109.372"/>
</g>
</g>
</svg>
