<?xml version="1.0" encoding="UTF-8" standalone="no"?>
<!DOCTYPE svg PUBLIC "-//W3C//DTD SVG 1.1//EN"
 "http://www.w3.org/Graphics/SVG/1.1/DTD/svg11.dtd">
<!-- Generated by graphviz version 2.28.0 (20110507.0327)
 -->
<!-- Title: CANJaguar::SetCurrentMode Pages: 1 -->
<svg width="716pt" height="256pt"
 viewBox="0.00 0.00 716.00 256.00" xmlns="http://www.w3.org/2000/svg" xmlns:xlink="http://www.w3.org/1999/xlink">
<g id="graph1" class="graph" transform="scale(1 1) rotate(0) translate(4 252)">
<title>CANJaguar::SetCurrentMode</title>
<polygon fill="white" stroke="white" points="-4,5 -4,-252 713,-252 713,5 -4,5"/>
<!-- Node1 -->
<g id="node1" class="node"><title>Node1</title>
<polygon fill="#bfbfbf" stroke="black" points="0,-152.5 0,-171.5 142,-171.5 142,-152.5 0,-152.5"/>
<text text-anchor="middle" x="71" y="-159.5" font-family="Helvetica,sans-Serif" font-size="10.00">CANJaguar::SetCurrentMode</text>
</g>
<!-- Node2 -->
<g id="node3" class="node"><title>Node2</title>
<a xlink:href="class_c_a_n_jaguar.html#ad359943907bf802075474a3753f7fb02" target="_top" xlink:title="CANJaguar::SetControlMode">
<polygon fill="white" stroke="black" points="187.5,-228.5 187.5,-247.5 328.5,-247.5 328.5,-228.5 187.5,-228.5"/>
<text text-anchor="middle" x="258" y="-235.5" font-family="Helvetica,sans-Serif" font-size="10.00">CANJaguar::SetControlMode</text>
</a>
</g>
<!-- Node1&#45;&gt;Node2 -->
<g id="edge2" class="edge"><title>Node1&#45;&gt;Node2</title>
<path fill="none" stroke="midnightblue" d="M89.2398,-171.533C109.9,-182.703 145.772,-201.296 178,-214 188.618,-218.186 200.274,-222.09 211.294,-225.482"/>
<polygon fill="midnightblue" stroke="midnightblue" points="210.605,-228.929 221.189,-228.447 212.614,-222.224 210.605,-228.929"/>
</g>
<!-- Node5 -->
<g id="node9" class="node"><title>Node5</title>
<a xlink:href="class_c_a_n_jaguar.html#a4ea009bbaaa337eeb10efba61203ee38" target="_top" xlink:title="CANJaguar::SetPositionReference">
<polygon fill="white" stroke="black" points="374.5,-190.5 374.5,-209.5 539.5,-209.5 539.5,-190.5 374.5,-190.5"/>
<text text-anchor="middle" x="457" y="-197.5" font-family="Helvetica,sans-Serif" font-size="10.00">CANJaguar::SetPositionReference</text>
</a>
</g>
<!-- Node1&#45;&gt;Node5 -->
<g id="edge8" class="edge"><title>Node1&#45;&gt;Node5</title>
<path fill="none" stroke="midnightblue" d="M118.796,-171.523C137.184,-174.967 158.517,-178.595 178,-181 239.794,-188.627 309.722,-193.387 363.985,-196.236"/>
<polygon fill="midnightblue" stroke="midnightblue" points="364.109,-199.747 374.275,-196.763 364.467,-192.756 364.109,-199.747"/>
</g>
<!-- Node6 -->
<g id="node12" class="node"><title>Node6</title>
<a xlink:href="class_c_a_n_jaguar.html#ac6780a940570ec0386d234b309fb260d" target="_top" xlink:title="CANJaguar::SetSpeedReference">
<polygon fill="white" stroke="black" points="179,-152.5 179,-171.5 337,-171.5 337,-152.5 179,-152.5"/>
<text text-anchor="middle" x="258" y="-159.5" font-family="Helvetica,sans-Serif" font-size="10.00">CANJaguar::SetSpeedReference</text>
</a>
</g>
<!-- Node1&#45;&gt;Node6 -->
<g id="edge12" class="edge"><title>Node1&#45;&gt;Node6</title>
<path fill="none" stroke="midnightblue" d="M142.204,-162C150.894,-162 159.862,-162 168.777,-162"/>
<polygon fill="midnightblue" stroke="midnightblue" points="168.803,-165.5 178.803,-162 168.803,-158.5 168.803,-165.5"/>
</g>
<!-- Node7 -->
<g id="node15" class="node"><title>Node7</title>
<a xlink:href="class_c_a_n_jaguar.html#aefcfcbee61541f69cae47ea1ef405f17" target="_top" xlink:title="CANJaguar::ConfigPotentiometer\lTurns">
<polygon fill="white" stroke="black" points="178.5,-103 178.5,-133 337.5,-133 337.5,-103 178.5,-103"/>
<text text-anchor="start" x="186.5" y="-121" font-family="Helvetica,sans-Serif" font-size="10.00">CANJaguar::ConfigPotentiometer</text>
<text text-anchor="middle" x="258" y="-110" font-family="Helvetica,sans-Serif" font-size="10.00">Turns</text>
</a>
</g>
<!-- Node1&#45;&gt;Node7 -->
<g id="edge16" class="edge"><title>Node1&#45;&gt;Node7</title>
<path fill="none" stroke="midnightblue" d="M112.142,-152.453C133.064,-147.477 159.314,-141.233 183.702,-135.433"/>
<polygon fill="midnightblue" stroke="midnightblue" points="184.738,-138.784 193.657,-133.065 183.118,-131.974 184.738,-138.784"/>
</g>
<!-- Node8 -->
<g id="node18" class="node"><title>Node8</title>
<a xlink:href="class_c_a_n_jaguar.html#a27a017dfbfbb580251b4dd342ccbfd6d" target="_top" xlink:title="CANJaguar::SetPID">
<polygon fill="white" stroke="black" points="207,-51.5 207,-70.5 309,-70.5 309,-51.5 207,-51.5"/>
<text text-anchor="middle" x="258" y="-58.5" font-family="Helvetica,sans-Serif" font-size="10.00">CANJaguar::SetPID</text>
</a>
</g>
<!-- Node1&#45;&gt;Node8 -->
<g id="edge20" class="edge"><title>Node1&#45;&gt;Node8</title>
<path fill="none" stroke="midnightblue" d="M84.8904,-152.438C104.365,-138.266 142.764,-111.387 178,-93 191.407,-86.0039 206.699,-79.494 220.235,-74.1969"/>
<polygon fill="midnightblue" stroke="midnightblue" points="221.64,-77.407 229.729,-70.5646 219.139,-70.8692 221.64,-77.407"/>
</g>
<!-- Node3 -->
<g id="node5" class="node"><title>Node3</title>
<a xlink:href="class_c_a_n_jaguar.html#a6bbbf784a74cf95f7b4a5660a3d53cc2" target="_top" xlink:title="CANJaguar::DisableControl">
<polygon fill="white" stroke="black" points="390,-228.5 390,-247.5 524,-247.5 524,-228.5 390,-228.5"/>
<text text-anchor="middle" x="457" y="-235.5" font-family="Helvetica,sans-Serif" font-size="10.00">CANJaguar::DisableControl</text>
</a>
</g>
<!-- Node2&#45;&gt;Node3 -->
<g id="edge4" class="edge"><title>Node2&#45;&gt;Node3</title>
<path fill="none" stroke="midnightblue" d="M328.732,-238C345.231,-238 362.91,-238 379.685,-238"/>
<polygon fill="midnightblue" stroke="midnightblue" points="379.993,-241.5 389.993,-238 379.993,-234.5 379.993,-241.5"/>
</g>
<!-- Node4 -->
<g id="node7" class="node"><title>Node4</title>
<a xlink:href="class_c_a_n_jaguar.html#a6b82b54cc4033c3c5218ab04fb6c8282" target="_top" xlink:title="CANJaguar::sendMessage">
<polygon fill="white" stroke="black" points="576,-114.5 576,-133.5 708,-133.5 708,-114.5 576,-114.5"/>
<text text-anchor="middle" x="642" y="-121.5" font-family="Helvetica,sans-Serif" font-size="10.00">CANJaguar::sendMessage</text>
</a>
</g>
<!-- Node3&#45;&gt;Node4 -->
<g id="edge6" class="edge"><title>Node3&#45;&gt;Node4</title>
<path fill="none" stroke="midnightblue" d="M516.733,-228.398C524.802,-225.941 532.784,-222.86 540,-219 576.565,-199.438 609.654,-163.186 627.388,-141.564"/>
<polygon fill="midnightblue" stroke="midnightblue" points="630.293,-143.535 633.812,-133.542 624.829,-139.159 630.293,-143.535"/>
</g>
<!-- Node5&#45;&gt;Node4 -->
<g id="edge10" class="edge"><title>Node5&#45;&gt;Node4</title>
<path fill="none" stroke="midnightblue" d="M496.067,-190.488C510.078,-186.564 525.95,-181.613 540,-176 566.72,-165.325 595.788,-149.928 615.849,-138.659"/>
<polygon fill="midnightblue" stroke="midnightblue" points="617.695,-141.636 624.658,-133.65 614.235,-135.551 617.695,-141.636"/>
</g>
<!-- Node6&#45;&gt;Node4 -->
<g id="edge14" class="edge"><title>Node6&#45;&gt;Node4</title>
<path fill="none" stroke="midnightblue" d="M337.181,-155.315C393.59,-150.358 471.546,-143.232 540,-136 548.33,-135.12 557.041,-134.154 565.706,-133.164"/>
<polygon fill="midnightblue" stroke="midnightblue" points="566.298,-136.619 575.831,-131.995 565.495,-129.665 566.298,-136.619"/>
</g>
<!-- Node7&#45;&gt;Node4 -->
<g id="edge18" class="edge"><title>Node7&#45;&gt;Node4</title>
<path fill="none" stroke="midnightblue" d="M337.687,-119.236C404.444,-120.284 499.589,-121.779 565.439,-122.813"/>
<polygon fill="midnightblue" stroke="midnightblue" points="565.694,-126.318 575.747,-122.975 565.804,-119.318 565.694,-126.318"/>
</g>
<!-- Node9 -->
<g id="node20" class="node"><title>Node9</title>
<a xlink:href="class_c_a_n_jaguar.html#a22a1787a38fd35abc2cdf15bb7d81da5" target="_top" xlink:title="CANJaguar::SetP">
<polygon fill="white" stroke="black" points="410.5,-76.5 410.5,-95.5 503.5,-95.5 503.5,-76.5 410.5,-76.5"/>
<text text-anchor="middle" x="457" y="-83.5" font-family="Helvetica,sans-Serif" font-size="10.00">CANJaguar::SetP</text>
</a>
</g>
<!-- Node8&#45;&gt;Node9 -->
<g id="edge22" class="edge"><title>Node8&#45;&gt;Node9</title>
<path fill="none" stroke="midnightblue" d="M309.221,-67.3732C336.938,-70.8906 371.431,-75.2679 400.014,-78.8952"/>
<polygon fill="midnightblue" stroke="midnightblue" points="399.893,-82.4078 410.254,-80.1947 400.774,-75.4635 399.893,-82.4078"/>
</g>
<!-- Node10 -->
<g id="node23" class="node"><title>Node10</title>
<a xlink:href="class_c_a_n_jaguar.html#a99abdf41fc6ce39d51f0c9d2fbbcfcb0" target="_top" xlink:title="CANJaguar::SetI">
<polygon fill="white" stroke="black" points="412.5,-38.5 412.5,-57.5 501.5,-57.5 501.5,-38.5 412.5,-38.5"/>
<text text-anchor="middle" x="457" y="-45.5" font-family="Helvetica,sans-Serif" font-size="10.00">CANJaguar::SetI</text>
</a>
</g>
<!-- Node8&#45;&gt;Node10 -->
<g id="edge26" class="edge"><title>Node8&#45;&gt;Node10</title>
<path fill="none" stroke="midnightblue" d="M309.221,-57.6859C337.547,-55.8167 372.951,-53.4804 401.89,-51.5707"/>
<polygon fill="midnightblue" stroke="midnightblue" points="402.487,-55.039 412.234,-50.8881 402.026,-48.0542 402.487,-55.039"/>
</g>
<!-- Node11 -->
<g id="node26" class="node"><title>Node11</title>
<a xlink:href="class_c_a_n_jaguar.html#a5c5228b40626981bcb5009044edc28d7" target="_top" xlink:title="CANJaguar::SetD">
<polygon fill="white" stroke="black" points="410.5,-0.5 410.5,-19.5 503.5,-19.5 503.5,-0.5 410.5,-0.5"/>
<text text-anchor="middle" x="457" y="-7.5" font-family="Helvetica,sans-Serif" font-size="10.00">CANJaguar::SetD</text>
</a>
</g>
<!-- Node8&#45;&gt;Node11 -->
<g id="edge30" class="edge"><title>Node8&#45;&gt;Node11</title>
<path fill="none" stroke="midnightblue" d="M292.111,-51.3729C315.034,-44.8098 346.287,-36.0628 374,-29 383.459,-26.5894 393.564,-24.1432 403.335,-21.8441"/>
<polygon fill="midnightblue" stroke="midnightblue" points="404.41,-25.1874 413.355,-19.5091 402.821,-18.3701 404.41,-25.1874"/>
</g>
<!-- Node9&#45;&gt;Node4 -->
<g id="edge24" class="edge"><title>Node9&#45;&gt;Node4</title>
<path fill="none" stroke="midnightblue" d="M503.707,-95.491C528.38,-100.614 559.039,-106.981 585.122,-112.397"/>
<polygon fill="midnightblue" stroke="midnightblue" points="584.739,-115.892 595.242,-114.498 586.162,-109.038 584.739,-115.892"/>
</g>
<!-- Node10&#45;&gt;Node4 -->
<g id="edge28" class="edge"><title>Node10&#45;&gt;Node4</title>
<path fill="none" stroke="midnightblue" d="M501.683,-55.6917C514.273,-58.5557 527.878,-62.2879 540,-67 568.351,-78.0207 598.414,-95.8847 618.296,-108.677"/>
<polygon fill="midnightblue" stroke="midnightblue" points="616.644,-111.779 626.928,-114.326 620.477,-105.922 616.644,-111.779"/>
</g>
<!-- Node11&#45;&gt;Node4 -->
<g id="edge32" class="edge"><title>Node11&#45;&gt;Node4</title>
<path fill="none" stroke="midnightblue" d="M503.796,-16.1652C516.029,-18.9822 528.919,-23.0717 540,-29 576.565,-48.5617 609.654,-84.8138 627.388,-106.436"/>
<polygon fill="midnightblue" stroke="midnightblue" points="624.829,-108.841 633.812,-114.458 630.293,-104.465 624.829,-108.841"/>
</g>
</g>
</svg>
