<?xml version="1.0" encoding="UTF-8" standalone="no"?>
<!DOCTYPE svg PUBLIC "-//W3C//DTD SVG 1.1//EN"
 "http://www.w3.org/Graphics/SVG/1.1/DTD/svg11.dtd">
<!-- Generated by graphviz version 2.28.0 (20110507.0327)
 -->
<!-- Title: DoubleSolenoid::UpdateTable Pages: 1 -->
<svg width="454pt" height="66pt"
 viewBox="0.00 0.00 454.00 66.00" xmlns="http://www.w3.org/2000/svg" xmlns:xlink="http://www.w3.org/1999/xlink">
<g id="graph1" class="graph" transform="scale(1 1) rotate(0) translate(4 62)">
<title>DoubleSolenoid::UpdateTable</title>
<polygon fill="white" stroke="white" points="-4,5 -4,-62 451,-62 451,5 -4,5"/>
<!-- Node1 -->
<g id="node1" class="node"><title>Node1</title>
<polygon fill="#bfbfbf" stroke="black" points="0,-19.5 0,-38.5 144,-38.5 144,-19.5 0,-19.5"/>
<text text-anchor="middle" x="72" y="-26.5" font-family="Helvetica,sans-Serif" font-size="10.00">DoubleSolenoid::UpdateTable</text>
</g>
<!-- Node2 -->
<g id="node3" class="node"><title>Node2</title>
<a xlink:href="class_double_solenoid.html#a831cbfdb95c2c689bfd6644a01694fe8" target="_top" xlink:title="DoubleSolenoid::Get">
<polygon fill="white" stroke="black" points="180,-19.5 180,-38.5 286,-38.5 286,-19.5 180,-19.5"/>
<text text-anchor="middle" x="233" y="-26.5" font-family="Helvetica,sans-Serif" font-size="10.00">DoubleSolenoid::Get</text>
</a>
</g>
<!-- Node1&#45;&gt;Node2 -->
<g id="edge2" class="edge"><title>Node1&#45;&gt;Node2</title>
<path fill="none" stroke="midnightblue" d="M144.129,-29C152.711,-29 161.425,-29 169.865,-29"/>
<polygon fill="midnightblue" stroke="midnightblue" points="169.996,-32.5001 179.996,-29 169.996,-25.5001 169.996,-32.5001"/>
</g>
<!-- Node3 -->
<g id="node5" class="node"><title>Node3</title>
<a xlink:href="class_error_base.html#a05790f219c9e436a09752f73f7344024" target="_top" xlink:title="Check if the current error code represents a fatal error. ">
<polygon fill="white" stroke="black" points="322,-38.5 322,-57.5 446,-57.5 446,-38.5 322,-38.5"/>
<text text-anchor="middle" x="384" y="-45.5" font-family="Helvetica,sans-Serif" font-size="10.00">ErrorBase::StatusIsFatal</text>
</a>
</g>
<!-- Node2&#45;&gt;Node3 -->
<g id="edge4" class="edge"><title>Node2&#45;&gt;Node3</title>
<path fill="none" stroke="midnightblue" d="M286.113,-35.6453C294.437,-36.7067 303.172,-37.8206 311.846,-38.9267"/>
<polygon fill="midnightblue" stroke="midnightblue" points="311.61,-42.4249 321.973,-40.218 312.496,-35.4811 311.61,-42.4249"/>
</g>
<!-- Node4 -->
<g id="node7" class="node"><title>Node4</title>
<a xlink:href="class_solenoid_base.html#a2357cb3d45699c560f8892de139bedbd" target="_top" xlink:title="SolenoidBase::GetAll">
<polygon fill="white" stroke="black" points="329,-0.5 329,-19.5 439,-19.5 439,-0.5 329,-0.5"/>
<text text-anchor="middle" x="384" y="-7.5" font-family="Helvetica,sans-Serif" font-size="10.00">SolenoidBase::GetAll</text>
</a>
</g>
<!-- Node2&#45;&gt;Node4 -->
<g id="edge6" class="edge"><title>Node2&#45;&gt;Node4</title>
<path fill="none" stroke="midnightblue" d="M286.113,-22.3547C296.714,-21.0029 307.983,-19.566 318.943,-18.1683"/>
<polygon fill="midnightblue" stroke="midnightblue" points="319.418,-21.6362 328.895,-16.8993 318.532,-14.6924 319.418,-21.6362"/>
</g>
</g>
</svg>
