<?xml version="1.0" encoding="UTF-8" standalone="no"?>
<!DOCTYPE svg PUBLIC "-//W3C//DTD SVG 1.1//EN"
 "http://www.w3.org/Graphics/SVG/1.1/DTD/svg11.dtd">
<!-- Generated by graphviz version 2.28.0 (20110507.0327)
 -->
<!-- Title: MockCommand Pages: 1 -->
<svg width="269pt" height="252pt"
 viewBox="0.00 0.00 269.00 252.00" xmlns="http://www.w3.org/2000/svg" xmlns:xlink="http://www.w3.org/1999/xlink">
<g id="graph1" class="graph" transform="scale(1 1) rotate(0) translate(4 248)">
<title>MockCommand</title>
<polygon fill="white" stroke="white" points="-4,5 -4,-248 266,-248 266,5 -4,5"/>
<!-- Node1 -->
<g id="node1" class="node"><title>Node1</title>
<polygon fill="#bfbfbf" stroke="black" points="79.5,-56.5 79.5,-75.5 164.5,-75.5 164.5,-56.5 79.5,-56.5"/>
<text text-anchor="middle" x="122" y="-63.5" font-family="Helvetica,sans-Serif" font-size="10.00">MockCommand</text>
</g>
<!-- Node7 -->
<g id="node13" class="node"><title>Node7</title>
<a xlink:href="class_modified_mock_command.html" target="_top" xlink:title="ModifiedMockCommand">
<polygon fill="white" stroke="black" points="61.5,-0.5 61.5,-19.5 182.5,-19.5 182.5,-0.5 61.5,-0.5"/>
<text text-anchor="middle" x="122" y="-7.5" font-family="Helvetica,sans-Serif" font-size="10.00">ModifiedMockCommand</text>
</a>
</g>
<!-- Node1&#45;&gt;Node7 -->
<g id="edge12" class="edge"><title>Node1&#45;&gt;Node7</title>
<path fill="none" stroke="midnightblue" d="M122,-45.8045C122,-36.9102 122,-26.7798 122,-19.7511"/>
<polygon fill="midnightblue" stroke="midnightblue" points="118.5,-46.083 122,-56.083 125.5,-46.083 118.5,-46.083"/>
</g>
<!-- Node2 -->
<g id="node2" class="node"><title>Node2</title>
<a xlink:href="class_command.html" target="_top" xlink:title="Command">
<polygon fill="white" stroke="black" points="91.5,-112.5 91.5,-131.5 152.5,-131.5 152.5,-112.5 91.5,-112.5"/>
<text text-anchor="middle" x="122" y="-119.5" font-family="Helvetica,sans-Serif" font-size="10.00">Command</text>
</a>
</g>
<!-- Node2&#45;&gt;Node1 -->
<g id="edge2" class="edge"><title>Node2&#45;&gt;Node1</title>
<path fill="none" stroke="midnightblue" d="M122,-101.805C122,-92.9102 122,-82.7798 122,-75.7511"/>
<polygon fill="midnightblue" stroke="midnightblue" points="118.5,-102.083 122,-112.083 125.5,-102.083 118.5,-102.083"/>
</g>
<!-- Node3 -->
<g id="node4" class="node"><title>Node3</title>
<a xlink:href="class_error_base.html" target="_top" xlink:title="ErrorBase">
<polygon fill="white" stroke="black" points="0,-168.5 0,-187.5 60,-187.5 60,-168.5 0,-168.5"/>
<text text-anchor="middle" x="30" y="-175.5" font-family="Helvetica,sans-Serif" font-size="10.00">ErrorBase</text>
</a>
</g>
<!-- Node3&#45;&gt;Node2 -->
<g id="edge4" class="edge"><title>Node3&#45;&gt;Node2</title>
<path fill="none" stroke="midnightblue" d="M53.5497,-163.177C70.4789,-153.241 92.7828,-140.149 107.255,-131.655"/>
<polygon fill="midnightblue" stroke="midnightblue" points="51.6338,-160.243 44.7814,-168.324 55.1773,-166.28 51.6338,-160.243"/>
</g>
<!-- Node4 -->
<g id="node6" class="node"><title>Node4</title>
<a xlink:href="class_named_sendable.html" target="_top" xlink:title="NamedSendable">
<polygon fill="white" stroke="black" points="78,-168.5 78,-187.5 166,-187.5 166,-168.5 78,-168.5"/>
<text text-anchor="middle" x="122" y="-175.5" font-family="Helvetica,sans-Serif" font-size="10.00">NamedSendable</text>
</a>
</g>
<!-- Node4&#45;&gt;Node2 -->
<g id="edge6" class="edge"><title>Node4&#45;&gt;Node2</title>
<path fill="none" stroke="midnightblue" d="M122,-157.805C122,-148.91 122,-138.78 122,-131.751"/>
<polygon fill="midnightblue" stroke="midnightblue" points="118.5,-158.083 122,-168.083 125.5,-158.083 118.5,-158.083"/>
</g>
<!-- Node5 -->
<g id="node8" class="node"><title>Node5</title>
<a xlink:href="class_sendable.html" target="_top" xlink:title="Sendable">
<polygon fill="white" stroke="black" points="93.5,-224.5 93.5,-243.5 150.5,-243.5 150.5,-224.5 93.5,-224.5"/>
<text text-anchor="middle" x="122" y="-231.5" font-family="Helvetica,sans-Serif" font-size="10.00">Sendable</text>
</a>
</g>
<!-- Node5&#45;&gt;Node4 -->
<g id="edge8" class="edge"><title>Node5&#45;&gt;Node4</title>
<path fill="none" stroke="midnightblue" d="M122,-213.805C122,-204.91 122,-194.78 122,-187.751"/>
<polygon fill="midnightblue" stroke="midnightblue" points="118.5,-214.083 122,-224.083 125.5,-214.083 118.5,-214.083"/>
</g>
<!-- Node6 -->
<g id="node10" class="node"><title>Node6</title>
<polygon fill="white" stroke="#bfbfbf" points="184.5,-168.5 184.5,-187.5 261.5,-187.5 261.5,-168.5 184.5,-168.5"/>
<text text-anchor="middle" x="223" y="-175.5" font-family="Helvetica,sans-Serif" font-size="10.00">ITableListener</text>
</g>
<!-- Node6&#45;&gt;Node2 -->
<g id="edge10" class="edge"><title>Node6&#45;&gt;Node2</title>
<path fill="none" stroke="midnightblue" d="M197.917,-163.59C179.243,-153.605 154.296,-140.267 138.187,-131.655"/>
<polygon fill="midnightblue" stroke="midnightblue" points="196.304,-166.696 206.773,-168.324 199.604,-160.522 196.304,-166.696"/>
</g>
</g>
</svg>
