<?xml version="1.0" encoding="UTF-8" standalone="no"?>
<!DOCTYPE svg PUBLIC "-//W3C//DTD SVG 1.1//EN"
 "http://www.w3.org/Graphics/SVG/1.1/DTD/svg11.dtd">
<!-- Generated by graphviz version 2.28.0 (20110507.0327)
 -->
<!-- Title: Gyro::InitTable Pages: 1 -->
<svg width="682pt" height="153pt"
 viewBox="0.00 0.00 682.00 153.00" xmlns="http://www.w3.org/2000/svg" xmlns:xlink="http://www.w3.org/1999/xlink">
<g id="graph1" class="graph" transform="scale(1 1) rotate(0) translate(4 149)">
<title>Gyro::InitTable</title>
<polygon fill="white" stroke="white" points="-4,5 -4,-149 679,-149 679,5 -4,5"/>
<!-- Node1 -->
<g id="node1" class="node"><title>Node1</title>
<polygon fill="#bfbfbf" stroke="black" points="0,-57.5 0,-76.5 80,-76.5 80,-57.5 0,-57.5"/>
<text text-anchor="middle" x="40" y="-64.5" font-family="Helvetica,sans-Serif" font-size="10.00">Gyro::InitTable</text>
</g>
<!-- Node2 -->
<g id="node3" class="node"><title>Node2</title>
<a xlink:href="class_gyro.html#ad0113532a29eccdbe514eaae2002012c" target="_top" xlink:title="Gyro::UpdateTable">
<polygon fill="white" stroke="black" points="116,-57.5 116,-76.5 214,-76.5 214,-57.5 116,-57.5"/>
<text text-anchor="middle" x="165" y="-64.5" font-family="Helvetica,sans-Serif" font-size="10.00">Gyro::UpdateTable</text>
</a>
</g>
<!-- Node1&#45;&gt;Node2 -->
<g id="edge2" class="edge"><title>Node1&#45;&gt;Node2</title>
<path fill="none" stroke="midnightblue" d="M80.2561,-67C88.3414,-67 97.0194,-67 105.616,-67"/>
<polygon fill="midnightblue" stroke="midnightblue" points="105.63,-70.5001 115.63,-67 105.63,-63.5001 105.63,-70.5001"/>
</g>
<!-- Node3 -->
<g id="node5" class="node"><title>Node3</title>
<a xlink:href="class_gyro.html#a37c29b42b58b90fe1ed11f04c2635d4f" target="_top" xlink:title="Gyro::GetAngle">
<polygon fill="white" stroke="black" points="250,-57.5 250,-76.5 334,-76.5 334,-57.5 250,-57.5"/>
<text text-anchor="middle" x="292" y="-64.5" font-family="Helvetica,sans-Serif" font-size="10.00">Gyro::GetAngle</text>
</a>
</g>
<!-- Node2&#45;&gt;Node3 -->
<g id="edge4" class="edge"><title>Node2&#45;&gt;Node3</title>
<path fill="none" stroke="midnightblue" d="M214.328,-67C222.631,-67 231.287,-67 239.666,-67"/>
<polygon fill="midnightblue" stroke="midnightblue" points="239.706,-70.5001 249.706,-67 239.706,-63.5001 239.706,-70.5001"/>
</g>
<!-- Node4 -->
<g id="node7" class="node"><title>Node4</title>
<a xlink:href="class_analog_input.html#ad783c1e390adc95921f2d4c73b645365" target="_top" xlink:title="AnalogInput::GetAccumulator\lOutput">
<polygon fill="white" stroke="black" points="370,-115 370,-145 514,-145 514,-115 370,-115"/>
<text text-anchor="start" x="378" y="-133" font-family="Helvetica,sans-Serif" font-size="10.00">AnalogInput::GetAccumulator</text>
<text text-anchor="middle" x="442" y="-122" font-family="Helvetica,sans-Serif" font-size="10.00">Output</text>
</a>
</g>
<!-- Node3&#45;&gt;Node4 -->
<g id="edge6" class="edge"><title>Node3&#45;&gt;Node4</title>
<path fill="none" stroke="midnightblue" d="M310.764,-76.5258C326.192,-84.614 349.254,-96.2653 370,-105 375.119,-107.155 380.495,-109.284 385.902,-111.335"/>
<polygon fill="midnightblue" stroke="midnightblue" points="385.025,-114.743 395.618,-114.934 387.456,-108.178 385.025,-114.743"/>
</g>
<!-- Node6 -->
<g id="node11" class="node"><title>Node6</title>
<a xlink:href="class_analog_input.html#af34dfab137f2fed40c98b4f0871c84cc" target="_top" xlink:title="AnalogInput::GetLSBWeight">
<polygon fill="white" stroke="black" points="372.5,-76.5 372.5,-95.5 511.5,-95.5 511.5,-76.5 372.5,-76.5"/>
<text text-anchor="middle" x="442" y="-83.5" font-family="Helvetica,sans-Serif" font-size="10.00">AnalogInput::GetLSBWeight</text>
</a>
</g>
<!-- Node3&#45;&gt;Node6 -->
<g id="edge10" class="edge"><title>Node3&#45;&gt;Node6</title>
<path fill="none" stroke="midnightblue" d="M334.226,-72.2926C343.05,-73.4253 352.653,-74.6581 362.363,-75.9047"/>
<polygon fill="midnightblue" stroke="midnightblue" points="362.127,-79.4031 372.492,-77.205 363.019,-72.4601 362.127,-79.4031"/>
</g>
<!-- Node7 -->
<g id="node14" class="node"><title>Node7</title>
<a xlink:href="class_analog_input.html#a24193ed1cb0260e7626aecabcf812ef2" target="_top" xlink:title="AnalogInput::GetAverageBits">
<polygon fill="white" stroke="black" points="371.5,-38.5 371.5,-57.5 512.5,-57.5 512.5,-38.5 371.5,-38.5"/>
<text text-anchor="middle" x="442" y="-45.5" font-family="Helvetica,sans-Serif" font-size="10.00">AnalogInput::GetAverageBits</text>
</a>
</g>
<!-- Node3&#45;&gt;Node7 -->
<g id="edge14" class="edge"><title>Node3&#45;&gt;Node7</title>
<path fill="none" stroke="midnightblue" d="M334.226,-61.7074C342.706,-60.6188 351.905,-59.4379 361.227,-58.2411"/>
<polygon fill="midnightblue" stroke="midnightblue" points="361.89,-61.6849 371.362,-56.94 360.998,-54.7419 361.89,-61.6849"/>
</g>
<!-- Node8 -->
<g id="node16" class="node"><title>Node8</title>
<a xlink:href="class_analog_input.html#a3e81e6477668b15b1da6965972987596" target="_top" xlink:title="AnalogInput::GetSampleRate">
<polygon fill="white" stroke="black" points="370.5,-0.5 370.5,-19.5 513.5,-19.5 513.5,-0.5 370.5,-0.5"/>
<text text-anchor="middle" x="442" y="-7.5" font-family="Helvetica,sans-Serif" font-size="10.00">AnalogInput::GetSampleRate</text>
</a>
</g>
<!-- Node3&#45;&gt;Node8 -->
<g id="edge16" class="edge"><title>Node3&#45;&gt;Node8</title>
<path fill="none" stroke="midnightblue" d="M309.997,-57.3972C325.319,-49.0381 348.654,-37.0339 370,-29 376.339,-26.6144 383.101,-24.4012 389.839,-22.3916"/>
<polygon fill="midnightblue" stroke="midnightblue" points="390.984,-25.7046 399.641,-19.5964 389.065,-18.9729 390.984,-25.7046"/>
</g>
<!-- Node5 -->
<g id="node9" class="node"><title>Node5</title>
<a xlink:href="class_error_base.html#a05790f219c9e436a09752f73f7344024" target="_top" xlink:title="Check if the current error code represents a fatal error. ">
<polygon fill="white" stroke="black" points="550,-98.5 550,-117.5 674,-117.5 674,-98.5 550,-98.5"/>
<text text-anchor="middle" x="612" y="-105.5" font-family="Helvetica,sans-Serif" font-size="10.00">ErrorBase::StatusIsFatal</text>
</a>
</g>
<!-- Node4&#45;&gt;Node5 -->
<g id="edge8" class="edge"><title>Node4&#45;&gt;Node5</title>
<path fill="none" stroke="midnightblue" d="M514.247,-120.67C522.796,-119.551 531.526,-118.407 540.07,-117.288"/>
<polygon fill="midnightblue" stroke="midnightblue" points="540.533,-120.758 549.994,-115.989 539.624,-113.817 540.533,-120.758"/>
</g>
<!-- Node6&#45;&gt;Node5 -->
<g id="edge12" class="edge"><title>Node6&#45;&gt;Node5</title>
<path fill="none" stroke="midnightblue" d="M511.817,-95.0117C521.067,-96.223 530.571,-97.4676 539.86,-98.684"/>
<polygon fill="midnightblue" stroke="midnightblue" points="539.463,-102.162 549.833,-99.99 540.372,-95.2211 539.463,-102.162"/>
</g>
</g>
</svg>
