<?xml version="1.0" encoding="UTF-8" standalone="no"?>
<!DOCTYPE svg PUBLIC "-//W3C//DTD SVG 1.1//EN"
 "http://www.w3.org/Graphics/SVG/1.1/DTD/svg11.dtd">
<!-- Generated by graphviz version 2.28.0 (20110507.0327)
 -->
<!-- Title: Encoder::Reset Pages: 1 -->
<svg width="370pt" height="47pt"
 viewBox="0.00 0.00 370.00 47.00" xmlns="http://www.w3.org/2000/svg" xmlns:xlink="http://www.w3.org/1999/xlink">
<g id="graph1" class="graph" transform="scale(1 1) rotate(0) translate(4 43)">
<title>Encoder::Reset</title>
<polygon fill="white" stroke="white" points="-4,5 -4,-43 367,-43 367,5 -4,5"/>
<!-- Node1 -->
<g id="node1" class="node"><title>Node1</title>
<polygon fill="#bfbfbf" stroke="black" points="0,-19.5 0,-38.5 84,-38.5 84,-19.5 0,-19.5"/>
<text text-anchor="middle" x="42" y="-26.5" font-family="Helvetica,sans-Serif" font-size="10.00">Encoder::Reset</text>
</g>
<!-- Node2 -->
<g id="node3" class="node"><title>Node2</title>
<a xlink:href="class_error_base.html#a05790f219c9e436a09752f73f7344024" target="_top" xlink:title="Check if the current error code represents a fatal error. ">
<polygon fill="white" stroke="black" points="238,-19.5 238,-38.5 362,-38.5 362,-19.5 238,-19.5"/>
<text text-anchor="middle" x="300" y="-26.5" font-family="Helvetica,sans-Serif" font-size="10.00">ErrorBase::StatusIsFatal</text>
</a>
</g>
<!-- Node1&#45;&gt;Node2 -->
<g id="edge2" class="edge"><title>Node1&#45;&gt;Node2</title>
<path fill="none" stroke="midnightblue" d="M84.1308,-29C122.763,-29 181.383,-29 227.641,-29"/>
<polygon fill="midnightblue" stroke="midnightblue" points="227.91,-32.5001 237.91,-29 227.91,-25.5001 227.91,-32.5001"/>
</g>
<!-- Node3 -->
<g id="node5" class="node"><title>Node3</title>
<a xlink:href="class_counter.html#a006032d39fada9ad683ccc849d2f60d3" target="_top" xlink:title="Counter::Reset">
<polygon fill="white" stroke="black" points="120,-0.5 120,-19.5 202,-19.5 202,-0.5 120,-0.5"/>
<text text-anchor="middle" x="161" y="-7.5" font-family="Helvetica,sans-Serif" font-size="10.00">Counter::Reset</text>
</a>
</g>
<!-- Node1&#45;&gt;Node3 -->
<g id="edge4" class="edge"><title>Node1&#45;&gt;Node3</title>
<path fill="none" stroke="midnightblue" d="M84.2498,-22.3013C92.5724,-20.9498 101.407,-19.5152 109.991,-18.1211"/>
<polygon fill="midnightblue" stroke="midnightblue" points="110.6,-21.5682 119.909,-16.5105 109.477,-14.6588 110.6,-21.5682"/>
</g>
<!-- Node3&#45;&gt;Node2 -->
<g id="edge6" class="edge"><title>Node3&#45;&gt;Node2</title>
<path fill="none" stroke="midnightblue" d="M202.364,-15.5979C210.362,-16.7072 218.981,-17.9025 227.66,-19.1062"/>
<polygon fill="midnightblue" stroke="midnightblue" points="227.458,-22.6115 237.844,-20.5185 228.419,-15.6779 227.458,-22.6115"/>
</g>
</g>
</svg>
