<?xml version="1.0" encoding="UTF-8" standalone="no"?>
<!DOCTYPE svg PUBLIC "-//W3C//DTD SVG 1.1//EN"
 "http://www.w3.org/Graphics/SVG/1.1/DTD/svg11.dtd">
<!-- Generated by graphviz version 2.28.0 (20110507.0327)
 -->
<!-- Title: Encoder::GetStopped Pages: 1 -->
<svg width="422pt" height="47pt"
 viewBox="0.00 0.00 422.00 47.00" xmlns="http://www.w3.org/2000/svg" xmlns:xlink="http://www.w3.org/1999/xlink">
<g id="graph1" class="graph" transform="scale(1 1) rotate(0) translate(4 43)">
<title>Encoder::GetStopped</title>
<polygon fill="white" stroke="white" points="-4,5 -4,-43 419,-43 419,5 -4,5"/>
<!-- Node1 -->
<g id="node1" class="node"><title>Node1</title>
<polygon fill="#bfbfbf" stroke="black" points="0,-19.5 0,-38.5 110,-38.5 110,-19.5 0,-19.5"/>
<text text-anchor="middle" x="55" y="-26.5" font-family="Helvetica,sans-Serif" font-size="10.00">Encoder::GetStopped</text>
</g>
<!-- Node2 -->
<g id="node3" class="node"><title>Node2</title>
<a xlink:href="class_error_base.html#a05790f219c9e436a09752f73f7344024" target="_top" xlink:title="Check if the current error code represents a fatal error. ">
<polygon fill="white" stroke="black" points="290,-19.5 290,-38.5 414,-38.5 414,-19.5 290,-19.5"/>
<text text-anchor="middle" x="352" y="-26.5" font-family="Helvetica,sans-Serif" font-size="10.00">ErrorBase::StatusIsFatal</text>
</a>
</g>
<!-- Node1&#45;&gt;Node2 -->
<g id="edge2" class="edge"><title>Node1&#45;&gt;Node2</title>
<path fill="none" stroke="midnightblue" d="M110.108,-29C157.747,-29 227.467,-29 279.658,-29"/>
<polygon fill="midnightblue" stroke="midnightblue" points="279.851,-32.5001 289.851,-29 279.851,-25.5001 279.851,-32.5001"/>
</g>
<!-- Node3 -->
<g id="node5" class="node"><title>Node3</title>
<a xlink:href="class_counter.html#ae6bea5b908b1c276e8592e18656aaf21" target="_top" xlink:title="Counter::GetStopped">
<polygon fill="white" stroke="black" points="146,-0.5 146,-19.5 254,-19.5 254,-0.5 146,-0.5"/>
<text text-anchor="middle" x="200" y="-7.5" font-family="Helvetica,sans-Serif" font-size="10.00">Counter::GetStopped</text>
</a>
</g>
<!-- Node1&#45;&gt;Node3 -->
<g id="edge4" class="edge"><title>Node1&#45;&gt;Node3</title>
<path fill="none" stroke="midnightblue" d="M110.062,-21.8169C118.476,-20.699 127.232,-19.5356 135.826,-18.3938"/>
<polygon fill="midnightblue" stroke="midnightblue" points="136.357,-21.854 145.809,-17.0673 135.435,-14.915 136.357,-21.854"/>
</g>
<!-- Node3&#45;&gt;Node2 -->
<g id="edge6" class="edge"><title>Node3&#45;&gt;Node2</title>
<path fill="none" stroke="midnightblue" d="M254.307,-16.7522C262.599,-17.8025 271.277,-18.9018 279.888,-19.9925"/>
<polygon fill="midnightblue" stroke="midnightblue" points="279.576,-23.4809 289.937,-21.2653 280.456,-16.5364 279.576,-23.4809"/>
</g>
</g>
</svg>
