<?xml version="1.0" encoding="UTF-8" standalone="no"?>
<!DOCTYPE svg PUBLIC "-//W3C//DTD SVG 1.1//EN"
 "http://www.w3.org/Graphics/SVG/1.1/DTD/svg11.dtd">
<!-- Generated by graphviz version 2.28.0 (20110507.0327)
 -->
<!-- Title: Ultrasonic::GetRangeMM Pages: 1 -->
<svg width="764pt" height="66pt"
 viewBox="0.00 0.00 764.00 66.00" xmlns="http://www.w3.org/2000/svg" xmlns:xlink="http://www.w3.org/1999/xlink">
<g id="graph1" class="graph" transform="scale(1 1) rotate(0) translate(4 62)">
<title>Ultrasonic::GetRangeMM</title>
<polygon fill="white" stroke="white" points="-4,5 -4,-62 761,-62 761,5 -4,5"/>
<!-- Node1 -->
<g id="node1" class="node"><title>Node1</title>
<polygon fill="#bfbfbf" stroke="black" points="0,-19.5 0,-38.5 126,-38.5 126,-19.5 0,-19.5"/>
<text text-anchor="middle" x="63" y="-26.5" font-family="Helvetica,sans-Serif" font-size="10.00">Ultrasonic::GetRangeMM</text>
</g>
<!-- Node2 -->
<g id="node3" class="node"><title>Node2</title>
<a xlink:href="class_ultrasonic.html#a73c80fe92b2085107714c6a110d90d70" target="_top" xlink:title="Ultrasonic::GetRangeInches">
<polygon fill="white" stroke="black" points="162,-19.5 162,-38.5 300,-38.5 300,-19.5 162,-19.5"/>
<text text-anchor="middle" x="231" y="-26.5" font-family="Helvetica,sans-Serif" font-size="10.00">Ultrasonic::GetRangeInches</text>
</a>
</g>
<!-- Node1&#45;&gt;Node2 -->
<g id="edge2" class="edge"><title>Node1&#45;&gt;Node2</title>
<path fill="none" stroke="midnightblue" d="M126.285,-29C134.526,-29 143.058,-29 151.527,-29"/>
<polygon fill="midnightblue" stroke="midnightblue" points="151.802,-32.5001 161.802,-29 151.802,-25.5001 151.802,-32.5001"/>
</g>
<!-- Node3 -->
<g id="node5" class="node"><title>Node3</title>
<a xlink:href="class_ultrasonic.html#a765c830f4ff4c68e83de2f14d43fa54c" target="_top" xlink:title="Ultrasonic::IsRangeValid">
<polygon fill="white" stroke="black" points="336.5,-38.5 336.5,-57.5 459.5,-57.5 459.5,-38.5 336.5,-38.5"/>
<text text-anchor="middle" x="398" y="-45.5" font-family="Helvetica,sans-Serif" font-size="10.00">Ultrasonic::IsRangeValid</text>
</a>
</g>
<!-- Node2&#45;&gt;Node3 -->
<g id="edge4" class="edge"><title>Node2&#45;&gt;Node3</title>
<path fill="none" stroke="midnightblue" d="M300.064,-36.8377C308.742,-37.8369 317.639,-38.8615 326.356,-39.8653"/>
<polygon fill="midnightblue" stroke="midnightblue" points="326.148,-43.3643 336.482,-41.0313 326.948,-36.4102 326.148,-43.3643"/>
</g>
<!-- Node6 -->
<g id="node11" class="node"><title>Node6</title>
<a xlink:href="class_counter.html#a51030989a5ee306beaf40ac28ab362c0" target="_top" xlink:title="Counter::GetPeriod">
<polygon fill="white" stroke="black" points="496,-0.5 496,-19.5 596,-19.5 596,-0.5 496,-0.5"/>
<text text-anchor="middle" x="546" y="-7.5" font-family="Helvetica,sans-Serif" font-size="10.00">Counter::GetPeriod</text>
</a>
</g>
<!-- Node2&#45;&gt;Node6 -->
<g id="edge10" class="edge"><title>Node2&#45;&gt;Node6</title>
<path fill="none" stroke="midnightblue" d="M300.302,-24.8538C355.615,-21.4962 432.751,-16.8139 485.545,-13.6091"/>
<polygon fill="midnightblue" stroke="midnightblue" points="485.996,-17.0882 495.766,-12.9887 485.572,-10.1011 485.996,-17.0882"/>
</g>
<!-- Node4 -->
<g id="node7" class="node"><title>Node4</title>
<a xlink:href="class_counter.html#a72086dbd17d7baf28bacfb13562af6b6" target="_top" xlink:title="Counter::Get">
<polygon fill="white" stroke="black" points="510,-38.5 510,-57.5 582,-57.5 582,-38.5 510,-38.5"/>
<text text-anchor="middle" x="546" y="-45.5" font-family="Helvetica,sans-Serif" font-size="10.00">Counter::Get</text>
</a>
</g>
<!-- Node3&#45;&gt;Node4 -->
<g id="edge6" class="edge"><title>Node3&#45;&gt;Node4</title>
<path fill="none" stroke="midnightblue" d="M459.649,-48C472.992,-48 486.903,-48 499.526,-48"/>
<polygon fill="midnightblue" stroke="midnightblue" points="499.787,-51.5001 509.787,-48 499.787,-44.5001 499.787,-51.5001"/>
</g>
<!-- Node5 -->
<g id="node9" class="node"><title>Node5</title>
<a xlink:href="class_error_base.html#a05790f219c9e436a09752f73f7344024" target="_top" xlink:title="Check if the current error code represents a fatal error. ">
<polygon fill="white" stroke="black" points="632,-19.5 632,-38.5 756,-38.5 756,-19.5 632,-19.5"/>
<text text-anchor="middle" x="694" y="-26.5" font-family="Helvetica,sans-Serif" font-size="10.00">ErrorBase::StatusIsFatal</text>
</a>
</g>
<!-- Node4&#45;&gt;Node5 -->
<g id="edge8" class="edge"><title>Node4&#45;&gt;Node5</title>
<path fill="none" stroke="midnightblue" d="M582.343,-43.4006C594.295,-41.8452 608.101,-40.0484 621.822,-38.2629"/>
<polygon fill="midnightblue" stroke="midnightblue" points="622.306,-41.7296 631.77,-36.9682 621.402,-34.7881 622.306,-41.7296"/>
</g>
<!-- Node6&#45;&gt;Node5 -->
<g id="edge12" class="edge"><title>Node6&#45;&gt;Node5</title>
<path fill="none" stroke="midnightblue" d="M596.022,-16.3796C604.298,-17.4566 613.037,-18.5939 621.743,-19.7268"/>
<polygon fill="midnightblue" stroke="midnightblue" points="621.55,-23.2311 631.918,-21.051 622.453,-16.2897 621.55,-23.2311"/>
</g>
</g>
</svg>
