<?xml version="1.0" encoding="UTF-8" standalone="no"?>
<!DOCTYPE svg PUBLIC "-//W3C//DTD SVG 1.1//EN"
 "http://www.w3.org/Graphics/SVG/1.1/DTD/svg11.dtd">
<!-- Generated by graphviz version 2.28.0 (20110507.0327)
 -->
<!-- Title: MonoImage Pages: 1 -->
<svg width="78pt" height="196pt"
 viewBox="0.00 0.00 78.00 196.00" xmlns="http://www.w3.org/2000/svg" xmlns:xlink="http://www.w3.org/1999/xlink">
<g id="graph1" class="graph" transform="scale(1 1) rotate(0) translate(4 192)">
<title>MonoImage</title>
<polygon fill="white" stroke="white" points="-4,5 -4,-192 75,-192 75,5 -4,5"/>
<!-- Node1 -->
<g id="node1" class="node"><title>Node1</title>
<polygon fill="#bfbfbf" stroke="black" points="1.5,-56.5 1.5,-75.5 68.5,-75.5 68.5,-56.5 1.5,-56.5"/>
<text text-anchor="middle" x="35" y="-63.5" font-family="Helvetica,sans-Serif" font-size="10.00">MonoImage</text>
</g>
<!-- Node4 -->
<g id="node7" class="node"><title>Node4</title>
<a xlink:href="class_binary_image.html" target="_top" xlink:title="BinaryImage">
<polygon fill="white" stroke="black" points="-0.5,-0.5 -0.5,-19.5 70.5,-19.5 70.5,-0.5 -0.5,-0.5"/>
<text text-anchor="middle" x="35" y="-7.5" font-family="Helvetica,sans-Serif" font-size="10.00">BinaryImage</text>
</a>
</g>
<!-- Node1&#45;&gt;Node4 -->
<g id="edge6" class="edge"><title>Node1&#45;&gt;Node4</title>
<path fill="none" stroke="midnightblue" d="M35,-45.8045C35,-36.9102 35,-26.7798 35,-19.7511"/>
<polygon fill="midnightblue" stroke="midnightblue" points="31.5001,-46.083 35,-56.083 38.5001,-46.083 31.5001,-46.083"/>
</g>
<!-- Node2 -->
<g id="node2" class="node"><title>Node2</title>
<a xlink:href="class_image_base.html" target="_top" xlink:title="ImageBase">
<polygon fill="white" stroke="black" points="2.5,-112.5 2.5,-131.5 67.5,-131.5 67.5,-112.5 2.5,-112.5"/>
<text text-anchor="middle" x="35" y="-119.5" font-family="Helvetica,sans-Serif" font-size="10.00">ImageBase</text>
</a>
</g>
<!-- Node2&#45;&gt;Node1 -->
<g id="edge2" class="edge"><title>Node2&#45;&gt;Node1</title>
<path fill="none" stroke="midnightblue" d="M35,-101.805C35,-92.9102 35,-82.7798 35,-75.7511"/>
<polygon fill="midnightblue" stroke="midnightblue" points="31.5001,-102.083 35,-112.083 38.5001,-102.083 31.5001,-102.083"/>
</g>
<!-- Node3 -->
<g id="node4" class="node"><title>Node3</title>
<a xlink:href="class_error_base.html" target="_top" xlink:title="ErrorBase">
<polygon fill="white" stroke="black" points="5,-168.5 5,-187.5 65,-187.5 65,-168.5 5,-168.5"/>
<text text-anchor="middle" x="35" y="-175.5" font-family="Helvetica,sans-Serif" font-size="10.00">ErrorBase</text>
</a>
</g>
<!-- Node3&#45;&gt;Node2 -->
<g id="edge4" class="edge"><title>Node3&#45;&gt;Node2</title>
<path fill="none" stroke="midnightblue" d="M35,-157.805C35,-148.91 35,-138.78 35,-131.751"/>
<polygon fill="midnightblue" stroke="midnightblue" points="31.5001,-158.083 35,-168.083 38.5001,-158.083 31.5001,-158.083"/>
</g>
</g>
</svg>
