<?xml version="1.0" encoding="UTF-8" standalone="no"?>
<!DOCTYPE svg PUBLIC "-//W3C//DTD SVG 1.1//EN"
 "http://www.w3.org/Graphics/SVG/1.1/DTD/svg11.dtd">
<!-- Generated by graphviz version 2.28.0 (20110507.0327)
 -->
<!-- Title: ADXL345_SPI::Init Pages: 1 -->
<svg width="414pt" height="256pt"
 viewBox="0.00 0.00 414.00 256.00" xmlns="http://www.w3.org/2000/svg" xmlns:xlink="http://www.w3.org/1999/xlink">
<g id="graph1" class="graph" transform="scale(1 1) rotate(0) translate(4 252)">
<title>ADXL345_SPI::Init</title>
<polygon fill="white" stroke="white" points="-4,5 -4,-252 411,-252 411,5 -4,5"/>
<!-- Node1 -->
<g id="node1" class="node"><title>Node1</title>
<polygon fill="#bfbfbf" stroke="black" points="0,-114.5 0,-133.5 96,-133.5 96,-114.5 0,-114.5"/>
<text text-anchor="middle" x="48" y="-121.5" font-family="Helvetica,sans-Serif" font-size="10.00">ADXL345_SPI::Init</text>
</g>
<!-- Node2 -->
<g id="node3" class="node"><title>Node2</title>
<a xlink:href="class_s_p_i.html#a27b450354fc78eb4441e7d59f8fe65f2" target="_top" xlink:title="SPI::SetClockRate">
<polygon fill="white" stroke="black" points="157,-228.5 157,-247.5 255,-247.5 255,-228.5 157,-228.5"/>
<text text-anchor="middle" x="206" y="-235.5" font-family="Helvetica,sans-Serif" font-size="10.00">SPI::SetClockRate</text>
</a>
</g>
<!-- Node1&#45;&gt;Node2 -->
<g id="edge2" class="edge"><title>Node1&#45;&gt;Node2</title>
<path fill="none" stroke="midnightblue" d="M54.7042,-133.786C66.5301,-153.178 95.6731,-196.544 132,-219 136.734,-221.927 141.909,-224.405 147.246,-226.504"/>
<polygon fill="midnightblue" stroke="midnightblue" points="146.376,-229.907 156.971,-229.885 148.675,-223.295 146.376,-229.907"/>
</g>
<!-- Node3 -->
<g id="node5" class="node"><title>Node3</title>
<a xlink:href="class_s_p_i.html#a66ed807d9a76400a74e815837b3ff32b" target="_top" xlink:title="SPI::SetMSBFirst">
<polygon fill="white" stroke="black" points="158.5,-190.5 158.5,-209.5 253.5,-209.5 253.5,-190.5 158.5,-190.5"/>
<text text-anchor="middle" x="206" y="-197.5" font-family="Helvetica,sans-Serif" font-size="10.00">SPI::SetMSBFirst</text>
</a>
</g>
<!-- Node1&#45;&gt;Node3 -->
<g id="edge4" class="edge"><title>Node1&#45;&gt;Node3</title>
<path fill="none" stroke="midnightblue" d="M60.3117,-133.693C75.6036,-146.326 104.171,-168.298 132,-181 137.266,-183.404 142.89,-185.544 148.591,-187.44"/>
<polygon fill="midnightblue" stroke="midnightblue" points="147.622,-190.803 158.21,-190.403 149.684,-184.114 147.622,-190.803"/>
</g>
<!-- Node4 -->
<g id="node7" class="node"><title>Node4</title>
<a xlink:href="class_s_p_i.html#a463dc7cb26d0b865c44c73538bc23ae0" target="_top" xlink:title="SPI::SetSampleDataOnFalling">
<polygon fill="white" stroke="black" points="132,-152.5 132,-171.5 280,-171.5 280,-152.5 132,-152.5"/>
<text text-anchor="middle" x="206" y="-159.5" font-family="Helvetica,sans-Serif" font-size="10.00">SPI::SetSampleDataOnFalling</text>
</a>
</g>
<!-- Node1&#45;&gt;Node4 -->
<g id="edge6" class="edge"><title>Node1&#45;&gt;Node4</title>
<path fill="none" stroke="midnightblue" d="M88.3654,-133.589C108.951,-138.604 134.34,-144.788 156.169,-150.105"/>
<polygon fill="midnightblue" stroke="midnightblue" points="155.373,-153.514 165.918,-152.48 157.03,-146.713 155.373,-153.514"/>
</g>
<!-- Node5 -->
<g id="node9" class="node"><title>Node5</title>
<a xlink:href="class_s_p_i.html#aa1b8cb48216e0a502bb34486636da047" target="_top" xlink:title="SPI::SetClockActiveLow">
<polygon fill="white" stroke="black" points="145,-114.5 145,-133.5 267,-133.5 267,-114.5 145,-114.5"/>
<text text-anchor="middle" x="206" y="-121.5" font-family="Helvetica,sans-Serif" font-size="10.00">SPI::SetClockActiveLow</text>
</a>
</g>
<!-- Node1&#45;&gt;Node5 -->
<g id="edge8" class="edge"><title>Node1&#45;&gt;Node5</title>
<path fill="none" stroke="midnightblue" d="M96.2285,-124C108.329,-124 121.605,-124 134.598,-124"/>
<polygon fill="midnightblue" stroke="midnightblue" points="134.93,-127.5 144.93,-124 134.929,-120.5 134.93,-127.5"/>
</g>
<!-- Node6 -->
<g id="node11" class="node"><title>Node6</title>
<a xlink:href="class_s_p_i.html#a21151e848fec7a76dac93175d87c15cc" target="_top" xlink:title="SPI::SetChipSelectActiveHigh">
<polygon fill="white" stroke="black" points="133,-76.5 133,-95.5 279,-95.5 279,-76.5 133,-76.5"/>
<text text-anchor="middle" x="206" y="-83.5" font-family="Helvetica,sans-Serif" font-size="10.00">SPI::SetChipSelectActiveHigh</text>
</a>
</g>
<!-- Node1&#45;&gt;Node6 -->
<g id="edge10" class="edge"><title>Node1&#45;&gt;Node6</title>
<path fill="none" stroke="midnightblue" d="M88.3654,-114.411C108.951,-109.396 134.34,-103.212 156.169,-97.8947"/>
<polygon fill="midnightblue" stroke="midnightblue" points="157.03,-101.287 165.918,-95.5201 155.373,-94.4863 157.03,-101.287"/>
</g>
<!-- Node7 -->
<g id="node13" class="node"><title>Node7</title>
<a xlink:href="class_s_p_i.html#a57e9c8cac374878879b32f43667e1e09" target="_top" xlink:title="SPI::Transaction">
<polygon fill="white" stroke="black" points="316.5,-19.5 316.5,-38.5 405.5,-38.5 405.5,-19.5 316.5,-19.5"/>
<text text-anchor="middle" x="361" y="-26.5" font-family="Helvetica,sans-Serif" font-size="10.00">SPI::Transaction</text>
</a>
</g>
<!-- Node1&#45;&gt;Node7 -->
<g id="edge12" class="edge"><title>Node1&#45;&gt;Node7</title>
<path fill="none" stroke="midnightblue" d="M59.8917,-114.152C74.9375,-101.135 103.469,-78.5105 132,-67 188.86,-44.0607 259.064,-34.9673 306.43,-31.3636"/>
<polygon fill="midnightblue" stroke="midnightblue" points="306.744,-34.8502 316.473,-30.6557 306.251,-27.8676 306.744,-34.8502"/>
</g>
<!-- Node8 -->
<g id="node15" class="node"><title>Node8</title>
<a xlink:href="class_a_d_x_l345___s_p_i.html#addf684facb418bba3b282cefb9f4df0f" target="_top" xlink:title="ADXL345_SPI::SetRange">
<polygon fill="white" stroke="black" points="143,-0.5 143,-19.5 269,-19.5 269,-0.5 143,-0.5"/>
<text text-anchor="middle" x="206" y="-7.5" font-family="Helvetica,sans-Serif" font-size="10.00">ADXL345_SPI::SetRange</text>
</a>
</g>
<!-- Node1&#45;&gt;Node8 -->
<g id="edge14" class="edge"><title>Node1&#45;&gt;Node8</title>
<path fill="none" stroke="midnightblue" d="M55.338,-114.364C67.8453,-96.0788 97.5017,-56.197 132,-34 138.705,-29.6857 146.258,-26.0777 153.898,-23.0815"/>
<polygon fill="midnightblue" stroke="midnightblue" points="155.338,-26.2832 163.564,-19.6062 152.97,-19.696 155.338,-26.2832"/>
</g>
<!-- Node8&#45;&gt;Node7 -->
<g id="edge16" class="edge"><title>Node8&#45;&gt;Node7</title>
<path fill="none" stroke="midnightblue" d="M269.231,-17.728C281.389,-19.2378 294.045,-20.8095 305.912,-22.2832"/>
<polygon fill="midnightblue" stroke="midnightblue" points="305.75,-25.7899 316.105,-23.549 306.613,-18.8432 305.75,-25.7899"/>
</g>
</g>
</svg>
