<?xml version="1.0" encoding="UTF-8" standalone="no"?>
<!DOCTYPE svg PUBLIC "-//W3C//DTD SVG 1.1//EN"
 "http://www.w3.org/Graphics/SVG/1.1/DTD/svg11.dtd">
<!-- Generated by graphviz version 2.28.0 (20110507.0327)
 -->
<!-- Title: CANJaguar::CANJaguar Pages: 1 -->
<svg width="872pt" height="183pt"
 viewBox="0.00 0.00 872.00 183.00" xmlns="http://www.w3.org/2000/svg" xmlns:xlink="http://www.w3.org/1999/xlink">
<g id="graph1" class="graph" transform="scale(1 1) rotate(0) translate(4 179)">
<title>CANJaguar::CANJaguar</title>
<polygon fill="white" stroke="white" points="-4,5 -4,-179 869,-179 869,5 -4,5"/>
<!-- Node1 -->
<g id="node1" class="node"><title>Node1</title>
<polygon fill="#bfbfbf" stroke="black" points="0,-87.5 0,-106.5 120,-106.5 120,-87.5 0,-87.5"/>
<text text-anchor="middle" x="60" y="-94.5" font-family="Helvetica,sans-Serif" font-size="10.00">CANJaguar::CANJaguar</text>
</g>
<!-- Node2 -->
<g id="node3" class="node"><title>Node2</title>
<a xlink:href="class_resource.html#a147c8d5e09e81724d3e726b90af758f3" target="_top" xlink:title="Resource::CreateResource\lObject">
<polygon fill="white" stroke="black" points="161,-145 161,-175 295,-175 295,-145 161,-145"/>
<text text-anchor="start" x="169" y="-163" font-family="Helvetica,sans-Serif" font-size="10.00">Resource::CreateResource</text>
<text text-anchor="middle" x="228" y="-152" font-family="Helvetica,sans-Serif" font-size="10.00">Object</text>
</a>
</g>
<!-- Node1&#45;&gt;Node2 -->
<g id="edge2" class="edge"><title>Node1&#45;&gt;Node2</title>
<path fill="none" stroke="midnightblue" d="M84.3181,-106.644C103.484,-114.495 131.391,-125.75 156,-135 161.78,-137.172 167.845,-139.395 173.893,-141.574"/>
<polygon fill="midnightblue" stroke="midnightblue" points="172.745,-144.881 183.339,-144.951 175.101,-138.289 172.745,-144.881"/>
</g>
<!-- Node3 -->
<g id="node5" class="node"><title>Node3</title>
<a xlink:href="class_resource.html#ae7cf0288517fb7faceb241d481b23452" target="_top" xlink:title="Resource::Allocate">
<polygon fill="white" stroke="black" points="178.5,-106.5 178.5,-125.5 277.5,-125.5 277.5,-106.5 178.5,-106.5"/>
<text text-anchor="middle" x="228" y="-113.5" font-family="Helvetica,sans-Serif" font-size="10.00">Resource::Allocate</text>
</a>
</g>
<!-- Node1&#45;&gt;Node3 -->
<g id="edge4" class="edge"><title>Node1&#45;&gt;Node3</title>
<path fill="none" stroke="midnightblue" d="M120.461,-103.806C136.029,-105.588 152.802,-107.507 168.328,-109.285"/>
<polygon fill="midnightblue" stroke="midnightblue" points="167.993,-112.769 178.327,-110.429 168.79,-105.814 167.993,-112.769"/>
</g>
<!-- Node4 -->
<g id="node7" class="node"><title>Node4</title>
<a xlink:href="class_c_a_n_jaguar.html#ac2d2c69ce26f0ccbf4191349e4eba055" target="_top" xlink:title="CANJaguar::SetPercentMode">
<polygon fill="white" stroke="black" points="156,-68.5 156,-87.5 300,-87.5 300,-68.5 156,-68.5"/>
<text text-anchor="middle" x="228" y="-75.5" font-family="Helvetica,sans-Serif" font-size="10.00">CANJaguar::SetPercentMode</text>
</a>
</g>
<!-- Node1&#45;&gt;Node4 -->
<g id="edge6" class="edge"><title>Node1&#45;&gt;Node4</title>
<path fill="none" stroke="midnightblue" d="M120.461,-90.1942C128.685,-89.2529 137.246,-88.273 145.782,-87.2961"/>
<polygon fill="midnightblue" stroke="midnightblue" points="146.231,-90.7675 155.769,-86.153 145.435,-83.8129 146.231,-90.7675"/>
</g>
<!-- Node10 -->
<g id="node21" class="node"><title>Node10</title>
<a xlink:href="class_c_a_n_jaguar.html#a44ea3760f054da59612cb0c3972c0696" target="_top" xlink:title="CANJaguar::ConfigMaxOutput\lVoltage">
<polygon fill="white" stroke="black" points="342,-0 342,-30 488,-30 488,-0 342,-0"/>
<text text-anchor="start" x="350" y="-18" font-family="Helvetica,sans-Serif" font-size="10.00">CANJaguar::ConfigMaxOutput</text>
<text text-anchor="middle" x="415" y="-7" font-family="Helvetica,sans-Serif" font-size="10.00">Voltage</text>
</a>
</g>
<!-- Node1&#45;&gt;Node10 -->
<g id="edge22" class="edge"><title>Node1&#45;&gt;Node10</title>
<path fill="none" stroke="midnightblue" d="M81.3185,-87.4103C100.263,-78.824 129.499,-66.469 156,-59 213.812,-42.7065 280.71,-31.508 331.896,-24.4871"/>
<polygon fill="midnightblue" stroke="midnightblue" points="332.473,-27.9412 341.917,-23.1384 331.539,-21.0037 332.473,-27.9412"/>
</g>
<!-- Node5 -->
<g id="node9" class="node"><title>Node5</title>
<a xlink:href="class_c_a_n_jaguar.html#ad359943907bf802075474a3753f7fb02" target="_top" xlink:title="CANJaguar::SetControlMode">
<polygon fill="white" stroke="black" points="344.5,-125.5 344.5,-144.5 485.5,-144.5 485.5,-125.5 344.5,-125.5"/>
<text text-anchor="middle" x="415" y="-132.5" font-family="Helvetica,sans-Serif" font-size="10.00">CANJaguar::SetControlMode</text>
</a>
</g>
<!-- Node4&#45;&gt;Node5 -->
<g id="edge8" class="edge"><title>Node4&#45;&gt;Node5</title>
<path fill="none" stroke="midnightblue" d="M267.917,-87.5928C278.401,-90.3999 289.692,-93.6275 300,-97 316.316,-102.338 319.785,-105.361 336,-111 347.385,-114.96 359.818,-118.938 371.344,-122.486"/>
<polygon fill="midnightblue" stroke="midnightblue" points="370.605,-125.919 381.191,-125.481 372.643,-119.222 370.605,-125.919"/>
</g>
<!-- Node8 -->
<g id="node15" class="node"><title>Node8</title>
<a xlink:href="class_c_a_n_jaguar.html#a4ea009bbaaa337eeb10efba61203ee38" target="_top" xlink:title="CANJaguar::SetPositionReference">
<polygon fill="white" stroke="black" points="530.5,-87.5 530.5,-106.5 695.5,-106.5 695.5,-87.5 530.5,-87.5"/>
<text text-anchor="middle" x="613" y="-94.5" font-family="Helvetica,sans-Serif" font-size="10.00">CANJaguar::SetPositionReference</text>
</a>
</g>
<!-- Node4&#45;&gt;Node8 -->
<g id="edge14" class="edge"><title>Node4&#45;&gt;Node8</title>
<path fill="none" stroke="midnightblue" d="M300.142,-81.5292C362.18,-84.6069 452.56,-89.0905 520.069,-92.4395"/>
<polygon fill="midnightblue" stroke="midnightblue" points="520.117,-95.9461 530.278,-92.9459 520.464,-88.9546 520.117,-95.9461"/>
</g>
<!-- Node9 -->
<g id="node18" class="node"><title>Node9</title>
<a xlink:href="class_c_a_n_jaguar.html#ac6780a940570ec0386d234b309fb260d" target="_top" xlink:title="CANJaguar::SetSpeedReference">
<polygon fill="white" stroke="black" points="336,-49.5 336,-68.5 494,-68.5 494,-49.5 336,-49.5"/>
<text text-anchor="middle" x="415" y="-56.5" font-family="Helvetica,sans-Serif" font-size="10.00">CANJaguar::SetSpeedReference</text>
</a>
</g>
<!-- Node4&#45;&gt;Node9 -->
<g id="edge18" class="edge"><title>Node4&#45;&gt;Node9</title>
<path fill="none" stroke="midnightblue" d="M300.261,-70.6813C308.601,-69.8247 317.185,-68.9431 325.721,-68.0665"/>
<polygon fill="midnightblue" stroke="midnightblue" points="326.111,-71.5449 335.702,-67.0415 325.396,-64.5815 326.111,-71.5449"/>
</g>
<!-- Node6 -->
<g id="node11" class="node"><title>Node6</title>
<a xlink:href="class_c_a_n_jaguar.html#a6bbbf784a74cf95f7b4a5660a3d53cc2" target="_top" xlink:title="CANJaguar::DisableControl">
<polygon fill="white" stroke="black" points="546,-125.5 546,-144.5 680,-144.5 680,-125.5 546,-125.5"/>
<text text-anchor="middle" x="613" y="-132.5" font-family="Helvetica,sans-Serif" font-size="10.00">CANJaguar::DisableControl</text>
</a>
</g>
<!-- Node5&#45;&gt;Node6 -->
<g id="edge10" class="edge"><title>Node5&#45;&gt;Node6</title>
<path fill="none" stroke="midnightblue" d="M485.654,-135C501.873,-135 519.226,-135 535.715,-135"/>
<polygon fill="midnightblue" stroke="midnightblue" points="535.853,-138.5 545.853,-135 535.853,-131.5 535.853,-138.5"/>
</g>
<!-- Node7 -->
<g id="node13" class="node"><title>Node7</title>
<a xlink:href="class_c_a_n_jaguar.html#a6b82b54cc4033c3c5218ab04fb6c8282" target="_top" xlink:title="CANJaguar::sendMessage">
<polygon fill="white" stroke="black" points="732,-68.5 732,-87.5 864,-87.5 864,-68.5 732,-68.5"/>
<text text-anchor="middle" x="798" y="-75.5" font-family="Helvetica,sans-Serif" font-size="10.00">CANJaguar::sendMessage</text>
</a>
</g>
<!-- Node6&#45;&gt;Node7 -->
<g id="edge12" class="edge"><title>Node6&#45;&gt;Node7</title>
<path fill="none" stroke="midnightblue" d="M660.254,-125.408C671.995,-122.666 684.53,-119.47 696,-116 719.317,-108.946 745.005,-99.2539 764.639,-91.4238"/>
<polygon fill="midnightblue" stroke="midnightblue" points="766.067,-94.6222 774.032,-87.6362 763.449,-88.1301 766.067,-94.6222"/>
</g>
<!-- Node8&#45;&gt;Node7 -->
<g id="edge16" class="edge"><title>Node8&#45;&gt;Node7</title>
<path fill="none" stroke="midnightblue" d="M695.599,-88.528C704.299,-87.6247 713.12,-86.7088 721.742,-85.8136"/>
<polygon fill="midnightblue" stroke="midnightblue" points="722.169,-89.2883 731.754,-84.7742 721.446,-82.3257 722.169,-89.2883"/>
</g>
<!-- Node9&#45;&gt;Node7 -->
<g id="edge20" class="edge"><title>Node9&#45;&gt;Node7</title>
<path fill="none" stroke="midnightblue" d="M494.02,-62.8908C560.563,-66.2092 655.631,-70.9501 721.453,-74.2326"/>
<polygon fill="midnightblue" stroke="midnightblue" points="721.596,-77.7439 731.758,-74.7464 721.944,-70.7526 721.596,-77.7439"/>
</g>
<!-- Node10&#45;&gt;Node7 -->
<g id="edge24" class="edge"><title>Node10&#45;&gt;Node7</title>
<path fill="none" stroke="midnightblue" d="M488.111,-26.9239C557.469,-38.3925 661.515,-55.5969 729.339,-66.812"/>
<polygon fill="midnightblue" stroke="midnightblue" points="729.051,-70.3118 739.488,-68.4902 730.193,-63.4056 729.051,-70.3118"/>
</g>
</g>
</svg>
