<?xml version="1.0" encoding="UTF-8" standalone="no"?>
<!DOCTYPE svg PUBLIC "-//W3C//DTD SVG 1.1//EN"
 "http://www.w3.org/Graphics/SVG/1.1/DTD/svg11.dtd">
<!-- Generated by graphviz version 2.28.0 (20110507.0327)
 -->
<!-- Title: Encoder::GetRaw Pages: 1 -->
<svg width="534pt" height="85pt"
 viewBox="0.00 0.00 534.00 85.00" xmlns="http://www.w3.org/2000/svg" xmlns:xlink="http://www.w3.org/1999/xlink">
<g id="graph1" class="graph" transform="scale(1 1) rotate(0) translate(4 81)">
<title>Encoder::GetRaw</title>
<polygon fill="white" stroke="white" points="-4,5 -4,-81 531,-81 531,5 -4,5"/>
<!-- Node1 -->
<g id="node1" class="node"><title>Node1</title>
<polygon fill="#bfbfbf" stroke="black" points="0.5,-38.5 0.5,-57.5 93.5,-57.5 93.5,-38.5 0.5,-38.5"/>
<text text-anchor="middle" x="47" y="-45.5" font-family="Helvetica,sans-Serif" font-size="10.00">Encoder::GetRaw</text>
</g>
<!-- Node2 -->
<g id="node3" class="node"><title>Node2</title>
<a xlink:href="class_encoder.html#ae2f56d8ab8994835bd954cad75f5a670" target="_top" xlink:title="Encoder::Get">
<polygon fill="white" stroke="black" points="150,-57.5 150,-76.5 224,-76.5 224,-57.5 150,-57.5"/>
<text text-anchor="middle" x="187" y="-64.5" font-family="Helvetica,sans-Serif" font-size="10.00">Encoder::Get</text>
</a>
</g>
<!-- Node1&#45;&gt;Node2 -->
<g id="edge2" class="edge"><title>Node1&#45;&gt;Node2</title>
<path fill="none" stroke="midnightblue" d="M103.592,-55.654C119.103,-57.7896 135.555,-60.0547 149.646,-61.9948"/>
<polygon fill="midnightblue" stroke="midnightblue" points="103.953,-52.1707 93.5688,-54.274 102.998,-59.1053 103.953,-52.1707"/>
</g>
<!-- Node3 -->
<g id="node5" class="node"><title>Node3</title>
<a xlink:href="class_encoder.html#a523cc5a0cbd52f937f2a25a14185bc22" target="_top" xlink:title="Encoder::GetDistance">
<polygon fill="white" stroke="black" points="130.5,-19.5 130.5,-38.5 243.5,-38.5 243.5,-19.5 130.5,-19.5"/>
<text text-anchor="middle" x="187" y="-26.5" font-family="Helvetica,sans-Serif" font-size="10.00">Encoder::GetDistance</text>
</a>
</g>
<!-- Node1&#45;&gt;Node3 -->
<g id="edge4" class="edge"><title>Node1&#45;&gt;Node3</title>
<path fill="none" stroke="midnightblue" d="M103.714,-40.3292C112.504,-39.119 121.593,-37.8676 130.381,-36.6577"/>
<polygon fill="midnightblue" stroke="midnightblue" points="102.998,-36.8947 93.5688,-41.726 103.953,-43.8293 102.998,-36.8947"/>
</g>
<!-- Node4 -->
<g id="node7" class="node"><title>Node4</title>
<a xlink:href="class_encoder.html#a08665d9e47c9fa77606dfe8611612e73" target="_top" xlink:title="Encoder::PIDGet">
<polygon fill="white" stroke="black" points="292,-38.5 292,-57.5 382,-57.5 382,-38.5 292,-38.5"/>
<text text-anchor="middle" x="337" y="-45.5" font-family="Helvetica,sans-Serif" font-size="10.00">Encoder::PIDGet</text>
</a>
</g>
<!-- Node3&#45;&gt;Node4 -->
<g id="edge6" class="edge"><title>Node3&#45;&gt;Node4</title>
<path fill="none" stroke="midnightblue" d="M253.733,-37.4387C266.581,-39.0881 279.766,-40.7808 291.713,-42.3145"/>
<polygon fill="midnightblue" stroke="midnightblue" points="253.895,-33.9309 243.531,-36.129 253.004,-40.8739 253.895,-33.9309"/>
</g>
<!-- Node5 -->
<g id="node9" class="node"><title>Node5</title>
<a xlink:href="class_encoder.html#a2f6a1ab80e3590e2687551b22d8669e4" target="_top" xlink:title="Encoder::UpdateTable">
<polygon fill="white" stroke="black" points="280.5,-0.5 280.5,-19.5 393.5,-19.5 393.5,-0.5 280.5,-0.5"/>
<text text-anchor="middle" x="337" y="-7.5" font-family="Helvetica,sans-Serif" font-size="10.00">Encoder::UpdateTable</text>
</a>
</g>
<!-- Node3&#45;&gt;Node5 -->
<g id="edge8" class="edge"><title>Node3&#45;&gt;Node5</title>
<path fill="none" stroke="midnightblue" d="M253.481,-20.5937C262.381,-19.451 271.449,-18.287 280.158,-17.1689"/>
<polygon fill="midnightblue" stroke="midnightblue" points="253.004,-17.1261 243.531,-21.871 253.895,-24.0691 253.004,-17.1261"/>
</g>
<!-- Node6 -->
<g id="node11" class="node"><title>Node6</title>
<a xlink:href="class_encoder.html#a9e1ff7a1231b13de80a6b8ec06cc6886" target="_top" xlink:title="Encoder::InitTable">
<polygon fill="white" stroke="black" points="430.5,-0.5 430.5,-19.5 525.5,-19.5 525.5,-0.5 430.5,-0.5"/>
<text text-anchor="middle" x="478" y="-7.5" font-family="Helvetica,sans-Serif" font-size="10.00">Encoder::InitTable</text>
</a>
</g>
<!-- Node5&#45;&gt;Node6 -->
<g id="edge10" class="edge"><title>Node5&#45;&gt;Node6</title>
<path fill="none" stroke="midnightblue" d="M403.747,-10C412.673,-10 421.683,-10 430.183,-10"/>
<polygon fill="midnightblue" stroke="midnightblue" points="403.736,-6.5001 393.736,-10 403.736,-13.5001 403.736,-6.5001"/>
</g>
</g>
</svg>
