<?xml version="1.0" encoding="UTF-8" standalone="no"?>
<!DOCTYPE svg PUBLIC "-//W3C//DTD SVG 1.1//EN"
 "http://www.w3.org/Graphics/SVG/1.1/DTD/svg11.dtd">
<!-- Generated by graphviz version 2.28.0 (20110507.0327)
 -->
<!-- Title: testing::internal::HasNewFatalFailureHelper Pages: 1 -->
<svg width="160pt" height="108pt"
 viewBox="0.00 0.00 160.00 108.00" xmlns="http://www.w3.org/2000/svg" xmlns:xlink="http://www.w3.org/1999/xlink">
<g id="graph1" class="graph" transform="scale(1 1) rotate(0) translate(4 104)">
<title>testing::internal::HasNewFatalFailureHelper</title>
<polygon fill="white" stroke="white" points="-4,5 -4,-104 157,-104 157,5 -4,5"/>
<!-- Node1 -->
<g id="node1" class="node"><title>Node1</title>
<polygon fill="#bfbfbf" stroke="black" points="10.5,-1 10.5,-31 141.5,-31 141.5,-1 10.5,-1"/>
<text text-anchor="start" x="18.5" y="-19" font-family="Helvetica,sans-Serif" font-size="10.00">testing::internal::</text>
<text text-anchor="middle" x="76" y="-8" font-family="Helvetica,sans-Serif" font-size="10.00">HasNewFatalFailureHelper</text>
</g>
<!-- Node2 -->
<g id="node2" class="node"><title>Node2</title>
<a xlink:href="classtesting_1_1_test_part_result_reporter_interface.html" target="_top" xlink:title="testing::TestPartResultReporter\lInterface">
<polygon fill="white" stroke="black" points="-0.5,-69 -0.5,-99 152.5,-99 152.5,-69 -0.5,-69"/>
<text text-anchor="start" x="7.5" y="-87" font-family="Helvetica,sans-Serif" font-size="10.00">testing::TestPartResultReporter</text>
<text text-anchor="middle" x="76" y="-76" font-family="Helvetica,sans-Serif" font-size="10.00">Interface</text>
</a>
</g>
<!-- Node2&#45;&gt;Node1 -->
<g id="edge2" class="edge"><title>Node2&#45;&gt;Node1</title>
<path fill="none" stroke="midnightblue" d="M76,-58.5322C76,-49.3606 76,-39.2449 76,-31.2931"/>
<polygon fill="midnightblue" stroke="midnightblue" points="72.5001,-58.6789 76,-68.679 79.5001,-58.679 72.5001,-58.6789"/>
</g>
</g>
</svg>
