<?xml version="1.0" encoding="UTF-8" standalone="no"?>
<!DOCTYPE svg PUBLIC "-//W3C//DTD SVG 1.1//EN"
 "http://www.w3.org/Graphics/SVG/1.1/DTD/svg11.dtd">
<!-- Generated by graphviz version 2.28.0 (20110507.0327)
 -->
<!-- Title: DigitalInput Pages: 1 -->
<svg width="249pt" height="348pt"
 viewBox="0.00 0.00 249.00 348.00" xmlns="http://www.w3.org/2000/svg" xmlns:xlink="http://www.w3.org/1999/xlink">
<g id="graph1" class="graph" transform="scale(1 1) rotate(0) translate(4 344)">
<title>DigitalInput</title>
<polygon fill="white" stroke="white" points="-4,5 -4,-344 246,-344 246,5 -4,5"/>
<!-- Node1 -->
<g id="node1" class="node"><title>Node1</title>
<polygon fill="#bfbfbf" stroke="black" points="21.5,-0.5 21.5,-19.5 86.5,-19.5 86.5,-0.5 21.5,-0.5"/>
<text text-anchor="middle" x="54" y="-7.5" font-family="Helvetica,sans-Serif" font-size="10.00">DigitalInput</text>
</g>
<!-- Node2 -->
<g id="node2" class="node"><title>Node2</title>
<a xlink:href="class_live_window_sendable.html" target="_top" xlink:title="LiveWindowSendable">
<polygon fill="white" stroke="black" points="0,-58.5 0,-77.5 108,-77.5 108,-58.5 0,-58.5"/>
<text text-anchor="middle" x="54" y="-65.5" font-family="Helvetica,sans-Serif" font-size="10.00">LiveWindowSendable</text>
</a>
</g>
<!-- Node2&#45;&gt;Node1 -->
<g id="edge2" class="edge"><title>Node2&#45;&gt;Node1</title>
<path fill="none" stroke="midnightblue" d="M47.59,-48.2677C46.8505,-38.5326 47.3174,-27.113 48.9906,-19.5052"/>
<polygon fill="midnightblue" stroke="midnightblue" points="44.1311,-48.8081 48.9375,-58.25 51.0682,-47.8716 44.1311,-48.8081"/>
</g>
<!-- Node2&#45;&gt;Node1 -->
<g id="edge20" class="edge"><title>Node2&#45;&gt;Node1</title>
<path fill="none" stroke="midnightblue" d="M60.41,-48.2677C61.1495,-38.5326 60.6826,-27.113 59.0094,-19.5052"/>
<polygon fill="midnightblue" stroke="midnightblue" points="56.9318,-47.8716 59.0625,-58.25 63.8689,-48.8081 56.9318,-47.8716"/>
</g>
<!-- Node3 -->
<g id="node4" class="node"><title>Node3</title>
<a xlink:href="class_sendable.html" target="_top" xlink:title="Sendable">
<polygon fill="white" stroke="black" points="25.5,-116.5 25.5,-135.5 82.5,-135.5 82.5,-116.5 25.5,-116.5"/>
<text text-anchor="middle" x="54" y="-123.5" font-family="Helvetica,sans-Serif" font-size="10.00">Sendable</text>
</a>
</g>
<!-- Node3&#45;&gt;Node2 -->
<g id="edge4" class="edge"><title>Node3&#45;&gt;Node2</title>
<path fill="none" stroke="midnightblue" d="M54,-105.953C54,-96.2875 54,-85.0312 54,-77.5052"/>
<polygon fill="midnightblue" stroke="midnightblue" points="50.5001,-106.25 54,-116.25 57.5001,-106.25 50.5001,-106.25"/>
</g>
<!-- Node4 -->
<g id="node6" class="node"><title>Node4</title>
<a xlink:href="class_digital_source.html" target="_top" xlink:title="DigitalSource">
<polygon fill="white" stroke="black" points="126,-58.5 126,-77.5 200,-77.5 200,-58.5 126,-58.5"/>
<text text-anchor="middle" x="163" y="-65.5" font-family="Helvetica,sans-Serif" font-size="10.00">DigitalSource</text>
</a>
</g>
<!-- Node4&#45;&gt;Node1 -->
<g id="edge6" class="edge"><title>Node4&#45;&gt;Node1</title>
<path fill="none" stroke="midnightblue" d="M137.318,-53.8058C116.737,-43.2319 88.4586,-28.7035 70.7105,-19.5852"/>
<polygon fill="midnightblue" stroke="midnightblue" points="135.951,-57.0381 146.445,-58.4948 139.15,-50.8118 135.951,-57.0381"/>
</g>
<!-- Node5 -->
<g id="node8" class="node"><title>Node5</title>
<a xlink:href="class_interruptable_sensor_base.html" target="_top" xlink:title="InterruptableSensorBase">
<polygon fill="white" stroke="black" points="101.5,-116.5 101.5,-135.5 224.5,-135.5 224.5,-116.5 101.5,-116.5"/>
<text text-anchor="middle" x="163" y="-123.5" font-family="Helvetica,sans-Serif" font-size="10.00">InterruptableSensorBase</text>
</a>
</g>
<!-- Node5&#45;&gt;Node4 -->
<g id="edge8" class="edge"><title>Node5&#45;&gt;Node4</title>
<path fill="none" stroke="midnightblue" d="M163,-105.953C163,-96.2875 163,-85.0312 163,-77.5052"/>
<polygon fill="midnightblue" stroke="midnightblue" points="159.5,-106.25 163,-116.25 166.5,-106.25 159.5,-106.25"/>
</g>
<!-- Node6 -->
<g id="node10" class="node"><title>Node6</title>
<a xlink:href="class_sensor_base.html" target="_top" xlink:title="SensorBase">
<polygon fill="white" stroke="black" points="81,-184.5 81,-203.5 151,-203.5 151,-184.5 81,-184.5"/>
<text text-anchor="middle" x="116" y="-191.5" font-family="Helvetica,sans-Serif" font-size="10.00">SensorBase</text>
</a>
</g>
<!-- Node6&#45;&gt;Node5 -->
<g id="edge10" class="edge"><title>Node6&#45;&gt;Node5</title>
<path fill="none" stroke="midnightblue" d="M128.15,-175.938C137.284,-163.112 149.428,-146.059 156.704,-135.841"/>
<polygon fill="midnightblue" stroke="midnightblue" points="125.094,-174.196 122.144,-184.372 130.796,-178.256 125.094,-174.196"/>
</g>
<!-- Node7 -->
<g id="node12" class="node"><title>Node7</title>
<a xlink:href="class_error_base.html" target="_top" xlink:title="ErrorBase">
<polygon fill="white" stroke="black" points="112,-242.5 112,-261.5 172,-261.5 172,-242.5 112,-242.5"/>
<text text-anchor="middle" x="142" y="-249.5" font-family="Helvetica,sans-Serif" font-size="10.00">ErrorBase</text>
</a>
</g>
<!-- Node7&#45;&gt;Node6 -->
<g id="edge12" class="edge"><title>Node7&#45;&gt;Node6</title>
<path fill="none" stroke="midnightblue" d="M133.593,-232.893C129.012,-223.026 123.557,-211.277 119.949,-203.505"/>
<polygon fill="midnightblue" stroke="midnightblue" points="130.552,-234.654 137.938,-242.25 136.901,-231.706 130.552,-234.654"/>
</g>
<!-- Node9 -->
<g id="node16" class="node"><title>Node9</title>
<a xlink:href="class_resource.html" target="_top" xlink:title="Resource">
<polygon fill="white" stroke="black" points="169,-184.5 169,-203.5 227,-203.5 227,-184.5 169,-184.5"/>
<text text-anchor="middle" x="198" y="-191.5" font-family="Helvetica,sans-Serif" font-size="10.00">Resource</text>
</a>
</g>
<!-- Node7&#45;&gt;Node9 -->
<g id="edge18" class="edge"><title>Node7&#45;&gt;Node9</title>
<path fill="none" stroke="midnightblue" d="M157.958,-235.042C168.221,-224.779 181.151,-211.849 189.495,-203.505"/>
<polygon fill="midnightblue" stroke="midnightblue" points="155.346,-232.704 150.75,-242.25 160.296,-237.654 155.346,-232.704"/>
</g>
<!-- Node8 -->
<g id="node14" class="node"><title>Node8</title>
<a xlink:href="class_error.html" target="_top" xlink:title="Error">
<polygon fill="white" stroke="black" points="123,-320.5 123,-339.5 161,-339.5 161,-320.5 123,-320.5"/>
<text text-anchor="middle" x="142" y="-327.5" font-family="Helvetica,sans-Serif" font-size="10.00">Error</text>
</a>
</g>
<!-- Node8&#45;&gt;Node7 -->
<g id="edge14" class="edge"><title>Node8&#45;&gt;Node7</title>
<path fill="none" stroke="#9a32cd" stroke-dasharray="5,2" d="M142,-310.224C142,-294.697 142,-273.358 142,-261.616"/>
<polygon fill="#9a32cd" stroke="#9a32cd" points="138.5,-310.282 142,-320.282 145.5,-310.282 138.5,-310.282"/>
<text text-anchor="middle" x="169.5" y="-294" font-family="Helvetica,sans-Serif" font-size="10.00"> _globalError</text>
<text text-anchor="middle" x="169.5" y="-283" font-family="Helvetica,sans-Serif" font-size="10.00">m_error</text>
</g>
<!-- Node9&#45;&gt;Node5 -->
<g id="edge16" class="edge"><title>Node9&#45;&gt;Node5</title>
<path fill="none" stroke="#9a32cd" stroke-dasharray="5,2" d="M188.553,-175.186C181.8,-162.452 173.002,-145.861 167.688,-135.841"/>
<polygon fill="#9a32cd" stroke="#9a32cd" points="185.647,-177.177 193.424,-184.372 191.831,-173.897 185.647,-177.177"/>
<text text-anchor="middle" x="212" y="-157.5" font-family="Helvetica,sans-Serif" font-size="10.00"> m_interrupts</text>
</g>
</g>
</svg>
