<?xml version="1.0" encoding="UTF-8" standalone="no"?>
<!DOCTYPE svg PUBLIC "-//W3C//DTD SVG 1.1//EN"
 "http://www.w3.org/Graphics/SVG/1.1/DTD/svg11.dtd">
<!-- Generated by graphviz version 2.28.0 (20110507.0327)
 -->
<!-- Title: NamedSendable Pages: 1 -->
<svg width="588pt" height="370pt"
 viewBox="0.00 0.00 588.00 370.00" xmlns="http://www.w3.org/2000/svg" xmlns:xlink="http://www.w3.org/1999/xlink">
<g id="graph1" class="graph" transform="scale(1 1) rotate(0) translate(4 366)">
<title>NamedSendable</title>
<polygon fill="white" stroke="white" points="-4,5 -4,-366 585,-366 585,5 -4,5"/>
<!-- Node1 -->
<g id="node1" class="node"><title>Node1</title>
<polygon fill="#bfbfbf" stroke="black" points="94,-114.5 94,-133.5 182,-133.5 182,-114.5 94,-114.5"/>
<text text-anchor="middle" x="138" y="-121.5" font-family="Helvetica,sans-Serif" font-size="10.00">NamedSendable</text>
</g>
<!-- Node3 -->
<g id="node5" class="node"><title>Node3</title>
<a xlink:href="class_command.html" target="_top" xlink:title="Command">
<polygon fill="white" stroke="black" points="220.5,-190.5 220.5,-209.5 281.5,-209.5 281.5,-190.5 220.5,-190.5"/>
<text text-anchor="middle" x="251" y="-197.5" font-family="Helvetica,sans-Serif" font-size="10.00">Command</text>
</a>
</g>
<!-- Node1&#45;&gt;Node3 -->
<g id="edge4" class="edge"><title>Node1&#45;&gt;Node3</title>
<path fill="none" stroke="midnightblue" d="M161.583,-139.463C183.905,-154.746 217.35,-177.645 236.056,-190.453"/>
<polygon fill="midnightblue" stroke="midnightblue" points="163.287,-136.387 153.058,-133.625 159.332,-142.163 163.287,-136.387"/>
</g>
<!-- Node13 -->
<g id="node25" class="node"><title>Node13</title>
<a xlink:href="class_scheduler.html" target="_top" xlink:title="Scheduler">
<polygon fill="white" stroke="black" points="221,-114.5 221,-133.5 281,-133.5 281,-114.5 221,-114.5"/>
<text text-anchor="middle" x="251" y="-121.5" font-family="Helvetica,sans-Serif" font-size="10.00">Scheduler</text>
</a>
</g>
<!-- Node1&#45;&gt;Node13 -->
<g id="edge24" class="edge"><title>Node1&#45;&gt;Node13</title>
<path fill="none" stroke="midnightblue" d="M192.349,-124C202.136,-124 212.013,-124 220.759,-124"/>
<polygon fill="midnightblue" stroke="midnightblue" points="192.233,-120.5 182.233,-124 192.233,-127.5 192.233,-120.5"/>
</g>
<!-- Node14 -->
<g id="node27" class="node"><title>Node14</title>
<a xlink:href="class_subsystem.html" target="_top" xlink:title="Subsystem">
<polygon fill="white" stroke="black" points="218,-38.5 218,-57.5 284,-57.5 284,-38.5 218,-38.5"/>
<text text-anchor="middle" x="251" y="-45.5" font-family="Helvetica,sans-Serif" font-size="10.00">Subsystem</text>
</a>
</g>
<!-- Node1&#45;&gt;Node14 -->
<g id="edge26" class="edge"><title>Node1&#45;&gt;Node14</title>
<path fill="none" stroke="midnightblue" d="M161.583,-108.537C183.905,-93.2541 217.35,-70.3551 236.056,-57.5473"/>
<polygon fill="midnightblue" stroke="midnightblue" points="159.332,-105.837 153.058,-114.375 163.287,-111.613 159.332,-105.837"/>
</g>
<!-- Node2 -->
<g id="node2" class="node"><title>Node2</title>
<a xlink:href="class_sendable.html" target="_top" xlink:title="Sendable">
<polygon fill="white" stroke="black" points="0.5,-114.5 0.5,-133.5 57.5,-133.5 57.5,-114.5 0.5,-114.5"/>
<text text-anchor="middle" x="29" y="-121.5" font-family="Helvetica,sans-Serif" font-size="10.00">Sendable</text>
</a>
</g>
<!-- Node2&#45;&gt;Node1 -->
<g id="edge2" class="edge"><title>Node2&#45;&gt;Node1</title>
<path fill="none" stroke="midnightblue" d="M67.8139,-124C76.2069,-124 85.1648,-124 93.7561,-124"/>
<polygon fill="midnightblue" stroke="midnightblue" points="67.5552,-120.5 57.5552,-124 67.5551,-127.5 67.5552,-120.5"/>
</g>
<!-- Node4 -->
<g id="node7" class="node"><title>Node4</title>
<a xlink:href="class_command_group.html" target="_top" xlink:title="CommandGroup">
<polygon fill="white" stroke="black" points="327.5,-342.5 327.5,-361.5 414.5,-361.5 414.5,-342.5 327.5,-342.5"/>
<text text-anchor="middle" x="371" y="-349.5" font-family="Helvetica,sans-Serif" font-size="10.00">CommandGroup</text>
</a>
</g>
<!-- Node3&#45;&gt;Node4 -->
<g id="edge6" class="edge"><title>Node3&#45;&gt;Node4</title>
<path fill="none" stroke="midnightblue" d="M257.092,-219.503C265.53,-248.173 285.047,-301.679 320,-333 324.288,-336.842 329.431,-339.938 334.765,-342.423"/>
<polygon fill="midnightblue" stroke="midnightblue" points="260.363,-218.202 254.307,-209.508 253.619,-220.081 260.363,-218.202"/>
</g>
<!-- Node5 -->
<g id="node9" class="node"><title>Node5</title>
<a xlink:href="class_mock_command.html" target="_top" xlink:title="MockCommand">
<polygon fill="white" stroke="black" points="328.5,-304.5 328.5,-323.5 413.5,-323.5 413.5,-304.5 328.5,-304.5"/>
<text text-anchor="middle" x="371" y="-311.5" font-family="Helvetica,sans-Serif" font-size="10.00">MockCommand</text>
</a>
</g>
<!-- Node3&#45;&gt;Node5 -->
<g id="edge8" class="edge"><title>Node3&#45;&gt;Node5</title>
<path fill="none" stroke="midnightblue" d="M260.944,-218.459C272.071,-239.652 292.95,-274.164 320,-295 324.929,-298.797 330.703,-301.907 336.542,-304.431"/>
<polygon fill="midnightblue" stroke="midnightblue" points="264.047,-216.839 256.406,-209.5 257.802,-220.002 264.047,-216.839"/>
</g>
<!-- Node7 -->
<g id="node13" class="node"><title>Node7</title>
<a xlink:href="class_p_i_d_command.html" target="_top" xlink:title="PIDCommand">
<polygon fill="white" stroke="black" points="332.5,-266.5 332.5,-285.5 409.5,-285.5 409.5,-266.5 332.5,-266.5"/>
<text text-anchor="middle" x="371" y="-273.5" font-family="Helvetica,sans-Serif" font-size="10.00">PIDCommand</text>
</a>
</g>
<!-- Node3&#45;&gt;Node7 -->
<g id="edge12" class="edge"><title>Node3&#45;&gt;Node7</title>
<path fill="none" stroke="midnightblue" d="M268.645,-216.716C281.716,-229.124 300.853,-245.771 320,-257 326.168,-260.617 333.149,-263.777 339.896,-266.428"/>
<polygon fill="midnightblue" stroke="midnightblue" points="270.956,-214.082 261.344,-209.625 266.079,-219.103 270.956,-214.082"/>
</g>
<!-- Node8 -->
<g id="node15" class="node"><title>Node8</title>
<a xlink:href="class_print_command.html" target="_top" xlink:title="PrintCommand">
<polygon fill="white" stroke="black" points="330.5,-228.5 330.5,-247.5 411.5,-247.5 411.5,-228.5 330.5,-228.5"/>
<text text-anchor="middle" x="371" y="-235.5" font-family="Helvetica,sans-Serif" font-size="10.00">PrintCommand</text>
</a>
</g>
<!-- Node3&#45;&gt;Node8 -->
<g id="edge14" class="edge"><title>Node3&#45;&gt;Node8</title>
<path fill="none" stroke="midnightblue" d="M291.376,-212.68C307.32,-217.815 325.421,-223.644 340.233,-228.414"/>
<polygon fill="midnightblue" stroke="midnightblue" points="292.368,-209.323 281.776,-209.589 290.222,-215.986 292.368,-209.323"/>
</g>
<!-- Node9 -->
<g id="node17" class="node"><title>Node9</title>
<a xlink:href="class_start_command.html" target="_top" xlink:title="StartCommand">
<polygon fill="white" stroke="black" points="330,-190.5 330,-209.5 412,-209.5 412,-190.5 330,-190.5"/>
<text text-anchor="middle" x="371" y="-197.5" font-family="Helvetica,sans-Serif" font-size="10.00">StartCommand</text>
</a>
</g>
<!-- Node3&#45;&gt;Node9 -->
<g id="edge16" class="edge"><title>Node3&#45;&gt;Node9</title>
<path fill="none" stroke="midnightblue" d="M292.139,-200C304.353,-200 317.772,-200 329.979,-200"/>
<polygon fill="midnightblue" stroke="midnightblue" points="291.776,-196.5 281.776,-200 291.776,-203.5 291.776,-196.5"/>
</g>
<!-- Node10 -->
<g id="node19" class="node"><title>Node10</title>
<a xlink:href="class_wait_command.html" target="_top" xlink:title="WaitCommand">
<polygon fill="white" stroke="black" points="330.5,-152.5 330.5,-171.5 411.5,-171.5 411.5,-152.5 330.5,-152.5"/>
<text text-anchor="middle" x="371" y="-159.5" font-family="Helvetica,sans-Serif" font-size="10.00">WaitCommand</text>
</a>
</g>
<!-- Node3&#45;&gt;Node10 -->
<g id="edge18" class="edge"><title>Node3&#45;&gt;Node10</title>
<path fill="none" stroke="midnightblue" d="M291.376,-187.32C307.32,-182.185 325.421,-176.356 340.233,-171.586"/>
<polygon fill="midnightblue" stroke="midnightblue" points="290.222,-184.014 281.776,-190.411 292.368,-190.677 290.222,-184.014"/>
</g>
<!-- Node11 -->
<g id="node21" class="node"><title>Node11</title>
<a xlink:href="class_wait_for_children.html" target="_top" xlink:title="WaitForChildren">
<polygon fill="white" stroke="black" points="328,-114.5 328,-133.5 414,-133.5 414,-114.5 328,-114.5"/>
<text text-anchor="middle" x="371" y="-121.5" font-family="Helvetica,sans-Serif" font-size="10.00">WaitForChildren</text>
</a>
</g>
<!-- Node3&#45;&gt;Node11 -->
<g id="edge20" class="edge"><title>Node3&#45;&gt;Node11</title>
<path fill="none" stroke="midnightblue" d="M268.645,-183.284C281.716,-170.876 300.853,-154.229 320,-143 326.168,-139.383 333.149,-136.223 339.896,-133.572"/>
<polygon fill="midnightblue" stroke="midnightblue" points="266.079,-180.897 261.344,-190.375 270.956,-185.918 266.079,-180.897"/>
</g>
<!-- Node12 -->
<g id="node23" class="node"><title>Node12</title>
<a xlink:href="class_wait_until_command.html" target="_top" xlink:title="WaitUntilCommand">
<polygon fill="white" stroke="black" points="320.5,-76.5 320.5,-95.5 421.5,-95.5 421.5,-76.5 320.5,-76.5"/>
<text text-anchor="middle" x="371" y="-83.5" font-family="Helvetica,sans-Serif" font-size="10.00">WaitUntilCommand</text>
</a>
</g>
<!-- Node3&#45;&gt;Node12 -->
<g id="edge22" class="edge"><title>Node3&#45;&gt;Node12</title>
<path fill="none" stroke="midnightblue" d="M260.944,-181.541C272.071,-160.348 292.95,-125.836 320,-105 324.929,-101.203 330.703,-98.0925 336.542,-95.5687"/>
<polygon fill="midnightblue" stroke="midnightblue" points="257.802,-179.998 256.406,-190.5 264.047,-183.161 257.802,-179.998"/>
</g>
<!-- Node6 -->
<g id="node11" class="node"><title>Node6</title>
<a xlink:href="class_modified_mock_command.html" target="_top" xlink:title="ModifiedMockCommand">
<polygon fill="white" stroke="black" points="458.5,-304.5 458.5,-323.5 579.5,-323.5 579.5,-304.5 458.5,-304.5"/>
<text text-anchor="middle" x="519" y="-311.5" font-family="Helvetica,sans-Serif" font-size="10.00">ModifiedMockCommand</text>
</a>
</g>
<!-- Node5&#45;&gt;Node6 -->
<g id="edge10" class="edge"><title>Node5&#45;&gt;Node6</title>
<path fill="none" stroke="midnightblue" d="M423.886,-314C435.086,-314 447.011,-314 458.477,-314"/>
<polygon fill="midnightblue" stroke="midnightblue" points="423.838,-310.5 413.838,-314 423.838,-317.5 423.838,-310.5"/>
</g>
<!-- Node15 -->
<g id="node29" class="node"><title>Node15</title>
<a xlink:href="class_a_subsystem.html" target="_top" xlink:title="ASubsystem">
<polygon fill="white" stroke="black" points="334.5,-38.5 334.5,-57.5 407.5,-57.5 407.5,-38.5 334.5,-38.5"/>
<text text-anchor="middle" x="371" y="-45.5" font-family="Helvetica,sans-Serif" font-size="10.00">ASubsystem</text>
</a>
</g>
<!-- Node14&#45;&gt;Node15 -->
<g id="edge28" class="edge"><title>Node14&#45;&gt;Node15</title>
<path fill="none" stroke="midnightblue" d="M294.455,-48C307.572,-48 321.877,-48 334.476,-48"/>
<polygon fill="midnightblue" stroke="midnightblue" points="294.244,-44.5001 284.244,-48 294.244,-51.5001 294.244,-44.5001"/>
</g>
<!-- Node16 -->
<g id="node31" class="node"><title>Node16</title>
<a xlink:href="class_p_i_d_subsystem.html" target="_top" xlink:title="PIDSubsystem">
<polygon fill="white" stroke="black" points="330,-0.5 330,-19.5 412,-19.5 412,-0.5 330,-0.5"/>
<text text-anchor="middle" x="371" y="-7.5" font-family="Helvetica,sans-Serif" font-size="10.00">PIDSubsystem</text>
</a>
</g>
<!-- Node14&#45;&gt;Node16 -->
<g id="edge30" class="edge"><title>Node14&#45;&gt;Node16</title>
<path fill="none" stroke="midnightblue" d="M291.376,-35.3196C307.32,-30.1852 325.421,-24.3559 340.233,-19.5859"/>
<polygon fill="midnightblue" stroke="midnightblue" points="290.222,-32.0141 281.776,-38.411 292.368,-38.6771 290.222,-32.0141"/>
</g>
</g>
</svg>
