<?xml version="1.0" encoding="UTF-8" standalone="no"?>
<!DOCTYPE svg PUBLIC "-//W3C//DTD SVG 1.1//EN"
 "http://www.w3.org/Graphics/SVG/1.1/DTD/svg11.dtd">
<!-- Generated by graphviz version 2.28.0 (20110507.0327)
 -->
<!-- Title: Ultrasonic::UpdateTable Pages: 1 -->
<svg width="758pt" height="66pt"
 viewBox="0.00 0.00 758.00 66.00" xmlns="http://www.w3.org/2000/svg" xmlns:xlink="http://www.w3.org/1999/xlink">
<g id="graph1" class="graph" transform="scale(1 1) rotate(0) translate(4 62)">
<title>Ultrasonic::UpdateTable</title>
<polygon fill="white" stroke="white" points="-4,5 -4,-62 755,-62 755,5 -4,5"/>
<!-- Node1 -->
<g id="node1" class="node"><title>Node1</title>
<polygon fill="#bfbfbf" stroke="black" points="0,-19.5 0,-38.5 120,-38.5 120,-19.5 0,-19.5"/>
<text text-anchor="middle" x="60" y="-26.5" font-family="Helvetica,sans-Serif" font-size="10.00">Ultrasonic::UpdateTable</text>
</g>
<!-- Node2 -->
<g id="node3" class="node"><title>Node2</title>
<a xlink:href="class_ultrasonic.html#a73c80fe92b2085107714c6a110d90d70" target="_top" xlink:title="Ultrasonic::GetRangeInches">
<polygon fill="white" stroke="black" points="156,-19.5 156,-38.5 294,-38.5 294,-19.5 156,-19.5"/>
<text text-anchor="middle" x="225" y="-26.5" font-family="Helvetica,sans-Serif" font-size="10.00">Ultrasonic::GetRangeInches</text>
</a>
</g>
<!-- Node1&#45;&gt;Node2 -->
<g id="edge2" class="edge"><title>Node1&#45;&gt;Node2</title>
<path fill="none" stroke="midnightblue" d="M120.308,-29C128.617,-29 137.259,-29 145.851,-29"/>
<polygon fill="midnightblue" stroke="midnightblue" points="145.892,-32.5001 155.892,-29 145.892,-25.5001 145.892,-32.5001"/>
</g>
<!-- Node3 -->
<g id="node5" class="node"><title>Node3</title>
<a xlink:href="class_ultrasonic.html#a765c830f4ff4c68e83de2f14d43fa54c" target="_top" xlink:title="Ultrasonic::IsRangeValid">
<polygon fill="white" stroke="black" points="330.5,-38.5 330.5,-57.5 453.5,-57.5 453.5,-38.5 330.5,-38.5"/>
<text text-anchor="middle" x="392" y="-45.5" font-family="Helvetica,sans-Serif" font-size="10.00">Ultrasonic::IsRangeValid</text>
</a>
</g>
<!-- Node2&#45;&gt;Node3 -->
<g id="edge4" class="edge"><title>Node2&#45;&gt;Node3</title>
<path fill="none" stroke="midnightblue" d="M294.064,-36.8377C302.742,-37.8369 311.639,-38.8615 320.356,-39.8653"/>
<polygon fill="midnightblue" stroke="midnightblue" points="320.148,-43.3643 330.482,-41.0313 320.948,-36.4102 320.148,-43.3643"/>
</g>
<!-- Node6 -->
<g id="node11" class="node"><title>Node6</title>
<a xlink:href="class_counter.html#a51030989a5ee306beaf40ac28ab362c0" target="_top" xlink:title="Counter::GetPeriod">
<polygon fill="white" stroke="black" points="490,-0.5 490,-19.5 590,-19.5 590,-0.5 490,-0.5"/>
<text text-anchor="middle" x="540" y="-7.5" font-family="Helvetica,sans-Serif" font-size="10.00">Counter::GetPeriod</text>
</a>
</g>
<!-- Node2&#45;&gt;Node6 -->
<g id="edge10" class="edge"><title>Node2&#45;&gt;Node6</title>
<path fill="none" stroke="midnightblue" d="M294.302,-24.8538C349.615,-21.4962 426.751,-16.8139 479.545,-13.6091"/>
<polygon fill="midnightblue" stroke="midnightblue" points="479.996,-17.0882 489.766,-12.9887 479.572,-10.1011 479.996,-17.0882"/>
</g>
<!-- Node4 -->
<g id="node7" class="node"><title>Node4</title>
<a xlink:href="class_counter.html#a72086dbd17d7baf28bacfb13562af6b6" target="_top" xlink:title="Counter::Get">
<polygon fill="white" stroke="black" points="504,-38.5 504,-57.5 576,-57.5 576,-38.5 504,-38.5"/>
<text text-anchor="middle" x="540" y="-45.5" font-family="Helvetica,sans-Serif" font-size="10.00">Counter::Get</text>
</a>
</g>
<!-- Node3&#45;&gt;Node4 -->
<g id="edge6" class="edge"><title>Node3&#45;&gt;Node4</title>
<path fill="none" stroke="midnightblue" d="M453.649,-48C466.992,-48 480.903,-48 493.526,-48"/>
<polygon fill="midnightblue" stroke="midnightblue" points="493.787,-51.5001 503.787,-48 493.787,-44.5001 493.787,-51.5001"/>
</g>
<!-- Node5 -->
<g id="node9" class="node"><title>Node5</title>
<a xlink:href="class_error_base.html#a05790f219c9e436a09752f73f7344024" target="_top" xlink:title="Check if the current error code represents a fatal error. ">
<polygon fill="white" stroke="black" points="626,-19.5 626,-38.5 750,-38.5 750,-19.5 626,-19.5"/>
<text text-anchor="middle" x="688" y="-26.5" font-family="Helvetica,sans-Serif" font-size="10.00">ErrorBase::StatusIsFatal</text>
</a>
</g>
<!-- Node4&#45;&gt;Node5 -->
<g id="edge8" class="edge"><title>Node4&#45;&gt;Node5</title>
<path fill="none" stroke="midnightblue" d="M576.343,-43.4006C588.295,-41.8452 602.101,-40.0484 615.822,-38.2629"/>
<polygon fill="midnightblue" stroke="midnightblue" points="616.306,-41.7296 625.77,-36.9682 615.402,-34.7881 616.306,-41.7296"/>
</g>
<!-- Node6&#45;&gt;Node5 -->
<g id="edge12" class="edge"><title>Node6&#45;&gt;Node5</title>
<path fill="none" stroke="midnightblue" d="M590.022,-16.3796C598.298,-17.4566 607.037,-18.5939 615.743,-19.7268"/>
<polygon fill="midnightblue" stroke="midnightblue" points="615.55,-23.2311 625.918,-21.051 616.453,-16.2897 615.55,-23.2311"/>
</g>
</g>
</svg>
