<?xml version="1.0" encoding="UTF-8" standalone="no"?>
<!DOCTYPE svg PUBLIC "-//W3C//DTD SVG 1.1//EN"
 "http://www.w3.org/Graphics/SVG/1.1/DTD/svg11.dtd">
<!-- Generated by graphviz version 2.28.0 (20110507.0327)
 -->
<!-- Title: HSLImage Pages: 1 -->
<svg width="95pt" height="280pt"
 viewBox="0.00 0.00 95.00 280.00" xmlns="http://www.w3.org/2000/svg" xmlns:xlink="http://www.w3.org/1999/xlink">
<g id="graph1" class="graph" transform="scale(1 1) rotate(0) translate(4 276)">
<title>HSLImage</title>
<polygon fill="white" stroke="white" points="-4,5 -4,-276 92,-276 92,5 -4,5"/>
<!-- Node1 -->
<g id="node1" class="node"><title>Node1</title>
<polygon fill="#bfbfbf" stroke="black" points="1,-0.5 1,-19.5 63,-19.5 63,-0.5 1,-0.5"/>
<text text-anchor="middle" x="32" y="-7.5" font-family="Helvetica,sans-Serif" font-size="10.00">HSLImage</text>
</g>
<!-- Node2 -->
<g id="node2" class="node"><title>Node2</title>
<a xlink:href="class_color_image.html" target="_top" xlink:title="ColorImage">
<polygon fill="white" stroke="black" points="-0.5,-58.5 -0.5,-77.5 64.5,-77.5 64.5,-58.5 -0.5,-58.5"/>
<text text-anchor="middle" x="32" y="-65.5" font-family="Helvetica,sans-Serif" font-size="10.00">ColorImage</text>
</a>
</g>
<!-- Node2&#45;&gt;Node1 -->
<g id="edge2" class="edge"><title>Node2&#45;&gt;Node1</title>
<path fill="none" stroke="midnightblue" d="M32,-47.953C32,-38.2875 32,-27.0312 32,-19.5052"/>
<polygon fill="midnightblue" stroke="midnightblue" points="28.5001,-48.25 32,-58.25 35.5001,-48.25 28.5001,-48.25"/>
</g>
<!-- Node3 -->
<g id="node4" class="node"><title>Node3</title>
<a xlink:href="class_image_base.html" target="_top" xlink:title="ImageBase">
<polygon fill="white" stroke="black" points="-0.5,-116.5 -0.5,-135.5 64.5,-135.5 64.5,-116.5 -0.5,-116.5"/>
<text text-anchor="middle" x="32" y="-123.5" font-family="Helvetica,sans-Serif" font-size="10.00">ImageBase</text>
</a>
</g>
<!-- Node3&#45;&gt;Node2 -->
<g id="edge4" class="edge"><title>Node3&#45;&gt;Node2</title>
<path fill="none" stroke="midnightblue" d="M32,-105.953C32,-96.2875 32,-85.0312 32,-77.5052"/>
<polygon fill="midnightblue" stroke="midnightblue" points="28.5001,-106.25 32,-116.25 35.5001,-106.25 28.5001,-106.25"/>
</g>
<!-- Node4 -->
<g id="node6" class="node"><title>Node4</title>
<a xlink:href="class_error_base.html" target="_top" xlink:title="ErrorBase">
<polygon fill="white" stroke="black" points="2,-174.5 2,-193.5 62,-193.5 62,-174.5 2,-174.5"/>
<text text-anchor="middle" x="32" y="-181.5" font-family="Helvetica,sans-Serif" font-size="10.00">ErrorBase</text>
</a>
</g>
<!-- Node4&#45;&gt;Node3 -->
<g id="edge6" class="edge"><title>Node4&#45;&gt;Node3</title>
<path fill="none" stroke="midnightblue" d="M32,-163.953C32,-154.287 32,-143.031 32,-135.505"/>
<polygon fill="midnightblue" stroke="midnightblue" points="28.5001,-164.25 32,-174.25 35.5001,-164.25 28.5001,-164.25"/>
</g>
<!-- Node5 -->
<g id="node8" class="node"><title>Node5</title>
<a xlink:href="class_error.html" target="_top" xlink:title="Error">
<polygon fill="white" stroke="black" points="13,-252.5 13,-271.5 51,-271.5 51,-252.5 13,-252.5"/>
<text text-anchor="middle" x="32" y="-259.5" font-family="Helvetica,sans-Serif" font-size="10.00">Error</text>
</a>
</g>
<!-- Node5&#45;&gt;Node4 -->
<g id="edge8" class="edge"><title>Node5&#45;&gt;Node4</title>
<path fill="none" stroke="#9a32cd" stroke-dasharray="5,2" d="M32,-242.224C32,-226.697 32,-205.358 32,-193.616"/>
<polygon fill="#9a32cd" stroke="#9a32cd" points="28.5001,-242.282 32,-252.282 35.5001,-242.282 28.5001,-242.282"/>
<text text-anchor="middle" x="59.5" y="-226" font-family="Helvetica,sans-Serif" font-size="10.00"> _globalError</text>
<text text-anchor="middle" x="59.5" y="-215" font-family="Helvetica,sans-Serif" font-size="10.00">m_error</text>
</g>
</g>
</svg>
