<?xml version="1.0" encoding="UTF-8" standalone="no"?>
<!DOCTYPE svg PUBLIC "-//W3C//DTD SVG 1.1//EN"
 "http://www.w3.org/Graphics/SVG/1.1/DTD/svg11.dtd">
<!-- Generated by graphviz version 2.28.0 (20110507.0327)
 -->
<!-- Title: CANJaguar::PIDWrite Pages: 1 -->
<svg width="938pt" height="1020pt"
 viewBox="0.00 0.00 938.00 1020.00" xmlns="http://www.w3.org/2000/svg" xmlns:xlink="http://www.w3.org/1999/xlink">
<g id="graph1" class="graph" transform="scale(1 1) rotate(0) translate(4 1016)">
<title>CANJaguar::PIDWrite</title>
<polygon fill="white" stroke="white" points="-4,5 -4,-1016 935,-1016 935,5 -4,5"/>
<!-- Node1 -->
<g id="node1" class="node"><title>Node1</title>
<polygon fill="#bfbfbf" stroke="black" points="0,-905.5 0,-924.5 110,-924.5 110,-905.5 0,-905.5"/>
<text text-anchor="middle" x="55" y="-912.5" font-family="Helvetica,sans-Serif" font-size="10.00">CANJaguar::PIDWrite</text>
</g>
<!-- Node2 -->
<g id="node3" class="node"><title>Node2</title>
<a xlink:href="class_c_a_n_jaguar.html#a3a22b02ece406993619f993b1e09012a" target="_top" xlink:title="CANJaguar::Set">
<polygon fill="white" stroke="black" points="146,-905.5 146,-924.5 232,-924.5 232,-905.5 146,-905.5"/>
<text text-anchor="middle" x="189" y="-912.5" font-family="Helvetica,sans-Serif" font-size="10.00">CANJaguar::Set</text>
</a>
</g>
<!-- Node1&#45;&gt;Node2 -->
<g id="edge2" class="edge"><title>Node1&#45;&gt;Node2</title>
<path fill="none" stroke="midnightblue" d="M110.07,-915C118.574,-915 127.351,-915 135.811,-915"/>
<polygon fill="midnightblue" stroke="midnightblue" points="135.934,-918.5 145.934,-915 135.934,-911.5 135.934,-918.5"/>
</g>
<!-- Node3 -->
<g id="node5" class="node"><title>Node3</title>
<a xlink:href="class_motor_safety_helper.html#a3d4d90d4f7bc0d76445a55e5ea1d75e8" target="_top" xlink:title="MotorSafetyHelper::\lIsAlive">
<polygon fill="white" stroke="black" points="279.5,-982 279.5,-1012 382.5,-1012 382.5,-982 279.5,-982"/>
<text text-anchor="start" x="287.5" y="-1000" font-family="Helvetica,sans-Serif" font-size="10.00">MotorSafetyHelper::</text>
<text text-anchor="middle" x="331" y="-989" font-family="Helvetica,sans-Serif" font-size="10.00">IsAlive</text>
</a>
</g>
<!-- Node2&#45;&gt;Node3 -->
<g id="edge4" class="edge"><title>Node2&#45;&gt;Node3</title>
<path fill="none" stroke="midnightblue" d="M201.283,-924.645C215.932,-936.831 242.637,-957.907 268,-972 271.652,-974.029 275.503,-975.982 279.425,-977.84"/>
<polygon fill="midnightblue" stroke="midnightblue" points="278.089,-981.077 288.644,-981.994 280.965,-974.695 278.089,-981.077"/>
</g>
<!-- Node6 -->
<g id="node11" class="node"><title>Node6</title>
<a xlink:href="class_c_a_n_jaguar.html#af25bed87c7d97429b0472b52f92b186e" target="_top" xlink:title="CANJaguar::EnableControl">
<polygon fill="white" stroke="black" points="447,-867.5 447,-886.5 579,-886.5 579,-867.5 447,-867.5"/>
<text text-anchor="middle" x="513" y="-874.5" font-family="Helvetica,sans-Serif" font-size="10.00">CANJaguar::EnableControl</text>
</a>
</g>
<!-- Node2&#45;&gt;Node6 -->
<g id="edge10" class="edge"><title>Node2&#45;&gt;Node6</title>
<path fill="none" stroke="midnightblue" d="M232.002,-906.829C243.632,-904.739 256.28,-902.626 268,-901 324.386,-893.179 388.45,-886.98 436.781,-882.842"/>
<polygon fill="midnightblue" stroke="midnightblue" points="437.177,-886.321 446.847,-881.991 436.587,-879.346 437.177,-886.321"/>
</g>
<!-- Node7 -->
<g id="node13" class="node"><title>Node7</title>
<a xlink:href="class_c_a_n_jaguar.html#a6b82b54cc4033c3c5218ab04fb6c8282" target="_top" xlink:title="CANJaguar::sendMessage">
<polygon fill="white" stroke="black" points="634,-579.5 634,-598.5 766,-598.5 766,-579.5 634,-579.5"/>
<text text-anchor="middle" x="700" y="-586.5" font-family="Helvetica,sans-Serif" font-size="10.00">CANJaguar::sendMessage</text>
</a>
</g>
<!-- Node2&#45;&gt;Node7 -->
<g id="edge14" class="edge"><title>Node2&#45;&gt;Node7</title>
<path fill="none" stroke="midnightblue" d="M232.046,-918.804C324.104,-926.235 539.765,-938.478 596,-896 689.811,-825.138 699.088,-665.183 699.34,-608.982"/>
<polygon fill="midnightblue" stroke="midnightblue" points="702.839,-608.614 699.284,-598.633 695.839,-608.652 702.839,-608.614"/>
</g>
<!-- Node8 -->
<g id="node16" class="node"><title>Node8</title>
<a xlink:href="class_motor_safety_helper.html#a67b80e9817dc725e0678de5e8f0bb39e" target="_top" xlink:title="MotorSafetyHelper::Feed">
<polygon fill="white" stroke="black" points="268.5,-943.5 268.5,-962.5 393.5,-962.5 393.5,-943.5 268.5,-943.5"/>
<text text-anchor="middle" x="331" y="-950.5" font-family="Helvetica,sans-Serif" font-size="10.00">MotorSafetyHelper::Feed</text>
</a>
</g>
<!-- Node2&#45;&gt;Node8 -->
<g id="edge16" class="edge"><title>Node2&#45;&gt;Node8</title>
<path fill="none" stroke="midnightblue" d="M225.328,-924.589C243.401,-929.494 265.598,-935.52 284.895,-940.757"/>
<polygon fill="midnightblue" stroke="midnightblue" points="284.116,-944.172 294.683,-943.414 285.949,-937.417 284.116,-944.172"/>
</g>
<!-- Node9 -->
<g id="node19" class="node"><title>Node9</title>
<a xlink:href="class_c_a_n_jaguar.html#a97fe9cb246f90060495c808e31070650" target="_top" xlink:title="CANJaguar::verify">
<polygon fill="white" stroke="black" points="284.5,-464.5 284.5,-483.5 377.5,-483.5 377.5,-464.5 284.5,-464.5"/>
<text text-anchor="middle" x="331" y="-471.5" font-family="Helvetica,sans-Serif" font-size="10.00">CANJaguar::verify</text>
</a>
</g>
<!-- Node2&#45;&gt;Node9 -->
<g id="edge20" class="edge"><title>Node2&#45;&gt;Node9</title>
<path fill="none" stroke="midnightblue" d="M193.054,-905.379C210.663,-849.913 299.279,-570.771 323.738,-493.724"/>
<polygon fill="midnightblue" stroke="midnightblue" points="327.176,-494.464 326.866,-483.873 320.504,-492.346 327.176,-494.464"/>
</g>
<!-- Node4 -->
<g id="node7" class="node"><title>Node4</title>
<a xlink:href="class_timer.html#a7fa6e6dffec055e5104ccd6bcadec9aa" target="_top" xlink:title="Timer::GetFPGATimestamp">
<polygon fill="white" stroke="black" points="444.5,-965.5 444.5,-984.5 581.5,-984.5 581.5,-965.5 444.5,-965.5"/>
<text text-anchor="middle" x="513" y="-972.5" font-family="Helvetica,sans-Serif" font-size="10.00">Timer::GetFPGATimestamp</text>
</a>
</g>
<!-- Node3&#45;&gt;Node4 -->
<g id="edge6" class="edge"><title>Node3&#45;&gt;Node4</title>
<path fill="none" stroke="midnightblue" d="M382.619,-990.813C398.613,-988.858 416.674,-986.651 434.116,-984.519"/>
<polygon fill="midnightblue" stroke="midnightblue" points="434.793,-987.963 444.294,-983.275 433.944,-981.014 434.793,-987.963"/>
</g>
<!-- Node5 -->
<g id="node9" class="node"><title>Node5</title>
<a xlink:href="_utility_8h.html#ababf055d95368485d48bd9a0231853f3" target="_top" xlink:title="GetFPGATime">
<polygon fill="white" stroke="black" points="660,-965.5 660,-984.5 740,-984.5 740,-965.5 660,-965.5"/>
<text text-anchor="middle" x="700" y="-972.5" font-family="Helvetica,sans-Serif" font-size="10.00">GetFPGATime</text>
</a>
</g>
<!-- Node4&#45;&gt;Node5 -->
<g id="edge8" class="edge"><title>Node4&#45;&gt;Node5</title>
<path fill="none" stroke="midnightblue" d="M581.575,-975C604.091,-975 628.737,-975 649.61,-975"/>
<polygon fill="midnightblue" stroke="midnightblue" points="649.838,-978.5 659.838,-975 649.838,-971.5 649.838,-978.5"/>
</g>
<!-- Node6&#45;&gt;Node7 -->
<g id="edge12" class="edge"><title>Node6&#45;&gt;Node7</title>
<path fill="none" stroke="midnightblue" d="M571.798,-867.41C580.645,-863.973 589.11,-859.313 596,-853 670.045,-785.15 691.495,-657.643 697.148,-608.763"/>
<polygon fill="midnightblue" stroke="midnightblue" points="700.652,-608.906 698.221,-598.594 693.691,-608.171 700.652,-608.906"/>
</g>
<!-- Node8&#45;&gt;Node4 -->
<g id="edge18" class="edge"><title>Node8&#45;&gt;Node4</title>
<path fill="none" stroke="midnightblue" d="M393.694,-960.54C406.67,-962.126 420.519,-963.819 434.003,-965.467"/>
<polygon fill="midnightblue" stroke="midnightblue" points="433.871,-968.977 444.222,-966.716 434.721,-962.029 433.871,-968.977"/>
</g>
<!-- Node9&#45;&gt;Node6 -->
<g id="edge28" class="edge"><title>Node9&#45;&gt;Node6</title>
<path fill="none" stroke="midnightblue" d="M333.189,-483.542C340.005,-536.807 375.736,-796.988 430,-853 433.711,-856.83 437.997,-860.058 442.623,-862.777"/>
<polygon fill="midnightblue" stroke="midnightblue" points="441.367,-866.063 451.877,-867.403 444.498,-859.801 441.367,-866.063"/>
</g>
<!-- Node9&#45;&gt;Node7 -->
<g id="edge24" class="edge"><title>Node9&#45;&gt;Node7</title>
<path fill="none" stroke="midnightblue" d="M333.18,-483.631C339.7,-535.101 373.104,-776.981 430,-820 488.849,-864.496 534.114,-860.165 596,-820 670.69,-771.525 691.681,-654.907 697.18,-608.514"/>
<polygon fill="midnightblue" stroke="midnightblue" points="700.663,-608.864 698.246,-598.549 693.702,-608.12 700.663,-608.864"/>
</g>
<!-- Node10 -->
<g id="node21" class="node"><title>Node10</title>
<a xlink:href="class_c_a_n_jaguar.html#a6bf10ae6a799ca57c6bf165e36ff91d1" target="_top" xlink:title="CANJaguar::getMessage">
<polygon fill="white" stroke="black" points="804.5,-130.5 804.5,-149.5 929.5,-149.5 929.5,-130.5 804.5,-130.5"/>
<text text-anchor="middle" x="867" y="-137.5" font-family="Helvetica,sans-Serif" font-size="10.00">CANJaguar::getMessage</text>
</a>
</g>
<!-- Node9&#45;&gt;Node10 -->
<g id="edge22" class="edge"><title>Node9&#45;&gt;Node10</title>
<path fill="none" stroke="midnightblue" d="M331.795,-464.356C331.483,-422.501 336.311,-255.361 430,-181 457.819,-158.92 677.322,-147.229 793.858,-142.525"/>
<polygon fill="midnightblue" stroke="midnightblue" points="794.267,-146.011 804.12,-142.118 793.99,-139.017 794.267,-146.011"/>
</g>
<!-- Node11 -->
<g id="node24" class="node"><title>Node11</title>
<a xlink:href="class_c_a_n_jaguar.html#a1ead0b3695a9db3ce94c3b5047ed6f73" target="_top" xlink:title="CANJaguar::requestMessage">
<polygon fill="white" stroke="black" points="441.5,-0.5 441.5,-19.5 584.5,-19.5 584.5,-0.5 441.5,-0.5"/>
<text text-anchor="middle" x="513" y="-7.5" font-family="Helvetica,sans-Serif" font-size="10.00">CANJaguar::requestMessage</text>
</a>
</g>
<!-- Node9&#45;&gt;Node11 -->
<g id="edge26" class="edge"><title>Node9&#45;&gt;Node11</title>
<path fill="none" stroke="midnightblue" d="M332.752,-464.342C337.535,-405.361 365.606,-94.1009 430,-29 431.272,-27.7143 432.612,-26.5085 434.012,-25.3779"/>
<polygon fill="midnightblue" stroke="midnightblue" points="436.197,-28.1288 442.605,-19.6918 432.334,-22.291 436.197,-28.1288"/>
</g>
<!-- Node12 -->
<g id="node27" class="node"><title>Node12</title>
<a xlink:href="class_c_a_n_jaguar.html#ac6780a940570ec0386d234b309fb260d" target="_top" xlink:title="CANJaguar::SetSpeedReference">
<polygon fill="white" stroke="black" points="434,-791.5 434,-810.5 592,-810.5 592,-791.5 434,-791.5"/>
<text text-anchor="middle" x="513" y="-798.5" font-family="Helvetica,sans-Serif" font-size="10.00">CANJaguar::SetSpeedReference</text>
</a>
</g>
<!-- Node9&#45;&gt;Node12 -->
<g id="edge30" class="edge"><title>Node9&#45;&gt;Node12</title>
<path fill="none" stroke="midnightblue" d="M331.881,-483.52C331.9,-525.645 337.828,-696.953 430,-782 431.53,-783.412 433.145,-784.726 434.828,-785.948"/>
<polygon fill="midnightblue" stroke="midnightblue" points="433.389,-789.167 443.762,-791.324 436.999,-783.169 433.389,-789.167"/>
</g>
<!-- Node13 -->
<g id="node30" class="node"><title>Node13</title>
<a xlink:href="class_c_a_n_jaguar.html#a4ea009bbaaa337eeb10efba61203ee38" target="_top" xlink:title="CANJaguar::SetPositionReference">
<polygon fill="white" stroke="black" points="430.5,-753.5 430.5,-772.5 595.5,-772.5 595.5,-753.5 430.5,-753.5"/>
<text text-anchor="middle" x="513" y="-760.5" font-family="Helvetica,sans-Serif" font-size="10.00">CANJaguar::SetPositionReference</text>
</a>
</g>
<!-- Node9&#45;&gt;Node13 -->
<g id="edge34" class="edge"><title>Node9&#45;&gt;Node13</title>
<path fill="none" stroke="midnightblue" d="M332.37,-483.662C334.412,-522.794 347.522,-670.905 430,-744 431.733,-745.536 433.565,-746.954 435.478,-748.264"/>
<polygon fill="midnightblue" stroke="midnightblue" points="433.908,-751.398 444.323,-753.337 437.39,-745.325 433.908,-751.398"/>
</g>
<!-- Node14 -->
<g id="node33" class="node"><title>Node14</title>
<a xlink:href="class_c_a_n_jaguar.html#a22a1787a38fd35abc2cdf15bb7d81da5" target="_top" xlink:title="CANJaguar::SetP">
<polygon fill="white" stroke="black" points="466.5,-715.5 466.5,-734.5 559.5,-734.5 559.5,-715.5 466.5,-715.5"/>
<text text-anchor="middle" x="513" y="-722.5" font-family="Helvetica,sans-Serif" font-size="10.00">CANJaguar::SetP</text>
</a>
</g>
<!-- Node9&#45;&gt;Node14 -->
<g id="edge38" class="edge"><title>Node9&#45;&gt;Node14</title>
<path fill="none" stroke="midnightblue" d="M333.015,-483.762C337.28,-519.546 357.06,-644.638 430,-706 437.632,-712.421 447.023,-716.768 456.692,-719.692"/>
<polygon fill="midnightblue" stroke="midnightblue" points="455.845,-723.088 466.4,-722.165 457.573,-716.304 455.845,-723.088"/>
</g>
<!-- Node15 -->
<g id="node36" class="node"><title>Node15</title>
<a xlink:href="class_c_a_n_jaguar.html#a99abdf41fc6ce39d51f0c9d2fbbcfcb0" target="_top" xlink:title="CANJaguar::SetI">
<polygon fill="white" stroke="black" points="468.5,-677.5 468.5,-696.5 557.5,-696.5 557.5,-677.5 468.5,-677.5"/>
<text text-anchor="middle" x="513" y="-684.5" font-family="Helvetica,sans-Serif" font-size="10.00">CANJaguar::SetI</text>
</a>
</g>
<!-- Node9&#45;&gt;Node15 -->
<g id="edge42" class="edge"><title>Node9&#45;&gt;Node15</title>
<path fill="none" stroke="midnightblue" d="M333.918,-483.927C340.674,-516.077 366.474,-618.149 430,-668 438.276,-674.495 448.383,-678.839 458.635,-681.729"/>
<polygon fill="midnightblue" stroke="midnightblue" points="457.915,-685.155 468.455,-684.077 459.543,-678.347 457.915,-685.155"/>
</g>
<!-- Node16 -->
<g id="node39" class="node"><title>Node16</title>
<a xlink:href="class_c_a_n_jaguar.html#a5c5228b40626981bcb5009044edc28d7" target="_top" xlink:title="CANJaguar::SetD">
<polygon fill="white" stroke="black" points="466.5,-639.5 466.5,-658.5 559.5,-658.5 559.5,-639.5 466.5,-639.5"/>
<text text-anchor="middle" x="513" y="-646.5" font-family="Helvetica,sans-Serif" font-size="10.00">CANJaguar::SetD</text>
</a>
</g>
<!-- Node9&#45;&gt;Node16 -->
<g id="edge46" class="edge"><title>Node9&#45;&gt;Node16</title>
<path fill="none" stroke="midnightblue" d="M335.056,-483.527C344.392,-511.024 375.288,-591.04 430,-630 437.863,-635.599 447.128,-639.574 456.547,-642.389"/>
<polygon fill="midnightblue" stroke="midnightblue" points="455.809,-645.814 466.367,-644.924 457.559,-639.036 455.809,-645.814"/>
</g>
<!-- Node17 -->
<g id="node42" class="node"><title>Node17</title>
<a xlink:href="class_c_a_n_jaguar.html#a66762a840c7c030b74b60652bcb4004f" target="_top" xlink:title="CANJaguar::ConfigNeutralMode">
<polygon fill="white" stroke="black" points="436.5,-601.5 436.5,-620.5 589.5,-620.5 589.5,-601.5 436.5,-601.5"/>
<text text-anchor="middle" x="513" y="-608.5" font-family="Helvetica,sans-Serif" font-size="10.00">CANJaguar::ConfigNeutralMode</text>
</a>
</g>
<!-- Node9&#45;&gt;Node17 -->
<g id="edge50" class="edge"><title>Node9&#45;&gt;Node17</title>
<path fill="none" stroke="midnightblue" d="M337.175,-483.648C349.809,-506.228 384.55,-562.733 430,-591 434.137,-593.573 438.583,-595.815 443.188,-597.769"/>
<polygon fill="midnightblue" stroke="midnightblue" points="442.222,-601.145 452.814,-601.388 444.685,-594.593 442.222,-601.145"/>
</g>
<!-- Node18 -->
<g id="node45" class="node"><title>Node18</title>
<a xlink:href="class_c_a_n_jaguar.html#a24bce09f963f2f7f0c38000197551e2d" target="_top" xlink:title="CANJaguar::ConfigEncoder\lCodesPerRev">
<polygon fill="white" stroke="black" points="446,-552 446,-582 580,-582 580,-552 446,-552"/>
<text text-anchor="start" x="454" y="-570" font-family="Helvetica,sans-Serif" font-size="10.00">CANJaguar::ConfigEncoder</text>
<text text-anchor="middle" x="513" y="-559" font-family="Helvetica,sans-Serif" font-size="10.00">CodesPerRev</text>
</a>
</g>
<!-- Node9&#45;&gt;Node18 -->
<g id="edge54" class="edge"><title>Node9&#45;&gt;Node18</title>
<path fill="none" stroke="midnightblue" d="M343.33,-483.641C360.86,-498.128 396.083,-525.563 430,-542 434.652,-544.254 439.551,-546.357 444.545,-548.308"/>
<polygon fill="midnightblue" stroke="midnightblue" points="443.631,-551.702 454.224,-551.873 446.05,-545.133 443.631,-551.702"/>
</g>
<!-- Node19 -->
<g id="node48" class="node"><title>Node19</title>
<a xlink:href="class_c_a_n_jaguar.html#aefcfcbee61541f69cae47ea1ef405f17" target="_top" xlink:title="CANJaguar::ConfigPotentiometer\lTurns">
<polygon fill="white" stroke="black" points="433.5,-503 433.5,-533 592.5,-533 592.5,-503 433.5,-503"/>
<text text-anchor="start" x="441.5" y="-521" font-family="Helvetica,sans-Serif" font-size="10.00">CANJaguar::ConfigPotentiometer</text>
<text text-anchor="middle" x="513" y="-510" font-family="Helvetica,sans-Serif" font-size="10.00">Turns</text>
</a>
</g>
<!-- Node9&#45;&gt;Node19 -->
<g id="edge58" class="edge"><title>Node9&#45;&gt;Node19</title>
<path fill="none" stroke="midnightblue" d="M371.057,-483.547C391.323,-488.501 416.728,-494.711 440.366,-500.49"/>
<polygon fill="midnightblue" stroke="midnightblue" points="439.824,-503.96 450.369,-502.935 441.486,-497.16 439.824,-503.96"/>
</g>
<!-- Node20 -->
<g id="node51" class="node"><title>Node20</title>
<a xlink:href="class_c_a_n_jaguar.html#aeb878aff41701ed6d2bb0732a0beb07a" target="_top" xlink:title="CANJaguar::ConfigLimitMode">
<polygon fill="white" stroke="black" points="441.5,-464.5 441.5,-483.5 584.5,-483.5 584.5,-464.5 441.5,-464.5"/>
<text text-anchor="middle" x="513" y="-471.5" font-family="Helvetica,sans-Serif" font-size="10.00">CANJaguar::ConfigLimitMode</text>
</a>
</g>
<!-- Node9&#45;&gt;Node20 -->
<g id="edge62" class="edge"><title>Node9&#45;&gt;Node20</title>
<path fill="none" stroke="midnightblue" d="M377.887,-474C394.146,-474 412.956,-474 431.251,-474"/>
<polygon fill="midnightblue" stroke="midnightblue" points="431.343,-477.5 441.343,-474 431.343,-470.5 431.343,-477.5"/>
</g>
<!-- Node21 -->
<g id="node54" class="node"><title>Node21</title>
<a xlink:href="class_c_a_n_jaguar.html#a99204e2c841e2088d5b42dff35a8212e" target="_top" xlink:title="CANJaguar::ConfigForward\lLimit">
<polygon fill="white" stroke="black" points="446.5,-415 446.5,-445 579.5,-445 579.5,-415 446.5,-415"/>
<text text-anchor="start" x="454.5" y="-433" font-family="Helvetica,sans-Serif" font-size="10.00">CANJaguar::ConfigForward</text>
<text text-anchor="middle" x="513" y="-422" font-family="Helvetica,sans-Serif" font-size="10.00">Limit</text>
</a>
</g>
<!-- Node9&#45;&gt;Node21 -->
<g id="edge66" class="edge"><title>Node9&#45;&gt;Node21</title>
<path fill="none" stroke="midnightblue" d="M371.057,-464.453C391.323,-459.499 416.728,-453.289 440.366,-447.51"/>
<polygon fill="midnightblue" stroke="midnightblue" points="441.486,-450.84 450.369,-445.065 439.824,-444.04 441.486,-450.84"/>
</g>
<!-- Node22 -->
<g id="node57" class="node"><title>Node22</title>
<a xlink:href="class_c_a_n_jaguar.html#a67c5f0698f1faa97629bd1b31aa7880b" target="_top" xlink:title="CANJaguar::ConfigReverse\lLimit">
<polygon fill="white" stroke="black" points="446.5,-366 446.5,-396 579.5,-396 579.5,-366 446.5,-366"/>
<text text-anchor="start" x="454.5" y="-384" font-family="Helvetica,sans-Serif" font-size="10.00">CANJaguar::ConfigReverse</text>
<text text-anchor="middle" x="513" y="-373" font-family="Helvetica,sans-Serif" font-size="10.00">Limit</text>
</a>
</g>
<!-- Node9&#45;&gt;Node22 -->
<g id="edge70" class="edge"><title>Node9&#45;&gt;Node22</title>
<path fill="none" stroke="midnightblue" d="M343.33,-464.359C360.86,-449.872 396.083,-422.437 430,-406 434.652,-403.746 439.551,-401.643 444.545,-399.692"/>
<polygon fill="midnightblue" stroke="midnightblue" points="446.05,-402.867 454.224,-396.127 443.631,-396.298 446.05,-402.867"/>
</g>
<!-- Node23 -->
<g id="node60" class="node"><title>Node23</title>
<a xlink:href="class_c_a_n_jaguar.html#a44ea3760f054da59612cb0c3972c0696" target="_top" xlink:title="CANJaguar::ConfigMaxOutput\lVoltage">
<polygon fill="white" stroke="black" points="440,-317 440,-347 586,-347 586,-317 440,-317"/>
<text text-anchor="start" x="448" y="-335" font-family="Helvetica,sans-Serif" font-size="10.00">CANJaguar::ConfigMaxOutput</text>
<text text-anchor="middle" x="513" y="-324" font-family="Helvetica,sans-Serif" font-size="10.00">Voltage</text>
</a>
</g>
<!-- Node9&#45;&gt;Node23 -->
<g id="edge74" class="edge"><title>Node9&#45;&gt;Node23</title>
<path fill="none" stroke="midnightblue" d="M337.477,-464.19C350.504,-441.759 385.59,-386.397 430,-357 433.099,-354.949 436.373,-353.06 439.759,-351.321"/>
<polygon fill="midnightblue" stroke="midnightblue" points="441.342,-354.445 448.94,-347.061 438.396,-348.095 441.342,-354.445"/>
</g>
<!-- Node24 -->
<g id="node63" class="node"><title>Node24</title>
<a xlink:href="class_c_a_n_jaguar.html#aa9b1c6a444e51e830812fd4484964388" target="_top" xlink:title="CANJaguar::SetVoltageRampRate">
<polygon fill="white" stroke="black" points="430.5,-278.5 430.5,-297.5 595.5,-297.5 595.5,-278.5 430.5,-278.5"/>
<text text-anchor="middle" x="513" y="-285.5" font-family="Helvetica,sans-Serif" font-size="10.00">CANJaguar::SetVoltageRampRate</text>
</a>
</g>
<!-- Node9&#45;&gt;Node24 -->
<g id="edge78" class="edge"><title>Node9&#45;&gt;Node24</title>
<path fill="none" stroke="midnightblue" d="M334.763,-464.316C343.488,-435.563 373.291,-350.078 430,-308 433.218,-305.612 436.684,-303.507 440.308,-301.65"/>
<polygon fill="midnightblue" stroke="midnightblue" points="441.872,-304.785 449.592,-297.528 439.032,-298.387 441.872,-304.785"/>
</g>
<!-- Node25 -->
<g id="node66" class="node"><title>Node25</title>
<a xlink:href="class_c_a_n_jaguar.html#acf67e7f7a57b6d8d657897bed2d21b98" target="_top" xlink:title="CANJaguar::ConfigFaultTime">
<polygon fill="white" stroke="black" points="442.5,-240.5 442.5,-259.5 583.5,-259.5 583.5,-240.5 442.5,-240.5"/>
<text text-anchor="middle" x="513" y="-247.5" font-family="Helvetica,sans-Serif" font-size="10.00">CANJaguar::ConfigFaultTime</text>
</a>
</g>
<!-- Node9&#45;&gt;Node25 -->
<g id="edge82" class="edge"><title>Node9&#45;&gt;Node25</title>
<path fill="none" stroke="midnightblue" d="M333.563,-464.455C339.466,-431.608 363.546,-322.331 430,-269 432.094,-267.319 434.31,-265.782 436.62,-264.376"/>
<polygon fill="midnightblue" stroke="midnightblue" points="438.644,-267.271 445.932,-259.58 435.439,-261.047 438.644,-267.271"/>
</g>
<!-- Node26 -->
<g id="node69" class="node"><title>Node26</title>
<a xlink:href="class_c_a_n_jaguar.html#a1515a39fbac1a3b7e9e8cc79fe2233ec" target="_top" xlink:title="CANJaguar::setupPeriodic\lStatus">
<polygon fill="white" stroke="black" points="447.5,-191 447.5,-221 578.5,-221 578.5,-191 447.5,-191"/>
<text text-anchor="start" x="455.5" y="-209" font-family="Helvetica,sans-Serif" font-size="10.00">CANJaguar::setupPeriodic</text>
<text text-anchor="middle" x="513" y="-198" font-family="Helvetica,sans-Serif" font-size="10.00">Status</text>
</a>
</g>
<!-- Node9&#45;&gt;Node26 -->
<g id="edge86" class="edge"><title>Node9&#45;&gt;Node26</title>
<path fill="none" stroke="midnightblue" d="M332.947,-464.456C337.048,-428.287 356.547,-298.298 430,-231 432.603,-228.615 435.427,-226.458 438.41,-224.506"/>
<polygon fill="midnightblue" stroke="midnightblue" points="440.209,-227.509 447.182,-219.532 436.756,-221.42 440.209,-227.509"/>
</g>
<!-- Node27 -->
<g id="node72" class="node"><title>Node27</title>
<a xlink:href="class_c_a_n_jaguar.html#a22612130552d75e71b80f65f0013b9dc" target="_top" xlink:title="CANJaguar::GetTemperature">
<polygon fill="white" stroke="black" points="442.5,-114.5 442.5,-133.5 583.5,-133.5 583.5,-114.5 442.5,-114.5"/>
<text text-anchor="middle" x="513" y="-121.5" font-family="Helvetica,sans-Serif" font-size="10.00">CANJaguar::GetTemperature</text>
</a>
</g>
<!-- Node9&#45;&gt;Node27 -->
<g id="edge90" class="edge"><title>Node9&#45;&gt;Node27</title>
<path fill="none" stroke="midnightblue" d="M331.807,-464.364C331.482,-420.91 336.051,-241.267 430,-148 433.948,-144.081 438.498,-140.795 443.39,-138.041"/>
<polygon fill="midnightblue" stroke="midnightblue" points="445.027,-141.138 452.509,-133.636 441.982,-134.835 445.027,-141.138"/>
</g>
<!-- Node29 -->
<g id="node77" class="node"><title>Node29</title>
<a xlink:href="class_c_a_n_jaguar.html#a7b2f80fccf8ca7bb7413c9f25e12f99a" target="_top" xlink:title="CANJaguar::GetPosition">
<polygon fill="white" stroke="black" points="452,-76.5 452,-95.5 574,-95.5 574,-76.5 452,-76.5"/>
<text text-anchor="middle" x="513" y="-83.5" font-family="Helvetica,sans-Serif" font-size="10.00">CANJaguar::GetPosition</text>
</a>
</g>
<!-- Node9&#45;&gt;Node29 -->
<g id="edge96" class="edge"><title>Node9&#45;&gt;Node29</title>
<path fill="none" stroke="midnightblue" d="M333.221,-464.314C340.083,-411.407 375.485,-157.803 430,-105 433.615,-101.499 437.741,-98.5956 442.175,-96.1931"/>
<polygon fill="midnightblue" stroke="midnightblue" points="443.962,-99.2275 451.646,-91.9335 441.09,-92.8436 443.962,-99.2275"/>
</g>
<!-- Node30 -->
<g id="node80" class="node"><title>Node30</title>
<a xlink:href="class_c_a_n_jaguar.html#aa64fd18ae27ff40b16add78ffa38c23d" target="_top" xlink:title="CANJaguar::GetFaults">
<polygon fill="white" stroke="black" points="456,-38.5 456,-57.5 570,-57.5 570,-38.5 456,-38.5"/>
<text text-anchor="middle" x="513" y="-45.5" font-family="Helvetica,sans-Serif" font-size="10.00">CANJaguar::GetFaults</text>
</a>
</g>
<!-- Node9&#45;&gt;Node30 -->
<g id="edge100" class="edge"><title>Node9&#45;&gt;Node30</title>
<path fill="none" stroke="midnightblue" d="M332.953,-464.445C338.701,-408.705 370.517,-125.974 430,-67 434.631,-62.4087 440.139,-58.8407 446.078,-56.0789"/>
<polygon fill="midnightblue" stroke="midnightblue" points="447.628,-59.2326 455.7,-52.3711 445.111,-52.7007 447.628,-59.2326"/>
</g>
<!-- Node12&#45;&gt;Node7 -->
<g id="edge32" class="edge"><title>Node12&#45;&gt;Node7</title>
<path fill="none" stroke="midnightblue" d="M579.48,-791.369C585.388,-788.898 591.013,-785.823 596,-782 654.957,-736.795 683.952,-647.99 694.351,-608.607"/>
<polygon fill="midnightblue" stroke="midnightblue" points="697.751,-609.439 696.801,-598.887 690.963,-607.728 697.751,-609.439"/>
</g>
<!-- Node13&#45;&gt;Node7 -->
<g id="edge36" class="edge"><title>Node13&#45;&gt;Node7</title>
<path fill="none" stroke="midnightblue" d="M577.855,-753.349C584.288,-750.895 590.475,-747.829 596,-744 646.083,-709.295 678.273,-641.605 691.754,-608.363"/>
<polygon fill="midnightblue" stroke="midnightblue" points="695.085,-609.454 695.472,-598.866 688.567,-606.902 695.085,-609.454"/>
</g>
<!-- Node14&#45;&gt;Node7 -->
<g id="edge40" class="edge"><title>Node14&#45;&gt;Node7</title>
<path fill="none" stroke="midnightblue" d="M559.754,-719.614C572.118,-716.8 585.085,-712.518 596,-706 637.801,-681.039 671.718,-633.378 688.189,-607.25"/>
<polygon fill="midnightblue" stroke="midnightblue" points="691.201,-609.034 693.45,-598.68 685.235,-605.372 691.201,-609.034"/>
</g>
<!-- Node15&#45;&gt;Node7 -->
<g id="edge44" class="edge"><title>Node15&#45;&gt;Node7</title>
<path fill="none" stroke="midnightblue" d="M557.719,-680.475C570.44,-677.629 584.106,-673.614 596,-668 629.703,-652.092 662.845,-623.77 682.086,-605.711"/>
<polygon fill="midnightblue" stroke="midnightblue" points="684.641,-608.11 689.443,-598.665 679.8,-603.054 684.641,-608.11"/>
</g>
<!-- Node16&#45;&gt;Node7 -->
<g id="edge48" class="edge"><title>Node16&#45;&gt;Node7</title>
<path fill="none" stroke="midnightblue" d="M559.871,-639.659C571.735,-636.893 584.424,-633.622 596,-630 620.783,-622.245 648.053,-611.276 668.305,-602.635"/>
<polygon fill="midnightblue" stroke="midnightblue" points="669.847,-605.781 677.641,-598.604 667.073,-599.354 669.847,-605.781"/>
</g>
<!-- Node17&#45;&gt;Node7 -->
<g id="edge52" class="edge"><title>Node17&#45;&gt;Node7</title>
<path fill="none" stroke="midnightblue" d="M589.513,-602.02C600.758,-600.683 612.35,-599.304 623.592,-597.967"/>
<polygon fill="midnightblue" stroke="midnightblue" points="624.282,-601.41 633.799,-596.754 623.455,-594.459 624.282,-601.41"/>
</g>
<!-- Node18&#45;&gt;Node7 -->
<g id="edge56" class="edge"><title>Node18&#45;&gt;Node7</title>
<path fill="none" stroke="midnightblue" d="M580.006,-574.849C594.254,-576.544 609.419,-578.347 623.984,-580.079"/>
<polygon fill="midnightblue" stroke="midnightblue" points="623.609,-583.559 633.952,-581.265 624.436,-576.608 623.609,-583.559"/>
</g>
<!-- Node19&#45;&gt;Node7 -->
<g id="edge60" class="edge"><title>Node19&#45;&gt;Node7</title>
<path fill="none" stroke="midnightblue" d="M566.818,-533.046C576.593,-536.129 586.66,-539.506 596,-543 621.653,-552.596 650.017,-565.436 670.474,-575.111"/>
<polygon fill="midnightblue" stroke="midnightblue" points="669.024,-578.298 679.556,-579.445 672.038,-571.98 669.024,-578.298"/>
</g>
<!-- Node20&#45;&gt;Node7 -->
<g id="edge64" class="edge"><title>Node20&#45;&gt;Node7</title>
<path fill="none" stroke="midnightblue" d="M569.673,-483.525C578.766,-486.212 587.864,-489.638 596,-494 632.908,-513.787 666.754,-549.921 684.967,-571.469"/>
<polygon fill="midnightblue" stroke="midnightblue" points="682.295,-573.73 691.364,-579.207 687.69,-569.269 682.295,-573.73"/>
</g>
<!-- Node21&#45;&gt;Node7 -->
<g id="edge68" class="edge"><title>Node21&#45;&gt;Node7</title>
<path fill="none" stroke="midnightblue" d="M578.068,-445.183C584.39,-447.942 590.494,-451.187 596,-455 640.236,-485.634 673.949,-541.139 689.516,-570.164"/>
<polygon fill="midnightblue" stroke="midnightblue" points="686.524,-571.995 694.253,-579.242 692.73,-568.757 686.524,-571.995"/>
</g>
<!-- Node22&#45;&gt;Node7 -->
<g id="edge72" class="edge"><title>Node22&#45;&gt;Node7</title>
<path fill="none" stroke="midnightblue" d="M579.889,-395.992C585.647,-398.78 591.128,-402.084 596,-406 651.089,-450.279 681.81,-532.44 693.478,-569.716"/>
<polygon fill="midnightblue" stroke="midnightblue" points="690.148,-570.796 696.381,-579.363 696.851,-568.779 690.148,-570.796"/>
</g>
<!-- Node23&#45;&gt;Node7 -->
<g id="edge76" class="edge"><title>Node23&#45;&gt;Node7</title>
<path fill="none" stroke="midnightblue" d="M581.501,-347.144C586.728,-349.898 591.653,-353.153 596,-357 662.182,-415.569 687.882,-524.747 695.911,-569.301"/>
<polygon fill="midnightblue" stroke="midnightblue" points="692.499,-570.116 697.621,-579.391 699.401,-568.946 692.499,-570.116"/>
</g>
<!-- Node24&#45;&gt;Node7 -->
<g id="edge80" class="edge"><title>Node24&#45;&gt;Node7</title>
<path fill="none" stroke="midnightblue" d="M579.675,-297.591C585.615,-300.293 591.193,-303.704 596,-308 675.778,-379.3 693.856,-517.716 697.876,-569.136"/>
<polygon fill="midnightblue" stroke="midnightblue" points="694.393,-569.506 698.568,-579.244 701.377,-569.028 694.393,-569.506"/>
</g>
<!-- Node25&#45;&gt;Node7 -->
<g id="edge84" class="edge"><title>Node25&#45;&gt;Node7</title>
<path fill="none" stroke="midnightblue" d="M582.224,-259.691C587.232,-262.18 591.913,-265.241 596,-269 685.839,-351.616 697.633,-512.796 698.941,-569.052"/>
<polygon fill="midnightblue" stroke="midnightblue" points="695.446,-569.448 699.085,-579.398 702.445,-569.35 695.446,-569.448"/>
</g>
<!-- Node26&#45;&gt;Node7 -->
<g id="edge88" class="edge"><title>Node26&#45;&gt;Node7</title>
<path fill="none" stroke="midnightblue" d="M578.508,-218.61C584.974,-221.848 590.989,-225.909 596,-231 691.913,-328.439 699.656,-509.087 699.444,-569.065"/>
<polygon fill="midnightblue" stroke="midnightblue" points="695.94,-569.35 699.319,-579.392 702.94,-569.435 695.94,-569.35"/>
</g>
<!-- Node28 -->
<g id="node74" class="node"><title>Node28</title>
<a xlink:href="class_c_a_n_jaguar.html#a9436c9b85c0b008bb3276e7283176603" target="_top" xlink:title="CANJaguar::updatePeriodic\lStatus">
<polygon fill="white" stroke="black" points="632,-87 632,-117 768,-117 768,-87 632,-87"/>
<text text-anchor="start" x="640" y="-105" font-family="Helvetica,sans-Serif" font-size="10.00">CANJaguar::updatePeriodic</text>
<text text-anchor="middle" x="700" y="-94" font-family="Helvetica,sans-Serif" font-size="10.00">Status</text>
</a>
</g>
<!-- Node27&#45;&gt;Node28 -->
<g id="edge92" class="edge"><title>Node27&#45;&gt;Node28</title>
<path fill="none" stroke="midnightblue" d="M583.677,-115.714C596.123,-114.234 609.158,-112.684 621.8,-111.181"/>
<polygon fill="midnightblue" stroke="midnightblue" points="622.319,-114.644 631.836,-109.987 621.492,-107.693 622.319,-114.644"/>
</g>
<!-- Node28&#45;&gt;Node10 -->
<g id="edge94" class="edge"><title>Node28&#45;&gt;Node10</title>
<path fill="none" stroke="midnightblue" d="M766.212,-117.019C782.321,-120.728 799.35,-124.65 814.692,-128.184"/>
<polygon fill="midnightblue" stroke="midnightblue" points="813.973,-131.61 824.503,-130.443 815.544,-124.788 813.973,-131.61"/>
</g>
<!-- Node29&#45;&gt;Node28 -->
<g id="edge98" class="edge"><title>Node29&#45;&gt;Node28</title>
<path fill="none" stroke="midnightblue" d="M574.064,-91.1947C589.21,-92.5046 605.684,-93.9294 621.551,-95.3017"/>
<polygon fill="midnightblue" stroke="midnightblue" points="621.606,-98.8194 631.87,-96.1942 622.209,-91.8455 621.606,-98.8194"/>
</g>
<!-- Node30&#45;&gt;Node28 -->
<g id="edge102" class="edge"><title>Node30&#45;&gt;Node28</title>
<path fill="none" stroke="midnightblue" d="M558.893,-57.5501C571.001,-60.3573 584.054,-63.5956 596,-67 613.157,-71.8895 631.676,-77.936 648.216,-83.6199"/>
<polygon fill="midnightblue" stroke="midnightblue" points="647.106,-86.9394 657.701,-86.9132 649.402,-80.3267 647.106,-86.9394"/>
</g>
</g>
</svg>
