<?xml version="1.0" encoding="UTF-8" standalone="no"?>
<!DOCTYPE svg PUBLIC "-//W3C//DTD SVG 1.1//EN"
 "http://www.w3.org/Graphics/SVG/1.1/DTD/svg11.dtd">
<!-- Generated by graphviz version 2.28.0 (20110507.0327)
 -->
<!-- Title: Talon::Disable Pages: 1 -->
<svg width="364pt" height="28pt"
 viewBox="0.00 0.00 364.00 28.00" xmlns="http://www.w3.org/2000/svg" xmlns:xlink="http://www.w3.org/1999/xlink">
<g id="graph1" class="graph" transform="scale(1 1) rotate(0) translate(4 24)">
<title>Talon::Disable</title>
<polygon fill="white" stroke="white" points="-4,5 -4,-24 361,-24 361,5 -4,5"/>
<!-- Node1 -->
<g id="node1" class="node"><title>Node1</title>
<polygon fill="#bfbfbf" stroke="black" points="0,-0.5 0,-19.5 78,-19.5 78,-0.5 0,-0.5"/>
<text text-anchor="middle" x="39" y="-7.5" font-family="Helvetica,sans-Serif" font-size="10.00">Talon::Disable</text>
</g>
<!-- Node2 -->
<g id="node3" class="node"><title>Node2</title>
<a xlink:href="class_p_w_m.html#a0c546e1aa7d5d091447a819e50fae9ca" target="_top" xlink:title="PWM::SetRaw">
<polygon fill="white" stroke="black" points="114.5,-0.5 114.5,-19.5 195.5,-19.5 195.5,-0.5 114.5,-0.5"/>
<text text-anchor="middle" x="155" y="-7.5" font-family="Helvetica,sans-Serif" font-size="10.00">PWM::SetRaw</text>
</a>
</g>
<!-- Node1&#45;&gt;Node2 -->
<g id="edge2" class="edge"><title>Node1&#45;&gt;Node2</title>
<path fill="none" stroke="midnightblue" d="M78.2775,-10C86.646,-10 95.6202,-10 104.36,-10"/>
<polygon fill="midnightblue" stroke="midnightblue" points="104.461,-13.5001 114.461,-10 104.461,-6.5001 104.461,-13.5001"/>
</g>
<!-- Node3 -->
<g id="node5" class="node"><title>Node3</title>
<a xlink:href="class_error_base.html#a05790f219c9e436a09752f73f7344024" target="_top" xlink:title="Check if the current error code represents a fatal error. ">
<polygon fill="white" stroke="black" points="232,-0.5 232,-19.5 356,-19.5 356,-0.5 232,-0.5"/>
<text text-anchor="middle" x="294" y="-7.5" font-family="Helvetica,sans-Serif" font-size="10.00">ErrorBase::StatusIsFatal</text>
</a>
</g>
<!-- Node2&#45;&gt;Node3 -->
<g id="edge4" class="edge"><title>Node2&#45;&gt;Node3</title>
<path fill="none" stroke="midnightblue" d="M195.626,-10C203.837,-10 212.725,-10 221.677,-10"/>
<polygon fill="midnightblue" stroke="midnightblue" points="221.78,-13.5001 231.78,-10 221.78,-6.5001 221.78,-13.5001"/>
</g>
</g>
</svg>
