<?xml version="1.0" encoding="UTF-8" standalone="no"?>
<!DOCTYPE svg PUBLIC "-//W3C//DTD SVG 1.1//EN"
 "http://www.w3.org/Graphics/SVG/1.1/DTD/svg11.dtd">
<!-- Generated by graphviz version 2.28.0 (20110507.0327)
 -->
<!-- Title: PIDController::SetSetpoint Pages: 1 -->
<svg width="508pt" height="77pt"
 viewBox="0.00 0.00 508.00 77.00" xmlns="http://www.w3.org/2000/svg" xmlns:xlink="http://www.w3.org/1999/xlink">
<g id="graph1" class="graph" transform="scale(1 1) rotate(0) translate(4 73)">
<title>PIDController::SetSetpoint</title>
<polygon fill="white" stroke="white" points="-4,5 -4,-73 505,-73 505,5 -4,5"/>
<!-- Node1 -->
<g id="node1" class="node"><title>Node1</title>
<polygon fill="#bfbfbf" stroke="black" points="0.5,-22.5 0.5,-41.5 131.5,-41.5 131.5,-22.5 0.5,-22.5"/>
<text text-anchor="middle" x="66" y="-29.5" font-family="Helvetica,sans-Serif" font-size="10.00">PIDController::SetSetpoint</text>
</g>
<!-- Node2 -->
<g id="node3" class="node"><title>Node2</title>
<a xlink:href="class_p_i_d_subsystem.html#a87323aaa4b95fe9dc544157f04f66867" target="_top" xlink:title="PIDSubsystem::SetSetpoint">
<polygon fill="white" stroke="black" points="170.5,-42.5 170.5,-61.5 309.5,-61.5 309.5,-42.5 170.5,-42.5"/>
<text text-anchor="middle" x="240" y="-49.5" font-family="Helvetica,sans-Serif" font-size="10.00">PIDSubsystem::SetSetpoint</text>
</a>
</g>
<!-- Node1&#45;&gt;Node2 -->
<g id="edge2" class="edge"><title>Node1&#45;&gt;Node2</title>
<path fill="none" stroke="midnightblue" d="M141.757,-40.6927C151.264,-41.7982 160.959,-42.9254 170.364,-44.019"/>
<polygon fill="midnightblue" stroke="midnightblue" points="141.873,-37.1827 131.536,-39.5042 141.065,-44.1358 141.873,-37.1827"/>
</g>
<!-- Node4 -->
<g id="node7" class="node"><title>Node4</title>
<a xlink:href="class_p_i_d_controller.html#aa105ab2c2020dfc767fe9b585be0103a" target="_top" xlink:title="PIDController::SetInputRange">
<polygon fill="white" stroke="black" points="168.5,-3.5 168.5,-22.5 311.5,-22.5 311.5,-3.5 168.5,-3.5"/>
<text text-anchor="middle" x="240" y="-10.5" font-family="Helvetica,sans-Serif" font-size="10.00">PIDController::SetInputRange</text>
</a>
</g>
<!-- Node1&#45;&gt;Node4 -->
<g id="edge6" class="edge"><title>Node1&#45;&gt;Node4</title>
<path fill="none" stroke="midnightblue" d="M141.501,-23.7702C150.41,-22.7862 159.485,-21.7836 168.337,-20.8058"/>
<polygon fill="midnightblue" stroke="midnightblue" points="141.091,-20.2941 131.536,-24.871 141.86,-27.2518 141.091,-20.2941"/>
</g>
<!-- Node3 -->
<g id="node5" class="node"><title>Node3</title>
<a xlink:href="class_p_i_d_subsystem.html#aca4dcf990caeff9dcbc0d8c66d476316" target="_top" xlink:title="PIDSubsystem::SetSetpoint\lRelative">
<polygon fill="white" stroke="black" points="354.5,-39 354.5,-69 493.5,-69 493.5,-39 354.5,-39"/>
<text text-anchor="start" x="362.5" y="-57" font-family="Helvetica,sans-Serif" font-size="10.00">PIDSubsystem::SetSetpoint</text>
<text text-anchor="middle" x="424" y="-46" font-family="Helvetica,sans-Serif" font-size="10.00">Relative</text>
</a>
</g>
<!-- Node2&#45;&gt;Node3 -->
<g id="edge4" class="edge"><title>Node2&#45;&gt;Node3</title>
<path fill="none" stroke="midnightblue" d="M319.586,-52.8636C331.11,-52.9902 342.905,-53.1198 354.212,-53.2441"/>
<polygon fill="midnightblue" stroke="midnightblue" points="319.585,-49.3635 309.547,-52.7533 319.508,-56.363 319.585,-49.3635"/>
</g>
<!-- Node5 -->
<g id="node9" class="node"><title>Node5</title>
<a xlink:href="class_p_i_d_subsystem.html#a7b42f8f4c4b8ef698ab36ae6e443fb4d" target="_top" xlink:title="PIDSubsystem::SetInputRange">
<polygon fill="white" stroke="black" points="348,-0.5 348,-19.5 500,-19.5 500,-0.5 348,-0.5"/>
<text text-anchor="middle" x="424" y="-7.5" font-family="Helvetica,sans-Serif" font-size="10.00">PIDSubsystem::SetInputRange</text>
</a>
</g>
<!-- Node4&#45;&gt;Node5 -->
<g id="edge8" class="edge"><title>Node4&#45;&gt;Node5</title>
<path fill="none" stroke="midnightblue" d="M321.756,-11.6689C330.45,-11.5255 339.271,-11.3801 347.896,-11.238"/>
<polygon fill="midnightblue" stroke="midnightblue" points="321.567,-8.17139 311.626,-11.8358 321.683,-15.1704 321.567,-8.17139"/>
</g>
</g>
</svg>
