<?xml version="1.0" encoding="UTF-8" standalone="no"?>
<!DOCTYPE svg PUBLIC "-//W3C//DTD SVG 1.1//EN"
 "http://www.w3.org/Graphics/SVG/1.1/DTD/svg11.dtd">
<!-- Generated by graphviz version 2.28.0 (20110507.0327)
 -->
<!-- Title: DriverStation::IsDisabled Pages: 1 -->
<svg width="472pt" height="96pt"
 viewBox="0.00 0.00 472.00 96.00" xmlns="http://www.w3.org/2000/svg" xmlns:xlink="http://www.w3.org/1999/xlink">
<g id="graph1" class="graph" transform="scale(1 1) rotate(0) translate(4 92)">
<title>DriverStation::IsDisabled</title>
<polygon fill="white" stroke="white" points="-4,5 -4,-92 469,-92 469,5 -4,5"/>
<!-- Node1 -->
<g id="node1" class="node"><title>Node1</title>
<polygon fill="#bfbfbf" stroke="black" points="0,-41.5 0,-60.5 122,-60.5 122,-41.5 0,-41.5"/>
<text text-anchor="middle" x="61" y="-48.5" font-family="Helvetica,sans-Serif" font-size="10.00">DriverStation::IsDisabled</text>
</g>
<!-- Node2 -->
<g id="node3" class="node"><title>Node2</title>
<a xlink:href="class_motor_safety_helper.html#a951390af947b507a299d1175b7e717cf" target="_top" xlink:title="MotorSafetyHelper::\lCheck">
<polygon fill="white" stroke="black" points="164.5,-58 164.5,-88 267.5,-88 267.5,-58 164.5,-58"/>
<text text-anchor="start" x="172.5" y="-76" font-family="Helvetica,sans-Serif" font-size="10.00">MotorSafetyHelper::</text>
<text text-anchor="middle" x="216" y="-65" font-family="Helvetica,sans-Serif" font-size="10.00">Check</text>
</a>
</g>
<!-- Node1&#45;&gt;Node2 -->
<g id="edge2" class="edge"><title>Node1&#45;&gt;Node2</title>
<path fill="none" stroke="midnightblue" d="M132.234,-61.099C142.958,-62.641 153.847,-64.2068 164.052,-65.6741"/>
<polygon fill="midnightblue" stroke="midnightblue" points="132.427,-57.5908 122.031,-59.6318 131.431,-64.5196 132.427,-57.5908"/>
</g>
<!-- Node3 -->
<g id="node5" class="node"><title>Node3</title>
<a xlink:href="class_robot_base.html#a75fb5e396eaee765e65d3bf24d5c2a08" target="_top" xlink:title="RobotBase::IsDisabled">
<polygon fill="white" stroke="black" points="158,-19.5 158,-38.5 274,-38.5 274,-19.5 158,-19.5"/>
<text text-anchor="middle" x="216" y="-26.5" font-family="Helvetica,sans-Serif" font-size="10.00">RobotBase::IsDisabled</text>
</a>
</g>
<!-- Node1&#45;&gt;Node3 -->
<g id="edge4" class="edge"><title>Node1&#45;&gt;Node3</title>
<path fill="none" stroke="midnightblue" d="M132.022,-40.9315C140.599,-39.6982 149.284,-38.4493 157.644,-37.2472"/>
<polygon fill="midnightblue" stroke="midnightblue" points="131.431,-37.4804 122.031,-42.3682 132.427,-44.4092 131.431,-37.4804"/>
</g>
<!-- Node4 -->
<g id="node7" class="node"><title>Node4</title>
<a xlink:href="class_iterative_robot.html#ab0af04a781b0390981b9f0dd75358515" target="_top" xlink:title="IterativeRobot::StartCompetition">
<polygon fill="white" stroke="black" points="310,-38.5 310,-57.5 464,-57.5 464,-38.5 310,-38.5"/>
<text text-anchor="middle" x="387" y="-45.5" font-family="Helvetica,sans-Serif" font-size="10.00">IterativeRobot::StartCompetition</text>
</a>
</g>
<!-- Node3&#45;&gt;Node4 -->
<g id="edge6" class="edge"><title>Node3&#45;&gt;Node4</title>
<path fill="none" stroke="midnightblue" d="M284.346,-36.5714C292.767,-37.5181 301.425,-38.4915 309.966,-39.4518"/>
<polygon fill="midnightblue" stroke="midnightblue" points="284.544,-33.0718 274.216,-35.4325 283.762,-40.0279 284.544,-33.0718"/>
</g>
<!-- Node5 -->
<g id="node9" class="node"><title>Node5</title>
<a xlink:href="class_sample_robot.html#aa9c849963713b505a4e032516c028829" target="_top" xlink:title="SampleRobot::StartCompetition">
<polygon fill="white" stroke="black" points="310,-0.5 310,-19.5 464,-19.5 464,-0.5 310,-0.5"/>
<text text-anchor="middle" x="387" y="-7.5" font-family="Helvetica,sans-Serif" font-size="10.00">SampleRobot::StartCompetition</text>
</a>
</g>
<!-- Node3&#45;&gt;Node5 -->
<g id="edge8" class="edge"><title>Node3&#45;&gt;Node5</title>
<path fill="none" stroke="midnightblue" d="M284.346,-21.4286C292.767,-20.4819 301.425,-19.5085 309.966,-18.5482"/>
<polygon fill="midnightblue" stroke="midnightblue" points="283.762,-17.9721 274.216,-22.5675 284.544,-24.9282 283.762,-17.9721"/>
</g>
</g>
</svg>
