<?xml version="1.0" encoding="UTF-8" standalone="no"?>
<!DOCTYPE svg PUBLIC "-//W3C//DTD SVG 1.1//EN"
 "http://www.w3.org/Graphics/SVG/1.1/DTD/svg11.dtd">
<!-- Generated by graphviz version 2.28.0 (20110507.0327)
 -->
<!-- Title: Timer::Get Pages: 1 -->
<svg width="392pt" height="66pt"
 viewBox="0.00 0.00 392.00 66.00" xmlns="http://www.w3.org/2000/svg" xmlns:xlink="http://www.w3.org/1999/xlink">
<g id="graph1" class="graph" transform="scale(1 1) rotate(0) translate(4 62)">
<title>Timer::Get</title>
<polygon fill="white" stroke="white" points="-4,5 -4,-62 389,-62 389,5 -4,5"/>
<!-- Node1 -->
<g id="node1" class="node"><title>Node1</title>
<polygon fill="#bfbfbf" stroke="black" points="0,-19.5 0,-38.5 62,-38.5 62,-19.5 0,-19.5"/>
<text text-anchor="middle" x="31" y="-26.5" font-family="Helvetica,sans-Serif" font-size="10.00">Timer::Get</text>
</g>
<!-- Node2 -->
<g id="node3" class="node"><title>Node2</title>
<a xlink:href="class_timer.html#a6379e797f968aaee6ac3bb12dc6b81c5" target="_top" xlink:title="Timer::Stop">
<polygon fill="white" stroke="black" points="127.5,-38.5 127.5,-57.5 194.5,-57.5 194.5,-38.5 127.5,-38.5"/>
<text text-anchor="middle" x="161" y="-45.5" font-family="Helvetica,sans-Serif" font-size="10.00">Timer::Stop</text>
</a>
</g>
<!-- Node1&#45;&gt;Node2 -->
<g id="edge2" class="edge"><title>Node1&#45;&gt;Node2</title>
<path fill="none" stroke="midnightblue" d="M72.1199,-34.9553C89.9431,-37.6009 110.651,-40.6747 127.487,-43.1738"/>
<polygon fill="midnightblue" stroke="midnightblue" points="72.4159,-31.461 62.0103,-33.4547 71.388,-38.3851 72.4159,-31.461"/>
</g>
<!-- Node4 -->
<g id="node7" class="node"><title>Node4</title>
<a xlink:href="class_timer.html#a044e56cf40905d2f5037745e44cc3881" target="_top" xlink:title="Timer::HasPeriodPassed">
<polygon fill="white" stroke="black" points="98.5,-0.5 98.5,-19.5 223.5,-19.5 223.5,-0.5 98.5,-0.5"/>
<text text-anchor="middle" x="161" y="-7.5" font-family="Helvetica,sans-Serif" font-size="10.00">Timer::HasPeriodPassed</text>
</a>
</g>
<!-- Node1&#45;&gt;Node4 -->
<g id="edge6" class="edge"><title>Node1&#45;&gt;Node4</title>
<path fill="none" stroke="midnightblue" d="M71.9134,-23.0754C80.3366,-21.825 89.4115,-20.478 98.4223,-19.1404"/>
<polygon fill="midnightblue" stroke="midnightblue" points="71.388,-19.6149 62.0103,-24.5453 72.4159,-26.539 71.388,-19.6149"/>
</g>
<!-- Node3 -->
<g id="node5" class="node"><title>Node3</title>
<a xlink:href="class_iterative_robot.html#a1e49eb27408751ea8ce757bfe38717e2" target="_top" xlink:title="IterativeRobot::SetPeriod">
<polygon fill="white" stroke="black" points="260,-38.5 260,-57.5 384,-57.5 384,-38.5 260,-38.5"/>
<text text-anchor="middle" x="322" y="-45.5" font-family="Helvetica,sans-Serif" font-size="10.00">IterativeRobot::SetPeriod</text>
</a>
</g>
<!-- Node2&#45;&gt;Node3 -->
<g id="edge4" class="edge"><title>Node2&#45;&gt;Node3</title>
<path fill="none" stroke="midnightblue" d="M204.703,-48C221.649,-48 241.456,-48 259.872,-48"/>
<polygon fill="midnightblue" stroke="midnightblue" points="204.56,-44.5001 194.56,-48 204.56,-51.5001 204.56,-44.5001"/>
</g>
</g>
</svg>
