<?xml version="1.0" encoding="UTF-8" standalone="no"?>
<!DOCTYPE svg PUBLIC "-//W3C//DTD SVG 1.1//EN"
 "http://www.w3.org/Graphics/SVG/1.1/DTD/svg11.dtd">
<!-- Generated by graphviz version 2.28.0 (20110507.0327)
 -->
<!-- Title: CancelButtonScheduler Pages: 1 -->
<svg width="333pt" height="308pt"
 viewBox="0.00 0.00 333.00 308.00" xmlns="http://www.w3.org/2000/svg" xmlns:xlink="http://www.w3.org/1999/xlink">
<g id="graph1" class="graph" transform="scale(1 1) rotate(0) translate(4 304)">
<title>CancelButtonScheduler</title>
<polygon fill="white" stroke="white" points="-4,5 -4,-304 330,-304 330,5 -4,5"/>
<!-- Node1 -->
<g id="node1" class="node"><title>Node1</title>
<polygon fill="#bfbfbf" stroke="black" points="30.5,-0.5 30.5,-19.5 149.5,-19.5 149.5,-0.5 30.5,-0.5"/>
<text text-anchor="middle" x="90" y="-7.5" font-family="Helvetica,sans-Serif" font-size="10.00">CancelButtonScheduler</text>
</g>
<!-- Node2 -->
<g id="node2" class="node"><title>Node2</title>
<a xlink:href="class_button_scheduler.html" target="_top" xlink:title="ButtonScheduler">
<polygon fill="white" stroke="black" points="45.5,-58.5 45.5,-77.5 134.5,-77.5 134.5,-58.5 45.5,-58.5"/>
<text text-anchor="middle" x="90" y="-65.5" font-family="Helvetica,sans-Serif" font-size="10.00">ButtonScheduler</text>
</a>
</g>
<!-- Node2&#45;&gt;Node1 -->
<g id="edge2" class="edge"><title>Node2&#45;&gt;Node1</title>
<path fill="none" stroke="midnightblue" d="M90,-47.953C90,-38.2875 90,-27.0312 90,-19.5052"/>
<polygon fill="midnightblue" stroke="midnightblue" points="86.5001,-48.25 90,-58.25 93.5001,-48.25 86.5001,-48.25"/>
</g>
<!-- Node3 -->
<g id="node4" class="node"><title>Node3</title>
<a xlink:href="class_command.html" target="_top" xlink:title="Command">
<polygon fill="white" stroke="black" points="144.5,-126.5 144.5,-145.5 205.5,-145.5 205.5,-126.5 144.5,-126.5"/>
<text text-anchor="middle" x="175" y="-133.5" font-family="Helvetica,sans-Serif" font-size="10.00">Command</text>
</a>
</g>
<!-- Node3&#45;&gt;Node2 -->
<g id="edge4" class="edge"><title>Node3&#45;&gt;Node2</title>
<path fill="none" stroke="#9a32cd" stroke-dasharray="5,2" d="M155.806,-120.096C138.941,-107.001 114.988,-88.4028 101.115,-77.6305"/>
<polygon fill="#9a32cd" stroke="#9a32cd" points="153.843,-123.003 163.888,-126.372 158.136,-117.474 153.843,-123.003"/>
<text text-anchor="middle" x="171" y="-99.5" font-family="Helvetica,sans-Serif" font-size="10.00"> m_command</text>
</g>
<!-- Node4 -->
<g id="node6" class="node"><title>Node4</title>
<a xlink:href="class_error_base.html" target="_top" xlink:title="ErrorBase">
<polygon fill="white" stroke="black" points="240,-202.5 240,-221.5 300,-221.5 300,-202.5 240,-202.5"/>
<text text-anchor="middle" x="270" y="-209.5" font-family="Helvetica,sans-Serif" font-size="10.00">ErrorBase</text>
</a>
</g>
<!-- Node4&#45;&gt;Node3 -->
<g id="edge6" class="edge"><title>Node4&#45;&gt;Node3</title>
<path fill="none" stroke="midnightblue" d="M250.809,-196.051C231.313,-180.865 201.8,-157.876 185.963,-145.54"/>
<polygon fill="midnightblue" stroke="midnightblue" points="248.689,-198.837 258.729,-202.221 252.991,-193.314 248.689,-198.837"/>
</g>
<!-- Node5 -->
<g id="node8" class="node"><title>Node5</title>
<a xlink:href="class_error.html" target="_top" xlink:title="Error">
<polygon fill="white" stroke="black" points="251,-280.5 251,-299.5 289,-299.5 289,-280.5 251,-280.5"/>
<text text-anchor="middle" x="270" y="-287.5" font-family="Helvetica,sans-Serif" font-size="10.00">Error</text>
</a>
</g>
<!-- Node5&#45;&gt;Node4 -->
<g id="edge8" class="edge"><title>Node5&#45;&gt;Node4</title>
<path fill="none" stroke="#9a32cd" stroke-dasharray="5,2" d="M270,-270.224C270,-254.697 270,-233.358 270,-221.616"/>
<polygon fill="#9a32cd" stroke="#9a32cd" points="266.5,-270.282 270,-280.282 273.5,-270.282 266.5,-270.282"/>
<text text-anchor="middle" x="297.5" y="-254" font-family="Helvetica,sans-Serif" font-size="10.00"> _globalError</text>
<text text-anchor="middle" x="297.5" y="-243" font-family="Helvetica,sans-Serif" font-size="10.00">m_error</text>
</g>
<!-- Node6 -->
<g id="node10" class="node"><title>Node6</title>
<a xlink:href="class_named_sendable.html" target="_top" xlink:title="NamedSendable">
<polygon fill="white" stroke="black" points="38,-202.5 38,-221.5 126,-221.5 126,-202.5 38,-202.5"/>
<text text-anchor="middle" x="82" y="-209.5" font-family="Helvetica,sans-Serif" font-size="10.00">NamedSendable</text>
</a>
</g>
<!-- Node6&#45;&gt;Node3 -->
<g id="edge10" class="edge"><title>Node6&#45;&gt;Node3</title>
<path fill="none" stroke="midnightblue" d="M101.044,-195.846C120.131,-180.659 148.834,-157.82 164.268,-145.54"/>
<polygon fill="midnightblue" stroke="midnightblue" points="98.6794,-193.255 93.0335,-202.221 103.038,-198.733 98.6794,-193.255"/>
</g>
<!-- Node7 -->
<g id="node12" class="node"><title>Node7</title>
<a xlink:href="class_sendable.html" target="_top" xlink:title="Sendable">
<polygon fill="white" stroke="black" points="-0.5,-280.5 -0.5,-299.5 56.5,-299.5 56.5,-280.5 -0.5,-280.5"/>
<text text-anchor="middle" x="28" y="-287.5" font-family="Helvetica,sans-Serif" font-size="10.00">Sendable</text>
</a>
</g>
<!-- Node7&#45;&gt;Node6 -->
<g id="edge12" class="edge"><title>Node7&#45;&gt;Node6</title>
<path fill="none" stroke="midnightblue" d="M40.075,-272.006C51.185,-256.369 67.211,-233.814 75.8778,-221.616"/>
<polygon fill="midnightblue" stroke="midnightblue" points="37.1335,-270.103 34.1945,-280.282 42.8397,-274.157 37.1335,-270.103"/>
</g>
<!-- Node9 -->
<g id="node16" class="node"><title>Node9</title>
<a xlink:href="class_trigger.html" target="_top" xlink:title="Trigger">
<polygon fill="white" stroke="black" points="20,-164.5 20,-183.5 66,-183.5 66,-164.5 20,-164.5"/>
<text text-anchor="middle" x="43" y="-171.5" font-family="Helvetica,sans-Serif" font-size="10.00">Trigger</text>
</a>
</g>
<!-- Node7&#45;&gt;Node9 -->
<g id="edge18" class="edge"><title>Node7&#45;&gt;Node9</title>
<path fill="none" stroke="midnightblue" d="M25.7434,-270.243C24.1725,-252.404 23.2613,-224.96 29,-202 30.6388,-195.443 34.1388,-188.693 37.2291,-183.582"/>
<polygon fill="midnightblue" stroke="midnightblue" points="22.2879,-270.853 26.8076,-280.435 29.25,-270.126 22.2879,-270.853"/>
</g>
<!-- Node8 -->
<g id="node14" class="node"><title>Node8</title>
<polygon fill="white" stroke="#bfbfbf" points="144.5,-202.5 144.5,-221.5 221.5,-221.5 221.5,-202.5 144.5,-202.5"/>
<text text-anchor="middle" x="183" y="-209.5" font-family="Helvetica,sans-Serif" font-size="10.00">ITableListener</text>
</g>
<!-- Node8&#45;&gt;Node3 -->
<g id="edge14" class="edge"><title>Node8&#45;&gt;Node3</title>
<path fill="none" stroke="midnightblue" d="M180.954,-192.072C179.344,-177.18 177.174,-157.111 175.948,-145.768"/>
<polygon fill="midnightblue" stroke="midnightblue" points="177.496,-192.655 182.051,-202.221 184.456,-191.902 177.496,-192.655"/>
</g>
<!-- Node9&#45;&gt;Node2 -->
<g id="edge16" class="edge"><title>Node9&#45;&gt;Node2</title>
<path fill="none" stroke="#9a32cd" stroke-dasharray="5,2" d="M50.9735,-155.357C61.1666,-132.801 78.4135,-94.6381 86.1006,-77.6284"/>
<polygon fill="#9a32cd" stroke="#9a32cd" points="47.7751,-153.935 46.8462,-164.489 54.1539,-156.818 47.7751,-153.935"/>
<text text-anchor="middle" x="86" y="-133.5" font-family="Helvetica,sans-Serif" font-size="10.00"> m_button</text>
</g>
</g>
</svg>
