<?xml version="1.0" encoding="UTF-8" standalone="no"?>
<!DOCTYPE svg PUBLIC "-//W3C//DTD SVG 1.1//EN"
 "http://www.w3.org/Graphics/SVG/1.1/DTD/svg11.dtd">
<!-- Generated by graphviz version 2.28.0 (20110507.0327)
 -->
<!-- Title: LiveWindow::LiveWindow Pages: 1 -->
<svg width="588pt" height="268pt"
 viewBox="0.00 0.00 588.00 268.00" xmlns="http://www.w3.org/2000/svg" xmlns:xlink="http://www.w3.org/1999/xlink">
<g id="graph1" class="graph" transform="scale(1 1) rotate(0) translate(4 264)">
<title>LiveWindow::LiveWindow</title>
<polygon fill="white" stroke="white" points="-4,5 -4,-264 585,-264 585,5 -4,5"/>
<!-- Node1 -->
<g id="node1" class="node"><title>Node1</title>
<polygon fill="#bfbfbf" stroke="black" points="0.5,-114.5 0.5,-133.5 125.5,-133.5 125.5,-114.5 0.5,-114.5"/>
<text text-anchor="middle" x="63" y="-121.5" font-family="Helvetica,sans-Serif" font-size="10.00">LiveWindow::LiveWindow</text>
</g>
<!-- Node2 -->
<g id="node3" class="node"><title>Node2</title>
<a xlink:href="class_live_window.html#a329c07efec22a0e0644d70279688aa35" target="_top" xlink:title="LiveWindow::GetInstance">
<polygon fill="white" stroke="black" points="162,-114.5 162,-133.5 288,-133.5 288,-114.5 162,-114.5"/>
<text text-anchor="middle" x="225" y="-121.5" font-family="Helvetica,sans-Serif" font-size="10.00">LiveWindow::GetInstance</text>
</a>
</g>
<!-- Node1&#45;&gt;Node2 -->
<g id="edge2" class="edge"><title>Node1&#45;&gt;Node2</title>
<path fill="none" stroke="midnightblue" d="M135.91,-124C144.541,-124 153.299,-124 161.777,-124"/>
<polygon fill="midnightblue" stroke="midnightblue" points="135.86,-120.5 125.86,-124 135.86,-127.5 135.86,-120.5"/>
</g>
<!-- Node3 -->
<g id="node5" class="node"><title>Node3</title>
<a xlink:href="class_a_d_x_l345___i2_c.html#ace28299f55450a560f959cf72613489a" target="_top" xlink:title="ADXL345_I2C::ADXL345_I2C">
<polygon fill="white" stroke="black" points="330.5,-240.5 330.5,-259.5 471.5,-259.5 471.5,-240.5 330.5,-240.5"/>
<text text-anchor="middle" x="401" y="-247.5" font-family="Helvetica,sans-Serif" font-size="10.00">ADXL345_I2C::ADXL345_I2C</text>
</a>
</g>
<!-- Node2&#45;&gt;Node3 -->
<g id="edge4" class="edge"><title>Node2&#45;&gt;Node3</title>
<path fill="none" stroke="midnightblue" d="M237.659,-142.303C253.989,-166.401 285.977,-208.356 324,-231 330.544,-234.897 337.861,-237.998 345.301,-240.465"/>
<polygon fill="midnightblue" stroke="midnightblue" points="240.435,-140.155 232.006,-133.737 234.593,-144.011 240.435,-140.155"/>
</g>
<!-- Node4 -->
<g id="node7" class="node"><title>Node4</title>
<a xlink:href="class_a_d_x_l345___s_p_i.html#afd6ce38c4905606f32ae96342b2d29ca" target="_top" xlink:title="ADXL345_SPI::ADXL345_SPI">
<polygon fill="white" stroke="black" points="329,-202.5 329,-221.5 473,-221.5 473,-202.5 329,-202.5"/>
<text text-anchor="middle" x="401" y="-209.5" font-family="Helvetica,sans-Serif" font-size="10.00">ADXL345_SPI::ADXL345_SPI</text>
</a>
</g>
<!-- Node2&#45;&gt;Node4 -->
<g id="edge6" class="edge"><title>Node2&#45;&gt;Node4</title>
<path fill="none" stroke="midnightblue" d="M244.777,-140.041C263.653,-155.41 294.155,-178.242 324,-192 333.169,-196.227 343.387,-199.681 353.283,-202.456"/>
<polygon fill="midnightblue" stroke="midnightblue" points="246.898,-137.253 236.966,-133.564 242.43,-142.642 246.898,-137.253"/>
</g>
<!-- Node5 -->
<g id="node9" class="node"><title>Node5</title>
<a xlink:href="class_built_in_accelerometer.html#ac76efde6517e1483e5ea9597e1c605bd" target="_top" xlink:title="BuiltInAccelerometer\l::BuiltInAccelerometer">
<polygon fill="white" stroke="black" points="344.5,-153 344.5,-183 457.5,-183 457.5,-153 344.5,-153"/>
<text text-anchor="start" x="352.5" y="-171" font-family="Helvetica,sans-Serif" font-size="10.00">BuiltInAccelerometer</text>
<text text-anchor="middle" x="401" y="-160" font-family="Helvetica,sans-Serif" font-size="10.00">::BuiltInAccelerometer</text>
</a>
</g>
<!-- Node2&#45;&gt;Node5 -->
<g id="edge8" class="edge"><title>Node2&#45;&gt;Node5</title>
<path fill="none" stroke="midnightblue" d="M273.508,-136.013C295.444,-141.561 321.632,-148.183 344.474,-153.959"/>
<polygon fill="midnightblue" stroke="midnightblue" points="274.308,-132.606 263.755,-133.547 272.592,-139.392 274.308,-132.606"/>
</g>
<!-- Node6 -->
<g id="node11" class="node"><title>Node6</title>
<a xlink:href="class_gear_tooth.html#abc7cf72d7856aaf50b8eff53d461a979" target="_top" xlink:title="GearTooth::GearTooth">
<polygon fill="white" stroke="black" points="344.5,-114.5 344.5,-133.5 457.5,-133.5 457.5,-114.5 344.5,-114.5"/>
<text text-anchor="middle" x="401" y="-121.5" font-family="Helvetica,sans-Serif" font-size="10.00">GearTooth::GearTooth</text>
</a>
</g>
<!-- Node2&#45;&gt;Node6 -->
<g id="edge10" class="edge"><title>Node2&#45;&gt;Node6</title>
<path fill="none" stroke="midnightblue" d="M298.342,-124C313.754,-124 329.798,-124 344.463,-124"/>
<polygon fill="midnightblue" stroke="midnightblue" points="298.327,-120.5 288.327,-124 298.326,-127.5 298.327,-120.5"/>
</g>
<!-- Node7 -->
<g id="node13" class="node"><title>Node7</title>
<a xlink:href="class_gyro.html#ae26b1bacc0c5a4e1f9d85836fcb90736" target="_top" xlink:title="Gyro::InitGyro">
<polygon fill="white" stroke="black" points="362.5,-76.5 362.5,-95.5 439.5,-95.5 439.5,-76.5 362.5,-76.5"/>
<text text-anchor="middle" x="401" y="-83.5" font-family="Helvetica,sans-Serif" font-size="10.00">Gyro::InitGyro</text>
</a>
</g>
<!-- Node2&#45;&gt;Node7 -->
<g id="edge12" class="edge"><title>Node2&#45;&gt;Node7</title>
<path fill="none" stroke="midnightblue" d="M279.882,-112.233C306.6,-106.398 338.216,-99.4929 362.305,-94.2323"/>
<polygon fill="midnightblue" stroke="midnightblue" points="278.93,-108.858 269.908,-114.411 280.424,-115.697 278.93,-108.858"/>
</g>
<!-- Node9 -->
<g id="node17" class="node"><title>Node9</title>
<a xlink:href="class_iterative_robot.html#ab0af04a781b0390981b9f0dd75358515" target="_top" xlink:title="IterativeRobot::StartCompetition">
<polygon fill="white" stroke="black" points="324,-38.5 324,-57.5 478,-57.5 478,-38.5 324,-38.5"/>
<text text-anchor="middle" x="401" y="-45.5" font-family="Helvetica,sans-Serif" font-size="10.00">IterativeRobot::StartCompetition</text>
</a>
</g>
<!-- Node2&#45;&gt;Node9 -->
<g id="edge16" class="edge"><title>Node2&#45;&gt;Node9</title>
<path fill="none" stroke="midnightblue" d="M248.01,-108.763C267.288,-96.025 296.451,-78.1919 324,-67 333.198,-63.2631 343.331,-60.1124 353.116,-57.5175"/>
<polygon fill="midnightblue" stroke="midnightblue" points="245.99,-105.904 239.64,-114.385 249.893,-111.715 245.99,-105.904"/>
</g>
<!-- Node10 -->
<g id="node19" class="node"><title>Node10</title>
<a xlink:href="class_sample_robot.html#aa9c849963713b505a4e032516c028829" target="_top" xlink:title="SampleRobot::StartCompetition">
<polygon fill="white" stroke="black" points="324,-0.5 324,-19.5 478,-19.5 478,-0.5 324,-0.5"/>
<text text-anchor="middle" x="401" y="-7.5" font-family="Helvetica,sans-Serif" font-size="10.00">SampleRobot::StartCompetition</text>
</a>
</g>
<!-- Node2&#45;&gt;Node10 -->
<g id="edge18" class="edge"><title>Node2&#45;&gt;Node10</title>
<path fill="none" stroke="midnightblue" d="M239.408,-106.193C256.613,-84.6242 288.505,-48.734 324,-29 331.013,-25.1008 338.831,-21.9897 346.709,-19.5105"/>
<polygon fill="midnightblue" stroke="midnightblue" points="236.545,-104.173 233.162,-114.213 242.068,-108.474 236.545,-104.173"/>
</g>
<!-- Node8 -->
<g id="node15" class="node"><title>Node8</title>
<a xlink:href="class_gyro.html#a06521f58180be9e342d941643f9b2491" target="_top" xlink:title="Gyro::Gyro">
<polygon fill="white" stroke="black" points="514.5,-76.5 514.5,-95.5 579.5,-95.5 579.5,-76.5 514.5,-76.5"/>
<text text-anchor="middle" x="547" y="-83.5" font-family="Helvetica,sans-Serif" font-size="10.00">Gyro::Gyro</text>
</a>
</g>
<!-- Node7&#45;&gt;Node8 -->
<g id="edge14" class="edge"><title>Node7&#45;&gt;Node8</title>
<path fill="none" stroke="midnightblue" d="M449.934,-86C471.097,-86 495.395,-86 514.259,-86"/>
<polygon fill="midnightblue" stroke="midnightblue" points="449.834,-82.5001 439.834,-86 449.834,-89.5001 449.834,-82.5001"/>
</g>
</g>
</svg>
