<?xml version="1.0" encoding="UTF-8" standalone="no"?>
<!DOCTYPE svg PUBLIC "-//W3C//DTD SVG 1.1//EN"
 "http://www.w3.org/Graphics/SVG/1.1/DTD/svg11.dtd">
<!-- Generated by graphviz version 2.28.0 (20110507.0327)
 -->
<!-- Title: CANJaguar::updatePeriodicStatus Pages: 1 -->
<svg width="760pt" height="332pt"
 viewBox="0.00 0.00 760.00 332.00" xmlns="http://www.w3.org/2000/svg" xmlns:xlink="http://www.w3.org/1999/xlink">
<g id="graph1" class="graph" transform="scale(1 1) rotate(0) translate(4 328)">
<title>CANJaguar::updatePeriodicStatus</title>
<polygon fill="white" stroke="white" points="-4,5 -4,-328 757,-328 757,5 -4,5"/>
<!-- Node1 -->
<g id="node1" class="node"><title>Node1</title>
<polygon fill="#bfbfbf" stroke="black" points="0,-147 0,-177 136,-177 136,-147 0,-147"/>
<text text-anchor="start" x="8" y="-165" font-family="Helvetica,sans-Serif" font-size="10.00">CANJaguar::updatePeriodic</text>
<text text-anchor="middle" x="68" y="-154" font-family="Helvetica,sans-Serif" font-size="10.00">Status</text>
</g>
<!-- Node2 -->
<g id="node3" class="node"><title>Node2</title>
<a xlink:href="class_c_a_n_jaguar.html#af76e1d83af648156e1b134235f1d8a67" target="_top" xlink:title="CANJaguar::GetBusVoltage">
<polygon fill="white" stroke="black" points="182.5,-304.5 182.5,-323.5 319.5,-323.5 319.5,-304.5 182.5,-304.5"/>
<text text-anchor="middle" x="251" y="-311.5" font-family="Helvetica,sans-Serif" font-size="10.00">CANJaguar::GetBusVoltage</text>
</a>
</g>
<!-- Node1&#45;&gt;Node2 -->
<g id="edge2" class="edge"><title>Node1&#45;&gt;Node2</title>
<path fill="none" stroke="midnightblue" d="M81.0222,-186.075C97.3824,-216.286 129.55,-267.467 172,-295 177.964,-298.868 184.647,-301.949 191.526,-304.403"/>
<polygon fill="midnightblue" stroke="midnightblue" points="84.0304,-184.276 76.2729,-177.06 77.8372,-187.539 84.0304,-184.276"/>
</g>
<!-- Node3 -->
<g id="node5" class="node"><title>Node3</title>
<a xlink:href="class_c_a_n_jaguar.html#a646e3e93374bd6a084f1bdbd0ccf4693" target="_top" xlink:title="CANJaguar::GetOutputVoltage">
<polygon fill="white" stroke="black" points="176.5,-266.5 176.5,-285.5 325.5,-285.5 325.5,-266.5 176.5,-266.5"/>
<text text-anchor="middle" x="251" y="-273.5" font-family="Helvetica,sans-Serif" font-size="10.00">CANJaguar::GetOutputVoltage</text>
</a>
</g>
<!-- Node1&#45;&gt;Node3 -->
<g id="edge4" class="edge"><title>Node1&#45;&gt;Node3</title>
<path fill="none" stroke="midnightblue" d="M87.5724,-184.826C106.541,-206.619 137.967,-238.761 172,-257 179.248,-260.884 187.298,-263.988 195.396,-266.463"/>
<polygon fill="midnightblue" stroke="midnightblue" points="90.0815,-182.374 80.9327,-177.031 84.7525,-186.913 90.0815,-182.374"/>
</g>
<!-- Node4 -->
<g id="node7" class="node"><title>Node4</title>
<a xlink:href="class_c_a_n_jaguar.html#abb041b49997e2929ac22ba3d078c5da0" target="_top" xlink:title="CANJaguar::GetOutputCurrent">
<polygon fill="white" stroke="black" points="177,-228.5 177,-247.5 325,-247.5 325,-228.5 177,-228.5"/>
<text text-anchor="middle" x="251" y="-235.5" font-family="Helvetica,sans-Serif" font-size="10.00">CANJaguar::GetOutputCurrent</text>
</a>
</g>
<!-- Node1&#45;&gt;Node4 -->
<g id="edge6" class="edge"><title>Node1&#45;&gt;Node4</title>
<path fill="none" stroke="midnightblue" d="M100.876,-182.549C120.695,-194.578 147.07,-209.268 172,-219 181.478,-222.7 191.893,-225.835 201.94,-228.426"/>
<polygon fill="midnightblue" stroke="midnightblue" points="102.609,-179.506 92.26,-177.237 98.9353,-185.465 102.609,-179.506"/>
</g>
<!-- Node5 -->
<g id="node9" class="node"><title>Node5</title>
<a xlink:href="class_c_a_n_jaguar.html#a22612130552d75e71b80f65f0013b9dc" target="_top" xlink:title="CANJaguar::GetTemperature">
<polygon fill="white" stroke="black" points="180.5,-190.5 180.5,-209.5 321.5,-209.5 321.5,-190.5 180.5,-190.5"/>
<text text-anchor="middle" x="251" y="-197.5" font-family="Helvetica,sans-Serif" font-size="10.00">CANJaguar::GetTemperature</text>
</a>
</g>
<!-- Node1&#45;&gt;Node5 -->
<g id="edge8" class="edge"><title>Node1&#45;&gt;Node5</title>
<path fill="none" stroke="midnightblue" d="M146.157,-178.199C166.107,-182.387 186.941,-186.761 204.667,-190.483"/>
<polygon fill="midnightblue" stroke="midnightblue" points="146.646,-174.725 136.141,-176.096 145.208,-181.576 146.646,-174.725"/>
</g>
<!-- Node10 -->
<g id="node19" class="node"><title>Node10</title>
<a xlink:href="class_c_a_n_jaguar.html#a7b2f80fccf8ca7bb7413c9f25e12f99a" target="_top" xlink:title="CANJaguar::GetPosition">
<polygon fill="white" stroke="black" points="190,-152.5 190,-171.5 312,-171.5 312,-152.5 190,-152.5"/>
<text text-anchor="middle" x="251" y="-159.5" font-family="Helvetica,sans-Serif" font-size="10.00">CANJaguar::GetPosition</text>
</a>
</g>
<!-- Node1&#45;&gt;Node10 -->
<g id="edge18" class="edge"><title>Node1&#45;&gt;Node10</title>
<path fill="none" stroke="midnightblue" d="M146.158,-162C160.766,-162 175.847,-162 189.835,-162"/>
<polygon fill="midnightblue" stroke="midnightblue" points="146.141,-158.5 136.141,-162 146.14,-165.5 146.141,-158.5"/>
</g>
<!-- Node11 -->
<g id="node22" class="node"><title>Node11</title>
<a xlink:href="class_c_a_n_jaguar.html#a135a7e271d877a45183c58df6e6fcafe" target="_top" xlink:title="CANJaguar::GetSpeed">
<polygon fill="white" stroke="black" points="193.5,-114.5 193.5,-133.5 308.5,-133.5 308.5,-114.5 193.5,-114.5"/>
<text text-anchor="middle" x="251" y="-121.5" font-family="Helvetica,sans-Serif" font-size="10.00">CANJaguar::GetSpeed</text>
</a>
</g>
<!-- Node1&#45;&gt;Node11 -->
<g id="edge22" class="edge"><title>Node1&#45;&gt;Node11</title>
<path fill="none" stroke="midnightblue" d="M146.157,-145.801C166.107,-141.613 186.941,-137.239 204.667,-133.517"/>
<polygon fill="midnightblue" stroke="midnightblue" points="145.208,-142.424 136.141,-147.904 146.646,-149.275 145.208,-142.424"/>
</g>
<!-- Node12 -->
<g id="node24" class="node"><title>Node12</title>
<a xlink:href="class_c_a_n_jaguar.html#a43c288c014f5700dd91e714916a52413" target="_top" xlink:title="CANJaguar::GetForwardLimitOK">
<polygon fill="white" stroke="black" points="172.5,-76.5 172.5,-95.5 329.5,-95.5 329.5,-76.5 172.5,-76.5"/>
<text text-anchor="middle" x="251" y="-83.5" font-family="Helvetica,sans-Serif" font-size="10.00">CANJaguar::GetForwardLimitOK</text>
</a>
</g>
<!-- Node1&#45;&gt;Node12 -->
<g id="edge24" class="edge"><title>Node1&#45;&gt;Node12</title>
<path fill="none" stroke="midnightblue" d="M100.876,-141.451C120.695,-129.422 147.07,-114.732 172,-105 181.478,-101.3 191.893,-98.1651 201.94,-95.574"/>
<polygon fill="midnightblue" stroke="midnightblue" points="98.9353,-138.535 92.26,-146.763 102.609,-144.494 98.9353,-138.535"/>
</g>
<!-- Node13 -->
<g id="node26" class="node"><title>Node13</title>
<a xlink:href="class_c_a_n_jaguar.html#a94282dbd5921d645819953279198d52f" target="_top" xlink:title="CANJaguar::GetReverseLimitOK">
<polygon fill="white" stroke="black" points="172.5,-38.5 172.5,-57.5 329.5,-57.5 329.5,-38.5 172.5,-38.5"/>
<text text-anchor="middle" x="251" y="-45.5" font-family="Helvetica,sans-Serif" font-size="10.00">CANJaguar::GetReverseLimitOK</text>
</a>
</g>
<!-- Node1&#45;&gt;Node13 -->
<g id="edge26" class="edge"><title>Node1&#45;&gt;Node13</title>
<path fill="none" stroke="midnightblue" d="M87.5724,-139.174C106.541,-117.381 137.967,-85.239 172,-67 179.248,-63.1156 187.298,-60.0125 195.396,-57.5368"/>
<polygon fill="midnightblue" stroke="midnightblue" points="84.7525,-137.087 80.9327,-146.969 90.0815,-141.626 84.7525,-137.087"/>
</g>
<!-- Node14 -->
<g id="node28" class="node"><title>Node14</title>
<a xlink:href="class_c_a_n_jaguar.html#aa64fd18ae27ff40b16add78ffa38c23d" target="_top" xlink:title="CANJaguar::GetFaults">
<polygon fill="white" stroke="black" points="194,-0.5 194,-19.5 308,-19.5 308,-0.5 194,-0.5"/>
<text text-anchor="middle" x="251" y="-7.5" font-family="Helvetica,sans-Serif" font-size="10.00">CANJaguar::GetFaults</text>
</a>
</g>
<!-- Node1&#45;&gt;Node14 -->
<g id="edge28" class="edge"><title>Node1&#45;&gt;Node14</title>
<path fill="none" stroke="midnightblue" d="M81.0222,-137.925C97.3824,-107.714 129.55,-56.5331 172,-29 178.665,-24.6769 186.229,-21.3371 193.961,-18.7569"/>
<polygon fill="midnightblue" stroke="midnightblue" points="77.8372,-136.461 76.2729,-146.94 84.0304,-139.724 77.8372,-136.461"/>
</g>
<!-- Node6 -->
<g id="node11" class="node"><title>Node6</title>
<a xlink:href="class_c_a_n_jaguar.html#a97fe9cb246f90060495c808e31070650" target="_top" xlink:title="CANJaguar::verify">
<polygon fill="white" stroke="black" points="366.5,-152.5 366.5,-171.5 459.5,-171.5 459.5,-152.5 366.5,-152.5"/>
<text text-anchor="middle" x="413" y="-159.5" font-family="Helvetica,sans-Serif" font-size="10.00">CANJaguar::verify</text>
</a>
</g>
<!-- Node5&#45;&gt;Node6 -->
<g id="edge10" class="edge"><title>Node5&#45;&gt;Node6</title>
<path fill="none" stroke="midnightblue" d="M302.392,-188.032C324.813,-182.707 350.847,-176.524 371.916,-171.52"/>
<polygon fill="midnightblue" stroke="midnightblue" points="301.295,-184.695 292.375,-190.411 302.913,-191.505 301.295,-184.695"/>
</g>
<!-- Node7 -->
<g id="node13" class="node"><title>Node7</title>
<a xlink:href="class_c_a_n_jaguar.html#a3a22b02ece406993619f993b1e09012a" target="_top" xlink:title="CANJaguar::Set">
<polygon fill="white" stroke="black" points="496,-152.5 496,-171.5 582,-171.5 582,-152.5 496,-152.5"/>
<text text-anchor="middle" x="539" y="-159.5" font-family="Helvetica,sans-Serif" font-size="10.00">CANJaguar::Set</text>
</a>
</g>
<!-- Node6&#45;&gt;Node7 -->
<g id="edge12" class="edge"><title>Node6&#45;&gt;Node7</title>
<path fill="none" stroke="midnightblue" d="M469.873,-162C478.533,-162 487.355,-162 495.653,-162"/>
<polygon fill="midnightblue" stroke="midnightblue" points="469.821,-158.5 459.821,-162 469.821,-165.5 469.821,-158.5"/>
</g>
<!-- Node8 -->
<g id="node15" class="node"><title>Node8</title>
<a xlink:href="class_c_a_n_jaguar.html#a2355d55f42083ab82870c79f742620e4" target="_top" xlink:title="CANJaguar::PIDWrite">
<polygon fill="white" stroke="black" points="630,-171.5 630,-190.5 740,-190.5 740,-171.5 630,-171.5"/>
<text text-anchor="middle" x="685" y="-178.5" font-family="Helvetica,sans-Serif" font-size="10.00">CANJaguar::PIDWrite</text>
</a>
</g>
<!-- Node7&#45;&gt;Node8 -->
<g id="edge14" class="edge"><title>Node7&#45;&gt;Node8</title>
<path fill="none" stroke="midnightblue" d="M592.11,-168.876C604.376,-170.494 617.478,-172.223 629.832,-173.853"/>
<polygon fill="midnightblue" stroke="midnightblue" points="592.41,-165.385 582.038,-167.547 591.494,-172.325 592.41,-165.385"/>
</g>
<!-- Node9 -->
<g id="node17" class="node"><title>Node9</title>
<a xlink:href="class_c_a_n_jaguar_test.html#a3c9026e62eb65e2d497bb7bbfaded297" target="_top" xlink:title="CANJaguarTest::SetJaguar">
<polygon fill="white" stroke="black" points="618,-133.5 618,-152.5 752,-152.5 752,-133.5 618,-133.5"/>
<text text-anchor="middle" x="685" y="-140.5" font-family="Helvetica,sans-Serif" font-size="10.00">CANJaguarTest::SetJaguar</text>
</a>
</g>
<!-- Node7&#45;&gt;Node9 -->
<g id="edge16" class="edge"><title>Node7&#45;&gt;Node9</title>
<path fill="none" stroke="midnightblue" d="M592.018,-155.137C600.387,-154.032 609.147,-152.876 617.794,-151.735"/>
<polygon fill="midnightblue" stroke="midnightblue" points="591.494,-151.675 582.038,-156.453 592.41,-158.615 591.494,-151.675"/>
</g>
<!-- Node10&#45;&gt;Node6 -->
<g id="edge20" class="edge"><title>Node10&#45;&gt;Node6</title>
<path fill="none" stroke="midnightblue" d="M322.233,-162C337.11,-162 352.444,-162 366.135,-162"/>
<polygon fill="midnightblue" stroke="midnightblue" points="322.033,-158.5 312.033,-162 322.033,-165.5 322.033,-158.5"/>
</g>
<!-- Node14&#45;&gt;Node6 -->
<g id="edge30" class="edge"><title>Node14&#45;&gt;Node6</title>
<path fill="none" stroke="midnightblue" d="M317.421,-21.7186C321.869,-23.7707 326.118,-26.1776 330,-29 374.978,-61.6995 400.504,-127.315 408.889,-152.161"/>
<polygon fill="midnightblue" stroke="midnightblue" points="318.654,-18.4421 308.069,-17.9853 316.059,-24.9433 318.654,-18.4421"/>
</g>
</g>
</svg>
