<?xml version="1.0" encoding="UTF-8" standalone="no"?>
<!DOCTYPE svg PUBLIC "-//W3C//DTD SVG 1.1//EN"
 "http://www.w3.org/Graphics/SVG/1.1/DTD/svg11.dtd">
<!-- Generated by graphviz version 2.28.0 (20110507.0327)
 -->
<!-- Title: PWM::SetSpeed Pages: 1 -->
<svg width="534pt" height="180pt"
 viewBox="0.00 0.00 534.00 180.00" xmlns="http://www.w3.org/2000/svg" xmlns:xlink="http://www.w3.org/1999/xlink">
<g id="graph1" class="graph" transform="scale(1 1) rotate(0) translate(4 176)">
<title>PWM::SetSpeed</title>
<polygon fill="white" stroke="white" points="-4,5 -4,-176 531,-176 531,5 -4,5"/>
<!-- Node1 -->
<g id="node1" class="node"><title>Node1</title>
<polygon fill="#bfbfbf" stroke="black" points="0,-114.5 0,-133.5 90,-133.5 90,-114.5 0,-114.5"/>
<text text-anchor="middle" x="45" y="-121.5" font-family="Helvetica,sans-Serif" font-size="10.00">PWM::SetSpeed</text>
</g>
<!-- Node2 -->
<g id="node3" class="node"><title>Node2</title>
<a xlink:href="class_p_w_m.html#a77860064d7e686edd5717262cf4069d1" target="_top" xlink:title="PWM::StartLiveWindowMode">
<polygon fill="white" stroke="black" points="126.5,-152.5 126.5,-171.5 269.5,-171.5 269.5,-152.5 126.5,-152.5"/>
<text text-anchor="middle" x="198" y="-159.5" font-family="Helvetica,sans-Serif" font-size="10.00">PWM::StartLiveWindowMode</text>
</a>
</g>
<!-- Node1&#45;&gt;Node2 -->
<g id="edge2" class="edge"><title>Node1&#45;&gt;Node2</title>
<path fill="none" stroke="midnightblue" d="M93.8431,-136.04C114.939,-141.349 139.377,-147.499 159.17,-152.48"/>
<polygon fill="midnightblue" stroke="midnightblue" points="94.6555,-132.635 84.1037,-133.589 92.9471,-139.424 94.6555,-132.635"/>
</g>
<!-- Node3 -->
<g id="node5" class="node"><title>Node3</title>
<a xlink:href="class_p_w_m.html#aee799b354e8d3e51c0f9f84db89463e3" target="_top" xlink:title="PWM::StopLiveWindowMode">
<polygon fill="white" stroke="black" points="126.5,-114.5 126.5,-133.5 269.5,-133.5 269.5,-114.5 126.5,-114.5"/>
<text text-anchor="middle" x="198" y="-121.5" font-family="Helvetica,sans-Serif" font-size="10.00">PWM::StopLiveWindowMode</text>
</a>
</g>
<!-- Node1&#45;&gt;Node3 -->
<g id="edge4" class="edge"><title>Node1&#45;&gt;Node3</title>
<path fill="none" stroke="midnightblue" d="M100.23,-124C108.736,-124 117.634,-124 126.442,-124"/>
<polygon fill="midnightblue" stroke="midnightblue" points="100.081,-120.5 90.0814,-124 100.081,-127.5 100.081,-120.5"/>
</g>
<!-- Node4 -->
<g id="node7" class="node"><title>Node4</title>
<a xlink:href="class_safe_p_w_m.html#af1ed936d88f3ee6446b01c17feb24b78" target="_top" xlink:title="SafePWM::SetSpeed">
<polygon fill="white" stroke="black" points="143,-76.5 143,-95.5 253,-95.5 253,-76.5 143,-76.5"/>
<text text-anchor="middle" x="198" y="-83.5" font-family="Helvetica,sans-Serif" font-size="10.00">SafePWM::SetSpeed</text>
</a>
</g>
<!-- Node1&#45;&gt;Node4 -->
<g id="edge6" class="edge"><title>Node1&#45;&gt;Node4</title>
<path fill="none" stroke="midnightblue" d="M93.8431,-111.96C114.939,-106.651 139.377,-100.501 159.17,-95.5201"/>
<polygon fill="midnightblue" stroke="midnightblue" points="92.9471,-108.576 84.1037,-114.411 94.6555,-115.365 92.9471,-108.576"/>
</g>
<!-- Node5 -->
<g id="node9" class="node"><title>Node5</title>
<a xlink:href="class_jaguar.html#aac394eb2d4f46b29b477a7939cdec2a9" target="_top" xlink:title="Jaguar::Set">
<polygon fill="white" stroke="black" points="313,-152.5 313,-171.5 379,-171.5 379,-152.5 313,-152.5"/>
<text text-anchor="middle" x="346" y="-159.5" font-family="Helvetica,sans-Serif" font-size="10.00">Jaguar::Set</text>
</a>
</g>
<!-- Node4&#45;&gt;Node5 -->
<g id="edge8" class="edge"><title>Node4&#45;&gt;Node5</title>
<path fill="none" stroke="midnightblue" d="M258.46,-99.2021C262.473,-100.91 266.361,-102.834 270,-105 289.991,-116.9 287.241,-129.24 306,-143 310.858,-146.564 316.489,-149.756 321.934,-152.46"/>
<polygon fill="midnightblue" stroke="midnightblue" points="259.524,-95.8624 248.932,-95.5963 257.046,-102.409 259.524,-95.8624"/>
</g>
<!-- Node7 -->
<g id="node13" class="node"><title>Node7</title>
<a xlink:href="class_talon.html#a139bb330021efa545fd6047fa291dbeb" target="_top" xlink:title="Talon::Set">
<polygon fill="white" stroke="black" points="315.5,-114.5 315.5,-133.5 376.5,-133.5 376.5,-114.5 315.5,-114.5"/>
<text text-anchor="middle" x="346" y="-121.5" font-family="Helvetica,sans-Serif" font-size="10.00">Talon::Set</text>
</a>
</g>
<!-- Node4&#45;&gt;Node7 -->
<g id="edge12" class="edge"><title>Node4&#45;&gt;Node7</title>
<path fill="none" stroke="midnightblue" d="M245.644,-98.1401C268.383,-104.059 295.063,-111.003 315.047,-116.204"/>
<polygon fill="midnightblue" stroke="midnightblue" points="246.401,-94.7207 235.842,-95.589 244.638,-101.495 246.401,-94.7207"/>
</g>
<!-- Node9 -->
<g id="node17" class="node"><title>Node9</title>
<a xlink:href="class_talon_s_r_x.html#a9d7dab854708bf4deb2d57da2cbcf9a9" target="_top" xlink:title="TalonSRX::Set">
<polygon fill="white" stroke="black" points="306,-76.5 306,-95.5 386,-95.5 386,-76.5 306,-76.5"/>
<text text-anchor="middle" x="346" y="-83.5" font-family="Helvetica,sans-Serif" font-size="10.00">TalonSRX::Set</text>
</a>
</g>
<!-- Node4&#45;&gt;Node9 -->
<g id="edge16" class="edge"><title>Node4&#45;&gt;Node9</title>
<path fill="none" stroke="midnightblue" d="M263.671,-86C277.974,-86 292.709,-86 305.641,-86"/>
<polygon fill="midnightblue" stroke="midnightblue" points="263.365,-82.5001 253.365,-86 263.365,-89.5001 263.365,-82.5001"/>
</g>
<!-- Node11 -->
<g id="node21" class="node"><title>Node11</title>
<a xlink:href="class_victor.html#aeb1931d5462dcce004ba9bb5079b501a" target="_top" xlink:title="Victor::Set">
<polygon fill="white" stroke="black" points="314.5,-38.5 314.5,-57.5 377.5,-57.5 377.5,-38.5 314.5,-38.5"/>
<text text-anchor="middle" x="346" y="-45.5" font-family="Helvetica,sans-Serif" font-size="10.00">Victor::Set</text>
</a>
</g>
<!-- Node4&#45;&gt;Node11 -->
<g id="edge20" class="edge"><title>Node4&#45;&gt;Node11</title>
<path fill="none" stroke="midnightblue" d="M245.806,-73.8176C268.149,-68.0022 294.267,-61.2044 314.093,-56.0443"/>
<polygon fill="midnightblue" stroke="midnightblue" points="244.638,-70.5049 235.842,-76.411 246.401,-77.2793 244.638,-70.5049"/>
</g>
<!-- Node13 -->
<g id="node25" class="node"><title>Node13</title>
<a xlink:href="class_victor_s_p.html#a5a776c3577f261f2679f77f5212e9d9c" target="_top" xlink:title="VictorSP::Set">
<polygon fill="white" stroke="black" points="307.5,-0.5 307.5,-19.5 384.5,-19.5 384.5,-0.5 307.5,-0.5"/>
<text text-anchor="middle" x="346" y="-7.5" font-family="Helvetica,sans-Serif" font-size="10.00">VictorSP::Set</text>
</a>
</g>
<!-- Node4&#45;&gt;Node13 -->
<g id="edge24" class="edge"><title>Node4&#45;&gt;Node13</title>
<path fill="none" stroke="midnightblue" d="M225.589,-71.4923C247.154,-59.8087 278.394,-43.0717 306,-29 312.173,-25.8532 318.946,-22.5144 325.091,-19.5278"/>
<polygon fill="midnightblue" stroke="midnightblue" points="223.812,-68.4745 216.694,-76.3221 227.152,-74.6262 223.812,-68.4745"/>
</g>
<!-- Node6 -->
<g id="node11" class="node"><title>Node6</title>
<a xlink:href="class_jaguar.html#af03d1c5b19cae7363d9eafdcb9ec354e" target="_top" xlink:title="Jaguar::PIDWrite">
<polygon fill="white" stroke="black" points="429,-152.5 429,-171.5 519,-171.5 519,-152.5 429,-152.5"/>
<text text-anchor="middle" x="474" y="-159.5" font-family="Helvetica,sans-Serif" font-size="10.00">Jaguar::PIDWrite</text>
</a>
</g>
<!-- Node5&#45;&gt;Node6 -->
<g id="edge10" class="edge"><title>Node5&#45;&gt;Node6</title>
<path fill="none" stroke="midnightblue" d="M389.373,-162C401.986,-162 415.839,-162 428.578,-162"/>
<polygon fill="midnightblue" stroke="midnightblue" points="389.121,-158.5 379.121,-162 389.121,-165.5 389.121,-158.5"/>
</g>
<!-- Node8 -->
<g id="node15" class="node"><title>Node8</title>
<a xlink:href="class_talon.html#a8485adbd32b68543d34bb7b2ad4d3ccb" target="_top" xlink:title="Talon::PIDWrite">
<polygon fill="white" stroke="black" points="431.5,-114.5 431.5,-133.5 516.5,-133.5 516.5,-114.5 431.5,-114.5"/>
<text text-anchor="middle" x="474" y="-121.5" font-family="Helvetica,sans-Serif" font-size="10.00">Talon::PIDWrite</text>
</a>
</g>
<!-- Node7&#45;&gt;Node8 -->
<g id="edge14" class="edge"><title>Node7&#45;&gt;Node8</title>
<path fill="none" stroke="midnightblue" d="M386.934,-124C401.056,-124 416.971,-124 431.241,-124"/>
<polygon fill="midnightblue" stroke="midnightblue" points="386.541,-120.5 376.541,-124 386.541,-127.5 386.541,-120.5"/>
</g>
<!-- Node10 -->
<g id="node19" class="node"><title>Node10</title>
<a xlink:href="class_talon_s_r_x.html#acd94bb75b221f4a0c09437731c574869" target="_top" xlink:title="TalonSRX::PIDWrite">
<polygon fill="white" stroke="black" points="422,-76.5 422,-95.5 526,-95.5 526,-76.5 422,-76.5"/>
<text text-anchor="middle" x="474" y="-83.5" font-family="Helvetica,sans-Serif" font-size="10.00">TalonSRX::PIDWrite</text>
</a>
</g>
<!-- Node9&#45;&gt;Node10 -->
<g id="edge18" class="edge"><title>Node9&#45;&gt;Node10</title>
<path fill="none" stroke="midnightblue" d="M396.206,-86C404.603,-86 413.343,-86 421.791,-86"/>
<polygon fill="midnightblue" stroke="midnightblue" points="396.177,-82.5001 386.177,-86 396.176,-89.5001 396.177,-82.5001"/>
</g>
<!-- Node12 -->
<g id="node23" class="node"><title>Node12</title>
<a xlink:href="class_victor.html#a9b0d32b9299b6525d6450ff88c3365a7" target="_top" xlink:title="Victor::PIDWrite">
<polygon fill="white" stroke="black" points="430.5,-38.5 430.5,-57.5 517.5,-57.5 517.5,-38.5 430.5,-38.5"/>
<text text-anchor="middle" x="474" y="-45.5" font-family="Helvetica,sans-Serif" font-size="10.00">Victor::PIDWrite</text>
</a>
</g>
<!-- Node11&#45;&gt;Node12 -->
<g id="edge22" class="edge"><title>Node11&#45;&gt;Node12</title>
<path fill="none" stroke="midnightblue" d="M387.595,-48C401.274,-48 416.573,-48 430.403,-48"/>
<polygon fill="midnightblue" stroke="midnightblue" points="387.501,-44.5001 377.501,-48 387.501,-51.5001 387.501,-44.5001"/>
</g>
<!-- Node14 -->
<g id="node27" class="node"><title>Node14</title>
<a xlink:href="class_victor_s_p.html#a9178b159144029faea02ae32f024ba84" target="_top" xlink:title="VictorSP::PIDWrite">
<polygon fill="white" stroke="black" points="423.5,-0.5 423.5,-19.5 524.5,-19.5 524.5,-0.5 423.5,-0.5"/>
<text text-anchor="middle" x="474" y="-7.5" font-family="Helvetica,sans-Serif" font-size="10.00">VictorSP::PIDWrite</text>
</a>
</g>
<!-- Node13&#45;&gt;Node14 -->
<g id="edge26" class="edge"><title>Node13&#45;&gt;Node14</title>
<path fill="none" stroke="midnightblue" d="M394.959,-10C404.165,-10 413.826,-10 423.091,-10"/>
<polygon fill="midnightblue" stroke="midnightblue" points="394.804,-6.5001 384.804,-10 394.804,-13.5001 394.804,-6.5001"/>
</g>
</g>
</svg>
