<?xml version="1.0" encoding="UTF-8" standalone="no"?>
<!DOCTYPE svg PUBLIC "-//W3C//DTD SVG 1.1//EN"
 "http://www.w3.org/Graphics/SVG/1.1/DTD/svg11.dtd">
<!-- Generated by graphviz version 2.28.0 (20110507.0327)
 -->
<!-- Title: TalonSRX::Get Pages: 1 -->
<svg width="494pt" height="47pt"
 viewBox="0.00 0.00 494.00 47.00" xmlns="http://www.w3.org/2000/svg" xmlns:xlink="http://www.w3.org/1999/xlink">
<g id="graph1" class="graph" transform="scale(1 1) rotate(0) translate(4 43)">
<title>TalonSRX::Get</title>
<polygon fill="white" stroke="white" points="-4,5 -4,-43 491,-43 491,5 -4,5"/>
<!-- Node1 -->
<g id="node1" class="node"><title>Node1</title>
<polygon fill="#bfbfbf" stroke="black" points="0,-19.5 0,-38.5 80,-38.5 80,-19.5 0,-19.5"/>
<text text-anchor="middle" x="40" y="-26.5" font-family="Helvetica,sans-Serif" font-size="10.00">TalonSRX::Get</text>
</g>
<!-- Node2 -->
<g id="node3" class="node"><title>Node2</title>
<a xlink:href="class_p_w_m.html#a42b209cbe7e63732918cbbcb55bfaac7" target="_top" xlink:title="PWM::GetSpeed">
<polygon fill="white" stroke="black" points="116.5,-19.5 116.5,-38.5 207.5,-38.5 207.5,-19.5 116.5,-19.5"/>
<text text-anchor="middle" x="162" y="-26.5" font-family="Helvetica,sans-Serif" font-size="10.00">PWM::GetSpeed</text>
</a>
</g>
<!-- Node1&#45;&gt;Node2 -->
<g id="edge2" class="edge"><title>Node1&#45;&gt;Node2</title>
<path fill="none" stroke="midnightblue" d="M80.2925,-29C88.5462,-29 97.3958,-29 106.101,-29"/>
<polygon fill="midnightblue" stroke="midnightblue" points="106.21,-32.5001 116.21,-29 106.21,-25.5001 106.21,-32.5001"/>
</g>
<!-- Node3 -->
<g id="node5" class="node"><title>Node3</title>
<a xlink:href="class_error_base.html#a05790f219c9e436a09752f73f7344024" target="_top" xlink:title="Check if the current error code represents a fatal error. ">
<polygon fill="white" stroke="black" points="362,-19.5 362,-38.5 486,-38.5 486,-19.5 362,-19.5"/>
<text text-anchor="middle" x="424" y="-26.5" font-family="Helvetica,sans-Serif" font-size="10.00">ErrorBase::StatusIsFatal</text>
</a>
</g>
<!-- Node2&#45;&gt;Node3 -->
<g id="edge4" class="edge"><title>Node2&#45;&gt;Node3</title>
<path fill="none" stroke="midnightblue" d="M207.696,-29C247.245,-29 305.655,-29 351.661,-29"/>
<polygon fill="midnightblue" stroke="midnightblue" points="351.873,-32.5001 361.873,-29 351.873,-25.5001 351.873,-32.5001"/>
</g>
<!-- Node4 -->
<g id="node7" class="node"><title>Node4</title>
<a xlink:href="class_p_w_m.html#afe21d7814cd2c51c0652fbf9f58af958" target="_top" xlink:title="PWM::GetRaw">
<polygon fill="white" stroke="black" points="244,-0.5 244,-19.5 326,-19.5 326,-0.5 244,-0.5"/>
<text text-anchor="middle" x="285" y="-7.5" font-family="Helvetica,sans-Serif" font-size="10.00">PWM::GetRaw</text>
</a>
</g>
<!-- Node2&#45;&gt;Node4 -->
<g id="edge6" class="edge"><title>Node2&#45;&gt;Node4</title>
<path fill="none" stroke="midnightblue" d="M207.712,-21.9791C216.228,-20.6418 225.193,-19.2341 233.865,-17.8724"/>
<polygon fill="midnightblue" stroke="midnightblue" points="234.53,-21.3109 243.866,-16.302 233.444,-14.3957 234.53,-21.3109"/>
</g>
<!-- Node4&#45;&gt;Node3 -->
<g id="edge8" class="edge"><title>Node4&#45;&gt;Node3</title>
<path fill="none" stroke="midnightblue" d="M326.364,-15.5979C334.362,-16.7072 342.981,-17.9025 351.66,-19.1062"/>
<polygon fill="midnightblue" stroke="midnightblue" points="351.458,-22.6115 361.844,-20.5185 352.419,-15.6779 351.458,-22.6115"/>
</g>
</g>
</svg>
