<?xml version="1.0" encoding="UTF-8" standalone="no"?>
<!DOCTYPE svg PUBLIC "-//W3C//DTD SVG 1.1//EN"
 "http://www.w3.org/Graphics/SVG/1.1/DTD/svg11.dtd">
<!-- Generated by graphviz version 2.28.0 (20110507.0327)
 -->
<!-- Title: Encoder::Get Pages: 1 -->
<svg width="480pt" height="85pt"
 viewBox="0.00 0.00 480.00 85.00" xmlns="http://www.w3.org/2000/svg" xmlns:xlink="http://www.w3.org/1999/xlink">
<g id="graph1" class="graph" transform="scale(1 1) rotate(0) translate(4 81)">
<title>Encoder::Get</title>
<polygon fill="white" stroke="white" points="-4,5 -4,-81 477,-81 477,5 -4,5"/>
<!-- Node1 -->
<g id="node1" class="node"><title>Node1</title>
<polygon fill="#bfbfbf" stroke="black" points="0,-57.5 0,-76.5 74,-76.5 74,-57.5 0,-57.5"/>
<text text-anchor="middle" x="37" y="-64.5" font-family="Helvetica,sans-Serif" font-size="10.00">Encoder::Get</text>
</g>
<!-- Node2 -->
<g id="node3" class="node"><title>Node2</title>
<a xlink:href="class_error_base.html#a05790f219c9e436a09752f73f7344024" target="_top" xlink:title="Check if the current error code represents a fatal error. ">
<polygon fill="white" stroke="black" points="348,-38.5 348,-57.5 472,-57.5 472,-38.5 348,-38.5"/>
<text text-anchor="middle" x="410" y="-45.5" font-family="Helvetica,sans-Serif" font-size="10.00">ErrorBase::StatusIsFatal</text>
</a>
</g>
<!-- Node1&#45;&gt;Node2 -->
<g id="edge2" class="edge"><title>Node1&#45;&gt;Node2</title>
<path fill="none" stroke="midnightblue" d="M74.004,-68.0931C126.479,-69.2897 226.982,-70.0841 312,-62 320.956,-61.1484 330.351,-60.0513 339.62,-58.8465"/>
<polygon fill="midnightblue" stroke="midnightblue" points="340.159,-62.3056 349.603,-57.5034 339.226,-55.3681 340.159,-62.3056"/>
</g>
<!-- Node3 -->
<g id="node5" class="node"><title>Node3</title>
<a xlink:href="class_encoder.html#a0fd1cdb3939029d070c0663a96c3ae6d" target="_top" xlink:title="Encoder::GetRaw">
<polygon fill="white" stroke="black" points="110.5,-38.5 110.5,-57.5 203.5,-57.5 203.5,-38.5 110.5,-38.5"/>
<text text-anchor="middle" x="157" y="-45.5" font-family="Helvetica,sans-Serif" font-size="10.00">Encoder::GetRaw</text>
</a>
</g>
<!-- Node1&#45;&gt;Node3 -->
<g id="edge4" class="edge"><title>Node1&#45;&gt;Node3</title>
<path fill="none" stroke="midnightblue" d="M74.0451,-61.1961C82.3181,-59.864 91.3044,-58.4171 100.194,-56.9857"/>
<polygon fill="midnightblue" stroke="midnightblue" points="100.829,-60.4286 110.146,-55.3833 99.7166,-53.5176 100.829,-60.4286"/>
</g>
<!-- Node3&#45;&gt;Node2 -->
<g id="edge6" class="edge"><title>Node3&#45;&gt;Node2</title>
<path fill="none" stroke="midnightblue" d="M203.745,-48C241.184,-48 294.792,-48 337.834,-48"/>
<polygon fill="midnightblue" stroke="midnightblue" points="337.968,-51.5001 347.968,-48 337.968,-44.5001 337.968,-51.5001"/>
</g>
<!-- Node4 -->
<g id="node8" class="node"><title>Node4</title>
<a xlink:href="class_counter.html#a72086dbd17d7baf28bacfb13562af6b6" target="_top" xlink:title="Counter::Get">
<polygon fill="white" stroke="black" points="240,-0.5 240,-19.5 312,-19.5 312,-0.5 240,-0.5"/>
<text text-anchor="middle" x="276" y="-7.5" font-family="Helvetica,sans-Serif" font-size="10.00">Counter::Get</text>
</a>
</g>
<!-- Node3&#45;&gt;Node4 -->
<g id="edge8" class="edge"><title>Node3&#45;&gt;Node4</title>
<path fill="none" stroke="midnightblue" d="M187.524,-38.411C202.212,-33.6406 220.16,-27.8112 235.968,-22.6771"/>
<polygon fill="midnightblue" stroke="midnightblue" points="237.056,-26.0039 245.485,-19.5859 234.893,-19.3462 237.056,-26.0039"/>
</g>
<!-- Node4&#45;&gt;Node2 -->
<g id="edge10" class="edge"><title>Node4&#45;&gt;Node2</title>
<path fill="none" stroke="midnightblue" d="M310.309,-19.589C327.193,-24.4494 347.895,-30.4091 365.971,-35.6127"/>
<polygon fill="midnightblue" stroke="midnightblue" points="365.123,-39.011 375.701,-38.4141 367.06,-32.2842 365.123,-39.011"/>
</g>
</g>
</svg>
