<?xml version="1.0" encoding="UTF-8" standalone="no"?>
<!DOCTYPE svg PUBLIC "-//W3C//DTD SVG 1.1//EN"
 "http://www.w3.org/Graphics/SVG/1.1/DTD/svg11.dtd">
<!-- Generated by graphviz version 2.28.0 (20110507.0327)
 -->
<!-- Title: AnalogPotentiometer::InitTable Pages: 1 -->
<svg width="774pt" height="66pt"
 viewBox="0.00 0.00 774.00 66.00" xmlns="http://www.w3.org/2000/svg" xmlns:xlink="http://www.w3.org/1999/xlink">
<g id="graph1" class="graph" transform="scale(1 1) rotate(0) translate(4 62)">
<title>AnalogPotentiometer::InitTable</title>
<polygon fill="white" stroke="white" points="-4,5 -4,-62 771,-62 771,5 -4,5"/>
<!-- Node1 -->
<g id="node1" class="node"><title>Node1</title>
<polygon fill="#bfbfbf" stroke="black" points="0.5,-14 0.5,-44 107.5,-44 107.5,-14 0.5,-14"/>
<text text-anchor="start" x="8.5" y="-32" font-family="Helvetica,sans-Serif" font-size="10.00">AnalogPotentiometer</text>
<text text-anchor="middle" x="54" y="-21" font-family="Helvetica,sans-Serif" font-size="10.00">::InitTable</text>
</g>
<!-- Node2 -->
<g id="node3" class="node"><title>Node2</title>
<a xlink:href="class_analog_potentiometer.html#a66cead815a94e4d0bbac7637def36ce9" target="_top" xlink:title="AnalogPotentiometer\l::UpdateTable">
<polygon fill="white" stroke="black" points="144.5,-14 144.5,-44 251.5,-44 251.5,-14 144.5,-14"/>
<text text-anchor="start" x="152.5" y="-32" font-family="Helvetica,sans-Serif" font-size="10.00">AnalogPotentiometer</text>
<text text-anchor="middle" x="198" y="-21" font-family="Helvetica,sans-Serif" font-size="10.00">::UpdateTable</text>
</a>
</g>
<!-- Node1&#45;&gt;Node2 -->
<g id="edge2" class="edge"><title>Node1&#45;&gt;Node2</title>
<path fill="none" stroke="midnightblue" d="M107.876,-29C116.377,-29 125.25,-29 133.961,-29"/>
<polygon fill="midnightblue" stroke="midnightblue" points="134.08,-32.5001 144.08,-29 134.08,-25.5001 134.08,-32.5001"/>
</g>
<!-- Node3 -->
<g id="node5" class="node"><title>Node3</title>
<a xlink:href="class_analog_potentiometer.html#a7803d490e15d2aa9811559505828be17" target="_top" xlink:title="AnalogPotentiometer::Get">
<polygon fill="white" stroke="black" points="288.5,-19.5 288.5,-38.5 417.5,-38.5 417.5,-19.5 288.5,-19.5"/>
<text text-anchor="middle" x="353" y="-26.5" font-family="Helvetica,sans-Serif" font-size="10.00">AnalogPotentiometer::Get</text>
</a>
</g>
<!-- Node2&#45;&gt;Node3 -->
<g id="edge4" class="edge"><title>Node2&#45;&gt;Node3</title>
<path fill="none" stroke="midnightblue" d="M251.654,-29C260.258,-29 269.309,-29 278.309,-29"/>
<polygon fill="midnightblue" stroke="midnightblue" points="278.421,-32.5001 288.421,-29 278.421,-25.5001 278.421,-32.5001"/>
</g>
<!-- Node4 -->
<g id="node7" class="node"><title>Node4</title>
<a xlink:href="class_analog_input.html#a1da927d1b5784b66cf99f921bbfbe36b" target="_top" xlink:title="AnalogInput::GetVoltage">
<polygon fill="white" stroke="black" points="469,-38.5 469,-57.5 591,-57.5 591,-38.5 469,-38.5"/>
<text text-anchor="middle" x="530" y="-45.5" font-family="Helvetica,sans-Serif" font-size="10.00">AnalogInput::GetVoltage</text>
</a>
</g>
<!-- Node3&#45;&gt;Node4 -->
<g id="edge6" class="edge"><title>Node3&#45;&gt;Node4</title>
<path fill="none" stroke="midnightblue" d="M417.674,-35.9132C430.991,-37.359 445.105,-38.8914 458.649,-40.3618"/>
<polygon fill="midnightblue" stroke="midnightblue" points="458.552,-43.8719 468.872,-41.4718 459.308,-36.9128 458.552,-43.8719"/>
</g>
<!-- Node6 -->
<g id="node11" class="node"><title>Node6</title>
<a xlink:href="class_controller_power.html#a407d69acf87b0689659160746c75f331" target="_top" xlink:title="ControllerPower::GetVoltage5V">
<polygon fill="white" stroke="black" points="454,-0.5 454,-19.5 606,-19.5 606,-0.5 454,-0.5"/>
<text text-anchor="middle" x="530" y="-7.5" font-family="Helvetica,sans-Serif" font-size="10.00">ControllerPower::GetVoltage5V</text>
</a>
</g>
<!-- Node3&#45;&gt;Node6 -->
<g id="edge10" class="edge"><title>Node3&#45;&gt;Node6</title>
<path fill="none" stroke="midnightblue" d="M417.674,-22.0868C426.103,-21.1717 434.851,-20.2218 443.572,-19.275"/>
<polygon fill="midnightblue" stroke="midnightblue" points="444.213,-22.7261 453.777,-18.1671 443.457,-15.767 444.213,-22.7261"/>
</g>
<!-- Node5 -->
<g id="node9" class="node"><title>Node5</title>
<a xlink:href="class_error_base.html#a05790f219c9e436a09752f73f7344024" target="_top" xlink:title="Check if the current error code represents a fatal error. ">
<polygon fill="white" stroke="black" points="642,-38.5 642,-57.5 766,-57.5 766,-38.5 642,-38.5"/>
<text text-anchor="middle" x="704" y="-45.5" font-family="Helvetica,sans-Serif" font-size="10.00">ErrorBase::StatusIsFatal</text>
</a>
</g>
<!-- Node4&#45;&gt;Node5 -->
<g id="edge8" class="edge"><title>Node4&#45;&gt;Node5</title>
<path fill="none" stroke="midnightblue" d="M591.157,-48C604.204,-48 618.125,-48 631.558,-48"/>
<polygon fill="midnightblue" stroke="midnightblue" points="631.712,-51.5001 641.712,-48 631.712,-44.5001 631.712,-51.5001"/>
</g>
</g>
</svg>
