<?xml version="1.0" encoding="UTF-8" standalone="no"?>
<!DOCTYPE svg PUBLIC "-//W3C//DTD SVG 1.1//EN"
 "http://www.w3.org/Graphics/SVG/1.1/DTD/svg11.dtd">
<!-- Generated by graphviz version 2.28.0 (20110507.0327)
 -->
<!-- Title: I2C::VerifySensor Pages: 1 -->
<svg width="320pt" height="28pt"
 viewBox="0.00 0.00 320.00 28.00" xmlns="http://www.w3.org/2000/svg" xmlns:xlink="http://www.w3.org/1999/xlink">
<g id="graph1" class="graph" transform="scale(1 1) rotate(0) translate(4 24)">
<title>I2C::VerifySensor</title>
<polygon fill="white" stroke="white" points="-4,5 -4,-24 317,-24 317,5 -4,5"/>
<!-- Node1 -->
<g id="node1" class="node"><title>Node1</title>
<polygon fill="#bfbfbf" stroke="black" points="0,-0.5 0,-19.5 92,-19.5 92,-0.5 0,-0.5"/>
<text text-anchor="middle" x="46" y="-7.5" font-family="Helvetica,sans-Serif" font-size="10.00">I2C::VerifySensor</text>
</g>
<!-- Node2 -->
<g id="node3" class="node"><title>Node2</title>
<a xlink:href="class_i2_c.html#a4115857de2e0675f0483787933be0552" target="_top" xlink:title="I2C::Read">
<polygon fill="white" stroke="black" points="128.5,-0.5 128.5,-19.5 187.5,-19.5 187.5,-0.5 128.5,-0.5"/>
<text text-anchor="middle" x="158" y="-7.5" font-family="Helvetica,sans-Serif" font-size="10.00">I2C::Read</text>
</a>
</g>
<!-- Node1&#45;&gt;Node2 -->
<g id="edge2" class="edge"><title>Node1&#45;&gt;Node2</title>
<path fill="none" stroke="midnightblue" d="M92.0586,-10C100.652,-10 109.581,-10 117.968,-10"/>
<polygon fill="midnightblue" stroke="midnightblue" points="118.235,-13.5001 128.235,-10 118.235,-6.5001 118.235,-13.5001"/>
</g>
<!-- Node3 -->
<g id="node5" class="node"><title>Node3</title>
<a xlink:href="class_i2_c.html#aefe3a40857733f5ec164dbe1fb82b299" target="_top" xlink:title="I2C::Transaction">
<polygon fill="white" stroke="black" points="224.5,-0.5 224.5,-19.5 311.5,-19.5 311.5,-0.5 224.5,-0.5"/>
<text text-anchor="middle" x="268" y="-7.5" font-family="Helvetica,sans-Serif" font-size="10.00">I2C::Transaction</text>
</a>
</g>
<!-- Node2&#45;&gt;Node3 -->
<g id="edge4" class="edge"><title>Node2&#45;&gt;Node3</title>
<path fill="none" stroke="midnightblue" d="M187.658,-10C195.831,-10 205.005,-10 214.136,-10"/>
<polygon fill="midnightblue" stroke="midnightblue" points="214.371,-13.5001 224.371,-10 214.371,-6.5001 214.371,-13.5001"/>
</g>
</g>
</svg>
