<?xml version="1.0" encoding="UTF-8" standalone="no"?>
<!DOCTYPE svg PUBLIC "-//W3C//DTD SVG 1.1//EN"
 "http://www.w3.org/Graphics/SVG/1.1/DTD/svg11.dtd">
<!-- Generated by graphviz version 2.28.0 (20110507.0327)
 -->
<!-- Title: Gyro::SetDeadband Pages: 1 -->
<svg width="326pt" height="28pt"
 viewBox="0.00 0.00 326.00 28.00" xmlns="http://www.w3.org/2000/svg" xmlns:xlink="http://www.w3.org/1999/xlink">
<g id="graph1" class="graph" transform="scale(1 1) rotate(0) translate(4 24)">
<title>Gyro::SetDeadband</title>
<polygon fill="white" stroke="white" points="-4,5 -4,-24 323,-24 323,5 -4,5"/>
<!-- Node1 -->
<g id="node1" class="node"><title>Node1</title>
<polygon fill="#bfbfbf" stroke="black" points="0,-0.5 0,-19.5 102,-19.5 102,-0.5 0,-0.5"/>
<text text-anchor="middle" x="51" y="-7.5" font-family="Helvetica,sans-Serif" font-size="10.00">Gyro::SetDeadband</text>
</g>
<!-- Node2 -->
<g id="node3" class="node"><title>Node2</title>
<a xlink:href="class_gyro.html#ae26b1bacc0c5a4e1f9d85836fcb90736" target="_top" xlink:title="Gyro::InitGyro">
<polygon fill="white" stroke="black" points="138.5,-0.5 138.5,-19.5 215.5,-19.5 215.5,-0.5 138.5,-0.5"/>
<text text-anchor="middle" x="177" y="-7.5" font-family="Helvetica,sans-Serif" font-size="10.00">Gyro::InitGyro</text>
</a>
</g>
<!-- Node1&#45;&gt;Node2 -->
<g id="edge2" class="edge"><title>Node1&#45;&gt;Node2</title>
<path fill="none" stroke="midnightblue" d="M112.105,-10C121.04,-10 130.028,-10 138.325,-10"/>
<polygon fill="midnightblue" stroke="midnightblue" points="112.078,-6.5001 102.078,-10 112.078,-13.5001 112.078,-6.5001"/>
</g>
<!-- Node3 -->
<g id="node5" class="node"><title>Node3</title>
<a xlink:href="class_gyro.html#a06521f58180be9e342d941643f9b2491" target="_top" xlink:title="Gyro::Gyro">
<polygon fill="white" stroke="black" points="252.5,-0.5 252.5,-19.5 317.5,-19.5 317.5,-0.5 252.5,-0.5"/>
<text text-anchor="middle" x="285" y="-7.5" font-family="Helvetica,sans-Serif" font-size="10.00">Gyro::Gyro</text>
</a>
</g>
<!-- Node2&#45;&gt;Node3 -->
<g id="edge4" class="edge"><title>Node2&#45;&gt;Node3</title>
<path fill="none" stroke="midnightblue" d="M225.732,-10C234.772,-10 244.018,-10 252.405,-10"/>
<polygon fill="midnightblue" stroke="midnightblue" points="225.67,-6.5001 215.67,-10 225.67,-13.5001 225.67,-6.5001"/>
</g>
</g>
</svg>
