<?xml version="1.0" encoding="UTF-8" standalone="no"?>
<!DOCTYPE svg PUBLIC "-//W3C//DTD SVG 1.1//EN"
 "http://www.w3.org/Graphics/SVG/1.1/DTD/svg11.dtd">
<!-- Generated by graphviz version 2.28.0 (20110507.0327)
 -->
<!-- Title: DriverStation::IsEnabled Pages: 1 -->
<svg width="468pt" height="28pt"
 viewBox="0.00 0.00 468.00 28.00" xmlns="http://www.w3.org/2000/svg" xmlns:xlink="http://www.w3.org/1999/xlink">
<g id="graph1" class="graph" transform="scale(1 1) rotate(0) translate(4 24)">
<title>DriverStation::IsEnabled</title>
<polygon fill="white" stroke="white" points="-4,5 -4,-24 465,-24 465,5 -4,5"/>
<!-- Node1 -->
<g id="node1" class="node"><title>Node1</title>
<polygon fill="#bfbfbf" stroke="black" points="0,-0.5 0,-19.5 120,-19.5 120,-0.5 0,-0.5"/>
<text text-anchor="middle" x="60" y="-7.5" font-family="Helvetica,sans-Serif" font-size="10.00">DriverStation::IsEnabled</text>
</g>
<!-- Node2 -->
<g id="node3" class="node"><title>Node2</title>
<a xlink:href="class_robot_base.html#a597e7b256dd4a950ff25e1823df5f2ae" target="_top" xlink:title="RobotBase::IsEnabled">
<polygon fill="white" stroke="black" points="156.5,-0.5 156.5,-19.5 269.5,-19.5 269.5,-0.5 156.5,-0.5"/>
<text text-anchor="middle" x="213" y="-7.5" font-family="Helvetica,sans-Serif" font-size="10.00">RobotBase::IsEnabled</text>
</a>
</g>
<!-- Node1&#45;&gt;Node2 -->
<g id="edge2" class="edge"><title>Node1&#45;&gt;Node2</title>
<path fill="none" stroke="midnightblue" d="M130.391,-10C139.099,-10 147.917,-10 156.376,-10"/>
<polygon fill="midnightblue" stroke="midnightblue" points="130.246,-6.5001 120.246,-10 130.246,-13.5001 130.246,-6.5001"/>
</g>
<!-- Node3 -->
<g id="node5" class="node"><title>Node3</title>
<a xlink:href="class_sample_robot.html#aa9c849963713b505a4e032516c028829" target="_top" xlink:title="SampleRobot::StartCompetition">
<polygon fill="white" stroke="black" points="306,-0.5 306,-19.5 460,-19.5 460,-0.5 306,-0.5"/>
<text text-anchor="middle" x="383" y="-7.5" font-family="Helvetica,sans-Serif" font-size="10.00">SampleRobot::StartCompetition</text>
</a>
</g>
<!-- Node2&#45;&gt;Node3 -->
<g id="edge4" class="edge"><title>Node2&#45;&gt;Node3</title>
<path fill="none" stroke="midnightblue" d="M280.133,-10C288.612,-10 297.346,-10 305.966,-10"/>
<polygon fill="midnightblue" stroke="midnightblue" points="279.942,-6.5001 269.942,-10 279.942,-13.5001 279.942,-6.5001"/>
</g>
</g>
</svg>
