<?xml version="1.0" encoding="UTF-8" standalone="no"?>
<!DOCTYPE svg PUBLIC "-//W3C//DTD SVG 1.1//EN"
 "http://www.w3.org/Graphics/SVG/1.1/DTD/svg11.dtd">
<!-- Generated by graphviz version 2.28.0 (20110507.0327)
 -->
<!-- Title: Victor::Set Pages: 1 -->
<svg width="714pt" height="85pt"
 viewBox="0.00 0.00 714.00 85.00" xmlns="http://www.w3.org/2000/svg" xmlns:xlink="http://www.w3.org/1999/xlink">
<g id="graph1" class="graph" transform="scale(1 1) rotate(0) translate(4 81)">
<title>Victor::Set</title>
<polygon fill="white" stroke="white" points="-4,5 -4,-81 711,-81 711,5 -4,5"/>
<!-- Node1 -->
<g id="node1" class="node"><title>Node1</title>
<polygon fill="#bfbfbf" stroke="black" points="0.5,-19.5 0.5,-38.5 63.5,-38.5 63.5,-19.5 0.5,-19.5"/>
<text text-anchor="middle" x="32" y="-26.5" font-family="Helvetica,sans-Serif" font-size="10.00">Victor::Set</text>
</g>
<!-- Node2 -->
<g id="node3" class="node"><title>Node2</title>
<a xlink:href="class_safe_p_w_m.html#af1ed936d88f3ee6446b01c17feb24b78" target="_top" xlink:title="SafePWM::SetSpeed">
<polygon fill="white" stroke="black" points="100,-19.5 100,-38.5 210,-38.5 210,-19.5 100,-19.5"/>
<text text-anchor="middle" x="155" y="-26.5" font-family="Helvetica,sans-Serif" font-size="10.00">SafePWM::SetSpeed</text>
</a>
</g>
<!-- Node1&#45;&gt;Node2 -->
<g id="edge2" class="edge"><title>Node1&#45;&gt;Node2</title>
<path fill="none" stroke="midnightblue" d="M63.5334,-29C71.5704,-29 80.5512,-29 89.6487,-29"/>
<polygon fill="midnightblue" stroke="midnightblue" points="89.9255,-32.5001 99.9255,-29 89.9254,-25.5001 89.9255,-32.5001"/>
</g>
<!-- Node3 -->
<g id="node5" class="node"><title>Node3</title>
<a xlink:href="class_p_w_m.html#a947e5f6073da9e4d1b60db0c7791ca9c" target="_top" xlink:title="PWM::SetSpeed">
<polygon fill="white" stroke="black" points="264,-38.5 264,-57.5 354,-57.5 354,-38.5 264,-38.5"/>
<text text-anchor="middle" x="309" y="-45.5" font-family="Helvetica,sans-Serif" font-size="10.00">PWM::SetSpeed</text>
</a>
</g>
<!-- Node2&#45;&gt;Node3 -->
<g id="edge4" class="edge"><title>Node2&#45;&gt;Node3</title>
<path fill="none" stroke="midnightblue" d="M210.017,-35.7522C224.162,-37.5203 239.419,-39.4273 253.584,-41.198"/>
<polygon fill="midnightblue" stroke="midnightblue" points="253.318,-44.6919 263.675,-42.4593 254.186,-37.7459 253.318,-44.6919"/>
</g>
<!-- Node6 -->
<g id="node12" class="node"><title>Node6</title>
<a xlink:href="class_motor_safety_helper.html#a67b80e9817dc725e0678de5e8f0bb39e" target="_top" xlink:title="MotorSafetyHelper::Feed">
<polygon fill="white" stroke="black" points="246.5,-0.5 246.5,-19.5 371.5,-19.5 371.5,-0.5 246.5,-0.5"/>
<text text-anchor="middle" x="309" y="-7.5" font-family="Helvetica,sans-Serif" font-size="10.00">MotorSafetyHelper::Feed</text>
</a>
</g>
<!-- Node2&#45;&gt;Node6 -->
<g id="edge12" class="edge"><title>Node2&#45;&gt;Node6</title>
<path fill="none" stroke="midnightblue" d="M210.017,-22.2478C218.573,-21.1783 227.536,-20.0581 236.417,-18.9478"/>
<polygon fill="midnightblue" stroke="midnightblue" points="236.896,-22.4153 246.385,-17.7019 236.028,-15.4694 236.896,-22.4153"/>
</g>
<!-- Node4 -->
<g id="node7" class="node"><title>Node4</title>
<a xlink:href="class_error_base.html#a05790f219c9e436a09752f73f7344024" target="_top" xlink:title="Check if the current error code represents a fatal error. ">
<polygon fill="white" stroke="black" points="582,-57.5 582,-76.5 706,-76.5 706,-57.5 582,-57.5"/>
<text text-anchor="middle" x="644" y="-64.5" font-family="Helvetica,sans-Serif" font-size="10.00">ErrorBase::StatusIsFatal</text>
</a>
</g>
<!-- Node3&#45;&gt;Node4 -->
<g id="edge6" class="edge"><title>Node3&#45;&gt;Node4</title>
<path fill="none" stroke="midnightblue" d="M349.799,-57.5105C367.506,-61.2756 388.679,-65.1443 408,-67 462.862,-72.2692 525.26,-71.9774 571.965,-70.5263"/>
<polygon fill="midnightblue" stroke="midnightblue" points="572.107,-74.0236 581.983,-70.1899 571.872,-67.0276 572.107,-74.0236"/>
</g>
<!-- Node5 -->
<g id="node9" class="node"><title>Node5</title>
<a xlink:href="class_p_w_m.html#a0c546e1aa7d5d091447a819e50fae9ca" target="_top" xlink:title="PWM::SetRaw">
<polygon fill="white" stroke="black" points="436.5,-38.5 436.5,-57.5 517.5,-57.5 517.5,-38.5 436.5,-38.5"/>
<text text-anchor="middle" x="477" y="-45.5" font-family="Helvetica,sans-Serif" font-size="10.00">PWM::SetRaw</text>
</a>
</g>
<!-- Node3&#45;&gt;Node5 -->
<g id="edge8" class="edge"><title>Node3&#45;&gt;Node5</title>
<path fill="none" stroke="midnightblue" d="M354.049,-48C376.205,-48 403.151,-48 426.073,-48"/>
<polygon fill="midnightblue" stroke="midnightblue" points="426.29,-51.5001 436.29,-48 426.29,-44.5001 426.29,-51.5001"/>
</g>
<!-- Node5&#45;&gt;Node4 -->
<g id="edge10" class="edge"><title>Node5&#45;&gt;Node4</title>
<path fill="none" stroke="midnightblue" d="M517.522,-52.551C533.846,-54.4308 553.286,-56.6693 571.931,-58.8163"/>
<polygon fill="midnightblue" stroke="midnightblue" points="571.55,-62.2954 581.884,-59.9624 572.35,-55.3414 571.55,-62.2954"/>
</g>
<!-- Node7 -->
<g id="node14" class="node"><title>Node7</title>
<a xlink:href="class_timer.html#a7fa6e6dffec055e5104ccd6bcadec9aa" target="_top" xlink:title="Timer::GetFPGATimestamp">
<polygon fill="white" stroke="black" points="408.5,-0.5 408.5,-19.5 545.5,-19.5 545.5,-0.5 408.5,-0.5"/>
<text text-anchor="middle" x="477" y="-7.5" font-family="Helvetica,sans-Serif" font-size="10.00">Timer::GetFPGATimestamp</text>
</a>
</g>
<!-- Node6&#45;&gt;Node7 -->
<g id="edge14" class="edge"><title>Node6&#45;&gt;Node7</title>
<path fill="none" stroke="midnightblue" d="M371.812,-10C380.359,-10 389.227,-10 398.02,-10"/>
<polygon fill="midnightblue" stroke="midnightblue" points="398.283,-13.5001 408.283,-10 398.283,-6.5001 398.283,-13.5001"/>
</g>
<!-- Node8 -->
<g id="node16" class="node"><title>Node8</title>
<a xlink:href="_utility_8h.html#ababf055d95368485d48bd9a0231853f3" target="_top" xlink:title="GetFPGATime">
<polygon fill="white" stroke="black" points="604,-0.5 604,-19.5 684,-19.5 684,-0.5 604,-0.5"/>
<text text-anchor="middle" x="644" y="-7.5" font-family="Helvetica,sans-Serif" font-size="10.00">GetFPGATime</text>
</a>
</g>
<!-- Node7&#45;&gt;Node8 -->
<g id="edge16" class="edge"><title>Node7&#45;&gt;Node8</title>
<path fill="none" stroke="midnightblue" d="M545.588,-10C561.641,-10 578.473,-10 593.543,-10"/>
<polygon fill="midnightblue" stroke="midnightblue" points="593.664,-13.5001 603.663,-10 593.663,-6.5001 593.664,-13.5001"/>
</g>
</g>
</svg>
