<?xml version="1.0" encoding="UTF-8" standalone="no"?>
<!DOCTYPE svg PUBLIC "-//W3C//DTD SVG 1.1//EN"
 "http://www.w3.org/Graphics/SVG/1.1/DTD/svg11.dtd">
<!-- Generated by graphviz version 2.28.0 (20110507.0327)
 -->
<!-- Title: CANJaguar::SetCurrentMode Pages: 1 -->
<svg width="714pt" height="256pt"
 viewBox="0.00 0.00 714.00 256.00" xmlns="http://www.w3.org/2000/svg" xmlns:xlink="http://www.w3.org/1999/xlink">
<g id="graph1" class="graph" transform="scale(1 1) rotate(0) translate(4 252)">
<title>CANJaguar::SetCurrentMode</title>
<polygon fill="white" stroke="white" points="-4,5 -4,-252 711,-252 711,5 -4,5"/>
<!-- Node1 -->
<g id="node1" class="node"><title>Node1</title>
<polygon fill="#bfbfbf" stroke="black" points="0,-152.5 0,-171.5 142,-171.5 142,-152.5 0,-152.5"/>
<text text-anchor="middle" x="71" y="-159.5" font-family="Helvetica,sans-Serif" font-size="10.00">CANJaguar::SetCurrentMode</text>
</g>
<!-- Node2 -->
<g id="node3" class="node"><title>Node2</title>
<a xlink:href="class_c_a_n_jaguar.html#ad359943907bf802075474a3753f7fb02" target="_top" xlink:title="CANJaguar::SetControlMode">
<polygon fill="white" stroke="black" points="186.5,-228.5 186.5,-247.5 327.5,-247.5 327.5,-228.5 186.5,-228.5"/>
<text text-anchor="middle" x="257" y="-235.5" font-family="Helvetica,sans-Serif" font-size="10.00">CANJaguar::SetControlMode</text>
</a>
</g>
<!-- Node1&#45;&gt;Node2 -->
<g id="edge2" class="edge"><title>Node1&#45;&gt;Node2</title>
<path fill="none" stroke="midnightblue" d="M89.2476,-171.513C109.915,-182.664 145.795,-201.238 178,-214 188.488,-218.156 199.998,-222.049 210.879,-225.439"/>
<polygon fill="midnightblue" stroke="midnightblue" points="210.062,-228.849 220.648,-228.406 212.096,-222.151 210.062,-228.849"/>
</g>
<!-- Node5 -->
<g id="node9" class="node"><title>Node5</title>
<a xlink:href="class_c_a_n_jaguar.html#a4ea009bbaaa337eeb10efba61203ee38" target="_top" xlink:title="CANJaguar::SetPositionReference">
<polygon fill="white" stroke="black" points="372.5,-190.5 372.5,-209.5 537.5,-209.5 537.5,-190.5 372.5,-190.5"/>
<text text-anchor="middle" x="455" y="-197.5" font-family="Helvetica,sans-Serif" font-size="10.00">CANJaguar::SetPositionReference</text>
</a>
</g>
<!-- Node1&#45;&gt;Node5 -->
<g id="edge8" class="edge"><title>Node1&#45;&gt;Node5</title>
<path fill="none" stroke="midnightblue" d="M118.797,-171.518C137.185,-174.961 158.518,-178.591 178,-181 239.126,-188.56 308.267,-193.313 362.057,-196.175"/>
<polygon fill="midnightblue" stroke="midnightblue" points="362.091,-199.681 372.259,-196.705 362.454,-192.691 362.091,-199.681"/>
</g>
<!-- Node6 -->
<g id="node12" class="node"><title>Node6</title>
<a xlink:href="class_c_a_n_jaguar.html#ac6780a940570ec0386d234b309fb260d" target="_top" xlink:title="CANJaguar::SetSpeedReference">
<polygon fill="white" stroke="black" points="178,-152.5 178,-171.5 336,-171.5 336,-152.5 178,-152.5"/>
<text text-anchor="middle" x="257" y="-159.5" font-family="Helvetica,sans-Serif" font-size="10.00">CANJaguar::SetSpeedReference</text>
</a>
</g>
<!-- Node1&#45;&gt;Node6 -->
<g id="edge12" class="edge"><title>Node1&#45;&gt;Node6</title>
<path fill="none" stroke="midnightblue" d="M142.087,-162C150.482,-162 159.135,-162 167.744,-162"/>
<polygon fill="midnightblue" stroke="midnightblue" points="167.812,-165.5 177.812,-162 167.812,-158.5 167.812,-165.5"/>
</g>
<!-- Node7 -->
<g id="node15" class="node"><title>Node7</title>
<a xlink:href="class_c_a_n_jaguar.html#a24bce09f963f2f7f0c38000197551e2d" target="_top" xlink:title="CANJaguar::ConfigEncoder\lCodesPerRev">
<polygon fill="white" stroke="black" points="190,-103 190,-133 324,-133 324,-103 190,-103"/>
<text text-anchor="start" x="198" y="-121" font-family="Helvetica,sans-Serif" font-size="10.00">CANJaguar::ConfigEncoder</text>
<text text-anchor="middle" x="257" y="-110" font-family="Helvetica,sans-Serif" font-size="10.00">CodesPerRev</text>
</a>
</g>
<!-- Node1&#45;&gt;Node7 -->
<g id="edge16" class="edge"><title>Node1&#45;&gt;Node7</title>
<path fill="none" stroke="midnightblue" d="M111.925,-152.453C132.734,-147.477 158.842,-141.233 183.098,-135.433"/>
<polygon fill="midnightblue" stroke="midnightblue" points="184.088,-138.795 192.999,-133.065 182.46,-131.987 184.088,-138.795"/>
</g>
<!-- Node8 -->
<g id="node18" class="node"><title>Node8</title>
<a xlink:href="class_c_a_n_jaguar.html#a27a017dfbfbb580251b4dd342ccbfd6d" target="_top" xlink:title="CANJaguar::SetPID">
<polygon fill="white" stroke="black" points="206,-51.5 206,-70.5 308,-70.5 308,-51.5 206,-51.5"/>
<text text-anchor="middle" x="257" y="-58.5" font-family="Helvetica,sans-Serif" font-size="10.00">CANJaguar::SetPID</text>
</a>
</g>
<!-- Node1&#45;&gt;Node8 -->
<g id="edge20" class="edge"><title>Node1&#45;&gt;Node8</title>
<path fill="none" stroke="midnightblue" d="M84.901,-152.458C104.39,-138.312 142.805,-111.465 178,-93 191.246,-86.0504 206.346,-79.5499 219.71,-74.2473"/>
<polygon fill="midnightblue" stroke="midnightblue" points="221.027,-77.4906 229.082,-70.6086 218.494,-70.9651 221.027,-77.4906"/>
</g>
<!-- Node3 -->
<g id="node5" class="node"><title>Node3</title>
<a xlink:href="class_c_a_n_jaguar.html#a6bbbf784a74cf95f7b4a5660a3d53cc2" target="_top" xlink:title="CANJaguar::DisableControl">
<polygon fill="white" stroke="black" points="388,-228.5 388,-247.5 522,-247.5 522,-228.5 388,-228.5"/>
<text text-anchor="middle" x="455" y="-235.5" font-family="Helvetica,sans-Serif" font-size="10.00">CANJaguar::DisableControl</text>
</a>
</g>
<!-- Node2&#45;&gt;Node3 -->
<g id="edge4" class="edge"><title>Node2&#45;&gt;Node3</title>
<path fill="none" stroke="midnightblue" d="M327.654,-238C343.873,-238 361.226,-238 377.715,-238"/>
<polygon fill="midnightblue" stroke="midnightblue" points="377.853,-241.5 387.853,-238 377.853,-234.5 377.853,-241.5"/>
</g>
<!-- Node4 -->
<g id="node7" class="node"><title>Node4</title>
<a xlink:href="class_c_a_n_jaguar.html#a6b82b54cc4033c3c5218ab04fb6c8282" target="_top" xlink:title="CANJaguar::sendMessage">
<polygon fill="white" stroke="black" points="574,-114.5 574,-133.5 706,-133.5 706,-114.5 574,-114.5"/>
<text text-anchor="middle" x="640" y="-121.5" font-family="Helvetica,sans-Serif" font-size="10.00">CANJaguar::sendMessage</text>
</a>
</g>
<!-- Node3&#45;&gt;Node4 -->
<g id="edge6" class="edge"><title>Node3&#45;&gt;Node4</title>
<path fill="none" stroke="midnightblue" d="M514.733,-228.398C522.802,-225.941 530.784,-222.86 538,-219 574.565,-199.438 607.654,-163.186 625.388,-141.564"/>
<polygon fill="midnightblue" stroke="midnightblue" points="628.293,-143.535 631.812,-133.542 622.829,-139.159 628.293,-143.535"/>
</g>
<!-- Node5&#45;&gt;Node4 -->
<g id="edge10" class="edge"><title>Node5&#45;&gt;Node4</title>
<path fill="none" stroke="midnightblue" d="M494.067,-190.488C508.078,-186.564 523.95,-181.613 538,-176 564.72,-165.325 593.788,-149.928 613.849,-138.659"/>
<polygon fill="midnightblue" stroke="midnightblue" points="615.695,-141.636 622.658,-133.65 612.235,-135.551 615.695,-141.636"/>
</g>
<!-- Node6&#45;&gt;Node4 -->
<g id="edge14" class="edge"><title>Node6&#45;&gt;Node4</title>
<path fill="none" stroke="midnightblue" d="M336.203,-155.28C392.387,-150.319 469.91,-143.205 538,-136 546.33,-135.119 555.041,-134.152 563.706,-133.161"/>
<polygon fill="midnightblue" stroke="midnightblue" points="564.298,-136.616 573.83,-131.992 563.495,-129.663 564.298,-136.616"/>
</g>
<!-- Node7&#45;&gt;Node4 -->
<g id="edge18" class="edge"><title>Node7&#45;&gt;Node4</title>
<path fill="none" stroke="midnightblue" d="M324.365,-119.045C391.119,-120.096 493.891,-121.715 563.667,-122.814"/>
<polygon fill="midnightblue" stroke="midnightblue" points="563.66,-126.314 573.714,-122.972 563.77,-119.315 563.66,-126.314"/>
</g>
<!-- Node9 -->
<g id="node20" class="node"><title>Node9</title>
<a xlink:href="class_c_a_n_jaguar.html#a22a1787a38fd35abc2cdf15bb7d81da5" target="_top" xlink:title="CANJaguar::SetP">
<polygon fill="white" stroke="black" points="408.5,-76.5 408.5,-95.5 501.5,-95.5 501.5,-76.5 408.5,-76.5"/>
<text text-anchor="middle" x="455" y="-83.5" font-family="Helvetica,sans-Serif" font-size="10.00">CANJaguar::SetP</text>
</a>
</g>
<!-- Node8&#45;&gt;Node9 -->
<g id="edge22" class="edge"><title>Node8&#45;&gt;Node9</title>
<path fill="none" stroke="midnightblue" d="M308.22,-67.4057C335.697,-70.9103 369.808,-75.2612 398.124,-78.8729"/>
<polygon fill="midnightblue" stroke="midnightblue" points="397.908,-82.3737 408.271,-80.1672 398.794,-75.43 397.908,-82.3737"/>
</g>
<!-- Node10 -->
<g id="node23" class="node"><title>Node10</title>
<a xlink:href="class_c_a_n_jaguar.html#a99abdf41fc6ce39d51f0c9d2fbbcfcb0" target="_top" xlink:title="CANJaguar::SetI">
<polygon fill="white" stroke="black" points="410.5,-38.5 410.5,-57.5 499.5,-57.5 499.5,-38.5 410.5,-38.5"/>
<text text-anchor="middle" x="455" y="-45.5" font-family="Helvetica,sans-Serif" font-size="10.00">CANJaguar::SetI</text>
</a>
</g>
<!-- Node8&#45;&gt;Node10 -->
<g id="edge26" class="edge"><title>Node8&#45;&gt;Node10</title>
<path fill="none" stroke="midnightblue" d="M308.22,-57.6691C336.303,-55.8064 371.316,-53.4842 399.989,-51.5824"/>
<polygon fill="midnightblue" stroke="midnightblue" points="400.495,-55.0566 410.242,-50.9023 400.032,-48.0719 400.495,-55.0566"/>
</g>
<!-- Node11 -->
<g id="node26" class="node"><title>Node11</title>
<a xlink:href="class_c_a_n_jaguar.html#a5c5228b40626981bcb5009044edc28d7" target="_top" xlink:title="CANJaguar::SetD">
<polygon fill="white" stroke="black" points="408.5,-0.5 408.5,-19.5 501.5,-19.5 501.5,-0.5 408.5,-0.5"/>
<text text-anchor="middle" x="455" y="-7.5" font-family="Helvetica,sans-Serif" font-size="10.00">CANJaguar::SetD</text>
</a>
</g>
<!-- Node8&#45;&gt;Node11 -->
<g id="edge30" class="edge"><title>Node8&#45;&gt;Node11</title>
<path fill="none" stroke="midnightblue" d="M290.325,-51.4989C313.089,-44.9129 344.319,-36.0879 372,-29 381.351,-26.6056 391.336,-24.1818 401.005,-21.9033"/>
<polygon fill="midnightblue" stroke="midnightblue" points="401.983,-25.2691 410.927,-19.5887 400.393,-18.4521 401.983,-25.2691"/>
</g>
<!-- Node9&#45;&gt;Node4 -->
<g id="edge24" class="edge"><title>Node9&#45;&gt;Node4</title>
<path fill="none" stroke="midnightblue" d="M501.707,-95.491C526.38,-100.614 557.039,-106.981 583.122,-112.397"/>
<polygon fill="midnightblue" stroke="midnightblue" points="582.739,-115.892 593.242,-114.498 584.162,-109.038 582.739,-115.892"/>
</g>
<!-- Node10&#45;&gt;Node4 -->
<g id="edge28" class="edge"><title>Node10&#45;&gt;Node4</title>
<path fill="none" stroke="midnightblue" d="M499.683,-55.6917C512.273,-58.5557 525.878,-62.2879 538,-67 566.351,-78.0207 596.414,-95.8847 616.296,-108.677"/>
<polygon fill="midnightblue" stroke="midnightblue" points="614.644,-111.779 624.928,-114.326 618.477,-105.922 614.644,-111.779"/>
</g>
<!-- Node11&#45;&gt;Node4 -->
<g id="edge32" class="edge"><title>Node11&#45;&gt;Node4</title>
<path fill="none" stroke="midnightblue" d="M501.796,-16.1652C514.029,-18.9822 526.919,-23.0717 538,-29 574.565,-48.5617 607.654,-84.8138 625.388,-106.436"/>
<polygon fill="midnightblue" stroke="midnightblue" points="622.829,-108.841 631.812,-114.458 628.293,-104.465 622.829,-108.841"/>
</g>
</g>
</svg>
