<?xml version="1.0" encoding="UTF-8" standalone="no"?>
<!DOCTYPE svg PUBLIC "-//W3C//DTD SVG 1.1//EN"
 "http://www.w3.org/Graphics/SVG/1.1/DTD/svg11.dtd">
<!-- Generated by graphviz version 2.28.0 (20110507.0327)
 -->
<!-- Title: RobotDrive::Drive Pages: 1 -->
<svg width="734pt" height="142pt"
 viewBox="0.00 0.00 734.00 142.00" xmlns="http://www.w3.org/2000/svg" xmlns:xlink="http://www.w3.org/1999/xlink">
<g id="graph1" class="graph" transform="scale(1 1) rotate(0) translate(4 138)">
<title>RobotDrive::Drive</title>
<polygon fill="white" stroke="white" points="-4,5 -4,-138 731,-138 731,5 -4,5"/>
<!-- Node1 -->
<g id="node1" class="node"><title>Node1</title>
<polygon fill="#bfbfbf" stroke="black" points="0,-57.5 0,-76.5 90,-76.5 90,-57.5 0,-57.5"/>
<text text-anchor="middle" x="45" y="-64.5" font-family="Helvetica,sans-Serif" font-size="10.00">RobotDrive::Drive</text>
</g>
<!-- Node2 -->
<g id="node3" class="node"><title>Node2</title>
<a xlink:href="class_robot_drive.html#a6f17b92a6867d512188b497f192f0715" target="_top" xlink:title="RobotDrive::SetLeftRight\lMotorOutputs">
<polygon fill="white" stroke="black" points="126,-52 126,-82 248,-82 248,-52 126,-52"/>
<text text-anchor="start" x="134" y="-70" font-family="Helvetica,sans-Serif" font-size="10.00">RobotDrive::SetLeftRight</text>
<text text-anchor="middle" x="187" y="-59" font-family="Helvetica,sans-Serif" font-size="10.00">MotorOutputs</text>
</a>
</g>
<!-- Node1&#45;&gt;Node2 -->
<g id="edge2" class="edge"><title>Node1&#45;&gt;Node2</title>
<path fill="none" stroke="midnightblue" d="M90.2969,-67C98.4154,-67 107.07,-67 115.729,-67"/>
<polygon fill="midnightblue" stroke="midnightblue" points="115.866,-70.5001 125.866,-67 115.866,-63.5001 115.866,-70.5001"/>
</g>
<!-- Node3 -->
<g id="node5" class="node"><title>Node3</title>
<a xlink:href="class_speed_controller.html#adc3d0010c1c684979261b98d438f8db5" target="_top" xlink:title="SpeedController::Set">
<polygon fill="white" stroke="black" points="306.5,-114.5 306.5,-133.5 413.5,-133.5 413.5,-114.5 306.5,-114.5"/>
<text text-anchor="middle" x="360" y="-121.5" font-family="Helvetica,sans-Serif" font-size="10.00">SpeedController::Set</text>
</a>
</g>
<!-- Node2&#45;&gt;Node3 -->
<g id="edge4" class="edge"><title>Node2&#45;&gt;Node3</title>
<path fill="none" stroke="midnightblue" d="M223.164,-82.1797C241.159,-89.6239 263.532,-98.3868 284,-105 291.549,-107.439 299.607,-109.764 307.537,-111.898"/>
<polygon fill="midnightblue" stroke="midnightblue" points="306.906,-115.35 317.466,-114.492 308.675,-108.578 306.906,-115.35"/>
</g>
<!-- Node4 -->
<g id="node7" class="node"><title>Node4</title>
<a xlink:href="class_robot_drive.html#aa7d99fd794c6f8c0b5486603f508a3a7" target="_top" xlink:title="RobotDrive::Limit">
<polygon fill="white" stroke="black" points="315,-76.5 315,-95.5 405,-95.5 405,-76.5 315,-76.5"/>
<text text-anchor="middle" x="360" y="-83.5" font-family="Helvetica,sans-Serif" font-size="10.00">RobotDrive::Limit</text>
</a>
</g>
<!-- Node2&#45;&gt;Node4 -->
<g id="edge6" class="edge"><title>Node2&#45;&gt;Node4</title>
<path fill="none" stroke="midnightblue" d="M248.288,-73.6987C266.701,-75.7445 286.826,-77.9807 304.808,-79.9787"/>
<polygon fill="midnightblue" stroke="midnightblue" points="304.509,-83.4669 314.835,-81.0927 305.282,-76.5098 304.509,-83.4669"/>
</g>
<!-- Node5 -->
<g id="node9" class="node"><title>Node5</title>
<a xlink:href="class_c_a_n_jaguar.html#a225e0588b0955681a24da6ab0d2c8bc0" target="_top" xlink:title="CANJaguar::UpdateSyncGroup">
<polygon fill="white" stroke="black" points="284.5,-38.5 284.5,-57.5 435.5,-57.5 435.5,-38.5 284.5,-38.5"/>
<text text-anchor="middle" x="360" y="-45.5" font-family="Helvetica,sans-Serif" font-size="10.00">CANJaguar::UpdateSyncGroup</text>
</a>
</g>
<!-- Node2&#45;&gt;Node5 -->
<g id="edge8" class="edge"><title>Node2&#45;&gt;Node5</title>
<path fill="none" stroke="midnightblue" d="M248.288,-60.3013C256.651,-59.3721 265.367,-58.4037 274.075,-57.4361"/>
<polygon fill="midnightblue" stroke="midnightblue" points="274.72,-60.8861 284.272,-56.3031 273.947,-53.9289 274.72,-60.8861"/>
</g>
<!-- Node6 -->
<g id="node11" class="node"><title>Node6</title>
<a xlink:href="class_motor_safety_helper.html#a67b80e9817dc725e0678de5e8f0bb39e" target="_top" xlink:title="MotorSafetyHelper::Feed">
<polygon fill="white" stroke="black" points="297.5,-0.5 297.5,-19.5 422.5,-19.5 422.5,-0.5 297.5,-0.5"/>
<text text-anchor="middle" x="360" y="-7.5" font-family="Helvetica,sans-Serif" font-size="10.00">MotorSafetyHelper::Feed</text>
</a>
</g>
<!-- Node2&#45;&gt;Node6 -->
<g id="edge10" class="edge"><title>Node2&#45;&gt;Node6</title>
<path fill="none" stroke="midnightblue" d="M223.164,-51.8203C241.159,-44.3761 263.532,-35.6132 284,-29 291.549,-26.5609 299.607,-24.2359 307.537,-22.1022"/>
<polygon fill="midnightblue" stroke="midnightblue" points="308.675,-25.4224 317.466,-19.5077 306.906,-18.6498 308.675,-25.4224"/>
</g>
<!-- Node7 -->
<g id="node13" class="node"><title>Node7</title>
<a xlink:href="class_timer.html#a7fa6e6dffec055e5104ccd6bcadec9aa" target="_top" xlink:title="Timer::GetFPGATimestamp">
<polygon fill="white" stroke="black" points="472.5,-0.5 472.5,-19.5 609.5,-19.5 609.5,-0.5 472.5,-0.5"/>
<text text-anchor="middle" x="541" y="-7.5" font-family="Helvetica,sans-Serif" font-size="10.00">Timer::GetFPGATimestamp</text>
</a>
</g>
<!-- Node6&#45;&gt;Node7 -->
<g id="edge12" class="edge"><title>Node6&#45;&gt;Node7</title>
<path fill="none" stroke="midnightblue" d="M422.602,-10C435.415,-10 449.076,-10 462.381,-10"/>
<polygon fill="midnightblue" stroke="midnightblue" points="462.465,-13.5001 472.465,-10 462.465,-6.5001 462.465,-13.5001"/>
</g>
<!-- Node8 -->
<g id="node15" class="node"><title>Node8</title>
<a xlink:href="_utility_8h.html#ababf055d95368485d48bd9a0231853f3" target="_top" xlink:title="GetFPGATime">
<polygon fill="white" stroke="black" points="646,-0.5 646,-19.5 726,-19.5 726,-0.5 646,-0.5"/>
<text text-anchor="middle" x="686" y="-7.5" font-family="Helvetica,sans-Serif" font-size="10.00">GetFPGATime</text>
</a>
</g>
<!-- Node7&#45;&gt;Node8 -->
<g id="edge14" class="edge"><title>Node7&#45;&gt;Node8</title>
<path fill="none" stroke="midnightblue" d="M609.731,-10C618.558,-10 627.463,-10 635.904,-10"/>
<polygon fill="midnightblue" stroke="midnightblue" points="635.934,-13.5001 645.933,-10 635.933,-6.5001 635.934,-13.5001"/>
</g>
</g>
</svg>
