<?xml version="1.0" encoding="UTF-8" standalone="no"?>
<!DOCTYPE svg PUBLIC "-//W3C//DTD SVG 1.1//EN"
 "http://www.w3.org/Graphics/SVG/1.1/DTD/svg11.dtd">
<!-- Generated by graphviz version 2.28.0 (20110507.0327)
 -->
<!-- Title: SolenoidBase::GetAll Pages: 1 -->
<svg width="602pt" height="66pt"
 viewBox="0.00 0.00 602.00 66.00" xmlns="http://www.w3.org/2000/svg" xmlns:xlink="http://www.w3.org/1999/xlink">
<g id="graph1" class="graph" transform="scale(1 1) rotate(0) translate(4 62)">
<title>SolenoidBase::GetAll</title>
<polygon fill="white" stroke="white" points="-4,5 -4,-62 599,-62 599,5 -4,5"/>
<!-- Node1 -->
<g id="node1" class="node"><title>Node1</title>
<polygon fill="#bfbfbf" stroke="black" points="0,-19.5 0,-38.5 110,-38.5 110,-19.5 0,-19.5"/>
<text text-anchor="middle" x="55" y="-26.5" font-family="Helvetica,sans-Serif" font-size="10.00">SolenoidBase::GetAll</text>
</g>
<!-- Node2 -->
<g id="node3" class="node"><title>Node2</title>
<a xlink:href="class_double_solenoid.html#a831cbfdb95c2c689bfd6644a01694fe8" target="_top" xlink:title="DoubleSolenoid::Get">
<polygon fill="white" stroke="black" points="146,-38.5 146,-57.5 252,-57.5 252,-38.5 146,-38.5"/>
<text text-anchor="middle" x="199" y="-45.5" font-family="Helvetica,sans-Serif" font-size="10.00">DoubleSolenoid::Get</text>
</a>
</g>
<!-- Node1&#45;&gt;Node2 -->
<g id="edge2" class="edge"><title>Node1&#45;&gt;Node2</title>
<path fill="none" stroke="midnightblue" d="M120.134,-37.5813C128.77,-38.7368 137.543,-39.9107 145.935,-41.0336"/>
<polygon fill="midnightblue" stroke="midnightblue" points="120.465,-34.0945 110.089,-36.2373 119.537,-41.0327 120.465,-34.0945"/>
</g>
<!-- Node5 -->
<g id="node9" class="node"><title>Node5</title>
<a xlink:href="class_solenoid.html#ab9eda95dc5f78d2f808a053d33e40814" target="_top" xlink:title="Solenoid::Get">
<polygon fill="white" stroke="black" points="161,-0.5 161,-19.5 237,-19.5 237,-0.5 161,-0.5"/>
<text text-anchor="middle" x="199" y="-7.5" font-family="Helvetica,sans-Serif" font-size="10.00">Solenoid::Get</text>
</a>
</g>
<!-- Node1&#45;&gt;Node5 -->
<g id="edge8" class="edge"><title>Node1&#45;&gt;Node5</title>
<path fill="none" stroke="midnightblue" d="M120.134,-20.4187C134.057,-18.5558 148.336,-16.6452 160.801,-14.9773"/>
<polygon fill="midnightblue" stroke="midnightblue" points="119.537,-16.9673 110.089,-21.7627 120.465,-23.9055 119.537,-16.9673"/>
</g>
<!-- Node3 -->
<g id="node5" class="node"><title>Node3</title>
<a xlink:href="class_double_solenoid.html#a93df6a563393380c665067b351086a42" target="_top" xlink:title="DoubleSolenoid::UpdateTable">
<polygon fill="white" stroke="black" points="288,-38.5 288,-57.5 432,-57.5 432,-38.5 288,-38.5"/>
<text text-anchor="middle" x="360" y="-45.5" font-family="Helvetica,sans-Serif" font-size="10.00">DoubleSolenoid::UpdateTable</text>
</a>
</g>
<!-- Node2&#45;&gt;Node3 -->
<g id="edge4" class="edge"><title>Node2&#45;&gt;Node3</title>
<path fill="none" stroke="midnightblue" d="M262.147,-48C270.547,-48 279.219,-48 287.762,-48"/>
<polygon fill="midnightblue" stroke="midnightblue" points="262.063,-44.5001 252.063,-48 262.063,-51.5001 262.063,-44.5001"/>
</g>
<!-- Node4 -->
<g id="node7" class="node"><title>Node4</title>
<a xlink:href="class_double_solenoid.html#af969e57bea71834b4423a6fe9d0815fc" target="_top" xlink:title="DoubleSolenoid::InitTable">
<polygon fill="white" stroke="black" points="468,-38.5 468,-57.5 594,-57.5 594,-38.5 468,-38.5"/>
<text text-anchor="middle" x="531" y="-45.5" font-family="Helvetica,sans-Serif" font-size="10.00">DoubleSolenoid::InitTable</text>
</a>
</g>
<!-- Node3&#45;&gt;Node4 -->
<g id="edge6" class="edge"><title>Node3&#45;&gt;Node4</title>
<path fill="none" stroke="midnightblue" d="M442.216,-48C450.799,-48 459.428,-48 467.747,-48"/>
<polygon fill="midnightblue" stroke="midnightblue" points="442.181,-44.5001 432.181,-48 442.181,-51.5001 442.181,-44.5001"/>
</g>
<!-- Node6 -->
<g id="node11" class="node"><title>Node6</title>
<a xlink:href="class_solenoid.html#a150a157619f3f1572d5481cf85290ba8" target="_top" xlink:title="Solenoid::UpdateTable">
<polygon fill="white" stroke="black" points="303,-0.5 303,-19.5 417,-19.5 417,-0.5 303,-0.5"/>
<text text-anchor="middle" x="360" y="-7.5" font-family="Helvetica,sans-Serif" font-size="10.00">Solenoid::UpdateTable</text>
</a>
</g>
<!-- Node5&#45;&gt;Node6 -->
<g id="edge10" class="edge"><title>Node5&#45;&gt;Node6</title>
<path fill="none" stroke="midnightblue" d="M247.747,-10C265.124,-10 284.922,-10 302.952,-10"/>
<polygon fill="midnightblue" stroke="midnightblue" points="247.278,-6.5001 237.278,-10 247.278,-13.5001 247.278,-6.5001"/>
</g>
<!-- Node7 -->
<g id="node13" class="node"><title>Node7</title>
<a xlink:href="class_solenoid.html#ace46e6a1065c09c12e42ffff7713ccf6" target="_top" xlink:title="Solenoid::InitTable">
<polygon fill="white" stroke="black" points="483,-0.5 483,-19.5 579,-19.5 579,-0.5 483,-0.5"/>
<text text-anchor="middle" x="531" y="-7.5" font-family="Helvetica,sans-Serif" font-size="10.00">Solenoid::InitTable</text>
</a>
</g>
<!-- Node6&#45;&gt;Node7 -->
<g id="edge12" class="edge"><title>Node6&#45;&gt;Node7</title>
<path fill="none" stroke="midnightblue" d="M427.441,-10C446.009,-10 465.799,-10 482.991,-10"/>
<polygon fill="midnightblue" stroke="midnightblue" points="427.275,-6.5001 417.275,-10 427.275,-13.5001 427.275,-6.5001"/>
</g>
</g>
</svg>
