<?xml version="1.0" encoding="UTF-8" standalone="no"?>
<!DOCTYPE svg PUBLIC "-//W3C//DTD SVG 1.1//EN"
 "http://www.w3.org/Graphics/SVG/1.1/DTD/svg11.dtd">
<!-- Generated by graphviz version 2.28.0 (20110507.0327)
 -->
<!-- Title: PIDController::GetSetpoint Pages: 1 -->
<svg width="492pt" height="131pt"
 viewBox="0.00 0.00 492.00 131.00" xmlns="http://www.w3.org/2000/svg" xmlns:xlink="http://www.w3.org/1999/xlink">
<g id="graph1" class="graph" transform="scale(1 1) rotate(0) translate(4 127)">
<title>PIDController::GetSetpoint</title>
<polygon fill="white" stroke="white" points="-4,5 -4,-127 489,-127 489,5 -4,5"/>
<!-- Node1 -->
<g id="node1" class="node"><title>Node1</title>
<polygon fill="#bfbfbf" stroke="black" points="0.5,-60.5 0.5,-79.5 131.5,-79.5 131.5,-60.5 0.5,-60.5"/>
<text text-anchor="middle" x="66" y="-67.5" font-family="Helvetica,sans-Serif" font-size="10.00">PIDController::GetSetpoint</text>
</g>
<!-- Node2 -->
<g id="node3" class="node"><title>Node2</title>
<a xlink:href="class_p_i_d_subsystem.html#a0d319cc2a1b26128376c51d66a9e0ca4" target="_top" xlink:title="PIDSubsystem::GetSetpoint">
<polygon fill="white" stroke="black" points="168,-98.5 168,-117.5 308,-117.5 308,-98.5 168,-98.5"/>
<text text-anchor="middle" x="238" y="-105.5" font-family="Helvetica,sans-Serif" font-size="10.00">PIDSubsystem::GetSetpoint</text>
</a>
</g>
<!-- Node1&#45;&gt;Node2 -->
<g id="edge2" class="edge"><title>Node1&#45;&gt;Node2</title>
<path fill="none" stroke="midnightblue" d="M119.898,-81.8243C143.865,-87.1816 171.824,-93.4311 194.41,-98.4799"/>
<polygon fill="midnightblue" stroke="midnightblue" points="120.421,-78.3548 109.898,-79.589 118.894,-85.1862 120.421,-78.3548"/>
</g>
<!-- Node4 -->
<g id="node7" class="node"><title>Node4</title>
<a xlink:href="class_p_i_d_controller.html#aba10571498bacd21469121d4af1f4757" target="_top" xlink:title="PIDController::GetError">
<polygon fill="white" stroke="black" points="180,-60.5 180,-79.5 296,-79.5 296,-60.5 180,-60.5"/>
<text text-anchor="middle" x="238" y="-67.5" font-family="Helvetica,sans-Serif" font-size="10.00">PIDController::GetError</text>
</a>
</g>
<!-- Node1&#45;&gt;Node4 -->
<g id="edge6" class="edge"><title>Node1&#45;&gt;Node4</title>
<path fill="none" stroke="midnightblue" d="M141.9,-70C154.661,-70 167.731,-70 179.935,-70"/>
<polygon fill="midnightblue" stroke="midnightblue" points="141.755,-66.5001 131.755,-70 141.755,-73.5001 141.755,-66.5001"/>
</g>
<!-- Node5 -->
<g id="node9" class="node"><title>Node5</title>
<a xlink:href="class_p_i_d_controller.html#af6e51e6973aad270d6e9320b65d363d2" target="_top" xlink:title="PIDController::InitTable">
<polygon fill="white" stroke="black" points="180,-22.5 180,-41.5 296,-41.5 296,-22.5 180,-22.5"/>
<text text-anchor="middle" x="238" y="-29.5" font-family="Helvetica,sans-Serif" font-size="10.00">PIDController::InitTable</text>
</a>
</g>
<!-- Node1&#45;&gt;Node5 -->
<g id="edge8" class="edge"><title>Node1&#45;&gt;Node5</title>
<path fill="none" stroke="midnightblue" d="M119.898,-58.1757C143.865,-52.8184 171.824,-46.5689 194.41,-41.5201"/>
<polygon fill="midnightblue" stroke="midnightblue" points="118.894,-54.8138 109.898,-60.411 120.421,-61.6452 118.894,-54.8138"/>
</g>
<!-- Node3 -->
<g id="node5" class="node"><title>Node3</title>
<a xlink:href="class_p_i_d_subsystem.html#aca4dcf990caeff9dcbc0d8c66d476316" target="_top" xlink:title="PIDSubsystem::SetSetpoint\lRelative">
<polygon fill="white" stroke="black" points="344.5,-93 344.5,-123 483.5,-123 483.5,-93 344.5,-93"/>
<text text-anchor="start" x="352.5" y="-111" font-family="Helvetica,sans-Serif" font-size="10.00">PIDSubsystem::SetSetpoint</text>
<text text-anchor="middle" x="414" y="-100" font-family="Helvetica,sans-Serif" font-size="10.00">Relative</text>
</a>
</g>
<!-- Node2&#45;&gt;Node3 -->
<g id="edge4" class="edge"><title>Node2&#45;&gt;Node3</title>
<path fill="none" stroke="midnightblue" d="M318.198,-108C326.927,-108 335.763,-108 344.349,-108"/>
<polygon fill="midnightblue" stroke="midnightblue" points="318.019,-104.5 308.019,-108 318.019,-111.5 318.019,-104.5"/>
</g>
<!-- Node6 -->
<g id="node11" class="node"><title>Node6</title>
<a xlink:href="class_p_i_d_command.html#aca89a102a75fc9fc9d8eaa4472a8af35" target="_top" xlink:title="PIDCommand::InitTable">
<polygon fill="white" stroke="black" points="354.5,-38.5 354.5,-57.5 473.5,-57.5 473.5,-38.5 354.5,-38.5"/>
<text text-anchor="middle" x="414" y="-45.5" font-family="Helvetica,sans-Serif" font-size="10.00">PIDCommand::InitTable</text>
</a>
</g>
<!-- Node5&#45;&gt;Node6 -->
<g id="edge10" class="edge"><title>Node5&#45;&gt;Node6</title>
<path fill="none" stroke="midnightblue" d="M306.663,-38.2219C322.426,-39.6714 339.081,-41.2029 354.414,-42.6128"/>
<polygon fill="midnightblue" stroke="midnightblue" points="306.735,-34.7138 296.456,-37.2833 306.094,-41.6844 306.735,-34.7138"/>
</g>
<!-- Node7 -->
<g id="node13" class="node"><title>Node7</title>
<a xlink:href="class_p_i_d_subsystem.html#a0fbee3092f4cdc044d5f1fd96dfbd7d4" target="_top" xlink:title="PIDSubsystem::InitTable">
<polygon fill="white" stroke="black" points="352,-0.5 352,-19.5 476,-19.5 476,-0.5 352,-0.5"/>
<text text-anchor="middle" x="414" y="-7.5" font-family="Helvetica,sans-Serif" font-size="10.00">PIDSubsystem::InitTable</text>
</a>
</g>
<!-- Node5&#45;&gt;Node7 -->
<g id="edge12" class="edge"><title>Node5&#45;&gt;Node7</title>
<path fill="none" stroke="midnightblue" d="M306.596,-23.4534C321.459,-21.5741 337.118,-19.5942 351.716,-17.7485"/>
<polygon fill="midnightblue" stroke="midnightblue" points="305.938,-20.0086 296.456,-24.7354 306.816,-26.9533 305.938,-20.0086"/>
</g>
</g>
</svg>
