<?xml version="1.0" encoding="UTF-8" standalone="no"?>
<!DOCTYPE svg PUBLIC "-//W3C//DTD SVG 1.1//EN"
 "http://www.w3.org/Graphics/SVG/1.1/DTD/svg11.dtd">
<!-- Generated by graphviz version 2.28.0 (20110507.0327)
 -->
<!-- Title: Subsystem::SetDefaultCommand Pages: 1 -->
<svg width="350pt" height="66pt"
 viewBox="0.00 0.00 350.00 66.00" xmlns="http://www.w3.org/2000/svg" xmlns:xlink="http://www.w3.org/1999/xlink">
<g id="graph1" class="graph" transform="scale(1 1) rotate(0) translate(4 62)">
<title>Subsystem::SetDefaultCommand</title>
<polygon fill="white" stroke="white" points="-4,5 -4,-62 347,-62 347,5 -4,5"/>
<!-- Node1 -->
<g id="node1" class="node"><title>Node1</title>
<polygon fill="#bfbfbf" stroke="black" points="0.5,-19.5 0.5,-38.5 161.5,-38.5 161.5,-19.5 0.5,-19.5"/>
<text text-anchor="middle" x="81" y="-26.5" font-family="Helvetica,sans-Serif" font-size="10.00">Subsystem::SetDefaultCommand</text>
</g>
<!-- Node2 -->
<g id="node3" class="node"><title>Node2</title>
<a xlink:href="class_command.html#afb520de2e4173f9342a94dd98d76dc0f" target="_top" xlink:title="Command::GetRequirements">
<polygon fill="white" stroke="black" points="198.5,-38.5 198.5,-57.5 341.5,-57.5 341.5,-38.5 198.5,-38.5"/>
<text text-anchor="middle" x="270" y="-45.5" font-family="Helvetica,sans-Serif" font-size="10.00">Command::GetRequirements</text>
</a>
</g>
<!-- Node1&#45;&gt;Node2 -->
<g id="edge2" class="edge"><title>Node1&#45;&gt;Node2</title>
<path fill="none" stroke="midnightblue" d="M161.576,-37.0853C170.46,-37.9879 179.515,-38.9079 188.411,-39.8119"/>
<polygon fill="midnightblue" stroke="midnightblue" points="188.068,-43.2949 198.37,-40.8237 188.776,-36.3307 188.068,-43.2949"/>
</g>
<!-- Node3 -->
<g id="node5" class="node"><title>Node3</title>
<a xlink:href="class_command.html#a68535903fc61c641f4ab2fdbd11d4257" target="_top" xlink:title="Command::GetName">
<polygon fill="white" stroke="black" points="216,-0.5 216,-19.5 324,-19.5 324,-0.5 216,-0.5"/>
<text text-anchor="middle" x="270" y="-7.5" font-family="Helvetica,sans-Serif" font-size="10.00">Command::GetName</text>
</a>
</g>
<!-- Node1&#45;&gt;Node3 -->
<g id="edge4" class="edge"><title>Node1&#45;&gt;Node3</title>
<path fill="none" stroke="midnightblue" d="M161.576,-20.9147C176.295,-19.4193 191.484,-17.876 205.641,-16.4375"/>
<polygon fill="midnightblue" stroke="midnightblue" points="206.151,-19.9039 215.746,-15.4109 205.443,-12.9397 206.151,-19.9039"/>
</g>
</g>
</svg>
