<?xml version="1.0" encoding="UTF-8" standalone="no"?>
<!DOCTYPE svg PUBLIC "-//W3C//DTD SVG 1.1//EN"
 "http://www.w3.org/Graphics/SVG/1.1/DTD/svg11.dtd">
<!-- Generated by graphviz version 2.28.0 (20110507.0327)
 -->
<!-- Title: ADXL345_SPI::GetY Pages: 1 -->
<svg width="430pt" height="28pt"
 viewBox="0.00 0.00 430.00 28.00" xmlns="http://www.w3.org/2000/svg" xmlns:xlink="http://www.w3.org/1999/xlink">
<g id="graph1" class="graph" transform="scale(1 1) rotate(0) translate(4 24)">
<title>ADXL345_SPI::GetY</title>
<polygon fill="white" stroke="white" points="-4,5 -4,-24 427,-24 427,5 -4,5"/>
<!-- Node1 -->
<g id="node1" class="node"><title>Node1</title>
<polygon fill="#bfbfbf" stroke="black" points="0,-0.5 0,-19.5 106,-19.5 106,-0.5 0,-0.5"/>
<text text-anchor="middle" x="53" y="-7.5" font-family="Helvetica,sans-Serif" font-size="10.00">ADXL345_SPI::GetY</text>
</g>
<!-- Node2 -->
<g id="node3" class="node"><title>Node2</title>
<a xlink:href="class_a_d_x_l345___s_p_i.html#acae8aee7785e91d4efe1e695478ca727" target="_top" xlink:title="ADXL345_SPI::GetAcceleration">
<polygon fill="white" stroke="black" points="142.5,-0.5 142.5,-19.5 295.5,-19.5 295.5,-0.5 142.5,-0.5"/>
<text text-anchor="middle" x="219" y="-7.5" font-family="Helvetica,sans-Serif" font-size="10.00">ADXL345_SPI::GetAcceleration</text>
</a>
</g>
<!-- Node1&#45;&gt;Node2 -->
<g id="edge2" class="edge"><title>Node1&#45;&gt;Node2</title>
<path fill="none" stroke="midnightblue" d="M106.342,-10C114.562,-10 123.241,-10 131.982,-10"/>
<polygon fill="midnightblue" stroke="midnightblue" points="132.246,-13.5001 142.246,-10 132.246,-6.5001 132.246,-13.5001"/>
</g>
<!-- Node3 -->
<g id="node5" class="node"><title>Node3</title>
<a xlink:href="class_s_p_i.html#a57e9c8cac374878879b32f43667e1e09" target="_top" xlink:title="SPI::Transaction">
<polygon fill="white" stroke="black" points="332.5,-0.5 332.5,-19.5 421.5,-19.5 421.5,-0.5 332.5,-0.5"/>
<text text-anchor="middle" x="377" y="-7.5" font-family="Helvetica,sans-Serif" font-size="10.00">SPI::Transaction</text>
</a>
</g>
<!-- Node2&#45;&gt;Node3 -->
<g id="edge4" class="edge"><title>Node2&#45;&gt;Node3</title>
<path fill="none" stroke="midnightblue" d="M295.715,-10C304.656,-10 313.637,-10 322.187,-10"/>
<polygon fill="midnightblue" stroke="midnightblue" points="322.372,-13.5001 332.372,-10 322.372,-6.5001 322.372,-13.5001"/>
</g>
</g>
</svg>
