<?xml version="1.0" encoding="UTF-8" standalone="no"?>
<!DOCTYPE svg PUBLIC "-//W3C//DTD SVG 1.1//EN"
 "http://www.w3.org/Graphics/SVG/1.1/DTD/svg11.dtd">
<!-- Generated by graphviz version 2.28.0 (20110507.0327)
 -->
<!-- Title: Ultrasonic::~Ultrasonic Pages: 1 -->
<svg width="588pt" height="142pt"
 viewBox="0.00 0.00 588.00 142.00" xmlns="http://www.w3.org/2000/svg" xmlns:xlink="http://www.w3.org/1999/xlink">
<g id="graph1" class="graph" transform="scale(1 1) rotate(0) translate(4 138)">
<title>Ultrasonic::~Ultrasonic</title>
<polygon fill="white" stroke="white" points="-4,5 -4,-138 585,-138 585,5 -4,5"/>
<!-- Node1 -->
<g id="node1" class="node"><title>Node1</title>
<polygon fill="#bfbfbf" stroke="black" points="0,-57.5 0,-76.5 116,-76.5 116,-57.5 0,-57.5"/>
<text text-anchor="middle" x="58" y="-64.5" font-family="Helvetica,sans-Serif" font-size="10.00">Ultrasonic::~Ultrasonic</text>
</g>
<!-- Node2 -->
<g id="node3" class="node"><title>Node2</title>
<a xlink:href="class_ultrasonic.html#a16105fb0a316d780b8ea1554e3109825" target="_top" xlink:title="Ultrasonic::SetAutomaticMode">
<polygon fill="white" stroke="black" points="152.5,-57.5 152.5,-76.5 301.5,-76.5 301.5,-57.5 152.5,-57.5"/>
<text text-anchor="middle" x="227" y="-64.5" font-family="Helvetica,sans-Serif" font-size="10.00">Ultrasonic::SetAutomaticMode</text>
</a>
</g>
<!-- Node1&#45;&gt;Node2 -->
<g id="edge2" class="edge"><title>Node1&#45;&gt;Node2</title>
<path fill="none" stroke="midnightblue" d="M116.005,-67C124.518,-67 133.441,-67 142.365,-67"/>
<polygon fill="midnightblue" stroke="midnightblue" points="142.421,-70.5001 152.421,-67 142.421,-63.5001 142.421,-70.5001"/>
</g>
<!-- Node3 -->
<g id="node5" class="node"><title>Node3</title>
<a xlink:href="class_counter.html#a006032d39fada9ad683ccc849d2f60d3" target="_top" xlink:title="Counter::Reset">
<polygon fill="white" stroke="black" points="338,-114.5 338,-133.5 420,-133.5 420,-114.5 338,-114.5"/>
<text text-anchor="middle" x="379" y="-121.5" font-family="Helvetica,sans-Serif" font-size="10.00">Counter::Reset</text>
</a>
</g>
<!-- Node2&#45;&gt;Node3 -->
<g id="edge4" class="edge"><title>Node2&#45;&gt;Node3</title>
<path fill="none" stroke="midnightblue" d="M253.107,-76.5405C277.767,-85.9116 315.599,-100.288 343.164,-110.762"/>
<polygon fill="midnightblue" stroke="midnightblue" points="342.22,-114.148 352.811,-114.428 344.707,-107.604 342.22,-114.148"/>
</g>
<!-- Node5 -->
<g id="node9" class="node"><title>Node5</title>
<a xlink:href="class_task.html#af3367e19bf2d011c8de81a8064b7c0f4" target="_top" xlink:title="Task::Verify">
<polygon fill="white" stroke="black" points="484,-38.5 484,-57.5 552,-57.5 552,-38.5 484,-38.5"/>
<text text-anchor="middle" x="518" y="-45.5" font-family="Helvetica,sans-Serif" font-size="10.00">Task::Verify</text>
</a>
</g>
<!-- Node2&#45;&gt;Node5 -->
<g id="edge8" class="edge"><title>Node2&#45;&gt;Node5</title>
<path fill="none" stroke="midnightblue" d="M301.555,-70.321C337.37,-71.0923 381.016,-70.782 420,-67 437.681,-65.2847 456.923,-61.85 473.572,-58.3668"/>
<polygon fill="midnightblue" stroke="midnightblue" points="474.532,-61.7403 483.567,-56.2068 473.054,-54.8983 474.532,-61.7403"/>
</g>
<!-- Node6 -->
<g id="node11" class="node"><title>Node6</title>
<a xlink:href="class_task.html#a6e8e638dd9a8faad92e259b587ca82f8" target="_top" xlink:title="Task::Start">
<polygon fill="white" stroke="black" points="346.5,-38.5 346.5,-57.5 411.5,-57.5 411.5,-38.5 346.5,-38.5"/>
<text text-anchor="middle" x="379" y="-45.5" font-family="Helvetica,sans-Serif" font-size="10.00">Task::Start</text>
</a>
</g>
<!-- Node2&#45;&gt;Node6 -->
<g id="edge10" class="edge"><title>Node2&#45;&gt;Node6</title>
<path fill="none" stroke="midnightblue" d="M301.682,-57.667C313.585,-56.1593 325.532,-54.6459 336.324,-53.279"/>
<polygon fill="midnightblue" stroke="midnightblue" points="336.797,-56.7471 346.278,-52.0182 335.917,-49.8026 336.797,-56.7471"/>
</g>
<!-- Node7 -->
<g id="node13" class="node"><title>Node7</title>
<a xlink:href="class_task.html#a552b56dc92a117812a9ae3f24320eede" target="_top" xlink:title="Task::Stop">
<polygon fill="white" stroke="black" points="347,-0.5 347,-19.5 411,-19.5 411,-0.5 347,-0.5"/>
<text text-anchor="middle" x="379" y="-7.5" font-family="Helvetica,sans-Serif" font-size="10.00">Task::Stop</text>
</a>
</g>
<!-- Node2&#45;&gt;Node7 -->
<g id="edge12" class="edge"><title>Node2&#45;&gt;Node7</title>
<path fill="none" stroke="midnightblue" d="M253.107,-57.4595C277.767,-48.0884 315.599,-33.7124 343.164,-23.2377"/>
<polygon fill="midnightblue" stroke="midnightblue" points="344.707,-26.3956 352.811,-19.5716 342.22,-19.8521 344.707,-26.3956"/>
</g>
<!-- Node4 -->
<g id="node7" class="node"><title>Node4</title>
<a xlink:href="class_error_base.html#a05790f219c9e436a09752f73f7344024" target="_top" xlink:title="Check if the current error code represents a fatal error. ">
<polygon fill="white" stroke="black" points="456,-114.5 456,-133.5 580,-133.5 580,-114.5 456,-114.5"/>
<text text-anchor="middle" x="518" y="-121.5" font-family="Helvetica,sans-Serif" font-size="10.00">ErrorBase::StatusIsFatal</text>
</a>
</g>
<!-- Node3&#45;&gt;Node4 -->
<g id="edge6" class="edge"><title>Node3&#45;&gt;Node4</title>
<path fill="none" stroke="midnightblue" d="M420.364,-124C428.362,-124 436.981,-124 445.66,-124"/>
<polygon fill="midnightblue" stroke="midnightblue" points="445.844,-127.5 455.844,-124 445.844,-120.5 445.844,-127.5"/>
</g>
<!-- Node7&#45;&gt;Node5 -->
<g id="edge14" class="edge"><title>Node7&#45;&gt;Node5</title>
<path fill="none" stroke="midnightblue" d="M411.087,-18.6228C429.677,-23.779 453.569,-30.406 473.955,-36.0605"/>
<polygon fill="midnightblue" stroke="midnightblue" points="473.07,-39.4472 483.642,-38.7474 474.941,-32.7019 473.07,-39.4472"/>
</g>
</g>
</svg>
