<?xml version="1.0" encoding="UTF-8" standalone="no"?>
<!DOCTYPE svg PUBLIC "-//W3C//DTD SVG 1.1//EN"
 "http://www.w3.org/Graphics/SVG/1.1/DTD/svg11.dtd">
<!-- Generated by graphviz version 2.28.0 (20110507.0327)
 -->
<!-- Title: Subsystem::SetCurrentCommand Pages: 1 -->
<svg width="430pt" height="28pt"
 viewBox="0.00 0.00 430.00 28.00" xmlns="http://www.w3.org/2000/svg" xmlns:xlink="http://www.w3.org/1999/xlink">
<g id="graph1" class="graph" transform="scale(1 1) rotate(0) translate(4 24)">
<title>Subsystem::SetCurrentCommand</title>
<polygon fill="white" stroke="white" points="-4,5 -4,-24 427,-24 427,5 -4,5"/>
<!-- Node1 -->
<g id="node1" class="node"><title>Node1</title>
<polygon fill="#bfbfbf" stroke="black" points="0.5,-0.5 0.5,-19.5 163.5,-19.5 163.5,-0.5 0.5,-0.5"/>
<text text-anchor="middle" x="82" y="-7.5" font-family="Helvetica,sans-Serif" font-size="10.00">Subsystem::SetCurrentCommand</text>
</g>
<!-- Node2 -->
<g id="node3" class="node"><title>Node2</title>
<a xlink:href="class_scheduler.html#a5fd987a5f7a9ba180207a1289a7bd477" target="_top" xlink:title="Scheduler::Remove">
<polygon fill="white" stroke="black" points="200.5,-0.5 200.5,-19.5 301.5,-19.5 301.5,-0.5 200.5,-0.5"/>
<text text-anchor="middle" x="251" y="-7.5" font-family="Helvetica,sans-Serif" font-size="10.00">Scheduler::Remove</text>
</a>
</g>
<!-- Node1&#45;&gt;Node2 -->
<g id="edge2" class="edge"><title>Node1&#45;&gt;Node2</title>
<path fill="none" stroke="midnightblue" d="M173.825,-10C182.889,-10 191.837,-10 200.237,-10"/>
<polygon fill="midnightblue" stroke="midnightblue" points="173.565,-6.5001 163.565,-10 173.565,-13.5001 173.565,-6.5001"/>
</g>
<!-- Node3 -->
<g id="node5" class="node"><title>Node3</title>
<a xlink:href="class_scheduler.html#a6e17233143754873d7f29860047de2c1" target="_top" xlink:title="Scheduler::Run">
<polygon fill="white" stroke="black" points="338.5,-0.5 338.5,-19.5 421.5,-19.5 421.5,-0.5 338.5,-0.5"/>
<text text-anchor="middle" x="380" y="-7.5" font-family="Helvetica,sans-Serif" font-size="10.00">Scheduler::Run</text>
</a>
</g>
<!-- Node2&#45;&gt;Node3 -->
<g id="edge4" class="edge"><title>Node2&#45;&gt;Node3</title>
<path fill="none" stroke="midnightblue" d="M311.866,-10C320.825,-10 329.882,-10 338.318,-10"/>
<polygon fill="midnightblue" stroke="midnightblue" points="311.829,-6.5001 301.829,-10 311.829,-13.5001 311.829,-6.5001"/>
</g>
</g>
</svg>
