<?xml version="1.0" encoding="UTF-8" standalone="no"?>
<!DOCTYPE svg PUBLIC "-//W3C//DTD SVG 1.1//EN"
 "http://www.w3.org/Graphics/SVG/1.1/DTD/svg11.dtd">
<!-- Generated by graphviz version 2.28.0 (20110507.0327)
 -->
<!-- Title: DriverStation::GetInstance Pages: 1 -->
<svg width="502pt" height="66pt"
 viewBox="0.00 0.00 502.00 66.00" xmlns="http://www.w3.org/2000/svg" xmlns:xlink="http://www.w3.org/1999/xlink">
<g id="graph1" class="graph" transform="scale(1 1) rotate(0) translate(4 62)">
<title>DriverStation::GetInstance</title>
<polygon fill="white" stroke="white" points="-4,5 -4,-62 499,-62 499,5 -4,5"/>
<!-- Node1 -->
<g id="node1" class="node"><title>Node1</title>
<polygon fill="#bfbfbf" stroke="black" points="0,-19.5 0,-38.5 130,-38.5 130,-19.5 0,-19.5"/>
<text text-anchor="middle" x="65" y="-26.5" font-family="Helvetica,sans-Serif" font-size="10.00">DriverStation::GetInstance</text>
</g>
<!-- Node2 -->
<g id="node3" class="node"><title>Node2</title>
<a xlink:href="class_driver_station.html#a343945cc9bbf870e0ada94b47f3fec92" target="_top" xlink:title="DriverStation::DriverStation">
<polygon fill="white" stroke="black" points="166,-19.5 166,-38.5 298,-38.5 298,-19.5 166,-19.5"/>
<text text-anchor="middle" x="232" y="-26.5" font-family="Helvetica,sans-Serif" font-size="10.00">DriverStation::DriverStation</text>
</a>
</g>
<!-- Node1&#45;&gt;Node2 -->
<g id="edge2" class="edge"><title>Node1&#45;&gt;Node2</title>
<path fill="none" stroke="midnightblue" d="M130.266,-29C138.564,-29 147.122,-29 155.58,-29"/>
<polygon fill="midnightblue" stroke="midnightblue" points="155.823,-32.5001 165.823,-29 155.823,-25.5001 155.823,-32.5001"/>
</g>
<!-- Node3 -->
<g id="node5" class="node"><title>Node3</title>
<a xlink:href="class_sensor_base.html#a97a6a31683483f3fe3f6f1d971ca9615" target="_top" xlink:title="SensorBase::AddToSingletonList">
<polygon fill="white" stroke="black" points="334,-38.5 334,-57.5 494,-57.5 494,-38.5 334,-38.5"/>
<text text-anchor="middle" x="414" y="-45.5" font-family="Helvetica,sans-Serif" font-size="10.00">SensorBase::AddToSingletonList</text>
</a>
</g>
<!-- Node2&#45;&gt;Node3 -->
<g id="edge4" class="edge"><title>Node2&#45;&gt;Node3</title>
<path fill="none" stroke="midnightblue" d="M298.239,-35.8863C306.555,-36.7641 315.177,-37.6742 323.789,-38.5833"/>
<polygon fill="midnightblue" stroke="midnightblue" points="323.564,-42.0789 333.876,-39.648 324.299,-35.1175 323.564,-42.0789"/>
</g>
<!-- Node4 -->
<g id="node7" class="node"><title>Node4</title>
<a xlink:href="class_task.html#a6e8e638dd9a8faad92e259b587ca82f8" target="_top" xlink:title="Task::Start">
<polygon fill="white" stroke="black" points="381.5,-0.5 381.5,-19.5 446.5,-19.5 446.5,-0.5 381.5,-0.5"/>
<text text-anchor="middle" x="414" y="-7.5" font-family="Helvetica,sans-Serif" font-size="10.00">Task::Start</text>
</a>
</g>
<!-- Node2&#45;&gt;Node4 -->
<g id="edge6" class="edge"><title>Node2&#45;&gt;Node4</title>
<path fill="none" stroke="midnightblue" d="M298.239,-22.1137C322.448,-19.5582 349.25,-16.7292 370.86,-14.4481"/>
<polygon fill="midnightblue" stroke="midnightblue" points="371.44,-17.9064 381.017,-13.376 370.705,-10.9451 371.44,-17.9064"/>
</g>
</g>
</svg>
