<?xml version="1.0" encoding="UTF-8" standalone="no"?>
<!DOCTYPE svg PUBLIC "-//W3C//DTD SVG 1.1//EN"
 "http://www.w3.org/Graphics/SVG/1.1/DTD/svg11.dtd">
<!-- Generated by graphviz version 2.28.0 (20110507.0327)
 -->
<!-- Title: SpeedController::Set Pages: 1 -->
<svg width="458pt" height="220pt"
 viewBox="0.00 0.00 458.00 220.00" xmlns="http://www.w3.org/2000/svg" xmlns:xlink="http://www.w3.org/1999/xlink">
<g id="graph1" class="graph" transform="scale(1 1) rotate(0) translate(4 216)">
<title>SpeedController::Set</title>
<polygon fill="white" stroke="white" points="-4,5 -4,-216 455,-216 455,5 -4,5"/>
<!-- Node1 -->
<g id="node1" class="node"><title>Node1</title>
<polygon fill="#bfbfbf" stroke="black" points="0.5,-138.5 0.5,-157.5 107.5,-157.5 107.5,-138.5 0.5,-138.5"/>
<text text-anchor="middle" x="54" y="-145.5" font-family="Helvetica,sans-Serif" font-size="10.00">SpeedController::Set</text>
</g>
<!-- Node2 -->
<g id="node3" class="node"><title>Node2</title>
<a xlink:href="class_robot_drive.html#a2e7fa1a9713332281012e8aae5d9570e" target="_top" xlink:title="RobotDrive::MecanumDrive\l_Cartesian">
<polygon fill="white" stroke="black" points="144.5,-182 144.5,-212 277.5,-212 277.5,-182 144.5,-182"/>
<text text-anchor="start" x="152.5" y="-200" font-family="Helvetica,sans-Serif" font-size="10.00">RobotDrive::MecanumDrive</text>
<text text-anchor="middle" x="211" y="-189" font-family="Helvetica,sans-Serif" font-size="10.00">_Cartesian</text>
</a>
</g>
<!-- Node1&#45;&gt;Node2 -->
<g id="edge2" class="edge"><title>Node1&#45;&gt;Node2</title>
<path fill="none" stroke="midnightblue" d="M94.9563,-160.631C115.559,-167.145 140.83,-175.133 162.434,-181.963"/>
<polygon fill="midnightblue" stroke="midnightblue" points="95.8434,-157.241 85.2535,-157.564 93.7334,-163.916 95.8434,-157.241"/>
</g>
<!-- Node3 -->
<g id="node5" class="node"><title>Node3</title>
<a xlink:href="class_robot_drive.html#a3ba6d4ec2c07575543c4f47d348332f1" target="_top" xlink:title="RobotDrive::MecanumDrive\l_Polar">
<polygon fill="white" stroke="black" points="144.5,-133 144.5,-163 277.5,-163 277.5,-133 144.5,-133"/>
<text text-anchor="start" x="152.5" y="-151" font-family="Helvetica,sans-Serif" font-size="10.00">RobotDrive::MecanumDrive</text>
<text text-anchor="middle" x="211" y="-140" font-family="Helvetica,sans-Serif" font-size="10.00">_Polar</text>
</a>
</g>
<!-- Node1&#45;&gt;Node3 -->
<g id="edge4" class="edge"><title>Node1&#45;&gt;Node3</title>
<path fill="none" stroke="midnightblue" d="M117.996,-148C126.712,-148 135.682,-148 144.443,-148"/>
<polygon fill="midnightblue" stroke="midnightblue" points="117.909,-144.5 107.909,-148 117.909,-151.5 117.909,-144.5"/>
</g>
<!-- Node5 -->
<g id="node9" class="node"><title>Node5</title>
<a xlink:href="class_robot_drive.html#a6f17b92a6867d512188b497f192f0715" target="_top" xlink:title="RobotDrive::SetLeftRight\lMotorOutputs">
<polygon fill="white" stroke="black" points="150,-71 150,-101 272,-101 272,-71 150,-71"/>
<text text-anchor="start" x="158" y="-89" font-family="Helvetica,sans-Serif" font-size="10.00">RobotDrive::SetLeftRight</text>
<text text-anchor="middle" x="211" y="-78" font-family="Helvetica,sans-Serif" font-size="10.00">MotorOutputs</text>
</a>
</g>
<!-- Node1&#45;&gt;Node5 -->
<g id="edge8" class="edge"><title>Node1&#45;&gt;Node5</title>
<path fill="none" stroke="midnightblue" d="M88.1825,-134.727C112.841,-124.864 146.516,-111.394 172.211,-101.116"/>
<polygon fill="midnightblue" stroke="midnightblue" points="86.8639,-131.485 78.8791,-138.448 89.4637,-137.984 86.8639,-131.485"/>
</g>
<!-- Node4 -->
<g id="node7" class="node"><title>Node4</title>
<a xlink:href="class_robot_drive.html#ad21b09eed120e95f1b5741a26f2f9084" target="_top" xlink:title="RobotDrive::HolonomicDrive">
<polygon fill="white" stroke="black" points="314,-152.5 314,-171.5 450,-171.5 450,-152.5 314,-152.5"/>
<text text-anchor="middle" x="382" y="-159.5" font-family="Helvetica,sans-Serif" font-size="10.00">RobotDrive::HolonomicDrive</text>
</a>
</g>
<!-- Node3&#45;&gt;Node4 -->
<g id="edge6" class="edge"><title>Node3&#45;&gt;Node4</title>
<path fill="none" stroke="midnightblue" d="M287.934,-154.29C296.612,-155.009 305.413,-155.738 313.964,-156.447"/>
<polygon fill="midnightblue" stroke="midnightblue" points="288.079,-150.79 277.824,-153.453 287.501,-157.767 288.079,-150.79"/>
</g>
<!-- Node6 -->
<g id="node11" class="node"><title>Node6</title>
<a xlink:href="class_robot_drive.html#aae039ef574600e668f8bc03ef47f37a4" target="_top" xlink:title="RobotDrive::RobotDrive">
<polygon fill="white" stroke="black" points="324,-114.5 324,-133.5 440,-133.5 440,-114.5 324,-114.5"/>
<text text-anchor="middle" x="382" y="-121.5" font-family="Helvetica,sans-Serif" font-size="10.00">RobotDrive::RobotDrive</text>
</a>
</g>
<!-- Node5&#45;&gt;Node6 -->
<g id="edge10" class="edge"><title>Node5&#45;&gt;Node6</title>
<path fill="none" stroke="midnightblue" d="M281.999,-101.739C301.228,-106.063 321.491,-110.619 338.64,-114.475"/>
<polygon fill="midnightblue" stroke="midnightblue" points="282.583,-98.2835 272.059,-99.5044 281.047,-105.113 282.583,-98.2835"/>
</g>
<!-- Node7 -->
<g id="node13" class="node"><title>Node7</title>
<a xlink:href="class_robot_drive.html#a00f3c6f7906685fe2f98ceaa8bb7e188" target="_top" xlink:title="RobotDrive::Drive">
<polygon fill="white" stroke="black" points="337,-76.5 337,-95.5 427,-95.5 427,-76.5 337,-76.5"/>
<text text-anchor="middle" x="382" y="-83.5" font-family="Helvetica,sans-Serif" font-size="10.00">RobotDrive::Drive</text>
</a>
</g>
<!-- Node5&#45;&gt;Node7 -->
<g id="edge12" class="edge"><title>Node5&#45;&gt;Node7</title>
<path fill="none" stroke="midnightblue" d="M282.209,-86C300.694,-86 320.119,-86 336.806,-86"/>
<polygon fill="midnightblue" stroke="midnightblue" points="282.059,-82.5001 272.059,-86 282.059,-89.5001 282.059,-82.5001"/>
</g>
<!-- Node8 -->
<g id="node15" class="node"><title>Node8</title>
<a xlink:href="class_robot_drive.html#a3df206fa45bf88254e7cd75adca4e973" target="_top" xlink:title="RobotDrive::TankDrive">
<polygon fill="white" stroke="black" points="326.5,-38.5 326.5,-57.5 437.5,-57.5 437.5,-38.5 326.5,-38.5"/>
<text text-anchor="middle" x="382" y="-45.5" font-family="Helvetica,sans-Serif" font-size="10.00">RobotDrive::TankDrive</text>
</a>
</g>
<!-- Node5&#45;&gt;Node8 -->
<g id="edge14" class="edge"><title>Node5&#45;&gt;Node8</title>
<path fill="none" stroke="midnightblue" d="M281.999,-70.2607C301.228,-65.9369 321.491,-61.3808 338.64,-57.5246"/>
<polygon fill="midnightblue" stroke="midnightblue" points="281.047,-66.8871 272.059,-72.4956 282.583,-73.7165 281.047,-66.8871"/>
</g>
<!-- Node9 -->
<g id="node17" class="node"><title>Node9</title>
<a xlink:href="class_robot_drive.html#ac95118d7b535c4f3fb3d56ba5b041e40" target="_top" xlink:title="RobotDrive::ArcadeDrive">
<polygon fill="white" stroke="black" points="321.5,-0.5 321.5,-19.5 442.5,-19.5 442.5,-0.5 321.5,-0.5"/>
<text text-anchor="middle" x="382" y="-7.5" font-family="Helvetica,sans-Serif" font-size="10.00">RobotDrive::ArcadeDrive</text>
</a>
</g>
<!-- Node5&#45;&gt;Node9 -->
<g id="edge16" class="edge"><title>Node5&#45;&gt;Node9</title>
<path fill="none" stroke="midnightblue" d="M244.065,-65.5282C263.685,-53.6568 289.624,-39.1044 314,-29 322.712,-25.3888 332.335,-22.2143 341.505,-19.5456"/>
<polygon fill="midnightblue" stroke="midnightblue" points="242.217,-62.5558 235.523,-70.7684 245.877,-68.5224 242.217,-62.5558"/>
</g>
</g>
</svg>
