<?xml version="1.0" encoding="UTF-8" standalone="no"?>
<!DOCTYPE svg PUBLIC "-//W3C//DTD SVG 1.1//EN"
 "http://www.w3.org/Graphics/SVG/1.1/DTD/svg11.dtd">
<!-- Generated by graphviz version 2.28.0 (20110507.0327)
 -->
<!-- Title: Counter::GetPeriod Pages: 1 -->
<svg width="726pt" height="170pt"
 viewBox="0.00 0.00 726.00 170.00" xmlns="http://www.w3.org/2000/svg" xmlns:xlink="http://www.w3.org/1999/xlink">
<g id="graph1" class="graph" transform="scale(1 1) rotate(0) translate(4 166)">
<title>Counter::GetPeriod</title>
<polygon fill="white" stroke="white" points="-4,5 -4,-166 723,-166 723,5 -4,5"/>
<!-- Node1 -->
<g id="node1" class="node"><title>Node1</title>
<polygon fill="#bfbfbf" stroke="black" points="0,-75.5 0,-94.5 100,-94.5 100,-75.5 0,-75.5"/>
<text text-anchor="middle" x="50" y="-82.5" font-family="Helvetica,sans-Serif" font-size="10.00">Counter::GetPeriod</text>
</g>
<!-- Node2 -->
<g id="node3" class="node"><title>Node2</title>
<a xlink:href="class_encoder.html#a9825883787337876f6d62951d7eaac24" target="_top" xlink:title="Encoder::GetPeriod">
<polygon fill="white" stroke="black" points="154,-104.5 154,-123.5 256,-123.5 256,-104.5 154,-104.5"/>
<text text-anchor="middle" x="205" y="-111.5" font-family="Helvetica,sans-Serif" font-size="10.00">Encoder::GetPeriod</text>
</a>
</g>
<!-- Node1&#45;&gt;Node2 -->
<g id="edge2" class="edge"><title>Node1&#45;&gt;Node2</title>
<path fill="none" stroke="midnightblue" d="M110.494,-96.2766C124.804,-98.989 139.95,-101.86 153.79,-104.483"/>
<polygon fill="midnightblue" stroke="midnightblue" points="110.729,-92.759 100.252,-94.3354 109.426,-99.6365 110.729,-92.759"/>
</g>
<!-- Node7 -->
<g id="node13" class="node"><title>Node7</title>
<a xlink:href="class_ultrasonic.html#a73c80fe92b2085107714c6a110d90d70" target="_top" xlink:title="Ultrasonic::GetRangeInches">
<polygon fill="white" stroke="black" points="136,-47.5 136,-66.5 274,-66.5 274,-47.5 136,-47.5"/>
<text text-anchor="middle" x="205" y="-54.5" font-family="Helvetica,sans-Serif" font-size="10.00">Ultrasonic::GetRangeInches</text>
</a>
</g>
<!-- Node1&#45;&gt;Node7 -->
<g id="edge12" class="edge"><title>Node1&#45;&gt;Node7</title>
<path fill="none" stroke="midnightblue" d="M110.122,-74.1803C123.907,-71.6576 138.486,-68.9894 151.939,-66.5274"/>
<polygon fill="midnightblue" stroke="midnightblue" points="109.459,-70.7434 100.252,-75.9865 110.719,-77.6291 109.459,-70.7434"/>
</g>
<!-- Node3 -->
<g id="node5" class="node"><title>Node3</title>
<a xlink:href="class_encoder.html#a72423acddb85ee347fc213b8600843f7" target="_top" xlink:title="Encoder::GetRate">
<polygon fill="white" stroke="black" points="325.5,-114.5 325.5,-133.5 420.5,-133.5 420.5,-114.5 325.5,-114.5"/>
<text text-anchor="middle" x="373" y="-121.5" font-family="Helvetica,sans-Serif" font-size="10.00">Encoder::GetRate</text>
</a>
</g>
<!-- Node2&#45;&gt;Node3 -->
<g id="edge4" class="edge"><title>Node2&#45;&gt;Node3</title>
<path fill="none" stroke="midnightblue" d="M266.245,-117.629C285.71,-118.802 306.985,-120.083 325.316,-121.188"/>
<polygon fill="midnightblue" stroke="midnightblue" points="266.448,-114.135 256.256,-117.027 266.027,-121.123 266.448,-114.135"/>
</g>
<!-- Node4 -->
<g id="node7" class="node"><title>Node4</title>
<a xlink:href="class_encoder.html#a08665d9e47c9fa77606dfe8611612e73" target="_top" xlink:title="Encoder::PIDGet">
<polygon fill="white" stroke="black" points="484,-142.5 484,-161.5 574,-161.5 574,-142.5 484,-142.5"/>
<text text-anchor="middle" x="529" y="-149.5" font-family="Helvetica,sans-Serif" font-size="10.00">Encoder::PIDGet</text>
</a>
</g>
<!-- Node3&#45;&gt;Node4 -->
<g id="edge6" class="edge"><title>Node3&#45;&gt;Node4</title>
<path fill="none" stroke="midnightblue" d="M430.749,-134.318C448.295,-137.508 467.351,-140.973 483.908,-143.983"/>
<polygon fill="midnightblue" stroke="midnightblue" points="431.088,-130.822 420.623,-132.477 429.836,-137.709 431.088,-130.822"/>
</g>
<!-- Node5 -->
<g id="node9" class="node"><title>Node5</title>
<a xlink:href="class_encoder.html#a2f6a1ab80e3590e2687551b22d8669e4" target="_top" xlink:title="Encoder::UpdateTable">
<polygon fill="white" stroke="black" points="472.5,-104.5 472.5,-123.5 585.5,-123.5 585.5,-104.5 472.5,-104.5"/>
<text text-anchor="middle" x="529" y="-111.5" font-family="Helvetica,sans-Serif" font-size="10.00">Encoder::UpdateTable</text>
</a>
</g>
<!-- Node3&#45;&gt;Node5 -->
<g id="edge8" class="edge"><title>Node3&#45;&gt;Node5</title>
<path fill="none" stroke="midnightblue" d="M430.786,-120.313C444.345,-119.432 458.805,-118.493 472.314,-117.616"/>
<polygon fill="midnightblue" stroke="midnightblue" points="430.375,-116.832 420.623,-120.973 430.829,-123.817 430.375,-116.832"/>
</g>
<!-- Node6 -->
<g id="node11" class="node"><title>Node6</title>
<a xlink:href="class_encoder.html#a9e1ff7a1231b13de80a6b8ec06cc6886" target="_top" xlink:title="Encoder::InitTable">
<polygon fill="white" stroke="black" points="622.5,-104.5 622.5,-123.5 717.5,-123.5 717.5,-104.5 622.5,-104.5"/>
<text text-anchor="middle" x="670" y="-111.5" font-family="Helvetica,sans-Serif" font-size="10.00">Encoder::InitTable</text>
</a>
</g>
<!-- Node5&#45;&gt;Node6 -->
<g id="edge10" class="edge"><title>Node5&#45;&gt;Node6</title>
<path fill="none" stroke="midnightblue" d="M595.747,-114C604.673,-114 613.683,-114 622.183,-114"/>
<polygon fill="midnightblue" stroke="midnightblue" points="595.736,-110.5 585.736,-114 595.736,-117.5 595.736,-110.5"/>
</g>
<!-- Node8 -->
<g id="node15" class="node"><title>Node8</title>
<a xlink:href="class_ultrasonic.html#af35c9a3273f1ffcf0eb17308d986d7c0" target="_top" xlink:title="Ultrasonic::GetRangeMM">
<polygon fill="white" stroke="black" points="310,-76.5 310,-95.5 436,-95.5 436,-76.5 310,-76.5"/>
<text text-anchor="middle" x="373" y="-83.5" font-family="Helvetica,sans-Serif" font-size="10.00">Ultrasonic::GetRangeMM</text>
</a>
</g>
<!-- Node7&#45;&gt;Node8 -->
<g id="edge14" class="edge"><title>Node7&#45;&gt;Node8</title>
<path fill="none" stroke="midnightblue" d="M270.815,-68.3231C286.263,-71.0219 302.596,-73.8752 317.526,-76.4835"/>
<polygon fill="midnightblue" stroke="midnightblue" points="271.268,-64.8493 260.815,-66.5761 270.063,-71.7448 271.268,-64.8493"/>
</g>
<!-- Node9 -->
<g id="node17" class="node"><title>Node9</title>
<a xlink:href="class_ultrasonic.html#a8ec6de749ccd7e93b28735e9cc6d0b22" target="_top" xlink:title="Ultrasonic::PIDGet">
<polygon fill="white" stroke="black" points="480,-47.5 480,-66.5 578,-66.5 578,-47.5 480,-47.5"/>
<text text-anchor="middle" x="529" y="-54.5" font-family="Helvetica,sans-Serif" font-size="10.00">Ultrasonic::PIDGet</text>
</a>
</g>
<!-- Node7&#45;&gt;Node9 -->
<g id="edge18" class="edge"><title>Node7&#45;&gt;Node9</title>
<path fill="none" stroke="midnightblue" d="M284.641,-57C345.598,-57 428.112,-57 479.684,-57"/>
<polygon fill="midnightblue" stroke="midnightblue" points="284.288,-53.5001 274.288,-57 284.288,-60.5001 284.288,-53.5001"/>
</g>
<!-- Node10 -->
<g id="node20" class="node"><title>Node10</title>
<a xlink:href="class_ultrasonic.html#aa91dcad8c1595bd3c4bdd3e798afb736" target="_top" xlink:title="Ultrasonic::UpdateTable">
<polygon fill="white" stroke="black" points="313,-0.5 313,-19.5 433,-19.5 433,-0.5 313,-0.5"/>
<text text-anchor="middle" x="373" y="-7.5" font-family="Helvetica,sans-Serif" font-size="10.00">Ultrasonic::UpdateTable</text>
</a>
</g>
<!-- Node7&#45;&gt;Node10 -->
<g id="edge20" class="edge"><title>Node7&#45;&gt;Node10</title>
<path fill="none" stroke="midnightblue" d="M249.424,-44.7052C277.142,-36.8575 312.547,-26.833 338.173,-19.5776"/>
<polygon fill="midnightblue" stroke="midnightblue" points="248.261,-41.3969 239.593,-47.4888 250.168,-48.1322 248.261,-41.3969"/>
</g>
<!-- Node8&#45;&gt;Node9 -->
<g id="edge16" class="edge"><title>Node8&#45;&gt;Node9</title>
<path fill="none" stroke="midnightblue" d="M434.998,-74.5133C449.889,-71.7092 465.615,-68.7479 479.813,-66.0742"/>
<polygon fill="midnightblue" stroke="midnightblue" points="434.032,-71.1337 424.852,-76.4239 435.327,-78.0128 434.032,-71.1337"/>
</g>
<!-- Node11 -->
<g id="node22" class="node"><title>Node11</title>
<a xlink:href="class_ultrasonic.html#a63320495a2d314cbc09cc9e4b6d1569d" target="_top" xlink:title="Ultrasonic::InitTable">
<polygon fill="white" stroke="black" points="478,-0.5 478,-19.5 580,-19.5 580,-0.5 478,-0.5"/>
<text text-anchor="middle" x="529" y="-7.5" font-family="Helvetica,sans-Serif" font-size="10.00">Ultrasonic::InitTable</text>
</a>
</g>
<!-- Node10&#45;&gt;Node11 -->
<g id="edge22" class="edge"><title>Node10&#45;&gt;Node11</title>
<path fill="none" stroke="midnightblue" d="M443.247,-10C454.895,-10 466.782,-10 477.828,-10"/>
<polygon fill="midnightblue" stroke="midnightblue" points="443.1,-6.5001 433.1,-10 443.1,-13.5001 443.1,-6.5001"/>
</g>
</g>
</svg>
