<?xml version="1.0" encoding="UTF-8" standalone="no"?>
<!DOCTYPE svg PUBLIC "-//W3C//DTD SVG 1.1//EN"
 "http://www.w3.org/Graphics/SVG/1.1/DTD/svg11.dtd">
<!-- Generated by graphviz version 2.28.0 (20110507.0327)
 -->
<!-- Title: StartCommand::Initialize Pages: 1 -->
<svg width="420pt" height="66pt"
 viewBox="0.00 0.00 420.00 66.00" xmlns="http://www.w3.org/2000/svg" xmlns:xlink="http://www.w3.org/1999/xlink">
<g id="graph1" class="graph" transform="scale(1 1) rotate(0) translate(4 62)">
<title>StartCommand::Initialize</title>
<polygon fill="white" stroke="white" points="-4,5 -4,-62 417,-62 417,5 -4,5"/>
<!-- Node1 -->
<g id="node1" class="node"><title>Node1</title>
<polygon fill="#bfbfbf" stroke="black" points="0.5,-19.5 0.5,-38.5 123.5,-38.5 123.5,-19.5 0.5,-19.5"/>
<text text-anchor="middle" x="62" y="-26.5" font-family="Helvetica,sans-Serif" font-size="10.00">StartCommand::Initialize</text>
</g>
<!-- Node2 -->
<g id="node3" class="node"><title>Node2</title>
<a xlink:href="class_command.html#ad61704023f2e6acfcfda4bc88c0b77fc" target="_top" xlink:title="Command::Start">
<polygon fill="white" stroke="black" points="160,-19.5 160,-38.5 248,-38.5 248,-19.5 160,-19.5"/>
<text text-anchor="middle" x="204" y="-26.5" font-family="Helvetica,sans-Serif" font-size="10.00">Command::Start</text>
</a>
</g>
<!-- Node1&#45;&gt;Node2 -->
<g id="edge2" class="edge"><title>Node1&#45;&gt;Node2</title>
<path fill="none" stroke="midnightblue" d="M123.592,-29C132.208,-29 141.018,-29 149.487,-29"/>
<polygon fill="midnightblue" stroke="midnightblue" points="149.611,-32.5001 159.611,-29 149.611,-25.5001 149.611,-32.5001"/>
</g>
<!-- Node3 -->
<g id="node5" class="node"><title>Node3</title>
<a xlink:href="class_scheduler.html#a5cc7ff43cb79880d28586b07ec967070" target="_top" xlink:title="Scheduler::GetInstance">
<polygon fill="white" stroke="black" points="288.5,-38.5 288.5,-57.5 407.5,-57.5 407.5,-38.5 288.5,-38.5"/>
<text text-anchor="middle" x="348" y="-45.5" font-family="Helvetica,sans-Serif" font-size="10.00">Scheduler::GetInstance</text>
</a>
</g>
<!-- Node2&#45;&gt;Node3 -->
<g id="edge4" class="edge"><title>Node2&#45;&gt;Node3</title>
<path fill="none" stroke="midnightblue" d="M248.376,-34.8039C257.858,-36.0725 268.118,-37.4454 278.315,-38.8097"/>
<polygon fill="midnightblue" stroke="midnightblue" points="278.083,-42.3098 288.459,-40.167 279.011,-35.3716 278.083,-42.3098"/>
</g>
<!-- Node4 -->
<g id="node7" class="node"><title>Node4</title>
<a xlink:href="class_scheduler.html#a748d4035dafc39002b7f03a4504d3150" target="_top" xlink:title="Scheduler::AddCommand">
<polygon fill="white" stroke="black" points="284,-0.5 284,-19.5 412,-19.5 412,-0.5 284,-0.5"/>
<text text-anchor="middle" x="348" y="-7.5" font-family="Helvetica,sans-Serif" font-size="10.00">Scheduler::AddCommand</text>
</a>
</g>
<!-- Node2&#45;&gt;Node4 -->
<g id="edge6" class="edge"><title>Node2&#45;&gt;Node4</title>
<path fill="none" stroke="midnightblue" d="M248.376,-23.1961C256.408,-22.1215 264.998,-20.9722 273.634,-19.8166"/>
<polygon fill="midnightblue" stroke="midnightblue" points="274.316,-23.2566 283.764,-18.4612 273.388,-16.3184 274.316,-23.2566"/>
</g>
</g>
</svg>
