<?xml version="1.0" encoding="UTF-8" standalone="no"?>
<!DOCTYPE svg PUBLIC "-//W3C//DTD SVG 1.1//EN"
 "http://www.w3.org/Graphics/SVG/1.1/DTD/svg11.dtd">
<!-- Generated by graphviz version 2.28.0 (20110507.0327)
 -->
<!-- Title: Encoder::UpdateTable Pages: 1 -->
<svg width="706pt" height="182pt"
 viewBox="0.00 0.00 706.00 182.25" xmlns="http://www.w3.org/2000/svg" xmlns:xlink="http://www.w3.org/1999/xlink">
<g id="graph1" class="graph" transform="scale(1 1) rotate(0) translate(4 178.252)">
<title>Encoder::UpdateTable</title>
<polygon fill="white" stroke="white" points="-4,5 -4,-178.252 703,-178.252 703,5 -4,5"/>
<!-- Node1 -->
<g id="node1" class="node"><title>Node1</title>
<polygon fill="#bfbfbf" stroke="black" points="0.5,-104.5 0.5,-123.5 113.5,-123.5 113.5,-104.5 0.5,-104.5"/>
<text text-anchor="middle" x="57" y="-111.5" font-family="Helvetica,sans-Serif" font-size="10.00">Encoder::UpdateTable</text>
</g>
<!-- Node2 -->
<g id="node3" class="node"><title>Node2</title>
<a xlink:href="class_encoder.html#a72423acddb85ee347fc213b8600843f7" target="_top" xlink:title="Encoder::GetRate">
<polygon fill="white" stroke="black" points="159.5,-133.5 159.5,-152.5 254.5,-152.5 254.5,-133.5 159.5,-133.5"/>
<text text-anchor="middle" x="207" y="-140.5" font-family="Helvetica,sans-Serif" font-size="10.00">Encoder::GetRate</text>
</a>
</g>
<!-- Node1&#45;&gt;Node2 -->
<g id="edge2" class="edge"><title>Node1&#45;&gt;Node2</title>
<path fill="none" stroke="midnightblue" d="M106.871,-123.576C120.421,-126.231 135.248,-129.136 149.209,-131.872"/>
<polygon fill="midnightblue" stroke="midnightblue" points="148.705,-135.34 159.191,-133.828 150.051,-128.47 148.705,-135.34"/>
</g>
<!-- Node6 -->
<g id="node13" class="node"><title>Node6</title>
<a xlink:href="class_encoder.html#a523cc5a0cbd52f937f2a25a14185bc22" target="_top" xlink:title="Encoder::GetDistance">
<polygon fill="white" stroke="black" points="150.5,-76.5 150.5,-95.5 263.5,-95.5 263.5,-76.5 150.5,-76.5"/>
<text text-anchor="middle" x="207" y="-83.5" font-family="Helvetica,sans-Serif" font-size="10.00">Encoder::GetDistance</text>
</a>
</g>
<!-- Node1&#45;&gt;Node6 -->
<g id="edge14" class="edge"><title>Node1&#45;&gt;Node6</title>
<path fill="none" stroke="midnightblue" d="M108.519,-104.442C120.426,-102.19 133.237,-99.7659 145.533,-97.4397"/>
<polygon fill="midnightblue" stroke="midnightblue" points="146.533,-100.813 155.708,-95.5146 145.232,-93.9346 146.533,-100.813"/>
</g>
<!-- Node3 -->
<g id="node5" class="node"><title>Node3</title>
<a xlink:href="class_error_base.html#a05790f219c9e436a09752f73f7344024" target="_top" xlink:title="Check if the current error code represents a fatal error. ">
<polygon fill="white" stroke="black" points="574,-95.5 574,-114.5 698,-114.5 698,-95.5 574,-95.5"/>
<text text-anchor="middle" x="636" y="-102.5" font-family="Helvetica,sans-Serif" font-size="10.00">ErrorBase::StatusIsFatal</text>
</a>
</g>
<!-- Node2&#45;&gt;Node3 -->
<g id="edge4" class="edge"><title>Node2&#45;&gt;Node3</title>
<path fill="none" stroke="midnightblue" d="M245.932,-152.505C308.168,-166.44 435.305,-187.898 538,-160 566.707,-152.201 595.901,-133.948 614.653,-120.602"/>
<polygon fill="midnightblue" stroke="midnightblue" points="616.729,-123.419 622.734,-114.69 612.596,-117.77 616.729,-123.419"/>
</g>
<!-- Node4 -->
<g id="node7" class="node"><title>Node4</title>
<a xlink:href="class_encoder.html#a9825883787337876f6d62951d7eaac24" target="_top" xlink:title="Encoder::GetPeriod">
<polygon fill="white" stroke="black" points="300,-133.5 300,-152.5 402,-152.5 402,-133.5 300,-133.5"/>
<text text-anchor="middle" x="351" y="-140.5" font-family="Helvetica,sans-Serif" font-size="10.00">Encoder::GetPeriod</text>
</a>
</g>
<!-- Node2&#45;&gt;Node4 -->
<g id="edge6" class="edge"><title>Node2&#45;&gt;Node4</title>
<path fill="none" stroke="midnightblue" d="M254.89,-143C266.011,-143 278.029,-143 289.656,-143"/>
<polygon fill="midnightblue" stroke="midnightblue" points="289.741,-146.5 299.741,-143 289.741,-139.5 289.741,-146.5"/>
</g>
<!-- Node4&#45;&gt;Node3 -->
<g id="edge8" class="edge"><title>Node4&#45;&gt;Node3</title>
<path fill="none" stroke="midnightblue" d="M402.205,-148.01C439.906,-150.566 492.625,-151.571 538,-143 562.366,-138.398 588.455,-127.826 607.432,-118.999"/>
<polygon fill="midnightblue" stroke="midnightblue" points="609.152,-122.056 616.661,-114.582 606.13,-115.742 609.152,-122.056"/>
</g>
<!-- Node5 -->
<g id="node10" class="node"><title>Node5</title>
<a xlink:href="class_counter.html#a51030989a5ee306beaf40ac28ab362c0" target="_top" xlink:title="Counter::GetPeriod">
<polygon fill="white" stroke="black" points="438,-114.5 438,-133.5 538,-133.5 538,-114.5 438,-114.5"/>
<text text-anchor="middle" x="488" y="-121.5" font-family="Helvetica,sans-Serif" font-size="10.00">Counter::GetPeriod</text>
</a>
</g>
<!-- Node4&#45;&gt;Node5 -->
<g id="edge10" class="edge"><title>Node4&#45;&gt;Node5</title>
<path fill="none" stroke="midnightblue" d="M402.269,-135.925C410.477,-134.77 419.048,-133.564 427.453,-132.381"/>
<polygon fill="midnightblue" stroke="midnightblue" points="428.173,-135.814 437.587,-130.954 427.197,-128.882 428.173,-135.814"/>
</g>
<!-- Node5&#45;&gt;Node3 -->
<g id="edge12" class="edge"><title>Node5&#45;&gt;Node3</title>
<path fill="none" stroke="midnightblue" d="M538.022,-117.62C546.298,-116.543 555.037,-115.406 563.743,-114.273"/>
<polygon fill="midnightblue" stroke="midnightblue" points="564.453,-117.71 573.918,-112.949 563.55,-110.769 564.453,-117.71"/>
</g>
<!-- Node6&#45;&gt;Node3 -->
<g id="edge16" class="edge"><title>Node6&#45;&gt;Node3</title>
<path fill="none" stroke="midnightblue" d="M263.823,-88.4839C340.831,-91.9105 479.677,-98.0887 563.985,-101.84"/>
<polygon fill="midnightblue" stroke="midnightblue" points="563.842,-105.337 573.988,-102.285 564.153,-98.344 563.842,-105.337"/>
</g>
<!-- Node7 -->
<g id="node16" class="node"><title>Node7</title>
<a xlink:href="class_encoder.html#a0fd1cdb3939029d070c0663a96c3ae6d" target="_top" xlink:title="Encoder::GetRaw">
<polygon fill="white" stroke="black" points="304.5,-38.5 304.5,-57.5 397.5,-57.5 397.5,-38.5 304.5,-38.5"/>
<text text-anchor="middle" x="351" y="-45.5" font-family="Helvetica,sans-Serif" font-size="10.00">Encoder::GetRaw</text>
</a>
</g>
<!-- Node6&#45;&gt;Node7 -->
<g id="edge18" class="edge"><title>Node6&#45;&gt;Node7</title>
<path fill="none" stroke="midnightblue" d="M243.833,-76.411C262.163,-71.5056 284.678,-65.4804 304.25,-60.2429"/>
<polygon fill="midnightblue" stroke="midnightblue" points="305.424,-63.5521 314.179,-57.5859 303.614,-56.7901 305.424,-63.5521"/>
</g>
<!-- Node7&#45;&gt;Node3 -->
<g id="edge20" class="edge"><title>Node7&#45;&gt;Node3</title>
<path fill="none" stroke="midnightblue" d="M397.552,-51.3234C435.487,-54.6984 490.743,-61.0287 538,-72 559.591,-77.0126 583.144,-84.9638 601.634,-91.8053"/>
<polygon fill="midnightblue" stroke="midnightblue" points="600.481,-95.1107 611.072,-95.363 602.95,-88.5606 600.481,-95.1107"/>
</g>
<!-- Node8 -->
<g id="node19" class="node"><title>Node8</title>
<a xlink:href="class_counter.html#a72086dbd17d7baf28bacfb13562af6b6" target="_top" xlink:title="Counter::Get">
<polygon fill="white" stroke="black" points="452,-0.5 452,-19.5 524,-19.5 524,-0.5 452,-0.5"/>
<text text-anchor="middle" x="488" y="-7.5" font-family="Helvetica,sans-Serif" font-size="10.00">Counter::Get</text>
</a>
</g>
<!-- Node7&#45;&gt;Node8 -->
<g id="edge22" class="edge"><title>Node7&#45;&gt;Node8</title>
<path fill="none" stroke="midnightblue" d="M386.066,-38.411C403.413,-33.5281 424.702,-27.5357 443.249,-22.315"/>
<polygon fill="midnightblue" stroke="midnightblue" points="444.267,-25.6646 452.945,-19.5859 442.37,-18.9265 444.267,-25.6646"/>
</g>
<!-- Node8&#45;&gt;Node3 -->
<g id="edge24" class="edge"><title>Node8&#45;&gt;Node3</title>
<path fill="none" stroke="midnightblue" d="M510.903,-19.7138C519.529,-23.7988 529.407,-28.8062 538,-34 566.034,-50.944 596.156,-73.8011 615.267,-88.9506"/>
<polygon fill="midnightblue" stroke="midnightblue" points="613.231,-91.8042 623.226,-95.3199 617.605,-86.3389 613.231,-91.8042"/>
</g>
</g>
</svg>
