<?xml version="1.0" encoding="UTF-8" standalone="no"?>
<!DOCTYPE svg PUBLIC "-//W3C//DTD SVG 1.1//EN"
 "http://www.w3.org/Graphics/SVG/1.1/DTD/svg11.dtd">
<!-- Generated by graphviz version 2.28.0 (20110507.0327)
 -->
<!-- Title: Encoder::GetRate Pages: 1 -->
<svg width="538pt" height="85pt"
 viewBox="0.00 0.00 538.00 85.00" xmlns="http://www.w3.org/2000/svg" xmlns:xlink="http://www.w3.org/1999/xlink">
<g id="graph1" class="graph" transform="scale(1 1) rotate(0) translate(4 81)">
<title>Encoder::GetRate</title>
<polygon fill="white" stroke="white" points="-4,5 -4,-81 535,-81 535,5 -4,5"/>
<!-- Node1 -->
<g id="node1" class="node"><title>Node1</title>
<polygon fill="#bfbfbf" stroke="black" points="0.5,-57.5 0.5,-76.5 95.5,-76.5 95.5,-57.5 0.5,-57.5"/>
<text text-anchor="middle" x="48" y="-64.5" font-family="Helvetica,sans-Serif" font-size="10.00">Encoder::GetRate</text>
</g>
<!-- Node2 -->
<g id="node3" class="node"><title>Node2</title>
<a xlink:href="class_error_base.html#a05790f219c9e436a09752f73f7344024" target="_top" xlink:title="Check if the current error code represents a fatal error. ">
<polygon fill="white" stroke="black" points="406,-38.5 406,-57.5 530,-57.5 530,-38.5 406,-38.5"/>
<text text-anchor="middle" x="468" y="-45.5" font-family="Helvetica,sans-Serif" font-size="10.00">ErrorBase::StatusIsFatal</text>
</a>
</g>
<!-- Node1&#45;&gt;Node2 -->
<g id="edge2" class="edge"><title>Node1&#45;&gt;Node2</title>
<path fill="none" stroke="midnightblue" d="M95.6287,-68.4431C158.197,-69.8843 272.719,-70.7834 370,-62 379.085,-61.1798 388.618,-60.0891 398.014,-58.8773"/>
<polygon fill="midnightblue" stroke="midnightblue" points="398.682,-62.3192 408.128,-57.5218 397.752,-55.3812 398.682,-62.3192"/>
</g>
<!-- Node3 -->
<g id="node5" class="node"><title>Node3</title>
<a xlink:href="class_encoder.html#a9825883787337876f6d62951d7eaac24" target="_top" xlink:title="Encoder::GetPeriod">
<polygon fill="white" stroke="black" points="132,-38.5 132,-57.5 234,-57.5 234,-38.5 132,-38.5"/>
<text text-anchor="middle" x="183" y="-45.5" font-family="Helvetica,sans-Serif" font-size="10.00">Encoder::GetPeriod</text>
</a>
</g>
<!-- Node1&#45;&gt;Node3 -->
<g id="edge4" class="edge"><title>Node1&#45;&gt;Node3</title>
<path fill="none" stroke="midnightblue" d="M95.5169,-60.3547C103.916,-59.1548 112.784,-57.888 121.513,-56.641"/>
<polygon fill="midnightblue" stroke="midnightblue" points="122.255,-60.0707 131.659,-55.1915 121.265,-53.141 122.255,-60.0707"/>
</g>
<!-- Node3&#45;&gt;Node2 -->
<g id="edge6" class="edge"><title>Node3&#45;&gt;Node2</title>
<path fill="none" stroke="midnightblue" d="M234.269,-48C279.145,-48 345.363,-48 395.703,-48"/>
<polygon fill="midnightblue" stroke="midnightblue" points="395.87,-51.5001 405.87,-48 395.87,-44.5001 395.87,-51.5001"/>
</g>
<!-- Node4 -->
<g id="node8" class="node"><title>Node4</title>
<a xlink:href="class_counter.html#a51030989a5ee306beaf40ac28ab362c0" target="_top" xlink:title="Counter::GetPeriod">
<polygon fill="white" stroke="black" points="270,-0.5 270,-19.5 370,-19.5 370,-0.5 270,-0.5"/>
<text text-anchor="middle" x="320" y="-7.5" font-family="Helvetica,sans-Serif" font-size="10.00">Counter::GetPeriod</text>
</a>
</g>
<!-- Node3&#45;&gt;Node4 -->
<g id="edge8" class="edge"><title>Node3&#45;&gt;Node4</title>
<path fill="none" stroke="midnightblue" d="M218.066,-38.411C235.413,-33.5281 256.702,-27.5357 275.249,-22.315"/>
<polygon fill="midnightblue" stroke="midnightblue" points="276.267,-25.6646 284.945,-19.5859 274.37,-18.9265 276.267,-25.6646"/>
</g>
<!-- Node4&#45;&gt;Node2 -->
<g id="edge10" class="edge"><title>Node4&#45;&gt;Node2</title>
<path fill="none" stroke="midnightblue" d="M357.842,-19.589C376.848,-24.5358 400.229,-30.6211 420.469,-35.8892"/>
<polygon fill="midnightblue" stroke="midnightblue" points="419.864,-39.3482 430.423,-38.4799 421.627,-32.5739 419.864,-39.3482"/>
</g>
</g>
</svg>
