<?xml version="1.0" encoding="UTF-8" standalone="no"?>
<!DOCTYPE svg PUBLIC "-//W3C//DTD SVG 1.1//EN"
 "http://www.w3.org/Graphics/SVG/1.1/DTD/svg11.dtd">
<!-- Generated by graphviz version 2.28.0 (20110507.0327)
 -->
<!-- Title: Counter::SetDownSource Pages: 1 -->
<svg width="470pt" height="79pt"
 viewBox="0.00 0.00 470.00 79.49" xmlns="http://www.w3.org/2000/svg" xmlns:xlink="http://www.w3.org/1999/xlink">
<g id="graph1" class="graph" transform="scale(1 1) rotate(0) translate(4 75.4914)">
<title>Counter::SetDownSource</title>
<polygon fill="white" stroke="white" points="-4,5 -4,-75.4914 467,-75.4914 467,5 -4,5"/>
<!-- Node1 -->
<g id="node1" class="node"><title>Node1</title>
<polygon fill="#bfbfbf" stroke="black" points="0,-38.5 0,-57.5 126,-57.5 126,-38.5 0,-38.5"/>
<text text-anchor="middle" x="63" y="-45.5" font-family="Helvetica,sans-Serif" font-size="10.00">Counter::SetDownSource</text>
</g>
<!-- Node2 -->
<g id="node3" class="node"><title>Node2</title>
<a xlink:href="class_error_base.html#a05790f219c9e436a09752f73f7344024" target="_top" xlink:title="Check if the current error code represents a fatal error. ">
<polygon fill="white" stroke="black" points="338,-38.5 338,-57.5 462,-57.5 462,-38.5 338,-38.5"/>
<text text-anchor="middle" x="400" y="-45.5" font-family="Helvetica,sans-Serif" font-size="10.00">ErrorBase::StatusIsFatal</text>
</a>
</g>
<!-- Node1&#45;&gt;Node2 -->
<g id="edge2" class="edge"><title>Node1&#45;&gt;Node2</title>
<path fill="none" stroke="midnightblue" d="M103.799,-57.5105C121.506,-61.2756 142.679,-65.1443 162,-67 223.937,-72.9487 240.069,-73.0084 302,-67 317.543,-65.4921 334.292,-62.6554 349.427,-59.6252"/>
<polygon fill="midnightblue" stroke="midnightblue" points="350.532,-62.9704 359.612,-57.5103 349.109,-56.1166 350.532,-62.9704"/>
</g>
<!-- Node3 -->
<g id="node5" class="node"><title>Node3</title>
<a xlink:href="class_counter.html#a4cb435000b21f303c49569e54325ae2e" target="_top" xlink:title="Counter::SetDownSource">
<polygon fill="white" stroke="black" points="169,-38.5 169,-57.5 295,-57.5 295,-38.5 169,-38.5"/>
<text text-anchor="middle" x="232" y="-45.5" font-family="Helvetica,sans-Serif" font-size="10.00">Counter::SetDownSource</text>
</a>
</g>
<!-- Node1&#45;&gt;Node3 -->
<g id="edge4" class="edge"><title>Node1&#45;&gt;Node3</title>
<path fill="none" stroke="midnightblue" d="M126.185,-48C136.726,-48 147.753,-48 158.531,-48"/>
<polygon fill="midnightblue" stroke="midnightblue" points="158.763,-51.5001 168.763,-48 158.763,-44.5001 158.763,-51.5001"/>
</g>
<!-- Node4 -->
<g id="node8" class="node"><title>Node4</title>
<a xlink:href="class_analog_trigger.html#a78d5a8093c65e4a204716b8b6af41bfe" target="_top" xlink:title="AnalogTrigger::CreateOutput">
<polygon fill="white" stroke="black" points="162,-0.5 162,-19.5 302,-19.5 302,-0.5 162,-0.5"/>
<text text-anchor="middle" x="232" y="-7.5" font-family="Helvetica,sans-Serif" font-size="10.00">AnalogTrigger::CreateOutput</text>
</a>
</g>
<!-- Node1&#45;&gt;Node4 -->
<g id="edge8" class="edge"><title>Node1&#45;&gt;Node4</title>
<path fill="none" stroke="midnightblue" d="M106.141,-38.411C128.377,-33.3513 155.848,-27.1004 179.356,-21.7512"/>
<polygon fill="midnightblue" stroke="midnightblue" points="180.188,-25.1516 189.162,-19.5201 178.635,-18.3261 180.188,-25.1516"/>
</g>
<!-- Node3&#45;&gt;Node2 -->
<g id="edge6" class="edge"><title>Node3&#45;&gt;Node2</title>
<path fill="none" stroke="midnightblue" d="M295.285,-48C305.812,-48 316.814,-48 327.553,-48"/>
<polygon fill="midnightblue" stroke="midnightblue" points="327.745,-51.5001 337.745,-48 327.745,-44.5001 327.745,-51.5001"/>
</g>
<!-- Node4&#45;&gt;Node2 -->
<g id="edge10" class="edge"><title>Node4&#45;&gt;Node2</title>
<path fill="none" stroke="midnightblue" d="M274.889,-19.589C296.893,-24.6261 324.055,-30.8438 347.352,-36.1771"/>
<polygon fill="midnightblue" stroke="midnightblue" points="346.884,-39.6602 357.412,-38.4799 348.446,-32.8367 346.884,-39.6602"/>
</g>
</g>
</svg>
