<?xml version="1.0" encoding="UTF-8" standalone="no"?>
<!DOCTYPE svg PUBLIC "-//W3C//DTD SVG 1.1//EN"
 "http://www.w3.org/Graphics/SVG/1.1/DTD/svg11.dtd">
<!-- Generated by graphviz version 2.28.0 (20110507.0327)
 -->
<!-- Title: ErrorBase Pages: 1 -->
<svg width="93pt" height="106pt"
 viewBox="0.00 0.00 93.00 106.00" xmlns="http://www.w3.org/2000/svg" xmlns:xlink="http://www.w3.org/1999/xlink">
<g id="graph1" class="graph" transform="scale(1 1) rotate(0) translate(4 102)">
<title>ErrorBase</title>
<polygon fill="white" stroke="white" points="-4,5 -4,-102 90,-102 90,5 -4,5"/>
<!-- Node1 -->
<g id="node1" class="node"><title>Node1</title>
<polygon fill="#bfbfbf" stroke="black" points="0,-0.5 0,-19.5 60,-19.5 60,-0.5 0,-0.5"/>
<text text-anchor="middle" x="30" y="-7.5" font-family="Helvetica,sans-Serif" font-size="10.00">ErrorBase</text>
</g>
<!-- Node2 -->
<g id="node2" class="node"><title>Node2</title>
<a xlink:href="class_error.html" target="_top" xlink:title="Error">
<polygon fill="white" stroke="black" points="11,-78.5 11,-97.5 49,-97.5 49,-78.5 11,-78.5"/>
<text text-anchor="middle" x="30" y="-85.5" font-family="Helvetica,sans-Serif" font-size="10.00">Error</text>
</a>
</g>
<!-- Node2&#45;&gt;Node1 -->
<g id="edge2" class="edge"><title>Node2&#45;&gt;Node1</title>
<path fill="none" stroke="#9a32cd" stroke-dasharray="5,2" d="M30,-68.2239C30,-52.6974 30,-31.3582 30,-19.6165"/>
<polygon fill="#9a32cd" stroke="#9a32cd" points="26.5001,-68.2818 30,-78.2818 33.5001,-68.2819 26.5001,-68.2818"/>
<text text-anchor="middle" x="57.5" y="-52" font-family="Helvetica,sans-Serif" font-size="10.00"> _globalError</text>
<text text-anchor="middle" x="57.5" y="-41" font-family="Helvetica,sans-Serif" font-size="10.00">m_error</text>
</g>
</g>
</svg>
