<?xml version="1.0" encoding="UTF-8" standalone="no"?>
<!DOCTYPE svg PUBLIC "-//W3C//DTD SVG 1.1//EN"
 "http://www.w3.org/Graphics/SVG/1.1/DTD/svg11.dtd">
<!-- Generated by graphviz version 2.28.0 (20110507.0327)
 -->
<!-- Title: LiveWindowSendable Pages: 1 -->
<svg width="558pt" height="788pt"
 viewBox="0.00 0.00 558.00 788.00" xmlns="http://www.w3.org/2000/svg" xmlns:xlink="http://www.w3.org/1999/xlink">
<g id="graph1" class="graph" transform="scale(1 1) rotate(0) translate(4 784)">
<title>LiveWindowSendable</title>
<polygon fill="white" stroke="white" points="-4,5 -4,-784 555,-784 555,5 -4,5"/>
<!-- Node1 -->
<g id="node1" class="node"><title>Node1</title>
<polygon fill="#bfbfbf" stroke="black" points="94,-342.5 94,-361.5 202,-361.5 202,-342.5 94,-342.5"/>
<text text-anchor="middle" x="148" y="-349.5" font-family="Helvetica,sans-Serif" font-size="10.00">LiveWindowSendable</text>
</g>
<!-- Node3 -->
<g id="node5" class="node"><title>Node3</title>
<a xlink:href="class_a_d_x_l345___i2_c.html" target="_top" xlink:title="ADXL345_I2C">
<polygon fill="white" stroke="black" points="259,-760.5 259,-779.5 335,-779.5 335,-760.5 259,-760.5"/>
<text text-anchor="middle" x="297" y="-767.5" font-family="Helvetica,sans-Serif" font-size="10.00">ADXL345_I2C</text>
</a>
</g>
<!-- Node1&#45;&gt;Node3 -->
<g id="edge4" class="edge"><title>Node1&#45;&gt;Node3</title>
<path fill="none" stroke="midnightblue" d="M150.833,-371.658C157.946,-443.921 185.941,-693.623 238,-751 243.554,-757.121 251.107,-761.276 258.927,-764.094"/>
<polygon fill="midnightblue" stroke="midnightblue" points="154.311,-371.26 149.87,-361.64 147.343,-371.929 154.311,-371.26"/>
</g>
<!-- Node4 -->
<g id="node7" class="node"><title>Node4</title>
<a xlink:href="class_a_d_x_l345___s_p_i.html" target="_top" xlink:title="ADXL345_SPI">
<polygon fill="white" stroke="black" points="258.5,-722.5 258.5,-741.5 335.5,-741.5 335.5,-722.5 258.5,-722.5"/>
<text text-anchor="middle" x="297" y="-729.5" font-family="Helvetica,sans-Serif" font-size="10.00">ADXL345_SPI</text>
</a>
</g>
<!-- Node1&#45;&gt;Node4 -->
<g id="edge6" class="edge"><title>Node1&#45;&gt;Node4</title>
<path fill="none" stroke="midnightblue" d="M151.366,-371.939C159.821,-440.021 190.583,-661.894 238,-713 243.477,-718.903 250.814,-722.976 258.424,-725.785"/>
<polygon fill="midnightblue" stroke="midnightblue" points="154.806,-371.235 150.124,-361.731 147.858,-372.08 154.806,-371.235"/>
</g>
<!-- Node5 -->
<g id="node9" class="node"><title>Node5</title>
<a xlink:href="class_analog_accelerometer.html" target="_top" xlink:title="AnalogAccelerometer">
<polygon fill="white" stroke="black" points="242,-684.5 242,-703.5 352,-703.5 352,-684.5 242,-684.5"/>
<text text-anchor="middle" x="297" y="-691.5" font-family="Helvetica,sans-Serif" font-size="10.00">AnalogAccelerometer</text>
</a>
</g>
<!-- Node1&#45;&gt;Node5 -->
<g id="edge8" class="edge"><title>Node1&#45;&gt;Node5</title>
<path fill="none" stroke="midnightblue" d="M148.413,-372.041C147.898,-427.929 154.25,-587.157 238,-675 241.729,-678.911 246.274,-682.018 251.162,-684.486"/>
<polygon fill="midnightblue" stroke="midnightblue" points="151.918,-371.809 148.602,-361.746 144.919,-371.68 151.918,-371.809"/>
</g>
<!-- Node6 -->
<g id="node11" class="node"><title>Node6</title>
<a xlink:href="class_analog_input.html" target="_top" xlink:title="AnalogInput">
<polygon fill="white" stroke="black" points="263,-646.5 263,-665.5 331,-665.5 331,-646.5 263,-646.5"/>
<text text-anchor="middle" x="297" y="-653.5" font-family="Helvetica,sans-Serif" font-size="10.00">AnalogInput</text>
</a>
</g>
<!-- Node1&#45;&gt;Node6 -->
<g id="edge10" class="edge"><title>Node1&#45;&gt;Node6</title>
<path fill="none" stroke="midnightblue" d="M149.466,-371.697C151.84,-421.853 165.231,-554.213 238,-628 248.044,-638.185 263.624,-642.912 276.108,-646.424"/>
<polygon fill="midnightblue" stroke="midnightblue" points="152.957,-371.402 149.088,-361.539 145.962,-371.662 152.957,-371.402"/>
</g>
<!-- Node1&#45;&gt;Node6 -->
<g id="edge12" class="edge"><title>Node1&#45;&gt;Node6</title>
<path fill="none" stroke="midnightblue" d="M149.155,-371.703C150.491,-424.357 161.025,-567.948 238,-646 244.696,-652.79 253.853,-657.154 262.912,-659.568"/>
<polygon fill="midnightblue" stroke="midnightblue" points="152.653,-371.583 148.987,-361.643 145.654,-371.7 152.653,-371.583"/>
</g>
<!-- Node7 -->
<g id="node14" class="node"><title>Node7</title>
<a xlink:href="class_analog_output.html" target="_top" xlink:title="AnalogOutput">
<polygon fill="white" stroke="black" points="259,-608.5 259,-627.5 335,-627.5 335,-608.5 259,-608.5"/>
<text text-anchor="middle" x="297" y="-615.5" font-family="Helvetica,sans-Serif" font-size="10.00">AnalogOutput</text>
</a>
</g>
<!-- Node1&#45;&gt;Node7 -->
<g id="edge14" class="edge"><title>Node1&#45;&gt;Node7</title>
<path fill="none" stroke="midnightblue" d="M150.4,-371.847C154.74,-418.278 171.984,-534.889 238,-599 243.777,-604.61 251.236,-608.564 258.869,-611.35"/>
<polygon fill="midnightblue" stroke="midnightblue" points="153.867,-371.306 149.552,-361.629 146.891,-371.884 153.867,-371.306"/>
</g>
<!-- Node8 -->
<g id="node16" class="node"><title>Node8</title>
<a xlink:href="class_analog_potentiometer.html" target="_top" xlink:title="AnalogPotentiometer">
<polygon fill="white" stroke="black" points="243.5,-570.5 243.5,-589.5 350.5,-589.5 350.5,-570.5 243.5,-570.5"/>
<text text-anchor="middle" x="297" y="-577.5" font-family="Helvetica,sans-Serif" font-size="10.00">AnalogPotentiometer</text>
</a>
</g>
<!-- Node1&#45;&gt;Node8 -->
<g id="edge16" class="edge"><title>Node1&#45;&gt;Node8</title>
<path fill="none" stroke="midnightblue" d="M152.785,-371.587C160.691,-411.505 183.016,-501.553 238,-552 248.931,-562.029 265.252,-566.771 277.799,-570.481"/>
<polygon fill="midnightblue" stroke="midnightblue" points="156.219,-370.908 150.922,-361.732 149.341,-372.208 156.219,-370.908"/>
</g>
<!-- Node1&#45;&gt;Node8 -->
<g id="edge18" class="edge"><title>Node1&#45;&gt;Node8</title>
<path fill="none" stroke="midnightblue" d="M151.123,-371.634C157.254,-414.49 178.513,-515.421 238,-570 239.64,-571.504 241.401,-572.89 243.252,-574.161"/>
<polygon fill="midnightblue" stroke="midnightblue" points="154.58,-371.078 149.825,-361.611 147.638,-371.977 154.58,-371.078"/>
</g>
<!-- Node9 -->
<g id="node19" class="node"><title>Node9</title>
<a xlink:href="class_built_in_accelerometer.html" target="_top" xlink:title="BuiltInAccelerometer">
<polygon fill="white" stroke="black" points="243.5,-532.5 243.5,-551.5 350.5,-551.5 350.5,-532.5 243.5,-532.5"/>
<text text-anchor="middle" x="297" y="-539.5" font-family="Helvetica,sans-Serif" font-size="10.00">BuiltInAccelerometer</text>
</a>
</g>
<!-- Node1&#45;&gt;Node9 -->
<g id="edge20" class="edge"><title>Node1&#45;&gt;Node9</title>
<path fill="none" stroke="midnightblue" d="M153.967,-371.811C163.871,-407.281 189.417,-481.768 238,-523 242.605,-526.908 248.034,-530.018 253.693,-532.491"/>
<polygon fill="midnightblue" stroke="midnightblue" points="157.246,-370.522 151.292,-361.758 150.481,-372.322 157.246,-370.522"/>
</g>
<!-- Node10 -->
<g id="node21" class="node"><title>Node10</title>
<a xlink:href="class_c_a_n_jaguar.html" target="_top" xlink:title="CANJaguar">
<polygon fill="white" stroke="black" points="264.5,-494.5 264.5,-513.5 329.5,-513.5 329.5,-494.5 264.5,-494.5"/>
<text text-anchor="middle" x="297" y="-501.5" font-family="Helvetica,sans-Serif" font-size="10.00">CANJaguar</text>
</a>
</g>
<!-- Node1&#45;&gt;Node10 -->
<g id="edge22" class="edge"><title>Node1&#45;&gt;Node10</title>
<path fill="none" stroke="midnightblue" d="M156.789,-370.981C169.546,-399.768 197.581,-454.349 238,-485 245.683,-490.826 255.233,-494.911 264.351,-497.757"/>
<polygon fill="midnightblue" stroke="midnightblue" points="159.94,-369.449 152.786,-361.635 153.506,-372.205 159.94,-369.449"/>
</g>
<!-- Node11 -->
<g id="node23" class="node"><title>Node11</title>
<a xlink:href="class_compressor.html" target="_top" xlink:title="Compressor">
<polygon fill="white" stroke="black" points="262.5,-456.5 262.5,-475.5 331.5,-475.5 331.5,-456.5 262.5,-456.5"/>
<text text-anchor="middle" x="297" y="-463.5" font-family="Helvetica,sans-Serif" font-size="10.00">Compressor</text>
</a>
</g>
<!-- Node1&#45;&gt;Node11 -->
<g id="edge24" class="edge"><title>Node1&#45;&gt;Node11</title>
<path fill="none" stroke="midnightblue" d="M161.242,-369.737C176.772,-390.978 205.479,-426.279 238,-447 245.417,-451.726 254.122,-455.384 262.499,-458.171"/>
<polygon fill="midnightblue" stroke="midnightblue" points="164.078,-367.685 155.421,-361.578 158.38,-371.751 164.078,-367.685"/>
</g>
<!-- Node12 -->
<g id="node25" class="node"><title>Node12</title>
<a xlink:href="class_counter.html" target="_top" xlink:title="Counter">
<polygon fill="white" stroke="black" points="272,-418.5 272,-437.5 322,-437.5 322,-418.5 272,-418.5"/>
<text text-anchor="middle" x="297" y="-425.5" font-family="Helvetica,sans-Serif" font-size="10.00">Counter</text>
</a>
</g>
<!-- Node1&#45;&gt;Node12 -->
<g id="edge26" class="edge"><title>Node1&#45;&gt;Node12</title>
<path fill="none" stroke="midnightblue" d="M180.554,-366.933C197.082,-377.302 217.999,-390.508 238,-400 253.508,-407.36 272.615,-413.013 284.556,-418.454"/>
<polygon fill="midnightblue" stroke="midnightblue" points="182.194,-363.831 171.858,-361.506 178.489,-369.77 182.194,-363.831"/>
</g>
<!-- Node1&#45;&gt;Node12 -->
<g id="edge30" class="edge"><title>Node1&#45;&gt;Node12</title>
<path fill="none" stroke="midnightblue" d="M163.262,-369.184C180.31,-384.218 210.05,-404.736 238,-418 248.721,-423.088 261.163,-427.361 271.768,-429.804"/>
<polygon fill="midnightblue" stroke="midnightblue" points="165.242,-366.237 155.581,-361.889 160.422,-371.313 165.242,-366.237"/>
</g>
<!-- Node14 -->
<g id="node30" class="node"><title>Node14</title>
<a xlink:href="class_digital_input.html" target="_top" xlink:title="DigitalInput">
<polygon fill="white" stroke="black" points="264.5,-380.5 264.5,-399.5 329.5,-399.5 329.5,-380.5 264.5,-380.5"/>
<text text-anchor="middle" x="297" y="-387.5" font-family="Helvetica,sans-Serif" font-size="10.00">DigitalInput</text>
</a>
</g>
<!-- Node1&#45;&gt;Node14 -->
<g id="edge32" class="edge"><title>Node1&#45;&gt;Node14</title>
<path fill="none" stroke="midnightblue" d="M212.024,-361.603C235.526,-367.402 260.486,-374.514 277.027,-380.388"/>
<polygon fill="midnightblue" stroke="midnightblue" points="212.612,-358.145 202.07,-359.206 210.973,-364.95 212.612,-358.145"/>
</g>
<!-- Node1&#45;&gt;Node14 -->
<g id="edge34" class="edge"><title>Node1&#45;&gt;Node14</title>
<path fill="none" stroke="midnightblue" d="M177.511,-364.839C202.401,-372.912 238.477,-382.304 264.274,-387.467"/>
<polygon fill="midnightblue" stroke="midnightblue" points="178.511,-361.483 167.917,-361.592 176.267,-368.113 178.511,-361.483"/>
</g>
<!-- Node15 -->
<g id="node33" class="node"><title>Node15</title>
<a xlink:href="class_digital_output.html" target="_top" xlink:title="DigitalOutput">
<polygon fill="white" stroke="black" points="260.5,-342.5 260.5,-361.5 333.5,-361.5 333.5,-342.5 260.5,-342.5"/>
<text text-anchor="middle" x="297" y="-349.5" font-family="Helvetica,sans-Serif" font-size="10.00">DigitalOutput</text>
</a>
</g>
<!-- Node1&#45;&gt;Node15 -->
<g id="edge36" class="edge"><title>Node1&#45;&gt;Node15</title>
<path fill="none" stroke="midnightblue" d="M212.23,-352C228.743,-352 245.961,-352 260.462,-352"/>
<polygon fill="midnightblue" stroke="midnightblue" points="212.07,-348.5 202.07,-352 212.07,-355.5 212.07,-348.5"/>
</g>
<!-- Node16 -->
<g id="node35" class="node"><title>Node16</title>
<a xlink:href="class_double_solenoid.html" target="_top" xlink:title="DoubleSolenoid">
<polygon fill="white" stroke="black" points="255,-304.5 255,-323.5 339,-323.5 339,-304.5 255,-304.5"/>
<text text-anchor="middle" x="297" y="-311.5" font-family="Helvetica,sans-Serif" font-size="10.00">DoubleSolenoid</text>
</a>
</g>
<!-- Node1&#45;&gt;Node16 -->
<g id="edge38" class="edge"><title>Node1&#45;&gt;Node16</title>
<path fill="none" stroke="midnightblue" d="M177.655,-339.114C199.649,-331.988 230.315,-323.844 254.919,-318.491"/>
<polygon fill="midnightblue" stroke="midnightblue" points="176.268,-335.888 167.917,-342.408 178.511,-342.519 176.268,-335.888"/>
</g>
<!-- Node1&#45;&gt;Node16 -->
<g id="edge40" class="edge"><title>Node1&#45;&gt;Node16</title>
<path fill="none" stroke="midnightblue" d="M212.024,-342.397C235.526,-336.598 260.486,-329.486 277.027,-323.612"/>
<polygon fill="midnightblue" stroke="midnightblue" points="210.973,-339.05 202.07,-344.794 212.612,-345.855 210.973,-339.05"/>
</g>
<!-- Node17 -->
<g id="node38" class="node"><title>Node17</title>
<a xlink:href="class_encoder.html" target="_top" xlink:title="Encoder">
<polygon fill="white" stroke="black" points="270.5,-266.5 270.5,-285.5 323.5,-285.5 323.5,-266.5 270.5,-266.5"/>
<text text-anchor="middle" x="297" y="-273.5" font-family="Helvetica,sans-Serif" font-size="10.00">Encoder</text>
</a>
</g>
<!-- Node1&#45;&gt;Node17 -->
<g id="edge42" class="edge"><title>Node1&#45;&gt;Node17</title>
<path fill="none" stroke="midnightblue" d="M163.262,-334.816C180.31,-319.782 210.05,-299.264 238,-286 248.243,-281.139 260.056,-277.022 270.337,-274.534"/>
<polygon fill="midnightblue" stroke="midnightblue" points="160.422,-332.687 155.581,-342.111 165.242,-337.763 160.422,-332.687"/>
</g>
<!-- Node1&#45;&gt;Node17 -->
<g id="edge44" class="edge"><title>Node1&#45;&gt;Node17</title>
<path fill="none" stroke="midnightblue" d="M180.554,-337.067C197.082,-326.698 217.999,-313.492 238,-304 253.508,-296.64 272.615,-290.987 284.556,-285.546"/>
<polygon fill="midnightblue" stroke="midnightblue" points="178.489,-334.23 171.858,-342.494 182.194,-340.169 178.489,-334.23"/>
</g>
<!-- Node18 -->
<g id="node41" class="node"><title>Node18</title>
<a xlink:href="class_gyro.html" target="_top" xlink:title="Gyro">
<polygon fill="white" stroke="black" points="278,-228.5 278,-247.5 316,-247.5 316,-228.5 278,-228.5"/>
<text text-anchor="middle" x="297" y="-235.5" font-family="Helvetica,sans-Serif" font-size="10.00">Gyro</text>
</a>
</g>
<!-- Node1&#45;&gt;Node18 -->
<g id="edge46" class="edge"><title>Node1&#45;&gt;Node18</title>
<path fill="none" stroke="midnightblue" d="M157.704,-333.547C172.105,-309.89 202.821,-270.414 238,-248 250.243,-240.2 265.993,-235.307 277.99,-233.823"/>
<polygon fill="midnightblue" stroke="midnightblue" points="154.606,-331.915 152.711,-342.339 160.693,-335.371 154.606,-331.915"/>
</g>
<!-- Node1&#45;&gt;Node18 -->
<g id="edge48" class="edge"><title>Node1&#45;&gt;Node18</title>
<path fill="none" stroke="midnightblue" d="M166.367,-334.46C182.637,-315.009 208.778,-284.618 238,-266 251.762,-257.232 269.955,-252.137 282.269,-247.51"/>
<polygon fill="midnightblue" stroke="midnightblue" points="163.54,-332.385 159.814,-342.304 168.912,-336.873 163.54,-332.385"/>
</g>
<!-- Node19 -->
<g id="node44" class="node"><title>Node19</title>
<a xlink:href="class_p_i_d_controller.html" target="_top" xlink:title="PIDController">
<polygon fill="white" stroke="black" points="260,-190.5 260,-209.5 334,-209.5 334,-190.5 260,-190.5"/>
<text text-anchor="middle" x="297" y="-197.5" font-family="Helvetica,sans-Serif" font-size="10.00">PIDController</text>
</a>
</g>
<!-- Node1&#45;&gt;Node19 -->
<g id="edge50" class="edge"><title>Node1&#45;&gt;Node19</title>
<path fill="none" stroke="midnightblue" d="M156.789,-333.019C169.546,-304.232 197.581,-249.651 238,-219 244.417,-214.134 252.135,-210.483 259.817,-207.754"/>
<polygon fill="midnightblue" stroke="midnightblue" points="153.506,-331.795 152.786,-342.365 159.94,-334.551 153.506,-331.795"/>
</g>
<!-- Node20 -->
<g id="node46" class="node"><title>Node20</title>
<a xlink:href="class_power_distribution_panel.html" target="_top" xlink:title="PowerDistributionPanel">
<polygon fill="white" stroke="black" points="238.5,-152.5 238.5,-171.5 355.5,-171.5 355.5,-152.5 238.5,-152.5"/>
<text text-anchor="middle" x="297" y="-159.5" font-family="Helvetica,sans-Serif" font-size="10.00">PowerDistributionPanel</text>
</a>
</g>
<!-- Node1&#45;&gt;Node20 -->
<g id="edge52" class="edge"><title>Node1&#45;&gt;Node20</title>
<path fill="none" stroke="midnightblue" d="M153.967,-332.189C163.871,-296.719 189.417,-222.232 238,-181 242.605,-177.092 248.034,-173.982 253.693,-171.509"/>
<polygon fill="midnightblue" stroke="midnightblue" points="150.481,-331.678 151.292,-342.242 157.246,-333.478 150.481,-331.678"/>
</g>
<!-- Node21 -->
<g id="node48" class="node"><title>Node21</title>
<a xlink:href="class_p_w_m.html" target="_top" xlink:title="PWM">
<polygon fill="white" stroke="black" points="276.5,-114.5 276.5,-133.5 317.5,-133.5 317.5,-114.5 276.5,-114.5"/>
<text text-anchor="middle" x="297" y="-121.5" font-family="Helvetica,sans-Serif" font-size="10.00">PWM</text>
</a>
</g>
<!-- Node1&#45;&gt;Node21 -->
<g id="edge54" class="edge"><title>Node1&#45;&gt;Node21</title>
<path fill="none" stroke="midnightblue" d="M151.123,-332.366C157.254,-289.51 178.513,-188.579 238,-134 248.54,-124.329 264.093,-119.574 276.441,-118.56"/>
<polygon fill="midnightblue" stroke="midnightblue" points="147.638,-332.023 149.825,-342.389 154.58,-332.922 147.638,-332.023"/>
</g>
<!-- Node1&#45;&gt;Node21 -->
<g id="edge78" class="edge"><title>Node1&#45;&gt;Node21</title>
<path fill="none" stroke="midnightblue" d="M152.785,-332.413C160.691,-292.495 183.016,-202.447 238,-152 248.931,-141.971 265.252,-137.229 277.799,-133.519"/>
<polygon fill="midnightblue" stroke="midnightblue" points="149.341,-331.792 150.922,-342.268 156.219,-333.092 149.341,-331.792"/>
</g>
<!-- Node29 -->
<g id="node69" class="node"><title>Node29</title>
<a xlink:href="class_relay.html" target="_top" xlink:title="Relay">
<polygon fill="white" stroke="black" points="276.5,-76.5 276.5,-95.5 317.5,-95.5 317.5,-76.5 276.5,-76.5"/>
<text text-anchor="middle" x="297" y="-83.5" font-family="Helvetica,sans-Serif" font-size="10.00">Relay</text>
</a>
</g>
<!-- Node1&#45;&gt;Node29 -->
<g id="edge80" class="edge"><title>Node1&#45;&gt;Node29</title>
<path fill="none" stroke="midnightblue" d="M150.024,-332.208C153.694,-284.18 169.888,-162.147 238,-96 248.262,-86.0343 263.83,-81.2955 276.254,-80.3622"/>
<polygon fill="midnightblue" stroke="midnightblue" points="146.527,-332.057 149.363,-342.265 153.511,-332.516 146.527,-332.057"/>
</g>
<!-- Node1&#45;&gt;Node29 -->
<g id="edge82" class="edge"><title>Node1&#45;&gt;Node29</title>
<path fill="none" stroke="midnightblue" d="M150.857,-332.485C155.892,-287.321 174.094,-176.062 238,-114 248.414,-103.887 264.292,-99.1563 276.804,-95.5644"/>
<polygon fill="midnightblue" stroke="midnightblue" points="147.371,-332.17 149.84,-342.473 154.335,-332.879 147.371,-332.17"/>
</g>
<!-- Node30 -->
<g id="node72" class="node"><title>Node30</title>
<a xlink:href="class_solenoid.html" target="_top" xlink:title="Solenoid">
<polygon fill="white" stroke="black" points="270,-38.5 270,-57.5 324,-57.5 324,-38.5 270,-38.5"/>
<text text-anchor="middle" x="297" y="-45.5" font-family="Helvetica,sans-Serif" font-size="10.00">Solenoid</text>
</a>
</g>
<!-- Node1&#45;&gt;Node30 -->
<g id="edge84" class="edge"><title>Node1&#45;&gt;Node30</title>
<path fill="none" stroke="midnightblue" d="M149.155,-332.297C150.491,-279.643 161.025,-136.052 238,-58 246.408,-49.4749 258.693,-44.7739 269.796,-42.9561"/>
<polygon fill="midnightblue" stroke="midnightblue" points="145.654,-332.3 148.987,-342.357 152.653,-332.417 145.654,-332.3"/>
</g>
<!-- Node1&#45;&gt;Node30 -->
<g id="edge86" class="edge"><title>Node1&#45;&gt;Node30</title>
<path fill="none" stroke="midnightblue" d="M149.466,-332.303C151.84,-282.147 165.231,-149.787 238,-76 248.044,-65.8152 263.624,-61.0884 276.108,-57.5756"/>
<polygon fill="midnightblue" stroke="midnightblue" points="145.962,-332.338 149.088,-342.461 152.957,-332.598 145.962,-332.338"/>
</g>
<!-- Node31 -->
<g id="node75" class="node"><title>Node31</title>
<a xlink:href="class_ultrasonic.html" target="_top" xlink:title="Ultrasonic">
<polygon fill="white" stroke="black" points="267,-0.5 267,-19.5 327,-19.5 327,-0.5 267,-0.5"/>
<text text-anchor="middle" x="297" y="-7.5" font-family="Helvetica,sans-Serif" font-size="10.00">Ultrasonic</text>
</a>
</g>
<!-- Node1&#45;&gt;Node31 -->
<g id="edge88" class="edge"><title>Node1&#45;&gt;Node31</title>
<path fill="none" stroke="midnightblue" d="M148.413,-331.959C147.898,-276.071 154.25,-116.843 238,-29 245.604,-21.0242 256.602,-16.393 266.982,-13.7052"/>
<polygon fill="midnightblue" stroke="midnightblue" points="144.919,-332.32 148.602,-342.254 151.918,-332.191 144.919,-332.32"/>
</g>
<!-- Node2 -->
<g id="node2" class="node"><title>Node2</title>
<a xlink:href="class_sendable.html" target="_top" xlink:title="Sendable">
<polygon fill="white" stroke="black" points="0.5,-342.5 0.5,-361.5 57.5,-361.5 57.5,-342.5 0.5,-342.5"/>
<text text-anchor="middle" x="29" y="-349.5" font-family="Helvetica,sans-Serif" font-size="10.00">Sendable</text>
</a>
</g>
<!-- Node2&#45;&gt;Node1 -->
<g id="edge2" class="edge"><title>Node2&#45;&gt;Node1</title>
<path fill="none" stroke="midnightblue" d="M67.8155,-352C76.0948,-352 85.0086,-352 93.7638,-352"/>
<polygon fill="midnightblue" stroke="midnightblue" points="67.7274,-348.5 57.7274,-352 67.7273,-355.5 67.7274,-348.5"/>
</g>
<!-- Node13 -->
<g id="node27" class="node"><title>Node13</title>
<a xlink:href="class_gear_tooth.html" target="_top" xlink:title="GearTooth">
<polygon fill="white" stroke="black" points="392,-418.5 392,-437.5 454,-437.5 454,-418.5 392,-418.5"/>
<text text-anchor="middle" x="423" y="-425.5" font-family="Helvetica,sans-Serif" font-size="10.00">GearTooth</text>
</a>
</g>
<!-- Node12&#45;&gt;Node13 -->
<g id="edge28" class="edge"><title>Node12&#45;&gt;Node13</title>
<path fill="none" stroke="midnightblue" d="M332.335,-428C350.953,-428 373.758,-428 391.71,-428"/>
<polygon fill="midnightblue" stroke="midnightblue" points="332.203,-424.5 322.203,-428 332.203,-431.5 332.203,-424.5"/>
</g>
<!-- Node22 -->
<g id="node50" class="node"><title>Node22</title>
<a xlink:href="class_safe_p_w_m.html" target="_top" xlink:title="SafePWM">
<polygon fill="white" stroke="black" points="392.5,-114.5 392.5,-133.5 453.5,-133.5 453.5,-114.5 392.5,-114.5"/>
<text text-anchor="middle" x="423" y="-121.5" font-family="Helvetica,sans-Serif" font-size="10.00">SafePWM</text>
</a>
</g>
<!-- Node21&#45;&gt;Node22 -->
<g id="edge56" class="edge"><title>Node21&#45;&gt;Node22</title>
<path fill="none" stroke="midnightblue" d="M327.816,-118.134C347.344,-116.954 372.766,-116.955 392.276,-118.139"/>
<polygon fill="midnightblue" stroke="midnightblue" points="327.352,-114.659 317.648,-118.911 327.886,-121.639 327.352,-114.659"/>
</g>
<!-- Node21&#45;&gt;Node22 -->
<g id="edge76" class="edge"><title>Node21&#45;&gt;Node22</title>
<path fill="none" stroke="midnightblue" d="M327.816,-129.866C347.344,-131.046 372.766,-131.045 392.276,-129.861"/>
<polygon fill="midnightblue" stroke="midnightblue" points="327.886,-126.361 317.648,-129.089 327.352,-133.341 327.886,-126.361"/>
</g>
<!-- Node23 -->
<g id="node52" class="node"><title>Node23</title>
<a xlink:href="class_jaguar.html" target="_top" xlink:title="Jaguar">
<polygon fill="white" stroke="black" points="497.5,-190.5 497.5,-209.5 542.5,-209.5 542.5,-190.5 497.5,-190.5"/>
<text text-anchor="middle" x="520" y="-197.5" font-family="Helvetica,sans-Serif" font-size="10.00">Jaguar</text>
</a>
</g>
<!-- Node22&#45;&gt;Node23 -->
<g id="edge58" class="edge"><title>Node22&#45;&gt;Node23</title>
<path fill="none" stroke="midnightblue" d="M450.607,-140.126C462.38,-149.81 476.577,-161.876 490,-172 497.881,-177.944 507.566,-184.07 513.509,-190.071"/>
<polygon fill="midnightblue" stroke="midnightblue" points="452.48,-137.139 442.508,-133.558 448.07,-142.575 452.48,-137.139"/>
</g>
<!-- Node22&#45;&gt;Node23 -->
<g id="edge60" class="edge"><title>Node22&#45;&gt;Node23</title>
<path fill="none" stroke="midnightblue" d="M435.409,-141.241C448.268,-155.506 469.993,-174.911 490,-190 492.307,-191.74 494.768,-193.495 497.245,-195.139"/>
<polygon fill="midnightblue" stroke="midnightblue" points="438.042,-138.935 428.943,-133.508 432.672,-143.425 438.042,-138.935"/>
</g>
<!-- Node24 -->
<g id="node55" class="node"><title>Node24</title>
<a xlink:href="class_servo.html" target="_top" xlink:title="Servo">
<polygon fill="white" stroke="black" points="499.5,-152.5 499.5,-171.5 540.5,-171.5 540.5,-152.5 499.5,-152.5"/>
<text text-anchor="middle" x="520" y="-159.5" font-family="Helvetica,sans-Serif" font-size="10.00">Servo</text>
</a>
</g>
<!-- Node22&#45;&gt;Node24 -->
<g id="edge62" class="edge"><title>Node22&#45;&gt;Node24</title>
<path fill="none" stroke="midnightblue" d="M457.301,-137.321C471.292,-142.917 487.092,-149.237 499.201,-154.08"/>
<polygon fill="midnightblue" stroke="midnightblue" points="458.557,-134.053 447.973,-133.589 455.957,-140.553 458.557,-134.053"/>
</g>
<!-- Node25 -->
<g id="node57" class="node"><title>Node25</title>
<a xlink:href="class_talon.html" target="_top" xlink:title="Talon">
<polygon fill="white" stroke="black" points="500,-114.5 500,-133.5 540,-133.5 540,-114.5 500,-114.5"/>
<text text-anchor="middle" x="520" y="-121.5" font-family="Helvetica,sans-Serif" font-size="10.00">Talon</text>
</a>
</g>
<!-- Node22&#45;&gt;Node25 -->
<g id="edge64" class="edge"><title>Node22&#45;&gt;Node25</title>
<path fill="none" stroke="midnightblue" d="M463.806,-117.329C476.329,-117.069 489.585,-117.449 499.966,-118.47"/>
<polygon fill="midnightblue" stroke="midnightblue" points="463.406,-113.841 453.538,-117.699 463.657,-120.837 463.406,-113.841"/>
</g>
<!-- Node22&#45;&gt;Node25 -->
<g id="edge66" class="edge"><title>Node22&#45;&gt;Node25</title>
<path fill="none" stroke="midnightblue" d="M463.806,-130.671C476.329,-130.931 489.585,-130.551 499.966,-129.53"/>
<polygon fill="midnightblue" stroke="midnightblue" points="463.657,-127.163 453.538,-130.301 463.406,-134.159 463.657,-127.163"/>
</g>
<!-- Node26 -->
<g id="node60" class="node"><title>Node26</title>
<a xlink:href="class_talon_s_r_x.html" target="_top" xlink:title="TalonSRX">
<polygon fill="white" stroke="black" points="490.5,-76.5 490.5,-95.5 549.5,-95.5 549.5,-76.5 490.5,-76.5"/>
<text text-anchor="middle" x="520" y="-83.5" font-family="Helvetica,sans-Serif" font-size="10.00">TalonSRX</text>
</a>
</g>
<!-- Node22&#45;&gt;Node26 -->
<g id="edge68" class="edge"><title>Node22&#45;&gt;Node26</title>
<path fill="none" stroke="midnightblue" d="M457.529,-110.589C469.906,-105.638 483.673,-100.131 495.035,-95.5859"/>
<polygon fill="midnightblue" stroke="midnightblue" points="455.957,-107.447 447.973,-114.411 458.557,-113.947 455.957,-107.447"/>
</g>
<!-- Node27 -->
<g id="node62" class="node"><title>Node27</title>
<a xlink:href="class_victor.html" target="_top" xlink:title="Victor">
<polygon fill="white" stroke="black" points="499,-38.5 499,-57.5 541,-57.5 541,-38.5 499,-38.5"/>
<text text-anchor="middle" x="520" y="-45.5" font-family="Helvetica,sans-Serif" font-size="10.00">Victor</text>
</a>
</g>
<!-- Node22&#45;&gt;Node27 -->
<g id="edge70" class="edge"><title>Node22&#45;&gt;Node27</title>
<path fill="none" stroke="midnightblue" d="M435.409,-106.759C448.268,-92.4938 469.993,-73.0891 490,-58 492.787,-55.8979 495.8,-53.773 498.793,-51.8483"/>
<polygon fill="midnightblue" stroke="midnightblue" points="432.672,-104.575 428.943,-114.492 438.042,-109.065 432.672,-104.575"/>
</g>
<!-- Node22&#45;&gt;Node27 -->
<g id="edge72" class="edge"><title>Node22&#45;&gt;Node27</title>
<path fill="none" stroke="midnightblue" d="M450.607,-107.874C462.38,-98.1896 476.577,-86.1235 490,-76 497.881,-70.0561 507.566,-63.9302 513.509,-57.9287"/>
<polygon fill="midnightblue" stroke="midnightblue" points="448.07,-105.425 442.508,-114.442 452.48,-110.861 448.07,-105.425"/>
</g>
<!-- Node28 -->
<g id="node65" class="node"><title>Node28</title>
<a xlink:href="class_victor_s_p.html" target="_top" xlink:title="VictorSP">
<polygon fill="white" stroke="black" points="492,-0.5 492,-19.5 548,-19.5 548,-0.5 492,-0.5"/>
<text text-anchor="middle" x="520" y="-7.5" font-family="Helvetica,sans-Serif" font-size="10.00">VictorSP</text>
</a>
</g>
<!-- Node22&#45;&gt;Node28 -->
<g id="edge74" class="edge"><title>Node22&#45;&gt;Node28</title>
<path fill="none" stroke="midnightblue" d="M433.907,-105.6C445.485,-85.2368 466.129,-52.2308 490,-29 493.537,-25.5577 497.784,-22.3713 501.922,-19.6299"/>
<polygon fill="midnightblue" stroke="midnightblue" points="430.77,-104.041 428.977,-114.483 436.89,-107.438 430.77,-104.041"/>
</g>
</g>
</svg>
