<?xml version="1.0" encoding="UTF-8" standalone="no"?>
<!DOCTYPE svg PUBLIC "-//W3C//DTD SVG 1.1//EN"
 "http://www.w3.org/Graphics/SVG/1.1/DTD/svg11.dtd">
<!-- Generated by graphviz version 2.28.0 (20110507.0327)
 -->
<!-- Title: MotorSafetyHelper Pages: 1 -->
<svg width="111pt" height="164pt"
 viewBox="0.00 0.00 111.00 164.00" xmlns="http://www.w3.org/2000/svg" xmlns:xlink="http://www.w3.org/1999/xlink">
<g id="graph1" class="graph" transform="scale(1 1) rotate(0) translate(4 160)">
<title>MotorSafetyHelper</title>
<polygon fill="white" stroke="white" points="-4,5 -4,-160 108,-160 108,5 -4,5"/>
<!-- Node1 -->
<g id="node1" class="node"><title>Node1</title>
<polygon fill="#bfbfbf" stroke="black" points="-0.5,-0.5 -0.5,-19.5 96.5,-19.5 96.5,-0.5 -0.5,-0.5"/>
<text text-anchor="middle" x="48" y="-7.5" font-family="Helvetica,sans-Serif" font-size="10.00">MotorSafetyHelper</text>
</g>
<!-- Node2 -->
<g id="node2" class="node"><title>Node2</title>
<a xlink:href="class_error_base.html" target="_top" xlink:title="ErrorBase">
<polygon fill="white" stroke="black" points="18,-58.5 18,-77.5 78,-77.5 78,-58.5 18,-58.5"/>
<text text-anchor="middle" x="48" y="-65.5" font-family="Helvetica,sans-Serif" font-size="10.00">ErrorBase</text>
</a>
</g>
<!-- Node2&#45;&gt;Node1 -->
<g id="edge2" class="edge"><title>Node2&#45;&gt;Node1</title>
<path fill="none" stroke="midnightblue" d="M41.59,-48.2677C40.8505,-38.5326 41.3174,-27.113 42.9906,-19.5052"/>
<polygon fill="midnightblue" stroke="midnightblue" points="38.1311,-48.8081 42.9375,-58.25 45.0682,-47.8716 38.1311,-48.8081"/>
</g>
<!-- Node2&#45;&gt;Node1 -->
<g id="edge6" class="edge"><title>Node2&#45;&gt;Node1</title>
<path fill="none" stroke="midnightblue" d="M54.41,-48.2677C55.1495,-38.5326 54.6826,-27.113 53.0094,-19.5052"/>
<polygon fill="midnightblue" stroke="midnightblue" points="50.9318,-47.8716 53.0625,-58.25 57.8689,-48.8081 50.9318,-47.8716"/>
</g>
<!-- Node3 -->
<g id="node4" class="node"><title>Node3</title>
<a xlink:href="class_error.html" target="_top" xlink:title="Error">
<polygon fill="white" stroke="black" points="29,-136.5 29,-155.5 67,-155.5 67,-136.5 29,-136.5"/>
<text text-anchor="middle" x="48" y="-143.5" font-family="Helvetica,sans-Serif" font-size="10.00">Error</text>
</a>
</g>
<!-- Node3&#45;&gt;Node2 -->
<g id="edge4" class="edge"><title>Node3&#45;&gt;Node2</title>
<path fill="none" stroke="#9a32cd" stroke-dasharray="5,2" d="M48,-126.224C48,-110.697 48,-89.3582 48,-77.6165"/>
<polygon fill="#9a32cd" stroke="#9a32cd" points="44.5001,-126.282 48,-136.282 51.5001,-126.282 44.5001,-126.282"/>
<text text-anchor="middle" x="75.5" y="-110" font-family="Helvetica,sans-Serif" font-size="10.00"> _globalError</text>
<text text-anchor="middle" x="75.5" y="-99" font-family="Helvetica,sans-Serif" font-size="10.00">m_error</text>
</g>
</g>
</svg>
