<?xml version="1.0" encoding="UTF-8" standalone="no"?>
<!DOCTYPE svg PUBLIC "-//W3C//DTD SVG 1.1//EN"
 "http://www.w3.org/Graphics/SVG/1.1/DTD/svg11.dtd">
<!-- Generated by graphviz version 2.28.0 (20110507.0327)
 -->
<!-- Title: PIDSource Pages: 1 -->
<svg width="362pt" height="294pt"
 viewBox="0.00 0.00 362.00 294.00" xmlns="http://www.w3.org/2000/svg" xmlns:xlink="http://www.w3.org/1999/xlink">
<g id="graph1" class="graph" transform="scale(1 1) rotate(0) translate(4 290)">
<title>PIDSource</title>
<polygon fill="white" stroke="white" points="-4,5 -4,-290 359,-290 359,5 -4,5"/>
<!-- Node1 -->
<g id="node1" class="node"><title>Node1</title>
<polygon fill="#bfbfbf" stroke="black" points="0.5,-152.5 0.5,-171.5 63.5,-171.5 63.5,-152.5 0.5,-152.5"/>
<text text-anchor="middle" x="32" y="-159.5" font-family="Helvetica,sans-Serif" font-size="10.00">PIDSource</text>
</g>
<!-- Node2 -->
<g id="node3" class="node"><title>Node2</title>
<a xlink:href="class_analog_accelerometer.html" target="_top" xlink:title="AnalogAccelerometer">
<polygon fill="white" stroke="black" points="100,-266.5 100,-285.5 210,-285.5 210,-266.5 100,-266.5"/>
<text text-anchor="middle" x="155" y="-273.5" font-family="Helvetica,sans-Serif" font-size="10.00">AnalogAccelerometer</text>
</a>
</g>
<!-- Node1&#45;&gt;Node2 -->
<g id="edge2" class="edge"><title>Node1&#45;&gt;Node2</title>
<path fill="none" stroke="midnightblue" d="M41.6553,-180.581C52.4698,-201.888 72.9006,-236.508 100,-257 105.073,-260.836 110.985,-263.942 116.999,-266.443"/>
<polygon fill="midnightblue" stroke="midnightblue" points="44.7868,-179.017 37.2525,-171.568 38.4972,-182.089 44.7868,-179.017"/>
</g>
<!-- Node3 -->
<g id="node5" class="node"><title>Node3</title>
<a xlink:href="class_analog_input.html" target="_top" xlink:title="AnalogInput">
<polygon fill="white" stroke="black" points="121,-228.5 121,-247.5 189,-247.5 189,-228.5 121,-228.5"/>
<text text-anchor="middle" x="155" y="-235.5" font-family="Helvetica,sans-Serif" font-size="10.00">AnalogInput</text>
</a>
</g>
<!-- Node1&#45;&gt;Node3 -->
<g id="edge4" class="edge"><title>Node1&#45;&gt;Node3</title>
<path fill="none" stroke="midnightblue" d="M57.3581,-178.364C69.3949,-188.601 84.6158,-201.158 100,-210 113.614,-217.824 130.993,-223.228 142.304,-228.335"/>
<polygon fill="midnightblue" stroke="midnightblue" points="59.4503,-175.548 49.5708,-171.721 54.9075,-180.874 59.4503,-175.548"/>
</g>
<!-- Node1&#45;&gt;Node3 -->
<g id="edge6" class="edge"><title>Node1&#45;&gt;Node3</title>
<path fill="none" stroke="midnightblue" d="M43.6035,-179.72C56.0642,-194.861 77.8629,-215.277 100,-228 106.463,-231.714 113.773,-234.883 120.881,-237.281"/>
<polygon fill="midnightblue" stroke="midnightblue" points="46.2296,-177.39 37.4139,-171.513 40.6407,-181.604 46.2296,-177.39"/>
</g>
<!-- Node4 -->
<g id="node8" class="node"><title>Node4</title>
<a xlink:href="class_encoder.html" target="_top" xlink:title="Encoder">
<polygon fill="white" stroke="black" points="128.5,-190.5 128.5,-209.5 181.5,-209.5 181.5,-190.5 128.5,-190.5"/>
<text text-anchor="middle" x="155" y="-197.5" font-family="Helvetica,sans-Serif" font-size="10.00">Encoder</text>
</a>
</g>
<!-- Node1&#45;&gt;Node4 -->
<g id="edge8" class="edge"><title>Node1&#45;&gt;Node4</title>
<path fill="none" stroke="midnightblue" d="M73.4655,-168.298C95.8241,-174.534 122.298,-183.425 138.622,-190.491"/>
<polygon fill="midnightblue" stroke="midnightblue" points="74.0986,-164.845 63.5334,-165.637 72.2864,-171.606 74.0986,-164.845"/>
</g>
<!-- Node1&#45;&gt;Node4 -->
<g id="edge10" class="edge"><title>Node1&#45;&gt;Node4</title>
<path fill="none" stroke="midnightblue" d="M58.1799,-175.509C78.7732,-183.499 107.769,-192.614 128.459,-197.606"/>
<polygon fill="midnightblue" stroke="midnightblue" points="59.4003,-172.227 48.8186,-171.699 56.7619,-178.71 59.4003,-172.227"/>
</g>
<!-- Node5 -->
<g id="node11" class="node"><title>Node5</title>
<a xlink:href="class_gyro.html" target="_top" xlink:title="Gyro">
<polygon fill="white" stroke="black" points="136,-152.5 136,-171.5 174,-171.5 174,-152.5 136,-152.5"/>
<text text-anchor="middle" x="155" y="-159.5" font-family="Helvetica,sans-Serif" font-size="10.00">Gyro</text>
</a>
</g>
<!-- Node1&#45;&gt;Node5 -->
<g id="edge12" class="edge"><title>Node1&#45;&gt;Node5</title>
<path fill="none" stroke="midnightblue" d="M73.5609,-155.587C94.6926,-154.848 119.478,-155.325 135.893,-157.018"/>
<polygon fill="midnightblue" stroke="midnightblue" points="73.3622,-152.092 63.5334,-156.048 73.6835,-159.085 73.3622,-152.092"/>
</g>
<!-- Node1&#45;&gt;Node5 -->
<g id="edge14" class="edge"><title>Node1&#45;&gt;Node5</title>
<path fill="none" stroke="midnightblue" d="M73.5609,-168.413C94.6926,-169.152 119.478,-168.675 135.893,-166.982"/>
<polygon fill="midnightblue" stroke="midnightblue" points="73.6835,-164.915 63.5334,-167.952 73.3622,-171.908 73.6835,-164.915"/>
</g>
<!-- Node6 -->
<g id="node14" class="node"><title>Node6</title>
<a xlink:href="class_p_i_d_command.html" target="_top" xlink:title="PIDCommand">
<polygon fill="white" stroke="black" points="116.5,-114.5 116.5,-133.5 193.5,-133.5 193.5,-114.5 116.5,-114.5"/>
<text text-anchor="middle" x="155" y="-121.5" font-family="Helvetica,sans-Serif" font-size="10.00">PIDCommand</text>
</a>
</g>
<!-- Node1&#45;&gt;Node6 -->
<g id="edge16" class="edge"><title>Node1&#45;&gt;Node6</title>
<path fill="none" stroke="midnightblue" d="M73.3771,-149.32C89.7262,-144.185 108.288,-138.356 123.476,-133.586"/>
<polygon fill="midnightblue" stroke="midnightblue" points="72.0253,-146.076 63.5334,-152.411 74.1227,-152.754 72.0253,-146.076"/>
</g>
<!-- Node7 -->
<g id="node16" class="node"><title>Node7</title>
<a xlink:href="class_p_i_d_subsystem.html" target="_top" xlink:title="PIDSubsystem">
<polygon fill="white" stroke="black" points="114,-76.5 114,-95.5 196,-95.5 196,-76.5 114,-76.5"/>
<text text-anchor="middle" x="155" y="-83.5" font-family="Helvetica,sans-Serif" font-size="10.00">PIDSubsystem</text>
</a>
</g>
<!-- Node1&#45;&gt;Node7 -->
<g id="edge18" class="edge"><title>Node1&#45;&gt;Node7</title>
<path fill="none" stroke="midnightblue" d="M49.2779,-145.133C62.0928,-132.645 80.9207,-115.965 100,-105 106.376,-101.335 113.578,-98.2018 120.596,-95.5984"/>
<polygon fill="midnightblue" stroke="midnightblue" points="46.7274,-142.733 42.1274,-152.277 51.6752,-147.685 46.7274,-142.733"/>
</g>
<!-- Node8 -->
<g id="node18" class="node"><title>Node8</title>
<a xlink:href="class_potentiometer.html" target="_top" xlink:title="Potentiometer">
<polygon fill="white" stroke="black" points="116.5,-38.5 116.5,-57.5 193.5,-57.5 193.5,-38.5 116.5,-38.5"/>
<text text-anchor="middle" x="155" y="-45.5" font-family="Helvetica,sans-Serif" font-size="10.00">Potentiometer</text>
</a>
</g>
<!-- Node1&#45;&gt;Node8 -->
<g id="edge20" class="edge"><title>Node1&#45;&gt;Node8</title>
<path fill="none" stroke="midnightblue" d="M41.6553,-143.419C52.4698,-122.112 72.9006,-87.4916 100,-67 105.073,-63.1637 110.985,-60.058 116.999,-57.5574"/>
<polygon fill="midnightblue" stroke="midnightblue" points="38.4972,-141.911 37.2525,-152.432 44.7868,-144.983 38.4972,-141.911"/>
</g>
<!-- Node10 -->
<g id="node23" class="node"><title>Node10</title>
<a xlink:href="class_ultrasonic.html" target="_top" xlink:title="Ultrasonic">
<polygon fill="white" stroke="black" points="125,-0.5 125,-19.5 185,-19.5 185,-0.5 125,-0.5"/>
<text text-anchor="middle" x="155" y="-7.5" font-family="Helvetica,sans-Serif" font-size="10.00">Ultrasonic</text>
</a>
</g>
<!-- Node1&#45;&gt;Node10 -->
<g id="edge26" class="edge"><title>Node1&#45;&gt;Node10</title>
<path fill="none" stroke="midnightblue" d="M37.8363,-142.388C45.9198,-113.578 64.8605,-59.8966 100,-29 107.016,-22.8313 116.16,-18.631 124.924,-15.7853"/>
<polygon fill="midnightblue" stroke="midnightblue" points="34.3524,-141.872 35.1786,-152.435 41.1196,-143.662 34.3524,-141.872"/>
</g>
<!-- Node9 -->
<g id="node20" class="node"><title>Node9</title>
<a xlink:href="class_analog_potentiometer.html" target="_top" xlink:title="AnalogPotentiometer">
<polygon fill="white" stroke="black" points="246.5,-38.5 246.5,-57.5 353.5,-57.5 353.5,-38.5 246.5,-38.5"/>
<text text-anchor="middle" x="300" y="-45.5" font-family="Helvetica,sans-Serif" font-size="10.00">AnalogPotentiometer</text>
</a>
</g>
<!-- Node8&#45;&gt;Node9 -->
<g id="edge22" class="edge"><title>Node8&#45;&gt;Node9</title>
<path fill="none" stroke="midnightblue" d="M203.737,-41.5929C217.416,-41.1841 232.403,-41.1408 246.358,-41.4632"/>
<polygon fill="midnightblue" stroke="midnightblue" points="203.432,-38.1018 193.572,-41.9767 203.697,-45.0968 203.432,-38.1018"/>
</g>
<!-- Node8&#45;&gt;Node9 -->
<g id="edge24" class="edge"><title>Node8&#45;&gt;Node9</title>
<path fill="none" stroke="midnightblue" d="M203.737,-54.4071C217.416,-54.8159 232.403,-54.8592 246.358,-54.5368"/>
<polygon fill="midnightblue" stroke="midnightblue" points="203.697,-50.9032 193.572,-54.0233 203.432,-57.8982 203.697,-50.9032"/>
</g>
</g>
</svg>
