<?xml version="1.0" encoding="UTF-8" standalone="no"?>
<!DOCTYPE svg PUBLIC "-//W3C//DTD SVG 1.1//EN"
 "http://www.w3.org/Graphics/SVG/1.1/DTD/svg11.dtd">
<!-- Generated by graphviz version 2.28.0 (20110507.0327)
 -->
<!-- Title: CANJaguar::SetD Pages: 1 -->
<svg width="592pt" height="161pt"
 viewBox="0.00 0.00 592.00 161.00" xmlns="http://www.w3.org/2000/svg" xmlns:xlink="http://www.w3.org/1999/xlink">
<g id="graph1" class="graph" transform="scale(1 1) rotate(0) translate(4 157)">
<title>CANJaguar::SetD</title>
<polygon fill="white" stroke="white" points="-4,5 -4,-157 589,-157 589,5 -4,5"/>
<!-- Node1 -->
<g id="node1" class="node"><title>Node1</title>
<polygon fill="#bfbfbf" stroke="black" points="0.5,-75.5 0.5,-94.5 93.5,-94.5 93.5,-75.5 0.5,-75.5"/>
<text text-anchor="middle" x="47" y="-82.5" font-family="Helvetica,sans-Serif" font-size="10.00">CANJaguar::SetD</text>
</g>
<!-- Node2 -->
<g id="node3" class="node"><title>Node2</title>
<a xlink:href="class_c_a_n_jaguar.html#a97fe9cb246f90060495c808e31070650" target="_top" xlink:title="CANJaguar::verify">
<polygon fill="white" stroke="black" points="134.5,-104.5 134.5,-123.5 227.5,-123.5 227.5,-104.5 134.5,-104.5"/>
<text text-anchor="middle" x="181" y="-111.5" font-family="Helvetica,sans-Serif" font-size="10.00">CANJaguar::verify</text>
</a>
</g>
<!-- Node1&#45;&gt;Node2 -->
<g id="edge2" class="edge"><title>Node1&#45;&gt;Node2</title>
<path fill="none" stroke="midnightblue" d="M101.599,-96.7756C113.19,-99.3219 125.309,-101.985 136.458,-104.434"/>
<polygon fill="midnightblue" stroke="midnightblue" points="102.106,-93.3035 91.5876,-94.5761 100.604,-100.14 102.106,-93.3035"/>
</g>
<!-- Node6 -->
<g id="node11" class="node"><title>Node6</title>
<a xlink:href="class_c_a_n_jaguar.html#a27a017dfbfbb580251b4dd342ccbfd6d" target="_top" xlink:title="CANJaguar::SetPID">
<polygon fill="white" stroke="black" points="130,-47.5 130,-66.5 232,-66.5 232,-47.5 130,-47.5"/>
<text text-anchor="middle" x="181" y="-54.5" font-family="Helvetica,sans-Serif" font-size="10.00">CANJaguar::SetPID</text>
</a>
</g>
<!-- Node1&#45;&gt;Node6 -->
<g id="edge10" class="edge"><title>Node1&#45;&gt;Node6</title>
<path fill="none" stroke="midnightblue" d="M103.129,-73.306C113.797,-71.0431 124.855,-68.6975 135.145,-66.5146"/>
<polygon fill="midnightblue" stroke="midnightblue" points="102.114,-69.9434 93.0577,-75.4423 103.566,-76.791 102.114,-69.9434"/>
</g>
<!-- Node3 -->
<g id="node5" class="node"><title>Node3</title>
<a xlink:href="class_c_a_n_jaguar.html#a3a22b02ece406993619f993b1e09012a" target="_top" xlink:title="CANJaguar::Set">
<polygon fill="white" stroke="black" points="298,-114.5 298,-133.5 384,-133.5 384,-114.5 298,-114.5"/>
<text text-anchor="middle" x="341" y="-121.5" font-family="Helvetica,sans-Serif" font-size="10.00">CANJaguar::Set</text>
</a>
</g>
<!-- Node2&#45;&gt;Node3 -->
<g id="edge4" class="edge"><title>Node2&#45;&gt;Node3</title>
<path fill="none" stroke="midnightblue" d="M237.815,-117.533C257.586,-118.784 279.481,-120.17 297.917,-121.336"/>
<polygon fill="midnightblue" stroke="midnightblue" points="237.901,-114.031 227.7,-116.892 237.459,-121.017 237.901,-114.031"/>
</g>
<!-- Node4 -->
<g id="node7" class="node"><title>Node4</title>
<a xlink:href="class_c_a_n_jaguar.html#a2355d55f42083ab82870c79f742620e4" target="_top" xlink:title="CANJaguar::PIDWrite">
<polygon fill="white" stroke="black" points="462,-133.5 462,-152.5 572,-152.5 572,-133.5 462,-133.5"/>
<text text-anchor="middle" x="517" y="-140.5" font-family="Helvetica,sans-Serif" font-size="10.00">CANJaguar::PIDWrite</text>
</a>
</g>
<!-- Node3&#45;&gt;Node4 -->
<g id="edge6" class="edge"><title>Node3&#45;&gt;Node4</title>
<path fill="none" stroke="midnightblue" d="M394.288,-129.71C415.602,-132.037 440.24,-134.727 461.75,-137.076"/>
<polygon fill="midnightblue" stroke="midnightblue" points="394.441,-126.206 384.121,-128.599 393.682,-133.164 394.441,-126.206"/>
</g>
<!-- Node5 -->
<g id="node9" class="node"><title>Node5</title>
<a xlink:href="class_c_a_n_jaguar_test.html#a3c9026e62eb65e2d497bb7bbfaded297" target="_top" xlink:title="CANJaguarTest::SetJaguar">
<polygon fill="white" stroke="black" points="450,-95.5 450,-114.5 584,-114.5 584,-95.5 450,-95.5"/>
<text text-anchor="middle" x="517" y="-102.5" font-family="Helvetica,sans-Serif" font-size="10.00">CANJaguarTest::SetJaguar</text>
</a>
</g>
<!-- Node3&#45;&gt;Node5 -->
<g id="edge8" class="edge"><title>Node3&#45;&gt;Node5</title>
<path fill="none" stroke="midnightblue" d="M394.138,-118.307C411.64,-116.396 431.398,-114.238 449.83,-112.225"/>
<polygon fill="midnightblue" stroke="midnightblue" points="393.682,-114.836 384.121,-119.401 394.441,-121.794 393.682,-114.836"/>
</g>
<!-- Node7 -->
<g id="node13" class="node"><title>Node7</title>
<a xlink:href="class_c_a_n_jaguar.html#ae0b07bf7199611ea8e2e04109b08a3ad" target="_top" xlink:title="CANJaguar::SetCurrentMode">
<polygon fill="white" stroke="black" points="270,-76.5 270,-95.5 412,-95.5 412,-76.5 270,-76.5"/>
<text text-anchor="middle" x="341" y="-83.5" font-family="Helvetica,sans-Serif" font-size="10.00">CANJaguar::SetCurrentMode</text>
</a>
</g>
<!-- Node6&#45;&gt;Node7 -->
<g id="edge12" class="edge"><title>Node6&#45;&gt;Node7</title>
<path fill="none" stroke="midnightblue" d="M242.641,-68.1304C257.653,-70.8857 273.602,-73.813 288.151,-76.4835"/>
<polygon fill="midnightblue" stroke="midnightblue" points="242.894,-64.6184 232.427,-66.2555 241.63,-71.5034 242.894,-64.6184"/>
</g>
<!-- Node8 -->
<g id="node15" class="node"><title>Node8</title>
<a xlink:href="class_c_a_n_jaguar.html#aa02549873d5551b00d3f2bdb08709e5a" target="_top" xlink:title="CANJaguar::SetSpeedMode">
<polygon fill="white" stroke="black" points="272,-38.5 272,-57.5 410,-57.5 410,-38.5 272,-38.5"/>
<text text-anchor="middle" x="341" y="-45.5" font-family="Helvetica,sans-Serif" font-size="10.00">CANJaguar::SetSpeedMode</text>
</a>
</g>
<!-- Node6&#45;&gt;Node8 -->
<g id="edge14" class="edge"><title>Node6&#45;&gt;Node8</title>
<path fill="none" stroke="midnightblue" d="M242.637,-53.546C252.211,-53.0007 262.165,-52.4336 271.895,-51.8794"/>
<polygon fill="midnightblue" stroke="midnightblue" points="242.211,-50.0645 232.427,-54.1276 242.609,-57.0531 242.211,-50.0645"/>
</g>
<!-- Node9 -->
<g id="node17" class="node"><title>Node9</title>
<a xlink:href="class_c_a_n_jaguar.html#a870f456a238bb9c55552b94cd86faad0" target="_top" xlink:title="CANJaguar::SetPositionMode">
<polygon fill="white" stroke="black" points="268,-0.5 268,-19.5 414,-19.5 414,-0.5 268,-0.5"/>
<text text-anchor="middle" x="341" y="-7.5" font-family="Helvetica,sans-Serif" font-size="10.00">CANJaguar::SetPositionMode</text>
</a>
</g>
<!-- Node6&#45;&gt;Node9 -->
<g id="edge16" class="edge"><title>Node6&#45;&gt;Node9</title>
<path fill="none" stroke="midnightblue" d="M220.038,-44.1019C234.937,-39.1848 252.213,-33.649 268,-29 279.037,-25.7498 291.102,-22.4631 302.147,-19.558"/>
<polygon fill="midnightblue" stroke="midnightblue" points="218.535,-40.9128 210.15,-47.3887 220.744,-47.5555 218.535,-40.9128"/>
</g>
</g>
</svg>
