<?xml version="1.0" encoding="UTF-8" standalone="no"?>
<!DOCTYPE svg PUBLIC "-//W3C//DTD SVG 1.1//EN"
 "http://www.w3.org/Graphics/SVG/1.1/DTD/svg11.dtd">
<!-- Generated by graphviz version 2.28.0 (20110507.0327)
 -->
<!-- Title: AnalogTrigger Pages: 1 -->
<svg width="101pt" height="222pt"
 viewBox="0.00 0.00 101.00 222.00" xmlns="http://www.w3.org/2000/svg" xmlns:xlink="http://www.w3.org/1999/xlink">
<g id="graph1" class="graph" transform="scale(1 1) rotate(0) translate(4 218)">
<title>AnalogTrigger</title>
<polygon fill="white" stroke="white" points="-4,5 -4,-218 98,-218 98,5 -4,5"/>
<!-- Node1 -->
<g id="node1" class="node"><title>Node1</title>
<polygon fill="#bfbfbf" stroke="black" points="0,-0.5 0,-19.5 76,-19.5 76,-0.5 0,-0.5"/>
<text text-anchor="middle" x="38" y="-7.5" font-family="Helvetica,sans-Serif" font-size="10.00">AnalogTrigger</text>
</g>
<!-- Node2 -->
<g id="node2" class="node"><title>Node2</title>
<a xlink:href="class_sensor_base.html" target="_top" xlink:title="SensorBase">
<polygon fill="white" stroke="black" points="3,-58.5 3,-77.5 73,-77.5 73,-58.5 3,-58.5"/>
<text text-anchor="middle" x="38" y="-65.5" font-family="Helvetica,sans-Serif" font-size="10.00">SensorBase</text>
</a>
</g>
<!-- Node2&#45;&gt;Node1 -->
<g id="edge2" class="edge"><title>Node2&#45;&gt;Node1</title>
<path fill="none" stroke="midnightblue" d="M38,-47.953C38,-38.2875 38,-27.0312 38,-19.5052"/>
<polygon fill="midnightblue" stroke="midnightblue" points="34.5001,-48.25 38,-58.25 41.5001,-48.25 34.5001,-48.25"/>
</g>
<!-- Node3 -->
<g id="node4" class="node"><title>Node3</title>
<a xlink:href="class_error_base.html" target="_top" xlink:title="ErrorBase">
<polygon fill="white" stroke="black" points="8,-116.5 8,-135.5 68,-135.5 68,-116.5 8,-116.5"/>
<text text-anchor="middle" x="38" y="-123.5" font-family="Helvetica,sans-Serif" font-size="10.00">ErrorBase</text>
</a>
</g>
<!-- Node3&#45;&gt;Node2 -->
<g id="edge4" class="edge"><title>Node3&#45;&gt;Node2</title>
<path fill="none" stroke="midnightblue" d="M38,-105.953C38,-96.2875 38,-85.0312 38,-77.5052"/>
<polygon fill="midnightblue" stroke="midnightblue" points="34.5001,-106.25 38,-116.25 41.5001,-106.25 34.5001,-106.25"/>
</g>
<!-- Node4 -->
<g id="node6" class="node"><title>Node4</title>
<a xlink:href="class_error.html" target="_top" xlink:title="Error">
<polygon fill="white" stroke="black" points="19,-194.5 19,-213.5 57,-213.5 57,-194.5 19,-194.5"/>
<text text-anchor="middle" x="38" y="-201.5" font-family="Helvetica,sans-Serif" font-size="10.00">Error</text>
</a>
</g>
<!-- Node4&#45;&gt;Node3 -->
<g id="edge6" class="edge"><title>Node4&#45;&gt;Node3</title>
<path fill="none" stroke="#9a32cd" stroke-dasharray="5,2" d="M38,-184.224C38,-168.697 38,-147.358 38,-135.616"/>
<polygon fill="#9a32cd" stroke="#9a32cd" points="34.5001,-184.282 38,-194.282 41.5001,-184.282 34.5001,-184.282"/>
<text text-anchor="middle" x="65.5" y="-168" font-family="Helvetica,sans-Serif" font-size="10.00"> _globalError</text>
<text text-anchor="middle" x="65.5" y="-157" font-family="Helvetica,sans-Serif" font-size="10.00">m_error</text>
</g>
</g>
</svg>
