<?xml version="1.0" encoding="UTF-8" standalone="no"?>
<!DOCTYPE svg PUBLIC "-//W3C//DTD SVG 1.1//EN"
 "http://www.w3.org/Graphics/SVG/1.1/DTD/svg11.dtd">
<!-- Generated by graphviz version 2.28.0 (20110507.0327)
 -->
<!-- Title: DoubleSolenoid::InitTable Pages: 1 -->
<svg width="616pt" height="66pt"
 viewBox="0.00 0.00 616.00 66.00" xmlns="http://www.w3.org/2000/svg" xmlns:xlink="http://www.w3.org/1999/xlink">
<g id="graph1" class="graph" transform="scale(1 1) rotate(0) translate(4 62)">
<title>DoubleSolenoid::InitTable</title>
<polygon fill="white" stroke="white" points="-4,5 -4,-62 613,-62 613,5 -4,5"/>
<!-- Node1 -->
<g id="node1" class="node"><title>Node1</title>
<polygon fill="#bfbfbf" stroke="black" points="0,-19.5 0,-38.5 126,-38.5 126,-19.5 0,-19.5"/>
<text text-anchor="middle" x="63" y="-26.5" font-family="Helvetica,sans-Serif" font-size="10.00">DoubleSolenoid::InitTable</text>
</g>
<!-- Node2 -->
<g id="node3" class="node"><title>Node2</title>
<a xlink:href="class_double_solenoid.html#a93df6a563393380c665067b351086a42" target="_top" xlink:title="DoubleSolenoid::UpdateTable">
<polygon fill="white" stroke="black" points="162,-19.5 162,-38.5 306,-38.5 306,-19.5 162,-19.5"/>
<text text-anchor="middle" x="234" y="-26.5" font-family="Helvetica,sans-Serif" font-size="10.00">DoubleSolenoid::UpdateTable</text>
</a>
</g>
<!-- Node1&#45;&gt;Node2 -->
<g id="edge2" class="edge"><title>Node1&#45;&gt;Node2</title>
<path fill="none" stroke="midnightblue" d="M126.449,-29C134.762,-29 143.38,-29 151.952,-29"/>
<polygon fill="midnightblue" stroke="midnightblue" points="151.971,-32.5001 161.971,-29 151.971,-25.5001 151.971,-32.5001"/>
</g>
<!-- Node3 -->
<g id="node5" class="node"><title>Node3</title>
<a xlink:href="class_double_solenoid.html#a831cbfdb95c2c689bfd6644a01694fe8" target="_top" xlink:title="DoubleSolenoid::Get">
<polygon fill="white" stroke="black" points="342,-19.5 342,-38.5 448,-38.5 448,-19.5 342,-19.5"/>
<text text-anchor="middle" x="395" y="-26.5" font-family="Helvetica,sans-Serif" font-size="10.00">DoubleSolenoid::Get</text>
</a>
</g>
<!-- Node2&#45;&gt;Node3 -->
<g id="edge4" class="edge"><title>Node2&#45;&gt;Node3</title>
<path fill="none" stroke="midnightblue" d="M306.129,-29C314.711,-29 323.425,-29 331.865,-29"/>
<polygon fill="midnightblue" stroke="midnightblue" points="331.996,-32.5001 341.996,-29 331.996,-25.5001 331.996,-32.5001"/>
</g>
<!-- Node4 -->
<g id="node7" class="node"><title>Node4</title>
<a xlink:href="class_error_base.html#a05790f219c9e436a09752f73f7344024" target="_top" xlink:title="Check if the current error code represents a fatal error. ">
<polygon fill="white" stroke="black" points="484,-38.5 484,-57.5 608,-57.5 608,-38.5 484,-38.5"/>
<text text-anchor="middle" x="546" y="-45.5" font-family="Helvetica,sans-Serif" font-size="10.00">ErrorBase::StatusIsFatal</text>
</a>
</g>
<!-- Node3&#45;&gt;Node4 -->
<g id="edge6" class="edge"><title>Node3&#45;&gt;Node4</title>
<path fill="none" stroke="midnightblue" d="M448.113,-35.6453C456.437,-36.7067 465.172,-37.8206 473.846,-38.9267"/>
<polygon fill="midnightblue" stroke="midnightblue" points="473.61,-42.4249 483.973,-40.218 474.496,-35.4811 473.61,-42.4249"/>
</g>
<!-- Node5 -->
<g id="node9" class="node"><title>Node5</title>
<a xlink:href="class_solenoid_base.html#a2357cb3d45699c560f8892de139bedbd" target="_top" xlink:title="SolenoidBase::GetAll">
<polygon fill="white" stroke="black" points="491,-0.5 491,-19.5 601,-19.5 601,-0.5 491,-0.5"/>
<text text-anchor="middle" x="546" y="-7.5" font-family="Helvetica,sans-Serif" font-size="10.00">SolenoidBase::GetAll</text>
</a>
</g>
<!-- Node3&#45;&gt;Node5 -->
<g id="edge8" class="edge"><title>Node3&#45;&gt;Node5</title>
<path fill="none" stroke="midnightblue" d="M448.113,-22.3547C458.714,-21.0029 469.983,-19.566 480.943,-18.1683"/>
<polygon fill="midnightblue" stroke="midnightblue" points="481.418,-21.6362 490.895,-16.8993 480.532,-14.6924 481.418,-21.6362"/>
</g>
</g>
</svg>
