<?xml version="1.0" encoding="UTF-8" standalone="no"?>
<!DOCTYPE svg PUBLIC "-//W3C//DTD SVG 1.1//EN"
 "http://www.w3.org/Graphics/SVG/1.1/DTD/svg11.dtd">
<!-- Generated by graphviz version 2.28.0 (20110507.0327)
 -->
<!-- Title: CANJaguar::GetFaults Pages: 1 -->
<svg width="544pt" height="66pt"
 viewBox="0.00 0.00 544.00 66.00" xmlns="http://www.w3.org/2000/svg" xmlns:xlink="http://www.w3.org/1999/xlink">
<g id="graph1" class="graph" transform="scale(1 1) rotate(0) translate(4 62)">
<title>CANJaguar::GetFaults</title>
<polygon fill="white" stroke="white" points="-4,5 -4,-62 541,-62 541,5 -4,5"/>
<!-- Node1 -->
<g id="node1" class="node"><title>Node1</title>
<polygon fill="#bfbfbf" stroke="black" points="0,-19.5 0,-38.5 114,-38.5 114,-19.5 0,-19.5"/>
<text text-anchor="middle" x="57" y="-26.5" font-family="Helvetica,sans-Serif" font-size="10.00">CANJaguar::GetFaults</text>
</g>
<!-- Node2 -->
<g id="node3" class="node"><title>Node2</title>
<a xlink:href="class_c_a_n_jaguar.html#a97fe9cb246f90060495c808e31070650" target="_top" xlink:title="CANJaguar::verify">
<polygon fill="white" stroke="black" points="150.5,-19.5 150.5,-38.5 243.5,-38.5 243.5,-19.5 150.5,-19.5"/>
<text text-anchor="middle" x="197" y="-26.5" font-family="Helvetica,sans-Serif" font-size="10.00">CANJaguar::verify</text>
</a>
</g>
<!-- Node1&#45;&gt;Node2 -->
<g id="edge2" class="edge"><title>Node1&#45;&gt;Node2</title>
<path fill="none" stroke="midnightblue" d="M124.137,-29C133.053,-29 142.032,-29 150.479,-29"/>
<polygon fill="midnightblue" stroke="midnightblue" points="124.13,-25.5001 114.13,-29 124.13,-32.5001 124.13,-25.5001"/>
</g>
<!-- Node3 -->
<g id="node5" class="node"><title>Node3</title>
<a xlink:href="class_c_a_n_jaguar.html#a3a22b02ece406993619f993b1e09012a" target="_top" xlink:title="CANJaguar::Set">
<polygon fill="white" stroke="black" points="280,-19.5 280,-38.5 366,-38.5 366,-19.5 280,-19.5"/>
<text text-anchor="middle" x="323" y="-26.5" font-family="Helvetica,sans-Serif" font-size="10.00">CANJaguar::Set</text>
</a>
</g>
<!-- Node2&#45;&gt;Node3 -->
<g id="edge4" class="edge"><title>Node2&#45;&gt;Node3</title>
<path fill="none" stroke="midnightblue" d="M253.873,-29C262.533,-29 271.355,-29 279.653,-29"/>
<polygon fill="midnightblue" stroke="midnightblue" points="253.821,-25.5001 243.821,-29 253.821,-32.5001 253.821,-25.5001"/>
</g>
<!-- Node4 -->
<g id="node7" class="node"><title>Node4</title>
<a xlink:href="class_c_a_n_jaguar.html#a2355d55f42083ab82870c79f742620e4" target="_top" xlink:title="CANJaguar::PIDWrite">
<polygon fill="white" stroke="black" points="414,-38.5 414,-57.5 524,-57.5 524,-38.5 414,-38.5"/>
<text text-anchor="middle" x="469" y="-45.5" font-family="Helvetica,sans-Serif" font-size="10.00">CANJaguar::PIDWrite</text>
</a>
</g>
<!-- Node3&#45;&gt;Node4 -->
<g id="edge6" class="edge"><title>Node3&#45;&gt;Node4</title>
<path fill="none" stroke="midnightblue" d="M376.11,-35.8756C388.376,-37.4941 401.478,-39.2228 413.832,-40.8529"/>
<polygon fill="midnightblue" stroke="midnightblue" points="376.41,-32.3849 366.038,-34.5467 375.494,-39.3248 376.41,-32.3849"/>
</g>
<!-- Node5 -->
<g id="node9" class="node"><title>Node5</title>
<a xlink:href="class_c_a_n_jaguar_test.html#a3c9026e62eb65e2d497bb7bbfaded297" target="_top" xlink:title="CANJaguarTest::SetJaguar">
<polygon fill="white" stroke="black" points="402,-0.5 402,-19.5 536,-19.5 536,-0.5 402,-0.5"/>
<text text-anchor="middle" x="469" y="-7.5" font-family="Helvetica,sans-Serif" font-size="10.00">CANJaguarTest::SetJaguar</text>
</a>
</g>
<!-- Node3&#45;&gt;Node5 -->
<g id="edge8" class="edge"><title>Node3&#45;&gt;Node5</title>
<path fill="none" stroke="midnightblue" d="M376.018,-22.1365C384.387,-21.0323 393.147,-19.8765 401.794,-18.7355"/>
<polygon fill="midnightblue" stroke="midnightblue" points="375.494,-18.6752 366.038,-23.4533 376.41,-25.6151 375.494,-18.6752"/>
</g>
</g>
</svg>
