<?xml version="1.0" encoding="UTF-8" standalone="no"?>
<!DOCTYPE svg PUBLIC "-//W3C//DTD SVG 1.1//EN"
 "http://www.w3.org/Graphics/SVG/1.1/DTD/svg11.dtd">
<!-- Generated by graphviz version 2.28.0 (20110507.0327)
 -->
<!-- Title: Counter::SetUpSource Pages: 1 -->
<svg width="432pt" height="28pt"
 viewBox="0.00 0.00 432.00 28.00" xmlns="http://www.w3.org/2000/svg" xmlns:xlink="http://www.w3.org/1999/xlink">
<g id="graph1" class="graph" transform="scale(1 1) rotate(0) translate(4 24)">
<title>Counter::SetUpSource</title>
<polygon fill="white" stroke="white" points="-4,5 -4,-24 429,-24 429,5 -4,5"/>
<!-- Node1 -->
<g id="node1" class="node"><title>Node1</title>
<polygon fill="#bfbfbf" stroke="black" points="0,-0.5 0,-19.5 114,-19.5 114,-0.5 0,-0.5"/>
<text text-anchor="middle" x="57" y="-7.5" font-family="Helvetica,sans-Serif" font-size="10.00">Counter::SetUpSource</text>
</g>
<!-- Node2 -->
<g id="node3" class="node"><title>Node2</title>
<a xlink:href="class_counter.html#a8abf01f2594d96b85ac3f76ab8f1257e" target="_top" xlink:title="Counter::SetUpSource">
<polygon fill="white" stroke="black" points="150,-0.5 150,-19.5 264,-19.5 264,-0.5 150,-0.5"/>
<text text-anchor="middle" x="207" y="-7.5" font-family="Helvetica,sans-Serif" font-size="10.00">Counter::SetUpSource</text>
</a>
</g>
<!-- Node1&#45;&gt;Node2 -->
<g id="edge2" class="edge"><title>Node1&#45;&gt;Node2</title>
<path fill="none" stroke="midnightblue" d="M114.375,-10C122.621,-10 131.178,-10 139.602,-10"/>
<polygon fill="midnightblue" stroke="midnightblue" points="139.782,-13.5001 149.782,-10 139.782,-6.5001 139.782,-13.5001"/>
</g>
<!-- Node3 -->
<g id="node5" class="node"><title>Node3</title>
<a xlink:href="class_error_base.html#a05790f219c9e436a09752f73f7344024" target="_top" xlink:title="Check if the current error code represents a fatal error. ">
<polygon fill="white" stroke="black" points="300,-0.5 300,-19.5 424,-19.5 424,-0.5 300,-0.5"/>
<text text-anchor="middle" x="362" y="-7.5" font-family="Helvetica,sans-Serif" font-size="10.00">ErrorBase::StatusIsFatal</text>
</a>
</g>
<!-- Node2&#45;&gt;Node3 -->
<g id="edge4" class="edge"><title>Node2&#45;&gt;Node3</title>
<path fill="none" stroke="midnightblue" d="M264.103,-10C272.439,-10 281.125,-10 289.722,-10"/>
<polygon fill="midnightblue" stroke="midnightblue" points="289.747,-13.5001 299.747,-10 289.747,-6.5001 289.747,-13.5001"/>
</g>
</g>
</svg>
