<?xml version="1.0" encoding="UTF-8" standalone="no"?>
<!DOCTYPE svg PUBLIC "-//W3C//DTD SVG 1.1//EN"
 "http://www.w3.org/Graphics/SVG/1.1/DTD/svg11.dtd">
<!-- Generated by graphviz version 2.28.0 (20110507.0327)
 -->
<!-- Title: CANJaguar::getMessage Pages: 1 -->
<svg width="922pt" height="365pt"
 viewBox="0.00 0.00 922.00 365.35" xmlns="http://www.w3.org/2000/svg" xmlns:xlink="http://www.w3.org/1999/xlink">
<g id="graph1" class="graph" transform="scale(1 1) rotate(0) translate(4 361.347)">
<title>CANJaguar::getMessage</title>
<polygon fill="white" stroke="white" points="-4,5 -4,-361.347 919,-361.347 919,5 -4,5"/>
<!-- Node1 -->
<g id="node1" class="node"><title>Node1</title>
<polygon fill="#bfbfbf" stroke="black" points="0.5,-80.8472 0.5,-99.8472 125.5,-99.8472 125.5,-80.8472 0.5,-80.8472"/>
<text text-anchor="middle" x="63" y="-87.8472" font-family="Helvetica,sans-Serif" font-size="10.00">CANJaguar::getMessage</text>
</g>
<!-- Node2 -->
<g id="node3" class="node"><title>Node2</title>
<a xlink:href="class_c_a_n_jaguar.html#a9436c9b85c0b008bb3276e7283176603" target="_top" xlink:title="CANJaguar::updatePeriodic\lStatus">
<polygon fill="white" stroke="black" points="162,-161.347 162,-191.347 298,-191.347 298,-161.347 162,-161.347"/>
<text text-anchor="start" x="170" y="-179.347" font-family="Helvetica,sans-Serif" font-size="10.00">CANJaguar::updatePeriodic</text>
<text text-anchor="middle" x="230" y="-168.347" font-family="Helvetica,sans-Serif" font-size="10.00">Status</text>
</a>
</g>
<!-- Node1&#45;&gt;Node2 -->
<g id="edge2" class="edge"><title>Node1&#45;&gt;Node2</title>
<path fill="none" stroke="midnightblue" d="M91.3682,-104.612C121.42,-120.275 169.469,-145.319 200.112,-161.29"/>
<polygon fill="midnightblue" stroke="midnightblue" points="92.7738,-101.398 82.2883,-99.8793 89.5384,-107.605 92.7738,-101.398"/>
</g>
<!-- Node7 -->
<g id="node13" class="node"><title>Node7</title>
<a xlink:href="class_c_a_n_jaguar.html#a97fe9cb246f90060495c808e31070650" target="_top" xlink:title="CANJaguar::verify">
<polygon fill="white" stroke="black" points="528.5,-109.847 528.5,-128.847 621.5,-128.847 621.5,-109.847 528.5,-109.847"/>
<text text-anchor="middle" x="575" y="-116.847" font-family="Helvetica,sans-Serif" font-size="10.00">CANJaguar::verify</text>
</a>
</g>
<!-- Node1&#45;&gt;Node7 -->
<g id="edge34" class="edge"><title>Node1&#45;&gt;Node7</title>
<path fill="none" stroke="midnightblue" d="M91.156,-76.067C161.075,-41.3759 351.629,39.9206 492,-24.3472 531.223,-42.3053 558.826,-89.314 569.32,-109.693"/>
<polygon fill="midnightblue" stroke="midnightblue" points="89.4593,-73.0027 82.1086,-80.6328 92.6131,-79.2521 89.4593,-73.0027"/>
</g>
<!-- Node3 -->
<g id="node5" class="node"><title>Node3</title>
<a xlink:href="class_c_a_n_jaguar.html#af76e1d83af648156e1b134235f1d8a67" target="_top" xlink:title="CANJaguar::GetBusVoltage">
<polygon fill="white" stroke="black" points="344.5,-337.847 344.5,-356.847 481.5,-356.847 481.5,-337.847 344.5,-337.847"/>
<text text-anchor="middle" x="413" y="-344.847" font-family="Helvetica,sans-Serif" font-size="10.00">CANJaguar::GetBusVoltage</text>
</a>
</g>
<!-- Node2&#45;&gt;Node3 -->
<g id="edge4" class="edge"><title>Node2&#45;&gt;Node3</title>
<path fill="none" stroke="midnightblue" d="M240.782,-200.842C255.667,-234.869 287.296,-295.907 334,-328.347 339.609,-332.243 345.929,-335.344 352.481,-337.811"/>
<polygon fill="midnightblue" stroke="midnightblue" points="243.993,-199.448 236.865,-191.608 237.548,-202.181 243.993,-199.448"/>
</g>
<!-- Node4 -->
<g id="node7" class="node"><title>Node4</title>
<a xlink:href="class_c_a_n_jaguar.html#a646e3e93374bd6a084f1bdbd0ccf4693" target="_top" xlink:title="CANJaguar::GetOutputVoltage">
<polygon fill="white" stroke="black" points="338.5,-299.847 338.5,-318.847 487.5,-318.847 487.5,-299.847 338.5,-299.847"/>
<text text-anchor="middle" x="413" y="-306.847" font-family="Helvetica,sans-Serif" font-size="10.00">CANJaguar::GetOutputVoltage</text>
</a>
</g>
<!-- Node2&#45;&gt;Node4 -->
<g id="edge6" class="edge"><title>Node2&#45;&gt;Node4</title>
<path fill="none" stroke="midnightblue" d="M246.014,-200.124C263.801,-226.284 295.878,-267.625 334,-290.347 340.465,-294.201 347.673,-297.274 355.023,-299.724"/>
<polygon fill="midnightblue" stroke="midnightblue" points="248.777,-197.957 240.333,-191.559 242.944,-201.827 248.777,-197.957"/>
</g>
<!-- Node5 -->
<g id="node9" class="node"><title>Node5</title>
<a xlink:href="class_c_a_n_jaguar.html#abb041b49997e2929ac22ba3d078c5da0" target="_top" xlink:title="CANJaguar::GetOutputCurrent">
<polygon fill="white" stroke="black" points="339,-261.847 339,-280.847 487,-280.847 487,-261.847 339,-261.847"/>
<text text-anchor="middle" x="413" y="-268.847" font-family="Helvetica,sans-Serif" font-size="10.00">CANJaguar::GetOutputCurrent</text>
</a>
</g>
<!-- Node2&#45;&gt;Node5 -->
<g id="edge8" class="edge"><title>Node2&#45;&gt;Node5</title>
<path fill="none" stroke="midnightblue" d="M254.758,-198.196C274.573,-215.301 304.274,-238.45 334,-252.347 342.207,-256.184 351.275,-259.297 360.237,-261.807"/>
<polygon fill="midnightblue" stroke="midnightblue" points="256.976,-195.486 247.156,-191.51 252.353,-200.742 256.976,-195.486"/>
</g>
<!-- Node6 -->
<g id="node11" class="node"><title>Node6</title>
<a xlink:href="class_c_a_n_jaguar.html#a22612130552d75e71b80f65f0013b9dc" target="_top" xlink:title="CANJaguar::GetTemperature">
<polygon fill="white" stroke="black" points="342.5,-223.847 342.5,-242.847 483.5,-242.847 483.5,-223.847 342.5,-223.847"/>
<text text-anchor="middle" x="413" y="-230.847" font-family="Helvetica,sans-Serif" font-size="10.00">CANJaguar::GetTemperature</text>
</a>
</g>
<!-- Node2&#45;&gt;Node6 -->
<g id="edge10" class="edge"><title>Node2&#45;&gt;Node6</title>
<path fill="none" stroke="midnightblue" d="M278.175,-195.042C295.573,-201.593 315.542,-208.714 334,-214.347 345.198,-217.764 357.445,-220.985 368.847,-223.769"/>
<polygon fill="midnightblue" stroke="midnightblue" points="279.391,-191.76 268.8,-191.474 276.901,-198.302 279.391,-191.76"/>
</g>
<!-- Node11 -->
<g id="node21" class="node"><title>Node11</title>
<a xlink:href="class_c_a_n_jaguar.html#a7b2f80fccf8ca7bb7413c9f25e12f99a" target="_top" xlink:title="CANJaguar::GetPosition">
<polygon fill="white" stroke="black" points="352,-185.847 352,-204.847 474,-204.847 474,-185.847 352,-185.847"/>
<text text-anchor="middle" x="413" y="-192.847" font-family="Helvetica,sans-Serif" font-size="10.00">CANJaguar::GetPosition</text>
</a>
</g>
<!-- Node2&#45;&gt;Node11 -->
<g id="edge20" class="edge"><title>Node2&#45;&gt;Node11</title>
<path fill="none" stroke="midnightblue" d="M308.158,-184.447C322.766,-185.98 337.847,-187.563 351.835,-189.032"/>
<polygon fill="midnightblue" stroke="midnightblue" points="308.451,-180.958 298.141,-183.395 307.72,-187.92 308.451,-180.958"/>
</g>
<!-- Node12 -->
<g id="node24" class="node"><title>Node12</title>
<a xlink:href="class_c_a_n_jaguar.html#a135a7e271d877a45183c58df6e6fcafe" target="_top" xlink:title="CANJaguar::GetSpeed">
<polygon fill="white" stroke="black" points="355.5,-147.847 355.5,-166.847 470.5,-166.847 470.5,-147.847 355.5,-147.847"/>
<text text-anchor="middle" x="413" y="-154.847" font-family="Helvetica,sans-Serif" font-size="10.00">CANJaguar::GetSpeed</text>
</a>
</g>
<!-- Node2&#45;&gt;Node12 -->
<g id="edge24" class="edge"><title>Node2&#45;&gt;Node12</title>
<path fill="none" stroke="midnightblue" d="M308.402,-168.222C324.166,-166.567 340.473,-164.856 355.353,-163.294"/>
<polygon fill="midnightblue" stroke="midnightblue" points="307.72,-164.774 298.141,-169.299 308.451,-171.736 307.72,-164.774"/>
</g>
<!-- Node13 -->
<g id="node26" class="node"><title>Node13</title>
<a xlink:href="class_c_a_n_jaguar.html#a43c288c014f5700dd91e714916a52413" target="_top" xlink:title="CANJaguar::GetForwardLimitOK">
<polygon fill="white" stroke="black" points="334.5,-109.847 334.5,-128.847 491.5,-128.847 491.5,-109.847 334.5,-109.847"/>
<text text-anchor="middle" x="413" y="-116.847" font-family="Helvetica,sans-Serif" font-size="10.00">CANJaguar::GetForwardLimitOK</text>
</a>
</g>
<!-- Node2&#45;&gt;Node13 -->
<g id="edge26" class="edge"><title>Node2&#45;&gt;Node13</title>
<path fill="none" stroke="midnightblue" d="M278.175,-157.653C295.573,-151.101 315.542,-143.98 334,-138.347 345.198,-134.93 357.445,-131.71 368.847,-128.925"/>
<polygon fill="midnightblue" stroke="midnightblue" points="276.901,-154.393 268.8,-161.221 279.391,-160.935 276.901,-154.393"/>
</g>
<!-- Node14 -->
<g id="node28" class="node"><title>Node14</title>
<a xlink:href="class_c_a_n_jaguar.html#a94282dbd5921d645819953279198d52f" target="_top" xlink:title="CANJaguar::GetReverseLimitOK">
<polygon fill="white" stroke="black" points="334.5,-71.8472 334.5,-90.8472 491.5,-90.8472 491.5,-71.8472 334.5,-71.8472"/>
<text text-anchor="middle" x="413" y="-78.8472" font-family="Helvetica,sans-Serif" font-size="10.00">CANJaguar::GetReverseLimitOK</text>
</a>
</g>
<!-- Node2&#45;&gt;Node14 -->
<g id="edge28" class="edge"><title>Node2&#45;&gt;Node14</title>
<path fill="none" stroke="midnightblue" d="M254.758,-154.499C274.573,-137.393 304.274,-114.244 334,-100.347 342.207,-96.5105 351.275,-93.3972 360.237,-90.8873"/>
<polygon fill="midnightblue" stroke="midnightblue" points="252.353,-151.952 247.156,-161.185 256.976,-157.209 252.353,-151.952"/>
</g>
<!-- Node15 -->
<g id="node30" class="node"><title>Node15</title>
<a xlink:href="class_c_a_n_jaguar.html#aa64fd18ae27ff40b16add78ffa38c23d" target="_top" xlink:title="CANJaguar::GetFaults">
<polygon fill="white" stroke="black" points="356,-33.8472 356,-52.8472 470,-52.8472 470,-33.8472 356,-33.8472"/>
<text text-anchor="middle" x="413" y="-40.8472" font-family="Helvetica,sans-Serif" font-size="10.00">CANJaguar::GetFaults</text>
</a>
</g>
<!-- Node2&#45;&gt;Node15 -->
<g id="edge30" class="edge"><title>Node2&#45;&gt;Node15</title>
<path fill="none" stroke="midnightblue" d="M246.014,-152.571C263.801,-126.411 295.878,-85.069 334,-62.3472 340.705,-58.3512 348.208,-55.1942 355.841,-52.7004"/>
<polygon fill="midnightblue" stroke="midnightblue" points="242.944,-150.867 240.333,-161.135 248.777,-154.737 242.944,-150.867"/>
</g>
<!-- Node6&#45;&gt;Node7 -->
<g id="edge12" class="edge"><title>Node6&#45;&gt;Node7</title>
<path fill="none" stroke="midnightblue" d="M481.096,-219.995C484.888,-218.329 488.554,-216.455 492,-214.347 528.432,-192.07 557.144,-148.217 568.602,-128.885"/>
<polygon fill="midnightblue" stroke="midnightblue" points="479.528,-216.848 471.466,-223.723 482.056,-223.376 479.528,-216.848"/>
</g>
<!-- Node8 -->
<g id="node15" class="node"><title>Node8</title>
<a xlink:href="class_c_a_n_jaguar.html#a3a22b02ece406993619f993b1e09012a" target="_top" xlink:title="CANJaguar::Set">
<polygon fill="white" stroke="black" points="658,-109.847 658,-128.847 744,-128.847 744,-109.847 658,-109.847"/>
<text text-anchor="middle" x="701" y="-116.847" font-family="Helvetica,sans-Serif" font-size="10.00">CANJaguar::Set</text>
</a>
</g>
<!-- Node7&#45;&gt;Node8 -->
<g id="edge14" class="edge"><title>Node7&#45;&gt;Node8</title>
<path fill="none" stroke="midnightblue" d="M631.873,-119.347C640.533,-119.347 649.355,-119.347 657.653,-119.347"/>
<polygon fill="midnightblue" stroke="midnightblue" points="631.821,-115.847 621.821,-119.347 631.821,-122.847 631.821,-115.847"/>
</g>
<!-- Node9 -->
<g id="node17" class="node"><title>Node9</title>
<a xlink:href="class_c_a_n_jaguar.html#a2355d55f42083ab82870c79f742620e4" target="_top" xlink:title="CANJaguar::PIDWrite">
<polygon fill="white" stroke="black" points="792,-128.847 792,-147.847 902,-147.847 902,-128.847 792,-128.847"/>
<text text-anchor="middle" x="847" y="-135.847" font-family="Helvetica,sans-Serif" font-size="10.00">CANJaguar::PIDWrite</text>
</a>
</g>
<!-- Node8&#45;&gt;Node9 -->
<g id="edge16" class="edge"><title>Node8&#45;&gt;Node9</title>
<path fill="none" stroke="midnightblue" d="M754.11,-126.223C766.376,-127.841 779.478,-129.57 791.832,-131.2"/>
<polygon fill="midnightblue" stroke="midnightblue" points="754.41,-122.732 744.038,-124.894 753.494,-129.672 754.41,-122.732"/>
</g>
<!-- Node10 -->
<g id="node19" class="node"><title>Node10</title>
<a xlink:href="class_c_a_n_jaguar_test.html#a3c9026e62eb65e2d497bb7bbfaded297" target="_top" xlink:title="CANJaguarTest::SetJaguar">
<polygon fill="white" stroke="black" points="780,-90.8472 780,-109.847 914,-109.847 914,-90.8472 780,-90.8472"/>
<text text-anchor="middle" x="847" y="-97.8472" font-family="Helvetica,sans-Serif" font-size="10.00">CANJaguarTest::SetJaguar</text>
</a>
</g>
<!-- Node8&#45;&gt;Node10 -->
<g id="edge18" class="edge"><title>Node8&#45;&gt;Node10</title>
<path fill="none" stroke="midnightblue" d="M754.018,-112.484C762.387,-111.38 771.147,-110.224 779.794,-109.083"/>
<polygon fill="midnightblue" stroke="midnightblue" points="753.494,-109.022 744.038,-113.801 754.41,-115.962 753.494,-109.022"/>
</g>
<!-- Node11&#45;&gt;Node7 -->
<g id="edge22" class="edge"><title>Node11&#45;&gt;Node7</title>
<path fill="none" stroke="midnightblue" d="M474.821,-182.876C480.727,-180.971 486.545,-178.804 492,-176.347 519.822,-163.816 548.147,-141.574 563.133,-128.896"/>
<polygon fill="midnightblue" stroke="midnightblue" points="473.434,-179.637 464.846,-185.841 475.429,-186.347 473.434,-179.637"/>
</g>
<!-- Node15&#45;&gt;Node7 -->
<g id="edge32" class="edge"><title>Node15&#45;&gt;Node7</title>
<path fill="none" stroke="midnightblue" d="M474.821,-55.818C480.727,-57.7234 486.545,-59.8905 492,-62.3472 519.822,-74.8786 548.147,-97.1207 563.133,-109.798"/>
<polygon fill="midnightblue" stroke="midnightblue" points="475.429,-52.3474 464.846,-52.8533 473.434,-59.0573 475.429,-52.3474"/>
</g>
</g>
</svg>
