<?xml version="1.0" encoding="UTF-8" standalone="no"?>
<!DOCTYPE svg PUBLIC "-//W3C//DTD SVG 1.1//EN"
 "http://www.w3.org/Graphics/SVG/1.1/DTD/svg11.dtd">
<!-- Generated by graphviz version 2.28.0 (20110507.0327)
 -->
<!-- Title: Ultrasonic::PIDGet Pages: 1 -->
<svg width="898pt" height="66pt"
 viewBox="0.00 0.00 898.00 66.00" xmlns="http://www.w3.org/2000/svg" xmlns:xlink="http://www.w3.org/1999/xlink">
<g id="graph1" class="graph" transform="scale(1 1) rotate(0) translate(4 62)">
<title>Ultrasonic::PIDGet</title>
<polygon fill="white" stroke="white" points="-4,5 -4,-62 895,-62 895,5 -4,5"/>
<!-- Node1 -->
<g id="node1" class="node"><title>Node1</title>
<polygon fill="#bfbfbf" stroke="black" points="0,-19.5 0,-38.5 98,-38.5 98,-19.5 0,-19.5"/>
<text text-anchor="middle" x="49" y="-26.5" font-family="Helvetica,sans-Serif" font-size="10.00">Ultrasonic::PIDGet</text>
</g>
<!-- Node2 -->
<g id="node3" class="node"><title>Node2</title>
<a xlink:href="class_ultrasonic.html#a73c80fe92b2085107714c6a110d90d70" target="_top" xlink:title="Ultrasonic::GetRangeInches">
<polygon fill="white" stroke="black" points="296,-19.5 296,-38.5 434,-38.5 434,-19.5 296,-19.5"/>
<text text-anchor="middle" x="365" y="-26.5" font-family="Helvetica,sans-Serif" font-size="10.00">Ultrasonic::GetRangeInches</text>
</a>
</g>
<!-- Node1&#45;&gt;Node2 -->
<g id="edge2" class="edge"><title>Node1&#45;&gt;Node2</title>
<path fill="none" stroke="midnightblue" d="M98.0316,-29C147.971,-29 226.934,-29 285.869,-29"/>
<polygon fill="midnightblue" stroke="midnightblue" points="285.887,-32.5001 295.887,-29 285.887,-25.5001 285.887,-32.5001"/>
</g>
<!-- Node7 -->
<g id="node14" class="node"><title>Node7</title>
<a xlink:href="class_ultrasonic.html#af35c9a3273f1ffcf0eb17308d986d7c0" target="_top" xlink:title="Ultrasonic::GetRangeMM">
<polygon fill="white" stroke="black" points="134,-0.5 134,-19.5 260,-19.5 260,-0.5 134,-0.5"/>
<text text-anchor="middle" x="197" y="-7.5" font-family="Helvetica,sans-Serif" font-size="10.00">Ultrasonic::GetRangeMM</text>
</a>
</g>
<!-- Node1&#45;&gt;Node7 -->
<g id="edge14" class="edge"><title>Node1&#45;&gt;Node7</title>
<path fill="none" stroke="midnightblue" d="M98.2105,-22.726C106.389,-21.6617 115.039,-20.536 123.676,-19.412"/>
<polygon fill="midnightblue" stroke="midnightblue" points="124.316,-22.8583 133.781,-18.097 123.413,-15.9168 124.316,-22.8583"/>
</g>
<!-- Node3 -->
<g id="node5" class="node"><title>Node3</title>
<a xlink:href="class_ultrasonic.html#a765c830f4ff4c68e83de2f14d43fa54c" target="_top" xlink:title="Ultrasonic::IsRangeValid">
<polygon fill="white" stroke="black" points="470.5,-38.5 470.5,-57.5 593.5,-57.5 593.5,-38.5 470.5,-38.5"/>
<text text-anchor="middle" x="532" y="-45.5" font-family="Helvetica,sans-Serif" font-size="10.00">Ultrasonic::IsRangeValid</text>
</a>
</g>
<!-- Node2&#45;&gt;Node3 -->
<g id="edge4" class="edge"><title>Node2&#45;&gt;Node3</title>
<path fill="none" stroke="midnightblue" d="M434.064,-36.8377C442.742,-37.8369 451.639,-38.8615 460.356,-39.8653"/>
<polygon fill="midnightblue" stroke="midnightblue" points="460.148,-43.3643 470.482,-41.0313 460.948,-36.4102 460.148,-43.3643"/>
</g>
<!-- Node6 -->
<g id="node11" class="node"><title>Node6</title>
<a xlink:href="class_counter.html#a51030989a5ee306beaf40ac28ab362c0" target="_top" xlink:title="Counter::GetPeriod">
<polygon fill="white" stroke="black" points="630,-0.5 630,-19.5 730,-19.5 730,-0.5 630,-0.5"/>
<text text-anchor="middle" x="680" y="-7.5" font-family="Helvetica,sans-Serif" font-size="10.00">Counter::GetPeriod</text>
</a>
</g>
<!-- Node2&#45;&gt;Node6 -->
<g id="edge10" class="edge"><title>Node2&#45;&gt;Node6</title>
<path fill="none" stroke="midnightblue" d="M434.302,-24.8538C489.615,-21.4962 566.751,-16.8139 619.545,-13.6091"/>
<polygon fill="midnightblue" stroke="midnightblue" points="619.996,-17.0882 629.766,-12.9887 619.572,-10.1011 619.996,-17.0882"/>
</g>
<!-- Node4 -->
<g id="node7" class="node"><title>Node4</title>
<a xlink:href="class_counter.html#a72086dbd17d7baf28bacfb13562af6b6" target="_top" xlink:title="Counter::Get">
<polygon fill="white" stroke="black" points="644,-38.5 644,-57.5 716,-57.5 716,-38.5 644,-38.5"/>
<text text-anchor="middle" x="680" y="-45.5" font-family="Helvetica,sans-Serif" font-size="10.00">Counter::Get</text>
</a>
</g>
<!-- Node3&#45;&gt;Node4 -->
<g id="edge6" class="edge"><title>Node3&#45;&gt;Node4</title>
<path fill="none" stroke="midnightblue" d="M593.649,-48C606.992,-48 620.903,-48 633.526,-48"/>
<polygon fill="midnightblue" stroke="midnightblue" points="633.787,-51.5001 643.787,-48 633.787,-44.5001 633.787,-51.5001"/>
</g>
<!-- Node5 -->
<g id="node9" class="node"><title>Node5</title>
<a xlink:href="class_error_base.html#a05790f219c9e436a09752f73f7344024" target="_top" xlink:title="Check if the current error code represents a fatal error. ">
<polygon fill="white" stroke="black" points="766,-19.5 766,-38.5 890,-38.5 890,-19.5 766,-19.5"/>
<text text-anchor="middle" x="828" y="-26.5" font-family="Helvetica,sans-Serif" font-size="10.00">ErrorBase::StatusIsFatal</text>
</a>
</g>
<!-- Node4&#45;&gt;Node5 -->
<g id="edge8" class="edge"><title>Node4&#45;&gt;Node5</title>
<path fill="none" stroke="midnightblue" d="M716.343,-43.4006C728.295,-41.8452 742.101,-40.0484 755.822,-38.2629"/>
<polygon fill="midnightblue" stroke="midnightblue" points="756.306,-41.7296 765.77,-36.9682 755.402,-34.7881 756.306,-41.7296"/>
</g>
<!-- Node6&#45;&gt;Node5 -->
<g id="edge12" class="edge"><title>Node6&#45;&gt;Node5</title>
<path fill="none" stroke="midnightblue" d="M730.022,-16.3796C738.298,-17.4566 747.037,-18.5939 755.743,-19.7268"/>
<polygon fill="midnightblue" stroke="midnightblue" points="755.55,-23.2311 765.918,-21.051 756.453,-16.2897 755.55,-23.2311"/>
</g>
<!-- Node7&#45;&gt;Node2 -->
<g id="edge16" class="edge"><title>Node7&#45;&gt;Node2</title>
<path fill="none" stroke="midnightblue" d="M260.285,-17.129C268.616,-18.0826 277.245,-19.0702 285.806,-20.0501"/>
<polygon fill="midnightblue" stroke="midnightblue" points="285.469,-23.5343 295.802,-21.1942 286.265,-16.5797 285.469,-23.5343"/>
</g>
</g>
</svg>
