<?xml version="1.0" encoding="UTF-8" standalone="no"?>
<!DOCTYPE svg PUBLIC "-//W3C//DTD SVG 1.1//EN"
 "http://www.w3.org/Graphics/SVG/1.1/DTD/svg11.dtd">
<!-- Generated by graphviz version 2.28.0 (20110507.0327)
 -->
<!-- Title: PIDSubsystem::InitTable Pages: 1 -->
<svg width="452pt" height="256pt"
 viewBox="0.00 0.00 452.00 256.00" xmlns="http://www.w3.org/2000/svg" xmlns:xlink="http://www.w3.org/1999/xlink">
<g id="graph1" class="graph" transform="scale(1 1) rotate(0) translate(4 252)">
<title>PIDSubsystem::InitTable</title>
<polygon fill="white" stroke="white" points="-4,5 -4,-252 449,-252 449,5 -4,5"/>
<!-- Node1 -->
<g id="node1" class="node"><title>Node1</title>
<polygon fill="#bfbfbf" stroke="black" points="0,-76.5 0,-95.5 124,-95.5 124,-76.5 0,-76.5"/>
<text text-anchor="middle" x="62" y="-83.5" font-family="Helvetica,sans-Serif" font-size="10.00">PIDSubsystem::InitTable</text>
</g>
<!-- Node2 -->
<g id="node3" class="node"><title>Node2</title>
<a xlink:href="class_p_i_d_controller.html#af6e51e6973aad270d6e9320b65d363d2" target="_top" xlink:title="PIDController::InitTable">
<polygon fill="white" stroke="black" points="160,-114.5 160,-133.5 276,-133.5 276,-114.5 160,-114.5"/>
<text text-anchor="middle" x="218" y="-121.5" font-family="Helvetica,sans-Serif" font-size="10.00">PIDController::InitTable</text>
</a>
</g>
<!-- Node1&#45;&gt;Node2 -->
<g id="edge2" class="edge"><title>Node1&#45;&gt;Node2</title>
<path fill="none" stroke="midnightblue" d="M101.861,-95.589C122.091,-100.581 147.021,-106.732 168.504,-112.033"/>
<polygon fill="midnightblue" stroke="midnightblue" points="167.871,-115.482 178.419,-114.48 169.548,-108.686 167.871,-115.482"/>
</g>
<!-- Node9 -->
<g id="node17" class="node"><title>Node9</title>
<a xlink:href="class_subsystem.html#a86ea4b4ef924e2e90841f08d42e1d309" target="_top" xlink:title="Subsystem::InitTable">
<polygon fill="white" stroke="black" points="164,-38.5 164,-57.5 272,-57.5 272,-38.5 164,-38.5"/>
<text text-anchor="middle" x="218" y="-45.5" font-family="Helvetica,sans-Serif" font-size="10.00">Subsystem::InitTable</text>
</a>
</g>
<!-- Node1&#45;&gt;Node9 -->
<g id="edge16" class="edge"><title>Node1&#45;&gt;Node9</title>
<path fill="none" stroke="midnightblue" d="M101.861,-76.411C122.091,-71.4191 147.021,-65.2676 168.504,-59.9666"/>
<polygon fill="midnightblue" stroke="midnightblue" points="169.548,-63.3139 178.419,-57.5201 167.871,-56.5177 169.548,-63.3139"/>
</g>
<!-- Node3 -->
<g id="node5" class="node"><title>Node3</title>
<a xlink:href="class_p_i_d_controller.html#a9572c875b0fee00189e7e22250db3831" target="_top" xlink:title="PIDController::GetP">
<polygon fill="white" stroke="black" points="327,-228.5 327,-247.5 429,-247.5 429,-228.5 327,-228.5"/>
<text text-anchor="middle" x="378" y="-235.5" font-family="Helvetica,sans-Serif" font-size="10.00">PIDController::GetP</text>
</a>
</g>
<!-- Node2&#45;&gt;Node3 -->
<g id="edge4" class="edge"><title>Node2&#45;&gt;Node3</title>
<path fill="none" stroke="midnightblue" d="M225.75,-133.668C239.646,-152.848 273.402,-195.852 312,-219 315.63,-221.177 319.524,-223.117 323.537,-224.844"/>
<polygon fill="midnightblue" stroke="midnightblue" points="322.456,-228.179 333.046,-228.499 324.967,-221.645 322.456,-228.179"/>
</g>
<!-- Node4 -->
<g id="node7" class="node"><title>Node4</title>
<a xlink:href="class_p_i_d_controller.html#aad4c914184a37b8ceb85401d59ff163b" target="_top" xlink:title="PIDController::GetI">
<polygon fill="white" stroke="black" points="329,-190.5 329,-209.5 427,-209.5 427,-190.5 329,-190.5"/>
<text text-anchor="middle" x="378" y="-197.5" font-family="Helvetica,sans-Serif" font-size="10.00">PIDController::GetI</text>
</a>
</g>
<!-- Node2&#45;&gt;Node4 -->
<g id="edge6" class="edge"><title>Node2&#45;&gt;Node4</title>
<path fill="none" stroke="midnightblue" d="M232.24,-133.689C249.737,-146.116 281.875,-167.651 312,-181 317.106,-183.262 322.555,-185.339 328.043,-187.222"/>
<polygon fill="midnightblue" stroke="midnightblue" points="327.309,-190.663 337.901,-190.398 329.456,-184 327.309,-190.663"/>
</g>
<!-- Node5 -->
<g id="node9" class="node"><title>Node5</title>
<a xlink:href="class_p_i_d_controller.html#a003738f4df587babc119131cdfada553" target="_top" xlink:title="PIDController::GetD">
<polygon fill="white" stroke="black" points="327,-152.5 327,-171.5 429,-171.5 429,-152.5 327,-152.5"/>
<text text-anchor="middle" x="378" y="-159.5" font-family="Helvetica,sans-Serif" font-size="10.00">PIDController::GetD</text>
</a>
</g>
<!-- Node2&#45;&gt;Node5 -->
<g id="edge8" class="edge"><title>Node2&#45;&gt;Node5</title>
<path fill="none" stroke="midnightblue" d="M258.87,-133.589C279.72,-138.604 305.435,-144.788 327.543,-150.105"/>
<polygon fill="midnightblue" stroke="midnightblue" points="326.875,-153.544 337.417,-152.48 328.512,-146.739 326.875,-153.544"/>
</g>
<!-- Node6 -->
<g id="node11" class="node"><title>Node6</title>
<a xlink:href="class_p_i_d_controller.html#a0b194d1597e208603f7efb3c0064f0aa" target="_top" xlink:title="PIDController::GetF">
<polygon fill="white" stroke="black" points="327.5,-114.5 327.5,-133.5 428.5,-133.5 428.5,-114.5 327.5,-114.5"/>
<text text-anchor="middle" x="378" y="-121.5" font-family="Helvetica,sans-Serif" font-size="10.00">PIDController::GetF</text>
</a>
</g>
<!-- Node2&#45;&gt;Node6 -->
<g id="edge10" class="edge"><title>Node2&#45;&gt;Node6</title>
<path fill="none" stroke="midnightblue" d="M276.042,-124C289.425,-124 303.721,-124 317.221,-124"/>
<polygon fill="midnightblue" stroke="midnightblue" points="317.36,-127.5 327.36,-124 317.36,-120.5 317.36,-127.5"/>
</g>
<!-- Node7 -->
<g id="node13" class="node"><title>Node7</title>
<a xlink:href="class_p_i_d_controller.html#ac25eb01ba2a0118f692bae207de62d63" target="_top" xlink:title="PIDController::GetSetpoint">
<polygon fill="white" stroke="black" points="312.5,-76.5 312.5,-95.5 443.5,-95.5 443.5,-76.5 312.5,-76.5"/>
<text text-anchor="middle" x="378" y="-83.5" font-family="Helvetica,sans-Serif" font-size="10.00">PIDController::GetSetpoint</text>
</a>
</g>
<!-- Node2&#45;&gt;Node7 -->
<g id="edge12" class="edge"><title>Node2&#45;&gt;Node7</title>
<path fill="none" stroke="midnightblue" d="M258.87,-114.411C279.72,-109.396 305.435,-103.212 327.543,-97.8947"/>
<polygon fill="midnightblue" stroke="midnightblue" points="328.512,-101.261 337.417,-95.5201 326.875,-94.4555 328.512,-101.261"/>
</g>
<!-- Node8 -->
<g id="node15" class="node"><title>Node8</title>
<a xlink:href="class_p_i_d_controller.html#a55f228ba275cac683e82bbc48a298842" target="_top" xlink:title="PIDController::IsEnabled">
<polygon fill="white" stroke="black" points="317,-38.5 317,-57.5 439,-57.5 439,-38.5 317,-38.5"/>
<text text-anchor="middle" x="378" y="-45.5" font-family="Helvetica,sans-Serif" font-size="10.00">PIDController::IsEnabled</text>
</a>
</g>
<!-- Node2&#45;&gt;Node8 -->
<g id="edge14" class="edge"><title>Node2&#45;&gt;Node8</title>
<path fill="none" stroke="midnightblue" d="M232.24,-114.311C249.737,-101.884 281.875,-80.3492 312,-67 317.106,-64.7375 322.555,-62.6605 328.043,-60.7781"/>
<polygon fill="midnightblue" stroke="midnightblue" points="329.456,-64.0001 337.901,-57.6017 327.309,-57.3374 329.456,-64.0001"/>
</g>
<!-- Node10 -->
<g id="node19" class="node"><title>Node10</title>
<a xlink:href="class_command.html#a68535903fc61c641f4ab2fdbd11d4257" target="_top" xlink:title="Command::GetName">
<polygon fill="white" stroke="black" points="324,-0.5 324,-19.5 432,-19.5 432,-0.5 324,-0.5"/>
<text text-anchor="middle" x="378" y="-7.5" font-family="Helvetica,sans-Serif" font-size="10.00">Command::GetName</text>
</a>
</g>
<!-- Node9&#45;&gt;Node10 -->
<g id="edge18" class="edge"><title>Node9&#45;&gt;Node10</title>
<path fill="none" stroke="midnightblue" d="M258.87,-38.411C279.72,-33.3965 305.435,-27.2119 327.543,-21.8947"/>
<polygon fill="midnightblue" stroke="midnightblue" points="328.512,-25.2615 337.417,-19.5201 326.875,-18.4555 328.512,-25.2615"/>
</g>
</g>
</svg>
