<?xml version="1.0" encoding="UTF-8" standalone="no"?>
<!DOCTYPE svg PUBLIC "-//W3C//DTD SVG 1.1//EN"
 "http://www.w3.org/Graphics/SVG/1.1/DTD/svg11.dtd">
<!-- Generated by graphviz version 2.28.0 (20110507.0327)
 -->
<!-- Title: AnalogPotentiometer::Get Pages: 1 -->
<svg width="486pt" height="66pt"
 viewBox="0.00 0.00 486.00 66.00" xmlns="http://www.w3.org/2000/svg" xmlns:xlink="http://www.w3.org/1999/xlink">
<g id="graph1" class="graph" transform="scale(1 1) rotate(0) translate(4 62)">
<title>AnalogPotentiometer::Get</title>
<polygon fill="white" stroke="white" points="-4,5 -4,-62 483,-62 483,5 -4,5"/>
<!-- Node1 -->
<g id="node1" class="node"><title>Node1</title>
<polygon fill="#bfbfbf" stroke="black" points="0.5,-19.5 0.5,-38.5 129.5,-38.5 129.5,-19.5 0.5,-19.5"/>
<text text-anchor="middle" x="65" y="-26.5" font-family="Helvetica,sans-Serif" font-size="10.00">AnalogPotentiometer::Get</text>
</g>
<!-- Node2 -->
<g id="node3" class="node"><title>Node2</title>
<a xlink:href="class_analog_input.html#a1da927d1b5784b66cf99f921bbfbe36b" target="_top" xlink:title="AnalogInput::GetVoltage">
<polygon fill="white" stroke="black" points="181,-38.5 181,-57.5 303,-57.5 303,-38.5 181,-38.5"/>
<text text-anchor="middle" x="242" y="-45.5" font-family="Helvetica,sans-Serif" font-size="10.00">AnalogInput::GetVoltage</text>
</a>
</g>
<!-- Node1&#45;&gt;Node2 -->
<g id="edge2" class="edge"><title>Node1&#45;&gt;Node2</title>
<path fill="none" stroke="midnightblue" d="M129.674,-35.9132C142.991,-37.359 157.105,-38.8914 170.649,-40.3618"/>
<polygon fill="midnightblue" stroke="midnightblue" points="170.552,-43.8719 180.872,-41.4718 171.308,-36.9128 170.552,-43.8719"/>
</g>
<!-- Node4 -->
<g id="node7" class="node"><title>Node4</title>
<a xlink:href="class_controller_power.html#a407d69acf87b0689659160746c75f331" target="_top" xlink:title="ControllerPower::GetVoltage5V">
<polygon fill="white" stroke="black" points="166,-0.5 166,-19.5 318,-19.5 318,-0.5 166,-0.5"/>
<text text-anchor="middle" x="242" y="-7.5" font-family="Helvetica,sans-Serif" font-size="10.00">ControllerPower::GetVoltage5V</text>
</a>
</g>
<!-- Node1&#45;&gt;Node4 -->
<g id="edge6" class="edge"><title>Node1&#45;&gt;Node4</title>
<path fill="none" stroke="midnightblue" d="M129.674,-22.0868C138.103,-21.1717 146.851,-20.2218 155.572,-19.275"/>
<polygon fill="midnightblue" stroke="midnightblue" points="156.213,-22.7261 165.777,-18.1671 155.457,-15.767 156.213,-22.7261"/>
</g>
<!-- Node3 -->
<g id="node5" class="node"><title>Node3</title>
<a xlink:href="class_error_base.html#a05790f219c9e436a09752f73f7344024" target="_top" xlink:title="Check if the current error code represents a fatal error. ">
<polygon fill="white" stroke="black" points="354,-38.5 354,-57.5 478,-57.5 478,-38.5 354,-38.5"/>
<text text-anchor="middle" x="416" y="-45.5" font-family="Helvetica,sans-Serif" font-size="10.00">ErrorBase::StatusIsFatal</text>
</a>
</g>
<!-- Node2&#45;&gt;Node3 -->
<g id="edge4" class="edge"><title>Node2&#45;&gt;Node3</title>
<path fill="none" stroke="midnightblue" d="M303.157,-48C316.204,-48 330.125,-48 343.558,-48"/>
<polygon fill="midnightblue" stroke="midnightblue" points="343.712,-51.5001 353.712,-48 343.712,-44.5001 343.712,-51.5001"/>
</g>
</g>
</svg>
