<?xml version="1.0" encoding="UTF-8" standalone="no"?>
<!DOCTYPE svg PUBLIC "-//W3C//DTD SVG 1.1//EN"
 "http://www.w3.org/Graphics/SVG/1.1/DTD/svg11.dtd">
<!-- Generated by graphviz version 2.28.0 (20110507.0327)
 -->
<!-- Title: CANJaguar::SetPercentMode Pages: 1 -->
<svg width="716pt" height="104pt"
 viewBox="0.00 0.00 716.00 104.00" xmlns="http://www.w3.org/2000/svg" xmlns:xlink="http://www.w3.org/1999/xlink">
<g id="graph1" class="graph" transform="scale(1 1) rotate(0) translate(4 100)">
<title>CANJaguar::SetPercentMode</title>
<polygon fill="white" stroke="white" points="-4,5 -4,-100 713,-100 713,5 -4,5"/>
<!-- Node1 -->
<g id="node1" class="node"><title>Node1</title>
<polygon fill="#bfbfbf" stroke="black" points="0,-38.5 0,-57.5 144,-57.5 144,-38.5 0,-38.5"/>
<text text-anchor="middle" x="72" y="-45.5" font-family="Helvetica,sans-Serif" font-size="10.00">CANJaguar::SetPercentMode</text>
</g>
<!-- Node2 -->
<g id="node3" class="node"><title>Node2</title>
<a xlink:href="class_c_a_n_jaguar.html#ad359943907bf802075474a3753f7fb02" target="_top" xlink:title="CANJaguar::SetControlMode">
<polygon fill="white" stroke="black" points="188.5,-76.5 188.5,-95.5 329.5,-95.5 329.5,-76.5 188.5,-76.5"/>
<text text-anchor="middle" x="259" y="-83.5" font-family="Helvetica,sans-Serif" font-size="10.00">CANJaguar::SetControlMode</text>
</a>
</g>
<!-- Node1&#45;&gt;Node2 -->
<g id="edge2" class="edge"><title>Node1&#45;&gt;Node2</title>
<path fill="none" stroke="midnightblue" d="M119.683,-57.589C144.646,-62.7165 175.564,-69.0672 201.834,-74.4632"/>
<polygon fill="midnightblue" stroke="midnightblue" points="201.153,-77.8962 211.652,-76.4799 202.561,-71.0394 201.153,-77.8962"/>
</g>
<!-- Node5 -->
<g id="node9" class="node"><title>Node5</title>
<a xlink:href="class_c_a_n_jaguar.html#a4ea009bbaaa337eeb10efba61203ee38" target="_top" xlink:title="CANJaguar::SetPositionReference">
<polygon fill="white" stroke="black" points="374.5,-38.5 374.5,-57.5 539.5,-57.5 539.5,-38.5 374.5,-38.5"/>
<text text-anchor="middle" x="457" y="-45.5" font-family="Helvetica,sans-Serif" font-size="10.00">CANJaguar::SetPositionReference</text>
</a>
</g>
<!-- Node1&#45;&gt;Node5 -->
<g id="edge8" class="edge"><title>Node1&#45;&gt;Node5</title>
<path fill="none" stroke="midnightblue" d="M144.142,-48C206.18,-48 296.56,-48 364.069,-48"/>
<polygon fill="midnightblue" stroke="midnightblue" points="364.278,-51.5001 374.278,-48 364.278,-44.5001 364.278,-51.5001"/>
</g>
<!-- Node6 -->
<g id="node12" class="node"><title>Node6</title>
<a xlink:href="class_c_a_n_jaguar.html#ac6780a940570ec0386d234b309fb260d" target="_top" xlink:title="CANJaguar::SetSpeedReference">
<polygon fill="white" stroke="black" points="180,-0.5 180,-19.5 338,-19.5 338,-0.5 180,-0.5"/>
<text text-anchor="middle" x="259" y="-7.5" font-family="Helvetica,sans-Serif" font-size="10.00">CANJaguar::SetSpeedReference</text>
</a>
</g>
<!-- Node1&#45;&gt;Node6 -->
<g id="edge12" class="edge"><title>Node1&#45;&gt;Node6</title>
<path fill="none" stroke="midnightblue" d="M119.683,-38.411C144.646,-33.2835 175.564,-26.9328 201.834,-21.5368"/>
<polygon fill="midnightblue" stroke="midnightblue" points="202.561,-24.9606 211.652,-19.5201 201.153,-18.1038 202.561,-24.9606"/>
</g>
<!-- Node3 -->
<g id="node5" class="node"><title>Node3</title>
<a xlink:href="class_c_a_n_jaguar.html#a6bbbf784a74cf95f7b4a5660a3d53cc2" target="_top" xlink:title="CANJaguar::DisableControl">
<polygon fill="white" stroke="black" points="390,-76.5 390,-95.5 524,-95.5 524,-76.5 390,-76.5"/>
<text text-anchor="middle" x="457" y="-83.5" font-family="Helvetica,sans-Serif" font-size="10.00">CANJaguar::DisableControl</text>
</a>
</g>
<!-- Node2&#45;&gt;Node3 -->
<g id="edge4" class="edge"><title>Node2&#45;&gt;Node3</title>
<path fill="none" stroke="midnightblue" d="M329.654,-86C345.873,-86 363.226,-86 379.715,-86"/>
<polygon fill="midnightblue" stroke="midnightblue" points="379.853,-89.5001 389.853,-86 379.853,-82.5001 379.853,-89.5001"/>
</g>
<!-- Node4 -->
<g id="node7" class="node"><title>Node4</title>
<a xlink:href="class_c_a_n_jaguar.html#a6b82b54cc4033c3c5218ab04fb6c8282" target="_top" xlink:title="CANJaguar::sendMessage">
<polygon fill="white" stroke="black" points="576,-38.5 576,-57.5 708,-57.5 708,-38.5 576,-38.5"/>
<text text-anchor="middle" x="642" y="-45.5" font-family="Helvetica,sans-Serif" font-size="10.00">CANJaguar::sendMessage</text>
</a>
</g>
<!-- Node3&#45;&gt;Node4 -->
<g id="edge6" class="edge"><title>Node3&#45;&gt;Node4</title>
<path fill="none" stroke="midnightblue" d="M504.179,-76.411C528.763,-71.3061 559.186,-64.9887 585.097,-59.6082"/>
<polygon fill="midnightblue" stroke="midnightblue" points="586.074,-62.9802 595.153,-57.5201 584.651,-56.1264 586.074,-62.9802"/>
</g>
<!-- Node5&#45;&gt;Node4 -->
<g id="edge10" class="edge"><title>Node5&#45;&gt;Node4</title>
<path fill="none" stroke="midnightblue" d="M539.599,-48C548.299,-48 557.12,-48 565.742,-48"/>
<polygon fill="midnightblue" stroke="midnightblue" points="565.754,-51.5001 575.754,-48 565.754,-44.5001 565.754,-51.5001"/>
</g>
<!-- Node6&#45;&gt;Node4 -->
<g id="edge14" class="edge"><title>Node6&#45;&gt;Node4</title>
<path fill="none" stroke="midnightblue" d="M338.09,-12.8243C394.386,-15.4624 472.094,-20.3397 540,-29 555.099,-30.9257 571.352,-33.678 586.312,-36.4921"/>
<polygon fill="midnightblue" stroke="midnightblue" points="585.951,-39.9868 596.432,-38.4408 587.274,-33.113 585.951,-39.9868"/>
</g>
</g>
</svg>
