<?xml version="1.0" encoding="UTF-8" standalone="no"?>
<!DOCTYPE svg PUBLIC "-//W3C//DTD SVG 1.1//EN"
 "http://www.w3.org/Graphics/SVG/1.1/DTD/svg11.dtd">
<!-- Generated by graphviz version 2.28.0 (20110507.0327)
 -->
<!-- Title: DoubleSolenoid::~DoubleSolenoid Pages: 1 -->
<svg width="350pt" height="77pt"
 viewBox="0.00 0.00 350.00 77.00" xmlns="http://www.w3.org/2000/svg" xmlns:xlink="http://www.w3.org/1999/xlink">
<g id="graph1" class="graph" transform="scale(1 1) rotate(0) translate(4 73)">
<title>DoubleSolenoid::~DoubleSolenoid</title>
<polygon fill="white" stroke="white" points="-4,5 -4,-73 347,-73 347,5 -4,5"/>
<!-- Node1 -->
<g id="node1" class="node"><title>Node1</title>
<polygon fill="#bfbfbf" stroke="black" points="0,-22.5 0,-41.5 164,-41.5 164,-22.5 0,-22.5"/>
<text text-anchor="middle" x="82" y="-29.5" font-family="Helvetica,sans-Serif" font-size="10.00">DoubleSolenoid::~DoubleSolenoid</text>
</g>
<!-- Node2 -->
<g id="node3" class="node"><title>Node2</title>
<a xlink:href="class_sensor_base.html#aacc7c789e0b8dd975aad71c78be4f308" target="_top" xlink:title="SensorBase::CheckSolenoid\lModule">
<polygon fill="white" stroke="black" points="200.5,-39 200.5,-69 341.5,-69 341.5,-39 200.5,-39"/>
<text text-anchor="start" x="208.5" y="-57" font-family="Helvetica,sans-Serif" font-size="10.00">SensorBase::CheckSolenoid</text>
<text text-anchor="middle" x="271" y="-46" font-family="Helvetica,sans-Serif" font-size="10.00">Module</text>
</a>
</g>
<!-- Node1&#45;&gt;Node2 -->
<g id="edge2" class="edge"><title>Node1&#45;&gt;Node2</title>
<path fill="none" stroke="midnightblue" d="M163.933,-41.5216C172.66,-42.5482 181.535,-43.5924 190.247,-44.6173"/>
<polygon fill="midnightblue" stroke="midnightblue" points="190.041,-48.1171 200.382,-45.8096 190.859,-41.1651 190.041,-48.1171"/>
</g>
<!-- Node3 -->
<g id="node5" class="node"><title>Node3</title>
<a xlink:href="class_resource.html#acb86b8c2fc22b8f5ba324db1a9ef4f17" target="_top" xlink:title="Resource::Free">
<polygon fill="white" stroke="black" points="229.5,-0.5 229.5,-19.5 312.5,-19.5 312.5,-0.5 229.5,-0.5"/>
<text text-anchor="middle" x="271" y="-7.5" font-family="Helvetica,sans-Serif" font-size="10.00">Resource::Free</text>
</a>
</g>
<!-- Node1&#45;&gt;Node3 -->
<g id="edge4" class="edge"><title>Node1&#45;&gt;Node3</title>
<path fill="none" stroke="midnightblue" d="M163.933,-22.4784C182.653,-20.2762 202.056,-17.9934 219.069,-15.9919"/>
<polygon fill="midnightblue" stroke="midnightblue" points="219.803,-19.4297 229.326,-14.7852 218.985,-12.4777 219.803,-19.4297"/>
</g>
</g>
</svg>
