<?xml version="1.0" encoding="UTF-8" standalone="no"?>
<!DOCTYPE svg PUBLIC "-//W3C//DTD SVG 1.1//EN"
 "http://www.w3.org/Graphics/SVG/1.1/DTD/svg11.dtd">
<!-- Generated by graphviz version 2.28.0 (20110507.0327)
 -->
<!-- Title: SafePWM Pages: 1 -->
<svg width="403pt" height="252pt"
 viewBox="0.00 0.00 403.00 252.00" xmlns="http://www.w3.org/2000/svg" xmlns:xlink="http://www.w3.org/1999/xlink">
<g id="graph1" class="graph" transform="scale(1 1) rotate(0) translate(4 248)">
<title>SafePWM</title>
<polygon fill="white" stroke="white" points="-4,5 -4,-248 400,-248 400,5 -4,5"/>
<!-- Node1 -->
<g id="node1" class="node"><title>Node1</title>
<polygon fill="#bfbfbf" stroke="black" points="132.5,-56.5 132.5,-75.5 193.5,-75.5 193.5,-56.5 132.5,-56.5"/>
<text text-anchor="middle" x="163" y="-63.5" font-family="Helvetica,sans-Serif" font-size="10.00">SafePWM</text>
</g>
<!-- Node9 -->
<g id="node22" class="node"><title>Node9</title>
<a xlink:href="class_jaguar.html" target="_top" xlink:title="Jaguar">
<polygon fill="white" stroke="black" points="20.5,-0.5 20.5,-19.5 65.5,-19.5 65.5,-0.5 20.5,-0.5"/>
<text text-anchor="middle" x="43" y="-7.5" font-family="Helvetica,sans-Serif" font-size="10.00">Jaguar</text>
</a>
</g>
<!-- Node1&#45;&gt;Node9 -->
<g id="edge26" class="edge"><title>Node1&#45;&gt;Node9</title>
<path fill="none" stroke="midnightblue" d="M129.432,-52.503C105.459,-42.3795 74.6056,-28.388 56.8454,-19.5164"/>
<polygon fill="midnightblue" stroke="midnightblue" points="128.32,-55.8311 138.897,-56.4435 131.01,-49.3688 128.32,-55.8311"/>
</g>
<!-- Node1&#45;&gt;Node9 -->
<g id="edge28" class="edge"><title>Node1&#45;&gt;Node9</title>
<path fill="none" stroke="midnightblue" d="M139.748,-51.8888C118.291,-41.5987 86.8942,-27.6102 65.6195,-18.9507"/>
<polygon fill="midnightblue" stroke="midnightblue" points="138.313,-55.0831 148.835,-56.324 141.383,-48.7924 138.313,-55.0831"/>
</g>
<!-- Node10 -->
<g id="node25" class="node"><title>Node10</title>
<a xlink:href="class_servo.html" target="_top" xlink:title="Servo">
<polygon fill="white" stroke="black" points="83.5,-0.5 83.5,-19.5 124.5,-19.5 124.5,-0.5 83.5,-0.5"/>
<text text-anchor="middle" x="104" y="-7.5" font-family="Helvetica,sans-Serif" font-size="10.00">Servo</text>
</a>
</g>
<!-- Node1&#45;&gt;Node10 -->
<g id="edge30" class="edge"><title>Node1&#45;&gt;Node10</title>
<path fill="none" stroke="midnightblue" d="M146.105,-49.5372C135.585,-39.9087 122.431,-27.8694 113.652,-19.8339"/>
<polygon fill="midnightblue" stroke="midnightblue" points="143.781,-52.1542 153.521,-56.324 148.507,-46.9905 143.781,-52.1542"/>
</g>
<!-- Node11 -->
<g id="node27" class="node"><title>Node11</title>
<a xlink:href="class_talon.html" target="_top" xlink:title="Talon">
<polygon fill="white" stroke="black" points="143,-0.5 143,-19.5 183,-19.5 183,-0.5 143,-0.5"/>
<text text-anchor="middle" x="163" y="-7.5" font-family="Helvetica,sans-Serif" font-size="10.00">Talon</text>
</a>
</g>
<!-- Node1&#45;&gt;Node11 -->
<g id="edge32" class="edge"><title>Node1&#45;&gt;Node11</title>
<path fill="none" stroke="midnightblue" d="M156.528,-46.1005C155.896,-37.1357 156.343,-26.8579 157.869,-19.7511"/>
<polygon fill="midnightblue" stroke="midnightblue" points="153.066,-46.6216 157.834,-56.083 160.007,-45.7134 153.066,-46.6216"/>
</g>
<!-- Node1&#45;&gt;Node11 -->
<g id="edge34" class="edge"><title>Node1&#45;&gt;Node11</title>
<path fill="none" stroke="midnightblue" d="M169.472,-46.1005C170.104,-37.1357 169.657,-26.8579 168.131,-19.7511"/>
<polygon fill="midnightblue" stroke="midnightblue" points="165.993,-45.7134 168.166,-56.083 172.934,-46.6216 165.993,-45.7134"/>
</g>
<!-- Node12 -->
<g id="node30" class="node"><title>Node12</title>
<a xlink:href="class_talon_s_r_x.html" target="_top" xlink:title="TalonSRX">
<polygon fill="white" stroke="black" points="201.5,-0.5 201.5,-19.5 260.5,-19.5 260.5,-0.5 201.5,-0.5"/>
<text text-anchor="middle" x="231" y="-7.5" font-family="Helvetica,sans-Serif" font-size="10.00">TalonSRX</text>
</a>
</g>
<!-- Node1&#45;&gt;Node12 -->
<g id="edge36" class="edge"><title>Node1&#45;&gt;Node12</title>
<path fill="none" stroke="midnightblue" d="M181.762,-50.1008C194,-40.3824 209.559,-28.0269 219.876,-19.8339"/>
<polygon fill="midnightblue" stroke="midnightblue" points="179.58,-47.3642 173.925,-56.324 183.933,-52.846 179.58,-47.3642"/>
</g>
<!-- Node13 -->
<g id="node32" class="node"><title>Node13</title>
<a xlink:href="class_victor.html" target="_top" xlink:title="Victor">
<polygon fill="white" stroke="black" points="279,-0.5 279,-19.5 321,-19.5 321,-0.5 279,-0.5"/>
<text text-anchor="middle" x="300" y="-7.5" font-family="Helvetica,sans-Serif" font-size="10.00">Victor</text>
</a>
</g>
<!-- Node1&#45;&gt;Node13 -->
<g id="edge38" class="edge"><title>Node1&#45;&gt;Node13</title>
<path fill="none" stroke="midnightblue" d="M188.924,-52.4966C215.075,-41.5605 254.671,-26.114 278.977,-17.4826"/>
<polygon fill="midnightblue" stroke="midnightblue" points="187.458,-49.3163 179.619,-56.4435 190.192,-55.7605 187.458,-49.3163"/>
</g>
<!-- Node1&#45;&gt;Node13 -->
<g id="edge40" class="edge"><title>Node1&#45;&gt;Node13</title>
<path fill="none" stroke="midnightblue" d="M199.42,-52.9058C226.72,-42.7536 262.646,-28.5063 283.473,-19.5164"/>
<polygon fill="midnightblue" stroke="midnightblue" points="197.975,-49.708 189.797,-56.4435 200.39,-56.2781 197.975,-49.708"/>
</g>
<!-- Node14 -->
<g id="node35" class="node"><title>Node14</title>
<a xlink:href="class_victor_s_p.html" target="_top" xlink:title="VictorSP">
<polygon fill="white" stroke="black" points="339,-0.5 339,-19.5 395,-19.5 395,-0.5 339,-0.5"/>
<text text-anchor="middle" x="367" y="-7.5" font-family="Helvetica,sans-Serif" font-size="10.00">VictorSP</text>
</a>
</g>
<!-- Node1&#45;&gt;Node14 -->
<g id="edge42" class="edge"><title>Node1&#45;&gt;Node14</title>
<path fill="none" stroke="midnightblue" d="M203.257,-54.3437C243.31,-43.7416 303.726,-27.7491 338.881,-18.4434"/>
<polygon fill="midnightblue" stroke="midnightblue" points="202.312,-50.9732 193.541,-56.9157 204.104,-57.7401 202.312,-50.9732"/>
</g>
<!-- Node2 -->
<g id="node2" class="node"><title>Node2</title>
<a xlink:href="class_p_w_m.html" target="_top" xlink:title="PWM">
<polygon fill="white" stroke="black" points="106.5,-112.5 106.5,-131.5 147.5,-131.5 147.5,-112.5 106.5,-112.5"/>
<text text-anchor="middle" x="127" y="-119.5" font-family="Helvetica,sans-Serif" font-size="10.00">PWM</text>
</a>
</g>
<!-- Node2&#45;&gt;Node1 -->
<g id="edge2" class="edge"><title>Node2&#45;&gt;Node1</title>
<path fill="none" stroke="midnightblue" d="M132.605,-102.983C137.989,-93.8168 145.564,-83.0922 152.035,-75.7511"/>
<polygon fill="midnightblue" stroke="midnightblue" points="129.372,-101.609 127.778,-112.083 135.556,-104.889 129.372,-101.609"/>
</g>
<!-- Node2&#45;&gt;Node1 -->
<g id="edge22" class="edge"><title>Node2&#45;&gt;Node1</title>
<path fill="none" stroke="midnightblue" d="M144.545,-104.144C151.676,-94.7357 158.838,-83.4046 162.297,-75.7511"/>
<polygon fill="midnightblue" stroke="midnightblue" points="141.688,-102.11 138.111,-112.083 147.126,-106.517 141.688,-102.11"/>
</g>
<!-- Node3 -->
<g id="node4" class="node"><title>Node3</title>
<a xlink:href="class_sensor_base.html" target="_top" xlink:title="SensorBase">
<polygon fill="white" stroke="black" points="0,-168.5 0,-187.5 70,-187.5 70,-168.5 0,-168.5"/>
<text text-anchor="middle" x="35" y="-175.5" font-family="Helvetica,sans-Serif" font-size="10.00">SensorBase</text>
</a>
</g>
<!-- Node3&#45;&gt;Node2 -->
<g id="edge4" class="edge"><title>Node3&#45;&gt;Node2</title>
<path fill="none" stroke="midnightblue" d="M53.4493,-162.622C69.0707,-152.757 91.1313,-139.992 107.145,-131.655"/>
<polygon fill="midnightblue" stroke="midnightblue" points="51.1482,-159.943 44.6666,-168.324 54.9599,-165.814 51.1482,-159.943"/>
</g>
<!-- Node3&#45;&gt;Node2 -->
<g id="edge14" class="edge"><title>Node3&#45;&gt;Node2</title>
<path fill="none" stroke="midnightblue" d="M63.7714,-163.59C82.1084,-153.605 104.561,-140.267 117.365,-131.655"/>
<polygon fill="midnightblue" stroke="midnightblue" points="62.072,-160.529 54.8962,-168.324 65.3667,-166.705 62.072,-160.529"/>
</g>
<!-- Node4 -->
<g id="node6" class="node"><title>Node4</title>
<a xlink:href="class_error_base.html" target="_top" xlink:title="ErrorBase">
<polygon fill="white" stroke="black" points="5,-224.5 5,-243.5 65,-243.5 65,-224.5 5,-224.5"/>
<text text-anchor="middle" x="35" y="-231.5" font-family="Helvetica,sans-Serif" font-size="10.00">ErrorBase</text>
</a>
</g>
<!-- Node4&#45;&gt;Node3 -->
<g id="edge6" class="edge"><title>Node4&#45;&gt;Node3</title>
<path fill="none" stroke="midnightblue" d="M35,-213.805C35,-204.91 35,-194.78 35,-187.751"/>
<polygon fill="midnightblue" stroke="midnightblue" points="31.5001,-214.083 35,-224.083 38.5001,-214.083 31.5001,-214.083"/>
</g>
<!-- Node5 -->
<g id="node8" class="node"><title>Node5</title>
<polygon fill="white" stroke="#bfbfbf" points="88.5,-168.5 88.5,-187.5 165.5,-187.5 165.5,-168.5 88.5,-168.5"/>
<text text-anchor="middle" x="127" y="-175.5" font-family="Helvetica,sans-Serif" font-size="10.00">ITableListener</text>
</g>
<!-- Node5&#45;&gt;Node2 -->
<g id="edge8" class="edge"><title>Node5&#45;&gt;Node2</title>
<path fill="none" stroke="midnightblue" d="M120.528,-158.101C119.896,-149.136 120.343,-138.858 121.869,-131.751"/>
<polygon fill="midnightblue" stroke="midnightblue" points="117.066,-158.622 121.834,-168.083 124.007,-157.713 117.066,-158.622"/>
</g>
<!-- Node5&#45;&gt;Node2 -->
<g id="edge16" class="edge"><title>Node5&#45;&gt;Node2</title>
<path fill="none" stroke="midnightblue" d="M133.472,-158.101C134.104,-149.136 133.657,-138.858 132.131,-131.751"/>
<polygon fill="midnightblue" stroke="midnightblue" points="129.993,-157.713 132.166,-168.083 136.934,-158.622 129.993,-157.713"/>
</g>
<!-- Node6 -->
<g id="node10" class="node"><title>Node6</title>
<a xlink:href="class_live_window_sendable.html" target="_top" xlink:title="LiveWindowSendable">
<polygon fill="white" stroke="black" points="184,-168.5 184,-187.5 292,-187.5 292,-168.5 184,-168.5"/>
<text text-anchor="middle" x="238" y="-175.5" font-family="Helvetica,sans-Serif" font-size="10.00">LiveWindowSendable</text>
</a>
</g>
<!-- Node6&#45;&gt;Node2 -->
<g id="edge10" class="edge"><title>Node6&#45;&gt;Node2</title>
<path fill="none" stroke="midnightblue" d="M205.919,-164.232C183.723,-154.131 155.563,-140.309 139.426,-131.516"/>
<polygon fill="midnightblue" stroke="midnightblue" points="204.766,-167.551 215.323,-168.444 207.627,-161.162 204.766,-167.551"/>
</g>
<!-- Node6&#45;&gt;Node2 -->
<g id="edge18" class="edge"><title>Node6&#45;&gt;Node2</title>
<path fill="none" stroke="midnightblue" d="M216.285,-163.551C196.293,-153.157 167.136,-139.144 147.506,-130.607"/>
<polygon fill="midnightblue" stroke="midnightblue" points="214.807,-166.729 225.281,-168.324 218.087,-160.546 214.807,-166.729"/>
</g>
<!-- Node7 -->
<g id="node12" class="node"><title>Node7</title>
<a xlink:href="class_sendable.html" target="_top" xlink:title="Sendable">
<polygon fill="white" stroke="black" points="209.5,-224.5 209.5,-243.5 266.5,-243.5 266.5,-224.5 209.5,-224.5"/>
<text text-anchor="middle" x="238" y="-231.5" font-family="Helvetica,sans-Serif" font-size="10.00">Sendable</text>
</a>
</g>
<!-- Node7&#45;&gt;Node6 -->
<g id="edge12" class="edge"><title>Node7&#45;&gt;Node6</title>
<path fill="none" stroke="midnightblue" d="M238,-213.805C238,-204.91 238,-194.78 238,-187.751"/>
<polygon fill="midnightblue" stroke="midnightblue" points="234.5,-214.083 238,-224.083 241.5,-214.083 234.5,-214.083"/>
</g>
<!-- Node8 -->
<g id="node17" class="node"><title>Node8</title>
<a xlink:href="class_motor_safety.html" target="_top" xlink:title="MotorSafety">
<polygon fill="white" stroke="black" points="165.5,-112.5 165.5,-131.5 234.5,-131.5 234.5,-112.5 165.5,-112.5"/>
<text text-anchor="middle" x="200" y="-119.5" font-family="Helvetica,sans-Serif" font-size="10.00">MotorSafety</text>
</a>
</g>
<!-- Node8&#45;&gt;Node1 -->
<g id="edge24" class="edge"><title>Node8&#45;&gt;Node1</title>
<path fill="none" stroke="midnightblue" d="M182.143,-104.144C174.837,-94.7357 167.466,-83.4046 163.865,-75.7511"/>
<polygon fill="midnightblue" stroke="midnightblue" points="179.647,-106.618 188.724,-112.083 185.037,-102.15 179.647,-106.618"/>
</g>
<!-- Node8&#45;&gt;Node1 -->
<g id="edge20" class="edge"><title>Node8&#45;&gt;Node1</title>
<path fill="none" stroke="midnightblue" d="M194.238,-103.275C188.673,-94.0454 180.804,-83.1703 174.127,-75.7511"/>
<polygon fill="midnightblue" stroke="midnightblue" points="191.186,-104.99 199.057,-112.083 197.328,-101.63 191.186,-104.99"/>
</g>
</g>
</svg>
