<?xml version="1.0" encoding="UTF-8" standalone="no"?>
<!DOCTYPE svg PUBLIC "-//W3C//DTD SVG 1.1//EN"
 "http://www.w3.org/Graphics/SVG/1.1/DTD/svg11.dtd">
<!-- Generated by graphviz version 2.28.0 (20110507.0327)
 -->
<!-- Title: TalonSRX::Set Pages: 1 -->
<svg width="730pt" height="85pt"
 viewBox="0.00 0.00 730.00 85.00" xmlns="http://www.w3.org/2000/svg" xmlns:xlink="http://www.w3.org/1999/xlink">
<g id="graph1" class="graph" transform="scale(1 1) rotate(0) translate(4 81)">
<title>TalonSRX::Set</title>
<polygon fill="white" stroke="white" points="-4,5 -4,-81 727,-81 727,5 -4,5"/>
<!-- Node1 -->
<g id="node1" class="node"><title>Node1</title>
<polygon fill="#bfbfbf" stroke="black" points="0,-19.5 0,-38.5 80,-38.5 80,-19.5 0,-19.5"/>
<text text-anchor="middle" x="40" y="-26.5" font-family="Helvetica,sans-Serif" font-size="10.00">TalonSRX::Set</text>
</g>
<!-- Node2 -->
<g id="node3" class="node"><title>Node2</title>
<a xlink:href="class_safe_p_w_m.html#af1ed936d88f3ee6446b01c17feb24b78" target="_top" xlink:title="SafePWM::SetSpeed">
<polygon fill="white" stroke="black" points="116,-19.5 116,-38.5 226,-38.5 226,-19.5 116,-19.5"/>
<text text-anchor="middle" x="171" y="-26.5" font-family="Helvetica,sans-Serif" font-size="10.00">SafePWM::SetSpeed</text>
</a>
</g>
<!-- Node1&#45;&gt;Node2 -->
<g id="edge2" class="edge"><title>Node1&#45;&gt;Node2</title>
<path fill="none" stroke="midnightblue" d="M80.0543,-29C88.1559,-29 96.8953,-29 105.632,-29"/>
<polygon fill="midnightblue" stroke="midnightblue" points="105.847,-32.5001 115.847,-29 105.847,-25.5001 105.847,-32.5001"/>
</g>
<!-- Node3 -->
<g id="node5" class="node"><title>Node3</title>
<a xlink:href="class_p_w_m.html#a947e5f6073da9e4d1b60db0c7791ca9c" target="_top" xlink:title="PWM::SetSpeed">
<polygon fill="white" stroke="black" points="280,-38.5 280,-57.5 370,-57.5 370,-38.5 280,-38.5"/>
<text text-anchor="middle" x="325" y="-45.5" font-family="Helvetica,sans-Serif" font-size="10.00">PWM::SetSpeed</text>
</a>
</g>
<!-- Node2&#45;&gt;Node3 -->
<g id="edge4" class="edge"><title>Node2&#45;&gt;Node3</title>
<path fill="none" stroke="midnightblue" d="M226.017,-35.7522C240.162,-37.5203 255.419,-39.4273 269.584,-41.198"/>
<polygon fill="midnightblue" stroke="midnightblue" points="269.318,-44.6919 279.675,-42.4593 270.186,-37.7459 269.318,-44.6919"/>
</g>
<!-- Node6 -->
<g id="node12" class="node"><title>Node6</title>
<a xlink:href="class_motor_safety_helper.html#a67b80e9817dc725e0678de5e8f0bb39e" target="_top" xlink:title="MotorSafetyHelper::Feed">
<polygon fill="white" stroke="black" points="262.5,-0.5 262.5,-19.5 387.5,-19.5 387.5,-0.5 262.5,-0.5"/>
<text text-anchor="middle" x="325" y="-7.5" font-family="Helvetica,sans-Serif" font-size="10.00">MotorSafetyHelper::Feed</text>
</a>
</g>
<!-- Node2&#45;&gt;Node6 -->
<g id="edge12" class="edge"><title>Node2&#45;&gt;Node6</title>
<path fill="none" stroke="midnightblue" d="M226.017,-22.2478C234.573,-21.1783 243.536,-20.0581 252.417,-18.9478"/>
<polygon fill="midnightblue" stroke="midnightblue" points="252.896,-22.4153 262.385,-17.7019 252.028,-15.4694 252.896,-22.4153"/>
</g>
<!-- Node4 -->
<g id="node7" class="node"><title>Node4</title>
<a xlink:href="class_error_base.html#a05790f219c9e436a09752f73f7344024" target="_top" xlink:title="Check if the current error code represents a fatal error. ">
<polygon fill="white" stroke="black" points="598,-57.5 598,-76.5 722,-76.5 722,-57.5 598,-57.5"/>
<text text-anchor="middle" x="660" y="-64.5" font-family="Helvetica,sans-Serif" font-size="10.00">ErrorBase::StatusIsFatal</text>
</a>
</g>
<!-- Node3&#45;&gt;Node4 -->
<g id="edge6" class="edge"><title>Node3&#45;&gt;Node4</title>
<path fill="none" stroke="midnightblue" d="M365.799,-57.5105C383.506,-61.2756 404.679,-65.1443 424,-67 478.862,-72.2692 541.26,-71.9774 587.965,-70.5263"/>
<polygon fill="midnightblue" stroke="midnightblue" points="588.107,-74.0236 597.983,-70.1899 587.872,-67.0276 588.107,-74.0236"/>
</g>
<!-- Node5 -->
<g id="node9" class="node"><title>Node5</title>
<a xlink:href="class_p_w_m.html#a0c546e1aa7d5d091447a819e50fae9ca" target="_top" xlink:title="PWM::SetRaw">
<polygon fill="white" stroke="black" points="452.5,-38.5 452.5,-57.5 533.5,-57.5 533.5,-38.5 452.5,-38.5"/>
<text text-anchor="middle" x="493" y="-45.5" font-family="Helvetica,sans-Serif" font-size="10.00">PWM::SetRaw</text>
</a>
</g>
<!-- Node3&#45;&gt;Node5 -->
<g id="edge8" class="edge"><title>Node3&#45;&gt;Node5</title>
<path fill="none" stroke="midnightblue" d="M370.049,-48C392.205,-48 419.151,-48 442.073,-48"/>
<polygon fill="midnightblue" stroke="midnightblue" points="442.29,-51.5001 452.29,-48 442.29,-44.5001 442.29,-51.5001"/>
</g>
<!-- Node5&#45;&gt;Node4 -->
<g id="edge10" class="edge"><title>Node5&#45;&gt;Node4</title>
<path fill="none" stroke="midnightblue" d="M533.522,-52.551C549.846,-54.4308 569.286,-56.6693 587.931,-58.8163"/>
<polygon fill="midnightblue" stroke="midnightblue" points="587.55,-62.2954 597.884,-59.9624 588.35,-55.3414 587.55,-62.2954"/>
</g>
<!-- Node7 -->
<g id="node14" class="node"><title>Node7</title>
<a xlink:href="class_timer.html#a7fa6e6dffec055e5104ccd6bcadec9aa" target="_top" xlink:title="Timer::GetFPGATimestamp">
<polygon fill="white" stroke="black" points="424.5,-0.5 424.5,-19.5 561.5,-19.5 561.5,-0.5 424.5,-0.5"/>
<text text-anchor="middle" x="493" y="-7.5" font-family="Helvetica,sans-Serif" font-size="10.00">Timer::GetFPGATimestamp</text>
</a>
</g>
<!-- Node6&#45;&gt;Node7 -->
<g id="edge14" class="edge"><title>Node6&#45;&gt;Node7</title>
<path fill="none" stroke="midnightblue" d="M387.812,-10C396.359,-10 405.227,-10 414.02,-10"/>
<polygon fill="midnightblue" stroke="midnightblue" points="414.283,-13.5001 424.283,-10 414.283,-6.5001 414.283,-13.5001"/>
</g>
<!-- Node8 -->
<g id="node16" class="node"><title>Node8</title>
<a xlink:href="_utility_8h.html#ababf055d95368485d48bd9a0231853f3" target="_top" xlink:title="GetFPGATime">
<polygon fill="white" stroke="black" points="620,-0.5 620,-19.5 700,-19.5 700,-0.5 620,-0.5"/>
<text text-anchor="middle" x="660" y="-7.5" font-family="Helvetica,sans-Serif" font-size="10.00">GetFPGATime</text>
</a>
</g>
<!-- Node7&#45;&gt;Node8 -->
<g id="edge16" class="edge"><title>Node7&#45;&gt;Node8</title>
<path fill="none" stroke="midnightblue" d="M561.588,-10C577.641,-10 594.473,-10 609.543,-10"/>
<polygon fill="midnightblue" stroke="midnightblue" points="609.664,-13.5001 619.663,-10 609.663,-6.5001 609.664,-13.5001"/>
</g>
</g>
</svg>
