<?xml version="1.0" encoding="UTF-8" standalone="no"?>
<!DOCTYPE svg PUBLIC "-//W3C//DTD SVG 1.1//EN"
 "http://www.w3.org/Graphics/SVG/1.1/DTD/svg11.dtd">
<!-- Generated by graphviz version 2.28.0 (20110507.0327)
 -->
<!-- Title: ADXL345_SPI Pages: 1 -->
<svg width="302pt" height="290pt"
 viewBox="0.00 0.00 302.00 290.00" xmlns="http://www.w3.org/2000/svg" xmlns:xlink="http://www.w3.org/1999/xlink">
<g id="graph1" class="graph" transform="scale(1 1) rotate(0) translate(4 286)">
<title>ADXL345_SPI</title>
<polygon fill="white" stroke="white" points="-4,5 -4,-286 299,-286 299,5 -4,5"/>
<!-- Node1 -->
<g id="node1" class="node"><title>Node1</title>
<polygon fill="#bfbfbf" stroke="black" points="88.5,-0.5 88.5,-19.5 165.5,-19.5 165.5,-0.5 88.5,-0.5"/>
<text text-anchor="middle" x="127" y="-7.5" font-family="Helvetica,sans-Serif" font-size="10.00">ADXL345_SPI</text>
</g>
<!-- Node2 -->
<g id="node2" class="node"><title>Node2</title>
<a xlink:href="class_accelerometer.html" target="_top" xlink:title="Accelerometer">
<polygon fill="white" stroke="black" points="0,-68.5 0,-87.5 80,-87.5 80,-68.5 0,-68.5"/>
<text text-anchor="middle" x="40" y="-75.5" font-family="Helvetica,sans-Serif" font-size="10.00">Accelerometer</text>
</a>
</g>
<!-- Node2&#45;&gt;Node1 -->
<g id="edge2" class="edge"><title>Node2&#45;&gt;Node1</title>
<path fill="none" stroke="midnightblue" d="M59.646,-62.0961C76.9076,-49.0012 101.424,-30.4028 115.623,-19.6305"/>
<polygon fill="midnightblue" stroke="midnightblue" points="57.2253,-59.5393 51.3737,-68.3717 61.456,-65.1162 57.2253,-59.5393"/>
</g>
<!-- Node3 -->
<g id="node4" class="node"><title>Node3</title>
<a xlink:href="class_sensor_base.html" target="_top" xlink:title="SensorBase">
<polygon fill="white" stroke="black" points="91,-126.5 91,-145.5 161,-145.5 161,-126.5 91,-126.5"/>
<text text-anchor="middle" x="126" y="-133.5" font-family="Helvetica,sans-Serif" font-size="10.00">SensorBase</text>
</a>
</g>
<!-- Node3&#45;&gt;Node1 -->
<g id="edge4" class="edge"><title>Node3&#45;&gt;Node1</title>
<path fill="none" stroke="midnightblue" d="M126.151,-116.312C126.371,-89.0502 126.77,-39.4635 126.931,-19.5827"/>
<polygon fill="midnightblue" stroke="midnightblue" points="122.65,-116.449 126.069,-126.477 129.649,-116.506 122.65,-116.449"/>
</g>
<!-- Node8 -->
<g id="node14" class="node"><title>Node8</title>
<a xlink:href="class_s_p_i.html" target="_top" xlink:title="SPI">
<polygon fill="white" stroke="black" points="136,-68.5 136,-87.5 168,-87.5 168,-68.5 136,-68.5"/>
<text text-anchor="middle" x="152" y="-75.5" font-family="Helvetica,sans-Serif" font-size="10.00">SPI</text>
</a>
</g>
<!-- Node3&#45;&gt;Node8 -->
<g id="edge16" class="edge"><title>Node3&#45;&gt;Node8</title>
<path fill="none" stroke="midnightblue" d="M134.407,-116.893C138.988,-107.026 144.443,-95.2766 148.051,-87.5052"/>
<polygon fill="midnightblue" stroke="midnightblue" points="131.099,-115.706 130.063,-126.25 137.448,-118.654 131.099,-115.706"/>
</g>
<!-- Node4 -->
<g id="node6" class="node"><title>Node4</title>
<a xlink:href="class_error_base.html" target="_top" xlink:title="ErrorBase">
<polygon fill="white" stroke="black" points="96,-184.5 96,-203.5 156,-203.5 156,-184.5 96,-184.5"/>
<text text-anchor="middle" x="126" y="-191.5" font-family="Helvetica,sans-Serif" font-size="10.00">ErrorBase</text>
</a>
</g>
<!-- Node4&#45;&gt;Node3 -->
<g id="edge6" class="edge"><title>Node4&#45;&gt;Node3</title>
<path fill="none" stroke="midnightblue" d="M126,-173.953C126,-164.287 126,-153.031 126,-145.505"/>
<polygon fill="midnightblue" stroke="midnightblue" points="122.5,-174.25 126,-184.25 129.5,-174.25 122.5,-174.25"/>
</g>
<!-- Node5 -->
<g id="node8" class="node"><title>Node5</title>
<a xlink:href="class_error.html" target="_top" xlink:title="Error">
<polygon fill="white" stroke="black" points="107,-262.5 107,-281.5 145,-281.5 145,-262.5 107,-262.5"/>
<text text-anchor="middle" x="126" y="-269.5" font-family="Helvetica,sans-Serif" font-size="10.00">Error</text>
</a>
</g>
<!-- Node5&#45;&gt;Node4 -->
<g id="edge8" class="edge"><title>Node5&#45;&gt;Node4</title>
<path fill="none" stroke="#9a32cd" stroke-dasharray="5,2" d="M126,-252.224C126,-236.697 126,-215.358 126,-203.616"/>
<polygon fill="#9a32cd" stroke="#9a32cd" points="122.5,-252.282 126,-262.282 129.5,-252.282 122.5,-252.282"/>
<text text-anchor="middle" x="153.5" y="-236" font-family="Helvetica,sans-Serif" font-size="10.00"> _globalError</text>
<text text-anchor="middle" x="153.5" y="-225" font-family="Helvetica,sans-Serif" font-size="10.00">m_error</text>
</g>
<!-- Node6 -->
<g id="node10" class="node"><title>Node6</title>
<a xlink:href="class_live_window_sendable.html" target="_top" xlink:title="LiveWindowSendable">
<polygon fill="white" stroke="black" points="186,-68.5 186,-87.5 294,-87.5 294,-68.5 186,-68.5"/>
<text text-anchor="middle" x="240" y="-75.5" font-family="Helvetica,sans-Serif" font-size="10.00">LiveWindowSendable</text>
</a>
</g>
<!-- Node6&#45;&gt;Node1 -->
<g id="edge10" class="edge"><title>Node6&#45;&gt;Node1</title>
<path fill="none" stroke="midnightblue" d="M217.726,-63.0984C205.487,-55.5436 189.993,-46.1135 176,-38 165.077,-31.6663 152.611,-24.8027 142.987,-19.5806"/>
<polygon fill="midnightblue" stroke="midnightblue" points="216.027,-66.1634 226.371,-68.4572 219.715,-60.2137 216.027,-66.1634"/>
</g>
<!-- Node7 -->
<g id="node12" class="node"><title>Node7</title>
<a xlink:href="class_sendable.html" target="_top" xlink:title="Sendable">
<polygon fill="white" stroke="black" points="211.5,-126.5 211.5,-145.5 268.5,-145.5 268.5,-126.5 211.5,-126.5"/>
<text text-anchor="middle" x="240" y="-133.5" font-family="Helvetica,sans-Serif" font-size="10.00">Sendable</text>
</a>
</g>
<!-- Node7&#45;&gt;Node6 -->
<g id="edge12" class="edge"><title>Node7&#45;&gt;Node6</title>
<path fill="none" stroke="midnightblue" d="M240,-115.953C240,-106.287 240,-95.0312 240,-87.5052"/>
<polygon fill="midnightblue" stroke="midnightblue" points="236.5,-116.25 240,-126.25 243.5,-116.25 236.5,-116.25"/>
</g>
<!-- Node8&#45;&gt;Node1 -->
<g id="edge14" class="edge"><title>Node8&#45;&gt;Node1</title>
<path fill="none" stroke="#9a32cd" stroke-dasharray="5,2" d="M145.109,-58.8066C140.305,-46.1244 134.107,-29.7615 130.349,-19.8411"/>
<polygon fill="#9a32cd" stroke="#9a32cd" points="141.916,-60.2599 148.732,-68.3717 148.462,-57.7802 141.916,-60.2599"/>
<text text-anchor="middle" x="157" y="-41.5" font-family="Helvetica,sans-Serif" font-size="10.00"> m_spi</text>
</g>
</g>
</svg>
