<?xml version="1.0" encoding="UTF-8" standalone="no"?>
<!DOCTYPE svg PUBLIC "-//W3C//DTD SVG 1.1//EN"
 "http://www.w3.org/Graphics/SVG/1.1/DTD/svg11.dtd">
<!-- Generated by graphviz version 2.28.0 (20110507.0327)
 -->
<!-- Title: VictorSP::Get Pages: 1 -->
<svg width="492pt" height="47pt"
 viewBox="0.00 0.00 492.00 47.00" xmlns="http://www.w3.org/2000/svg" xmlns:xlink="http://www.w3.org/1999/xlink">
<g id="graph1" class="graph" transform="scale(1 1) rotate(0) translate(4 43)">
<title>VictorSP::Get</title>
<polygon fill="white" stroke="white" points="-4,5 -4,-43 489,-43 489,5 -4,5"/>
<!-- Node1 -->
<g id="node1" class="node"><title>Node1</title>
<polygon fill="#bfbfbf" stroke="black" points="0.5,-19.5 0.5,-38.5 77.5,-38.5 77.5,-19.5 0.5,-19.5"/>
<text text-anchor="middle" x="39" y="-26.5" font-family="Helvetica,sans-Serif" font-size="10.00">VictorSP::Get</text>
</g>
<!-- Node2 -->
<g id="node3" class="node"><title>Node2</title>
<a xlink:href="class_p_w_m.html#a42b209cbe7e63732918cbbcb55bfaac7" target="_top" xlink:title="PWM::GetSpeed">
<polygon fill="white" stroke="black" points="114.5,-19.5 114.5,-38.5 205.5,-38.5 205.5,-19.5 114.5,-19.5"/>
<text text-anchor="middle" x="160" y="-26.5" font-family="Helvetica,sans-Serif" font-size="10.00">PWM::GetSpeed</text>
</a>
</g>
<!-- Node1&#45;&gt;Node2 -->
<g id="edge2" class="edge"><title>Node1&#45;&gt;Node2</title>
<path fill="none" stroke="midnightblue" d="M77.6523,-29C85.9724,-29 94.9543,-29 103.808,-29"/>
<polygon fill="midnightblue" stroke="midnightblue" points="104.096,-32.5001 114.096,-29 104.096,-25.5001 104.096,-32.5001"/>
</g>
<!-- Node3 -->
<g id="node5" class="node"><title>Node3</title>
<a xlink:href="class_error_base.html#a05790f219c9e436a09752f73f7344024" target="_top" xlink:title="Check if the current error code represents a fatal error. ">
<polygon fill="white" stroke="black" points="360,-19.5 360,-38.5 484,-38.5 484,-19.5 360,-19.5"/>
<text text-anchor="middle" x="422" y="-26.5" font-family="Helvetica,sans-Serif" font-size="10.00">ErrorBase::StatusIsFatal</text>
</a>
</g>
<!-- Node2&#45;&gt;Node3 -->
<g id="edge4" class="edge"><title>Node2&#45;&gt;Node3</title>
<path fill="none" stroke="midnightblue" d="M205.696,-29C245.245,-29 303.655,-29 349.661,-29"/>
<polygon fill="midnightblue" stroke="midnightblue" points="349.873,-32.5001 359.873,-29 349.873,-25.5001 349.873,-32.5001"/>
</g>
<!-- Node4 -->
<g id="node7" class="node"><title>Node4</title>
<a xlink:href="class_p_w_m.html#afe21d7814cd2c51c0652fbf9f58af958" target="_top" xlink:title="PWM::GetRaw">
<polygon fill="white" stroke="black" points="242,-0.5 242,-19.5 324,-19.5 324,-0.5 242,-0.5"/>
<text text-anchor="middle" x="283" y="-7.5" font-family="Helvetica,sans-Serif" font-size="10.00">PWM::GetRaw</text>
</a>
</g>
<!-- Node2&#45;&gt;Node4 -->
<g id="edge6" class="edge"><title>Node2&#45;&gt;Node4</title>
<path fill="none" stroke="midnightblue" d="M205.712,-21.9791C214.228,-20.6418 223.193,-19.2341 231.865,-17.8724"/>
<polygon fill="midnightblue" stroke="midnightblue" points="232.53,-21.3109 241.866,-16.302 231.444,-14.3957 232.53,-21.3109"/>
</g>
<!-- Node4&#45;&gt;Node3 -->
<g id="edge8" class="edge"><title>Node4&#45;&gt;Node3</title>
<path fill="none" stroke="midnightblue" d="M324.364,-15.5979C332.362,-16.7072 340.981,-17.9025 349.66,-19.1062"/>
<polygon fill="midnightblue" stroke="midnightblue" points="349.458,-22.6115 359.844,-20.5185 350.419,-15.6779 349.458,-22.6115"/>
</g>
</g>
</svg>
