<?xml version="1.0" encoding="UTF-8" standalone="no"?>
<!DOCTYPE svg PUBLIC "-//W3C//DTD SVG 1.1//EN"
 "http://www.w3.org/Graphics/SVG/1.1/DTD/svg11.dtd">
<!-- Generated by graphviz version 2.28.0 (20110507.0327)
 -->
<!-- Title: BinaryImage::GetOrderedParticleAnalysisReports Pages: 1 -->
<svg width="368pt" height="77pt"
 viewBox="0.00 0.00 368.00 77.00" xmlns="http://www.w3.org/2000/svg" xmlns:xlink="http://www.w3.org/1999/xlink">
<g id="graph1" class="graph" transform="scale(1 1) rotate(0) translate(4 73)">
<title>BinaryImage::GetOrderedParticleAnalysisReports</title>
<polygon fill="white" stroke="white" points="-4,5 -4,-73 365,-73 365,5 -4,5"/>
<!-- Node1 -->
<g id="node1" class="node"><title>Node1</title>
<polygon fill="#bfbfbf" stroke="black" points="0,-22 0,-52 160,-52 160,-22 0,-22"/>
<text text-anchor="start" x="8" y="-40" font-family="Helvetica,sans-Serif" font-size="10.00">BinaryImage::GetOrderedParticle</text>
<text text-anchor="middle" x="80" y="-29" font-family="Helvetica,sans-Serif" font-size="10.00">AnalysisReports</text>
</g>
<!-- Node2 -->
<g id="node3" class="node"><title>Node2</title>
<a xlink:href="class_binary_image.html#a3fd87b1afd71c9b11df7c093160446bb" target="_top" xlink:title="BinaryImage::GetNumberParticles">
<polygon fill="white" stroke="black" points="196,-49.5 196,-68.5 360,-68.5 360,-49.5 196,-49.5"/>
<text text-anchor="middle" x="278" y="-56.5" font-family="Helvetica,sans-Serif" font-size="10.00">BinaryImage::GetNumberParticles</text>
</a>
</g>
<!-- Node1&#45;&gt;Node2 -->
<g id="edge2" class="edge"><title>Node1&#45;&gt;Node2</title>
<path fill="none" stroke="midnightblue" d="M160.156,-45.8848C168.632,-46.8363 177.304,-47.8096 185.904,-48.775"/>
<polygon fill="midnightblue" stroke="midnightblue" points="185.624,-52.2654 195.952,-49.9028 186.405,-45.3091 185.624,-52.2654"/>
</g>
<!-- Node3 -->
<g id="node5" class="node"><title>Node3</title>
<a xlink:href="class_binary_image.html#af4081d0bdd38f0a7bc61dfc847e37bab" target="_top" xlink:title="BinaryImage::GetParticle\lAnalysisReport">
<polygon fill="white" stroke="black" points="215.5,-0 215.5,-30 340.5,-30 340.5,-0 215.5,-0"/>
<text text-anchor="start" x="223.5" y="-18" font-family="Helvetica,sans-Serif" font-size="10.00">BinaryImage::GetParticle</text>
<text text-anchor="middle" x="278" y="-7" font-family="Helvetica,sans-Serif" font-size="10.00">AnalysisReport</text>
</a>
</g>
<!-- Node1&#45;&gt;Node3 -->
<g id="edge4" class="edge"><title>Node1&#45;&gt;Node3</title>
<path fill="none" stroke="midnightblue" d="M160.156,-28.1152C175.09,-26.4389 190.63,-24.6945 205.319,-23.0458"/>
<polygon fill="midnightblue" stroke="midnightblue" points="205.787,-26.5154 215.334,-21.9217 205.006,-19.559 205.787,-26.5154"/>
</g>
</g>
</svg>
