<?xml version="1.0" encoding="UTF-8" standalone="no"?>
<!DOCTYPE svg PUBLIC "-//W3C//DTD SVG 1.1//EN"
 "http://www.w3.org/Graphics/SVG/1.1/DTD/svg11.dtd">
<!-- Generated by graphviz version 2.28.0 (20110507.0327)
 -->
<!-- Title: Joystick::GetTop Pages: 1 -->
<svg width="436pt" height="28pt"
 viewBox="0.00 0.00 436.00 28.00" xmlns="http://www.w3.org/2000/svg" xmlns:xlink="http://www.w3.org/1999/xlink">
<g id="graph1" class="graph" transform="scale(1 1) rotate(0) translate(4 24)">
<title>Joystick::GetTop</title>
<polygon fill="white" stroke="white" points="-4,5 -4,-24 433,-24 433,5 -4,5"/>
<!-- Node1 -->
<g id="node1" class="node"><title>Node1</title>
<polygon fill="#bfbfbf" stroke="black" points="0,-0.5 0,-19.5 90,-19.5 90,-0.5 0,-0.5"/>
<text text-anchor="middle" x="45" y="-7.5" font-family="Helvetica,sans-Serif" font-size="10.00">Joystick::GetTop</text>
</g>
<!-- Node2 -->
<g id="node3" class="node"><title>Node2</title>
<a xlink:href="class_joystick.html#ab090aadee2aaf077f0674eacdd3dd45e" target="_top" xlink:title="Joystick::GetRawButton">
<polygon fill="white" stroke="black" points="126,-0.5 126,-19.5 248,-19.5 248,-0.5 126,-0.5"/>
<text text-anchor="middle" x="187" y="-7.5" font-family="Helvetica,sans-Serif" font-size="10.00">Joystick::GetRawButton</text>
</a>
</g>
<!-- Node1&#45;&gt;Node2 -->
<g id="edge2" class="edge"><title>Node1&#45;&gt;Node2</title>
<path fill="none" stroke="midnightblue" d="M90.2969,-10C98.4154,-10 107.07,-10 115.729,-10"/>
<polygon fill="midnightblue" stroke="midnightblue" points="115.866,-13.5001 125.866,-10 115.866,-6.5001 115.866,-13.5001"/>
</g>
<!-- Node3 -->
<g id="node5" class="node"><title>Node3</title>
<a xlink:href="class_driver_station.html#a7778d9c78f3d918a4338f62662604cf1" target="_top" xlink:title="DriverStation::GetStickButton">
<polygon fill="white" stroke="black" points="284,-0.5 284,-19.5 428,-19.5 428,-0.5 284,-0.5"/>
<text text-anchor="middle" x="356" y="-7.5" font-family="Helvetica,sans-Serif" font-size="10.00">DriverStation::GetStickButton</text>
</a>
</g>
<!-- Node2&#45;&gt;Node3 -->
<g id="edge4" class="edge"><title>Node2&#45;&gt;Node3</title>
<path fill="none" stroke="midnightblue" d="M248.291,-10C256.618,-10 265.279,-10 273.906,-10"/>
<polygon fill="midnightblue" stroke="midnightblue" points="273.995,-13.5001 283.995,-10 273.995,-6.5001 273.995,-13.5001"/>
</g>
</g>
</svg>
