<?xml version="1.0" encoding="UTF-8" standalone="no"?>
<!DOCTYPE svg PUBLIC "-//W3C//DTD SVG 1.1//EN"
 "http://www.w3.org/Graphics/SVG/1.1/DTD/svg11.dtd">
<!-- Generated by graphviz version 2.28.0 (20110507.0327)
 -->
<!-- Title: Jaguar::Set Pages: 1 -->
<svg width="716pt" height="85pt"
 viewBox="0.00 0.00 716.00 85.00" xmlns="http://www.w3.org/2000/svg" xmlns:xlink="http://www.w3.org/1999/xlink">
<g id="graph1" class="graph" transform="scale(1 1) rotate(0) translate(4 81)">
<title>Jaguar::Set</title>
<polygon fill="white" stroke="white" points="-4,5 -4,-81 713,-81 713,5 -4,5"/>
<!-- Node1 -->
<g id="node1" class="node"><title>Node1</title>
<polygon fill="#bfbfbf" stroke="black" points="0,-19.5 0,-38.5 66,-38.5 66,-19.5 0,-19.5"/>
<text text-anchor="middle" x="33" y="-26.5" font-family="Helvetica,sans-Serif" font-size="10.00">Jaguar::Set</text>
</g>
<!-- Node2 -->
<g id="node3" class="node"><title>Node2</title>
<a xlink:href="class_safe_p_w_m.html#af1ed936d88f3ee6446b01c17feb24b78" target="_top" xlink:title="SafePWM::SetSpeed">
<polygon fill="white" stroke="black" points="102,-19.5 102,-38.5 212,-38.5 212,-19.5 102,-19.5"/>
<text text-anchor="middle" x="157" y="-26.5" font-family="Helvetica,sans-Serif" font-size="10.00">SafePWM::SetSpeed</text>
</a>
</g>
<!-- Node1&#45;&gt;Node2 -->
<g id="edge2" class="edge"><title>Node1&#45;&gt;Node2</title>
<path fill="none" stroke="midnightblue" d="M66.0541,-29C74.056,-29 82.923,-29 91.88,-29"/>
<polygon fill="midnightblue" stroke="midnightblue" points="91.9896,-32.5001 101.99,-29 91.9895,-25.5001 91.9896,-32.5001"/>
</g>
<!-- Node3 -->
<g id="node5" class="node"><title>Node3</title>
<a xlink:href="class_p_w_m.html#a947e5f6073da9e4d1b60db0c7791ca9c" target="_top" xlink:title="PWM::SetSpeed">
<polygon fill="white" stroke="black" points="266,-38.5 266,-57.5 356,-57.5 356,-38.5 266,-38.5"/>
<text text-anchor="middle" x="311" y="-45.5" font-family="Helvetica,sans-Serif" font-size="10.00">PWM::SetSpeed</text>
</a>
</g>
<!-- Node2&#45;&gt;Node3 -->
<g id="edge4" class="edge"><title>Node2&#45;&gt;Node3</title>
<path fill="none" stroke="midnightblue" d="M212.017,-35.7522C226.162,-37.5203 241.419,-39.4273 255.584,-41.198"/>
<polygon fill="midnightblue" stroke="midnightblue" points="255.318,-44.6919 265.675,-42.4593 256.186,-37.7459 255.318,-44.6919"/>
</g>
<!-- Node6 -->
<g id="node12" class="node"><title>Node6</title>
<a xlink:href="class_motor_safety_helper.html#a67b80e9817dc725e0678de5e8f0bb39e" target="_top" xlink:title="MotorSafetyHelper::Feed">
<polygon fill="white" stroke="black" points="248.5,-0.5 248.5,-19.5 373.5,-19.5 373.5,-0.5 248.5,-0.5"/>
<text text-anchor="middle" x="311" y="-7.5" font-family="Helvetica,sans-Serif" font-size="10.00">MotorSafetyHelper::Feed</text>
</a>
</g>
<!-- Node2&#45;&gt;Node6 -->
<g id="edge12" class="edge"><title>Node2&#45;&gt;Node6</title>
<path fill="none" stroke="midnightblue" d="M212.017,-22.2478C220.573,-21.1783 229.536,-20.0581 238.417,-18.9478"/>
<polygon fill="midnightblue" stroke="midnightblue" points="238.896,-22.4153 248.385,-17.7019 238.028,-15.4694 238.896,-22.4153"/>
</g>
<!-- Node4 -->
<g id="node7" class="node"><title>Node4</title>
<a xlink:href="class_error_base.html#a05790f219c9e436a09752f73f7344024" target="_top" xlink:title="Check if the current error code represents a fatal error. ">
<polygon fill="white" stroke="black" points="584,-57.5 584,-76.5 708,-76.5 708,-57.5 584,-57.5"/>
<text text-anchor="middle" x="646" y="-64.5" font-family="Helvetica,sans-Serif" font-size="10.00">ErrorBase::StatusIsFatal</text>
</a>
</g>
<!-- Node3&#45;&gt;Node4 -->
<g id="edge6" class="edge"><title>Node3&#45;&gt;Node4</title>
<path fill="none" stroke="midnightblue" d="M351.799,-57.5105C369.506,-61.2756 390.679,-65.1443 410,-67 464.862,-72.2692 527.26,-71.9774 573.965,-70.5263"/>
<polygon fill="midnightblue" stroke="midnightblue" points="574.107,-74.0236 583.983,-70.1899 573.872,-67.0276 574.107,-74.0236"/>
</g>
<!-- Node5 -->
<g id="node9" class="node"><title>Node5</title>
<a xlink:href="class_p_w_m.html#a0c546e1aa7d5d091447a819e50fae9ca" target="_top" xlink:title="PWM::SetRaw">
<polygon fill="white" stroke="black" points="438.5,-38.5 438.5,-57.5 519.5,-57.5 519.5,-38.5 438.5,-38.5"/>
<text text-anchor="middle" x="479" y="-45.5" font-family="Helvetica,sans-Serif" font-size="10.00">PWM::SetRaw</text>
</a>
</g>
<!-- Node3&#45;&gt;Node5 -->
<g id="edge8" class="edge"><title>Node3&#45;&gt;Node5</title>
<path fill="none" stroke="midnightblue" d="M356.049,-48C378.205,-48 405.151,-48 428.073,-48"/>
<polygon fill="midnightblue" stroke="midnightblue" points="428.29,-51.5001 438.29,-48 428.29,-44.5001 428.29,-51.5001"/>
</g>
<!-- Node5&#45;&gt;Node4 -->
<g id="edge10" class="edge"><title>Node5&#45;&gt;Node4</title>
<path fill="none" stroke="midnightblue" d="M519.522,-52.551C535.846,-54.4308 555.286,-56.6693 573.931,-58.8163"/>
<polygon fill="midnightblue" stroke="midnightblue" points="573.55,-62.2954 583.884,-59.9624 574.35,-55.3414 573.55,-62.2954"/>
</g>
<!-- Node7 -->
<g id="node14" class="node"><title>Node7</title>
<a xlink:href="class_timer.html#a7fa6e6dffec055e5104ccd6bcadec9aa" target="_top" xlink:title="Timer::GetFPGATimestamp">
<polygon fill="white" stroke="black" points="410.5,-0.5 410.5,-19.5 547.5,-19.5 547.5,-0.5 410.5,-0.5"/>
<text text-anchor="middle" x="479" y="-7.5" font-family="Helvetica,sans-Serif" font-size="10.00">Timer::GetFPGATimestamp</text>
</a>
</g>
<!-- Node6&#45;&gt;Node7 -->
<g id="edge14" class="edge"><title>Node6&#45;&gt;Node7</title>
<path fill="none" stroke="midnightblue" d="M373.812,-10C382.359,-10 391.227,-10 400.02,-10"/>
<polygon fill="midnightblue" stroke="midnightblue" points="400.283,-13.5001 410.283,-10 400.283,-6.5001 400.283,-13.5001"/>
</g>
<!-- Node8 -->
<g id="node16" class="node"><title>Node8</title>
<a xlink:href="_utility_8h.html#ababf055d95368485d48bd9a0231853f3" target="_top" xlink:title="GetFPGATime">
<polygon fill="white" stroke="black" points="606,-0.5 606,-19.5 686,-19.5 686,-0.5 606,-0.5"/>
<text text-anchor="middle" x="646" y="-7.5" font-family="Helvetica,sans-Serif" font-size="10.00">GetFPGATime</text>
</a>
</g>
<!-- Node7&#45;&gt;Node8 -->
<g id="edge16" class="edge"><title>Node7&#45;&gt;Node8</title>
<path fill="none" stroke="midnightblue" d="M547.588,-10C563.641,-10 580.473,-10 595.543,-10"/>
<polygon fill="midnightblue" stroke="midnightblue" points="595.664,-13.5001 605.663,-10 595.663,-6.5001 595.664,-13.5001"/>
</g>
</g>
</svg>
