<?xml version="1.0" encoding="UTF-8" standalone="no"?>
<!DOCTYPE svg PUBLIC "-//W3C//DTD SVG 1.1//EN"
 "http://www.w3.org/Graphics/SVG/1.1/DTD/svg11.dtd">
<!-- Generated by graphviz version 2.28.0 (20110507.0327)
 -->
<!-- Title: Servo::Set Pages: 1 -->
<svg width="482pt" height="47pt"
 viewBox="0.00 0.00 482.00 47.00" xmlns="http://www.w3.org/2000/svg" xmlns:xlink="http://www.w3.org/1999/xlink">
<g id="graph1" class="graph" transform="scale(1 1) rotate(0) translate(4 43)">
<title>Servo::Set</title>
<polygon fill="white" stroke="white" points="-4,5 -4,-43 479,-43 479,5 -4,5"/>
<!-- Node1 -->
<g id="node1" class="node"><title>Node1</title>
<polygon fill="#bfbfbf" stroke="black" points="0,-19.5 0,-38.5 62,-38.5 62,-19.5 0,-19.5"/>
<text text-anchor="middle" x="31" y="-26.5" font-family="Helvetica,sans-Serif" font-size="10.00">Servo::Set</text>
</g>
<!-- Node2 -->
<g id="node3" class="node"><title>Node2</title>
<a xlink:href="class_p_w_m.html#a93e43862c48e9a06d95bd916b77c183a" target="_top" xlink:title="PWM::SetPosition">
<polygon fill="white" stroke="black" points="98,-19.5 98,-38.5 196,-38.5 196,-19.5 98,-19.5"/>
<text text-anchor="middle" x="147" y="-26.5" font-family="Helvetica,sans-Serif" font-size="10.00">PWM::SetPosition</text>
</a>
</g>
<!-- Node1&#45;&gt;Node2 -->
<g id="edge2" class="edge"><title>Node1&#45;&gt;Node2</title>
<path fill="none" stroke="midnightblue" d="M62.2506,-29C70.2064,-29 79.0613,-29 87.9502,-29"/>
<polygon fill="midnightblue" stroke="midnightblue" points="87.9545,-32.5001 97.9545,-29 87.9544,-25.5001 87.9545,-32.5001"/>
</g>
<!-- Node3 -->
<g id="node5" class="node"><title>Node3</title>
<a xlink:href="class_error_base.html#a05790f219c9e436a09752f73f7344024" target="_top" xlink:title="Check if the current error code represents a fatal error. ">
<polygon fill="white" stroke="black" points="350,-19.5 350,-38.5 474,-38.5 474,-19.5 350,-19.5"/>
<text text-anchor="middle" x="412" y="-26.5" font-family="Helvetica,sans-Serif" font-size="10.00">ErrorBase::StatusIsFatal</text>
</a>
</g>
<!-- Node2&#45;&gt;Node3 -->
<g id="edge4" class="edge"><title>Node2&#45;&gt;Node3</title>
<path fill="none" stroke="midnightblue" d="M196.238,-29C236.357,-29 294.041,-29 339.526,-29"/>
<polygon fill="midnightblue" stroke="midnightblue" points="339.623,-32.5001 349.623,-29 339.623,-25.5001 339.623,-32.5001"/>
</g>
<!-- Node4 -->
<g id="node7" class="node"><title>Node4</title>
<a xlink:href="class_p_w_m.html#a0c546e1aa7d5d091447a819e50fae9ca" target="_top" xlink:title="PWM::SetRaw">
<polygon fill="white" stroke="black" points="232.5,-0.5 232.5,-19.5 313.5,-19.5 313.5,-0.5 232.5,-0.5"/>
<text text-anchor="middle" x="273" y="-7.5" font-family="Helvetica,sans-Serif" font-size="10.00">PWM::SetRaw</text>
</a>
</g>
<!-- Node2&#45;&gt;Node4 -->
<g id="edge6" class="edge"><title>Node2&#45;&gt;Node4</title>
<path fill="none" stroke="midnightblue" d="M196.297,-21.5997C204.899,-20.2816 213.872,-18.9068 222.507,-17.5836"/>
<polygon fill="midnightblue" stroke="midnightblue" points="223.092,-21.035 232.446,-16.0607 222.031,-14.1157 223.092,-21.035"/>
</g>
<!-- Node4&#45;&gt;Node3 -->
<g id="edge8" class="edge"><title>Node4&#45;&gt;Node3</title>
<path fill="none" stroke="midnightblue" d="M313.626,-15.4956C321.837,-16.6343 330.725,-17.867 339.677,-19.1085"/>
<polygon fill="midnightblue" stroke="midnightblue" points="339.394,-22.6026 349.78,-20.5096 340.355,-15.669 339.394,-22.6026"/>
</g>
</g>
</svg>
