<?xml version="1.0" encoding="UTF-8" standalone="no"?>
<!DOCTYPE svg PUBLIC "-//W3C//DTD SVG 1.1//EN"
 "http://www.w3.org/Graphics/SVG/1.1/DTD/svg11.dtd">
<!-- Generated by graphviz version 2.28.0 (20110507.0327)
 -->
<!-- Title: VictorSP::Set Pages: 1 -->
<svg width="728pt" height="85pt"
 viewBox="0.00 0.00 728.00 85.00" xmlns="http://www.w3.org/2000/svg" xmlns:xlink="http://www.w3.org/1999/xlink">
<g id="graph1" class="graph" transform="scale(1 1) rotate(0) translate(4 81)">
<title>VictorSP::Set</title>
<polygon fill="white" stroke="white" points="-4,5 -4,-81 725,-81 725,5 -4,5"/>
<!-- Node1 -->
<g id="node1" class="node"><title>Node1</title>
<polygon fill="#bfbfbf" stroke="black" points="0.5,-19.5 0.5,-38.5 77.5,-38.5 77.5,-19.5 0.5,-19.5"/>
<text text-anchor="middle" x="39" y="-26.5" font-family="Helvetica,sans-Serif" font-size="10.00">VictorSP::Set</text>
</g>
<!-- Node2 -->
<g id="node3" class="node"><title>Node2</title>
<a xlink:href="class_safe_p_w_m.html#af1ed936d88f3ee6446b01c17feb24b78" target="_top" xlink:title="SafePWM::SetSpeed">
<polygon fill="white" stroke="black" points="114,-19.5 114,-38.5 224,-38.5 224,-19.5 114,-19.5"/>
<text text-anchor="middle" x="169" y="-26.5" font-family="Helvetica,sans-Serif" font-size="10.00">SafePWM::SetSpeed</text>
</a>
</g>
<!-- Node1&#45;&gt;Node2 -->
<g id="edge2" class="edge"><title>Node1&#45;&gt;Node2</title>
<path fill="none" stroke="midnightblue" d="M77.7119,-29C85.9632,-29 94.92,-29 103.88,-29"/>
<polygon fill="midnightblue" stroke="midnightblue" points="103.96,-32.5001 113.96,-29 103.96,-25.5001 103.96,-32.5001"/>
</g>
<!-- Node3 -->
<g id="node5" class="node"><title>Node3</title>
<a xlink:href="class_p_w_m.html#a947e5f6073da9e4d1b60db0c7791ca9c" target="_top" xlink:title="PWM::SetSpeed">
<polygon fill="white" stroke="black" points="278,-38.5 278,-57.5 368,-57.5 368,-38.5 278,-38.5"/>
<text text-anchor="middle" x="323" y="-45.5" font-family="Helvetica,sans-Serif" font-size="10.00">PWM::SetSpeed</text>
</a>
</g>
<!-- Node2&#45;&gt;Node3 -->
<g id="edge4" class="edge"><title>Node2&#45;&gt;Node3</title>
<path fill="none" stroke="midnightblue" d="M224.017,-35.7522C238.162,-37.5203 253.419,-39.4273 267.584,-41.198"/>
<polygon fill="midnightblue" stroke="midnightblue" points="267.318,-44.6919 277.675,-42.4593 268.186,-37.7459 267.318,-44.6919"/>
</g>
<!-- Node6 -->
<g id="node12" class="node"><title>Node6</title>
<a xlink:href="class_motor_safety_helper.html#a67b80e9817dc725e0678de5e8f0bb39e" target="_top" xlink:title="MotorSafetyHelper::Feed">
<polygon fill="white" stroke="black" points="260.5,-0.5 260.5,-19.5 385.5,-19.5 385.5,-0.5 260.5,-0.5"/>
<text text-anchor="middle" x="323" y="-7.5" font-family="Helvetica,sans-Serif" font-size="10.00">MotorSafetyHelper::Feed</text>
</a>
</g>
<!-- Node2&#45;&gt;Node6 -->
<g id="edge12" class="edge"><title>Node2&#45;&gt;Node6</title>
<path fill="none" stroke="midnightblue" d="M224.017,-22.2478C232.573,-21.1783 241.536,-20.0581 250.417,-18.9478"/>
<polygon fill="midnightblue" stroke="midnightblue" points="250.896,-22.4153 260.385,-17.7019 250.028,-15.4694 250.896,-22.4153"/>
</g>
<!-- Node4 -->
<g id="node7" class="node"><title>Node4</title>
<a xlink:href="class_error_base.html#a05790f219c9e436a09752f73f7344024" target="_top" xlink:title="Check if the current error code represents a fatal error. ">
<polygon fill="white" stroke="black" points="596,-57.5 596,-76.5 720,-76.5 720,-57.5 596,-57.5"/>
<text text-anchor="middle" x="658" y="-64.5" font-family="Helvetica,sans-Serif" font-size="10.00">ErrorBase::StatusIsFatal</text>
</a>
</g>
<!-- Node3&#45;&gt;Node4 -->
<g id="edge6" class="edge"><title>Node3&#45;&gt;Node4</title>
<path fill="none" stroke="midnightblue" d="M363.799,-57.5105C381.506,-61.2756 402.679,-65.1443 422,-67 476.862,-72.2692 539.26,-71.9774 585.965,-70.5263"/>
<polygon fill="midnightblue" stroke="midnightblue" points="586.107,-74.0236 595.983,-70.1899 585.872,-67.0276 586.107,-74.0236"/>
</g>
<!-- Node5 -->
<g id="node9" class="node"><title>Node5</title>
<a xlink:href="class_p_w_m.html#a0c546e1aa7d5d091447a819e50fae9ca" target="_top" xlink:title="PWM::SetRaw">
<polygon fill="white" stroke="black" points="450.5,-38.5 450.5,-57.5 531.5,-57.5 531.5,-38.5 450.5,-38.5"/>
<text text-anchor="middle" x="491" y="-45.5" font-family="Helvetica,sans-Serif" font-size="10.00">PWM::SetRaw</text>
</a>
</g>
<!-- Node3&#45;&gt;Node5 -->
<g id="edge8" class="edge"><title>Node3&#45;&gt;Node5</title>
<path fill="none" stroke="midnightblue" d="M368.049,-48C390.205,-48 417.151,-48 440.073,-48"/>
<polygon fill="midnightblue" stroke="midnightblue" points="440.29,-51.5001 450.29,-48 440.29,-44.5001 440.29,-51.5001"/>
</g>
<!-- Node5&#45;&gt;Node4 -->
<g id="edge10" class="edge"><title>Node5&#45;&gt;Node4</title>
<path fill="none" stroke="midnightblue" d="M531.522,-52.551C547.846,-54.4308 567.286,-56.6693 585.931,-58.8163"/>
<polygon fill="midnightblue" stroke="midnightblue" points="585.55,-62.2954 595.884,-59.9624 586.35,-55.3414 585.55,-62.2954"/>
</g>
<!-- Node7 -->
<g id="node14" class="node"><title>Node7</title>
<a xlink:href="class_timer.html#a7fa6e6dffec055e5104ccd6bcadec9aa" target="_top" xlink:title="Timer::GetFPGATimestamp">
<polygon fill="white" stroke="black" points="422.5,-0.5 422.5,-19.5 559.5,-19.5 559.5,-0.5 422.5,-0.5"/>
<text text-anchor="middle" x="491" y="-7.5" font-family="Helvetica,sans-Serif" font-size="10.00">Timer::GetFPGATimestamp</text>
</a>
</g>
<!-- Node6&#45;&gt;Node7 -->
<g id="edge14" class="edge"><title>Node6&#45;&gt;Node7</title>
<path fill="none" stroke="midnightblue" d="M385.812,-10C394.359,-10 403.227,-10 412.02,-10"/>
<polygon fill="midnightblue" stroke="midnightblue" points="412.283,-13.5001 422.283,-10 412.283,-6.5001 412.283,-13.5001"/>
</g>
<!-- Node8 -->
<g id="node16" class="node"><title>Node8</title>
<a xlink:href="_utility_8h.html#ababf055d95368485d48bd9a0231853f3" target="_top" xlink:title="GetFPGATime">
<polygon fill="white" stroke="black" points="618,-0.5 618,-19.5 698,-19.5 698,-0.5 618,-0.5"/>
<text text-anchor="middle" x="658" y="-7.5" font-family="Helvetica,sans-Serif" font-size="10.00">GetFPGATime</text>
</a>
</g>
<!-- Node7&#45;&gt;Node8 -->
<g id="edge16" class="edge"><title>Node7&#45;&gt;Node8</title>
<path fill="none" stroke="midnightblue" d="M559.588,-10C575.641,-10 592.473,-10 607.543,-10"/>
<polygon fill="midnightblue" stroke="midnightblue" points="607.664,-13.5001 617.663,-10 607.663,-6.5001 607.664,-13.5001"/>
</g>
</g>
</svg>
