<?xml version="1.0" encoding="UTF-8" standalone="no"?>
<!DOCTYPE svg PUBLIC "-//W3C//DTD SVG 1.1//EN"
 "http://www.w3.org/Graphics/SVG/1.1/DTD/svg11.dtd">
<!-- Generated by graphviz version 2.28.0 (20110507.0327)
 -->
<!-- Title: wpilibC++ Pages: 1 -->
<svg width="172pt" height="148pt"
 viewBox="0.00 0.00 172.00 148.00" xmlns="http://www.w3.org/2000/svg" xmlns:xlink="http://www.w3.org/1999/xlink">
<g id="graph1" class="graph" transform="scale(1 1) rotate(0) translate(4 144)">
<title>wpilibC++</title>
<polygon fill="white" stroke="white" points="-4,5 -4,-144 169,-144 169,5 -4,5"/>
<g id="graph2" class="cluster"><title>clusterdir_0f3e25f372548d6cf05ef95e315cdb7c</title>
<a xlink:href="dir_0f3e25f372548d6cf05ef95e315cdb7c.html" target="_top">
<polygon fill="#eeeeff" stroke="black" points="8,-8 8,-132 156,-132 156,-8 8,-8"/>
</a>
</g>
<!-- dir_0f3e25f372548d6cf05ef95e315cdb7c -->
<g id="node2" class="node"><title>dir_0f3e25f372548d6cf05ef95e315cdb7c</title>
<text text-anchor="middle" x="118" y="-103.5" font-family="Helvetica,sans-Serif" font-size="10.00">wpilibC++</text>
</g>
<!-- dir_37eb62383ab2b9aa84c13ee01c0c6d0e -->
<g id="node3" class="node"><title>dir_37eb62383ab2b9aa84c13ee01c0c6d0e</title>
<a xlink:href="dir_37eb62383ab2b9aa84c13ee01c0c6d0e.html" target="_top" xlink:title="include">
<polygon fill="white" stroke="red" points="70,-52 16,-52 16,-16 70,-16 70,-52"/>
<text text-anchor="middle" x="43" y="-31.5" font-family="Helvetica,sans-Serif" font-size="10.00">include</text>
</a>
</g>
<!-- dir_f079688863695c432f5b9464c313883f -->
<g id="node4" class="node"><title>dir_f079688863695c432f5b9464c313883f</title>
<a xlink:href="dir_f079688863695c432f5b9464c313883f.html" target="_top" xlink:title="src">
<polygon fill="white" stroke="red" points="70,-124 16,-124 16,-88 70,-88 70,-124"/>
<text text-anchor="middle" x="43" y="-103.5" font-family="Helvetica,sans-Serif" font-size="10.00">src</text>
</a>
</g>
<!-- dir_f079688863695c432f5b9464c313883f&#45;&gt;dir_37eb62383ab2b9aa84c13ee01c0c6d0e -->
<g id="edge3" class="edge"><title>dir_f079688863695c432f5b9464c313883f&#45;&gt;dir_37eb62383ab2b9aa84c13ee01c0c6d0e</title>
<path fill="none" stroke="black" d="M43,-87.6966C43,-79.9827 43,-70.7125 43,-62.1124"/>
<polygon fill="black" stroke="black" points="46.5001,-62.1043 43,-52.1043 39.5001,-62.1044 46.5001,-62.1043"/>
<a xlink:href="dir_000007_000001.html" target="_top" xlink:title="1">
<text text-anchor="middle" x="49.3393" y="-63.199" font-family="Helvetica,sans-Serif" font-size="10.00">1</text>
</a>
</g>
</g>
</svg>
