<?xml version="1.0" encoding="UTF-8" standalone="no"?>
<!DOCTYPE svg PUBLIC "-//W3C//DTD SVG 1.1//EN"
 "http://www.w3.org/Graphics/SVG/1.1/DTD/svg11.dtd">
<!-- Generated by graphviz version 2.28.0 (20110507.0327)
 -->
<!-- Title: wpilibC++Sim/src Pages: 1 -->
<svg width="190pt" height="159pt"
 viewBox="0.00 0.00 190.00 159.00" xmlns="http://www.w3.org/2000/svg" xmlns:xlink="http://www.w3.org/1999/xlink">
<g id="graph1" class="graph" transform="scale(1 1) rotate(0) translate(4 155)">
<title>wpilibC++Sim/src</title>
<polygon fill="white" stroke="white" points="-4,5 -4,-155 187,-155 187,5 -4,5"/>
<g id="graph2" class="cluster"><title>clusterdir_d239b924c32dc9e9fb3603457926e24d</title>
<a xlink:href="dir_d239b924c32dc9e9fb3603457926e24d.html" target="_top" xlink:title="wpilibC++Sim">
<polygon fill="#ddddee" stroke="black" points="8,-56 8,-143 174,-143 174,-56 8,-56"/>
<text text-anchor="middle" x="91" y="-131" font-family="Helvetica,sans-Serif" font-size="10.00">wpilibC++Sim</text>
</a>
</g>
<g id="graph3" class="cluster"><title>clusterdir_161728447b74478c4a52e1b8cf624bd4</title>
<a xlink:href="dir_161728447b74478c4a52e1b8cf624bd4.html" target="_top">
<polygon fill="#eeeeff" stroke="black" points="16,-64 16,-116 166,-116 166,-64 16,-64"/>
</a>
</g>
<!-- dir_161728447b74478c4a52e1b8cf624bd4 -->
<g id="node3" class="node"><title>dir_161728447b74478c4a52e1b8cf624bd4</title>
<text text-anchor="middle" x="131" y="-87.5" font-family="Helvetica,sans-Serif" font-size="10.00">src</text>
</g>
<!-- dir_0f3e25f372548d6cf05ef95e315cdb7c -->
<g id="node5" class="node"><title>dir_0f3e25f372548d6cf05ef95e315cdb7c</title>
<a xlink:href="dir_0f3e25f372548d6cf05ef95e315cdb7c.html" target="_top" xlink:title="wpilibC++">
<polygon fill="white" stroke="red" points="160.25,-36 101.75,-36 101.75,-0 160.25,-0 160.25,-36"/>
<text text-anchor="middle" x="131" y="-15.5" font-family="Helvetica,sans-Serif" font-size="10.00">wpilibC++</text>
</a>
</g>
<!-- dir_161728447b74478c4a52e1b8cf624bd4&#45;&gt;dir_0f3e25f372548d6cf05ef95e315cdb7c -->
<g id="edge4" class="edge"><title>dir_161728447b74478c4a52e1b8cf624bd4&#45;&gt;dir_0f3e25f372548d6cf05ef95e315cdb7c</title>
<path fill="none" stroke="black" d="M131,-71.6966C131,-63.9827 131,-54.7125 131,-46.1124"/>
<polygon fill="black" stroke="black" points="134.5,-46.1043 131,-36.1043 127.5,-46.1044 134.5,-46.1043"/>
<a xlink:href="dir_000022_000000.html" target="_top" xlink:title="7">
<text text-anchor="middle" x="137.339" y="-47.199" font-family="Helvetica,sans-Serif" font-size="10.00">7</text>
</a>
</g>
<!-- dir_68719cc9ffa75b902be3e12bbf6df3a1 -->
<g id="node4" class="node"><title>dir_68719cc9ffa75b902be3e12bbf6df3a1</title>
<a xlink:href="dir_68719cc9ffa75b902be3e12bbf6df3a1.html" target="_top" xlink:title="simulation">
<polygon fill="white" stroke="red" points="85.25,-108 24.75,-108 24.75,-72 85.25,-72 85.25,-108"/>
<text text-anchor="middle" x="55" y="-87.5" font-family="Helvetica,sans-Serif" font-size="10.00">simulation</text>
</a>
</g>
</g>
</svg>
