<?xml version="1.0" encoding="UTF-8" standalone="no"?>
<!DOCTYPE svg PUBLIC "-//W3C//DTD SVG 1.1//EN"
 "http://www.w3.org/Graphics/SVG/1.1/DTD/svg11.dtd">
<!-- Generated by graphviz version 2.28.0 (20110507.0327)
 -->
<!-- Title: wpilibC++Devices/src Pages: 1 -->
<svg width="254pt" height="159pt"
 viewBox="0.00 0.00 254.00 159.00" xmlns="http://www.w3.org/2000/svg" xmlns:xlink="http://www.w3.org/1999/xlink">
<g id="graph1" class="graph" transform="scale(1 1) rotate(0) translate(4 155)">
<title>wpilibC++Devices/src</title>
<polygon fill="white" stroke="white" points="-4,5 -4,-155 251,-155 251,5 -4,5"/>
<g id="graph2" class="cluster"><title>clusterdir_a83b5d2798d772dcdd895aef8520671d</title>
<a xlink:href="dir_a83b5d2798d772dcdd895aef8520671d.html" target="_top" xlink:title="wpilibC++Devices">
<polygon fill="#ddddee" stroke="black" points="8,-56 8,-143 238,-143 238,-56 8,-56"/>
<text text-anchor="middle" x="123" y="-131" font-family="Helvetica,sans-Serif" font-size="10.00">wpilibC++Devices</text>
</a>
</g>
<g id="graph3" class="cluster"><title>clusterdir_77752b6e2feb23b614c1de7b4c2f3110</title>
<a xlink:href="dir_77752b6e2feb23b614c1de7b4c2f3110.html" target="_top">
<polygon fill="#eeeeff" stroke="black" points="16,-64 16,-116 230,-116 230,-64 16,-64"/>
</a>
</g>
<!-- dir_77752b6e2feb23b614c1de7b4c2f3110 -->
<g id="node3" class="node"><title>dir_77752b6e2feb23b614c1de7b4c2f3110</title>
<text text-anchor="middle" x="195" y="-87.5" font-family="Helvetica,sans-Serif" font-size="10.00">src</text>
</g>
<!-- dir_0f3e25f372548d6cf05ef95e315cdb7c -->
<g id="node6" class="node"><title>dir_0f3e25f372548d6cf05ef95e315cdb7c</title>
<a xlink:href="dir_0f3e25f372548d6cf05ef95e315cdb7c.html" target="_top" xlink:title="wpilibC++">
<polygon fill="white" stroke="red" points="224.25,-36 165.75,-36 165.75,-0 224.25,-0 224.25,-36"/>
<text text-anchor="middle" x="195" y="-15.5" font-family="Helvetica,sans-Serif" font-size="10.00">wpilibC++</text>
</a>
</g>
<!-- dir_77752b6e2feb23b614c1de7b4c2f3110&#45;&gt;dir_0f3e25f372548d6cf05ef95e315cdb7c -->
<g id="edge4" class="edge"><title>dir_77752b6e2feb23b614c1de7b4c2f3110&#45;&gt;dir_0f3e25f372548d6cf05ef95e315cdb7c</title>
<path fill="none" stroke="black" d="M195,-71.6966C195,-63.9827 195,-54.7125 195,-46.1124"/>
<polygon fill="black" stroke="black" points="198.5,-46.1043 195,-36.1043 191.5,-46.1044 198.5,-46.1043"/>
<a xlink:href="dir_000021_000000.html" target="_top" xlink:title="11">
<text text-anchor="middle" x="201.339" y="-47.199" font-family="Helvetica,sans-Serif" font-size="10.00">11</text>
</a>
</g>
<!-- dir_803e52259e902de542a4e93b4337f001 -->
<g id="node4" class="node"><title>dir_803e52259e902de542a4e93b4337f001</title>
<a xlink:href="dir_803e52259e902de542a4e93b4337f001.html" target="_top" xlink:title="Internal">
<polygon fill="white" stroke="black" points="150,-108 96,-108 96,-72 150,-72 150,-108"/>
<text text-anchor="middle" x="123" y="-87.5" font-family="Helvetica,sans-Serif" font-size="10.00">Internal</text>
</a>
</g>
<!-- dir_4dadf96c888fedc733b417b4c2e28ece -->
<g id="node5" class="node"><title>dir_4dadf96c888fedc733b417b4c2e28ece</title>
<a xlink:href="dir_4dadf96c888fedc733b417b4c2e28ece.html" target="_top" xlink:title="Vision">
<polygon fill="white" stroke="black" points="78,-108 24,-108 24,-72 78,-72 78,-108"/>
<text text-anchor="middle" x="51" y="-87.5" font-family="Helvetica,sans-Serif" font-size="10.00">Vision</text>
</a>
</g>
</g>
</svg>
