<?xml version="1.0" encoding="UTF-8" standalone="no"?>
<!DOCTYPE svg PUBLIC "-//W3C//DTD SVG 1.1//EN"
 "http://www.w3.org/Graphics/SVG/1.1/DTD/svg11.dtd">
<!-- Generated by graphviz version 2.28.0 (20110507.0327)
 -->
<!-- Title: wpilibC++/src Pages: 1 -->
<svg width="460pt" height="159pt"
 viewBox="0.00 0.00 460.00 159.00" xmlns="http://www.w3.org/2000/svg" xmlns:xlink="http://www.w3.org/1999/xlink">
<g id="graph1" class="graph" transform="scale(1 1) rotate(0) translate(4 155)">
<title>wpilibC++/src</title>
<polygon fill="white" stroke="white" points="-4,5 -4,-155 457,-155 457,5 -4,5"/>
<g id="graph2" class="cluster"><title>clusterdir_0f3e25f372548d6cf05ef95e315cdb7c</title>
<a xlink:href="dir_0f3e25f372548d6cf05ef95e315cdb7c.html" target="_top" xlink:title="wpilibC++">
<polygon fill="#ddddee" stroke="black" points="8,-56 8,-143 444,-143 444,-56 8,-56"/>
<text text-anchor="middle" x="226" y="-131" font-family="Helvetica,sans-Serif" font-size="10.00">wpilibC++</text>
</a>
</g>
<g id="graph3" class="cluster"><title>clusterdir_f079688863695c432f5b9464c313883f</title>
<a xlink:href="dir_f079688863695c432f5b9464c313883f.html" target="_top">
<polygon fill="#eeeeff" stroke="black" points="16,-64 16,-116 436,-116 436,-64 16,-64"/>
</a>
</g>
<!-- dir_f079688863695c432f5b9464c313883f -->
<g id="node3" class="node"><title>dir_f079688863695c432f5b9464c313883f</title>
<text text-anchor="middle" x="401" y="-87.5" font-family="Helvetica,sans-Serif" font-size="10.00">src</text>
</g>
<!-- dir_37eb62383ab2b9aa84c13ee01c0c6d0e -->
<g id="node8" class="node"><title>dir_37eb62383ab2b9aa84c13ee01c0c6d0e</title>
<a xlink:href="dir_37eb62383ab2b9aa84c13ee01c0c6d0e.html" target="_top" xlink:title="include">
<polygon fill="white" stroke="red" points="428,-36 374,-36 374,-0 428,-0 428,-36"/>
<text text-anchor="middle" x="401" y="-15.5" font-family="Helvetica,sans-Serif" font-size="10.00">include</text>
</a>
</g>
<!-- dir_f079688863695c432f5b9464c313883f&#45;&gt;dir_37eb62383ab2b9aa84c13ee01c0c6d0e -->
<g id="edge4" class="edge"><title>dir_f079688863695c432f5b9464c313883f&#45;&gt;dir_37eb62383ab2b9aa84c13ee01c0c6d0e</title>
<path fill="none" stroke="black" d="M401,-71.6966C401,-63.9827 401,-54.7125 401,-46.1124"/>
<polygon fill="black" stroke="black" points="404.5,-46.1043 401,-36.1043 397.5,-46.1044 404.5,-46.1043"/>
<a xlink:href="dir_000007_000001.html" target="_top" xlink:title="1">
<text text-anchor="middle" x="407.339" y="-47.199" font-family="Helvetica,sans-Serif" font-size="10.00">1</text>
</a>
</g>
<!-- dir_5f08434d8c1d13ed8e3b54f46ff2c325 -->
<g id="node4" class="node"><title>dir_5f08434d8c1d13ed8e3b54f46ff2c325</title>
<a xlink:href="dir_5f08434d8c1d13ed8e3b54f46ff2c325.html" target="_top" xlink:title="Buttons">
<polygon fill="white" stroke="black" points="356,-108 302,-108 302,-72 356,-72 356,-108"/>
<text text-anchor="middle" x="329" y="-87.5" font-family="Helvetica,sans-Serif" font-size="10.00">Buttons</text>
</a>
</g>
<!-- dir_79561059921737bc027cdc05d45f1333 -->
<g id="node5" class="node"><title>dir_79561059921737bc027cdc05d45f1333</title>
<a xlink:href="dir_79561059921737bc027cdc05d45f1333.html" target="_top" xlink:title="Commands">
<polygon fill="white" stroke="black" points="284,-108 218,-108 218,-72 284,-72 284,-108"/>
<text text-anchor="middle" x="251" y="-87.5" font-family="Helvetica,sans-Serif" font-size="10.00">Commands</text>
</a>
</g>
<!-- dir_903d70992cb3a410e848ae2e6b0ba657 -->
<g id="node6" class="node"><title>dir_903d70992cb3a410e848ae2e6b0ba657</title>
<a xlink:href="dir_903d70992cb3a410e848ae2e6b0ba657.html" target="_top" xlink:title="LiveWindow">
<polygon fill="white" stroke="black" points="200,-108 132,-108 132,-72 200,-72 200,-108"/>
<text text-anchor="middle" x="166" y="-87.5" font-family="Helvetica,sans-Serif" font-size="10.00">LiveWindow</text>
</a>
</g>
<!-- dir_d3a1328efa3d60880d7268af361fe0a3 -->
<g id="node7" class="node"><title>dir_d3a1328efa3d60880d7268af361fe0a3</title>
<a xlink:href="dir_d3a1328efa3d60880d7268af361fe0a3.html" target="_top" xlink:title="SmartDashboard">
<polygon fill="white" stroke="black" points="113.25,-108 24.75,-108 24.75,-72 113.25,-72 113.25,-108"/>
<text text-anchor="middle" x="69" y="-87.5" font-family="Helvetica,sans-Serif" font-size="10.00">SmartDashboard</text>
</a>
</g>
</g>
</svg>
