<?xml version="1.0" encoding="UTF-8" standalone="no"?>
<!DOCTYPE svg PUBLIC "-//W3C//DTD SVG 1.1//EN"
 "http://www.w3.org/Graphics/SVG/1.1/DTD/svg11.dtd">
<!-- Generated by graphviz version 2.28.0 (20110507.0327)
 -->
<!-- Title: wpilibC++Sim Pages: 1 -->
<svg width="262pt" height="132pt"
 viewBox="0.00 0.00 262.00 132.00" xmlns="http://www.w3.org/2000/svg" xmlns:xlink="http://www.w3.org/1999/xlink">
<g id="graph1" class="graph" transform="scale(1 1) rotate(0) translate(4 128)">
<title>wpilibC++Sim</title>
<polygon fill="white" stroke="white" points="-4,5 -4,-128 259,-128 259,5 -4,5"/>
<g id="graph2" class="cluster"><title>clusterdir_d239b924c32dc9e9fb3603457926e24d</title>
<a xlink:href="dir_d239b924c32dc9e9fb3603457926e24d.html" target="_top">
<polygon fill="#eeeeff" stroke="black" points="8,-64 8,-116 246,-116 246,-64 8,-64"/>
</a>
</g>
<!-- dir_d239b924c32dc9e9fb3603457926e24d -->
<g id="node2" class="node"><title>dir_d239b924c32dc9e9fb3603457926e24d</title>
<text text-anchor="middle" x="199" y="-87.5" font-family="Helvetica,sans-Serif" font-size="10.00">wpilibC++Sim</text>
</g>
<!-- dir_237c79d0cf87160db9e19e6344d0b9ef -->
<g id="node3" class="node"><title>dir_237c79d0cf87160db9e19e6344d0b9ef</title>
<a xlink:href="dir_237c79d0cf87160db9e19e6344d0b9ef.html" target="_top" xlink:title="include">
<polygon fill="white" stroke="red" points="142,-108 88,-108 88,-72 142,-72 142,-108"/>
<text text-anchor="middle" x="115" y="-87.5" font-family="Helvetica,sans-Serif" font-size="10.00">include</text>
</a>
</g>
<!-- dir_161728447b74478c4a52e1b8cf624bd4 -->
<g id="node4" class="node"><title>dir_161728447b74478c4a52e1b8cf624bd4</title>
<a xlink:href="dir_161728447b74478c4a52e1b8cf624bd4.html" target="_top" xlink:title="src">
<polygon fill="white" stroke="red" points="70,-108 16,-108 16,-72 70,-72 70,-108"/>
<text text-anchor="middle" x="43" y="-87.5" font-family="Helvetica,sans-Serif" font-size="10.00">src</text>
</a>
</g>
<!-- dir_0f3e25f372548d6cf05ef95e315cdb7c -->
<g id="node5" class="node"><title>dir_0f3e25f372548d6cf05ef95e315cdb7c</title>
<a xlink:href="dir_0f3e25f372548d6cf05ef95e315cdb7c.html" target="_top" xlink:title="wpilibC++">
<polygon fill="white" stroke="red" points="72.25,-36 13.75,-36 13.75,-0 72.25,-0 72.25,-36"/>
<text text-anchor="middle" x="43" y="-15.5" font-family="Helvetica,sans-Serif" font-size="10.00">wpilibC++</text>
</a>
</g>
<!-- dir_161728447b74478c4a52e1b8cf624bd4&#45;&gt;dir_0f3e25f372548d6cf05ef95e315cdb7c -->
<g id="edge3" class="edge"><title>dir_161728447b74478c4a52e1b8cf624bd4&#45;&gt;dir_0f3e25f372548d6cf05ef95e315cdb7c</title>
<path fill="none" stroke="black" d="M43,-71.6966C43,-63.9827 43,-54.7125 43,-46.1124"/>
<polygon fill="black" stroke="black" points="46.5001,-46.1043 43,-36.1043 39.5001,-46.1044 46.5001,-46.1043"/>
<a xlink:href="dir_000022_000000.html" target="_top" xlink:title="7">
<text text-anchor="middle" x="49.3393" y="-47.199" font-family="Helvetica,sans-Serif" font-size="10.00">7</text>
</a>
</g>
</g>
</svg>
