<?xml version="1.0" encoding="UTF-8" standalone="no"?>
<!DOCTYPE svg PUBLIC "-//W3C//DTD SVG 1.1//EN"
 "http://www.w3.org/Graphics/SVG/1.1/DTD/svg11.dtd">
<!-- Generated by graphviz version 2.28.0 (20110507.0327)
 -->
<!-- Title: wpilibC++IntegrationTests/src Pages: 1 -->
<svg width="260pt" height="111pt"
 viewBox="0.00 0.00 260.00 111.00" xmlns="http://www.w3.org/2000/svg" xmlns:xlink="http://www.w3.org/1999/xlink">
<g id="graph1" class="graph" transform="scale(1 1) rotate(0) translate(4 107)">
<title>wpilibC++IntegrationTests/src</title>
<polygon fill="white" stroke="white" points="-4,5 -4,-107 257,-107 257,5 -4,5"/>
<g id="graph2" class="cluster"><title>clusterdir_e50b1c0b0e7dd747d6369df10ff3d911</title>
<a xlink:href="dir_e50b1c0b0e7dd747d6369df10ff3d911.html" target="_top" xlink:title="wpilibC++IntegrationTests">
<polygon fill="#ddddee" stroke="black" points="8,-8 8,-95 244,-95 244,-8 8,-8"/>
<text text-anchor="middle" x="126" y="-83" font-family="Helvetica,sans-Serif" font-size="10.00">wpilibC++IntegrationTests</text>
</a>
</g>
<g id="graph3" class="cluster"><title>clusterdir_96d3cd190b85243fac097e87fab401de</title>
<a xlink:href="dir_96d3cd190b85243fac097e87fab401de.html" target="_top">
<polygon fill="#eeeeff" stroke="black" points="16,-16 16,-68 236,-68 236,-16 16,-16"/>
</a>
</g>
<!-- dir_96d3cd190b85243fac097e87fab401de -->
<g id="node3" class="node"><title>dir_96d3cd190b85243fac097e87fab401de</title>
<text text-anchor="middle" x="201" y="-39.5" font-family="Helvetica,sans-Serif" font-size="10.00">src</text>
</g>
<!-- dir_2e09b4b85d1fd204bd1d3eccb3dd4055 -->
<g id="node4" class="node"><title>dir_2e09b4b85d1fd204bd1d3eccb3dd4055</title>
<a xlink:href="dir_2e09b4b85d1fd204bd1d3eccb3dd4055.html" target="_top" xlink:title="command">
<polygon fill="white" stroke="black" points="155.25,-60 96.75,-60 96.75,-24 155.25,-24 155.25,-60"/>
<text text-anchor="middle" x="126" y="-39.5" font-family="Helvetica,sans-Serif" font-size="10.00">command</text>
</a>
</g>
<!-- dir_86da56148b976203f748c2e03611e507 -->
<g id="node5" class="node"><title>dir_86da56148b976203f748c2e03611e507</title>
<a xlink:href="dir_86da56148b976203f748c2e03611e507.html" target="_top" xlink:title="gtest">
<polygon fill="white" stroke="red" points="78,-60 24,-60 24,-24 78,-24 78,-60"/>
<text text-anchor="middle" x="51" y="-39.5" font-family="Helvetica,sans-Serif" font-size="10.00">gtest</text>
</a>
</g>
</g>
</svg>
