<?xml version="1.0" encoding="UTF-8" standalone="no"?>
<!DOCTYPE svg PUBLIC "-//W3C//DTD SVG 1.1//EN"
 "http://www.w3.org/Graphics/SVG/1.1/DTD/svg11.dtd">
<!-- Generated by graphviz version 2.28.0 (20110507.0327)
 -->
<!-- Title: wpilibC++Devices/include Pages: 1 -->
<svg width="536pt" height="159pt"
 viewBox="0.00 0.00 536.00 159.00" xmlns="http://www.w3.org/2000/svg" xmlns:xlink="http://www.w3.org/1999/xlink">
<g id="graph1" class="graph" transform="scale(1 1) rotate(0) translate(4 155)">
<title>wpilibC++Devices/include</title>
<polygon fill="white" stroke="white" points="-4,5 -4,-155 533,-155 533,5 -4,5"/>
<g id="graph2" class="cluster"><title>clusterdir_a83b5d2798d772dcdd895aef8520671d</title>
<a xlink:href="dir_a83b5d2798d772dcdd895aef8520671d.html" target="_top" xlink:title="wpilibC++Devices">
<polygon fill="#ddddee" stroke="black" points="8,-56 8,-143 520,-143 520,-56 8,-56"/>
<text text-anchor="middle" x="264" y="-131" font-family="Helvetica,sans-Serif" font-size="10.00">wpilibC++Devices</text>
</a>
</g>
<g id="graph3" class="cluster"><title>clusterdir_9604af75aff0322ad2a0f3294c5a2b1f</title>
<a xlink:href="dir_9604af75aff0322ad2a0f3294c5a2b1f.html" target="_top">
<polygon fill="#eeeeff" stroke="black" points="16,-64 16,-116 512,-116 512,-64 16,-64"/>
</a>
</g>
<!-- dir_9604af75aff0322ad2a0f3294c5a2b1f -->
<g id="node3" class="node"><title>dir_9604af75aff0322ad2a0f3294c5a2b1f</title>
<text text-anchor="middle" x="477" y="-87.5" font-family="Helvetica,sans-Serif" font-size="10.00">include</text>
</g>
<!-- dir_0f3e25f372548d6cf05ef95e315cdb7c -->
<g id="node9" class="node"><title>dir_0f3e25f372548d6cf05ef95e315cdb7c</title>
<a xlink:href="dir_0f3e25f372548d6cf05ef95e315cdb7c.html" target="_top" xlink:title="wpilibC++">
<polygon fill="white" stroke="red" points="506.25,-36 447.75,-36 447.75,-0 506.25,-0 506.25,-36"/>
<text text-anchor="middle" x="477" y="-15.5" font-family="Helvetica,sans-Serif" font-size="10.00">wpilibC++</text>
</a>
</g>
<!-- dir_9604af75aff0322ad2a0f3294c5a2b1f&#45;&gt;dir_0f3e25f372548d6cf05ef95e315cdb7c -->
<g id="edge4" class="edge"><title>dir_9604af75aff0322ad2a0f3294c5a2b1f&#45;&gt;dir_0f3e25f372548d6cf05ef95e315cdb7c</title>
<path fill="none" stroke="black" d="M477,-71.6966C477,-63.9827 477,-54.7125 477,-46.1124"/>
<polygon fill="black" stroke="black" points="480.5,-46.1043 477,-36.1043 473.5,-46.1044 480.5,-46.1043"/>
<a xlink:href="dir_000013_000000.html" target="_top" xlink:title="1">
<text text-anchor="middle" x="483.339" y="-47.199" font-family="Helvetica,sans-Serif" font-size="10.00">1</text>
</a>
</g>
<!-- dir_be7dbb353984924b2319dece378832ee -->
<g id="node4" class="node"><title>dir_be7dbb353984924b2319dece378832ee</title>
<a xlink:href="dir_be7dbb353984924b2319dece378832ee.html" target="_top" xlink:title="CAN">
<polygon fill="white" stroke="black" points="432,-108 378,-108 378,-72 432,-72 432,-108"/>
<text text-anchor="middle" x="405" y="-87.5" font-family="Helvetica,sans-Serif" font-size="10.00">CAN</text>
</a>
</g>
<!-- dir_c1838f247bc186747b3d85215a06667d -->
<g id="node5" class="node"><title>dir_c1838f247bc186747b3d85215a06667d</title>
<a xlink:href="dir_c1838f247bc186747b3d85215a06667d.html" target="_top" xlink:title="ctre">
<polygon fill="white" stroke="black" points="360,-108 306,-108 306,-72 360,-72 360,-108"/>
<text text-anchor="middle" x="333" y="-87.5" font-family="Helvetica,sans-Serif" font-size="10.00">ctre</text>
</a>
</g>
<!-- dir_878c455d70f47070f82ae5872c3ce10a -->
<g id="node6" class="node"><title>dir_878c455d70f47070f82ae5872c3ce10a</title>
<a xlink:href="dir_878c455d70f47070f82ae5872c3ce10a.html" target="_top" xlink:title="Internal">
<polygon fill="white" stroke="black" points="288,-108 234,-108 234,-72 288,-72 288,-108"/>
<text text-anchor="middle" x="261" y="-87.5" font-family="Helvetica,sans-Serif" font-size="10.00">Internal</text>
</a>
</g>
<!-- dir_365aef3a1a7e5ef6d50577a0c32f5f55 -->
<g id="node7" class="node"><title>dir_365aef3a1a7e5ef6d50577a0c32f5f55</title>
<a xlink:href="dir_365aef3a1a7e5ef6d50577a0c32f5f55.html" target="_top" xlink:title="NetworkCommunication">
<polygon fill="white" stroke="black" points="215.25,-108 96.75,-108 96.75,-72 215.25,-72 215.25,-108"/>
<text text-anchor="middle" x="156" y="-87.5" font-family="Helvetica,sans-Serif" font-size="10.00">NetworkCommunication</text>
</a>
</g>
<!-- dir_72cd1a3c2c2283c70d63c0f249ced00d -->
<g id="node8" class="node"><title>dir_72cd1a3c2c2283c70d63c0f249ced00d</title>
<a xlink:href="dir_72cd1a3c2c2283c70d63c0f249ced00d.html" target="_top" xlink:title="Vision">
<polygon fill="white" stroke="black" points="78,-108 24,-108 24,-72 78,-72 78,-108"/>
<text text-anchor="middle" x="51" y="-87.5" font-family="Helvetica,sans-Serif" font-size="10.00">Vision</text>
</a>
</g>
</g>
</svg>
