<?xml version="1.0" encoding="UTF-8" standalone="no"?>
<!DOCTYPE svg PUBLIC "-//W3C//DTD SVG 1.1//EN"
 "http://www.w3.org/Graphics/SVG/1.1/DTD/svg11.dtd">
<!-- Generated by graphviz version 2.28.0 (20110507.0327)
 -->
<!-- Title: wpilibC++IntegrationTests/src/gtest Pages: 1 -->
<svg width="254pt" height="111pt"
 viewBox="0.00 0.00 254.00 111.00" xmlns="http://www.w3.org/2000/svg" xmlns:xlink="http://www.w3.org/1999/xlink">
<g id="graph1" class="graph" transform="scale(1 1) rotate(0) translate(4 107)">
<title>wpilibC++IntegrationTests/src/gtest</title>
<polygon fill="white" stroke="white" points="-4,5 -4,-107 251,-107 251,5 -4,5"/>
<g id="graph2" class="cluster"><title>clusterdir_96d3cd190b85243fac097e87fab401de</title>
<a xlink:href="dir_96d3cd190b85243fac097e87fab401de.html" target="_top" xlink:title="src">
<polygon fill="#ddddee" stroke="black" points="8,-8 8,-95 238,-95 238,-8 8,-8"/>
<text text-anchor="middle" x="123" y="-83" font-family="Helvetica,sans-Serif" font-size="10.00">src</text>
</a>
</g>
<g id="graph3" class="cluster"><title>clusterdir_86da56148b976203f748c2e03611e507</title>
<a xlink:href="dir_86da56148b976203f748c2e03611e507.html" target="_top">
<polygon fill="#eeeeff" stroke="black" points="16,-16 16,-68 230,-68 230,-16 16,-16"/>
</a>
</g>
<!-- dir_86da56148b976203f748c2e03611e507 -->
<g id="node3" class="node"><title>dir_86da56148b976203f748c2e03611e507</title>
<text text-anchor="middle" x="195" y="-39.5" font-family="Helvetica,sans-Serif" font-size="10.00">gtest</text>
</g>
<!-- dir_3893ae99e3ef3bb4a29a5c122d579b13 -->
<g id="node4" class="node"><title>dir_3893ae99e3ef3bb4a29a5c122d579b13</title>
<a xlink:href="dir_3893ae99e3ef3bb4a29a5c122d579b13.html" target="_top" xlink:title="include">
<polygon fill="white" stroke="red" points="150,-60 96,-60 96,-24 150,-24 150,-60"/>
<text text-anchor="middle" x="123" y="-39.5" font-family="Helvetica,sans-Serif" font-size="10.00">include</text>
</a>
</g>
<!-- dir_77f86a4e1cd6a8eb4abace586dc30100 -->
<g id="node5" class="node"><title>dir_77f86a4e1cd6a8eb4abace586dc30100</title>
<a xlink:href="dir_77f86a4e1cd6a8eb4abace586dc30100.html" target="_top" xlink:title="src">
<polygon fill="white" stroke="black" points="78,-60 24,-60 24,-24 78,-24 78,-60"/>
<text text-anchor="middle" x="51" y="-39.5" font-family="Helvetica,sans-Serif" font-size="10.00">src</text>
</a>
</g>
</g>
</svg>
