<?xml version="1.0" encoding="UTF-8" standalone="no"?>
<!DOCTYPE svg PUBLIC "-//W3C//DTD SVG 1.1//EN"
 "http://www.w3.org/Graphics/SVG/1.1/DTD/svg11.dtd">
<!-- Generated by graphviz version 2.28.0 (20110507.0327)
 -->
<!-- Title: wpilibC++Devices Pages: 1 -->
<svg width="278pt" height="132pt"
 viewBox="0.00 0.00 278.00 132.00" xmlns="http://www.w3.org/2000/svg" xmlns:xlink="http://www.w3.org/1999/xlink">
<g id="graph1" class="graph" transform="scale(1 1) rotate(0) translate(4 128)">
<title>wpilibC++Devices</title>
<polygon fill="white" stroke="white" points="-4,5 -4,-128 275,-128 275,5 -4,5"/>
<g id="graph2" class="cluster"><title>clusterdir_a83b5d2798d772dcdd895aef8520671d</title>
<a xlink:href="dir_a83b5d2798d772dcdd895aef8520671d.html" target="_top">
<polygon fill="#eeeeff" stroke="black" points="8,-64 8,-116 262,-116 262,-64 8,-64"/>
</a>
</g>
<!-- dir_a83b5d2798d772dcdd895aef8520671d -->
<g id="node2" class="node"><title>dir_a83b5d2798d772dcdd895aef8520671d</title>
<text text-anchor="middle" x="207" y="-87.5" font-family="Helvetica,sans-Serif" font-size="10.00">wpilibC++Devices</text>
</g>
<!-- dir_9604af75aff0322ad2a0f3294c5a2b1f -->
<g id="node3" class="node"><title>dir_9604af75aff0322ad2a0f3294c5a2b1f</title>
<a xlink:href="dir_9604af75aff0322ad2a0f3294c5a2b1f.html" target="_top" xlink:title="include">
<polygon fill="white" stroke="red" points="142,-108 88,-108 88,-72 142,-72 142,-108"/>
<text text-anchor="middle" x="115" y="-87.5" font-family="Helvetica,sans-Serif" font-size="10.00">include</text>
</a>
</g>
<!-- dir_0f3e25f372548d6cf05ef95e315cdb7c -->
<g id="node5" class="node"><title>dir_0f3e25f372548d6cf05ef95e315cdb7c</title>
<a xlink:href="dir_0f3e25f372548d6cf05ef95e315cdb7c.html" target="_top" xlink:title="wpilibC++">
<polygon fill="white" stroke="red" points="108.25,-36 49.75,-36 49.75,-0 108.25,-0 108.25,-36"/>
<text text-anchor="middle" x="79" y="-15.5" font-family="Helvetica,sans-Serif" font-size="10.00">wpilibC++</text>
</a>
</g>
<!-- dir_9604af75aff0322ad2a0f3294c5a2b1f&#45;&gt;dir_0f3e25f372548d6cf05ef95e315cdb7c -->
<g id="edge3" class="edge"><title>dir_9604af75aff0322ad2a0f3294c5a2b1f&#45;&gt;dir_0f3e25f372548d6cf05ef95e315cdb7c</title>
<path fill="none" stroke="black" d="M106.101,-71.6966C102.003,-63.7284 97.0512,-54.0995 92.5073,-45.2641"/>
<polygon fill="black" stroke="black" points="95.4826,-43.3965 87.7965,-36.1043 89.2575,-46.598 95.4826,-43.3965"/>
<a xlink:href="dir_000013_000000.html" target="_top" xlink:title="1">
<text text-anchor="middle" x="99.6514" y="-42.7946" font-family="Helvetica,sans-Serif" font-size="10.00">1</text>
</a>
</g>
<!-- dir_77752b6e2feb23b614c1de7b4c2f3110 -->
<g id="node4" class="node"><title>dir_77752b6e2feb23b614c1de7b4c2f3110</title>
<a xlink:href="dir_77752b6e2feb23b614c1de7b4c2f3110.html" target="_top" xlink:title="src">
<polygon fill="white" stroke="red" points="70,-108 16,-108 16,-72 70,-72 70,-108"/>
<text text-anchor="middle" x="43" y="-87.5" font-family="Helvetica,sans-Serif" font-size="10.00">src</text>
</a>
</g>
<!-- dir_77752b6e2feb23b614c1de7b4c2f3110&#45;&gt;dir_0f3e25f372548d6cf05ef95e315cdb7c -->
<g id="edge5" class="edge"><title>dir_77752b6e2feb23b614c1de7b4c2f3110&#45;&gt;dir_0f3e25f372548d6cf05ef95e315cdb7c</title>
<path fill="none" stroke="black" d="M51.8989,-71.6966C55.9968,-63.7284 60.9488,-54.0995 65.4927,-45.2641"/>
<polygon fill="black" stroke="black" points="68.7425,-46.598 70.2035,-36.1043 62.5174,-43.3965 68.7425,-46.598"/>
<a xlink:href="dir_000021_000000.html" target="_top" xlink:title="11">
<text text-anchor="middle" x="69.6235" y="-48.5931" font-family="Helvetica,sans-Serif" font-size="10.00">11</text>
</a>
</g>
</g>
</svg>
