<?xml version="1.0" encoding="UTF-8" standalone="no"?>
<!DOCTYPE svg PUBLIC "-//W3C//DTD SVG 1.1//EN"
 "http://www.w3.org/Graphics/SVG/1.1/DTD/svg11.dtd">
<!-- Generated by graphviz version 2.28.0 (20110507.0327)
 -->
<!-- Title: wpilibC++/include Pages: 1 -->
<svg width="538pt" height="111pt"
 viewBox="0.00 0.00 538.00 111.00" xmlns="http://www.w3.org/2000/svg" xmlns:xlink="http://www.w3.org/1999/xlink">
<g id="graph1" class="graph" transform="scale(1 1) rotate(0) translate(4 107)">
<title>wpilibC++/include</title>
<polygon fill="white" stroke="white" points="-4,5 -4,-107 535,-107 535,5 -4,5"/>
<g id="graph2" class="cluster"><title>clusterdir_0f3e25f372548d6cf05ef95e315cdb7c</title>
<a xlink:href="dir_0f3e25f372548d6cf05ef95e315cdb7c.html" target="_top" xlink:title="wpilibC++">
<polygon fill="#ddddee" stroke="black" points="8,-8 8,-95 522,-95 522,-8 8,-8"/>
<text text-anchor="middle" x="265" y="-83" font-family="Helvetica,sans-Serif" font-size="10.00">wpilibC++</text>
</a>
</g>
<g id="graph3" class="cluster"><title>clusterdir_37eb62383ab2b9aa84c13ee01c0c6d0e</title>
<a xlink:href="dir_37eb62383ab2b9aa84c13ee01c0c6d0e.html" target="_top">
<polygon fill="#eeeeff" stroke="black" points="16,-16 16,-68 514,-68 514,-16 16,-16"/>
</a>
</g>
<!-- dir_37eb62383ab2b9aa84c13ee01c0c6d0e -->
<g id="node3" class="node"><title>dir_37eb62383ab2b9aa84c13ee01c0c6d0e</title>
<text text-anchor="middle" x="479" y="-39.5" font-family="Helvetica,sans-Serif" font-size="10.00">include</text>
</g>
<!-- dir_762f43afbdc669b9bfa329167b408ce3 -->
<g id="node4" class="node"><title>dir_762f43afbdc669b9bfa329167b408ce3</title>
<a xlink:href="dir_762f43afbdc669b9bfa329167b408ce3.html" target="_top" xlink:title="Buttons">
<polygon fill="white" stroke="black" points="434,-60 380,-60 380,-24 434,-24 434,-60"/>
<text text-anchor="middle" x="407" y="-39.5" font-family="Helvetica,sans-Serif" font-size="10.00">Buttons</text>
</a>
</g>
<!-- dir_8a082633e35d9c2b962000462e086da6 -->
<g id="node5" class="node"><title>dir_8a082633e35d9c2b962000462e086da6</title>
<a xlink:href="dir_8a082633e35d9c2b962000462e086da6.html" target="_top" xlink:title="Commands">
<polygon fill="white" stroke="black" points="362,-60 296,-60 296,-24 362,-24 362,-60"/>
<text text-anchor="middle" x="329" y="-39.5" font-family="Helvetica,sans-Serif" font-size="10.00">Commands</text>
</a>
</g>
<!-- dir_98e8538fd315e631ecbe5d9f67a86038 -->
<g id="node6" class="node"><title>dir_98e8538fd315e631ecbe5d9f67a86038</title>
<a xlink:href="dir_98e8538fd315e631ecbe5d9f67a86038.html" target="_top" xlink:title="interfaces">
<polygon fill="white" stroke="black" points="277.25,-60 218.75,-60 218.75,-24 277.25,-24 277.25,-60"/>
<text text-anchor="middle" x="248" y="-39.5" font-family="Helvetica,sans-Serif" font-size="10.00">interfaces</text>
</a>
</g>
<!-- dir_2ad4de6854d69b981279e49d6ef2d3f5 -->
<g id="node7" class="node"><title>dir_2ad4de6854d69b981279e49d6ef2d3f5</title>
<a xlink:href="dir_2ad4de6854d69b981279e49d6ef2d3f5.html" target="_top" xlink:title="LiveWindow">
<polygon fill="white" stroke="black" points="200,-60 132,-60 132,-24 200,-24 200,-60"/>
<text text-anchor="middle" x="166" y="-39.5" font-family="Helvetica,sans-Serif" font-size="10.00">LiveWindow</text>
</a>
</g>
<!-- dir_1a27a1d1244f689ef70c440d1abce754 -->
<g id="node8" class="node"><title>dir_1a27a1d1244f689ef70c440d1abce754</title>
<a xlink:href="dir_1a27a1d1244f689ef70c440d1abce754.html" target="_top" xlink:title="SmartDashboard">
<polygon fill="white" stroke="black" points="113.25,-60 24.75,-60 24.75,-24 113.25,-24 113.25,-60"/>
<text text-anchor="middle" x="69" y="-39.5" font-family="Helvetica,sans-Serif" font-size="10.00">SmartDashboard</text>
</a>
</g>
</g>
</svg>
