<?xml version="1.0" encoding="UTF-8" standalone="no"?>
<!DOCTYPE svg PUBLIC "-//W3C//DTD SVG 1.1//EN"
 "http://www.w3.org/Graphics/SVG/1.1/DTD/svg11.dtd">
<!-- Generated by graphviz version 2.28.0 (20110507.0327)
 -->
<!-- Title: Graphical Class Hierarchy Pages: 1 -->
<svg width="240pt" height="142pt"
 viewBox="0.00 0.00 240.00 142.00" xmlns="http://www.w3.org/2000/svg" xmlns:xlink="http://www.w3.org/1999/xlink">
<g id="graph1" class="graph" transform="scale(1 1) rotate(0) translate(4 138)">
<title>Graphical Class Hierarchy</title>
<polygon fill="white" stroke="white" points="-4,5 -4,-138 237,-138 237,5 -4,5"/>
<!-- Node1 -->
<g id="node1" class="node"><title>Node1</title>
<polygon fill="white" stroke="#bfbfbf" points="0,-57.5 0,-76.5 56,-76.5 56,-57.5 0,-57.5"/>
<text text-anchor="middle" x="28" y="-64.5" font-family="Helvetica,sans-Serif" font-size="10.00">Message</text>
</g>
<!-- Node2 -->
<g id="node3" class="node"><title>Node2</title>
<a xlink:href="classgazebo_1_1msgs_1_1_bool.html" target="_top" xlink:title="gazebo::msgs::Bool">
<polygon fill="white" stroke="black" points="110,-114.5 110,-133.5 214,-133.5 214,-114.5 110,-114.5"/>
<text text-anchor="middle" x="162" y="-121.5" font-family="Helvetica,sans-Serif" font-size="10.00">gazebo::msgs::Bool</text>
</a>
</g>
<!-- Node1&#45;&gt;Node2 -->
<g id="edge2" class="edge"><title>Node1&#45;&gt;Node2</title>
<path fill="none" stroke="midnightblue" d="M51.0845,-82.3707C62.8216,-90.0017 77.7388,-98.8739 92,-105 100.562,-108.678 110.03,-111.832 119.137,-114.453"/>
<polygon fill="midnightblue" stroke="midnightblue" points="52.6874,-79.2326 42.4266,-76.593 48.8018,-85.0552 52.6874,-79.2326"/>
</g>
<!-- Node3 -->
<g id="node5" class="node"><title>Node3</title>
<a xlink:href="classgazebo_1_1msgs_1_1_driver_station.html" target="_top" xlink:title="gazebo::msgs::DriverStation">
<polygon fill="white" stroke="black" points="92.5,-76.5 92.5,-95.5 231.5,-95.5 231.5,-76.5 92.5,-76.5"/>
<text text-anchor="middle" x="162" y="-83.5" font-family="Helvetica,sans-Serif" font-size="10.00">gazebo::msgs::DriverStation</text>
</a>
</g>
<!-- Node1&#45;&gt;Node3 -->
<g id="edge4" class="edge"><title>Node1&#45;&gt;Node3</title>
<path fill="none" stroke="midnightblue" d="M66.0891,-72.3386C75.0488,-73.6282 84.8945,-75.0454 94.7477,-76.4637"/>
<polygon fill="midnightblue" stroke="midnightblue" points="66.4274,-68.8513 56.0307,-70.8908 65.43,-75.7799 66.4274,-68.8513"/>
</g>
<!-- Node4 -->
<g id="node7" class="node"><title>Node4</title>
<a xlink:href="classgazebo_1_1msgs_1_1_float64.html" target="_top" xlink:title="gazebo::msgs::Float64">
<polygon fill="white" stroke="black" points="104,-38.5 104,-57.5 220,-57.5 220,-38.5 104,-38.5"/>
<text text-anchor="middle" x="162" y="-45.5" font-family="Helvetica,sans-Serif" font-size="10.00">gazebo::msgs::Float64</text>
</a>
</g>
<!-- Node1&#45;&gt;Node4 -->
<g id="edge6" class="edge"><title>Node1&#45;&gt;Node4</title>
<path fill="none" stroke="midnightblue" d="M66.2645,-61.6362C77.9233,-59.958 91.0686,-58.0659 103.772,-56.2373"/>
<polygon fill="midnightblue" stroke="midnightblue" points="65.43,-58.2201 56.0307,-63.1092 66.4274,-65.1487 65.43,-58.2201"/>
</g>
<!-- Node5 -->
<g id="node9" class="node"><title>Node5</title>
<a xlink:href="classgazebo_1_1msgs_1_1_joystick.html" target="_top" xlink:title="gazebo::msgs::Joystick">
<polygon fill="white" stroke="black" points="102,-0.5 102,-19.5 222,-19.5 222,-0.5 102,-0.5"/>
<text text-anchor="middle" x="162" y="-7.5" font-family="Helvetica,sans-Serif" font-size="10.00">gazebo::msgs::Joystick</text>
</a>
</g>
<!-- Node1&#45;&gt;Node5 -->
<g id="edge8" class="edge"><title>Node1&#45;&gt;Node5</title>
<path fill="none" stroke="midnightblue" d="M51.0845,-51.6293C62.8216,-43.9983 77.7388,-35.1261 92,-29 100.562,-25.322 110.03,-22.1683 119.137,-19.5474"/>
<polygon fill="midnightblue" stroke="midnightblue" points="48.8018,-48.9448 42.4266,-57.407 52.6874,-54.7674 48.8018,-48.9448"/>
</g>
</g>
</svg>
