<?xml version="1.0" encoding="UTF-8" standalone="no"?>
<!DOCTYPE svg PUBLIC "-//W3C//DTD SVG 1.1//EN"
 "http://www.w3.org/Graphics/SVG/1.1/DTD/svg11.dtd">
<!-- Generated by graphviz version 2.28.0 (20110507.0327)
 -->
<!-- Title: Graphical Class Hierarchy Pages: 1 -->
<svg width="238pt" height="87pt"
 viewBox="0.00 0.00 238.00 87.00" xmlns="http://www.w3.org/2000/svg" xmlns:xlink="http://www.w3.org/1999/xlink">
<g id="graph1" class="graph" transform="scale(1 1) rotate(0) translate(4 83)">
<title>Graphical Class Hierarchy</title>
<polygon fill="white" stroke="white" points="-4,5 -4,-83 235,-83 235,5 -4,5"/>
<!-- Node1 -->
<g id="node1" class="node"><title>Node1</title>
<a xlink:href="structtesting_1_1internal_1_1bool__constant.html" target="_top" xlink:title="testing::internal::\lbool_constant\&lt; bool\l_value \&gt;">
<polygon fill="white" stroke="black" points="0,-18.5 0,-59.5 104,-59.5 104,-18.5 0,-18.5"/>
<text text-anchor="start" x="8" y="-47.5" font-family="Helvetica,sans-Serif" font-size="10.00">testing::internal::</text>
<text text-anchor="start" x="8" y="-36.5" font-family="Helvetica,sans-Serif" font-size="10.00">bool_constant&lt; bool</text>
<text text-anchor="middle" x="52" y="-25.5" font-family="Helvetica,sans-Serif" font-size="10.00">_value &gt;</text>
</a>
</g>
<!-- Node2 -->
<g id="node3" class="node"><title>Node2</title>
<a xlink:href="structtesting_1_1internal_1_1is__pointer.html" target="_top" xlink:title="testing::internal::\lis_pointer\&lt; T \&gt;">
<polygon fill="white" stroke="black" points="140.5,-49 140.5,-79 229.5,-79 229.5,-49 140.5,-49"/>
<text text-anchor="start" x="148.5" y="-67" font-family="Helvetica,sans-Serif" font-size="10.00">testing::internal::</text>
<text text-anchor="middle" x="185" y="-56" font-family="Helvetica,sans-Serif" font-size="10.00">is_pointer&lt; T &gt;</text>
</a>
</g>
<!-- Node1&#45;&gt;Node2 -->
<g id="edge2" class="edge"><title>Node1&#45;&gt;Node2</title>
<path fill="none" stroke="midnightblue" d="M113.922,-50.6264C122.763,-52.3136 131.716,-54.0221 140.131,-55.6281"/>
<polygon fill="midnightblue" stroke="midnightblue" points="114.502,-47.1739 104.023,-48.7372 113.19,-54.0498 114.502,-47.1739"/>
</g>
<!-- Node3 -->
<g id="node5" class="node"><title>Node3</title>
<a xlink:href="structtesting_1_1internal_1_1is__pointer_3_01_t_01_5_01_4.html" target="_top" xlink:title="testing::internal::\lis_pointer\&lt; T * \&gt;">
<polygon fill="white" stroke="black" points="140.5,-0 140.5,-30 229.5,-30 229.5,-0 140.5,-0"/>
<text text-anchor="start" x="148.5" y="-18" font-family="Helvetica,sans-Serif" font-size="10.00">testing::internal::</text>
<text text-anchor="middle" x="185" y="-7" font-family="Helvetica,sans-Serif" font-size="10.00">is_pointer&lt; T * &gt;</text>
</a>
</g>
<!-- Node1&#45;&gt;Node3 -->
<g id="edge4" class="edge"><title>Node1&#45;&gt;Node3</title>
<path fill="none" stroke="midnightblue" d="M113.922,-27.8386C122.763,-26.219 131.716,-24.5788 140.131,-23.037"/>
<polygon fill="midnightblue" stroke="midnightblue" points="113.229,-24.4074 104.023,-29.6523 114.49,-31.2928 113.229,-24.4074"/>
</g>
</g>
</svg>
