<?xml version="1.0" encoding="UTF-8" standalone="no"?>
<!DOCTYPE svg PUBLIC "-//W3C//DTD SVG 1.1//EN"
 "http://www.w3.org/Graphics/SVG/1.1/DTD/svg11.dtd">
<!-- Generated by graphviz version 2.28.0 (20110507.0327)
 -->
<!-- Title: Graphical Class Hierarchy Pages: 1 -->
<svg width="294pt" height="38pt"
 viewBox="0.00 0.00 294.00 38.00" xmlns="http://www.w3.org/2000/svg" xmlns:xlink="http://www.w3.org/1999/xlink">
<g id="graph1" class="graph" transform="scale(1 1) rotate(0) translate(4 34)">
<title>Graphical Class Hierarchy</title>
<polygon fill="white" stroke="white" points="-4,5 -4,-34 291,-34 291,5 -4,5"/>
<!-- Node1 -->
<g id="node1" class="node"><title>Node1</title>
<a xlink:href="classtesting_1_1internal_1_1_os_stack_trace_getter_interface.html" target="_top" xlink:title="testing::internal::\lOsStackTraceGetterInterface">
<polygon fill="white" stroke="black" points="0.5,-0 0.5,-30 143.5,-30 143.5,-0 0.5,-0"/>
<text text-anchor="start" x="8.5" y="-18" font-family="Helvetica,sans-Serif" font-size="10.00">testing::internal::</text>
<text text-anchor="middle" x="72" y="-7" font-family="Helvetica,sans-Serif" font-size="10.00">OsStackTraceGetterInterface</text>
</a>
</g>
<!-- Node2 -->
<g id="node3" class="node"><title>Node2</title>
<a xlink:href="classtesting_1_1internal_1_1_os_stack_trace_getter.html" target="_top" xlink:title="testing::internal::\lOsStackTraceGetter">
<polygon fill="white" stroke="black" points="180,-0 180,-30 286,-30 286,-0 180,-0"/>
<text text-anchor="start" x="188" y="-18" font-family="Helvetica,sans-Serif" font-size="10.00">testing::internal::</text>
<text text-anchor="middle" x="233" y="-7" font-family="Helvetica,sans-Serif" font-size="10.00">OsStackTraceGetter</text>
</a>
</g>
<!-- Node1&#45;&gt;Node2 -->
<g id="edge2" class="edge"><title>Node1&#45;&gt;Node2</title>
<path fill="none" stroke="midnightblue" d="M153.923,-15C162.673,-15 171.401,-15 179.681,-15"/>
<polygon fill="midnightblue" stroke="midnightblue" points="153.666,-11.5001 143.666,-15 153.666,-18.5001 153.666,-11.5001"/>
</g>
</g>
</svg>
