<?xml version="1.0" encoding="UTF-8" standalone="no"?>
<!DOCTYPE svg PUBLIC "-//W3C//DTD SVG 1.1//EN"
 "http://www.w3.org/Graphics/SVG/1.1/DTD/svg11.dtd">
<!-- Generated by graphviz version 2.28.0 (20110507.0327)
 -->
<!-- Title: Graphical Class Hierarchy Pages: 1 -->
<svg width="264pt" height="180pt"
 viewBox="0.00 0.00 264.00 180.00" xmlns="http://www.w3.org/2000/svg" xmlns:xlink="http://www.w3.org/1999/xlink">
<g id="graph1" class="graph" transform="scale(1 1) rotate(0) translate(4 176)">
<title>Graphical Class Hierarchy</title>
<polygon fill="white" stroke="white" points="-4,5 -4,-176 261,-176 261,5 -4,5"/>
<!-- Node1 -->
<g id="node1" class="node"><title>Node1</title>
<a xlink:href="class_button_scheduler.html" target="_top" xlink:title="ButtonScheduler">
<polygon fill="white" stroke="black" points="0.5,-76.5 0.5,-95.5 89.5,-95.5 89.5,-76.5 0.5,-76.5"/>
<text text-anchor="middle" x="45" y="-83.5" font-family="Helvetica,sans-Serif" font-size="10.00">ButtonScheduler</text>
</a>
</g>
<!-- Node2 -->
<g id="node3" class="node"><title>Node2</title>
<a xlink:href="class_cancel_button_scheduler.html" target="_top" xlink:title="CancelButtonScheduler">
<polygon fill="white" stroke="black" points="131.5,-152.5 131.5,-171.5 250.5,-171.5 250.5,-152.5 131.5,-152.5"/>
<text text-anchor="middle" x="191" y="-159.5" font-family="Helvetica,sans-Serif" font-size="10.00">CancelButtonScheduler</text>
</a>
</g>
<!-- Node1&#45;&gt;Node2 -->
<g id="edge2" class="edge"><title>Node1&#45;&gt;Node2</title>
<path fill="none" stroke="midnightblue" d="M64.6975,-102.055C80.2293,-114.693 103.368,-131.961 126,-143 133.605,-146.709 142.076,-149.848 150.302,-152.44"/>
<polygon fill="midnightblue" stroke="midnightblue" points="66.8312,-99.2771 56.9029,-95.5786 62.3578,-104.661 66.8312,-99.2771"/>
</g>
<!-- Node3 -->
<g id="node5" class="node"><title>Node3</title>
<a xlink:href="class_held_button_scheduler.html" target="_top" xlink:title="HeldButtonScheduler">
<polygon fill="white" stroke="black" points="137,-114.5 137,-133.5 245,-133.5 245,-114.5 137,-114.5"/>
<text text-anchor="middle" x="191" y="-121.5" font-family="Helvetica,sans-Serif" font-size="10.00">HeldButtonScheduler</text>
</a>
</g>
<!-- Node1&#45;&gt;Node3 -->
<g id="edge4" class="edge"><title>Node1&#45;&gt;Node3</title>
<path fill="none" stroke="midnightblue" d="M92.1722,-98.1843C112.164,-103.46 135.219,-109.544 153.924,-114.48"/>
<polygon fill="midnightblue" stroke="midnightblue" points="92.8994,-94.7565 82.3373,-95.589 91.1132,-101.525 92.8994,-94.7565"/>
</g>
<!-- Node4 -->
<g id="node7" class="node"><title>Node4</title>
<a xlink:href="class_pressed_button_scheduler.html" target="_top" xlink:title="PressedButtonScheduler">
<polygon fill="white" stroke="black" points="128.5,-76.5 128.5,-95.5 253.5,-95.5 253.5,-76.5 128.5,-76.5"/>
<text text-anchor="middle" x="191" y="-83.5" font-family="Helvetica,sans-Serif" font-size="10.00">PressedButtonScheduler</text>
</a>
</g>
<!-- Node1&#45;&gt;Node4 -->
<g id="edge6" class="edge"><title>Node1&#45;&gt;Node4</title>
<path fill="none" stroke="midnightblue" d="M99.6015,-86C109.016,-86 118.881,-86 128.49,-86"/>
<polygon fill="midnightblue" stroke="midnightblue" points="99.5956,-82.5001 89.5955,-86 99.5955,-89.5001 99.5956,-82.5001"/>
</g>
<!-- Node5 -->
<g id="node9" class="node"><title>Node5</title>
<a xlink:href="class_released_button_scheduler.html" target="_top" xlink:title="ReleasedButtonScheduler">
<polygon fill="white" stroke="black" points="126.5,-38.5 126.5,-57.5 255.5,-57.5 255.5,-38.5 126.5,-38.5"/>
<text text-anchor="middle" x="191" y="-45.5" font-family="Helvetica,sans-Serif" font-size="10.00">ReleasedButtonScheduler</text>
</a>
</g>
<!-- Node1&#45;&gt;Node5 -->
<g id="edge8" class="edge"><title>Node1&#45;&gt;Node5</title>
<path fill="none" stroke="midnightblue" d="M92.1722,-73.8157C112.164,-68.54 135.219,-62.4562 153.924,-57.5201"/>
<polygon fill="midnightblue" stroke="midnightblue" points="91.1132,-70.4752 82.3373,-76.411 92.8994,-77.2435 91.1132,-70.4752"/>
</g>
<!-- Node6 -->
<g id="node11" class="node"><title>Node6</title>
<a xlink:href="class_toggle_button_scheduler.html" target="_top" xlink:title="ToggleButtonScheduler">
<polygon fill="white" stroke="black" points="132.5,-0.5 132.5,-19.5 249.5,-19.5 249.5,-0.5 132.5,-0.5"/>
<text text-anchor="middle" x="191" y="-7.5" font-family="Helvetica,sans-Serif" font-size="10.00">ToggleButtonScheduler</text>
</a>
</g>
<!-- Node1&#45;&gt;Node6 -->
<g id="edge10" class="edge"><title>Node1&#45;&gt;Node6</title>
<path fill="none" stroke="midnightblue" d="M64.6975,-69.9452C80.2293,-57.3068 103.368,-40.0395 126,-29 133.605,-25.2906 142.076,-22.1518 150.302,-19.5597"/>
<polygon fill="midnightblue" stroke="midnightblue" points="62.3578,-67.3387 56.9029,-76.4214 66.8312,-72.7229 62.3578,-67.3387"/>
</g>
</g>
</svg>
