<?xml version="1.0" encoding="UTF-8" standalone="no"?>
<!DOCTYPE svg PUBLIC "-//W3C//DTD SVG 1.1//EN"
 "http://www.w3.org/Graphics/SVG/1.1/DTD/svg11.dtd">
<!-- Generated by graphviz version 2.28.0 (20110507.0327)
 -->
<!-- Title: Graphical Class Hierarchy Pages: 1 -->
<svg width="354pt" height="208pt"
 viewBox="0.00 0.00 354.00 208.00" xmlns="http://www.w3.org/2000/svg" xmlns:xlink="http://www.w3.org/1999/xlink">
<g id="graph1" class="graph" transform="scale(1 1) rotate(0) translate(4 204)">
<title>Graphical Class Hierarchy</title>
<polygon fill="white" stroke="white" points="-4,5 -4,-204 351,-204 351,5 -4,5"/>
<!-- Node1 -->
<g id="node1" class="node"><title>Node1</title>
<a xlink:href="classtesting_1_1_test_part_result_reporter_interface.html" target="_top" xlink:title="testing::TestPartResultReporter\lInterface">
<polygon fill="white" stroke="black" points="0.5,-76 0.5,-106 153.5,-106 153.5,-76 0.5,-76"/>
<text text-anchor="start" x="8.5" y="-94" font-family="Helvetica,sans-Serif" font-size="10.00">testing::TestPartResultReporter</text>
<text text-anchor="middle" x="77" y="-83" font-family="Helvetica,sans-Serif" font-size="10.00">Interface</text>
</a>
</g>
<!-- Node2 -->
<g id="node3" class="node"><title>Node2</title>
<a xlink:href="classtesting_1_1internal_1_1_default_global_test_part_result_reporter.html" target="_top" xlink:title="testing::internal::\lDefaultGlobalTestPartResult\lReporter">
<polygon fill="white" stroke="black" points="198.5,-158.5 198.5,-199.5 337.5,-199.5 337.5,-158.5 198.5,-158.5"/>
<text text-anchor="start" x="206.5" y="-187.5" font-family="Helvetica,sans-Serif" font-size="10.00">testing::internal::</text>
<text text-anchor="start" x="206.5" y="-176.5" font-family="Helvetica,sans-Serif" font-size="10.00">DefaultGlobalTestPartResult</text>
<text text-anchor="middle" x="268" y="-165.5" font-family="Helvetica,sans-Serif" font-size="10.00">Reporter</text>
</a>
</g>
<!-- Node1&#45;&gt;Node2 -->
<g id="edge2" class="edge"><title>Node1&#45;&gt;Node2</title>
<path fill="none" stroke="midnightblue" d="M114.089,-110.932C135.805,-122.611 164.162,-137.316 190,-149 197.059,-152.192 204.566,-155.372 212.018,-158.404"/>
<polygon fill="midnightblue" stroke="midnightblue" points="115.676,-107.811 105.215,-106.129 112.344,-113.967 115.676,-107.811"/>
</g>
<!-- Node3 -->
<g id="node5" class="node"><title>Node3</title>
<a xlink:href="classtesting_1_1internal_1_1_default_per_thread_test_part_result_reporter.html" target="_top" xlink:title="testing::internal::\lDefaultPerThreadTestPartResult\lReporter">
<polygon fill="white" stroke="black" points="190.5,-98.5 190.5,-139.5 345.5,-139.5 345.5,-98.5 190.5,-98.5"/>
<text text-anchor="start" x="198.5" y="-127.5" font-family="Helvetica,sans-Serif" font-size="10.00">testing::internal::</text>
<text text-anchor="start" x="198.5" y="-116.5" font-family="Helvetica,sans-Serif" font-size="10.00">DefaultPerThreadTestPartResult</text>
<text text-anchor="middle" x="268" y="-105.5" font-family="Helvetica,sans-Serif" font-size="10.00">Reporter</text>
</a>
</g>
<!-- Node1&#45;&gt;Node3 -->
<g id="edge4" class="edge"><title>Node1&#45;&gt;Node3</title>
<path fill="none" stroke="midnightblue" d="M163.546,-103.673C172.488,-104.998 181.538,-106.339 190.372,-107.648"/>
<polygon fill="midnightblue" stroke="midnightblue" points="163.918,-100.19 153.513,-102.187 162.892,-107.115 163.918,-100.19"/>
</g>
<!-- Node4 -->
<g id="node7" class="node"><title>Node4</title>
<a xlink:href="classtesting_1_1internal_1_1_has_new_fatal_failure_helper.html" target="_top" xlink:title="testing::internal::\lHasNewFatalFailureHelper">
<polygon fill="white" stroke="black" points="202.5,-49 202.5,-79 333.5,-79 333.5,-49 202.5,-49"/>
<text text-anchor="start" x="210.5" y="-67" font-family="Helvetica,sans-Serif" font-size="10.00">testing::internal::</text>
<text text-anchor="middle" x="268" y="-56" font-family="Helvetica,sans-Serif" font-size="10.00">HasNewFatalFailureHelper</text>
</a>
</g>
<!-- Node1&#45;&gt;Node4 -->
<g id="edge6" class="edge"><title>Node1&#45;&gt;Node4</title>
<path fill="none" stroke="midnightblue" d="M163.428,-78.7959C176.476,-76.932 189.757,-75.0347 202.263,-73.2481"/>
<polygon fill="midnightblue" stroke="midnightblue" points="162.917,-75.3334 153.513,-80.2125 163.907,-82.263 162.917,-75.3334"/>
</g>
<!-- Node5 -->
<g id="node9" class="node"><title>Node5</title>
<a xlink:href="classtesting_1_1_scoped_fake_test_part_result_reporter.html" target="_top" xlink:title="testing::ScopedFakeTestPart\lResultReporter">
<polygon fill="white" stroke="black" points="196.5,-0 196.5,-30 339.5,-30 339.5,-0 196.5,-0"/>
<text text-anchor="start" x="204.5" y="-18" font-family="Helvetica,sans-Serif" font-size="10.00">testing::ScopedFakeTestPart</text>
<text text-anchor="middle" x="268" y="-7" font-family="Helvetica,sans-Serif" font-size="10.00">ResultReporter</text>
</a>
</g>
<!-- Node1&#45;&gt;Node5 -->
<g id="edge8" class="edge"><title>Node1&#45;&gt;Node5</title>
<path fill="none" stroke="midnightblue" d="M117.536,-71.6708C138.769,-61.6287 165.54,-49.5046 190,-40 198.908,-36.5384 208.517,-33.1518 217.826,-30.0447"/>
<polygon fill="midnightblue" stroke="midnightblue" points="116.021,-68.5157 108.499,-75.9769 119.032,-74.835 116.021,-68.5157"/>
</g>
</g>
</svg>
