<?xml version="1.0" encoding="UTF-8" standalone="no"?>
<!DOCTYPE svg PUBLIC "-//W3C//DTD SVG 1.1//EN"
 "http://www.w3.org/Graphics/SVG/1.1/DTD/svg11.dtd">
<!-- Generated by graphviz version 2.28.0 (20110507.0327)
 -->
<!-- Title: ShapeReport_struct Pages: 1 -->
<svg width="167pt" height="96pt"
 viewBox="0.00 0.00 167.00 96.00" xmlns="http://www.w3.org/2000/svg" xmlns:xlink="http://www.w3.org/1999/xlink">
<g id="graph1" class="graph" transform="scale(1 1) rotate(0) translate(4 92)">
<title>ShapeReport_struct</title>
<polygon fill="white" stroke="white" points="-4,5 -4,-92 164,-92 164,5 -4,5"/>
<!-- Node1 -->
<g id="node1" class="node"><title>Node1</title>
<polygon fill="#bfbfbf" stroke="black" points="25.5,-0.5 25.5,-19.5 128.5,-19.5 128.5,-0.5 25.5,-0.5"/>
<text text-anchor="middle" x="77" y="-7.5" font-family="Helvetica,sans-Serif" font-size="10.00">ShapeReport_struct</text>
</g>
<!-- Node2 -->
<g id="node2" class="node"><title>Node2</title>
<a xlink:href="struct_point__struct.html" target="_top" xlink:title="Point_struct">
<polygon fill="white" stroke="black" points="-0.5,-68.5 -0.5,-87.5 68.5,-87.5 68.5,-68.5 -0.5,-68.5"/>
<text text-anchor="middle" x="34" y="-75.5" font-family="Helvetica,sans-Serif" font-size="10.00">Point_struct</text>
</a>
</g>
<!-- Node2&#45;&gt;Node1 -->
<g id="edge2" class="edge"><title>Node2&#45;&gt;Node1</title>
<path fill="none" stroke="#9a32cd" stroke-dasharray="5,2" d="M45.1163,-59.9377C53.4725,-47.112 64.5827,-30.0591 71.2399,-19.8411"/>
<polygon fill="#9a32cd" stroke="#9a32cd" points="42.1478,-58.0824 39.6215,-68.3717 48.0129,-61.9036 42.1478,-58.0824"/>
<text text-anchor="middle" x="78" y="-41.5" font-family="Helvetica,sans-Serif" font-size="10.00"> centroid</text>
</g>
<!-- Node3 -->
<g id="node4" class="node"><title>Node3</title>
<a xlink:href="struct_rect__struct.html" target="_top" xlink:title="Rect_struct">
<polygon fill="white" stroke="black" points="86.5,-68.5 86.5,-87.5 153.5,-87.5 153.5,-68.5 86.5,-68.5"/>
<text text-anchor="middle" x="120" y="-75.5" font-family="Helvetica,sans-Serif" font-size="10.00">Rect_struct</text>
</a>
</g>
<!-- Node3&#45;&gt;Node1 -->
<g id="edge4" class="edge"><title>Node3&#45;&gt;Node1</title>
<path fill="none" stroke="#9a32cd" stroke-dasharray="5,2" d="M110.768,-59.3561C107.021,-52.5487 102.515,-44.7826 98,-38 93.7879,-31.6726 88.5379,-24.9226 84.3409,-19.7544"/>
<polygon fill="#9a32cd" stroke="#9a32cd" points="107.817,-61.2593 115.628,-68.4175 113.986,-57.9507 107.817,-61.2593"/>
<text text-anchor="middle" x="132" y="-41.5" font-family="Helvetica,sans-Serif" font-size="10.00"> coordinates</text>
</g>
</g>
</svg>
