<?xml version="1.0" encoding="UTF-8" standalone="no"?>
<!DOCTYPE svg PUBLIC "-//W3C//DTD SVG 1.1//EN"
 "http://www.w3.org/Graphics/SVG/1.1/DTD/svg11.dtd">
<!-- Generated by graphviz version 2.28.0 (20110507.0327)
 -->
<!-- Title: EdgeLocationReport_struct Pages: 1 -->
<svg width="112pt" height="108pt"
 viewBox="0.00 0.00 112.00 108.00" xmlns="http://www.w3.org/2000/svg" xmlns:xlink="http://www.w3.org/1999/xlink">
<g id="graph1" class="graph" transform="scale(1 1) rotate(0) translate(4 104)">
<title>EdgeLocationReport_struct</title>
<polygon fill="white" stroke="white" points="-4,5 -4,-104 109,-104 109,5 -4,5"/>
<!-- Node1 -->
<g id="node1" class="node"><title>Node1</title>
<polygon fill="#bfbfbf" stroke="black" points="0,-1 0,-31 104,-31 104,-1 0,-1"/>
<text text-anchor="start" x="8" y="-19" font-family="Helvetica,sans-Serif" font-size="10.00">EdgeLocationReport</text>
<text text-anchor="middle" x="52" y="-8" font-family="Helvetica,sans-Serif" font-size="10.00">_struct</text>
</g>
<!-- Node2 -->
<g id="node2" class="node"><title>Node2</title>
<a xlink:href="struct_point_float__struct.html" target="_top" xlink:title="PointFloat_struct">
<polygon fill="white" stroke="black" points="6.5,-80.5 6.5,-99.5 97.5,-99.5 97.5,-80.5 6.5,-80.5"/>
<text text-anchor="middle" x="52" y="-87.5" font-family="Helvetica,sans-Serif" font-size="10.00">PointFloat_struct</text>
</a>
</g>
<!-- Node2&#45;&gt;Node1 -->
<g id="edge2" class="edge"><title>Node2&#45;&gt;Node1</title>
<path fill="none" stroke="#9a32cd" stroke-dasharray="5,2" d="M52,-70.0846C52,-57.9148 52,-42.3538 52,-31.2316"/>
<polygon fill="#9a32cd" stroke="#9a32cd" points="48.5001,-70.4579 52,-80.4579 55.5001,-70.4579 48.5001,-70.4579"/>
<text text-anchor="middle" x="67" y="-53.5" font-family="Helvetica,sans-Serif" font-size="10.00"> edges</text>
</g>
</g>
</svg>
