<?xml version="1.0" encoding="UTF-8" standalone="no"?>
<!DOCTYPE svg PUBLIC "-//W3C//DTD SVG 1.1//EN"
 "http://www.w3.org/Graphics/SVG/1.1/DTD/svg11.dtd">
<!-- Generated by graphviz version 2.28.0 (20110507.0327)
 -->
<!-- Title: ClampOverlaySettings_struct Pages: 1 -->
<svg width="158pt" height="140pt"
 viewBox="0.00 0.00 158.00 140.00" xmlns="http://www.w3.org/2000/svg" xmlns:xlink="http://www.w3.org/1999/xlink">
<g id="graph1" class="graph" transform="scale(1 1) rotate(0) translate(4 136)">
<title>ClampOverlaySettings_struct</title>
<polygon fill="white" stroke="white" points="-4,5 -4,-136 155,-136 155,5 -4,5"/>
<!-- Node1 -->
<g id="node1" class="node"><title>Node1</title>
<polygon fill="#bfbfbf" stroke="black" points="-0.5,-1 -0.5,-31 112.5,-31 112.5,-1 -0.5,-1"/>
<text text-anchor="start" x="7.5" y="-19" font-family="Helvetica,sans-Serif" font-size="10.00">ClampOverlaySettings</text>
<text text-anchor="middle" x="56" y="-8" font-family="Helvetica,sans-Serif" font-size="10.00">_struct</text>
</g>
<!-- Node2 -->
<g id="node2" class="node"><title>Node2</title>
<a xlink:href="struct_r_g_b_value__struct.html" target="_top" xlink:title="RGBValue_struct">
<polygon fill="white" stroke="black" points="10,-112.5 10,-131.5 102,-131.5 102,-112.5 10,-112.5"/>
<text text-anchor="middle" x="56" y="-119.5" font-family="Helvetica,sans-Serif" font-size="10.00">RGBValue_struct</text>
</a>
</g>
<!-- Node2&#45;&gt;Node1 -->
<g id="edge2" class="edge"><title>Node2&#45;&gt;Node1</title>
<path fill="none" stroke="#9a32cd" stroke-dasharray="5,2" d="M56,-102.268C56,-81.8397 56,-49.6031 56,-31.1748"/>
<polygon fill="#9a32cd" stroke="#9a32cd" points="52.5001,-102.489 56,-112.489 59.5001,-102.489 52.5001,-102.489"/>
<text text-anchor="middle" x="103" y="-86" font-family="Helvetica,sans-Serif" font-size="10.00"> clampLocationsColor</text>
<text text-anchor="middle" x="103" y="-75" font-family="Helvetica,sans-Serif" font-size="10.00">curvesColor</text>
<text text-anchor="middle" x="103" y="-64" font-family="Helvetica,sans-Serif" font-size="10.00">searchAreaColor</text>
<text text-anchor="middle" x="103" y="-53" font-family="Helvetica,sans-Serif" font-size="10.00">resultColor</text>
</g>
</g>
</svg>
