<?xml version="1.0" encoding="UTF-8" standalone="no"?>
<!DOCTYPE svg PUBLIC "-//W3C//DTD SVG 1.1//EN"
 "http://www.w3.org/Graphics/SVG/1.1/DTD/svg11.dtd">
<!-- Generated by graphviz version 2.28.0 (20110507.0327)
 -->
<!-- Title: CurvatureAnalysisReport_struct Pages: 1 -->
<svg width="130pt" height="176pt"
 viewBox="0.00 0.00 130.00 176.00" xmlns="http://www.w3.org/2000/svg" xmlns:xlink="http://www.w3.org/1999/xlink">
<g id="graph1" class="graph" transform="scale(1 1) rotate(0) translate(4 172)">
<title>CurvatureAnalysisReport_struct</title>
<polygon fill="white" stroke="white" points="-4,5 -4,-172 127,-172 127,5 -4,5"/>
<!-- Node1 -->
<g id="node1" class="node"><title>Node1</title>
<polygon fill="#bfbfbf" stroke="black" points="-0.5,-1 -0.5,-31 122.5,-31 122.5,-1 -0.5,-1"/>
<text text-anchor="start" x="7.5" y="-19" font-family="Helvetica,sans-Serif" font-size="10.00">CurvatureAnalysisReport</text>
<text text-anchor="middle" x="61" y="-8" font-family="Helvetica,sans-Serif" font-size="10.00">_struct</text>
</g>
<!-- Node2 -->
<g id="node2" class="node"><title>Node2</title>
<a xlink:href="struct_classified_curve__struct.html" target="_top" xlink:title="ClassifiedCurve_struct">
<polygon fill="white" stroke="black" points="4.5,-80.5 4.5,-99.5 117.5,-99.5 117.5,-80.5 4.5,-80.5"/>
<text text-anchor="middle" x="61" y="-87.5" font-family="Helvetica,sans-Serif" font-size="10.00">ClassifiedCurve_struct</text>
</a>
</g>
<!-- Node2&#45;&gt;Node1 -->
<g id="edge2" class="edge"><title>Node2&#45;&gt;Node1</title>
<path fill="none" stroke="#9a32cd" stroke-dasharray="5,2" d="M61,-70.0846C61,-57.9148 61,-42.3538 61,-31.2316"/>
<polygon fill="#9a32cd" stroke="#9a32cd" points="57.5001,-70.4579 61,-80.4579 64.5001,-70.4579 57.5001,-70.4579"/>
<text text-anchor="middle" x="76.5" y="-53.5" font-family="Helvetica,sans-Serif" font-size="10.00"> curves</text>
</g>
<!-- Node3 -->
<g id="node4" class="node"><title>Node3</title>
<a xlink:href="struct_point_double__struct.html" target="_top" xlink:title="PointDouble_struct">
<polygon fill="white" stroke="black" points="11.5,-148.5 11.5,-167.5 110.5,-167.5 110.5,-148.5 11.5,-148.5"/>
<text text-anchor="middle" x="61" y="-155.5" font-family="Helvetica,sans-Serif" font-size="10.00">PointDouble_struct</text>
</a>
</g>
<!-- Node3&#45;&gt;Node2 -->
<g id="edge4" class="edge"><title>Node3&#45;&gt;Node2</title>
<path fill="none" stroke="#9a32cd" stroke-dasharray="5,2" d="M61,-138.041C61,-125.472 61,-109.563 61,-99.8411"/>
<polygon fill="#9a32cd" stroke="#9a32cd" points="57.5001,-138.372 61,-148.372 64.5001,-138.372 57.5001,-138.372"/>
<text text-anchor="middle" x="88" y="-121.5" font-family="Helvetica,sans-Serif" font-size="10.00"> curvePoints</text>
</g>
</g>
</svg>
