<?xml version="1.0" encoding="UTF-8" standalone="no"?>
<!DOCTYPE svg PUBLIC "-//W3C//DTD SVG 1.1//EN"
 "http://www.w3.org/Graphics/SVG/1.1/DTD/svg11.dtd">
<!-- Generated by graphviz version 2.28.0 (20110507.0327)
 -->
<!-- Title: ClassifyDistancesReport_struct Pages: 1 -->
<svg width="159pt" height="198pt"
 viewBox="0.00 0.00 159.00 198.00" xmlns="http://www.w3.org/2000/svg" xmlns:xlink="http://www.w3.org/1999/xlink">
<g id="graph1" class="graph" transform="scale(1 1) rotate(0) translate(4 194)">
<title>ClassifyDistancesReport_struct</title>
<polygon fill="white" stroke="white" points="-4,5 -4,-194 156,-194 156,5 -4,5"/>
<!-- Node1 -->
<g id="node1" class="node"><title>Node1</title>
<polygon fill="#bfbfbf" stroke="black" points="-0.5,-1 -0.5,-31 122.5,-31 122.5,-1 -0.5,-1"/>
<text text-anchor="start" x="7.5" y="-19" font-family="Helvetica,sans-Serif" font-size="10.00">ClassifyDistancesReport</text>
<text text-anchor="middle" x="61" y="-8" font-family="Helvetica,sans-Serif" font-size="10.00">_struct</text>
</g>
<!-- Node2 -->
<g id="node2" class="node"><title>Node2</title>
<a xlink:href="struct_classified_disparity__struct.html" target="_top" xlink:title="ClassifiedDisparity\l_struct">
<polygon fill="white" stroke="black" points="12.5,-81 12.5,-111 109.5,-111 109.5,-81 12.5,-81"/>
<text text-anchor="start" x="20.5" y="-99" font-family="Helvetica,sans-Serif" font-size="10.00">ClassifiedDisparity</text>
<text text-anchor="middle" x="61" y="-88" font-family="Helvetica,sans-Serif" font-size="10.00">_struct</text>
</a>
</g>
<!-- Node2&#45;&gt;Node1 -->
<g id="edge2" class="edge"><title>Node2&#45;&gt;Node1</title>
<path fill="none" stroke="#9a32cd" stroke-dasharray="5,2" d="M61,-70.5644C61,-57.6243 61,-42.1862 61,-31.2157"/>
<polygon fill="#9a32cd" stroke="#9a32cd" points="57.5001,-70.6936 61,-80.6936 64.5001,-70.6936 57.5001,-70.6936"/>
<text text-anchor="middle" x="105" y="-53.5" font-family="Helvetica,sans-Serif" font-size="10.00"> classifiedDistances</text>
</g>
<!-- Node3 -->
<g id="node4" class="node"><title>Node3</title>
<a xlink:href="struct_point_double__struct.html" target="_top" xlink:title="PointDouble_struct">
<polygon fill="white" stroke="black" points="11.5,-170.5 11.5,-189.5 110.5,-189.5 110.5,-170.5 11.5,-170.5"/>
<text text-anchor="middle" x="61" y="-177.5" font-family="Helvetica,sans-Serif" font-size="10.00">PointDouble_struct</text>
</a>
</g>
<!-- Node3&#45;&gt;Node2 -->
<g id="edge4" class="edge"><title>Node3&#45;&gt;Node2</title>
<path fill="none" stroke="#9a32cd" stroke-dasharray="5,2" d="M61,-160.114C61,-145.201 61,-124.72 61,-111.184"/>
<polygon fill="#9a32cd" stroke="#9a32cd" points="57.5001,-160.225 61,-170.225 64.5001,-160.225 57.5001,-160.225"/>
<text text-anchor="middle" x="106" y="-144" font-family="Helvetica,sans-Serif" font-size="10.00"> templateSubsection</text>
<text text-anchor="middle" x="106" y="-133" font-family="Helvetica,sans-Serif" font-size="10.00">targetSubsection</text>
</g>
</g>
</svg>
