<?xml version="1.0" encoding="UTF-8" standalone="no"?>
<!DOCTYPE svg PUBLIC "-//W3C//DTD SVG 1.1//EN"
 "http://www.w3.org/Graphics/SVG/1.1/DTD/svg11.dtd">
<!-- Generated by graphviz version 2.28.0 (20110507.0327)
 -->
<!-- Title: ClampPoints_struct Pages: 1 -->
<svg width="124pt" height="184pt"
 viewBox="0.00 0.00 124.00 184.00" xmlns="http://www.w3.org/2000/svg" xmlns:xlink="http://www.w3.org/1999/xlink">
<g id="graph1" class="graph" transform="scale(1 1) rotate(0) translate(4 180)">
<title>ClampPoints_struct</title>
<polygon fill="white" stroke="white" points="-4,5 -4,-180 121,-180 121,5 -4,5"/>
<!-- Node1 -->
<g id="node1" class="node"><title>Node1</title>
<polygon fill="#bfbfbf" stroke="black" points="7,-0.5 7,-19.5 109,-19.5 109,-0.5 7,-0.5"/>
<text text-anchor="middle" x="58" y="-7.5" font-family="Helvetica,sans-Serif" font-size="10.00">ClampPoints_struct</text>
</g>
<!-- Node2 -->
<g id="node2" class="node"><title>Node2</title>
<a xlink:href="struct_point_double_pair__struct.html" target="_top" xlink:title="PointDoublePair_struct">
<polygon fill="white" stroke="black" points="0,-78.5 0,-97.5 116,-97.5 116,-78.5 0,-78.5"/>
<text text-anchor="middle" x="58" y="-85.5" font-family="Helvetica,sans-Serif" font-size="10.00">PointDoublePair_struct</text>
</a>
</g>
<!-- Node2&#45;&gt;Node1 -->
<g id="edge2" class="edge"><title>Node2&#45;&gt;Node1</title>
<path fill="none" stroke="#9a32cd" stroke-dasharray="5,2" d="M58,-68.2239C58,-52.6974 58,-31.3582 58,-19.6165"/>
<polygon fill="#9a32cd" stroke="#9a32cd" points="54.5001,-68.2818 58,-78.2818 61.5001,-68.2819 54.5001,-68.2818"/>
<text text-anchor="middle" x="79" y="-52" font-family="Helvetica,sans-Serif" font-size="10.00"> pixel</text>
<text text-anchor="middle" x="79" y="-41" font-family="Helvetica,sans-Serif" font-size="10.00">realWorld</text>
</g>
<!-- Node3 -->
<g id="node4" class="node"><title>Node3</title>
<a xlink:href="struct_point_double__struct.html" target="_top" xlink:title="PointDouble_struct">
<polygon fill="white" stroke="black" points="8.5,-156.5 8.5,-175.5 107.5,-175.5 107.5,-156.5 8.5,-156.5"/>
<text text-anchor="middle" x="58" y="-163.5" font-family="Helvetica,sans-Serif" font-size="10.00">PointDouble_struct</text>
</a>
</g>
<!-- Node3&#45;&gt;Node2 -->
<g id="edge4" class="edge"><title>Node3&#45;&gt;Node2</title>
<path fill="none" stroke="#9a32cd" stroke-dasharray="5,2" d="M58,-146.224C58,-130.697 58,-109.358 58,-97.6165"/>
<polygon fill="#9a32cd" stroke="#9a32cd" points="54.5001,-146.282 58,-156.282 61.5001,-146.282 54.5001,-146.282"/>
<text text-anchor="middle" x="68" y="-130" font-family="Helvetica,sans-Serif" font-size="10.00"> end</text>
<text text-anchor="middle" x="68" y="-119" font-family="Helvetica,sans-Serif" font-size="10.00">start</text>
</g>
</g>
</svg>
