<?xml version="1.0" encoding="UTF-8" standalone="no"?>
<!DOCTYPE svg PUBLIC "-//W3C//DTD SVG 1.1//EN"
 "http://www.w3.org/Graphics/SVG/1.1/DTD/svg11.dtd">
<!-- Generated by graphviz version 2.28.0 (20110507.0327)
 -->
<!-- Title: BestLine_struct Pages: 1 -->
<svg width="219pt" height="106pt"
 viewBox="0.00 0.00 219.00 106.00" xmlns="http://www.w3.org/2000/svg" xmlns:xlink="http://www.w3.org/1999/xlink">
<g id="graph1" class="graph" transform="scale(1 1) rotate(0) translate(4 102)">
<title>BestLine_struct</title>
<polygon fill="white" stroke="white" points="-4,5 -4,-102 216,-102 216,5 -4,5"/>
<!-- Node1 -->
<g id="node1" class="node"><title>Node1</title>
<polygon fill="#bfbfbf" stroke="black" points="59.5,-0.5 59.5,-19.5 144.5,-19.5 144.5,-0.5 59.5,-0.5"/>
<text text-anchor="middle" x="102" y="-7.5" font-family="Helvetica,sans-Serif" font-size="10.00">BestLine_struct</text>
</g>
<!-- Node2 -->
<g id="node2" class="node"><title>Node2</title>
<a xlink:href="struct_point_float__struct.html" target="_top" xlink:title="PointFloat_struct">
<polygon fill="white" stroke="black" points="-0.5,-78.5 -0.5,-97.5 90.5,-97.5 90.5,-78.5 -0.5,-78.5"/>
<text text-anchor="middle" x="45" y="-85.5" font-family="Helvetica,sans-Serif" font-size="10.00">PointFloat_struct</text>
</a>
</g>
<!-- Node2&#45;&gt;Node1 -->
<g id="edge2" class="edge"><title>Node2&#45;&gt;Node1</title>
<path fill="none" stroke="#9a32cd" stroke-dasharray="5,2" d="M57.7458,-70.0056C69.473,-54.3693 86.3894,-31.8142 95.5376,-19.6165"/>
<polygon fill="#9a32cd" stroke="#9a32cd" points="54.7387,-68.1818 51.5386,-78.2818 60.3387,-72.3818 54.7387,-68.1818"/>
<text text-anchor="middle" x="91" y="-52" font-family="Helvetica,sans-Serif" font-size="10.00"> end</text>
<text text-anchor="middle" x="91" y="-41" font-family="Helvetica,sans-Serif" font-size="10.00">start</text>
</g>
<!-- Node3 -->
<g id="node4" class="node"><title>Node3</title>
<a xlink:href="struct_line_equation__struct.html" target="_top" xlink:title="LineEquation_struct">
<polygon fill="white" stroke="black" points="108.5,-78.5 108.5,-97.5 211.5,-97.5 211.5,-78.5 108.5,-78.5"/>
<text text-anchor="middle" x="160" y="-85.5" font-family="Helvetica,sans-Serif" font-size="10.00">LineEquation_struct</text>
</a>
</g>
<!-- Node3&#45;&gt;Node1 -->
<g id="edge4" class="edge"><title>Node3&#45;&gt;Node1</title>
<path fill="none" stroke="#9a32cd" stroke-dasharray="5,2" d="M147.031,-70.0056C135.098,-54.3693 117.884,-31.8142 108.576,-19.6165"/>
<polygon fill="#9a32cd" stroke="#9a32cd" points="144.498,-72.4557 153.347,-78.2818 150.062,-68.2089 144.498,-72.4557"/>
<text text-anchor="middle" x="157" y="-46.5" font-family="Helvetica,sans-Serif" font-size="10.00"> equation</text>
</g>
</g>
</svg>
