<?xml version="1.0" encoding="UTF-8" standalone="no"?>
<!DOCTYPE svg PUBLIC "-//W3C//DTD SVG 1.1//EN"
 "http://www.w3.org/Graphics/SVG/1.1/DTD/svg11.dtd">
<!-- Generated by graphviz version 2.28.0 (20110507.0327)
 -->
<!-- Title: MatchGeometricPatternOptions_struct Pages: 1 -->
<svg width="162pt" height="130pt"
 viewBox="0.00 0.00 162.00 130.00" xmlns="http://www.w3.org/2000/svg" xmlns:xlink="http://www.w3.org/1999/xlink">
<g id="graph1" class="graph" transform="scale(1 1) rotate(0) translate(4 126)">
<title>MatchGeometricPatternOptions_struct</title>
<polygon fill="white" stroke="white" points="-4,5 -4,-126 159,-126 159,5 -4,5"/>
<!-- Node1 -->
<g id="node1" class="node"><title>Node1</title>
<polygon fill="#bfbfbf" stroke="black" points="0,-1 0,-31 154,-31 154,-1 0,-1"/>
<text text-anchor="start" x="8" y="-19" font-family="Helvetica,sans-Serif" font-size="10.00">MatchGeometricPatternOptions</text>
<text text-anchor="middle" x="77" y="-8" font-family="Helvetica,sans-Serif" font-size="10.00">_struct</text>
</g>
<!-- Node2 -->
<g id="node2" class="node"><title>Node2</title>
<a xlink:href="struct_range_float__struct.html" target="_top" xlink:title="RangeFloat_struct">
<polygon fill="white" stroke="black" points="29,-102.5 29,-121.5 125,-121.5 125,-102.5 29,-102.5"/>
<text text-anchor="middle" x="77" y="-109.5" font-family="Helvetica,sans-Serif" font-size="10.00">RangeFloat_struct</text>
</a>
</g>
<!-- Node2&#45;&gt;Node1 -->
<g id="edge2" class="edge"><title>Node2&#45;&gt;Node1</title>
<path fill="none" stroke="#9a32cd" stroke-dasharray="5,2" d="M77,-92.1742C77,-74.1467 77,-47.3541 77,-31.0982"/>
<polygon fill="#9a32cd" stroke="#9a32cd" points="73.5001,-92.3252 77,-102.325 80.5001,-92.3252 73.5001,-92.3252"/>
<text text-anchor="middle" x="112" y="-75.5" font-family="Helvetica,sans-Serif" font-size="10.00"> angleRanges</text>
<text text-anchor="middle" x="112" y="-64.5" font-family="Helvetica,sans-Serif" font-size="10.00">scaleRange</text>
<text text-anchor="middle" x="112" y="-53.5" font-family="Helvetica,sans-Serif" font-size="10.00">occlusionRange</text>
</g>
</g>
</svg>
