<?xml version="1.0" encoding="UTF-8" standalone="no"?>
<!DOCTYPE svg PUBLIC "-//W3C//DTD SVG 1.1//EN"
 "http://www.w3.org/Graphics/SVG/1.1/DTD/svg11.dtd">
<!-- Generated by graphviz version 2.28.0 (20110507.0327)
 -->
<!-- Title: CharReport3_struct Pages: 1 -->
<svg width="125pt" height="108pt"
 viewBox="0.00 0.00 125.00 108.00" xmlns="http://www.w3.org/2000/svg" xmlns:xlink="http://www.w3.org/1999/xlink">
<g id="graph1" class="graph" transform="scale(1 1) rotate(0) translate(4 104)">
<title>CharReport3_struct</title>
<polygon fill="white" stroke="white" points="-4,5 -4,-104 122,-104 122,5 -4,5"/>
<!-- Node1 -->
<g id="node1" class="node"><title>Node1</title>
<polygon fill="#bfbfbf" stroke="black" points="-0.5,-0.5 -0.5,-19.5 100.5,-19.5 100.5,-0.5 -0.5,-0.5"/>
<text text-anchor="middle" x="50" y="-7.5" font-family="Helvetica,sans-Serif" font-size="10.00">CharReport3_struct</text>
</g>
<!-- Node2 -->
<g id="node2" class="node"><title>Node2</title>
<a xlink:href="struct_character_statistics__struct.html" target="_top" xlink:title="CharacterStatistics\l_struct">
<polygon fill="white" stroke="black" points="0,-69 0,-99 100,-99 100,-69 0,-69"/>
<text text-anchor="start" x="8" y="-87" font-family="Helvetica,sans-Serif" font-size="10.00">CharacterStatistics</text>
<text text-anchor="middle" x="50" y="-76" font-family="Helvetica,sans-Serif" font-size="10.00">_struct</text>
</a>
</g>
<!-- Node2&#45;&gt;Node1 -->
<g id="edge2" class="edge"><title>Node2&#45;&gt;Node1</title>
<path fill="none" stroke="#9a32cd" stroke-dasharray="5,2" d="M50,-58.6883C50,-45.2526 50,-29.3805 50,-19.7589"/>
<polygon fill="#9a32cd" stroke="#9a32cd" points="46.5001,-58.7751 50,-68.7751 53.5001,-58.7752 46.5001,-58.7751"/>
<text text-anchor="middle" x="83.5" y="-41.5" font-family="Helvetica,sans-Serif" font-size="10.00"> characterStats</text>
</g>
</g>
</svg>
