<?xml version="1.0" encoding="UTF-8" standalone="no"?>
<!DOCTYPE svg PUBLIC "-//W3C//DTD SVG 1.1//EN"
 "http://www.w3.org/Graphics/SVG/1.1/DTD/svg11.dtd">
<!-- Generated by graphviz version 2.28.0 (20110507.0327)
 -->
<!-- Title: FindConcentricEdgeReport_struct Pages: 1 -->
<svg width="147pt" height="140pt"
 viewBox="0.00 0.00 147.00 140.00" xmlns="http://www.w3.org/2000/svg" xmlns:xlink="http://www.w3.org/1999/xlink">
<g id="graph1" class="graph" transform="scale(1 1) rotate(0) translate(4 136)">
<title>FindConcentricEdgeReport_struct</title>
<polygon fill="white" stroke="white" points="-4,5 -4,-136 144,-136 144,5 -4,5"/>
<!-- Node1 -->
<g id="node1" class="node"><title>Node1</title>
<polygon fill="#bfbfbf" stroke="black" points="-0.5,-1 -0.5,-31 132.5,-31 132.5,-1 -0.5,-1"/>
<text text-anchor="start" x="7.5" y="-19" font-family="Helvetica,sans-Serif" font-size="10.00">FindConcentricEdgeReport</text>
<text text-anchor="middle" x="66" y="-8" font-family="Helvetica,sans-Serif" font-size="10.00">_struct</text>
</g>
<!-- Node2 -->
<g id="node2" class="node"><title>Node2</title>
<a xlink:href="struct_point_float__struct.html" target="_top" xlink:title="PointFloat_struct">
<polygon fill="white" stroke="black" points="20.5,-112.5 20.5,-131.5 111.5,-131.5 111.5,-112.5 20.5,-112.5"/>
<text text-anchor="middle" x="66" y="-119.5" font-family="Helvetica,sans-Serif" font-size="10.00">PointFloat_struct</text>
</a>
</g>
<!-- Node2&#45;&gt;Node1 -->
<g id="edge2" class="edge"><title>Node2&#45;&gt;Node1</title>
<path fill="none" stroke="#9a32cd" stroke-dasharray="5,2" d="M66,-102.268C66,-81.8397 66,-49.6031 66,-31.1748"/>
<polygon fill="#9a32cd" stroke="#9a32cd" points="62.5001,-102.489 66,-112.489 69.5001,-102.489 62.5001,-102.489"/>
<text text-anchor="middle" x="102.5" y="-86" font-family="Helvetica,sans-Serif" font-size="10.00"> endPt</text>
<text text-anchor="middle" x="102.5" y="-75" font-family="Helvetica,sans-Serif" font-size="10.00">startPtCalibrated</text>
<text text-anchor="middle" x="102.5" y="-64" font-family="Helvetica,sans-Serif" font-size="10.00">startPt</text>
<text text-anchor="middle" x="102.5" y="-53" font-family="Helvetica,sans-Serif" font-size="10.00">endPtCalibrated</text>
</g>
</g>
</svg>
