<?xml version="1.0" encoding="UTF-8" standalone="no"?>
<!DOCTYPE svg PUBLIC "-//W3C//DTD SVG 1.1//EN"
 "http://www.w3.org/Graphics/SVG/1.1/DTD/svg11.dtd">
<!-- Generated by graphviz version 2.28.0 (20110507.0327)
 -->
<!-- Title: Line_struct Pages: 1 -->
<svg width="76pt" height="106pt"
 viewBox="0.00 0.00 76.00 106.00" xmlns="http://www.w3.org/2000/svg" xmlns:xlink="http://www.w3.org/1999/xlink">
<g id="graph1" class="graph" transform="scale(1 1) rotate(0) translate(4 102)">
<title>Line_struct</title>
<polygon fill="white" stroke="white" points="-4,5 -4,-102 73,-102 73,5 -4,5"/>
<!-- Node1 -->
<g id="node1" class="node"><title>Node1</title>
<polygon fill="#bfbfbf" stroke="black" points="1.5,-0.5 1.5,-19.5 66.5,-19.5 66.5,-0.5 1.5,-0.5"/>
<text text-anchor="middle" x="34" y="-7.5" font-family="Helvetica,sans-Serif" font-size="10.00">Line_struct</text>
</g>
<!-- Node2 -->
<g id="node2" class="node"><title>Node2</title>
<a xlink:href="struct_point__struct.html" target="_top" xlink:title="Point_struct">
<polygon fill="white" stroke="black" points="-0.5,-78.5 -0.5,-97.5 68.5,-97.5 68.5,-78.5 -0.5,-78.5"/>
<text text-anchor="middle" x="34" y="-85.5" font-family="Helvetica,sans-Serif" font-size="10.00">Point_struct</text>
</a>
</g>
<!-- Node2&#45;&gt;Node1 -->
<g id="edge2" class="edge"><title>Node2&#45;&gt;Node1</title>
<path fill="none" stroke="#9a32cd" stroke-dasharray="5,2" d="M34,-68.2239C34,-52.6974 34,-31.3582 34,-19.6165"/>
<polygon fill="#9a32cd" stroke="#9a32cd" points="30.5001,-68.2818 34,-78.2818 37.5001,-68.2819 30.5001,-68.2818"/>
<text text-anchor="middle" x="44" y="-52" font-family="Helvetica,sans-Serif" font-size="10.00"> end</text>
<text text-anchor="middle" x="44" y="-41" font-family="Helvetica,sans-Serif" font-size="10.00">start</text>
</g>
</g>
</svg>
