<?xml version="1.0" encoding="UTF-8" standalone="no"?>
<!DOCTYPE svg PUBLIC "-//W3C//DTD SVG 1.1//EN"
 "http://www.w3.org/Graphics/SVG/1.1/DTD/svg11.dtd">
<!-- Generated by graphviz version 2.28.0 (20110507.0327)
 -->
<!-- Title: ClassifierReportAdvanced_struct Pages: 1 -->
<svg width="227pt" height="108pt"
 viewBox="0.00 0.00 227.00 108.00" xmlns="http://www.w3.org/2000/svg" xmlns:xlink="http://www.w3.org/1999/xlink">
<g id="graph1" class="graph" transform="scale(1 1) rotate(0) translate(4 104)">
<title>ClassifierReportAdvanced_struct</title>
<polygon fill="white" stroke="white" points="-4,5 -4,-104 224,-104 224,5 -4,5"/>
<!-- Node1 -->
<g id="node1" class="node"><title>Node1</title>
<polygon fill="#bfbfbf" stroke="black" points="47.5,-1 47.5,-31 174.5,-31 174.5,-1 47.5,-1"/>
<text text-anchor="start" x="55.5" y="-19" font-family="Helvetica,sans-Serif" font-size="10.00">ClassifierReportAdvanced</text>
<text text-anchor="middle" x="111" y="-8" font-family="Helvetica,sans-Serif" font-size="10.00">_struct</text>
</g>
<!-- Node2 -->
<g id="node2" class="node"><title>Node2</title>
<a xlink:href="struct_sample_score__struct.html" target="_top" xlink:title="SampleScore_struct">
<polygon fill="white" stroke="black" points="-0.5,-80.5 -0.5,-99.5 104.5,-99.5 104.5,-80.5 -0.5,-80.5"/>
<text text-anchor="middle" x="52" y="-87.5" font-family="Helvetica,sans-Serif" font-size="10.00">SampleScore_struct</text>
</a>
</g>
<!-- Node2&#45;&gt;Node1 -->
<g id="edge2" class="edge"><title>Node2&#45;&gt;Node1</title>
<path fill="none" stroke="#9a32cd" stroke-dasharray="5,2" d="M65.1158,-72.2588C70.594,-65.3296 77.0558,-57.2373 83,-50 88.1503,-43.7293 93.9384,-36.8762 98.9096,-31.0482"/>
<polygon fill="#9a32cd" stroke="#9a32cd" points="62.2512,-70.2394 58.816,-80.2619 67.7515,-74.5691 62.2512,-70.2394"/>
<text text-anchor="middle" x="116" y="-53.5" font-family="Helvetica,sans-Serif" font-size="10.00"> sampleScores</text>
</g>
<!-- Node3 -->
<g id="node4" class="node"><title>Node3</title>
<a xlink:href="struct_class_score__struct.html" target="_top" xlink:title="ClassScore_struct">
<polygon fill="white" stroke="black" points="122.5,-80.5 122.5,-99.5 219.5,-99.5 219.5,-80.5 122.5,-80.5"/>
<text text-anchor="middle" x="171" y="-87.5" font-family="Helvetica,sans-Serif" font-size="10.00">ClassScore_struct</text>
</a>
</g>
<!-- Node3&#45;&gt;Node1 -->
<g id="edge4" class="edge"><title>Node3&#45;&gt;Node1</title>
<path fill="none" stroke="#9a32cd" stroke-dasharray="5,2" d="M162.576,-71.1273C158.892,-64.1897 154.219,-56.3926 149,-50 143.474,-43.2315 136.467,-36.7155 129.979,-31.2875"/>
<polygon fill="#9a32cd" stroke="#9a32cd" points="159.613,-73.0292 167.211,-80.4129 165.876,-69.9025 159.613,-73.0292"/>
<text text-anchor="middle" x="178" y="-53.5" font-family="Helvetica,sans-Serif" font-size="10.00"> allScores</text>
</g>
</g>
</svg>
