<?xml version="1.0" encoding="UTF-8" standalone="no"?>
<!DOCTYPE svg PUBLIC "-//W3C//DTD SVG 1.1//EN"
 "http://www.w3.org/Graphics/SVG/1.1/DTD/svg11.dtd">
<!-- Generated by graphviz version 2.28.0 (20110507.0327)
 -->
<!-- Title: ConcentricRakeReport_struct Pages: 1 -->
<svg width="301pt" height="188pt"
 viewBox="0.00 0.00 301.00 188.00" xmlns="http://www.w3.org/2000/svg" xmlns:xlink="http://www.w3.org/1999/xlink">
<g id="graph1" class="graph" transform="scale(1 1) rotate(0) translate(4 184)">
<title>ConcentricRakeReport_struct</title>
<polygon fill="white" stroke="white" points="-4,5 -4,-184 298,-184 298,5 -4,5"/>
<!-- Node1 -->
<g id="node1" class="node"><title>Node1</title>
<polygon fill="#bfbfbf" stroke="black" points="67,-1 67,-31 181,-31 181,-1 67,-1"/>
<text text-anchor="start" x="75" y="-19" font-family="Helvetica,sans-Serif" font-size="10.00">ConcentricRakeReport</text>
<text text-anchor="middle" x="124" y="-8" font-family="Helvetica,sans-Serif" font-size="10.00">_struct</text>
</g>
<!-- Node2 -->
<g id="node2" class="node"><title>Node2</title>
<a xlink:href="struct_point_float__struct.html" target="_top" xlink:title="PointFloat_struct">
<polygon fill="white" stroke="black" points="-0.5,-160.5 -0.5,-179.5 90.5,-179.5 90.5,-160.5 -0.5,-160.5"/>
<text text-anchor="middle" x="45" y="-167.5" font-family="Helvetica,sans-Serif" font-size="10.00">PointFloat_struct</text>
</a>
</g>
<!-- Node2&#45;&gt;Node1 -->
<g id="edge2" class="edge"><title>Node2&#45;&gt;Node1</title>
<path fill="none" stroke="#9a32cd" stroke-dasharray="5,2" d="M31.5494,-152.072C18.5526,-133.503 2.64495,-103.252 16,-80 29.5683,-56.3771 55.7889,-40.775 78.9958,-31.0067"/>
<polygon fill="#9a32cd" stroke="#9a32cd" points="28.7859,-154.221 37.5549,-160.167 34.4078,-150.05 28.7859,-154.221"/>
<text text-anchor="middle" x="39.5" y="-99" font-family="Helvetica,sans-Serif" font-size="10.00"> firstEdges</text>
<text text-anchor="middle" x="39.5" y="-88" font-family="Helvetica,sans-Serif" font-size="10.00">lastEdges</text>
</g>
<!-- Node5 -->
<g id="node8" class="node"><title>Node5</title>
<a xlink:href="struct_edge_location_report__struct.html" target="_top" xlink:title="EdgeLocationReport\l_struct">
<polygon fill="white" stroke="black" points="72,-81 72,-111 176,-111 176,-81 72,-81"/>
<text text-anchor="start" x="80" y="-99" font-family="Helvetica,sans-Serif" font-size="10.00">EdgeLocationReport</text>
<text text-anchor="middle" x="124" y="-88" font-family="Helvetica,sans-Serif" font-size="10.00">_struct</text>
</a>
</g>
<!-- Node2&#45;&gt;Node5 -->
<g id="edge10" class="edge"><title>Node2&#45;&gt;Node5</title>
<path fill="none" stroke="#9a32cd" stroke-dasharray="5,2" d="M62.1405,-153.378C75.8971,-140.841 95.0489,-123.386 108.385,-111.232"/>
<polygon fill="#9a32cd" stroke="#9a32cd" points="59.4059,-151.135 54.3726,-160.458 64.1211,-156.309 59.4059,-151.135"/>
<text text-anchor="middle" x="102" y="-133.5" font-family="Helvetica,sans-Serif" font-size="10.00"> edges</text>
</g>
<!-- Node3 -->
<g id="node4" class="node"><title>Node3</title>
<a xlink:href="struct_arc_info__struct.html" target="_top" xlink:title="ArcInfo_struct">
<polygon fill="white" stroke="black" points="194.5,-86.5 194.5,-105.5 271.5,-105.5 271.5,-86.5 194.5,-86.5"/>
<text text-anchor="middle" x="233" y="-93.5" font-family="Helvetica,sans-Serif" font-size="10.00">ArcInfo_struct</text>
</a>
</g>
<!-- Node3&#45;&gt;Node1 -->
<g id="edge4" class="edge"><title>Node3&#45;&gt;Node1</title>
<path fill="none" stroke="#9a32cd" stroke-dasharray="5,2" d="M212.655,-80.4411C192.99,-66.3692 163.388,-45.1857 143.881,-31.227"/>
<polygon fill="#9a32cd" stroke="#9a32cd" points="210.749,-83.3814 220.919,-86.3546 214.823,-77.6888 210.749,-83.3814"/>
<text text-anchor="middle" x="207.5" y="-53.5" font-family="Helvetica,sans-Serif" font-size="10.00"> rakeArcs</text>
</g>
<!-- Node4 -->
<g id="node6" class="node"><title>Node4</title>
<a xlink:href="struct_rect__struct.html" target="_top" xlink:title="Rect_struct">
<polygon fill="white" stroke="black" points="199.5,-160.5 199.5,-179.5 266.5,-179.5 266.5,-160.5 199.5,-160.5"/>
<text text-anchor="middle" x="233" y="-167.5" font-family="Helvetica,sans-Serif" font-size="10.00">Rect_struct</text>
</a>
</g>
<!-- Node4&#45;&gt;Node3 -->
<g id="edge6" class="edge"><title>Node4&#45;&gt;Node3</title>
<path fill="none" stroke="#9a32cd" stroke-dasharray="5,2" d="M233,-150.156C233,-135.712 233,-116.459 233,-105.531"/>
<polygon fill="#9a32cd" stroke="#9a32cd" points="229.5,-150.458 233,-160.458 236.5,-150.458 229.5,-150.458"/>
<text text-anchor="middle" x="263" y="-133.5" font-family="Helvetica,sans-Serif" font-size="10.00"> boundingBox</text>
</g>
<!-- Node5&#45;&gt;Node1 -->
<g id="edge8" class="edge"><title>Node5&#45;&gt;Node1</title>
<path fill="none" stroke="#9a32cd" stroke-dasharray="5,2" d="M124,-70.5644C124,-57.6243 124,-42.1862 124,-31.2157"/>
<polygon fill="#9a32cd" stroke="#9a32cd" points="120.5,-70.6936 124,-80.6936 127.5,-70.6936 120.5,-70.6936"/>
<text text-anchor="middle" x="144.5" y="-53.5" font-family="Helvetica,sans-Serif" font-size="10.00"> allEdges</text>
</g>
</g>
</svg>
