<?xml version="1.0" encoding="UTF-8" standalone="no"?>
<!DOCTYPE svg PUBLIC "-//W3C//DTD SVG 1.1//EN"
 "http://www.w3.org/Graphics/SVG/1.1/DTD/svg11.dtd">
<!-- Generated by graphviz version 2.28.0 (20110507.0327)
 -->
<!-- Title: CoordinateTransform2_struct Pages: 1 -->
<svg width="165pt" height="186pt"
 viewBox="0.00 0.00 165.00 186.00" xmlns="http://www.w3.org/2000/svg" xmlns:xlink="http://www.w3.org/1999/xlink">
<g id="graph1" class="graph" transform="scale(1 1) rotate(0) translate(4 182)">
<title>CoordinateTransform2_struct</title>
<polygon fill="white" stroke="white" points="-4,5 -4,-182 162,-182 162,5 -4,5"/>
<!-- Node1 -->
<g id="node1" class="node"><title>Node1</title>
<polygon fill="#bfbfbf" stroke="black" points="7.5,-1 7.5,-31 118.5,-31 118.5,-1 7.5,-1"/>
<text text-anchor="start" x="15.5" y="-19" font-family="Helvetica,sans-Serif" font-size="10.00">CoordinateTransform2</text>
<text text-anchor="middle" x="63" y="-8" font-family="Helvetica,sans-Serif" font-size="10.00">_struct</text>
</g>
<!-- Node2 -->
<g id="node2" class="node"><title>Node2</title>
<a xlink:href="struct_coordinate_system__struct.html" target="_top" xlink:title="CoordinateSystem_struct">
<polygon fill="white" stroke="black" points="-0.5,-90.5 -0.5,-109.5 126.5,-109.5 126.5,-90.5 -0.5,-90.5"/>
<text text-anchor="middle" x="63" y="-97.5" font-family="Helvetica,sans-Serif" font-size="10.00">CoordinateSystem_struct</text>
</a>
</g>
<!-- Node2&#45;&gt;Node1 -->
<g id="edge2" class="edge"><title>Node2&#45;&gt;Node1</title>
<path fill="none" stroke="#9a32cd" stroke-dasharray="5,2" d="M63,-80.1139C63,-65.2014 63,-44.7195 63,-31.1839"/>
<polygon fill="#9a32cd" stroke="#9a32cd" points="59.5001,-80.2245 63,-90.2246 66.5001,-80.2246 59.5001,-80.2245"/>
<text text-anchor="middle" x="110" y="-64" font-family="Helvetica,sans-Serif" font-size="10.00"> referenceSystem</text>
<text text-anchor="middle" x="110" y="-53" font-family="Helvetica,sans-Serif" font-size="10.00">measurementSystem</text>
</g>
<!-- Node3 -->
<g id="node4" class="node"><title>Node3</title>
<a xlink:href="struct_point_float__struct.html" target="_top" xlink:title="PointFloat_struct">
<polygon fill="white" stroke="black" points="17.5,-158.5 17.5,-177.5 108.5,-177.5 108.5,-158.5 17.5,-158.5"/>
<text text-anchor="middle" x="63" y="-165.5" font-family="Helvetica,sans-Serif" font-size="10.00">PointFloat_struct</text>
</a>
</g>
<!-- Node3&#45;&gt;Node2 -->
<g id="edge4" class="edge"><title>Node3&#45;&gt;Node2</title>
<path fill="none" stroke="#9a32cd" stroke-dasharray="5,2" d="M63,-148.041C63,-135.472 63,-119.563 63,-109.841"/>
<polygon fill="#9a32cd" stroke="#9a32cd" points="59.5001,-148.372 63,-158.372 66.5001,-148.372 59.5001,-148.372"/>
<text text-anchor="middle" x="76.5" y="-131.5" font-family="Helvetica,sans-Serif" font-size="10.00"> origin</text>
</g>
</g>
</svg>
