<?xml version="1.0" encoding="UTF-8" standalone="no"?>
<!DOCTYPE svg PUBLIC "-//W3C//DTD SVG 1.1//EN"
 "http://www.w3.org/Graphics/SVG/1.1/DTD/svg11.dtd">
<!-- Generated by graphviz version 2.28.0 (20110507.0327)
 -->
<!-- Title: ClampMax2Report_struct Pages: 1 -->
<svg width="242pt" height="252pt"
 viewBox="0.00 0.00 242.00 252.00" xmlns="http://www.w3.org/2000/svg" xmlns:xlink="http://www.w3.org/1999/xlink">
<g id="graph1" class="graph" transform="scale(1 1) rotate(0) translate(4 248)">
<title>ClampMax2Report_struct</title>
<polygon fill="white" stroke="white" points="-4,5 -4,-248 239,-248 239,5 -4,5"/>
<!-- Node1 -->
<g id="node1" class="node"><title>Node1</title>
<polygon fill="#bfbfbf" stroke="black" points="76.5,-0.5 76.5,-19.5 203.5,-19.5 203.5,-0.5 76.5,-0.5"/>
<text text-anchor="middle" x="140" y="-7.5" font-family="Helvetica,sans-Serif" font-size="10.00">ClampMax2Report_struct</text>
</g>
<!-- Node2 -->
<g id="node2" class="node"><title>Node2</title>
<a xlink:href="struct_clamp_points__struct.html" target="_top" xlink:title="ClampPoints_struct">
<polygon fill="white" stroke="black" points="7,-68.5 7,-87.5 109,-87.5 109,-68.5 7,-68.5"/>
<text text-anchor="middle" x="58" y="-75.5" font-family="Helvetica,sans-Serif" font-size="10.00">ClampPoints_struct</text>
</a>
</g>
<!-- Node2&#45;&gt;Node1 -->
<g id="edge2" class="edge"><title>Node2&#45;&gt;Node1</title>
<path fill="none" stroke="#9a32cd" stroke-dasharray="5,2" d="M71.9384,-60.3742C78.5189,-53.0547 86.7324,-44.632 95,-38 103.67,-31.0449 114.297,-24.5868 123.046,-19.7317"/>
<polygon fill="#9a32cd" stroke="#9a32cd" points="68.9788,-58.4438 65.0582,-68.2865 74.2611,-63.037 68.9788,-58.4438"/>
<text text-anchor="middle" x="124" y="-41.5" font-family="Helvetica,sans-Serif" font-size="10.00"> clampPoints</text>
</g>
<!-- Node3 -->
<g id="node4" class="node"><title>Node3</title>
<a xlink:href="struct_point_double_pair__struct.html" target="_top" xlink:title="PointDoublePair_struct">
<polygon fill="white" stroke="black" points="0,-146.5 0,-165.5 116,-165.5 116,-146.5 0,-146.5"/>
<text text-anchor="middle" x="58" y="-153.5" font-family="Helvetica,sans-Serif" font-size="10.00">PointDoublePair_struct</text>
</a>
</g>
<!-- Node3&#45;&gt;Node2 -->
<g id="edge4" class="edge"><title>Node3&#45;&gt;Node2</title>
<path fill="none" stroke="#9a32cd" stroke-dasharray="5,2" d="M58,-136.224C58,-120.697 58,-99.3582 58,-87.6165"/>
<polygon fill="#9a32cd" stroke="#9a32cd" points="54.5001,-136.282 58,-146.282 61.5001,-136.282 54.5001,-136.282"/>
<text text-anchor="middle" x="79" y="-120" font-family="Helvetica,sans-Serif" font-size="10.00"> pixel</text>
<text text-anchor="middle" x="79" y="-109" font-family="Helvetica,sans-Serif" font-size="10.00">realWorld</text>
</g>
<!-- Node4 -->
<g id="node6" class="node"><title>Node4</title>
<a xlink:href="struct_point_double__struct.html" target="_top" xlink:title="PointDouble_struct">
<polygon fill="white" stroke="black" points="8.5,-224.5 8.5,-243.5 107.5,-243.5 107.5,-224.5 8.5,-224.5"/>
<text text-anchor="middle" x="58" y="-231.5" font-family="Helvetica,sans-Serif" font-size="10.00">PointDouble_struct</text>
</a>
</g>
<!-- Node4&#45;&gt;Node3 -->
<g id="edge6" class="edge"><title>Node4&#45;&gt;Node3</title>
<path fill="none" stroke="#9a32cd" stroke-dasharray="5,2" d="M58,-214.224C58,-198.697 58,-177.358 58,-165.616"/>
<polygon fill="#9a32cd" stroke="#9a32cd" points="54.5001,-214.282 58,-224.282 61.5001,-214.282 54.5001,-214.282"/>
<text text-anchor="middle" x="68" y="-198" font-family="Helvetica,sans-Serif" font-size="10.00"> end</text>
<text text-anchor="middle" x="68" y="-187" font-family="Helvetica,sans-Serif" font-size="10.00">start</text>
</g>
<!-- Node5 -->
<g id="node8" class="node"><title>Node5</title>
<a xlink:href="struct_clamp_results__struct.html" target="_top" xlink:title="ClampResults_struct">
<polygon fill="white" stroke="black" points="127.5,-68.5 127.5,-87.5 234.5,-87.5 234.5,-68.5 127.5,-68.5"/>
<text text-anchor="middle" x="181" y="-75.5" font-family="Helvetica,sans-Serif" font-size="10.00">ClampResults_struct</text>
</a>
</g>
<!-- Node5&#45;&gt;Node1 -->
<g id="edge8" class="edge"><title>Node5&#45;&gt;Node1</title>
<path fill="none" stroke="#9a32cd" stroke-dasharray="5,2" d="M170.168,-59.563C162.228,-46.7815 151.778,-29.9599 145.492,-19.8411"/>
<polygon fill="#9a32cd" stroke="#9a32cd" points="167.39,-61.7241 175.64,-68.3717 173.336,-58.0303 167.39,-61.7241"/>
<text text-anchor="middle" x="196.5" y="-41.5" font-family="Helvetica,sans-Serif" font-size="10.00"> clampResults</text>
</g>
</g>
</svg>
