<?xml version="1.0" encoding="UTF-8" standalone="no"?>
<!DOCTYPE svg PUBLIC "-//W3C//DTD SVG 1.1//EN"
 "http://www.w3.org/Graphics/SVG/1.1/DTD/svg11.dtd">
<!-- Generated by graphviz version 2.28.0 (20110507.0327)
 -->
<!-- Title: ParticleReport_struct Pages: 1 -->
<svg width="173pt" height="96pt"
 viewBox="0.00 0.00 173.00 96.00" xmlns="http://www.w3.org/2000/svg" xmlns:xlink="http://www.w3.org/1999/xlink">
<g id="graph1" class="graph" transform="scale(1 1) rotate(0) translate(4 92)">
<title>ParticleReport_struct</title>
<polygon fill="white" stroke="white" points="-4,5 -4,-92 170,-92 170,5 -4,5"/>
<!-- Node1 -->
<g id="node1" class="node"><title>Node1</title>
<polygon fill="#bfbfbf" stroke="black" points="23,-0.5 23,-19.5 131,-19.5 131,-0.5 23,-0.5"/>
<text text-anchor="middle" x="77" y="-7.5" font-family="Helvetica,sans-Serif" font-size="10.00">ParticleReport_struct</text>
</g>
<!-- Node2 -->
<g id="node2" class="node"><title>Node2</title>
<a xlink:href="struct_point__struct.html" target="_top" xlink:title="Point_struct">
<polygon fill="white" stroke="black" points="-0.5,-68.5 -0.5,-87.5 68.5,-87.5 68.5,-68.5 -0.5,-68.5"/>
<text text-anchor="middle" x="34" y="-75.5" font-family="Helvetica,sans-Serif" font-size="10.00">Point_struct</text>
</a>
</g>
<!-- Node2&#45;&gt;Node1 -->
<g id="edge2" class="edge"><title>Node2&#45;&gt;Node1</title>
<path fill="none" stroke="#9a32cd" stroke-dasharray="5,2" d="M33.9757,-57.966C34.7043,-51.2603 36.3963,-43.924 40,-38 44.7114,-30.2551 52.564,-24.0538 59.8258,-19.5572"/>
<polygon fill="#9a32cd" stroke="#9a32cd" points="30.4637,-58.1424 33.4915,-68.2953 37.456,-58.4702 30.4637,-58.1424"/>
<text text-anchor="middle" x="69" y="-41.5" font-family="Helvetica,sans-Serif" font-size="10.00"> longestPoint</text>
</g>
<!-- Node3 -->
<g id="node4" class="node"><title>Node3</title>
<a xlink:href="struct_rect__struct.html" target="_top" xlink:title="Rect_struct">
<polygon fill="white" stroke="black" points="86.5,-68.5 86.5,-87.5 153.5,-87.5 153.5,-68.5 86.5,-68.5"/>
<text text-anchor="middle" x="120" y="-75.5" font-family="Helvetica,sans-Serif" font-size="10.00">Rect_struct</text>
</a>
</g>
<!-- Node3&#45;&gt;Node1 -->
<g id="edge4" class="edge"><title>Node3&#45;&gt;Node1</title>
<path fill="none" stroke="#9a32cd" stroke-dasharray="5,2" d="M110.768,-59.3561C107.021,-52.5487 102.515,-44.7826 98,-38 93.7879,-31.6726 88.5379,-24.9226 84.3409,-19.7544"/>
<polygon fill="#9a32cd" stroke="#9a32cd" points="107.817,-61.2593 115.628,-68.4175 113.986,-57.9507 107.817,-61.2593"/>
<text text-anchor="middle" x="135" y="-41.5" font-family="Helvetica,sans-Serif" font-size="10.00"> boundingBox</text>
</g>
</g>
</svg>
