<?xml version="1.0" encoding="UTF-8" standalone="no"?>
<!DOCTYPE svg PUBLIC "-//W3C//DTD SVG 1.1//EN"
 "http://www.w3.org/Graphics/SVG/1.1/DTD/svg11.dtd">
<!-- Generated by graphviz version 2.28.0 (20110507.0327)
 -->
<!-- Title: RakeReport2_struct Pages: 1 -->
<svg width="264pt" height="328pt"
 viewBox="0.00 0.00 264.00 328.00" xmlns="http://www.w3.org/2000/svg" xmlns:xlink="http://www.w3.org/1999/xlink">
<g id="graph1" class="graph" transform="scale(1 1) rotate(0) translate(4 324)">
<title>RakeReport2_struct</title>
<polygon fill="white" stroke="white" points="-4,5 -4,-324 261,-324 261,5 -4,5"/>
<!-- Node1 -->
<g id="node1" class="node"><title>Node1</title>
<polygon fill="#bfbfbf" stroke="black" points="-0.5,-0.5 -0.5,-19.5 102.5,-19.5 102.5,-0.5 -0.5,-0.5"/>
<text text-anchor="middle" x="51" y="-7.5" font-family="Helvetica,sans-Serif" font-size="10.00">RakeReport2_struct</text>
</g>
<!-- Node2 -->
<g id="node2" class="node"><title>Node2</title>
<a xlink:href="struct_search_line_info__struct.html" target="_top" xlink:title="SearchLineInfo_struct">
<polygon fill="white" stroke="black" points="50,-68.5 50,-87.5 160,-87.5 160,-68.5 50,-68.5"/>
<text text-anchor="middle" x="105" y="-75.5" font-family="Helvetica,sans-Serif" font-size="10.00">SearchLineInfo_struct</text>
</a>
</g>
<!-- Node2&#45;&gt;Node1 -->
<g id="edge2" class="edge"><title>Node2&#45;&gt;Node1</title>
<path fill="none" stroke="#9a32cd" stroke-dasharray="5,2" d="M91.3446,-60.3101C80.8176,-47.4437 66.675,-30.1583 58.2336,-19.8411"/>
<polygon fill="#9a32cd" stroke="#9a32cd" points="88.8992,-62.8484 97.9404,-68.3717 94.3169,-58.4157 88.8992,-62.8484"/>
<text text-anchor="middle" x="111" y="-41.5" font-family="Helvetica,sans-Serif" font-size="10.00"> searchLines</text>
</g>
<!-- Node3 -->
<g id="node4" class="node"><title>Node3</title>
<a xlink:href="struct_edge_report2__struct.html" target="_top" xlink:title="EdgeReport2_struct">
<polygon fill="white" stroke="black" points="50.5,-146.5 50.5,-165.5 153.5,-165.5 153.5,-146.5 50.5,-146.5"/>
<text text-anchor="middle" x="102" y="-153.5" font-family="Helvetica,sans-Serif" font-size="10.00">EdgeReport2_struct</text>
</a>
</g>
<!-- Node3&#45;&gt;Node2 -->
<g id="edge4" class="edge"><title>Node3&#45;&gt;Node2</title>
<path fill="none" stroke="#9a32cd" stroke-dasharray="5,2" d="M102.741,-136.224C103.354,-120.697 104.196,-99.3582 104.66,-87.6165"/>
<polygon fill="#9a32cd" stroke="#9a32cd" points="99.2414,-136.152 102.344,-146.282 106.236,-136.428 99.2414,-136.152"/>
<text text-anchor="middle" x="130.5" y="-114.5" font-family="Helvetica,sans-Serif" font-size="10.00"> edgeReport</text>
</g>
<!-- Node4 -->
<g id="node6" class="node"><title>Node4</title>
<a xlink:href="struct_edge_info__struct.html" target="_top" xlink:title="EdgeInfo_struct">
<polygon fill="white" stroke="black" points="47,-222.5 47,-241.5 131,-241.5 131,-222.5 47,-222.5"/>
<text text-anchor="middle" x="89" y="-229.5" font-family="Helvetica,sans-Serif" font-size="10.00">EdgeInfo_struct</text>
</a>
</g>
<!-- Node4&#45;&gt;Node1 -->
<g id="edge14" class="edge"><title>Node4&#45;&gt;Node1</title>
<path fill="none" stroke="#9a32cd" stroke-dasharray="5,2" d="M72.478,-214.905C61.1924,-202.693 47.2016,-184.838 41,-166 23.4609,-112.724 41.0244,-43.6974 48.2273,-19.6853"/>
<polygon fill="#9a32cd" stroke="#9a32cd" points="70.2614,-217.648 79.7299,-222.402 75.2924,-212.781 70.2614,-217.648"/>
<text text-anchor="middle" x="57.5" y="-120" font-family="Helvetica,sans-Serif" font-size="10.00"> firstEdges</text>
<text text-anchor="middle" x="57.5" y="-109" font-family="Helvetica,sans-Serif" font-size="10.00">lastEdges</text>
</g>
<!-- Node4&#45;&gt;Node3 -->
<g id="edge6" class="edge"><title>Node4&#45;&gt;Node3</title>
<path fill="none" stroke="#9a32cd" stroke-dasharray="5,2" d="M92.3252,-212.072C94.9413,-197.18 98.467,-177.111 100.46,-165.768"/>
<polygon fill="#9a32cd" stroke="#9a32cd" points="88.8255,-211.766 90.5423,-222.221 95.7199,-212.977 88.8255,-211.766"/>
<text text-anchor="middle" x="113" y="-191.5" font-family="Helvetica,sans-Serif" font-size="10.00"> edges</text>
</g>
<!-- Node5 -->
<g id="node8" class="node"><title>Node5</title>
<a xlink:href="struct_point_float__struct.html" target="_top" xlink:title="PointFloat_struct">
<polygon fill="white" stroke="black" points="93.5,-300.5 93.5,-319.5 184.5,-319.5 184.5,-300.5 93.5,-300.5"/>
<text text-anchor="middle" x="139" y="-307.5" font-family="Helvetica,sans-Serif" font-size="10.00">PointFloat_struct</text>
</a>
</g>
<!-- Node5&#45;&gt;Node4 -->
<g id="edge8" class="edge"><title>Node5&#45;&gt;Node4</title>
<path fill="none" stroke="#9a32cd" stroke-dasharray="5,2" d="M103.48,-295.463C98.1249,-291.887 93.2978,-287.455 90,-282 82.5162,-269.622 84.5308,-252.075 86.729,-241.683"/>
<polygon fill="#9a32cd" stroke="#9a32cd" points="101.762,-298.512 112.187,-300.401 105.215,-292.423 101.762,-298.512"/>
<text text-anchor="middle" x="129" y="-274" font-family="Helvetica,sans-Serif" font-size="10.00"> position</text>
<text text-anchor="middle" x="129" y="-263" font-family="Helvetica,sans-Serif" font-size="10.00">calibratedPosition</text>
</g>
<!-- Node6 -->
<g id="node10" class="node"><title>Node6</title>
<a xlink:href="struct_line_float__struct.html" target="_top" xlink:title="LineFloat_struct">
<polygon fill="white" stroke="black" points="147,-184.5 147,-203.5 233,-203.5 233,-184.5 147,-184.5"/>
<text text-anchor="middle" x="190" y="-191.5" font-family="Helvetica,sans-Serif" font-size="10.00">LineFloat_struct</text>
</a>
</g>
<!-- Node5&#45;&gt;Node6 -->
<g id="edge12" class="edge"><title>Node5&#45;&gt;Node6</title>
<path fill="none" stroke="#9a32cd" stroke-dasharray="5,2" d="M158.718,-293.594C162.218,-290.1 165.529,-286.175 168,-282 183.235,-256.258 187.993,-220.191 189.419,-203.767"/>
<polygon fill="#9a32cd" stroke="#9a32cd" points="156.128,-291.214 151.005,-300.488 160.794,-296.433 156.128,-291.214"/>
<text text-anchor="middle" x="187" y="-274" font-family="Helvetica,sans-Serif" font-size="10.00"> end</text>
<text text-anchor="middle" x="187" y="-263" font-family="Helvetica,sans-Serif" font-size="10.00">start</text>
</g>
<!-- Node6&#45;&gt;Node2 -->
<g id="edge10" class="edge"><title>Node6&#45;&gt;Node2</title>
<path fill="none" stroke="#9a32cd" stroke-dasharray="5,2" d="M188.043,-174.317C185.141,-155.122 178.057,-125.383 161,-106 153.727,-97.7352 143.36,-91.7701 133.518,-87.5842"/>
<polygon fill="#9a32cd" stroke="#9a32cd" points="184.572,-174.768 189.311,-184.243 191.515,-173.88 184.572,-174.768"/>
<text text-anchor="middle" x="221" y="-153.5" font-family="Helvetica,sans-Serif" font-size="10.00"> lineCoordinates</text>
</g>
</g>
</svg>
