<?xml version="1.0" encoding="UTF-8" standalone="no"?>
<!DOCTYPE svg PUBLIC "-//W3C//DTD SVG 1.1//EN"
 "http://www.w3.org/Graphics/SVG/1.1/DTD/svg11.dtd">
<!-- Generated by graphviz version 2.28.0 (20110507.0327)
 -->
<!-- Title: StraightEdge_struct Pages: 1 -->
<svg width="292pt" height="184pt"
 viewBox="0.00 0.00 292.00 184.00" xmlns="http://www.w3.org/2000/svg" xmlns:xlink="http://www.w3.org/1999/xlink">
<g id="graph1" class="graph" transform="scale(1 1) rotate(0) translate(4 180)">
<title>StraightEdge_struct</title>
<polygon fill="white" stroke="white" points="-4,5 -4,-180 289,-180 289,5 -4,5"/>
<!-- Node1 -->
<g id="node1" class="node"><title>Node1</title>
<polygon fill="#bfbfbf" stroke="black" points="34.5,-0.5 34.5,-19.5 137.5,-19.5 137.5,-0.5 34.5,-0.5"/>
<text text-anchor="middle" x="86" y="-7.5" font-family="Helvetica,sans-Serif" font-size="10.00">StraightEdge_struct</text>
</g>
<!-- Node2 -->
<g id="node2" class="node"><title>Node2</title>
<a xlink:href="struct_edge_info__struct.html" target="_top" xlink:title="EdgeInfo_struct">
<polygon fill="white" stroke="black" points="0,-78.5 0,-97.5 84,-97.5 84,-78.5 0,-78.5"/>
<text text-anchor="middle" x="42" y="-85.5" font-family="Helvetica,sans-Serif" font-size="10.00">EdgeInfo_struct</text>
</a>
</g>
<!-- Node2&#45;&gt;Node1 -->
<g id="edge2" class="edge"><title>Node2&#45;&gt;Node1</title>
<path fill="none" stroke="#9a32cd" stroke-dasharray="5,2" d="M48.8565,-68.7512C52.744,-59.2759 58.0229,-47.6867 64,-38 68.0642,-31.4134 73.5642,-24.6634 78.0482,-19.56"/>
<polygon fill="#9a32cd" stroke="#9a32cd" points="45.4899,-67.7492 45.0953,-78.3367 52.0062,-70.3061 45.4899,-67.7492"/>
<text text-anchor="middle" x="90" y="-46.5" font-family="Helvetica,sans-Serif" font-size="10.00"> usedEdges</text>
</g>
<!-- Node3 -->
<g id="node4" class="node"><title>Node3</title>
<a xlink:href="struct_point_float__struct.html" target="_top" xlink:title="PointFloat_struct">
<polygon fill="white" stroke="black" points="47.5,-156.5 47.5,-175.5 138.5,-175.5 138.5,-156.5 47.5,-156.5"/>
<text text-anchor="middle" x="93" y="-163.5" font-family="Helvetica,sans-Serif" font-size="10.00">PointFloat_struct</text>
</a>
</g>
<!-- Node3&#45;&gt;Node2 -->
<g id="edge4" class="edge"><title>Node3&#45;&gt;Node2</title>
<path fill="none" stroke="#9a32cd" stroke-dasharray="5,2" d="M57.7335,-151.513C52.3046,-147.925 47.3868,-143.475 44,-138 36.3856,-125.691 38.0021,-108.122 39.9475,-97.7068"/>
<polygon fill="#9a32cd" stroke="#9a32cd" points="56.1072,-154.614 66.5388,-156.467 59.5395,-148.513 56.1072,-154.614"/>
<text text-anchor="middle" x="83" y="-130" font-family="Helvetica,sans-Serif" font-size="10.00"> position</text>
<text text-anchor="middle" x="83" y="-119" font-family="Helvetica,sans-Serif" font-size="10.00">calibratedPosition</text>
</g>
<!-- Node4 -->
<g id="node6" class="node"><title>Node4</title>
<a xlink:href="struct_line_float__struct.html" target="_top" xlink:title="LineFloat_struct">
<polygon fill="white" stroke="black" points="102,-78.5 102,-97.5 188,-97.5 188,-78.5 102,-78.5"/>
<text text-anchor="middle" x="145" y="-85.5" font-family="Helvetica,sans-Serif" font-size="10.00">LineFloat_struct</text>
</a>
</g>
<!-- Node3&#45;&gt;Node4 -->
<g id="edge8" class="edge"><title>Node3&#45;&gt;Node4</title>
<path fill="none" stroke="#9a32cd" stroke-dasharray="5,2" d="M111.641,-149.646C115.35,-146.064 119.016,-142.092 122,-138 131.412,-125.091 138.466,-107.719 142.143,-97.5037"/>
<polygon fill="#9a32cd" stroke="#9a32cd" points="109.265,-147.075 104.171,-156.365 113.947,-152.28 109.265,-147.075"/>
<text text-anchor="middle" x="144" y="-130" font-family="Helvetica,sans-Serif" font-size="10.00"> end</text>
<text text-anchor="middle" x="144" y="-119" font-family="Helvetica,sans-Serif" font-size="10.00">start</text>
</g>
<!-- Node4&#45;&gt;Node1 -->
<g id="edge6" class="edge"><title>Node4&#45;&gt;Node1</title>
<path fill="none" stroke="#9a32cd" stroke-dasharray="5,2" d="M136.101,-69.076C130.891,-59.4068 123.809,-47.5359 116,-38 110.406,-31.1693 103.051,-24.5219 97.0239,-19.532"/>
<polygon fill="#9a32cd" stroke="#9a32cd" points="133.101,-70.893 140.806,-78.1652 139.317,-67.6754 133.101,-70.893"/>
<text text-anchor="middle" x="207" y="-52" font-family="Helvetica,sans-Serif" font-size="10.00"> calibratedStraightEdgeCoordinates</text>
<text text-anchor="middle" x="207" y="-41" font-family="Helvetica,sans-Serif" font-size="10.00">straightEdgeCoordinates</text>
</g>
</g>
</svg>
