<?xml version="1.0" encoding="UTF-8" standalone="no"?>
<!DOCTYPE svg PUBLIC "-//W3C//DTD SVG 1.1//EN"
 "http://www.w3.org/Graphics/SVG/1.1/DTD/svg11.dtd">
<!-- Generated by graphviz version 2.28.0 (20110507.0327)
 -->
<!-- Title: ContourFitLineReport_struct Pages: 1 -->
<svg width="217pt" height="186pt"
 viewBox="0.00 0.00 217.00 186.00" xmlns="http://www.w3.org/2000/svg" xmlns:xlink="http://www.w3.org/1999/xlink">
<g id="graph1" class="graph" transform="scale(1 1) rotate(0) translate(4 182)">
<title>ContourFitLineReport_struct</title>
<polygon fill="white" stroke="white" points="-4,5 -4,-182 214,-182 214,5 -4,5"/>
<!-- Node1 -->
<g id="node1" class="node"><title>Node1</title>
<polygon fill="#bfbfbf" stroke="black" points="45,-1 45,-31 153,-31 153,-1 45,-1"/>
<text text-anchor="start" x="53" y="-19" font-family="Helvetica,sans-Serif" font-size="10.00">ContourFitLineReport</text>
<text text-anchor="middle" x="99" y="-8" font-family="Helvetica,sans-Serif" font-size="10.00">_struct</text>
</g>
<!-- Node2 -->
<g id="node2" class="node"><title>Node2</title>
<a xlink:href="struct_line_equation__struct.html" target="_top" xlink:title="LineEquation_struct">
<polygon fill="white" stroke="black" points="-0.5,-80.5 -0.5,-99.5 102.5,-99.5 102.5,-80.5 -0.5,-80.5"/>
<text text-anchor="middle" x="51" y="-87.5" font-family="Helvetica,sans-Serif" font-size="10.00">LineEquation_struct</text>
</a>
</g>
<!-- Node2&#45;&gt;Node1 -->
<g id="edge2" class="edge"><title>Node2&#45;&gt;Node1</title>
<path fill="none" stroke="#9a32cd" stroke-dasharray="5,2" d="M57.5237,-70.544C60.288,-63.8151 63.8396,-56.3141 68,-50 72.4114,-43.3049 78.2288,-36.7061 83.6315,-31.1898"/>
<polygon fill="#9a32cd" stroke="#9a32cd" points="54.1346,-69.6096 53.8534,-80.2008 60.6779,-72.0967 54.1346,-69.6096"/>
<text text-anchor="middle" x="96.5" y="-53.5" font-family="Helvetica,sans-Serif" font-size="10.00"> lineEquation</text>
</g>
<!-- Node3 -->
<g id="node4" class="node"><title>Node3</title>
<a xlink:href="struct_line_float__struct.html" target="_top" xlink:title="LineFloat_struct">
<polygon fill="white" stroke="black" points="121,-80.5 121,-99.5 207,-99.5 207,-80.5 121,-80.5"/>
<text text-anchor="middle" x="164" y="-87.5" font-family="Helvetica,sans-Serif" font-size="10.00">LineFloat_struct</text>
</a>
</g>
<!-- Node3&#45;&gt;Node1 -->
<g id="edge4" class="edge"><title>Node3&#45;&gt;Node1</title>
<path fill="none" stroke="#9a32cd" stroke-dasharray="5,2" d="M149.576,-73.0221C138.281,-60.5118 122.717,-43.2711 111.848,-31.2316"/>
<polygon fill="#9a32cd" stroke="#9a32cd" points="146.989,-75.3806 156.288,-80.4579 152.185,-70.6898 146.989,-75.3806"/>
<text text-anchor="middle" x="168" y="-53.5" font-family="Helvetica,sans-Serif" font-size="10.00"> lineSegment</text>
</g>
<!-- Node4 -->
<g id="node6" class="node"><title>Node4</title>
<a xlink:href="struct_point_float__struct.html" target="_top" xlink:title="PointFloat_struct">
<polygon fill="white" stroke="black" points="118.5,-158.5 118.5,-177.5 209.5,-177.5 209.5,-158.5 118.5,-158.5"/>
<text text-anchor="middle" x="164" y="-165.5" font-family="Helvetica,sans-Serif" font-size="10.00">PointFloat_struct</text>
</a>
</g>
<!-- Node4&#45;&gt;Node3 -->
<g id="edge6" class="edge"><title>Node4&#45;&gt;Node3</title>
<path fill="none" stroke="#9a32cd" stroke-dasharray="5,2" d="M164,-148.224C164,-132.697 164,-111.358 164,-99.6165"/>
<polygon fill="#9a32cd" stroke="#9a32cd" points="160.5,-148.282 164,-158.282 167.5,-148.282 160.5,-148.282"/>
<text text-anchor="middle" x="174" y="-132" font-family="Helvetica,sans-Serif" font-size="10.00"> end</text>
<text text-anchor="middle" x="174" y="-121" font-family="Helvetica,sans-Serif" font-size="10.00">start</text>
</g>
</g>
</svg>
