<?xml version="1.0" encoding="UTF-8" standalone="no"?>
<!DOCTYPE svg PUBLIC "-//W3C//DTD SVG 1.1//EN"
 "http://www.w3.org/Graphics/SVG/1.1/DTD/svg11.dtd">
<!-- Generated by graphviz version 2.28.0 (20110507.0327)
 -->
<!-- Title: ReadTextReport3_struct Pages: 1 -->
<svg width="142pt" height="176pt"
 viewBox="0.00 0.00 142.00 176.00" xmlns="http://www.w3.org/2000/svg" xmlns:xlink="http://www.w3.org/1999/xlink">
<g id="graph1" class="graph" transform="scale(1 1) rotate(0) translate(4 172)">
<title>ReadTextReport3_struct</title>
<polygon fill="white" stroke="white" points="-4,5 -4,-172 139,-172 139,5 -4,5"/>
<!-- Node1 -->
<g id="node1" class="node"><title>Node1</title>
<polygon fill="#bfbfbf" stroke="black" points="0,-0.5 0,-19.5 122,-19.5 122,-0.5 0,-0.5"/>
<text text-anchor="middle" x="61" y="-7.5" font-family="Helvetica,sans-Serif" font-size="10.00">ReadTextReport3_struct</text>
</g>
<!-- Node2 -->
<g id="node2" class="node"><title>Node2</title>
<a xlink:href="struct_char_report3__struct.html" target="_top" xlink:title="CharReport3_struct">
<polygon fill="white" stroke="black" points="10.5,-68.5 10.5,-87.5 111.5,-87.5 111.5,-68.5 10.5,-68.5"/>
<text text-anchor="middle" x="61" y="-75.5" font-family="Helvetica,sans-Serif" font-size="10.00">CharReport3_struct</text>
</a>
</g>
<!-- Node2&#45;&gt;Node1 -->
<g id="edge2" class="edge"><title>Node2&#45;&gt;Node1</title>
<path fill="none" stroke="#9a32cd" stroke-dasharray="5,2" d="M61,-58.0413C61,-45.4724 61,-29.5631 61,-19.8411"/>
<polygon fill="#9a32cd" stroke="#9a32cd" points="57.5001,-58.3716 61,-68.3717 64.5001,-58.3717 57.5001,-58.3716"/>
<text text-anchor="middle" x="97.5" y="-41.5" font-family="Helvetica,sans-Serif" font-size="10.00"> characterReport</text>
</g>
<!-- Node3 -->
<g id="node4" class="node"><title>Node3</title>
<a xlink:href="struct_character_statistics__struct.html" target="_top" xlink:title="CharacterStatistics\l_struct">
<polygon fill="white" stroke="black" points="11,-137 11,-167 111,-167 111,-137 11,-137"/>
<text text-anchor="start" x="19" y="-155" font-family="Helvetica,sans-Serif" font-size="10.00">CharacterStatistics</text>
<text text-anchor="middle" x="61" y="-144" font-family="Helvetica,sans-Serif" font-size="10.00">_struct</text>
</a>
</g>
<!-- Node3&#45;&gt;Node2 -->
<g id="edge4" class="edge"><title>Node3&#45;&gt;Node2</title>
<path fill="none" stroke="#9a32cd" stroke-dasharray="5,2" d="M61,-126.688C61,-113.253 61,-97.3805 61,-87.7589"/>
<polygon fill="#9a32cd" stroke="#9a32cd" points="57.5001,-126.775 61,-136.775 64.5001,-126.775 57.5001,-126.775"/>
<text text-anchor="middle" x="94.5" y="-109.5" font-family="Helvetica,sans-Serif" font-size="10.00"> characterStats</text>
</g>
</g>
</svg>
