<?xml version="1.0" encoding="UTF-8" standalone="no"?>
<!DOCTYPE svg PUBLIC "-//W3C//DTD SVG 1.1//EN"
 "http://www.w3.org/Graphics/SVG/1.1/DTD/svg11.dtd">
<!-- Generated by graphviz version 2.28.0 (20110507.0327)
 -->
<!-- Title: PatternMatch_struct Pages: 1 -->
<svg width="112pt" height="106pt"
 viewBox="0.00 0.00 112.00 106.00" xmlns="http://www.w3.org/2000/svg" xmlns:xlink="http://www.w3.org/1999/xlink">
<g id="graph1" class="graph" transform="scale(1 1) rotate(0) translate(4 102)">
<title>PatternMatch_struct</title>
<polygon fill="white" stroke="white" points="-4,5 -4,-102 109,-102 109,5 -4,5"/>
<!-- Node1 -->
<g id="node1" class="node"><title>Node1</title>
<polygon fill="#bfbfbf" stroke="black" points="-0.5,-0.5 -0.5,-19.5 104.5,-19.5 104.5,-0.5 -0.5,-0.5"/>
<text text-anchor="middle" x="52" y="-7.5" font-family="Helvetica,sans-Serif" font-size="10.00">PatternMatch_struct</text>
</g>
<!-- Node2 -->
<g id="node2" class="node"><title>Node2</title>
<a xlink:href="struct_point_float__struct.html" target="_top" xlink:title="PointFloat_struct">
<polygon fill="white" stroke="black" points="6.5,-78.5 6.5,-97.5 97.5,-97.5 97.5,-78.5 6.5,-78.5"/>
<text text-anchor="middle" x="52" y="-85.5" font-family="Helvetica,sans-Serif" font-size="10.00">PointFloat_struct</text>
</a>
</g>
<!-- Node2&#45;&gt;Node1 -->
<g id="edge2" class="edge"><title>Node2&#45;&gt;Node1</title>
<path fill="none" stroke="#9a32cd" stroke-dasharray="5,2" d="M52,-68.2239C52,-52.6974 52,-31.3582 52,-19.6165"/>
<polygon fill="#9a32cd" stroke="#9a32cd" points="48.5001,-68.2818 52,-78.2818 55.5001,-68.2819 48.5001,-68.2818"/>
<text text-anchor="middle" x="69" y="-52" font-family="Helvetica,sans-Serif" font-size="10.00"> corner</text>
<text text-anchor="middle" x="69" y="-41" font-family="Helvetica,sans-Serif" font-size="10.00">position</text>
</g>
</g>
</svg>
