<?xml version="1.0" encoding="UTF-8" standalone="no"?>
<!DOCTYPE svg PUBLIC "-//W3C//DTD SVG 1.1//EN"
 "http://www.w3.org/Graphics/SVG/1.1/DTD/svg11.dtd">
<!-- Generated by graphviz version 2.28.0 (20110507.0327)
 -->
<!-- Title: MatchPatternOptions_struct Pages: 1 -->
<svg width="122pt" height="120pt"
 viewBox="0.00 0.00 122.00 120.00" xmlns="http://www.w3.org/2000/svg" xmlns:xlink="http://www.w3.org/1999/xlink">
<g id="graph1" class="graph" transform="scale(1 1) rotate(0) translate(4 116)">
<title>MatchPatternOptions_struct</title>
<polygon fill="white" stroke="white" points="-4,5 -4,-116 119,-116 119,5 -4,5"/>
<!-- Node1 -->
<g id="node1" class="node"><title>Node1</title>
<polygon fill="#bfbfbf" stroke="black" points="-0.5,-1 -0.5,-31 108.5,-31 108.5,-1 -0.5,-1"/>
<text text-anchor="start" x="7.5" y="-19" font-family="Helvetica,sans-Serif" font-size="10.00">MatchPatternOptions</text>
<text text-anchor="middle" x="54" y="-8" font-family="Helvetica,sans-Serif" font-size="10.00">_struct</text>
</g>
<!-- Node2 -->
<g id="node2" class="node"><title>Node2</title>
<a xlink:href="struct_rotation_angle_range__struct.html" target="_top" xlink:title="RotationAngleRange\l_struct">
<polygon fill="white" stroke="black" points="1.5,-81 1.5,-111 106.5,-111 106.5,-81 1.5,-81"/>
<text text-anchor="start" x="9.5" y="-99" font-family="Helvetica,sans-Serif" font-size="10.00">RotationAngleRange</text>
<text text-anchor="middle" x="54" y="-88" font-family="Helvetica,sans-Serif" font-size="10.00">_struct</text>
</a>
</g>
<!-- Node2&#45;&gt;Node1 -->
<g id="edge2" class="edge"><title>Node2&#45;&gt;Node1</title>
<path fill="none" stroke="#9a32cd" stroke-dasharray="5,2" d="M54,-70.5644C54,-57.6243 54,-42.1862 54,-31.2157"/>
<polygon fill="#9a32cd" stroke="#9a32cd" points="50.5001,-70.6936 54,-80.6936 57.5001,-70.6936 50.5001,-70.6936"/>
<text text-anchor="middle" x="84" y="-53.5" font-family="Helvetica,sans-Serif" font-size="10.00"> angleRanges</text>
</g>
</g>
</svg>
