<?xml version="1.0" encoding="UTF-8" standalone="no"?>
<!DOCTYPE svg PUBLIC "-//W3C//DTD SVG 1.1//EN"
 "http://www.w3.org/Graphics/SVG/1.1/DTD/svg11.dtd">
<!-- Generated by graphviz version 2.28.0 (20110507.0327)
 -->
<!-- Title: EdgeReport2_struct Pages: 1 -->
<svg width="137pt" height="174pt"
 viewBox="0.00 0.00 137.00 174.00" xmlns="http://www.w3.org/2000/svg" xmlns:xlink="http://www.w3.org/1999/xlink">
<g id="graph1" class="graph" transform="scale(1 1) rotate(0) translate(4 170)">
<title>EdgeReport2_struct</title>
<polygon fill="white" stroke="white" points="-4,5 -4,-170 134,-170 134,5 -4,5"/>
<!-- Node1 -->
<g id="node1" class="node"><title>Node1</title>
<polygon fill="#bfbfbf" stroke="black" points="-0.5,-0.5 -0.5,-19.5 102.5,-19.5 102.5,-0.5 -0.5,-0.5"/>
<text text-anchor="middle" x="51" y="-7.5" font-family="Helvetica,sans-Serif" font-size="10.00">EdgeReport2_struct</text>
</g>
<!-- Node2 -->
<g id="node2" class="node"><title>Node2</title>
<a xlink:href="struct_edge_info__struct.html" target="_top" xlink:title="EdgeInfo_struct">
<polygon fill="white" stroke="black" points="9,-68.5 9,-87.5 93,-87.5 93,-68.5 9,-68.5"/>
<text text-anchor="middle" x="51" y="-75.5" font-family="Helvetica,sans-Serif" font-size="10.00">EdgeInfo_struct</text>
</a>
</g>
<!-- Node2&#45;&gt;Node1 -->
<g id="edge2" class="edge"><title>Node2&#45;&gt;Node1</title>
<path fill="none" stroke="#9a32cd" stroke-dasharray="5,2" d="M51,-58.0413C51,-45.4724 51,-29.5631 51,-19.8411"/>
<polygon fill="#9a32cd" stroke="#9a32cd" points="47.5001,-58.3716 51,-68.3717 54.5001,-58.3717 47.5001,-58.3716"/>
<text text-anchor="middle" x="66" y="-41.5" font-family="Helvetica,sans-Serif" font-size="10.00"> edges</text>
</g>
<!-- Node3 -->
<g id="node4" class="node"><title>Node3</title>
<a xlink:href="struct_point_float__struct.html" target="_top" xlink:title="PointFloat_struct">
<polygon fill="white" stroke="black" points="5.5,-146.5 5.5,-165.5 96.5,-165.5 96.5,-146.5 5.5,-146.5"/>
<text text-anchor="middle" x="51" y="-153.5" font-family="Helvetica,sans-Serif" font-size="10.00">PointFloat_struct</text>
</a>
</g>
<!-- Node3&#45;&gt;Node2 -->
<g id="edge4" class="edge"><title>Node3&#45;&gt;Node2</title>
<path fill="none" stroke="#9a32cd" stroke-dasharray="5,2" d="M51,-136.224C51,-120.697 51,-99.3582 51,-87.6165"/>
<polygon fill="#9a32cd" stroke="#9a32cd" points="47.5001,-136.282 51,-146.282 54.5001,-136.282 47.5001,-136.282"/>
<text text-anchor="middle" x="90" y="-120" font-family="Helvetica,sans-Serif" font-size="10.00"> position</text>
<text text-anchor="middle" x="90" y="-109" font-family="Helvetica,sans-Serif" font-size="10.00">calibratedPosition</text>
</g>
</g>
</svg>
