<?xml version="1.0" encoding="UTF-8" standalone="no"?>
<!DOCTYPE svg PUBLIC "-//W3C//DTD SVG 1.1//EN"
 "http://www.w3.org/Graphics/SVG/1.1/DTD/svg11.dtd">
<!-- Generated by graphviz version 2.28.0 (20110507.0327)
 -->
<!-- Title: ComputeDistancesReport_struct Pages: 1 -->
<svg width="137pt" height="196pt"
 viewBox="0.00 0.00 137.00 196.00" xmlns="http://www.w3.org/2000/svg" xmlns:xlink="http://www.w3.org/1999/xlink">
<g id="graph1" class="graph" transform="scale(1 1) rotate(0) translate(4 192)">
<title>ComputeDistancesReport_struct</title>
<polygon fill="white" stroke="white" points="-4,5 -4,-192 134,-192 134,5 -4,5"/>
<!-- Node1 -->
<g id="node1" class="node"><title>Node1</title>
<polygon fill="#bfbfbf" stroke="black" points="0,-1 0,-31 128,-31 128,-1 0,-1"/>
<text text-anchor="start" x="8" y="-19" font-family="Helvetica,sans-Serif" font-size="10.00">ComputeDistancesReport</text>
<text text-anchor="middle" x="64" y="-8" font-family="Helvetica,sans-Serif" font-size="10.00">_struct</text>
</g>
<!-- Node2 -->
<g id="node2" class="node"><title>Node2</title>
<a xlink:href="struct_disparity__struct.html" target="_top" xlink:title="Disparity_struct">
<polygon fill="white" stroke="black" points="21.5,-90.5 21.5,-109.5 106.5,-109.5 106.5,-90.5 21.5,-90.5"/>
<text text-anchor="middle" x="64" y="-97.5" font-family="Helvetica,sans-Serif" font-size="10.00">Disparity_struct</text>
</a>
</g>
<!-- Node2&#45;&gt;Node1 -->
<g id="edge2" class="edge"><title>Node2&#45;&gt;Node1</title>
<path fill="none" stroke="#9a32cd" stroke-dasharray="5,2" d="M64,-80.1139C64,-65.2014 64,-44.7195 64,-31.1839"/>
<polygon fill="#9a32cd" stroke="#9a32cd" points="60.5001,-80.2245 64,-90.2246 67.5001,-80.2246 60.5001,-80.2245"/>
<text text-anchor="middle" x="96.5" y="-64" font-family="Helvetica,sans-Serif" font-size="10.00"> distancesReal</text>
<text text-anchor="middle" x="96.5" y="-53" font-family="Helvetica,sans-Serif" font-size="10.00">distances</text>
</g>
<!-- Node3 -->
<g id="node4" class="node"><title>Node3</title>
<a xlink:href="struct_point_double__struct.html" target="_top" xlink:title="PointDouble_struct">
<polygon fill="white" stroke="black" points="14.5,-168.5 14.5,-187.5 113.5,-187.5 113.5,-168.5 14.5,-168.5"/>
<text text-anchor="middle" x="64" y="-175.5" font-family="Helvetica,sans-Serif" font-size="10.00">PointDouble_struct</text>
</a>
</g>
<!-- Node3&#45;&gt;Node2 -->
<g id="edge4" class="edge"><title>Node3&#45;&gt;Node2</title>
<path fill="none" stroke="#9a32cd" stroke-dasharray="5,2" d="M64,-158.224C64,-142.697 64,-121.358 64,-109.616"/>
<polygon fill="#9a32cd" stroke="#9a32cd" points="60.5001,-158.282 64,-168.282 67.5001,-158.282 60.5001,-158.282"/>
<text text-anchor="middle" x="85.5" y="-142" font-family="Helvetica,sans-Serif" font-size="10.00"> reference</text>
<text text-anchor="middle" x="85.5" y="-131" font-family="Helvetica,sans-Serif" font-size="10.00">current</text>
</g>
</g>
</svg>
