<?xml version="1.0" encoding="UTF-8" standalone="no"?>
<!DOCTYPE svg PUBLIC "-//W3C//DTD SVG 1.1//EN"
 "http://www.w3.org/Graphics/SVG/1.1/DTD/svg11.dtd">
<!-- Generated by graphviz version 2.28.0 (20110507.0327)
 -->
<!-- Title: testing::internal::bool_constant&lt; bool_value &gt; Pages: 1 -->
<svg width="211pt" height="118pt"
 viewBox="0.00 0.00 211.00 118.00" xmlns="http://www.w3.org/2000/svg" xmlns:xlink="http://www.w3.org/1999/xlink">
<g id="graph1" class="graph" transform="scale(1 1) rotate(0) translate(4 114)">
<title>testing::internal::bool_constant&lt; bool_value &gt;</title>
<polygon fill="white" stroke="white" points="-4,5 -4,-114 208,-114 208,5 -4,5"/>
<!-- Node1 -->
<g id="node1" class="node"><title>Node1</title>
<polygon fill="#bfbfbf" stroke="black" points="51,-68.5 51,-109.5 155,-109.5 155,-68.5 51,-68.5"/>
<text text-anchor="start" x="59" y="-97.5" font-family="Helvetica,sans-Serif" font-size="10.00">testing::internal::</text>
<text text-anchor="start" x="59" y="-86.5" font-family="Helvetica,sans-Serif" font-size="10.00">bool_constant&lt; bool</text>
<text text-anchor="middle" x="103" y="-75.5" font-family="Helvetica,sans-Serif" font-size="10.00">_value &gt;</text>
</g>
<!-- Node2 -->
<g id="node3" class="node"><title>Node2</title>
<a xlink:href="structtesting_1_1internal_1_1is__pointer.html" target="_top" xlink:title="testing::internal::\lis_pointer\&lt; false \&gt;">
<polygon fill="white" stroke="black" points="-0.5,-1 -0.5,-31 96.5,-31 96.5,-1 -0.5,-1"/>
<text text-anchor="start" x="7.5" y="-19" font-family="Helvetica,sans-Serif" font-size="10.00">testing::internal::</text>
<text text-anchor="middle" x="48" y="-8" font-family="Helvetica,sans-Serif" font-size="10.00">is_pointer&lt; false &gt;</text>
</a>
</g>
<!-- Node1&#45;&gt;Node2 -->
<g id="edge2" class="edge"><title>Node1&#45;&gt;Node2</title>
<path fill="none" stroke="midnightblue" d="M81.405,-60.1228C73.6853,-50.1573 65.314,-39.3508 58.8827,-31.0485"/>
<polygon fill="midnightblue" stroke="midnightblue" points="78.7885,-62.4604 87.6794,-68.2225 84.3223,-58.1736 78.7885,-62.4604"/>
</g>
<!-- Node3 -->
<g id="node5" class="node"><title>Node3</title>
<a xlink:href="structtesting_1_1internal_1_1is__pointer_3_01_t_01_5_01_4.html" target="_top" xlink:title="testing::internal::\lis_pointer\&lt; T * \&gt;">
<polygon fill="white" stroke="black" points="114.5,-1 114.5,-31 203.5,-31 203.5,-1 114.5,-1"/>
<text text-anchor="start" x="122.5" y="-19" font-family="Helvetica,sans-Serif" font-size="10.00">testing::internal::</text>
<text text-anchor="middle" x="159" y="-8" font-family="Helvetica,sans-Serif" font-size="10.00">is_pointer&lt; T * &gt;</text>
</a>
</g>
<!-- Node1&#45;&gt;Node3 -->
<g id="edge4" class="edge"><title>Node1&#45;&gt;Node3</title>
<path fill="none" stroke="midnightblue" d="M124.988,-60.1228C132.848,-50.1573 141.371,-39.3508 147.919,-31.0485"/>
<polygon fill="midnightblue" stroke="midnightblue" points="122.044,-58.2034 118.599,-68.2225 127.54,-62.5384 122.044,-58.2034"/>
</g>
</g>
</svg>
