<?xml version="1.0" encoding="UTF-8" standalone="no"?>
<!DOCTYPE svg PUBLIC "-//W3C//DTD SVG 1.1//EN"
 "http://www.w3.org/Graphics/SVG/1.1/DTD/svg11.dtd">
<!-- Generated by graphviz version 2.28.0 (20110507.0327)
 -->
<!-- Title: ConcentricRakeReport2_struct Pages: 1 -->
<svg width="272pt" height="340pt"
 viewBox="0.00 0.00 272.00 340.00" xmlns="http://www.w3.org/2000/svg" xmlns:xlink="http://www.w3.org/1999/xlink">
<g id="graph1" class="graph" transform="scale(1 1) rotate(0) translate(4 336)">
<title>ConcentricRakeReport2_struct</title>
<polygon fill="white" stroke="white" points="-4,5 -4,-336 269,-336 269,5 -4,5"/>
<!-- Node1 -->
<g id="node1" class="node"><title>Node1</title>
<polygon fill="#bfbfbf" stroke="black" points="-0.5,-1 -0.5,-31 118.5,-31 118.5,-1 -0.5,-1"/>
<text text-anchor="start" x="7.5" y="-19" font-family="Helvetica,sans-Serif" font-size="10.00">ConcentricRakeReport2</text>
<text text-anchor="middle" x="59" y="-8" font-family="Helvetica,sans-Serif" font-size="10.00">_struct</text>
</g>
<!-- Node2 -->
<g id="node2" class="node"><title>Node2</title>
<a xlink:href="struct_search_arc_info__struct.html" target="_top" xlink:title="SearchArcInfo_struct">
<polygon fill="white" stroke="black" points="59.5,-80.5 59.5,-99.5 166.5,-99.5 166.5,-80.5 59.5,-80.5"/>
<text text-anchor="middle" x="113" y="-87.5" font-family="Helvetica,sans-Serif" font-size="10.00">SearchArcInfo_struct</text>
</a>
</g>
<!-- Node2&#45;&gt;Node1 -->
<g id="edge2" class="edge"><title>Node2&#45;&gt;Node1</title>
<path fill="none" stroke="#9a32cd" stroke-dasharray="5,2" d="M100.477,-72.3022C91.1427,-59.8569 78.5314,-43.0418 69.6737,-31.2316"/>
<polygon fill="#9a32cd" stroke="#9a32cd" points="97.7934,-74.5579 106.593,-80.4579 103.393,-70.3579 97.7934,-74.5579"/>
<text text-anchor="middle" x="119.5" y="-53.5" font-family="Helvetica,sans-Serif" font-size="10.00"> searchArcs</text>
</g>
<!-- Node3 -->
<g id="node4" class="node"><title>Node3</title>
<a xlink:href="struct_edge_report2__struct.html" target="_top" xlink:title="EdgeReport2_struct">
<polygon fill="white" stroke="black" points="59.5,-158.5 59.5,-177.5 162.5,-177.5 162.5,-158.5 59.5,-158.5"/>
<text text-anchor="middle" x="111" y="-165.5" font-family="Helvetica,sans-Serif" font-size="10.00">EdgeReport2_struct</text>
</a>
</g>
<!-- Node3&#45;&gt;Node2 -->
<g id="edge4" class="edge"><title>Node3&#45;&gt;Node2</title>
<path fill="none" stroke="#9a32cd" stroke-dasharray="5,2" d="M111.494,-148.224C111.903,-132.697 112.464,-111.358 112.773,-99.6165"/>
<polygon fill="#9a32cd" stroke="#9a32cd" points="107.994,-148.193 111.229,-158.282 114.991,-148.377 107.994,-148.193"/>
<text text-anchor="middle" x="139.5" y="-126.5" font-family="Helvetica,sans-Serif" font-size="10.00"> edgeReport</text>
</g>
<!-- Node4 -->
<g id="node6" class="node"><title>Node4</title>
<a xlink:href="struct_edge_info__struct.html" target="_top" xlink:title="EdgeInfo_struct">
<polygon fill="white" stroke="black" points="56,-234.5 56,-253.5 140,-253.5 140,-234.5 56,-234.5"/>
<text text-anchor="middle" x="98" y="-241.5" font-family="Helvetica,sans-Serif" font-size="10.00">EdgeInfo_struct</text>
</a>
</g>
<!-- Node4&#45;&gt;Node1 -->
<g id="edge14" class="edge"><title>Node4&#45;&gt;Node1</title>
<path fill="none" stroke="#9a32cd" stroke-dasharray="5,2" d="M81.478,-226.905C70.1924,-214.693 56.2016,-196.838 50,-178 32.9294,-126.147 47.0867,-59.8743 54.8028,-31.2351"/>
<polygon fill="#9a32cd" stroke="#9a32cd" points="79.2614,-229.648 88.7299,-234.402 84.2924,-224.781 79.2614,-229.648"/>
<text text-anchor="middle" x="66.5" y="-132" font-family="Helvetica,sans-Serif" font-size="10.00"> firstEdges</text>
<text text-anchor="middle" x="66.5" y="-121" font-family="Helvetica,sans-Serif" font-size="10.00">lastEdges</text>
</g>
<!-- Node4&#45;&gt;Node3 -->
<g id="edge6" class="edge"><title>Node4&#45;&gt;Node3</title>
<path fill="none" stroke="#9a32cd" stroke-dasharray="5,2" d="M101.325,-224.072C103.941,-209.18 107.467,-189.111 109.46,-177.768"/>
<polygon fill="#9a32cd" stroke="#9a32cd" points="97.8255,-223.766 99.5423,-234.221 104.72,-224.977 97.8255,-223.766"/>
<text text-anchor="middle" x="122" y="-203.5" font-family="Helvetica,sans-Serif" font-size="10.00"> edges</text>
</g>
<!-- Node5 -->
<g id="node8" class="node"><title>Node5</title>
<a xlink:href="struct_point_float__struct.html" target="_top" xlink:title="PointFloat_struct">
<polygon fill="white" stroke="black" points="102.5,-312.5 102.5,-331.5 193.5,-331.5 193.5,-312.5 102.5,-312.5"/>
<text text-anchor="middle" x="148" y="-319.5" font-family="Helvetica,sans-Serif" font-size="10.00">PointFloat_struct</text>
</a>
</g>
<!-- Node5&#45;&gt;Node4 -->
<g id="edge8" class="edge"><title>Node5&#45;&gt;Node4</title>
<path fill="none" stroke="#9a32cd" stroke-dasharray="5,2" d="M112.48,-307.463C107.125,-303.887 102.298,-299.455 99,-294 91.5162,-281.622 93.5308,-264.075 95.729,-253.683"/>
<polygon fill="#9a32cd" stroke="#9a32cd" points="110.762,-310.512 121.187,-312.401 114.215,-304.423 110.762,-310.512"/>
<text text-anchor="middle" x="138" y="-286" font-family="Helvetica,sans-Serif" font-size="10.00"> position</text>
<text text-anchor="middle" x="138" y="-275" font-family="Helvetica,sans-Serif" font-size="10.00">calibratedPosition</text>
</g>
<!-- Node6 -->
<g id="node10" class="node"><title>Node6</title>
<a xlink:href="struct_arc_info2__struct.html" target="_top" xlink:title="ArcInfo2_struct">
<polygon fill="white" stroke="black" points="158,-196.5 158,-215.5 240,-215.5 240,-196.5 158,-196.5"/>
<text text-anchor="middle" x="199" y="-203.5" font-family="Helvetica,sans-Serif" font-size="10.00">ArcInfo2_struct</text>
</a>
</g>
<!-- Node5&#45;&gt;Node6 -->
<g id="edge12" class="edge"><title>Node5&#45;&gt;Node6</title>
<path fill="none" stroke="#9a32cd" stroke-dasharray="5,2" d="M167.718,-305.594C171.218,-302.1 174.529,-298.175 177,-294 192.235,-268.258 196.993,-232.191 198.419,-215.767"/>
<polygon fill="#9a32cd" stroke="#9a32cd" points="165.128,-303.214 160.005,-312.488 169.794,-308.433 165.128,-303.214"/>
<text text-anchor="middle" x="201.5" y="-280.5" font-family="Helvetica,sans-Serif" font-size="10.00"> center</text>
</g>
<!-- Node6&#45;&gt;Node2 -->
<g id="edge10" class="edge"><title>Node6&#45;&gt;Node2</title>
<path fill="none" stroke="#9a32cd" stroke-dasharray="5,2" d="M197.073,-186.32C194.196,-167.106 187.131,-137.333 170,-118 162.665,-109.723 152.246,-103.774 142.317,-99.6049"/>
<polygon fill="#9a32cd" stroke="#9a32cd" points="193.632,-187.008 198.352,-196.493 200.578,-186.134 193.632,-187.008"/>
<text text-anchor="middle" x="229.5" y="-165.5" font-family="Helvetica,sans-Serif" font-size="10.00"> arcCoordinates</text>
</g>
</g>
</svg>
