<?xml version="1.0" encoding="UTF-8" standalone="no"?>
<!DOCTYPE svg PUBLIC "-//W3C//DTD SVG 1.1//EN"
 "http://www.w3.org/Graphics/SVG/1.1/DTD/svg11.dtd">
<!-- Generated by graphviz version 2.28.0 (20110507.0327)
 -->
<!-- Title: LearnPatternAdvancedOptions_struct Pages: 1 -->
<svg width="412pt" height="87pt"
 viewBox="0.00 0.00 412.00 87.00" xmlns="http://www.w3.org/2000/svg" xmlns:xlink="http://www.w3.org/1999/xlink">
<g id="graph1" class="graph" transform="scale(1 1) rotate(0) translate(4 83)">
<title>LearnPatternAdvancedOptions_struct</title>
<polygon fill="white" stroke="white" points="-4,5 -4,-83 409,-83 409,5 -4,5"/>
<!-- Node1 -->
<g id="node1" class="node"><title>Node1</title>
<polygon fill="#bfbfbf" stroke="black" points="256,-24 256,-54 404,-54 404,-24 256,-24"/>
<text text-anchor="start" x="264" y="-42" font-family="Helvetica,sans-Serif" font-size="10.00">LearnPatternAdvancedOptions</text>
<text text-anchor="middle" x="330" y="-31" font-family="Helvetica,sans-Serif" font-size="10.00">_struct</text>
</g>
<!-- Node2 -->
<g id="node2" class="node"><title>Node2</title>
<a xlink:href="struct_learn_pattern_advanced_shift_options__struct.html" target="_top" xlink:title="LearnPatternAdvancedShift\lOptions_struct">
<polygon fill="white" stroke="black" points="8,-49 8,-79 142,-79 142,-49 8,-49"/>
<text text-anchor="start" x="16" y="-67" font-family="Helvetica,sans-Serif" font-size="10.00">LearnPatternAdvancedShift</text>
<text text-anchor="middle" x="75" y="-56" font-family="Helvetica,sans-Serif" font-size="10.00">Options_struct</text>
</a>
</g>
<!-- Node2&#45;&gt;Node1 -->
<g id="edge2" class="edge"><title>Node2&#45;&gt;Node1</title>
<path fill="none" stroke="#9a32cd" stroke-dasharray="5,2" d="M152.141,-56.4762C184.956,-53.2336 223.176,-49.457 255.672,-46.2459"/>
<polygon fill="#9a32cd" stroke="#9a32cd" points="151.75,-52.9977 142.142,-57.4642 152.438,-59.9638 151.75,-52.9977"/>
<text text-anchor="middle" x="203" y="-57" font-family="Helvetica,sans-Serif" font-size="10.00"> shiftOptions</text>
</g>
<!-- Node3 -->
<g id="node4" class="node"><title>Node3</title>
<a xlink:href="struct_learn_pattern_advanced_rotation_options__struct.html" target="_top" xlink:title="LearnPatternAdvancedRotation\lOptions_struct">
<polygon fill="white" stroke="black" points="0,-0 0,-30 150,-30 150,-0 0,-0"/>
<text text-anchor="start" x="8" y="-18" font-family="Helvetica,sans-Serif" font-size="10.00">LearnPatternAdvancedRotation</text>
<text text-anchor="middle" x="75" y="-7" font-family="Helvetica,sans-Serif" font-size="10.00">Options_struct</text>
</a>
</g>
<!-- Node3&#45;&gt;Node1 -->
<g id="edge4" class="edge"><title>Node3&#45;&gt;Node1</title>
<path fill="none" stroke="#9a32cd" stroke-dasharray="5,2" d="M160.497,-23.0155C191.322,-25.9396 225.901,-29.2199 255.676,-32.0444"/>
<polygon fill="#9a32cd" stroke="#9a32cd" points="160.485,-19.4987 150.199,-22.0386 159.824,-26.4675 160.485,-19.4987"/>
<text text-anchor="middle" x="203" y="-32" font-family="Helvetica,sans-Serif" font-size="10.00"> rotationOptions</text>
</g>
</g>
</svg>
