<?xml version="1.0" encoding="UTF-8" standalone="no"?>
<!DOCTYPE svg PUBLIC "-//W3C//DTD SVG 1.1//EN"
 "http://www.w3.org/Graphics/SVG/1.1/DTD/svg11.dtd">
<!-- Generated by graphviz version 2.28.0 (20110507.0327)
 -->
<!-- Title: ContourInfo2_struct Pages: 1 -->
<svg width="652pt" height="245pt"
 viewBox="0.00 0.00 652.00 245.00" xmlns="http://www.w3.org/2000/svg" xmlns:xlink="http://www.w3.org/1999/xlink">
<g id="graph1" class="graph" transform="scale(1 1) rotate(0) translate(4 241)">
<title>ContourInfo2_struct</title>
<polygon fill="white" stroke="white" points="-4,5 -4,-241 649,-241 649,5 -4,5"/>
<!-- Node1 -->
<g id="node1" class="node"><title>Node1</title>
<polygon fill="#bfbfbf" stroke="black" points="542.5,-137.5 542.5,-156.5 643.5,-156.5 643.5,-137.5 542.5,-137.5"/>
<text text-anchor="middle" x="593" y="-144.5" font-family="Helvetica,sans-Serif" font-size="10.00">ContourInfo2_struct</text>
</g>
<!-- Node2 -->
<g id="node2" class="node"><title>Node2</title>
<a xlink:href="struct_r_g_b_value__struct.html" target="_top" xlink:title="RGBValue_struct">
<polygon fill="white" stroke="black" points="366,-155.5 366,-174.5 458,-174.5 458,-155.5 366,-155.5"/>
<text text-anchor="middle" x="412" y="-162.5" font-family="Helvetica,sans-Serif" font-size="10.00">RGBValue_struct</text>
</a>
</g>
<!-- Node2&#45;&gt;Node1 -->
<g id="edge2" class="edge"><title>Node2&#45;&gt;Node1</title>
<path fill="none" stroke="#9a32cd" stroke-dasharray="5,2" d="M468.401,-159.429C492.06,-157.05 519.457,-154.295 542.436,-151.984"/>
<polygon fill="#9a32cd" stroke="#9a32cd" points="467.769,-155.975 458.169,-160.458 468.469,-162.94 467.769,-155.975"/>
<text text-anchor="middle" x="503" y="-160" font-family="Helvetica,sans-Serif" font-size="10.00"> color</text>
</g>
<!-- Node3 -->
<g id="node4" class="node"><title>Node3</title>
<a xlink:href="union_contour_union__union.html" target="_top" xlink:title="ContourUnion_union">
<polygon fill="white" stroke="black" points="360,-117.5 360,-136.5 464,-136.5 464,-117.5 360,-117.5"/>
<text text-anchor="middle" x="412" y="-124.5" font-family="Helvetica,sans-Serif" font-size="10.00">ContourUnion_union</text>
</a>
</g>
<!-- Node3&#45;&gt;Node1 -->
<g id="edge4" class="edge"><title>Node3&#45;&gt;Node1</title>
<path fill="none" stroke="#9a32cd" stroke-dasharray="5,2" d="M474.535,-132.735C490.643,-134.336 507.983,-136.147 524,-138 529.915,-138.684 536.113,-139.445 542.259,-140.225"/>
<polygon fill="#9a32cd" stroke="#9a32cd" points="474.448,-129.21 464.154,-131.715 473.764,-136.176 474.448,-129.21"/>
<text text-anchor="middle" x="503" y="-141" font-family="Helvetica,sans-Serif" font-size="10.00"> structure</text>
</g>
<!-- Node4 -->
<g id="node6" class="node"><title>Node4</title>
<a xlink:href="struct_closed_contour__struct.html" target="_top" xlink:title="ClosedContour_struct">
<polygon fill="white" stroke="black" points="138,-193.5 138,-212.5 248,-212.5 248,-193.5 138,-193.5"/>
<text text-anchor="middle" x="193" y="-200.5" font-family="Helvetica,sans-Serif" font-size="10.00">ClosedContour_struct</text>
</a>
</g>
<!-- Node4&#45;&gt;Node3 -->
<g id="edge6" class="edge"><title>Node4&#45;&gt;Node3</title>
<path fill="none" stroke="#9a32cd" stroke-dasharray="5,2" d="M258.167,-197.085C285.589,-192.297 316.975,-183.642 342,-168 352.713,-161.304 349.724,-153.349 360,-146 365.303,-142.207 371.452,-139.079 377.606,-136.532"/>
<polygon fill="#9a32cd" stroke="#9a32cd" points="257.579,-193.634 248.263,-198.679 258.692,-200.545 257.579,-193.634"/>
<text text-anchor="middle" x="304" y="-198" font-family="Helvetica,sans-Serif" font-size="10.00"> closedContour</text>
</g>
<!-- Node5 -->
<g id="node8" class="node"><title>Node5</title>
<a xlink:href="struct_point__struct.html" target="_top" xlink:title="Point_struct">
<polygon fill="white" stroke="black" points="0.5,-159.5 0.5,-178.5 69.5,-178.5 69.5,-159.5 0.5,-159.5"/>
<text text-anchor="middle" x="35" y="-166.5" font-family="Helvetica,sans-Serif" font-size="10.00">Point_struct</text>
</a>
</g>
<!-- Node5&#45;&gt;Node3 -->
<g id="edge20" class="edge"><title>Node5&#45;&gt;Node3</title>
<path fill="none" stroke="#9a32cd" stroke-dasharray="5,2" d="M58.1179,-184.311C67.1607,-190.23 77.863,-196.812 88,-202 109.306,-212.903 114.498,-217.474 138,-222 186.007,-231.245 199.21,-225.102 248,-222 290.032,-219.328 310.11,-237.511 342,-210 364.373,-190.699 339.985,-167.737 360,-146 363.584,-142.107 368.041,-139.009 372.816,-136.543"/>
<polygon fill="#9a32cd" stroke="#9a32cd" points="59.9689,-181.338 49.7106,-178.689 56.0779,-187.157 59.9689,-181.338"/>
<text text-anchor="middle" x="193" y="-229" font-family="Helvetica,sans-Serif" font-size="10.00"> point</text>
</g>
<!-- Node5&#45;&gt;Node4 -->
<g id="edge8" class="edge"><title>Node5&#45;&gt;Node4</title>
<path fill="none" stroke="#9a32cd" stroke-dasharray="5,2" d="M79.4157,-179.082C82.3195,-179.737 85.2012,-180.381 88,-181 107.011,-185.204 128.015,-189.679 146.142,-193.488"/>
<polygon fill="#9a32cd" stroke="#9a32cd" points="80.0738,-175.642 69.5465,-176.837 78.5211,-182.468 80.0738,-175.642"/>
<text text-anchor="middle" x="104" y="-190" font-family="Helvetica,sans-Serif" font-size="10.00"> points</text>
</g>
<!-- Node6 -->
<g id="node10" class="node"><title>Node6</title>
<a xlink:href="struct_open_contour__struct.html" target="_top" xlink:title="OpenContour_struct">
<polygon fill="white" stroke="black" points="141,-155.5 141,-174.5 245,-174.5 245,-155.5 141,-155.5"/>
<text text-anchor="middle" x="193" y="-162.5" font-family="Helvetica,sans-Serif" font-size="10.00">OpenContour_struct</text>
</a>
</g>
<!-- Node5&#45;&gt;Node6 -->
<g id="edge12" class="edge"><title>Node5&#45;&gt;Node6</title>
<path fill="none" stroke="#9a32cd" stroke-dasharray="5,2" d="M79.9686,-167.873C98.8636,-167.388 121.073,-166.819 140.712,-166.315"/>
<polygon fill="#9a32cd" stroke="#9a32cd" points="79.7566,-164.377 69.8497,-168.132 79.9361,-171.374 79.7566,-164.377"/>
<text text-anchor="middle" x="104" y="-170" font-family="Helvetica,sans-Serif" font-size="10.00"> points</text>
</g>
<!-- Node7 -->
<g id="node13" class="node"><title>Node7</title>
<a xlink:href="struct_line__struct.html" target="_top" xlink:title="Line_struct">
<polygon fill="white" stroke="black" points="160.5,-117.5 160.5,-136.5 225.5,-136.5 225.5,-117.5 160.5,-117.5"/>
<text text-anchor="middle" x="193" y="-124.5" font-family="Helvetica,sans-Serif" font-size="10.00">Line_struct</text>
</a>
</g>
<!-- Node5&#45;&gt;Node7 -->
<g id="edge16" class="edge"><title>Node5&#45;&gt;Node7</title>
<path fill="none" stroke="#9a32cd" stroke-dasharray="5,2" d="M58.446,-153.995C67.3052,-148.75 77.7931,-143.343 88,-140 111.517,-132.297 139.399,-129.109 160.371,-127.814"/>
<polygon fill="#9a32cd" stroke="#9a32cd" points="56.5351,-151.061 49.8834,-159.308 60.2259,-157.009 56.5351,-151.061"/>
<text text-anchor="middle" x="104" y="-154" font-family="Helvetica,sans-Serif" font-size="10.00"> end</text>
<text text-anchor="middle" x="104" y="-143" font-family="Helvetica,sans-Serif" font-size="10.00">start</text>
</g>
<!-- Node10 -->
<g id="node21" class="node"><title>Node10</title>
<a xlink:href="struct_annulus__struct.html" target="_top" xlink:title="Annulus_struct">
<polygon fill="white" stroke="black" points="152,-79.5 152,-98.5 234,-98.5 234,-79.5 152,-79.5"/>
<text text-anchor="middle" x="193" y="-86.5" font-family="Helvetica,sans-Serif" font-size="10.00">Annulus_struct</text>
</a>
</g>
<!-- Node5&#45;&gt;Node10 -->
<g id="edge26" class="edge"><title>Node5&#45;&gt;Node10</title>
<path fill="none" stroke="#9a32cd" stroke-dasharray="5,2" d="M49.4333,-151.428C59.0172,-140.044 72.8506,-125.759 88,-117 107.425,-105.769 131.491,-98.915 151.578,-94.802"/>
<polygon fill="#9a32cd" stroke="#9a32cd" points="46.5347,-149.447 42.9813,-159.428 51.9834,-153.842 46.5347,-149.447"/>
<text text-anchor="middle" x="104" y="-120" font-family="Helvetica,sans-Serif" font-size="10.00"> center</text>
</g>
<!-- Node6&#45;&gt;Node3 -->
<g id="edge10" class="edge"><title>Node6&#45;&gt;Node3</title>
<path fill="none" stroke="#9a32cd" stroke-dasharray="5,2" d="M255.095,-155.647C281.815,-151.414 313.503,-146.199 342,-141 349.576,-139.618 357.601,-138.068 365.397,-136.517"/>
<polygon fill="#9a32cd" stroke="#9a32cd" points="254.447,-152.206 245.114,-157.22 255.537,-159.121 254.447,-152.206"/>
<text text-anchor="middle" x="304" y="-156" font-family="Helvetica,sans-Serif" font-size="10.00"> openContour</text>
</g>
<!-- Node7&#45;&gt;Node3 -->
<g id="edge14" class="edge"><title>Node7&#45;&gt;Node3</title>
<path fill="none" stroke="#9a32cd" stroke-dasharray="5,2" d="M235.993,-127C271.314,-127 321.944,-127 359.667,-127"/>
<polygon fill="#9a32cd" stroke="#9a32cd" points="235.554,-123.5 225.554,-127 235.554,-130.5 235.554,-123.5"/>
<text text-anchor="middle" x="304" y="-130" font-family="Helvetica,sans-Serif" font-size="10.00"> line</text>
</g>
<!-- Node8 -->
<g id="node16" class="node"><title>Node8</title>
<a xlink:href="struct_rotated_rect__struct.html" target="_top" xlink:title="RotatedRect_struct">
<polygon fill="white" stroke="black" points="142.5,-41.5 142.5,-60.5 243.5,-60.5 243.5,-41.5 142.5,-41.5"/>
<text text-anchor="middle" x="193" y="-48.5" font-family="Helvetica,sans-Serif" font-size="10.00">RotatedRect_struct</text>
</a>
</g>
<!-- Node8&#45;&gt;Node3 -->
<g id="edge18" class="edge"><title>Node8&#45;&gt;Node3</title>
<path fill="none" stroke="#9a32cd" stroke-dasharray="5,2" d="M253.493,-59.5274C281.077,-64.6673 313.898,-72.5031 342,-84 363.164,-92.6583 385.173,-107.578 398.483,-117.367"/>
<polygon fill="#9a32cd" stroke="#9a32cd" points="254.046,-56.0709 243.586,-57.754 252.813,-62.9614 254.046,-56.0709"/>
<text text-anchor="middle" x="304" y="-87" font-family="Helvetica,sans-Serif" font-size="10.00"> rotatedRect</text>
</g>
<!-- Node9 -->
<g id="node19" class="node"><title>Node9</title>
<a xlink:href="struct_rect__struct.html" target="_top" xlink:title="Rect_struct">
<polygon fill="white" stroke="black" points="159.5,-0.5 159.5,-19.5 226.5,-19.5 226.5,-0.5 159.5,-0.5"/>
<text text-anchor="middle" x="193" y="-7.5" font-family="Helvetica,sans-Serif" font-size="10.00">Rect_struct</text>
</a>
</g>
<!-- Node9&#45;&gt;Node3 -->
<g id="edge22" class="edge"><title>Node9&#45;&gt;Node3</title>
<path fill="none" stroke="#9a32cd" stroke-dasharray="5,2" d="M236.816,-9.77386C268.04,-11.4324 310.264,-17.6045 342,-37 374.591,-56.9183 397.412,-98.3331 406.554,-117.225"/>
<polygon fill="#9a32cd" stroke="#9a32cd" points="236.811,-6.27099 226.68,-9.37185 236.533,-13.2655 236.811,-6.27099"/>
<text text-anchor="middle" x="304" y="-51" font-family="Helvetica,sans-Serif" font-size="10.00"> rect</text>
<text text-anchor="middle" x="304" y="-40" font-family="Helvetica,sans-Serif" font-size="10.00">ovalBoundingBox</text>
</g>
<!-- Node10&#45;&gt;Node3 -->
<g id="edge24" class="edge"><title>Node10&#45;&gt;Node3</title>
<path fill="none" stroke="#9a32cd" stroke-dasharray="5,2" d="M244.497,-96.0822C273.164,-100.294 309.67,-105.979 342,-112 350.798,-113.638 360.189,-115.562 369.119,-117.475"/>
<polygon fill="#9a32cd" stroke="#9a32cd" points="244.713,-92.5768 234.313,-94.5992 243.704,-99.5037 244.713,-92.5768"/>
<text text-anchor="middle" x="304" y="-115" font-family="Helvetica,sans-Serif" font-size="10.00"> annulus</text>
</g>
</g>
</svg>
