<?xml version="1.0" encoding="UTF-8" standalone="no"?>
<!DOCTYPE svg PUBLIC "-//W3C//DTD SVG 1.1//EN"
 "http://www.w3.org/Graphics/SVG/1.1/DTD/svg11.dtd">
<!-- Generated by graphviz version 2.28.0 (20110507.0327)
 -->
<!-- Title: FindEdgeOptions2_struct Pages: 1 -->
<svg width="226pt" height="128pt"
 viewBox="0.00 0.00 226.00 128.00" xmlns="http://www.w3.org/2000/svg" xmlns:xlink="http://www.w3.org/1999/xlink">
<g id="graph1" class="graph" transform="scale(1 1) rotate(0) translate(4 124)">
<title>FindEdgeOptions2_struct</title>
<polygon fill="white" stroke="white" points="-4,5 -4,-124 223,-124 223,5 -4,5"/>
<!-- Node1 -->
<g id="node1" class="node"><title>Node1</title>
<polygon fill="#bfbfbf" stroke="black" points="41.5,-0.5 41.5,-19.5 168.5,-19.5 168.5,-0.5 41.5,-0.5"/>
<text text-anchor="middle" x="105" y="-7.5" font-family="Helvetica,sans-Serif" font-size="10.00">FindEdgeOptions2_struct</text>
</g>
<!-- Node2 -->
<g id="node2" class="node"><title>Node2</title>
<a xlink:href="struct_r_g_b_value__struct.html" target="_top" xlink:title="RGBValue_struct">
<polygon fill="white" stroke="black" points="0,-100.5 0,-119.5 92,-119.5 92,-100.5 0,-100.5"/>
<text text-anchor="middle" x="46" y="-107.5" font-family="Helvetica,sans-Serif" font-size="10.00">RGBValue_struct</text>
</a>
</g>
<!-- Node2&#45;&gt;Node1 -->
<g id="edge2" class="edge"><title>Node2&#45;&gt;Node1</title>
<path fill="none" stroke="#9a32cd" stroke-dasharray="5,2" d="M45.31,-89.9339C45.6755,-74.6146 48.3512,-53.218 59,-38 64.6276,-29.9577 73.4815,-23.9463 81.925,-19.6628"/>
<polygon fill="#9a32cd" stroke="#9a32cd" points="41.8124,-90.2875 45.387,-100.261 48.8122,-90.2352 41.8124,-90.2875"/>
<text text-anchor="middle" x="100.5" y="-74" font-family="Helvetica,sans-Serif" font-size="10.00"> searchEdgesColor</text>
<text text-anchor="middle" x="100.5" y="-63" font-family="Helvetica,sans-Serif" font-size="10.00">searchAreaColor</text>
<text text-anchor="middle" x="100.5" y="-52" font-family="Helvetica,sans-Serif" font-size="10.00">resultColor</text>
<text text-anchor="middle" x="100.5" y="-41" font-family="Helvetica,sans-Serif" font-size="10.00">searchLinesColor</text>
</g>
<!-- Node3 -->
<g id="node4" class="node"><title>Node3</title>
<a xlink:href="struct_edge_options2__struct.html" target="_top" xlink:title="EdgeOptions2_struct">
<polygon fill="white" stroke="black" points="110,-100.5 110,-119.5 218,-119.5 218,-100.5 110,-100.5"/>
<text text-anchor="middle" x="164" y="-107.5" font-family="Helvetica,sans-Serif" font-size="10.00">EdgeOptions2_struct</text>
</a>
</g>
<!-- Node3&#45;&gt;Node1 -->
<g id="edge4" class="edge"><title>Node3&#45;&gt;Node1</title>
<path fill="none" stroke="#9a32cd" stroke-dasharray="5,2" d="M161.498,-90.1169C158.738,-74.9044 153.12,-53.5622 142,-38 136.637,-30.4948 128.537,-24.2475 121.282,-19.6591"/>
<polygon fill="#9a32cd" stroke="#9a32cd" points="158.096,-91.0166 163.095,-100.358 165.012,-89.9381 158.096,-91.0166"/>
<text text-anchor="middle" x="188" y="-57.5" font-family="Helvetica,sans-Serif" font-size="10.00"> edgeOptions</text>
</g>
</g>
</svg>
