<?xml version="1.0" encoding="UTF-8" standalone="no"?>
<!DOCTYPE svg PUBLIC "-//W3C//DTD SVG 1.1//EN"
 "http://www.w3.org/Graphics/SVG/1.1/DTD/svg11.dtd">
<!-- Generated by graphviz version 2.28.0 (20110507.0327)
 -->
<!-- Title: AxisReport_struct Pages: 1 -->
<svg width="140pt" height="118pt"
 viewBox="0.00 0.00 140.00 118.00" xmlns="http://www.w3.org/2000/svg" xmlns:xlink="http://www.w3.org/1999/xlink">
<g id="graph1" class="graph" transform="scale(1 1) rotate(0) translate(4 114)">
<title>AxisReport_struct</title>
<polygon fill="white" stroke="white" points="-4,5 -4,-114 137,-114 137,5 -4,5"/>
<!-- Node1 -->
<g id="node1" class="node"><title>Node1</title>
<polygon fill="#bfbfbf" stroke="black" points="-0.5,-0.5 -0.5,-19.5 94.5,-19.5 94.5,-0.5 -0.5,-0.5"/>
<text text-anchor="middle" x="47" y="-7.5" font-family="Helvetica,sans-Serif" font-size="10.00">AxisReport_struct</text>
</g>
<!-- Node2 -->
<g id="node2" class="node"><title>Node2</title>
<a xlink:href="struct_point_float__struct.html" target="_top" xlink:title="PointFloat_struct">
<polygon fill="white" stroke="black" points="1.5,-90.5 1.5,-109.5 92.5,-109.5 92.5,-90.5 1.5,-90.5"/>
<text text-anchor="middle" x="47" y="-97.5" font-family="Helvetica,sans-Serif" font-size="10.00">PointFloat_struct</text>
</a>
</g>
<!-- Node2&#45;&gt;Node1 -->
<g id="edge2" class="edge"><title>Node2&#45;&gt;Node1</title>
<path fill="none" stroke="#9a32cd" stroke-dasharray="5,2" d="M47,-79.9784C47,-61.3096 47,-33.6696 47,-19.7241"/>
<polygon fill="#9a32cd" stroke="#9a32cd" points="43.5001,-80.2405 47,-90.2405 50.5001,-80.2405 43.5001,-80.2405"/>
<text text-anchor="middle" x="89.5" y="-63.5" font-family="Helvetica,sans-Serif" font-size="10.00"> secondaryAxisEnd</text>
<text text-anchor="middle" x="89.5" y="-52.5" font-family="Helvetica,sans-Serif" font-size="10.00">origin</text>
<text text-anchor="middle" x="89.5" y="-41.5" font-family="Helvetica,sans-Serif" font-size="10.00">mainAxisEnd</text>
</g>
</g>
</svg>
