<?xml version="1.0" encoding="UTF-8" standalone="no"?>
<!DOCTYPE svg PUBLIC "-//W3C//DTD SVG 1.1//EN"
 "http://www.w3.org/Graphics/SVG/1.1/DTD/svg11.dtd">
<!-- Generated by graphviz version 2.28.0 (20110507.0327)
 -->
<!-- Title: GetCalibrationInfoReport_struct Pages: 1 -->
<svg width="520pt" height="164pt"
 viewBox="0.00 0.00 520.00 164.00" xmlns="http://www.w3.org/2000/svg" xmlns:xlink="http://www.w3.org/1999/xlink">
<g id="graph1" class="graph" transform="scale(1 1) rotate(0) translate(4 160)">
<title>GetCalibrationInfoReport_struct</title>
<polygon fill="white" stroke="white" points="-4,5 -4,-160 517,-160 517,5 -4,5"/>
<!-- Node1 -->
<g id="node1" class="node"><title>Node1</title>
<polygon fill="#bfbfbf" stroke="black" points="390,-71 390,-101 512,-101 512,-71 390,-71"/>
<text text-anchor="start" x="398" y="-89" font-family="Helvetica,sans-Serif" font-size="10.00">GetCalibrationInfoReport</text>
<text text-anchor="middle" x="451" y="-78" font-family="Helvetica,sans-Serif" font-size="10.00">_struct</text>
</g>
<!-- Node2 -->
<g id="node2" class="node"><title>Node2</title>
<a xlink:href="struct_error_statistics__struct.html" target="_top" xlink:title="ErrorStatistics_struct">
<polygon fill="white" stroke="black" points="169.5,-136.5 169.5,-155.5 278.5,-155.5 278.5,-136.5 169.5,-136.5"/>
<text text-anchor="middle" x="224" y="-143.5" font-family="Helvetica,sans-Serif" font-size="10.00">ErrorStatistics_struct</text>
</a>
</g>
<!-- Node2&#45;&gt;Node1 -->
<g id="edge2" class="edge"><title>Node2&#45;&gt;Node1</title>
<path fill="none" stroke="#9a32cd" stroke-dasharray="5,2" d="M288.672,-134.711C314.72,-129.541 345.018,-122.814 372,-115 385.6,-111.061 400.217,-105.889 413.081,-101.003"/>
<polygon fill="#9a32cd" stroke="#9a32cd" points="287.687,-131.337 278.542,-136.687 289.027,-138.208 287.687,-131.337"/>
<text text-anchor="middle" x="339" y="-133" font-family="Helvetica,sans-Serif" font-size="10.00"> errorStatistics</text>
</g>
<!-- Node3 -->
<g id="node4" class="node"><title>Node3</title>
<a xlink:href="struct_grid_descriptor__struct.html" target="_top" xlink:title="GridDescriptor_struct">
<polygon fill="white" stroke="black" points="169.5,-98.5 169.5,-117.5 278.5,-117.5 278.5,-98.5 169.5,-98.5"/>
<text text-anchor="middle" x="224" y="-105.5" font-family="Helvetica,sans-Serif" font-size="10.00">GridDescriptor_struct</text>
</a>
</g>
<!-- Node3&#45;&gt;Node1 -->
<g id="edge4" class="edge"><title>Node3&#45;&gt;Node1</title>
<path fill="none" stroke="#9a32cd" stroke-dasharray="5,2" d="M288.653,-101.776C320.341,-98.6778 358.444,-94.9521 389.664,-91.8995"/>
<polygon fill="#9a32cd" stroke="#9a32cd" points="288.219,-98.3018 278.607,-102.758 288.9,-105.269 288.219,-98.3018"/>
<text text-anchor="middle" x="339" y="-103" font-family="Helvetica,sans-Serif" font-size="10.00"> gridDescriptor</text>
</g>
<!-- Node4 -->
<g id="node6" class="node"><title>Node4</title>
<a xlink:href="struct_calibration_learn_setup_info__struct.html" target="_top" xlink:title="CalibrationLearnSetupInfo\l_struct">
<polygon fill="white" stroke="black" points="160.5,-49 160.5,-79 287.5,-79 287.5,-49 160.5,-49"/>
<text text-anchor="start" x="168.5" y="-67" font-family="Helvetica,sans-Serif" font-size="10.00">CalibrationLearnSetupInfo</text>
<text text-anchor="middle" x="224" y="-56" font-family="Helvetica,sans-Serif" font-size="10.00">_struct</text>
</a>
</g>
<!-- Node4&#45;&gt;Node1 -->
<g id="edge6" class="edge"><title>Node4&#45;&gt;Node1</title>
<path fill="none" stroke="#9a32cd" stroke-dasharray="5,2" d="M298.005,-71.1382C327.751,-74.0468 361.718,-77.368 389.986,-80.1319"/>
<polygon fill="#9a32cd" stroke="#9a32cd" points="297.968,-67.6181 287.675,-70.1282 297.287,-74.5848 297.968,-67.6181"/>
<text text-anchor="middle" x="339" y="-82" font-family="Helvetica,sans-Serif" font-size="10.00"> learnSetupInfo</text>
</g>
<!-- Node5 -->
<g id="node8" class="node"><title>Node5</title>
<a xlink:href="struct_calibration_axis_info__struct.html" target="_top" xlink:title="CalibrationAxisInfo\l_struct">
<polygon fill="white" stroke="black" points="175.5,-0 175.5,-30 272.5,-30 272.5,-0 175.5,-0"/>
<text text-anchor="start" x="183.5" y="-18" font-family="Helvetica,sans-Serif" font-size="10.00">CalibrationAxisInfo</text>
<text text-anchor="middle" x="224" y="-7" font-family="Helvetica,sans-Serif" font-size="10.00">_struct</text>
</a>
</g>
<!-- Node5&#45;&gt;Node1 -->
<g id="edge8" class="edge"><title>Node5&#45;&gt;Node1</title>
<path fill="none" stroke="#9a32cd" stroke-dasharray="5,2" d="M282.33,-30.9052C309.608,-38.6935 342.612,-48.4365 372,-58 384.177,-61.9625 397.314,-66.5541 409.273,-70.8583"/>
<polygon fill="#9a32cd" stroke="#9a32cd" points="283.132,-27.4947 272.556,-28.1283 281.219,-34.2282 283.132,-27.4947"/>
<text text-anchor="middle" x="339" y="-61" font-family="Helvetica,sans-Serif" font-size="10.00"> axisInfo</text>
</g>
<!-- Node6 -->
<g id="node10" class="node"><title>Node6</title>
<a xlink:href="struct_point_float__struct.html" target="_top" xlink:title="PointFloat_struct">
<polygon fill="white" stroke="black" points="0.5,-5.5 0.5,-24.5 91.5,-24.5 91.5,-5.5 0.5,-5.5"/>
<text text-anchor="middle" x="46" y="-12.5" font-family="Helvetica,sans-Serif" font-size="10.00">PointFloat_struct</text>
</a>
</g>
<!-- Node6&#45;&gt;Node5 -->
<g id="edge10" class="edge"><title>Node6&#45;&gt;Node5</title>
<path fill="none" stroke="#9a32cd" stroke-dasharray="5,2" d="M102.048,-15C125.584,-15 152.796,-15 175.442,-15"/>
<polygon fill="#9a32cd" stroke="#9a32cd" points="101.868,-11.5001 91.8676,-15 101.868,-18.5001 101.868,-11.5001"/>
<text text-anchor="middle" x="126" y="-18" font-family="Helvetica,sans-Serif" font-size="10.00"> center</text>
</g>
</g>
</svg>
