<?xml version="1.0" encoding="UTF-8" standalone="no"?>
<!DOCTYPE svg PUBLIC "-//W3C//DTD SVG 1.1//EN"
 "http://www.w3.org/Graphics/SVG/1.1/DTD/svg11.dtd">
<!-- Generated by graphviz version 2.28.0 (20110507.0327)
 -->
<!-- Title: PairOfParallelLinePairsFeature_struct Pages: 1 -->
<svg width="185pt" height="230pt"
 viewBox="0.00 0.00 185.00 230.00" xmlns="http://www.w3.org/2000/svg" xmlns:xlink="http://www.w3.org/1999/xlink">
<g id="graph1" class="graph" transform="scale(1 1) rotate(0) translate(4 226)">
<title>PairOfParallelLinePairsFeature_struct</title>
<polygon fill="white" stroke="white" points="-4,5 -4,-226 182,-226 182,5 -4,5"/>
<!-- Node1 -->
<g id="node1" class="node"><title>Node1</title>
<polygon fill="#bfbfbf" stroke="black" points="-0.5,-1 -0.5,-31 148.5,-31 148.5,-1 -0.5,-1"/>
<text text-anchor="start" x="7.5" y="-19" font-family="Helvetica,sans-Serif" font-size="10.00">PairOfParallelLinePairsFeature</text>
<text text-anchor="middle" x="74" y="-8" font-family="Helvetica,sans-Serif" font-size="10.00">_struct</text>
</g>
<!-- Node2 -->
<g id="node2" class="node"><title>Node2</title>
<a xlink:href="struct_parallel_line_pair_feature__struct.html" target="_top" xlink:title="ParallelLinePairFeature\l_struct">
<polygon fill="white" stroke="black" points="15.5,-91 15.5,-121 132.5,-121 132.5,-91 15.5,-91"/>
<text text-anchor="start" x="23.5" y="-109" font-family="Helvetica,sans-Serif" font-size="10.00">ParallelLinePairFeature</text>
<text text-anchor="middle" x="74" y="-98" font-family="Helvetica,sans-Serif" font-size="10.00">_struct</text>
</a>
</g>
<!-- Node2&#45;&gt;Node1 -->
<g id="edge2" class="edge"><title>Node2&#45;&gt;Node1</title>
<path fill="none" stroke="#9a32cd" stroke-dasharray="5,2" d="M74,-80.6545C74,-64.711 74,-44.4341 74,-31.1036"/>
<polygon fill="#9a32cd" stroke="#9a32cd" points="70.5001,-80.8612 74,-90.8613 77.5001,-80.8613 70.5001,-80.8612"/>
<text text-anchor="middle" x="125.5" y="-64" font-family="Helvetica,sans-Serif" font-size="10.00"> secondParallelLinePair</text>
<text text-anchor="middle" x="125.5" y="-53" font-family="Helvetica,sans-Serif" font-size="10.00">firstParallelLinePair</text>
</g>
<!-- Node3 -->
<g id="node4" class="node"><title>Node3</title>
<a xlink:href="struct_point_float__struct.html" target="_top" xlink:title="PointFloat_struct">
<polygon fill="white" stroke="black" points="28.5,-202.5 28.5,-221.5 119.5,-221.5 119.5,-202.5 28.5,-202.5"/>
<text text-anchor="middle" x="74" y="-209.5" font-family="Helvetica,sans-Serif" font-size="10.00">PointFloat_struct</text>
</a>
</g>
<!-- Node3&#45;&gt;Node2 -->
<g id="edge4" class="edge"><title>Node3&#45;&gt;Node2</title>
<path fill="none" stroke="#9a32cd" stroke-dasharray="5,2" d="M74,-192.268C74,-171.84 74,-139.603 74,-121.175"/>
<polygon fill="#9a32cd" stroke="#9a32cd" points="70.5001,-192.489 74,-202.489 77.5001,-192.489 70.5001,-192.489"/>
<text text-anchor="middle" x="113.5" y="-176" font-family="Helvetica,sans-Serif" font-size="10.00"> secondStartPoint</text>
<text text-anchor="middle" x="113.5" y="-165" font-family="Helvetica,sans-Serif" font-size="10.00">firstEndPoint</text>
<text text-anchor="middle" x="113.5" y="-154" font-family="Helvetica,sans-Serif" font-size="10.00">firstStartPoint</text>
<text text-anchor="middle" x="113.5" y="-143" font-family="Helvetica,sans-Serif" font-size="10.00">secondEndPoint</text>
</g>
</g>
</svg>
