<?xml version="1.0" encoding="UTF-8" standalone="no"?>
<!DOCTYPE svg PUBLIC "-//W3C//DTD SVG 1.1//EN"
 "http://www.w3.org/Graphics/SVG/1.1/DTD/svg11.dtd">
<!-- Generated by graphviz version 2.28.0 (20110507.0327)
 -->
<!-- Title: CalibrationInfo_struct Pages: 1 -->
<svg width="472pt" height="153pt"
 viewBox="0.00 0.00 472.00 153.00" xmlns="http://www.w3.org/2000/svg" xmlns:xlink="http://www.w3.org/1999/xlink">
<g id="graph1" class="graph" transform="scale(1 1) rotate(0) translate(4 149)">
<title>CalibrationInfo_struct</title>
<polygon fill="white" stroke="white" points="-4,5 -4,-149 469,-149 469,5 -4,5"/>
<!-- Node1 -->
<g id="node1" class="node"><title>Node1</title>
<polygon fill="#bfbfbf" stroke="black" points="356.5,-57.5 356.5,-76.5 463.5,-76.5 463.5,-57.5 356.5,-57.5"/>
<text text-anchor="middle" x="410" y="-64.5" font-family="Helvetica,sans-Serif" font-size="10.00">CalibrationInfo_struct</text>
</g>
<!-- Node2 -->
<g id="node2" class="node"><title>Node2</title>
<a xlink:href="struct_learn_calibration_options__struct.html" target="_top" xlink:title="LearnCalibrationOptions\l_struct">
<polygon fill="white" stroke="black" points="160,-115 160,-145 280,-145 280,-115 160,-115"/>
<text text-anchor="start" x="168" y="-133" font-family="Helvetica,sans-Serif" font-size="10.00">LearnCalibrationOptions</text>
<text text-anchor="middle" x="220" y="-122" font-family="Helvetica,sans-Serif" font-size="10.00">_struct</text>
</a>
</g>
<!-- Node2&#45;&gt;Node1 -->
<g id="edge2" class="edge"><title>Node2&#45;&gt;Node1</title>
<path fill="none" stroke="#9a32cd" stroke-dasharray="5,2" d="M280.198,-111.845C298.76,-106.001 319.284,-99.3825 338,-93 353.282,-87.7885 370.269,-81.5828 383.795,-76.5414"/>
<polygon fill="#9a32cd" stroke="#9a32cd" points="278.898,-108.584 270.402,-114.915 280.991,-115.264 278.898,-108.584"/>
<text text-anchor="middle" x="320" y="-108" font-family="Helvetica,sans-Serif" font-size="10.00"> options</text>
</g>
<!-- Node3 -->
<g id="node4" class="node"><title>Node3</title>
<a xlink:href="struct_range_float__struct.html" target="_top" xlink:title="RangeFloat_struct">
<polygon fill="white" stroke="black" points="172,-76.5 172,-95.5 268,-95.5 268,-76.5 172,-76.5"/>
<text text-anchor="middle" x="220" y="-83.5" font-family="Helvetica,sans-Serif" font-size="10.00">RangeFloat_struct</text>
</a>
</g>
<!-- Node3&#45;&gt;Node1 -->
<g id="edge4" class="edge"><title>Node3&#45;&gt;Node1</title>
<path fill="none" stroke="#9a32cd" stroke-dasharray="5,2" d="M278.435,-80.1954C303.224,-77.6901 332.032,-74.7786 356.272,-72.3289"/>
<polygon fill="#9a32cd" stroke="#9a32cd" points="278.038,-76.7176 268.44,-81.2055 278.742,-83.6822 278.038,-76.7176"/>
<text text-anchor="middle" x="320" y="-81" font-family="Helvetica,sans-Serif" font-size="10.00"> range</text>
</g>
<!-- Node4 -->
<g id="node6" class="node"><title>Node4</title>
<a xlink:href="struct_grid_descriptor__struct.html" target="_top" xlink:title="GridDescriptor_struct">
<polygon fill="white" stroke="black" points="165.5,-38.5 165.5,-57.5 274.5,-57.5 274.5,-38.5 165.5,-38.5"/>
<text text-anchor="middle" x="220" y="-45.5" font-family="Helvetica,sans-Serif" font-size="10.00">GridDescriptor_struct</text>
</a>
</g>
<!-- Node4&#45;&gt;Node1 -->
<g id="edge6" class="edge"><title>Node4&#45;&gt;Node1</title>
<path fill="none" stroke="#9a32cd" stroke-dasharray="5,2" d="M284.752,-54.443C308.027,-56.7953 334.073,-59.4276 356.282,-61.6721"/>
<polygon fill="#9a32cd" stroke="#9a32cd" points="284.923,-50.9426 274.622,-53.4192 284.219,-57.9071 284.923,-50.9426"/>
<text text-anchor="middle" x="320" y="-63" font-family="Helvetica,sans-Serif" font-size="10.00"> grid</text>
</g>
<!-- Node5 -->
<g id="node8" class="node"><title>Node5</title>
<a xlink:href="struct_coordinate_system__struct.html" target="_top" xlink:title="CoordinateSystem_struct">
<polygon fill="white" stroke="black" points="156.5,-0.5 156.5,-19.5 283.5,-19.5 283.5,-0.5 156.5,-0.5"/>
<text text-anchor="middle" x="220" y="-7.5" font-family="Helvetica,sans-Serif" font-size="10.00">CoordinateSystem_struct</text>
</a>
</g>
<!-- Node5&#45;&gt;Node1 -->
<g id="edge8" class="edge"><title>Node5&#45;&gt;Node1</title>
<path fill="none" stroke="#9a32cd" stroke-dasharray="5,2" d="M268.423,-22.1445C289.788,-27.8274 315.268,-34.8993 338,-42 353.093,-46.7147 369.78,-52.5576 383.183,-57.409"/>
<polygon fill="#9a32cd" stroke="#9a32cd" points="269.172,-18.7223 258.61,-19.5544 267.385,-25.4905 269.172,-18.7223"/>
<text text-anchor="middle" x="320" y="-45" font-family="Helvetica,sans-Serif" font-size="10.00"> system</text>
</g>
<!-- Node6 -->
<g id="node10" class="node"><title>Node6</title>
<a xlink:href="struct_point_float__struct.html" target="_top" xlink:title="PointFloat_struct">
<polygon fill="white" stroke="black" points="0.5,-0.5 0.5,-19.5 91.5,-19.5 91.5,-0.5 0.5,-0.5"/>
<text text-anchor="middle" x="46" y="-7.5" font-family="Helvetica,sans-Serif" font-size="10.00">PointFloat_struct</text>
</a>
</g>
<!-- Node6&#45;&gt;Node5 -->
<g id="edge10" class="edge"><title>Node6&#45;&gt;Node5</title>
<path fill="none" stroke="#9a32cd" stroke-dasharray="5,2" d="M102.21,-10C119.466,-10 138.626,-10 156.355,-10"/>
<polygon fill="#9a32cd" stroke="#9a32cd" points="101.742,-6.5001 91.742,-10 101.742,-13.5001 101.742,-6.5001"/>
<text text-anchor="middle" x="124" y="-13" font-family="Helvetica,sans-Serif" font-size="10.00"> origin</text>
</g>
</g>
</svg>
