<?xml version="1.0" encoding="UTF-8" standalone="no"?>
<!DOCTYPE svg PUBLIC "-//W3C//DTD SVG 1.1//EN"
 "http://www.w3.org/Graphics/SVG/1.1/DTD/svg11.dtd">
<!-- Generated by graphviz version 2.28.0 (20110507.0327)
 -->
<!-- Title: CooccurrenceOptions_struct Pages: 1 -->
<svg width="124pt" height="120pt"
 viewBox="0.00 0.00 124.00 120.00" xmlns="http://www.w3.org/2000/svg" xmlns:xlink="http://www.w3.org/1999/xlink">
<g id="graph1" class="graph" transform="scale(1 1) rotate(0) translate(4 116)">
<title>CooccurrenceOptions_struct</title>
<polygon fill="white" stroke="white" points="-4,5 -4,-116 121,-116 121,5 -4,5"/>
<!-- Node1 -->
<g id="node1" class="node"><title>Node1</title>
<polygon fill="#bfbfbf" stroke="black" points="0,-1 0,-31 110,-31 110,-1 0,-1"/>
<text text-anchor="start" x="8" y="-19" font-family="Helvetica,sans-Serif" font-size="10.00">CooccurrenceOptions</text>
<text text-anchor="middle" x="55" y="-8" font-family="Helvetica,sans-Serif" font-size="10.00">_struct</text>
</g>
<!-- Node2 -->
<g id="node2" class="node"><title>Node2</title>
<a xlink:href="struct_displacement_vector__struct.html" target="_top" xlink:title="DisplacementVector\l_struct">
<polygon fill="white" stroke="black" points="3,-81 3,-111 107,-111 107,-81 3,-81"/>
<text text-anchor="start" x="11" y="-99" font-family="Helvetica,sans-Serif" font-size="10.00">DisplacementVector</text>
<text text-anchor="middle" x="55" y="-88" font-family="Helvetica,sans-Serif" font-size="10.00">_struct</text>
</a>
</g>
<!-- Node2&#45;&gt;Node1 -->
<g id="edge2" class="edge"><title>Node2&#45;&gt;Node1</title>
<path fill="none" stroke="#9a32cd" stroke-dasharray="5,2" d="M55,-70.5644C55,-57.6243 55,-42.1862 55,-31.2157"/>
<polygon fill="#9a32cd" stroke="#9a32cd" points="51.5001,-70.6936 55,-80.6936 58.5001,-70.6936 51.5001,-70.6936"/>
<text text-anchor="middle" x="85.5" y="-53.5" font-family="Helvetica,sans-Serif" font-size="10.00"> displacement</text>
</g>
</g>
</svg>
