<?xml version="1.0" encoding="UTF-8" standalone="no"?>
<!DOCTYPE svg PUBLIC "-//W3C//DTD SVG 1.1//EN"
 "http://www.w3.org/Graphics/SVG/1.1/DTD/svg11.dtd">
<!-- Generated by graphviz version 2.28.0 (20110507.0327)
 -->
<!-- Title: SpokeReport2_struct Pages: 1 -->
<svg width="267pt" height="328pt"
 viewBox="0.00 0.00 267.00 328.00" xmlns="http://www.w3.org/2000/svg" xmlns:xlink="http://www.w3.org/1999/xlink">
<g id="graph1" class="graph" transform="scale(1 1) rotate(0) translate(4 324)">
<title>SpokeReport2_struct</title>
<polygon fill="white" stroke="white" points="-4,5 -4,-324 264,-324 264,5 -4,5"/>
<!-- Node1 -->
<g id="node1" class="node"><title>Node1</title>
<polygon fill="#bfbfbf" stroke="black" points="0,-0.5 0,-19.5 108,-19.5 108,-0.5 0,-0.5"/>
<text text-anchor="middle" x="54" y="-7.5" font-family="Helvetica,sans-Serif" font-size="10.00">SpokeReport2_struct</text>
</g>
<!-- Node2 -->
<g id="node2" class="node"><title>Node2</title>
<a xlink:href="struct_search_line_info__struct.html" target="_top" xlink:title="SearchLineInfo_struct">
<polygon fill="white" stroke="black" points="53,-68.5 53,-87.5 163,-87.5 163,-68.5 53,-68.5"/>
<text text-anchor="middle" x="108" y="-75.5" font-family="Helvetica,sans-Serif" font-size="10.00">SearchLineInfo_struct</text>
</a>
</g>
<!-- Node2&#45;&gt;Node1 -->
<g id="edge2" class="edge"><title>Node2&#45;&gt;Node1</title>
<path fill="none" stroke="#9a32cd" stroke-dasharray="5,2" d="M94.3446,-60.3101C83.8176,-47.4437 69.675,-30.1583 61.2336,-19.8411"/>
<polygon fill="#9a32cd" stroke="#9a32cd" points="91.8992,-62.8484 100.94,-68.3717 97.3169,-58.4157 91.8992,-62.8484"/>
<text text-anchor="middle" x="114" y="-41.5" font-family="Helvetica,sans-Serif" font-size="10.00"> searchLines</text>
</g>
<!-- Node3 -->
<g id="node4" class="node"><title>Node3</title>
<a xlink:href="struct_edge_report2__struct.html" target="_top" xlink:title="EdgeReport2_struct">
<polygon fill="white" stroke="black" points="53.5,-146.5 53.5,-165.5 156.5,-165.5 156.5,-146.5 53.5,-146.5"/>
<text text-anchor="middle" x="105" y="-153.5" font-family="Helvetica,sans-Serif" font-size="10.00">EdgeReport2_struct</text>
</a>
</g>
<!-- Node3&#45;&gt;Node2 -->
<g id="edge4" class="edge"><title>Node3&#45;&gt;Node2</title>
<path fill="none" stroke="#9a32cd" stroke-dasharray="5,2" d="M105.741,-136.224C106.354,-120.697 107.196,-99.3582 107.66,-87.6165"/>
<polygon fill="#9a32cd" stroke="#9a32cd" points="102.241,-136.152 105.344,-146.282 109.236,-136.428 102.241,-136.152"/>
<text text-anchor="middle" x="133.5" y="-114.5" font-family="Helvetica,sans-Serif" font-size="10.00"> edgeReport</text>
</g>
<!-- Node4 -->
<g id="node6" class="node"><title>Node4</title>
<a xlink:href="struct_edge_info__struct.html" target="_top" xlink:title="EdgeInfo_struct">
<polygon fill="white" stroke="black" points="50,-222.5 50,-241.5 134,-241.5 134,-222.5 50,-222.5"/>
<text text-anchor="middle" x="92" y="-229.5" font-family="Helvetica,sans-Serif" font-size="10.00">EdgeInfo_struct</text>
</a>
</g>
<!-- Node4&#45;&gt;Node1 -->
<g id="edge14" class="edge"><title>Node4&#45;&gt;Node1</title>
<path fill="none" stroke="#9a32cd" stroke-dasharray="5,2" d="M75.478,-214.905C64.1924,-202.693 50.2016,-184.838 44,-166 26.4609,-112.724 44.0244,-43.6974 51.2273,-19.6853"/>
<polygon fill="#9a32cd" stroke="#9a32cd" points="73.2614,-217.648 82.7299,-222.402 78.2924,-212.781 73.2614,-217.648"/>
<text text-anchor="middle" x="60.5" y="-120" font-family="Helvetica,sans-Serif" font-size="10.00"> firstEdges</text>
<text text-anchor="middle" x="60.5" y="-109" font-family="Helvetica,sans-Serif" font-size="10.00">lastEdges</text>
</g>
<!-- Node4&#45;&gt;Node3 -->
<g id="edge6" class="edge"><title>Node4&#45;&gt;Node3</title>
<path fill="none" stroke="#9a32cd" stroke-dasharray="5,2" d="M95.3252,-212.072C97.9413,-197.18 101.467,-177.111 103.46,-165.768"/>
<polygon fill="#9a32cd" stroke="#9a32cd" points="91.8255,-211.766 93.5423,-222.221 98.7199,-212.977 91.8255,-211.766"/>
<text text-anchor="middle" x="116" y="-191.5" font-family="Helvetica,sans-Serif" font-size="10.00"> edges</text>
</g>
<!-- Node5 -->
<g id="node8" class="node"><title>Node5</title>
<a xlink:href="struct_point_float__struct.html" target="_top" xlink:title="PointFloat_struct">
<polygon fill="white" stroke="black" points="96.5,-300.5 96.5,-319.5 187.5,-319.5 187.5,-300.5 96.5,-300.5"/>
<text text-anchor="middle" x="142" y="-307.5" font-family="Helvetica,sans-Serif" font-size="10.00">PointFloat_struct</text>
</a>
</g>
<!-- Node5&#45;&gt;Node4 -->
<g id="edge8" class="edge"><title>Node5&#45;&gt;Node4</title>
<path fill="none" stroke="#9a32cd" stroke-dasharray="5,2" d="M106.48,-295.463C101.125,-291.887 96.2978,-287.455 93,-282 85.5162,-269.622 87.5308,-252.075 89.729,-241.683"/>
<polygon fill="#9a32cd" stroke="#9a32cd" points="104.762,-298.512 115.187,-300.401 108.215,-292.423 104.762,-298.512"/>
<text text-anchor="middle" x="132" y="-274" font-family="Helvetica,sans-Serif" font-size="10.00"> position</text>
<text text-anchor="middle" x="132" y="-263" font-family="Helvetica,sans-Serif" font-size="10.00">calibratedPosition</text>
</g>
<!-- Node6 -->
<g id="node10" class="node"><title>Node6</title>
<a xlink:href="struct_line_float__struct.html" target="_top" xlink:title="LineFloat_struct">
<polygon fill="white" stroke="black" points="150,-184.5 150,-203.5 236,-203.5 236,-184.5 150,-184.5"/>
<text text-anchor="middle" x="193" y="-191.5" font-family="Helvetica,sans-Serif" font-size="10.00">LineFloat_struct</text>
</a>
</g>
<!-- Node5&#45;&gt;Node6 -->
<g id="edge12" class="edge"><title>Node5&#45;&gt;Node6</title>
<path fill="none" stroke="#9a32cd" stroke-dasharray="5,2" d="M161.718,-293.594C165.218,-290.1 168.529,-286.175 171,-282 186.235,-256.258 190.993,-220.191 192.419,-203.767"/>
<polygon fill="#9a32cd" stroke="#9a32cd" points="159.128,-291.214 154.005,-300.488 163.794,-296.433 159.128,-291.214"/>
<text text-anchor="middle" x="190" y="-274" font-family="Helvetica,sans-Serif" font-size="10.00"> end</text>
<text text-anchor="middle" x="190" y="-263" font-family="Helvetica,sans-Serif" font-size="10.00">start</text>
</g>
<!-- Node6&#45;&gt;Node2 -->
<g id="edge10" class="edge"><title>Node6&#45;&gt;Node2</title>
<path fill="none" stroke="#9a32cd" stroke-dasharray="5,2" d="M191.043,-174.317C188.141,-155.122 181.057,-125.383 164,-106 156.727,-97.7352 146.36,-91.7701 136.518,-87.5842"/>
<polygon fill="#9a32cd" stroke="#9a32cd" points="187.572,-174.768 192.311,-184.243 194.515,-173.88 187.572,-174.768"/>
<text text-anchor="middle" x="224" y="-153.5" font-family="Helvetica,sans-Serif" font-size="10.00"> lineCoordinates</text>
</g>
</g>
</svg>
