<?xml version="1.0" encoding="UTF-8" standalone="no"?>
<!DOCTYPE svg PUBLIC "-//W3C//DTD SVG 1.1//EN"
 "http://www.w3.org/Graphics/SVG/1.1/DTD/svg11.dtd">
<!-- Generated by graphviz version 2.28.0 (20110507.0327)
 -->
<!-- Title: ParticleClassifierPreprocessingOptions2_struct Pages: 1 -->
<svg width="612pt" height="118pt"
 viewBox="0.00 0.00 612.00 118.00" xmlns="http://www.w3.org/2000/svg" xmlns:xlink="http://www.w3.org/1999/xlink">
<g id="graph1" class="graph" transform="scale(1 1) rotate(0) translate(4 114)">
<title>ParticleClassifierPreprocessingOptions2_struct</title>
<polygon fill="white" stroke="white" points="-4,5 -4,-114 609,-114 609,5 -4,5"/>
<!-- Node1 -->
<g id="node1" class="node"><title>Node1</title>
<polygon fill="#bfbfbf" stroke="black" points="452,-49 452,-79 604,-79 604,-49 452,-49"/>
<text text-anchor="start" x="460" y="-67" font-family="Helvetica,sans-Serif" font-size="10.00">ParticleClassifierPreprocessing</text>
<text text-anchor="middle" x="528" y="-56" font-family="Helvetica,sans-Serif" font-size="10.00">Options2_struct</text>
</g>
<!-- Node2 -->
<g id="node2" class="node"><title>Node2</title>
<a xlink:href="struct_particle_classifier_auto_threshold_options__struct.html" target="_top" xlink:title="ParticleClassifierAutoThreshold\lOptions_struct">
<polygon fill="white" stroke="black" points="162,-49 162,-79 314,-79 314,-49 162,-49"/>
<text text-anchor="start" x="170" y="-67" font-family="Helvetica,sans-Serif" font-size="10.00">ParticleClassifierAutoThreshold</text>
<text text-anchor="middle" x="238" y="-56" font-family="Helvetica,sans-Serif" font-size="10.00">Options_struct</text>
</a>
</g>
<!-- Node2&#45;&gt;Node1 -->
<g id="edge2" class="edge"><title>Node2&#45;&gt;Node1</title>
<path fill="none" stroke="#9a32cd" stroke-dasharray="5,2" d="M324.394,-64C364.793,-64 412.613,-64 451.647,-64"/>
<polygon fill="#9a32cd" stroke="#9a32cd" points="324.292,-60.5001 314.292,-64 324.292,-67.5001 324.292,-60.5001"/>
<text text-anchor="middle" x="384" y="-67" font-family="Helvetica,sans-Serif" font-size="10.00"> autoThresholdOptions</text>
</g>
<!-- Node3 -->
<g id="node4" class="node"><title>Node3</title>
<a xlink:href="struct_range_float__struct.html" target="_top" xlink:title="RangeFloat_struct">
<polygon fill="white" stroke="black" points="0,-86.5 0,-105.5 96,-105.5 96,-86.5 0,-86.5"/>
<text text-anchor="middle" x="48" y="-93.5" font-family="Helvetica,sans-Serif" font-size="10.00">RangeFloat_struct</text>
</a>
</g>
<!-- Node3&#45;&gt;Node1 -->
<g id="edge8" class="edge"><title>Node3&#45;&gt;Node1</title>
<path fill="none" stroke="#9a32cd" stroke-dasharray="5,2" d="M106.464,-99.8638C118.219,-100.263 130.507,-100.396 142,-100 272.036,-95.5213 304.792,-94.3201 434,-79 439.847,-78.3068 445.888,-77.5119 451.954,-76.6576"/>
<polygon fill="#9a32cd" stroke="#9a32cd" points="106.439,-96.36 96.3054,-99.4516 106.155,-103.354 106.439,-96.36"/>
<text text-anchor="middle" x="238" y="-102" font-family="Helvetica,sans-Serif" font-size="10.00"> manualThresholdRange</text>
</g>
<!-- Node3&#45;&gt;Node2 -->
<g id="edge4" class="edge"><title>Node3&#45;&gt;Node2</title>
<path fill="none" stroke="#9a32cd" stroke-dasharray="5,2" d="M106.459,-86.2197C123.904,-83.2503 143.338,-79.9424 161.769,-76.8053"/>
<polygon fill="#9a32cd" stroke="#9a32cd" points="105.711,-82.7966 96.4403,-87.925 106.886,-89.6973 105.711,-82.7966"/>
<text text-anchor="middle" x="128" y="-88" font-family="Helvetica,sans-Serif" font-size="10.00"> limits</text>
</g>
<!-- Node4 -->
<g id="node6" class="node"><title>Node4</title>
<a xlink:href="struct_particle_classifier_local_threshold_options__struct.html" target="_top" xlink:title="ParticleClassifierLocalThreshold\lOptions_struct">
<polygon fill="white" stroke="black" points="160.5,-0 160.5,-30 315.5,-30 315.5,-0 160.5,-0"/>
<text text-anchor="start" x="168.5" y="-18" font-family="Helvetica,sans-Serif" font-size="10.00">ParticleClassifierLocalThreshold</text>
<text text-anchor="middle" x="238" y="-7" font-family="Helvetica,sans-Serif" font-size="10.00">Options_struct</text>
</a>
</g>
<!-- Node4&#45;&gt;Node1 -->
<g id="edge6" class="edge"><title>Node4&#45;&gt;Node1</title>
<path fill="none" stroke="#9a32cd" stroke-dasharray="5,2" d="M325.853,-29.7771C366.031,-36.613 413.294,-44.6543 451.908,-51.2239"/>
<polygon fill="#9a32cd" stroke="#9a32cd" points="326.246,-26.2937 315.8,-28.0667 325.072,-33.1945 326.246,-26.2937"/>
<text text-anchor="middle" x="384" y="-52" font-family="Helvetica,sans-Serif" font-size="10.00"> localThresholdOptions</text>
</g>
</g>
</svg>
