<?xml version="1.0" encoding="UTF-8" standalone="no"?>
<!DOCTYPE svg PUBLIC "-//W3C//DTD SVG 1.1//EN"
 "http://www.w3.org/Graphics/SVG/1.1/DTD/svg11.dtd">
<!-- Generated by graphviz version 2.28.0 (20110507.0327)
 -->
<!-- Title: ContourInfo_struct Pages: 1 -->
<svg width="187pt" height="96pt"
 viewBox="0.00 0.00 187.00 96.00" xmlns="http://www.w3.org/2000/svg" xmlns:xlink="http://www.w3.org/1999/xlink">
<g id="graph1" class="graph" transform="scale(1 1) rotate(0) translate(4 92)">
<title>ContourInfo_struct</title>
<polygon fill="white" stroke="white" points="-4,5 -4,-92 184,-92 184,5 -4,5"/>
<!-- Node1 -->
<g id="node1" class="node"><title>Node1</title>
<polygon fill="#bfbfbf" stroke="black" points="47.5,-0.5 47.5,-19.5 142.5,-19.5 142.5,-0.5 47.5,-0.5"/>
<text text-anchor="middle" x="95" y="-7.5" font-family="Helvetica,sans-Serif" font-size="10.00">ContourInfo_struct</text>
</g>
<!-- Node2 -->
<g id="node2" class="node"><title>Node2</title>
<a xlink:href="struct_r_g_b_value__struct.html" target="_top" xlink:title="RGBValue_struct">
<polygon fill="white" stroke="black" points="0,-68.5 0,-87.5 92,-87.5 92,-68.5 0,-68.5"/>
<text text-anchor="middle" x="46" y="-75.5" font-family="Helvetica,sans-Serif" font-size="10.00">RGBValue_struct</text>
</a>
</g>
<!-- Node2&#45;&gt;Node1 -->
<g id="edge2" class="edge"><title>Node2&#45;&gt;Node1</title>
<path fill="none" stroke="#9a32cd" stroke-dasharray="5,2" d="M52.9634,-59.1203C56.1009,-52.1818 60.189,-44.3858 65,-38 70.2283,-31.0602 77.4302,-24.5086 83.4672,-19.5974"/>
<polygon fill="#9a32cd" stroke="#9a32cd" points="49.7082,-57.8327 49.0733,-68.4085 56.1648,-60.5369 49.7082,-57.8327"/>
<text text-anchor="middle" x="94" y="-41.5" font-family="Helvetica,sans-Serif" font-size="10.00"> contourColor</text>
</g>
<!-- Node3 -->
<g id="node4" class="node"><title>Node3</title>
<a xlink:href="struct_point__struct.html" target="_top" xlink:title="Point_struct">
<polygon fill="white" stroke="black" points="110.5,-68.5 110.5,-87.5 179.5,-87.5 179.5,-68.5 110.5,-68.5"/>
<text text-anchor="middle" x="145" y="-75.5" font-family="Helvetica,sans-Serif" font-size="10.00">Point_struct</text>
</a>
</g>
<!-- Node3&#45;&gt;Node1 -->
<g id="edge4" class="edge"><title>Node3&#45;&gt;Node1</title>
<path fill="none" stroke="#9a32cd" stroke-dasharray="5,2" d="M136.261,-59.0017C132.578,-52.1486 127.987,-44.4438 123,-38 117.793,-31.2708 110.928,-24.6249 105.3,-19.6105"/>
<polygon fill="#9a32cd" stroke="#9a32cd" points="133.286,-60.8709 140.949,-68.1867 139.521,-57.6886 133.286,-60.8709"/>
<text text-anchor="middle" x="146" y="-41.5" font-family="Helvetica,sans-Serif" font-size="10.00"> points</text>
</g>
</g>
</svg>
