<?xml version="1.0" encoding="UTF-8" standalone="no"?>
<!DOCTYPE svg PUBLIC "-//W3C//DTD SVG 1.1//EN"
 "http://www.w3.org/Graphics/SVG/1.1/DTD/svg11.dtd">
<!-- Generated by graphviz version 2.28.0 (20110507.0327)
 -->
<!-- Title: ROIProfile_struct Pages: 1 -->
<svg width="187pt" height="164pt"
 viewBox="0.00 0.00 187.00 164.00" xmlns="http://www.w3.org/2000/svg" xmlns:xlink="http://www.w3.org/1999/xlink">
<g id="graph1" class="graph" transform="scale(1 1) rotate(0) translate(4 160)">
<title>ROIProfile_struct</title>
<polygon fill="white" stroke="white" points="-4,5 -4,-160 184,-160 184,5 -4,5"/>
<!-- Node1 -->
<g id="node1" class="node"><title>Node1</title>
<polygon fill="#bfbfbf" stroke="black" points="74,-0.5 74,-19.5 164,-19.5 164,-0.5 74,-0.5"/>
<text text-anchor="middle" x="119" y="-7.5" font-family="Helvetica,sans-Serif" font-size="10.00">ROIProfile_struct</text>
</g>
<!-- Node2 -->
<g id="node2" class="node"><title>Node2</title>
<a xlink:href="struct_line_profile__struct.html" target="_top" xlink:title="LineProfile_struct">
<polygon fill="white" stroke="black" points="0,-68.5 0,-87.5 92,-87.5 92,-68.5 0,-68.5"/>
<text text-anchor="middle" x="46" y="-75.5" font-family="Helvetica,sans-Serif" font-size="10.00">LineProfile_struct</text>
</a>
</g>
<!-- Node2&#45;&gt;Node1 -->
<g id="edge2" class="edge"><title>Node2&#45;&gt;Node1</title>
<path fill="none" stroke="#9a32cd" stroke-dasharray="5,2" d="M63.241,-61.4122C77.5816,-48.4468 97.4806,-30.4559 109.221,-19.8411"/>
<polygon fill="#9a32cd" stroke="#9a32cd" points="60.614,-59.0689 55.5435,-68.3717 65.3085,-64.2614 60.614,-59.0689"/>
<text text-anchor="middle" x="104" y="-41.5" font-family="Helvetica,sans-Serif" font-size="10.00"> report</text>
</g>
<!-- Node3 -->
<g id="node4" class="node"><title>Node3</title>
<a xlink:href="struct_rect__struct.html" target="_top" xlink:title="Rect_struct">
<polygon fill="white" stroke="black" points="12.5,-136.5 12.5,-155.5 79.5,-155.5 79.5,-136.5 12.5,-136.5"/>
<text text-anchor="middle" x="46" y="-143.5" font-family="Helvetica,sans-Serif" font-size="10.00">Rect_struct</text>
</a>
</g>
<!-- Node3&#45;&gt;Node2 -->
<g id="edge4" class="edge"><title>Node3&#45;&gt;Node2</title>
<path fill="none" stroke="#9a32cd" stroke-dasharray="5,2" d="M46,-126.041C46,-113.472 46,-97.5631 46,-87.8411"/>
<polygon fill="#9a32cd" stroke="#9a32cd" points="42.5001,-126.372 46,-136.372 49.5001,-126.372 42.5001,-126.372"/>
<text text-anchor="middle" x="76" y="-109.5" font-family="Helvetica,sans-Serif" font-size="10.00"> boundingBox</text>
</g>
<!-- Node4 -->
<g id="node6" class="node"><title>Node4</title>
<a xlink:href="struct_point__struct.html" target="_top" xlink:title="Point_struct">
<polygon fill="white" stroke="black" points="110.5,-68.5 110.5,-87.5 179.5,-87.5 179.5,-68.5 110.5,-68.5"/>
<text text-anchor="middle" x="145" y="-75.5" font-family="Helvetica,sans-Serif" font-size="10.00">Point_struct</text>
</a>
</g>
<!-- Node4&#45;&gt;Node1 -->
<g id="edge6" class="edge"><title>Node4&#45;&gt;Node1</title>
<path fill="none" stroke="#9a32cd" stroke-dasharray="5,2" d="M137.833,-58.8066C132.837,-46.1244 126.391,-29.7615 122.483,-19.8411"/>
<polygon fill="#9a32cd" stroke="#9a32cd" points="134.679,-60.3504 141.601,-68.3717 141.192,-57.7847 134.679,-60.3504"/>
<text text-anchor="middle" x="149.5" y="-41.5" font-family="Helvetica,sans-Serif" font-size="10.00"> pixels</text>
</g>
</g>
</svg>
