<?xml version="1.0" encoding="UTF-8" standalone="no"?>
<!DOCTYPE svg PUBLIC "-//W3C//DTD SVG 1.1//EN"
 "http://www.w3.org/Graphics/SVG/1.1/DTD/svg11.dtd">
<!-- Generated by graphviz version 2.28.0 (20110507.0327)
 -->
<!-- Title: FindTransformRectOptions2_struct Pages: 1 -->
<svg width="226pt" height="140pt"
 viewBox="0.00 0.00 226.00 140.00" xmlns="http://www.w3.org/2000/svg" xmlns:xlink="http://www.w3.org/1999/xlink">
<g id="graph1" class="graph" transform="scale(1 1) rotate(0) translate(4 136)">
<title>FindTransformRectOptions2_struct</title>
<polygon fill="white" stroke="white" points="-4,5 -4,-136 223,-136 223,5 -4,5"/>
<!-- Node1 -->
<g id="node1" class="node"><title>Node1</title>
<polygon fill="#bfbfbf" stroke="black" points="36.5,-1 36.5,-31 173.5,-31 173.5,-1 36.5,-1"/>
<text text-anchor="start" x="44.5" y="-19" font-family="Helvetica,sans-Serif" font-size="10.00">FindTransformRectOptions2</text>
<text text-anchor="middle" x="105" y="-8" font-family="Helvetica,sans-Serif" font-size="10.00">_struct</text>
</g>
<!-- Node2 -->
<g id="node2" class="node"><title>Node2</title>
<a xlink:href="struct_r_g_b_value__struct.html" target="_top" xlink:title="RGBValue_struct">
<polygon fill="white" stroke="black" points="0,-112.5 0,-131.5 92,-131.5 92,-112.5 0,-112.5"/>
<text text-anchor="middle" x="46" y="-119.5" font-family="Helvetica,sans-Serif" font-size="10.00">RGBValue_struct</text>
</a>
</g>
<!-- Node2&#45;&gt;Node1 -->
<g id="edge2" class="edge"><title>Node2&#45;&gt;Node1</title>
<path fill="none" stroke="#9a32cd" stroke-dasharray="5,2" d="M45.6861,-102.184C46.2711,-87.0114 49.0586,-65.6892 59,-50 63.7346,-42.528 70.8256,-36.2311 78.031,-31.2065"/>
<polygon fill="#9a32cd" stroke="#9a32cd" points="42.1843,-102.36 45.5861,-112.394 49.184,-102.429 42.1843,-102.36"/>
<text text-anchor="middle" x="100.5" y="-86" font-family="Helvetica,sans-Serif" font-size="10.00"> searchEdgesColor</text>
<text text-anchor="middle" x="100.5" y="-75" font-family="Helvetica,sans-Serif" font-size="10.00">searchAreaColor</text>
<text text-anchor="middle" x="100.5" y="-64" font-family="Helvetica,sans-Serif" font-size="10.00">resultColor</text>
<text text-anchor="middle" x="100.5" y="-53" font-family="Helvetica,sans-Serif" font-size="10.00">searchLinesColor</text>
</g>
<!-- Node3 -->
<g id="node4" class="node"><title>Node3</title>
<a xlink:href="struct_edge_options2__struct.html" target="_top" xlink:title="EdgeOptions2_struct">
<polygon fill="white" stroke="black" points="110,-112.5 110,-131.5 218,-131.5 218,-112.5 110,-112.5"/>
<text text-anchor="middle" x="164" y="-119.5" font-family="Helvetica,sans-Serif" font-size="10.00">EdgeOptions2_struct</text>
</a>
</g>
<!-- Node3&#45;&gt;Node1 -->
<g id="edge4" class="edge"><title>Node3&#45;&gt;Node1</title>
<path fill="none" stroke="#9a32cd" stroke-dasharray="5,2" d="M160.988,-101.909C157.962,-86.8904 152.234,-65.9148 142,-50 137.438,-42.9051 130.946,-36.4063 124.671,-31.0868"/>
<polygon fill="#9a32cd" stroke="#9a32cd" points="157.596,-102.824 162.806,-112.05 164.487,-101.589 157.596,-102.824"/>
<text text-anchor="middle" x="187" y="-69.5" font-family="Helvetica,sans-Serif" font-size="10.00"> edgeOptions</text>
</g>
</g>
</svg>
