<?xml version="1.0" encoding="UTF-8" standalone="no"?>
<!DOCTYPE svg PUBLIC "-//W3C//DTD SVG 1.1//EN"
 "http://www.w3.org/Graphics/SVG/1.1/DTD/svg11.dtd">
<!-- Generated by graphviz version 2.28.0 (20110507.0327)
 -->
<!-- Title: StraightEdgeReport2_struct Pages: 1 -->
<svg width="372pt" height="332pt"
 viewBox="0.00 0.00 372.40 332.00" xmlns="http://www.w3.org/2000/svg" xmlns:xlink="http://www.w3.org/1999/xlink">
<g id="graph1" class="graph" transform="scale(1 1) rotate(0) translate(4 328)">
<title>StraightEdgeReport2_struct</title>
<polygon fill="white" stroke="white" points="-4,5 -4,-328 369.403,-328 369.403,5 -4,5"/>
<!-- Node1 -->
<g id="node1" class="node"><title>Node1</title>
<polygon fill="#bfbfbf" stroke="black" points="44.9029,-1 44.9029,-31 151.903,-31 151.903,-1 44.9029,-1"/>
<text text-anchor="start" x="52.9029" y="-19" font-family="Helvetica,sans-Serif" font-size="10.00">StraightEdgeReport2</text>
<text text-anchor="middle" x="98.4029" y="-8" font-family="Helvetica,sans-Serif" font-size="10.00">_struct</text>
</g>
<!-- Node2 -->
<g id="node2" class="node"><title>Node2</title>
<a xlink:href="struct_straight_edge__struct.html" target="_top" xlink:title="StraightEdge_struct">
<polygon fill="white" stroke="black" points="4.90286,-148.5 4.90286,-167.5 107.903,-167.5 107.903,-148.5 4.90286,-148.5"/>
<text text-anchor="middle" x="56.4029" y="-155.5" font-family="Helvetica,sans-Serif" font-size="10.00">StraightEdge_struct</text>
</a>
</g>
<!-- Node2&#45;&gt;Node1 -->
<g id="edge2" class="edge"><title>Node2&#45;&gt;Node1</title>
<path fill="none" stroke="#9a32cd" stroke-dasharray="5,2" d="M56.6957,-138.146C57.3903,-122.309 59.4607,-99.2481 65.4029,-80 70.8661,-62.3034 81.2568,-43.7156 88.9249,-31.3567"/>
<polygon fill="#9a32cd" stroke="#9a32cd" points="53.1943,-138.143 56.3972,-148.242 60.1912,-138.35 53.1943,-138.143"/>
<text text-anchor="middle" x="97.4029" y="-87.5" font-family="Helvetica,sans-Serif" font-size="10.00"> straightEdges</text>
</g>
<!-- Node3 -->
<g id="node4" class="node"><title>Node3</title>
<a xlink:href="struct_edge_info__struct.html" target="_top" xlink:title="EdgeInfo_struct">
<polygon fill="white" stroke="black" points="214.403,-226.5 214.403,-245.5 298.403,-245.5 298.403,-226.5 214.403,-226.5"/>
<text text-anchor="middle" x="256.403" y="-233.5" font-family="Helvetica,sans-Serif" font-size="10.00">EdgeInfo_struct</text>
</a>
</g>
<!-- Node3&#45;&gt;Node2 -->
<g id="edge4" class="edge"><title>Node3&#45;&gt;Node2</title>
<path fill="none" stroke="#9a32cd" stroke-dasharray="5,2" d="M233.912,-221.385C215.287,-210.579 187.846,-195.721 162.403,-186 142.091,-178.239 118.744,-172.019 99.1398,-167.515"/>
<polygon fill="#9a32cd" stroke="#9a32cd" points="232.153,-224.411 242.546,-226.471 235.706,-218.38 232.153,-224.411"/>
<text text-anchor="middle" x="236.403" y="-194.5" font-family="Helvetica,sans-Serif" font-size="10.00"> usedEdges</text>
</g>
<!-- Node7 -->
<g id="node13" class="node"><title>Node7</title>
<a xlink:href="struct_edge_report2__struct.html" target="_top" xlink:title="EdgeReport2_struct">
<polygon fill="white" stroke="black" points="260.903,-148.5 260.903,-167.5 363.903,-167.5 363.903,-148.5 260.903,-148.5"/>
<text text-anchor="middle" x="312.403" y="-155.5" font-family="Helvetica,sans-Serif" font-size="10.00">EdgeReport2_struct</text>
</a>
</g>
<!-- Node3&#45;&gt;Node7 -->
<g id="edge16" class="edge"><title>Node3&#45;&gt;Node7</title>
<path fill="none" stroke="#9a32cd" stroke-dasharray="5,2" d="M269.84,-217.941C272.376,-214.66 274.989,-211.237 277.403,-208 287.776,-194.087 299.413,-177.614 306.313,-167.752"/>
<polygon fill="#9a32cd" stroke="#9a32cd" points="266.889,-216.034 263.495,-226.07 272.407,-220.34 266.889,-216.034"/>
<text text-anchor="middle" x="308.403" y="-194.5" font-family="Helvetica,sans-Serif" font-size="10.00"> edges</text>
</g>
<!-- Node4 -->
<g id="node6" class="node"><title>Node4</title>
<a xlink:href="struct_point_float__struct.html" target="_top" xlink:title="PointFloat_struct">
<polygon fill="white" stroke="black" points="158.903,-304.5 158.903,-323.5 249.903,-323.5 249.903,-304.5 158.903,-304.5"/>
<text text-anchor="middle" x="204.403" y="-311.5" font-family="Helvetica,sans-Serif" font-size="10.00">PointFloat_struct</text>
</a>
</g>
<!-- Node4&#45;&gt;Node3 -->
<g id="edge6" class="edge"><title>Node4&#45;&gt;Node3</title>
<path fill="none" stroke="#9a32cd" stroke-dasharray="5,2" d="M216.031,-296.006C226.729,-280.369 242.162,-257.814 250.507,-245.616"/>
<polygon fill="#9a32cd" stroke="#9a32cd" points="213.126,-294.052 210.368,-304.282 218.903,-298.005 213.126,-294.052"/>
<text text-anchor="middle" x="276.403" y="-278" font-family="Helvetica,sans-Serif" font-size="10.00"> position</text>
<text text-anchor="middle" x="276.403" y="-267" font-family="Helvetica,sans-Serif" font-size="10.00">calibratedPosition</text>
</g>
<!-- Node5 -->
<g id="node8" class="node"><title>Node5</title>
<a xlink:href="struct_line_float__struct.html" target="_top" xlink:title="LineFloat_struct">
<polygon fill="white" stroke="black" points="110.403,-226.5 110.403,-245.5 196.403,-245.5 196.403,-226.5 110.403,-226.5"/>
<text text-anchor="middle" x="153.403" y="-233.5" font-family="Helvetica,sans-Serif" font-size="10.00">LineFloat_struct</text>
</a>
</g>
<!-- Node4&#45;&gt;Node5 -->
<g id="edge10" class="edge"><title>Node4&#45;&gt;Node5</title>
<path fill="none" stroke="#9a32cd" stroke-dasharray="5,2" d="M192.703,-295.565C182.224,-279.949 167.294,-257.7 159.185,-245.616"/>
<polygon fill="#9a32cd" stroke="#9a32cd" points="190.074,-297.928 198.553,-304.282 195.887,-294.028 190.074,-297.928"/>
<text text-anchor="middle" x="195.403" y="-278" font-family="Helvetica,sans-Serif" font-size="10.00"> end</text>
<text text-anchor="middle" x="195.403" y="-267" font-family="Helvetica,sans-Serif" font-size="10.00">start</text>
</g>
<!-- Node5&#45;&gt;Node2 -->
<g id="edge8" class="edge"><title>Node5&#45;&gt;Node2</title>
<path fill="none" stroke="#9a32cd" stroke-dasharray="5,2" d="M99.7381,-232.358C62.1411,-229.252 16.5325,-222.525 4.40286,-208 -1.86444,-200.495 -0.673983,-194.356 4.40286,-186 9.52605,-177.567 18.2325,-171.649 27.0711,-167.549"/>
<polygon fill="#9a32cd" stroke="#9a32cd" points="99.8598,-235.878 110.095,-233.142 100.388,-228.897 99.8598,-235.878"/>
<text text-anchor="middle" x="81.4029" y="-200" font-family="Helvetica,sans-Serif" font-size="10.00"> calibratedStraightEdgeCoordinates</text>
<text text-anchor="middle" x="81.4029" y="-189" font-family="Helvetica,sans-Serif" font-size="10.00">straightEdgeCoordinates</text>
</g>
<!-- Node6 -->
<g id="node11" class="node"><title>Node6</title>
<a xlink:href="struct_search_line_info__struct.html" target="_top" xlink:title="SearchLineInfo_struct">
<polygon fill="white" stroke="black" points="138.403,-80.5 138.403,-99.5 248.403,-99.5 248.403,-80.5 138.403,-80.5"/>
<text text-anchor="middle" x="193.403" y="-87.5" font-family="Helvetica,sans-Serif" font-size="10.00">SearchLineInfo_struct</text>
</a>
</g>
<!-- Node5&#45;&gt;Node6 -->
<g id="edge18" class="edge"><title>Node5&#45;&gt;Node6</title>
<path fill="none" stroke="#9a32cd" stroke-dasharray="5,2" d="M158.575,-216.38C167.301,-184.966 184.617,-122.628 190.982,-99.7137"/>
<polygon fill="#9a32cd" stroke="#9a32cd" points="155.089,-215.851 155.785,-226.423 161.834,-217.725 155.089,-215.851"/>
<text text-anchor="middle" x="212.403" y="-155.5" font-family="Helvetica,sans-Serif" font-size="10.00"> lineCoordinates</text>
</g>
<!-- Node6&#45;&gt;Node1 -->
<g id="edge12" class="edge"><title>Node6&#45;&gt;Node1</title>
<path fill="none" stroke="#9a32cd" stroke-dasharray="5,2" d="M173.72,-74.0826C157.12,-61.5012 133.52,-43.6151 117.181,-31.2316"/>
<polygon fill="#9a32cd" stroke="#9a32cd" points="172.048,-77.2071 182.132,-80.4579 176.276,-71.6283 172.048,-77.2071"/>
<text text-anchor="middle" x="185.403" y="-53.5" font-family="Helvetica,sans-Serif" font-size="10.00"> searchLines</text>
</g>
<!-- Node7&#45;&gt;Node6 -->
<g id="edge14" class="edge"><title>Node7&#45;&gt;Node6</title>
<path fill="none" stroke="#9a32cd" stroke-dasharray="5,2" d="M288.089,-143.515C264.4,-130.377 229.099,-110.798 208.964,-99.6305"/>
<polygon fill="#9a32cd" stroke="#9a32cd" points="286.403,-146.582 296.846,-148.372 289.798,-140.461 286.403,-146.582"/>
<text text-anchor="middle" x="290.903" y="-121.5" font-family="Helvetica,sans-Serif" font-size="10.00"> edgeReport</text>
</g>
</g>
</svg>
