<?xml version="1.0" encoding="UTF-8" standalone="no"?>
<!DOCTYPE svg PUBLIC "-//W3C//DTD SVG 1.1//EN"
 "http://www.w3.org/Graphics/SVG/1.1/DTD/svg11.dtd">
<!-- Generated by graphviz version 2.28.0 (20110507.0327)
 -->
<!-- Title: SearchArcInfo_struct Pages: 1 -->
<svg width="215pt" height="250pt"
 viewBox="0.00 0.00 215.00 250.00" xmlns="http://www.w3.org/2000/svg" xmlns:xlink="http://www.w3.org/1999/xlink">
<g id="graph1" class="graph" transform="scale(1 1) rotate(0) translate(4 246)">
<title>SearchArcInfo_struct</title>
<polygon fill="white" stroke="white" points="-4,5 -4,-246 212,-246 212,5 -4,5"/>
<!-- Node1 -->
<g id="node1" class="node"><title>Node1</title>
<polygon fill="#bfbfbf" stroke="black" points="63.5,-0.5 63.5,-19.5 170.5,-19.5 170.5,-0.5 63.5,-0.5"/>
<text text-anchor="middle" x="117" y="-7.5" font-family="Helvetica,sans-Serif" font-size="10.00">SearchArcInfo_struct</text>
</g>
<!-- Node2 -->
<g id="node2" class="node"><title>Node2</title>
<a xlink:href="struct_edge_report2__struct.html" target="_top" xlink:title="EdgeReport2_struct">
<polygon fill="white" stroke="black" points="-0.5,-68.5 -0.5,-87.5 102.5,-87.5 102.5,-68.5 -0.5,-68.5"/>
<text text-anchor="middle" x="51" y="-75.5" font-family="Helvetica,sans-Serif" font-size="10.00">EdgeReport2_struct</text>
</a>
</g>
<!-- Node2&#45;&gt;Node1 -->
<g id="edge2" class="edge"><title>Node2&#45;&gt;Node1</title>
<path fill="none" stroke="#9a32cd" stroke-dasharray="5,2" d="M58.7655,-58.9293C62.3923,-51.8575 67.2005,-44.0169 73,-38 80.215,-30.5147 89.9255,-24.2692 98.3887,-19.6769"/>
<polygon fill="#9a32cd" stroke="#9a32cd" points="55.3845,-57.897 54.3194,-68.4382 61.7256,-60.862 55.3845,-57.897"/>
<text text-anchor="middle" x="99.5" y="-41.5" font-family="Helvetica,sans-Serif" font-size="10.00"> edgeReport</text>
</g>
<!-- Node3 -->
<g id="node4" class="node"><title>Node3</title>
<a xlink:href="struct_edge_info__struct.html" target="_top" xlink:title="EdgeInfo_struct">
<polygon fill="white" stroke="black" points="1,-144.5 1,-163.5 85,-163.5 85,-144.5 1,-144.5"/>
<text text-anchor="middle" x="43" y="-151.5" font-family="Helvetica,sans-Serif" font-size="10.00">EdgeInfo_struct</text>
</a>
</g>
<!-- Node3&#45;&gt;Node2 -->
<g id="edge4" class="edge"><title>Node3&#45;&gt;Node2</title>
<path fill="none" stroke="#9a32cd" stroke-dasharray="5,2" d="M45.0462,-134.072C46.6562,-119.18 48.8258,-99.1111 50.0521,-87.7679"/>
<polygon fill="#9a32cd" stroke="#9a32cd" points="41.5443,-133.902 43.9491,-144.221 48.5038,-134.655 41.5443,-133.902"/>
<text text-anchor="middle" x="63" y="-113.5" font-family="Helvetica,sans-Serif" font-size="10.00"> edges</text>
</g>
<!-- Node4 -->
<g id="node6" class="node"><title>Node4</title>
<a xlink:href="struct_point_float__struct.html" target="_top" xlink:title="PointFloat_struct">
<polygon fill="white" stroke="black" points="47.5,-222.5 47.5,-241.5 138.5,-241.5 138.5,-222.5 47.5,-222.5"/>
<text text-anchor="middle" x="93" y="-229.5" font-family="Helvetica,sans-Serif" font-size="10.00">PointFloat_struct</text>
</a>
</g>
<!-- Node4&#45;&gt;Node3 -->
<g id="edge6" class="edge"><title>Node4&#45;&gt;Node3</title>
<path fill="none" stroke="#9a32cd" stroke-dasharray="5,2" d="M57.4804,-217.463C52.1249,-213.887 47.2978,-209.455 44,-204 36.5162,-191.622 38.5308,-174.075 40.729,-163.683"/>
<polygon fill="#9a32cd" stroke="#9a32cd" points="55.7622,-220.512 66.1874,-222.401 59.2153,-214.423 55.7622,-220.512"/>
<text text-anchor="middle" x="83" y="-196" font-family="Helvetica,sans-Serif" font-size="10.00"> position</text>
<text text-anchor="middle" x="83" y="-185" font-family="Helvetica,sans-Serif" font-size="10.00">calibratedPosition</text>
</g>
<!-- Node5 -->
<g id="node8" class="node"><title>Node5</title>
<a xlink:href="struct_arc_info2__struct.html" target="_top" xlink:title="ArcInfo2_struct">
<polygon fill="white" stroke="black" points="102,-106.5 102,-125.5 184,-125.5 184,-106.5 102,-106.5"/>
<text text-anchor="middle" x="143" y="-113.5" font-family="Helvetica,sans-Serif" font-size="10.00">ArcInfo2_struct</text>
</a>
</g>
<!-- Node4&#45;&gt;Node5 -->
<g id="edge10" class="edge"><title>Node4&#45;&gt;Node5</title>
<path fill="none" stroke="#9a32cd" stroke-dasharray="5,2" d="M112.925,-215.443C116.359,-211.99 119.592,-208.12 122,-204 137.055,-178.245 141.34,-142.185 142.542,-125.765"/>
<polygon fill="#9a32cd" stroke="#9a32cd" points="110.428,-212.982 105.331,-222.27 115.107,-218.188 110.428,-212.982"/>
<text text-anchor="middle" x="147.5" y="-190.5" font-family="Helvetica,sans-Serif" font-size="10.00"> center</text>
</g>
<!-- Node5&#45;&gt;Node1 -->
<g id="edge8" class="edge"><title>Node5&#45;&gt;Node1</title>
<path fill="none" stroke="#9a32cd" stroke-dasharray="5,2" d="M139.462,-96.4057C136.343,-80.7267 131.456,-57.7503 126,-38 124.316,-31.9038 122.066,-25.1538 120.237,-19.9278"/>
<polygon fill="#9a32cd" stroke="#9a32cd" points="136.057,-97.2349 141.403,-106.382 142.928,-95.898 136.057,-97.2349"/>
<text text-anchor="middle" x="172.5" y="-75.5" font-family="Helvetica,sans-Serif" font-size="10.00"> arcCoordinates</text>
</g>
</g>
</svg>
