<?xml version="1.0" encoding="UTF-8" standalone="no"?>
<!DOCTYPE svg PUBLIC "-//W3C//DTD SVG 1.1//EN"
 "http://www.w3.org/Graphics/SVG/1.1/DTD/svg11.dtd">
<!-- Generated by graphviz version 2.28.0 (20110507.0327)
 -->
<!-- Title: NearestNeighborTrainingReport_struct Pages: 1 -->
<svg width="158pt" height="120pt"
 viewBox="0.00 0.00 158.00 120.00" xmlns="http://www.w3.org/2000/svg" xmlns:xlink="http://www.w3.org/1999/xlink">
<g id="graph1" class="graph" transform="scale(1 1) rotate(0) translate(4 116)">
<title>NearestNeighborTrainingReport_struct</title>
<polygon fill="white" stroke="white" points="-4,5 -4,-116 155,-116 155,5 -4,5"/>
<!-- Node1 -->
<g id="node1" class="node"><title>Node1</title>
<polygon fill="#bfbfbf" stroke="black" points="-0.5,-1 -0.5,-31 150.5,-31 150.5,-1 -0.5,-1"/>
<text text-anchor="start" x="7.5" y="-19" font-family="Helvetica,sans-Serif" font-size="10.00">NearestNeighborTrainingReport</text>
<text text-anchor="middle" x="75" y="-8" font-family="Helvetica,sans-Serif" font-size="10.00">_struct</text>
</g>
<!-- Node2 -->
<g id="node2" class="node"><title>Node2</title>
<a xlink:href="struct_nearest_neighbor_class_result__struct.html" target="_top" xlink:title="NearestNeighborClassResult\l_struct">
<polygon fill="white" stroke="black" points="4.5,-81 4.5,-111 145.5,-111 145.5,-81 4.5,-81"/>
<text text-anchor="start" x="12.5" y="-99" font-family="Helvetica,sans-Serif" font-size="10.00">NearestNeighborClassResult</text>
<text text-anchor="middle" x="75" y="-88" font-family="Helvetica,sans-Serif" font-size="10.00">_struct</text>
</a>
</g>
<!-- Node2&#45;&gt;Node1 -->
<g id="edge2" class="edge"><title>Node2&#45;&gt;Node1</title>
<path fill="none" stroke="#9a32cd" stroke-dasharray="5,2" d="M75,-70.5644C75,-57.6243 75,-42.1862 75,-31.2157"/>
<polygon fill="#9a32cd" stroke="#9a32cd" points="71.5001,-70.6936 75,-80.6936 78.5001,-70.6936 71.5001,-70.6936"/>
<text text-anchor="middle" x="97" y="-53.5" font-family="Helvetica,sans-Serif" font-size="10.00"> allScores</text>
</g>
</g>
</svg>
