<?xml version="1.0" encoding="UTF-8" standalone="no"?>
<!DOCTYPE svg PUBLIC "-//W3C//DTD SVG 1.1//EN"
 "http://www.w3.org/Graphics/SVG/1.1/DTD/svg11.dtd">
<!-- Generated by graphviz version 2.28.0 (20110507.0327)
 -->
<!-- Title: ExtractContourReport_struct Pages: 1 -->
<svg width="127pt" height="118pt"
 viewBox="0.00 0.00 127.00 118.00" xmlns="http://www.w3.org/2000/svg" xmlns:xlink="http://www.w3.org/1999/xlink">
<g id="graph1" class="graph" transform="scale(1 1) rotate(0) translate(4 114)">
<title>ExtractContourReport_struct</title>
<polygon fill="white" stroke="white" points="-4,5 -4,-114 124,-114 124,5 -4,5"/>
<!-- Node1 -->
<g id="node1" class="node"><title>Node1</title>
<polygon fill="#bfbfbf" stroke="black" points="0,-1 0,-31 110,-31 110,-1 0,-1"/>
<text text-anchor="start" x="8" y="-19" font-family="Helvetica,sans-Serif" font-size="10.00">ExtractContourReport</text>
<text text-anchor="middle" x="55" y="-8" font-family="Helvetica,sans-Serif" font-size="10.00">_struct</text>
</g>
<!-- Node2 -->
<g id="node2" class="node"><title>Node2</title>
<a xlink:href="struct_point_double__struct.html" target="_top" xlink:title="PointDouble_struct">
<polygon fill="white" stroke="black" points="5.5,-90.5 5.5,-109.5 104.5,-109.5 104.5,-90.5 5.5,-90.5"/>
<text text-anchor="middle" x="55" y="-97.5" font-family="Helvetica,sans-Serif" font-size="10.00">PointDouble_struct</text>
</a>
</g>
<!-- Node2&#45;&gt;Node1 -->
<g id="edge2" class="edge"><title>Node2&#45;&gt;Node1</title>
<path fill="none" stroke="#9a32cd" stroke-dasharray="5,2" d="M55,-80.1139C55,-65.2014 55,-44.7195 55,-31.1839"/>
<polygon fill="#9a32cd" stroke="#9a32cd" points="51.5001,-80.2245 55,-90.2246 58.5001,-80.2246 51.5001,-80.2245"/>
<text text-anchor="middle" x="87" y="-64" font-family="Helvetica,sans-Serif" font-size="10.00"> contourPoints</text>
<text text-anchor="middle" x="87" y="-53" font-family="Helvetica,sans-Serif" font-size="10.00">sourcePoints</text>
</g>
</g>
</svg>
