<?xml version="1.0" encoding="UTF-8" standalone="no"?>
<!DOCTYPE svg PUBLIC "-//W3C//DTD SVG 1.1//EN"
 "http://www.w3.org/Graphics/SVG/1.1/DTD/svg11.dtd">
<!-- Generated by graphviz version 2.28.0 (20110507.0327)
 -->
<!-- Title: SpokeReport_struct Pages: 1 -->
<svg width="277pt" height="186pt"
 viewBox="0.00 0.00 277.49 186.00" xmlns="http://www.w3.org/2000/svg" xmlns:xlink="http://www.w3.org/1999/xlink">
<g id="graph1" class="graph" transform="scale(1 1) rotate(0) translate(4 182)">
<title>SpokeReport_struct</title>
<polygon fill="white" stroke="white" points="-4,5 -4,-182 274.49,-182 274.49,5 -4,5"/>
<!-- Node1 -->
<g id="node1" class="node"><title>Node1</title>
<polygon fill="#bfbfbf" stroke="black" points="61.9903,-0.5 61.9903,-19.5 164.99,-19.5 164.99,-0.5 61.9903,-0.5"/>
<text text-anchor="middle" x="113.49" y="-7.5" font-family="Helvetica,sans-Serif" font-size="10.00">SpokeReport_struct</text>
</g>
<!-- Node2 -->
<g id="node2" class="node"><title>Node2</title>
<a xlink:href="struct_point_float__struct.html" target="_top" xlink:title="PointFloat_struct">
<polygon fill="white" stroke="black" points="67.9903,-158.5 67.9903,-177.5 158.99,-177.5 158.99,-158.5 67.9903,-158.5"/>
<text text-anchor="middle" x="113.49" y="-165.5" font-family="Helvetica,sans-Serif" font-size="10.00">PointFloat_struct</text>
</a>
</g>
<!-- Node2&#45;&gt;Node1 -->
<g id="edge2" class="edge"><title>Node2&#45;&gt;Node1</title>
<path fill="none" stroke="#9a32cd" stroke-dasharray="5,2" d="M79.8425,-154.502C40.2856,-137.762 -17.2722,-105.752 5.49029,-68 21.0355,-42.2182 52.5644,-27.5005 77.5623,-19.505"/>
<polygon fill="#9a32cd" stroke="#9a32cd" points="78.8705,-157.886 89.4517,-158.424 81.5153,-151.405 78.8705,-157.886"/>
<text text-anchor="middle" x="28.9903" y="-87" font-family="Helvetica,sans-Serif" font-size="10.00"> firstEdges</text>
<text text-anchor="middle" x="28.9903" y="-76" font-family="Helvetica,sans-Serif" font-size="10.00">lastEdges</text>
</g>
<!-- Node3 -->
<g id="node4" class="node"><title>Node3</title>
<a xlink:href="struct_edge_location_report__struct.html" target="_top" xlink:title="EdgeLocationReport\l_struct">
<polygon fill="white" stroke="black" points="61.4903,-69 61.4903,-99 165.49,-99 165.49,-69 61.4903,-69"/>
<text text-anchor="start" x="69.4903" y="-87" font-family="Helvetica,sans-Serif" font-size="10.00">EdgeLocationReport</text>
<text text-anchor="middle" x="113.49" y="-76" font-family="Helvetica,sans-Serif" font-size="10.00">_struct</text>
</a>
</g>
<!-- Node2&#45;&gt;Node3 -->
<g id="edge6" class="edge"><title>Node2&#45;&gt;Node3</title>
<path fill="none" stroke="#9a32cd" stroke-dasharray="5,2" d="M113.49,-148.114C113.49,-133.201 113.49,-112.72 113.49,-99.1839"/>
<polygon fill="#9a32cd" stroke="#9a32cd" points="109.99,-148.225 113.49,-158.225 116.99,-148.225 109.99,-148.225"/>
<text text-anchor="middle" x="128.49" y="-126.5" font-family="Helvetica,sans-Serif" font-size="10.00"> edges</text>
</g>
<!-- Node4 -->
<g id="node7" class="node"><title>Node4</title>
<a xlink:href="struct_line_float__struct.html" target="_top" xlink:title="LineFloat_struct">
<polygon fill="white" stroke="black" points="183.49,-74.5 183.49,-93.5 269.49,-93.5 269.49,-74.5 183.49,-74.5"/>
<text text-anchor="middle" x="226.49" y="-81.5" font-family="Helvetica,sans-Serif" font-size="10.00">LineFloat_struct</text>
</a>
</g>
<!-- Node2&#45;&gt;Node4 -->
<g id="edge10" class="edge"><title>Node2&#45;&gt;Node4</title>
<path fill="none" stroke="#9a32cd" stroke-dasharray="5,2" d="M133.819,-152.248C157.328,-135.188 195.255,-107.666 214.484,-93.7123"/>
<polygon fill="#9a32cd" stroke="#9a32cd" points="131.621,-149.519 125.583,-158.225 135.732,-155.184 131.621,-149.519"/>
<text text-anchor="middle" x="189.49" y="-132" font-family="Helvetica,sans-Serif" font-size="10.00"> end</text>
<text text-anchor="middle" x="189.49" y="-121" font-family="Helvetica,sans-Serif" font-size="10.00">start</text>
</g>
<!-- Node3&#45;&gt;Node1 -->
<g id="edge4" class="edge"><title>Node3&#45;&gt;Node1</title>
<path fill="none" stroke="#9a32cd" stroke-dasharray="5,2" d="M113.49,-58.6883C113.49,-45.2526 113.49,-29.3805 113.49,-19.7589"/>
<polygon fill="#9a32cd" stroke="#9a32cd" points="109.99,-58.7751 113.49,-68.7751 116.99,-58.7752 109.99,-58.7751"/>
<text text-anchor="middle" x="133.99" y="-41.5" font-family="Helvetica,sans-Serif" font-size="10.00"> allEdges</text>
</g>
<!-- Node4&#45;&gt;Node1 -->
<g id="edge8" class="edge"><title>Node4&#45;&gt;Node1</title>
<path fill="none" stroke="#9a32cd" stroke-dasharray="5,2" d="M205.096,-68.4925C191.783,-59.5522 174.253,-47.9375 158.49,-38 148.471,-31.6834 137.023,-24.8195 128.182,-19.5931"/>
<polygon fill="#9a32cd" stroke="#9a32cd" points="203.317,-71.5142 213.565,-74.2011 207.229,-65.7096 203.317,-71.5142"/>
<text text-anchor="middle" x="200.99" y="-41.5" font-family="Helvetica,sans-Serif" font-size="10.00"> spokeLines</text>
</g>
</g>
</svg>
