<?xml version="1.0" encoding="UTF-8" standalone="no"?>
<!DOCTYPE svg PUBLIC "-//W3C//DTD SVG 1.1//EN"
 "http://www.w3.org/Graphics/SVG/1.1/DTD/svg11.dtd">
<!-- Generated by graphviz version 2.28.0 (20110507.0327)
 -->
<!-- Title: ReadTextReport2_struct Pages: 1 -->
<svg width="142pt" height="164pt"
 viewBox="0.00 0.00 142.00 164.00" xmlns="http://www.w3.org/2000/svg" xmlns:xlink="http://www.w3.org/1999/xlink">
<g id="graph1" class="graph" transform="scale(1 1) rotate(0) translate(4 160)">
<title>ReadTextReport2_struct</title>
<polygon fill="white" stroke="white" points="-4,5 -4,-160 139,-160 139,5 -4,5"/>
<!-- Node1 -->
<g id="node1" class="node"><title>Node1</title>
<polygon fill="#bfbfbf" stroke="black" points="0,-0.5 0,-19.5 122,-19.5 122,-0.5 0,-0.5"/>
<text text-anchor="middle" x="61" y="-7.5" font-family="Helvetica,sans-Serif" font-size="10.00">ReadTextReport2_struct</text>
</g>
<!-- Node2 -->
<g id="node2" class="node"><title>Node2</title>
<a xlink:href="struct_char_report2__struct.html" target="_top" xlink:title="CharReport2_struct">
<polygon fill="white" stroke="black" points="10.5,-68.5 10.5,-87.5 111.5,-87.5 111.5,-68.5 10.5,-68.5"/>
<text text-anchor="middle" x="61" y="-75.5" font-family="Helvetica,sans-Serif" font-size="10.00">CharReport2_struct</text>
</a>
</g>
<!-- Node2&#45;&gt;Node1 -->
<g id="edge2" class="edge"><title>Node2&#45;&gt;Node1</title>
<path fill="none" stroke="#9a32cd" stroke-dasharray="5,2" d="M61,-58.0413C61,-45.4724 61,-29.5631 61,-19.8411"/>
<polygon fill="#9a32cd" stroke="#9a32cd" points="57.5001,-58.3716 61,-68.3717 64.5001,-58.3717 57.5001,-58.3716"/>
<text text-anchor="middle" x="97.5" y="-41.5" font-family="Helvetica,sans-Serif" font-size="10.00"> characterReport</text>
</g>
<!-- Node3 -->
<g id="node4" class="node"><title>Node3</title>
<a xlink:href="struct_point_float__struct.html" target="_top" xlink:title="PointFloat_struct">
<polygon fill="white" stroke="black" points="15.5,-136.5 15.5,-155.5 106.5,-155.5 106.5,-136.5 15.5,-136.5"/>
<text text-anchor="middle" x="61" y="-143.5" font-family="Helvetica,sans-Serif" font-size="10.00">PointFloat_struct</text>
</a>
</g>
<!-- Node3&#45;&gt;Node2 -->
<g id="edge4" class="edge"><title>Node3&#45;&gt;Node2</title>
<path fill="none" stroke="#9a32cd" stroke-dasharray="5,2" d="M61,-126.041C61,-113.472 61,-97.5631 61,-87.8411"/>
<polygon fill="#9a32cd" stroke="#9a32cd" points="57.5001,-126.372 61,-136.372 64.5001,-126.372 57.5001,-126.372"/>
<text text-anchor="middle" x="76.5" y="-109.5" font-family="Helvetica,sans-Serif" font-size="10.00"> corner</text>
</g>
</g>
</svg>
