<?xml version="1.0" encoding="UTF-8" standalone="no"?>
<!DOCTYPE svg PUBLIC "-//W3C//DTD SVG 1.1//EN"
 "http://www.w3.org/Graphics/SVG/1.1/DTD/svg11.dtd">
<!-- Generated by graphviz version 2.28.0 (20110507.0327)
 -->
<!-- Title: InternalParameters_struct Pages: 1 -->
<svg width="217pt" height="108pt"
 viewBox="0.00 0.00 217.00 108.00" xmlns="http://www.w3.org/2000/svg" xmlns:xlink="http://www.w3.org/1999/xlink">
<g id="graph1" class="graph" transform="scale(1 1) rotate(0) translate(4 104)">
<title>InternalParameters_struct</title>
<polygon fill="white" stroke="white" points="-4,5 -4,-104 214,-104 214,5 -4,5"/>
<!-- Node1 -->
<g id="node1" class="node"><title>Node1</title>
<polygon fill="#bfbfbf" stroke="black" points="53,-1 53,-31 151,-31 151,-1 53,-1"/>
<text text-anchor="start" x="61" y="-19" font-family="Helvetica,sans-Serif" font-size="10.00">InternalParameters</text>
<text text-anchor="middle" x="102" y="-8" font-family="Helvetica,sans-Serif" font-size="10.00">_struct</text>
</g>
<!-- Node2 -->
<g id="node2" class="node"><title>Node2</title>
<a xlink:href="struct_point_float__struct.html" target="_top" xlink:title="PointFloat_struct">
<polygon fill="white" stroke="black" points="-0.5,-80.5 -0.5,-99.5 90.5,-99.5 90.5,-80.5 -0.5,-80.5"/>
<text text-anchor="middle" x="45" y="-87.5" font-family="Helvetica,sans-Serif" font-size="10.00">PointFloat_struct</text>
</a>
</g>
<!-- Node2&#45;&gt;Node1 -->
<g id="edge2" class="edge"><title>Node2&#45;&gt;Node1</title>
<path fill="none" stroke="#9a32cd" stroke-dasharray="5,2" d="M58.2191,-72.3022C68.0716,-59.8569 81.3836,-43.0418 90.7333,-31.2316"/>
<polygon fill="#9a32cd" stroke="#9a32cd" points="55.2254,-70.445 51.7625,-80.4579 60.7137,-74.7899 55.2254,-70.445"/>
<text text-anchor="middle" x="106.5" y="-53.5" font-family="Helvetica,sans-Serif" font-size="10.00"> opticalCenter</text>
</g>
<!-- Node3 -->
<g id="node4" class="node"><title>Node3</title>
<a xlink:href="struct_focal_length__struct.html" target="_top" xlink:title="FocalLength_struct">
<polygon fill="white" stroke="black" points="109,-80.5 109,-99.5 209,-99.5 209,-80.5 109,-80.5"/>
<text text-anchor="middle" x="159" y="-87.5" font-family="Helvetica,sans-Serif" font-size="10.00">FocalLength_struct</text>
</a>
</g>
<!-- Node3&#45;&gt;Node1 -->
<g id="edge4" class="edge"><title>Node3&#45;&gt;Node1</title>
<path fill="none" stroke="#9a32cd" stroke-dasharray="5,2" d="M150.44,-71.2356C146.738,-64.3131 142.087,-56.498 137,-50 131.749,-43.2925 125.126,-36.6912 119.058,-31.1763"/>
<polygon fill="#9a32cd" stroke="#9a32cd" points="147.483,-73.1435 155.125,-80.4819 153.727,-69.9796 147.483,-73.1435"/>
<text text-anchor="middle" x="171.5" y="-53.5" font-family="Helvetica,sans-Serif" font-size="10.00"> focalLength</text>
</g>
</g>
</svg>
