<?xml version="1.0" encoding="UTF-8" standalone="no"?>
<!DOCTYPE svg PUBLIC "-//W3C//DTD SVG 1.1//EN"
 "http://www.w3.org/Graphics/SVG/1.1/DTD/svg11.dtd">
<!-- Generated by graphviz version 2.28.0 (20110507.0327)
 -->
<!-- Title: GetCameraParametersReport_struct Pages: 1 -->
<svg width="454pt" height="188pt"
 viewBox="0.00 0.00 454.00 188.00" xmlns="http://www.w3.org/2000/svg" xmlns:xlink="http://www.w3.org/1999/xlink">
<g id="graph1" class="graph" transform="scale(1 1) rotate(0) translate(4 184)">
<title>GetCameraParametersReport_struct</title>
<polygon fill="white" stroke="white" points="-4,5 -4,-184 451,-184 451,5 -4,5"/>
<!-- Node1 -->
<g id="node1" class="node"><title>Node1</title>
<polygon fill="#bfbfbf" stroke="black" points="150.5,-1 150.5,-31 295.5,-31 295.5,-1 150.5,-1"/>
<text text-anchor="start" x="158.5" y="-19" font-family="Helvetica,sans-Serif" font-size="10.00">GetCameraParametersReport</text>
<text text-anchor="middle" x="223" y="-8" font-family="Helvetica,sans-Serif" font-size="10.00">_struct</text>
</g>
<!-- Node2 -->
<g id="node2" class="node"><title>Node2</title>
<a xlink:href="struct_internal_parameters__struct.html" target="_top" xlink:title="InternalParameters\l_struct">
<polygon fill="white" stroke="black" points="107,-81 107,-111 205,-111 205,-81 107,-81"/>
<text text-anchor="start" x="115" y="-99" font-family="Helvetica,sans-Serif" font-size="10.00">InternalParameters</text>
<text text-anchor="middle" x="156" y="-88" font-family="Helvetica,sans-Serif" font-size="10.00">_struct</text>
</a>
</g>
<!-- Node2&#45;&gt;Node1 -->
<g id="edge2" class="edge"><title>Node2&#45;&gt;Node1</title>
<path fill="none" stroke="#9a32cd" stroke-dasharray="5,2" d="M163.671,-71.4048C166.766,-64.0655 170.847,-56.2638 176,-50 181.954,-42.7626 189.873,-36.3909 197.51,-31.2249"/>
<polygon fill="#9a32cd" stroke="#9a32cd" points="160.329,-70.3474 160.053,-80.9386 166.873,-72.8311 160.329,-70.3474"/>
<text text-anchor="middle" x="210.5" y="-53.5" font-family="Helvetica,sans-Serif" font-size="10.00"> internalParams</text>
</g>
<!-- Node3 -->
<g id="node4" class="node"><title>Node3</title>
<a xlink:href="struct_point_float__struct.html" target="_top" xlink:title="PointFloat_struct">
<polygon fill="white" stroke="black" points="-0.5,-160.5 -0.5,-179.5 90.5,-179.5 90.5,-160.5 -0.5,-160.5"/>
<text text-anchor="middle" x="45" y="-167.5" font-family="Helvetica,sans-Serif" font-size="10.00">PointFloat_struct</text>
</a>
</g>
<!-- Node3&#45;&gt;Node2 -->
<g id="edge4" class="edge"><title>Node3&#45;&gt;Node2</title>
<path fill="none" stroke="#9a32cd" stroke-dasharray="5,2" d="M62.1954,-153.624C71.0698,-146.06 82.2633,-137.071 93,-130 103.415,-123.141 115.418,-116.557 126.135,-111.099"/>
<polygon fill="#9a32cd" stroke="#9a32cd" points="59.7336,-151.127 54.4882,-160.332 64.3292,-156.407 59.7336,-151.127"/>
<text text-anchor="middle" x="123.5" y="-133.5" font-family="Helvetica,sans-Serif" font-size="10.00"> opticalCenter</text>
</g>
<!-- Node4 -->
<g id="node6" class="node"><title>Node4</title>
<a xlink:href="struct_focal_length__struct.html" target="_top" xlink:title="FocalLength_struct">
<polygon fill="white" stroke="black" points="109,-160.5 109,-179.5 209,-179.5 209,-160.5 109,-160.5"/>
<text text-anchor="middle" x="159" y="-167.5" font-family="Helvetica,sans-Serif" font-size="10.00">FocalLength_struct</text>
</a>
</g>
<!-- Node4&#45;&gt;Node2 -->
<g id="edge6" class="edge"><title>Node4&#45;&gt;Node2</title>
<path fill="none" stroke="#9a32cd" stroke-dasharray="5,2" d="M158.227,-150.46C157.718,-138.236 157.061,-122.468 156.593,-111.232"/>
<polygon fill="#9a32cd" stroke="#9a32cd" points="154.731,-150.612 158.644,-160.458 161.725,-150.321 154.731,-150.612"/>
<text text-anchor="middle" x="184.5" y="-133.5" font-family="Helvetica,sans-Serif" font-size="10.00"> focalLength</text>
</g>
<!-- Node5 -->
<g id="node8" class="node"><title>Node5</title>
<a xlink:href="struct_distortion_model_params__struct.html" target="_top" xlink:title="DistortionModelParams\l_struct">
<polygon fill="white" stroke="black" points="223,-81 223,-111 341,-111 341,-81 223,-81"/>
<text text-anchor="start" x="231" y="-99" font-family="Helvetica,sans-Serif" font-size="10.00">DistortionModelParams</text>
<text text-anchor="middle" x="282" y="-88" font-family="Helvetica,sans-Serif" font-size="10.00">_struct</text>
</a>
</g>
<!-- Node5&#45;&gt;Node1 -->
<g id="edge8" class="edge"><title>Node5&#45;&gt;Node1</title>
<path fill="none" stroke="#9a32cd" stroke-dasharray="5,2" d="M264.97,-72.4858C254.905,-59.1793 242.466,-42.7348 233.753,-31.2157"/>
<polygon fill="#9a32cd" stroke="#9a32cd" points="262.354,-74.8296 271.178,-80.6936 267.937,-70.6067 262.354,-74.8296"/>
<text text-anchor="middle" x="278.5" y="-53.5" font-family="Helvetica,sans-Serif" font-size="10.00"> distortion</text>
</g>
<!-- Node6 -->
<g id="node10" class="node"><title>Node6</title>
<a xlink:href="struct_poly_model__struct.html" target="_top" xlink:title="PolyModel_struct">
<polygon fill="white" stroke="black" points="230,-160.5 230,-179.5 322,-179.5 322,-160.5 230,-160.5"/>
<text text-anchor="middle" x="276" y="-167.5" font-family="Helvetica,sans-Serif" font-size="10.00">PolyModel_struct</text>
</a>
</g>
<!-- Node6&#45;&gt;Node5 -->
<g id="edge10" class="edge"><title>Node6&#45;&gt;Node5</title>
<path fill="none" stroke="#9a32cd" stroke-dasharray="5,2" d="M277.545,-150.46C278.564,-138.236 279.878,-122.468 280.814,-111.232"/>
<polygon fill="#9a32cd" stroke="#9a32cd" points="274.054,-150.202 276.712,-160.458 281.03,-150.783 274.054,-150.202"/>
<text text-anchor="middle" x="304" y="-133.5" font-family="Helvetica,sans-Serif" font-size="10.00"> polyModel</text>
</g>
<!-- Node7 -->
<g id="node12" class="node"><title>Node7</title>
<a xlink:href="struct_division_model__struct.html" target="_top" xlink:title="DivisionModel_struct">
<polygon fill="white" stroke="black" points="340,-160.5 340,-179.5 446,-179.5 446,-160.5 340,-160.5"/>
<text text-anchor="middle" x="393" y="-167.5" font-family="Helvetica,sans-Serif" font-size="10.00">DivisionModel_struct</text>
</a>
</g>
<!-- Node7&#45;&gt;Node5 -->
<g id="edge12" class="edge"><title>Node7&#45;&gt;Node5</title>
<path fill="none" stroke="#9a32cd" stroke-dasharray="5,2" d="M371.336,-154.948C351.887,-142.332 323.474,-123.902 303.94,-111.232"/>
<polygon fill="#9a32cd" stroke="#9a32cd" points="369.537,-157.952 379.831,-160.458 373.346,-152.08 369.537,-157.952"/>
<text text-anchor="middle" x="381.5" y="-133.5" font-family="Helvetica,sans-Serif" font-size="10.00"> divisionModel</text>
</g>
</g>
</svg>
