<?xml version="1.0" encoding="UTF-8" standalone="no"?>
<!DOCTYPE svg PUBLIC "-//W3C//DTD SVG 1.1//EN"
 "http://www.w3.org/Graphics/SVG/1.1/DTD/svg11.dtd">
<!-- Generated by graphviz version 2.28.0 (20110507.0327)
 -->
<!-- Title: ContourFitSplineReport_struct Pages: 1 -->
<svg width="124pt" height="108pt"
 viewBox="0.00 0.00 124.00 108.00" xmlns="http://www.w3.org/2000/svg" xmlns:xlink="http://www.w3.org/1999/xlink">
<g id="graph1" class="graph" transform="scale(1 1) rotate(0) translate(4 104)">
<title>ContourFitSplineReport_struct</title>
<polygon fill="white" stroke="white" points="-4,5 -4,-104 121,-104 121,5 -4,5"/>
<!-- Node1 -->
<g id="node1" class="node"><title>Node1</title>
<polygon fill="#bfbfbf" stroke="black" points="-0.5,-1 -0.5,-31 116.5,-31 116.5,-1 -0.5,-1"/>
<text text-anchor="start" x="7.5" y="-19" font-family="Helvetica,sans-Serif" font-size="10.00">ContourFitSplineReport</text>
<text text-anchor="middle" x="58" y="-8" font-family="Helvetica,sans-Serif" font-size="10.00">_struct</text>
</g>
<!-- Node2 -->
<g id="node2" class="node"><title>Node2</title>
<a xlink:href="struct_point_double__struct.html" target="_top" xlink:title="PointDouble_struct">
<polygon fill="white" stroke="black" points="8.5,-80.5 8.5,-99.5 107.5,-99.5 107.5,-80.5 8.5,-80.5"/>
<text text-anchor="middle" x="58" y="-87.5" font-family="Helvetica,sans-Serif" font-size="10.00">PointDouble_struct</text>
</a>
</g>
<!-- Node2&#45;&gt;Node1 -->
<g id="edge2" class="edge"><title>Node2&#45;&gt;Node1</title>
<path fill="none" stroke="#9a32cd" stroke-dasharray="5,2" d="M58,-70.0846C58,-57.9148 58,-42.3538 58,-31.2316"/>
<polygon fill="#9a32cd" stroke="#9a32cd" points="54.5001,-70.4579 58,-80.4579 61.5001,-70.4579 54.5001,-70.4579"/>
<text text-anchor="middle" x="73" y="-53.5" font-family="Helvetica,sans-Serif" font-size="10.00"> points</text>
</g>
</g>
</svg>
