<?xml version="1.0" encoding="UTF-8" standalone="no"?>
<!DOCTYPE svg PUBLIC "-//W3C//DTD SVG 1.1//EN"
 "http://www.w3.org/Graphics/SVG/1.1/DTD/svg11.dtd">
<!-- Generated by graphviz version 2.28.0 (20110507.0327)
 -->
<!-- Title: QRCodeReport_struct Pages: 1 -->
<svg width="247pt" height="96pt"
 viewBox="0.00 0.00 247.00 96.00" xmlns="http://www.w3.org/2000/svg" xmlns:xlink="http://www.w3.org/1999/xlink">
<g id="graph1" class="graph" transform="scale(1 1) rotate(0) translate(4 92)">
<title>QRCodeReport_struct</title>
<polygon fill="white" stroke="white" points="-4,5 -4,-92 244,-92 244,5 -4,5"/>
<!-- Node1 -->
<g id="node1" class="node"><title>Node1</title>
<polygon fill="#bfbfbf" stroke="black" points="53,-0.5 53,-19.5 165,-19.5 165,-0.5 53,-0.5"/>
<text text-anchor="middle" x="109" y="-7.5" font-family="Helvetica,sans-Serif" font-size="10.00">QRCodeReport_struct</text>
</g>
<!-- Node2 -->
<g id="node2" class="node"><title>Node2</title>
<a xlink:href="struct_point_float__struct.html" target="_top" xlink:title="PointFloat_struct">
<polygon fill="white" stroke="black" points="-0.5,-68.5 -0.5,-87.5 90.5,-87.5 90.5,-68.5 -0.5,-68.5"/>
<text text-anchor="middle" x="45" y="-75.5" font-family="Helvetica,sans-Serif" font-size="10.00">PointFloat_struct</text>
</a>
</g>
<!-- Node2&#45;&gt;Node1 -->
<g id="edge2" class="edge"><title>Node2&#45;&gt;Node1</title>
<path fill="none" stroke="#9a32cd" stroke-dasharray="5,2" d="M60.4692,-61.0474C73.0135,-48.1111 90.2298,-30.3567 100.427,-19.8411"/>
<polygon fill="#9a32cd" stroke="#9a32cd" points="57.8157,-58.7561 53.3669,-68.3717 62.841,-63.6291 57.8157,-58.7561"/>
<text text-anchor="middle" x="113" y="-41.5" font-family="Helvetica,sans-Serif" font-size="10.00"> boundingBox</text>
</g>
<!-- Node3 -->
<g id="node4" class="node"><title>Node3</title>
<a xlink:href="struct_q_r_code_data_token__struct.html" target="_top" xlink:title="QRCodeDataToken_struct">
<polygon fill="white" stroke="black" points="109,-68.5 109,-87.5 239,-87.5 239,-68.5 109,-68.5"/>
<text text-anchor="middle" x="174" y="-75.5" font-family="Helvetica,sans-Serif" font-size="10.00">QRCodeDataToken_struct</text>
</a>
</g>
<!-- Node3&#45;&gt;Node1 -->
<g id="edge4" class="edge"><title>Node3&#45;&gt;Node1</title>
<path fill="none" stroke="#9a32cd" stroke-dasharray="5,2" d="M163.709,-59.4335C159.099,-52.3488 153.287,-44.3638 147,-38 140.061,-30.9759 131.106,-24.5147 123.632,-19.675"/>
<polygon fill="#9a32cd" stroke="#9a32cd" points="160.949,-61.6271 169.179,-68.2994 166.907,-57.9512 160.949,-61.6271"/>
<text text-anchor="middle" x="191" y="-41.5" font-family="Helvetica,sans-Serif" font-size="10.00"> tokenizedData</text>
</g>
</g>
</svg>
