<?xml version="1.0" encoding="UTF-8" standalone="no"?>
<!DOCTYPE svg PUBLIC "-//W3C//DTD SVG 1.1//EN"
 "http://www.w3.org/Graphics/SVG/1.1/DTD/svg11.dtd">
<!-- Generated by graphviz version 2.28.0 (20110507.0327)
 -->
<!-- Title: DistortionModelParams_struct Pages: 1 -->
<svg width="224pt" height="108pt"
 viewBox="0.00 0.00 224.00 108.00" xmlns="http://www.w3.org/2000/svg" xmlns:xlink="http://www.w3.org/1999/xlink">
<g id="graph1" class="graph" transform="scale(1 1) rotate(0) translate(4 104)">
<title>DistortionModelParams_struct</title>
<polygon fill="white" stroke="white" points="-4,5 -4,-104 221,-104 221,5 -4,5"/>
<!-- Node1 -->
<g id="node1" class="node"><title>Node1</title>
<polygon fill="#bfbfbf" stroke="black" points="45,-1 45,-31 163,-31 163,-1 45,-1"/>
<text text-anchor="start" x="53" y="-19" font-family="Helvetica,sans-Serif" font-size="10.00">DistortionModelParams</text>
<text text-anchor="middle" x="104" y="-8" font-family="Helvetica,sans-Serif" font-size="10.00">_struct</text>
</g>
<!-- Node2 -->
<g id="node2" class="node"><title>Node2</title>
<a xlink:href="struct_poly_model__struct.html" target="_top" xlink:title="PolyModel_struct">
<polygon fill="white" stroke="black" points="0,-80.5 0,-99.5 92,-99.5 92,-80.5 0,-80.5"/>
<text text-anchor="middle" x="46" y="-87.5" font-family="Helvetica,sans-Serif" font-size="10.00">PolyModel_struct</text>
</a>
</g>
<!-- Node2&#45;&gt;Node1 -->
<g id="edge2" class="edge"><title>Node2&#45;&gt;Node1</title>
<path fill="none" stroke="#9a32cd" stroke-dasharray="5,2" d="M59.16,-72.6634C69.213,-60.1839 82.9295,-43.1565 92.5357,-31.2316"/>
<polygon fill="#9a32cd" stroke="#9a32cd" points="56.4288,-70.4747 52.8811,-80.4579 61.8801,-74.866 56.4288,-70.4747"/>
<text text-anchor="middle" x="101" y="-53.5" font-family="Helvetica,sans-Serif" font-size="10.00"> polyModel</text>
</g>
<!-- Node3 -->
<g id="node4" class="node"><title>Node3</title>
<a xlink:href="struct_division_model__struct.html" target="_top" xlink:title="DivisionModel_struct">
<polygon fill="white" stroke="black" points="110,-80.5 110,-99.5 216,-99.5 216,-80.5 110,-80.5"/>
<text text-anchor="middle" x="163" y="-87.5" font-family="Helvetica,sans-Serif" font-size="10.00">DivisionModel_struct</text>
</a>
</g>
<!-- Node3&#45;&gt;Node1 -->
<g id="edge4" class="edge"><title>Node3&#45;&gt;Node1</title>
<path fill="none" stroke="#9a32cd" stroke-dasharray="5,2" d="M149.613,-72.6634C139.387,-60.1839 125.434,-43.1565 115.662,-31.2316"/>
<polygon fill="#9a32cd" stroke="#9a32cd" points="146.955,-74.9415 156,-80.4579 152.369,-70.5047 146.955,-74.9415"/>
<text text-anchor="middle" x="170.5" y="-53.5" font-family="Helvetica,sans-Serif" font-size="10.00"> divisionModel</text>
</g>
</g>
</svg>
