<?xml version="1.0" encoding="UTF-8" standalone="no"?>
<!DOCTYPE svg PUBLIC "-//W3C//DTD SVG 1.1//EN"
 "http://www.w3.org/Graphics/SVG/1.1/DTD/svg11.dtd">
<!-- Generated by graphviz version 2.28.0 (20110507.0327)
 -->
<!-- Title: ColorHistogramReport_struct Pages: 1 -->
<svg width="126pt" height="130pt"
 viewBox="0.00 0.00 126.00 130.00" xmlns="http://www.w3.org/2000/svg" xmlns:xlink="http://www.w3.org/1999/xlink">
<g id="graph1" class="graph" transform="scale(1 1) rotate(0) translate(4 126)">
<title>ColorHistogramReport_struct</title>
<polygon fill="white" stroke="white" points="-4,5 -4,-126 123,-126 123,5 -4,5"/>
<!-- Node1 -->
<g id="node1" class="node"><title>Node1</title>
<polygon fill="#bfbfbf" stroke="black" points="3,-1 3,-31 115,-31 115,-1 3,-1"/>
<text text-anchor="start" x="11" y="-19" font-family="Helvetica,sans-Serif" font-size="10.00">ColorHistogramReport</text>
<text text-anchor="middle" x="59" y="-8" font-family="Helvetica,sans-Serif" font-size="10.00">_struct</text>
</g>
<!-- Node2 -->
<g id="node2" class="node"><title>Node2</title>
<a xlink:href="struct_histogram_report__struct.html" target="_top" xlink:title="HistogramReport_struct">
<polygon fill="white" stroke="black" points="-0.5,-102.5 -0.5,-121.5 118.5,-121.5 118.5,-102.5 -0.5,-102.5"/>
<text text-anchor="middle" x="59" y="-109.5" font-family="Helvetica,sans-Serif" font-size="10.00">HistogramReport_struct</text>
</a>
</g>
<!-- Node2&#45;&gt;Node1 -->
<g id="edge2" class="edge"><title>Node2&#45;&gt;Node1</title>
<path fill="none" stroke="#9a32cd" stroke-dasharray="5,2" d="M59,-92.1742C59,-74.1467 59,-47.3541 59,-31.0982"/>
<polygon fill="#9a32cd" stroke="#9a32cd" points="55.5001,-92.3252 59,-102.325 62.5001,-92.3252 55.5001,-92.3252"/>
<text text-anchor="middle" x="75" y="-75.5" font-family="Helvetica,sans-Serif" font-size="10.00"> plane1</text>
<text text-anchor="middle" x="75" y="-64.5" font-family="Helvetica,sans-Serif" font-size="10.00">plane2</text>
<text text-anchor="middle" x="75" y="-53.5" font-family="Helvetica,sans-Serif" font-size="10.00">plane3</text>
</g>
</g>
</svg>
