<?xml version="1.0" encoding="UTF-8" standalone="no"?>
<!DOCTYPE svg PUBLIC "-//W3C//DTD SVG 1.1//EN"
 "http://www.w3.org/Graphics/SVG/1.1/DTD/svg11.dtd">
<!-- Generated by graphviz version 2.28.0 (20110507.0327)
 -->
<!-- Title: CalibrationReferencePoints_struct Pages: 1 -->
<svg width="217pt" height="118pt"
 viewBox="0.00 0.00 217.00 118.00" xmlns="http://www.w3.org/2000/svg" xmlns:xlink="http://www.w3.org/1999/xlink">
<g id="graph1" class="graph" transform="scale(1 1) rotate(0) translate(4 114)">
<title>CalibrationReferencePoints_struct</title>
<polygon fill="white" stroke="white" points="-4,5 -4,-114 214,-114 214,5 -4,5"/>
<!-- Node1 -->
<g id="node1" class="node"><title>Node1</title>
<polygon fill="#bfbfbf" stroke="black" points="36,-1 36,-31 170,-31 170,-1 36,-1"/>
<text text-anchor="start" x="44" y="-19" font-family="Helvetica,sans-Serif" font-size="10.00">CalibrationReferencePoints</text>
<text text-anchor="middle" x="103" y="-8" font-family="Helvetica,sans-Serif" font-size="10.00">_struct</text>
</g>
<!-- Node2 -->
<g id="node2" class="node"><title>Node2</title>
<a xlink:href="struct_image_size__struct.html" target="_top" xlink:title="ImageSize_struct">
<polygon fill="white" stroke="black" points="0,-90.5 0,-109.5 92,-109.5 92,-90.5 0,-90.5"/>
<text text-anchor="middle" x="46" y="-97.5" font-family="Helvetica,sans-Serif" font-size="10.00">ImageSize_struct</text>
</a>
</g>
<!-- Node2&#45;&gt;Node1 -->
<g id="edge2" class="edge"><title>Node2&#45;&gt;Node1</title>
<path fill="none" stroke="#9a32cd" stroke-dasharray="5,2" d="M57.927,-81.8418C68.37,-66.8185 83.3626,-45.2504 93.1405,-31.1839"/>
<polygon fill="#9a32cd" stroke="#9a32cd" points="54.9339,-80.0157 52.1,-90.2246 60.6816,-84.0112 54.9339,-80.0157"/>
<text text-anchor="middle" x="104.5" y="-58.5" font-family="Helvetica,sans-Serif" font-size="10.00"> imageSize</text>
</g>
<!-- Node3 -->
<g id="node4" class="node"><title>Node3</title>
<a xlink:href="struct_point_double__struct.html" target="_top" xlink:title="PointDouble_struct">
<polygon fill="white" stroke="black" points="110.5,-90.5 110.5,-109.5 209.5,-109.5 209.5,-90.5 110.5,-90.5"/>
<text text-anchor="middle" x="160" y="-97.5" font-family="Helvetica,sans-Serif" font-size="10.00">PointDouble_struct</text>
</a>
</g>
<!-- Node3&#45;&gt;Node1 -->
<g id="edge4" class="edge"><title>Node3&#45;&gt;Node1</title>
<path fill="none" stroke="#9a32cd" stroke-dasharray="5,2" d="M151.536,-81.3253C146.631,-71.7308 140.044,-59.8516 133,-50 128.317,-43.4497 122.487,-36.7752 117.216,-31.1585"/>
<polygon fill="#9a32cd" stroke="#9a32cd" points="148.413,-82.9067 155.987,-90.316 154.687,-79.8012 148.413,-82.9067"/>
<text text-anchor="middle" x="173.5" y="-64" font-family="Helvetica,sans-Serif" font-size="10.00"> pixelCoords</text>
<text text-anchor="middle" x="173.5" y="-53" font-family="Helvetica,sans-Serif" font-size="10.00">realCoords</text>
</g>
</g>
</svg>
