<?xml version="1.0" encoding="UTF-8" standalone="no"?>
<!DOCTYPE svg PUBLIC "-//W3C//DTD SVG 1.1//EN"
 "http://www.w3.org/Graphics/SVG/1.1/DTD/svg11.dtd">
<!-- Generated by graphviz version 2.28.0 (20110507.0327)
 -->
<!-- Title: FeatureData_struct Pages: 1 -->
<svg width="1088pt" height="519pt"
 viewBox="0.00 0.00 1088.00 518.59" xmlns="http://www.w3.org/2000/svg" xmlns:xlink="http://www.w3.org/1999/xlink">
<g id="graph1" class="graph" transform="scale(1 1) rotate(0) translate(4 514.593)">
<title>FeatureData_struct</title>
<polygon fill="white" stroke="white" points="-4,5 -4,-514.593 1085,-514.593 1085,5 -4,5"/>
<!-- Node1 -->
<g id="node1" class="node"><title>Node1</title>
<polygon fill="#bfbfbf" stroke="black" points="980,-424.093 980,-443.093 1080,-443.093 1080,-424.093 980,-424.093"/>
<text text-anchor="middle" x="1030" y="-431.093" font-family="Helvetica,sans-Serif" font-size="10.00">FeatureData_struct</text>
</g>
<!-- Node2 -->
<g id="node2" class="node"><title>Node2</title>
<a xlink:href="struct_point_float__struct.html" target="_top" xlink:title="PointFloat_struct">
<polygon fill="white" stroke="black" points="0.5,-278.093 0.5,-297.093 91.5,-297.093 91.5,-278.093 0.5,-278.093"/>
<text text-anchor="middle" x="46" y="-285.093" font-family="Helvetica,sans-Serif" font-size="10.00">PointFloat_struct</text>
</a>
</g>
<!-- Node2&#45;&gt;Node1 -->
<g id="edge2" class="edge"><title>Node2&#45;&gt;Node1</title>
<path fill="none" stroke="#9a32cd" stroke-dasharray="5,2" d="M48.4883,-307.569C52.251,-343.302 65.3175,-418.195 110,-458.593 164.133,-507.536 196.022,-499.593 269,-499.593 269,-499.593 269,-499.593 849,-499.593 913.572,-499.593 983.647,-461.691 1013.8,-443.332"/>
<polygon fill="#9a32cd" stroke="#9a32cd" points="51.9582,-307.078 47.5653,-297.437 44.9871,-307.713 51.9582,-307.078"/>
<text text-anchor="middle" x="573" y="-502.593" font-family="Helvetica,sans-Serif" font-size="10.00"> contourPoints</text>
</g>
<!-- Node4 -->
<g id="node6" class="node"><title>Node4</title>
<a xlink:href="struct_circle_feature__struct.html" target="_top" xlink:title="CircleFeature_struct">
<polygon fill="white" stroke="black" points="363,-436.093 363,-455.093 467,-455.093 467,-436.093 363,-436.093"/>
<text text-anchor="middle" x="415" y="-443.093" font-family="Helvetica,sans-Serif" font-size="10.00">CircleFeature_struct</text>
</a>
</g>
<!-- Node2&#45;&gt;Node4 -->
<g id="edge8" class="edge"><title>Node2&#45;&gt;Node4</title>
<path fill="none" stroke="#9a32cd" stroke-dasharray="5,2" d="M50.965,-307.13C57.761,-335.125 74.4863,-385.981 110,-410.593 185.65,-463.021 298.139,-460.517 362.957,-453.42"/>
<polygon fill="#9a32cd" stroke="#9a32cd" points="54.3653,-306.298 48.7627,-297.306 47.5347,-307.829 54.3653,-306.298"/>
<text text-anchor="middle" x="150" y="-446.593" font-family="Helvetica,sans-Serif" font-size="10.00"> position</text>
</g>
<!-- Node5 -->
<g id="node9" class="node"><title>Node5</title>
<a xlink:href="struct_const_curve_feature__struct.html" target="_top" xlink:title="ConstCurveFeature_struct">
<polygon fill="white" stroke="black" points="350.5,-390.093 350.5,-409.093 479.5,-409.093 479.5,-390.093 350.5,-390.093"/>
<text text-anchor="middle" x="415" y="-397.093" font-family="Helvetica,sans-Serif" font-size="10.00">ConstCurveFeature_struct</text>
</a>
</g>
<!-- Node2&#45;&gt;Node5 -->
<g id="edge12" class="edge"><title>Node2&#45;&gt;Node5</title>
<path fill="none" stroke="#9a32cd" stroke-dasharray="5,2" d="M55.9797,-306.206C66.2093,-325.167 84.8256,-353.7 110,-367.593 184.805,-408.878 285.759,-410.891 350.383,-406.7"/>
<polygon fill="#9a32cd" stroke="#9a32cd" points="59.0843,-304.59 51.4045,-297.291 52.8566,-307.786 59.0843,-304.59"/>
<text text-anchor="middle" x="150" y="-398.593" font-family="Helvetica,sans-Serif" font-size="10.00"> position</text>
</g>
<!-- Node6 -->
<g id="node12" class="node"><title>Node6</title>
<a xlink:href="struct_closed_curve_feature__struct.html" target="_top" xlink:title="ClosedCurveFeature\l_struct">
<polygon fill="white" stroke="black" points="521,-338.593 521,-368.593 625,-368.593 625,-338.593 521,-338.593"/>
<text text-anchor="start" x="529" y="-356.593" font-family="Helvetica,sans-Serif" font-size="10.00">ClosedCurveFeature</text>
<text text-anchor="middle" x="573" y="-345.593" font-family="Helvetica,sans-Serif" font-size="10.00">_struct</text>
</a>
</g>
<!-- Node2&#45;&gt;Node6 -->
<g id="edge16" class="edge"><title>Node2&#45;&gt;Node6</title>
<path fill="none" stroke="#9a32cd" stroke-dasharray="5,2" d="M69.3386,-302.682C80.952,-309.721 95.6823,-317.445 110,-321.593 254.409,-363.435 434.362,-361.223 520.876,-356.991"/>
<polygon fill="#9a32cd" stroke="#9a32cd" points="71.0845,-299.645 60.7604,-297.265 67.3471,-305.564 71.0845,-299.645"/>
<text text-anchor="middle" x="270" y="-359.593" font-family="Helvetica,sans-Serif" font-size="10.00"> position</text>
</g>
<!-- Node7 -->
<g id="node15" class="node"><title>Node7</title>
<a xlink:href="struct_line_feature__struct.html" target="_top" xlink:title="LineFeature_struct">
<polygon fill="white" stroke="black" points="366,-299.093 366,-318.093 464,-318.093 464,-299.093 366,-299.093"/>
<text text-anchor="middle" x="415" y="-306.093" font-family="Helvetica,sans-Serif" font-size="10.00">LineFeature_struct</text>
</a>
</g>
<!-- Node2&#45;&gt;Node7 -->
<g id="edge20" class="edge"><title>Node2&#45;&gt;Node7</title>
<path fill="none" stroke="#9a32cd" stroke-dasharray="5,2" d="M101.807,-290.729C173.437,-294.828 297.752,-301.941 365.9,-305.841"/>
<polygon fill="#9a32cd" stroke="#9a32cd" points="101.818,-287.224 91.6345,-290.147 101.418,-294.213 101.818,-287.224"/>
<text text-anchor="middle" x="150" y="-309.593" font-family="Helvetica,sans-Serif" font-size="10.00"> startPoint</text>
<text text-anchor="middle" x="150" y="-298.593" font-family="Helvetica,sans-Serif" font-size="10.00">endPoint</text>
</g>
<!-- Node8 -->
<g id="node18" class="node"><title>Node8</title>
<a xlink:href="struct_ellipse_feature__struct.html" target="_top" xlink:title="EllipseFeature_struct">
<polygon fill="white" stroke="black" points="518.5,-253.093 518.5,-272.093 627.5,-272.093 627.5,-253.093 518.5,-253.093"/>
<text text-anchor="middle" x="573" y="-260.093" font-family="Helvetica,sans-Serif" font-size="10.00">EllipseFeature_struct</text>
</a>
</g>
<!-- Node2&#45;&gt;Node8 -->
<g id="edge24" class="edge"><title>Node2&#45;&gt;Node8</title>
<path fill="none" stroke="#9a32cd" stroke-dasharray="5,2" d="M101.779,-284.985C203.012,-280.164 418.183,-269.918 518.47,-265.142"/>
<polygon fill="#9a32cd" stroke="#9a32cd" points="101.583,-281.49 91.7612,-285.462 101.916,-288.482 101.583,-281.49"/>
<text text-anchor="middle" x="270" y="-282.593" font-family="Helvetica,sans-Serif" font-size="10.00"> position</text>
</g>
<!-- Node10 -->
<g id="node23" class="node"><title>Node10</title>
<a xlink:href="struct_parallel_line_pair_feature__struct.html" target="_top" xlink:title="ParallelLinePairFeature\l_struct">
<polygon fill="white" stroke="black" points="211.5,-194.593 211.5,-224.593 328.5,-224.593 328.5,-194.593 211.5,-194.593"/>
<text text-anchor="start" x="219.5" y="-212.593" font-family="Helvetica,sans-Serif" font-size="10.00">ParallelLinePairFeature</text>
<text text-anchor="middle" x="270" y="-201.593" font-family="Helvetica,sans-Serif" font-size="10.00">_struct</text>
</a>
</g>
<!-- Node2&#45;&gt;Node10 -->
<g id="edge30" class="edge"><title>Node2&#45;&gt;Node10</title>
<path fill="none" stroke="#9a32cd" stroke-dasharray="5,2" d="M56.0506,-268.917C66.2524,-250.253 84.7673,-222.648 110,-210.593 141.135,-195.719 179.774,-195.132 211.164,-198.426"/>
<polygon fill="#9a32cd" stroke="#9a32cd" points="52.8523,-267.482 51.3648,-277.972 59.0692,-270.7 52.8523,-267.482"/>
<text text-anchor="middle" x="150" y="-246.593" font-family="Helvetica,sans-Serif" font-size="10.00"> secondStartPoint</text>
<text text-anchor="middle" x="150" y="-235.593" font-family="Helvetica,sans-Serif" font-size="10.00">firstEndPoint</text>
<text text-anchor="middle" x="150" y="-224.593" font-family="Helvetica,sans-Serif" font-size="10.00">firstStartPoint</text>
<text text-anchor="middle" x="150" y="-213.593" font-family="Helvetica,sans-Serif" font-size="10.00">secondEndPoint</text>
</g>
<!-- Node11 -->
<g id="node26" class="node"><title>Node11</title>
<a xlink:href="struct_corner_feature__struct.html" target="_top" xlink:title="CornerFeature_struct">
<polygon fill="white" stroke="black" points="361,-123.093 361,-142.093 469,-142.093 469,-123.093 361,-123.093"/>
<text text-anchor="middle" x="415" y="-130.093" font-family="Helvetica,sans-Serif" font-size="10.00">CornerFeature_struct</text>
</a>
</g>
<!-- Node2&#45;&gt;Node11 -->
<g id="edge34" class="edge"><title>Node2&#45;&gt;Node11</title>
<path fill="none" stroke="#9a32cd" stroke-dasharray="5,2" d="M52.928,-268.301C61.4296,-244.109 79.5166,-203.3 110,-182.593 185.658,-131.199 295.881,-126.155 360.735,-128.472"/>
<polygon fill="#9a32cd" stroke="#9a32cd" points="49.5935,-267.237 49.7744,-277.83 56.239,-269.436 49.5935,-267.237"/>
<text text-anchor="middle" x="150" y="-185.593" font-family="Helvetica,sans-Serif" font-size="10.00"> position</text>
</g>
<!-- Node12 -->
<g id="node29" class="node"><title>Node12</title>
<a xlink:href="struct_leg_feature__struct.html" target="_top" xlink:title="LegFeature_struct">
<polygon fill="white" stroke="black" points="222.5,-85.0932 222.5,-104.093 317.5,-104.093 317.5,-85.0932 222.5,-85.0932"/>
<text text-anchor="middle" x="270" y="-92.0932" font-family="Helvetica,sans-Serif" font-size="10.00">LegFeature_struct</text>
</a>
</g>
<!-- Node2&#45;&gt;Node12 -->
<g id="edge38" class="edge"><title>Node2&#45;&gt;Node12</title>
<path fill="none" stroke="#9a32cd" stroke-dasharray="5,2" d="M48.1267,-267.898C51.3135,-232.045 63.4947,-156.346 110,-118.593 141.211,-93.2565 187.618,-88.8298 222.25,-89.8061"/>
<polygon fill="#9a32cd" stroke="#9a32cd" points="44.6238,-267.809 47.376,-278.04 51.6047,-268.326 44.6238,-267.809"/>
<text text-anchor="middle" x="150" y="-132.593" font-family="Helvetica,sans-Serif" font-size="10.00"> corner</text>
<text text-anchor="middle" x="150" y="-121.593" font-family="Helvetica,sans-Serif" font-size="10.00">position</text>
</g>
<!-- Node13 -->
<g id="node32" class="node"><title>Node13</title>
<a xlink:href="struct_rectangle_feature__struct.html" target="_top" xlink:title="RectangleFeature_struct">
<polygon fill="white" stroke="black" points="208.5,-26.0932 208.5,-45.0932 331.5,-45.0932 331.5,-26.0932 208.5,-26.0932"/>
<text text-anchor="middle" x="270" y="-33.0932" font-family="Helvetica,sans-Serif" font-size="10.00">RectangleFeature_struct</text>
</a>
</g>
<!-- Node2&#45;&gt;Node13 -->
<g id="edge42" class="edge"><title>Node2&#45;&gt;Node13</title>
<path fill="none" stroke="#9a32cd" stroke-dasharray="5,2" d="M46.2272,-267.607C45.7118,-223.898 51.0863,-119.428 110,-65.5932 136.233,-41.6221 175.364,-34.0159 208.241,-32.4547"/>
<polygon fill="#9a32cd" stroke="#9a32cd" points="42.7326,-267.877 46.4725,-277.789 49.7306,-267.708 42.7326,-267.877"/>
<text text-anchor="middle" x="150" y="-79.5932" font-family="Helvetica,sans-Serif" font-size="10.00"> corner</text>
<text text-anchor="middle" x="150" y="-68.5932" font-family="Helvetica,sans-Serif" font-size="10.00">position</text>
</g>
<!-- Node3 -->
<g id="node4" class="node"><title>Node3</title>
<a xlink:href="union_geometric_feature__union.html" target="_top" xlink:title="GeometricFeature_union">
<polygon fill="white" stroke="black" points="786.5,-253.093 786.5,-272.093 909.5,-272.093 909.5,-253.093 786.5,-253.093"/>
<text text-anchor="middle" x="848" y="-260.093" font-family="Helvetica,sans-Serif" font-size="10.00">GeometricFeature_union</text>
</a>
</g>
<!-- Node3&#45;&gt;Node1 -->
<g id="edge4" class="edge"><title>Node3&#45;&gt;Node1</title>
<path fill="none" stroke="#9a32cd" stroke-dasharray="5,2" d="M866.793,-279.496C904.126,-314.963 989.606,-396.169 1018.92,-424.016"/>
<polygon fill="#9a32cd" stroke="#9a32cd" points="868.854,-276.627 859.193,-272.277 864.033,-281.702 868.854,-276.627"/>
<text text-anchor="middle" x="945" y="-371.593" font-family="Helvetica,sans-Serif" font-size="10.00"> feature</text>
</g>
<!-- Node4&#45;&gt;Node3 -->
<g id="edge6" class="edge"><title>Node4&#45;&gt;Node3</title>
<path fill="none" stroke="#9a32cd" stroke-dasharray="5,2" d="M477.386,-453.171C553.252,-459.14 682.741,-457.838 768,-394.593 811.972,-361.974 836.179,-296.952 844.079,-272.339"/>
<polygon fill="#9a32cd" stroke="#9a32cd" points="477.309,-449.652 467.047,-452.286 476.712,-456.626 477.309,-449.652"/>
<text text-anchor="middle" x="573" y="-457.593" font-family="Helvetica,sans-Serif" font-size="10.00"> circle</text>
</g>
<!-- Node5&#45;&gt;Node3 -->
<g id="edge10" class="edge"><title>Node5&#45;&gt;Node3</title>
<path fill="none" stroke="#9a32cd" stroke-dasharray="5,2" d="M489.914,-408.41C564.87,-413.766 681.797,-411.99 768,-363.593 806.629,-341.906 832.939,-292.905 842.74,-272.159"/>
<polygon fill="#9a32cd" stroke="#9a32cd" points="489.864,-404.896 479.623,-407.611 489.322,-411.875 489.864,-404.896"/>
<text text-anchor="middle" x="573" y="-412.593" font-family="Helvetica,sans-Serif" font-size="10.00"> constCurve</text>
</g>
<!-- Node6&#45;&gt;Node3 -->
<g id="edge14" class="edge"><title>Node6&#45;&gt;Node3</title>
<path fill="none" stroke="#9a32cd" stroke-dasharray="5,2" d="M635.531,-351.425C674.773,-348.214 725.968,-340.563 768,-322.593 796.505,-310.407 823.981,-285.695 837.783,-272.096"/>
<polygon fill="#9a32cd" stroke="#9a32cd" points="635.025,-347.953 625.312,-352.184 635.544,-354.934 635.025,-347.953"/>
<text text-anchor="middle" x="717" y="-351.593" font-family="Helvetica,sans-Serif" font-size="10.00"> closedCurve</text>
</g>
<!-- Node7&#45;&gt;Node3 -->
<g id="edge18" class="edge"><title>Node7&#45;&gt;Node3</title>
<path fill="none" stroke="#9a32cd" stroke-dasharray="5,2" d="M474.659,-305.224C544.694,-300.786 665.261,-291.835 768,-277.593 778.786,-276.098 790.333,-274.122 801.176,-272.096"/>
<polygon fill="#9a32cd" stroke="#9a32cd" points="474.045,-301.755 464.283,-305.871 474.481,-308.742 474.045,-301.755"/>
<text text-anchor="middle" x="573" y="-306.593" font-family="Helvetica,sans-Serif" font-size="10.00"> line</text>
</g>
<!-- Node8&#45;&gt;Node3 -->
<g id="edge22" class="edge"><title>Node8&#45;&gt;Node3</title>
<path fill="none" stroke="#9a32cd" stroke-dasharray="5,2" d="M637.805,-262.593C682.645,-262.593 742.262,-262.593 786.379,-262.593"/>
<polygon fill="#9a32cd" stroke="#9a32cd" points="637.61,-259.093 627.61,-262.593 637.61,-266.093 637.61,-259.093"/>
<text text-anchor="middle" x="717" y="-265.593" font-family="Helvetica,sans-Serif" font-size="10.00"> ellipse</text>
</g>
<!-- Node9 -->
<g id="node21" class="node"><title>Node9</title>
<a xlink:href="struct_pair_of_parallel_line_pairs_feature__struct.html" target="_top" xlink:title="PairOfParallelLinePairsFeature\l_struct">
<polygon fill="white" stroke="black" points="498.5,-156.593 498.5,-186.593 647.5,-186.593 647.5,-156.593 498.5,-156.593"/>
<text text-anchor="start" x="506.5" y="-174.593" font-family="Helvetica,sans-Serif" font-size="10.00">PairOfParallelLinePairsFeature</text>
<text text-anchor="middle" x="573" y="-163.593" font-family="Helvetica,sans-Serif" font-size="10.00">_struct</text>
</a>
</g>
<!-- Node9&#45;&gt;Node3 -->
<g id="edge26" class="edge"><title>Node9&#45;&gt;Node3</title>
<path fill="none" stroke="#9a32cd" stroke-dasharray="5,2" d="M658.159,-173.416C693.286,-176.659 733.79,-183.741 768,-198.593 797.468,-211.386 824.965,-238.337 838.4,-252.849"/>
<polygon fill="#9a32cd" stroke="#9a32cd" points="658.181,-169.906 647.925,-172.564 657.6,-176.882 658.181,-169.906"/>
<text text-anchor="middle" x="717" y="-201.593" font-family="Helvetica,sans-Serif" font-size="10.00"> pairOfParallelLinePairs</text>
</g>
<!-- Node10&#45;&gt;Node3 -->
<g id="edge44" class="edge"><title>Node10&#45;&gt;Node3</title>
<path fill="none" stroke="#9a32cd" stroke-dasharray="5,2" d="M338.943,-211.923C414.544,-214.938 540.254,-221.208 648,-232.593 697.165,-237.789 752.777,-246.406 792.689,-253.075"/>
<polygon fill="#9a32cd" stroke="#9a32cd" points="338.744,-208.413 328.615,-211.519 338.47,-215.408 338.744,-208.413"/>
<text text-anchor="middle" x="573" y="-235.593" font-family="Helvetica,sans-Serif" font-size="10.00"> parallelLinePair</text>
</g>
<!-- Node10&#45;&gt;Node9 -->
<g id="edge28" class="edge"><title>Node10&#45;&gt;Node9</title>
<path fill="none" stroke="#9a32cd" stroke-dasharray="5,2" d="M329.213,-191.976C336.172,-190.288 343.214,-188.77 350,-187.593 399.019,-179.089 454.884,-175.092 498.31,-173.219"/>
<polygon fill="#9a32cd" stroke="#9a32cd" points="327.94,-188.688 319.115,-194.551 329.67,-195.471 327.94,-188.688"/>
<text text-anchor="middle" x="415" y="-201.593" font-family="Helvetica,sans-Serif" font-size="10.00"> secondParallelLinePair</text>
<text text-anchor="middle" x="415" y="-190.593" font-family="Helvetica,sans-Serif" font-size="10.00">firstParallelLinePair</text>
</g>
<!-- Node11&#45;&gt;Node3 -->
<g id="edge32" class="edge"><title>Node11&#45;&gt;Node3</title>
<path fill="none" stroke="#9a32cd" stroke-dasharray="5,2" d="M479.389,-123.573C554.494,-116.274 680.452,-115.024 768,-171.593 802.09,-193.621 829.881,-234.522 841.342,-253.042"/>
<polygon fill="#9a32cd" stroke="#9a32cd" points="478.723,-120.123 469.138,-124.638 479.446,-127.086 478.723,-120.123"/>
<text text-anchor="middle" x="573" y="-131.593" font-family="Helvetica,sans-Serif" font-size="10.00"> corner</text>
</g>
<!-- Node12&#45;&gt;Node3 -->
<g id="edge36" class="edge"><title>Node12&#45;&gt;Node3</title>
<path fill="none" stroke="#9a32cd" stroke-dasharray="5,2" d="M318.483,-82.8798C413.517,-62.3677 629.816,-30.7399 768,-127.593 813.809,-159.701 837.048,-227.551 844.379,-252.83"/>
<polygon fill="#9a32cd" stroke="#9a32cd" points="317.594,-79.4918 308.588,-85.071 319.108,-86.3262 317.594,-79.4918"/>
<text text-anchor="middle" x="573" y="-78.5932" font-family="Helvetica,sans-Serif" font-size="10.00"> leg</text>
</g>
<!-- Node13&#45;&gt;Node3 -->
<g id="edge40" class="edge"><title>Node13&#45;&gt;Node3</title>
<path fill="none" stroke="#9a32cd" stroke-dasharray="5,2" d="M316.605,-23.724C412.799,-1.66527 638.272,33.9135 768,-77.5932 824.413,-126.082 841.641,-221.954 845.837,-252.792"/>
<polygon fill="#9a32cd" stroke="#9a32cd" points="315.548,-20.3769 306.615,-26.0737 317.151,-27.1909 315.548,-20.3769"/>
<text text-anchor="middle" x="573" y="-19.5932" font-family="Helvetica,sans-Serif" font-size="10.00"> rectangle</text>
</g>
</g>
</svg>
