<?xml version="1.0" encoding="UTF-8" standalone="no"?>
<!DOCTYPE svg PUBLIC "-//W3C//DTD SVG 1.1//EN"
 "http://www.w3.org/Graphics/SVG/1.1/DTD/svg11.dtd">
<!-- Generated by graphviz version 2.28.0 (20110507.0327)
 -->
<!-- Title: FindEdgeReport_struct Pages: 1 -->
<svg width="292pt" height="252pt"
 viewBox="0.00 0.00 292.00 252.00" xmlns="http://www.w3.org/2000/svg" xmlns:xlink="http://www.w3.org/1999/xlink">
<g id="graph1" class="graph" transform="scale(1 1) rotate(0) translate(4 248)">
<title>FindEdgeReport_struct</title>
<polygon fill="white" stroke="white" points="-4,5 -4,-248 289,-248 289,5 -4,5"/>
<!-- Node1 -->
<g id="node1" class="node"><title>Node1</title>
<polygon fill="#bfbfbf" stroke="black" points="28,-0.5 28,-19.5 144,-19.5 144,-0.5 28,-0.5"/>
<text text-anchor="middle" x="86" y="-7.5" font-family="Helvetica,sans-Serif" font-size="10.00">FindEdgeReport_struct</text>
</g>
<!-- Node2 -->
<g id="node2" class="node"><title>Node2</title>
<a xlink:href="struct_straight_edge__struct.html" target="_top" xlink:title="StraightEdge_struct">
<polygon fill="white" stroke="black" points="34.5,-68.5 34.5,-87.5 137.5,-87.5 137.5,-68.5 34.5,-68.5"/>
<text text-anchor="middle" x="86" y="-75.5" font-family="Helvetica,sans-Serif" font-size="10.00">StraightEdge_struct</text>
</a>
</g>
<!-- Node2&#45;&gt;Node1 -->
<g id="edge2" class="edge"><title>Node2&#45;&gt;Node1</title>
<path fill="none" stroke="#9a32cd" stroke-dasharray="5,2" d="M86,-58.0413C86,-45.4724 86,-29.5631 86,-19.8411"/>
<polygon fill="#9a32cd" stroke="#9a32cd" points="82.5001,-58.3716 86,-68.3717 89.5001,-58.3717 82.5001,-58.3716"/>
<text text-anchor="middle" x="118" y="-41.5" font-family="Helvetica,sans-Serif" font-size="10.00"> straightEdges</text>
</g>
<!-- Node3 -->
<g id="node4" class="node"><title>Node3</title>
<a xlink:href="struct_edge_info__struct.html" target="_top" xlink:title="EdgeInfo_struct">
<polygon fill="white" stroke="black" points="0,-146.5 0,-165.5 84,-165.5 84,-146.5 0,-146.5"/>
<text text-anchor="middle" x="42" y="-153.5" font-family="Helvetica,sans-Serif" font-size="10.00">EdgeInfo_struct</text>
</a>
</g>
<!-- Node3&#45;&gt;Node2 -->
<g id="edge4" class="edge"><title>Node3&#45;&gt;Node2</title>
<path fill="none" stroke="#9a32cd" stroke-dasharray="5,2" d="M48.8565,-136.751C52.744,-127.276 58.0229,-115.687 64,-106 68.0642,-99.4134 73.5642,-92.6634 78.0482,-87.56"/>
<polygon fill="#9a32cd" stroke="#9a32cd" points="45.4899,-135.749 45.0953,-146.337 52.0062,-138.306 45.4899,-135.749"/>
<text text-anchor="middle" x="90" y="-114.5" font-family="Helvetica,sans-Serif" font-size="10.00"> usedEdges</text>
</g>
<!-- Node4 -->
<g id="node6" class="node"><title>Node4</title>
<a xlink:href="struct_point_float__struct.html" target="_top" xlink:title="PointFloat_struct">
<polygon fill="white" stroke="black" points="47.5,-224.5 47.5,-243.5 138.5,-243.5 138.5,-224.5 47.5,-224.5"/>
<text text-anchor="middle" x="93" y="-231.5" font-family="Helvetica,sans-Serif" font-size="10.00">PointFloat_struct</text>
</a>
</g>
<!-- Node4&#45;&gt;Node3 -->
<g id="edge6" class="edge"><title>Node4&#45;&gt;Node3</title>
<path fill="none" stroke="#9a32cd" stroke-dasharray="5,2" d="M57.7335,-219.513C52.3046,-215.925 47.3868,-211.475 44,-206 36.3856,-193.691 38.0021,-176.122 39.9475,-165.707"/>
<polygon fill="#9a32cd" stroke="#9a32cd" points="56.1072,-222.614 66.5388,-224.467 59.5395,-216.513 56.1072,-222.614"/>
<text text-anchor="middle" x="83" y="-198" font-family="Helvetica,sans-Serif" font-size="10.00"> position</text>
<text text-anchor="middle" x="83" y="-187" font-family="Helvetica,sans-Serif" font-size="10.00">calibratedPosition</text>
</g>
<!-- Node5 -->
<g id="node8" class="node"><title>Node5</title>
<a xlink:href="struct_line_float__struct.html" target="_top" xlink:title="LineFloat_struct">
<polygon fill="white" stroke="black" points="102,-146.5 102,-165.5 188,-165.5 188,-146.5 102,-146.5"/>
<text text-anchor="middle" x="145" y="-153.5" font-family="Helvetica,sans-Serif" font-size="10.00">LineFloat_struct</text>
</a>
</g>
<!-- Node4&#45;&gt;Node5 -->
<g id="edge10" class="edge"><title>Node4&#45;&gt;Node5</title>
<path fill="none" stroke="#9a32cd" stroke-dasharray="5,2" d="M111.641,-217.646C115.35,-214.064 119.016,-210.092 122,-206 131.412,-193.091 138.466,-175.719 142.143,-165.504"/>
<polygon fill="#9a32cd" stroke="#9a32cd" points="109.265,-215.075 104.171,-224.365 113.947,-220.28 109.265,-215.075"/>
<text text-anchor="middle" x="144" y="-198" font-family="Helvetica,sans-Serif" font-size="10.00"> end</text>
<text text-anchor="middle" x="144" y="-187" font-family="Helvetica,sans-Serif" font-size="10.00">start</text>
</g>
<!-- Node5&#45;&gt;Node2 -->
<g id="edge8" class="edge"><title>Node5&#45;&gt;Node2</title>
<path fill="none" stroke="#9a32cd" stroke-dasharray="5,2" d="M136.101,-137.076C130.891,-127.407 123.809,-115.536 116,-106 110.406,-99.1693 103.051,-92.5219 97.0239,-87.532"/>
<polygon fill="#9a32cd" stroke="#9a32cd" points="133.101,-138.893 140.806,-146.165 139.317,-135.675 133.101,-138.893"/>
<text text-anchor="middle" x="207" y="-120" font-family="Helvetica,sans-Serif" font-size="10.00"> calibratedStraightEdgeCoordinates</text>
<text text-anchor="middle" x="207" y="-109" font-family="Helvetica,sans-Serif" font-size="10.00">straightEdgeCoordinates</text>
</g>
</g>
</svg>
