<?xml version="1.0" encoding="UTF-8" standalone="no"?>
<!DOCTYPE svg PUBLIC "-//W3C//DTD SVG 1.1//EN"
 "http://www.w3.org/Graphics/SVG/1.1/DTD/svg11.dtd">
<!-- Generated by graphviz version 2.28.0 (20110507.0327)
 -->
<!-- Title: GeometricPatternMatch2_struct Pages: 1 -->
<svg width="1304pt" height="589pt"
 viewBox="0.00 0.00 1304.00 589.23" xmlns="http://www.w3.org/2000/svg" xmlns:xlink="http://www.w3.org/1999/xlink">
<g id="graph1" class="graph" transform="scale(1 1) rotate(0) translate(4 585.226)">
<title>GeometricPatternMatch2_struct</title>
<polygon fill="white" stroke="white" points="-4,5 -4,-585.226 1301,-585.226 1301,5 -4,5"/>
<!-- Node1 -->
<g id="node1" class="node"><title>Node1</title>
<polygon fill="#bfbfbf" stroke="black" points="1170.5,-506.226 1170.5,-536.226 1295.5,-536.226 1295.5,-506.226 1170.5,-506.226"/>
<text text-anchor="start" x="1178.5" y="-524.226" font-family="Helvetica,sans-Serif" font-size="10.00">GeometricPatternMatch2</text>
<text text-anchor="middle" x="1233" y="-513.226" font-family="Helvetica,sans-Serif" font-size="10.00">_struct</text>
</g>
<!-- Node2 -->
<g id="node2" class="node"><title>Node2</title>
<a xlink:href="struct_point_float__struct.html" target="_top" xlink:title="PointFloat_struct">
<polygon fill="white" stroke="black" points="0.5,-297.726 0.5,-316.726 91.5,-316.726 91.5,-297.726 0.5,-297.726"/>
<text text-anchor="middle" x="46" y="-304.726" font-family="Helvetica,sans-Serif" font-size="10.00">PointFloat_struct</text>
</a>
</g>
<!-- Node2&#45;&gt;Node1 -->
<g id="edge2" class="edge"><title>Node2&#45;&gt;Node1</title>
<path fill="none" stroke="#9a32cd" stroke-dasharray="5,2" d="M48.2163,-327.119C51.5571,-364.134 63.9916,-443.846 110,-488.226 163.221,-539.565 195.054,-537.226 269,-537.226 269,-537.226 269,-537.226 1031,-537.226 1077.73,-537.226 1130.39,-532.875 1170.08,-528.711"/>
<polygon fill="#9a32cd" stroke="#9a32cd" points="51.7014,-326.791 47.4443,-317.089 44.7221,-327.328 51.7014,-326.791"/>
<text text-anchor="middle" x="717" y="-573.226" font-family="Helvetica,sans-Serif" font-size="10.00"> corner</text>
<text text-anchor="middle" x="717" y="-562.226" font-family="Helvetica,sans-Serif" font-size="10.00">calibratedCorner</text>
<text text-anchor="middle" x="717" y="-551.226" font-family="Helvetica,sans-Serif" font-size="10.00">position</text>
<text text-anchor="middle" x="717" y="-540.226" font-family="Helvetica,sans-Serif" font-size="10.00">calibratedPosition</text>
</g>
<!-- Node3 -->
<g id="node4" class="node"><title>Node3</title>
<a xlink:href="struct_feature_data__struct.html" target="_top" xlink:title="FeatureData_struct">
<polygon fill="white" stroke="black" points="980,-488.726 980,-507.726 1080,-507.726 1080,-488.726 980,-488.726"/>
<text text-anchor="middle" x="1030" y="-495.726" font-family="Helvetica,sans-Serif" font-size="10.00">FeatureData_struct</text>
</a>
</g>
<!-- Node2&#45;&gt;Node3 -->
<g id="edge6" class="edge"><title>Node2&#45;&gt;Node3</title>
<path fill="none" stroke="#9a32cd" stroke-dasharray="5,2" d="M49.8992,-326.95C55.5975,-358.548 71.2601,-420.39 110,-454.226 165.224,-502.461 195.677,-498.226 269,-498.226 269,-498.226 269,-498.226 849,-498.226 893.219,-498.226 943.548,-498.226 979.723,-498.226"/>
<polygon fill="#9a32cd" stroke="#9a32cd" points="53.3038,-326.084 48.2263,-316.785 46.3967,-327.221 53.3038,-326.084"/>
<text text-anchor="middle" x="573" y="-501.226" font-family="Helvetica,sans-Serif" font-size="10.00"> contourPoints</text>
</g>
<!-- Node5 -->
<g id="node9" class="node"><title>Node5</title>
<a xlink:href="struct_circle_feature__struct.html" target="_top" xlink:title="CircleFeature_struct">
<polygon fill="white" stroke="black" points="363,-434.726 363,-453.726 467,-453.726 467,-434.726 363,-434.726"/>
<text text-anchor="middle" x="415" y="-441.726" font-family="Helvetica,sans-Serif" font-size="10.00">CircleFeature_struct</text>
</a>
</g>
<!-- Node2&#45;&gt;Node5 -->
<g id="edge12" class="edge"><title>Node2&#45;&gt;Node5</title>
<path fill="none" stroke="#9a32cd" stroke-dasharray="5,2" d="M53.1177,-326.327C61.745,-349.875 79.8879,-389.117 110,-408.226 187.406,-457.349 298.525,-456.617 362.778,-450.913"/>
<polygon fill="#9a32cd" stroke="#9a32cd" points="56.3814,-325.055 49.8146,-316.741 49.7633,-327.336 56.3814,-325.055"/>
<text text-anchor="middle" x="150" y="-442.226" font-family="Helvetica,sans-Serif" font-size="10.00"> position</text>
</g>
<!-- Node6 -->
<g id="node12" class="node"><title>Node6</title>
<a xlink:href="struct_const_curve_feature__struct.html" target="_top" xlink:title="ConstCurveFeature_struct">
<polygon fill="white" stroke="black" points="350.5,-388.726 350.5,-407.726 479.5,-407.726 479.5,-388.726 350.5,-388.726"/>
<text text-anchor="middle" x="415" y="-395.726" font-family="Helvetica,sans-Serif" font-size="10.00">ConstCurveFeature_struct</text>
</a>
</g>
<!-- Node2&#45;&gt;Node6 -->
<g id="edge16" class="edge"><title>Node2&#45;&gt;Node6</title>
<path fill="none" stroke="#9a32cd" stroke-dasharray="5,2" d="M60.0886,-324.961C71.553,-339.02 89.5473,-357.814 110,-367.226 187.108,-402.713 286.581,-405.951 350.343,-403.389"/>
<polygon fill="#9a32cd" stroke="#9a32cd" points="62.7433,-322.674 53.8305,-316.946 57.2257,-326.982 62.7433,-322.674"/>
<text text-anchor="middle" x="150" y="-396.226" font-family="Helvetica,sans-Serif" font-size="10.00"> position</text>
</g>
<!-- Node7 -->
<g id="node15" class="node"><title>Node7</title>
<a xlink:href="struct_closed_curve_feature__struct.html" target="_top" xlink:title="ClosedCurveFeature\l_struct">
<polygon fill="white" stroke="black" points="521,-337.226 521,-367.226 625,-367.226 625,-337.226 521,-337.226"/>
<text text-anchor="start" x="529" y="-355.226" font-family="Helvetica,sans-Serif" font-size="10.00">ClosedCurveFeature</text>
<text text-anchor="middle" x="573" y="-344.226" font-family="Helvetica,sans-Serif" font-size="10.00">_struct</text>
</a>
</g>
<!-- Node2&#45;&gt;Node7 -->
<g id="edge20" class="edge"><title>Node2&#45;&gt;Node7</title>
<path fill="none" stroke="#9a32cd" stroke-dasharray="5,2" d="M74.5052,-321.03C85.2996,-325.788 97.9665,-330.583 110,-333.226 256.228,-365.351 434.597,-360.753 520.668,-355.889"/>
<polygon fill="#9a32cd" stroke="#9a32cd" points="75.7368,-317.744 65.1903,-316.733 72.8046,-324.1 75.7368,-317.744"/>
<text text-anchor="middle" x="270" y="-361.226" font-family="Helvetica,sans-Serif" font-size="10.00"> position</text>
</g>
<!-- Node8 -->
<g id="node18" class="node"><title>Node8</title>
<a xlink:href="struct_line_feature__struct.html" target="_top" xlink:title="LineFeature_struct">
<polygon fill="white" stroke="black" points="366,-297.726 366,-316.726 464,-316.726 464,-297.726 366,-297.726"/>
<text text-anchor="middle" x="415" y="-304.726" font-family="Helvetica,sans-Serif" font-size="10.00">LineFeature_struct</text>
</a>
</g>
<!-- Node2&#45;&gt;Node8 -->
<g id="edge24" class="edge"><title>Node2&#45;&gt;Node8</title>
<path fill="none" stroke="#9a32cd" stroke-dasharray="5,2" d="M101.807,-307.226C173.437,-307.226 297.752,-307.226 365.9,-307.226"/>
<polygon fill="#9a32cd" stroke="#9a32cd" points="101.635,-303.727 91.6345,-307.226 101.634,-310.727 101.635,-303.727"/>
<text text-anchor="middle" x="150" y="-321.226" font-family="Helvetica,sans-Serif" font-size="10.00"> startPoint</text>
<text text-anchor="middle" x="150" y="-310.226" font-family="Helvetica,sans-Serif" font-size="10.00">endPoint</text>
</g>
<!-- Node9 -->
<g id="node21" class="node"><title>Node9</title>
<a xlink:href="struct_ellipse_feature__struct.html" target="_top" xlink:title="EllipseFeature_struct">
<polygon fill="white" stroke="black" points="518.5,-251.726 518.5,-270.726 627.5,-270.726 627.5,-251.726 518.5,-251.726"/>
<text text-anchor="middle" x="573" y="-258.726" font-family="Helvetica,sans-Serif" font-size="10.00">EllipseFeature_struct</text>
</a>
</g>
<!-- Node2&#45;&gt;Node9 -->
<g id="edge28" class="edge"><title>Node2&#45;&gt;Node9</title>
<path fill="none" stroke="#9a32cd" stroke-dasharray="5,2" d="M101.96,-301.997C133.071,-299.064 172.704,-295.374 208,-292.226 318.236,-282.397 447.316,-271.564 518.331,-265.663"/>
<polygon fill="#9a32cd" stroke="#9a32cd" points="101.381,-298.536 91.7548,-302.961 102.04,-305.505 101.381,-298.536"/>
<text text-anchor="middle" x="270" y="-295.226" font-family="Helvetica,sans-Serif" font-size="10.00"> position</text>
</g>
<!-- Node11 -->
<g id="node26" class="node"><title>Node11</title>
<a xlink:href="struct_parallel_line_pair_feature__struct.html" target="_top" xlink:title="ParallelLinePairFeature\l_struct">
<polygon fill="white" stroke="black" points="211.5,-194.226 211.5,-224.226 328.5,-224.226 328.5,-194.226 211.5,-194.226"/>
<text text-anchor="start" x="219.5" y="-212.226" font-family="Helvetica,sans-Serif" font-size="10.00">ParallelLinePairFeature</text>
<text text-anchor="middle" x="270" y="-201.226" font-family="Helvetica,sans-Serif" font-size="10.00">_struct</text>
</a>
</g>
<!-- Node2&#45;&gt;Node11 -->
<g id="edge34" class="edge"><title>Node2&#45;&gt;Node11</title>
<path fill="none" stroke="#9a32cd" stroke-dasharray="5,2" d="M53.1547,-287.983C61.7378,-264.76 79.7509,-226.773 110,-210.226 140.515,-193.535 179.509,-193.032 211.244,-196.825"/>
<polygon fill="#9a32cd" stroke="#9a32cd" points="49.8296,-286.889 49.8646,-297.484 56.4442,-289.179 49.8296,-286.889"/>
<text text-anchor="middle" x="150" y="-246.226" font-family="Helvetica,sans-Serif" font-size="10.00"> secondStartPoint</text>
<text text-anchor="middle" x="150" y="-235.226" font-family="Helvetica,sans-Serif" font-size="10.00">firstEndPoint</text>
<text text-anchor="middle" x="150" y="-224.226" font-family="Helvetica,sans-Serif" font-size="10.00">firstStartPoint</text>
<text text-anchor="middle" x="150" y="-213.226" font-family="Helvetica,sans-Serif" font-size="10.00">secondEndPoint</text>
</g>
<!-- Node12 -->
<g id="node29" class="node"><title>Node12</title>
<a xlink:href="struct_corner_feature__struct.html" target="_top" xlink:title="CornerFeature_struct">
<polygon fill="white" stroke="black" points="361,-128.726 361,-147.726 469,-147.726 469,-128.726 361,-128.726"/>
<text text-anchor="middle" x="415" y="-135.726" font-family="Helvetica,sans-Serif" font-size="10.00">CornerFeature_struct</text>
</a>
</g>
<!-- Node2&#45;&gt;Node12 -->
<g id="edge38" class="edge"><title>Node2&#45;&gt;Node12</title>
<path fill="none" stroke="#9a32cd" stroke-dasharray="5,2" d="M50.7457,-287.601C57.3244,-258.946 73.8462,-206.245 110,-180.226 184.165,-126.853 295.394,-126.142 360.743,-131.488"/>
<polygon fill="#9a32cd" stroke="#9a32cd" points="47.2712,-287.115 48.6288,-297.623 54.12,-288.562 47.2712,-287.115"/>
<text text-anchor="middle" x="150" y="-183.226" font-family="Helvetica,sans-Serif" font-size="10.00"> position</text>
</g>
<!-- Node13 -->
<g id="node32" class="node"><title>Node13</title>
<a xlink:href="struct_leg_feature__struct.html" target="_top" xlink:title="LegFeature_struct">
<polygon fill="white" stroke="black" points="222.5,-84.7265 222.5,-103.726 317.5,-103.726 317.5,-84.7265 222.5,-84.7265"/>
<text text-anchor="middle" x="270" y="-91.7265" font-family="Helvetica,sans-Serif" font-size="10.00">LegFeature_struct</text>
</a>
</g>
<!-- Node2&#45;&gt;Node13 -->
<g id="edge42" class="edge"><title>Node2&#45;&gt;Node13</title>
<path fill="none" stroke="#9a32cd" stroke-dasharray="5,2" d="M47.2411,-287.407C48.8733,-248.378 58.45,-161.596 110,-118.226 140.868,-92.2564 187.548,-87.9576 222.354,-89.1394"/>
<polygon fill="#9a32cd" stroke="#9a32cd" points="43.7404,-287.387 46.9573,-297.482 50.7376,-287.584 43.7404,-287.387"/>
<text text-anchor="middle" x="150" y="-132.226" font-family="Helvetica,sans-Serif" font-size="10.00"> corner</text>
<text text-anchor="middle" x="150" y="-121.226" font-family="Helvetica,sans-Serif" font-size="10.00">position</text>
</g>
<!-- Node14 -->
<g id="node35" class="node"><title>Node14</title>
<a xlink:href="struct_rectangle_feature__struct.html" target="_top" xlink:title="RectangleFeature_struct">
<polygon fill="white" stroke="black" points="208.5,-24.7265 208.5,-43.7265 331.5,-43.7265 331.5,-24.7265 208.5,-24.7265"/>
<text text-anchor="middle" x="270" y="-31.7265" font-family="Helvetica,sans-Serif" font-size="10.00">RectangleFeature_struct</text>
</a>
</g>
<!-- Node2&#45;&gt;Node14 -->
<g id="edge46" class="edge"><title>Node2&#45;&gt;Node14</title>
<path fill="none" stroke="#9a32cd" stroke-dasharray="5,2" d="M49.3909,-287.532C56.1373,-235.291 77.0046,-95.0763 110,-64.2265 136.06,-39.8614 175.395,-32.2877 208.42,-30.8418"/>
<polygon fill="#9a32cd" stroke="#9a32cd" points="45.9084,-287.175 48.1347,-297.533 52.8538,-288.047 45.9084,-287.175"/>
<text text-anchor="middle" x="150" y="-78.2265" font-family="Helvetica,sans-Serif" font-size="10.00"> corner</text>
<text text-anchor="middle" x="150" y="-67.2265" font-family="Helvetica,sans-Serif" font-size="10.00">position</text>
</g>
<!-- Node3&#45;&gt;Node1 -->
<g id="edge4" class="edge"><title>Node3&#45;&gt;Node1</title>
<path fill="none" stroke="#9a32cd" stroke-dasharray="5,2" d="M1090.33,-505.016C1115.54,-507.9 1144.92,-511.263 1170.38,-514.175"/>
<polygon fill="#9a32cd" stroke="#9a32cd" points="1090.5,-501.513 1080.17,-503.853 1089.71,-508.467 1090.5,-501.513"/>
<text text-anchor="middle" x="1125" y="-514.226" font-family="Helvetica,sans-Serif" font-size="10.00"> featureData</text>
</g>
<!-- Node4 -->
<g id="node7" class="node"><title>Node4</title>
<a xlink:href="union_geometric_feature__union.html" target="_top" xlink:title="GeometricFeature_union">
<polygon fill="white" stroke="black" points="786.5,-251.726 786.5,-270.726 909.5,-270.726 909.5,-251.726 786.5,-251.726"/>
<text text-anchor="middle" x="848" y="-258.726" font-family="Helvetica,sans-Serif" font-size="10.00">GeometricFeature_union</text>
</a>
</g>
<!-- Node4&#45;&gt;Node3 -->
<g id="edge8" class="edge"><title>Node4&#45;&gt;Node3</title>
<path fill="none" stroke="#9a32cd" stroke-dasharray="5,2" d="M862.373,-278.834C897.977,-325.713 994.229,-452.444 1021.63,-488.523"/>
<polygon fill="#9a32cd" stroke="#9a32cd" points="865.115,-276.657 856.279,-270.811 859.54,-280.891 865.115,-276.657"/>
<text text-anchor="middle" x="945" y="-410.226" font-family="Helvetica,sans-Serif" font-size="10.00"> feature</text>
</g>
<!-- Node5&#45;&gt;Node4 -->
<g id="edge10" class="edge"><title>Node5&#45;&gt;Node4</title>
<path fill="none" stroke="#9a32cd" stroke-dasharray="5,2" d="M477.351,-451.986C553.18,-458.178 682.632,-457.253 768,-394.226 812.292,-361.526 836.306,-295.911 844.117,-271.065"/>
<polygon fill="#9a32cd" stroke="#9a32cd" points="477.287,-448.467 467.017,-451.071 476.669,-455.44 477.287,-448.467"/>
<text text-anchor="middle" x="573" y="-457.226" font-family="Helvetica,sans-Serif" font-size="10.00"> circle</text>
</g>
<!-- Node6&#45;&gt;Node4 -->
<g id="edge14" class="edge"><title>Node6&#45;&gt;Node4</title>
<path fill="none" stroke="#9a32cd" stroke-dasharray="5,2" d="M489.914,-407.043C564.87,-412.399 681.797,-410.624 768,-362.226 806.629,-340.539 832.939,-291.538 842.74,-270.793"/>
<polygon fill="#9a32cd" stroke="#9a32cd" points="489.864,-403.529 479.623,-406.244 489.322,-410.508 489.864,-403.529"/>
<text text-anchor="middle" x="573" y="-411.226" font-family="Helvetica,sans-Serif" font-size="10.00"> constCurve</text>
</g>
<!-- Node7&#45;&gt;Node4 -->
<g id="edge18" class="edge"><title>Node7&#45;&gt;Node4</title>
<path fill="none" stroke="#9a32cd" stroke-dasharray="5,2" d="M635.531,-350.058C674.773,-346.847 725.968,-339.196 768,-321.226 796.505,-309.04 823.981,-284.328 837.783,-270.729"/>
<polygon fill="#9a32cd" stroke="#9a32cd" points="635.025,-346.586 625.312,-350.817 635.544,-353.567 635.025,-346.586"/>
<text text-anchor="middle" x="717" y="-350.226" font-family="Helvetica,sans-Serif" font-size="10.00"> closedCurve</text>
</g>
<!-- Node8&#45;&gt;Node4 -->
<g id="edge22" class="edge"><title>Node8&#45;&gt;Node4</title>
<path fill="none" stroke="#9a32cd" stroke-dasharray="5,2" d="M474.659,-303.857C544.694,-299.42 665.261,-290.468 768,-276.226 778.786,-274.731 790.333,-272.755 801.176,-270.729"/>
<polygon fill="#9a32cd" stroke="#9a32cd" points="474.045,-300.388 464.283,-304.505 474.481,-307.375 474.045,-300.388"/>
<text text-anchor="middle" x="573" y="-305.226" font-family="Helvetica,sans-Serif" font-size="10.00"> line</text>
</g>
<!-- Node9&#45;&gt;Node4 -->
<g id="edge26" class="edge"><title>Node9&#45;&gt;Node4</title>
<path fill="none" stroke="#9a32cd" stroke-dasharray="5,2" d="M637.805,-261.226C682.645,-261.226 742.262,-261.226 786.379,-261.226"/>
<polygon fill="#9a32cd" stroke="#9a32cd" points="637.61,-257.727 627.61,-261.226 637.61,-264.727 637.61,-257.727"/>
<text text-anchor="middle" x="717" y="-264.226" font-family="Helvetica,sans-Serif" font-size="10.00"> ellipse</text>
</g>
<!-- Node10 -->
<g id="node24" class="node"><title>Node10</title>
<a xlink:href="struct_pair_of_parallel_line_pairs_feature__struct.html" target="_top" xlink:title="PairOfParallelLinePairsFeature\l_struct">
<polygon fill="white" stroke="black" points="498.5,-155.226 498.5,-185.226 647.5,-185.226 647.5,-155.226 498.5,-155.226"/>
<text text-anchor="start" x="506.5" y="-173.226" font-family="Helvetica,sans-Serif" font-size="10.00">PairOfParallelLinePairsFeature</text>
<text text-anchor="middle" x="573" y="-162.226" font-family="Helvetica,sans-Serif" font-size="10.00">_struct</text>
</a>
</g>
<!-- Node10&#45;&gt;Node4 -->
<g id="edge30" class="edge"><title>Node10&#45;&gt;Node4</title>
<path fill="none" stroke="#9a32cd" stroke-dasharray="5,2" d="M658.159,-172.049C693.286,-175.293 733.79,-182.375 768,-197.226 797.468,-210.02 824.965,-236.97 838.4,-251.482"/>
<polygon fill="#9a32cd" stroke="#9a32cd" points="658.181,-168.539 647.925,-171.197 657.6,-175.515 658.181,-168.539"/>
<text text-anchor="middle" x="717" y="-200.226" font-family="Helvetica,sans-Serif" font-size="10.00"> pairOfParallelLinePairs</text>
</g>
<!-- Node11&#45;&gt;Node4 -->
<g id="edge48" class="edge"><title>Node11&#45;&gt;Node4</title>
<path fill="none" stroke="#9a32cd" stroke-dasharray="5,2" d="M338.944,-211.323C414.546,-214.09 540.257,-219.985 648,-231.226 697.172,-236.357 752.783,-244.981 792.693,-251.67"/>
<polygon fill="#9a32cd" stroke="#9a32cd" points="338.735,-207.813 328.616,-210.953 338.484,-214.809 338.735,-207.813"/>
<text text-anchor="middle" x="573" y="-234.226" font-family="Helvetica,sans-Serif" font-size="10.00"> parallelLinePair</text>
</g>
<!-- Node11&#45;&gt;Node10 -->
<g id="edge32" class="edge"><title>Node11&#45;&gt;Node10</title>
<path fill="none" stroke="#9a32cd" stroke-dasharray="5,2" d="M326.393,-191.505C334.256,-189.458 342.289,-187.611 350,-186.226 398.968,-177.436 454.834,-173.44 498.273,-171.64"/>
<polygon fill="#9a32cd" stroke="#9a32cd" points="325.288,-188.179 316.561,-194.186 327.13,-194.932 325.288,-188.179"/>
<text text-anchor="middle" x="415" y="-200.226" font-family="Helvetica,sans-Serif" font-size="10.00"> secondParallelLinePair</text>
<text text-anchor="middle" x="415" y="-189.226" font-family="Helvetica,sans-Serif" font-size="10.00">firstParallelLinePair</text>
</g>
<!-- Node12&#45;&gt;Node4 -->
<g id="edge36" class="edge"><title>Node12&#45;&gt;Node4</title>
<path fill="none" stroke="#9a32cd" stroke-dasharray="5,2" d="M479.449,-127.388C554.611,-118.053 680.626,-113.77 768,-170.226 802.09,-192.254 829.881,-233.155 841.342,-251.675"/>
<polygon fill="#9a32cd" stroke="#9a32cd" points="478.65,-123.963 469.189,-128.733 479.56,-130.904 478.65,-123.963"/>
<text text-anchor="middle" x="573" y="-131.226" font-family="Helvetica,sans-Serif" font-size="10.00"> corner</text>
</g>
<!-- Node13&#45;&gt;Node4 -->
<g id="edge40" class="edge"><title>Node13&#45;&gt;Node4</title>
<path fill="none" stroke="#9a32cd" stroke-dasharray="5,2" d="M319.384,-82.5172C414.673,-62.4134 629.398,-32.0735 768,-127.226 813.864,-158.713 837.07,-226.294 844.385,-251.492"/>
<polygon fill="#9a32cd" stroke="#9a32cd" points="318.486,-79.1305 309.453,-84.6675 319.967,-85.972 318.486,-79.1305"/>
<text text-anchor="middle" x="573" y="-79.2265" font-family="Helvetica,sans-Serif" font-size="10.00"> leg</text>
</g>
<!-- Node14&#45;&gt;Node4 -->
<g id="edge44" class="edge"><title>Node14&#45;&gt;Node4</title>
<path fill="none" stroke="#9a32cd" stroke-dasharray="5,2" d="M317.331,-22.4853C413.874,-1.02585 638.353,32.7674 768,-78.2265 823.992,-126.162 841.5,-221.016 845.801,-251.529"/>
<polygon fill="#9a32cd" stroke="#9a32cd" points="316.544,-19.0749 307.572,-24.7103 318.1,-25.8998 316.544,-19.0749"/>
<text text-anchor="middle" x="573" y="-20.2265" font-family="Helvetica,sans-Serif" font-size="10.00"> rectangle</text>
</g>
</g>
</svg>
