<?xml version="1.0" encoding="UTF-8" standalone="no"?>
<!DOCTYPE svg PUBLIC "-//W3C//DTD SVG 1.1//EN"
 "http://www.w3.org/Graphics/SVG/1.1/DTD/svg11.dtd">
<!-- Generated by graphviz version 2.28.0 (20110507.0327)
 -->
<!-- Title: PixelValue_union Pages: 1 -->
<svg width="440pt" height="96pt"
 viewBox="0.00 0.00 440.00 96.00" xmlns="http://www.w3.org/2000/svg" xmlns:xlink="http://www.w3.org/1999/xlink">
<g id="graph1" class="graph" transform="scale(1 1) rotate(0) translate(4 92)">
<title>PixelValue_union</title>
<polygon fill="white" stroke="white" points="-4,5 -4,-92 437,-92 437,5 -4,5"/>
<!-- Node1 -->
<g id="node1" class="node"><title>Node1</title>
<polygon fill="#bfbfbf" stroke="black" points="181,-0.5 181,-19.5 273,-19.5 273,-0.5 181,-0.5"/>
<text text-anchor="middle" x="227" y="-7.5" font-family="Helvetica,sans-Serif" font-size="10.00">PixelValue_union</text>
</g>
<!-- Node2 -->
<g id="node2" class="node"><title>Node2</title>
<a xlink:href="struct_r_g_b_u64_value__struct.html" target="_top" xlink:title="RGBU64Value_struct">
<polygon fill="white" stroke="black" points="0,-68.5 0,-87.5 110,-87.5 110,-68.5 0,-68.5"/>
<text text-anchor="middle" x="55" y="-75.5" font-family="Helvetica,sans-Serif" font-size="10.00">RGBU64Value_struct</text>
</a>
</g>
<!-- Node2&#45;&gt;Node1 -->
<g id="edge2" class="edge"><title>Node2&#45;&gt;Node1</title>
<path fill="none" stroke="#9a32cd" stroke-dasharray="5,2" d="M87.0391,-64.7059C121.333,-51.5466 174.835,-31.0166 204.781,-19.5259"/>
<polygon fill="#9a32cd" stroke="#9a32cd" points="85.5684,-61.5214 77.486,-68.3717 88.0762,-68.0568 85.5684,-61.5214"/>
<text text-anchor="middle" x="173.5" y="-41.5" font-family="Helvetica,sans-Serif" font-size="10.00"> rgbu64</text>
</g>
<!-- Node3 -->
<g id="node4" class="node"><title>Node3</title>
<a xlink:href="struct_r_g_b_value__struct.html" target="_top" xlink:title="RGBValue_struct">
<polygon fill="white" stroke="black" points="128,-68.5 128,-87.5 220,-87.5 220,-68.5 128,-68.5"/>
<text text-anchor="middle" x="174" y="-75.5" font-family="Helvetica,sans-Serif" font-size="10.00">RGBValue_struct</text>
</a>
</g>
<!-- Node3&#45;&gt;Node1 -->
<g id="edge4" class="edge"><title>Node3&#45;&gt;Node1</title>
<path fill="none" stroke="#9a32cd" stroke-dasharray="5,2" d="M187.402,-60.3101C197.735,-47.4437 211.615,-30.1583 219.9,-19.8411"/>
<polygon fill="#9a32cd" stroke="#9a32cd" points="184.461,-58.383 180.929,-68.3717 189.919,-62.766 184.461,-58.383"/>
<text text-anchor="middle" x="214.5" y="-41.5" font-family="Helvetica,sans-Serif" font-size="10.00"> rgb</text>
</g>
<!-- Node4 -->
<g id="node6" class="node"><title>Node4</title>
<a xlink:href="struct_complex__struct.html" target="_top" xlink:title="Complex_struct">
<polygon fill="white" stroke="black" points="238.5,-68.5 238.5,-87.5 323.5,-87.5 323.5,-68.5 238.5,-68.5"/>
<text text-anchor="middle" x="281" y="-75.5" font-family="Helvetica,sans-Serif" font-size="10.00">Complex_struct</text>
</a>
</g>
<!-- Node4&#45;&gt;Node1 -->
<g id="edge6" class="edge"><title>Node4&#45;&gt;Node1</title>
<path fill="none" stroke="#9a32cd" stroke-dasharray="5,2" d="M267.345,-60.3101C256.818,-47.4437 242.675,-30.1583 234.234,-19.8411"/>
<polygon fill="#9a32cd" stroke="#9a32cd" points="264.899,-62.8484 273.94,-68.3717 270.317,-58.4157 264.899,-62.8484"/>
<text text-anchor="middle" x="279" y="-41.5" font-family="Helvetica,sans-Serif" font-size="10.00"> complex</text>
</g>
<!-- Node5 -->
<g id="node8" class="node"><title>Node5</title>
<a xlink:href="struct_h_s_l_value__struct.html" target="_top" xlink:title="HSLValue_struct">
<polygon fill="white" stroke="black" points="342,-68.5 342,-87.5 432,-87.5 432,-68.5 342,-68.5"/>
<text text-anchor="middle" x="387" y="-75.5" font-family="Helvetica,sans-Serif" font-size="10.00">HSLValue_struct</text>
</a>
</g>
<!-- Node5&#45;&gt;Node1 -->
<g id="edge8" class="edge"><title>Node5&#45;&gt;Node1</title>
<path fill="none" stroke="#9a32cd" stroke-dasharray="5,2" d="M360.825,-64.0798C344.391,-56.1599 322.658,-46.0347 303,-38 286.539,-31.2718 267.706,-24.5743 252.906,-19.5329"/>
<polygon fill="#9a32cd" stroke="#9a32cd" points="359.309,-67.2344 369.834,-68.4556 362.368,-60.938 359.309,-67.2344"/>
<text text-anchor="middle" x="337" y="-41.5" font-family="Helvetica,sans-Serif" font-size="10.00"> hsl</text>
</g>
</g>
</svg>
