<?xml version="1.0" encoding="UTF-8" standalone="no"?>
<!DOCTYPE svg PUBLIC "-//W3C//DTD SVG 1.1//EN"
 "http://www.w3.org/Graphics/SVG/1.1/DTD/svg11.dtd">
<!-- Generated by graphviz version 2.28.0 (20110507.0327)
 -->
<!-- Title: GeometricFeature_union Pages: 1 -->
<svg width="918pt" height="472pt"
 viewBox="0.00 0.00 918.00 472.13" xmlns="http://www.w3.org/2000/svg" xmlns:xlink="http://www.w3.org/1999/xlink">
<g id="graph1" class="graph" transform="scale(1 1) rotate(0) translate(4 468.131)">
<title>GeometricFeature_union</title>
<polygon fill="white" stroke="white" points="-4,5 -4,-468.131 915,-468.131 915,5 -4,5"/>
<!-- Node1 -->
<g id="node1" class="node"><title>Node1</title>
<polygon fill="#bfbfbf" stroke="black" points="786.5,-224.631 786.5,-243.631 909.5,-243.631 909.5,-224.631 786.5,-224.631"/>
<text text-anchor="middle" x="848" y="-231.631" font-family="Helvetica,sans-Serif" font-size="10.00">GeometricFeature_union</text>
</g>
<!-- Node2 -->
<g id="node2" class="node"><title>Node2</title>
<a xlink:href="struct_circle_feature__struct.html" target="_top" xlink:title="CircleFeature_struct">
<polygon fill="white" stroke="black" points="363,-431.631 363,-450.631 467,-450.631 467,-431.631 363,-431.631"/>
<text text-anchor="middle" x="415" y="-438.631" font-family="Helvetica,sans-Serif" font-size="10.00">CircleFeature_struct</text>
</a>
</g>
<!-- Node2&#45;&gt;Node1 -->
<g id="edge2" class="edge"><title>Node2&#45;&gt;Node1</title>
<path fill="none" stroke="#9a32cd" stroke-dasharray="5,2" d="M477.177,-450.219C553.817,-458.033 685.122,-459.148 768,-392.131 818.079,-351.636 839.157,-271.258 845.115,-243.68"/>
<polygon fill="#9a32cd" stroke="#9a32cd" points="477.514,-446.735 467.194,-449.132 476.756,-453.694 477.514,-446.735"/>
<text text-anchor="middle" x="573" y="-456.131" font-family="Helvetica,sans-Serif" font-size="10.00"> circle</text>
</g>
<!-- Node3 -->
<g id="node4" class="node"><title>Node3</title>
<a xlink:href="struct_point_float__struct.html" target="_top" xlink:title="PointFloat_struct">
<polygon fill="white" stroke="black" points="0.5,-247.631 0.5,-266.631 91.5,-266.631 91.5,-247.631 0.5,-247.631"/>
<text text-anchor="middle" x="46" y="-254.631" font-family="Helvetica,sans-Serif" font-size="10.00">PointFloat_struct</text>
</a>
</g>
<!-- Node3&#45;&gt;Node2 -->
<g id="edge4" class="edge"><title>Node3&#45;&gt;Node2</title>
<path fill="none" stroke="#9a32cd" stroke-dasharray="5,2" d="M49.2137,-276.644C53.9996,-308.93 68.4721,-372.985 110,-404.131 183.902,-459.559 297.525,-456.792 362.908,-449.292"/>
<polygon fill="#9a32cd" stroke="#9a32cd" points="52.6739,-276.112 47.8964,-266.656 45.734,-277.027 52.6739,-276.112"/>
<text text-anchor="middle" x="150" y="-443.131" font-family="Helvetica,sans-Serif" font-size="10.00"> position</text>
</g>
<!-- Node4 -->
<g id="node6" class="node"><title>Node4</title>
<a xlink:href="struct_const_curve_feature__struct.html" target="_top" xlink:title="ConstCurveFeature_struct">
<polygon fill="white" stroke="black" points="350.5,-385.631 350.5,-404.631 479.5,-404.631 479.5,-385.631 350.5,-385.631"/>
<text text-anchor="middle" x="415" y="-392.631" font-family="Helvetica,sans-Serif" font-size="10.00">ConstCurveFeature_struct</text>
</a>
</g>
<!-- Node3&#45;&gt;Node4 -->
<g id="edge8" class="edge"><title>Node3&#45;&gt;Node4</title>
<path fill="none" stroke="#9a32cd" stroke-dasharray="5,2" d="M53.1276,-276.216C61.7652,-299.748 79.9189,-338.973 110,-358.131 182.536,-404.328 284.772,-406.918 350.22,-402.564"/>
<polygon fill="#9a32cd" stroke="#9a32cd" points="56.3922,-274.947 49.8199,-266.637 49.7755,-277.232 56.3922,-274.947"/>
<text text-anchor="middle" x="150" y="-392.131" font-family="Helvetica,sans-Serif" font-size="10.00"> position</text>
</g>
<!-- Node5 -->
<g id="node9" class="node"><title>Node5</title>
<a xlink:href="struct_closed_curve_feature__struct.html" target="_top" xlink:title="ClosedCurveFeature\l_struct">
<polygon fill="white" stroke="black" points="521,-331.131 521,-361.131 625,-361.131 625,-331.131 521,-331.131"/>
<text text-anchor="start" x="529" y="-349.131" font-family="Helvetica,sans-Serif" font-size="10.00">ClosedCurveFeature</text>
<text text-anchor="middle" x="573" y="-338.131" font-family="Helvetica,sans-Serif" font-size="10.00">_struct</text>
</a>
</g>
<!-- Node3&#45;&gt;Node5 -->
<g id="edge12" class="edge"><title>Node3&#45;&gt;Node5</title>
<path fill="none" stroke="#9a32cd" stroke-dasharray="5,2" d="M62.4745,-274.196C74.2503,-285.948 91.5343,-300.728 110,-308.131 250.248,-364.359 433.278,-358.551 520.902,-351.458"/>
<polygon fill="#9a32cd" stroke="#9a32cd" points="64.7041,-271.465 55.2551,-266.672 59.6532,-276.311 64.7041,-271.465"/>
<text text-anchor="middle" x="270" y="-355.131" font-family="Helvetica,sans-Serif" font-size="10.00"> position</text>
</g>
<!-- Node6 -->
<g id="node12" class="node"><title>Node6</title>
<a xlink:href="struct_line_feature__struct.html" target="_top" xlink:title="LineFeature_struct">
<polygon fill="white" stroke="black" points="366,-290.631 366,-309.631 464,-309.631 464,-290.631 366,-290.631"/>
<text text-anchor="middle" x="415" y="-297.631" font-family="Helvetica,sans-Serif" font-size="10.00">LineFeature_struct</text>
</a>
</g>
<!-- Node3&#45;&gt;Node6 -->
<g id="edge16" class="edge"><title>Node3&#45;&gt;Node6</title>
<path fill="none" stroke="#9a32cd" stroke-dasharray="5,2" d="M96.4497,-268.724C101.017,-269.612 105.585,-270.433 110,-271.131 199.808,-285.338 305.721,-293.525 365.856,-297.382"/>
<polygon fill="#9a32cd" stroke="#9a32cd" points="97.0117,-265.267 86.5135,-266.695 95.6106,-272.125 97.0117,-265.267"/>
<text text-anchor="middle" x="150" y="-296.131" font-family="Helvetica,sans-Serif" font-size="10.00"> startPoint</text>
<text text-anchor="middle" x="150" y="-285.131" font-family="Helvetica,sans-Serif" font-size="10.00">endPoint</text>
</g>
<!-- Node7 -->
<g id="node15" class="node"><title>Node7</title>
<a xlink:href="struct_ellipse_feature__struct.html" target="_top" xlink:title="EllipseFeature_struct">
<polygon fill="white" stroke="black" points="518.5,-245.631 518.5,-264.631 627.5,-264.631 627.5,-245.631 518.5,-245.631"/>
<text text-anchor="middle" x="573" y="-252.631" font-family="Helvetica,sans-Serif" font-size="10.00">EllipseFeature_struct</text>
</a>
</g>
<!-- Node3&#45;&gt;Node7 -->
<g id="edge20" class="edge"><title>Node3&#45;&gt;Node7</title>
<path fill="none" stroke="#9a32cd" stroke-dasharray="5,2" d="M101.779,-256.922C203.012,-256.537 418.183,-255.717 518.47,-255.335"/>
<polygon fill="#9a32cd" stroke="#9a32cd" points="101.748,-253.422 91.7612,-256.961 101.775,-260.422 101.748,-253.422"/>
<text text-anchor="middle" x="270" y="-260.131" font-family="Helvetica,sans-Serif" font-size="10.00"> position</text>
</g>
<!-- Node9 -->
<g id="node20" class="node"><title>Node9</title>
<a xlink:href="struct_parallel_line_pair_feature__struct.html" target="_top" xlink:title="ParallelLinePairFeature\l_struct">
<polygon fill="white" stroke="black" points="211.5,-183.131 211.5,-213.131 328.5,-213.131 328.5,-183.131 211.5,-183.131"/>
<text text-anchor="start" x="219.5" y="-201.131" font-family="Helvetica,sans-Serif" font-size="10.00">ParallelLinePairFeature</text>
<text text-anchor="middle" x="270" y="-190.131" font-family="Helvetica,sans-Serif" font-size="10.00">_struct</text>
</a>
</g>
<!-- Node3&#45;&gt;Node9 -->
<g id="edge26" class="edge"><title>Node3&#45;&gt;Node9</title>
<path fill="none" stroke="#9a32cd" stroke-dasharray="5,2" d="M60.0013,-239.476C71.4138,-225.58 89.3807,-207.252 110,-199.131 141.849,-186.588 180.148,-185.961 211.177,-188.65"/>
<polygon fill="#9a32cd" stroke="#9a32cd" points="57.1872,-237.393 53.7773,-247.424 62.6984,-241.708 57.1872,-237.393"/>
<text text-anchor="middle" x="150" y="-235.131" font-family="Helvetica,sans-Serif" font-size="10.00"> secondStartPoint</text>
<text text-anchor="middle" x="150" y="-224.131" font-family="Helvetica,sans-Serif" font-size="10.00">firstEndPoint</text>
<text text-anchor="middle" x="150" y="-213.131" font-family="Helvetica,sans-Serif" font-size="10.00">firstStartPoint</text>
<text text-anchor="middle" x="150" y="-202.131" font-family="Helvetica,sans-Serif" font-size="10.00">secondEndPoint</text>
</g>
<!-- Node10 -->
<g id="node23" class="node"><title>Node10</title>
<a xlink:href="struct_corner_feature__struct.html" target="_top" xlink:title="CornerFeature_struct">
<polygon fill="white" stroke="black" points="361,-118.631 361,-137.631 469,-137.631 469,-118.631 361,-118.631"/>
<text text-anchor="middle" x="415" y="-125.631" font-family="Helvetica,sans-Serif" font-size="10.00">CornerFeature_struct</text>
</a>
</g>
<!-- Node3&#45;&gt;Node10 -->
<g id="edge30" class="edge"><title>Node3&#45;&gt;Node10</title>
<path fill="none" stroke="#9a32cd" stroke-dasharray="5,2" d="M55.7017,-238.129C65.7967,-218.416 84.3923,-188.381 110,-173.131 188.042,-126.655 296.734,-122.093 360.793,-124.252"/>
<polygon fill="#9a32cd" stroke="#9a32cd" points="52.436,-236.841 51.2054,-247.364 58.7297,-239.905 52.436,-236.841"/>
<text text-anchor="middle" x="150" y="-176.131" font-family="Helvetica,sans-Serif" font-size="10.00"> position</text>
</g>
<!-- Node11 -->
<g id="node26" class="node"><title>Node11</title>
<a xlink:href="struct_leg_feature__struct.html" target="_top" xlink:title="LegFeature_struct">
<polygon fill="white" stroke="black" points="222.5,-70.6312 222.5,-89.6312 317.5,-89.6312 317.5,-70.6312 222.5,-70.6312"/>
<text text-anchor="middle" x="270" y="-77.6312" font-family="Helvetica,sans-Serif" font-size="10.00">LegFeature_struct</text>
</a>
</g>
<!-- Node3&#45;&gt;Node11 -->
<g id="edge34" class="edge"><title>Node3&#45;&gt;Node11</title>
<path fill="none" stroke="#9a32cd" stroke-dasharray="5,2" d="M48.1339,-237.198C51.3288,-201.687 63.5183,-127.942 110,-93.1312 141.812,-69.3068 187.92,-68.107 222.3,-71.6535"/>
<polygon fill="#9a32cd" stroke="#9a32cd" points="44.635,-237.054 47.3805,-247.286 51.6156,-237.575 44.635,-237.054"/>
<text text-anchor="middle" x="150" y="-107.131" font-family="Helvetica,sans-Serif" font-size="10.00"> corner</text>
<text text-anchor="middle" x="150" y="-96.1312" font-family="Helvetica,sans-Serif" font-size="10.00">position</text>
</g>
<!-- Node12 -->
<g id="node29" class="node"><title>Node12</title>
<a xlink:href="struct_rectangle_feature__struct.html" target="_top" xlink:title="RectangleFeature_struct">
<polygon fill="white" stroke="black" points="208.5,-18.6312 208.5,-37.6312 331.5,-37.6312 331.5,-18.6312 208.5,-18.6312"/>
<text text-anchor="middle" x="270" y="-25.6312" font-family="Helvetica,sans-Serif" font-size="10.00">RectangleFeature_struct</text>
</a>
</g>
<!-- Node3&#45;&gt;Node12 -->
<g id="edge38" class="edge"><title>Node3&#45;&gt;Node12</title>
<path fill="none" stroke="#9a32cd" stroke-dasharray="5,2" d="M46.2436,-237.408C45.7934,-194.776 51.3424,-93.9616 110,-45.1312 136.883,-22.7516 175.821,-18.2837 208.434,-19.5171"/>
<polygon fill="#9a32cd" stroke="#9a32cd" points="42.7486,-237.666 46.4824,-247.581 49.7467,-237.502 42.7486,-237.666"/>
<text text-anchor="middle" x="150" y="-59.1312" font-family="Helvetica,sans-Serif" font-size="10.00"> corner</text>
<text text-anchor="middle" x="150" y="-48.1312" font-family="Helvetica,sans-Serif" font-size="10.00">position</text>
</g>
<!-- Node4&#45;&gt;Node1 -->
<g id="edge6" class="edge"><title>Node4&#45;&gt;Node1</title>
<path fill="none" stroke="#9a32cd" stroke-dasharray="5,2" d="M490.134,-405.403C565.776,-412.025 683.706,-411.341 768,-359.131 812.741,-331.419 836.485,-267.933 844.17,-243.738"/>
<polygon fill="#9a32cd" stroke="#9a32cd" points="490.034,-401.878 479.75,-404.424 489.377,-408.847 490.034,-401.878"/>
<text text-anchor="middle" x="573" y="-411.131" font-family="Helvetica,sans-Serif" font-size="10.00"> constCurve</text>
</g>
<!-- Node5&#45;&gt;Node1 -->
<g id="edge10" class="edge"><title>Node5&#45;&gt;Node1</title>
<path fill="none" stroke="#9a32cd" stroke-dasharray="5,2" d="M635.45,-346.114C675.23,-343.807 727.05,-336.355 768,-315.131 801.311,-297.866 828.891,-261.275 840.75,-243.806"/>
<polygon fill="#9a32cd" stroke="#9a32cd" points="635.169,-342.623 625.351,-346.605 635.509,-349.615 635.169,-342.623"/>
<text text-anchor="middle" x="717" y="-347.131" font-family="Helvetica,sans-Serif" font-size="10.00"> closedCurve</text>
</g>
<!-- Node6&#45;&gt;Node1 -->
<g id="edge14" class="edge"><title>Node6&#45;&gt;Node1</title>
<path fill="none" stroke="#9a32cd" stroke-dasharray="5,2" d="M474.166,-298.407C544.562,-295.319 666.312,-286.756 768,-263.131 787.924,-258.502 809.683,-250.263 825.311,-243.747"/>
<polygon fill="#9a32cd" stroke="#9a32cd" points="474.006,-294.911 464.16,-298.824 474.298,-301.905 474.006,-294.911"/>
<text text-anchor="middle" x="573" y="-300.131" font-family="Helvetica,sans-Serif" font-size="10.00"> line</text>
</g>
<!-- Node7&#45;&gt;Node1 -->
<g id="edge18" class="edge"><title>Node7&#45;&gt;Node1</title>
<path fill="none" stroke="#9a32cd" stroke-dasharray="5,2" d="M637.805,-250.223C682.645,-246.774 742.262,-242.188 786.379,-238.794"/>
<polygon fill="#9a32cd" stroke="#9a32cd" points="637.312,-246.751 627.61,-251.007 637.849,-253.73 637.312,-246.751"/>
<text text-anchor="middle" x="717" y="-251.131" font-family="Helvetica,sans-Serif" font-size="10.00"> ellipse</text>
</g>
<!-- Node8 -->
<g id="node18" class="node"><title>Node8</title>
<a xlink:href="struct_pair_of_parallel_line_pairs_feature__struct.html" target="_top" xlink:title="PairOfParallelLinePairsFeature\l_struct">
<polygon fill="white" stroke="black" points="498.5,-149.131 498.5,-179.131 647.5,-179.131 647.5,-149.131 498.5,-149.131"/>
<text text-anchor="start" x="506.5" y="-167.131" font-family="Helvetica,sans-Serif" font-size="10.00">PairOfParallelLinePairsFeature</text>
<text text-anchor="middle" x="573" y="-156.131" font-family="Helvetica,sans-Serif" font-size="10.00">_struct</text>
</a>
</g>
<!-- Node8&#45;&gt;Node1 -->
<g id="edge22" class="edge"><title>Node8&#45;&gt;Node1</title>
<path fill="none" stroke="#9a32cd" stroke-dasharray="5,2" d="M657.843,-169.163C692.577,-172.94 732.873,-179.554 768,-191.131 792.322,-199.147 817.903,-214.54 833.148,-224.568"/>
<polygon fill="#9a32cd" stroke="#9a32cd" points="658.035,-165.664 647.73,-168.125 657.321,-172.628 658.035,-165.664"/>
<text text-anchor="middle" x="717" y="-194.131" font-family="Helvetica,sans-Serif" font-size="10.00"> pairOfParallelLinePairs</text>
</g>
<!-- Node9&#45;&gt;Node1 -->
<g id="edge40" class="edge"><title>Node9&#45;&gt;Node1</title>
<path fill="none" stroke="#9a32cd" stroke-dasharray="5,2" d="M338.867,-202.373C452.068,-209.448 677.673,-223.548 786.078,-230.324"/>
<polygon fill="#9a32cd" stroke="#9a32cd" points="338.799,-198.862 328.6,-201.731 338.363,-205.848 338.799,-198.862"/>
<text text-anchor="middle" x="573" y="-225.131" font-family="Helvetica,sans-Serif" font-size="10.00"> parallelLinePair</text>
</g>
<!-- Node9&#45;&gt;Node8 -->
<g id="edge24" class="edge"><title>Node9&#45;&gt;Node8</title>
<path fill="none" stroke="#9a32cd" stroke-dasharray="5,2" d="M338.719,-182C342.525,-181.312 346.304,-180.682 350,-180.131 399.207,-172.796 455.071,-168.792 498.45,-166.623"/>
<polygon fill="#9a32cd" stroke="#9a32cd" points="337.784,-178.615 328.623,-183.937 339.103,-185.49 337.784,-178.615"/>
<text text-anchor="middle" x="415" y="-194.131" font-family="Helvetica,sans-Serif" font-size="10.00"> secondParallelLinePair</text>
<text text-anchor="middle" x="415" y="-183.131" font-family="Helvetica,sans-Serif" font-size="10.00">firstParallelLinePair</text>
</g>
<!-- Node10&#45;&gt;Node1 -->
<g id="edge28" class="edge"><title>Node10&#45;&gt;Node1</title>
<path fill="none" stroke="#9a32cd" stroke-dasharray="5,2" d="M479.137,-121.026C553.196,-115.732 677.355,-116.57 768,-167.131 796.584,-183.075 824.454,-210.213 838.178,-224.569"/>
<polygon fill="#9a32cd" stroke="#9a32cd" points="478.728,-117.547 469.028,-121.809 479.269,-124.526 478.728,-117.547"/>
<text text-anchor="middle" x="573" y="-130.131" font-family="Helvetica,sans-Serif" font-size="10.00"> corner</text>
</g>
<!-- Node11&#45;&gt;Node1 -->
<g id="edge32" class="edge"><title>Node11&#45;&gt;Node1</title>
<path fill="none" stroke="#9a32cd" stroke-dasharray="5,2" d="M327.513,-70.1853C425.541,-56.0654 629.835,-40.7646 768,-128.131 806.603,-152.541 832.927,-203.053 842.736,-224.337"/>
<polygon fill="#9a32cd" stroke="#9a32cd" points="326.888,-66.7398 317.513,-71.6753 327.919,-73.6633 326.888,-66.7398"/>
<text text-anchor="middle" x="573" y="-81.1312" font-family="Helvetica,sans-Serif" font-size="10.00"> leg</text>
</g>
<!-- Node12&#45;&gt;Node1 -->
<g id="edge36" class="edge"><title>Node12&#45;&gt;Node1</title>
<path fill="none" stroke="#9a32cd" stroke-dasharray="5,2" d="M323.146,-16.6351C422.148,1.92107 638.948,26.4461 768,-80.1312 816.424,-120.122 838.436,-197.459 844.886,-224.509"/>
<polygon fill="#9a32cd" stroke="#9a32cd" points="322.243,-13.2448 313.087,-18.5767 323.569,-20.118 322.243,-13.2448"/>
<text text-anchor="middle" x="573" y="-22.1312" font-family="Helvetica,sans-Serif" font-size="10.00"> rectangle</text>
</g>
</g>
</svg>
