<?xml version="1.0" encoding="UTF-8" standalone="no"?>
<!DOCTYPE svg PUBLIC "-//W3C//DTD SVG 1.1//EN"
 "http://www.w3.org/Graphics/SVG/1.1/DTD/svg11.dtd">
<!-- Generated by graphviz version 2.28.0 (20110507.0327)
 -->
<!-- Title: Color2_union Pages: 1 -->
<svg width="256pt" height="218pt"
 viewBox="0.00 0.00 256.00 218.00" xmlns="http://www.w3.org/2000/svg" xmlns:xlink="http://www.w3.org/1999/xlink">
<g id="graph1" class="graph" transform="scale(1 1) rotate(0) translate(4 214)">
<title>Color2_union</title>
<polygon fill="white" stroke="white" points="-4,5 -4,-214 253,-214 253,5 -4,5"/>
<!-- Node1 -->
<g id="node1" class="node"><title>Node1</title>
<polygon fill="#bfbfbf" stroke="black" points="174.5,-95.5 174.5,-114.5 247.5,-114.5 247.5,-95.5 174.5,-95.5"/>
<text text-anchor="middle" x="211" y="-102.5" font-family="Helvetica,sans-Serif" font-size="10.00">Color2_union</text>
</g>
<!-- Node2 -->
<g id="node2" class="node"><title>Node2</title>
<a xlink:href="struct_r_g_b_value__struct.html" target="_top" xlink:title="RGBValue_struct">
<polygon fill="white" stroke="black" points="6,-190.5 6,-209.5 98,-209.5 98,-190.5 6,-190.5"/>
<text text-anchor="middle" x="52" y="-197.5" font-family="Helvetica,sans-Serif" font-size="10.00">RGBValue_struct</text>
</a>
</g>
<!-- Node2&#45;&gt;Node1 -->
<g id="edge2" class="edge"><title>Node2&#45;&gt;Node1</title>
<path fill="none" stroke="#9a32cd" stroke-dasharray="5,2" d="M89.3162,-186.937C94.2786,-185.016 99.2849,-183.007 104,-181 127.595,-170.958 134.872,-170.532 156,-156 173.85,-143.723 191.527,-125.596 201.572,-114.584"/>
<polygon fill="#9a32cd" stroke="#9a32cd" points="88.0276,-183.682 79.9153,-190.497 90.5068,-190.228 88.0276,-183.682"/>
<text text-anchor="middle" x="139" y="-176" font-family="Helvetica,sans-Serif" font-size="10.00"> rgb</text>
</g>
<!-- Node3 -->
<g id="node4" class="node"><title>Node3</title>
<a xlink:href="struct_h_s_i_value__struct.html" target="_top" xlink:title="HSIValue_struct">
<polygon fill="white" stroke="black" points="8.5,-152.5 8.5,-171.5 95.5,-171.5 95.5,-152.5 8.5,-152.5"/>
<text text-anchor="middle" x="52" y="-159.5" font-family="Helvetica,sans-Serif" font-size="10.00">HSIValue_struct</text>
</a>
</g>
<!-- Node3&#45;&gt;Node1 -->
<g id="edge4" class="edge"><title>Node3&#45;&gt;Node1</title>
<path fill="none" stroke="#9a32cd" stroke-dasharray="5,2" d="M97.548,-149.564C115.846,-144.094 137.127,-137.264 156,-130 167.763,-125.473 180.578,-119.583 190.771,-114.657"/>
<polygon fill="#9a32cd" stroke="#9a32cd" points="96.3277,-146.275 87.7236,-152.457 98.305,-152.99 96.3277,-146.275"/>
<text text-anchor="middle" x="139" y="-144" font-family="Helvetica,sans-Serif" font-size="10.00"> hsi</text>
</g>
<!-- Node4 -->
<g id="node6" class="node"><title>Node4</title>
<a xlink:href="struct_h_s_v_value__struct.html" target="_top" xlink:title="HSVValue_struct">
<polygon fill="white" stroke="black" points="6,-114.5 6,-133.5 98,-133.5 98,-114.5 6,-114.5"/>
<text text-anchor="middle" x="52" y="-121.5" font-family="Helvetica,sans-Serif" font-size="10.00">HSVValue_struct</text>
</a>
</g>
<!-- Node4&#45;&gt;Node1 -->
<g id="edge6" class="edge"><title>Node4&#45;&gt;Node1</title>
<path fill="none" stroke="#9a32cd" stroke-dasharray="5,2" d="M108.586,-117.273C130.478,-114.624 154.976,-111.659 174.41,-109.307"/>
<polygon fill="#9a32cd" stroke="#9a32cd" points="107.918,-113.828 98.4109,-118.504 108.759,-120.778 107.918,-113.828"/>
<text text-anchor="middle" x="139" y="-118" font-family="Helvetica,sans-Serif" font-size="10.00"> hsv</text>
</g>
<!-- Node5 -->
<g id="node8" class="node"><title>Node5</title>
<a xlink:href="struct_c_i_e_lab_value__struct.html" target="_top" xlink:title="CIELabValue_struct">
<polygon fill="white" stroke="black" points="0.5,-76.5 0.5,-95.5 103.5,-95.5 103.5,-76.5 0.5,-76.5"/>
<text text-anchor="middle" x="52" y="-83.5" font-family="Helvetica,sans-Serif" font-size="10.00">CIELabValue_struct</text>
</a>
</g>
<!-- Node5&#45;&gt;Node1 -->
<g id="edge8" class="edge"><title>Node5&#45;&gt;Node1</title>
<path fill="none" stroke="#9a32cd" stroke-dasharray="5,2" d="M113.617,-91.1886C127.56,-92.5753 142.312,-94.197 156,-96 161.936,-96.7819 168.221,-97.7241 174.324,-98.7002"/>
<polygon fill="#9a32cd" stroke="#9a32cd" points="113.925,-87.7021 103.634,-90.2212 113.249,-94.6695 113.925,-87.7021"/>
<text text-anchor="middle" x="139" y="-99" font-family="Helvetica,sans-Serif" font-size="10.00"> cieLab</text>
</g>
<!-- Node6 -->
<g id="node10" class="node"><title>Node6</title>
<a xlink:href="struct_c_i_e_x_y_z_value__struct.html" target="_top" xlink:title="CIEXYZValue_struct">
<polygon fill="white" stroke="black" points="0,-38.5 0,-57.5 104,-57.5 104,-38.5 0,-38.5"/>
<text text-anchor="middle" x="52" y="-45.5" font-family="Helvetica,sans-Serif" font-size="10.00">CIEXYZValue_struct</text>
</a>
</g>
<!-- Node6&#45;&gt;Node1 -->
<g id="edge10" class="edge"><title>Node6&#45;&gt;Node1</title>
<path fill="none" stroke="#9a32cd" stroke-dasharray="5,2" d="M103.904,-60.1231C120.732,-64.7118 139.391,-70.4356 156,-77 168.964,-82.1239 182.916,-89.4081 193.39,-95.2625"/>
<polygon fill="#9a32cd" stroke="#9a32cd" points="104.801,-56.7399 94.2371,-57.5547 103.003,-63.5052 104.801,-56.7399"/>
<text text-anchor="middle" x="139" y="-80" font-family="Helvetica,sans-Serif" font-size="10.00"> cieXYZ</text>
</g>
<!-- Node7 -->
<g id="node12" class="node"><title>Node7</title>
<a xlink:href="struct_h_s_l_value__struct.html" target="_top" xlink:title="HSLValue_struct">
<polygon fill="white" stroke="black" points="7,-0.5 7,-19.5 97,-19.5 97,-0.5 7,-0.5"/>
<text text-anchor="middle" x="52" y="-7.5" font-family="Helvetica,sans-Serif" font-size="10.00">HSLValue_struct</text>
</a>
</g>
<!-- Node7&#45;&gt;Node1 -->
<g id="edge12" class="edge"><title>Node7&#45;&gt;Node1</title>
<path fill="none" stroke="#9a32cd" stroke-dasharray="5,2" d="M98.2495,-22.7755C117.03,-29.2643 138.48,-38.29 156,-50 175.135,-62.79 192.934,-83.2213 202.554,-95.2523"/>
<polygon fill="#9a32cd" stroke="#9a32cd" points="99.2998,-19.4365 88.7064,-19.6127 97.0976,-26.081 99.2998,-19.4365"/>
<text text-anchor="middle" x="139" y="-53" font-family="Helvetica,sans-Serif" font-size="10.00"> hsl</text>
</g>
</g>
</svg>
