<?xml version="1.0" encoding="UTF-8" standalone="no"?>
<!DOCTYPE svg PUBLIC "-//W3C//DTD SVG 1.1//EN"
 "http://www.w3.org/Graphics/SVG/1.1/DTD/svg11.dtd">
<!-- Generated by graphviz version 2.28.0 (20110507.0327)
 -->
<!-- Title: Color_union Pages: 1 -->
<svg width="424pt" height="96pt"
 viewBox="0.00 0.00 424.00 96.00" xmlns="http://www.w3.org/2000/svg" xmlns:xlink="http://www.w3.org/1999/xlink">
<g id="graph1" class="graph" transform="scale(1 1) rotate(0) translate(4 92)">
<title>Color_union</title>
<polygon fill="white" stroke="white" points="-4,5 -4,-92 421,-92 421,5 -4,5"/>
<!-- Node1 -->
<g id="node1" class="node"><title>Node1</title>
<polygon fill="#bfbfbf" stroke="black" points="174,-0.5 174,-19.5 242,-19.5 242,-0.5 174,-0.5"/>
<text text-anchor="middle" x="208" y="-7.5" font-family="Helvetica,sans-Serif" font-size="10.00">Color_union</text>
</g>
<!-- Node2 -->
<g id="node2" class="node"><title>Node2</title>
<a xlink:href="struct_r_g_b_value__struct.html" target="_top" xlink:title="RGBValue_struct">
<polygon fill="white" stroke="black" points="0,-68.5 0,-87.5 92,-87.5 92,-68.5 0,-68.5"/>
<text text-anchor="middle" x="46" y="-75.5" font-family="Helvetica,sans-Serif" font-size="10.00">RGBValue_struct</text>
</a>
</g>
<!-- Node2&#45;&gt;Node1 -->
<g id="edge2" class="edge"><title>Node2&#45;&gt;Node1</title>
<path fill="none" stroke="#9a32cd" stroke-dasharray="5,2" d="M76.5932,-64.5361C108.909,-51.3706 158.989,-30.9673 187.073,-19.5259"/>
<polygon fill="#9a32cd" stroke="#9a32cd" points="75.119,-61.3573 67.1787,-68.3717 77.7602,-67.8399 75.119,-61.3573"/>
<text text-anchor="middle" x="150.5" y="-41.5" font-family="Helvetica,sans-Serif" font-size="10.00"> rgb</text>
</g>
<!-- Node3 -->
<g id="node4" class="node"><title>Node3</title>
<a xlink:href="struct_h_s_i_value__struct.html" target="_top" xlink:title="HSIValue_struct">
<polygon fill="white" stroke="black" points="110.5,-68.5 110.5,-87.5 197.5,-87.5 197.5,-68.5 110.5,-68.5"/>
<text text-anchor="middle" x="154" y="-75.5" font-family="Helvetica,sans-Serif" font-size="10.00">HSIValue_struct</text>
</a>
</g>
<!-- Node3&#45;&gt;Node1 -->
<g id="edge4" class="edge"><title>Node3&#45;&gt;Node1</title>
<path fill="none" stroke="#9a32cd" stroke-dasharray="5,2" d="M167.655,-60.3101C178.182,-47.4437 192.325,-30.1583 200.766,-19.8411"/>
<polygon fill="#9a32cd" stroke="#9a32cd" points="164.683,-58.4157 161.06,-68.3717 170.101,-62.8484 164.683,-58.4157"/>
<text text-anchor="middle" x="194" y="-41.5" font-family="Helvetica,sans-Serif" font-size="10.00"> hsi</text>
</g>
<!-- Node4 -->
<g id="node6" class="node"><title>Node4</title>
<a xlink:href="struct_h_s_v_value__struct.html" target="_top" xlink:title="HSVValue_struct">
<polygon fill="white" stroke="black" points="216,-68.5 216,-87.5 308,-87.5 308,-68.5 216,-68.5"/>
<text text-anchor="middle" x="262" y="-75.5" font-family="Helvetica,sans-Serif" font-size="10.00">HSVValue_struct</text>
</a>
</g>
<!-- Node4&#45;&gt;Node1 -->
<g id="edge6" class="edge"><title>Node4&#45;&gt;Node1</title>
<path fill="none" stroke="#9a32cd" stroke-dasharray="5,2" d="M248.345,-60.3101C237.818,-47.4437 223.675,-30.1583 215.234,-19.8411"/>
<polygon fill="#9a32cd" stroke="#9a32cd" points="245.899,-62.8484 254.94,-68.3717 251.317,-58.4157 245.899,-62.8484"/>
<text text-anchor="middle" x="249" y="-41.5" font-family="Helvetica,sans-Serif" font-size="10.00"> hsv</text>
</g>
<!-- Node5 -->
<g id="node8" class="node"><title>Node5</title>
<a xlink:href="struct_h_s_l_value__struct.html" target="_top" xlink:title="HSLValue_struct">
<polygon fill="white" stroke="black" points="326,-68.5 326,-87.5 416,-87.5 416,-68.5 326,-68.5"/>
<text text-anchor="middle" x="371" y="-75.5" font-family="Helvetica,sans-Serif" font-size="10.00">HSLValue_struct</text>
</a>
</g>
<!-- Node5&#45;&gt;Node1 -->
<g id="edge8" class="edge"><title>Node5&#45;&gt;Node1</title>
<path fill="none" stroke="#9a32cd" stroke-dasharray="5,2" d="M340.218,-64.5361C307.703,-51.3706 257.313,-30.9673 229.056,-19.5259"/>
<polygon fill="#9a32cd" stroke="#9a32cd" points="339.108,-67.8627 349.691,-68.3717 341.735,-61.3743 339.108,-67.8627"/>
<text text-anchor="middle" x="313" y="-41.5" font-family="Helvetica,sans-Serif" font-size="10.00"> hsl</text>
</g>
</g>
</svg>
